MFile 1 7 120
MTrk
0 Meta SeqName ""
0 Meta Text "\n"
0 TimeSig 3/4 24 8
0 KeySig 1 major
0 Tempo 266667
2760 Tempo 600000
2850 Tempo 340909
3240 Tempo 266667
9000 Tempo 300000
14520 Tempo 266667
20520 Tempo 300000
26040 Tempo 266667
32040 KeySig 4 major
32040 Tempo 300000
43560 Tempo 266667
46320 Tempo 300000
52200 Tempo 266667
54960 Tempo 300000
60840 KeySig 1 major
60840 Tempo 266667
60840 Meta TrkEnd
TrkEnd
MTrk
0 Meta 0x21 00
0 Meta TrkName "Lower Treble"
0 PrCh ch=1 p=0
5160 On ch=1 n=b5 v=80
5160 On ch=1 n=g5 v=80
5280 On ch=1 n=g5 v=0
5280 On ch=1 n=b5 v=0
5280 On ch=1 n=e5 v=80
5400 On ch=1 n=e5 v=0
5520 On ch=1 n=a5 v=80
5520 On ch=1 n=f#5 v=80
5640 On ch=1 n=f#5 v=0
5640 On ch=1 n=a5 v=0
5640 On ch=1 n=b4 v=80
5760 On ch=1 n=b4 v=0
5760 On ch=1 n=g5 v=80
5760 On ch=1 n=e5 v=80
5880 On ch=1 n=e5 v=0
5880 On ch=1 n=g5 v=0
8040 On ch=1 n=b5 v=87
8040 On ch=1 n=g5 v=87
8160 On ch=1 n=g5 v=0
8160 On ch=1 n=b5 v=0
8160 On ch=1 n=e5 v=90
8280 On ch=1 n=e5 v=0
8400 On ch=1 n=a5 v=96
8400 On ch=1 n=f#5 v=96
8520 On ch=1 n=f#5 v=0
8520 On ch=1 n=a5 v=0
8520 On ch=1 n=b4 v=98
8640 On ch=1 n=b4 v=0
8640 On ch=1 n=g5 v=100
8640 On ch=1 n=e5 v=100
8760 On ch=1 n=e5 v=0
8760 On ch=1 n=g5 v=0
16680 On ch=1 n=b5 v=80
16680 On ch=1 n=g5 v=80
16800 On ch=1 n=g5 v=0
16800 On ch=1 n=b5 v=0
16800 On ch=1 n=e5 v=80
16920 On ch=1 n=e5 v=0
17040 On ch=1 n=a5 v=80
17040 On ch=1 n=f#5 v=80
17160 On ch=1 n=f#5 v=0
17160 On ch=1 n=a5 v=0
17160 On ch=1 n=b4 v=80
17280 On ch=1 n=b4 v=0
17280 On ch=1 n=g5 v=80
17280 On ch=1 n=e5 v=80
17400 On ch=1 n=e5 v=0
17400 On ch=1 n=g5 v=0
19560 On ch=1 n=b5 v=89
19560 On ch=1 n=g5 v=89
19680 On ch=1 n=g5 v=0
19680 On ch=1 n=b5 v=0
19680 On ch=1 n=e5 v=91
19800 On ch=1 n=e5 v=0
19920 On ch=1 n=a5 v=95
19920 On ch=1 n=f#5 v=95
20040 On ch=1 n=f#5 v=0
20040 On ch=1 n=a5 v=0
20040 On ch=1 n=b4 v=97
20160 On ch=1 n=b4 v=0
20160 On ch=1 n=g5 v=99
20160 On ch=1 n=e5 v=99
20190 On ch=1 n=e5 v=0
20190 On ch=1 n=g5 v=0
28200 On ch=1 n=b5 v=80
28200 On ch=1 n=g5 v=80
28320 On ch=1 n=g5 v=0
28320 On ch=1 n=b5 v=0
28320 On ch=1 n=e5 v=80
28440 On ch=1 n=e5 v=0
28560 On ch=1 n=a5 v=80
28560 On ch=1 n=f#5 v=80
28680 On ch=1 n=f#5 v=0
28680 On ch=1 n=a5 v=0
28680 On ch=1 n=b4 v=80
28800 On ch=1 n=b4 v=0
28800 On ch=1 n=g5 v=80
28800 On ch=1 n=e5 v=80
28920 On ch=1 n=e5 v=0
28920 On ch=1 n=g5 v=0
31080 On ch=1 n=b5 v=89
31080 On ch=1 n=g5 v=89
31200 On ch=1 n=g5 v=0
31200 On ch=1 n=b5 v=0
31200 On ch=1 n=e5 v=91
31320 On ch=1 n=e5 v=0
31440 On ch=1 n=a5 v=95
31440 On ch=1 n=f#5 v=95
31560 On ch=1 n=f#5 v=0
31560 On ch=1 n=a5 v=0
31560 On ch=1 n=b4 v=97
31680 On ch=1 n=b4 v=0
31680 On ch=1 n=g5 v=100
31680 On ch=1 n=e5 v=100
31710 On ch=1 n=e5 v=0
31710 On ch=1 n=g5 v=0
32160 On ch=1 n=a5 v=60
32280 On ch=1 n=a5 v=0
32280 On ch=1 n=b4 v=60
32400 On ch=1 n=b4 v=0
32520 On ch=1 n=a5 v=60
32640 On ch=1 n=a5 v=0
32640 On ch=1 n=b4 v=60
32760 On ch=1 n=b4 v=0
32880 On ch=1 n=g#5 v=60
33000 On ch=1 n=g#5 v=0
33000 On ch=1 n=b4 v=60
33120 On ch=1 n=b4 v=0
33120 On ch=1 n=g#4 v=60
33150 On ch=1 n=g#4 v=0
33240 On ch=1 n=b5 v=60
33360 On ch=1 n=b5 v=0
33360 On ch=1 n=e5 v=60
33480 On ch=1 n=e5 v=0
33600 On ch=1 n=b5 v=60
33720 On ch=1 n=b5 v=0
33720 On ch=1 n=b4 v=60
33840 On ch=1 n=b4 v=0
35040 On ch=1 n=a5 v=60
35160 On ch=1 n=a5 v=0
35160 On ch=1 n=b4 v=60
35280 On ch=1 n=b4 v=0
35400 On ch=1 n=a5 v=60
35520 On ch=1 n=a5 v=0
35520 On ch=1 n=b4 v=60
35640 On ch=1 n=b4 v=0
35760 On ch=1 n=g#5 v=60
35880 On ch=1 n=g#5 v=0
35880 On ch=1 n=b4 v=60
36000 On ch=1 n=b4 v=0
36000 On ch=1 n=g#4 v=60
36030 On ch=1 n=g#4 v=0
36120 On ch=1 n=b5 v=60
36240 On ch=1 n=b5 v=0
36240 On ch=1 n=e5 v=60
36360 On ch=1 n=e5 v=0
36480 On ch=1 n=b5 v=60
36600 On ch=1 n=b5 v=0
36600 On ch=1 n=b4 v=60
36720 On ch=1 n=b4 v=0
37920 On ch=1 n=a5 v=60
38040 On ch=1 n=a5 v=0
38040 On ch=1 n=b4 v=60
38160 On ch=1 n=b4 v=0
38280 On ch=1 n=a5 v=60
38400 On ch=1 n=a5 v=0
38400 On ch=1 n=b4 v=60
38520 On ch=1 n=b4 v=0
38640 On ch=1 n=g#5 v=60
38760 On ch=1 n=g#5 v=0
38760 On ch=1 n=b4 v=60
38880 On ch=1 n=b4 v=0
38880 On ch=1 n=g#4 v=60
38910 On ch=1 n=g#4 v=0
39000 On ch=1 n=b5 v=60
39120 On ch=1 n=b5 v=0
39120 On ch=1 n=e5 v=60
39240 On ch=1 n=e5 v=0
39360 On ch=1 n=b5 v=60
39480 On ch=1 n=b5 v=0
39480 On ch=1 n=b4 v=60
39600 On ch=1 n=b4 v=0
40800 On ch=1 n=a5 v=60
40920 On ch=1 n=a5 v=0
40920 On ch=1 n=b4 v=60
41040 On ch=1 n=b4 v=0
41160 On ch=1 n=a5 v=60
41280 On ch=1 n=a5 v=0
41280 On ch=1 n=b4 v=60
41400 On ch=1 n=b4 v=0
41520 On ch=1 n=g#5 v=60
41640 On ch=1 n=g#5 v=0
41640 On ch=1 n=b4 v=60
41760 On ch=1 n=b4 v=0
41760 On ch=1 n=g#4 v=60
41790 On ch=1 n=g#4 v=0
41880 On ch=1 n=b5 v=60
42000 On ch=1 n=b5 v=0
42000 On ch=1 n=e5 v=60
42120 On ch=1 n=e5 v=0
42240 On ch=1 n=b5 v=60
42360 On ch=1 n=b5 v=0
42360 On ch=1 n=b4 v=60
42480 On ch=1 n=b4 v=0
46560 On ch=1 n=a5 v=60
46680 On ch=1 n=a5 v=0
46680 On ch=1 n=b4 v=60
46800 On ch=1 n=b4 v=0
46920 On ch=1 n=a5 v=60
47040 On ch=1 n=a5 v=0
47040 On ch=1 n=b4 v=60
47160 On ch=1 n=b4 v=0
47280 On ch=1 n=g#5 v=60
47400 On ch=1 n=g#5 v=0
47400 On ch=1 n=b4 v=60
47520 On ch=1 n=b4 v=0
47640 On ch=1 n=b5 v=60
47760 On ch=1 n=b5 v=0
47760 On ch=1 n=e5 v=60
47880 On ch=1 n=e5 v=0
48000 On ch=1 n=b5 v=60
48120 On ch=1 n=b5 v=0
48120 On ch=1 n=b4 v=60
48240 On ch=1 n=b4 v=0
55200 On ch=1 n=a5 v=60
55320 On ch=1 n=a5 v=0
55320 On ch=1 n=b4 v=60
55440 On ch=1 n=b4 v=0
55560 On ch=1 n=a5 v=60
55680 On ch=1 n=a5 v=0
55680 On ch=1 n=b4 v=60
55800 On ch=1 n=b4 v=0
55920 On ch=1 n=g#5 v=60
56040 On ch=1 n=g#5 v=0
56040 On ch=1 n=b4 v=60
56160 On ch=1 n=b4 v=0
56280 On ch=1 n=b5 v=60
56400 On ch=1 n=b5 v=0
56400 On ch=1 n=e5 v=60
56520 On ch=1 n=e5 v=0
56640 On ch=1 n=b5 v=60
56760 On ch=1 n=b5 v=0
56760 On ch=1 n=b4 v=60
56880 On ch=1 n=b4 v=0
60960 On ch=1 n=a5 v=60
60960 On ch=1 n=f#5 v=60
61080 On ch=1 n=f#5 v=0
61080 On ch=1 n=a5 v=0
61080 On ch=1 n=b4 v=60
61200 On ch=1 n=b4 v=0
61320 On ch=1 n=g5 v=60
61320 On ch=1 n=e5 v=60
61440 On ch=1 n=e5 v=0
61440 On ch=1 n=g5 v=0
61440 On ch=1 n=b4 v=60
61560 On ch=1 n=b4 v=0
61680 On ch=1 n=d#5 v=68
61680 On ch=1 n=a5 v=68
61800 On ch=1 n=a5 v=0
61800 On ch=1 n=d#5 v=0
61800 On ch=1 n=b4 v=74
61920 On ch=1 n=b4 v=0
61920 On ch=1 n=g4 v=80
61950 On ch=1 n=g4 v=0
62040 On ch=1 n=g5 v=80
62040 On ch=1 n=e5 v=80
62160 On ch=1 n=e5 v=0
62160 On ch=1 n=g5 v=0
62160 On ch=1 n=b4 v=80
62280 On ch=1 n=b4 v=0
62280 On ch=1 n=a4 v=80
62310 On ch=1 n=a4 v=0
62400 On ch=1 n=e5 v=80
62400 On ch=1 n=f#5 v=80
62520 On ch=1 n=f#5 v=0
62520 On ch=1 n=e5 v=0
62520 On ch=1 n=c5 v=80
62640 On ch=1 n=c5 v=0
62640 On ch=1 n=b4 v=80
62670 On ch=1 n=b4 v=0
62760 On ch=1 n=b5 v=80
62760 On ch=1 n=g5 v=80
62880 On ch=1 n=g5 v=0
62880 On ch=1 n=b5 v=0
62880 On ch=1 n=e5 v=80
63000 On ch=1 n=e5 v=0
63120 On ch=1 n=a5 v=80
63120 On ch=1 n=f#5 v=80
63240 On ch=1 n=f#5 v=0
63240 On ch=1 n=a5 v=0
63240 On ch=1 n=b4 v=80
63360 On ch=1 n=b4 v=0
63360 On ch=1 n=g5 v=80
63360 On ch=1 n=e5 v=80
63480 On ch=1 n=e5 v=0
63480 On ch=1 n=g5 v=0
63840 On ch=1 n=a5 v=60
63840 On ch=1 n=f#5 v=60
63960 On ch=1 n=f#5 v=0
63960 On ch=1 n=a5 v=0
63960 On ch=1 n=b4 v=60
64080 On ch=1 n=b4 v=0
64200 On ch=1 n=g5 v=60
64200 On ch=1 n=e5 v=60
64320 On ch=1 n=e5 v=0
64320 On ch=1 n=g5 v=0
64320 On ch=1 n=b4 v=60
64440 On ch=1 n=b4 v=0
64560 On ch=1 n=d#5 v=84
64560 On ch=1 n=a5 v=84
64680 On ch=1 n=a5 v=0
64680 On ch=1 n=d#5 v=0
64680 On ch=1 n=b4 v=104
64800 On ch=1 n=b4 v=0
64800 On ch=1 n=g#4 v=120
64810 On ch=1 n=d5 v=120
64820 On ch=1 n=f5 v=120
64830 On ch=1 n=b5 v=120
64920 On ch=1 n=b5 v=0
64920 On ch=1 n=g#4 v=0
64920 On ch=1 n=d5 v=0
64920 On ch=1 n=f5 v=0
64920 Meta TrkEnd
TrkEnd
MTrk
0 Meta 0x21 00
0 Meta TrkName "Upper Treble"
0 PrCh ch=1 p=0
840 On ch=1 n=b4 v=60
900 On ch=1 n=b4 v=0
900 On ch=1 n=g5 v=60
960 On ch=1 n=g5 v=0
960 On ch=1 n=e5 v=60
1020 On ch=1 n=e5 v=0
1020 On ch=1 n=b4 v=60
1080 On ch=1 n=b4 v=0
1080 On ch=1 n=a#4 v=60
1140 On ch=1 n=a#4 v=0
1140 On ch=1 n=b4 v=61
1200 On ch=1 n=b4 v=0
1200 On ch=1 n=e5 v=63
1260 On ch=1 n=e5 v=0
1260 On ch=1 n=b5 v=65
1320 On ch=1 n=b5 v=0
1320 On ch=1 n=g5 v=66
1380 On ch=1 n=g5 v=0
1380 On ch=1 n=e5 v=68
1440 On ch=1 n=e5 v=0
1440 On ch=1 n=d#5 v=70
1500 On ch=1 n=d#5 v=0
1500 On ch=1 n=e5 v=71
1560 On ch=1 n=e5 v=0
1560 On ch=1 n=g5 v=73
1620 On ch=1 n=g5 v=0
1620 On ch=1 n=e6 v=75
1680 On ch=1 n=e6 v=0
1680 On ch=1 n=b5 v=77
1740 On ch=1 n=b5 v=0
1740 On ch=1 n=g5 v=78
1800 On ch=1 n=g5 v=0
1800 On ch=1 n=f#5 v=80
1860 On ch=1 n=f#5 v=0
1860 On ch=1 n=g5 v=82
1920 On ch=1 n=g5 v=0
1920 On ch=1 n=b5 v=83
1980 On ch=1 n=b5 v=0
1980 On ch=1 n=g6 v=85
2040 On ch=1 n=g6 v=0
2040 On ch=1 n=e6 v=87
2100 On ch=1 n=e6 v=0
2100 On ch=1 n=b5 v=89
2160 On ch=1 n=b5 v=0
2160 On ch=1 n=a#5 v=90
2220 On ch=1 n=a#5 v=0
2220 On ch=1 n=b5 v=92
2280 On ch=1 n=b5 v=0
2280 On ch=1 n=e6 v=94
2340 On ch=1 n=e6 v=0
2340 On ch=1 n=b6 v=95
2400 On ch=1 n=b6 v=0
2400 On ch=1 n=g6 v=97
2460 On ch=1 n=g6 v=0
2460 On ch=1 n=e6 v=99
2520 On ch=1 n=e6 v=0
2520 On ch=1 n=d#6 v=100
2580 On ch=1 n=d#6 v=0
2580 On ch=1 n=e6 v=100
2640 On ch=1 n=e6 v=0
2640 On ch=1 n=g6 v=100
2700 On ch=1 n=g6 v=0
2700 On ch=1 n=b6 v=100
2760 On ch=1 n=b6 v=0
2760 On ch=1 n=e7 v=100
2820 On ch=1 n=e7 v=0
2850 On ch=1 n=e8 v=100
2880 On ch=1 n=e8 v=0
2880 On ch=1 n=b7 v=100
2880 On ch=1 n=g7 v=100
2910 On ch=1 n=g7 v=0
2910 On ch=1 n=b7 v=0
3240 On ch=1 n=b5 v=60
3270 On ch=1 n=b5 v=0
3360 On ch=1 n=b5 v=60
3390 On ch=1 n=b5 v=0
3420 On ch=1 n=b5 v=60
3450 On ch=1 n=b5 v=0
3480 On ch=1 n=b5 v=60
3510 On ch=1 n=b5 v=0
3600 On ch=1 n=a#5 v=60
3660 On ch=1 n=a#5 v=0
3660 On ch=1 n=b5 v=60
3720 On ch=1 n=b5 v=0
3720 On ch=1 n=e6 v=60
3780 On ch=1 n=e6 v=0
3780 On ch=1 n=g6 v=60
3840 On ch=1 n=g6 v=0
3840 On ch=1 n=b6 v=60
3870 On ch=1 n=b6 v=0
3930 On ch=1 n=c7 v=60
3945 On ch=1 n=c7 v=0
3945 On ch=1 n=d7 v=60
3960 On ch=1 n=d7 v=0
3960 On ch=1 n=c7 v=61
4020 On ch=1 n=c7 v=0
4020 On ch=1 n=b6 v=64
4080 On ch=1 n=b6 v=0
4080 On ch=1 n=a#6 v=68
4140 On ch=1 n=a#6 v=0
4140 On ch=1 n=b6 v=71
4200 On ch=1 n=b6 v=0
4200 On ch=1 n=f#7 v=74
4200 On ch=1 n=d#7 v=74
4260 On ch=1 n=d#7 v=0
4260 On ch=1 n=f#7 v=0
4260 On ch=1 n=b7 v=78
4320 On ch=1 n=b7 v=0
4320 On ch=1 n=g7 v=80
4320 On ch=1 n=e7 v=80
4350 On ch=1 n=e7 v=0
4350 On ch=1 n=g7 v=0
4560 On ch=1 n=b6 v=80
4590 On ch=1 n=b6 v=0
4665 On ch=1 n=c7 v=80
4680 On ch=1 n=c7 v=0
4680 On ch=1 n=b7 v=80
4710 On ch=1 n=b7 v=0
4800 On ch=1 n=a7 v=80
4860 On ch=1 n=f#7 v=80
4920 On ch=1 n=f#7 v=0
4920 On ch=1 n=c7 v=80
5025 On ch=1 n=b6 v=80
5040 On ch=1 n=b6 v=0
5040 On ch=1 n=c7 v=0
5040 On ch=1 n=a7 v=0
5040 On ch=1 n=a7 v=80
5070 On ch=1 n=a7 v=0
5160 On ch=1 n=g7 v=80
5220 On ch=1 n=e7 v=80
5280 On ch=1 n=e7 v=0
5280 On ch=1 n=b6 v=80
5385 On ch=1 n=a6 v=80
5400 On ch=1 n=a6 v=0
5400 On ch=1 n=b6 v=0
5400 On ch=1 n=g7 v=0
5400 On ch=1 n=g7 v=80
5430 On ch=1 n=g7 v=0
5520 On ch=1 n=f#7 v=80
5580 On ch=1 n=d#7 v=80
5640 On ch=1 n=d#7 v=0
5640 On ch=1 n=a6 v=80
5760 On ch=1 n=a6 v=0
5760 On ch=1 n=f#7 v=0
5760 On ch=1 n=e7 v=80
5760 On ch=1 n=g6 v=80
5820 On ch=1 n=g6 v=0
5820 On ch=1 n=e7 v=0
5820 On ch=1 n=c7 v=77
5880 On ch=1 n=c7 v=0
5880 On ch=1 n=b6 v=73
5940 On ch=1 n=b6 v=0
5940 On ch=1 n=g6 v=70
6000 On ch=1 n=g6 v=0
6000 On ch=1 n=e6 v=66
6060 On ch=1 n=e6 v=0
6060 On ch=1 n=c6 v=63
6120 On ch=1 n=c6 v=0
6120 On ch=1 n=b5 v=60
6150 On ch=1 n=b5 v=0
6240 On ch=1 n=b5 v=60
6270 On ch=1 n=b5 v=0
6300 On ch=1 n=b5 v=60
6330 On ch=1 n=b5 v=0
6360 On ch=1 n=b5 v=60
6390 On ch=1 n=b5 v=0
6480 On ch=1 n=a#5 v=60
6540 On ch=1 n=a#5 v=0
6540 On ch=1 n=b5 v=60
6600 On ch=1 n=b5 v=0
6600 On ch=1 n=e6 v=60
6660 On ch=1 n=e6 v=0
6660 On ch=1 n=g6 v=60
6720 On ch=1 n=g6 v=0
6720 On ch=1 n=b6 v=60
6750 On ch=1 n=b6 v=0
6810 On ch=1 n=c7 v=60
6825 On ch=1 n=c7 v=0
6825 On ch=1 n=d7 v=60
6840 On ch=1 n=d7 v=0
6840 On ch=1 n=c7 v=60
6900 On ch=1 n=c7 v=0
6900 On ch=1 n=b6 v=62
6960 On ch=1 n=b6 v=0
6960 On ch=1 n=a#6 v=63
7020 On ch=1 n=a#6 v=0
7020 On ch=1 n=b6 v=64
7080 On ch=1 n=b6 v=0
7080 On ch=1 n=f#7 v=66
7080 On ch=1 n=d#7 v=66
7140 On ch=1 n=d#7 v=0
7140 On ch=1 n=f#7 v=0
7140 On ch=1 n=b7 v=67
7200 On ch=1 n=b7 v=0
7200 On ch=1 n=g7 v=68
7200 On ch=1 n=e7 v=68
7230 On ch=1 n=e7 v=0
7230 On ch=1 n=g7 v=0
7440 On ch=1 n=b6 v=74
7470 On ch=1 n=b6 v=0
7545 On ch=1 n=c7 v=76
7560 On ch=1 n=c7 v=0
7560 On ch=1 n=b7 v=77
7590 On ch=1 n=b7 v=0
7680 On ch=1 n=a7 v=79
7740 On ch=1 n=f#7 v=81
7800 On ch=1 n=f#7 v=0
7800 On ch=1 n=c7 v=82
7905 On ch=1 n=b6 v=84
7920 On ch=1 n=b6 v=0
7920 On ch=1 n=c7 v=0
7920 On ch=1 n=a7 v=0
7920 On ch=1 n=a7 v=85
7950 On ch=1 n=a7 v=0
8040 On ch=1 n=g7 v=87
8100 On ch=1 n=e7 v=89
8160 On ch=1 n=e7 v=0
8160 On ch=1 n=b6 v=90
8265 On ch=1 n=a6 v=93
8280 On ch=1 n=a6 v=0
8280 On ch=1 n=b6 v=0
8280 On ch=1 n=g7 v=0
8280 On ch=1 n=g7 v=93
8310 On ch=1 n=g7 v=0
8400 On ch=1 n=f#7 v=96
8460 On ch=1 n=d#7 v=97
8520 On ch=1 n=d#7 v=0
8520 On ch=1 n=a6 v=98
8640 On ch=1 n=a6 v=0
8640 On ch=1 n=f#7 v=0
8640 On ch=1 n=g6 v=100
8640 On ch=1 n=e7 v=100
8670 On ch=1 n=e7 v=0
8670 On ch=1 n=g6 v=0
8880 On ch=1 n=b5 v=60
9000 On ch=1 n=b5 v=0
9000 On ch=1 n=c6 v=60
9060 On ch=1 n=c6 v=0
9060 On ch=1 n=f#6 v=60
9120 On ch=1 n=f#6 v=0
9120 On ch=1 n=a6 v=60
9180 On ch=1 n=a6 v=0
9180 On ch=1 n=g6 v=60
9240 On ch=1 n=g6 v=0
9240 On ch=1 n=e6 v=60
9300 On ch=1 n=e6 v=0
9300 On ch=1 n=c6 v=60
9360 On ch=1 n=c6 v=0
9360 On ch=1 n=c6 v=60
9600 On ch=1 n=c6 v=0
9600 On ch=1 n=b5 v=60
9720 On ch=1 n=b5 v=0
9720 On ch=1 n=a#5 v=60
9780 On ch=1 n=a#5 v=0
9780 On ch=1 n=e6 v=60
9840 On ch=1 n=e6 v=0
9840 On ch=1 n=g6 v=60
9900 On ch=1 n=g6 v=0
9900 On ch=1 n=f6 v=60
9960 On ch=1 n=f6 v=0
9960 On ch=1 n=d6 v=60
10020 On ch=1 n=d6 v=0
10020 On ch=1 n=a#5 v=60
10080 On ch=1 n=a#5 v=0
10080 On ch=1 n=a#5 v=60
10320 On ch=1 n=a#5 v=0
10320 On ch=1 n=a5 v=60
10440 On ch=1 n=a5 v=0
10440 On ch=1 n=a5 v=60
10500 On ch=1 n=a5 v=0
10500 On ch=1 n=d#6 v=60
10560 On ch=1 n=d#6 v=0
10560 On ch=1 n=f#6 v=60
10620 On ch=1 n=f#6 v=0
10620 On ch=1 n=e6 v=60
10680 On ch=1 n=e6 v=0
10680 On ch=1 n=c6 v=60
10740 On ch=1 n=c6 v=0
10740 On ch=1 n=a5 v=60
10800 On ch=1 n=a5 v=0
10800 On ch=1 n=a5 v=60
11040 On ch=1 n=a5 v=0
11040 On ch=1 n=g5 v=60
11160 On ch=1 n=g5 v=0
11160 On ch=1 n=f#5 v=60
11220 On ch=1 n=f#5 v=0
11220 On ch=1 n=g5 v=60
11280 On ch=1 n=g5 v=0
11280 On ch=1 n=a5 v=60
11340 On ch=1 n=a5 v=0
11340 On ch=1 n=a#5 v=60
11400 On ch=1 n=a#5 v=0
11400 On ch=1 n=b5 v=60
11460 On ch=1 n=b5 v=0
11460 On ch=1 n=f#5 v=60
11520 On ch=1 n=f#5 v=0
11520 On ch=1 n=a5 v=60
11760 On ch=1 n=a5 v=0
11760 On ch=1 n=g5 v=60
11880 On ch=1 n=g5 v=0
11880 On ch=1 n=c6 v=100
11940 On ch=1 n=c6 v=0
11940 On ch=1 n=g6 v=100
12000 On ch=1 n=g6 v=0
12000 On ch=1 n=c7 v=100
12060 On ch=1 n=c7 v=0
12060 On ch=1 n=c7 v=100
12120 On ch=1 n=c7 v=0
12120 On ch=1 n=g7 v=100
12180 On ch=1 n=g7 v=0
12180 On ch=1 n=c8 v=100
12240 On ch=1 n=c8 v=0
12240 On ch=1 n=b7 v=100
12300 On ch=1 n=b7 v=0
12300 On ch=1 n=f#7 v=100
12360 On ch=1 n=f#7 v=0
12360 On ch=1 n=b6 v=100
12420 On ch=1 n=b6 v=0
12420 On ch=1 n=b6 v=100
12480 On ch=1 n=b6 v=0
12480 On ch=1 n=f#6 v=100
12540 On ch=1 n=f#6 v=0
12540 On ch=1 n=b5 v=100
12600 On ch=1 n=b5 v=0
12600 On ch=1 n=a#5 v=100
12660 On ch=1 n=a#5 v=0
12660 On ch=1 n=f6 v=100
12720 On ch=1 n=f6 v=0
12720 On ch=1 n=a#6 v=100
12780 On ch=1 n=a#6 v=0
12780 On ch=1 n=a#6 v=100
12840 On ch=1 n=a#6 v=0
12840 On ch=1 n=f7 v=100
12900 On ch=1 n=f7 v=0
12900 On ch=1 n=a#7 v=100
12960 On ch=1 n=a#7 v=0
12960 On ch=1 n=a7 v=100
13020 On ch=1 n=a7 v=0
13020 On ch=1 n=e7 v=100
13080 On ch=1 n=e7 v=0
13080 On ch=1 n=a6 v=100
13140 On ch=1 n=a6 v=0
13140 On ch=1 n=a6 v=100
13200 On ch=1 n=a6 v=0
13200 On ch=1 n=e6 v=100
13260 On ch=1 n=e6 v=0
13260 On ch=1 n=a5 v=100
13320 On ch=1 n=a5 v=0
13320 On ch=1 n=a5 v=100
13380 On ch=1 n=a5 v=0
13380 On ch=1 n=e6 v=100
13440 On ch=1 n=e6 v=0
13440 On ch=1 n=a6 v=100
13500 On ch=1 n=a6 v=0
13500 On ch=1 n=a6 v=100
13560 On ch=1 n=a6 v=0
13560 On ch=1 n=e7 v=100
13620 On ch=1 n=e7 v=0
13620 On ch=1 n=a7 v=100
13680 On ch=1 n=a7 v=0
13680 On ch=1 n=g7 v=100
13740 On ch=1 n=g7 v=0
13740 On ch=1 n=e7 v=100
13800 On ch=1 n=e7 v=0
13800 On ch=1 n=g6 v=100
13860 On ch=1 n=g6 v=0
13860 On ch=1 n=g6 v=100
13920 On ch=1 n=g6 v=0
13920 On ch=1 n=e6 v=100
13980 On ch=1 n=e6 v=0
13980 On ch=1 n=g5 v=100
14040 On ch=1 n=g5 v=0
14040 On ch=1 n=f#6 v=100
14100 On ch=1 n=f#6 v=0
14100 On ch=1 n=f#5 v=100
14160 On ch=1 n=f#5 v=0
14160 On ch=1 n=b5 v=100
14220 On ch=1 n=b5 v=0
14220 On ch=1 n=f#6 v=100
14280 On ch=1 n=f#6 v=0
14280 On ch=1 n=a5 v=100
14280 On ch=1 n=g6 v=100
14340 On ch=1 n=g6 v=0
14340 On ch=1 n=a5 v=0
14340 On ch=1 n=f#6 v=100
14400 On ch=1 n=f#6 v=0
14400 On ch=1 n=g5 v=100
14400 On ch=1 n=e6 v=100
14520 On ch=1 n=e6 v=0
14520 On ch=1 n=g5 v=0
14520 On ch=1 n=d#6 v=86
14580 On ch=1 n=d#6 v=0
14580 On ch=1 n=d6 v=78
14640 On ch=1 n=d6 v=0
14640 On ch=1 n=c#6 v=71
14700 On ch=1 n=c#6 v=0
14700 On ch=1 n=c6 v=63
14760 On ch=1 n=c6 v=0
14760 On ch=1 n=b5 v=60
14790 On ch=1 n=b5 v=0
14880 On ch=1 n=b5 v=60
14910 On ch=1 n=b5 v=0
14940 On ch=1 n=b5 v=60
14970 On ch=1 n=b5 v=0
15000 On ch=1 n=b5 v=60
15030 On ch=1 n=b5 v=0
15120 On ch=1 n=a#5 v=60
15180 On ch=1 n=a#5 v=0
15180 On ch=1 n=b5 v=60
15240 On ch=1 n=b5 v=0
15240 On ch=1 n=e6 v=60
15300 On ch=1 n=e6 v=0
15300 On ch=1 n=g6 v=60
15360 On ch=1 n=g6 v=0
15360 On ch=1 n=b6 v=60
15390 On ch=1 n=b6 v=0
15450 On ch=1 n=c7 v=60
15465 On ch=1 n=c7 v=0
15465 On ch=1 n=d7 v=60
15480 On ch=1 n=d7 v=0
15480 On ch=1 n=c7 v=61
15540 On ch=1 n=c7 v=0
15540 On ch=1 n=b6 v=64
15600 On ch=1 n=b6 v=0
15600 On ch=1 n=a#6 v=68
15660 On ch=1 n=a#6 v=0
15660 On ch=1 n=b6 v=71
15720 On ch=1 n=b6 v=0
15720 On ch=1 n=f#7 v=74
15720 On ch=1 n=d#7 v=74
15780 On ch=1 n=d#7 v=0
15780 On ch=1 n=f#7 v=0
15780 On ch=1 n=b7 v=78
15840 On ch=1 n=b7 v=0
15840 On ch=1 n=g7 v=80
15840 On ch=1 n=e7 v=80
15870 On ch=1 n=e7 v=0
15870 On ch=1 n=g7 v=0
16080 On ch=1 n=b6 v=80
16110 On ch=1 n=b6 v=0
16185 On ch=1 n=c7 v=80
16200 On ch=1 n=c7 v=0
16200 On ch=1 n=b7 v=80
16230 On ch=1 n=b7 v=0
16320 On ch=1 n=a7 v=80
16380 On ch=1 n=f#7 v=80
16440 On ch=1 n=f#7 v=0
16440 On ch=1 n=c7 v=80
16545 On ch=1 n=b6 v=80
16560 On ch=1 n=b6 v=0
16560 On ch=1 n=c7 v=0
16560 On ch=1 n=a7 v=0
16560 On ch=1 n=a7 v=80
16590 On ch=1 n=a7 v=0
16680 On ch=1 n=g7 v=80
16740 On ch=1 n=e7 v=80
16800 On ch=1 n=e7 v=0
16800 On ch=1 n=b6 v=80
16905 On ch=1 n=a6 v=80
16920 On ch=1 n=a6 v=0
16920 On ch=1 n=b6 v=0
16920 On ch=1 n=g7 v=0
16920 On ch=1 n=g7 v=80
16950 On ch=1 n=g7 v=0
17040 On ch=1 n=f#7 v=80
17100 On ch=1 n=d#7 v=80
17160 On ch=1 n=d#7 v=0
17160 On ch=1 n=a6 v=80
17280 On ch=1 n=a6 v=0
17280 On ch=1 n=f#7 v=0
17280 On ch=1 n=e7 v=80
17280 On ch=1 n=g6 v=80
17340 On ch=1 n=g6 v=0
17340 On ch=1 n=e7 v=0
17340 On ch=1 n=c7 v=77
17400 On ch=1 n=c7 v=0
17400 On ch=1 n=b6 v=73
17460 On ch=1 n=b6 v=0
17460 On ch=1 n=g6 v=70
17520 On ch=1 n=g6 v=0
17520 On ch=1 n=e6 v=66
17580 On ch=1 n=e6 v=0
17580 On ch=1 n=c6 v=63
17640 On ch=1 n=c6 v=0
17640 On ch=1 n=b5 v=60
17670 On ch=1 n=b5 v=0
17760 On ch=1 n=b5 v=61
17790 On ch=1 n=b5 v=0
17820 On ch=1 n=b5 v=62
17850 On ch=1 n=b5 v=0
17880 On ch=1 n=b5 v=63
17910 On ch=1 n=b5 v=0
18000 On ch=1 n=a#5 v=65
18060 On ch=1 n=a#5 v=0
18060 On ch=1 n=b5 v=66
18120 On ch=1 n=b5 v=0
18120 On ch=1 n=e6 v=67
18180 On ch=1 n=e6 v=0
18180 On ch=1 n=g6 v=68
18240 On ch=1 n=g6 v=0
18240 On ch=1 n=b6 v=69
18270 On ch=1 n=b6 v=0
18330 On ch=1 n=c7 v=70
18345 On ch=1 n=c7 v=0
18345 On ch=1 n=d7 v=71
18360 On ch=1 n=d7 v=0
18360 On ch=1 n=c7 v=71
18420 On ch=1 n=c7 v=0
18420 On ch=1 n=b6 v=72
18480 On ch=1 n=b6 v=0
18480 On ch=1 n=a#6 v=73
18540 On ch=1 n=a#6 v=0
18540 On ch=1 n=b6 v=74
18600 On ch=1 n=b6 v=0
18600 On ch=1 n=f#7 v=74
18600 On ch=1 n=d#7 v=74
18660 On ch=1 n=d#7 v=0
18660 On ch=1 n=f#7 v=0
18660 On ch=1 n=b7 v=75
18720 On ch=1 n=b7 v=0
18720 On ch=1 n=g7 v=76
18720 On ch=1 n=e7 v=76
18750 On ch=1 n=e7 v=0
18750 On ch=1 n=g7 v=0
18960 On ch=1 n=b6 v=80
18990 On ch=1 n=b6 v=0
19065 On ch=1 n=c7 v=82
19080 On ch=1 n=c7 v=0
19080 On ch=1 n=b7 v=82
19110 On ch=1 n=b7 v=0
19200 On ch=1 n=a7 v=84
19260 On ch=1 n=f#7 v=85
19320 On ch=1 n=f#7 v=0
19320 On ch=1 n=c7 v=86
19425 On ch=1 n=b6 v=87
19440 On ch=1 n=b6 v=0
19440 On ch=1 n=c7 v=0
19440 On ch=1 n=a7 v=0
19440 On ch=1 n=a7 v=88
19470 On ch=1 n=a7 v=0
19560 On ch=1 n=g7 v=89
19620 On ch=1 n=e7 v=90
19680 On ch=1 n=e7 v=0
19680 On ch=1 n=b6 v=91
19785 On ch=1 n=a6 v=93
19800 On ch=1 n=a6 v=0
19800 On ch=1 n=b6 v=0
19800 On ch=1 n=g7 v=0
19800 On ch=1 n=g7 v=93
19830 On ch=1 n=g7 v=0
19920 On ch=1 n=f#7 v=95
19980 On ch=1 n=d#7 v=96
20040 On ch=1 n=d#7 v=0
20040 On ch=1 n=a6 v=97
20160 On ch=1 n=a6 v=0
20160 On ch=1 n=f#7 v=0
20160 On ch=1 n=g6 v=99
20160 On ch=1 n=e7 v=99
20190 On ch=1 n=e7 v=0
20190 On ch=1 n=g6 v=0
20400 On ch=1 n=a#5 v=60
20460 On ch=1 n=a#5 v=0
20460 On ch=1 n=b5 v=60
20520 On ch=1 n=b5 v=0
20520 On ch=1 n=c6 v=60
20580 On ch=1 n=c6 v=0
20580 On ch=1 n=f#6 v=60
20640 On ch=1 n=f#6 v=0
20640 On ch=1 n=a6 v=60
20700 On ch=1 n=a6 v=0
20700 On ch=1 n=g6 v=60
20760 On ch=1 n=g6 v=0
20760 On ch=1 n=e6 v=60
20820 On ch=1 n=e6 v=0
20820 On ch=1 n=c6 v=60
20880 On ch=1 n=c6 v=0
20880 On ch=1 n=c6 v=60
21120 On ch=1 n=c6 v=0
21120 On ch=1 n=b5 v=60
21240 On ch=1 n=b5 v=0
21240 On ch=1 n=a#5 v=60
21300 On ch=1 n=a#5 v=0
21300 On ch=1 n=e6 v=60
21360 On ch=1 n=e6 v=0
21360 On ch=1 n=g6 v=60
21420 On ch=1 n=g6 v=0
21420 On ch=1 n=f6 v=60
21480 On ch=1 n=f6 v=0
21480 On ch=1 n=d6 v=60
21540 On ch=1 n=d6 v=0
21540 On ch=1 n=a#5 v=60
21600 On ch=1 n=a#5 v=0
21600 On ch=1 n=a#5 v=60
21840 On ch=1 n=a#5 v=0
21840 On ch=1 n=a5 v=60
21960 On ch=1 n=a5 v=0
21960 On ch=1 n=a5 v=60
22020 On ch=1 n=a5 v=0
22020 On ch=1 n=d#6 v=60
22080 On ch=1 n=d#6 v=0
22080 On ch=1 n=f#6 v=60
22140 On ch=1 n=f#6 v=0
22140 On ch=1 n=e6 v=60
22200 On ch=1 n=e6 v=0
22200 On ch=1 n=c6 v=60
22260 On ch=1 n=c6 v=0
22260 On ch=1 n=a5 v=60
22320 On ch=1 n=a5 v=0
22320 On ch=1 n=a5 v=60
22560 On ch=1 n=a5 v=0
22560 On ch=1 n=g5 v=60
22680 On ch=1 n=g5 v=0
22680 On ch=1 n=f#5 v=60
22740 On ch=1 n=f#5 v=0
22740 On ch=1 n=g5 v=60
22800 On ch=1 n=g5 v=0
22800 On ch=1 n=a5 v=60
22860 On ch=1 n=a5 v=0
22860 On ch=1 n=a#5 v=60
22920 On ch=1 n=a#5 v=0
22920 On ch=1 n=b5 v=60
22980 On ch=1 n=b5 v=0
22980 On ch=1 n=f#5 v=60
23040 On ch=1 n=f#5 v=0
23040 On ch=1 n=a5 v=60
23280 On ch=1 n=a5 v=0
23280 On ch=1 n=g5 v=60
23400 On ch=1 n=g5 v=0
23400 On ch=1 n=c6 v=100
23460 On ch=1 n=c6 v=0
23460 On ch=1 n=g6 v=100
23520 On ch=1 n=g6 v=0
23520 On ch=1 n=c7 v=100
23580 On ch=1 n=c7 v=0
23580 On ch=1 n=c7 v=100
23640 On ch=1 n=c7 v=0
23640 On ch=1 n=g7 v=100
23700 On ch=1 n=g7 v=0
23700 On ch=1 n=c8 v=100
23760 On ch=1 n=c8 v=0
23760 On ch=1 n=b7 v=100
23820 On ch=1 n=b7 v=0
23820 On ch=1 n=f#7 v=100
23880 On ch=1 n=f#7 v=0
23880 On ch=1 n=b6 v=100
23940 On ch=1 n=b6 v=0
23940 On ch=1 n=b6 v=100
24000 On ch=1 n=b6 v=0
24000 On ch=1 n=f#6 v=100
24060 On ch=1 n=f#6 v=0
24060 On ch=1 n=b5 v=100
24120 On ch=1 n=b5 v=0
24120 On ch=1 n=a#5 v=100
24180 On ch=1 n=a#5 v=0
24180 On ch=1 n=f6 v=100
24240 On ch=1 n=f6 v=0
24240 On ch=1 n=a#6 v=100
24300 On ch=1 n=a#6 v=0
24300 On ch=1 n=a#6 v=100
24360 On ch=1 n=a#6 v=0
24360 On ch=1 n=f7 v=100
24420 On ch=1 n=f7 v=0
24420 On ch=1 n=a#7 v=100
24480 On ch=1 n=a#7 v=0
24480 On ch=1 n=a7 v=100
24540 On ch=1 n=a7 v=0
24540 On ch=1 n=e7 v=100
24600 On ch=1 n=e7 v=0
24600 On ch=1 n=a6 v=100
24660 On ch=1 n=a6 v=0
24660 On ch=1 n=a6 v=100
24720 On ch=1 n=a6 v=0
24720 On ch=1 n=e6 v=100
24780 On ch=1 n=e6 v=0
24780 On ch=1 n=a5 v=100
24840 On ch=1 n=a5 v=0
24840 On ch=1 n=a5 v=100
24900 On ch=1 n=a5 v=0
24900 On ch=1 n=e6 v=100
24960 On ch=1 n=e6 v=0
24960 On ch=1 n=a6 v=100
25020 On ch=1 n=a6 v=0
25020 On ch=1 n=a6 v=100
25080 On ch=1 n=a6 v=0
25080 On ch=1 n=e7 v=100
25140 On ch=1 n=e7 v=0
25140 On ch=1 n=a7 v=100
25200 On ch=1 n=a7 v=0
25200 On ch=1 n=g7 v=100
25260 On ch=1 n=g7 v=0
25260 On ch=1 n=e7 v=100
25320 On ch=1 n=e7 v=0
25320 On ch=1 n=g6 v=100
25380 On ch=1 n=g6 v=0
25380 On ch=1 n=g6 v=100
25440 On ch=1 n=g6 v=0
25440 On ch=1 n=e6 v=100
25500 On ch=1 n=e6 v=0
25500 On ch=1 n=g5 v=100
25560 On ch=1 n=g5 v=0
25560 On ch=1 n=f#6 v=100
25620 On ch=1 n=f#6 v=0
25620 On ch=1 n=f#5 v=100
25680 On ch=1 n=f#5 v=0
25680 On ch=1 n=b5 v=100
25740 On ch=1 n=b5 v=0
25740 On ch=1 n=f#6 v=100
25800 On ch=1 n=f#6 v=0
25800 On ch=1 n=a5 v=100
25800 On ch=1 n=g6 v=100
25860 On ch=1 n=g6 v=0
25860 On ch=1 n=a5 v=0
25860 On ch=1 n=f#6 v=100
25920 On ch=1 n=f#6 v=0
25920 On ch=1 n=g5 v=100
25920 On ch=1 n=e6 v=100
26040 On ch=1 n=e6 v=0
26040 On ch=1 n=g5 v=0
26040 On ch=1 n=d#6 v=86
26100 On ch=1 n=d#6 v=0
26100 On ch=1 n=d6 v=78
26160 On ch=1 n=d6 v=0
26160 On ch=1 n=c#6 v=71
26220 On ch=1 n=c#6 v=0
26220 On ch=1 n=c6 v=63
26280 On ch=1 n=c6 v=0
26280 On ch=1 n=b5 v=60
26310 On ch=1 n=b5 v=0
26400 On ch=1 n=b5 v=60
26430 On ch=1 n=b5 v=0
26460 On ch=1 n=b5 v=60
26490 On ch=1 n=b5 v=0
26520 On ch=1 n=b5 v=60
26550 On ch=1 n=b5 v=0
26640 On ch=1 n=a#5 v=60
26700 On ch=1 n=a#5 v=0
26700 On ch=1 n=b5 v=60
26760 On ch=1 n=b5 v=0
26760 On ch=1 n=e6 v=60
26820 On ch=1 n=e6 v=0
26820 On ch=1 n=g6 v=60
26880 On ch=1 n=g6 v=0
26880 On ch=1 n=b6 v=60
26910 On ch=1 n=b6 v=0
26970 On ch=1 n=c7 v=60
26985 On ch=1 n=c7 v=0
26985 On ch=1 n=d7 v=60
27000 On ch=1 n=d7 v=0
27000 On ch=1 n=c7 v=61
27060 On ch=1 n=c7 v=0
27060 On ch=1 n=b6 v=64
27120 On ch=1 n=b6 v=0
27120 On ch=1 n=a#6 v=68
27180 On ch=1 n=a#6 v=0
27180 On ch=1 n=b6 v=71
27240 On ch=1 n=b6 v=0
27240 On ch=1 n=f#7 v=74
27240 On ch=1 n=d#7 v=74
27300 On ch=1 n=d#7 v=0
27300 On ch=1 n=f#7 v=0
27300 On ch=1 n=b7 v=78
27360 On ch=1 n=b7 v=0
27360 On ch=1 n=g7 v=80
27360 On ch=1 n=e7 v=80
27390 On ch=1 n=e7 v=0
27390 On ch=1 n=g7 v=0
27600 On ch=1 n=b6 v=80
27630 On ch=1 n=b6 v=0
27705 On ch=1 n=c7 v=80
27720 On ch=1 n=c7 v=0
27720 On ch=1 n=b7 v=80
27750 On ch=1 n=b7 v=0
27840 On ch=1 n=a7 v=80
27900 On ch=1 n=f#7 v=80
27960 On ch=1 n=f#7 v=0
27960 On ch=1 n=c7 v=80
28065 On ch=1 n=b6 v=80
28080 On ch=1 n=b6 v=0
28080 On ch=1 n=c7 v=0
28080 On ch=1 n=a7 v=0
28080 On ch=1 n=a7 v=80
28110 On ch=1 n=a7 v=0
28200 On ch=1 n=g7 v=80
28260 On ch=1 n=e7 v=80
28320 On ch=1 n=e7 v=0
28320 On ch=1 n=b6 v=80
28425 On ch=1 n=a6 v=80
28440 On ch=1 n=a6 v=0
28440 On ch=1 n=b6 v=0
28440 On ch=1 n=g7 v=0
28440 On ch=1 n=g7 v=80
28470 On ch=1 n=g7 v=0
28560 On ch=1 n=f#7 v=80
28620 On ch=1 n=d#7 v=80
28680 On ch=1 n=d#7 v=0
28680 On ch=1 n=a6 v=80
28800 On ch=1 n=a6 v=0
28800 On ch=1 n=f#7 v=0
28800 On ch=1 n=e7 v=80
28800 On ch=1 n=g6 v=80
28860 On ch=1 n=g6 v=0
28860 On ch=1 n=e7 v=0
28860 On ch=1 n=c7 v=77
28920 On ch=1 n=c7 v=0
28920 On ch=1 n=b6 v=73
28980 On ch=1 n=b6 v=0
28980 On ch=1 n=g6 v=70
29040 On ch=1 n=g6 v=0
29040 On ch=1 n=e6 v=66
29100 On ch=1 n=e6 v=0
29100 On ch=1 n=c6 v=63
29160 On ch=1 n=c6 v=0
29160 On ch=1 n=b5 v=60
29190 On ch=1 n=b5 v=0
29280 On ch=1 n=b5 v=61
29310 On ch=1 n=b5 v=0
29340 On ch=1 n=b5 v=62
29370 On ch=1 n=b5 v=0
29400 On ch=1 n=b5 v=63
29430 On ch=1 n=b5 v=0
29520 On ch=1 n=a#5 v=65
29580 On ch=1 n=a#5 v=0
29580 On ch=1 n=b5 v=66
29640 On ch=1 n=b5 v=0
29640 On ch=1 n=e6 v=67
29700 On ch=1 n=e6 v=0
29700 On ch=1 n=g6 v=68
29760 On ch=1 n=g6 v=0
29760 On ch=1 n=b6 v=69
29790 On ch=1 n=b6 v=0
29850 On ch=1 n=c7 v=70
29865 On ch=1 n=c7 v=0
29865 On ch=1 n=d7 v=71
29880 On ch=1 n=d7 v=0
29880 On ch=1 n=c7 v=71
29940 On ch=1 n=c7 v=0
29940 On ch=1 n=b6 v=72
30000 On ch=1 n=b6 v=0
30000 On ch=1 n=a#6 v=73
30060 On ch=1 n=a#6 v=0
30060 On ch=1 n=b6 v=74
30120 On ch=1 n=b6 v=0
30120 On ch=1 n=f#7 v=74
30120 On ch=1 n=d#7 v=74
30180 On ch=1 n=d#7 v=0
30180 On ch=1 n=f#7 v=0
30180 On ch=1 n=b7 v=75
30240 On ch=1 n=b7 v=0
30240 On ch=1 n=g7 v=76
30240 On ch=1 n=e7 v=76
30270 On ch=1 n=e7 v=0
30270 On ch=1 n=g7 v=0
30480 On ch=1 n=b6 v=80
30510 On ch=1 n=b6 v=0
30585 On ch=1 n=c7 v=82
30600 On ch=1 n=c7 v=0
30600 On ch=1 n=b7 v=82
30630 On ch=1 n=b7 v=0
30720 On ch=1 n=a7 v=84
30780 On ch=1 n=f#7 v=85
30840 On ch=1 n=f#7 v=0
30840 On ch=1 n=c7 v=86
30945 On ch=1 n=b6 v=87
30960 On ch=1 n=b6 v=0
30960 On ch=1 n=c7 v=0
30960 On ch=1 n=a7 v=0
30960 On ch=1 n=a7 v=88
30990 On ch=1 n=a7 v=0
31080 On ch=1 n=g7 v=89
31140 On ch=1 n=e7 v=90
31200 On ch=1 n=e7 v=0
31200 On ch=1 n=b6 v=91
31305 On ch=1 n=a6 v=93
31320 On ch=1 n=a6 v=0
31320 On ch=1 n=b6 v=0
31320 On ch=1 n=g7 v=0
31320 On ch=1 n=g7 v=93
31350 On ch=1 n=g7 v=0
31440 On ch=1 n=f#7 v=95
31500 On ch=1 n=d#7 v=96
31560 On ch=1 n=d#7 v=0
31560 On ch=1 n=a6 v=97
31680 On ch=1 n=a6 v=0
31680 On ch=1 n=f#7 v=0
31680 On ch=1 n=g6 v=100
31680 On ch=1 n=e7 v=100
31710 On ch=1 n=e7 v=0
31710 On ch=1 n=g6 v=0
32010 On ch=1 n=d#5 v=60
32025 On ch=1 n=d#5 v=0
32025 On ch=1 n=f#5 v=60
32040 On ch=1 n=f#5 v=0
32040 On ch=1 n=c#6 v=60
32400 On ch=1 n=c#6 v=0
32400 On ch=1 n=b5 v=60
32760 On ch=1 n=b5 v=0
32760 On ch=1 n=c#6 v=60
32820 On ch=1 n=c#6 v=0
32820 On ch=1 n=d#6 v=60
32880 On ch=1 n=d#6 v=0
32880 On ch=1 n=e6 v=60
32940 On ch=1 n=e6 v=0
32940 On ch=1 n=f#6 v=60
33000 On ch=1 n=f#6 v=0
33000 On ch=1 n=g#6 v=60
33060 On ch=1 n=g#6 v=0
33060 On ch=1 n=a6 v=60
33120 On ch=1 n=a6 v=0
33120 On ch=1 n=c#7 v=60
33360 On ch=1 n=c#7 v=0
33360 On ch=1 n=b6 v=60
33465 On ch=1 n=b5 v=60
33480 On ch=1 n=b5 v=0
33480 On ch=1 n=b6 v=0
33480 On ch=1 n=g#6 v=60
33825 On ch=1 n=a#5 v=60
33840 On ch=1 n=a#5 v=0
33840 On ch=1 n=g#6 v=0
33840 On ch=1 n=g6 v=60
34185 On ch=1 n=a5 v=60
34200 On ch=1 n=a5 v=0
34200 On ch=1 n=g6 v=0
34200 On ch=1 n=f#6 v=60
34260 On ch=1 n=f#6 v=0
34260 On ch=1 n=g#6 v=60
34320 On ch=1 n=g#6 v=0
34320 On ch=1 n=f#6 v=60
34380 On ch=1 n=f#6 v=0
34380 On ch=1 n=e6 v=60
34440 On ch=1 n=e6 v=0
34440 On ch=1 n=d#6 v=60
34500 On ch=1 n=d#6 v=0
34500 On ch=1 n=c#6 v=60
34545 On ch=1 n=g#5 v=60
34560 On ch=1 n=g#5 v=0
34560 On ch=1 n=c#6 v=0
34560 On ch=1 n=c#6 v=60
34800 On ch=1 n=c#6 v=0
34800 On ch=1 n=b5 v=60
34890 On ch=1 n=d#5 v=60
34905 On ch=1 n=d#5 v=0
34905 On ch=1 n=f#5 v=60
34920 On ch=1 n=f#5 v=0
34920 On ch=1 n=b5 v=0
34920 On ch=1 n=c#6 v=60
35280 On ch=1 n=c#6 v=0
35280 On ch=1 n=b5 v=60
35640 On ch=1 n=b5 v=0
35640 On ch=1 n=c#6 v=60
35700 On ch=1 n=c#6 v=0
35700 On ch=1 n=d#6 v=60
35760 On ch=1 n=d#6 v=0
35760 On ch=1 n=e6 v=60
35820 On ch=1 n=e6 v=0
35820 On ch=1 n=f#6 v=60
35880 On ch=1 n=f#6 v=0
35880 On ch=1 n=g#6 v=60
35940 On ch=1 n=g#6 v=0
35940 On ch=1 n=a6 v=60
36000 On ch=1 n=a6 v=0
36000 On ch=1 n=c#7 v=60
36240 On ch=1 n=c#7 v=0
36240 On ch=1 n=b6 v=60
36345 On ch=1 n=b5 v=60
36360 On ch=1 n=b5 v=0
36360 On ch=1 n=b6 v=0
36360 On ch=1 n=g#6 v=60
36705 On ch=1 n=a#5 v=60
36720 On ch=1 n=a#5 v=0
36720 On ch=1 n=g#6 v=0
36720 On ch=1 n=g6 v=60
37050 On ch=1 n=f#6 v=60
37065 On ch=1 n=f#6 v=0
37065 On ch=1 n=g#6 v=60
37080 On ch=1 n=g#6 v=0
37080 On ch=1 n=g6 v=0
37080 On ch=1 n=a5 v=60
37080 On ch=1 n=f#6 v=60
37200 On ch=1 n=f#6 v=0
37200 On ch=1 n=a5 v=0
37200 On ch=1 n=f6 v=60
37260 On ch=1 n=f6 v=0
37260 On ch=1 n=f#6 v=60
37320 On ch=1 n=f#6 v=0
37320 On ch=1 n=a6 v=60
37380 On ch=1 n=a6 v=0
37380 On ch=1 n=g#6 v=60
37440 On ch=1 n=g#6 v=0
37440 On ch=1 n=g#5 v=60
37440 On ch=1 n=e6 v=60
37500 On ch=1 n=e6 v=0
37500 On ch=1 n=g#5 v=0
37500 On ch=1 n=f#6 v=60
37560 On ch=1 n=f#6 v=0
37560 On ch=1 n=g#6 v=60
37620 On ch=1 n=g#6 v=0
37620 On ch=1 n=d#6 v=60
37680 On ch=1 n=d#6 v=0
37680 On ch=1 n=e6 v=60
37740 On ch=1 n=e6 v=0
37740 On ch=1 n=c#6 v=60
37770 On ch=1 n=d#5 v=60
37785 On ch=1 n=d#5 v=0
37785 On ch=1 n=f#5 v=60
37800 On ch=1 n=f#5 v=0
37800 On ch=1 n=c#6 v=0
37800 On ch=1 n=c#6 v=60
38160 On ch=1 n=c#6 v=0
38160 On ch=1 n=b5 v=60
38520 On ch=1 n=b5 v=0
38520 On ch=1 n=c#6 v=60
38580 On ch=1 n=c#6 v=0
38580 On ch=1 n=d#6 v=60
38640 On ch=1 n=d#6 v=0
38640 On ch=1 n=e6 v=60
38700 On ch=1 n=e6 v=0
38700 On ch=1 n=f#6 v=60
38760 On ch=1 n=f#6 v=0
38760 On ch=1 n=g#6 v=60
38820 On ch=1 n=g#6 v=0
38820 On ch=1 n=a6 v=60
38880 On ch=1 n=a6 v=0
38880 On ch=1 n=c#7 v=60
39120 On ch=1 n=c#7 v=0
39120 On ch=1 n=b6 v=60
39225 On ch=1 n=b5 v=60
39240 On ch=1 n=b5 v=0
39240 On ch=1 n=b6 v=0
39240 On ch=1 n=g#6 v=60
39585 On ch=1 n=a#5 v=60
39600 On ch=1 n=a#5 v=0
39600 On ch=1 n=g#6 v=0
39600 On ch=1 n=g6 v=60
39945 On ch=1 n=a5 v=60
39960 On ch=1 n=a5 v=0
39960 On ch=1 n=g6 v=0
39960 On ch=1 n=f#6 v=60
40020 On ch=1 n=f#6 v=0
40020 On ch=1 n=g#6 v=60
40080 On ch=1 n=g#6 v=0
40080 On ch=1 n=f#6 v=60
40140 On ch=1 n=f#6 v=0
40140 On ch=1 n=e6 v=60
40200 On ch=1 n=e6 v=0
40200 On ch=1 n=d#6 v=60
40260 On ch=1 n=d#6 v=0
40260 On ch=1 n=c#6 v=60
40305 On ch=1 n=g#5 v=60
40320 On ch=1 n=g#5 v=0
40320 On ch=1 n=c#6 v=0
40320 On ch=1 n=c#6 v=60
40560 On ch=1 n=c#6 v=0
40560 On ch=1 n=b5 v=60
40650 On ch=1 n=d#5 v=60
40665 On ch=1 n=d#5 v=0
40665 On ch=1 n=f#5 v=60
40680 On ch=1 n=f#5 v=0
40680 On ch=1 n=b5 v=0
40680 On ch=1 n=c#6 v=60
41040 On ch=1 n=c#6 v=0
41040 On ch=1 n=b5 v=60
41400 On ch=1 n=b5 v=0
41400 On ch=1 n=c#6 v=60
41460 On ch=1 n=c#6 v=0
41460 On ch=1 n=d#6 v=60
41520 On ch=1 n=d#6 v=0
41520 On ch=1 n=e6 v=60
41580 On ch=1 n=e6 v=0
41580 On ch=1 n=f#6 v=60
41640 On ch=1 n=f#6 v=0
41640 On ch=1 n=g#6 v=60
41700 On ch=1 n=g#6 v=0
41700 On ch=1 n=a6 v=60
41760 On ch=1 n=a6 v=0
41760 On ch=1 n=c#7 v=60
42000 On ch=1 n=c#7 v=0
42000 On ch=1 n=b6 v=60
42105 On ch=1 n=b5 v=60
42120 On ch=1 n=b5 v=0
42120 On ch=1 n=b6 v=0
42120 On ch=1 n=g#6 v=60
42465 On ch=1 n=a#5 v=60
42480 On ch=1 n=a#5 v=0
42480 On ch=1 n=g#6 v=0
42480 On ch=1 n=g6 v=60
42810 On ch=1 n=f#6 v=60
42825 On ch=1 n=f#6 v=0
42825 On ch=1 n=g#6 v=60
42840 On ch=1 n=g#6 v=0
42840 On ch=1 n=g6 v=0
42840 On ch=1 n=a5 v=60
42840 On ch=1 n=f#6 v=60
42960 On ch=1 n=f#6 v=0
42960 On ch=1 n=a5 v=0
42960 On ch=1 n=f6 v=60
43020 On ch=1 n=f6 v=0
43020 On ch=1 n=f#6 v=60
43080 On ch=1 n=f#6 v=0
43080 On ch=1 n=a6 v=60
43140 On ch=1 n=a6 v=0
43140 On ch=1 n=g#6 v=60
43200 On ch=1 n=g#6 v=0
43200 On ch=1 n=g#5 v=60
43200 On ch=1 n=e6 v=60
43320 On ch=1 n=e6 v=0
43320 On ch=1 n=g#5 v=0
43440 On ch=1 n=g#5 v=60
43560 On ch=1 n=g#5 v=0
43560 On ch=1 n=g#4 v=110
43560 On ch=1 n=c5 v=110
43560 On ch=1 n=d#5 v=110
43560 On ch=1 n=g#5 v=110
43920 On ch=1 n=g#5 v=0
43920 On ch=1 n=g#4 v=0
43920 On ch=1 n=c5 v=0
43920 On ch=1 n=d#5 v=0
43920 On ch=1 n=c5 v=110
43920 On ch=1 n=d#5 v=110
43920 On ch=1 n=g#5 v=110
44160 On ch=1 n=g#5 v=0
44160 On ch=1 n=d#5 v=0
44160 On ch=1 n=c5 v=0
44160 On ch=1 n=g#4 v=110
44160 On ch=1 n=c#5 v=110
44160 On ch=1 n=e5 v=110
44160 On ch=1 n=g#5 v=110
44280 On ch=1 n=g#5 v=0
44280 On ch=1 n=g#4 v=0
44280 On ch=1 n=c#5 v=0
44280 On ch=1 n=e5 v=0
44280 On ch=1 n=g#4 v=110
44280 On ch=1 n=c5 v=110
44280 On ch=1 n=d#5 v=110
44280 On ch=1 n=g#5 v=110
44640 On ch=1 n=g#5 v=0
44640 On ch=1 n=g#4 v=0
44640 On ch=1 n=c5 v=0
44640 On ch=1 n=d#5 v=0
44640 On ch=1 n=c5 v=110
44640 On ch=1 n=d#5 v=110
44640 On ch=1 n=g#5 v=110
44880 On ch=1 n=g#5 v=0
44880 On ch=1 n=d#5 v=0
44880 On ch=1 n=c5 v=0
44880 On ch=1 n=g#4 v=110
44880 On ch=1 n=c#5 v=110
44880 On ch=1 n=e5 v=110
44880 On ch=1 n=g#5 v=110
45000 On ch=1 n=g#5 v=0
45000 On ch=1 n=g#4 v=0
45000 On ch=1 n=c#5 v=0
45000 On ch=1 n=e5 v=0
45000 On ch=1 n=g#4 v=110
45000 On ch=1 n=b4 v=110
45000 On ch=1 n=d#5 v=110
45360 On ch=1 n=d#5 v=0
45360 On ch=1 n=b4 v=0
45360 On ch=1 n=g#4 v=0
45360 On ch=1 n=b5 v=110
45360 On ch=1 n=g#5 v=110
45720 On ch=1 n=g#5 v=0
45720 On ch=1 n=b5 v=0
45720 On ch=1 n=c#5 v=110
45720 On ch=1 n=g5 v=110
45720 On ch=1 n=d#6 v=110
46080 On ch=1 n=d#6 v=0
46080 On ch=1 n=g5 v=0
46080 On ch=1 n=c#5 v=0
46080 On ch=1 n=b4 v=80
46080 On ch=1 n=g#5 v=80
46080 On ch=1 n=b5 v=80
46200 On ch=1 n=b5 v=0
46200 On ch=1 n=g#5 v=0
46200 On ch=1 n=b4 v=0
46320 On ch=1 n=b4 v=60
46440 On ch=1 n=d#5 v=60
46450 On ch=1 n=f#5 v=60
46460 On ch=1 n=c#6 v=60
46800 On ch=1 n=c#6 v=0
46800 On ch=1 n=b5 v=60
47160 On ch=1 n=b5 v=0
47160 On ch=1 n=f#5 v=0
47160 On ch=1 n=d#5 v=0
47160 On ch=1 n=b4 v=0
47160 On ch=1 n=c#6 v=60
47220 On ch=1 n=c#6 v=0
47220 On ch=1 n=d#6 v=60
47280 On ch=1 n=d#6 v=0
47280 On ch=1 n=e6 v=60
47340 On ch=1 n=e6 v=0
47340 On ch=1 n=f#6 v=60
47400 On ch=1 n=f#6 v=0
47400 On ch=1 n=g#6 v=60
47460 On ch=1 n=g#6 v=0
47460 On ch=1 n=a6 v=60
47520 On ch=1 n=a6 v=0
47520 On ch=1 n=c#7 v=60
47760 On ch=1 n=c#7 v=0
47760 On ch=1 n=b6 v=60
47865 On ch=1 n=b5 v=60
47880 On ch=1 n=b5 v=0
47880 On ch=1 n=b6 v=0
47880 On ch=1 n=g#6 v=60
48225 On ch=1 n=a#5 v=60
48240 On ch=1 n=a#5 v=0
48240 On ch=1 n=g#6 v=0
48240 On ch=1 n=g6 v=60
48585 On ch=1 n=a5 v=60
48600 On ch=1 n=a5 v=0
48600 On ch=1 n=g6 v=0
48600 On ch=1 n=f#6 v=60
48660 On ch=1 n=f#6 v=0
48660 On ch=1 n=g#6 v=60
48720 On ch=1 n=g#6 v=0
48720 On ch=1 n=f#6 v=60
48780 On ch=1 n=f#6 v=0
48780 On ch=1 n=e6 v=60
48840 On ch=1 n=e6 v=0
48840 On ch=1 n=d#6 v=60
48900 On ch=1 n=d#6 v=0
48900 On ch=1 n=c#6 v=60
48945 On ch=1 n=g#5 v=60
48960 On ch=1 n=g#5 v=0
48960 On ch=1 n=c#6 v=0
48960 On ch=1 n=c#6 v=60
49200 On ch=1 n=c#6 v=0
49200 On ch=1 n=b5 v=60
49290 On ch=1 n=d#5 v=40
49305 On ch=1 n=d#5 v=0
49305 On ch=1 n=f#5 v=40
49320 On ch=1 n=f#5 v=0
49320 On ch=1 n=b5 v=0
49320 On ch=1 n=c#6 v=40
49680 On ch=1 n=c#6 v=0
49680 On ch=1 n=b5 v=40
50040 On ch=1 n=b5 v=0
50040 On ch=1 n=c#6 v=40
50100 On ch=1 n=c#6 v=0
50100 On ch=1 n=d#6 v=40
50160 On ch=1 n=d#6 v=0
50160 On ch=1 n=e6 v=40
50220 On ch=1 n=e6 v=0
50220 On ch=1 n=f#6 v=40
50280 On ch=1 n=f#6 v=0
50280 On ch=1 n=g#6 v=40
50340 On ch=1 n=g#6 v=0
50340 On ch=1 n=a6 v=40
50400 On ch=1 n=a6 v=0
50400 On ch=1 n=c#7 v=40
50640 On ch=1 n=c#7 v=0
50640 On ch=1 n=b6 v=40
50745 On ch=1 n=b5 v=40
50760 On ch=1 n=b5 v=0
50760 On ch=1 n=b6 v=0
50760 On ch=1 n=g#6 v=40
51105 On ch=1 n=a#5 v=40
51120 On ch=1 n=a#5 v=0
51120 On ch=1 n=g#6 v=0
51120 On ch=1 n=g6 v=40
51450 On ch=1 n=f#6 v=40
51465 On ch=1 n=f#6 v=0
51465 On ch=1 n=g#6 v=40
51480 On ch=1 n=g#6 v=0
51480 On ch=1 n=g6 v=0
51480 On ch=1 n=a5 v=40
51480 On ch=1 n=f#6 v=40
51600 On ch=1 n=f#6 v=0
51600 On ch=1 n=a5 v=0
51600 On ch=1 n=f6 v=40
51660 On ch=1 n=f6 v=0
51660 On ch=1 n=f#6 v=40
51720 On ch=1 n=f#6 v=0
51720 On ch=1 n=a6 v=40
51780 On ch=1 n=a6 v=0
51780 On ch=1 n=g#6 v=40
51840 On ch=1 n=g#6 v=0
51840 On ch=1 n=g#5 v=40
51840 On ch=1 n=e6 v=40
51960 On ch=1 n=e6 v=0
51960 On ch=1 n=g#5 v=0
52080 On ch=1 n=g#5 v=40
52200 On ch=1 n=g#5 v=0
52200 On ch=1 n=g#4 v=110
52200 On ch=1 n=c5 v=110
52200 On ch=1 n=d#5 v=110
52200 On ch=1 n=g#5 v=110
52560 On ch=1 n=g#5 v=0
52560 On ch=1 n=g#4 v=0
52560 On ch=1 n=c5 v=0
52560 On ch=1 n=d#5 v=0
52560 On ch=1 n=c5 v=110
52560 On ch=1 n=d#5 v=110
52560 On ch=1 n=g#5 v=110
52800 On ch=1 n=g#5 v=0
52800 On ch=1 n=d#5 v=0
52800 On ch=1 n=c5 v=0
52800 On ch=1 n=g#4 v=110
52800 On ch=1 n=c#5 v=110
52800 On ch=1 n=e5 v=110
52800 On ch=1 n=g#5 v=110
52920 On ch=1 n=g#5 v=0
52920 On ch=1 n=g#4 v=0
52920 On ch=1 n=c#5 v=0
52920 On ch=1 n=e5 v=0
52920 On ch=1 n=g#4 v=110
52920 On ch=1 n=c5 v=110
52920 On ch=1 n=d#5 v=110
52920 On ch=1 n=g#5 v=110
53280 On ch=1 n=g#5 v=0
53280 On ch=1 n=g#4 v=0
53280 On ch=1 n=c5 v=0
53280 On ch=1 n=d#5 v=0
53280 On ch=1 n=c5 v=110
53280 On ch=1 n=d#5 v=110
53280 On ch=1 n=g#5 v=110
53520 On ch=1 n=g#5 v=0
53520 On ch=1 n=d#5 v=0
53520 On ch=1 n=c5 v=0
53520 On ch=1 n=g#4 v=110
53520 On ch=1 n=c#5 v=110
53520 On ch=1 n=e5 v=110
53520 On ch=1 n=g#5 v=110
53640 On ch=1 n=g#5 v=0
53640 On ch=1 n=g#4 v=0
53640 On ch=1 n=c#5 v=0
53640 On ch=1 n=e5 v=0
53640 On ch=1 n=g#4 v=110
53640 On ch=1 n=b4 v=110
53640 On ch=1 n=d#5 v=110
54000 On ch=1 n=d#5 v=0
54000 On ch=1 n=b4 v=0
54000 On ch=1 n=g#4 v=0
54000 On ch=1 n=b5 v=110
54000 On ch=1 n=g#5 v=110
54360 On ch=1 n=g#5 v=0
54360 On ch=1 n=b5 v=0
54360 On ch=1 n=c#5 v=110
54360 On ch=1 n=g5 v=110
54360 On ch=1 n=d#6 v=110
54720 On ch=1 n=d#6 v=0
54720 On ch=1 n=g5 v=0
54720 On ch=1 n=c#5 v=0
54720 On ch=1 n=b4 v=80
54720 On ch=1 n=g#5 v=80
54720 On ch=1 n=b5 v=80
54840 On ch=1 n=b5 v=0
54840 On ch=1 n=g#5 v=0
54840 On ch=1 n=b4 v=0
54960 On ch=1 n=b4 v=60
55080 On ch=1 n=d#5 v=60
55090 On ch=1 n=f#5 v=60
55100 On ch=1 n=c#6 v=60
55440 On ch=1 n=c#6 v=0
55440 On ch=1 n=b5 v=60
55800 On ch=1 n=b5 v=0
55800 On ch=1 n=f#5 v=0
55800 On ch=1 n=d#5 v=0
55800 On ch=1 n=b4 v=0
55800 On ch=1 n=c#6 v=60
55860 On ch=1 n=c#6 v=0
55860 On ch=1 n=d#6 v=60
55920 On ch=1 n=d#6 v=0
55920 On ch=1 n=e6 v=60
55980 On ch=1 n=e6 v=0
55980 On ch=1 n=f#6 v=60
56040 On ch=1 n=f#6 v=0
56040 On ch=1 n=g#6 v=60
56100 On ch=1 n=g#6 v=0
56100 On ch=1 n=a6 v=60
56160 On ch=1 n=a6 v=0
56160 On ch=1 n=c#7 v=60
56400 On ch=1 n=c#7 v=0
56400 On ch=1 n=b6 v=60
56505 On ch=1 n=b5 v=60
56520 On ch=1 n=b5 v=0
56520 On ch=1 n=b6 v=0
56520 On ch=1 n=g#6 v=60
56865 On ch=1 n=a#5 v=60
56880 On ch=1 n=a#5 v=0
56880 On ch=1 n=g#6 v=0
56880 On ch=1 n=g6 v=60
57225 On ch=1 n=a5 v=60
57240 On ch=1 n=a5 v=0
57240 On ch=1 n=g6 v=0
57240 On ch=1 n=f#6 v=60
57300 On ch=1 n=f#6 v=0
57300 On ch=1 n=g#6 v=60
57360 On ch=1 n=g#6 v=0
57360 On ch=1 n=f#6 v=60
57420 On ch=1 n=f#6 v=0
57420 On ch=1 n=e6 v=60
57480 On ch=1 n=e6 v=0
57480 On ch=1 n=d#6 v=60
57540 On ch=1 n=d#6 v=0
57540 On ch=1 n=c#6 v=60
57585 On ch=1 n=g#5 v=60
57600 On ch=1 n=g#5 v=0
57600 On ch=1 n=c#6 v=0
57600 On ch=1 n=c#6 v=60
57840 On ch=1 n=c#6 v=0
57840 On ch=1 n=b5 v=60
57930 On ch=1 n=d#5 v=40
57945 On ch=1 n=d#5 v=0
57945 On ch=1 n=f#5 v=40
57960 On ch=1 n=f#5 v=0
57960 On ch=1 n=b5 v=0
57960 On ch=1 n=c#6 v=40
58320 On ch=1 n=c#6 v=0
58320 On ch=1 n=b5 v=40
58680 On ch=1 n=b5 v=0
58680 On ch=1 n=c#6 v=40
58740 On ch=1 n=c#6 v=0
58740 On ch=1 n=d#6 v=40
58800 On ch=1 n=d#6 v=0
58800 On ch=1 n=e6 v=40
58860 On ch=1 n=e6 v=0
58860 On ch=1 n=f#6 v=40
58920 On ch=1 n=f#6 v=0
58920 On ch=1 n=g#6 v=40
58980 On ch=1 n=g#6 v=0
58980 On ch=1 n=a6 v=40
59040 On ch=1 n=a6 v=0
59040 On ch=1 n=c#7 v=40
59280 On ch=1 n=c#7 v=0
59280 On ch=1 n=b6 v=40
59385 On ch=1 n=b5 v=40
59400 On ch=1 n=b5 v=0
59400 On ch=1 n=b6 v=0
59400 On ch=1 n=g#6 v=40
59745 On ch=1 n=a#5 v=40
59760 On ch=1 n=a#5 v=0
59760 On ch=1 n=g#6 v=0
59760 On ch=1 n=g6 v=40
60090 On ch=1 n=f#6 v=40
60105 On ch=1 n=f#6 v=0
60105 On ch=1 n=g#6 v=40
60120 On ch=1 n=g#6 v=0
60120 On ch=1 n=g6 v=0
60120 On ch=1 n=a5 v=40
60120 On ch=1 n=f#6 v=40
60240 On ch=1 n=f#6 v=0
60240 On ch=1 n=a5 v=0
60240 On ch=1 n=f6 v=40
60300 On ch=1 n=f6 v=0
60300 On ch=1 n=f#6 v=40
60360 On ch=1 n=f#6 v=0
60360 On ch=1 n=a6 v=40
60420 On ch=1 n=a6 v=0
60420 On ch=1 n=g#6 v=40
60480 On ch=1 n=g#6 v=0
60480 On ch=1 n=g#5 v=40
60480 On ch=1 n=e6 v=40
60600 On ch=1 n=e6 v=0
60600 On ch=1 n=g#5 v=0
60720 On ch=1 n=b5 v=40
60750 On ch=1 n=b5 v=0
60840 On ch=1 n=b5 v=60
60870 On ch=1 n=b5 v=0
60960 On ch=1 n=b5 v=60
60990 On ch=1 n=b5 v=0
61020 On ch=1 n=b5 v=60
61050 On ch=1 n=b5 v=0
61080 On ch=1 n=b5 v=60
61110 On ch=1 n=b5 v=0
61200 On ch=1 n=a#5 v=60
61260 On ch=1 n=a#5 v=0
61260 On ch=1 n=b5 v=60
61320 On ch=1 n=b5 v=0
61320 On ch=1 n=e6 v=60
61380 On ch=1 n=e6 v=0
61380 On ch=1 n=g6 v=60
61440 On ch=1 n=g6 v=0
61440 On ch=1 n=b6 v=60
61470 On ch=1 n=b6 v=0
61530 On ch=1 n=c7 v=60
61545 On ch=1 n=c7 v=0
61545 On ch=1 n=d7 v=60
61560 On ch=1 n=d7 v=0
61560 On ch=1 n=c7 v=61
61620 On ch=1 n=c7 v=0
61620 On ch=1 n=b6 v=64
61680 On ch=1 n=b6 v=0
61680 On ch=1 n=a#6 v=68
61740 On ch=1 n=a#6 v=0
61740 On ch=1 n=b6 v=71
61800 On ch=1 n=b6 v=0
61800 On ch=1 n=f#7 v=74
61800 On ch=1 n=d#7 v=74
61860 On ch=1 n=d#7 v=0
61860 On ch=1 n=f#7 v=0
61860 On ch=1 n=b7 v=78
61920 On ch=1 n=b7 v=0
61920 On ch=1 n=g7 v=80
61920 On ch=1 n=e7 v=80
61950 On ch=1 n=e7 v=0
61950 On ch=1 n=g7 v=0
62160 On ch=1 n=b6 v=80
62190 On ch=1 n=b6 v=0
62265 On ch=1 n=c7 v=80
62280 On ch=1 n=c7 v=0
62280 On ch=1 n=b7 v=80
62310 On ch=1 n=b7 v=0
62400 On ch=1 n=a7 v=80
62460 On ch=1 n=f#7 v=80
62520 On ch=1 n=f#7 v=0
62520 On ch=1 n=c7 v=80
62625 On ch=1 n=b6 v=80
62640 On ch=1 n=b6 v=0
62640 On ch=1 n=c7 v=0
62640 On ch=1 n=a7 v=0
62640 On ch=1 n=a7 v=80
62670 On ch=1 n=a7 v=0
62760 On ch=1 n=g7 v=80
62820 On ch=1 n=e7 v=80
62880 On ch=1 n=e7 v=0
62880 On ch=1 n=b6 v=80
62985 On ch=1 n=a6 v=80
63000 On ch=1 n=a6 v=0
63000 On ch=1 n=b6 v=0
63000 On ch=1 n=g7 v=0
63000 On ch=1 n=g7 v=80
63030 On ch=1 n=g7 v=0
63120 On ch=1 n=f#7 v=80
63180 On ch=1 n=d#7 v=80
63240 On ch=1 n=d#7 v=0
63240 On ch=1 n=a6 v=80
63360 On ch=1 n=a6 v=0
63360 On ch=1 n=f#7 v=0
63360 On ch=1 n=e7 v=80
63360 On ch=1 n=g6 v=80
63420 On ch=1 n=g6 v=0
63420 On ch=1 n=e7 v=0
63420 On ch=1 n=c7 v=77
63480 On ch=1 n=c7 v=0
63480 On ch=1 n=b6 v=73
63540 On ch=1 n=b6 v=0
63540 On ch=1 n=g6 v=70
63600 On ch=1 n=g6 v=0
63600 On ch=1 n=e6 v=66
63660 On ch=1 n=e6 v=0
63660 On ch=1 n=c6 v=63
63720 On ch=1 n=c6 v=0
63720 On ch=1 n=b5 v=60
63750 On ch=1 n=b5 v=0
63840 On ch=1 n=b5 v=60
63870 On ch=1 n=b5 v=0
63900 On ch=1 n=b5 v=60
63930 On ch=1 n=b5 v=0
63960 On ch=1 n=b5 v=60
63990 On ch=1 n=b5 v=0
64080 On ch=1 n=a#5 v=60
64140 On ch=1 n=a#5 v=0
64140 On ch=1 n=b5 v=60
64200 On ch=1 n=b5 v=0
64200 On ch=1 n=e6 v=60
64260 On ch=1 n=e6 v=0
64260 On ch=1 n=g6 v=60
64320 On ch=1 n=g6 v=0
64320 On ch=1 n=b6 v=60
64350 On ch=1 n=b6 v=0
64410 On ch=1 n=c7 v=60
64425 On ch=1 n=c7 v=0
64425 On ch=1 n=d7 v=62
64440 On ch=1 n=d7 v=0
64440 On ch=1 n=c7 v=64
64500 On ch=1 n=c7 v=0
64500 On ch=1 n=b6 v=74
64560 On ch=1 n=b6 v=0
64560 On ch=1 n=a#6 v=84
64620 On ch=1 n=a#6 v=0
64620 On ch=1 n=b6 v=94
64680 On ch=1 n=b6 v=0
64680 On ch=1 n=f#7 v=104
64680 On ch=1 n=d#7 v=104
64740 On ch=1 n=d#7 v=0
64740 On ch=1 n=f#7 v=0
64740 On ch=1 n=b7 v=114
64800 On ch=1 n=b7 v=0
64800 On ch=1 n=d8 v=120
64800 On ch=1 n=f7 v=120
64800 On ch=1 n=d7 v=120
64920 On ch=1 n=d7 v=0
64920 On ch=1 n=f7 v=0
64920 On ch=1 n=d8 v=0
65040 On ch=1 n=d7 v=100
65070 On ch=1 n=d7 v=0
65160 On ch=1 n=f7 v=100
65220 On ch=1 n=f7 v=0
65220 On ch=1 n=c7 v=100
65220 On ch=1 n=e7 v=100
65280 On ch=1 n=e7 v=0
65280 On ch=1 n=c7 v=0
65280 On ch=1 n=f6 v=100
65340 On ch=1 n=f6 v=0
65340 On ch=1 n=e7 v=100
65340 On ch=1 n=c7 v=100
65400 On ch=1 n=c7 v=0
65400 On ch=1 n=e7 v=0
65400 On ch=1 n=f7 v=100
65460 On ch=1 n=f7 v=0
65460 On ch=1 n=c7 v=100
65460 On ch=1 n=e7 v=100
65520 On ch=1 n=e7 v=0
65520 On ch=1 n=c7 v=0
65520 On ch=1 n=f#7 v=100
65580 On ch=1 n=f#7 v=0
65580 On ch=1 n=c#7 v=101
65580 On ch=1 n=e7 v=101
65640 On ch=1 n=e7 v=0
65640 On ch=1 n=c#7 v=0
65640 On ch=1 n=f#6 v=102
65700 On ch=1 n=f#6 v=0
65700 On ch=1 n=e7 v=103
65700 On ch=1 n=c#7 v=103
65760 On ch=1 n=c#7 v=0
65760 On ch=1 n=e7 v=0
65760 On ch=1 n=f#7 v=104
65820 On ch=1 n=f#7 v=0
65820 On ch=1 n=c#7 v=105
65820 On ch=1 n=e7 v=105
65880 On ch=1 n=e7 v=0
65880 On ch=1 n=c#7 v=0
65880 On ch=1 n=g7 v=107
65940 On ch=1 n=g7 v=0
65940 On ch=1 n=b6 v=108
65940 On ch=1 n=e7 v=108
66000 On ch=1 n=e7 v=0
66000 On ch=1 n=b6 v=0
66000 On ch=1 n=g6 v=109
66060 On ch=1 n=g6 v=0
66060 On ch=1 n=e7 v=110
66060 On ch=1 n=b6 v=110
66120 On ch=1 n=b6 v=0
66120 On ch=1 n=e7 v=0
66120 On ch=1 n=g7 v=111
66180 On ch=1 n=g7 v=0
66180 On ch=1 n=b6 v=112
66180 On ch=1 n=e7 v=112
66240 On ch=1 n=e7 v=0
66240 On ch=1 n=b6 v=0
66240 On ch=1 n=g7 v=114
66300 On ch=1 n=g7 v=0
66300 On ch=1 n=a#6 v=115
66300 On ch=1 n=e7 v=115
66360 On ch=1 n=e7 v=0
66360 On ch=1 n=a#6 v=0
66360 On ch=1 n=g6 v=116
66420 On ch=1 n=g6 v=0
66420 On ch=1 n=e7 v=117
66420 On ch=1 n=a#6 v=117
66480 On ch=1 n=a#6 v=0
66480 On ch=1 n=e7 v=0
66480 On ch=1 n=g7 v=118
66540 On ch=1 n=g7 v=0
66540 On ch=1 n=a#6 v=119
66540 On ch=1 n=e7 v=119
66600 On ch=1 n=e7 v=0
66600 On ch=1 n=a#6 v=0
66600 On ch=1 n=g7 v=120
66660 On ch=1 n=g7 v=0
66660 On ch=1 n=g6 v=120
66720 On ch=1 n=g6 v=0
66720 On ch=1 n=c#7 v=120
66780 On ch=1 n=c#7 v=0
66780 On ch=1 n=e7 v=120
66840 On ch=1 n=e7 v=0
66840 On ch=1 n=g7 v=120
66900 On ch=1 n=g7 v=0
66900 On ch=1 n=g6 v=120
66960 On ch=1 n=g6 v=0
66960 On ch=1 n=e7 v=120
67020 On ch=1 n=e7 v=0
67020 On ch=1 n=e6 v=120
67080 On ch=1 n=e6 v=0
67080 On ch=1 n=a#6 v=120
67140 On ch=1 n=a#6 v=0
67140 On ch=1 n=c#7 v=120
67200 On ch=1 n=c#7 v=0
67200 On ch=1 n=e7 v=120
67260 On ch=1 n=e7 v=0
67260 On ch=1 n=e6 v=120
67320 On ch=1 n=e6 v=0
67320 On ch=1 n=c#7 v=120
67380 On ch=1 n=c#7 v=0
67380 On ch=1 n=c#6 v=120
67440 On ch=1 n=c#6 v=0
67440 On ch=1 n=g6 v=120
67500 On ch=1 n=g6 v=0
67500 On ch=1 n=a#6 v=120
67560 On ch=1 n=a#6 v=0
67560 On ch=1 n=c#7 v=120
67620 On ch=1 n=c#7 v=0
67620 On ch=1 n=c#6 v=120
67680 On ch=1 n=c#6 v=0
67680 On ch=1 n=a#6 v=120
67740 On ch=1 n=a#6 v=0
67740 On ch=1 n=a#5 v=120
67800 On ch=1 n=a#5 v=0
67800 On ch=1 n=e6 v=120
67860 On ch=1 n=e6 v=0
67860 On ch=1 n=g6 v=120
67920 On ch=1 n=g6 v=0
67920 On ch=1 n=a#6 v=120
67980 On ch=1 n=a#6 v=0
67980 On ch=1 n=a#5 v=120
68040 On ch=1 n=a#5 v=0
68040 On ch=1 n=b5 v=120
68040 On ch=1 n=b6 v=120
68070 On ch=1 n=b6 v=0
68070 On ch=1 n=b5 v=0
68160 On ch=1 n=b6 v=120
68220 On ch=1 n=b6 v=0
68220 On ch=1 n=g6 v=120
68280 On ch=1 n=g6 v=0
68280 On ch=1 n=f#6 v=120
68340 On ch=1 n=f#6 v=0
68340 On ch=1 n=e6 v=120
68400 On ch=1 n=e6 v=0
68400 On ch=1 n=d#6 v=120
68460 On ch=1 n=d#6 v=0
68460 On ch=1 n=c6 v=117
68520 On ch=1 n=c6 v=0
68520 On ch=1 n=b5 v=113
68580 On ch=1 n=b5 v=0
68580 On ch=1 n=a5 v=110
68640 On ch=1 n=a5 v=0
68640 On ch=1 n=g5 v=106
68700 On ch=1 n=g5 v=0
68700 On ch=1 n=f#5 v=103
68760 On ch=1 n=f#5 v=0
68760 On ch=1 n=e5 v=100
68790 On ch=1 n=e5 v=0
68880 On ch=1 n=a#6 v=100
68940 On ch=1 n=a#6 v=0
68940 On ch=1 n=b6 v=100
69000 On ch=1 n=b6 v=0
69000 On ch=1 n=c6 v=100
69000 On ch=1 n=f#6 v=100
69060 On ch=1 n=f#6 v=0
69060 On ch=1 n=c6 v=0
69060 On ch=1 n=g6 v=100
69120 On ch=1 n=g6 v=0
69120 On ch=1 n=b5 v=100
69120 On ch=1 n=e6 v=100
69180 On ch=1 n=e6 v=0
69180 On ch=1 n=b5 v=0
69180 On ch=1 n=b6 v=100
69240 On ch=1 n=b6 v=0
69240 On ch=1 n=a#6 v=100
69300 On ch=1 n=a#6 v=0
69300 On ch=1 n=b6 v=100
69360 On ch=1 n=b6 v=0
69360 On ch=1 n=c6 v=100
69360 On ch=1 n=f#6 v=100
69420 On ch=1 n=f#6 v=0
69420 On ch=1 n=c6 v=0
69420 On ch=1 n=g6 v=100
69480 On ch=1 n=g6 v=0
69480 On ch=1 n=b5 v=100
69480 On ch=1 n=e6 v=100
69540 On ch=1 n=e6 v=0
69540 On ch=1 n=b5 v=0
69540 On ch=1 n=b6 v=100
69600 On ch=1 n=b6 v=0
69600 On ch=1 n=a#6 v=100
69660 On ch=1 n=a#6 v=0
69660 On ch=1 n=b6 v=100
69720 On ch=1 n=b6 v=0
69720 On ch=1 n=c6 v=100
69720 On ch=1 n=f#6 v=100
69780 On ch=1 n=f#6 v=0
69780 On ch=1 n=c6 v=0
69780 On ch=1 n=g6 v=100
69840 On ch=1 n=g6 v=0
69840 On ch=1 n=b5 v=100
69840 On ch=1 n=e6 v=100
69900 On ch=1 n=e6 v=0
69900 On ch=1 n=b5 v=0
69900 On ch=1 n=b6 v=100
69960 On ch=1 n=b6 v=0
69960 On ch=1 n=a#6 v=100
70020 On ch=1 n=a#6 v=0
70020 On ch=1 n=b6 v=100
70080 On ch=1 n=b6 v=0
70080 On ch=1 n=c6 v=100
70080 On ch=1 n=f#6 v=100
70140 On ch=1 n=f#6 v=0
70140 On ch=1 n=c6 v=0
70140 On ch=1 n=g6 v=100
70200 On ch=1 n=g6 v=0
70200 On ch=1 n=b5 v=100
70200 On ch=1 n=e6 v=100
70320 On ch=1 n=e6 v=0
70320 On ch=1 n=b5 v=0
70320 On ch=1 n=e5 v=100
70380 On ch=1 n=e5 v=0
70380 On ch=1 n=g5 v=102
70440 On ch=1 n=g5 v=0
70440 On ch=1 n=b5 v=104
70500 On ch=1 n=b5 v=0
70500 On ch=1 n=e6 v=106
70560 On ch=1 n=e6 v=0
70560 On ch=1 n=g6 v=108
70620 On ch=1 n=g6 v=0
70620 On ch=1 n=b6 v=110
70680 On ch=1 n=b6 v=0
70680 On ch=1 n=e7 v=112
70740 On ch=1 n=e7 v=0
70740 On ch=1 n=e8 v=114
70800 On ch=1 n=e8 v=0
70800 On ch=1 n=b7 v=117
70860 On ch=1 n=b7 v=0
70860 On ch=1 n=g7 v=119
70920 On ch=1 n=g7 v=0
70920 On ch=1 n=e7 v=120
70980 On ch=1 n=e7 v=0
70980 On ch=1 n=b6 v=119
71040 On ch=1 n=b6 v=0
71040 On ch=1 n=g6 v=117
71100 On ch=1 n=g6 v=0
71100 On ch=1 n=e6 v=115
71160 On ch=1 n=e6 v=0
71160 On ch=1 n=b5 v=113
71220 On ch=1 n=b5 v=0
71220 On ch=1 n=g5 v=112
71280 On ch=1 n=g5 v=0
71280 On ch=1 n=e5 v=110
71340 On ch=1 n=e5 v=0
71340 On ch=1 n=b4 v=108
71400 On ch=1 n=b4 v=0
72000 On ch=1 n=b6 v=100
72000 On ch=1 n=f#6 v=100
72000 On ch=1 n=d#6 v=100
72000 On ch=1 n=b5 v=100
72030 On ch=1 n=b5 v=0
72030 On ch=1 n=b6 v=0
72030 On ch=1 n=f#6 v=0
72030 On ch=1 n=d#6 v=0
72360 On ch=1 n=e7 v=109
72360 On ch=1 n=b6 v=109
72360 On ch=1 n=g6 v=109
72360 On ch=1 n=e6 v=109
72390 On ch=1 n=e6 v=0
72390 On ch=1 n=e7 v=0
72390 On ch=1 n=b6 v=0
72390 On ch=1 n=g6 v=0
72720 On ch=1 n=b7 v=118
72720 On ch=1 n=f#7 v=118
72720 On ch=1 n=d#7 v=118
72720 On ch=1 n=b6 v=118
72750 On ch=1 n=b6 v=0
72750 On ch=1 n=b7 v=0
72750 On ch=1 n=f#7 v=0
72750 On ch=1 n=d#7 v=0
73080 On ch=1 n=e8 v=127
73080 On ch=1 n=b7 v=127
73080 On ch=1 n=g7 v=127
73080 On ch=1 n=e7 v=127
73110 On ch=1 n=e7 v=0
73110 On ch=1 n=e8 v=0
73110 On ch=1 n=b7 v=0
73110 On ch=1 n=g7 v=0
73110 Meta TrkEnd
TrkEnd
MTrk
0 Meta 0x21 00
0 Meta TrkName "Lower Bass"
0 PrCh ch=1 p=0
240 On ch=1 n=b3 v=60
270 On ch=1 n=b3 v=0
360 On ch=1 n=d#4 v=60
360 On ch=1 n=e3 v=60
360 On ch=1 n=b3 v=60
420 On ch=1 n=d#4 v=0
420 On ch=1 n=e4 v=60
480 On ch=1 n=e4 v=0
480 On ch=1 n=g4 v=60
540 On ch=1 n=g4 v=0
540 On ch=1 n=e5 v=60
600 On ch=1 n=e5 v=0
600 On ch=1 n=b4 v=60
660 On ch=1 n=b4 v=0
660 On ch=1 n=g4 v=60
720 On ch=1 n=g4 v=0
720 On ch=1 n=b3 v=0
720 On ch=1 n=e3 v=0
720 On ch=1 n=f#4 v=60
720 On ch=1 n=e3 v=60
720 On ch=1 n=b3 v=60
780 On ch=1 n=f#4 v=0
780 On ch=1 n=g4 v=60
840 On ch=1 n=g4 v=0
1080 On ch=1 n=b3 v=0
1080 On ch=1 n=e3 v=0
1080 On ch=1 n=e3 v=60
1090 On ch=1 n=b3 v=60
1100 On ch=1 n=g4 v=60
1440 On ch=1 n=g4 v=0
1440 On ch=1 n=b3 v=0
1440 On ch=1 n=e3 v=0
1440 On ch=1 n=e3 v=70
1450 On ch=1 n=b3 v=70
1460 On ch=1 n=e4 v=70
1470 On ch=1 n=g4 v=71
1800 On ch=1 n=g4 v=0
1800 On ch=1 n=e3 v=0
1800 On ch=1 n=b3 v=0
1800 On ch=1 n=e4 v=0
1800 On ch=1 n=e3 v=80
1810 On ch=1 n=b3 v=80
1820 On ch=1 n=e4 v=81
1830 On ch=1 n=g4 v=81
2160 On ch=1 n=g4 v=0
2160 On ch=1 n=e3 v=0
2160 On ch=1 n=b3 v=0
2160 On ch=1 n=e4 v=0
2160 On ch=1 n=e3 v=90
2170 On ch=1 n=b3 v=91
2180 On ch=1 n=e4 v=91
2190 On ch=1 n=g4 v=91
2520 On ch=1 n=g4 v=0
2520 On ch=1 n=e3 v=0
2520 On ch=1 n=b3 v=0
2520 On ch=1 n=e4 v=0
2520 On ch=1 n=e3 v=100
2530 On ch=1 n=b3 v=100
2540 On ch=1 n=e4 v=100
2550 On ch=1 n=g4 v=100
3000 On ch=1 n=g4 v=0
3000 On ch=1 n=e3 v=0
3000 On ch=1 n=b3 v=0
3000 On ch=1 n=e4 v=0
3240 On ch=1 n=d#4 v=60
3270 On ch=1 n=d#4 v=0
3360 On ch=1 n=a5 v=60
3360 On ch=1 n=f#5 v=60
3480 On ch=1 n=f#5 v=0
3480 On ch=1 n=a5 v=0
3480 On ch=1 n=b4 v=60
3600 On ch=1 n=b4 v=0
3600 On ch=1 n=e4 v=60
3630 On ch=1 n=e4 v=0
3720 On ch=1 n=g5 v=60
3720 On ch=1 n=e5 v=60
3840 On ch=1 n=e5 v=0
3840 On ch=1 n=g5 v=0
3840 On ch=1 n=b4 v=60
3960 On ch=1 n=b4 v=0
3960 On ch=1 n=f#4 v=61
3990 On ch=1 n=f#4 v=0
4080 On ch=1 n=a5 v=68
4080 On ch=1 n=d#5 v=68
4200 On ch=1 n=d#5 v=0
4200 On ch=1 n=a5 v=0
4200 On ch=1 n=b4 v=74
4320 On ch=1 n=b4 v=0
4320 On ch=1 n=g4 v=80
4350 On ch=1 n=g4 v=0
4440 On ch=1 n=g5 v=80
4440 On ch=1 n=e5 v=80
4560 On ch=1 n=e5 v=0
4560 On ch=1 n=g5 v=0
4560 On ch=1 n=b4 v=80
4680 On ch=1 n=b4 v=0
4680 On ch=1 n=a4 v=80
4710 On ch=1 n=a4 v=0
4800 On ch=1 n=e5 v=80
4800 On ch=1 n=f#5 v=80
4920 On ch=1 n=f#5 v=0
4920 On ch=1 n=e5 v=0
4920 On ch=1 n=c5 v=80
5040 On ch=1 n=c5 v=0
5040 On ch=1 n=b4 v=80
5070 On ch=1 n=b4 v=0
5400 On ch=1 n=b3 v=80
5430 On ch=1 n=b3 v=0
6120 On ch=1 n=d#4 v=60
6150 On ch=1 n=d#4 v=0
6240 On ch=1 n=a5 v=60
6240 On ch=1 n=f#5 v=60
6360 On ch=1 n=f#5 v=0
6360 On ch=1 n=a5 v=0
6360 On ch=1 n=b4 v=60
6480 On ch=1 n=b4 v=0
6480 On ch=1 n=e4 v=60
6510 On ch=1 n=e4 v=0
6600 On ch=1 n=g5 v=60
6600 On ch=1 n=e5 v=60
6720 On ch=1 n=e5 v=0
6720 On ch=1 n=g5 v=0
6720 On ch=1 n=b4 v=60
6840 On ch=1 n=b4 v=0
6840 On ch=1 n=f#4 v=60
6870 On ch=1 n=f#4 v=0
6960 On ch=1 n=a5 v=63
6960 On ch=1 n=d#5 v=63
7080 On ch=1 n=d#5 v=0
7080 On ch=1 n=a5 v=0
7080 On ch=1 n=b4 v=66
7200 On ch=1 n=b4 v=0
7200 On ch=1 n=g4 v=68
7230 On ch=1 n=g4 v=0
7320 On ch=1 n=g5 v=71
7320 On ch=1 n=e5 v=71
7440 On ch=1 n=e5 v=0
7440 On ch=1 n=g5 v=0
7440 On ch=1 n=b4 v=74
7560 On ch=1 n=b4 v=0
7560 On ch=1 n=a4 v=77
7590 On ch=1 n=a4 v=0
7680 On ch=1 n=e5 v=79
7680 On ch=1 n=f#5 v=79
7800 On ch=1 n=f#5 v=0
7800 On ch=1 n=e5 v=0
7800 On ch=1 n=c5 v=82
7920 On ch=1 n=c5 v=0
7920 On ch=1 n=b4 v=85
7950 On ch=1 n=b4 v=0
8280 On ch=1 n=b3 v=93
8310 On ch=1 n=b3 v=0
9000 On ch=1 n=e4 v=60
9120 On ch=1 n=e4 v=0
9120 On ch=1 n=g5 v=60
9120 On ch=1 n=c5 v=60
9240 On ch=1 n=c5 v=0
9240 On ch=1 n=g5 v=0
9240 On ch=1 n=e4 v=60
9360 On ch=1 n=e4 v=0
9360 On ch=1 n=d#4 v=60
9480 On ch=1 n=d#4 v=0
9480 On ch=1 n=f#5 v=60
9480 On ch=1 n=b4 v=60
9600 On ch=1 n=b4 v=0
9600 On ch=1 n=f#5 v=0
9600 On ch=1 n=d#4 v=60
9720 On ch=1 n=d#4 v=0
9720 On ch=1 n=d4 v=60
9840 On ch=1 n=d4 v=0
9840 On ch=1 n=f5 v=60
9840 On ch=1 n=a#4 v=60
9960 On ch=1 n=a#4 v=0
9960 On ch=1 n=f5 v=0
9960 On ch=1 n=d4 v=60
10080 On ch=1 n=d4 v=0
10080 On ch=1 n=c#4 v=60
10200 On ch=1 n=c#4 v=0
10200 On ch=1 n=e5 v=60
10200 On ch=1 n=a4 v=60
10320 On ch=1 n=a4 v=0
10320 On ch=1 n=e5 v=0
10320 On ch=1 n=c#4 v=60
10440 On ch=1 n=c#4 v=0
10440 On ch=1 n=c4 v=60
10560 On ch=1 n=c4 v=0
10560 On ch=1 n=e5 v=60
10560 On ch=1 n=a4 v=60
10680 On ch=1 n=a4 v=0
10680 On ch=1 n=e5 v=0
10680 On ch=1 n=c4 v=60
10800 On ch=1 n=c4 v=0
10800 On ch=1 n=b3 v=60
10920 On ch=1 n=b3 v=0
10920 On ch=1 n=e5 v=60
10920 On ch=1 n=g4 v=60
11040 On ch=1 n=g4 v=0
11040 On ch=1 n=e5 v=0
11040 On ch=1 n=b3 v=60
11160 On ch=1 n=b3 v=0
11160 On ch=1 n=b3 v=60
11280 On ch=1 n=b3 v=0
11280 On ch=1 n=b4 v=60
11280 On ch=1 n=f#4 v=60
11400 On ch=1 n=f#4 v=0
11400 On ch=1 n=b4 v=0
11400 On ch=1 n=d#4 v=60
11520 On ch=1 n=d#4 v=0
11520 On ch=1 n=e4 v=60
11640 On ch=1 n=e4 v=0
11640 On ch=1 n=e5 v=60
11760 On ch=1 n=e5 v=0
11760 On ch=1 n=b4 v=60
11880 On ch=1 n=b4 v=0
11880 On ch=1 n=e3 v=100
11910 On ch=1 n=e3 v=0
12000 On ch=1 n=c5 v=100
12120 On ch=1 n=c5 v=0
12120 On ch=1 n=g4 v=100
12240 On ch=1 n=g4 v=0
12240 On ch=1 n=d#3 v=100
12270 On ch=1 n=d#3 v=0
12360 On ch=1 n=b4 v=100
12480 On ch=1 n=b4 v=0
12480 On ch=1 n=f#4 v=100
12600 On ch=1 n=f#4 v=0
12600 On ch=1 n=d3 v=100
12630 On ch=1 n=d3 v=0
12720 On ch=1 n=a#4 v=100
12840 On ch=1 n=a#4 v=0
12840 On ch=1 n=f4 v=100
12960 On ch=1 n=f4 v=0
12960 On ch=1 n=c#3 v=100
12990 On ch=1 n=c#3 v=0
13080 On ch=1 n=a4 v=100
13200 On ch=1 n=a4 v=0
13200 On ch=1 n=e4 v=100
13320 On ch=1 n=e4 v=0
13320 On ch=1 n=c3 v=100
13350 On ch=1 n=c3 v=0
13440 On ch=1 n=a4 v=100
13560 On ch=1 n=a4 v=0
13560 On ch=1 n=e4 v=100
13680 On ch=1 n=e4 v=0
13680 On ch=1 n=b2 v=100
13710 On ch=1 n=b2 v=0
13800 On ch=1 n=g4 v=100
13920 On ch=1 n=g4 v=0
13920 On ch=1 n=e4 v=100
14040 On ch=1 n=e4 v=0
14040 On ch=1 n=b3 v=100
14070 On ch=1 n=b3 v=0
14160 On ch=1 n=f#4 v=100
14160 On ch=1 n=e5 v=100
14280 On ch=1 n=e5 v=0
14280 On ch=1 n=f#4 v=0
14280 On ch=1 n=d#5 v=100
14280 On ch=1 n=b4 v=100
14400 On ch=1 n=b4 v=0
14400 On ch=1 n=d#5 v=0
14400 On ch=1 n=e4 v=100
14400 On ch=1 n=e5 v=100
14520 On ch=1 n=e5 v=0
14520 On ch=1 n=e4 v=0
14760 On ch=1 n=d#4 v=60
14790 On ch=1 n=d#4 v=0
14880 On ch=1 n=a5 v=60
14880 On ch=1 n=f#5 v=60
15000 On ch=1 n=f#5 v=0
15000 On ch=1 n=a5 v=0
15000 On ch=1 n=b4 v=60
15120 On ch=1 n=b4 v=0
15120 On ch=1 n=e4 v=60
15150 On ch=1 n=e4 v=0
15240 On ch=1 n=g5 v=60
15240 On ch=1 n=e5 v=60
15360 On ch=1 n=e5 v=0
15360 On ch=1 n=g5 v=0
15360 On ch=1 n=b4 v=60
15480 On ch=1 n=b4 v=0
15480 On ch=1 n=f#4 v=61
15510 On ch=1 n=f#4 v=0
15600 On ch=1 n=a5 v=68
15600 On ch=1 n=d#5 v=68
15720 On ch=1 n=d#5 v=0
15720 On ch=1 n=a5 v=0
15720 On ch=1 n=b4 v=74
15840 On ch=1 n=b4 v=0
15840 On ch=1 n=g4 v=80
15870 On ch=1 n=g4 v=0
15960 On ch=1 n=g5 v=80
15960 On ch=1 n=e5 v=80
16080 On ch=1 n=e5 v=0
16080 On ch=1 n=g5 v=0
16080 On ch=1 n=b4 v=80
16200 On ch=1 n=b4 v=0
16200 On ch=1 n=a4 v=80
16230 On ch=1 n=a4 v=0
16320 On ch=1 n=e5 v=80
16320 On ch=1 n=f#5 v=80
16440 On ch=1 n=f#5 v=0
16440 On ch=1 n=e5 v=0
16440 On ch=1 n=c5 v=80
16560 On ch=1 n=c5 v=0
16560 On ch=1 n=b4 v=80
16590 On ch=1 n=b4 v=0
16920 On ch=1 n=b3 v=80
16950 On ch=1 n=b3 v=0
17640 On ch=1 n=d#4 v=60
17670 On ch=1 n=d#4 v=0
17760 On ch=1 n=a5 v=61
17760 On ch=1 n=f#5 v=61
17880 On ch=1 n=f#5 v=0
17880 On ch=1 n=a5 v=0
17880 On ch=1 n=b4 v=63
18000 On ch=1 n=b4 v=0
18000 On ch=1 n=e4 v=65
18030 On ch=1 n=e4 v=0
18120 On ch=1 n=g5 v=67
18120 On ch=1 n=e5 v=67
18240 On ch=1 n=e5 v=0
18240 On ch=1 n=g5 v=0
18240 On ch=1 n=b4 v=69
18360 On ch=1 n=b4 v=0
18360 On ch=1 n=f#4 v=71
18390 On ch=1 n=f#4 v=0
18480 On ch=1 n=a5 v=73
18480 On ch=1 n=d#5 v=73
18600 On ch=1 n=d#5 v=0
18600 On ch=1 n=a5 v=0
18600 On ch=1 n=b4 v=74
18720 On ch=1 n=b4 v=0
18720 On ch=1 n=g4 v=76
18750 On ch=1 n=g4 v=0
18840 On ch=1 n=g5 v=78
18840 On ch=1 n=e5 v=78
18960 On ch=1 n=e5 v=0
18960 On ch=1 n=g5 v=0
18960 On ch=1 n=b4 v=80
19080 On ch=1 n=b4 v=0
19080 On ch=1 n=a4 v=82
19110 On ch=1 n=a4 v=0
19200 On ch=1 n=e5 v=84
19200 On ch=1 n=f#5 v=84
19320 On ch=1 n=f#5 v=0
19320 On ch=1 n=e5 v=0
19320 On ch=1 n=c5 v=86
19440 On ch=1 n=c5 v=0
19440 On ch=1 n=b4 v=88
19470 On ch=1 n=b4 v=0
19800 On ch=1 n=b3 v=93
19830 On ch=1 n=b3 v=0
20280 On ch=1 n=e4 v=100
20310 On ch=1 n=e4 v=0
20520 On ch=1 n=e4 v=60
20640 On ch=1 n=e4 v=0
20640 On ch=1 n=g5 v=60
20640 On ch=1 n=c5 v=60
20760 On ch=1 n=c5 v=0
20760 On ch=1 n=g5 v=0
20760 On ch=1 n=e4 v=60
20880 On ch=1 n=e4 v=0
20880 On ch=1 n=d#4 v=60
21000 On ch=1 n=d#4 v=0
21000 On ch=1 n=f#5 v=60
21000 On ch=1 n=b4 v=60
21120 On ch=1 n=b4 v=0
21120 On ch=1 n=f#5 v=0
21120 On ch=1 n=d#4 v=60
21240 On ch=1 n=d#4 v=0
21240 On ch=1 n=d4 v=60
21360 On ch=1 n=d4 v=0
21360 On ch=1 n=f5 v=60
21360 On ch=1 n=a#4 v=60
21480 On ch=1 n=a#4 v=0
21480 On ch=1 n=f5 v=0
21480 On ch=1 n=d4 v=60
21600 On ch=1 n=d4 v=0
21600 On ch=1 n=c#4 v=60
21720 On ch=1 n=c#4 v=0
21720 On ch=1 n=e5 v=60
21720 On ch=1 n=a4 v=60
21840 On ch=1 n=a4 v=0
21840 On ch=1 n=e5 v=0
21840 On ch=1 n=c#4 v=60
21960 On ch=1 n=c#4 v=0
21960 On ch=1 n=c4 v=60
22080 On ch=1 n=c4 v=0
22080 On ch=1 n=e5 v=60
22080 On ch=1 n=a4 v=60
22200 On ch=1 n=a4 v=0
22200 On ch=1 n=e5 v=0
22200 On ch=1 n=c4 v=60
22320 On ch=1 n=c4 v=0
22320 On ch=1 n=b3 v=60
22440 On ch=1 n=b3 v=0
22440 On ch=1 n=e5 v=60
22440 On ch=1 n=g4 v=60
22560 On ch=1 n=g4 v=0
22560 On ch=1 n=e5 v=0
22560 On ch=1 n=b3 v=60
22680 On ch=1 n=b3 v=0
22680 On ch=1 n=b3 v=60
22800 On ch=1 n=b3 v=0
22800 On ch=1 n=b4 v=60
22800 On ch=1 n=f#4 v=60
22920 On ch=1 n=f#4 v=0
22920 On ch=1 n=b4 v=0
22920 On ch=1 n=d#4 v=60
23040 On ch=1 n=d#4 v=0
23040 On ch=1 n=e4 v=60
23160 On ch=1 n=e4 v=0
23160 On ch=1 n=e5 v=60
23280 On ch=1 n=e5 v=0
23280 On ch=1 n=b4 v=60
23400 On ch=1 n=b4 v=0
23400 On ch=1 n=e3 v=100
23430 On ch=1 n=e3 v=0
23520 On ch=1 n=c5 v=100
23640 On ch=1 n=c5 v=0
23640 On ch=1 n=g4 v=100
23760 On ch=1 n=g4 v=0
23760 On ch=1 n=d#3 v=100
23790 On ch=1 n=d#3 v=0
23880 On ch=1 n=b4 v=100
24000 On ch=1 n=b4 v=0
24000 On ch=1 n=f#4 v=100
24120 On ch=1 n=f#4 v=0
24120 On ch=1 n=d3 v=100
24150 On ch=1 n=d3 v=0
24240 On ch=1 n=a#4 v=100
24360 On ch=1 n=a#4 v=0
24360 On ch=1 n=f4 v=100
24480 On ch=1 n=f4 v=0
24480 On ch=1 n=c#3 v=100
24510 On ch=1 n=c#3 v=0
24600 On ch=1 n=a4 v=100
24720 On ch=1 n=a4 v=0
24720 On ch=1 n=e4 v=100
24840 On ch=1 n=e4 v=0
24840 On ch=1 n=c3 v=100
24870 On ch=1 n=c3 v=0
24960 On ch=1 n=a4 v=100
25080 On ch=1 n=a4 v=0
25080 On ch=1 n=e4 v=100
25200 On ch=1 n=e4 v=0
25200 On ch=1 n=b2 v=100
25230 On ch=1 n=b2 v=0
25320 On ch=1 n=g4 v=100
25440 On ch=1 n=g4 v=0
25440 On ch=1 n=e4 v=100
25560 On ch=1 n=e4 v=0
25560 On ch=1 n=b3 v=100
25590 On ch=1 n=b3 v=0
25680 On ch=1 n=f#4 v=100
25680 On ch=1 n=e5 v=100
25800 On ch=1 n=e5 v=0
25800 On ch=1 n=f#4 v=0
25800 On ch=1 n=d#5 v=100
25800 On ch=1 n=b4 v=100
25920 On ch=1 n=b4 v=0
25920 On ch=1 n=d#5 v=0
25920 On ch=1 n=e4 v=100
25920 On ch=1 n=e5 v=100
26040 On ch=1 n=e5 v=0
26040 On ch=1 n=e4 v=0
26280 On ch=1 n=d#4 v=60
26310 On ch=1 n=d#4 v=0
26400 On ch=1 n=a5 v=60
26400 On ch=1 n=f#5 v=60
26520 On ch=1 n=f#5 v=0
26520 On ch=1 n=a5 v=0
26520 On ch=1 n=b4 v=60
26640 On ch=1 n=b4 v=0
26640 On ch=1 n=e4 v=60
26670 On ch=1 n=e4 v=0
26760 On ch=1 n=g5 v=60
26760 On ch=1 n=e5 v=60
26880 On ch=1 n=e5 v=0
26880 On ch=1 n=g5 v=0
26880 On ch=1 n=b4 v=60
27000 On ch=1 n=b4 v=0
27000 On ch=1 n=f#4 v=61
27030 On ch=1 n=f#4 v=0
27120 On ch=1 n=a5 v=68
27120 On ch=1 n=d#5 v=68
27240 On ch=1 n=d#5 v=0
27240 On ch=1 n=a5 v=0
27240 On ch=1 n=b4 v=74
27360 On ch=1 n=b4 v=0
27360 On ch=1 n=g4 v=80
27390 On ch=1 n=g4 v=0
27480 On ch=1 n=g5 v=80
27480 On ch=1 n=e5 v=80
27600 On ch=1 n=e5 v=0
27600 On ch=1 n=g5 v=0
27600 On ch=1 n=b4 v=80
27720 On ch=1 n=b4 v=0
27720 On ch=1 n=a4 v=80
27750 On ch=1 n=a4 v=0
27840 On ch=1 n=e5 v=80
27840 On ch=1 n=f#5 v=80
27960 On ch=1 n=f#5 v=0
27960 On ch=1 n=e5 v=0
27960 On ch=1 n=c5 v=80
28080 On ch=1 n=c5 v=0
28080 On ch=1 n=b4 v=80
28110 On ch=1 n=b4 v=0
28440 On ch=1 n=b3 v=80
28470 On ch=1 n=b3 v=0
29160 On ch=1 n=d#4 v=60
29190 On ch=1 n=d#4 v=0
29280 On ch=1 n=a5 v=61
29280 On ch=1 n=f#5 v=61
29400 On ch=1 n=f#5 v=0
29400 On ch=1 n=a5 v=0
29400 On ch=1 n=b4 v=63
29520 On ch=1 n=b4 v=0
29520 On ch=1 n=e4 v=65
29550 On ch=1 n=e4 v=0
29640 On ch=1 n=g5 v=67
29640 On ch=1 n=e5 v=67
29760 On ch=1 n=e5 v=0
29760 On ch=1 n=g5 v=0
29760 On ch=1 n=b4 v=69
29880 On ch=1 n=b4 v=0
29880 On ch=1 n=f#4 v=71
29910 On ch=1 n=f#4 v=0
30000 On ch=1 n=a5 v=73
30000 On ch=1 n=d#5 v=73
30120 On ch=1 n=d#5 v=0
30120 On ch=1 n=a5 v=0
30120 On ch=1 n=b4 v=74
30240 On ch=1 n=b4 v=0
30240 On ch=1 n=g4 v=76
30270 On ch=1 n=g4 v=0
30360 On ch=1 n=g5 v=78
30360 On ch=1 n=e5 v=78
30480 On ch=1 n=e5 v=0
30480 On ch=1 n=g5 v=0
30480 On ch=1 n=b4 v=80
30600 On ch=1 n=b4 v=0
30600 On ch=1 n=a4 v=82
30630 On ch=1 n=a4 v=0
30720 On ch=1 n=e5 v=84
30720 On ch=1 n=f#5 v=84
30840 On ch=1 n=f#5 v=0
30840 On ch=1 n=e5 v=0
30840 On ch=1 n=c5 v=86
30960 On ch=1 n=c5 v=0
30960 On ch=1 n=b4 v=88
30990 On ch=1 n=b4 v=0
31320 On ch=1 n=b3 v=93
31350 On ch=1 n=b3 v=0
31800 On ch=1 n=e4 v=100
31830 On ch=1 n=e4 v=0
32040 On ch=1 n=b3 v=60
32070 On ch=1 n=b3 v=0
32400 On ch=1 n=b3 v=60
32430 On ch=1 n=b3 v=0
32760 On ch=1 n=e4 v=60
32790 On ch=1 n=e4 v=0
33480 On ch=1 n=b3 v=60
33510 On ch=1 n=b3 v=0
33840 On ch=1 n=b3 v=60
33870 On ch=1 n=b3 v=0
33960 On ch=1 n=c#5 v=60
34080 On ch=1 n=c#5 v=0
34080 On ch=1 n=b4 v=60
34200 On ch=1 n=b4 v=0
34200 On ch=1 n=b3 v=60
34230 On ch=1 n=b3 v=0
34320 On ch=1 n=d#5 v=60
34440 On ch=1 n=d#5 v=0
34440 On ch=1 n=b4 v=60
34560 On ch=1 n=b4 v=0
34560 On ch=1 n=e4 v=60
34590 On ch=1 n=e4 v=0
34680 On ch=1 n=e5 v=60
34800 On ch=1 n=e5 v=0
34800 On ch=1 n=b4 v=60
34920 On ch=1 n=b4 v=0
34920 On ch=1 n=b3 v=60
34950 On ch=1 n=b3 v=0
35280 On ch=1 n=b3 v=60
35310 On ch=1 n=b3 v=0
35640 On ch=1 n=e4 v=60
35670 On ch=1 n=e4 v=0
36360 On ch=1 n=b3 v=60
36390 On ch=1 n=b3 v=0
36720 On ch=1 n=b3 v=60
36750 On ch=1 n=b3 v=0
36840 On ch=1 n=e5 v=60
36840 On ch=1 n=c#5 v=60
36960 On ch=1 n=c#5 v=0
36960 On ch=1 n=e5 v=0
36960 On ch=1 n=b4 v=60
37080 On ch=1 n=b4 v=0
37080 On ch=1 n=b3 v=60
37110 On ch=1 n=b3 v=0
37200 On ch=1 n=f#5 v=60
37200 On ch=1 n=d#5 v=60
37320 On ch=1 n=d#5 v=0
37320 On ch=1 n=f#5 v=0
37320 On ch=1 n=b4 v=60
37440 On ch=1 n=b4 v=0
37440 On ch=1 n=e4 v=60
37440 On ch=1 n=e5 v=60
37440 On ch=1 n=b4 v=60
37560 On ch=1 n=b4 v=0
37560 On ch=1 n=e5 v=0
37560 On ch=1 n=e4 v=0
37800 On ch=1 n=b3 v=60
37830 On ch=1 n=b3 v=0
38160 On ch=1 n=b3 v=60
38190 On ch=1 n=b3 v=0
38520 On ch=1 n=e4 v=60
38550 On ch=1 n=e4 v=0
39240 On ch=1 n=b3 v=60
39270 On ch=1 n=b3 v=0
39600 On ch=1 n=b3 v=60
39630 On ch=1 n=b3 v=0
39720 On ch=1 n=c#5 v=60
39840 On ch=1 n=c#5 v=0
39840 On ch=1 n=b4 v=60
39960 On ch=1 n=b4 v=0
39960 On ch=1 n=b3 v=60
39990 On ch=1 n=b3 v=0
40080 On ch=1 n=d#5 v=60
40200 On ch=1 n=d#5 v=0
40200 On ch=1 n=b4 v=60
40320 On ch=1 n=b4 v=0
40320 On ch=1 n=e4 v=60
40350 On ch=1 n=e4 v=0
40440 On ch=1 n=e5 v=60
40560 On ch=1 n=e5 v=0
40560 On ch=1 n=b4 v=60
40680 On ch=1 n=b4 v=0
40680 On ch=1 n=b3 v=60
40710 On ch=1 n=b3 v=0
41040 On ch=1 n=b3 v=60
41070 On ch=1 n=b3 v=0
41400 On ch=1 n=e4 v=60
41430 On ch=1 n=e4 v=0
42120 On ch=1 n=b3 v=60
42150 On ch=1 n=b3 v=0
42480 On ch=1 n=b3 v=60
42510 On ch=1 n=b3 v=0
42600 On ch=1 n=e5 v=60
42600 On ch=1 n=c#5 v=60
42720 On ch=1 n=c#5 v=0
42720 On ch=1 n=e5 v=0
42720 On ch=1 n=b4 v=60
42840 On ch=1 n=b4 v=0
42840 On ch=1 n=b3 v=60
42870 On ch=1 n=b3 v=0
42960 On ch=1 n=f#5 v=60
42960 On ch=1 n=d#5 v=60
43080 On ch=1 n=d#5 v=0
43080 On ch=1 n=f#5 v=0
43080 On ch=1 n=b4 v=60
43200 On ch=1 n=b4 v=0
43200 On ch=1 n=e4 v=60
43200 On ch=1 n=e5 v=60
43200 On ch=1 n=b4 v=60
43320 On ch=1 n=b4 v=0
43320 On ch=1 n=e5 v=0
43320 On ch=1 n=e4 v=0
43560 On ch=1 n=g2 v=110
43620 On ch=1 n=g2 v=0
43620 On ch=1 n=g#2 v=110
43680 On ch=1 n=g#2 v=0
43680 On ch=1 n=c3 v=110
43740 On ch=1 n=c3 v=0
43740 On ch=1 n=d#3 v=110
43800 On ch=1 n=d#3 v=0
43800 On ch=1 n=g3 v=110
43860 On ch=1 n=g3 v=0
43860 On ch=1 n=g#3 v=110
43920 On ch=1 n=g#3 v=0
43920 On ch=1 n=g#4 v=110
44040 On ch=1 n=g#4 v=0
44160 On ch=1 n=c#3 v=110
44280 On ch=1 n=c#3 v=0
44280 On ch=1 n=g2 v=110
44340 On ch=1 n=g2 v=0
44340 On ch=1 n=g#2 v=110
44400 On ch=1 n=g#2 v=0
44400 On ch=1 n=c3 v=110
44460 On ch=1 n=c3 v=0
44460 On ch=1 n=d#3 v=110
44520 On ch=1 n=d#3 v=0
44520 On ch=1 n=g3 v=110
44580 On ch=1 n=g3 v=0
44580 On ch=1 n=g#3 v=110
44640 On ch=1 n=g#3 v=0
44640 On ch=1 n=g#4 v=110
44880 On ch=1 n=g#4 v=0
44880 On ch=1 n=c#4 v=110
45000 On ch=1 n=c#4 v=0
45000 On ch=1 n=d#4 v=110
45120 On ch=1 n=d#4 v=0
45120 On ch=1 n=d4 v=110
45180 On ch=1 n=d4 v=0
45180 On ch=1 n=d#4 v=110
45240 On ch=1 n=d#4 v=0
45240 On ch=1 n=e4 v=110
45300 On ch=1 n=e4 v=0
45300 On ch=1 n=d#4 v=110
45360 On ch=1 n=d#4 v=0
45360 On ch=1 n=d#5 v=110
45540 On ch=1 n=d#5 v=0
45540 On ch=1 n=b4 v=110
45600 On ch=1 n=b4 v=0
45600 On ch=1 n=g#4 v=110
45660 On ch=1 n=g#4 v=0
45660 On ch=1 n=d#4 v=110
45720 On ch=1 n=d#4 v=0
45720 On ch=1 n=d#3 v=110
45900 On ch=1 n=d#3 v=0
45900 On ch=1 n=c#3 v=94
45960 On ch=1 n=c#3 v=0
45960 On ch=1 n=b2 v=89
46020 On ch=1 n=b2 v=0
46020 On ch=1 n=a#2 v=83
46080 On ch=1 n=a#2 v=0
46080 On ch=1 n=g#2 v=80
46200 On ch=1 n=g#2 v=0
46440 On ch=1 n=b2 v=60
46470 On ch=1 n=b2 v=0
46800 On ch=1 n=b3 v=60
46830 On ch=1 n=b3 v=0
47160 On ch=1 n=e4 v=60
47190 On ch=1 n=e4 v=0
47520 On ch=1 n=g#4 v=60
47550 On ch=1 n=g#4 v=0
47880 On ch=1 n=b3 v=60
47910 On ch=1 n=b3 v=0
48240 On ch=1 n=b3 v=60
48270 On ch=1 n=b3 v=0
48360 On ch=1 n=c#5 v=60
48480 On ch=1 n=c#5 v=0
48480 On ch=1 n=b4 v=60
48600 On ch=1 n=b4 v=0
48600 On ch=1 n=b3 v=60
48630 On ch=1 n=b3 v=0
48720 On ch=1 n=d#5 v=60
48840 On ch=1 n=d#5 v=0
48840 On ch=1 n=b4 v=60
48960 On ch=1 n=b4 v=0
48960 On ch=1 n=e4 v=60
48990 On ch=1 n=e4 v=0
49080 On ch=1 n=e5 v=60
49200 On ch=1 n=e5 v=0
49200 On ch=1 n=b4 v=60
49320 On ch=1 n=b4 v=0
49320 On ch=1 n=b3 v=40
49380 On ch=1 n=b3 v=0
49380 On ch=1 n=f#4 v=40
49440 On ch=1 n=f#4 v=0
49440 On ch=1 n=a4 v=40
49500 On ch=1 n=a4 v=0
49500 On ch=1 n=b4 v=40
49560 On ch=1 n=b4 v=0
49560 On ch=1 n=a4 v=40
49620 On ch=1 n=a4 v=0
49620 On ch=1 n=f#4 v=40
49680 On ch=1 n=f#4 v=0
49680 On ch=1 n=b3 v=40
49740 On ch=1 n=b3 v=0
49740 On ch=1 n=f#4 v=40
49800 On ch=1 n=f#4 v=0
49800 On ch=1 n=a4 v=40
49860 On ch=1 n=a4 v=0
49860 On ch=1 n=b4 v=40
49920 On ch=1 n=b4 v=0
49920 On ch=1 n=a4 v=40
49980 On ch=1 n=a4 v=0
49980 On ch=1 n=f#4 v=40
50040 On ch=1 n=f#4 v=0
50040 On ch=1 n=b3 v=40
50100 On ch=1 n=b3 v=0
50100 On ch=1 n=e4 v=40
50160 On ch=1 n=e4 v=0
50160 On ch=1 n=g#4 v=40
50220 On ch=1 n=g#4 v=0
50220 On ch=1 n=b4 v=40
50280 On ch=1 n=b4 v=0
50280 On ch=1 n=g#4 v=40
50340 On ch=1 n=g#4 v=0
50340 On ch=1 n=e4 v=40
50400 On ch=1 n=e4 v=0
50400 On ch=1 n=b3 v=40
50460 On ch=1 n=b3 v=0
50460 On ch=1 n=e4 v=40
50520 On ch=1 n=e4 v=0
50520 On ch=1 n=g#4 v=40
50580 On ch=1 n=g#4 v=0
50580 On ch=1 n=e5 v=40
50640 On ch=1 n=e5 v=0
50640 On ch=1 n=g#4 v=40
50700 On ch=1 n=g#4 v=0
50700 On ch=1 n=e4 v=40
50760 On ch=1 n=e4 v=0
50760 On ch=1 n=b3 v=40
50820 On ch=1 n=b3 v=0
50820 On ch=1 n=e4 v=40
50880 On ch=1 n=e4 v=0
50880 On ch=1 n=g#4 v=40
50940 On ch=1 n=g#4 v=0
50940 On ch=1 n=b4 v=40
51000 On ch=1 n=b4 v=0
51000 On ch=1 n=g#4 v=40
51060 On ch=1 n=g#4 v=0
51060 On ch=1 n=e4 v=40
51120 On ch=1 n=e4 v=0
51120 On ch=1 n=b3 v=40
51180 On ch=1 n=b3 v=0
51180 On ch=1 n=e4 v=40
51240 On ch=1 n=e4 v=0
51240 On ch=1 n=g4 v=40
51300 On ch=1 n=g4 v=0
51300 On ch=1 n=c#5 v=40
51360 On ch=1 n=c#5 v=0
51360 On ch=1 n=g4 v=40
51420 On ch=1 n=g4 v=0
51420 On ch=1 n=e4 v=40
51480 On ch=1 n=e4 v=0
51480 On ch=1 n=b3 v=40
51540 On ch=1 n=b3 v=0
51540 On ch=1 n=f#4 v=40
51600 On ch=1 n=f#4 v=0
51600 On ch=1 n=a4 v=40
51660 On ch=1 n=a4 v=0
51660 On ch=1 n=d#5 v=40
51720 On ch=1 n=d#5 v=0
51720 On ch=1 n=a4 v=40
51780 On ch=1 n=a4 v=0
51780 On ch=1 n=f#4 v=40
51840 On ch=1 n=f#4 v=0
51840 On ch=1 n=e5 v=40
51840 On ch=1 n=e4 v=40
51960 On ch=1 n=e4 v=0
51960 On ch=1 n=e5 v=0
52200 On ch=1 n=g2 v=110
52260 On ch=1 n=g2 v=0
52260 On ch=1 n=g#2 v=110
52320 On ch=1 n=g#2 v=0
52320 On ch=1 n=c3 v=110
52380 On ch=1 n=c3 v=0
52380 On ch=1 n=d#3 v=110
52440 On ch=1 n=d#3 v=0
52440 On ch=1 n=g3 v=110
52500 On ch=1 n=g3 v=0
52500 On ch=1 n=g#3 v=110
52560 On ch=1 n=g#3 v=0
52560 On ch=1 n=g#4 v=110
52680 On ch=1 n=g#4 v=0
52800 On ch=1 n=c#3 v=110
52920 On ch=1 n=c#3 v=0
52920 On ch=1 n=g2 v=110
52980 On ch=1 n=g2 v=0
52980 On ch=1 n=g#2 v=110
53040 On ch=1 n=g#2 v=0
53040 On ch=1 n=c3 v=110
53100 On ch=1 n=c3 v=0
53100 On ch=1 n=d#3 v=110
53160 On ch=1 n=d#3 v=0
53160 On ch=1 n=g3 v=110
53220 On ch=1 n=g3 v=0
53220 On ch=1 n=g#3 v=110
53280 On ch=1 n=g#3 v=0
53280 On ch=1 n=g#4 v=110
53520 On ch=1 n=g#4 v=0
53520 On ch=1 n=c#4 v=110
53640 On ch=1 n=c#4 v=0
53640 On ch=1 n=d#4 v=110
53760 On ch=1 n=d#4 v=0
53760 On ch=1 n=d4 v=110
53820 On ch=1 n=d4 v=0
53820 On ch=1 n=d#4 v=110
53880 On ch=1 n=d#4 v=0
53880 On ch=1 n=e4 v=110
53940 On ch=1 n=e4 v=0
53940 On ch=1 n=d#4 v=110
54000 On ch=1 n=d#4 v=0
54000 On ch=1 n=d#5 v=110
54180 On ch=1 n=d#5 v=0
54180 On ch=1 n=b4 v=110
54240 On ch=1 n=b4 v=0
54240 On ch=1 n=g#4 v=110
54300 On ch=1 n=g#4 v=0
54300 On ch=1 n=d#4 v=110
54360 On ch=1 n=d#4 v=0
54360 On ch=1 n=d#3 v=110
54540 On ch=1 n=d#3 v=0
54540 On ch=1 n=c#3 v=94
54600 On ch=1 n=c#3 v=0
54600 On ch=1 n=b2 v=89
54660 On ch=1 n=b2 v=0
54660 On ch=1 n=a#2 v=83
54720 On ch=1 n=a#2 v=0
54720 On ch=1 n=g#2 v=80
54840 On ch=1 n=g#2 v=0
55080 On ch=1 n=b2 v=60
55110 On ch=1 n=b2 v=0
55440 On ch=1 n=b3 v=60
55470 On ch=1 n=b3 v=0
55800 On ch=1 n=e4 v=60
55830 On ch=1 n=e4 v=0
56160 On ch=1 n=g#4 v=60
56190 On ch=1 n=g#4 v=0
56520 On ch=1 n=b3 v=60
56550 On ch=1 n=b3 v=0
56880 On ch=1 n=b3 v=60
56910 On ch=1 n=b3 v=0
57000 On ch=1 n=c#5 v=60
57120 On ch=1 n=c#5 v=0
57120 On ch=1 n=b4 v=60
57240 On ch=1 n=b4 v=0
57240 On ch=1 n=b3 v=60
57270 On ch=1 n=b3 v=0
57360 On ch=1 n=d#5 v=60
57480 On ch=1 n=d#5 v=0
57480 On ch=1 n=b4 v=60
57600 On ch=1 n=b4 v=0
57600 On ch=1 n=e4 v=60
57630 On ch=1 n=e4 v=0
57720 On ch=1 n=e5 v=60
57840 On ch=1 n=e5 v=0
57840 On ch=1 n=b4 v=60
57960 On ch=1 n=b4 v=0
57960 On ch=1 n=b3 v=40
58020 On ch=1 n=b3 v=0
58020 On ch=1 n=f#4 v=40
58080 On ch=1 n=f#4 v=0
58080 On ch=1 n=a4 v=40
58140 On ch=1 n=a4 v=0
58140 On ch=1 n=b4 v=40
58200 On ch=1 n=b4 v=0
58200 On ch=1 n=a4 v=40
58260 On ch=1 n=a4 v=0
58260 On ch=1 n=f#4 v=40
58320 On ch=1 n=f#4 v=0
58320 On ch=1 n=b3 v=40
58380 On ch=1 n=b3 v=0
58380 On ch=1 n=f#4 v=40
58440 On ch=1 n=f#4 v=0
58440 On ch=1 n=a4 v=40
58500 On ch=1 n=a4 v=0
58500 On ch=1 n=b4 v=40
58560 On ch=1 n=b4 v=0
58560 On ch=1 n=a4 v=40
58620 On ch=1 n=a4 v=0
58620 On ch=1 n=f#4 v=40
58680 On ch=1 n=f#4 v=0
58680 On ch=1 n=b3 v=40
58740 On ch=1 n=b3 v=0
58740 On ch=1 n=e4 v=40
58800 On ch=1 n=e4 v=0
58800 On ch=1 n=g#4 v=40
58860 On ch=1 n=g#4 v=0
58860 On ch=1 n=b4 v=40
58920 On ch=1 n=b4 v=0
58920 On ch=1 n=g#4 v=40
58980 On ch=1 n=g#4 v=0
58980 On ch=1 n=e4 v=40
59040 On ch=1 n=e4 v=0
59040 On ch=1 n=b3 v=40
59100 On ch=1 n=b3 v=0
59100 On ch=1 n=e4 v=40
59160 On ch=1 n=e4 v=0
59160 On ch=1 n=g#4 v=40
59220 On ch=1 n=g#4 v=0
59220 On ch=1 n=e5 v=40
59280 On ch=1 n=e5 v=0
59280 On ch=1 n=g#4 v=40
59340 On ch=1 n=g#4 v=0
59340 On ch=1 n=e4 v=40
59400 On ch=1 n=e4 v=0
59400 On ch=1 n=b3 v=40
59460 On ch=1 n=b3 v=0
59460 On ch=1 n=e4 v=40
59520 On ch=1 n=e4 v=0
59520 On ch=1 n=g#4 v=40
59580 On ch=1 n=g#4 v=0
59580 On ch=1 n=b4 v=40
59640 On ch=1 n=b4 v=0
59640 On ch=1 n=g#4 v=40
59700 On ch=1 n=g#4 v=0
59700 On ch=1 n=e4 v=40
59760 On ch=1 n=e4 v=0
59760 On ch=1 n=b3 v=40
59820 On ch=1 n=b3 v=0
59820 On ch=1 n=e4 v=40
59880 On ch=1 n=e4 v=0
59880 On ch=1 n=g4 v=40
59940 On ch=1 n=g4 v=0
59940 On ch=1 n=c#5 v=40
60000 On ch=1 n=c#5 v=0
60000 On ch=1 n=g4 v=40
60060 On ch=1 n=g4 v=0
60060 On ch=1 n=e4 v=40
60120 On ch=1 n=e4 v=0
60120 On ch=1 n=b3 v=40
60180 On ch=1 n=b3 v=0
60180 On ch=1 n=f#4 v=40
60240 On ch=1 n=f#4 v=0
60240 On ch=1 n=a4 v=40
60300 On ch=1 n=a4 v=0
60300 On ch=1 n=d#5 v=40
60360 On ch=1 n=d#5 v=0
60360 On ch=1 n=a4 v=40
60420 On ch=1 n=a4 v=0
60420 On ch=1 n=f#4 v=40
60480 On ch=1 n=f#4 v=0
60480 On ch=1 n=e4 v=40
60480 On ch=1 n=e5 v=40
60600 On ch=1 n=e5 v=0
60600 On ch=1 n=e4 v=0
60840 On ch=1 n=d#4 v=60
60870 On ch=1 n=d#4 v=0
61200 On ch=1 n=e4 v=60
61230 On ch=1 n=e4 v=0
61560 On ch=1 n=f#4 v=61
61590 On ch=1 n=f#4 v=0
63000 On ch=1 n=b3 v=80
63030 On ch=1 n=b3 v=0
63720 On ch=1 n=d#4 v=60
63750 On ch=1 n=d#4 v=0
64080 On ch=1 n=e4 v=60
64110 On ch=1 n=e4 v=0
64440 On ch=1 n=f#4 v=64
64470 On ch=1 n=f#4 v=0
65160 On ch=1 n=a3 v=100
65160 On ch=1 n=a4 v=100
65190 On ch=1 n=a4 v=0
65190 On ch=1 n=a3 v=0
65280 On ch=1 n=f5 v=100
65280 On ch=1 n=e5 v=100
65280 On ch=1 n=c5 v=100
65520 On ch=1 n=c5 v=0
65520 On ch=1 n=e5 v=0
65520 On ch=1 n=f5 v=0
65520 On ch=1 n=a#3 v=100
65520 On ch=1 n=a#4 v=100
65550 On ch=1 n=a#4 v=0
65550 On ch=1 n=a#3 v=0
65640 On ch=1 n=f#5 v=102
65640 On ch=1 n=e5 v=102
65640 On ch=1 n=c#5 v=102
65880 On ch=1 n=c#5 v=0
65880 On ch=1 n=e5 v=0
65880 On ch=1 n=f#5 v=0
65880 On ch=1 n=b3 v=107
65880 On ch=1 n=b4 v=107
65910 On ch=1 n=b4 v=0
65910 On ch=1 n=b3 v=0
66000 On ch=1 n=g5 v=109
66000 On ch=1 n=e5 v=109
66000 On ch=1 n=b4 v=109
66240 On ch=1 n=b4 v=0
66240 On ch=1 n=e5 v=0
66240 On ch=1 n=g5 v=0
66240 On ch=1 n=c4 v=114
66240 On ch=1 n=c5 v=114
66270 On ch=1 n=c5 v=0
66270 On ch=1 n=c4 v=0
66360 On ch=1 n=g5 v=116
66360 On ch=1 n=e5 v=116
66360 On ch=1 n=c5 v=116
66600 On ch=1 n=c5 v=0
66600 On ch=1 n=e5 v=0
66600 On ch=1 n=g5 v=0
66600 On ch=1 n=e5 v=120
66600 On ch=1 n=a#4 v=120
66600 On ch=1 n=g4 v=120
66600 On ch=1 n=c#4 v=120
66840 On ch=1 n=c#4 v=0
66840 On ch=1 n=e5 v=0
66840 On ch=1 n=a#4 v=0
66840 On ch=1 n=g4 v=0
66840 On ch=1 n=e3 v=120
66840 On ch=1 n=e4 v=120
66960 On ch=1 n=e4 v=0
66960 On ch=1 n=e3 v=0
66960 On ch=1 n=g3 v=120
66960 On ch=1 n=g4 v=120
67200 On ch=1 n=g4 v=0
67200 On ch=1 n=g3 v=0
67200 On ch=1 n=a#3 v=120
67200 On ch=1 n=a#4 v=120
67320 On ch=1 n=a#4 v=0
67320 On ch=1 n=a#3 v=0
67320 On ch=1 n=c#4 v=120
67320 On ch=1 n=c#5 v=120
67560 On ch=1 n=c#5 v=0
67560 On ch=1 n=c#4 v=0
67560 On ch=1 n=e5 v=120
67560 On ch=1 n=e4 v=120
67680 On ch=1 n=e4 v=0
67680 On ch=1 n=e5 v=0
67680 On ch=1 n=g5 v=120
67680 On ch=1 n=g4 v=120
67800 On ch=1 n=g4 v=0
67800 On ch=1 n=g5 v=0
67920 On ch=1 n=e5 v=120
67920 On ch=1 n=a#4 v=120
67920 On ch=1 n=g4 v=120
67920 On ch=1 n=c4 v=120
68040 On ch=1 n=c4 v=0
68040 On ch=1 n=e5 v=0
68040 On ch=1 n=a#4 v=0
68040 On ch=1 n=g4 v=0
68040 On ch=1 n=b3 v=120
68050 On ch=1 n=g4 v=120
68060 On ch=1 n=b4 v=120
68070 On ch=1 n=e5 v=120
68160 On ch=1 n=e5 v=0
68160 On ch=1 n=b3 v=0
68160 On ch=1 n=g4 v=0
68160 On ch=1 n=b4 v=0
68400 On ch=1 n=b3 v=120
68410 On ch=1 n=f#4 v=120
68420 On ch=1 n=a4 v=119
68430 On ch=1 n=d#5 v=119
68520 On ch=1 n=d#5 v=0
68520 On ch=1 n=b3 v=0
68520 On ch=1 n=f#4 v=0
68520 On ch=1 n=a4 v=0
68760 On ch=1 n=g4 v=100
68760 On ch=1 n=e4 v=100
68790 On ch=1 n=e4 v=0
68790 On ch=1 n=g4 v=0
69000 On ch=1 n=d#5 v=100
69000 On ch=1 n=a4 v=100
69000 On ch=1 n=e4 v=100
69030 On ch=1 n=e4 v=0
69030 On ch=1 n=a4 v=0
69030 On ch=1 n=d#5 v=0
69120 On ch=1 n=e5 v=100
69120 On ch=1 n=g4 v=100
69120 On ch=1 n=e4 v=100
69150 On ch=1 n=e4 v=0
69150 On ch=1 n=g4 v=0
69150 On ch=1 n=e5 v=0
69360 On ch=1 n=d#5 v=100
69360 On ch=1 n=a4 v=100
69360 On ch=1 n=e4 v=100
69390 On ch=1 n=e4 v=0
69390 On ch=1 n=a4 v=0
69390 On ch=1 n=d#5 v=0
69480 On ch=1 n=e5 v=100
69480 On ch=1 n=g4 v=100
69480 On ch=1 n=e4 v=100
69510 On ch=1 n=e4 v=0
69510 On ch=1 n=g4 v=0
69510 On ch=1 n=e5 v=0
69720 On ch=1 n=d#5 v=100
69720 On ch=1 n=a4 v=100
69720 On ch=1 n=e4 v=100
69750 On ch=1 n=e4 v=0
69750 On ch=1 n=a4 v=0
69750 On ch=1 n=d#5 v=0
69840 On ch=1 n=e5 v=100
69840 On ch=1 n=g4 v=100
69840 On ch=1 n=e4 v=100
69870 On ch=1 n=e4 v=0
69870 On ch=1 n=g4 v=0
69870 On ch=1 n=e5 v=0
70080 On ch=1 n=d#5 v=100
70080 On ch=1 n=a4 v=100
70080 On ch=1 n=e4 v=100
70110 On ch=1 n=e4 v=0
70110 On ch=1 n=a4 v=0
70110 On ch=1 n=d#5 v=0
70200 On ch=1 n=e5 v=100
70200 On ch=1 n=g4 v=100
70200 On ch=1 n=e4 v=100
70320 On ch=1 n=e4 v=0
70320 On ch=1 n=g4 v=0
70320 On ch=1 n=e5 v=0
70560 On ch=1 n=e3 v=108
70680 On ch=1 n=e3 v=0
71400 On ch=1 n=g4 v=106
71460 On ch=1 n=g4 v=0
71460 On ch=1 n=e4 v=105
71520 On ch=1 n=e4 v=0
71520 On ch=1 n=b3 v=103
71580 On ch=1 n=b3 v=0
71580 On ch=1 n=g3 v=101
71640 On ch=1 n=g3 v=0
71640 On ch=1 n=e2 v=100
71640 On ch=1 n=e3 v=100
71670 On ch=1 n=e3 v=0
71670 On ch=1 n=e2 v=0
72000 On ch=1 n=b4 v=100
72000 On ch=1 n=f#4 v=100
72000 On ch=1 n=d#4 v=100
72000 On ch=1 n=b3 v=100
72030 On ch=1 n=b3 v=0
72030 On ch=1 n=b4 v=0
72030 On ch=1 n=f#4 v=0
72030 On ch=1 n=d#4 v=0
72360 On ch=1 n=e3 v=109
72360 On ch=1 n=g3 v=109
72360 On ch=1 n=b3 v=109
72360 On ch=1 n=e4 v=109
72390 On ch=1 n=e4 v=0
72390 On ch=1 n=e3 v=0
72390 On ch=1 n=g3 v=0
72390 On ch=1 n=b3 v=0
72720 On ch=1 n=b2 v=118
72720 On ch=1 n=d#3 v=118
72720 On ch=1 n=f#3 v=118
72720 On ch=1 n=b3 v=118
72750 On ch=1 n=b3 v=0
72750 On ch=1 n=b2 v=0
72750 On ch=1 n=d#3 v=0
72750 On ch=1 n=f#3 v=0
73080 On ch=1 n=e2 v=127
73080 On ch=1 n=e3 v=127
73110 On ch=1 n=e3 v=0
73110 On ch=1 n=e2 v=0
73110 Meta TrkEnd
TrkEnd
MTrk
0 Meta 0x21 00
0 Meta TrkName "Pedal"
0 PrCh ch=1 p=0
360 Par ch=1 c=64 v=127
660 Par ch=1 c=64 v=0
720 Par ch=1 c=64 v=127
1020 Par ch=1 c=64 v=0
1080 Par ch=1 c=64 v=127
1380 Par ch=1 c=64 v=0
1440 Par ch=1 c=64 v=127
1740 Par ch=1 c=64 v=0
1800 Par ch=1 c=64 v=127
2100 Par ch=1 c=64 v=0
2160 Par ch=1 c=64 v=127
2460 Par ch=1 c=64 v=0
2520 Par ch=1 c=64 v=127
2940 Par ch=1 c=64 v=0
3240 Par ch=1 c=64 v=127
3480 Par ch=1 c=64 v=0
3600 Par ch=1 c=64 v=127
3840 Par ch=1 c=64 v=0
3960 Par ch=1 c=64 v=127
4200 Par ch=1 c=64 v=0
4320 Par ch=1 c=64 v=127
4560 Par ch=1 c=64 v=0
4680 Par ch=1 c=64 v=127
4920 Par ch=1 c=64 v=0
5040 Par ch=1 c=64 v=127
5280 Par ch=1 c=64 v=0
5400 Par ch=1 c=64 v=127
5640 Par ch=1 c=64 v=0
6120 Par ch=1 c=64 v=127
6360 Par ch=1 c=64 v=0
6480 Par ch=1 c=64 v=127
6720 Par ch=1 c=64 v=0
6840 Par ch=1 c=64 v=127
7080 Par ch=1 c=64 v=0
7200 Par ch=1 c=64 v=127
7440 Par ch=1 c=64 v=0
7560 Par ch=1 c=64 v=127
7800 Par ch=1 c=64 v=0
7920 Par ch=1 c=64 v=127
8160 Par ch=1 c=64 v=0
8280 Par ch=1 c=64 v=127
8520 Par ch=1 c=64 v=0
9000 Par ch=1 c=64 v=127
9240 Par ch=1 c=64 v=0
9360 Par ch=1 c=64 v=127
9600 Par ch=1 c=64 v=0
9720 Par ch=1 c=64 v=127
9960 Par ch=1 c=64 v=0
10080 Par ch=1 c=64 v=127
10320 Par ch=1 c=64 v=0
10440 Par ch=1 c=64 v=127
10680 Par ch=1 c=64 v=0
10800 Par ch=1 c=64 v=127
11040 Par ch=1 c=64 v=0
11160 Par ch=1 c=64 v=127
11400 Par ch=1 c=64 v=0
11520 Par ch=1 c=64 v=127
11760 Par ch=1 c=64 v=0
11880 Par ch=1 c=64 v=127
12120 Par ch=1 c=64 v=0
12240 Par ch=1 c=64 v=127
12480 Par ch=1 c=64 v=0
12600 Par ch=1 c=64 v=127
12840 Par ch=1 c=64 v=0
12960 Par ch=1 c=64 v=127
13200 Par ch=1 c=64 v=0
13320 Par ch=1 c=64 v=127
13560 Par ch=1 c=64 v=0
13680 Par ch=1 c=64 v=127
13920 Par ch=1 c=64 v=0
14040 Par ch=1 c=64 v=127
14280 Par ch=1 c=64 v=0
14760 Par ch=1 c=64 v=127
15000 Par ch=1 c=64 v=0
15120 Par ch=1 c=64 v=127
15360 Par ch=1 c=64 v=0
15480 Par ch=1 c=64 v=127
15720 Par ch=1 c=64 v=0
15840 Par ch=1 c=64 v=127
16080 Par ch=1 c=64 v=0
16200 Par ch=1 c=64 v=127
16440 Par ch=1 c=64 v=0
16560 Par ch=1 c=64 v=127
16800 Par ch=1 c=64 v=0
16920 Par ch=1 c=64 v=127
17160 Par ch=1 c=64 v=0
17640 Par ch=1 c=64 v=127
17880 Par ch=1 c=64 v=0
18000 Par ch=1 c=64 v=127
18240 Par ch=1 c=64 v=0
18360 Par ch=1 c=64 v=127
18600 Par ch=1 c=64 v=0
18720 Par ch=1 c=64 v=127
18960 Par ch=1 c=64 v=0
19080 Par ch=1 c=64 v=127
19320 Par ch=1 c=64 v=0
19440 Par ch=1 c=64 v=127
19680 Par ch=1 c=64 v=0
19800 Par ch=1 c=64 v=127
20040 Par ch=1 c=64 v=0
20520 Par ch=1 c=64 v=127
20760 Par ch=1 c=64 v=0
20880 Par ch=1 c=64 v=127
21120 Par ch=1 c=64 v=0
21240 Par ch=1 c=64 v=127
21480 Par ch=1 c=64 v=0
21600 Par ch=1 c=64 v=127
21840 Par ch=1 c=64 v=0
21960 Par ch=1 c=64 v=127
22200 Par ch=1 c=64 v=0
22320 Par ch=1 c=64 v=127
22560 Par ch=1 c=64 v=0
22680 Par ch=1 c=64 v=127
22920 Par ch=1 c=64 v=0
23040 Par ch=1 c=64 v=127
23280 Par ch=1 c=64 v=0
23400 Par ch=1 c=64 v=127
23640 Par ch=1 c=64 v=0
23760 Par ch=1 c=64 v=127
24000 Par ch=1 c=64 v=0
24120 Par ch=1 c=64 v=127
24360 Par ch=1 c=64 v=0
24480 Par ch=1 c=64 v=127
24720 Par ch=1 c=64 v=0
24840 Par ch=1 c=64 v=127
25080 Par ch=1 c=64 v=0
25200 Par ch=1 c=64 v=127
25440 Par ch=1 c=64 v=0
25560 Par ch=1 c=64 v=127
25800 Par ch=1 c=64 v=0
26280 Par ch=1 c=64 v=127
26520 Par ch=1 c=64 v=0
26640 Par ch=1 c=64 v=127
26880 Par ch=1 c=64 v=0
27000 Par ch=1 c=64 v=127
27240 Par ch=1 c=64 v=0
27360 Par ch=1 c=64 v=127
27600 Par ch=1 c=64 v=0
27720 Par ch=1 c=64 v=127
27960 Par ch=1 c=64 v=0
28080 Par ch=1 c=64 v=127
28320 Par ch=1 c=64 v=0
28440 Par ch=1 c=64 v=127
28680 Par ch=1 c=64 v=0
29160 Par ch=1 c=64 v=127
29400 Par ch=1 c=64 v=0
29520 Par ch=1 c=64 v=127
29760 Par ch=1 c=64 v=0
29880 Par ch=1 c=64 v=127
30120 Par ch=1 c=64 v=0
30240 Par ch=1 c=64 v=127
30480 Par ch=1 c=64 v=0
30600 Par ch=1 c=64 v=127
30840 Par ch=1 c=64 v=0
30960 Par ch=1 c=64 v=127
31200 Par ch=1 c=64 v=0
31320 Par ch=1 c=64 v=127
31560 Par ch=1 c=64 v=0
32040 Par ch=1 c=64 v=127
32280 Par ch=1 c=64 v=0
32400 Par ch=1 c=64 v=127
32640 Par ch=1 c=64 v=0
32760 Par ch=1 c=64 v=127
33000 Par ch=1 c=64 v=0
33120 Par ch=1 c=64 v=127
33360 Par ch=1 c=64 v=0
33480 Par ch=1 c=64 v=127
33720 Par ch=1 c=64 v=0
33840 Par ch=1 c=64 v=127
34080 Par ch=1 c=64 v=0
34200 Par ch=1 c=64 v=127
34440 Par ch=1 c=64 v=0
34560 Par ch=1 c=64 v=127
34800 Par ch=1 c=64 v=0
34920 Par ch=1 c=64 v=127
35160 Par ch=1 c=64 v=0
35280 Par ch=1 c=64 v=127
35520 Par ch=1 c=64 v=0
35640 Par ch=1 c=64 v=127
35880 Par ch=1 c=64 v=0
36000 Par ch=1 c=64 v=127
36240 Par ch=1 c=64 v=0
36360 Par ch=1 c=64 v=127
36600 Par ch=1 c=64 v=0
36720 Par ch=1 c=64 v=127
36960 Par ch=1 c=64 v=0
37080 Par ch=1 c=64 v=127
37320 Par ch=1 c=64 v=0
37800 Par ch=1 c=64 v=127
38040 Par ch=1 c=64 v=0
38160 Par ch=1 c=64 v=127
38400 Par ch=1 c=64 v=0
38520 Par ch=1 c=64 v=127
38760 Par ch=1 c=64 v=0
38880 Par ch=1 c=64 v=127
39120 Par ch=1 c=64 v=0
39240 Par ch=1 c=64 v=127
39480 Par ch=1 c=64 v=0
39600 Par ch=1 c=64 v=127
39840 Par ch=1 c=64 v=0
39960 Par ch=1 c=64 v=127
40200 Par ch=1 c=64 v=0
40320 Par ch=1 c=64 v=127
40560 Par ch=1 c=64 v=0
40680 Par ch=1 c=64 v=127
40920 Par ch=1 c=64 v=0
41040 Par ch=1 c=64 v=127
41280 Par ch=1 c=64 v=0
41400 Par ch=1 c=64 v=127
41640 Par ch=1 c=64 v=0
41760 Par ch=1 c=64 v=127
42000 Par ch=1 c=64 v=0
42120 Par ch=1 c=64 v=127
42360 Par ch=1 c=64 v=0
42480 Par ch=1 c=64 v=127
42720 Par ch=1 c=64 v=0
42840 Par ch=1 c=64 v=127
43080 Par ch=1 c=64 v=0
43560 Par ch=1 c=64 v=127
43800 Par ch=1 c=64 v=0
43920 Par ch=1 c=64 v=127
44160 Par ch=1 c=64 v=0
44280 Par ch=1 c=64 v=127
44520 Par ch=1 c=64 v=0
44640 Par ch=1 c=64 v=127
44880 Par ch=1 c=64 v=0
45000 Par ch=1 c=64 v=127
45240 Par ch=1 c=64 v=0
45360 Par ch=1 c=64 v=127
45600 Par ch=1 c=64 v=0
45720 Par ch=1 c=64 v=127
45960 Par ch=1 c=64 v=0
46080 Par ch=1 c=64 v=127
46200 Par ch=1 c=64 v=0
46440 Par ch=1 c=64 v=127
47040 Par ch=1 c=64 v=0
47160 Par ch=1 c=64 v=127
47760 Par ch=1 c=64 v=0
47880 Par ch=1 c=64 v=127
48120 Par ch=1 c=64 v=0
48240 Par ch=1 c=64 v=127
48480 Par ch=1 c=64 v=0
48600 Par ch=1 c=64 v=127
48840 Par ch=1 c=64 v=0
48960 Par ch=1 c=64 v=127
49200 Par ch=1 c=64 v=0
49320 Par ch=1 c=64 v=127
49560 Par ch=1 c=64 v=0
49680 Par ch=1 c=64 v=127
49920 Par ch=1 c=64 v=0
50040 Par ch=1 c=64 v=127
50640 Par ch=1 c=64 v=0
50760 Par ch=1 c=64 v=127
51000 Par ch=1 c=64 v=0
51120 Par ch=1 c=64 v=127
51360 Par ch=1 c=64 v=0
51480 Par ch=1 c=64 v=127
51720 Par ch=1 c=64 v=0
52200 Par ch=1 c=64 v=127
52440 Par ch=1 c=64 v=0
52560 Par ch=1 c=64 v=127
52800 Par ch=1 c=64 v=0
52920 Par ch=1 c=64 v=127
53160 Par ch=1 c=64 v=0
53280 Par ch=1 c=64 v=127
53520 Par ch=1 c=64 v=0
53640 Par ch=1 c=64 v=127
53880 Par ch=1 c=64 v=0
54000 Par ch=1 c=64 v=127
54240 Par ch=1 c=64 v=0
54360 Par ch=1 c=64 v=127
54600 Par ch=1 c=64 v=0
54720 Par ch=1 c=64 v=127
54840 Par ch=1 c=64 v=0
55080 Par ch=1 c=64 v=127
55680 Par ch=1 c=64 v=0
55800 Par ch=1 c=64 v=127
56400 Par ch=1 c=64 v=0
56520 Par ch=1 c=64 v=127
56760 Par ch=1 c=64 v=0
56880 Par ch=1 c=64 v=127
57120 Par ch=1 c=64 v=0
57240 Par ch=1 c=64 v=127
57480 Par ch=1 c=64 v=0
57600 Par ch=1 c=64 v=127
57840 Par ch=1 c=64 v=0
57960 Par ch=1 c=64 v=127
58200 Par ch=1 c=64 v=0
58320 Par ch=1 c=64 v=127
58560 Par ch=1 c=64 v=0
58680 Par ch=1 c=64 v=127
59280 Par ch=1 c=64 v=0
59400 Par ch=1 c=64 v=127
59640 Par ch=1 c=64 v=0
59760 Par ch=1 c=64 v=127
60000 Par ch=1 c=64 v=0
60120 Par ch=1 c=64 v=127
60360 Par ch=1 c=64 v=0
60840 Par ch=1 c=64 v=127
61080 Par ch=1 c=64 v=0
61200 Par ch=1 c=64 v=127
61440 Par ch=1 c=64 v=0
61560 Par ch=1 c=64 v=127
61800 Par ch=1 c=64 v=0
61920 Par ch=1 c=64 v=127
62160 Par ch=1 c=64 v=0
62280 Par ch=1 c=64 v=127
62520 Par ch=1 c=64 v=0
62640 Par ch=1 c=64 v=127
62880 Par ch=1 c=64 v=0
63000 Par ch=1 c=64 v=127
63240 Par ch=1 c=64 v=0
63720 Par ch=1 c=64 v=127
63960 Par ch=1 c=64 v=0
64080 Par ch=1 c=64 v=127
64320 Par ch=1 c=64 v=0
64440 Par ch=1 c=64 v=127
64680 Par ch=1 c=64 v=0
64800 Par ch=1 c=64 v=127
65040 Par ch=1 c=64 v=0
65160 Par ch=1 c=64 v=127
65400 Par ch=1 c=64 v=0
65520 Par ch=1 c=64 v=127
65760 Par ch=1 c=64 v=0
65880 Par ch=1 c=64 v=127
66120 Par ch=1 c=64 v=0
66240 Par ch=1 c=64 v=127
66480 Par ch=1 c=64 v=0
66600 Par ch=1 c=64 v=127
67860 Par ch=1 c=64 v=0
68040 Par ch=1 c=64 v=127
68280 Par ch=1 c=64 v=0
68400 Par ch=1 c=64 v=127
68640 Par ch=1 c=64 v=0
70200 Par ch=1 c=64 v=127
71700 Par ch=1 c=64 v=0
72000 Par ch=1 c=64 v=127
72120 Par ch=1 c=64 v=0
72360 Par ch=1 c=64 v=127
72480 Par ch=1 c=64 v=0
72720 Par ch=1 c=64 v=127
72840 Par ch=1 c=64 v=0
73080 Par ch=1 c=64 v=127
73200 Par ch=1 c=64 v=0
73440 Par ch=1 c=64 v=127
73680 Par ch=1 c=64 v=0
73680 Meta TrkEnd
TrkEnd
MTrk
0 Meta 0x21 00
0 Meta TrkName "F. Chopin Valse No. 14 in E- Op. posth."
0 Meta TrkEnd
TrkEnd
MTrk
0 Meta 0x21 00
0 Meta TrkName "Jeruen E. Dery jawjaw@hotmail.com"
0 Meta TrkEnd
TrkEnd
