MFile 1 7 120
MTrk
0 Meta SeqName ""
0 TimeSig 3/4 24 8
0 KeySig -3 major
0 Tempo 340909
37080 Tempo 375000
37200 Tempo 416667
37320 Tempo 454545
37440 Tempo 500000
37440 Meta TrkEnd
TrkEnd
MTrk
0 Meta 0x21 00
0 Meta TrkName "Upper Treble"
0 PrCh ch=1 p=0
300 On ch=1 n=d#5 v=100
330 On ch=1 n=d#5 v=0
360 On ch=1 n=c5 v=100
360 On ch=1 n=c6 v=100
420 On ch=1 n=c6 v=0
420 On ch=1 n=c5 v=0
420 On ch=1 n=d#5 v=101
480 On ch=1 n=d#5 v=0
480 On ch=1 n=c7 v=103
480 On ch=1 n=c6 v=103
540 On ch=1 n=c6 v=0
540 On ch=1 n=c7 v=0
540 On ch=1 n=d#6 v=105
600 On ch=1 n=d#6 v=0
600 On ch=1 n=c8 v=107
600 On ch=1 n=c7 v=107
660 On ch=1 n=c7 v=0
660 On ch=1 n=c8 v=0
660 On ch=1 n=d#7 v=109
720 On ch=1 n=d#7 v=0
720 On ch=1 n=a#7 v=110
720 On ch=1 n=a#6 v=110
780 On ch=1 n=a#6 v=0
780 On ch=1 n=a#7 v=0
780 On ch=1 n=d#7 v=109
840 On ch=1 n=d#7 v=0
840 On ch=1 n=a#6 v=107
840 On ch=1 n=a#5 v=107
900 On ch=1 n=a#5 v=0
900 On ch=1 n=a#6 v=0
900 On ch=1 n=d#6 v=105
960 On ch=1 n=d#6 v=0
960 On ch=1 n=a#4 v=103
960 On ch=1 n=a#5 v=103
1020 On ch=1 n=a#5 v=0
1020 On ch=1 n=a#4 v=0
1020 On ch=1 n=d#5 v=101
1080 On ch=1 n=d#5 v=0
1080 On ch=1 n=f6 v=110
1080 On ch=1 n=g#5 v=100
1140 On ch=1 n=g#5 v=0
1140 On ch=1 n=a#5 v=100
1200 On ch=1 n=a#5 v=0
1200 On ch=1 n=f6 v=0
1200 On ch=1 n=g6 v=110
1200 On ch=1 n=d6 v=100
1200 On ch=1 n=g#5 v=100
1260 On ch=1 n=g#5 v=0
1260 On ch=1 n=d6 v=0
1260 On ch=1 n=g6 v=0
1260 On ch=1 n=f6 v=110
1260 On ch=1 n=a#5 v=100
1320 On ch=1 n=a#5 v=0
1320 On ch=1 n=f6 v=0
1320 On ch=1 n=e6 v=110
1320 On ch=1 n=g#5 v=100
1380 On ch=1 n=g#5 v=0
1380 On ch=1 n=e6 v=0
1380 On ch=1 n=f6 v=110
1380 On ch=1 n=a#5 v=100
1440 On ch=1 n=a#5 v=0
1440 On ch=1 n=f6 v=0
1440 On ch=1 n=g6 v=110
1440 On ch=1 n=d#6 v=100
1500 On ch=1 n=d#6 v=0
1500 On ch=1 n=a#5 v=100
1560 On ch=1 n=a#5 v=0
1560 On ch=1 n=g6 v=0
1560 On ch=1 n=d#6 v=110
1560 On ch=1 n=g5 v=100
1620 On ch=1 n=g5 v=0
1620 On ch=1 n=a#5 v=100
1680 On ch=1 n=a#5 v=0
1680 On ch=1 n=d#6 v=0
1680 On ch=1 n=d#5 v=100
1680 On ch=1 n=d#6 v=110
1710 On ch=1 n=d#6 v=0
1710 On ch=1 n=d#5 v=0
1800 On ch=1 n=c5 v=100
1800 On ch=1 n=c6 v=100
1860 On ch=1 n=c6 v=0
1860 On ch=1 n=c5 v=0
1860 On ch=1 n=d#5 v=101
1920 On ch=1 n=d#5 v=0
1920 On ch=1 n=c7 v=103
1920 On ch=1 n=c6 v=103
1980 On ch=1 n=c6 v=0
1980 On ch=1 n=c7 v=0
1980 On ch=1 n=d#6 v=105
2040 On ch=1 n=d#6 v=0
2040 On ch=1 n=c8 v=107
2040 On ch=1 n=c7 v=107
2100 On ch=1 n=c7 v=0
2100 On ch=1 n=c8 v=0
2100 On ch=1 n=d#7 v=109
2160 On ch=1 n=d#7 v=0
2160 On ch=1 n=a#7 v=110
2160 On ch=1 n=a#6 v=110
2220 On ch=1 n=a#6 v=0
2220 On ch=1 n=a#7 v=0
2220 On ch=1 n=d#7 v=109
2280 On ch=1 n=d#7 v=0
2280 On ch=1 n=a#6 v=107
2280 On ch=1 n=a#5 v=107
2340 On ch=1 n=a#5 v=0
2340 On ch=1 n=a#6 v=0
2340 On ch=1 n=d#6 v=105
2400 On ch=1 n=d#6 v=0
2400 On ch=1 n=a#4 v=103
2400 On ch=1 n=a#5 v=103
2460 On ch=1 n=a#5 v=0
2460 On ch=1 n=a#4 v=0
2460 On ch=1 n=d#5 v=101
2520 On ch=1 n=d#5 v=0
2520 On ch=1 n=f6 v=110
2520 On ch=1 n=g#5 v=100
2580 On ch=1 n=g#5 v=0
2580 On ch=1 n=a#5 v=100
2640 On ch=1 n=a#5 v=0
2640 On ch=1 n=f6 v=0
2640 On ch=1 n=g6 v=110
2640 On ch=1 n=g#5 v=100
2700 On ch=1 n=g#5 v=0
2700 On ch=1 n=g6 v=0
2700 On ch=1 n=f6 v=110
2700 On ch=1 n=a#5 v=100
2760 On ch=1 n=a#5 v=0
2760 On ch=1 n=f6 v=0
2760 On ch=1 n=c6 v=110
2760 On ch=1 n=g#5 v=100
2820 On ch=1 n=g#5 v=0
2820 On ch=1 n=c6 v=0
2820 On ch=1 n=d6 v=110
2820 On ch=1 n=a#5 v=100
2880 On ch=1 n=a#5 v=0
2880 On ch=1 n=d6 v=0
2880 On ch=1 n=g5 v=100
2880 On ch=1 n=d#6 v=110
2940 On ch=1 n=g5 v=0
2940 On ch=1 n=a#5 v=100
3000 On ch=1 n=a#5 v=0
3000 On ch=1 n=d#6 v=0
3000 On ch=1 n=g5 v=100
3060 On ch=1 n=g5 v=0
3060 On ch=1 n=a#5 v=100
3120 On ch=1 n=a#5 v=0
3180 On ch=1 n=d#5 v=100
3210 On ch=1 n=d#5 v=0
3240 On ch=1 n=c5 v=100
3240 On ch=1 n=c6 v=100
3300 On ch=1 n=c6 v=0
3300 On ch=1 n=c5 v=0
3300 On ch=1 n=d#5 v=101
3360 On ch=1 n=d#5 v=0
3360 On ch=1 n=c7 v=103
3360 On ch=1 n=c6 v=103
3420 On ch=1 n=c6 v=0
3420 On ch=1 n=c7 v=0
3420 On ch=1 n=d#6 v=105
3480 On ch=1 n=d#6 v=0
3480 On ch=1 n=c8 v=107
3480 On ch=1 n=c7 v=107
3540 On ch=1 n=c7 v=0
3540 On ch=1 n=c8 v=0
3540 On ch=1 n=d#7 v=109
3600 On ch=1 n=d#7 v=0
3600 On ch=1 n=a#7 v=110
3600 On ch=1 n=a#6 v=110
3660 On ch=1 n=a#6 v=0
3660 On ch=1 n=a#7 v=0
3660 On ch=1 n=d#7 v=109
3720 On ch=1 n=d#7 v=0
3720 On ch=1 n=a#6 v=107
3720 On ch=1 n=a#5 v=107
3780 On ch=1 n=a#5 v=0
3780 On ch=1 n=a#6 v=0
3780 On ch=1 n=d#6 v=105
3840 On ch=1 n=d#6 v=0
3840 On ch=1 n=a#4 v=103
3840 On ch=1 n=a#5 v=103
3900 On ch=1 n=a#5 v=0
3900 On ch=1 n=a#4 v=0
3900 On ch=1 n=d#5 v=101
3960 On ch=1 n=d#5 v=0
3960 On ch=1 n=f6 v=110
3960 On ch=1 n=g#5 v=100
4020 On ch=1 n=g#5 v=0
4020 On ch=1 n=a#5 v=100
4080 On ch=1 n=a#5 v=0
4080 On ch=1 n=f6 v=0
4080 On ch=1 n=g6 v=110
4080 On ch=1 n=d6 v=100
4080 On ch=1 n=g#5 v=100
4140 On ch=1 n=g#5 v=0
4140 On ch=1 n=d6 v=0
4140 On ch=1 n=g6 v=0
4140 On ch=1 n=f6 v=110
4140 On ch=1 n=a#5 v=100
4200 On ch=1 n=a#5 v=0
4200 On ch=1 n=f6 v=0
4200 On ch=1 n=e6 v=110
4200 On ch=1 n=g#5 v=100
4260 On ch=1 n=g#5 v=0
4260 On ch=1 n=e6 v=0
4260 On ch=1 n=f6 v=110
4260 On ch=1 n=a#5 v=100
4320 On ch=1 n=a#5 v=0
4320 On ch=1 n=f6 v=0
4320 On ch=1 n=g6 v=110
4320 On ch=1 n=d#6 v=100
4380 On ch=1 n=d#6 v=0
4380 On ch=1 n=a#5 v=100
4440 On ch=1 n=a#5 v=0
4440 On ch=1 n=g6 v=0
4440 On ch=1 n=d#6 v=110
4440 On ch=1 n=g5 v=100
4500 On ch=1 n=g5 v=0
4500 On ch=1 n=a#5 v=100
4560 On ch=1 n=a#5 v=0
4560 On ch=1 n=d#6 v=0
4560 On ch=1 n=d#5 v=100
4560 On ch=1 n=d#6 v=110
4590 On ch=1 n=d#6 v=0
4590 On ch=1 n=d#5 v=0
4680 On ch=1 n=c5 v=100
4680 On ch=1 n=c6 v=100
4740 On ch=1 n=c6 v=0
4740 On ch=1 n=c5 v=0
4740 On ch=1 n=d#5 v=101
4800 On ch=1 n=d#5 v=0
4800 On ch=1 n=c7 v=103
4800 On ch=1 n=c6 v=103
4860 On ch=1 n=c6 v=0
4860 On ch=1 n=c7 v=0
4860 On ch=1 n=d#6 v=105
4920 On ch=1 n=d#6 v=0
4920 On ch=1 n=c8 v=107
4920 On ch=1 n=c7 v=107
4980 On ch=1 n=c7 v=0
4980 On ch=1 n=c8 v=0
4980 On ch=1 n=d#7 v=109
5040 On ch=1 n=d#7 v=0
5040 On ch=1 n=a#7 v=110
5040 On ch=1 n=a#6 v=110
5100 On ch=1 n=a#6 v=0
5100 On ch=1 n=a#7 v=0
5100 On ch=1 n=d#7 v=109
5160 On ch=1 n=d#7 v=0
5160 On ch=1 n=a#6 v=107
5160 On ch=1 n=a#5 v=107
5220 On ch=1 n=a#5 v=0
5220 On ch=1 n=a#6 v=0
5220 On ch=1 n=d#6 v=105
5280 On ch=1 n=d#6 v=0
5280 On ch=1 n=a#4 v=103
5280 On ch=1 n=a#5 v=103
5340 On ch=1 n=a#5 v=0
5340 On ch=1 n=a#4 v=0
5340 On ch=1 n=d#5 v=101
5400 On ch=1 n=d#5 v=0
5400 On ch=1 n=f6 v=110
5400 On ch=1 n=g#5 v=100
5460 On ch=1 n=g#5 v=0
5460 On ch=1 n=a#5 v=100
5520 On ch=1 n=a#5 v=0
5520 On ch=1 n=f6 v=0
5520 On ch=1 n=g6 v=110
5520 On ch=1 n=g#5 v=100
5580 On ch=1 n=g#5 v=0
5580 On ch=1 n=g6 v=0
5580 On ch=1 n=f6 v=110
5580 On ch=1 n=a#5 v=100
5640 On ch=1 n=a#5 v=0
5640 On ch=1 n=f6 v=0
5640 On ch=1 n=c6 v=110
5640 On ch=1 n=g#5 v=100
5700 On ch=1 n=g#5 v=0
5700 On ch=1 n=c6 v=0
5700 On ch=1 n=d6 v=110
5700 On ch=1 n=a#5 v=100
5760 On ch=1 n=a#5 v=0
5760 On ch=1 n=d6 v=0
5760 On ch=1 n=g5 v=100
5760 On ch=1 n=d#6 v=110
5820 On ch=1 n=g5 v=0
5820 On ch=1 n=a#5 v=100
5880 On ch=1 n=a#5 v=0
5880 On ch=1 n=g5 v=100
5940 On ch=1 n=g5 v=0
5940 On ch=1 n=a#5 v=100
6000 On ch=1 n=a#5 v=0
6000 On ch=1 n=d#6 v=0
6000 On ch=1 n=g5 v=100
6000 On ch=1 n=d#6 v=110
6060 On ch=1 n=g5 v=0
6060 On ch=1 n=a#5 v=100
6120 On ch=1 n=a#5 v=0
6120 On ch=1 n=d#6 v=0
6120 On ch=1 n=g6 v=110
6120 On ch=1 n=g#5 v=100
6180 On ch=1 n=g#5 v=0
6180 On ch=1 n=g6 v=0
6180 On ch=1 n=f6 v=110
6180 On ch=1 n=a#5 v=100
6225 On ch=1 n=f6 v=110
6240 On ch=1 n=f6 v=0
6240 On ch=1 n=a#5 v=0
6240 On ch=1 n=f6 v=0
6240 On ch=1 n=d#6 v=110
6240 On ch=1 n=g#5 v=100
6300 On ch=1 n=g#5 v=0
6300 On ch=1 n=d#6 v=0
6300 On ch=1 n=d6 v=110
6300 On ch=1 n=a#5 v=100
6345 On ch=1 n=d6 v=110
6360 On ch=1 n=d6 v=0
6360 On ch=1 n=a#5 v=0
6360 On ch=1 n=d6 v=0
6360 On ch=1 n=c6 v=110
6360 On ch=1 n=g#5 v=100
6420 On ch=1 n=g#5 v=0
6420 On ch=1 n=c6 v=0
6420 On ch=1 n=a#5 v=110
6480 On ch=1 n=a#5 v=0
6480 On ch=1 n=a#6 v=110
6540 On ch=1 n=a#5 v=100
6600 On ch=1 n=a#5 v=0
6600 On ch=1 n=a#6 v=0
6600 On ch=1 n=g5 v=100
6600 On ch=1 n=d#6 v=110
6660 On ch=1 n=g5 v=0
6660 On ch=1 n=a#5 v=100
6720 On ch=1 n=a#5 v=0
6720 On ch=1 n=d#6 v=0
6720 On ch=1 n=g5 v=100
6720 On ch=1 n=d#6 v=110
6780 On ch=1 n=g5 v=0
6780 On ch=1 n=a#5 v=100
6810 On ch=1 n=d#6 v=0
6810 On ch=1 n=f6 v=110
6840 On ch=1 n=f6 v=0
6840 On ch=1 n=a#5 v=0
6840 On ch=1 n=f6 v=110
6840 On ch=1 n=g#5 v=100
6900 On ch=1 n=g#5 v=0
6900 On ch=1 n=a#5 v=100
6960 On ch=1 n=a#5 v=0
6960 On ch=1 n=f6 v=0
6960 On ch=1 n=d6 v=110
6960 On ch=1 n=g#5 v=100
7020 On ch=1 n=g#5 v=0
7020 On ch=1 n=a#5 v=100
7080 On ch=1 n=a#5 v=0
7080 On ch=1 n=d6 v=0
7080 On ch=1 n=d6 v=110
7080 On ch=1 n=g#5 v=100
7140 On ch=1 n=g#5 v=0
7140 On ch=1 n=a#5 v=100
7170 On ch=1 n=d6 v=0
7170 On ch=1 n=f6 v=110
7200 On ch=1 n=f6 v=0
7200 On ch=1 n=a#5 v=0
7200 On ch=1 n=g5 v=100
7200 On ch=1 n=d#6 v=110
7260 On ch=1 n=g5 v=0
7260 On ch=1 n=a#5 v=100
7320 On ch=1 n=a#5 v=0
7320 On ch=1 n=d#6 v=0
7320 On ch=1 n=d#7 v=100
7380 On ch=1 n=d#7 v=0
7380 On ch=1 n=a#5 v=100
7440 On ch=1 n=a#5 v=0
7440 On ch=1 n=d#8 v=100
7500 On ch=1 n=d#8 v=0
7500 On ch=1 n=a#6 v=100
7560 On ch=1 n=a#6 v=0
7560 On ch=1 n=g6 v=110
7560 On ch=1 n=g#5 v=100
7620 On ch=1 n=g#5 v=0
7620 On ch=1 n=g6 v=0
7620 On ch=1 n=f6 v=110
7620 On ch=1 n=a#5 v=100
7665 On ch=1 n=f6 v=110
7680 On ch=1 n=f6 v=0
7680 On ch=1 n=a#5 v=0
7680 On ch=1 n=f6 v=0
7680 On ch=1 n=d#6 v=110
7680 On ch=1 n=g#5 v=100
7740 On ch=1 n=g#5 v=0
7740 On ch=1 n=d#6 v=0
7740 On ch=1 n=d6 v=110
7740 On ch=1 n=a#5 v=100
7785 On ch=1 n=d6 v=110
7800 On ch=1 n=d6 v=0
7800 On ch=1 n=a#5 v=0
7800 On ch=1 n=d6 v=0
7800 On ch=1 n=c6 v=110
7800 On ch=1 n=g#5 v=100
7860 On ch=1 n=g#5 v=0
7860 On ch=1 n=c6 v=0
7860 On ch=1 n=a#5 v=110
7920 On ch=1 n=a#5 v=0
7920 On ch=1 n=a#6 v=110
7980 On ch=1 n=a#5 v=100
8040 On ch=1 n=a#5 v=0
8040 On ch=1 n=a#6 v=0
8040 On ch=1 n=g5 v=100
8040 On ch=1 n=d#6 v=110
8100 On ch=1 n=g5 v=0
8100 On ch=1 n=a#5 v=100
8160 On ch=1 n=a#5 v=0
8160 On ch=1 n=d#6 v=0
8160 On ch=1 n=g5 v=100
8160 On ch=1 n=d#6 v=110
8220 On ch=1 n=g5 v=0
8220 On ch=1 n=a#5 v=100
8250 On ch=1 n=d#6 v=0
8250 On ch=1 n=f6 v=110
8280 On ch=1 n=f6 v=0
8280 On ch=1 n=a#5 v=0
8280 On ch=1 n=f6 v=110
8280 On ch=1 n=g#5 v=100
8340 On ch=1 n=g#5 v=0
8340 On ch=1 n=a#5 v=100
8400 On ch=1 n=a#5 v=0
8400 On ch=1 n=f6 v=0
8400 On ch=1 n=d6 v=110
8400 On ch=1 n=g#5 v=100
8460 On ch=1 n=g#5 v=0
8460 On ch=1 n=a#5 v=100
8520 On ch=1 n=a#5 v=0
8520 On ch=1 n=d6 v=0
8520 On ch=1 n=d6 v=110
8520 On ch=1 n=g#5 v=100
8580 On ch=1 n=g#5 v=0
8580 On ch=1 n=a#5 v=100
8610 On ch=1 n=d6 v=0
8610 On ch=1 n=f6 v=110
8640 On ch=1 n=f6 v=0
8640 On ch=1 n=a#5 v=0
8640 On ch=1 n=g5 v=100
8640 On ch=1 n=d#6 v=110
8700 On ch=1 n=g5 v=0
8700 On ch=1 n=a#5 v=100
8760 On ch=1 n=a#5 v=0
8760 On ch=1 n=g5 v=100
8820 On ch=1 n=g5 v=0
8820 On ch=1 n=a#5 v=100
8880 On ch=1 n=a#5 v=0
8880 On ch=1 n=d#6 v=0
8880 On ch=1 n=g5 v=100
8880 On ch=1 n=d#6 v=110
8940 On ch=1 n=g5 v=0
8940 On ch=1 n=a#5 v=100
9000 On ch=1 n=a#5 v=0
9000 On ch=1 n=d#6 v=0
9000 On ch=1 n=g6 v=110
9000 On ch=1 n=g#5 v=100
9060 On ch=1 n=g#5 v=0
9060 On ch=1 n=g6 v=0
9060 On ch=1 n=f6 v=110
9060 On ch=1 n=a#5 v=100
9105 On ch=1 n=f6 v=110
9120 On ch=1 n=f6 v=0
9120 On ch=1 n=a#5 v=0
9120 On ch=1 n=f6 v=0
9120 On ch=1 n=d#6 v=110
9120 On ch=1 n=g#5 v=100
9180 On ch=1 n=g#5 v=0
9180 On ch=1 n=d#6 v=0
9180 On ch=1 n=d6 v=110
9180 On ch=1 n=a#5 v=100
9225 On ch=1 n=d6 v=110
9240 On ch=1 n=d6 v=0
9240 On ch=1 n=a#5 v=0
9240 On ch=1 n=d6 v=0
9240 On ch=1 n=c6 v=110
9240 On ch=1 n=g#5 v=100
9300 On ch=1 n=g#5 v=0
9300 On ch=1 n=c6 v=0
9300 On ch=1 n=a#5 v=110
9360 On ch=1 n=a#5 v=0
9360 On ch=1 n=a#6 v=110
9420 On ch=1 n=a#5 v=100
9480 On ch=1 n=a#5 v=0
9480 On ch=1 n=a#6 v=0
9480 On ch=1 n=g5 v=100
9480 On ch=1 n=d#6 v=110
9540 On ch=1 n=g5 v=0
9540 On ch=1 n=a#5 v=100
9600 On ch=1 n=a#5 v=0
9600 On ch=1 n=d#6 v=0
9600 On ch=1 n=g5 v=100
9600 On ch=1 n=d#6 v=110
9660 On ch=1 n=g5 v=0
9660 On ch=1 n=a#5 v=100
9690 On ch=1 n=d#6 v=0
9690 On ch=1 n=f6 v=110
9720 On ch=1 n=f6 v=0
9720 On ch=1 n=a#5 v=0
9720 On ch=1 n=f6 v=110
9720 On ch=1 n=g#5 v=100
9780 On ch=1 n=g#5 v=0
9780 On ch=1 n=a#5 v=100
9840 On ch=1 n=a#5 v=0
9840 On ch=1 n=f6 v=0
9840 On ch=1 n=d6 v=110
9840 On ch=1 n=g#5 v=100
9900 On ch=1 n=g#5 v=0
9900 On ch=1 n=a#5 v=100
9960 On ch=1 n=a#5 v=0
9960 On ch=1 n=d6 v=0
9960 On ch=1 n=d6 v=110
9960 On ch=1 n=g#5 v=100
10020 On ch=1 n=g#5 v=0
10020 On ch=1 n=a#5 v=100
10050 On ch=1 n=d6 v=0
10050 On ch=1 n=f6 v=110
10080 On ch=1 n=f6 v=0
10080 On ch=1 n=a#5 v=0
10080 On ch=1 n=g5 v=100
10080 On ch=1 n=d#6 v=110
10140 On ch=1 n=g5 v=0
10140 On ch=1 n=a#5 v=100
10200 On ch=1 n=a#5 v=0
10200 On ch=1 n=d#6 v=0
10200 On ch=1 n=d#7 v=100
10260 On ch=1 n=d#7 v=0
10260 On ch=1 n=a#5 v=100
10320 On ch=1 n=a#5 v=0
10320 On ch=1 n=d#8 v=100
10380 On ch=1 n=d#8 v=0
10380 On ch=1 n=a#6 v=100
10440 On ch=1 n=a#6 v=0
10440 On ch=1 n=g6 v=110
10440 On ch=1 n=g#5 v=100
10500 On ch=1 n=g#5 v=0
10500 On ch=1 n=g6 v=0
10500 On ch=1 n=f6 v=110
10500 On ch=1 n=a#5 v=100
10545 On ch=1 n=f6 v=110
10560 On ch=1 n=f6 v=0
10560 On ch=1 n=a#5 v=0
10560 On ch=1 n=f6 v=0
10560 On ch=1 n=d#6 v=110
10560 On ch=1 n=g#5 v=100
10620 On ch=1 n=g#5 v=0
10620 On ch=1 n=d#6 v=0
10620 On ch=1 n=d6 v=110
10620 On ch=1 n=a#5 v=100
10665 On ch=1 n=d6 v=110
10680 On ch=1 n=d6 v=0
10680 On ch=1 n=a#5 v=0
10680 On ch=1 n=d6 v=0
10680 On ch=1 n=c6 v=110
10680 On ch=1 n=g#5 v=100
10740 On ch=1 n=g#5 v=0
10740 On ch=1 n=c6 v=0
10740 On ch=1 n=a#5 v=110
10800 On ch=1 n=a#5 v=0
10800 On ch=1 n=a#6 v=110
10860 On ch=1 n=a#5 v=100
10920 On ch=1 n=a#5 v=0
10920 On ch=1 n=a#6 v=0
10920 On ch=1 n=g5 v=100
10920 On ch=1 n=d#6 v=110
10980 On ch=1 n=g5 v=0
10980 On ch=1 n=a#5 v=100
11040 On ch=1 n=a#5 v=0
11040 On ch=1 n=d#6 v=0
11040 On ch=1 n=g5 v=100
11040 On ch=1 n=d#6 v=110
11100 On ch=1 n=g5 v=0
11100 On ch=1 n=a#5 v=100
11130 On ch=1 n=d#6 v=0
11130 On ch=1 n=f6 v=110
11160 On ch=1 n=f6 v=0
11160 On ch=1 n=a#5 v=0
11160 On ch=1 n=f6 v=110
11160 On ch=1 n=g#5 v=100
11220 On ch=1 n=g#5 v=0
11220 On ch=1 n=a#5 v=100
11280 On ch=1 n=a#5 v=0
11280 On ch=1 n=f6 v=0
11280 On ch=1 n=d6 v=110
11280 On ch=1 n=g#5 v=100
11340 On ch=1 n=g#5 v=0
11340 On ch=1 n=a#5 v=100
11400 On ch=1 n=a#5 v=0
11400 On ch=1 n=d6 v=0
11400 On ch=1 n=d6 v=110
11400 On ch=1 n=g#5 v=100
11460 On ch=1 n=g#5 v=0
11460 On ch=1 n=a#5 v=100
11490 On ch=1 n=d6 v=0
11490 On ch=1 n=f6 v=110
11520 On ch=1 n=f6 v=0
11520 On ch=1 n=a#5 v=0
11520 On ch=1 n=g5 v=100
11520 On ch=1 n=d#6 v=110
11580 On ch=1 n=g5 v=0
11580 On ch=1 n=a#5 v=100
11640 On ch=1 n=a#5 v=0
11640 On ch=1 n=d#6 v=0
11640 On ch=1 n=g5 v=100
11700 On ch=1 n=g5 v=0
11700 On ch=1 n=a#5 v=100
11760 On ch=1 n=a#5 v=0
11760 On ch=1 n=d#5 v=100
11760 On ch=1 n=d#6 v=110
11790 On ch=1 n=d#6 v=0
11790 On ch=1 n=d#5 v=0
11880 On ch=1 n=c5 v=100
11880 On ch=1 n=c6 v=100
11940 On ch=1 n=c6 v=0
11940 On ch=1 n=c5 v=0
11940 On ch=1 n=d#5 v=101
12000 On ch=1 n=d#5 v=0
12000 On ch=1 n=c7 v=103
12000 On ch=1 n=c6 v=103
12060 On ch=1 n=c6 v=0
12060 On ch=1 n=c7 v=0
12060 On ch=1 n=d#6 v=105
12120 On ch=1 n=d#6 v=0
12120 On ch=1 n=c8 v=107
12120 On ch=1 n=c7 v=107
12180 On ch=1 n=c7 v=0
12180 On ch=1 n=c8 v=0
12180 On ch=1 n=d#7 v=109
12240 On ch=1 n=d#7 v=0
12240 On ch=1 n=a#7 v=110
12240 On ch=1 n=a#6 v=110
12300 On ch=1 n=a#6 v=0
12300 On ch=1 n=a#7 v=0
12300 On ch=1 n=d#7 v=109
12360 On ch=1 n=d#7 v=0
12360 On ch=1 n=a#6 v=107
12360 On ch=1 n=a#5 v=107
12420 On ch=1 n=a#5 v=0
12420 On ch=1 n=a#6 v=0
12420 On ch=1 n=d#6 v=105
12480 On ch=1 n=d#6 v=0
12480 On ch=1 n=a#4 v=103
12480 On ch=1 n=a#5 v=103
12540 On ch=1 n=a#5 v=0
12540 On ch=1 n=a#4 v=0
12540 On ch=1 n=d#5 v=101
12600 On ch=1 n=d#5 v=0
12600 On ch=1 n=f6 v=110
12600 On ch=1 n=g#5 v=100
12660 On ch=1 n=g#5 v=0
12660 On ch=1 n=a#5 v=100
12720 On ch=1 n=a#5 v=0
12720 On ch=1 n=f6 v=0
12720 On ch=1 n=g6 v=110
12720 On ch=1 n=d6 v=100
12720 On ch=1 n=g#5 v=100
12780 On ch=1 n=g#5 v=0
12780 On ch=1 n=d6 v=0
12780 On ch=1 n=g6 v=0
12780 On ch=1 n=f6 v=110
12780 On ch=1 n=a#5 v=100
12840 On ch=1 n=a#5 v=0
12840 On ch=1 n=f6 v=0
12840 On ch=1 n=e6 v=110
12840 On ch=1 n=g#5 v=100
12900 On ch=1 n=g#5 v=0
12900 On ch=1 n=e6 v=0
12900 On ch=1 n=f6 v=110
12900 On ch=1 n=a#5 v=100
12960 On ch=1 n=a#5 v=0
12960 On ch=1 n=f6 v=0
12960 On ch=1 n=g6 v=110
12960 On ch=1 n=d#6 v=100
13020 On ch=1 n=d#6 v=0
13020 On ch=1 n=a#5 v=100
13080 On ch=1 n=a#5 v=0
13080 On ch=1 n=g6 v=0
13080 On ch=1 n=d#6 v=110
13080 On ch=1 n=g5 v=100
13140 On ch=1 n=g5 v=0
13140 On ch=1 n=a#5 v=100
13200 On ch=1 n=a#5 v=0
13200 On ch=1 n=d#6 v=0
13200 On ch=1 n=d#5 v=100
13200 On ch=1 n=d#6 v=110
13230 On ch=1 n=d#6 v=0
13230 On ch=1 n=d#5 v=0
13320 On ch=1 n=c5 v=100
13320 On ch=1 n=c6 v=100
13380 On ch=1 n=c6 v=0
13380 On ch=1 n=c5 v=0
13380 On ch=1 n=d#5 v=101
13440 On ch=1 n=d#5 v=0
13440 On ch=1 n=c7 v=103
13440 On ch=1 n=c6 v=103
13500 On ch=1 n=c6 v=0
13500 On ch=1 n=c7 v=0
13500 On ch=1 n=d#6 v=105
13560 On ch=1 n=d#6 v=0
13560 On ch=1 n=c8 v=107
13560 On ch=1 n=c7 v=107
13620 On ch=1 n=c7 v=0
13620 On ch=1 n=c8 v=0
13620 On ch=1 n=d#7 v=109
13680 On ch=1 n=d#7 v=0
13680 On ch=1 n=a#7 v=110
13680 On ch=1 n=a#6 v=110
13740 On ch=1 n=a#6 v=0
13740 On ch=1 n=a#7 v=0
13740 On ch=1 n=d#7 v=109
13800 On ch=1 n=d#7 v=0
13800 On ch=1 n=a#6 v=107
13800 On ch=1 n=a#5 v=107
13860 On ch=1 n=a#5 v=0
13860 On ch=1 n=a#6 v=0
13860 On ch=1 n=d#6 v=105
13920 On ch=1 n=d#6 v=0
13920 On ch=1 n=a#4 v=103
13920 On ch=1 n=a#5 v=103
13980 On ch=1 n=a#5 v=0
13980 On ch=1 n=a#4 v=0
13980 On ch=1 n=d#5 v=101
14040 On ch=1 n=d#5 v=0
14040 On ch=1 n=f6 v=110
14040 On ch=1 n=g#5 v=100
14100 On ch=1 n=g#5 v=0
14100 On ch=1 n=a#5 v=100
14160 On ch=1 n=a#5 v=0
14160 On ch=1 n=f6 v=0
14160 On ch=1 n=g6 v=110
14160 On ch=1 n=g#5 v=100
14220 On ch=1 n=g#5 v=0
14220 On ch=1 n=g6 v=0
14220 On ch=1 n=f6 v=110
14220 On ch=1 n=a#5 v=100
14280 On ch=1 n=a#5 v=0
14280 On ch=1 n=f6 v=0
14280 On ch=1 n=c6 v=110
14280 On ch=1 n=g#5 v=100
14340 On ch=1 n=g#5 v=0
14340 On ch=1 n=c6 v=0
14340 On ch=1 n=d6 v=110
14340 On ch=1 n=a#5 v=100
14400 On ch=1 n=a#5 v=0
14400 On ch=1 n=d6 v=0
14400 On ch=1 n=g5 v=100
14400 On ch=1 n=d#6 v=110
14460 On ch=1 n=g5 v=0
14460 On ch=1 n=a#5 v=100
14520 On ch=1 n=a#5 v=0
14520 On ch=1 n=d#6 v=0
14520 On ch=1 n=g5 v=100
14580 On ch=1 n=g5 v=0
14580 On ch=1 n=a#5 v=100
14640 On ch=1 n=a#5 v=0
15240 On ch=1 n=g5 v=100
15240 On ch=1 n=c6 v=100
15240 On ch=1 n=d#6 v=100
15240 On ch=1 n=g6 v=100
15270 On ch=1 n=g6 v=0
15270 On ch=1 n=g5 v=0
15270 On ch=1 n=c6 v=0
15270 On ch=1 n=d#6 v=0
15360 On ch=1 n=g6 v=100
15360 On ch=1 n=d6 v=100
15360 On ch=1 n=b5 v=100
15360 On ch=1 n=g5 v=100
15390 On ch=1 n=g5 v=0
15390 On ch=1 n=g6 v=0
15390 On ch=1 n=d6 v=0
15390 On ch=1 n=b5 v=0
15960 On ch=1 n=g5 v=100
15960 On ch=1 n=c6 v=100
15960 On ch=1 n=d#6 v=100
15960 On ch=1 n=g6 v=100
15990 On ch=1 n=g6 v=0
15990 On ch=1 n=g5 v=0
15990 On ch=1 n=c6 v=0
15990 On ch=1 n=d#6 v=0
16080 On ch=1 n=g6 v=100
16080 On ch=1 n=d6 v=100
16080 On ch=1 n=b5 v=100
16080 On ch=1 n=g5 v=100
16110 On ch=1 n=g5 v=0
16110 On ch=1 n=g6 v=0
16110 On ch=1 n=d6 v=0
16110 On ch=1 n=b5 v=0
16185 On ch=1 n=g6 v=60
16200 On ch=1 n=g6 v=0
16200 On ch=1 n=g7 v=60
16200 On ch=1 n=d#7 v=60
16290 On ch=1 n=d#7 v=0
16290 On ch=1 n=g7 v=0
16290 On ch=1 n=f7 v=60
16290 On ch=1 n=d7 v=60
16320 On ch=1 n=d7 v=0
16320 On ch=1 n=f7 v=0
16320 On ch=1 n=f7 v=60
16320 On ch=1 n=d7 v=60
16380 On ch=1 n=d7 v=0
16380 On ch=1 n=f7 v=0
16380 On ch=1 n=d#7 v=60
16380 On ch=1 n=c7 v=60
16440 On ch=1 n=c7 v=0
16440 On ch=1 n=d#7 v=0
16440 On ch=1 n=d7 v=60
16440 On ch=1 n=a#6 v=60
16500 On ch=1 n=a#6 v=0
16500 On ch=1 n=d7 v=0
16500 On ch=1 n=c7 v=60
16500 On ch=1 n=g#6 v=60
16560 On ch=1 n=g#6 v=0
16560 On ch=1 n=c7 v=0
16560 On ch=1 n=c7 v=60
16560 On ch=1 n=g#6 v=60
16650 On ch=1 n=g#6 v=0
16650 On ch=1 n=c7 v=0
16650 On ch=1 n=a#6 v=60
16650 On ch=1 n=g6 v=60
16680 On ch=1 n=g6 v=0
16680 On ch=1 n=a#6 v=0
16680 On ch=1 n=a#6 v=60
16680 On ch=1 n=g6 v=60
16740 On ch=1 n=g6 v=0
16740 On ch=1 n=a#6 v=0
16740 On ch=1 n=a6 v=60
16740 On ch=1 n=f#6 v=60
16800 On ch=1 n=f#6 v=0
16800 On ch=1 n=a6 v=0
16800 On ch=1 n=g#6 v=60
16800 On ch=1 n=f6 v=60
16860 On ch=1 n=f6 v=0
16860 On ch=1 n=g#6 v=0
16860 On ch=1 n=g6 v=60
16860 On ch=1 n=d#6 v=60
16920 On ch=1 n=d#6 v=0
16920 On ch=1 n=g6 v=0
16920 On ch=1 n=g6 v=60
16920 On ch=1 n=d#6 v=60
17010 On ch=1 n=d#6 v=0
17010 On ch=1 n=g6 v=0
17010 On ch=1 n=f6 v=60
17010 On ch=1 n=d6 v=60
17040 On ch=1 n=d6 v=0
17040 On ch=1 n=f6 v=0
17040 On ch=1 n=f6 v=60
17040 On ch=1 n=d6 v=60
17100 On ch=1 n=d6 v=0
17100 On ch=1 n=f6 v=0
17100 On ch=1 n=c7 v=60
17100 On ch=1 n=g#6 v=60
17160 On ch=1 n=g#6 v=0
17160 On ch=1 n=c7 v=0
17160 On ch=1 n=a#6 v=60
17160 On ch=1 n=g6 v=60
17220 On ch=1 n=g6 v=0
17220 On ch=1 n=a#6 v=0
17220 On ch=1 n=g#6 v=60
17220 On ch=1 n=f6 v=60
17280 On ch=1 n=f6 v=0
17280 On ch=1 n=g#6 v=0
17280 On ch=1 n=g6 v=60
17280 On ch=1 n=d#6 v=60
17310 On ch=1 n=d#6 v=0
17310 On ch=1 n=g6 v=0
17400 On ch=1 n=g5 v=60
17400 On ch=1 n=a#5 v=60
17400 On ch=1 n=d#6 v=60
17400 On ch=1 n=g6 v=60
17430 On ch=1 n=g6 v=0
17430 On ch=1 n=g5 v=0
17430 On ch=1 n=a#5 v=0
17430 On ch=1 n=d#6 v=0
17520 On ch=1 n=g6 v=60
17520 On ch=1 n=f6 v=60
17520 On ch=1 n=b5 v=60
17520 On ch=1 n=g5 v=60
17550 On ch=1 n=g5 v=0
17550 On ch=1 n=g6 v=0
17550 On ch=1 n=f6 v=0
17550 On ch=1 n=b5 v=0
18120 On ch=1 n=g5 v=100
18120 On ch=1 n=c6 v=100
18120 On ch=1 n=d#6 v=100
18120 On ch=1 n=g6 v=100
18150 On ch=1 n=g6 v=0
18150 On ch=1 n=g5 v=0
18150 On ch=1 n=c6 v=0
18150 On ch=1 n=d#6 v=0
18240 On ch=1 n=g6 v=100
18240 On ch=1 n=d6 v=100
18240 On ch=1 n=b5 v=100
18240 On ch=1 n=g5 v=100
18270 On ch=1 n=g5 v=0
18270 On ch=1 n=g6 v=0
18270 On ch=1 n=d6 v=0
18270 On ch=1 n=b5 v=0
18840 On ch=1 n=g5 v=100
18840 On ch=1 n=c6 v=100
18840 On ch=1 n=d#6 v=100
18840 On ch=1 n=g6 v=100
18870 On ch=1 n=g6 v=0
18870 On ch=1 n=g5 v=0
18870 On ch=1 n=c6 v=0
18870 On ch=1 n=d#6 v=0
18960 On ch=1 n=g6 v=100
18960 On ch=1 n=d6 v=100
18960 On ch=1 n=b5 v=100
18960 On ch=1 n=g5 v=100
18990 On ch=1 n=g5 v=0
18990 On ch=1 n=g6 v=0
18990 On ch=1 n=d6 v=0
18990 On ch=1 n=b5 v=0
19065 On ch=1 n=g6 v=60
19080 On ch=1 n=g6 v=0
19080 On ch=1 n=g7 v=60
19080 On ch=1 n=d#7 v=60
19170 On ch=1 n=d#7 v=0
19170 On ch=1 n=g7 v=0
19170 On ch=1 n=f7 v=60
19170 On ch=1 n=d7 v=60
19200 On ch=1 n=d7 v=0
19200 On ch=1 n=f7 v=0
19200 On ch=1 n=f7 v=60
19200 On ch=1 n=d7 v=60
19260 On ch=1 n=d7 v=0
19260 On ch=1 n=f7 v=0
19260 On ch=1 n=d#7 v=60
19260 On ch=1 n=c7 v=60
19320 On ch=1 n=c7 v=0
19320 On ch=1 n=d#7 v=0
19320 On ch=1 n=d7 v=60
19320 On ch=1 n=a#6 v=60
19380 On ch=1 n=a#6 v=0
19380 On ch=1 n=d7 v=0
19380 On ch=1 n=c7 v=60
19380 On ch=1 n=g#6 v=60
19440 On ch=1 n=g#6 v=0
19440 On ch=1 n=c7 v=0
19440 On ch=1 n=c7 v=60
19440 On ch=1 n=g#6 v=60
19530 On ch=1 n=g#6 v=0
19530 On ch=1 n=c7 v=0
19530 On ch=1 n=a#6 v=60
19530 On ch=1 n=g6 v=60
19560 On ch=1 n=g6 v=0
19560 On ch=1 n=a#6 v=0
19560 On ch=1 n=a#6 v=60
19560 On ch=1 n=g6 v=60
19620 On ch=1 n=g6 v=0
19620 On ch=1 n=a#6 v=0
19620 On ch=1 n=a6 v=60
19620 On ch=1 n=f#6 v=60
19680 On ch=1 n=f#6 v=0
19680 On ch=1 n=a6 v=0
19680 On ch=1 n=g#6 v=60
19680 On ch=1 n=f6 v=60
19740 On ch=1 n=f6 v=0
19740 On ch=1 n=g#6 v=0
19740 On ch=1 n=g6 v=60
19740 On ch=1 n=d#6 v=60
19800 On ch=1 n=d#6 v=0
19800 On ch=1 n=g6 v=0
19800 On ch=1 n=g6 v=60
19800 On ch=1 n=d#6 v=60
19890 On ch=1 n=d#6 v=0
19890 On ch=1 n=g6 v=0
19890 On ch=1 n=f6 v=60
19890 On ch=1 n=d6 v=60
19920 On ch=1 n=d6 v=0
19920 On ch=1 n=f6 v=0
19920 On ch=1 n=f6 v=60
19920 On ch=1 n=d6 v=60
19980 On ch=1 n=d6 v=0
19980 On ch=1 n=f6 v=0
19980 On ch=1 n=c7 v=60
19980 On ch=1 n=g#6 v=60
20040 On ch=1 n=g#6 v=0
20040 On ch=1 n=c7 v=0
20040 On ch=1 n=a#6 v=60
20040 On ch=1 n=g6 v=60
20100 On ch=1 n=g6 v=0
20100 On ch=1 n=a#6 v=0
20100 On ch=1 n=g#6 v=60
20100 On ch=1 n=f6 v=60
20160 On ch=1 n=f6 v=0
20160 On ch=1 n=g#6 v=0
20160 On ch=1 n=g5 v=60
20160 On ch=1 n=a#5 v=60
20160 On ch=1 n=d#6 v=60
20160 On ch=1 n=g6 v=60
20190 On ch=1 n=g6 v=0
20190 On ch=1 n=g5 v=0
20190 On ch=1 n=a#5 v=0
20190 On ch=1 n=d#6 v=0
20460 On ch=1 n=d#5 v=100
20490 On ch=1 n=d#5 v=0
20520 On ch=1 n=c5 v=100
20520 On ch=1 n=c6 v=100
20580 On ch=1 n=c6 v=0
20580 On ch=1 n=c5 v=0
20580 On ch=1 n=d#5 v=101
20640 On ch=1 n=d#5 v=0
20640 On ch=1 n=c7 v=103
20640 On ch=1 n=c6 v=103
20700 On ch=1 n=c6 v=0
20700 On ch=1 n=c7 v=0
20700 On ch=1 n=d#6 v=105
20760 On ch=1 n=d#6 v=0
20760 On ch=1 n=c8 v=107
20760 On ch=1 n=c7 v=107
20820 On ch=1 n=c7 v=0
20820 On ch=1 n=c8 v=0
20820 On ch=1 n=d#7 v=109
20880 On ch=1 n=d#7 v=0
20880 On ch=1 n=a#7 v=110
20880 On ch=1 n=a#6 v=110
20940 On ch=1 n=a#6 v=0
20940 On ch=1 n=a#7 v=0
20940 On ch=1 n=d#7 v=109
21000 On ch=1 n=d#7 v=0
21000 On ch=1 n=a#6 v=107
21000 On ch=1 n=a#5 v=107
21060 On ch=1 n=a#5 v=0
21060 On ch=1 n=a#6 v=0
21060 On ch=1 n=d#6 v=105
21120 On ch=1 n=d#6 v=0
21120 On ch=1 n=a#4 v=103
21120 On ch=1 n=a#5 v=103
21180 On ch=1 n=a#5 v=0
21180 On ch=1 n=a#4 v=0
21180 On ch=1 n=d#5 v=101
21240 On ch=1 n=d#5 v=0
21240 On ch=1 n=f6 v=110
21240 On ch=1 n=g#5 v=100
21300 On ch=1 n=g#5 v=0
21300 On ch=1 n=a#5 v=100
21360 On ch=1 n=a#5 v=0
21360 On ch=1 n=f6 v=0
21360 On ch=1 n=g6 v=110
21360 On ch=1 n=d6 v=100
21360 On ch=1 n=g#5 v=100
21420 On ch=1 n=g#5 v=0
21420 On ch=1 n=d6 v=0
21420 On ch=1 n=g6 v=0
21420 On ch=1 n=f6 v=110
21420 On ch=1 n=a#5 v=100
21480 On ch=1 n=a#5 v=0
21480 On ch=1 n=f6 v=0
21480 On ch=1 n=e6 v=110
21480 On ch=1 n=g#5 v=100
21540 On ch=1 n=g#5 v=0
21540 On ch=1 n=e6 v=0
21540 On ch=1 n=f6 v=110
21540 On ch=1 n=a#5 v=100
21600 On ch=1 n=a#5 v=0
21600 On ch=1 n=f6 v=0
21600 On ch=1 n=g6 v=110
21600 On ch=1 n=d#6 v=100
21660 On ch=1 n=d#6 v=0
21660 On ch=1 n=a#5 v=100
21720 On ch=1 n=a#5 v=0
21720 On ch=1 n=g6 v=0
21720 On ch=1 n=d#6 v=110
21720 On ch=1 n=g5 v=100
21780 On ch=1 n=g5 v=0
21780 On ch=1 n=a#5 v=100
21840 On ch=1 n=a#5 v=0
21840 On ch=1 n=d#6 v=0
21840 On ch=1 n=d#5 v=100
21840 On ch=1 n=d#6 v=110
21870 On ch=1 n=d#6 v=0
21870 On ch=1 n=d#5 v=0
21960 On ch=1 n=c5 v=100
21960 On ch=1 n=c6 v=100
22020 On ch=1 n=c6 v=0
22020 On ch=1 n=c5 v=0
22020 On ch=1 n=d#5 v=101
22080 On ch=1 n=d#5 v=0
22080 On ch=1 n=c7 v=103
22080 On ch=1 n=c6 v=103
22140 On ch=1 n=c6 v=0
22140 On ch=1 n=c7 v=0
22140 On ch=1 n=d#6 v=105
22200 On ch=1 n=d#6 v=0
22200 On ch=1 n=c8 v=107
22200 On ch=1 n=c7 v=107
22260 On ch=1 n=c7 v=0
22260 On ch=1 n=c8 v=0
22260 On ch=1 n=d#7 v=109
22320 On ch=1 n=d#7 v=0
22320 On ch=1 n=a#7 v=110
22320 On ch=1 n=a#6 v=110
22380 On ch=1 n=a#6 v=0
22380 On ch=1 n=a#7 v=0
22380 On ch=1 n=d#7 v=109
22440 On ch=1 n=d#7 v=0
22440 On ch=1 n=a#6 v=107
22440 On ch=1 n=a#5 v=107
22500 On ch=1 n=a#5 v=0
22500 On ch=1 n=a#6 v=0
22500 On ch=1 n=d#6 v=105
22560 On ch=1 n=d#6 v=0
22560 On ch=1 n=a#4 v=103
22560 On ch=1 n=a#5 v=103
22620 On ch=1 n=a#5 v=0
22620 On ch=1 n=a#4 v=0
22620 On ch=1 n=d#5 v=101
22680 On ch=1 n=d#5 v=0
22680 On ch=1 n=f6 v=110
22680 On ch=1 n=g#5 v=100
22740 On ch=1 n=g#5 v=0
22740 On ch=1 n=a#5 v=100
22800 On ch=1 n=a#5 v=0
22800 On ch=1 n=f6 v=0
22800 On ch=1 n=g6 v=110
22800 On ch=1 n=g#5 v=100
22860 On ch=1 n=g#5 v=0
22860 On ch=1 n=g6 v=0
22860 On ch=1 n=f6 v=110
22860 On ch=1 n=a#5 v=100
22920 On ch=1 n=a#5 v=0
22920 On ch=1 n=f6 v=0
22920 On ch=1 n=c6 v=110
22920 On ch=1 n=g#5 v=100
22980 On ch=1 n=g#5 v=0
22980 On ch=1 n=c6 v=0
22980 On ch=1 n=d6 v=110
22980 On ch=1 n=a#5 v=100
23040 On ch=1 n=a#5 v=0
23040 On ch=1 n=d6 v=0
23040 On ch=1 n=g5 v=100
23040 On ch=1 n=d#6 v=110
23160 On ch=1 n=d#6 v=0
23160 On ch=1 n=g5 v=0
23280 On ch=1 n=d#5 v=100
23325 On ch=1 n=a#5 v=100
23340 On ch=1 n=a#5 v=0
23340 On ch=1 n=d#6 v=100
23355 On ch=1 n=d#6 v=0
23355 On ch=1 n=g6 v=100
23370 On ch=1 n=g6 v=0
23370 On ch=1 n=a#6 v=100
23385 On ch=1 n=a#6 v=0
23385 On ch=1 n=d#7 v=100
23400 On ch=1 n=d#7 v=0
23400 On ch=1 n=d#5 v=0
23400 On ch=1 n=g7 v=100
23400 On ch=1 n=d#7 v=100
23580 On ch=1 n=d#7 v=0
23580 On ch=1 n=g7 v=0
23580 On ch=1 n=f7 v=100
23580 On ch=1 n=f6 v=100
23640 On ch=1 n=f6 v=0
23640 On ch=1 n=f7 v=0
23640 On ch=1 n=d#7 v=100
23640 On ch=1 n=g6 v=100
23730 On ch=1 n=g6 v=0
23730 On ch=1 n=d#7 v=0
23730 On ch=1 n=c7 v=100
23730 On ch=1 n=g#6 v=100
23760 On ch=1 n=g#6 v=0
23760 On ch=1 n=c7 v=0
23760 On ch=1 n=a#6 v=100
23760 On ch=1 n=g6 v=100
23820 On ch=1 n=g6 v=0
23820 On ch=1 n=a#6 v=0
23880 On ch=1 n=g5 v=100
23880 On ch=1 n=a#5 v=100
23940 On ch=1 n=a#5 v=0
23940 On ch=1 n=g6 v=100
24000 On ch=1 n=g6 v=0
24000 On ch=1 n=g5 v=0
24000 On ch=1 n=d#6 v=100
24000 On ch=1 n=g5 v=100
24120 On ch=1 n=g5 v=0
24120 On ch=1 n=d#6 v=0
24120 On ch=1 n=a#5 v=100
24120 On ch=1 n=g5 v=100
24210 On ch=1 n=a#5 v=0
24210 On ch=1 n=a#5 v=100
24240 On ch=1 n=a#5 v=0
24240 On ch=1 n=g5 v=0
24240 On ch=1 n=a#5 v=100
24240 On ch=1 n=g5 v=100
24330 On ch=1 n=a#5 v=0
24330 On ch=1 n=d#6 v=100
24360 On ch=1 n=d#6 v=0
24360 On ch=1 n=g5 v=0
24360 On ch=1 n=a#5 v=100
24360 On ch=1 n=g5 v=100
24450 On ch=1 n=a#5 v=0
24450 On ch=1 n=d#6 v=100
24480 On ch=1 n=d#6 v=0
24480 On ch=1 n=g5 v=0
24480 On ch=1 n=f6 v=100
24480 On ch=1 n=d6 v=100
24600 On ch=1 n=d6 v=0
24600 On ch=1 n=f6 v=0
24600 On ch=1 n=a#5 v=100
24640 On ch=1 n=a#5 v=0
24640 On ch=1 n=f6 v=100
24640 On ch=1 n=d6 v=100
24680 On ch=1 n=d6 v=0
24680 On ch=1 n=f6 v=0
24680 On ch=1 n=a#5 v=100
24720 On ch=1 n=a#5 v=0
24720 On ch=1 n=a#6 v=100
24765 On ch=1 n=a#5 v=100
24780 On ch=1 n=a#5 v=0
24780 On ch=1 n=d#6 v=100
24795 On ch=1 n=d#6 v=0
24795 On ch=1 n=g6 v=100
24810 On ch=1 n=g6 v=0
24810 On ch=1 n=a#6 v=100
24825 On ch=1 n=a#6 v=0
24825 On ch=1 n=d#7 v=100
24840 On ch=1 n=d#7 v=0
24840 On ch=1 n=a#6 v=0
24840 On ch=1 n=g7 v=100
24840 On ch=1 n=d#7 v=100
25020 On ch=1 n=d#7 v=0
25020 On ch=1 n=g7 v=0
25020 On ch=1 n=f7 v=100
25020 On ch=1 n=f6 v=100
25080 On ch=1 n=f6 v=0
25080 On ch=1 n=f7 v=0
25080 On ch=1 n=d#7 v=100
25080 On ch=1 n=g6 v=100
25170 On ch=1 n=g6 v=0
25170 On ch=1 n=d#7 v=0
25170 On ch=1 n=c7 v=100
25170 On ch=1 n=g#6 v=100
25200 On ch=1 n=g#6 v=0
25200 On ch=1 n=c7 v=0
25200 On ch=1 n=a#6 v=100
25200 On ch=1 n=g6 v=100
25260 On ch=1 n=g6 v=0
25260 On ch=1 n=a#6 v=0
25320 On ch=1 n=a#5 v=100
25320 On ch=1 n=g5 v=100
25410 On ch=1 n=a#5 v=0
25410 On ch=1 n=g6 v=100
25440 On ch=1 n=g6 v=0
25440 On ch=1 n=g5 v=0
25440 On ch=1 n=d#6 v=100
25440 On ch=1 n=g5 v=100
25560 On ch=1 n=g5 v=0
25560 On ch=1 n=d#6 v=0
25560 On ch=1 n=a#5 v=100
25560 On ch=1 n=g#5 v=100
25650 On ch=1 n=a#5 v=0
25650 On ch=1 n=a#5 v=100
25680 On ch=1 n=a#5 v=0
25680 On ch=1 n=g#5 v=0
25680 On ch=1 n=a#5 v=100
25680 On ch=1 n=g#5 v=100
25740 On ch=1 n=a#5 v=0
25740 On ch=1 n=d6 v=100
25800 On ch=1 n=d6 v=0
25800 On ch=1 n=g#5 v=0
25800 On ch=1 n=a#5 v=100
25800 On ch=1 n=g#5 v=100
25860 On ch=1 n=a#5 v=0
25860 On ch=1 n=d6 v=100
25920 On ch=1 n=d6 v=0
25920 On ch=1 n=g#5 v=0
25920 On ch=1 n=g5 v=100
25920 On ch=1 n=d#6 v=100
26040 On ch=1 n=d#6 v=0
26040 On ch=1 n=g5 v=0
26160 On ch=1 n=d#5 v=100
26205 On ch=1 n=a#5 v=100
26220 On ch=1 n=a#5 v=0
26220 On ch=1 n=d#6 v=100
26235 On ch=1 n=d#6 v=0
26235 On ch=1 n=g6 v=100
26250 On ch=1 n=g6 v=0
26250 On ch=1 n=a#6 v=100
26265 On ch=1 n=a#6 v=0
26265 On ch=1 n=d#7 v=100
26280 On ch=1 n=d#7 v=0
26280 On ch=1 n=d#5 v=0
26280 On ch=1 n=g7 v=100
26280 On ch=1 n=d#7 v=100
26460 On ch=1 n=d#7 v=0
26460 On ch=1 n=g7 v=0
26460 On ch=1 n=f7 v=100
26460 On ch=1 n=f6 v=100
26520 On ch=1 n=f6 v=0
26520 On ch=1 n=f7 v=0
26520 On ch=1 n=d#7 v=100
26520 On ch=1 n=g6 v=100
26610 On ch=1 n=g6 v=0
26610 On ch=1 n=d#7 v=0
26610 On ch=1 n=c7 v=100
26610 On ch=1 n=g#6 v=100
26640 On ch=1 n=g#6 v=0
26640 On ch=1 n=c7 v=0
26640 On ch=1 n=a#6 v=100
26640 On ch=1 n=g6 v=100
26700 On ch=1 n=g6 v=0
26700 On ch=1 n=a#6 v=0
26760 On ch=1 n=g5 v=100
26760 On ch=1 n=a#5 v=100
26820 On ch=1 n=a#5 v=0
26820 On ch=1 n=g6 v=100
26880 On ch=1 n=g6 v=0
26880 On ch=1 n=g5 v=0
26880 On ch=1 n=d#6 v=100
26880 On ch=1 n=g5 v=100
27000 On ch=1 n=g5 v=0
27000 On ch=1 n=d#6 v=0
27000 On ch=1 n=a#5 v=100
27000 On ch=1 n=g5 v=100
27090 On ch=1 n=a#5 v=0
27090 On ch=1 n=a#5 v=100
27120 On ch=1 n=a#5 v=0
27120 On ch=1 n=g5 v=0
27120 On ch=1 n=a#5 v=100
27120 On ch=1 n=g5 v=100
27210 On ch=1 n=a#5 v=0
27210 On ch=1 n=d#6 v=100
27240 On ch=1 n=d#6 v=0
27240 On ch=1 n=g5 v=0
27240 On ch=1 n=a#5 v=100
27240 On ch=1 n=g5 v=100
27330 On ch=1 n=a#5 v=0
27330 On ch=1 n=d#6 v=100
27360 On ch=1 n=d#6 v=0
27360 On ch=1 n=g5 v=0
27360 On ch=1 n=f6 v=100
27360 On ch=1 n=d6 v=100
27480 On ch=1 n=d6 v=0
27480 On ch=1 n=f6 v=0
27480 On ch=1 n=a#5 v=100
27520 On ch=1 n=a#5 v=0
27520 On ch=1 n=f6 v=100
27520 On ch=1 n=d6 v=100
27560 On ch=1 n=d6 v=0
27560 On ch=1 n=f6 v=0
27560 On ch=1 n=a#5 v=100
27600 On ch=1 n=a#5 v=0
27600 On ch=1 n=a#6 v=100
27645 On ch=1 n=a#5 v=100
27660 On ch=1 n=a#5 v=0
27660 On ch=1 n=d#6 v=100
27675 On ch=1 n=d#6 v=0
27675 On ch=1 n=g6 v=100
27690 On ch=1 n=g6 v=0
27690 On ch=1 n=a#6 v=100
27705 On ch=1 n=a#6 v=0
27705 On ch=1 n=d#7 v=100
27720 On ch=1 n=d#7 v=0
27720 On ch=1 n=a#6 v=0
27720 On ch=1 n=g7 v=100
27720 On ch=1 n=d#7 v=100
27900 On ch=1 n=d#7 v=0
27900 On ch=1 n=g7 v=0
27900 On ch=1 n=f7 v=100
27900 On ch=1 n=f6 v=100
27960 On ch=1 n=f6 v=0
27960 On ch=1 n=f7 v=0
27960 On ch=1 n=d#7 v=100
27960 On ch=1 n=g6 v=100
28050 On ch=1 n=g6 v=0
28050 On ch=1 n=d#7 v=0
28050 On ch=1 n=c7 v=100
28050 On ch=1 n=g#6 v=100
28080 On ch=1 n=g#6 v=0
28080 On ch=1 n=c7 v=0
28080 On ch=1 n=a#6 v=100
28080 On ch=1 n=g6 v=100
28140 On ch=1 n=g6 v=0
28140 On ch=1 n=a#6 v=0
28200 On ch=1 n=a#5 v=100
28200 On ch=1 n=g5 v=100
28290 On ch=1 n=a#5 v=0
28290 On ch=1 n=g6 v=100
28320 On ch=1 n=g6 v=0
28320 On ch=1 n=g5 v=0
28320 On ch=1 n=d#6 v=100
28320 On ch=1 n=g5 v=100
28440 On ch=1 n=g5 v=0
28440 On ch=1 n=d#6 v=0
28440 On ch=1 n=a#5 v=100
28440 On ch=1 n=g#5 v=100
28530 On ch=1 n=a#5 v=0
28530 On ch=1 n=a#5 v=100
28560 On ch=1 n=a#5 v=0
28560 On ch=1 n=g#5 v=0
28560 On ch=1 n=a#5 v=100
28560 On ch=1 n=g#5 v=100
28620 On ch=1 n=a#5 v=0
28620 On ch=1 n=d6 v=100
28680 On ch=1 n=d6 v=0
28680 On ch=1 n=g#5 v=0
28680 On ch=1 n=a#5 v=100
28680 On ch=1 n=g#5 v=100
28740 On ch=1 n=a#5 v=0
28740 On ch=1 n=d6 v=100
28800 On ch=1 n=d6 v=0
28800 On ch=1 n=g#5 v=0
28800 On ch=1 n=g5 v=100
28800 On ch=1 n=d#6 v=100
28920 On ch=1 n=d#6 v=0
28920 On ch=1 n=g5 v=0
29100 On ch=1 n=d#5 v=100
29130 On ch=1 n=d#5 v=0
29160 On ch=1 n=c5 v=100
29160 On ch=1 n=c6 v=100
29220 On ch=1 n=c6 v=0
29220 On ch=1 n=c5 v=0
29220 On ch=1 n=d#5 v=101
29280 On ch=1 n=d#5 v=0
29280 On ch=1 n=c7 v=103
29280 On ch=1 n=c6 v=103
29340 On ch=1 n=c6 v=0
29340 On ch=1 n=c7 v=0
29340 On ch=1 n=d#6 v=105
29400 On ch=1 n=d#6 v=0
29400 On ch=1 n=c8 v=107
29400 On ch=1 n=c7 v=107
29460 On ch=1 n=c7 v=0
29460 On ch=1 n=c8 v=0
29460 On ch=1 n=d#7 v=109
29520 On ch=1 n=d#7 v=0
29520 On ch=1 n=a#7 v=110
29520 On ch=1 n=a#6 v=110
29580 On ch=1 n=a#6 v=0
29580 On ch=1 n=a#7 v=0
29580 On ch=1 n=d#7 v=109
29640 On ch=1 n=d#7 v=0
29640 On ch=1 n=a#6 v=107
29640 On ch=1 n=a#5 v=107
29700 On ch=1 n=a#5 v=0
29700 On ch=1 n=a#6 v=0
29700 On ch=1 n=d#6 v=105
29760 On ch=1 n=d#6 v=0
29760 On ch=1 n=a#4 v=103
29760 On ch=1 n=a#5 v=103
29820 On ch=1 n=a#5 v=0
29820 On ch=1 n=a#4 v=0
29820 On ch=1 n=d#5 v=101
29880 On ch=1 n=d#5 v=0
29880 On ch=1 n=f6 v=110
29880 On ch=1 n=g#5 v=100
29940 On ch=1 n=g#5 v=0
29940 On ch=1 n=a#5 v=100
30000 On ch=1 n=a#5 v=0
30000 On ch=1 n=f6 v=0
30000 On ch=1 n=g6 v=110
30000 On ch=1 n=d6 v=100
30000 On ch=1 n=g#5 v=100
30060 On ch=1 n=g#5 v=0
30060 On ch=1 n=d6 v=0
30060 On ch=1 n=g6 v=0
30060 On ch=1 n=f6 v=110
30060 On ch=1 n=a#5 v=100
30120 On ch=1 n=a#5 v=0
30120 On ch=1 n=f6 v=0
30120 On ch=1 n=e6 v=110
30120 On ch=1 n=g#5 v=100
30180 On ch=1 n=g#5 v=0
30180 On ch=1 n=e6 v=0
30180 On ch=1 n=f6 v=110
30180 On ch=1 n=a#5 v=100
30240 On ch=1 n=a#5 v=0
30240 On ch=1 n=f6 v=0
30240 On ch=1 n=g6 v=110
30240 On ch=1 n=d#6 v=100
30300 On ch=1 n=d#6 v=0
30300 On ch=1 n=a#5 v=100
30360 On ch=1 n=a#5 v=0
30360 On ch=1 n=g6 v=0
30360 On ch=1 n=d#6 v=110
30360 On ch=1 n=g5 v=100
30420 On ch=1 n=g5 v=0
30420 On ch=1 n=a#5 v=100
30480 On ch=1 n=a#5 v=0
30480 On ch=1 n=d#6 v=0
30480 On ch=1 n=d#5 v=100
30480 On ch=1 n=d#6 v=110
30510 On ch=1 n=d#6 v=0
30510 On ch=1 n=d#5 v=0
30600 On ch=1 n=c5 v=100
30600 On ch=1 n=c6 v=100
30660 On ch=1 n=c6 v=0
30660 On ch=1 n=c5 v=0
30660 On ch=1 n=d#5 v=101
30720 On ch=1 n=d#5 v=0
30720 On ch=1 n=c7 v=103
30720 On ch=1 n=c6 v=103
30780 On ch=1 n=c6 v=0
30780 On ch=1 n=c7 v=0
30780 On ch=1 n=d#6 v=105
30840 On ch=1 n=d#6 v=0
30840 On ch=1 n=c8 v=107
30840 On ch=1 n=c7 v=107
30900 On ch=1 n=c7 v=0
30900 On ch=1 n=c8 v=0
30900 On ch=1 n=d#7 v=109
30960 On ch=1 n=d#7 v=0
30960 On ch=1 n=a#7 v=110
30960 On ch=1 n=a#6 v=110
31020 On ch=1 n=a#6 v=0
31020 On ch=1 n=a#7 v=0
31020 On ch=1 n=d#7 v=109
31080 On ch=1 n=d#7 v=0
31080 On ch=1 n=a#6 v=107
31080 On ch=1 n=a#5 v=107
31140 On ch=1 n=a#5 v=0
31140 On ch=1 n=a#6 v=0
31140 On ch=1 n=d#6 v=105
31200 On ch=1 n=d#6 v=0
31200 On ch=1 n=a#4 v=103
31200 On ch=1 n=a#5 v=103
31260 On ch=1 n=a#5 v=0
31260 On ch=1 n=a#4 v=0
31260 On ch=1 n=d#5 v=101
31320 On ch=1 n=d#5 v=0
31320 On ch=1 n=f6 v=110
31320 On ch=1 n=g#5 v=100
31380 On ch=1 n=g#5 v=0
31380 On ch=1 n=a#5 v=100
31440 On ch=1 n=a#5 v=0
31440 On ch=1 n=f6 v=0
31440 On ch=1 n=g6 v=110
31440 On ch=1 n=g#5 v=100
31500 On ch=1 n=g#5 v=0
31500 On ch=1 n=g6 v=0
31500 On ch=1 n=f6 v=110
31500 On ch=1 n=a#5 v=100
31560 On ch=1 n=a#5 v=0
31560 On ch=1 n=f6 v=0
31560 On ch=1 n=c6 v=110
31560 On ch=1 n=g#5 v=100
31620 On ch=1 n=g#5 v=0
31620 On ch=1 n=c6 v=0
31620 On ch=1 n=d6 v=110
31620 On ch=1 n=a#5 v=100
31680 On ch=1 n=a#5 v=0
31680 On ch=1 n=d6 v=0
31680 On ch=1 n=g5 v=100
31680 On ch=1 n=d#6 v=110
31740 On ch=1 n=g5 v=0
31740 On ch=1 n=a#5 v=100
31800 On ch=1 n=a#5 v=0
31800 On ch=1 n=d#6 v=0
31800 On ch=1 n=g5 v=100
31860 On ch=1 n=g5 v=0
31860 On ch=1 n=a#5 v=100
31920 On ch=1 n=a#5 v=0
31980 On ch=1 n=d#5 v=100
32040 On ch=1 n=d#5 v=0
32040 On ch=1 n=d#5 v=100
32130 On ch=1 n=d#5 v=0
32130 On ch=1 n=d5 v=100
32160 On ch=1 n=d5 v=0
32160 On ch=1 n=c5 v=100
32280 On ch=1 n=c5 v=0
32280 On ch=1 n=d#5 v=100
32400 On ch=1 n=d#5 v=0
32400 On ch=1 n=a#4 v=100
32520 On ch=1 n=a#4 v=0
32520 On ch=1 n=d#5 v=100
32610 On ch=1 n=d#5 v=0
32610 On ch=1 n=g5 v=100
32640 On ch=1 n=g5 v=0
32640 On ch=1 n=a#5 v=100
32760 On ch=1 n=a#5 v=0
32760 On ch=1 n=a#5 v=100
32850 On ch=1 n=a#5 v=0
32850 On ch=1 n=a#5 v=98
32880 On ch=1 n=a#5 v=0
32880 On ch=1 n=a#5 v=97
33000 On ch=1 n=a#5 v=0
33000 On ch=1 n=a#5 v=93
33120 On ch=1 n=a#5 v=0
33120 On ch=1 n=a#5 v=90
33240 On ch=1 n=a#5 v=0
33240 On ch=1 n=d#6 v=86
33360 On ch=1 n=d#6 v=0
33360 On ch=1 n=d#6 v=83
33480 On ch=1 n=d#6 v=0
33480 On ch=1 n=d#6 v=80
33570 On ch=1 n=d#6 v=0
33570 On ch=1 n=d6 v=80
33600 On ch=1 n=d6 v=0
33600 On ch=1 n=c6 v=80
33720 On ch=1 n=c6 v=0
33720 On ch=1 n=d#6 v=80
33825 On ch=1 n=d#6 v=80
33840 On ch=1 n=d#6 v=0
33840 On ch=1 n=d#6 v=0
33840 On ch=1 n=a#5 v=80
33960 On ch=1 n=a#5 v=0
33960 On ch=1 n=d#6 v=80
34050 On ch=1 n=d#6 v=0
34050 On ch=1 n=g6 v=80
34080 On ch=1 n=g6 v=0
34080 On ch=1 n=a#6 v=80
34200 On ch=1 n=a#6 v=0
34200 On ch=1 n=a#6 v=80
34200 On ch=1 n=a#5 v=80
34290 On ch=1 n=a#5 v=0
34290 On ch=1 n=a#6 v=0
34290 On ch=1 n=a#5 v=76
34290 On ch=1 n=a#6 v=76
34320 On ch=1 n=a#6 v=0
34320 On ch=1 n=a#5 v=0
34320 On ch=1 n=a#5 v=75
34320 On ch=1 n=a#6 v=75
34440 On ch=1 n=a#6 v=0
34440 On ch=1 n=a#5 v=0
34440 On ch=1 n=a#5 v=70
34440 On ch=1 n=a#6 v=70
34560 On ch=1 n=a#6 v=0
34560 On ch=1 n=a#5 v=0
34560 On ch=1 n=d#7 v=64
34560 On ch=1 n=d#6 v=64
34680 On ch=1 n=d#6 v=0
34680 On ch=1 n=d#7 v=0
34860 On ch=1 n=d#5 v=100
34890 On ch=1 n=d#5 v=0
34920 On ch=1 n=c5 v=100
34920 On ch=1 n=c6 v=100
34980 On ch=1 n=c6 v=0
34980 On ch=1 n=c5 v=0
34980 On ch=1 n=d#5 v=101
35040 On ch=1 n=d#5 v=0
35040 On ch=1 n=c7 v=103
35040 On ch=1 n=c6 v=103
35100 On ch=1 n=c6 v=0
35100 On ch=1 n=c7 v=0
35100 On ch=1 n=d#6 v=105
35160 On ch=1 n=d#6 v=0
35160 On ch=1 n=c8 v=107
35160 On ch=1 n=c7 v=107
35220 On ch=1 n=c7 v=0
35220 On ch=1 n=c8 v=0
35220 On ch=1 n=d#7 v=109
35280 On ch=1 n=d#7 v=0
35280 On ch=1 n=a#7 v=110
35280 On ch=1 n=a#6 v=110
35340 On ch=1 n=a#6 v=0
35340 On ch=1 n=a#7 v=0
35340 On ch=1 n=d#7 v=109
35400 On ch=1 n=d#7 v=0
35400 On ch=1 n=a#6 v=107
35400 On ch=1 n=a#5 v=107
35460 On ch=1 n=a#5 v=0
35460 On ch=1 n=a#6 v=0
35460 On ch=1 n=d#6 v=105
35520 On ch=1 n=d#6 v=0
35520 On ch=1 n=a#4 v=103
35520 On ch=1 n=a#5 v=103
35580 On ch=1 n=a#5 v=0
35580 On ch=1 n=a#4 v=0
35580 On ch=1 n=d#5 v=101
35640 On ch=1 n=d#5 v=0
35640 On ch=1 n=f6 v=110
35640 On ch=1 n=g#5 v=100
35700 On ch=1 n=g#5 v=0
35700 On ch=1 n=a#5 v=100
35760 On ch=1 n=a#5 v=0
35760 On ch=1 n=f6 v=0
35760 On ch=1 n=g6 v=110
35760 On ch=1 n=d6 v=100
35760 On ch=1 n=g#5 v=100
35820 On ch=1 n=g#5 v=0
35820 On ch=1 n=d6 v=0
35820 On ch=1 n=g6 v=0
35820 On ch=1 n=f6 v=110
35820 On ch=1 n=a#5 v=100
35880 On ch=1 n=a#5 v=0
35880 On ch=1 n=f6 v=0
35880 On ch=1 n=e6 v=110
35880 On ch=1 n=g#5 v=100
35940 On ch=1 n=g#5 v=0
35940 On ch=1 n=e6 v=0
35940 On ch=1 n=f6 v=110
35940 On ch=1 n=a#5 v=100
36000 On ch=1 n=a#5 v=0
36000 On ch=1 n=f6 v=0
36000 On ch=1 n=g6 v=110
36000 On ch=1 n=d#6 v=100
36060 On ch=1 n=d#6 v=0
36060 On ch=1 n=a#5 v=100
36120 On ch=1 n=a#5 v=0
36120 On ch=1 n=g6 v=0
36120 On ch=1 n=d#6 v=110
36120 On ch=1 n=g5 v=100
36180 On ch=1 n=g5 v=0
36180 On ch=1 n=a#5 v=100
36240 On ch=1 n=a#5 v=0
36240 On ch=1 n=d#6 v=0
36240 On ch=1 n=d#5 v=100
36240 On ch=1 n=d#6 v=110
36270 On ch=1 n=d#6 v=0
36270 On ch=1 n=d#5 v=0
36360 On ch=1 n=c5 v=100
36360 On ch=1 n=c6 v=100
36420 On ch=1 n=c6 v=0
36420 On ch=1 n=c5 v=0
36420 On ch=1 n=d#5 v=101
36480 On ch=1 n=d#5 v=0
36480 On ch=1 n=c7 v=103
36480 On ch=1 n=c6 v=103
36540 On ch=1 n=c6 v=0
36540 On ch=1 n=c7 v=0
36540 On ch=1 n=d#6 v=105
36600 On ch=1 n=d#6 v=0
36600 On ch=1 n=c8 v=107
36600 On ch=1 n=c7 v=107
36660 On ch=1 n=c7 v=0
36660 On ch=1 n=c8 v=0
36660 On ch=1 n=d#7 v=109
36720 On ch=1 n=d#7 v=0
36720 On ch=1 n=a#7 v=110
36720 On ch=1 n=a#6 v=110
36780 On ch=1 n=a#6 v=0
36780 On ch=1 n=a#7 v=0
36780 On ch=1 n=d#7 v=109
36840 On ch=1 n=d#7 v=0
36840 On ch=1 n=a#6 v=107
36840 On ch=1 n=a#5 v=107
36900 On ch=1 n=a#5 v=0
36900 On ch=1 n=a#6 v=0
36900 On ch=1 n=d#6 v=105
36960 On ch=1 n=d#6 v=0
36960 On ch=1 n=a#4 v=103
36960 On ch=1 n=a#5 v=103
37020 On ch=1 n=a#5 v=0
37020 On ch=1 n=a#4 v=0
37020 On ch=1 n=d#5 v=101
37080 On ch=1 n=d#5 v=0
37080 On ch=1 n=f6 v=110
37080 On ch=1 n=g#5 v=100
37140 On ch=1 n=g#5 v=0
37140 On ch=1 n=a#5 v=98
37200 On ch=1 n=a#5 v=0
37200 On ch=1 n=f6 v=0
37200 On ch=1 n=g6 v=105
37200 On ch=1 n=g#5 v=95
37260 On ch=1 n=g#5 v=0
37260 On ch=1 n=g6 v=0
37260 On ch=1 n=f6 v=102
37260 On ch=1 n=a#5 v=92
37320 On ch=1 n=a#5 v=0
37320 On ch=1 n=f6 v=0
37320 On ch=1 n=c6 v=100
37320 On ch=1 n=g#5 v=90
37380 On ch=1 n=g#5 v=0
37380 On ch=1 n=c6 v=0
37380 On ch=1 n=d6 v=97
37380 On ch=1 n=a#5 v=87
37440 On ch=1 n=a#5 v=0
37440 On ch=1 n=d6 v=0
37440 On ch=1 n=g5 v=84
37440 On ch=1 n=d#6 v=94
37560 On ch=1 n=d#6 v=0
37560 On ch=1 n=g5 v=0
37560 Meta TrkEnd
TrkEnd
MTrk
0 Meta 0x21 00
0 Meta TrkName "Lower Treble"
0 PrCh ch=1 p=0
16320 On ch=1 n=a#4 v=60
16320 On ch=1 n=d#5 v=60
16320 On ch=1 n=g5 v=60
16440 On ch=1 n=g5 v=0
16440 On ch=1 n=d#5 v=0
16440 On ch=1 n=a#4 v=0
16440 On ch=1 n=g#5 v=60
16440 On ch=1 n=d#5 v=60
16440 On ch=1 n=c5 v=60
16560 On ch=1 n=c5 v=0
16560 On ch=1 n=d#5 v=0
16560 On ch=1 n=g#5 v=0
16680 On ch=1 n=a#4 v=60
16680 On ch=1 n=d#5 v=60
16680 On ch=1 n=g5 v=60
16800 On ch=1 n=g5 v=0
16800 On ch=1 n=d#5 v=0
16800 On ch=1 n=a#4 v=0
16800 On ch=1 n=a#4 v=60
16800 On ch=1 n=d#5 v=60
16800 On ch=1 n=g5 v=60
16920 On ch=1 n=g5 v=0
16920 On ch=1 n=d#5 v=0
16920 On ch=1 n=a#4 v=0
17040 On ch=1 n=a#4 v=60
17040 On ch=1 n=f5 v=60
17040 On ch=1 n=g#5 v=60
17160 On ch=1 n=g#5 v=0
17160 On ch=1 n=f5 v=0
17160 On ch=1 n=a#4 v=0
17160 On ch=1 n=a#4 v=60
17160 On ch=1 n=f5 v=60
17160 On ch=1 n=g#5 v=60
17280 On ch=1 n=g#5 v=0
17280 On ch=1 n=f5 v=0
17280 On ch=1 n=a#4 v=0
17280 On ch=1 n=d#5 v=60
17280 On ch=1 n=g5 v=60
17400 On ch=1 n=g5 v=0
17400 On ch=1 n=d#5 v=0
19200 On ch=1 n=a#4 v=60
19200 On ch=1 n=d#5 v=60
19200 On ch=1 n=g5 v=60
19320 On ch=1 n=g5 v=0
19320 On ch=1 n=d#5 v=0
19320 On ch=1 n=a#4 v=0
19320 On ch=1 n=g#5 v=60
19320 On ch=1 n=d#5 v=60
19320 On ch=1 n=c5 v=60
19440 On ch=1 n=c5 v=0
19440 On ch=1 n=d#5 v=0
19440 On ch=1 n=g#5 v=0
19560 On ch=1 n=a#4 v=60
19560 On ch=1 n=d#5 v=60
19560 On ch=1 n=g5 v=60
19680 On ch=1 n=g5 v=0
19680 On ch=1 n=d#5 v=0
19680 On ch=1 n=a#4 v=0
19680 On ch=1 n=a#4 v=60
19680 On ch=1 n=d#5 v=60
19680 On ch=1 n=g5 v=60
19800 On ch=1 n=g5 v=0
19800 On ch=1 n=d#5 v=0
19800 On ch=1 n=a#4 v=0
19920 On ch=1 n=a#4 v=60
19920 On ch=1 n=f5 v=60
19920 On ch=1 n=g#5 v=60
20040 On ch=1 n=g#5 v=0
20040 On ch=1 n=f5 v=0
20040 On ch=1 n=a#4 v=0
20040 On ch=1 n=a#4 v=60
20040 On ch=1 n=f5 v=60
20040 On ch=1 n=g#5 v=60
20160 On ch=1 n=g#5 v=0
20160 On ch=1 n=f5 v=0
20160 On ch=1 n=a#4 v=0
23520 On ch=1 n=a#4 v=100
23520 On ch=1 n=d#5 v=100
23520 On ch=1 n=g5 v=100
23640 On ch=1 n=g5 v=0
23640 On ch=1 n=d#5 v=0
23640 On ch=1 n=a#4 v=0
23640 On ch=1 n=a#4 v=100
23640 On ch=1 n=d#5 v=100
23640 On ch=1 n=g5 v=100
23730 On ch=1 n=g5 v=0
23730 On ch=1 n=d#5 v=0
23730 On ch=1 n=a#4 v=0
23730 On ch=1 n=c5 v=100
23730 On ch=1 n=d#5 v=100
23730 On ch=1 n=g#5 v=100
23760 On ch=1 n=g#5 v=0
23760 On ch=1 n=d#5 v=0
23760 On ch=1 n=c5 v=0
23760 On ch=1 n=a#4 v=100
23760 On ch=1 n=d#5 v=100
23760 On ch=1 n=g5 v=100
23880 On ch=1 n=g5 v=0
23880 On ch=1 n=d#5 v=0
23880 On ch=1 n=a#4 v=0
23880 On ch=1 n=a#4 v=100
23880 On ch=1 n=d#5 v=100
24000 On ch=1 n=d#5 v=0
24000 On ch=1 n=a#4 v=0
24600 On ch=1 n=a#4 v=100
24600 On ch=1 n=f5 v=100
24600 On ch=1 n=g#5 v=100
24720 On ch=1 n=g#5 v=0
24720 On ch=1 n=f5 v=0
24720 On ch=1 n=a#4 v=0
24720 On ch=1 n=a#4 v=100
24720 On ch=1 n=f5 v=100
24720 On ch=1 n=g#5 v=100
24840 On ch=1 n=g#5 v=0
24840 On ch=1 n=f5 v=0
24840 On ch=1 n=a#4 v=0
24960 On ch=1 n=a#4 v=100
24960 On ch=1 n=d#5 v=100
24960 On ch=1 n=g5 v=100
25080 On ch=1 n=g5 v=0
25080 On ch=1 n=d#5 v=0
25080 On ch=1 n=a#4 v=0
25080 On ch=1 n=a#4 v=100
25080 On ch=1 n=d#5 v=100
25080 On ch=1 n=g5 v=100
25170 On ch=1 n=g5 v=0
25170 On ch=1 n=d#5 v=0
25170 On ch=1 n=a#4 v=0
25170 On ch=1 n=c5 v=100
25170 On ch=1 n=d#5 v=100
25170 On ch=1 n=g#5 v=100
25200 On ch=1 n=g#5 v=0
25200 On ch=1 n=d#5 v=0
25200 On ch=1 n=c5 v=0
25200 On ch=1 n=a#4 v=100
25200 On ch=1 n=d#5 v=100
25200 On ch=1 n=g5 v=100
25320 On ch=1 n=g5 v=0
25320 On ch=1 n=d#5 v=0
25320 On ch=1 n=a#4 v=0
25320 On ch=1 n=a#4 v=100
25320 On ch=1 n=d#5 v=100
25440 On ch=1 n=d#5 v=0
25440 On ch=1 n=a#4 v=0
25680 On ch=1 n=a#4 v=100
25680 On ch=1 n=f5 v=100
25800 On ch=1 n=f5 v=0
25800 On ch=1 n=a#4 v=0
25800 On ch=1 n=a#4 v=100
25800 On ch=1 n=f5 v=100
25920 On ch=1 n=f5 v=0
25920 On ch=1 n=a#4 v=0
26400 On ch=1 n=a#4 v=100
26400 On ch=1 n=d#5 v=100
26400 On ch=1 n=g5 v=100
26520 On ch=1 n=g5 v=0
26520 On ch=1 n=d#5 v=0
26520 On ch=1 n=a#4 v=0
26520 On ch=1 n=a#4 v=100
26520 On ch=1 n=d#5 v=100
26520 On ch=1 n=g5 v=100
26610 On ch=1 n=g5 v=0
26610 On ch=1 n=d#5 v=0
26610 On ch=1 n=a#4 v=0
26610 On ch=1 n=c5 v=100
26610 On ch=1 n=d#5 v=100
26610 On ch=1 n=g#5 v=100
26640 On ch=1 n=g#5 v=0
26640 On ch=1 n=d#5 v=0
26640 On ch=1 n=c5 v=0
26640 On ch=1 n=a#4 v=100
26640 On ch=1 n=d#5 v=100
26640 On ch=1 n=g5 v=100
26760 On ch=1 n=g5 v=0
26760 On ch=1 n=d#5 v=0
26760 On ch=1 n=a#4 v=0
26760 On ch=1 n=a#4 v=100
26760 On ch=1 n=d#5 v=100
26880 On ch=1 n=d#5 v=0
26880 On ch=1 n=a#4 v=0
27480 On ch=1 n=a#4 v=100
27480 On ch=1 n=f5 v=100
27480 On ch=1 n=g#5 v=100
27600 On ch=1 n=g#5 v=0
27600 On ch=1 n=f5 v=0
27600 On ch=1 n=a#4 v=0
27600 On ch=1 n=a#4 v=100
27600 On ch=1 n=f5 v=100
27600 On ch=1 n=g#5 v=100
27720 On ch=1 n=g#5 v=0
27720 On ch=1 n=f5 v=0
27720 On ch=1 n=a#4 v=0
27840 On ch=1 n=a#4 v=100
27840 On ch=1 n=d#5 v=100
27840 On ch=1 n=g5 v=100
27960 On ch=1 n=g5 v=0
27960 On ch=1 n=d#5 v=0
27960 On ch=1 n=a#4 v=0
27960 On ch=1 n=a#4 v=100
27960 On ch=1 n=d#5 v=100
27960 On ch=1 n=g5 v=100
28050 On ch=1 n=g5 v=0
28050 On ch=1 n=d#5 v=0
28050 On ch=1 n=a#4 v=0
28050 On ch=1 n=c5 v=100
28050 On ch=1 n=d#5 v=100
28050 On ch=1 n=g#5 v=100
28080 On ch=1 n=g#5 v=0
28080 On ch=1 n=d#5 v=0
28080 On ch=1 n=c5 v=0
28080 On ch=1 n=a#4 v=100
28080 On ch=1 n=d#5 v=100
28080 On ch=1 n=g5 v=100
28200 On ch=1 n=g5 v=0
28200 On ch=1 n=d#5 v=0
28200 On ch=1 n=a#4 v=0
28200 On ch=1 n=a#4 v=100
28200 On ch=1 n=d#5 v=100
28320 On ch=1 n=d#5 v=0
28320 On ch=1 n=a#4 v=0
28560 On ch=1 n=a#4 v=100
28560 On ch=1 n=f5 v=100
28680 On ch=1 n=f5 v=0
28680 On ch=1 n=a#4 v=0
28680 On ch=1 n=a#4 v=100
28680 On ch=1 n=f5 v=100
28800 On ch=1 n=f5 v=0
28800 On ch=1 n=a#4 v=0
32760 On ch=1 n=g#5 v=100
32760 On ch=1 n=f5 v=100
32760 On ch=1 n=a#4 v=110
32850 On ch=1 n=f5 v=0
32850 On ch=1 n=g#5 v=0
32850 On ch=1 n=d#5 v=98
32850 On ch=1 n=g5 v=98
32880 On ch=1 n=g5 v=0
32880 On ch=1 n=d#5 v=0
32880 On ch=1 n=d5 v=97
32880 On ch=1 n=f5 v=97
33000 On ch=1 n=f5 v=0
33000 On ch=1 n=d5 v=0
33000 On ch=1 n=f5 v=93
33000 On ch=1 n=g#5 v=93
33120 On ch=1 n=g#5 v=0
33120 On ch=1 n=f5 v=0
33120 On ch=1 n=a#4 v=0
33120 On ch=1 n=d#5 v=90
33120 On ch=1 n=g5 v=90
33360 On ch=1 n=g5 v=0
33360 On ch=1 n=d#5 v=0
33480 On ch=1 n=a4 v=80
33480 On ch=1 n=d#5 v=80
33480 On ch=1 n=f#5 v=80
33840 On ch=1 n=f#5 v=0
33840 On ch=1 n=d#5 v=0
33840 On ch=1 n=a4 v=0
33840 On ch=1 n=a#4 v=80
33840 On ch=1 n=d#5 v=80
33840 On ch=1 n=g5 v=80
33960 On ch=1 n=g5 v=0
33960 On ch=1 n=d#5 v=0
33960 On ch=1 n=a#4 v=0
34200 On ch=1 n=g#5 v=80
34200 On ch=1 n=f5 v=80
34200 On ch=1 n=a#4 v=90
34290 On ch=1 n=f5 v=0
34290 On ch=1 n=g#5 v=0
34290 On ch=1 n=d#5 v=76
34290 On ch=1 n=g5 v=76
34320 On ch=1 n=g5 v=0
34320 On ch=1 n=d#5 v=0
34320 On ch=1 n=d5 v=75
34320 On ch=1 n=f5 v=75
34440 On ch=1 n=f5 v=0
34440 On ch=1 n=d5 v=0
34440 On ch=1 n=f5 v=70
34440 On ch=1 n=g#5 v=70
34560 On ch=1 n=g#5 v=0
34560 On ch=1 n=f5 v=0
34560 On ch=1 n=a#4 v=0
34560 On ch=1 n=d#5 v=64
34560 On ch=1 n=g5 v=64
34680 On ch=1 n=g5 v=0
34680 On ch=1 n=d#5 v=0
34680 Meta TrkEnd
TrkEnd
MTrk
0 Meta 0x21 00
0 Meta TrkName "Lower Bass"
0 PrCh ch=1 p=0
360 On ch=1 n=g#2 v=110
360 On ch=1 n=g#3 v=110
480 On ch=1 n=g#3 v=0
480 On ch=1 n=g#2 v=0
480 On ch=1 n=c5 v=103
480 On ch=1 n=g#4 v=103
480 On ch=1 n=d#4 v=103
600 On ch=1 n=d#4 v=0
600 On ch=1 n=g#4 v=0
600 On ch=1 n=c5 v=0
600 On ch=1 n=g#4 v=107
600 On ch=1 n=c5 v=107
600 On ch=1 n=d#4 v=107
720 On ch=1 n=d#4 v=0
720 On ch=1 n=c5 v=0
720 On ch=1 n=g#4 v=0
720 On ch=1 n=d#2 v=120
720 On ch=1 n=d#3 v=120
840 On ch=1 n=d#3 v=0
840 On ch=1 n=d#2 v=0
840 On ch=1 n=g4 v=107
840 On ch=1 n=d#4 v=107
840 On ch=1 n=a#3 v=107
960 On ch=1 n=a#3 v=0
960 On ch=1 n=d#4 v=0
960 On ch=1 n=g4 v=0
960 On ch=1 n=a#3 v=103
960 On ch=1 n=d#4 v=103
960 On ch=1 n=g4 v=103
1080 On ch=1 n=g4 v=0
1080 On ch=1 n=d#4 v=0
1080 On ch=1 n=a#3 v=0
1080 On ch=1 n=a#2 v=110
1080 On ch=1 n=a#3 v=110
1200 On ch=1 n=a#3 v=0
1200 On ch=1 n=a#2 v=0
1200 On ch=1 n=d5 v=100
1200 On ch=1 n=a#4 v=100
1200 On ch=1 n=f4 v=100
1320 On ch=1 n=f4 v=0
1320 On ch=1 n=a#4 v=0
1320 On ch=1 n=d5 v=0
1320 On ch=1 n=f4 v=100
1320 On ch=1 n=a#4 v=100
1320 On ch=1 n=d5 v=100
1440 On ch=1 n=d5 v=0
1440 On ch=1 n=a#4 v=0
1440 On ch=1 n=f4 v=0
1440 On ch=1 n=d#2 v=110
1440 On ch=1 n=d#3 v=110
1560 On ch=1 n=d#3 v=0
1560 On ch=1 n=d#2 v=0
1560 On ch=1 n=d#5 v=100
1560 On ch=1 n=a#4 v=100
1560 On ch=1 n=d#4 v=100
1680 On ch=1 n=d#4 v=0
1680 On ch=1 n=a#4 v=0
1680 On ch=1 n=d#5 v=0
1680 On ch=1 n=d#4 v=100
1680 On ch=1 n=g4 v=100
1680 On ch=1 n=d#5 v=100
1800 On ch=1 n=d#5 v=0
1800 On ch=1 n=g4 v=0
1800 On ch=1 n=d#4 v=0
1800 On ch=1 n=g#2 v=110
1800 On ch=1 n=g#3 v=110
1920 On ch=1 n=g#3 v=0
1920 On ch=1 n=g#2 v=0
1920 On ch=1 n=c5 v=103
1920 On ch=1 n=g#4 v=103
1920 On ch=1 n=d#4 v=103
2040 On ch=1 n=d#4 v=0
2040 On ch=1 n=g#4 v=0
2040 On ch=1 n=c5 v=0
2040 On ch=1 n=g#4 v=107
2040 On ch=1 n=c5 v=107
2040 On ch=1 n=d#4 v=107
2160 On ch=1 n=d#4 v=0
2160 On ch=1 n=c5 v=0
2160 On ch=1 n=g#4 v=0
2160 On ch=1 n=d#3 v=120
2280 On ch=1 n=d#3 v=0
2280 On ch=1 n=g4 v=107
2280 On ch=1 n=d#4 v=107
2280 On ch=1 n=a#3 v=107
2400 On ch=1 n=a#3 v=0
2400 On ch=1 n=d#4 v=0
2400 On ch=1 n=g4 v=0
2400 On ch=1 n=a#3 v=103
2400 On ch=1 n=d#4 v=103
2400 On ch=1 n=g4 v=103
2520 On ch=1 n=g4 v=0
2520 On ch=1 n=d#4 v=0
2520 On ch=1 n=a#3 v=0
2520 On ch=1 n=a#2 v=110
2520 On ch=1 n=a#3 v=110
2640 On ch=1 n=a#3 v=0
2640 On ch=1 n=a#2 v=0
2640 On ch=1 n=d5 v=100
2640 On ch=1 n=a#4 v=100
2640 On ch=1 n=f4 v=100
2760 On ch=1 n=f4 v=0
2760 On ch=1 n=a#4 v=0
2760 On ch=1 n=d5 v=0
2760 On ch=1 n=f4 v=100
2760 On ch=1 n=a#4 v=100
2760 On ch=1 n=d5 v=100
2880 On ch=1 n=d5 v=0
2880 On ch=1 n=a#4 v=0
2880 On ch=1 n=f4 v=0
2880 On ch=1 n=d#5 v=100
2880 On ch=1 n=a#4 v=100
2880 On ch=1 n=d#4 v=100
3000 On ch=1 n=d#4 v=0
3000 On ch=1 n=a#4 v=0
3000 On ch=1 n=d#5 v=0
3000 On ch=1 n=d#3 v=100
3120 On ch=1 n=d#3 v=0
3240 On ch=1 n=g#2 v=110
3240 On ch=1 n=g#3 v=110
3360 On ch=1 n=g#3 v=0
3360 On ch=1 n=g#2 v=0
3360 On ch=1 n=c5 v=103
3360 On ch=1 n=g#4 v=103
3360 On ch=1 n=d#4 v=103
3480 On ch=1 n=d#4 v=0
3480 On ch=1 n=g#4 v=0
3480 On ch=1 n=c5 v=0
3480 On ch=1 n=g#4 v=107
3480 On ch=1 n=c5 v=107
3480 On ch=1 n=d#4 v=107
3600 On ch=1 n=d#4 v=0
3600 On ch=1 n=c5 v=0
3600 On ch=1 n=g#4 v=0
3600 On ch=1 n=d#2 v=120
3600 On ch=1 n=d#3 v=120
3720 On ch=1 n=d#3 v=0
3720 On ch=1 n=d#2 v=0
3720 On ch=1 n=g4 v=107
3720 On ch=1 n=d#4 v=107
3720 On ch=1 n=a#3 v=107
3840 On ch=1 n=a#3 v=0
3840 On ch=1 n=d#4 v=0
3840 On ch=1 n=g4 v=0
3840 On ch=1 n=a#3 v=103
3840 On ch=1 n=d#4 v=103
3840 On ch=1 n=g4 v=103
3960 On ch=1 n=g4 v=0
3960 On ch=1 n=d#4 v=0
3960 On ch=1 n=a#3 v=0
3960 On ch=1 n=a#2 v=110
3960 On ch=1 n=a#3 v=110
4080 On ch=1 n=a#3 v=0
4080 On ch=1 n=a#2 v=0
4080 On ch=1 n=d5 v=100
4080 On ch=1 n=a#4 v=100
4080 On ch=1 n=f4 v=100
4200 On ch=1 n=f4 v=0
4200 On ch=1 n=a#4 v=0
4200 On ch=1 n=d5 v=0
4200 On ch=1 n=f4 v=100
4200 On ch=1 n=a#4 v=100
4200 On ch=1 n=d5 v=100
4320 On ch=1 n=d5 v=0
4320 On ch=1 n=a#4 v=0
4320 On ch=1 n=f4 v=0
4320 On ch=1 n=d#2 v=110
4320 On ch=1 n=d#3 v=110
4440 On ch=1 n=d#3 v=0
4440 On ch=1 n=d#2 v=0
4440 On ch=1 n=d#5 v=100
4440 On ch=1 n=a#4 v=100
4440 On ch=1 n=d#4 v=100
4560 On ch=1 n=d#4 v=0
4560 On ch=1 n=a#4 v=0
4560 On ch=1 n=d#5 v=0
4560 On ch=1 n=d#4 v=100
4560 On ch=1 n=g4 v=100
4560 On ch=1 n=d#5 v=100
4680 On ch=1 n=d#5 v=0
4680 On ch=1 n=g4 v=0
4680 On ch=1 n=d#4 v=0
4680 On ch=1 n=g#2 v=110
4680 On ch=1 n=g#3 v=110
4800 On ch=1 n=g#3 v=0
4800 On ch=1 n=g#2 v=0
4800 On ch=1 n=c5 v=103
4800 On ch=1 n=g#4 v=103
4800 On ch=1 n=d#4 v=103
4920 On ch=1 n=d#4 v=0
4920 On ch=1 n=g#4 v=0
4920 On ch=1 n=c5 v=0
4920 On ch=1 n=g#4 v=107
4920 On ch=1 n=c5 v=107
4920 On ch=1 n=d#4 v=107
5040 On ch=1 n=d#4 v=0
5040 On ch=1 n=c5 v=0
5040 On ch=1 n=g#4 v=0
5040 On ch=1 n=d#3 v=120
5160 On ch=1 n=d#3 v=0
5160 On ch=1 n=g4 v=107
5160 On ch=1 n=d#4 v=107
5160 On ch=1 n=a#3 v=107
5280 On ch=1 n=a#3 v=0
5280 On ch=1 n=d#4 v=0
5280 On ch=1 n=g4 v=0
5280 On ch=1 n=a#3 v=103
5280 On ch=1 n=d#4 v=103
5280 On ch=1 n=g4 v=103
5400 On ch=1 n=g4 v=0
5400 On ch=1 n=d#4 v=0
5400 On ch=1 n=a#3 v=0
5400 On ch=1 n=a#2 v=110
5400 On ch=1 n=a#3 v=110
5520 On ch=1 n=a#3 v=0
5520 On ch=1 n=a#2 v=0
5520 On ch=1 n=d5 v=100
5520 On ch=1 n=a#4 v=100
5520 On ch=1 n=f4 v=100
5640 On ch=1 n=f4 v=0
5640 On ch=1 n=a#4 v=0
5640 On ch=1 n=d5 v=0
5640 On ch=1 n=f4 v=100
5640 On ch=1 n=a#4 v=100
5640 On ch=1 n=d5 v=100
5760 On ch=1 n=d5 v=0
5760 On ch=1 n=a#4 v=0
5760 On ch=1 n=f4 v=0
5760 On ch=1 n=d#5 v=100
5760 On ch=1 n=a#4 v=100
5760 On ch=1 n=d#4 v=100
5880 On ch=1 n=d#4 v=0
5880 On ch=1 n=a#4 v=0
5880 On ch=1 n=d#5 v=0
5880 On ch=1 n=d#3 v=100
6000 On ch=1 n=d#3 v=0
6120 On ch=1 n=a#3 v=110
6240 On ch=1 n=a#3 v=0
6240 On ch=1 n=d5 v=100
6240 On ch=1 n=a#4 v=100
6240 On ch=1 n=f4 v=100
6360 On ch=1 n=f4 v=0
6360 On ch=1 n=a#4 v=0
6360 On ch=1 n=d5 v=0
6360 On ch=1 n=a#4 v=100
6360 On ch=1 n=d5 v=100
6360 On ch=1 n=f4 v=100
6480 On ch=1 n=f4 v=0
6480 On ch=1 n=d5 v=0
6480 On ch=1 n=a#4 v=0
6480 On ch=1 n=d#3 v=110
6600 On ch=1 n=d#3 v=0
6600 On ch=1 n=d#5 v=100
6600 On ch=1 n=a#4 v=100
6600 On ch=1 n=d#4 v=100
6720 On ch=1 n=d#4 v=0
6720 On ch=1 n=a#4 v=0
6720 On ch=1 n=d#5 v=0
6720 On ch=1 n=d#4 v=100
6720 On ch=1 n=a#4 v=100
6720 On ch=1 n=d#5 v=100
6840 On ch=1 n=d#5 v=0
6840 On ch=1 n=a#4 v=0
6840 On ch=1 n=d#4 v=0
6840 On ch=1 n=a#3 v=110
6960 On ch=1 n=a#3 v=0
6960 On ch=1 n=d5 v=100
6960 On ch=1 n=a#4 v=100
6960 On ch=1 n=f4 v=100
7080 On ch=1 n=f4 v=0
7080 On ch=1 n=a#4 v=0
7080 On ch=1 n=d5 v=0
7080 On ch=1 n=f4 v=100
7080 On ch=1 n=a#4 v=100
7080 On ch=1 n=d5 v=100
7200 On ch=1 n=d5 v=0
7200 On ch=1 n=a#4 v=0
7200 On ch=1 n=f4 v=0
7200 On ch=1 n=d#3 v=110
7320 On ch=1 n=d#3 v=0
7320 On ch=1 n=d#5 v=100
7320 On ch=1 n=a#4 v=100
7320 On ch=1 n=g4 v=100
7440 On ch=1 n=g4 v=0
7440 On ch=1 n=a#4 v=0
7440 On ch=1 n=d#5 v=0
7440 On ch=1 n=g4 v=100
7440 On ch=1 n=a#4 v=100
7440 On ch=1 n=d#5 v=100
7560 On ch=1 n=d#5 v=0
7560 On ch=1 n=a#4 v=0
7560 On ch=1 n=g4 v=0
7560 On ch=1 n=a#3 v=110
7680 On ch=1 n=a#3 v=0
7680 On ch=1 n=d5 v=100
7680 On ch=1 n=a#4 v=100
7680 On ch=1 n=f4 v=100
7800 On ch=1 n=f4 v=0
7800 On ch=1 n=a#4 v=0
7800 On ch=1 n=d5 v=0
7800 On ch=1 n=a#4 v=100
7800 On ch=1 n=d5 v=100
7800 On ch=1 n=f4 v=100
7920 On ch=1 n=f4 v=0
7920 On ch=1 n=d5 v=0
7920 On ch=1 n=a#4 v=0
7920 On ch=1 n=d#3 v=110
8040 On ch=1 n=d#3 v=0
8040 On ch=1 n=d#5 v=100
8040 On ch=1 n=a#4 v=100
8040 On ch=1 n=d#4 v=100
8160 On ch=1 n=d#4 v=0
8160 On ch=1 n=a#4 v=0
8160 On ch=1 n=d#5 v=0
8160 On ch=1 n=d#4 v=100
8160 On ch=1 n=a#4 v=100
8160 On ch=1 n=d#5 v=100
8280 On ch=1 n=d#5 v=0
8280 On ch=1 n=a#4 v=0
8280 On ch=1 n=d#4 v=0
8280 On ch=1 n=a#3 v=110
8400 On ch=1 n=a#3 v=0
8400 On ch=1 n=d5 v=100
8400 On ch=1 n=a#4 v=100
8400 On ch=1 n=f4 v=100
8520 On ch=1 n=f4 v=0
8520 On ch=1 n=a#4 v=0
8520 On ch=1 n=d5 v=0
8520 On ch=1 n=f4 v=100
8520 On ch=1 n=a#4 v=100
8520 On ch=1 n=d5 v=100
8640 On ch=1 n=d5 v=0
8640 On ch=1 n=a#4 v=0
8640 On ch=1 n=f4 v=0
8640 On ch=1 n=d#5 v=100
8640 On ch=1 n=a#4 v=100
8640 On ch=1 n=d#4 v=100
8760 On ch=1 n=d#4 v=0
8760 On ch=1 n=a#4 v=0
8760 On ch=1 n=d#5 v=0
8760 On ch=1 n=a#3 v=100
8880 On ch=1 n=a#3 v=0
8880 On ch=1 n=d#3 v=100
9000 On ch=1 n=d#3 v=0
9000 On ch=1 n=a#3 v=110
9120 On ch=1 n=a#3 v=0
9120 On ch=1 n=d5 v=100
9120 On ch=1 n=a#4 v=100
9120 On ch=1 n=f4 v=100
9240 On ch=1 n=f4 v=0
9240 On ch=1 n=a#4 v=0
9240 On ch=1 n=d5 v=0
9240 On ch=1 n=a#4 v=100
9240 On ch=1 n=d5 v=100
9240 On ch=1 n=f4 v=100
9360 On ch=1 n=f4 v=0
9360 On ch=1 n=d5 v=0
9360 On ch=1 n=a#4 v=0
9360 On ch=1 n=d#3 v=110
9480 On ch=1 n=d#3 v=0
9480 On ch=1 n=d#5 v=100
9480 On ch=1 n=a#4 v=100
9480 On ch=1 n=d#4 v=100
9600 On ch=1 n=d#4 v=0
9600 On ch=1 n=a#4 v=0
9600 On ch=1 n=d#5 v=0
9600 On ch=1 n=d#4 v=100
9600 On ch=1 n=a#4 v=100
9600 On ch=1 n=d#5 v=100
9720 On ch=1 n=d#5 v=0
9720 On ch=1 n=a#4 v=0
9720 On ch=1 n=d#4 v=0
9720 On ch=1 n=a#3 v=110
9840 On ch=1 n=a#3 v=0
9840 On ch=1 n=d5 v=100
9840 On ch=1 n=a#4 v=100
9840 On ch=1 n=f4 v=100
9960 On ch=1 n=f4 v=0
9960 On ch=1 n=a#4 v=0
9960 On ch=1 n=d5 v=0
9960 On ch=1 n=f4 v=100
9960 On ch=1 n=a#4 v=100
9960 On ch=1 n=d5 v=100
10080 On ch=1 n=d5 v=0
10080 On ch=1 n=a#4 v=0
10080 On ch=1 n=f4 v=0
10080 On ch=1 n=d#3 v=110
10200 On ch=1 n=d#3 v=0
10200 On ch=1 n=d#5 v=100
10200 On ch=1 n=a#4 v=100
10200 On ch=1 n=g4 v=100
10320 On ch=1 n=g4 v=0
10320 On ch=1 n=a#4 v=0
10320 On ch=1 n=d#5 v=0
10320 On ch=1 n=g4 v=100
10320 On ch=1 n=a#4 v=100
10320 On ch=1 n=d#5 v=100
10440 On ch=1 n=d#5 v=0
10440 On ch=1 n=a#4 v=0
10440 On ch=1 n=g4 v=0
10440 On ch=1 n=a#3 v=110
10560 On ch=1 n=a#3 v=0
10560 On ch=1 n=d5 v=100
10560 On ch=1 n=a#4 v=100
10560 On ch=1 n=f4 v=100
10680 On ch=1 n=f4 v=0
10680 On ch=1 n=a#4 v=0
10680 On ch=1 n=d5 v=0
10680 On ch=1 n=a#4 v=100
10680 On ch=1 n=d5 v=100
10680 On ch=1 n=f4 v=100
10800 On ch=1 n=f4 v=0
10800 On ch=1 n=d5 v=0
10800 On ch=1 n=a#4 v=0
10800 On ch=1 n=d#3 v=110
10920 On ch=1 n=d#3 v=0
10920 On ch=1 n=d#5 v=100
10920 On ch=1 n=a#4 v=100
10920 On ch=1 n=d#4 v=100
11040 On ch=1 n=d#4 v=0
11040 On ch=1 n=a#4 v=0
11040 On ch=1 n=d#5 v=0
11040 On ch=1 n=d#4 v=100
11040 On ch=1 n=a#4 v=100
11040 On ch=1 n=d#5 v=100
11160 On ch=1 n=d#5 v=0
11160 On ch=1 n=a#4 v=0
11160 On ch=1 n=d#4 v=0
11160 On ch=1 n=a#3 v=110
11280 On ch=1 n=a#3 v=0
11280 On ch=1 n=d5 v=100
11280 On ch=1 n=a#4 v=100
11280 On ch=1 n=f4 v=100
11400 On ch=1 n=f4 v=0
11400 On ch=1 n=a#4 v=0
11400 On ch=1 n=d5 v=0
11400 On ch=1 n=f4 v=100
11400 On ch=1 n=a#4 v=100
11400 On ch=1 n=d5 v=100
11520 On ch=1 n=d5 v=0
11520 On ch=1 n=a#4 v=0
11520 On ch=1 n=f4 v=0
11520 On ch=1 n=d#5 v=100
11520 On ch=1 n=a#4 v=100
11520 On ch=1 n=d#4 v=100
11640 On ch=1 n=d#4 v=0
11640 On ch=1 n=a#4 v=0
11640 On ch=1 n=d#5 v=0
11640 On ch=1 n=d#3 v=100
11760 On ch=1 n=d#3 v=0
11880 On ch=1 n=g#2 v=110
11880 On ch=1 n=g#3 v=110
12000 On ch=1 n=g#3 v=0
12000 On ch=1 n=g#2 v=0
12000 On ch=1 n=c5 v=103
12000 On ch=1 n=g#4 v=103
12000 On ch=1 n=d#4 v=103
12120 On ch=1 n=d#4 v=0
12120 On ch=1 n=g#4 v=0
12120 On ch=1 n=c5 v=0
12120 On ch=1 n=g#4 v=107
12120 On ch=1 n=c5 v=107
12120 On ch=1 n=d#4 v=107
12240 On ch=1 n=d#4 v=0
12240 On ch=1 n=c5 v=0
12240 On ch=1 n=g#4 v=0
12240 On ch=1 n=d#2 v=120
12240 On ch=1 n=d#3 v=120
12360 On ch=1 n=d#3 v=0
12360 On ch=1 n=d#2 v=0
12360 On ch=1 n=g4 v=107
12360 On ch=1 n=d#4 v=107
12360 On ch=1 n=a#3 v=107
12480 On ch=1 n=a#3 v=0
12480 On ch=1 n=d#4 v=0
12480 On ch=1 n=g4 v=0
12480 On ch=1 n=a#3 v=103
12480 On ch=1 n=d#4 v=103
12480 On ch=1 n=g4 v=103
12600 On ch=1 n=g4 v=0
12600 On ch=1 n=d#4 v=0
12600 On ch=1 n=a#3 v=0
12600 On ch=1 n=a#2 v=110
12600 On ch=1 n=a#3 v=110
12720 On ch=1 n=a#3 v=0
12720 On ch=1 n=a#2 v=0
12720 On ch=1 n=d5 v=100
12720 On ch=1 n=a#4 v=100
12720 On ch=1 n=f4 v=100
12840 On ch=1 n=f4 v=0
12840 On ch=1 n=a#4 v=0
12840 On ch=1 n=d5 v=0
12840 On ch=1 n=f4 v=100
12840 On ch=1 n=a#4 v=100
12840 On ch=1 n=d5 v=100
12960 On ch=1 n=d5 v=0
12960 On ch=1 n=a#4 v=0
12960 On ch=1 n=f4 v=0
12960 On ch=1 n=d#2 v=110
12960 On ch=1 n=d#3 v=110
13080 On ch=1 n=d#3 v=0
13080 On ch=1 n=d#2 v=0
13080 On ch=1 n=d#5 v=100
13080 On ch=1 n=a#4 v=100
13080 On ch=1 n=d#4 v=100
13200 On ch=1 n=d#4 v=0
13200 On ch=1 n=a#4 v=0
13200 On ch=1 n=d#5 v=0
13200 On ch=1 n=d#4 v=100
13200 On ch=1 n=g4 v=100
13200 On ch=1 n=d#5 v=100
13320 On ch=1 n=d#5 v=0
13320 On ch=1 n=g4 v=0
13320 On ch=1 n=d#4 v=0
13320 On ch=1 n=g#2 v=110
13320 On ch=1 n=g#3 v=110
13440 On ch=1 n=g#3 v=0
13440 On ch=1 n=g#2 v=0
13440 On ch=1 n=c5 v=103
13440 On ch=1 n=g#4 v=103
13440 On ch=1 n=d#4 v=103
13560 On ch=1 n=d#4 v=0
13560 On ch=1 n=g#4 v=0
13560 On ch=1 n=c5 v=0
13560 On ch=1 n=d#4 v=107
13560 On ch=1 n=g#4 v=107
13560 On ch=1 n=c5 v=107
13680 On ch=1 n=c5 v=0
13680 On ch=1 n=g#4 v=0
13680 On ch=1 n=d#4 v=0
13680 On ch=1 n=d#3 v=120
13800 On ch=1 n=d#3 v=0
13800 On ch=1 n=g4 v=107
13800 On ch=1 n=d#4 v=107
13800 On ch=1 n=a#3 v=107
13920 On ch=1 n=a#3 v=0
13920 On ch=1 n=d#4 v=0
13920 On ch=1 n=g4 v=0
13920 On ch=1 n=a#3 v=103
13920 On ch=1 n=d#4 v=103
13920 On ch=1 n=g4 v=103
14040 On ch=1 n=g4 v=0
14040 On ch=1 n=d#4 v=0
14040 On ch=1 n=a#3 v=0
14040 On ch=1 n=a#2 v=110
14040 On ch=1 n=a#3 v=110
14160 On ch=1 n=a#3 v=0
14160 On ch=1 n=a#2 v=0
14160 On ch=1 n=d5 v=100
14160 On ch=1 n=a#4 v=100
14160 On ch=1 n=f4 v=100
14280 On ch=1 n=f4 v=0
14280 On ch=1 n=a#4 v=0
14280 On ch=1 n=d5 v=0
14280 On ch=1 n=f4 v=100
14280 On ch=1 n=a#4 v=100
14280 On ch=1 n=d5 v=100
14400 On ch=1 n=d5 v=0
14400 On ch=1 n=a#4 v=0
14400 On ch=1 n=f4 v=0
14400 On ch=1 n=d#5 v=100
14400 On ch=1 n=a#4 v=100
14400 On ch=1 n=d#4 v=100
14520 On ch=1 n=d#4 v=0
14520 On ch=1 n=a#4 v=0
14520 On ch=1 n=d#5 v=0
14520 On ch=1 n=d#3 v=100
14640 On ch=1 n=d#3 v=0
14730 On ch=1 n=d#3 v=100
14730 On ch=1 n=d#4 v=100
14745 On ch=1 n=d#4 v=0
14745 On ch=1 n=d#3 v=0
14745 On ch=1 n=d3 v=100
14745 On ch=1 n=d4 v=100
14760 On ch=1 n=d4 v=0
14760 On ch=1 n=d3 v=0
14760 On ch=1 n=c3 v=100
14760 On ch=1 n=c4 v=100
14880 On ch=1 n=c4 v=0
14880 On ch=1 n=c3 v=0
14880 On ch=1 n=c4 v=100
14880 On ch=1 n=c5 v=100
15000 On ch=1 n=c5 v=0
15000 On ch=1 n=c4 v=0
15000 On ch=1 n=a#3 v=100
15000 On ch=1 n=a#4 v=100
15060 On ch=1 n=a#4 v=0
15060 On ch=1 n=a#3 v=0
15060 On ch=1 n=g#3 v=100
15060 On ch=1 n=g#4 v=100
15120 On ch=1 n=g#4 v=0
15120 On ch=1 n=g#3 v=0
15120 On ch=1 n=g3 v=100
15120 On ch=1 n=g4 v=100
15240 On ch=1 n=g4 v=0
15240 On ch=1 n=g3 v=0
15240 On ch=1 n=g3 v=100
15240 On ch=1 n=g4 v=100
15270 On ch=1 n=g4 v=0
15270 On ch=1 n=g3 v=0
15360 On ch=1 n=g2 v=100
15360 On ch=1 n=g3 v=100
15450 On ch=1 n=d#3 v=100
15450 On ch=1 n=d#4 v=100
15465 On ch=1 n=d#4 v=0
15465 On ch=1 n=d#3 v=0
15465 On ch=1 n=d3 v=100
15465 On ch=1 n=d4 v=100
15480 On ch=1 n=d4 v=0
15480 On ch=1 n=g2 v=0
15480 On ch=1 n=g3 v=0
15480 On ch=1 n=d3 v=0
15480 On ch=1 n=c3 v=100
15480 On ch=1 n=c4 v=100
15600 On ch=1 n=c4 v=0
15600 On ch=1 n=c3 v=0
15600 On ch=1 n=d#5 v=100
15600 On ch=1 n=d#4 v=100
15720 On ch=1 n=d#4 v=0
15720 On ch=1 n=d#5 v=0
15720 On ch=1 n=c4 v=100
15720 On ch=1 n=c5 v=100
15780 On ch=1 n=c5 v=0
15780 On ch=1 n=c4 v=0
15780 On ch=1 n=g#3 v=100
15780 On ch=1 n=g#4 v=100
15840 On ch=1 n=g#4 v=0
15840 On ch=1 n=g#3 v=0
15840 On ch=1 n=g3 v=100
15840 On ch=1 n=g4 v=100
15960 On ch=1 n=g4 v=0
15960 On ch=1 n=g3 v=0
15960 On ch=1 n=g3 v=100
15960 On ch=1 n=g4 v=100
15990 On ch=1 n=g4 v=0
15990 On ch=1 n=g3 v=0
16080 On ch=1 n=g2 v=100
16080 On ch=1 n=g3 v=100
16200 On ch=1 n=g3 v=0
16200 On ch=1 n=g2 v=0
16200 On ch=1 n=d#3 v=70
16320 On ch=1 n=d#3 v=0
16560 On ch=1 n=d#3 v=70
16680 On ch=1 n=d#3 v=0
16920 On ch=1 n=a#3 v=70
17040 On ch=1 n=a#3 v=0
17400 On ch=1 n=d#3 v=60
17400 On ch=1 n=d#4 v=60
17430 On ch=1 n=d#4 v=0
17430 On ch=1 n=d#3 v=0
17520 On ch=1 n=d3 v=60
17520 On ch=1 n=d4 v=60
17550 On ch=1 n=d4 v=0
17550 On ch=1 n=d3 v=0
17610 On ch=1 n=d#3 v=100
17610 On ch=1 n=d#4 v=100
17625 On ch=1 n=d#4 v=0
17625 On ch=1 n=d#3 v=0
17625 On ch=1 n=d3 v=100
17625 On ch=1 n=d4 v=100
17640 On ch=1 n=d4 v=0
17640 On ch=1 n=d3 v=0
17640 On ch=1 n=c3 v=100
17640 On ch=1 n=c4 v=100
17760 On ch=1 n=c4 v=0
17760 On ch=1 n=c3 v=0
17760 On ch=1 n=c4 v=100
17760 On ch=1 n=c5 v=100
17880 On ch=1 n=c5 v=0
17880 On ch=1 n=c4 v=0
17880 On ch=1 n=a#3 v=100
17880 On ch=1 n=a#4 v=100
17940 On ch=1 n=a#4 v=0
17940 On ch=1 n=a#3 v=0
17940 On ch=1 n=g#3 v=100
17940 On ch=1 n=g#4 v=100
18000 On ch=1 n=g#4 v=0
18000 On ch=1 n=g#3 v=0
18000 On ch=1 n=g3 v=100
18000 On ch=1 n=g4 v=100
18120 On ch=1 n=g4 v=0
18120 On ch=1 n=g3 v=0
18120 On ch=1 n=g3 v=100
18120 On ch=1 n=g4 v=100
18150 On ch=1 n=g4 v=0
18150 On ch=1 n=g3 v=0
18240 On ch=1 n=g2 v=100
18240 On ch=1 n=g3 v=100
18330 On ch=1 n=d#3 v=100
18330 On ch=1 n=d#4 v=100
18345 On ch=1 n=d#4 v=0
18345 On ch=1 n=d#3 v=0
18345 On ch=1 n=d3 v=100
18345 On ch=1 n=d4 v=100
18360 On ch=1 n=d4 v=0
18360 On ch=1 n=g2 v=0
18360 On ch=1 n=g3 v=0
18360 On ch=1 n=d3 v=0
18360 On ch=1 n=c3 v=100
18360 On ch=1 n=c4 v=100
18480 On ch=1 n=c4 v=0
18480 On ch=1 n=c3 v=0
18480 On ch=1 n=d#5 v=100
18480 On ch=1 n=d#4 v=100
18600 On ch=1 n=d#4 v=0
18600 On ch=1 n=d#5 v=0
18600 On ch=1 n=c4 v=100
18600 On ch=1 n=c5 v=100
18660 On ch=1 n=c5 v=0
18660 On ch=1 n=c4 v=0
18660 On ch=1 n=g#3 v=100
18660 On ch=1 n=g#4 v=100
18720 On ch=1 n=g#4 v=0
18720 On ch=1 n=g#3 v=0
18720 On ch=1 n=g3 v=100
18720 On ch=1 n=g4 v=100
18840 On ch=1 n=g4 v=0
18840 On ch=1 n=g3 v=0
18840 On ch=1 n=g3 v=100
18840 On ch=1 n=g4 v=100
18870 On ch=1 n=g4 v=0
18870 On ch=1 n=g3 v=0
18960 On ch=1 n=g2 v=100
18960 On ch=1 n=g3 v=100
19080 On ch=1 n=g3 v=0
19080 On ch=1 n=g2 v=0
19080 On ch=1 n=d#3 v=70
19200 On ch=1 n=d#3 v=0
19440 On ch=1 n=d#3 v=70
19560 On ch=1 n=d#3 v=0
19800 On ch=1 n=a#3 v=70
19920 On ch=1 n=a#3 v=0
20160 On ch=1 n=d#5 v=60
20160 On ch=1 n=a#4 v=60
20160 On ch=1 n=d#4 v=60
20190 On ch=1 n=d#4 v=0
20190 On ch=1 n=a#4 v=0
20190 On ch=1 n=d#5 v=0
20280 On ch=1 n=d#3 v=60
20310 On ch=1 n=d#3 v=0
20520 On ch=1 n=g#2 v=110
20520 On ch=1 n=g#3 v=110
20640 On ch=1 n=g#3 v=0
20640 On ch=1 n=g#2 v=0
20640 On ch=1 n=c5 v=103
20640 On ch=1 n=g#4 v=103
20640 On ch=1 n=d#4 v=103
20760 On ch=1 n=d#4 v=0
20760 On ch=1 n=g#4 v=0
20760 On ch=1 n=c5 v=0
20760 On ch=1 n=g#4 v=107
20760 On ch=1 n=c5 v=107
20760 On ch=1 n=d#4 v=107
20880 On ch=1 n=d#4 v=0
20880 On ch=1 n=c5 v=0
20880 On ch=1 n=g#4 v=0
20880 On ch=1 n=d#2 v=120
20880 On ch=1 n=d#3 v=120
21000 On ch=1 n=d#3 v=0
21000 On ch=1 n=d#2 v=0
21000 On ch=1 n=g4 v=107
21000 On ch=1 n=d#4 v=107
21000 On ch=1 n=a#3 v=107
21120 On ch=1 n=a#3 v=0
21120 On ch=1 n=d#4 v=0
21120 On ch=1 n=g4 v=0
21120 On ch=1 n=a#3 v=103
21120 On ch=1 n=d#4 v=103
21120 On ch=1 n=g4 v=103
21240 On ch=1 n=g4 v=0
21240 On ch=1 n=d#4 v=0
21240 On ch=1 n=a#3 v=0
21240 On ch=1 n=a#2 v=110
21240 On ch=1 n=a#3 v=110
21360 On ch=1 n=a#3 v=0
21360 On ch=1 n=a#2 v=0
21360 On ch=1 n=d5 v=100
21360 On ch=1 n=a#4 v=100
21360 On ch=1 n=f4 v=100
21480 On ch=1 n=f4 v=0
21480 On ch=1 n=a#4 v=0
21480 On ch=1 n=d5 v=0
21480 On ch=1 n=f4 v=100
21480 On ch=1 n=a#4 v=100
21480 On ch=1 n=d5 v=100
21600 On ch=1 n=d5 v=0
21600 On ch=1 n=a#4 v=0
21600 On ch=1 n=f4 v=0
21600 On ch=1 n=d#2 v=110
21600 On ch=1 n=d#3 v=110
21720 On ch=1 n=d#3 v=0
21720 On ch=1 n=d#2 v=0
21720 On ch=1 n=d#5 v=100
21720 On ch=1 n=a#4 v=100
21720 On ch=1 n=d#4 v=100
21840 On ch=1 n=d#4 v=0
21840 On ch=1 n=a#4 v=0
21840 On ch=1 n=d#5 v=0
21840 On ch=1 n=d#4 v=100
21840 On ch=1 n=g4 v=100
21840 On ch=1 n=d#5 v=100
21960 On ch=1 n=d#5 v=0
21960 On ch=1 n=g4 v=0
21960 On ch=1 n=d#4 v=0
21960 On ch=1 n=g#2 v=110
21960 On ch=1 n=g#3 v=110
22080 On ch=1 n=g#3 v=0
22080 On ch=1 n=g#2 v=0
22080 On ch=1 n=c5 v=103
22080 On ch=1 n=g#4 v=103
22080 On ch=1 n=d#4 v=103
22200 On ch=1 n=d#4 v=0
22200 On ch=1 n=g#4 v=0
22200 On ch=1 n=c5 v=0
22200 On ch=1 n=g#4 v=107
22200 On ch=1 n=c5 v=107
22200 On ch=1 n=d#4 v=107
22320 On ch=1 n=d#4 v=0
22320 On ch=1 n=c5 v=0
22320 On ch=1 n=g#4 v=0
22320 On ch=1 n=d#3 v=120
22440 On ch=1 n=d#3 v=0
22440 On ch=1 n=g4 v=107
22440 On ch=1 n=d#4 v=107
22440 On ch=1 n=a#3 v=107
22560 On ch=1 n=a#3 v=0
22560 On ch=1 n=d#4 v=0
22560 On ch=1 n=g4 v=0
22560 On ch=1 n=a#3 v=103
22560 On ch=1 n=d#4 v=103
22560 On ch=1 n=g4 v=103
22680 On ch=1 n=g4 v=0
22680 On ch=1 n=d#4 v=0
22680 On ch=1 n=a#3 v=0
22680 On ch=1 n=a#2 v=110
22680 On ch=1 n=a#3 v=110
22800 On ch=1 n=a#3 v=0
22800 On ch=1 n=a#2 v=0
22800 On ch=1 n=d5 v=100
22800 On ch=1 n=a#4 v=100
22800 On ch=1 n=f4 v=100
22920 On ch=1 n=f4 v=0
22920 On ch=1 n=a#4 v=0
22920 On ch=1 n=d5 v=0
22920 On ch=1 n=f4 v=100
22920 On ch=1 n=a#4 v=100
22920 On ch=1 n=d5 v=100
23040 On ch=1 n=d5 v=0
23040 On ch=1 n=a#4 v=0
23040 On ch=1 n=f4 v=0
23040 On ch=1 n=d#5 v=100
23040 On ch=1 n=a#4 v=100
23040 On ch=1 n=d#4 v=100
23160 On ch=1 n=d#4 v=0
23160 On ch=1 n=a#4 v=0
23160 On ch=1 n=d#5 v=0
23160 On ch=1 n=d#3 v=100
23280 On ch=1 n=d#3 v=0
23400 On ch=1 n=d#3 v=110
23520 On ch=1 n=d#3 v=0
24000 On ch=1 n=d#4 v=100
24000 On ch=1 n=a#4 v=100
24120 On ch=1 n=a#4 v=0
24120 On ch=1 n=d#4 v=0
24120 On ch=1 n=d#3 v=110
24240 On ch=1 n=d#3 v=0
24240 On ch=1 n=d#5 v=100
24240 On ch=1 n=a#4 v=100
24240 On ch=1 n=d#4 v=100
24360 On ch=1 n=d#4 v=0
24360 On ch=1 n=a#4 v=0
24360 On ch=1 n=d#5 v=0
24360 On ch=1 n=d#4 v=100
24360 On ch=1 n=a#4 v=100
24360 On ch=1 n=d#5 v=100
24480 On ch=1 n=d#5 v=0
24480 On ch=1 n=a#4 v=0
24480 On ch=1 n=d#4 v=0
24480 On ch=1 n=a#3 v=110
24600 On ch=1 n=a#3 v=0
24840 On ch=1 n=d#3 v=110
24960 On ch=1 n=d#3 v=0
25440 On ch=1 n=d#4 v=100
25440 On ch=1 n=a#4 v=100
25560 On ch=1 n=a#4 v=0
25560 On ch=1 n=d#4 v=0
25560 On ch=1 n=a#3 v=110
25680 On ch=1 n=a#3 v=0
25920 On ch=1 n=d#5 v=100
25920 On ch=1 n=a#4 v=100
25920 On ch=1 n=d#4 v=100
26040 On ch=1 n=d#4 v=0
26040 On ch=1 n=a#4 v=0
26040 On ch=1 n=d#5 v=0
26040 On ch=1 n=d#3 v=100
26160 On ch=1 n=d#3 v=0
26280 On ch=1 n=d#3 v=110
26400 On ch=1 n=d#3 v=0
26880 On ch=1 n=d#4 v=100
26880 On ch=1 n=a#4 v=100
27000 On ch=1 n=a#4 v=0
27000 On ch=1 n=d#4 v=0
27000 On ch=1 n=d#3 v=110
27120 On ch=1 n=d#3 v=0
27120 On ch=1 n=d#5 v=100
27120 On ch=1 n=a#4 v=100
27120 On ch=1 n=d#4 v=100
27240 On ch=1 n=d#4 v=0
27240 On ch=1 n=a#4 v=0
27240 On ch=1 n=d#5 v=0
27240 On ch=1 n=d#4 v=100
27240 On ch=1 n=a#4 v=100
27240 On ch=1 n=d#5 v=100
27360 On ch=1 n=d#5 v=0
27360 On ch=1 n=a#4 v=0
27360 On ch=1 n=d#4 v=0
27360 On ch=1 n=a#3 v=110
27480 On ch=1 n=a#3 v=0
27720 On ch=1 n=d#3 v=110
27840 On ch=1 n=d#3 v=0
28320 On ch=1 n=d#4 v=100
28320 On ch=1 n=a#4 v=100
28440 On ch=1 n=a#4 v=0
28440 On ch=1 n=d#4 v=0
28440 On ch=1 n=a#3 v=110
28560 On ch=1 n=a#3 v=0
28800 On ch=1 n=d#5 v=100
28800 On ch=1 n=a#4 v=100
28800 On ch=1 n=d#4 v=100
28920 On ch=1 n=d#4 v=0
28920 On ch=1 n=a#4 v=0
28920 On ch=1 n=d#5 v=0
28920 On ch=1 n=d#3 v=100
29040 On ch=1 n=d#3 v=0
29160 On ch=1 n=g#2 v=110
29160 On ch=1 n=g#3 v=110
29280 On ch=1 n=g#3 v=0
29280 On ch=1 n=g#2 v=0
29280 On ch=1 n=c5 v=103
29280 On ch=1 n=g#4 v=103
29280 On ch=1 n=d#4 v=103
29400 On ch=1 n=d#4 v=0
29400 On ch=1 n=g#4 v=0
29400 On ch=1 n=c5 v=0
29400 On ch=1 n=g#4 v=107
29400 On ch=1 n=c5 v=107
29400 On ch=1 n=d#4 v=107
29520 On ch=1 n=d#4 v=0
29520 On ch=1 n=c5 v=0
29520 On ch=1 n=g#4 v=0
29520 On ch=1 n=d#2 v=120
29520 On ch=1 n=d#3 v=120
29640 On ch=1 n=d#3 v=0
29640 On ch=1 n=d#2 v=0
29640 On ch=1 n=g4 v=107
29640 On ch=1 n=d#4 v=107
29640 On ch=1 n=a#3 v=107
29760 On ch=1 n=a#3 v=0
29760 On ch=1 n=d#4 v=0
29760 On ch=1 n=g4 v=0
29760 On ch=1 n=a#3 v=103
29760 On ch=1 n=d#4 v=103
29760 On ch=1 n=g4 v=103
29880 On ch=1 n=g4 v=0
29880 On ch=1 n=d#4 v=0
29880 On ch=1 n=a#3 v=0
29880 On ch=1 n=a#2 v=110
29880 On ch=1 n=a#3 v=110
30000 On ch=1 n=a#3 v=0
30000 On ch=1 n=a#2 v=0
30000 On ch=1 n=d5 v=100
30000 On ch=1 n=a#4 v=100
30000 On ch=1 n=f4 v=100
30120 On ch=1 n=f4 v=0
30120 On ch=1 n=a#4 v=0
30120 On ch=1 n=d5 v=0
30120 On ch=1 n=f4 v=100
30120 On ch=1 n=a#4 v=100
30120 On ch=1 n=d5 v=100
30240 On ch=1 n=d5 v=0
30240 On ch=1 n=a#4 v=0
30240 On ch=1 n=f4 v=0
30240 On ch=1 n=d#2 v=110
30240 On ch=1 n=d#3 v=110
30360 On ch=1 n=d#3 v=0
30360 On ch=1 n=d#2 v=0
30360 On ch=1 n=d#5 v=100
30360 On ch=1 n=a#4 v=100
30360 On ch=1 n=d#4 v=100
30480 On ch=1 n=d#4 v=0
30480 On ch=1 n=a#4 v=0
30480 On ch=1 n=d#5 v=0
30480 On ch=1 n=d#4 v=100
30480 On ch=1 n=g4 v=100
30480 On ch=1 n=d#5 v=100
30600 On ch=1 n=d#5 v=0
30600 On ch=1 n=g4 v=0
30600 On ch=1 n=d#4 v=0
30600 On ch=1 n=g#2 v=110
30600 On ch=1 n=g#3 v=110
30720 On ch=1 n=g#3 v=0
30720 On ch=1 n=g#2 v=0
30720 On ch=1 n=c5 v=103
30720 On ch=1 n=g#4 v=103
30720 On ch=1 n=d#4 v=103
30840 On ch=1 n=d#4 v=0
30840 On ch=1 n=g#4 v=0
30840 On ch=1 n=c5 v=0
30840 On ch=1 n=g#4 v=107
30840 On ch=1 n=c5 v=107
30840 On ch=1 n=d#4 v=107
30960 On ch=1 n=d#4 v=0
30960 On ch=1 n=c5 v=0
30960 On ch=1 n=g#4 v=0
30960 On ch=1 n=d#3 v=120
31080 On ch=1 n=d#3 v=0
31080 On ch=1 n=g4 v=107
31080 On ch=1 n=d#4 v=107
31080 On ch=1 n=a#3 v=107
31200 On ch=1 n=a#3 v=0
31200 On ch=1 n=d#4 v=0
31200 On ch=1 n=g4 v=0
31200 On ch=1 n=a#3 v=103
31200 On ch=1 n=d#4 v=103
31200 On ch=1 n=g4 v=103
31320 On ch=1 n=g4 v=0
31320 On ch=1 n=d#4 v=0
31320 On ch=1 n=a#3 v=0
31320 On ch=1 n=a#2 v=110
31320 On ch=1 n=a#3 v=110
31440 On ch=1 n=a#3 v=0
31440 On ch=1 n=a#2 v=0
31440 On ch=1 n=d5 v=100
31440 On ch=1 n=a#4 v=100
31440 On ch=1 n=f4 v=100
31560 On ch=1 n=f4 v=0
31560 On ch=1 n=a#4 v=0
31560 On ch=1 n=d5 v=0
31560 On ch=1 n=f4 v=100
31560 On ch=1 n=a#4 v=100
31560 On ch=1 n=d5 v=100
31680 On ch=1 n=d5 v=0
31680 On ch=1 n=a#4 v=0
31680 On ch=1 n=f4 v=0
31680 On ch=1 n=d#5 v=100
31680 On ch=1 n=a#4 v=100
31680 On ch=1 n=d#4 v=100
31800 On ch=1 n=d#4 v=0
31800 On ch=1 n=a#4 v=0
31800 On ch=1 n=d#5 v=0
31800 On ch=1 n=d#3 v=100
31920 On ch=1 n=d#3 v=0
32040 On ch=1 n=d#4 v=100
32130 On ch=1 n=d#4 v=0
32130 On ch=1 n=d4 v=100
32160 On ch=1 n=d4 v=0
32160 On ch=1 n=c4 v=100
32280 On ch=1 n=c4 v=0
32280 On ch=1 n=a3 v=100
32280 On ch=1 n=d#4 v=100
32280 On ch=1 n=f#4 v=100
32400 On ch=1 n=f#4 v=0
32400 On ch=1 n=d#4 v=0
32400 On ch=1 n=a3 v=0
32400 On ch=1 n=a#3 v=100
32400 On ch=1 n=d#4 v=100
32400 On ch=1 n=g4 v=100
32520 On ch=1 n=g4 v=0
32520 On ch=1 n=d#4 v=0
32520 On ch=1 n=a#3 v=0
32520 On ch=1 n=d#4 v=100
32610 On ch=1 n=d#4 v=0
32610 On ch=1 n=g4 v=100
32640 On ch=1 n=g4 v=0
32640 On ch=1 n=a#4 v=100
32760 On ch=1 n=a#4 v=0
34680 On ch=1 n=d#4 v=60
34800 On ch=1 n=d#4 v=0
34920 On ch=1 n=g#2 v=110
34920 On ch=1 n=g#3 v=110
35040 On ch=1 n=g#3 v=0
35040 On ch=1 n=g#2 v=0
35040 On ch=1 n=c5 v=103
35040 On ch=1 n=g#4 v=103
35040 On ch=1 n=d#4 v=103
35160 On ch=1 n=d#4 v=0
35160 On ch=1 n=g#4 v=0
35160 On ch=1 n=c5 v=0
35160 On ch=1 n=g#4 v=107
35160 On ch=1 n=c5 v=107
35160 On ch=1 n=d#4 v=107
35280 On ch=1 n=d#4 v=0
35280 On ch=1 n=c5 v=0
35280 On ch=1 n=g#4 v=0
35280 On ch=1 n=d#2 v=120
35280 On ch=1 n=d#3 v=120
35400 On ch=1 n=d#3 v=0
35400 On ch=1 n=d#2 v=0
35400 On ch=1 n=g4 v=107
35400 On ch=1 n=d#4 v=107
35400 On ch=1 n=a#3 v=107
35520 On ch=1 n=a#3 v=0
35520 On ch=1 n=d#4 v=0
35520 On ch=1 n=g4 v=0
35520 On ch=1 n=a#3 v=103
35520 On ch=1 n=d#4 v=103
35520 On ch=1 n=g4 v=103
35640 On ch=1 n=g4 v=0
35640 On ch=1 n=d#4 v=0
35640 On ch=1 n=a#3 v=0
35640 On ch=1 n=a#2 v=110
35640 On ch=1 n=a#3 v=110
35760 On ch=1 n=a#3 v=0
35760 On ch=1 n=a#2 v=0
35760 On ch=1 n=d5 v=100
35760 On ch=1 n=a#4 v=100
35760 On ch=1 n=f4 v=100
35880 On ch=1 n=f4 v=0
35880 On ch=1 n=a#4 v=0
35880 On ch=1 n=d5 v=0
35880 On ch=1 n=f4 v=100
35880 On ch=1 n=a#4 v=100
35880 On ch=1 n=d5 v=100
36000 On ch=1 n=d5 v=0
36000 On ch=1 n=a#4 v=0
36000 On ch=1 n=f4 v=0
36000 On ch=1 n=d#2 v=110
36000 On ch=1 n=d#3 v=110
36120 On ch=1 n=d#3 v=0
36120 On ch=1 n=d#2 v=0
36120 On ch=1 n=d#5 v=100
36120 On ch=1 n=a#4 v=100
36120 On ch=1 n=d#4 v=100
36240 On ch=1 n=d#4 v=0
36240 On ch=1 n=a#4 v=0
36240 On ch=1 n=d#5 v=0
36240 On ch=1 n=d#4 v=100
36240 On ch=1 n=g4 v=100
36240 On ch=1 n=d#5 v=100
36360 On ch=1 n=d#5 v=0
36360 On ch=1 n=g4 v=0
36360 On ch=1 n=d#4 v=0
36360 On ch=1 n=g#2 v=110
36360 On ch=1 n=g#3 v=110
36480 On ch=1 n=g#3 v=0
36480 On ch=1 n=g#2 v=0
36480 On ch=1 n=c5 v=103
36480 On ch=1 n=g#4 v=103
36480 On ch=1 n=d#4 v=103
36600 On ch=1 n=d#4 v=0
36600 On ch=1 n=g#4 v=0
36600 On ch=1 n=c5 v=0
36600 On ch=1 n=g#4 v=107
36600 On ch=1 n=c5 v=107
36600 On ch=1 n=d#4 v=107
36720 On ch=1 n=d#4 v=0
36720 On ch=1 n=c5 v=0
36720 On ch=1 n=g#4 v=0
36720 On ch=1 n=d#3 v=120
36840 On ch=1 n=d#3 v=0
36840 On ch=1 n=g4 v=107
36840 On ch=1 n=d#4 v=107
36840 On ch=1 n=a#3 v=107
36960 On ch=1 n=a#3 v=0
36960 On ch=1 n=d#4 v=0
36960 On ch=1 n=g4 v=0
36960 On ch=1 n=a#3 v=103
36960 On ch=1 n=d#4 v=103
36960 On ch=1 n=g4 v=103
37080 On ch=1 n=g4 v=0
37080 On ch=1 n=d#4 v=0
37080 On ch=1 n=a#3 v=0
37080 On ch=1 n=a#2 v=110
37080 On ch=1 n=a#3 v=110
37200 On ch=1 n=a#3 v=0
37200 On ch=1 n=a#2 v=0
37200 On ch=1 n=d5 v=95
37200 On ch=1 n=a#4 v=95
37200 On ch=1 n=f4 v=95
37320 On ch=1 n=f4 v=0
37320 On ch=1 n=a#4 v=0
37320 On ch=1 n=d5 v=0
37320 On ch=1 n=f4 v=90
37320 On ch=1 n=a#4 v=90
37320 On ch=1 n=d5 v=90
37440 On ch=1 n=d5 v=0
37440 On ch=1 n=a#4 v=0
37440 On ch=1 n=f4 v=0
37440 On ch=1 n=d#5 v=84
37440 On ch=1 n=a#4 v=84
37440 On ch=1 n=d#4 v=84
37560 On ch=1 n=d#4 v=0
37560 On ch=1 n=a#4 v=0
37560 On ch=1 n=d#5 v=0
37560 On ch=1 n=d#3 v=80
37680 On ch=1 n=d#3 v=0
37680 Meta TrkEnd
TrkEnd
MTrk
0 Meta 0x21 00
0 Meta TrkName "Pedal"
0 PrCh ch=1 p=0
360 Par ch=1 c=64 v=127
660 Par ch=1 c=64 v=0
720 Par ch=1 c=64 v=127
1020 Par ch=1 c=64 v=0
1080 Par ch=1 c=64 v=127
1380 Par ch=1 c=64 v=0
1440 Par ch=1 c=64 v=127
1740 Par ch=1 c=64 v=0
1800 Par ch=1 c=64 v=127
2100 Par ch=1 c=64 v=0
3240 Par ch=1 c=64 v=127
3540 Par ch=1 c=64 v=0
3600 Par ch=1 c=64 v=127
3900 Par ch=1 c=64 v=0
3960 Par ch=1 c=64 v=127
4260 Par ch=1 c=64 v=0
4320 Par ch=1 c=64 v=127
4620 Par ch=1 c=64 v=0
4680 Par ch=1 c=64 v=127
4980 Par ch=1 c=64 v=0
6120 Par ch=1 c=64 v=127
6420 Par ch=1 c=64 v=0
6480 Par ch=1 c=64 v=127
6780 Par ch=1 c=64 v=0
6840 Par ch=1 c=64 v=127
7140 Par ch=1 c=64 v=0
9000 Par ch=1 c=64 v=127
9300 Par ch=1 c=64 v=0
9360 Par ch=1 c=64 v=127
9660 Par ch=1 c=64 v=0
9720 Par ch=1 c=64 v=127
10020 Par ch=1 c=64 v=0
14760 Par ch=1 c=64 v=127
15060 Par ch=1 c=64 v=0
15240 Par ch=1 c=64 v=127
15300 Par ch=1 c=64 v=0
15360 Par ch=1 c=64 v=127
15420 Par ch=1 c=64 v=0
15480 Par ch=1 c=64 v=127
15780 Par ch=1 c=64 v=0
15960 Par ch=1 c=64 v=127
16020 Par ch=1 c=64 v=0
16080 Par ch=1 c=64 v=127
16140 Par ch=1 c=64 v=0
16200 Par ch=1 c=64 v=127
16500 Par ch=1 c=64 v=0
16560 Par ch=1 c=64 v=127
16860 Par ch=1 c=64 v=0
16920 Par ch=1 c=64 v=127
17220 Par ch=1 c=64 v=0
17400 Par ch=1 c=64 v=127
17460 Par ch=1 c=64 v=0
17520 Par ch=1 c=64 v=127
17580 Par ch=1 c=64 v=0
17640 Par ch=1 c=64 v=127
17940 Par ch=1 c=64 v=0
18120 Par ch=1 c=64 v=127
18180 Par ch=1 c=64 v=0
18240 Par ch=1 c=64 v=127
18300 Par ch=1 c=64 v=0
18360 Par ch=1 c=64 v=127
18660 Par ch=1 c=64 v=0
18840 Par ch=1 c=64 v=127
18900 Par ch=1 c=64 v=0
18960 Par ch=1 c=64 v=127
19020 Par ch=1 c=64 v=0
19080 Par ch=1 c=64 v=127
19380 Par ch=1 c=64 v=0
19440 Par ch=1 c=64 v=127
19740 Par ch=1 c=64 v=0
19800 Par ch=1 c=64 v=127
20100 Par ch=1 c=64 v=0
20160 Par ch=1 c=64 v=127
20340 Par ch=1 c=64 v=0
23280 Par ch=1 c=64 v=127
23760 Par ch=1 c=64 v=0
23880 Par ch=1 c=64 v=127
24060 Par ch=1 c=64 v=0
24120 Par ch=1 c=64 v=127
24420 Par ch=1 c=64 v=0
24480 Par ch=1 c=64 v=127
24780 Par ch=1 c=64 v=0
24840 Par ch=1 c=64 v=127
25200 Par ch=1 c=64 v=0
25320 Par ch=1 c=64 v=127
25500 Par ch=1 c=64 v=0
25560 Par ch=1 c=64 v=127
25860 Par ch=1 c=64 v=0
25920 Par ch=1 c=64 v=127
26100 Par ch=1 c=64 v=0
26160 Par ch=1 c=64 v=127
26640 Par ch=1 c=64 v=0
26760 Par ch=1 c=64 v=127
26940 Par ch=1 c=64 v=0
27000 Par ch=1 c=64 v=127
27300 Par ch=1 c=64 v=0
27360 Par ch=1 c=64 v=127
27660 Par ch=1 c=64 v=0
27720 Par ch=1 c=64 v=127
28080 Par ch=1 c=64 v=0
28200 Par ch=1 c=64 v=127
28380 Par ch=1 c=64 v=0
28440 Par ch=1 c=64 v=127
28740 Par ch=1 c=64 v=0
28800 Par ch=1 c=64 v=127
28980 Par ch=1 c=64 v=0
31980 Par ch=1 c=64 v=127
32040 Par ch=1 c=64 v=0
32280 Par ch=1 c=64 v=127
32385 Par ch=1 c=64 v=0
32400 Par ch=1 c=64 v=127
32640 Par ch=1 c=64 v=0
32760 Par ch=1 c=64 v=127
32865 Par ch=1 c=64 v=0
32880 Par ch=1 c=64 v=127
33120 Par ch=1 c=64 v=0
33360 Par ch=1 c=64 v=127
33480 Par ch=1 c=64 v=0
33720 Par ch=1 c=64 v=127
33825 Par ch=1 c=64 v=0
33840 Par ch=1 c=64 v=127
34080 Par ch=1 c=64 v=0
34200 Par ch=1 c=64 v=127
34305 Par ch=1 c=64 v=0
34320 Par ch=1 c=64 v=127
34545 Par ch=1 c=64 v=0
34560 Par ch=1 c=64 v=127
34740 Par ch=1 c=64 v=0
34740 Meta TrkEnd
TrkEnd
MTrk
0 Meta 0x21 00
0 Meta TrkName "F. Chopin Valse No. 17 in Eb Op. posth."
0 Meta TrkEnd
TrkEnd
MTrk
0 Meta 0x21 00
0 Meta TrkName "Jeruen E. Dery jawjaw@hotmail.com"
0 Meta TrkEnd
TrkEnd
