MFile 1 7 120
MTrk
0 Meta SeqName ""
0 Meta Text "\n"
0 TimeSig 3/4 24 8
0 KeySig -4 major
0 Tempo 333333
25920 KeySig 0 major
38160 Tempo 352941
38280 Tempo 375000
38400 Tempo 400000
38520 Tempo 428571
38640 Tempo 461538
38760 Tempo 500000
38880 KeySig -4 major
38880 Tempo 333333
47520 KeySig 4 major
50040 KeySig -4 major
53287 Tempo 332834
53294 Tempo 332484
53301 Tempo 332134
53315 Tempo 331785
53322 Tempo 331437
53329 Tempo 330321
53343 Tempo 330743
53350 Tempo 330396
53357 Tempo 330051
53364 Tempo 329707
53378 Tempo 329363
53385 Tempo 329020
53392 Tempo 328677
53407 Tempo 328335
53414 Tempo 327994
53421 Tempo 327654
53435 Tempo 327314
53442 Tempo 326975
53449 Tempo 326637
53456 Tempo 326300
53470 Tempo 325963
53477 Tempo 325627
53484 Tempo 325291
53498 Tempo 324957
53505 Tempo 324623
53512 Tempo 324289
53520 Tempo 323957
53534 Tempo 323625
53541 Tempo 323293
53548 Tempo 322963
53562 Tempo 322633
53569 Tempo 322303
53576 Tempo 321975
53590 Tempo 321647
53597 Tempo 321320
53604 Tempo 320993
53611 Tempo 320667
53625 Tempo 320342
53632 Tempo 320017
53640 Tempo 319693
53654 Tempo 319370
53661 Tempo 319047
53668 Tempo 318725
53675 Tempo 318404
53689 Tempo 318083
53696 Tempo 317763
53703 Tempo 317444
53717 Tempo 317125
53724 Tempo 316807
53731 Tempo 316489
53745 Tempo 316172
53752 Tempo 315856
53760 Tempo 315540
53767 Tempo 315225
53781 Tempo 314911
53788 Tempo 314597
53795 Tempo 314284
53809 Tempo 313972
53816 Tempo 313660
53823 Tempo 313349
53830 Tempo 313038
53844 Tempo 312728
53851 Tempo 312419
53858 Tempo 312110
53872 Tempo 311802
53880 Tempo 311494
53887 Tempo 311187
53901 Tempo 310881
53908 Tempo 310575
53915 Tempo 310270
53922 Tempo 309965
53936 Tempo 309661
53943 Tempo 309358
53950 Tempo 309055
53964 Tempo 308753
53971 Tempo 308452
53978 Tempo 308151
53985 Tempo 307850
54000 Tempo 307550
54007 Tempo 307251
54014 Tempo 306952
54028 Tempo 306654
54035 Tempo 306357
54042 Tempo 306060
54056 Tempo 305764
54063 Tempo 305468
54070 Tempo 305173
54077 Tempo 304878
54091 Tempo 304584
54098 Tempo 304290
54105 Tempo 303998
54120 Tempo 303705
54127 Tempo 303413
54134 Tempo 303122
54141 Tempo 302831
54155 Tempo 302541
54162 Tempo 302252
54169 Tempo 301963
54183 Tempo 301674
54190 Tempo 301386
54197 Tempo 301099
54211 Tempo 300812
54218 Tempo 300526
54225 Tempo 300240
54232 Tempo 299955
54247 Tempo 299670
54254 Tempo 299386
54261 Tempo 299103
54275 Tempo 298820
54282 Tempo 298537
54289 Tempo 298255
54296 Tempo 297974
54310 Tempo 297693
54317 Tempo 297413
54324 Tempo 297133
54338 Tempo 296853
54345 Tempo 296575
54352 Tempo 296296
54367 Tempo 296019
54374 Tempo 295741
54381 Tempo 295465
54388 Tempo 295188
54402 Tempo 294913
54409 Tempo 294638
54416 Tempo 294363
54430 Tempo 294089
54437 Tempo 293815
54444 Tempo 293542
54451 Tempo 293269
54465 Tempo 292997
54472 Tempo 292726
54480 Tempo 292455
54494 Tempo 292184
54501 Tempo 291914
54508 Tempo 291644
54522 Tempo 291375
54529 Tempo 291107
54536 Tempo 290839
54543 Tempo 290571
54557 Tempo 290304
54564 Tempo 290037
54571 Tempo 289771
54585 Tempo 289505
54592 Tempo 289240
54600 Tempo 288976
54607 Tempo 288711
54621 Tempo 288448
54628 Tempo 288184
54635 Tempo 287922
54649 Tempo 287659
54656 Tempo 287398
54663 Tempo 287136
54677 Tempo 286875
54684 Tempo 286615
54691 Tempo 286355
54698 Tempo 286096
54712 Tempo 285837
54720 Tempo 285578
54727 Tempo 285320
54741 Tempo 285063
54748 Tempo 284806
54755 Tempo 284549
54762 Tempo 284293
54776 Tempo 284037
54783 Tempo 283782
54790 Tempo 283527
54804 Tempo 283273
54811 Tempo 283019
54818 Tempo 282765
54832 Tempo 282512
54840 Tempo 282260
54847 Tempo 282008
54854 Tempo 281756
54868 Tempo 281505
54875 Tempo 281254
54882 Tempo 281004
54896 Tempo 280754
54903 Tempo 280505
54910 Tempo 280256
54917 Tempo 280007
54931 Tempo 279759
54938 Tempo 279512
54945 Tempo 279265
54960 Tempo 279018
54967 Tempo 278772
54974 Tempo 278526
54988 Tempo 278280
54995 Tempo 278035
55002 Tempo 277791
55009 Tempo 277546
55023 Tempo 277303
55030 Tempo 277059
55037 Tempo 276817
55051 Tempo 276574
55058 Tempo 276332
55065 Tempo 276091
55072 Tempo 275849
55087 Tempo 275609
55094 Tempo 275368
55101 Tempo 275128
55115 Tempo 274889
55122 Tempo 274650
55129 Tempo 274411
55143 Tempo 274173
55150 Tempo 273935
55157 Tempo 273698
55164 Tempo 273461
55178 Tempo 273224
55185 Tempo 272988
55192 Tempo 272752
55207 Tempo 272517
55214 Tempo 272282
55221 Tempo 272047
55228 Tempo 271813
55242 Tempo 271579
55249 Tempo 271346
55256 Tempo 271113
55270 Tempo 270880
55277 Tempo 270648
55284 Tempo 270416
55298 Tempo 270185
55305 Tempo 269954
55312 Tempo 269724
55320 Tempo 269493
55334 Tempo 269264
55341 Tempo 269034
55348 Tempo 268805
55362 Tempo 268577
55369 Tempo 268348
55376 Tempo 268120
55383 Tempo 267893
55397 Tempo 267666
55404 Tempo 267439
55411 Tempo 267213
55425 Tempo 266987
55432 Tempo 266762
55440 Tempo 266536
55454 Tempo 266312
55461 Tempo 266087
55468 Tempo 265863
55475 Tempo 264872
55489 Tempo 265416
55496 Tempo 265193
55503 Tempo 264971
55517 Tempo 264749
55524 Tempo 264527
55531 Tempo 264306
55538 Tempo 264085
55552 Tempo 263864
55560 Tempo 263644
55567 Tempo 263424
55581 Tempo 263204
55588 Tempo 262985
55595 Tempo 262766
55609 Tempo 262548
55616 Tempo 262329
55623 Tempo 262112
55630 Tempo 261894
55644 Tempo 261677
55651 Tempo 261461
55658 Tempo 261244
55672 Tempo 261028
55680 Tempo 260813
55687 Tempo 260598
55694 Tempo 260383
55708 Tempo 260168
55715 Tempo 259954
55722 Tempo 259740
55736 Tempo 259527
55743 Tempo 259314
55750 Tempo 259101
55764 Tempo 258889
55771 Tempo 258676
55778 Tempo 258465
55785 Tempo 258253
55800 Tempo 258042
55807 Tempo 257832
55814 Tempo 257621
55828 Tempo 257411
55835 Tempo 257202
55842 Tempo 256992
55849 Tempo 256783
55863 Tempo 256575
55870 Tempo 256366
55877 Tempo 256158
55891 Tempo 255951
55898 Tempo 255744
55905 Tempo 255537
55920 Tempo 255330
55927 Tempo 255124
55934 Tempo 254918
55941 Tempo 254712
55955 Tempo 254507
55962 Tempo 254302
55969 Tempo 254097
55983 Tempo 253893
55990 Tempo 253689
55997 Tempo 253485
56004 Tempo 253282
56018 Tempo 253079
56025 Tempo 252876
56032 Tempo 252674
56047 Tempo 252472
56054 Tempo 252270
56061 Tempo 252069
56075 Tempo 251868
56082 Tempo 251667
56089 Tempo 251467
56096 Tempo 251267
56110 Tempo 251067
56117 Tempo 250868
56124 Tempo 250668
56138 Tempo 250470
56145 Tempo 250271
56152 Tempo 250073
56160 Tempo 250000
61200 Tempo 1000000
61200 Meta TrkEnd
TrkEnd
MTrk
0 Meta 0x21 00
0 Meta TrkName "Right Treble"
0 PrCh ch=1 p=0
0 On ch=1 n=c6 v=60
60 On ch=1 n=c6 v=0
60 On ch=1 n=g5 v=60
120 On ch=1 n=g5 v=0
120 On ch=1 n=g#5 v=60
180 On ch=1 n=g#5 v=0
180 On ch=1 n=f5 v=60
240 On ch=1 n=f5 v=0
240 On ch=1 n=d#5 v=60
420 On ch=1 n=d#5 v=0
420 On ch=1 n=g#5 v=60
480 On ch=1 n=g#5 v=0
480 On ch=1 n=c6 v=60
540 On ch=1 n=c6 v=0
540 On ch=1 n=c#6 v=60
600 On ch=1 n=c#6 v=0
600 On ch=1 n=f6 v=60
780 On ch=1 n=f6 v=0
780 On ch=1 n=d6 v=60
840 On ch=1 n=d6 v=0
840 On ch=1 n=f6 v=60
900 On ch=1 n=f6 v=0
900 On ch=1 n=d#6 v=60
960 On ch=1 n=d#6 v=0
960 On ch=1 n=c7 v=60
1140 On ch=1 n=c7 v=0
1140 On ch=1 n=g6 v=60
1200 On ch=1 n=g6 v=0
1200 On ch=1 n=g#6 v=60
1260 On ch=1 n=g#6 v=0
1260 On ch=1 n=d6 v=60
1320 On ch=1 n=d6 v=0
1320 On ch=1 n=d#6 v=60
1380 On ch=1 n=d#6 v=0
1380 On ch=1 n=e6 v=60
1440 On ch=1 n=e6 v=0
1440 On ch=1 n=f6 v=60
1500 On ch=1 n=f6 v=0
1500 On ch=1 n=e6 v=60
1560 On ch=1 n=e6 v=0
1560 On ch=1 n=d#6 v=60
1620 On ch=1 n=d#6 v=0
1620 On ch=1 n=d6 v=60
1680 On ch=1 n=d6 v=0
1680 On ch=1 n=c#6 v=60
1800 On ch=1 n=c#6 v=0
1800 On ch=1 n=c6 v=60
1860 On ch=1 n=c6 v=0
1860 On ch=1 n=d#6 v=60
1920 On ch=1 n=d#6 v=0
1920 On ch=1 n=c#6 v=60
1980 On ch=1 n=c#6 v=0
1980 On ch=1 n=c6 v=60
2040 On ch=1 n=c6 v=0
2040 On ch=1 n=a#5 v=60
2160 On ch=1 n=a#5 v=0
2160 On ch=1 n=f6 v=60
2220 On ch=1 n=f6 v=0
2220 On ch=1 n=e6 v=60
2280 On ch=1 n=e6 v=0
2280 On ch=1 n=d#6 v=60
2340 On ch=1 n=d#6 v=0
2340 On ch=1 n=d6 v=60
2400 On ch=1 n=d6 v=0
2400 On ch=1 n=c#6 v=60
2520 On ch=1 n=c#6 v=0
2520 On ch=1 n=b5 v=60
2580 On ch=1 n=b5 v=0
2580 On ch=1 n=c#6 v=61
2640 On ch=1 n=c#6 v=0
2640 On ch=1 n=c6 v=62
2700 On ch=1 n=c6 v=0
2700 On ch=1 n=b5 v=64
2760 On ch=1 n=b5 v=0
2760 On ch=1 n=a#5 v=65
2880 On ch=1 n=a#5 v=0
2880 On ch=1 n=g#5 v=68
2940 On ch=1 n=g#5 v=0
2940 On ch=1 n=e5 v=69
3000 On ch=1 n=e5 v=0
3000 On ch=1 n=f5 v=71
3060 On ch=1 n=f5 v=0
3060 On ch=1 n=c#5 v=72
3120 On ch=1 n=c#5 v=0
3120 On ch=1 n=c5 v=73
3300 On ch=1 n=c5 v=0
3300 On ch=1 n=f5 v=78
3360 On ch=1 n=f5 v=0
3360 On ch=1 n=g#5 v=79
3420 On ch=1 n=g#5 v=0
3420 On ch=1 n=a#5 v=80
3480 On ch=1 n=a#5 v=0
3480 On ch=1 n=c#6 v=82
3660 On ch=1 n=c#6 v=0
3660 On ch=1 n=b5 v=86
3720 On ch=1 n=b5 v=0
3720 On ch=1 n=c#6 v=87
3780 On ch=1 n=c#6 v=0
3780 On ch=1 n=c6 v=89
3840 On ch=1 n=c6 v=0
3840 On ch=1 n=g#6 v=90
4020 On ch=1 n=g#6 v=0
4020 On ch=1 n=g6 v=94
4080 On ch=1 n=g6 v=0
4080 On ch=1 n=f6 v=96
4140 On ch=1 n=f6 v=0
4140 On ch=1 n=c6 v=97
4200 On ch=1 n=c6 v=0
4200 On ch=1 n=d6 v=99
4260 On ch=1 n=d6 v=0
4260 On ch=1 n=d#6 v=100
4320 On ch=1 n=d#6 v=0
4320 On ch=1 n=a#5 v=100
4350 On ch=1 n=a#5 v=0
4380 On ch=1 n=g6 v=99
4440 On ch=1 n=g6 v=0
4440 On ch=1 n=d#7 v=97
4500 On ch=1 n=d#7 v=0
4500 On ch=1 n=d7 v=95
4560 On ch=1 n=d7 v=0
4560 On ch=1 n=f6 v=94
4620 On ch=1 n=f6 v=0
4620 On ch=1 n=d#6 v=92
4680 On ch=1 n=d#6 v=0
4680 On ch=1 n=c7 v=90
4740 On ch=1 n=c7 v=0
4740 On ch=1 n=a#6 v=89
4800 On ch=1 n=a#6 v=0
4800 On ch=1 n=d6 v=87
4860 On ch=1 n=d6 v=0
4860 On ch=1 n=c6 v=85
4920 On ch=1 n=c6 v=0
4920 On ch=1 n=g#6 v=83
4980 On ch=1 n=g#6 v=0
4980 On ch=1 n=g6 v=82
5040 On ch=1 n=g6 v=0
5040 On ch=1 n=a#5 v=80
5100 On ch=1 n=a#5 v=0
5100 On ch=1 n=a5 v=78
5160 On ch=1 n=a5 v=0
5160 On ch=1 n=g#5 v=77
5220 On ch=1 n=g#5 v=0
5220 On ch=1 n=g#5 v=75
5280 On ch=1 n=g#5 v=0
5280 On ch=1 n=g6 v=73
5340 On ch=1 n=g6 v=0
5340 On ch=1 n=f6 v=71
5400 On ch=1 n=f6 v=0
5400 On ch=1 n=g#5 v=70
5460 On ch=1 n=g#5 v=0
5460 On ch=1 n=a#5 v=68
5520 On ch=1 n=a#5 v=0
5520 On ch=1 n=g5 v=66
5580 On ch=1 n=g5 v=0
5580 On ch=1 n=c#6 v=65
5640 On ch=1 n=c#6 v=0
5640 On ch=1 n=f6 v=63
5700 On ch=1 n=f6 v=0
5700 On ch=1 n=d#6 v=61
5760 On ch=1 n=d#6 v=0
5760 On ch=1 n=c6 v=60
5820 On ch=1 n=c6 v=0
5820 On ch=1 n=g5 v=60
5880 On ch=1 n=g5 v=0
5880 On ch=1 n=g#5 v=61
5940 On ch=1 n=g#5 v=0
5940 On ch=1 n=f5 v=61
6000 On ch=1 n=f5 v=0
6000 On ch=1 n=d#5 v=62
6180 On ch=1 n=d#5 v=0
6180 On ch=1 n=g#5 v=63
6240 On ch=1 n=g#5 v=0
6240 On ch=1 n=c6 v=64
6300 On ch=1 n=c6 v=0
6300 On ch=1 n=c#6 v=65
6360 On ch=1 n=c#6 v=0
6360 On ch=1 n=f6 v=65
6540 On ch=1 n=f6 v=0
6540 On ch=1 n=d6 v=67
6600 On ch=1 n=d6 v=0
6600 On ch=1 n=f6 v=67
6660 On ch=1 n=f6 v=0
6660 On ch=1 n=d#6 v=68
6720 On ch=1 n=d#6 v=0
6720 On ch=1 n=c7 v=69
6900 On ch=1 n=c7 v=0
6900 On ch=1 n=g6 v=70
6960 On ch=1 n=g6 v=0
6960 On ch=1 n=g#6 v=71
7020 On ch=1 n=g#6 v=0
7020 On ch=1 n=d6 v=71
7080 On ch=1 n=d6 v=0
7080 On ch=1 n=d#6 v=72
7140 On ch=1 n=d#6 v=0
7140 On ch=1 n=e6 v=73
7200 On ch=1 n=e6 v=0
7200 On ch=1 n=f6 v=73
7260 On ch=1 n=f6 v=0
7260 On ch=1 n=e6 v=74
7320 On ch=1 n=e6 v=0
7320 On ch=1 n=d#6 v=74
7380 On ch=1 n=d#6 v=0
7380 On ch=1 n=d6 v=75
7440 On ch=1 n=d6 v=0
7440 On ch=1 n=c#6 v=75
7560 On ch=1 n=c#6 v=0
7560 On ch=1 n=c6 v=77
7620 On ch=1 n=c6 v=0
7620 On ch=1 n=d#6 v=77
7680 On ch=1 n=d#6 v=0
7680 On ch=1 n=c#6 v=78
7740 On ch=1 n=c#6 v=0
7740 On ch=1 n=c6 v=78
7800 On ch=1 n=c6 v=0
7800 On ch=1 n=a#5 v=79
7920 On ch=1 n=a#5 v=0
7920 On ch=1 n=f6 v=80
7980 On ch=1 n=f6 v=0
7980 On ch=1 n=e6 v=81
8040 On ch=1 n=e6 v=0
8040 On ch=1 n=d#6 v=81
8100 On ch=1 n=d#6 v=0
8100 On ch=1 n=d6 v=82
8160 On ch=1 n=d6 v=0
8160 On ch=1 n=c#6 v=82
8280 On ch=1 n=c#6 v=0
8280 On ch=1 n=b5 v=83
8340 On ch=1 n=b5 v=0
8340 On ch=1 n=c#6 v=84
8400 On ch=1 n=c#6 v=0
8400 On ch=1 n=c6 v=85
8460 On ch=1 n=c6 v=0
8460 On ch=1 n=b5 v=85
8520 On ch=1 n=b5 v=0
8520 On ch=1 n=a#5 v=86
8640 On ch=1 n=a#5 v=0
8640 On ch=1 n=g#5 v=87
8700 On ch=1 n=g#5 v=0
8700 On ch=1 n=e5 v=87
8760 On ch=1 n=e5 v=0
8760 On ch=1 n=f5 v=88
8820 On ch=1 n=f5 v=0
8820 On ch=1 n=c#5 v=89
8880 On ch=1 n=c#5 v=0
8880 On ch=1 n=c5 v=89
9060 On ch=1 n=c5 v=0
9060 On ch=1 n=f5 v=91
9120 On ch=1 n=f5 v=0
9120 On ch=1 n=g#5 v=91
9180 On ch=1 n=g#5 v=0
9180 On ch=1 n=a#5 v=92
9240 On ch=1 n=a#5 v=0
9240 On ch=1 n=c#6 v=93
9420 On ch=1 n=c#6 v=0
9420 On ch=1 n=b5 v=94
9480 On ch=1 n=b5 v=0
9480 On ch=1 n=c#6 v=95
9540 On ch=1 n=c#6 v=0
9540 On ch=1 n=c6 v=95
9600 On ch=1 n=c6 v=0
9600 On ch=1 n=g#6 v=96
9780 On ch=1 n=g#6 v=0
9780 On ch=1 n=g6 v=98
9840 On ch=1 n=g6 v=0
9840 On ch=1 n=f6 v=98
9900 On ch=1 n=f6 v=0
9900 On ch=1 n=c6 v=99
9960 On ch=1 n=c6 v=0
9960 On ch=1 n=d6 v=99
10020 On ch=1 n=d6 v=0
10020 On ch=1 n=d#6 v=100
10080 On ch=1 n=d#6 v=0
10080 On ch=1 n=a#5 v=100
10110 On ch=1 n=a#5 v=0
10140 On ch=1 n=g6 v=99
10200 On ch=1 n=g6 v=0
10200 On ch=1 n=d#7 v=97
10260 On ch=1 n=d#7 v=0
10260 On ch=1 n=d7 v=95
10320 On ch=1 n=d7 v=0
10320 On ch=1 n=f6 v=94
10380 On ch=1 n=f6 v=0
10380 On ch=1 n=d#6 v=92
10440 On ch=1 n=d#6 v=0
10440 On ch=1 n=c7 v=90
10500 On ch=1 n=c7 v=0
10500 On ch=1 n=a#6 v=89
10560 On ch=1 n=a#6 v=0
10560 On ch=1 n=d6 v=87
10620 On ch=1 n=d6 v=0
10620 On ch=1 n=c6 v=85
10680 On ch=1 n=c6 v=0
10680 On ch=1 n=g#6 v=83
10740 On ch=1 n=g#6 v=0
10740 On ch=1 n=g6 v=82
10800 On ch=1 n=g6 v=0
10800 On ch=1 n=a#5 v=80
10860 On ch=1 n=a#5 v=0
10860 On ch=1 n=a5 v=78
10920 On ch=1 n=a5 v=0
10920 On ch=1 n=g#5 v=77
10980 On ch=1 n=g#5 v=0
10980 On ch=1 n=g#5 v=75
11040 On ch=1 n=g#5 v=0
11040 On ch=1 n=g6 v=73
11100 On ch=1 n=g6 v=0
11100 On ch=1 n=f6 v=71
11160 On ch=1 n=f6 v=0
11160 On ch=1 n=g5 v=70
11220 On ch=1 n=g5 v=0
11220 On ch=1 n=a#5 v=68
11280 On ch=1 n=a#5 v=0
11280 On ch=1 n=d6 v=66
11340 On ch=1 n=d6 v=0
11340 On ch=1 n=f6 v=65
11400 On ch=1 n=f6 v=0
11400 On ch=1 n=d#6 v=63
11460 On ch=1 n=d#6 v=0
11460 On ch=1 n=d6 v=61
11520 On ch=1 n=d6 v=0
11520 On ch=1 n=c#6 v=60
11580 On ch=1 n=c#6 v=0
11580 On ch=1 n=a5 v=60
11640 On ch=1 n=a5 v=0
11640 On ch=1 n=a#5 v=61
11700 On ch=1 n=a#5 v=0
11700 On ch=1 n=f#5 v=62
11760 On ch=1 n=f#5 v=0
11760 On ch=1 n=f5 v=63
11940 On ch=1 n=f5 v=0
11940 On ch=1 n=a#5 v=65
12000 On ch=1 n=a#5 v=0
12000 On ch=1 n=c#6 v=66
12060 On ch=1 n=c#6 v=0
12060 On ch=1 n=d#6 v=67
12120 On ch=1 n=d#6 v=0
12120 On ch=1 n=f#6 v=68
12300 On ch=1 n=f#6 v=0
12300 On ch=1 n=e6 v=71
12360 On ch=1 n=e6 v=0
12360 On ch=1 n=f#6 v=71
12420 On ch=1 n=f#6 v=0
12420 On ch=1 n=f6 v=72
12480 On ch=1 n=f6 v=0
12480 On ch=1 n=c#7 v=73
12660 On ch=1 n=c#7 v=0
12660 On ch=1 n=a6 v=76
12720 On ch=1 n=a6 v=0
12720 On ch=1 n=a#6 v=77
12780 On ch=1 n=a#6 v=0
12780 On ch=1 n=e6 v=77
12840 On ch=1 n=e6 v=0
12840 On ch=1 n=f6 v=78
12900 On ch=1 n=f6 v=0
12900 On ch=1 n=g#6 v=79
12960 On ch=1 n=g#6 v=0
12960 On ch=1 n=f#6 v=80
13020 On ch=1 n=f#6 v=0
13020 On ch=1 n=g6 v=81
13080 On ch=1 n=g6 v=0
13080 On ch=1 n=f6 v=82
13140 On ch=1 n=f6 v=0
13140 On ch=1 n=e6 v=83
13200 On ch=1 n=e6 v=0
13200 On ch=1 n=d#6 v=83
13320 On ch=1 n=d#6 v=0
13320 On ch=1 n=d6 v=85
13380 On ch=1 n=d6 v=0
13380 On ch=1 n=f6 v=86
13440 On ch=1 n=f6 v=0
13440 On ch=1 n=d#6 v=87
13500 On ch=1 n=d#6 v=0
13500 On ch=1 n=c#6 v=88
13560 On ch=1 n=c#6 v=0
13560 On ch=1 n=c6 v=89
13680 On ch=1 n=c6 v=0
13680 On ch=1 n=g#6 v=90
13740 On ch=1 n=g#6 v=0
13740 On ch=1 n=g6 v=91
13800 On ch=1 n=g6 v=0
13800 On ch=1 n=f#6 v=92
13860 On ch=1 n=f#6 v=0
13860 On ch=1 n=f6 v=93
13920 On ch=1 n=f6 v=0
13920 On ch=1 n=e6 v=94
14100 On ch=1 n=e6 v=0
14100 On ch=1 n=f#6 v=96
14160 On ch=1 n=f#6 v=0
14160 On ch=1 n=f6 v=97
14220 On ch=1 n=f6 v=0
14220 On ch=1 n=e6 v=98
14280 On ch=1 n=e6 v=0
14280 On ch=1 n=d#6 v=99
14400 On ch=1 n=d#6 v=0
14400 On ch=1 n=c#6 v=100
14460 On ch=1 n=c#6 v=0
14460 On ch=1 n=a5 v=100
14520 On ch=1 n=a5 v=0
14520 On ch=1 n=a#5 v=101
14580 On ch=1 n=a#5 v=0
14580 On ch=1 n=f#5 v=101
14640 On ch=1 n=f#5 v=0
14640 On ch=1 n=c#5 v=102
14820 On ch=1 n=c#5 v=0
14820 On ch=1 n=f#5 v=104
14880 On ch=1 n=f#5 v=0
14880 On ch=1 n=a#5 v=104
14940 On ch=1 n=a#5 v=0
14940 On ch=1 n=b5 v=105
15000 On ch=1 n=b5 v=0
15000 On ch=1 n=d#6 v=106
15180 On ch=1 n=d#6 v=0
15180 On ch=1 n=c6 v=107
15240 On ch=1 n=c6 v=0
15240 On ch=1 n=d#6 v=108
15300 On ch=1 n=d#6 v=0
15300 On ch=1 n=c#6 v=109
15360 On ch=1 n=c#6 v=0
15360 On ch=1 n=a#6 v=109
15540 On ch=1 n=a#6 v=0
15540 On ch=1 n=f6 v=109
15600 On ch=1 n=f6 v=0
15600 On ch=1 n=f#6 v=107
15660 On ch=1 n=f#6 v=0
15660 On ch=1 n=c6 v=105
15720 On ch=1 n=c6 v=0
15720 On ch=1 n=c#6 v=104
15780 On ch=1 n=c#6 v=0
15780 On ch=1 n=d6 v=102
15840 On ch=1 n=d6 v=0
15840 On ch=1 n=d#6 v=100
15900 On ch=1 n=d#6 v=0
15900 On ch=1 n=d6 v=99
15960 On ch=1 n=d6 v=0
15960 On ch=1 n=c#6 v=97
16020 On ch=1 n=c#6 v=0
16020 On ch=1 n=c6 v=95
16080 On ch=1 n=c6 v=0
16080 On ch=1 n=b5 v=93
16200 On ch=1 n=b5 v=0
16200 On ch=1 n=a#5 v=90
16260 On ch=1 n=a#5 v=0
16260 On ch=1 n=c#6 v=88
16320 On ch=1 n=c#6 v=0
16320 On ch=1 n=b5 v=87
16380 On ch=1 n=b5 v=0
16380 On ch=1 n=a#5 v=85
16440 On ch=1 n=a#5 v=0
16440 On ch=1 n=g#5 v=83
16560 On ch=1 n=g#5 v=0
16560 On ch=1 n=f6 v=80
16620 On ch=1 n=f6 v=0
16620 On ch=1 n=d#6 v=78
16680 On ch=1 n=d#6 v=0
16680 On ch=1 n=d6 v=76
16740 On ch=1 n=d6 v=0
16740 On ch=1 n=c#6 v=75
16800 On ch=1 n=c#6 v=0
16800 On ch=1 n=c6 v=73
16980 On ch=1 n=c6 v=0
16980 On ch=1 n=d#6 v=68
17040 On ch=1 n=d#6 v=0
17040 On ch=1 n=c#6 v=66
17100 On ch=1 n=c#6 v=0
17100 On ch=1 n=c6 v=64
17160 On ch=1 n=c6 v=0
17160 On ch=1 n=b5 v=63
17280 On ch=1 n=b5 v=0
17280 On ch=1 n=a#5 v=60
17400 On ch=1 n=a#5 v=0
17400 On ch=1 n=f5 v=60
17460 On ch=1 n=f5 v=0
17460 On ch=1 n=g5 v=60
17520 On ch=1 n=g5 v=0
17520 On ch=1 n=g#5 v=60
17580 On ch=1 n=g#5 v=0
17580 On ch=1 n=d5 v=60
17640 On ch=1 n=d5 v=0
17640 On ch=1 n=d#5 v=60
17700 On ch=1 n=d#5 v=0
17700 On ch=1 n=g#5 v=60
17760 On ch=1 n=g#5 v=0
17760 On ch=1 n=g5 v=60
17820 On ch=1 n=g5 v=0
17820 On ch=1 n=c6 v=60
17880 On ch=1 n=c6 v=0
17880 On ch=1 n=a#5 v=60
17940 On ch=1 n=a#5 v=0
17940 On ch=1 n=g#6 v=60
18000 On ch=1 n=g#6 v=0
18000 On ch=1 n=g6 v=60
18060 On ch=1 n=g6 v=0
18060 On ch=1 n=g#6 v=60
18120 On ch=1 n=g#6 v=0
18120 On ch=1 n=d#6 v=60
18180 On ch=1 n=d#6 v=0
18180 On ch=1 n=f6 v=60
18240 On ch=1 n=f6 v=0
18240 On ch=1 n=g6 v=60
18300 On ch=1 n=g6 v=0
18300 On ch=1 n=d6 v=60
18360 On ch=1 n=d6 v=0
18360 On ch=1 n=d#6 v=60
18420 On ch=1 n=d#6 v=0
18420 On ch=1 n=f6 v=60
18480 On ch=1 n=f6 v=0
18480 On ch=1 n=c6 v=60
18540 On ch=1 n=c6 v=0
18540 On ch=1 n=d6 v=60
18600 On ch=1 n=d6 v=0
18600 On ch=1 n=d#6 v=60
18660 On ch=1 n=d#6 v=0
18660 On ch=1 n=a#5 v=60
18720 On ch=1 n=a#5 v=0
18720 On ch=1 n=c6 v=60
18780 On ch=1 n=c6 v=0
18780 On ch=1 n=d6 v=60
18840 On ch=1 n=d6 v=0
18840 On ch=1 n=g#5 v=60
18900 On ch=1 n=g#5 v=0
18900 On ch=1 n=a#5 v=60
18960 On ch=1 n=a#5 v=0
18960 On ch=1 n=c6 v=60
19020 On ch=1 n=c6 v=0
19020 On ch=1 n=f5 v=60
19080 On ch=1 n=f5 v=0
19080 On ch=1 n=g5 v=60
19140 On ch=1 n=g5 v=0
19140 On ch=1 n=g#5 v=60
19200 On ch=1 n=g#5 v=0
19200 On ch=1 n=g5 v=60
19260 On ch=1 n=g5 v=0
19260 On ch=1 n=c6 v=60
19320 On ch=1 n=c6 v=0
19320 On ch=1 n=a#5 v=60
19380 On ch=1 n=a#5 v=0
19380 On ch=1 n=g#6 v=60
19440 On ch=1 n=g#6 v=0
19440 On ch=1 n=g6 v=60
19500 On ch=1 n=g6 v=0
19500 On ch=1 n=g#6 v=60
19560 On ch=1 n=g#6 v=0
19560 On ch=1 n=d#6 v=60
19620 On ch=1 n=d#6 v=0
19620 On ch=1 n=f6 v=60
19680 On ch=1 n=f6 v=0
19680 On ch=1 n=g6 v=60
19740 On ch=1 n=g6 v=0
19740 On ch=1 n=d6 v=60
19800 On ch=1 n=d6 v=0
19800 On ch=1 n=d#6 v=60
19860 On ch=1 n=d#6 v=0
19860 On ch=1 n=f6 v=60
19920 On ch=1 n=f6 v=0
19920 On ch=1 n=c6 v=60
19980 On ch=1 n=c6 v=0
19980 On ch=1 n=d6 v=60
20040 On ch=1 n=d6 v=0
20040 On ch=1 n=d#6 v=60
20100 On ch=1 n=d#6 v=0
20100 On ch=1 n=a#5 v=60
20160 On ch=1 n=a#5 v=0
20160 On ch=1 n=c6 v=60
20220 On ch=1 n=c6 v=0
20220 On ch=1 n=d6 v=61
20280 On ch=1 n=d6 v=0
20280 On ch=1 n=a5 v=63
20340 On ch=1 n=a5 v=0
20340 On ch=1 n=a#5 v=65
20400 On ch=1 n=a#5 v=0
20400 On ch=1 n=c6 v=67
20460 On ch=1 n=c6 v=0
20460 On ch=1 n=d6 v=68
20520 On ch=1 n=d6 v=0
20520 On ch=1 n=a5 v=70
20580 On ch=1 n=a5 v=0
20580 On ch=1 n=a#5 v=72
20640 On ch=1 n=a#5 v=0
20640 On ch=1 n=c6 v=74
20700 On ch=1 n=c6 v=0
20700 On ch=1 n=c#6 v=75
20760 On ch=1 n=c#6 v=0
20760 On ch=1 n=a5 v=77
20820 On ch=1 n=a5 v=0
20820 On ch=1 n=a#5 v=79
20880 On ch=1 n=a#5 v=0
20880 On ch=1 n=c6 v=81
20910 On ch=1 n=c6 v=0
20910 On ch=1 n=d6 v=82
20940 On ch=1 n=d6 v=0
20940 On ch=1 n=c6 v=82
20970 On ch=1 n=c6 v=0
20970 On ch=1 n=d6 v=83
21000 On ch=1 n=d6 v=0
21000 On ch=1 n=c6 v=84
21020 On ch=1 n=c6 v=0
21020 On ch=1 n=d6 v=85
21040 On ch=1 n=d6 v=0
21040 On ch=1 n=c6 v=85
21060 On ch=1 n=c6 v=0
21060 On ch=1 n=d6 v=86
21080 On ch=1 n=d6 v=0
21080 On ch=1 n=c6 v=87
21100 On ch=1 n=c6 v=0
21100 On ch=1 n=d6 v=87
21120 On ch=1 n=d6 v=0
21120 On ch=1 n=c6 v=88
21140 On ch=1 n=c6 v=0
21140 On ch=1 n=d6 v=88
21160 On ch=1 n=d6 v=0
21160 On ch=1 n=c6 v=89
21180 On ch=1 n=c6 v=0
21180 On ch=1 n=d6 v=89
21200 On ch=1 n=d6 v=0
21200 On ch=1 n=c6 v=90
21220 On ch=1 n=c6 v=0
21220 On ch=1 n=d6 v=91
21240 On ch=1 n=d6 v=0
21240 On ch=1 n=c6 v=91
21260 On ch=1 n=c6 v=0
21260 On ch=1 n=d6 v=92
21280 On ch=1 n=d6 v=0
21280 On ch=1 n=c6 v=92
21300 On ch=1 n=c6 v=0
21300 On ch=1 n=d6 v=93
21320 On ch=1 n=d6 v=0
21320 On ch=1 n=c6 v=94
21340 On ch=1 n=c6 v=0
21340 On ch=1 n=d6 v=94
21360 On ch=1 n=d6 v=0
21360 On ch=1 n=c6 v=95
21380 On ch=1 n=c6 v=0
21380 On ch=1 n=d6 v=95
21400 On ch=1 n=d6 v=0
21400 On ch=1 n=c6 v=96
21420 On ch=1 n=c6 v=0
21420 On ch=1 n=d6 v=97
21440 On ch=1 n=d6 v=0
21440 On ch=1 n=c6 v=97
21460 On ch=1 n=c6 v=0
21460 On ch=1 n=d6 v=98
21480 On ch=1 n=d6 v=0
21480 On ch=1 n=c6 v=98
21520 On ch=1 n=c6 v=0
21520 On ch=1 n=b5 v=99
21560 On ch=1 n=b5 v=0
21560 On ch=1 n=c6 v=100
21600 On ch=1 n=c6 v=0
21600 On ch=1 n=d6 v=60
21660 On ch=1 n=d6 v=0
21660 On ch=1 n=d#6 v=61
21720 On ch=1 n=d#6 v=0
21720 On ch=1 n=b5 v=63
21780 On ch=1 n=b5 v=0
21780 On ch=1 n=c#6 v=65
21840 On ch=1 n=c#6 v=0
21840 On ch=1 n=d6 v=67
21900 On ch=1 n=d6 v=0
21900 On ch=1 n=d#6 v=68
21960 On ch=1 n=d#6 v=0
21960 On ch=1 n=b5 v=70
22020 On ch=1 n=b5 v=0
22020 On ch=1 n=c#6 v=72
22080 On ch=1 n=c#6 v=0
22080 On ch=1 n=d6 v=74
22140 On ch=1 n=d6 v=0
22140 On ch=1 n=d#6 v=75
22200 On ch=1 n=d#6 v=0
22200 On ch=1 n=b5 v=77
22260 On ch=1 n=b5 v=0
22260 On ch=1 n=c#6 v=79
22320 On ch=1 n=c#6 v=0
22320 On ch=1 n=d6 v=81
22350 On ch=1 n=d6 v=0
22350 On ch=1 n=d#6 v=82
22380 On ch=1 n=d#6 v=0
22380 On ch=1 n=d6 v=82
22410 On ch=1 n=d6 v=0
22410 On ch=1 n=d#6 v=83
22440 On ch=1 n=d#6 v=0
22440 On ch=1 n=d6 v=84
22460 On ch=1 n=d6 v=0
22460 On ch=1 n=d#6 v=85
22480 On ch=1 n=d#6 v=0
22480 On ch=1 n=d6 v=85
22500 On ch=1 n=d6 v=0
22500 On ch=1 n=d#6 v=86
22520 On ch=1 n=d#6 v=0
22520 On ch=1 n=d6 v=87
22540 On ch=1 n=d6 v=0
22540 On ch=1 n=d#6 v=87
22560 On ch=1 n=d#6 v=0
22560 On ch=1 n=d6 v=88
22580 On ch=1 n=d6 v=0
22580 On ch=1 n=d#6 v=88
22600 On ch=1 n=d#6 v=0
22600 On ch=1 n=d6 v=89
22620 On ch=1 n=d6 v=0
22620 On ch=1 n=d#6 v=89
22640 On ch=1 n=d#6 v=0
22640 On ch=1 n=d6 v=90
22660 On ch=1 n=d6 v=0
22660 On ch=1 n=d#6 v=91
22680 On ch=1 n=d#6 v=0
22680 On ch=1 n=d6 v=91
22700 On ch=1 n=d6 v=0
22700 On ch=1 n=d#6 v=92
22720 On ch=1 n=d#6 v=0
22720 On ch=1 n=d6 v=92
22740 On ch=1 n=d6 v=0
22740 On ch=1 n=d#6 v=93
22760 On ch=1 n=d#6 v=0
22760 On ch=1 n=d6 v=94
22780 On ch=1 n=d6 v=0
22780 On ch=1 n=d#6 v=94
22800 On ch=1 n=d#6 v=0
22800 On ch=1 n=d6 v=95
22820 On ch=1 n=d6 v=0
22820 On ch=1 n=d#6 v=95
22840 On ch=1 n=d#6 v=0
22840 On ch=1 n=d6 v=96
22860 On ch=1 n=d6 v=0
22860 On ch=1 n=d#6 v=97
22880 On ch=1 n=d#6 v=0
22880 On ch=1 n=d6 v=97
22900 On ch=1 n=d6 v=0
22900 On ch=1 n=d#6 v=98
22920 On ch=1 n=d#6 v=0
22920 On ch=1 n=d6 v=98
22960 On ch=1 n=d6 v=0
22960 On ch=1 n=c#6 v=99
23000 On ch=1 n=c#6 v=0
23000 On ch=1 n=d6 v=100
23040 On ch=1 n=d6 v=0
23040 On ch=1 n=f6 v=100
23280 On ch=1 n=f6 v=0
23280 On ch=1 n=d#6 v=97
23400 On ch=1 n=d#6 v=0
23400 On ch=1 n=d6 v=95
23460 On ch=1 n=d6 v=0
23460 On ch=1 n=b5 v=95
23520 On ch=1 n=b5 v=0
23520 On ch=1 n=c6 v=94
23580 On ch=1 n=c6 v=0
23580 On ch=1 n=f5 v=93
23640 On ch=1 n=f5 v=0
23640 On ch=1 n=g5 v=92
23685 On ch=1 n=a#5 v=91
23700 On ch=1 n=a#5 v=0
23700 On ch=1 n=g5 v=0
23700 On ch=1 n=g#5 v=91
23760 On ch=1 n=g#5 v=0
23760 On ch=1 n=g5 v=90
23940 On ch=1 n=g5 v=0
23940 On ch=1 n=d5 v=88
24000 On ch=1 n=d5 v=0
24000 On ch=1 n=g5 v=87
24120 On ch=1 n=g5 v=0
24120 On ch=1 n=d5 v=85
24240 On ch=1 n=d5 v=0
24240 On ch=1 n=g5 v=83
24360 On ch=1 n=g5 v=0
24360 On ch=1 n=g#6 v=82
24420 On ch=1 n=g#6 v=0
24420 On ch=1 n=g6 v=81
24480 On ch=1 n=g6 v=0
24480 On ch=1 n=f6 v=80
24720 On ch=1 n=f6 v=0
24720 On ch=1 n=d#6 v=77
24840 On ch=1 n=d#6 v=0
24840 On ch=1 n=d6 v=75
24900 On ch=1 n=d6 v=0
24900 On ch=1 n=b5 v=74
24960 On ch=1 n=b5 v=0
24960 On ch=1 n=c6 v=73
25020 On ch=1 n=c6 v=0
25020 On ch=1 n=f5 v=72
25080 On ch=1 n=f5 v=0
25080 On ch=1 n=g5 v=71
25125 On ch=1 n=a#5 v=71
25140 On ch=1 n=a#5 v=0
25140 On ch=1 n=g5 v=0
25140 On ch=1 n=g#5 v=71
25200 On ch=1 n=g#5 v=0
25200 On ch=1 n=g5 v=70
25380 On ch=1 n=g5 v=0
25380 On ch=1 n=d5 v=67
25440 On ch=1 n=d5 v=0
25440 On ch=1 n=g5 v=66
25560 On ch=1 n=g5 v=0
25560 On ch=1 n=d5 v=65
25680 On ch=1 n=d5 v=0
25680 On ch=1 n=g5 v=63
25920 On ch=1 n=g4 v=60
25920 On ch=1 n=c5 v=60
25920 On ch=1 n=e5 v=60
26040 On ch=1 n=e5 v=0
26040 On ch=1 n=c5 v=0
26040 On ch=1 n=g4 v=0
26040 On ch=1 n=g4 v=60
26040 On ch=1 n=c5 v=60
26040 On ch=1 n=e5 v=60
26160 On ch=1 n=e5 v=0
26160 On ch=1 n=c5 v=0
26160 On ch=1 n=g4 v=0
26160 On ch=1 n=g4 v=60
26160 On ch=1 n=c5 v=60
26160 On ch=1 n=e5 v=60
26280 On ch=1 n=e5 v=0
26280 On ch=1 n=c5 v=0
26280 On ch=1 n=g4 v=0
26280 On ch=1 n=g4 v=60
26280 On ch=1 n=c5 v=60
26280 On ch=1 n=e5 v=60
26400 On ch=1 n=e5 v=0
26400 On ch=1 n=c5 v=0
26400 On ch=1 n=g4 v=0
26400 On ch=1 n=g4 v=60
26400 On ch=1 n=c5 v=60
26400 On ch=1 n=e5 v=60
26520 On ch=1 n=e5 v=0
26520 On ch=1 n=c5 v=0
26520 On ch=1 n=g4 v=0
26520 On ch=1 n=g4 v=60
26520 On ch=1 n=c5 v=60
26520 On ch=1 n=e5 v=60
26640 On ch=1 n=e5 v=0
26640 On ch=1 n=c5 v=0
26640 On ch=1 n=g4 v=0
26640 On ch=1 n=g4 v=60
26640 On ch=1 n=c5 v=60
26640 On ch=1 n=e5 v=60
26760 On ch=1 n=e5 v=0
26760 On ch=1 n=c5 v=0
26760 On ch=1 n=g4 v=0
26760 On ch=1 n=g4 v=60
26760 On ch=1 n=c5 v=60
26760 On ch=1 n=e5 v=60
26880 On ch=1 n=e5 v=0
26880 On ch=1 n=c5 v=0
26880 On ch=1 n=g4 v=0
26880 On ch=1 n=g4 v=60
26880 On ch=1 n=c5 v=60
26880 On ch=1 n=e5 v=60
27000 On ch=1 n=e5 v=0
27000 On ch=1 n=c5 v=0
27000 On ch=1 n=g4 v=0
27000 On ch=1 n=g4 v=60
27000 On ch=1 n=c5 v=60
27000 On ch=1 n=e5 v=60
27120 On ch=1 n=e5 v=0
27120 On ch=1 n=c5 v=0
27120 On ch=1 n=g4 v=0
27120 On ch=1 n=g4 v=60
27120 On ch=1 n=c5 v=60
27120 On ch=1 n=e5 v=60
27240 On ch=1 n=e5 v=0
27240 On ch=1 n=c5 v=0
27240 On ch=1 n=g4 v=0
27240 On ch=1 n=g4 v=60
27240 On ch=1 n=c5 v=60
27240 On ch=1 n=e5 v=60
27360 On ch=1 n=e5 v=0
27360 On ch=1 n=c5 v=0
27360 On ch=1 n=g4 v=0
27360 On ch=1 n=g4 v=60
27360 On ch=1 n=d5 v=60
27360 On ch=1 n=f5 v=60
27480 On ch=1 n=f5 v=0
27480 On ch=1 n=d5 v=0
27480 On ch=1 n=g4 v=0
27480 On ch=1 n=g4 v=60
27480 On ch=1 n=d5 v=60
27480 On ch=1 n=f5 v=60
27600 On ch=1 n=f5 v=0
27600 On ch=1 n=d5 v=0
27600 On ch=1 n=g4 v=0
27600 On ch=1 n=g4 v=60
27600 On ch=1 n=d5 v=60
27600 On ch=1 n=f5 v=60
27720 On ch=1 n=f5 v=0
27720 On ch=1 n=g5 v=0
27720 On ch=1 n=g4 v=0
27720 On ch=1 n=d5 v=0
27840 On ch=1 n=g4 v=60
27840 On ch=1 n=c5 v=60
27840 On ch=1 n=g5 v=60
27960 On ch=1 n=g5 v=0
27960 On ch=1 n=c5 v=0
27960 On ch=1 n=g4 v=0
27960 On ch=1 n=g4 v=60
27960 On ch=1 n=c5 v=60
27960 On ch=1 n=g5 v=60
28080 On ch=1 n=g5 v=0
28080 On ch=1 n=c5 v=0
28080 On ch=1 n=g4 v=0
28080 On ch=1 n=g4 v=60
28080 On ch=1 n=b4 v=60
28080 On ch=1 n=f5 v=60
28080 On ch=1 n=g5 v=60
28200 On ch=1 n=g5 v=0
28200 On ch=1 n=g4 v=0
28200 On ch=1 n=b4 v=0
28200 On ch=1 n=f5 v=0
28200 On ch=1 n=g4 v=60
28200 On ch=1 n=c5 v=60
28200 On ch=1 n=f5 v=60
28200 On ch=1 n=g5 v=60
28320 On ch=1 n=g5 v=0
28320 On ch=1 n=g4 v=0
28320 On ch=1 n=c5 v=0
28320 On ch=1 n=f5 v=0
28320 On ch=1 n=g4 v=60
28320 On ch=1 n=d5 v=60
28320 On ch=1 n=f5 v=60
28320 On ch=1 n=g5 v=60
28440 On ch=1 n=g5 v=0
28440 On ch=1 n=g4 v=0
28440 On ch=1 n=d5 v=0
28440 On ch=1 n=f5 v=0
28560 On ch=1 n=e5 v=60
28560 On ch=1 n=g5 v=60
28680 On ch=1 n=g5 v=0
28680 On ch=1 n=e5 v=0
28680 On ch=1 n=e5 v=60
28680 On ch=1 n=g5 v=60
28800 On ch=1 n=g5 v=0
28800 On ch=1 n=e5 v=0
28800 On ch=1 n=d5 v=60
28800 On ch=1 n=g5 v=60
28920 On ch=1 n=g5 v=0
28920 On ch=1 n=d5 v=0
28920 On ch=1 n=d5 v=60
28920 On ch=1 n=g5 v=60
29040 On ch=1 n=g5 v=0
29040 On ch=1 n=d5 v=0
29040 On ch=1 n=e5 v=60
29040 On ch=1 n=g5 v=60
29160 On ch=1 n=e6 v=60
29280 On ch=1 n=g5 v=0
29280 On ch=1 n=e5 v=0
29280 On ch=1 n=e5 v=60
29280 On ch=1 n=g5 v=60
29400 On ch=1 n=g5 v=0
29400 On ch=1 n=e5 v=0
29400 On ch=1 n=e6 v=0
29400 On ch=1 n=d6 v=60
29400 On ch=1 n=e5 v=60
29460 On ch=1 n=d6 v=0
29460 On ch=1 n=c6 v=60
29520 On ch=1 n=c6 v=0
29520 On ch=1 n=c6 v=60
29640 On ch=1 n=c6 v=0
29640 On ch=1 n=e5 v=0
29640 On ch=1 n=c5 v=60
29640 On ch=1 n=e5 v=60
29760 On ch=1 n=e5 v=0
29760 On ch=1 n=c5 v=0
29760 On ch=1 n=c5 v=60
29760 On ch=1 n=a5 v=60
29760 On ch=1 n=e5 v=60
29820 On ch=1 n=e5 v=0
29820 On ch=1 n=f#5 v=60
29880 On ch=1 n=f#5 v=0
29880 On ch=1 n=a5 v=0
29880 On ch=1 n=c5 v=0
29880 On ch=1 n=b4 v=60
29880 On ch=1 n=g5 v=60
29880 On ch=1 n=b5 v=60
30000 On ch=1 n=b5 v=0
30000 On ch=1 n=g5 v=0
30000 On ch=1 n=b4 v=0
30000 On ch=1 n=b4 v=60
30000 On ch=1 n=d5 v=60
30120 On ch=1 n=d5 v=0
30120 On ch=1 n=b4 v=0
30120 On ch=1 n=a#5 v=60
30120 On ch=1 n=g5 v=60
30120 On ch=1 n=a#4 v=60
30240 On ch=1 n=a#4 v=0
30240 On ch=1 n=g5 v=0
30240 On ch=1 n=a#5 v=0
30240 On ch=1 n=a4 v=60
30240 On ch=1 n=g5 v=60
30240 On ch=1 n=a5 v=60
30360 On ch=1 n=a5 v=0
30360 On ch=1 n=g5 v=0
30360 On ch=1 n=a4 v=0
30360 On ch=1 n=a4 v=60
30360 On ch=1 n=e5 v=60
30360 On ch=1 n=g5 v=60
30360 On ch=1 n=a5 v=60
30480 On ch=1 n=a5 v=0
30480 On ch=1 n=a4 v=0
30480 On ch=1 n=e5 v=0
30480 On ch=1 n=g5 v=0
30480 On ch=1 n=a4 v=60
30480 On ch=1 n=a5 v=60
30600 On ch=1 n=a5 v=0
30600 On ch=1 n=a4 v=0
30720 On ch=1 n=a4 v=60
30720 On ch=1 n=d5 v=60
30720 On ch=1 n=a5 v=60
30840 On ch=1 n=a5 v=0
30840 On ch=1 n=d5 v=0
30840 On ch=1 n=a4 v=0
30840 On ch=1 n=a4 v=60
30840 On ch=1 n=d5 v=60
30840 On ch=1 n=a5 v=60
30960 On ch=1 n=a5 v=0
30960 On ch=1 n=d5 v=0
30960 On ch=1 n=a4 v=0
30960 On ch=1 n=a4 v=60
30960 On ch=1 n=c#5 v=60
30960 On ch=1 n=g5 v=60
30960 On ch=1 n=a5 v=60
31080 On ch=1 n=a5 v=0
31080 On ch=1 n=a4 v=0
31080 On ch=1 n=c#5 v=0
31080 On ch=1 n=g5 v=0
31080 On ch=1 n=a4 v=60
31080 On ch=1 n=d5 v=60
31080 On ch=1 n=g5 v=60
31080 On ch=1 n=a5 v=60
31200 On ch=1 n=a5 v=0
31200 On ch=1 n=a4 v=0
31200 On ch=1 n=d5 v=0
31200 On ch=1 n=g5 v=0
31200 On ch=1 n=a4 v=60
31200 On ch=1 n=e5 v=60
31200 On ch=1 n=g5 v=60
31200 On ch=1 n=a5 v=60
31320 On ch=1 n=a5 v=0
31320 On ch=1 n=a4 v=0
31320 On ch=1 n=e5 v=0
31320 On ch=1 n=g5 v=0
31440 On ch=1 n=f6 v=60
31440 On ch=1 n=a5 v=60
31440 On ch=1 n=f5 v=60
31560 On ch=1 n=f5 v=0
31560 On ch=1 n=a5 v=0
31560 On ch=1 n=f5 v=60
31560 On ch=1 n=a5 v=60
31680 On ch=1 n=a5 v=0
31680 On ch=1 n=f5 v=0
31680 On ch=1 n=f6 v=0
31680 On ch=1 n=e6 v=60
31800 On ch=1 n=g5 v=60
31800 On ch=1 n=a5 v=60
31920 On ch=1 n=a5 v=0
31920 On ch=1 n=g5 v=0
31920 On ch=1 n=e6 v=0
31920 On ch=1 n=f6 v=60
31920 On ch=1 n=f5 v=60
32010 On ch=1 n=f6 v=0
32010 On ch=1 n=d6 v=60
32040 On ch=1 n=d6 v=0
32040 On ch=1 n=d6 v=60
32160 On ch=1 n=f5 v=0
32160 On ch=1 n=d5 v=60
32160 On ch=1 n=f5 v=60
32280 On ch=1 n=f5 v=0
32280 On ch=1 n=d5 v=0
32280 On ch=1 n=d6 v=0
32280 On ch=1 n=c6 v=60
32280 On ch=1 n=d5 v=60
32280 On ch=1 n=f5 v=60
32400 On ch=1 n=f5 v=0
32400 On ch=1 n=d5 v=0
32400 On ch=1 n=c6 v=0
32400 On ch=1 n=b5 v=60
32520 On ch=1 n=f5 v=60
32520 On ch=1 n=b4 v=60
32640 On ch=1 n=b4 v=0
32640 On ch=1 n=f5 v=0
32640 On ch=1 n=b5 v=0
32640 On ch=1 n=b4 v=60
32640 On ch=1 n=f5 v=60
32640 On ch=1 n=g5 v=60
32760 On ch=1 n=g5 v=0
32760 On ch=1 n=f5 v=0
32760 On ch=1 n=b4 v=0
32880 On ch=1 n=g5 v=60
32880 On ch=1 n=e5 v=60
32880 On ch=1 n=c5 v=60
33000 On ch=1 n=c5 v=0
33000 On ch=1 n=e5 v=0
33000 On ch=1 n=g5 v=0
33000 On ch=1 n=c5 v=60
33000 On ch=1 n=e5 v=60
33000 On ch=1 n=c6 v=60
33120 On ch=1 n=c6 v=0
33120 On ch=1 n=e5 v=0
33120 On ch=1 n=c5 v=0
33240 On ch=1 n=e5 v=60
33240 On ch=1 n=a#5 v=60
33240 On ch=1 n=c6 v=60
33360 On ch=1 n=c6 v=0
33360 On ch=1 n=a#5 v=0
33360 On ch=1 n=e5 v=0
33360 On ch=1 n=e5 v=60
33360 On ch=1 n=a#5 v=60
33360 On ch=1 n=c6 v=60
33585 On ch=1 n=d#6 v=60
33600 On ch=1 n=d#6 v=0
33600 On ch=1 n=e5 v=0
33600 On ch=1 n=a#5 v=0
33600 On ch=1 n=c6 v=0
33600 On ch=1 n=e5 v=60
33600 On ch=1 n=a#5 v=60
33600 On ch=1 n=c#6 v=60
33720 On ch=1 n=c#6 v=0
33720 On ch=1 n=a#5 v=0
33720 On ch=1 n=e5 v=0
33720 On ch=1 n=c6 v=60
33720 On ch=1 n=a#5 v=60
33720 On ch=1 n=e5 v=60
33840 On ch=1 n=e5 v=0
33840 On ch=1 n=a#5 v=0
33840 On ch=1 n=c6 v=0
33960 On ch=1 n=c6 v=60
33960 On ch=1 n=g#5 v=60
34080 On ch=1 n=c6 v=0
34080 On ch=1 n=c6 v=60
34200 On ch=1 n=c6 v=0
34200 On ch=1 n=g#5 v=0
34320 On ch=1 n=f5 v=60
34320 On ch=1 n=g#5 v=60
34320 On ch=1 n=c6 v=60
34440 On ch=1 n=g#5 v=0
34440 On ch=1 n=f5 v=0
34440 On ch=1 n=g#5 v=60
34440 On ch=1 n=f5 v=60
34560 On ch=1 n=f5 v=0
34560 On ch=1 n=g#5 v=0
34560 On ch=1 n=c6 v=0
34680 On ch=1 n=e5 v=60
34680 On ch=1 n=a#5 v=60
34680 On ch=1 n=c6 v=60
34800 On ch=1 n=c6 v=0
34800 On ch=1 n=a#5 v=0
34800 On ch=1 n=e5 v=0
34800 On ch=1 n=e5 v=60
34800 On ch=1 n=a#5 v=60
34800 On ch=1 n=c6 v=60
35025 On ch=1 n=d#6 v=60
35040 On ch=1 n=d#6 v=0
35040 On ch=1 n=e5 v=0
35040 On ch=1 n=a#5 v=0
35040 On ch=1 n=c6 v=0
35040 On ch=1 n=e5 v=60
35040 On ch=1 n=a#5 v=60
35040 On ch=1 n=c#6 v=60
35160 On ch=1 n=c#6 v=0
35160 On ch=1 n=a#5 v=0
35160 On ch=1 n=e5 v=0
35160 On ch=1 n=c6 v=60
35160 On ch=1 n=a#5 v=60
35160 On ch=1 n=e5 v=60
35280 On ch=1 n=e5 v=0
35280 On ch=1 n=a#5 v=0
35280 On ch=1 n=c6 v=0
35400 On ch=1 n=c6 v=60
35400 On ch=1 n=g#5 v=60
35400 On ch=1 n=f5 v=60
35520 On ch=1 n=f5 v=0
35520 On ch=1 n=g#5 v=0
35520 On ch=1 n=c6 v=0
35520 On ch=1 n=f5 v=60
35520 On ch=1 n=g#5 v=60
35520 On ch=1 n=c6 v=60
35640 On ch=1 n=c6 v=0
35640 On ch=1 n=g#5 v=0
35640 On ch=1 n=f5 v=0
35760 On ch=1 n=c6 v=60
35760 On ch=1 n=g#5 v=60
35760 On ch=1 n=f5 v=60
35880 On ch=1 n=f5 v=0
35880 On ch=1 n=g#5 v=0
35880 On ch=1 n=c6 v=0
35880 On ch=1 n=a#5 v=60
35880 On ch=1 n=g#5 v=60
36000 On ch=1 n=g#5 v=0
36000 On ch=1 n=a#5 v=0
36120 On ch=1 n=g5 v=60
36120 On ch=1 n=c#6 v=60
36120 On ch=1 n=d#6 v=60
36240 On ch=1 n=d#6 v=0
36240 On ch=1 n=c#6 v=0
36240 On ch=1 n=g5 v=0
36240 On ch=1 n=g5 v=60
36240 On ch=1 n=c#6 v=60
36240 On ch=1 n=d#6 v=60
36465 On ch=1 n=f#6 v=60
36480 On ch=1 n=f#6 v=0
36480 On ch=1 n=g5 v=0
36480 On ch=1 n=c#6 v=0
36480 On ch=1 n=d#6 v=0
36480 On ch=1 n=f6 v=60
36480 On ch=1 n=c#6 v=60
36480 On ch=1 n=g5 v=60
36600 On ch=1 n=g5 v=0
36600 On ch=1 n=c#6 v=0
36600 On ch=1 n=f6 v=0
36600 On ch=1 n=g5 v=60
36600 On ch=1 n=d#6 v=60
36600 On ch=1 n=c#6 v=60
36720 On ch=1 n=c#6 v=0
36720 On ch=1 n=d#6 v=0
36720 On ch=1 n=g5 v=0
36840 On ch=1 n=b5 v=60
36840 On ch=1 n=d#6 v=60
36960 On ch=1 n=d#6 v=0
36960 On ch=1 n=b5 v=0
36960 On ch=1 n=d#6 v=60
36960 On ch=1 n=b5 v=60
37200 On ch=1 n=b5 v=0
37200 On ch=1 n=d#6 v=0
37200 On ch=1 n=g#5 v=60
37200 On ch=1 n=b5 v=60
37200 On ch=1 n=d#6 v=60
37320 On ch=1 n=d#6 v=0
37320 On ch=1 n=b5 v=0
37320 On ch=1 n=g#5 v=0
37320 On ch=1 n=g#5 v=60
37320 On ch=1 n=b5 v=60
37320 On ch=1 n=d#6 v=60
37440 On ch=1 n=d#6 v=0
37440 On ch=1 n=b5 v=0
37440 On ch=1 n=g#5 v=0
37560 On ch=1 n=g5 v=60
37560 On ch=1 n=c#6 v=60
37560 On ch=1 n=d#6 v=60
37680 On ch=1 n=d#6 v=0
37680 On ch=1 n=c#6 v=0
37680 On ch=1 n=g5 v=0
37680 On ch=1 n=g5 v=60
37680 On ch=1 n=c#6 v=60
37680 On ch=1 n=d#6 v=60
37905 On ch=1 n=f#6 v=60
37920 On ch=1 n=f#6 v=0
37920 On ch=1 n=g5 v=0
37920 On ch=1 n=c#6 v=0
37920 On ch=1 n=d#6 v=0
37920 On ch=1 n=f6 v=60
37920 On ch=1 n=c#6 v=60
37920 On ch=1 n=g5 v=60
38040 On ch=1 n=g5 v=0
38040 On ch=1 n=c#6 v=0
38040 On ch=1 n=f6 v=0
38040 On ch=1 n=g5 v=60
38040 On ch=1 n=d#6 v=60
38040 On ch=1 n=c#6 v=60
38160 On ch=1 n=c#6 v=0
38160 On ch=1 n=d#6 v=0
38160 On ch=1 n=g5 v=0
38160 On ch=1 n=f#5 v=60
38160 On ch=1 n=c6 v=60
38160 On ch=1 n=d#6 v=60
38280 On ch=1 n=d#6 v=0
38280 On ch=1 n=c6 v=0
38280 On ch=1 n=f#5 v=0
38280 On ch=1 n=f5 v=60
38280 On ch=1 n=a#5 v=60
38280 On ch=1 n=d6 v=60
38400 On ch=1 n=d6 v=0
38400 On ch=1 n=a#5 v=0
38400 On ch=1 n=f5 v=0
38400 On ch=1 n=c#6 v=60
38400 On ch=1 n=a#5 v=60
38400 On ch=1 n=e5 v=60
38520 On ch=1 n=e5 v=0
38520 On ch=1 n=a#5 v=0
38520 On ch=1 n=c#6 v=0
38520 On ch=1 n=d#5 v=60
38520 On ch=1 n=g#5 v=60
38520 On ch=1 n=c6 v=60
38640 On ch=1 n=c6 v=0
38640 On ch=1 n=g#5 v=0
38640 On ch=1 n=d#5 v=0
38640 On ch=1 n=b5 v=60
38640 On ch=1 n=a5 v=60
38640 On ch=1 n=d5 v=60
38760 On ch=1 n=d5 v=0
38760 On ch=1 n=a5 v=0
38760 On ch=1 n=b5 v=0
38760 On ch=1 n=c#5 v=60
38760 On ch=1 n=d#5 v=60
38760 On ch=1 n=a#5 v=60
38865 On ch=1 n=c5 v=60
38880 On ch=1 n=c5 v=0
38880 On ch=1 n=c#5 v=0
38880 On ch=1 n=d#5 v=0
38880 On ch=1 n=a#5 v=0
38880 On ch=1 n=c6 v=80
38940 On ch=1 n=c6 v=0
38940 On ch=1 n=g5 v=80
39000 On ch=1 n=g5 v=0
39000 On ch=1 n=g#5 v=80
39060 On ch=1 n=g#5 v=0
39060 On ch=1 n=f5 v=80
39120 On ch=1 n=f5 v=0
39120 On ch=1 n=d#5 v=80
39300 On ch=1 n=d#5 v=0
39300 On ch=1 n=g#5 v=80
39360 On ch=1 n=g#5 v=0
39360 On ch=1 n=c6 v=80
39420 On ch=1 n=c6 v=0
39420 On ch=1 n=c#6 v=80
39480 On ch=1 n=c#6 v=0
39480 On ch=1 n=f6 v=80
39660 On ch=1 n=f6 v=0
39660 On ch=1 n=d6 v=80
39720 On ch=1 n=d6 v=0
39720 On ch=1 n=f6 v=80
39780 On ch=1 n=f6 v=0
39780 On ch=1 n=d#6 v=80
39840 On ch=1 n=d#6 v=0
39840 On ch=1 n=c7 v=80
40020 On ch=1 n=c7 v=0
40020 On ch=1 n=g6 v=80
40080 On ch=1 n=g6 v=0
40080 On ch=1 n=g#6 v=80
40140 On ch=1 n=g#6 v=0
40140 On ch=1 n=d6 v=80
40200 On ch=1 n=d6 v=0
40200 On ch=1 n=d#6 v=80
40260 On ch=1 n=d#6 v=0
40260 On ch=1 n=e6 v=80
40320 On ch=1 n=e6 v=0
40320 On ch=1 n=f6 v=80
40380 On ch=1 n=f6 v=0
40380 On ch=1 n=e6 v=80
40440 On ch=1 n=e6 v=0
40440 On ch=1 n=d#6 v=80
40500 On ch=1 n=d#6 v=0
40500 On ch=1 n=d6 v=80
40560 On ch=1 n=d6 v=0
40560 On ch=1 n=c#6 v=80
40680 On ch=1 n=c#6 v=0
40680 On ch=1 n=c6 v=80
40740 On ch=1 n=c6 v=0
40740 On ch=1 n=d#6 v=80
40800 On ch=1 n=d#6 v=0
40800 On ch=1 n=c#6 v=80
40860 On ch=1 n=c#6 v=0
40860 On ch=1 n=c6 v=80
40920 On ch=1 n=c6 v=0
40920 On ch=1 n=a#5 v=80
41040 On ch=1 n=a#5 v=0
41040 On ch=1 n=f6 v=80
41100 On ch=1 n=f6 v=0
41100 On ch=1 n=e6 v=80
41160 On ch=1 n=e6 v=0
41160 On ch=1 n=d#6 v=80
41220 On ch=1 n=d#6 v=0
41220 On ch=1 n=d6 v=80
41280 On ch=1 n=d6 v=0
41280 On ch=1 n=c#6 v=80
41400 On ch=1 n=c#6 v=0
41400 On ch=1 n=b5 v=80
41460 On ch=1 n=b5 v=0
41460 On ch=1 n=c#6 v=80
41520 On ch=1 n=c#6 v=0
41520 On ch=1 n=c6 v=81
41580 On ch=1 n=c6 v=0
41580 On ch=1 n=b5 v=82
41640 On ch=1 n=b5 v=0
41640 On ch=1 n=a#5 v=82
41760 On ch=1 n=a#5 v=0
41760 On ch=1 n=g#5 v=84
41820 On ch=1 n=g#5 v=0
41820 On ch=1 n=e5 v=84
41880 On ch=1 n=e5 v=0
41880 On ch=1 n=f5 v=85
41940 On ch=1 n=f5 v=0
41940 On ch=1 n=c#5 v=86
42000 On ch=1 n=c#5 v=0
42000 On ch=1 n=c5 v=87
42180 On ch=1 n=c5 v=0
42180 On ch=1 n=f5 v=89
42240 On ch=1 n=f5 v=0
42240 On ch=1 n=g#5 v=89
42300 On ch=1 n=g#5 v=0
42300 On ch=1 n=a#5 v=90
42360 On ch=1 n=a#5 v=0
42360 On ch=1 n=c#6 v=91
42540 On ch=1 n=c#6 v=0
42540 On ch=1 n=b5 v=93
42600 On ch=1 n=b5 v=0
42600 On ch=1 n=c#6 v=94
42660 On ch=1 n=c#6 v=0
42660 On ch=1 n=c6 v=94
42720 On ch=1 n=c6 v=0
42720 On ch=1 n=g#6 v=95
42900 On ch=1 n=g#6 v=0
42900 On ch=1 n=g6 v=97
42960 On ch=1 n=g6 v=0
42960 On ch=1 n=f6 v=98
43020 On ch=1 n=f6 v=0
43020 On ch=1 n=c6 v=99
43080 On ch=1 n=c6 v=0
43080 On ch=1 n=d6 v=99
43140 On ch=1 n=d6 v=0
43140 On ch=1 n=d#6 v=100
43200 On ch=1 n=d#6 v=0
43200 On ch=1 n=a#5 v=100
43230 On ch=1 n=a#5 v=0
43260 On ch=1 n=g6 v=100
43320 On ch=1 n=g6 v=0
43320 On ch=1 n=d#7 v=99
43380 On ch=1 n=d#7 v=0
43380 On ch=1 n=d7 v=98
43440 On ch=1 n=d7 v=0
43440 On ch=1 n=f6 v=97
43500 On ch=1 n=f6 v=0
43500 On ch=1 n=d#6 v=96
43560 On ch=1 n=d#6 v=0
43560 On ch=1 n=c7 v=95
43620 On ch=1 n=c7 v=0
43620 On ch=1 n=a#6 v=94
43680 On ch=1 n=a#6 v=0
43680 On ch=1 n=d6 v=93
43740 On ch=1 n=d6 v=0
43740 On ch=1 n=c6 v=93
43800 On ch=1 n=c6 v=0
43800 On ch=1 n=g#6 v=92
43860 On ch=1 n=g#6 v=0
43860 On ch=1 n=g6 v=91
43920 On ch=1 n=g6 v=0
43920 On ch=1 n=a#5 v=90
43980 On ch=1 n=a#5 v=0
43980 On ch=1 n=a5 v=89
44040 On ch=1 n=a5 v=0
44040 On ch=1 n=g#5 v=88
44100 On ch=1 n=g#5 v=0
44100 On ch=1 n=g#5 v=87
44160 On ch=1 n=g#5 v=0
44160 On ch=1 n=g6 v=86
44220 On ch=1 n=g6 v=0
44220 On ch=1 n=f6 v=86
44280 On ch=1 n=f6 v=0
44280 On ch=1 n=g#5 v=85
44340 On ch=1 n=g#5 v=0
44340 On ch=1 n=a#5 v=84
44400 On ch=1 n=a#5 v=0
44400 On ch=1 n=g5 v=83
44460 On ch=1 n=g5 v=0
44460 On ch=1 n=c#6 v=82
44520 On ch=1 n=c#6 v=0
44520 On ch=1 n=f6 v=81
44580 On ch=1 n=f6 v=0
44580 On ch=1 n=d#6 v=80
44640 On ch=1 n=d#6 v=0
44640 On ch=1 n=c6 v=80
44700 On ch=1 n=c6 v=0
44700 On ch=1 n=g5 v=80
44760 On ch=1 n=g5 v=0
44760 On ch=1 n=g#5 v=80
44820 On ch=1 n=g#5 v=0
44820 On ch=1 n=f5 v=79
44880 On ch=1 n=f5 v=0
44880 On ch=1 n=d#5 v=79
45060 On ch=1 n=d#5 v=0
45060 On ch=1 n=g#5 v=77
45120 On ch=1 n=g#5 v=0
45120 On ch=1 n=c6 v=77
45180 On ch=1 n=c6 v=0
45180 On ch=1 n=c#6 v=77
45240 On ch=1 n=c#6 v=0
45240 On ch=1 n=f6 v=76
45420 On ch=1 n=f6 v=0
45420 On ch=1 n=d6 v=75
45480 On ch=1 n=d6 v=0
45480 On ch=1 n=f6 v=74
45540 On ch=1 n=f6 v=0
45540 On ch=1 n=d#6 v=74
45600 On ch=1 n=d#6 v=0
45600 On ch=1 n=c7 v=73
45780 On ch=1 n=c7 v=0
45780 On ch=1 n=g6 v=72
45840 On ch=1 n=g6 v=0
45840 On ch=1 n=g#6 v=72
45900 On ch=1 n=g#6 v=0
45900 On ch=1 n=d6 v=71
45960 On ch=1 n=d6 v=0
45960 On ch=1 n=d#6 v=71
46020 On ch=1 n=d#6 v=0
46020 On ch=1 n=e6 v=70
46080 On ch=1 n=e6 v=0
46080 On ch=1 n=f6 v=70
46140 On ch=1 n=f6 v=0
46140 On ch=1 n=e6 v=70
46200 On ch=1 n=e6 v=0
46200 On ch=1 n=d#6 v=69
46260 On ch=1 n=d#6 v=0
46260 On ch=1 n=d6 v=69
46320 On ch=1 n=d6 v=0
46320 On ch=1 n=c#6 v=68
46440 On ch=1 n=c#6 v=0
46440 On ch=1 n=c6 v=67
46500 On ch=1 n=c6 v=0
46500 On ch=1 n=d#6 v=67
46560 On ch=1 n=d#6 v=0
46560 On ch=1 n=c#6 v=66
46620 On ch=1 n=c#6 v=0
46620 On ch=1 n=c6 v=66
46680 On ch=1 n=c6 v=0
46680 On ch=1 n=a#5 v=66
46800 On ch=1 n=a#5 v=0
46800 On ch=1 n=f6 v=65
46860 On ch=1 n=f6 v=0
46860 On ch=1 n=e6 v=64
46920 On ch=1 n=e6 v=0
46920 On ch=1 n=d#6 v=64
46980 On ch=1 n=d#6 v=0
46980 On ch=1 n=d6 v=63
47040 On ch=1 n=d6 v=0
47040 On ch=1 n=c#6 v=63
47160 On ch=1 n=c#6 v=0
47160 On ch=1 n=b5 v=62
47220 On ch=1 n=b5 v=0
47220 On ch=1 n=c#6 v=62
47280 On ch=1 n=c#6 v=0
47280 On ch=1 n=c6 v=61
47340 On ch=1 n=c6 v=0
47340 On ch=1 n=b5 v=61
47400 On ch=1 n=b5 v=0
47400 On ch=1 n=a#5 v=60
47520 On ch=1 n=a#5 v=0
47520 On ch=1 n=g#5 v=60
47580 On ch=1 n=g#5 v=0
47580 On ch=1 n=d#5 v=60
47640 On ch=1 n=d#5 v=0
47640 On ch=1 n=e5 v=61
47700 On ch=1 n=e5 v=0
47700 On ch=1 n=c#5 v=62
47760 On ch=1 n=c#5 v=0
47760 On ch=1 n=b4 v=63
47940 On ch=1 n=b4 v=0
47940 On ch=1 n=f#5 v=65
48000 On ch=1 n=f#5 v=0
48000 On ch=1 n=a5 v=66
48060 On ch=1 n=a5 v=0
48060 On ch=1 n=c#6 v=67
48120 On ch=1 n=c#6 v=0
48120 On ch=1 n=b5 v=68
48300 On ch=1 n=b5 v=0
48300 On ch=1 n=g5 v=71
48360 On ch=1 n=g5 v=0
48360 On ch=1 n=a5 v=71
48420 On ch=1 n=a5 v=0
48420 On ch=1 n=g#5 v=72
48480 On ch=1 n=g#5 v=0
48480 On ch=1 n=d6 v=73
48660 On ch=1 n=d6 v=0
48660 On ch=1 n=c6 v=76
48720 On ch=1 n=c6 v=0
48720 On ch=1 n=c#6 v=77
48780 On ch=1 n=c#6 v=0
48780 On ch=1 n=g5 v=77
48840 On ch=1 n=g5 v=0
48840 On ch=1 n=g#5 v=78
48900 On ch=1 n=g#5 v=0
48900 On ch=1 n=a5 v=79
48960 On ch=1 n=a5 v=0
48960 On ch=1 n=a#5 v=80
49020 On ch=1 n=a#5 v=0
49020 On ch=1 n=f5 v=81
49080 On ch=1 n=f5 v=0
49080 On ch=1 n=f#5 v=82
49140 On ch=1 n=f#5 v=0
49140 On ch=1 n=d#5 v=83
49200 On ch=1 n=d#5 v=0
49200 On ch=1 n=c#5 v=83
49380 On ch=1 n=c#5 v=0
49380 On ch=1 n=g#5 v=86
49440 On ch=1 n=g#5 v=0
49440 On ch=1 n=b5 v=87
49500 On ch=1 n=b5 v=0
49500 On ch=1 n=d#6 v=88
49560 On ch=1 n=d#6 v=0
49560 On ch=1 n=c#6 v=89
49740 On ch=1 n=c#6 v=0
49740 On ch=1 n=a5 v=91
49800 On ch=1 n=a5 v=0
49800 On ch=1 n=b5 v=92
49860 On ch=1 n=b5 v=0
49860 On ch=1 n=a#5 v=93
49920 On ch=1 n=a#5 v=0
49920 On ch=1 n=e6 v=94
50100 On ch=1 n=e6 v=0
50100 On ch=1 n=d6 v=96
50160 On ch=1 n=d6 v=0
50160 On ch=1 n=d#6 v=97
50220 On ch=1 n=d#6 v=0
50220 On ch=1 n=d#5 v=98
50280 On ch=1 n=d#5 v=0
50280 On ch=1 n=a#5 v=99
50340 On ch=1 n=a#5 v=0
50340 On ch=1 n=d#6 v=100
50400 On ch=1 n=d#6 v=0
50400 On ch=1 n=c#7 v=100
50430 On ch=1 n=c#7 v=0
50520 On ch=1 n=d#6 v=100
50580 On ch=1 n=d#6 v=0
50580 On ch=1 n=c#7 v=100
50640 On ch=1 n=c#7 v=0
50640 On ch=1 n=c7 v=100
50700 On ch=1 n=c7 v=0
50700 On ch=1 n=b6 v=100
50760 On ch=1 n=b6 v=0
50760 On ch=1 n=c7 v=100
50820 On ch=1 n=c7 v=0
50820 On ch=1 n=g6 v=100
50880 On ch=1 n=g6 v=0
50880 On ch=1 n=a#6 v=100
50940 On ch=1 n=a#6 v=0
50940 On ch=1 n=g#6 v=100
51000 On ch=1 n=g#6 v=0
51000 On ch=1 n=g6 v=100
51060 On ch=1 n=g6 v=0
51060 On ch=1 n=e6 v=100
51120 On ch=1 n=e6 v=0
51120 On ch=1 n=g6 v=100
51180 On ch=1 n=g6 v=0
51180 On ch=1 n=f#6 v=100
51240 On ch=1 n=f#6 v=0
51240 On ch=1 n=f6 v=100
51300 On ch=1 n=f6 v=0
51300 On ch=1 n=c6 v=100
51360 On ch=1 n=c6 v=0
51360 On ch=1 n=c#6 v=100
51420 On ch=1 n=c#6 v=0
51420 On ch=1 n=a#5 v=100
51480 On ch=1 n=a#5 v=0
51480 On ch=1 n=c6 v=100
51540 On ch=1 n=c6 v=0
51540 On ch=1 n=f6 v=100
51600 On ch=1 n=f6 v=0
51600 On ch=1 n=d#6 v=100
51660 On ch=1 n=d#6 v=0
51660 On ch=1 n=d6 v=100
51720 On ch=1 n=d6 v=0
51720 On ch=1 n=d#6 v=100
51780 On ch=1 n=d#6 v=0
51780 On ch=1 n=f6 v=100
51840 On ch=1 n=f6 v=0
51840 On ch=1 n=d#6 v=100
51900 On ch=1 n=d#6 v=0
51900 On ch=1 n=c#7 v=99
51930 On ch=1 n=c#7 v=0
52020 On ch=1 n=c#7 v=95
52080 On ch=1 n=c#7 v=0
52080 On ch=1 n=c7 v=94
52140 On ch=1 n=c7 v=0
52140 On ch=1 n=b6 v=92
52200 On ch=1 n=b6 v=0
52200 On ch=1 n=c7 v=90
52260 On ch=1 n=c7 v=0
52260 On ch=1 n=g6 v=89
52320 On ch=1 n=g6 v=0
52320 On ch=1 n=a#6 v=87
52380 On ch=1 n=a#6 v=0
52380 On ch=1 n=g#6 v=85
52440 On ch=1 n=g#6 v=0
52440 On ch=1 n=g#6 v=83
52500 On ch=1 n=g#6 v=0
52500 On ch=1 n=e6 v=82
52560 On ch=1 n=e6 v=0
52560 On ch=1 n=e6 v=80
52620 On ch=1 n=e6 v=0
52620 On ch=1 n=c6 v=78
52680 On ch=1 n=c6 v=0
52680 On ch=1 n=d#6 v=77
52740 On ch=1 n=d#6 v=0
52740 On ch=1 n=c#6 v=75
52800 On ch=1 n=c#6 v=0
52800 On ch=1 n=c#6 v=73
52860 On ch=1 n=c#6 v=0
52860 On ch=1 n=e5 v=71
52920 On ch=1 n=e5 v=0
52920 On ch=1 n=c#6 v=70
52980 On ch=1 n=c#6 v=0
52980 On ch=1 n=g#5 v=68
53040 On ch=1 n=g#5 v=0
53040 On ch=1 n=a5 v=66
53100 On ch=1 n=a5 v=0
53100 On ch=1 n=b5 v=65
53160 On ch=1 n=b5 v=0
53160 On ch=1 n=c#6 v=63
53220 On ch=1 n=c#6 v=0
53220 On ch=1 n=g5 v=61
53280 On ch=1 n=g5 v=0
53280 On ch=1 n=g#5 v=60
53340 On ch=1 n=g#5 v=0
53400 On ch=1 n=d#5 v=60
53460 On ch=1 n=d#5 v=0
53460 On ch=1 n=c6 v=60
53520 On ch=1 n=c6 v=0
53520 On ch=1 n=g#5 v=60
53580 On ch=1 n=g#5 v=0
53580 On ch=1 n=f6 v=60
53640 On ch=1 n=f6 v=0
53640 On ch=1 n=d#6 v=60
53700 On ch=1 n=d#6 v=0
53700 On ch=1 n=a5 v=60
53760 On ch=1 n=a5 v=0
53760 On ch=1 n=a#5 v=60
53820 On ch=1 n=a#5 v=0
53820 On ch=1 n=c6 v=60
53880 On ch=1 n=c6 v=0
53880 On ch=1 n=c#6 v=60
53940 On ch=1 n=c#6 v=0
53940 On ch=1 n=g5 v=60
54000 On ch=1 n=g5 v=0
54000 On ch=1 n=g#5 v=60
54060 On ch=1 n=g#5 v=0
54060 On ch=1 n=c6 v=60
54120 On ch=1 n=c6 v=0
54120 On ch=1 n=d#5 v=60
54180 On ch=1 n=d#5 v=0
54180 On ch=1 n=d#6 v=60
54240 On ch=1 n=d#6 v=0
54240 On ch=1 n=c6 v=60
54300 On ch=1 n=c6 v=0
54300 On ch=1 n=g#6 v=60
54360 On ch=1 n=g#6 v=0
54360 On ch=1 n=f6 v=60
54420 On ch=1 n=f6 v=0
54420 On ch=1 n=a5 v=60
54480 On ch=1 n=a5 v=0
54480 On ch=1 n=a#5 v=60
54540 On ch=1 n=a#5 v=0
54540 On ch=1 n=c6 v=60
54600 On ch=1 n=c6 v=0
54600 On ch=1 n=c#6 v=60
54660 On ch=1 n=c#6 v=0
54660 On ch=1 n=g5 v=60
54720 On ch=1 n=g5 v=0
54720 On ch=1 n=g#5 v=60
54780 On ch=1 n=g#5 v=0
54780 On ch=1 n=a#5 v=61
54840 On ch=1 n=a#5 v=0
54840 On ch=1 n=c#6 v=63
54900 On ch=1 n=c#6 v=0
54900 On ch=1 n=c6 v=65
54960 On ch=1 n=c6 v=0
54960 On ch=1 n=c#6 v=66
55020 On ch=1 n=c#6 v=0
55020 On ch=1 n=f6 v=68
55080 On ch=1 n=f6 v=0
55080 On ch=1 n=d#6 v=70
55140 On ch=1 n=d#6 v=0
55140 On ch=1 n=g6 v=71
55200 On ch=1 n=g6 v=0
55200 On ch=1 n=a#6 v=73
55260 On ch=1 n=a#6 v=0
55260 On ch=1 n=g#6 v=75
55320 On ch=1 n=g#6 v=0
55320 On ch=1 n=a#6 v=77
55380 On ch=1 n=a#6 v=0
55380 On ch=1 n=c#7 v=78
55440 On ch=1 n=c#7 v=0
55440 On ch=1 n=c7 v=80
55500 On ch=1 n=c7 v=0
55500 On ch=1 n=c#7 v=82
55560 On ch=1 n=c#7 v=0
55560 On ch=1 n=f7 v=83
55620 On ch=1 n=f7 v=0
55620 On ch=1 n=d#7 v=85
55680 On ch=1 n=d#7 v=0
55680 On ch=1 n=g7 v=87
55740 On ch=1 n=g7 v=0
55740 On ch=1 n=a#7 v=89
55800 On ch=1 n=a#7 v=0
55800 On ch=1 n=g#7 v=90
55860 On ch=1 n=g#7 v=0
55860 On ch=1 n=a#7 v=92
55920 On ch=1 n=a#7 v=0
55920 On ch=1 n=c#8 v=94
55980 On ch=1 n=c#8 v=0
55980 On ch=1 n=c8 v=95
56040 On ch=1 n=c8 v=0
56040 On ch=1 n=c#8 v=97
56100 On ch=1 n=c#8 v=0
56100 On ch=1 n=f8 v=99
56160 On ch=1 n=f8 v=0
56160 On ch=1 n=d#8 v=100
56220 On ch=1 n=d#8 v=0
56220 On ch=1 n=c8 v=100
56280 On ch=1 n=c8 v=0
56280 On ch=1 n=g7 v=100
56340 On ch=1 n=g7 v=0
56340 On ch=1 n=a#7 v=100
56400 On ch=1 n=a#7 v=0
56400 On ch=1 n=g#7 v=100
56460 On ch=1 n=g#7 v=0
56460 On ch=1 n=f7 v=100
56520 On ch=1 n=f7 v=0
56520 On ch=1 n=d7 v=100
56580 On ch=1 n=d7 v=0
56580 On ch=1 n=f7 v=100
56640 On ch=1 n=f7 v=0
56640 On ch=1 n=d#7 v=100
56700 On ch=1 n=d#7 v=0
56700 On ch=1 n=c#7 v=100
56760 On ch=1 n=c#7 v=0
56760 On ch=1 n=a6 v=100
56820 On ch=1 n=a6 v=0
56820 On ch=1 n=c7 v=100
56880 On ch=1 n=c7 v=0
56880 On ch=1 n=a#6 v=100
56940 On ch=1 n=a#6 v=0
56940 On ch=1 n=g#6 v=100
57000 On ch=1 n=g#6 v=0
57000 On ch=1 n=g6 v=100
57060 On ch=1 n=g6 v=0
57060 On ch=1 n=a#6 v=100
57120 On ch=1 n=a#6 v=0
57120 On ch=1 n=g#6 v=100
57180 On ch=1 n=g#6 v=0
57180 On ch=1 n=f6 v=100
57240 On ch=1 n=f6 v=0
57240 On ch=1 n=d6 v=100
57300 On ch=1 n=d6 v=0
57300 On ch=1 n=f6 v=100
57360 On ch=1 n=f6 v=0
57360 On ch=1 n=d#6 v=100
57420 On ch=1 n=d#6 v=0
57420 On ch=1 n=c#6 v=100
57480 On ch=1 n=c#6 v=0
57480 On ch=1 n=a5 v=100
57540 On ch=1 n=a5 v=0
57540 On ch=1 n=c6 v=100
57600 On ch=1 n=c6 v=0
57600 On ch=1 n=a#5 v=100
57660 On ch=1 n=a#5 v=0
57660 On ch=1 n=g#5 v=100
57720 On ch=1 n=g#5 v=0
57720 On ch=1 n=g6 v=100
57780 On ch=1 n=g6 v=0
57780 On ch=1 n=a#6 v=100
57840 On ch=1 n=a#6 v=0
57840 On ch=1 n=g#6 v=100
57900 On ch=1 n=g#6 v=0
57900 On ch=1 n=f6 v=100
57960 On ch=1 n=f6 v=0
57960 On ch=1 n=d6 v=100
58020 On ch=1 n=d6 v=0
58020 On ch=1 n=f6 v=100
58080 On ch=1 n=f6 v=0
58080 On ch=1 n=d#6 v=100
58140 On ch=1 n=d#6 v=0
58140 On ch=1 n=c#6 v=100
58200 On ch=1 n=c#6 v=0
58200 On ch=1 n=a5 v=100
58260 On ch=1 n=a5 v=0
58260 On ch=1 n=c6 v=100
58320 On ch=1 n=c6 v=0
58320 On ch=1 n=a#5 v=100
58380 On ch=1 n=a#5 v=0
58380 On ch=1 n=g#5 v=100
58440 On ch=1 n=g#5 v=0
58440 On ch=1 n=g6 v=100
58500 On ch=1 n=g6 v=0
58500 On ch=1 n=a#6 v=100
58560 On ch=1 n=a#6 v=0
58560 On ch=1 n=g#6 v=100
58620 On ch=1 n=g#6 v=0
58620 On ch=1 n=f6 v=100
58680 On ch=1 n=f6 v=0
58680 On ch=1 n=d6 v=100
58740 On ch=1 n=d6 v=0
58740 On ch=1 n=f6 v=100
58800 On ch=1 n=f6 v=0
58800 On ch=1 n=d#6 v=100
58860 On ch=1 n=d#6 v=0
58860 On ch=1 n=c#6 v=100
58920 On ch=1 n=c#6 v=0
58920 On ch=1 n=a5 v=100
58980 On ch=1 n=a5 v=0
58980 On ch=1 n=c6 v=100
59040 On ch=1 n=c6 v=0
59040 On ch=1 n=a#5 v=100
59100 On ch=1 n=a#5 v=0
59100 On ch=1 n=g5 v=100
59160 On ch=1 n=g5 v=0
59160 On ch=1 n=g#5 v=101
59220 On ch=1 n=g#5 v=0
59220 On ch=1 n=a#5 v=101
59280 On ch=1 n=a#5 v=0
59280 On ch=1 n=c6 v=102
59340 On ch=1 n=c6 v=0
59340 On ch=1 n=c#6 v=102
59400 On ch=1 n=c#6 v=0
59400 On ch=1 n=d#6 v=103
59460 On ch=1 n=d#6 v=0
59460 On ch=1 n=f6 v=104
59520 On ch=1 n=f6 v=0
59520 On ch=1 n=g6 v=104
59580 On ch=1 n=g6 v=0
59580 On ch=1 n=g#6 v=105
59640 On ch=1 n=g#6 v=0
59640 On ch=1 n=a#6 v=105
59700 On ch=1 n=a#6 v=0
59700 On ch=1 n=c7 v=106
59760 On ch=1 n=c7 v=0
59760 On ch=1 n=c#7 v=107
59820 On ch=1 n=c#7 v=0
59820 On ch=1 n=d#7 v=107
59880 On ch=1 n=d#7 v=0
59880 On ch=1 n=f7 v=108
59940 On ch=1 n=f7 v=0
59940 On ch=1 n=g7 v=108
60000 On ch=1 n=g7 v=0
60000 On ch=1 n=g#7 v=109
60060 On ch=1 n=g#7 v=0
60060 On ch=1 n=a7 v=109
60120 On ch=1 n=a7 v=0
60120 On ch=1 n=a#7 v=110
60180 On ch=1 n=a#7 v=0
60180 On ch=1 n=b7 v=111
60240 On ch=1 n=b7 v=0
60240 On ch=1 n=c8 v=111
60300 On ch=1 n=c8 v=0
60300 On ch=1 n=c#8 v=112
60360 On ch=1 n=c#8 v=0
60360 On ch=1 n=d8 v=112
60420 On ch=1 n=d8 v=0
60420 On ch=1 n=f8 v=113
60480 On ch=1 n=f8 v=0
60480 On ch=1 n=d#8 v=114
60540 On ch=1 n=d#8 v=0
60540 On ch=1 n=c8 v=114
60600 On ch=1 n=c8 v=0
60600 On ch=1 n=g#7 v=115
60660 On ch=1 n=g#7 v=0
60660 On ch=1 n=d#7 v=115
60720 On ch=1 n=d#7 v=0
60720 On ch=1 n=c7 v=116
60780 On ch=1 n=c7 v=0
60780 On ch=1 n=g#6 v=117
60840 On ch=1 n=g#6 v=0
60840 On ch=1 n=d#6 v=117
60900 On ch=1 n=d#6 v=0
60900 On ch=1 n=c6 v=118
60960 On ch=1 n=c6 v=0
60960 On ch=1 n=g#5 v=118
61020 On ch=1 n=g#5 v=0
61020 On ch=1 n=d#5 v=119
61080 On ch=1 n=d#5 v=0
61080 Meta TrkEnd
TrkEnd
MTrk
0 Meta 0x21 00
0 Meta TrkName "Left Treble"
0 PrCh ch=1 p=0
4440 On ch=1 n=d#5 v=97
4440 On ch=1 n=g4 v=97
4560 On ch=1 n=g4 v=0
4560 On ch=1 n=d#5 v=0
4560 On ch=1 n=a#4 v=94
4560 On ch=1 n=g5 v=94
4680 On ch=1 n=g5 v=0
4680 On ch=1 n=a#4 v=0
4680 On ch=1 n=a#5 v=90
4680 On ch=1 n=c#5 v=90
4800 On ch=1 n=c#5 v=0
4800 On ch=1 n=a#5 v=0
4800 On ch=1 n=g5 v=87
4800 On ch=1 n=a#4 v=87
4920 On ch=1 n=a#4 v=0
4920 On ch=1 n=g5 v=0
4920 On ch=1 n=d#5 v=83
4920 On ch=1 n=g4 v=83
5040 On ch=1 n=g4 v=0
5040 On ch=1 n=d#5 v=0
10200 On ch=1 n=d#5 v=97
10200 On ch=1 n=g4 v=97
10320 On ch=1 n=g4 v=0
10320 On ch=1 n=d#5 v=0
10320 On ch=1 n=a#4 v=94
10320 On ch=1 n=g5 v=94
10440 On ch=1 n=g5 v=0
10440 On ch=1 n=a#4 v=0
10440 On ch=1 n=a#5 v=90
10440 On ch=1 n=c#5 v=90
10560 On ch=1 n=c#5 v=0
10560 On ch=1 n=a#5 v=0
10560 On ch=1 n=g5 v=87
10560 On ch=1 n=a#4 v=87
10680 On ch=1 n=a#4 v=0
10680 On ch=1 n=g5 v=0
10680 On ch=1 n=d#5 v=83
10680 On ch=1 n=g4 v=83
10800 On ch=1 n=g4 v=0
10800 On ch=1 n=d#5 v=0
19560 On ch=1 n=a#4 v=60
19560 On ch=1 n=d5 v=60
19560 On ch=1 n=g#5 v=60
19680 On ch=1 n=g#5 v=0
19680 On ch=1 n=d5 v=0
19680 On ch=1 n=a#4 v=0
19680 On ch=1 n=a#4 v=60
19680 On ch=1 n=d5 v=60
19680 On ch=1 n=g#5 v=60
19800 On ch=1 n=g#5 v=0
19800 On ch=1 n=d5 v=0
19800 On ch=1 n=a#4 v=0
19920 On ch=1 n=a#4 v=60
19920 On ch=1 n=d#5 v=60
19920 On ch=1 n=g5 v=60
20040 On ch=1 n=g5 v=0
20040 On ch=1 n=d#5 v=0
20040 On ch=1 n=a#4 v=0
20040 On ch=1 n=a#4 v=60
20040 On ch=1 n=d#5 v=60
20040 On ch=1 n=g5 v=60
20160 On ch=1 n=g5 v=0
20160 On ch=1 n=d#5 v=0
20160 On ch=1 n=a#4 v=0
43320 On ch=1 n=d#5 v=99
43320 On ch=1 n=g4 v=99
43440 On ch=1 n=g4 v=0
43440 On ch=1 n=d#5 v=0
43440 On ch=1 n=a#4 v=97
43440 On ch=1 n=g5 v=97
43560 On ch=1 n=g5 v=0
43560 On ch=1 n=a#4 v=0
43560 On ch=1 n=a#5 v=95
43560 On ch=1 n=c#5 v=95
43680 On ch=1 n=c#5 v=0
43680 On ch=1 n=a#5 v=0
43680 On ch=1 n=g5 v=93
43680 On ch=1 n=a#4 v=93
43800 On ch=1 n=a#4 v=0
43800 On ch=1 n=g5 v=0
43800 On ch=1 n=d#5 v=92
43800 On ch=1 n=g4 v=92
43920 On ch=1 n=g4 v=0
43920 On ch=1 n=d#5 v=0
59400 On ch=1 n=c5 v=103
59400 On ch=1 n=g#5 v=103
59520 On ch=1 n=g#5 v=0
59520 On ch=1 n=c5 v=0
59520 Meta TrkEnd
TrkEnd
MTrk
0 Meta 0x21 00
0 Meta TrkName "Left Bass"
0 PrCh ch=1 p=0
0 On ch=1 n=g#3 v=60
120 On ch=1 n=g#3 v=0
120 On ch=1 n=c5 v=60
120 On ch=1 n=g#4 v=60
120 On ch=1 n=d#4 v=60
240 On ch=1 n=d#4 v=0
240 On ch=1 n=g#4 v=0
240 On ch=1 n=c5 v=0
240 On ch=1 n=g#4 v=60
240 On ch=1 n=c5 v=60
240 On ch=1 n=d#4 v=60
360 On ch=1 n=d#4 v=0
360 On ch=1 n=c5 v=0
360 On ch=1 n=g#4 v=0
360 On ch=1 n=d#3 v=60
480 On ch=1 n=d#3 v=0
480 On ch=1 n=c5 v=60
480 On ch=1 n=g#4 v=60
480 On ch=1 n=d#4 v=60
600 On ch=1 n=d#4 v=0
600 On ch=1 n=g#4 v=0
600 On ch=1 n=c5 v=0
600 On ch=1 n=c5 v=60
600 On ch=1 n=g#4 v=60
600 On ch=1 n=d#4 v=60
720 On ch=1 n=d#4 v=0
720 On ch=1 n=g#4 v=0
720 On ch=1 n=c5 v=0
720 On ch=1 n=g#3 v=60
840 On ch=1 n=g#3 v=0
840 On ch=1 n=c5 v=60
840 On ch=1 n=g#4 v=60
840 On ch=1 n=d#4 v=60
960 On ch=1 n=d#4 v=0
960 On ch=1 n=g#4 v=0
960 On ch=1 n=c5 v=0
960 On ch=1 n=g#4 v=60
960 On ch=1 n=c5 v=60
960 On ch=1 n=d#4 v=60
1080 On ch=1 n=d#4 v=0
1080 On ch=1 n=c5 v=0
1080 On ch=1 n=g#4 v=0
1080 On ch=1 n=d#3 v=60
1200 On ch=1 n=d#3 v=0
1200 On ch=1 n=c5 v=60
1200 On ch=1 n=g#4 v=60
1200 On ch=1 n=d#4 v=60
1320 On ch=1 n=d#4 v=0
1320 On ch=1 n=g#4 v=0
1320 On ch=1 n=c5 v=0
1320 On ch=1 n=c5 v=60
1320 On ch=1 n=g#4 v=60
1320 On ch=1 n=d#4 v=60
1440 On ch=1 n=d#4 v=0
1440 On ch=1 n=g#4 v=0
1440 On ch=1 n=c5 v=0
1440 On ch=1 n=a#3 v=60
1560 On ch=1 n=a#3 v=0
1560 On ch=1 n=c#5 v=60
1560 On ch=1 n=g4 v=60
1560 On ch=1 n=d#4 v=60
1680 On ch=1 n=d#4 v=0
1680 On ch=1 n=g4 v=0
1680 On ch=1 n=c#5 v=0
1680 On ch=1 n=d#4 v=60
1680 On ch=1 n=g4 v=60
1680 On ch=1 n=c#5 v=60
1800 On ch=1 n=c#5 v=0
1800 On ch=1 n=g4 v=0
1800 On ch=1 n=d#4 v=0
1800 On ch=1 n=d#3 v=60
1920 On ch=1 n=d#3 v=0
1920 On ch=1 n=c#5 v=60
1920 On ch=1 n=g4 v=60
1920 On ch=1 n=d#4 v=60
2040 On ch=1 n=d#4 v=0
2040 On ch=1 n=g4 v=0
2040 On ch=1 n=c#5 v=0
2040 On ch=1 n=d#4 v=60
2040 On ch=1 n=g4 v=60
2040 On ch=1 n=c#5 v=60
2160 On ch=1 n=c#5 v=0
2160 On ch=1 n=g4 v=0
2160 On ch=1 n=d#4 v=0
2160 On ch=1 n=a#3 v=60
2280 On ch=1 n=a#3 v=0
2280 On ch=1 n=c#5 v=60
2280 On ch=1 n=g4 v=60
2280 On ch=1 n=d#4 v=60
2400 On ch=1 n=d#4 v=0
2400 On ch=1 n=g4 v=0
2400 On ch=1 n=c#5 v=0
2400 On ch=1 n=d#4 v=60
2400 On ch=1 n=g4 v=60
2400 On ch=1 n=c#5 v=60
2520 On ch=1 n=c#5 v=0
2520 On ch=1 n=g4 v=0
2520 On ch=1 n=d#4 v=0
2520 On ch=1 n=e3 v=60
2640 On ch=1 n=e3 v=0
2640 On ch=1 n=c5 v=62
2640 On ch=1 n=g4 v=62
2640 On ch=1 n=c4 v=62
2760 On ch=1 n=c4 v=0
2760 On ch=1 n=g4 v=0
2760 On ch=1 n=c5 v=0
2760 On ch=1 n=c5 v=65
2760 On ch=1 n=g4 v=65
2760 On ch=1 n=c4 v=65
2880 On ch=1 n=c4 v=0
2880 On ch=1 n=g4 v=0
2880 On ch=1 n=c5 v=0
2880 On ch=1 n=f3 v=68
3000 On ch=1 n=f3 v=0
3000 On ch=1 n=g#4 v=71
3000 On ch=1 n=c4 v=71
3120 On ch=1 n=c4 v=0
3120 On ch=1 n=g#4 v=0
3120 On ch=1 n=g#4 v=73
3120 On ch=1 n=c4 v=73
3240 On ch=1 n=c4 v=0
3240 On ch=1 n=g#4 v=0
3240 On ch=1 n=c3 v=76
3360 On ch=1 n=c3 v=0
3360 On ch=1 n=c4 v=79
3360 On ch=1 n=g#4 v=79
3480 On ch=1 n=g#4 v=0
3480 On ch=1 n=c4 v=0
3480 On ch=1 n=c4 v=82
3480 On ch=1 n=g#4 v=82
3600 On ch=1 n=g#4 v=0
3600 On ch=1 n=c4 v=0
3600 On ch=1 n=f3 v=85
3720 On ch=1 n=f3 v=0
3720 On ch=1 n=g#4 v=87
3720 On ch=1 n=c4 v=87
3840 On ch=1 n=c4 v=0
3840 On ch=1 n=g#4 v=0
3840 On ch=1 n=g#4 v=90
3840 On ch=1 n=c4 v=90
3960 On ch=1 n=c4 v=0
3960 On ch=1 n=g#4 v=0
3960 On ch=1 n=g#3 v=93
4080 On ch=1 n=g#3 v=0
4080 On ch=1 n=d#5 v=96
4080 On ch=1 n=c5 v=96
4080 On ch=1 n=f4 v=96
4200 On ch=1 n=f4 v=0
4200 On ch=1 n=c5 v=0
4200 On ch=1 n=d#5 v=0
4200 On ch=1 n=c5 v=99
4200 On ch=1 n=d#5 v=99
4200 On ch=1 n=f4 v=99
4320 On ch=1 n=f4 v=0
4320 On ch=1 n=d#5 v=0
4320 On ch=1 n=c5 v=0
4320 On ch=1 n=a#2 v=100
4440 On ch=1 n=a#2 v=0
5040 On ch=1 n=a#3 v=80
5160 On ch=1 n=a#3 v=0
5160 On ch=1 n=d5 v=77
5160 On ch=1 n=a#4 v=77
5160 On ch=1 n=f4 v=77
5280 On ch=1 n=f4 v=0
5280 On ch=1 n=a#4 v=0
5280 On ch=1 n=d5 v=0
5280 On ch=1 n=a#4 v=73
5280 On ch=1 n=d5 v=73
5280 On ch=1 n=f4 v=73
5400 On ch=1 n=f4 v=0
5400 On ch=1 n=d5 v=0
5400 On ch=1 n=a#4 v=0
5400 On ch=1 n=d#4 v=70
5520 On ch=1 n=d#4 v=0
5520 On ch=1 n=d#5 v=66
5520 On ch=1 n=a#4 v=66
5640 On ch=1 n=a#4 v=0
5640 On ch=1 n=d#5 v=0
5640 On ch=1 n=d#4 v=63
5640 On ch=1 n=a#4 v=63
5640 On ch=1 n=c#5 v=63
5760 On ch=1 n=c#5 v=0
5760 On ch=1 n=a#4 v=0
5760 On ch=1 n=d#4 v=0
5760 On ch=1 n=g#3 v=60
5880 On ch=1 n=g#3 v=0
5880 On ch=1 n=c5 v=61
5880 On ch=1 n=g#4 v=61
5880 On ch=1 n=d#4 v=61
6000 On ch=1 n=d#4 v=0
6000 On ch=1 n=g#4 v=0
6000 On ch=1 n=c5 v=0
6000 On ch=1 n=g#4 v=62
6000 On ch=1 n=c5 v=62
6000 On ch=1 n=d#4 v=62
6120 On ch=1 n=d#4 v=0
6120 On ch=1 n=c5 v=0
6120 On ch=1 n=g#4 v=0
6120 On ch=1 n=d#3 v=63
6240 On ch=1 n=d#3 v=0
6240 On ch=1 n=c5 v=64
6240 On ch=1 n=g#4 v=64
6240 On ch=1 n=d#4 v=64
6360 On ch=1 n=d#4 v=0
6360 On ch=1 n=g#4 v=0
6360 On ch=1 n=c5 v=0
6360 On ch=1 n=c5 v=65
6360 On ch=1 n=g#4 v=65
6360 On ch=1 n=d#4 v=65
6480 On ch=1 n=d#4 v=0
6480 On ch=1 n=g#4 v=0
6480 On ch=1 n=c5 v=0
6480 On ch=1 n=g#3 v=66
6600 On ch=1 n=g#3 v=0
6600 On ch=1 n=c5 v=67
6600 On ch=1 n=g#4 v=67
6600 On ch=1 n=d#4 v=67
6720 On ch=1 n=d#4 v=0
6720 On ch=1 n=g#4 v=0
6720 On ch=1 n=c5 v=0
6720 On ch=1 n=g#4 v=69
6720 On ch=1 n=c5 v=69
6720 On ch=1 n=d#4 v=69
6840 On ch=1 n=d#4 v=0
6840 On ch=1 n=c5 v=0
6840 On ch=1 n=g#4 v=0
6840 On ch=1 n=d#3 v=70
6960 On ch=1 n=d#3 v=0
6960 On ch=1 n=c5 v=71
6960 On ch=1 n=g#4 v=71
6960 On ch=1 n=d#4 v=71
7080 On ch=1 n=d#4 v=0
7080 On ch=1 n=g#4 v=0
7080 On ch=1 n=c5 v=0
7080 On ch=1 n=c5 v=72
7080 On ch=1 n=g#4 v=72
7080 On ch=1 n=d#4 v=72
7200 On ch=1 n=d#4 v=0
7200 On ch=1 n=g#4 v=0
7200 On ch=1 n=c5 v=0
7200 On ch=1 n=a#3 v=73
7320 On ch=1 n=a#3 v=0
7320 On ch=1 n=c#5 v=74
7320 On ch=1 n=g4 v=74
7320 On ch=1 n=d#4 v=74
7440 On ch=1 n=d#4 v=0
7440 On ch=1 n=g4 v=0
7440 On ch=1 n=c#5 v=0
7440 On ch=1 n=d#4 v=75
7440 On ch=1 n=g4 v=75
7440 On ch=1 n=c#5 v=75
7560 On ch=1 n=c#5 v=0
7560 On ch=1 n=g4 v=0
7560 On ch=1 n=d#4 v=0
7560 On ch=1 n=d#3 v=77
7680 On ch=1 n=d#3 v=0
7680 On ch=1 n=c#5 v=78
7680 On ch=1 n=g4 v=78
7680 On ch=1 n=d#4 v=78
7800 On ch=1 n=d#4 v=0
7800 On ch=1 n=g4 v=0
7800 On ch=1 n=c#5 v=0
7800 On ch=1 n=d#4 v=79
7800 On ch=1 n=g4 v=79
7800 On ch=1 n=c#5 v=79
7920 On ch=1 n=c#5 v=0
7920 On ch=1 n=g4 v=0
7920 On ch=1 n=d#4 v=0
7920 On ch=1 n=a#3 v=80
8040 On ch=1 n=a#3 v=0
8040 On ch=1 n=c#5 v=81
8040 On ch=1 n=g4 v=81
8040 On ch=1 n=d#4 v=81
8160 On ch=1 n=d#4 v=0
8160 On ch=1 n=g4 v=0
8160 On ch=1 n=c#5 v=0
8160 On ch=1 n=d#4 v=82
8160 On ch=1 n=g4 v=82
8160 On ch=1 n=c#5 v=82
8280 On ch=1 n=c#5 v=0
8280 On ch=1 n=g4 v=0
8280 On ch=1 n=d#4 v=0
8280 On ch=1 n=e3 v=83
8400 On ch=1 n=e3 v=0
8400 On ch=1 n=c5 v=85
8400 On ch=1 n=g4 v=85
8400 On ch=1 n=c4 v=85
8520 On ch=1 n=c4 v=0
8520 On ch=1 n=g4 v=0
8520 On ch=1 n=c5 v=0
8520 On ch=1 n=c5 v=86
8520 On ch=1 n=g4 v=86
8520 On ch=1 n=c4 v=86
8640 On ch=1 n=c4 v=0
8640 On ch=1 n=g4 v=0
8640 On ch=1 n=c5 v=0
8640 On ch=1 n=f3 v=87
8760 On ch=1 n=f3 v=0
8760 On ch=1 n=g#4 v=88
8760 On ch=1 n=c4 v=88
8880 On ch=1 n=c4 v=0
8880 On ch=1 n=g#4 v=0
8880 On ch=1 n=g#4 v=89
8880 On ch=1 n=c4 v=89
9000 On ch=1 n=c4 v=0
9000 On ch=1 n=g#4 v=0
9000 On ch=1 n=c3 v=90
9120 On ch=1 n=c3 v=0
9120 On ch=1 n=c4 v=91
9120 On ch=1 n=g#4 v=91
9240 On ch=1 n=g#4 v=0
9240 On ch=1 n=c4 v=0
9240 On ch=1 n=c4 v=93
9240 On ch=1 n=g#4 v=93
9360 On ch=1 n=g#4 v=0
9360 On ch=1 n=c4 v=0
9360 On ch=1 n=f3 v=94
9480 On ch=1 n=f3 v=0
9480 On ch=1 n=g#4 v=95
9480 On ch=1 n=c4 v=95
9600 On ch=1 n=c4 v=0
9600 On ch=1 n=g#4 v=0
9600 On ch=1 n=g#4 v=96
9600 On ch=1 n=c4 v=96
9720 On ch=1 n=c4 v=0
9720 On ch=1 n=g#4 v=0
9720 On ch=1 n=g#3 v=97
9840 On ch=1 n=g#3 v=0
9840 On ch=1 n=d#5 v=98
9840 On ch=1 n=c5 v=98
9840 On ch=1 n=f4 v=98
9960 On ch=1 n=f4 v=0
9960 On ch=1 n=c5 v=0
9960 On ch=1 n=d#5 v=0
9960 On ch=1 n=c5 v=99
9960 On ch=1 n=d#5 v=99
9960 On ch=1 n=f4 v=99
10080 On ch=1 n=f4 v=0
10080 On ch=1 n=d#5 v=0
10080 On ch=1 n=c5 v=0
10080 On ch=1 n=a#2 v=100
10200 On ch=1 n=a#2 v=0
10800 On ch=1 n=a#3 v=80
10920 On ch=1 n=a#3 v=0
10920 On ch=1 n=d5 v=77
10920 On ch=1 n=a#4 v=77
10920 On ch=1 n=f4 v=77
11040 On ch=1 n=f4 v=0
11040 On ch=1 n=a#4 v=0
11040 On ch=1 n=d5 v=0
11040 On ch=1 n=a#4 v=73
11040 On ch=1 n=d5 v=73
11040 On ch=1 n=f4 v=73
11160 On ch=1 n=f4 v=0
11160 On ch=1 n=d5 v=0
11160 On ch=1 n=a#4 v=0
11160 On ch=1 n=d#4 v=70
11280 On ch=1 n=d#5 v=66
11280 On ch=1 n=a#4 v=66
11400 On ch=1 n=a#4 v=0
11400 On ch=1 n=d#5 v=0
11400 On ch=1 n=d#4 v=0
11520 On ch=1 n=a#3 v=60
11640 On ch=1 n=a#3 v=0
11640 On ch=1 n=c#5 v=61
11640 On ch=1 n=a#4 v=61
11760 On ch=1 n=a#4 v=0
11760 On ch=1 n=c#5 v=0
11760 On ch=1 n=a#4 v=63
11760 On ch=1 n=c#5 v=63
11880 On ch=1 n=c#5 v=0
11880 On ch=1 n=a#4 v=0
11880 On ch=1 n=f3 v=65
12000 On ch=1 n=f3 v=0
12000 On ch=1 n=c#5 v=66
12000 On ch=1 n=a#4 v=66
12000 On ch=1 n=f4 v=66
12120 On ch=1 n=f4 v=0
12120 On ch=1 n=a#4 v=0
12120 On ch=1 n=c#5 v=0
12120 On ch=1 n=a#4 v=68
12120 On ch=1 n=c#5 v=68
12120 On ch=1 n=f4 v=68
12240 On ch=1 n=f4 v=0
12240 On ch=1 n=c#5 v=0
12240 On ch=1 n=a#4 v=0
12240 On ch=1 n=a#3 v=70
12360 On ch=1 n=a#3 v=0
12360 On ch=1 n=c#5 v=71
12360 On ch=1 n=a#4 v=71
12360 On ch=1 n=f4 v=71
12480 On ch=1 n=f4 v=0
12480 On ch=1 n=a#4 v=0
12480 On ch=1 n=c#5 v=0
12480 On ch=1 n=a#4 v=73
12480 On ch=1 n=c#5 v=73
12480 On ch=1 n=f4 v=73
12600 On ch=1 n=f4 v=0
12600 On ch=1 n=c#5 v=0
12600 On ch=1 n=a#4 v=0
12600 On ch=1 n=f3 v=75
12720 On ch=1 n=f3 v=0
12720 On ch=1 n=c#5 v=77
12720 On ch=1 n=a#4 v=77
12720 On ch=1 n=f4 v=77
12840 On ch=1 n=f4 v=0
12840 On ch=1 n=a#4 v=0
12840 On ch=1 n=c#5 v=0
12840 On ch=1 n=a#4 v=78
12840 On ch=1 n=c#5 v=78
12840 On ch=1 n=f4 v=78
12960 On ch=1 n=f4 v=0
12960 On ch=1 n=c#5 v=0
12960 On ch=1 n=a#4 v=0
12960 On ch=1 n=c4 v=80
13080 On ch=1 n=c4 v=0
13080 On ch=1 n=d#5 v=82
13080 On ch=1 n=a4 v=82
13080 On ch=1 n=f4 v=82
13200 On ch=1 n=f4 v=0
13200 On ch=1 n=a4 v=0
13200 On ch=1 n=d#5 v=0
13200 On ch=1 n=f4 v=83
13200 On ch=1 n=a4 v=83
13200 On ch=1 n=d#5 v=83
13320 On ch=1 n=d#5 v=0
13320 On ch=1 n=a4 v=0
13320 On ch=1 n=f4 v=0
13320 On ch=1 n=f3 v=85
13440 On ch=1 n=f3 v=0
13440 On ch=1 n=d#5 v=87
13440 On ch=1 n=a4 v=87
13440 On ch=1 n=f4 v=87
13560 On ch=1 n=f4 v=0
13560 On ch=1 n=a4 v=0
13560 On ch=1 n=d#5 v=0
13560 On ch=1 n=f4 v=89
13560 On ch=1 n=a4 v=89
13560 On ch=1 n=d#5 v=89
13680 On ch=1 n=d#5 v=0
13680 On ch=1 n=a4 v=0
13680 On ch=1 n=f4 v=0
13680 On ch=1 n=c4 v=90
13800 On ch=1 n=c4 v=0
13800 On ch=1 n=d#5 v=92
13800 On ch=1 n=a4 v=92
13800 On ch=1 n=f4 v=92
13920 On ch=1 n=f4 v=0
13920 On ch=1 n=a4 v=0
13920 On ch=1 n=d#5 v=0
13920 On ch=1 n=f4 v=94
13920 On ch=1 n=a4 v=94
13920 On ch=1 n=d#5 v=94
14040 On ch=1 n=d#5 v=0
14040 On ch=1 n=a4 v=0
14040 On ch=1 n=f4 v=0
14040 On ch=1 n=f3 v=95
14160 On ch=1 n=f3 v=0
14160 On ch=1 n=d#5 v=97
14160 On ch=1 n=a4 v=97
14160 On ch=1 n=f4 v=97
14280 On ch=1 n=f4 v=0
14280 On ch=1 n=a4 v=0
14280 On ch=1 n=d#5 v=0
14280 On ch=1 n=f4 v=99
14280 On ch=1 n=a4 v=99
14280 On ch=1 n=d#5 v=99
14400 On ch=1 n=d#5 v=0
14400 On ch=1 n=a4 v=0
14400 On ch=1 n=f4 v=0
14400 On ch=1 n=f#3 v=100
14520 On ch=1 n=f#3 v=0
14520 On ch=1 n=a#4 v=101
14520 On ch=1 n=c#4 v=101
14640 On ch=1 n=c#4 v=0
14640 On ch=1 n=a#4 v=0
14640 On ch=1 n=a#4 v=102
14640 On ch=1 n=c#4 v=102
14760 On ch=1 n=c#4 v=0
14760 On ch=1 n=a#4 v=0
14760 On ch=1 n=c#3 v=103
14880 On ch=1 n=c#3 v=0
14880 On ch=1 n=c#4 v=104
14880 On ch=1 n=a#4 v=104
15000 On ch=1 n=a#4 v=0
15000 On ch=1 n=c#4 v=0
15000 On ch=1 n=c#4 v=106
15000 On ch=1 n=a#4 v=106
15120 On ch=1 n=a#4 v=0
15120 On ch=1 n=c#4 v=0
15120 On ch=1 n=f#3 v=107
15240 On ch=1 n=f#3 v=0
15240 On ch=1 n=a#4 v=108
15240 On ch=1 n=c#4 v=108
15360 On ch=1 n=c#4 v=0
15360 On ch=1 n=a#4 v=0
15360 On ch=1 n=a#4 v=109
15360 On ch=1 n=c#4 v=109
15480 On ch=1 n=c#4 v=0
15480 On ch=1 n=a#4 v=0
15480 On ch=1 n=c#3 v=110
15600 On ch=1 n=c#3 v=0
15600 On ch=1 n=c#4 v=107
15600 On ch=1 n=a#4 v=107
15720 On ch=1 n=a#4 v=0
15720 On ch=1 n=c#4 v=0
15720 On ch=1 n=c#4 v=104
15720 On ch=1 n=a#4 v=104
15840 On ch=1 n=a#4 v=0
15840 On ch=1 n=c#4 v=0
15840 On ch=1 n=g#3 v=100
15960 On ch=1 n=g#3 v=0
15960 On ch=1 n=b4 v=97
15960 On ch=1 n=f4 v=97
15960 On ch=1 n=c#4 v=97
16080 On ch=1 n=c#4 v=0
16080 On ch=1 n=f4 v=0
16080 On ch=1 n=b4 v=0
16080 On ch=1 n=c#4 v=93
16080 On ch=1 n=f4 v=93
16080 On ch=1 n=b4 v=93
16200 On ch=1 n=b4 v=0
16200 On ch=1 n=f4 v=0
16200 On ch=1 n=c#4 v=0
16200 On ch=1 n=c#3 v=90
16320 On ch=1 n=c#3 v=0
16320 On ch=1 n=b4 v=87
16320 On ch=1 n=f4 v=87
16320 On ch=1 n=c#4 v=87
16440 On ch=1 n=c#4 v=0
16440 On ch=1 n=f4 v=0
16440 On ch=1 n=b4 v=0
16440 On ch=1 n=c#4 v=83
16440 On ch=1 n=f4 v=83
16440 On ch=1 n=b4 v=83
16560 On ch=1 n=b4 v=0
16560 On ch=1 n=f4 v=0
16560 On ch=1 n=c#4 v=0
16560 On ch=1 n=g#3 v=80
16680 On ch=1 n=g#3 v=0
16680 On ch=1 n=b4 v=76
16680 On ch=1 n=f4 v=76
16680 On ch=1 n=c#4 v=76
16800 On ch=1 n=c#4 v=0
16800 On ch=1 n=f4 v=0
16800 On ch=1 n=b4 v=0
16800 On ch=1 n=c#4 v=73
16800 On ch=1 n=f4 v=73
16800 On ch=1 n=b4 v=73
16920 On ch=1 n=b4 v=0
16920 On ch=1 n=f4 v=0
16920 On ch=1 n=c#4 v=0
16920 On ch=1 n=c#3 v=69
17040 On ch=1 n=c#3 v=0
17040 On ch=1 n=b4 v=66
17040 On ch=1 n=f4 v=66
17040 On ch=1 n=c#4 v=66
17160 On ch=1 n=c#4 v=0
17160 On ch=1 n=f4 v=0
17160 On ch=1 n=b4 v=0
17160 On ch=1 n=c#4 v=63
17160 On ch=1 n=f4 v=63
17160 On ch=1 n=b4 v=63
17280 On ch=1 n=b4 v=0
17280 On ch=1 n=f4 v=0
17280 On ch=1 n=c#4 v=0
17280 On ch=1 n=d4 v=60
17400 On ch=1 n=d4 v=0
17400 On ch=1 n=g#4 v=60
17400 On ch=1 n=a#4 v=60
17520 On ch=1 n=a#4 v=0
17520 On ch=1 n=g#4 v=0
17520 On ch=1 n=a#3 v=60
17640 On ch=1 n=a#3 v=0
17640 On ch=1 n=g4 v=60
17760 On ch=1 n=g4 v=0
17760 On ch=1 n=d#5 v=60
17760 On ch=1 n=a#4 v=60
17880 On ch=1 n=a#4 v=0
17880 On ch=1 n=d#5 v=0
18000 On ch=1 n=a#2 v=60
18120 On ch=1 n=a#2 v=0
18120 On ch=1 n=d5 v=60
18120 On ch=1 n=a#4 v=60
18120 On ch=1 n=g#4 v=60
18240 On ch=1 n=g#4 v=0
18240 On ch=1 n=a#4 v=0
18240 On ch=1 n=d5 v=0
18240 On ch=1 n=d5 v=60
18240 On ch=1 n=a#4 v=60
18240 On ch=1 n=g#4 v=60
18360 On ch=1 n=g#4 v=0
18360 On ch=1 n=a#4 v=0
18360 On ch=1 n=d5 v=0
18360 On ch=1 n=a#3 v=60
18480 On ch=1 n=a#3 v=0
18480 On ch=1 n=d#5 v=60
18480 On ch=1 n=a#4 v=60
18480 On ch=1 n=g4 v=60
18600 On ch=1 n=g4 v=0
18600 On ch=1 n=a#4 v=0
18600 On ch=1 n=d#5 v=0
18600 On ch=1 n=g4 v=60
18600 On ch=1 n=a#4 v=60
18600 On ch=1 n=d#5 v=60
18720 On ch=1 n=d#5 v=0
18720 On ch=1 n=a#4 v=0
18720 On ch=1 n=g4 v=0
18720 On ch=1 n=a#3 v=60
18840 On ch=1 n=a#3 v=0
18840 On ch=1 n=d5 v=60
18840 On ch=1 n=a#4 v=60
18840 On ch=1 n=f4 v=60
18960 On ch=1 n=f4 v=0
18960 On ch=1 n=a#4 v=0
18960 On ch=1 n=d5 v=0
18960 On ch=1 n=a#4 v=60
18960 On ch=1 n=g#4 v=60
18960 On ch=1 n=d5 v=60
19080 On ch=1 n=d5 v=0
19080 On ch=1 n=g#4 v=0
19080 On ch=1 n=a#4 v=0
19080 On ch=1 n=a#3 v=60
19200 On ch=1 n=a#3 v=0
19200 On ch=1 n=d#5 v=60
19200 On ch=1 n=a#4 v=60
19200 On ch=1 n=g4 v=60
19320 On ch=1 n=g4 v=0
19320 On ch=1 n=a#4 v=0
19320 On ch=1 n=d#5 v=0
19440 On ch=1 n=a#2 v=60
19560 On ch=1 n=a#2 v=0
19800 On ch=1 n=a#3 v=60
19920 On ch=1 n=a#3 v=0
20160 On ch=1 n=a#3 v=60
20280 On ch=1 n=a#3 v=0
20280 On ch=1 n=d#5 v=63
20280 On ch=1 n=f#4 v=63
20400 On ch=1 n=f#4 v=0
20400 On ch=1 n=d#5 v=0
20400 On ch=1 n=f#5 v=67
20400 On ch=1 n=a4 v=67
20520 On ch=1 n=a4 v=0
20520 On ch=1 n=f#5 v=0
20520 On ch=1 n=d#5 v=70
20520 On ch=1 n=f#4 v=70
20640 On ch=1 n=f#4 v=0
20640 On ch=1 n=d#5 v=0
20640 On ch=1 n=f#5 v=74
20640 On ch=1 n=a4 v=74
20760 On ch=1 n=a4 v=0
20760 On ch=1 n=f#5 v=0
20760 On ch=1 n=d#5 v=77
20760 On ch=1 n=f#4 v=77
20880 On ch=1 n=f#4 v=0
20880 On ch=1 n=d#5 v=0
20880 On ch=1 n=f#5 v=81
20880 On ch=1 n=d#5 v=81
20880 On ch=1 n=a4 v=81
21000 On ch=1 n=a4 v=0
21000 On ch=1 n=d#5 v=0
21000 On ch=1 n=f#5 v=0
21000 On ch=1 n=f5 v=84
21000 On ch=1 n=d#5 v=84
21000 On ch=1 n=a4 v=84
21120 On ch=1 n=a4 v=0
21120 On ch=1 n=d#5 v=0
21120 On ch=1 n=f5 v=0
21120 On ch=1 n=f#5 v=88
21120 On ch=1 n=d#5 v=88
21120 On ch=1 n=a4 v=88
21240 On ch=1 n=a4 v=0
21240 On ch=1 n=d#5 v=0
21240 On ch=1 n=f#5 v=0
21240 On ch=1 n=f5 v=91
21240 On ch=1 n=d#5 v=91
21240 On ch=1 n=a4 v=91
21360 On ch=1 n=a4 v=0
21360 On ch=1 n=d#5 v=0
21360 On ch=1 n=f5 v=0
21360 On ch=1 n=d#5 v=95
21360 On ch=1 n=f#5 v=95
21360 On ch=1 n=a4 v=95
21480 On ch=1 n=a4 v=0
21480 On ch=1 n=f#5 v=0
21480 On ch=1 n=d#5 v=0
21480 On ch=1 n=d#5 v=98
21480 On ch=1 n=f#4 v=98
21480 On ch=1 n=a4 v=98
21600 On ch=1 n=a4 v=0
21600 On ch=1 n=f#4 v=0
21600 On ch=1 n=d#5 v=0
21720 On ch=1 n=f5 v=63
21720 On ch=1 n=g#4 v=63
21840 On ch=1 n=g#4 v=0
21840 On ch=1 n=f5 v=0
21840 On ch=1 n=b4 v=67
21840 On ch=1 n=g#5 v=67
21960 On ch=1 n=g#5 v=0
21960 On ch=1 n=b4 v=0
21960 On ch=1 n=g#4 v=70
21960 On ch=1 n=f5 v=70
22080 On ch=1 n=f5 v=0
22080 On ch=1 n=g#4 v=0
22080 On ch=1 n=b4 v=74
22080 On ch=1 n=g#5 v=74
22200 On ch=1 n=g#5 v=0
22200 On ch=1 n=b4 v=0
22200 On ch=1 n=g#4 v=77
22200 On ch=1 n=f5 v=77
22320 On ch=1 n=f5 v=0
22320 On ch=1 n=g#4 v=0
22320 On ch=1 n=g#5 v=81
22320 On ch=1 n=f5 v=81
22320 On ch=1 n=b4 v=81
22440 On ch=1 n=b4 v=0
22440 On ch=1 n=f5 v=0
22440 On ch=1 n=g#5 v=0
22440 On ch=1 n=g5 v=84
22440 On ch=1 n=f5 v=84
22440 On ch=1 n=b4 v=84
22560 On ch=1 n=b4 v=0
22560 On ch=1 n=f5 v=0
22560 On ch=1 n=g5 v=0
22560 On ch=1 n=g#5 v=88
22560 On ch=1 n=f5 v=88
22560 On ch=1 n=b4 v=88
22680 On ch=1 n=b4 v=0
22680 On ch=1 n=f5 v=0
22680 On ch=1 n=g#5 v=0
22680 On ch=1 n=g5 v=91
22680 On ch=1 n=f5 v=91
22680 On ch=1 n=b4 v=91
22800 On ch=1 n=b4 v=0
22800 On ch=1 n=f5 v=0
22800 On ch=1 n=g5 v=0
22800 On ch=1 n=g#5 v=95
22800 On ch=1 n=f5 v=95
22800 On ch=1 n=b4 v=95
22920 On ch=1 n=b4 v=0
22920 On ch=1 n=f5 v=0
22920 On ch=1 n=g#5 v=0
22920 On ch=1 n=b3 v=98
23040 On ch=1 n=b3 v=0
23040 On ch=1 n=c4 v=100
23160 On ch=1 n=c4 v=0
23160 On ch=1 n=d#5 v=99
23160 On ch=1 n=g4 v=99
23280 On ch=1 n=g4 v=0
23280 On ch=1 n=d#5 v=0
23400 On ch=1 n=f3 v=95
23520 On ch=1 n=f3 v=0
23520 On ch=1 n=d5 v=94
23520 On ch=1 n=c5 v=94
23520 On ch=1 n=g#4 v=94
23640 On ch=1 n=g#4 v=0
23640 On ch=1 n=c5 v=0
23640 On ch=1 n=d5 v=0
23760 On ch=1 n=g3 v=90
23880 On ch=1 n=g3 v=0
23880 On ch=1 n=c5 v=89
23880 On ch=1 n=g4 v=89
23880 On ch=1 n=d4 v=89
24000 On ch=1 n=d4 v=0
24000 On ch=1 n=g4 v=0
24000 On ch=1 n=c5 v=0
24000 On ch=1 n=g4 v=87
24000 On ch=1 n=c5 v=87
24000 On ch=1 n=d4 v=87
24120 On ch=1 n=d4 v=0
24120 On ch=1 n=c5 v=0
24120 On ch=1 n=g4 v=0
24120 On ch=1 n=g3 v=85
24240 On ch=1 n=g3 v=0
24240 On ch=1 n=b4 v=83
24240 On ch=1 n=g4 v=83
24240 On ch=1 n=d4 v=83
24360 On ch=1 n=d4 v=0
24360 On ch=1 n=g4 v=0
24360 On ch=1 n=b4 v=0
24360 On ch=1 n=f3 v=82
24480 On ch=1 n=f3 v=0
24480 On ch=1 n=d#3 v=80
24600 On ch=1 n=d#3 v=0
24600 On ch=1 n=c5 v=78
24600 On ch=1 n=g4 v=78
24600 On ch=1 n=c4 v=78
24720 On ch=1 n=c4 v=0
24720 On ch=1 n=g4 v=0
24720 On ch=1 n=c5 v=0
24840 On ch=1 n=f3 v=75
24960 On ch=1 n=f3 v=0
24960 On ch=1 n=c5 v=73
24960 On ch=1 n=g#4 v=73
24960 On ch=1 n=d4 v=73
25080 On ch=1 n=d4 v=0
25080 On ch=1 n=g#4 v=0
25080 On ch=1 n=c5 v=0
25080 On ch=1 n=d4 v=71
25080 On ch=1 n=g#4 v=71
25080 On ch=1 n=c5 v=71
25200 On ch=1 n=c5 v=0
25200 On ch=1 n=g#4 v=0
25200 On ch=1 n=d4 v=0
25200 On ch=1 n=g3 v=70
25320 On ch=1 n=g3 v=0
25320 On ch=1 n=c5 v=68
25320 On ch=1 n=g4 v=68
25320 On ch=1 n=d4 v=68
25440 On ch=1 n=d4 v=0
25440 On ch=1 n=g4 v=0
25440 On ch=1 n=c5 v=0
25440 On ch=1 n=d4 v=66
25440 On ch=1 n=g4 v=66
25440 On ch=1 n=c5 v=66
25560 On ch=1 n=c5 v=0
25560 On ch=1 n=g4 v=0
25560 On ch=1 n=d4 v=0
25560 On ch=1 n=g3 v=65
25680 On ch=1 n=g3 v=0
25680 On ch=1 n=b4 v=63
25680 On ch=1 n=g4 v=63
25680 On ch=1 n=d4 v=63
25800 On ch=1 n=d4 v=0
25800 On ch=1 n=g4 v=0
25800 On ch=1 n=b4 v=0
25800 On ch=1 n=d4 v=61
25800 On ch=1 n=g4 v=61
25800 On ch=1 n=b4 v=61
25905 On ch=1 n=c3 v=60
25920 On ch=1 n=c3 v=0
25920 On ch=1 n=d4 v=0
25920 On ch=1 n=g4 v=0
25920 On ch=1 n=b4 v=0
25920 On ch=1 n=c4 v=80
26100 On ch=1 n=c4 v=0
26100 On ch=1 n=g3 v=80
26160 On ch=1 n=g3 v=0
26160 On ch=1 n=c4 v=80
26280 On ch=1 n=c4 v=0
26280 On ch=1 n=g3 v=80
26400 On ch=1 n=g3 v=0
26400 On ch=1 n=c4 v=80
26820 On ch=1 n=c4 v=0
26820 On ch=1 n=g3 v=80
26880 On ch=1 n=g3 v=0
26880 On ch=1 n=c4 v=80
27180 On ch=1 n=c4 v=0
27180 On ch=1 n=g3 v=80
27240 On ch=1 n=g3 v=0
27240 On ch=1 n=c4 v=80
27420 On ch=1 n=c4 v=0
27420 On ch=1 n=b3 v=80
27480 On ch=1 n=b3 v=0
27480 On ch=1 n=a3 v=80
27540 On ch=1 n=a3 v=0
27540 On ch=1 n=b3 v=80
27600 On ch=1 n=b3 v=0
27600 On ch=1 n=a3 v=80
27660 On ch=1 n=a3 v=0
27660 On ch=1 n=g3 v=80
27720 On ch=1 n=g3 v=0
27720 On ch=1 n=e4 v=80
28140 On ch=1 n=e4 v=0
28140 On ch=1 n=d4 v=80
28200 On ch=1 n=d4 v=0
28200 On ch=1 n=c4 v=80
28260 On ch=1 n=c4 v=0
28260 On ch=1 n=b3 v=80
28320 On ch=1 n=b3 v=0
28320 On ch=1 n=a3 v=80
28380 On ch=1 n=a3 v=0
28380 On ch=1 n=g3 v=80
28440 On ch=1 n=g3 v=0
28440 On ch=1 n=g4 v=80
28560 On ch=1 n=g4 v=0
28560 On ch=1 n=c5 v=80
28860 On ch=1 n=c5 v=0
28860 On ch=1 n=b4 v=80
28920 On ch=1 n=b4 v=0
28920 On ch=1 n=a4 v=80
28980 On ch=1 n=a4 v=0
28980 On ch=1 n=b4 v=80
29040 On ch=1 n=b4 v=0
29040 On ch=1 n=c5 v=80
29100 On ch=1 n=c5 v=0
29100 On ch=1 n=a4 v=80
29160 On ch=1 n=a4 v=0
29160 On ch=1 n=g4 v=80
29220 On ch=1 n=g4 v=0
29220 On ch=1 n=a4 v=80
29280 On ch=1 n=a4 v=0
29280 On ch=1 n=g4 v=80
29340 On ch=1 n=g4 v=0
29340 On ch=1 n=e4 v=80
29400 On ch=1 n=e4 v=0
29400 On ch=1 n=c4 v=80
29460 On ch=1 n=c4 v=0
29460 On ch=1 n=a4 v=80
29520 On ch=1 n=a4 v=0
29520 On ch=1 n=g4 v=80
29580 On ch=1 n=g4 v=0
29580 On ch=1 n=a4 v=80
29640 On ch=1 n=a4 v=0
29640 On ch=1 n=g4 v=80
29700 On ch=1 n=g4 v=0
29700 On ch=1 n=e4 v=80
29760 On ch=1 n=e4 v=0
29760 On ch=1 n=c4 v=80
29820 On ch=1 n=c4 v=0
29820 On ch=1 n=d4 v=80
29880 On ch=1 n=d4 v=0
29880 On ch=1 n=g3 v=80
30000 On ch=1 n=g3 v=0
30000 On ch=1 n=d4 v=80
30420 On ch=1 n=d4 v=0
30420 On ch=1 n=c#4 v=80
30480 On ch=1 n=c#4 v=0
30480 On ch=1 n=a#3 v=80
30540 On ch=1 n=a#3 v=0
30540 On ch=1 n=a3 v=80
30600 On ch=1 n=a3 v=0
30600 On ch=1 n=f4 v=80
31020 On ch=1 n=f4 v=0
31020 On ch=1 n=e4 v=80
31080 On ch=1 n=e4 v=0
31080 On ch=1 n=d4 v=80
31140 On ch=1 n=d4 v=0
31140 On ch=1 n=c#4 v=80
31200 On ch=1 n=c#4 v=0
31200 On ch=1 n=a#3 v=80
31260 On ch=1 n=a#3 v=0
31260 On ch=1 n=a3 v=80
31320 On ch=1 n=a3 v=0
31320 On ch=1 n=a4 v=80
31440 On ch=1 n=a4 v=0
31440 On ch=1 n=d5 v=80
31740 On ch=1 n=d5 v=0
31740 On ch=1 n=c#5 v=80
31800 On ch=1 n=c#5 v=0
31800 On ch=1 n=b4 v=80
31860 On ch=1 n=b4 v=0
31860 On ch=1 n=c#5 v=80
31920 On ch=1 n=c#5 v=0
31920 On ch=1 n=d5 v=80
31980 On ch=1 n=d5 v=0
31980 On ch=1 n=a#4 v=80
32040 On ch=1 n=a#4 v=0
32040 On ch=1 n=a4 v=80
32100 On ch=1 n=a4 v=0
32100 On ch=1 n=a#4 v=80
32160 On ch=1 n=a#4 v=0
32160 On ch=1 n=a4 v=80
32220 On ch=1 n=a4 v=0
32220 On ch=1 n=f4 v=80
32280 On ch=1 n=f4 v=0
32280 On ch=1 n=d4 v=80
32340 On ch=1 n=d4 v=0
32340 On ch=1 n=g#4 v=80
32400 On ch=1 n=g#4 v=0
32400 On ch=1 n=g4 v=80
32460 On ch=1 n=g4 v=0
32460 On ch=1 n=a4 v=80
32520 On ch=1 n=a4 v=0
32520 On ch=1 n=g4 v=80
32580 On ch=1 n=g4 v=0
32580 On ch=1 n=d4 v=80
32640 On ch=1 n=d4 v=0
32640 On ch=1 n=e4 v=80
32700 On ch=1 n=e4 v=0
32700 On ch=1 n=g3 v=80
32760 On ch=1 n=g3 v=0
32760 On ch=1 n=c4 v=80
32880 On ch=1 n=c4 v=0
33120 On ch=1 n=c5 v=80
33300 On ch=1 n=c5 v=0
33300 On ch=1 n=g4 v=80
33360 On ch=1 n=g4 v=0
33360 On ch=1 n=c5 v=80
33480 On ch=1 n=c5 v=0
33480 On ch=1 n=g4 v=80
33600 On ch=1 n=g4 v=0
33600 On ch=1 n=c5 v=80
33840 On ch=1 n=c5 v=0
33840 On ch=1 n=f4 v=80
33960 On ch=1 n=f4 v=0
33960 On ch=1 n=f5 v=80
34200 On ch=1 n=f5 v=0
34200 On ch=1 n=d#5 v=80
34320 On ch=1 n=d#5 v=0
34320 On ch=1 n=c#5 v=80
34380 On ch=1 n=c#5 v=0
34380 On ch=1 n=c5 v=80
34440 On ch=1 n=c5 v=0
34440 On ch=1 n=c5 v=80
34560 On ch=1 n=c5 v=0
34560 On ch=1 n=c5 v=80
34740 On ch=1 n=c5 v=0
34740 On ch=1 n=g4 v=80
34800 On ch=1 n=g4 v=0
34800 On ch=1 n=c5 v=80
34920 On ch=1 n=c5 v=0
34920 On ch=1 n=g4 v=80
35040 On ch=1 n=g4 v=0
35040 On ch=1 n=c5 v=80
35280 On ch=1 n=c5 v=0
35280 On ch=1 n=f4 v=80
35400 On ch=1 n=f4 v=0
35400 On ch=1 n=g#4 v=80
35460 On ch=1 n=g#4 v=0
35460 On ch=1 n=c5 v=80
35520 On ch=1 n=c5 v=0
35520 On ch=1 n=d#5 v=80
35580 On ch=1 n=d#5 v=0
35580 On ch=1 n=c#5 v=80
35640 On ch=1 n=c#5 v=0
35640 On ch=1 n=c5 v=80
35700 On ch=1 n=c5 v=0
35700 On ch=1 n=g4 v=80
35760 On ch=1 n=g4 v=0
35760 On ch=1 n=g#4 v=80
35820 On ch=1 n=g#4 v=0
35820 On ch=1 n=a#4 v=80
35880 On ch=1 n=a#4 v=0
35880 On ch=1 n=c5 v=80
35940 On ch=1 n=c5 v=0
35940 On ch=1 n=d5 v=80
36000 On ch=1 n=d5 v=0
36000 On ch=1 n=d#5 v=80
36180 On ch=1 n=d#5 v=0
36180 On ch=1 n=a#4 v=80
36240 On ch=1 n=a#4 v=0
36240 On ch=1 n=d#5 v=80
36360 On ch=1 n=d#5 v=0
36360 On ch=1 n=a#4 v=80
36480 On ch=1 n=a#4 v=0
36480 On ch=1 n=d#5 v=80
36720 On ch=1 n=d#5 v=0
36720 On ch=1 n=g#4 v=80
36840 On ch=1 n=g#4 v=0
36840 On ch=1 n=g#5 v=80
37080 On ch=1 n=g#5 v=0
37080 On ch=1 n=f#5 v=80
37200 On ch=1 n=f#5 v=0
37200 On ch=1 n=e5 v=80
37260 On ch=1 n=e5 v=0
37260 On ch=1 n=d#5 v=80
37320 On ch=1 n=d#5 v=0
37320 On ch=1 n=d#5 v=80
37440 On ch=1 n=d#5 v=0
37440 On ch=1 n=d#5 v=80
37620 On ch=1 n=d#5 v=0
37620 On ch=1 n=a#4 v=80
37680 On ch=1 n=a#4 v=0
37680 On ch=1 n=d#5 v=80
37800 On ch=1 n=d#5 v=0
37800 On ch=1 n=a#4 v=80
37920 On ch=1 n=a#4 v=0
37920 On ch=1 n=d#5 v=80
38160 On ch=1 n=d#5 v=0
38160 On ch=1 n=a4 v=80
38280 On ch=1 n=a4 v=0
38280 On ch=1 n=c5 v=80
38340 On ch=1 n=c5 v=0
38340 On ch=1 n=a#4 v=80
38400 On ch=1 n=a#4 v=0
38400 On ch=1 n=f4 v=80
38460 On ch=1 n=f4 v=0
38460 On ch=1 n=g4 v=80
38520 On ch=1 n=g4 v=0
38520 On ch=1 n=a#4 v=80
38580 On ch=1 n=a#4 v=0
38580 On ch=1 n=g#4 v=80
38640 On ch=1 n=g#4 v=0
38640 On ch=1 n=e4 v=80
38700 On ch=1 n=e4 v=0
38700 On ch=1 n=f4 v=80
38760 On ch=1 n=f4 v=0
38760 On ch=1 n=g#4 v=80
38820 On ch=1 n=g#4 v=0
38820 On ch=1 n=g4 v=80
38880 On ch=1 n=g4 v=0
38880 On ch=1 n=g#3 v=80
39000 On ch=1 n=g#3 v=0
39000 On ch=1 n=c5 v=80
39000 On ch=1 n=g#4 v=80
39000 On ch=1 n=d#4 v=80
39120 On ch=1 n=d#4 v=0
39120 On ch=1 n=g#4 v=0
39120 On ch=1 n=c5 v=0
39120 On ch=1 n=g#4 v=80
39120 On ch=1 n=c5 v=80
39120 On ch=1 n=d#4 v=80
39240 On ch=1 n=d#4 v=0
39240 On ch=1 n=c5 v=0
39240 On ch=1 n=g#4 v=0
39240 On ch=1 n=d#3 v=80
39360 On ch=1 n=d#3 v=0
39360 On ch=1 n=c5 v=80
39360 On ch=1 n=g#4 v=80
39360 On ch=1 n=d#4 v=80
39480 On ch=1 n=d#4 v=0
39480 On ch=1 n=g#4 v=0
39480 On ch=1 n=c5 v=0
39480 On ch=1 n=c5 v=80
39480 On ch=1 n=g#4 v=80
39480 On ch=1 n=d#4 v=80
39600 On ch=1 n=d#4 v=0
39600 On ch=1 n=g#4 v=0
39600 On ch=1 n=c5 v=0
39600 On ch=1 n=g#3 v=80
39720 On ch=1 n=g#3 v=0
39720 On ch=1 n=c5 v=80
39720 On ch=1 n=g#4 v=80
39720 On ch=1 n=d#4 v=80
39840 On ch=1 n=d#4 v=0
39840 On ch=1 n=g#4 v=0
39840 On ch=1 n=c5 v=0
39840 On ch=1 n=g#4 v=80
39840 On ch=1 n=c5 v=80
39840 On ch=1 n=d#4 v=80
39960 On ch=1 n=d#4 v=0
39960 On ch=1 n=c5 v=0
39960 On ch=1 n=g#4 v=0
39960 On ch=1 n=d#3 v=80
40080 On ch=1 n=d#3 v=0
40080 On ch=1 n=c5 v=80
40080 On ch=1 n=g#4 v=80
40080 On ch=1 n=d#4 v=80
40200 On ch=1 n=d#4 v=0
40200 On ch=1 n=g#4 v=0
40200 On ch=1 n=c5 v=0
40200 On ch=1 n=c5 v=80
40200 On ch=1 n=g#4 v=80
40200 On ch=1 n=d#4 v=80
40320 On ch=1 n=d#4 v=0
40320 On ch=1 n=g#4 v=0
40320 On ch=1 n=c5 v=0
40320 On ch=1 n=a#3 v=80
40440 On ch=1 n=a#3 v=0
40440 On ch=1 n=c#5 v=80
40440 On ch=1 n=g4 v=80
40440 On ch=1 n=d#4 v=80
40560 On ch=1 n=d#4 v=0
40560 On ch=1 n=g4 v=0
40560 On ch=1 n=c#5 v=0
40560 On ch=1 n=d#4 v=80
40560 On ch=1 n=g4 v=80
40560 On ch=1 n=c#5 v=80
40680 On ch=1 n=c#5 v=0
40680 On ch=1 n=g4 v=0
40680 On ch=1 n=d#4 v=0
40680 On ch=1 n=d#3 v=80
40800 On ch=1 n=d#3 v=0
40800 On ch=1 n=c#5 v=80
40800 On ch=1 n=g4 v=80
40800 On ch=1 n=d#4 v=80
40920 On ch=1 n=d#4 v=0
40920 On ch=1 n=g4 v=0
40920 On ch=1 n=c#5 v=0
40920 On ch=1 n=d#4 v=80
40920 On ch=1 n=g4 v=80
40920 On ch=1 n=c#5 v=80
41040 On ch=1 n=c#5 v=0
41040 On ch=1 n=g4 v=0
41040 On ch=1 n=d#4 v=0
41040 On ch=1 n=a#3 v=80
41160 On ch=1 n=a#3 v=0
41160 On ch=1 n=c#5 v=80
41160 On ch=1 n=g4 v=80
41160 On ch=1 n=d#4 v=80
41280 On ch=1 n=d#4 v=0
41280 On ch=1 n=g4 v=0
41280 On ch=1 n=c#5 v=0
41280 On ch=1 n=d#4 v=80
41280 On ch=1 n=g4 v=80
41280 On ch=1 n=c#5 v=80
41400 On ch=1 n=c#5 v=0
41400 On ch=1 n=g4 v=0
41400 On ch=1 n=d#4 v=0
41400 On ch=1 n=e3 v=80
41520 On ch=1 n=e3 v=0
41520 On ch=1 n=c5 v=81
41520 On ch=1 n=g4 v=81
41520 On ch=1 n=c4 v=81
41640 On ch=1 n=c4 v=0
41640 On ch=1 n=g4 v=0
41640 On ch=1 n=c5 v=0
41640 On ch=1 n=c5 v=82
41640 On ch=1 n=g4 v=82
41640 On ch=1 n=c4 v=82
41760 On ch=1 n=c4 v=0
41760 On ch=1 n=g4 v=0
41760 On ch=1 n=c5 v=0
41760 On ch=1 n=f3 v=84
41880 On ch=1 n=f3 v=0
41880 On ch=1 n=g#4 v=85
41880 On ch=1 n=c4 v=85
42000 On ch=1 n=c4 v=0
42000 On ch=1 n=g#4 v=0
42000 On ch=1 n=g#4 v=87
42000 On ch=1 n=c4 v=87
42120 On ch=1 n=c4 v=0
42120 On ch=1 n=g#4 v=0
42120 On ch=1 n=c3 v=88
42240 On ch=1 n=c3 v=0
42240 On ch=1 n=c4 v=89
42240 On ch=1 n=g#4 v=89
42360 On ch=1 n=g#4 v=0
42360 On ch=1 n=c4 v=0
42360 On ch=1 n=c4 v=91
42360 On ch=1 n=g#4 v=91
42480 On ch=1 n=g#4 v=0
42480 On ch=1 n=c4 v=0
42480 On ch=1 n=f3 v=92
42600 On ch=1 n=f3 v=0
42600 On ch=1 n=g#4 v=94
42600 On ch=1 n=c4 v=94
42720 On ch=1 n=c4 v=0
42720 On ch=1 n=g#4 v=0
42720 On ch=1 n=g#4 v=95
42720 On ch=1 n=c4 v=95
42840 On ch=1 n=c4 v=0
42840 On ch=1 n=g#4 v=0
42840 On ch=1 n=g#3 v=96
42960 On ch=1 n=g#3 v=0
42960 On ch=1 n=d#5 v=98
42960 On ch=1 n=c5 v=98
42960 On ch=1 n=f4 v=98
43080 On ch=1 n=f4 v=0
43080 On ch=1 n=c5 v=0
43080 On ch=1 n=d#5 v=0
43080 On ch=1 n=c5 v=99
43080 On ch=1 n=d#5 v=99
43080 On ch=1 n=f4 v=99
43200 On ch=1 n=f4 v=0
43200 On ch=1 n=d#5 v=0
43200 On ch=1 n=c5 v=0
43200 On ch=1 n=a#2 v=100
43320 On ch=1 n=a#2 v=0
43920 On ch=1 n=a#3 v=90
44040 On ch=1 n=a#3 v=0
44040 On ch=1 n=d5 v=88
44040 On ch=1 n=a#4 v=88
44040 On ch=1 n=f4 v=88
44160 On ch=1 n=f4 v=0
44160 On ch=1 n=a#4 v=0
44160 On ch=1 n=d5 v=0
44160 On ch=1 n=a#4 v=86
44160 On ch=1 n=d5 v=86
44160 On ch=1 n=f4 v=86
44280 On ch=1 n=f4 v=0
44280 On ch=1 n=d5 v=0
44280 On ch=1 n=a#4 v=0
44280 On ch=1 n=d#4 v=85
44400 On ch=1 n=d#4 v=0
44400 On ch=1 n=d#5 v=83
44400 On ch=1 n=a#4 v=83
44520 On ch=1 n=a#4 v=0
44520 On ch=1 n=d#5 v=0
44520 On ch=1 n=d#4 v=81
44520 On ch=1 n=a#4 v=81
44520 On ch=1 n=c#5 v=81
44640 On ch=1 n=c#5 v=0
44640 On ch=1 n=a#4 v=0
44640 On ch=1 n=d#4 v=0
44640 On ch=1 n=g#3 v=80
44760 On ch=1 n=g#3 v=0
44760 On ch=1 n=c5 v=80
44760 On ch=1 n=g#4 v=80
44760 On ch=1 n=d#4 v=80
44880 On ch=1 n=d#4 v=0
44880 On ch=1 n=g#4 v=0
44880 On ch=1 n=c5 v=0
44880 On ch=1 n=g#4 v=79
44880 On ch=1 n=c5 v=79
44880 On ch=1 n=d#4 v=79
45000 On ch=1 n=d#4 v=0
45000 On ch=1 n=c5 v=0
45000 On ch=1 n=g#4 v=0
45000 On ch=1 n=d#3 v=78
45120 On ch=1 n=d#3 v=0
45120 On ch=1 n=c5 v=77
45120 On ch=1 n=g#4 v=77
45120 On ch=1 n=d#4 v=77
45240 On ch=1 n=d#4 v=0
45240 On ch=1 n=g#4 v=0
45240 On ch=1 n=c5 v=0
45240 On ch=1 n=c5 v=76
45240 On ch=1 n=g#4 v=76
45240 On ch=1 n=d#4 v=76
45360 On ch=1 n=d#4 v=0
45360 On ch=1 n=g#4 v=0
45360 On ch=1 n=c5 v=0
45360 On ch=1 n=g#3 v=75
45480 On ch=1 n=g#3 v=0
45480 On ch=1 n=c5 v=74
45480 On ch=1 n=g#4 v=74
45480 On ch=1 n=d#4 v=74
45600 On ch=1 n=d#4 v=0
45600 On ch=1 n=g#4 v=0
45600 On ch=1 n=c5 v=0
45600 On ch=1 n=g#4 v=73
45600 On ch=1 n=c5 v=73
45600 On ch=1 n=d#4 v=73
45720 On ch=1 n=d#4 v=0
45720 On ch=1 n=c5 v=0
45720 On ch=1 n=g#4 v=0
45720 On ch=1 n=d#3 v=73
45840 On ch=1 n=d#3 v=0
45840 On ch=1 n=c5 v=72
45840 On ch=1 n=g#4 v=72
45840 On ch=1 n=d#4 v=72
45960 On ch=1 n=d#4 v=0
45960 On ch=1 n=g#4 v=0
45960 On ch=1 n=c5 v=0
45960 On ch=1 n=c5 v=71
45960 On ch=1 n=g#4 v=71
45960 On ch=1 n=d#4 v=71
46080 On ch=1 n=d#4 v=0
46080 On ch=1 n=g#4 v=0
46080 On ch=1 n=c5 v=0
46080 On ch=1 n=a#3 v=70
46200 On ch=1 n=a#3 v=0
46200 On ch=1 n=c#5 v=69
46200 On ch=1 n=g4 v=69
46200 On ch=1 n=d#4 v=69
46320 On ch=1 n=d#4 v=0
46320 On ch=1 n=g4 v=0
46320 On ch=1 n=c#5 v=0
46320 On ch=1 n=d#4 v=68
46320 On ch=1 n=g4 v=68
46320 On ch=1 n=c#5 v=68
46440 On ch=1 n=c#5 v=0
46440 On ch=1 n=g4 v=0
46440 On ch=1 n=d#4 v=0
46440 On ch=1 n=d#3 v=67
46560 On ch=1 n=d#3 v=0
46560 On ch=1 n=c#5 v=66
46560 On ch=1 n=g4 v=66
46560 On ch=1 n=d#4 v=66
46680 On ch=1 n=d#4 v=0
46680 On ch=1 n=g4 v=0
46680 On ch=1 n=c#5 v=0
46680 On ch=1 n=d#4 v=66
46680 On ch=1 n=g4 v=66
46680 On ch=1 n=c#5 v=66
46800 On ch=1 n=c#5 v=0
46800 On ch=1 n=g4 v=0
46800 On ch=1 n=d#4 v=0
46800 On ch=1 n=a#3 v=65
46920 On ch=1 n=a#3 v=0
46920 On ch=1 n=c#5 v=64
46920 On ch=1 n=g4 v=64
46920 On ch=1 n=d#4 v=64
47040 On ch=1 n=d#4 v=0
47040 On ch=1 n=g4 v=0
47040 On ch=1 n=c#5 v=0
47040 On ch=1 n=d#4 v=63
47040 On ch=1 n=g4 v=63
47040 On ch=1 n=c#5 v=63
47160 On ch=1 n=c#5 v=0
47160 On ch=1 n=g4 v=0
47160 On ch=1 n=d#4 v=0
47160 On ch=1 n=e3 v=62
47280 On ch=1 n=e3 v=0
47280 On ch=1 n=g4 v=61
47280 On ch=1 n=c4 v=61
47400 On ch=1 n=c4 v=0
47400 On ch=1 n=g4 v=0
47400 On ch=1 n=g4 v=60
47400 On ch=1 n=c4 v=60
47520 On ch=1 n=c4 v=0
47520 On ch=1 n=g4 v=0
47520 On ch=1 n=e3 v=60
47640 On ch=1 n=e3 v=0
47640 On ch=1 n=g#4 v=61
47640 On ch=1 n=b3 v=61
47760 On ch=1 n=b3 v=0
47760 On ch=1 n=g#4 v=0
47760 On ch=1 n=g#4 v=63
47760 On ch=1 n=b3 v=63
47880 On ch=1 n=b3 v=0
47880 On ch=1 n=g#4 v=0
47880 On ch=1 n=d#3 v=65
48000 On ch=1 n=d#3 v=0
48000 On ch=1 n=a4 v=66
48000 On ch=1 n=b3 v=66
48120 On ch=1 n=b3 v=0
48120 On ch=1 n=a4 v=0
48120 On ch=1 n=a4 v=68
48120 On ch=1 n=b3 v=68
48240 On ch=1 n=b3 v=0
48240 On ch=1 n=a4 v=0
48240 On ch=1 n=e3 v=70
48360 On ch=1 n=e3 v=0
48360 On ch=1 n=g#4 v=71
48360 On ch=1 n=b3 v=71
48480 On ch=1 n=b3 v=0
48480 On ch=1 n=g#4 v=0
48480 On ch=1 n=g#4 v=73
48480 On ch=1 n=b3 v=73
48600 On ch=1 n=b3 v=0
48600 On ch=1 n=g#4 v=0
48600 On ch=1 n=f3 v=75
48720 On ch=1 n=f3 v=0
48720 On ch=1 n=b4 v=77
48720 On ch=1 n=c#4 v=77
48840 On ch=1 n=c#4 v=0
48840 On ch=1 n=b4 v=0
48840 On ch=1 n=b4 v=78
48840 On ch=1 n=c#4 v=78
48960 On ch=1 n=c#4 v=0
48960 On ch=1 n=b4 v=0
48960 On ch=1 n=f#3 v=80
49080 On ch=1 n=f#3 v=0
49080 On ch=1 n=a#4 v=82
49080 On ch=1 n=c#4 v=82
49200 On ch=1 n=c#4 v=0
49200 On ch=1 n=a#4 v=0
49200 On ch=1 n=a#4 v=83
49200 On ch=1 n=c#4 v=83
49320 On ch=1 n=c#4 v=0
49320 On ch=1 n=a#4 v=0
49320 On ch=1 n=f3 v=85
49440 On ch=1 n=f3 v=0
49440 On ch=1 n=b4 v=87
49440 On ch=1 n=c#4 v=87
49560 On ch=1 n=c#4 v=0
49560 On ch=1 n=b4 v=0
49560 On ch=1 n=b4 v=89
49560 On ch=1 n=c#4 v=89
49680 On ch=1 n=c#4 v=0
49680 On ch=1 n=b4 v=0
49680 On ch=1 n=f#3 v=90
49800 On ch=1 n=f#3 v=0
49800 On ch=1 n=a#4 v=92
49800 On ch=1 n=c#4 v=92
49920 On ch=1 n=c#4 v=0
49920 On ch=1 n=a#4 v=0
49920 On ch=1 n=a#4 v=94
49920 On ch=1 n=c#4 v=94
50040 On ch=1 n=c#4 v=0
50040 On ch=1 n=a#4 v=0
50040 On ch=1 n=g3 v=95
50160 On ch=1 n=g3 v=0
50160 On ch=1 n=c#5 v=97
50160 On ch=1 n=d#4 v=97
50280 On ch=1 n=d#4 v=0
50280 On ch=1 n=c#5 v=0
50400 On ch=1 n=d#3 v=100
50520 On ch=1 n=d#3 v=0
50520 On ch=1 n=c#5 v=100
50520 On ch=1 n=g5 v=100
50520 On ch=1 n=d#5 v=100
50640 On ch=1 n=d#5 v=0
50640 On ch=1 n=g5 v=0
50640 On ch=1 n=c#5 v=0
50640 On ch=1 n=c#5 v=100
50640 On ch=1 n=d#5 v=100
50640 On ch=1 n=g5 v=100
50760 On ch=1 n=g5 v=0
50760 On ch=1 n=d#5 v=0
50760 On ch=1 n=c#5 v=0
50760 On ch=1 n=g#3 v=100
50880 On ch=1 n=g#3 v=0
50880 On ch=1 n=g#5 v=100
50880 On ch=1 n=c5 v=100
51000 On ch=1 n=c5 v=0
51000 On ch=1 n=g#5 v=0
51000 On ch=1 n=c4 v=100
51010 On ch=1 n=a#4 v=100
51020 On ch=1 n=e5 v=100
51120 On ch=1 n=e5 v=0
51120 On ch=1 n=a#4 v=0
51120 On ch=1 n=c4 v=0
51120 On ch=1 n=c#4 v=100
51240 On ch=1 n=c#4 v=0
51240 On ch=1 n=g#4 v=100
51240 On ch=1 n=f5 v=100
51240 On ch=1 n=a#4 v=100
51360 On ch=1 n=a#4 v=0
51360 On ch=1 n=f5 v=0
51360 On ch=1 n=g#4 v=0
51360 On ch=1 n=c#5 v=100
51360 On ch=1 n=d#4 v=100
51360 On ch=1 n=g4 v=100
51480 On ch=1 n=g4 v=0
51480 On ch=1 n=d#4 v=0
51480 On ch=1 n=c#5 v=0
51480 On ch=1 n=g#3 v=100
51600 On ch=1 n=g#3 v=0
51600 On ch=1 n=c5 v=100
51600 On ch=1 n=d#4 v=100
51720 On ch=1 n=d#4 v=0
51720 On ch=1 n=c5 v=0
51720 On ch=1 n=a3 v=100
51780 On ch=1 n=a3 v=0
51840 On ch=1 n=a#3 v=100
51960 On ch=1 n=a#3 v=0
51960 On ch=1 n=c#5 v=97
51960 On ch=1 n=g4 v=97
51960 On ch=1 n=d#4 v=97
52080 On ch=1 n=d#4 v=0
52080 On ch=1 n=g4 v=0
52080 On ch=1 n=c#5 v=0
52080 On ch=1 n=d#3 v=94
52140 On ch=1 n=d#3 v=0
52200 On ch=1 n=g#3 v=90
52320 On ch=1 n=g#3 v=0
52320 On ch=1 n=c5 v=87
52320 On ch=1 n=g#4 v=87
52320 On ch=1 n=d#4 v=87
52440 On ch=1 n=d#4 v=0
52440 On ch=1 n=g#4 v=0
52440 On ch=1 n=c5 v=0
52440 On ch=1 n=c4 v=83
52440 On ch=1 n=e4 v=83
52440 On ch=1 n=g#4 v=83
52440 On ch=1 n=c5 v=83
52560 On ch=1 n=c5 v=0
52560 On ch=1 n=c4 v=0
52560 On ch=1 n=e4 v=0
52560 On ch=1 n=g#4 v=0
52560 On ch=1 n=c#4 v=80
52680 On ch=1 n=c#5 v=77
52680 On ch=1 n=a4 v=77
52680 On ch=1 n=e4 v=77
52800 On ch=1 n=e4 v=0
52800 On ch=1 n=c#4 v=0
52800 On ch=1 n=c#5 v=0
52800 On ch=1 n=a4 v=0
53160 On ch=1 n=c#5 v=63
53160 On ch=1 n=a#4 v=63
53160 On ch=1 n=d#4 v=63
53280 On ch=1 n=d#4 v=0
53280 On ch=1 n=a#4 v=0
53280 On ch=1 n=c#5 v=0
53280 On ch=1 n=g#3 v=60
53400 On ch=1 n=g#3 v=0
53400 On ch=1 n=c5 v=60
53400 On ch=1 n=d#4 v=60
53520 On ch=1 n=d#4 v=0
53520 On ch=1 n=c5 v=0
53520 On ch=1 n=c5 v=60
53520 On ch=1 n=d#4 v=60
53640 On ch=1 n=d#4 v=0
53640 On ch=1 n=c5 v=0
53640 On ch=1 n=g#3 v=60
53760 On ch=1 n=g#3 v=0
53760 On ch=1 n=c#5 v=60
53760 On ch=1 n=g4 v=60
53760 On ch=1 n=d#4 v=60
53880 On ch=1 n=d#4 v=0
53880 On ch=1 n=g4 v=0
53880 On ch=1 n=c#5 v=0
53880 On ch=1 n=d#4 v=60
53880 On ch=1 n=a#4 v=60
53880 On ch=1 n=c#5 v=60
54000 On ch=1 n=c#5 v=0
54000 On ch=1 n=a#4 v=0
54000 On ch=1 n=d#4 v=0
54000 On ch=1 n=g#3 v=60
54120 On ch=1 n=g#3 v=0
54120 On ch=1 n=c5 v=60
54120 On ch=1 n=d#4 v=60
54240 On ch=1 n=d#4 v=0
54240 On ch=1 n=c5 v=0
54240 On ch=1 n=c5 v=60
54240 On ch=1 n=d#4 v=60
54360 On ch=1 n=d#4 v=0
54360 On ch=1 n=c5 v=0
54360 On ch=1 n=g#3 v=60
54480 On ch=1 n=g#3 v=0
54480 On ch=1 n=c#5 v=60
54480 On ch=1 n=g4 v=60
54480 On ch=1 n=d#4 v=60
54600 On ch=1 n=d#4 v=0
54600 On ch=1 n=g4 v=0
54600 On ch=1 n=c#5 v=0
54600 On ch=1 n=d#4 v=60
54600 On ch=1 n=a#4 v=60
54600 On ch=1 n=c#5 v=60
54720 On ch=1 n=c#5 v=0
54720 On ch=1 n=a#4 v=0
54720 On ch=1 n=d#4 v=0
54720 On ch=1 n=g#3 v=60
54840 On ch=1 n=g#3 v=0
54840 On ch=1 n=c5 v=63
54840 On ch=1 n=d#4 v=63
54960 On ch=1 n=d#4 v=0
54960 On ch=1 n=c5 v=0
54960 On ch=1 n=d#5 v=66
54960 On ch=1 n=c5 v=66
54960 On ch=1 n=g#4 v=66
55080 On ch=1 n=g#4 v=0
55080 On ch=1 n=c5 v=0
55080 On ch=1 n=d#5 v=0
55080 On ch=1 n=g#5 v=70
55080 On ch=1 n=c5 v=70
55080 On ch=1 n=g#4 v=70
55200 On ch=1 n=g#4 v=0
55200 On ch=1 n=c5 v=0
55200 On ch=1 n=g#5 v=0
55200 On ch=1 n=d#5 v=73
55200 On ch=1 n=c5 v=73
55200 On ch=1 n=g#4 v=73
55320 On ch=1 n=g#4 v=0
55320 On ch=1 n=c5 v=0
55320 On ch=1 n=d#5 v=0
55320 On ch=1 n=d#4 v=77
55320 On ch=1 n=g#4 v=77
55320 On ch=1 n=c5 v=77
55440 On ch=1 n=c5 v=0
55440 On ch=1 n=g#4 v=0
55440 On ch=1 n=d#4 v=0
55440 On ch=1 n=g#3 v=80
55560 On ch=1 n=g#3 v=0
55560 On ch=1 n=c5 v=83
55560 On ch=1 n=d#4 v=83
55680 On ch=1 n=d#4 v=0
55680 On ch=1 n=c5 v=0
55680 On ch=1 n=d#5 v=87
55680 On ch=1 n=c5 v=87
55680 On ch=1 n=g#4 v=87
55800 On ch=1 n=g#4 v=0
55800 On ch=1 n=c5 v=0
55800 On ch=1 n=d#5 v=0
55800 On ch=1 n=g#5 v=90
55800 On ch=1 n=c5 v=90
55800 On ch=1 n=g#4 v=90
55920 On ch=1 n=g#4 v=0
55920 On ch=1 n=c5 v=0
55920 On ch=1 n=g#5 v=0
55920 On ch=1 n=d#5 v=94
55920 On ch=1 n=c5 v=94
55920 On ch=1 n=g#4 v=94
56040 On ch=1 n=g#4 v=0
56040 On ch=1 n=c5 v=0
56040 On ch=1 n=d#5 v=0
56040 On ch=1 n=d#4 v=97
56040 On ch=1 n=g#4 v=97
56040 On ch=1 n=c5 v=97
56280 On ch=1 n=c5 v=0
56280 On ch=1 n=g#4 v=0
56280 On ch=1 n=d#4 v=0
56280 On ch=1 n=d#5 v=100
56280 On ch=1 n=c5 v=100
56280 On ch=1 n=g#4 v=100
56280 On ch=1 n=d#4 v=100
56400 On ch=1 n=d#4 v=0
56400 On ch=1 n=d#5 v=0
56400 On ch=1 n=c5 v=0
56400 On ch=1 n=g#4 v=0
56400 On ch=1 n=d#5 v=100
56400 On ch=1 n=c5 v=100
56400 On ch=1 n=g#4 v=100
56400 On ch=1 n=d#4 v=100
56640 On ch=1 n=d#4 v=0
56640 On ch=1 n=d#5 v=0
56640 On ch=1 n=c5 v=0
56640 On ch=1 n=g#4 v=0
56640 On ch=1 n=d#5 v=100
56640 On ch=1 n=c#5 v=100
56640 On ch=1 n=g4 v=100
56640 On ch=1 n=d#4 v=100
56760 On ch=1 n=d#4 v=0
56760 On ch=1 n=d#5 v=0
56760 On ch=1 n=c#5 v=0
56760 On ch=1 n=g4 v=0
56760 On ch=1 n=d#4 v=100
56760 On ch=1 n=g4 v=100
56760 On ch=1 n=c#5 v=100
56760 On ch=1 n=d#5 v=100
56880 On ch=1 n=d#5 v=0
56880 On ch=1 n=d#4 v=0
56880 On ch=1 n=g4 v=0
56880 On ch=1 n=c#5 v=0
57000 On ch=1 n=d#5 v=100
57000 On ch=1 n=c5 v=100
57000 On ch=1 n=g#4 v=100
57000 On ch=1 n=d#4 v=100
57120 On ch=1 n=d#4 v=0
57120 On ch=1 n=d#5 v=0
57120 On ch=1 n=c5 v=0
57120 On ch=1 n=g#4 v=0
57120 On ch=1 n=d#4 v=100
57120 On ch=1 n=g#4 v=100
57120 On ch=1 n=c5 v=100
57120 On ch=1 n=d#5 v=100
57240 On ch=1 n=d#5 v=0
57240 On ch=1 n=d#4 v=0
57240 On ch=1 n=g#4 v=0
57240 On ch=1 n=c5 v=0
57360 On ch=1 n=d#5 v=100
57360 On ch=1 n=c#5 v=100
57360 On ch=1 n=g4 v=100
57360 On ch=1 n=d#4 v=100
57480 On ch=1 n=d#4 v=0
57480 On ch=1 n=d#5 v=0
57480 On ch=1 n=c#5 v=0
57480 On ch=1 n=g4 v=0
57480 On ch=1 n=d#4 v=100
57480 On ch=1 n=g4 v=100
57480 On ch=1 n=c#5 v=100
57480 On ch=1 n=d#5 v=100
57720 On ch=1 n=d#5 v=0
57720 On ch=1 n=d#4 v=0
57720 On ch=1 n=g4 v=0
57720 On ch=1 n=c#5 v=0
57720 On ch=1 n=d#5 v=100
57720 On ch=1 n=c5 v=100
57720 On ch=1 n=g#4 v=100
57720 On ch=1 n=d#4 v=100
57840 On ch=1 n=d#4 v=0
57840 On ch=1 n=d#5 v=0
57840 On ch=1 n=c5 v=0
57840 On ch=1 n=g#4 v=0
57840 On ch=1 n=d#5 v=100
57840 On ch=1 n=c5 v=100
57840 On ch=1 n=g#4 v=100
57840 On ch=1 n=d#4 v=100
58080 On ch=1 n=d#4 v=0
58080 On ch=1 n=d#5 v=0
58080 On ch=1 n=c5 v=0
58080 On ch=1 n=g#4 v=0
58080 On ch=1 n=d#5 v=100
58080 On ch=1 n=c#5 v=100
58080 On ch=1 n=g4 v=100
58080 On ch=1 n=d#4 v=100
58200 On ch=1 n=d#4 v=0
58200 On ch=1 n=d#5 v=0
58200 On ch=1 n=c#5 v=0
58200 On ch=1 n=g4 v=0
58200 On ch=1 n=d#4 v=100
58200 On ch=1 n=g4 v=100
58200 On ch=1 n=c#5 v=100
58200 On ch=1 n=d#5 v=100
58440 On ch=1 n=d#5 v=0
58440 On ch=1 n=d#4 v=0
58440 On ch=1 n=g4 v=0
58440 On ch=1 n=c#5 v=0
58440 On ch=1 n=d#5 v=100
58440 On ch=1 n=c5 v=100
58440 On ch=1 n=g#4 v=100
58440 On ch=1 n=d#4 v=100
58560 On ch=1 n=d#4 v=0
58560 On ch=1 n=d#5 v=0
58560 On ch=1 n=c5 v=0
58560 On ch=1 n=g#4 v=0
58560 On ch=1 n=d#5 v=100
58560 On ch=1 n=c5 v=100
58560 On ch=1 n=g#4 v=100
58560 On ch=1 n=d#4 v=100
58800 On ch=1 n=d#4 v=0
58800 On ch=1 n=d#5 v=0
58800 On ch=1 n=c5 v=0
58800 On ch=1 n=g#4 v=0
58800 On ch=1 n=d#5 v=100
58800 On ch=1 n=c#5 v=100
58800 On ch=1 n=g4 v=100
58800 On ch=1 n=d#4 v=100
58920 On ch=1 n=d#4 v=0
58920 On ch=1 n=d#5 v=0
58920 On ch=1 n=c#5 v=0
58920 On ch=1 n=g4 v=0
58920 On ch=1 n=d#4 v=100
58920 On ch=1 n=g4 v=100
58920 On ch=1 n=c#5 v=100
58920 On ch=1 n=d#5 v=100
59040 On ch=1 n=d#5 v=0
59040 On ch=1 n=d#4 v=0
59040 On ch=1 n=g4 v=0
59040 On ch=1 n=c#5 v=0
59040 On ch=1 n=g#3 v=100
59160 On ch=1 n=g#3 v=0
61080 On ch=1 n=g#4 v=119
61140 On ch=1 n=g#4 v=0
61140 On ch=1 n=d#4 v=120
61200 On ch=1 n=d#4 v=0
61200 On ch=1 n=g#2 v=120
61560 On ch=1 n=g#2 v=0
61560 Meta TrkEnd
TrkEnd
MTrk
0 Meta 0x21 00
0 Meta TrkName "Pedal"
0 PrCh ch=1 p=0
0 Par ch=1 c=64 v=127
240 Par ch=1 c=64 v=0
360 Par ch=1 c=64 v=127
600 Par ch=1 c=64 v=0
720 Par ch=1 c=64 v=127
960 Par ch=1 c=64 v=0
1080 Par ch=1 c=64 v=127
1320 Par ch=1 c=64 v=0
1440 Par ch=1 c=64 v=127
1680 Par ch=1 c=64 v=0
1800 Par ch=1 c=64 v=127
2040 Par ch=1 c=64 v=0
2160 Par ch=1 c=64 v=127
2400 Par ch=1 c=64 v=0
2520 Par ch=1 c=64 v=127
2760 Par ch=1 c=64 v=0
2880 Par ch=1 c=64 v=127
3120 Par ch=1 c=64 v=0
3240 Par ch=1 c=64 v=127
3480 Par ch=1 c=64 v=0
3600 Par ch=1 c=64 v=127
3840 Par ch=1 c=64 v=0
3960 Par ch=1 c=64 v=127
4200 Par ch=1 c=64 v=0
4320 Par ch=1 c=64 v=127
4920 Par ch=1 c=64 v=0
5040 Par ch=1 c=64 v=127
5280 Par ch=1 c=64 v=0
5400 Par ch=1 c=64 v=127
5640 Par ch=1 c=64 v=0
5760 Par ch=1 c=64 v=127
6000 Par ch=1 c=64 v=0
6120 Par ch=1 c=64 v=127
6360 Par ch=1 c=64 v=0
6480 Par ch=1 c=64 v=127
6720 Par ch=1 c=64 v=0
6840 Par ch=1 c=64 v=127
7080 Par ch=1 c=64 v=0
7200 Par ch=1 c=64 v=127
7440 Par ch=1 c=64 v=0
7560 Par ch=1 c=64 v=127
7800 Par ch=1 c=64 v=0
7920 Par ch=1 c=64 v=127
8160 Par ch=1 c=64 v=0
8280 Par ch=1 c=64 v=127
8520 Par ch=1 c=64 v=0
8640 Par ch=1 c=64 v=127
8880 Par ch=1 c=64 v=0
9000 Par ch=1 c=64 v=127
9240 Par ch=1 c=64 v=0
9360 Par ch=1 c=64 v=127
9600 Par ch=1 c=64 v=0
9720 Par ch=1 c=64 v=127
9960 Par ch=1 c=64 v=0
10080 Par ch=1 c=64 v=127
10680 Par ch=1 c=64 v=0
10800 Par ch=1 c=64 v=127
11040 Par ch=1 c=64 v=0
11160 Par ch=1 c=64 v=127
11400 Par ch=1 c=64 v=0
11520 Par ch=1 c=64 v=127
11760 Par ch=1 c=64 v=0
11880 Par ch=1 c=64 v=127
12120 Par ch=1 c=64 v=0
12240 Par ch=1 c=64 v=127
12480 Par ch=1 c=64 v=0
12600 Par ch=1 c=64 v=127
12840 Par ch=1 c=64 v=0
12960 Par ch=1 c=64 v=127
13200 Par ch=1 c=64 v=0
13320 Par ch=1 c=64 v=127
13560 Par ch=1 c=64 v=0
13680 Par ch=1 c=64 v=127
13920 Par ch=1 c=64 v=0
14040 Par ch=1 c=64 v=127
14280 Par ch=1 c=64 v=0
14400 Par ch=1 c=64 v=127
14640 Par ch=1 c=64 v=0
14760 Par ch=1 c=64 v=127
15000 Par ch=1 c=64 v=0
15120 Par ch=1 c=64 v=127
15360 Par ch=1 c=64 v=0
15480 Par ch=1 c=64 v=127
15720 Par ch=1 c=64 v=0
15840 Par ch=1 c=64 v=127
16080 Par ch=1 c=64 v=0
16200 Par ch=1 c=64 v=127
16440 Par ch=1 c=64 v=0
16560 Par ch=1 c=64 v=127
16800 Par ch=1 c=64 v=0
16920 Par ch=1 c=64 v=127
17160 Par ch=1 c=64 v=0
17280 Par ch=1 c=64 v=127
17520 Par ch=1 c=64 v=0
17640 Par ch=1 c=64 v=127
17880 Par ch=1 c=64 v=0
18000 Par ch=1 c=64 v=127
18240 Par ch=1 c=64 v=0
18360 Par ch=1 c=64 v=127
18600 Par ch=1 c=64 v=0
18720 Par ch=1 c=64 v=127
18960 Par ch=1 c=64 v=0
19080 Par ch=1 c=64 v=127
19320 Par ch=1 c=64 v=0
19440 Par ch=1 c=64 v=127
19680 Par ch=1 c=64 v=0
19800 Par ch=1 c=64 v=127
20040 Par ch=1 c=64 v=0
20160 Par ch=1 c=64 v=127
20760 Par ch=1 c=64 v=0
21600 Par ch=1 c=64 v=127
22200 Par ch=1 c=64 v=0
23040 Par ch=1 c=64 v=127
23280 Par ch=1 c=64 v=0
23400 Par ch=1 c=64 v=127
23640 Par ch=1 c=64 v=0
23760 Par ch=1 c=64 v=127
24000 Par ch=1 c=64 v=0
24120 Par ch=1 c=64 v=127
24360 Par ch=1 c=64 v=0
24480 Par ch=1 c=64 v=127
24720 Par ch=1 c=64 v=0
24840 Par ch=1 c=64 v=127
25080 Par ch=1 c=64 v=0
25200 Par ch=1 c=64 v=127
25440 Par ch=1 c=64 v=0
25560 Par ch=1 c=64 v=127
25800 Par ch=1 c=64 v=0
25920 Par ch=1 c=64 v=127
26160 Par ch=1 c=64 v=0
27720 Par ch=1 c=64 v=127
27960 Par ch=1 c=64 v=0
28560 Par ch=1 c=64 v=127
28680 Par ch=1 c=64 v=0
30600 Par ch=1 c=64 v=127
30840 Par ch=1 c=64 v=0
31440 Par ch=1 c=64 v=127
31560 Par ch=1 c=64 v=0
38880 Par ch=1 c=64 v=127
39120 Par ch=1 c=64 v=0
39240 Par ch=1 c=64 v=127
39480 Par ch=1 c=64 v=0
39600 Par ch=1 c=64 v=127
39840 Par ch=1 c=64 v=0
39960 Par ch=1 c=64 v=127
40200 Par ch=1 c=64 v=0
40320 Par ch=1 c=64 v=127
40560 Par ch=1 c=64 v=0
40680 Par ch=1 c=64 v=127
40920 Par ch=1 c=64 v=0
41040 Par ch=1 c=64 v=127
41280 Par ch=1 c=64 v=0
41400 Par ch=1 c=64 v=127
41640 Par ch=1 c=64 v=0
41760 Par ch=1 c=64 v=127
42000 Par ch=1 c=64 v=0
42120 Par ch=1 c=64 v=127
42360 Par ch=1 c=64 v=0
42480 Par ch=1 c=64 v=127
42720 Par ch=1 c=64 v=0
42840 Par ch=1 c=64 v=127
43080 Par ch=1 c=64 v=0
43200 Par ch=1 c=64 v=127
43800 Par ch=1 c=64 v=0
43920 Par ch=1 c=64 v=127
44160 Par ch=1 c=64 v=0
44280 Par ch=1 c=64 v=127
44520 Par ch=1 c=64 v=0
44640 Par ch=1 c=64 v=127
44880 Par ch=1 c=64 v=0
45000 Par ch=1 c=64 v=127
45240 Par ch=1 c=64 v=0
45360 Par ch=1 c=64 v=127
45600 Par ch=1 c=64 v=0
45720 Par ch=1 c=64 v=127
45960 Par ch=1 c=64 v=0
46080 Par ch=1 c=64 v=127
46320 Par ch=1 c=64 v=0
46440 Par ch=1 c=64 v=127
46680 Par ch=1 c=64 v=0
46800 Par ch=1 c=64 v=127
47040 Par ch=1 c=64 v=0
47160 Par ch=1 c=64 v=127
47400 Par ch=1 c=64 v=0
47520 Par ch=1 c=64 v=127
47760 Par ch=1 c=64 v=0
47880 Par ch=1 c=64 v=127
48120 Par ch=1 c=64 v=0
48240 Par ch=1 c=64 v=127
48480 Par ch=1 c=64 v=0
48600 Par ch=1 c=64 v=127
48840 Par ch=1 c=64 v=0
48960 Par ch=1 c=64 v=127
49200 Par ch=1 c=64 v=0
49320 Par ch=1 c=64 v=127
49560 Par ch=1 c=64 v=0
49680 Par ch=1 c=64 v=127
49920 Par ch=1 c=64 v=0
50040 Par ch=1 c=64 v=127
50280 Par ch=1 c=64 v=0
50400 Par ch=1 c=64 v=127
50640 Par ch=1 c=64 v=0
50760 Par ch=1 c=64 v=127
50940 Par ch=1 c=64 v=0
51000 Par ch=1 c=64 v=127
51060 Par ch=1 c=64 v=0
51120 Par ch=1 c=64 v=127
51360 Par ch=1 c=64 v=0
51480 Par ch=1 c=64 v=127
51720 Par ch=1 c=64 v=0
51840 Par ch=1 c=64 v=127
52080 Par ch=1 c=64 v=0
52200 Par ch=1 c=64 v=127
52440 Par ch=1 c=64 v=0
52560 Par ch=1 c=64 v=127
52800 Par ch=1 c=64 v=0
53280 Par ch=1 c=64 v=127
53520 Par ch=1 c=64 v=0
53640 Par ch=1 c=64 v=127
53880 Par ch=1 c=64 v=0
54000 Par ch=1 c=64 v=127
54240 Par ch=1 c=64 v=0
54360 Par ch=1 c=64 v=127
54600 Par ch=1 c=64 v=0
54720 Par ch=1 c=64 v=127
55320 Par ch=1 c=64 v=0
55440 Par ch=1 c=64 v=127
56520 Par ch=1 c=64 v=0
56640 Par ch=1 c=64 v=127
56880 Par ch=1 c=64 v=0
57000 Par ch=1 c=64 v=127
57240 Par ch=1 c=64 v=0
57360 Par ch=1 c=64 v=127
57600 Par ch=1 c=64 v=0
57720 Par ch=1 c=64 v=127
57960 Par ch=1 c=64 v=0
58080 Par ch=1 c=64 v=127
58320 Par ch=1 c=64 v=0
58440 Par ch=1 c=64 v=127
58680 Par ch=1 c=64 v=0
58800 Par ch=1 c=64 v=127
58980 Par ch=1 c=64 v=0
59040 Par ch=1 c=64 v=127
61560 Par ch=1 c=64 v=0
61560 Meta TrkEnd
TrkEnd
MTrk
0 Meta 0x21 00
0 Meta TrkName "F. Chopin Valse No. 08 in Ab Op. 64-3"
0 Meta TrkEnd
TrkEnd
MTrk
0 Meta 0x21 00
0 Meta TrkName "Jeruen E. Dery jawjaw@hotmail.com"
0 Meta TrkEnd
TrkEnd
