MFile 1 7 480
MTrk
0 Meta Text "\n"
0 TimeSig 3/4 24 8
0 KeySig -1 major
0 Tempo 300000
221760 Tempo 326087
222240 Tempo 357143
222720 Tempo 394737
223200 Tempo 434783
223680 Tempo 476190
224160 Tempo 517241
224640 Tempo 555556
225120 Tempo 600000
225600 Tempo 652174
226080 Tempo 714286
226560 Tempo 789474
227040 Tempo 672957
230400 Tempo 300000
230400 Meta TrkEnd
TrkEnd
MTrk
0 SeqSpec 43 00 01 00
0 Meta TrkName "Upper Treble"
0 Meta 0x21 00
0 PrCh ch=1 p=0
0 On ch=1 n=c6 v=110
0 On ch=1 n=g5 v=110
0 On ch=1 n=c5 v=110
1440 On ch=1 n=c5 v=0
1440 On ch=1 n=g5 v=0
1440 On ch=1 n=c6 v=0
1440 On ch=1 n=c5 v=110
1440 On ch=1 n=g5 v=110
1440 On ch=1 n=c6 v=110
2880 On ch=1 n=c6 v=0
2880 On ch=1 n=g5 v=0
2880 On ch=1 n=c5 v=0
2880 On ch=1 n=c6 v=110
2880 On ch=1 n=g5 v=110
2880 On ch=1 n=c5 v=110
3600 On ch=1 n=c5 v=0
3600 On ch=1 n=g5 v=0
3600 On ch=1 n=c6 v=0
3600 On ch=1 n=c5 v=100
3840 On ch=1 n=c5 v=0
3840 On ch=1 n=c5 v=110
4320 On ch=1 n=c5 v=0
4320 On ch=1 n=c5 v=110
4320 On ch=1 n=g5 v=110
4320 On ch=1 n=c6 v=110
5760 On ch=1 n=c6 v=0
5760 On ch=1 n=g5 v=0
5760 On ch=1 n=c5 v=0
5760 On ch=1 n=c6 v=110
5760 On ch=1 n=g5 v=110
5760 On ch=1 n=c5 v=110
6480 On ch=1 n=c5 v=0
6480 On ch=1 n=g5 v=0
6480 On ch=1 n=c6 v=0
6480 On ch=1 n=c5 v=100
6720 On ch=1 n=c5 v=0
6720 On ch=1 n=c5 v=110
7200 On ch=1 n=c5 v=0
7200 On ch=1 n=c6 v=100
7200 On ch=1 n=g5 v=100
7200 On ch=1 n=c5 v=100
7920 On ch=1 n=c5 v=0
7920 On ch=1 n=g5 v=0
7920 On ch=1 n=c6 v=0
7920 On ch=1 n=c5 v=104
8160 On ch=1 n=c5 v=0
8160 On ch=1 n=c5 v=106
8640 On ch=1 n=c5 v=0
8640 On ch=1 n=c6 v=109
8640 On ch=1 n=g5 v=109
8640 On ch=1 n=c5 v=109
9360 On ch=1 n=c5 v=0
9360 On ch=1 n=g5 v=0
9360 On ch=1 n=c6 v=0
9360 On ch=1 n=c5 v=114
9600 On ch=1 n=c5 v=0
9600 On ch=1 n=c5 v=115
10080 On ch=1 n=c5 v=0
10080 On ch=1 n=c6 v=118
10080 On ch=1 n=g5 v=118
10080 On ch=1 n=c5 v=118
10800 On ch=1 n=c5 v=0
10800 On ch=1 n=g5 v=0
10800 On ch=1 n=c6 v=0
10800 On ch=1 n=c5 v=123
11040 On ch=1 n=c5 v=0
11040 On ch=1 n=c5 v=125
11520 On ch=1 n=c5 v=0
11520 On ch=1 n=c6 v=127
11760 On ch=1 n=c6 v=0
11760 On ch=1 n=c#6 v=60
12000 On ch=1 n=c#6 v=0
12000 On ch=1 n=b5 v=60
12240 On ch=1 n=b5 v=0
12240 On ch=1 n=c6 v=60
12480 On ch=1 n=c6 v=0
12480 On ch=1 n=c#6 v=60
12720 On ch=1 n=c#6 v=0
12720 On ch=1 n=b5 v=60
12960 On ch=1 n=b5 v=0
12960 On ch=1 n=c6 v=60
13200 On ch=1 n=c6 v=0
13200 On ch=1 n=c#6 v=61
13440 On ch=1 n=c#6 v=0
13440 On ch=1 n=b5 v=62
13680 On ch=1 n=b5 v=0
13680 On ch=1 n=c6 v=63
13920 On ch=1 n=c6 v=0
13920 On ch=1 n=c#6 v=64
14160 On ch=1 n=c#6 v=0
14160 On ch=1 n=c6 v=65
14400 On ch=1 n=c6 v=0
14400 On ch=1 n=c#6 v=66
14640 On ch=1 n=c#6 v=0
14640 On ch=1 n=d6 v=68
14880 On ch=1 n=d6 v=0
14880 On ch=1 n=c6 v=69
15120 On ch=1 n=c6 v=0
15120 On ch=1 n=c#6 v=70
15360 On ch=1 n=c#6 v=0
15360 On ch=1 n=d6 v=71
15600 On ch=1 n=d6 v=0
15600 On ch=1 n=c6 v=72
15840 On ch=1 n=c6 v=0
15840 On ch=1 n=c#6 v=73
16080 On ch=1 n=c#6 v=0
16080 On ch=1 n=d6 v=74
16320 On ch=1 n=d6 v=0
16320 On ch=1 n=c6 v=76
16560 On ch=1 n=c6 v=0
16560 On ch=1 n=c#6 v=77
16800 On ch=1 n=c#6 v=0
16800 On ch=1 n=d6 v=78
17040 On ch=1 n=d6 v=0
17040 On ch=1 n=c#6 v=79
17280 On ch=1 n=c#6 v=0
17280 On ch=1 n=d6 v=80
17520 On ch=1 n=d6 v=0
17520 On ch=1 n=d#6 v=81
17760 On ch=1 n=d#6 v=0
17760 On ch=1 n=c#6 v=83
18000 On ch=1 n=c#6 v=0
18000 On ch=1 n=d6 v=84
18240 On ch=1 n=d6 v=0
18240 On ch=1 n=d#6 v=85
18480 On ch=1 n=d#6 v=0
18480 On ch=1 n=d6 v=86
18720 On ch=1 n=d6 v=0
18720 On ch=1 n=d#6 v=87
18960 On ch=1 n=d#6 v=0
18960 On ch=1 n=e6 v=88
19200 On ch=1 n=e6 v=0
19200 On ch=1 n=d6 v=89
19440 On ch=1 n=d6 v=0
19440 On ch=1 n=d#6 v=91
19680 On ch=1 n=d#6 v=0
19680 On ch=1 n=e6 v=92
19920 On ch=1 n=e6 v=0
19920 On ch=1 n=d#6 v=93
20160 On ch=1 n=d#6 v=0
20160 On ch=1 n=e6 v=94
20400 On ch=1 n=e6 v=0
20400 On ch=1 n=f6 v=95
20640 On ch=1 n=f6 v=0
20640 On ch=1 n=d#6 v=96
20880 On ch=1 n=d#6 v=0
20880 On ch=1 n=e6 v=98
21120 On ch=1 n=e6 v=0
21120 On ch=1 n=f6 v=99
21360 On ch=1 n=f6 v=0
21360 On ch=1 n=e6 v=100
21600 On ch=1 n=e6 v=0
21600 On ch=1 n=f6 v=100
21840 On ch=1 n=f6 v=0
21840 On ch=1 n=f#6 v=97
22080 On ch=1 n=f#6 v=0
22080 On ch=1 n=f6 v=93
22320 On ch=1 n=f6 v=0
22320 On ch=1 n=f#6 v=90
22560 On ch=1 n=f#6 v=0
22560 On ch=1 n=g6 v=86
22800 On ch=1 n=g6 v=0
22800 On ch=1 n=g#6 v=83
23040 On ch=1 n=g#6 v=0
23040 On ch=1 n=a6 v=80
23280 On ch=1 n=a6 v=0
23280 On ch=1 n=g6 v=80
23520 On ch=1 n=g6 v=0
23520 On ch=1 n=f6 v=80
23760 On ch=1 n=f6 v=0
23760 On ch=1 n=c6 v=80
24000 On ch=1 n=c6 v=0
24000 On ch=1 n=e6 v=80
24240 On ch=1 n=e6 v=0
24240 On ch=1 n=d6 v=80
24480 On ch=1 n=d6 v=0
24480 On ch=1 n=c6 v=80
24720 On ch=1 n=c6 v=0
24720 On ch=1 n=a5 v=80
24960 On ch=1 n=a5 v=0
24960 On ch=1 n=a6 v=80
25200 On ch=1 n=a6 v=0
25200 On ch=1 n=g6 v=80
25440 On ch=1 n=g6 v=0
25440 On ch=1 n=f6 v=80
25680 On ch=1 n=f6 v=0
25680 On ch=1 n=d6 v=80
25920 On ch=1 n=d6 v=0
25920 On ch=1 n=e6 v=80
26160 On ch=1 n=e6 v=0
26160 On ch=1 n=d6 v=80
26400 On ch=1 n=d6 v=0
26400 On ch=1 n=c6 v=80
26640 On ch=1 n=c6 v=0
26640 On ch=1 n=a5 v=80
26880 On ch=1 n=a5 v=0
26880 On ch=1 n=a6 v=80
27120 On ch=1 n=a6 v=0
27120 On ch=1 n=g6 v=80
27360 On ch=1 n=g6 v=0
27360 On ch=1 n=f6 v=80
27600 On ch=1 n=f6 v=0
27600 On ch=1 n=d6 v=80
27840 On ch=1 n=d6 v=0
27840 On ch=1 n=e6 v=80
28080 On ch=1 n=e6 v=0
28080 On ch=1 n=d6 v=80
28320 On ch=1 n=d6 v=0
28320 On ch=1 n=c6 v=80
28560 On ch=1 n=c6 v=0
28560 On ch=1 n=a5 v=80
28800 On ch=1 n=a5 v=0
28800 On ch=1 n=e6 v=80
29040 On ch=1 n=e6 v=0
29040 On ch=1 n=d6 v=80
29280 On ch=1 n=d6 v=0
29280 On ch=1 n=c6 v=80
29520 On ch=1 n=c6 v=0
29520 On ch=1 n=g5 v=80
29760 On ch=1 n=g5 v=0
29760 On ch=1 n=e6 v=80
30000 On ch=1 n=e6 v=0
30000 On ch=1 n=d6 v=80
30240 On ch=1 n=d6 v=0
30240 On ch=1 n=c6 v=80
30480 On ch=1 n=c6 v=0
30480 On ch=1 n=a5 v=80
30720 On ch=1 n=a5 v=0
30720 On ch=1 n=e6 v=80
30960 On ch=1 n=e6 v=0
30960 On ch=1 n=d6 v=80
31200 On ch=1 n=d6 v=0
31200 On ch=1 n=c6 v=80
31440 On ch=1 n=c6 v=0
31440 On ch=1 n=g5 v=80
31560 On ch=1 n=f5 v=80
31620 On ch=1 n=f5 v=0
31620 On ch=1 n=g5 v=80
31680 On ch=1 n=g5 v=0
31680 On ch=1 n=g5 v=0
31680 On ch=1 n=f5 v=80
31920 On ch=1 n=f5 v=0
31920 On ch=1 n=e5 v=80
32160 On ch=1 n=e5 v=0
32160 On ch=1 n=f5 v=80
32400 On ch=1 n=f5 v=0
32400 On ch=1 n=a5 v=80
32640 On ch=1 n=a5 v=0
32640 On ch=1 n=c6 v=80
32880 On ch=1 n=c6 v=0
32880 On ch=1 n=e6 v=80
33120 On ch=1 n=e6 v=0
33120 On ch=1 n=f6 v=80
33360 On ch=1 n=f6 v=0
33360 On ch=1 n=a6 v=80
33600 On ch=1 n=a6 v=0
33600 On ch=1 n=c7 v=80
33840 On ch=1 n=c7 v=0
33840 On ch=1 n=e7 v=80
34080 On ch=1 n=e7 v=0
34080 On ch=1 n=f7 v=80
34320 On ch=1 n=f7 v=0
34320 On ch=1 n=c7 v=80
34560 On ch=1 n=c7 v=0
34560 On ch=1 n=a7 v=80
34800 On ch=1 n=a7 v=0
34800 On ch=1 n=g7 v=80
35040 On ch=1 n=g7 v=0
35040 On ch=1 n=f7 v=80
35280 On ch=1 n=f7 v=0
35280 On ch=1 n=c7 v=80
35520 On ch=1 n=c7 v=0
35520 On ch=1 n=e7 v=80
35760 On ch=1 n=e7 v=0
35760 On ch=1 n=d7 v=80
36000 On ch=1 n=d7 v=0
36000 On ch=1 n=c7 v=80
36240 On ch=1 n=c7 v=0
36240 On ch=1 n=a6 v=80
36480 On ch=1 n=a6 v=0
36480 On ch=1 n=a7 v=80
36720 On ch=1 n=a7 v=0
36720 On ch=1 n=g7 v=80
36960 On ch=1 n=g7 v=0
36960 On ch=1 n=f7 v=80
37200 On ch=1 n=f7 v=0
37200 On ch=1 n=d7 v=80
37440 On ch=1 n=d7 v=0
37440 On ch=1 n=e7 v=80
37680 On ch=1 n=e7 v=0
37680 On ch=1 n=d7 v=80
37920 On ch=1 n=d7 v=0
37920 On ch=1 n=c7 v=80
38160 On ch=1 n=c7 v=0
38160 On ch=1 n=a6 v=80
38400 On ch=1 n=a6 v=0
38400 On ch=1 n=a7 v=80
38640 On ch=1 n=a7 v=0
38640 On ch=1 n=g7 v=80
38880 On ch=1 n=g7 v=0
38880 On ch=1 n=f7 v=80
39120 On ch=1 n=f7 v=0
39120 On ch=1 n=d7 v=80
39360 On ch=1 n=d7 v=0
39360 On ch=1 n=e7 v=80
39600 On ch=1 n=e7 v=0
39600 On ch=1 n=d7 v=80
39840 On ch=1 n=d7 v=0
39840 On ch=1 n=c7 v=80
40080 On ch=1 n=c7 v=0
40080 On ch=1 n=a6 v=80
40320 On ch=1 n=a6 v=0
40320 On ch=1 n=e7 v=80
40560 On ch=1 n=e7 v=0
40560 On ch=1 n=d7 v=80
40800 On ch=1 n=d7 v=0
40800 On ch=1 n=c7 v=80
41040 On ch=1 n=c7 v=0
41040 On ch=1 n=g6 v=80
41280 On ch=1 n=g6 v=0
41280 On ch=1 n=e7 v=80
41520 On ch=1 n=e7 v=0
41520 On ch=1 n=d7 v=80
41760 On ch=1 n=d7 v=0
41760 On ch=1 n=c7 v=80
42000 On ch=1 n=c7 v=0
42000 On ch=1 n=a6 v=80
42240 On ch=1 n=a6 v=0
42240 On ch=1 n=e7 v=80
42480 On ch=1 n=e7 v=0
42480 On ch=1 n=d7 v=80
42720 On ch=1 n=d7 v=0
42720 On ch=1 n=c7 v=80
42960 On ch=1 n=c7 v=0
42960 On ch=1 n=g6 v=80
43080 On ch=1 n=f6 v=80
43140 On ch=1 n=f6 v=0
43140 On ch=1 n=g6 v=80
43200 On ch=1 n=g6 v=0
43200 On ch=1 n=g6 v=0
43200 On ch=1 n=f6 v=80
43440 On ch=1 n=f6 v=0
43440 On ch=1 n=e6 v=80
43680 On ch=1 n=e6 v=0
43680 On ch=1 n=f6 v=80
43920 On ch=1 n=f6 v=0
43920 On ch=1 n=a6 v=80
44160 On ch=1 n=a6 v=0
44160 On ch=1 n=c7 v=80
44400 On ch=1 n=c7 v=0
44400 On ch=1 n=f7 v=80
44640 On ch=1 n=f7 v=0
44640 On ch=1 n=f8 v=80
45120 On ch=1 n=f8 v=0
45600 On ch=1 n=c6 v=80
46080 On ch=1 n=c6 v=0
46080 On ch=1 n=a6 v=80
46320 On ch=1 n=a6 v=0
46320 On ch=1 n=g6 v=80
46560 On ch=1 n=g6 v=0
46560 On ch=1 n=f6 v=80
46800 On ch=1 n=f6 v=0
46800 On ch=1 n=c6 v=80
47040 On ch=1 n=c6 v=0
47040 On ch=1 n=e6 v=80
47280 On ch=1 n=e6 v=0
47280 On ch=1 n=d6 v=80
47520 On ch=1 n=d6 v=0
47520 On ch=1 n=c6 v=80
47760 On ch=1 n=c6 v=0
47760 On ch=1 n=a5 v=80
48000 On ch=1 n=a5 v=0
48000 On ch=1 n=a6 v=80
48240 On ch=1 n=a6 v=0
48240 On ch=1 n=g6 v=80
48480 On ch=1 n=g6 v=0
48480 On ch=1 n=f6 v=80
48720 On ch=1 n=f6 v=0
48720 On ch=1 n=d6 v=80
48960 On ch=1 n=d6 v=0
48960 On ch=1 n=e6 v=80
49200 On ch=1 n=e6 v=0
49200 On ch=1 n=d6 v=80
49440 On ch=1 n=d6 v=0
49440 On ch=1 n=c6 v=80
49680 On ch=1 n=c6 v=0
49680 On ch=1 n=a5 v=80
49920 On ch=1 n=a5 v=0
49920 On ch=1 n=a6 v=80
50160 On ch=1 n=a6 v=0
50160 On ch=1 n=g6 v=80
50400 On ch=1 n=g6 v=0
50400 On ch=1 n=f6 v=80
50640 On ch=1 n=f6 v=0
50640 On ch=1 n=d6 v=80
50880 On ch=1 n=d6 v=0
50880 On ch=1 n=e6 v=80
51120 On ch=1 n=e6 v=0
51120 On ch=1 n=d6 v=80
51360 On ch=1 n=d6 v=0
51360 On ch=1 n=c6 v=80
51600 On ch=1 n=c6 v=0
51600 On ch=1 n=a5 v=80
51840 On ch=1 n=a5 v=0
51840 On ch=1 n=e6 v=80
52080 On ch=1 n=e6 v=0
52080 On ch=1 n=d6 v=80
52320 On ch=1 n=d6 v=0
52320 On ch=1 n=c6 v=80
52560 On ch=1 n=c6 v=0
52560 On ch=1 n=g5 v=80
52800 On ch=1 n=g5 v=0
52800 On ch=1 n=e6 v=80
53040 On ch=1 n=e6 v=0
53040 On ch=1 n=d6 v=80
53280 On ch=1 n=d6 v=0
53280 On ch=1 n=c6 v=80
53520 On ch=1 n=c6 v=0
53520 On ch=1 n=a5 v=80
53760 On ch=1 n=a5 v=0
53760 On ch=1 n=e6 v=80
54000 On ch=1 n=e6 v=0
54000 On ch=1 n=d6 v=80
54240 On ch=1 n=d6 v=0
54240 On ch=1 n=c6 v=80
54480 On ch=1 n=c6 v=0
54480 On ch=1 n=g5 v=80
54600 On ch=1 n=f5 v=80
54660 On ch=1 n=f5 v=0
54660 On ch=1 n=g5 v=80
54720 On ch=1 n=g5 v=0
54720 On ch=1 n=g5 v=0
54720 On ch=1 n=f5 v=80
54960 On ch=1 n=f5 v=0
54960 On ch=1 n=e5 v=80
55200 On ch=1 n=e5 v=0
55200 On ch=1 n=f5 v=80
55440 On ch=1 n=f5 v=0
55440 On ch=1 n=a5 v=80
55680 On ch=1 n=a5 v=0
55680 On ch=1 n=c6 v=80
55920 On ch=1 n=c6 v=0
55920 On ch=1 n=e6 v=80
56160 On ch=1 n=e6 v=0
56160 On ch=1 n=f6 v=80
56400 On ch=1 n=f6 v=0
56400 On ch=1 n=a6 v=80
56640 On ch=1 n=a6 v=0
56640 On ch=1 n=c7 v=80
56880 On ch=1 n=c7 v=0
56880 On ch=1 n=e7 v=80
57120 On ch=1 n=e7 v=0
57120 On ch=1 n=f7 v=80
57360 On ch=1 n=f7 v=0
57360 On ch=1 n=c7 v=80
57600 On ch=1 n=c7 v=0
57600 On ch=1 n=a7 v=80
57840 On ch=1 n=a7 v=0
57840 On ch=1 n=g7 v=80
58080 On ch=1 n=g7 v=0
58080 On ch=1 n=f7 v=80
58320 On ch=1 n=f7 v=0
58320 On ch=1 n=c7 v=80
58560 On ch=1 n=c7 v=0
58560 On ch=1 n=e7 v=80
58800 On ch=1 n=e7 v=0
58800 On ch=1 n=d7 v=80
59040 On ch=1 n=d7 v=0
59040 On ch=1 n=c7 v=80
59280 On ch=1 n=c7 v=0
59280 On ch=1 n=a6 v=80
59520 On ch=1 n=a6 v=0
59520 On ch=1 n=a7 v=80
59760 On ch=1 n=a7 v=0
59760 On ch=1 n=g7 v=80
60000 On ch=1 n=g7 v=0
60000 On ch=1 n=f7 v=80
60240 On ch=1 n=f7 v=0
60240 On ch=1 n=d7 v=80
60480 On ch=1 n=d7 v=0
60480 On ch=1 n=e7 v=80
60720 On ch=1 n=e7 v=0
60720 On ch=1 n=d7 v=80
60960 On ch=1 n=d7 v=0
60960 On ch=1 n=c7 v=80
61200 On ch=1 n=c7 v=0
61200 On ch=1 n=a6 v=80
61440 On ch=1 n=a6 v=0
61440 On ch=1 n=a7 v=80
61680 On ch=1 n=a7 v=0
61680 On ch=1 n=g7 v=80
61920 On ch=1 n=g7 v=0
61920 On ch=1 n=f7 v=80
62160 On ch=1 n=f7 v=0
62160 On ch=1 n=d7 v=80
62400 On ch=1 n=d7 v=0
62400 On ch=1 n=e7 v=80
62640 On ch=1 n=e7 v=0
62640 On ch=1 n=d7 v=80
62880 On ch=1 n=d7 v=0
62880 On ch=1 n=c7 v=80
63120 On ch=1 n=c7 v=0
63120 On ch=1 n=a6 v=80
63360 On ch=1 n=a6 v=0
63360 On ch=1 n=e7 v=80
63600 On ch=1 n=e7 v=0
63600 On ch=1 n=d7 v=80
63840 On ch=1 n=d7 v=0
63840 On ch=1 n=c7 v=80
64080 On ch=1 n=c7 v=0
64080 On ch=1 n=g6 v=80
64320 On ch=1 n=g6 v=0
64320 On ch=1 n=e7 v=80
64560 On ch=1 n=e7 v=0
64560 On ch=1 n=d7 v=80
64800 On ch=1 n=d7 v=0
64800 On ch=1 n=c7 v=80
65040 On ch=1 n=c7 v=0
65040 On ch=1 n=a6 v=80
65280 On ch=1 n=a6 v=0
65280 On ch=1 n=e7 v=80
65520 On ch=1 n=e7 v=0
65520 On ch=1 n=d7 v=80
65760 On ch=1 n=d7 v=0
65760 On ch=1 n=c7 v=80
66000 On ch=1 n=c7 v=0
66000 On ch=1 n=g6 v=80
66120 On ch=1 n=f6 v=80
66180 On ch=1 n=f6 v=0
66180 On ch=1 n=g6 v=80
66240 On ch=1 n=g6 v=0
66240 On ch=1 n=g6 v=0
66240 On ch=1 n=f6 v=80
66480 On ch=1 n=f6 v=0
66480 On ch=1 n=e6 v=80
66720 On ch=1 n=e6 v=0
66720 On ch=1 n=f6 v=80
66960 On ch=1 n=f6 v=0
66960 On ch=1 n=a6 v=80
67200 On ch=1 n=a6 v=0
67200 On ch=1 n=c7 v=80
67440 On ch=1 n=c7 v=0
67440 On ch=1 n=f7 v=80
67680 On ch=1 n=f7 v=0
67680 On ch=1 n=f8 v=80
68160 On ch=1 n=f8 v=0
68640 On ch=1 n=f6 v=100
70080 On ch=1 n=f6 v=0
70080 On ch=1 n=d#6 v=100
70560 On ch=1 n=d#6 v=0
70920 On ch=1 n=d#6 v=100
70980 On ch=1 n=d#6 v=0
70980 On ch=1 n=f6 v=100
71040 On ch=1 n=f6 v=0
71040 On ch=1 n=d#6 v=100
71280 On ch=1 n=d#6 v=0
71280 On ch=1 n=d6 v=100
71520 On ch=1 n=d6 v=0
71520 On ch=1 n=d#6 v=100
71760 On ch=1 n=d#6 v=0
71760 On ch=1 n=f6 v=100
72000 On ch=1 n=f6 v=0
72000 On ch=1 n=d#6 v=100
72960 On ch=1 n=d#6 v=0
72960 On ch=1 n=d6 v=100
73440 On ch=1 n=d6 v=0
73800 On ch=1 n=c6 v=100
73860 On ch=1 n=c6 v=0
73860 On ch=1 n=d6 v=100
73920 On ch=1 n=d6 v=0
73920 On ch=1 n=c6 v=100
74160 On ch=1 n=c6 v=0
74160 On ch=1 n=b5 v=100
74400 On ch=1 n=b5 v=0
74400 On ch=1 n=c6 v=100
74640 On ch=1 n=c6 v=0
74640 On ch=1 n=g5 v=100
74880 On ch=1 n=g5 v=0
74880 On ch=1 n=a#5 v=100
75360 On ch=1 n=a#5 v=0
75360 On ch=1 n=f5 v=100
75840 On ch=1 n=f5 v=0
76800 On ch=1 n=f5 v=100
77040 On ch=1 n=f5 v=0
77040 On ch=1 n=g5 v=100
77280 On ch=1 n=g5 v=0
77280 On ch=1 n=a5 v=100
77520 On ch=1 n=a5 v=0
77520 On ch=1 n=a#5 v=100
77760 On ch=1 n=a#5 v=0
77760 On ch=1 n=b5 v=100
78000 On ch=1 n=b5 v=0
78000 On ch=1 n=c6 v=100
78240 On ch=1 n=c6 v=0
78240 On ch=1 n=d6 v=100
78480 On ch=1 n=d6 v=0
78480 On ch=1 n=c6 v=100
78720 On ch=1 n=c6 v=0
78720 On ch=1 n=g6 v=100
78960 On ch=1 n=g6 v=0
78960 On ch=1 n=f6 v=100
79200 On ch=1 n=f6 v=0
79200 On ch=1 n=c#6 v=100
79440 On ch=1 n=c#6 v=0
79440 On ch=1 n=d6 v=100
79680 On ch=1 n=d6 v=0
79680 On ch=1 n=d#6 v=100
79920 On ch=1 n=d#6 v=0
79920 On ch=1 n=d6 v=100
80160 On ch=1 n=d6 v=0
80160 On ch=1 n=c7 v=100
80400 On ch=1 n=c7 v=0
80400 On ch=1 n=a#6 v=100
80640 On ch=1 n=a#6 v=0
80640 On ch=1 n=f6 v=100
81600 On ch=1 n=f6 v=0
81600 On ch=1 n=d#6 v=100
82080 On ch=1 n=d#6 v=0
82440 On ch=1 n=d#6 v=100
82500 On ch=1 n=d#6 v=0
82500 On ch=1 n=f6 v=100
82560 On ch=1 n=f6 v=0
82560 On ch=1 n=d#6 v=100
82800 On ch=1 n=d#6 v=0
82800 On ch=1 n=d6 v=100
83040 On ch=1 n=d6 v=0
83040 On ch=1 n=d#6 v=100
83280 On ch=1 n=d#6 v=0
83280 On ch=1 n=f6 v=100
83520 On ch=1 n=f6 v=0
83520 On ch=1 n=d#6 v=100
84480 On ch=1 n=d#6 v=0
84480 On ch=1 n=d6 v=100
84960 On ch=1 n=d6 v=0
85320 On ch=1 n=d6 v=100
85380 On ch=1 n=d6 v=0
85380 On ch=1 n=d#6 v=100
85440 On ch=1 n=d#6 v=0
85440 On ch=1 n=d6 v=100
85680 On ch=1 n=d6 v=0
85680 On ch=1 n=c#6 v=100
85920 On ch=1 n=c#6 v=0
85920 On ch=1 n=d6 v=100
86160 On ch=1 n=d6 v=0
86160 On ch=1 n=g#5 v=100
86400 On ch=1 n=g#5 v=0
86400 On ch=1 n=c6 v=100
86880 On ch=1 n=c6 v=0
86880 On ch=1 n=g5 v=100
87360 On ch=1 n=g5 v=0
88320 On ch=1 n=f5 v=100
88560 On ch=1 n=f5 v=0
88560 On ch=1 n=g5 v=100
88800 On ch=1 n=g5 v=0
88800 On ch=1 n=a5 v=100
89040 On ch=1 n=a5 v=0
89040 On ch=1 n=a#5 v=100
89280 On ch=1 n=a#5 v=0
89280 On ch=1 n=b5 v=100
89520 On ch=1 n=b5 v=0
89520 On ch=1 n=c6 v=100
89760 On ch=1 n=c6 v=0
89760 On ch=1 n=d6 v=100
90000 On ch=1 n=d6 v=0
90000 On ch=1 n=c6 v=100
90240 On ch=1 n=c6 v=0
90240 On ch=1 n=g6 v=100
90480 On ch=1 n=g6 v=0
90480 On ch=1 n=f6 v=100
90720 On ch=1 n=f6 v=0
90720 On ch=1 n=a#6 v=100
90720 On ch=1 n=a#5 v=100
90840 On ch=1 n=a#5 v=0
90840 On ch=1 n=a#6 v=0
91200 On ch=1 n=d6 v=100
91440 On ch=1 n=d6 v=0
91440 On ch=1 n=d#6 v=100
91680 On ch=1 n=d#6 v=0
91680 On ch=1 n=f6 v=100
91920 On ch=1 n=f6 v=0
91920 On ch=1 n=g6 v=100
92160 On ch=1 n=g6 v=0
92160 On ch=1 n=f6 v=100
93120 On ch=1 n=f6 v=0
93120 On ch=1 n=d#6 v=100
93600 On ch=1 n=d#6 v=0
93960 On ch=1 n=d#6 v=100
94020 On ch=1 n=d#6 v=0
94020 On ch=1 n=f6 v=100
94080 On ch=1 n=f6 v=0
94080 On ch=1 n=d#6 v=100
94320 On ch=1 n=d#6 v=0
94320 On ch=1 n=d6 v=100
94560 On ch=1 n=d6 v=0
94560 On ch=1 n=d#6 v=100
94800 On ch=1 n=d#6 v=0
94800 On ch=1 n=f6 v=100
95040 On ch=1 n=f6 v=0
95040 On ch=1 n=d#6 v=100
96000 On ch=1 n=d#6 v=0
96000 On ch=1 n=d6 v=100
96480 On ch=1 n=d6 v=0
96840 On ch=1 n=c6 v=100
96900 On ch=1 n=c6 v=0
96900 On ch=1 n=d6 v=100
96960 On ch=1 n=d6 v=0
96960 On ch=1 n=c6 v=100
97200 On ch=1 n=c6 v=0
97200 On ch=1 n=b5 v=100
97440 On ch=1 n=b5 v=0
97440 On ch=1 n=c6 v=100
97680 On ch=1 n=c6 v=0
97680 On ch=1 n=g5 v=100
97920 On ch=1 n=g5 v=0
97920 On ch=1 n=a#5 v=100
98400 On ch=1 n=a#5 v=0
98400 On ch=1 n=f5 v=100
98880 On ch=1 n=f5 v=0
99840 On ch=1 n=f5 v=100
100080 On ch=1 n=f5 v=0
100080 On ch=1 n=g5 v=100
100320 On ch=1 n=g5 v=0
100320 On ch=1 n=a5 v=100
100560 On ch=1 n=a5 v=0
100560 On ch=1 n=a#5 v=100
100800 On ch=1 n=a#5 v=0
100800 On ch=1 n=b5 v=100
101040 On ch=1 n=b5 v=0
101040 On ch=1 n=c6 v=100
101280 On ch=1 n=c6 v=0
101280 On ch=1 n=d6 v=100
101520 On ch=1 n=d6 v=0
101520 On ch=1 n=c6 v=100
101760 On ch=1 n=c6 v=0
101760 On ch=1 n=g6 v=100
102000 On ch=1 n=g6 v=0
102000 On ch=1 n=f6 v=100
102240 On ch=1 n=f6 v=0
102240 On ch=1 n=c#6 v=100
102480 On ch=1 n=c#6 v=0
102480 On ch=1 n=d6 v=100
102720 On ch=1 n=d6 v=0
102720 On ch=1 n=d#6 v=100
102960 On ch=1 n=d#6 v=0
102960 On ch=1 n=d6 v=100
103200 On ch=1 n=d6 v=0
103200 On ch=1 n=c7 v=100
103440 On ch=1 n=c7 v=0
103440 On ch=1 n=a#6 v=100
103680 On ch=1 n=a#6 v=0
103680 On ch=1 n=f6 v=100
104640 On ch=1 n=f6 v=0
104640 On ch=1 n=d#6 v=100
105120 On ch=1 n=d#6 v=0
105480 On ch=1 n=d#6 v=100
105540 On ch=1 n=d#6 v=0
105540 On ch=1 n=f6 v=100
105600 On ch=1 n=f6 v=0
105600 On ch=1 n=d#6 v=100
105840 On ch=1 n=d#6 v=0
105840 On ch=1 n=d6 v=100
106080 On ch=1 n=d6 v=0
106080 On ch=1 n=d#6 v=100
106320 On ch=1 n=d#6 v=0
106320 On ch=1 n=f6 v=100
106560 On ch=1 n=f6 v=0
106560 On ch=1 n=d#6 v=100
107520 On ch=1 n=d#6 v=0
107520 On ch=1 n=d6 v=100
108000 On ch=1 n=d6 v=0
108360 On ch=1 n=d6 v=100
108420 On ch=1 n=d6 v=0
108420 On ch=1 n=d#6 v=100
108480 On ch=1 n=d#6 v=0
108480 On ch=1 n=d6 v=100
108720 On ch=1 n=d6 v=0
108720 On ch=1 n=c#6 v=100
108960 On ch=1 n=c#6 v=0
108960 On ch=1 n=d6 v=100
109200 On ch=1 n=d6 v=0
109200 On ch=1 n=g#5 v=100
109440 On ch=1 n=g#5 v=0
109440 On ch=1 n=c6 v=100
109920 On ch=1 n=c6 v=0
109920 On ch=1 n=g5 v=100
110400 On ch=1 n=g5 v=0
111360 On ch=1 n=f5 v=102
111600 On ch=1 n=f5 v=0
111600 On ch=1 n=g5 v=104
111840 On ch=1 n=g5 v=0
111840 On ch=1 n=a5 v=105
112080 On ch=1 n=a5 v=0
112080 On ch=1 n=a#5 v=107
112320 On ch=1 n=a#5 v=0
112320 On ch=1 n=b5 v=108
112560 On ch=1 n=b5 v=0
112560 On ch=1 n=c6 v=110
112800 On ch=1 n=c6 v=0
112800 On ch=1 n=d6 v=111
113040 On ch=1 n=d6 v=0
113040 On ch=1 n=c6 v=113
113280 On ch=1 n=c6 v=0
113280 On ch=1 n=g6 v=114
113520 On ch=1 n=g6 v=0
113520 On ch=1 n=f6 v=116
113760 On ch=1 n=f6 v=0
113760 On ch=1 n=a#6 v=117
113760 On ch=1 n=a#5 v=117
113880 On ch=1 n=a#5 v=0
113880 On ch=1 n=a#6 v=0
115200 On ch=1 n=d#6 v=100
116640 On ch=1 n=d#6 v=0
116640 On ch=1 n=f5 v=100
118020 On ch=1 n=d5 v=60
118080 On ch=1 n=d5 v=0
118080 On ch=1 n=f5 v=0
118080 On ch=1 n=f5 v=60
118200 On ch=1 n=f5 v=0
118500 On ch=1 n=f5 v=60
118560 On ch=1 n=f5 v=0
118560 On ch=1 n=a#5 v=60
118680 On ch=1 n=a#5 v=0
118980 On ch=1 n=a#5 v=60
119040 On ch=1 n=a#5 v=0
119040 On ch=1 n=d6 v=60
119160 On ch=1 n=d6 v=0
119460 On ch=1 n=d6 v=60
119520 On ch=1 n=d6 v=0
119520 On ch=1 n=f6 v=60
119640 On ch=1 n=f6 v=0
119940 On ch=1 n=f6 v=60
120000 On ch=1 n=f6 v=0
120000 On ch=1 n=a#6 v=60
120120 On ch=1 n=a#6 v=0
120420 On ch=1 n=a#6 v=60
120480 On ch=1 n=a#6 v=0
120480 On ch=1 n=g6 v=60
120600 On ch=1 n=g6 v=0
120960 On ch=1 n=d#6 v=100
122400 On ch=1 n=d#6 v=0
122400 On ch=1 n=f5 v=100
123780 On ch=1 n=c7 v=60
123840 On ch=1 n=c7 v=0
123840 On ch=1 n=f5 v=0
123840 On ch=1 n=a#6 v=60
123960 On ch=1 n=a#6 v=0
124260 On ch=1 n=a#6 v=60
124320 On ch=1 n=a#6 v=0
124320 On ch=1 n=g6 v=60
124440 On ch=1 n=g6 v=0
124740 On ch=1 n=g6 v=60
124800 On ch=1 n=g6 v=0
124800 On ch=1 n=f6 v=60
124920 On ch=1 n=f6 v=0
125220 On ch=1 n=f6 v=60
125280 On ch=1 n=f6 v=0
125280 On ch=1 n=d6 v=60
125400 On ch=1 n=d6 v=0
125700 On ch=1 n=d6 v=60
125760 On ch=1 n=d6 v=0
125760 On ch=1 n=a#5 v=60
125880 On ch=1 n=a#5 v=0
126180 On ch=1 n=a#5 v=60
126240 On ch=1 n=a#5 v=0
126240 On ch=1 n=g5 v=60
126360 On ch=1 n=g5 v=0
126720 On ch=1 n=d#6 v=100
128160 On ch=1 n=d#6 v=0
128160 On ch=1 n=f5 v=100
129540 On ch=1 n=d5 v=60
129600 On ch=1 n=d5 v=0
129600 On ch=1 n=f5 v=0
129600 On ch=1 n=f5 v=60
129720 On ch=1 n=f5 v=0
130020 On ch=1 n=f5 v=60
130080 On ch=1 n=f5 v=0
130080 On ch=1 n=a#5 v=60
130200 On ch=1 n=a#5 v=0
130500 On ch=1 n=a#5 v=60
130560 On ch=1 n=a#5 v=0
130560 On ch=1 n=d6 v=60
130680 On ch=1 n=d6 v=0
130980 On ch=1 n=d6 v=60
131040 On ch=1 n=d6 v=0
131040 On ch=1 n=f6 v=60
131160 On ch=1 n=f6 v=0
131460 On ch=1 n=f6 v=60
131520 On ch=1 n=f6 v=0
131520 On ch=1 n=a#6 v=60
131640 On ch=1 n=a#6 v=0
131940 On ch=1 n=a#6 v=60
132000 On ch=1 n=a#6 v=0
132000 On ch=1 n=g6 v=60
132120 On ch=1 n=g6 v=0
132480 On ch=1 n=d6 v=60
132600 On ch=1 n=d6 v=0
132600 On ch=1 n=e6 v=60
132720 On ch=1 n=e6 v=0
132720 On ch=1 n=f6 v=60
132840 On ch=1 n=f6 v=0
132840 On ch=1 n=e6 v=60
132960 On ch=1 n=e6 v=0
132960 On ch=1 n=f6 v=60
133052 On ch=1 n=e6 v=60
133056 On ch=1 n=f6 v=0
133148 On ch=1 n=e6 v=0
133148 On ch=1 n=f6 v=60
133244 On ch=1 n=f6 v=0
133252 On ch=1 n=e6 v=60
133344 On ch=1 n=f6 v=60
133348 On ch=1 n=e6 v=0
133440 On ch=1 n=f6 v=0
133440 On ch=1 n=e6 v=60
133600 On ch=1 n=e6 v=0
133600 On ch=1 n=d6 v=60
133760 On ch=1 n=d6 v=0
133760 On ch=1 n=e6 v=60
133920 On ch=1 n=e6 v=0
133920 On ch=1 n=f6 v=60
134040 On ch=1 n=f6 v=0
134400 On ch=1 n=a5 v=60
134640 On ch=1 n=a5 v=0
134640 On ch=1 n=a#5 v=60
134880 On ch=1 n=a#5 v=0
134880 On ch=1 n=c6 v=60
135360 On ch=1 n=c6 v=0
135360 On ch=1 n=e6 v=60
135480 On ch=1 n=e6 v=0
135480 On ch=1 n=f6 v=60
135600 On ch=1 n=f6 v=0
135600 On ch=1 n=e6 v=60
135720 On ch=1 n=e6 v=0
135720 On ch=1 n=f6 v=60
135840 On ch=1 n=f6 v=0
135840 On ch=1 n=e6 v=60
135920 On ch=1 n=e6 v=0
135920 On ch=1 n=f6 v=60
136000 On ch=1 n=f6 v=0
136000 On ch=1 n=e6 v=60
136080 On ch=1 n=e6 v=0
136080 On ch=1 n=f6 v=60
136160 On ch=1 n=f6 v=0
136160 On ch=1 n=e6 v=60
136240 On ch=1 n=e6 v=0
136240 On ch=1 n=f6 v=60
136320 On ch=1 n=f6 v=0
136320 On ch=1 n=e6 v=60
136480 On ch=1 n=e6 v=0
136480 On ch=1 n=d#6 v=60
136640 On ch=1 n=d#6 v=0
136640 On ch=1 n=e6 v=60
136800 On ch=1 n=e6 v=0
136800 On ch=1 n=f6 v=60
136920 On ch=1 n=f6 v=0
137280 On ch=1 n=e6 v=60
137520 On ch=1 n=e6 v=0
137520 On ch=1 n=g6 v=60
137760 On ch=1 n=g6 v=0
137760 On ch=1 n=f6 v=60
138240 On ch=1 n=f6 v=0
138240 On ch=1 n=d#7 v=100
138240 On ch=1 n=d#6 v=100
139680 On ch=1 n=d#6 v=0
139680 On ch=1 n=d#7 v=0
139680 On ch=1 n=f5 v=100
139680 On ch=1 n=f6 v=100
140640 On ch=1 n=f6 v=0
140640 On ch=1 n=f5 v=0
141060 On ch=1 n=d6 v=60
141120 On ch=1 n=d6 v=0
141120 On ch=1 n=f6 v=60
141240 On ch=1 n=f6 v=0
141540 On ch=1 n=f6 v=60
141600 On ch=1 n=f6 v=0
141600 On ch=1 n=a#6 v=60
141720 On ch=1 n=a#6 v=0
142020 On ch=1 n=a#6 v=60
142080 On ch=1 n=a#6 v=0
142080 On ch=1 n=d7 v=60
142200 On ch=1 n=d7 v=0
142500 On ch=1 n=d7 v=60
142560 On ch=1 n=d7 v=0
142560 On ch=1 n=f7 v=60
142680 On ch=1 n=f7 v=0
142980 On ch=1 n=f7 v=60
143040 On ch=1 n=f7 v=0
143040 On ch=1 n=a#7 v=60
143160 On ch=1 n=a#7 v=0
143460 On ch=1 n=a#7 v=60
143520 On ch=1 n=a#7 v=0
143520 On ch=1 n=g7 v=60
143640 On ch=1 n=g7 v=0
144000 On ch=1 n=d#7 v=100
144000 On ch=1 n=d#6 v=100
145440 On ch=1 n=d#6 v=0
145440 On ch=1 n=d#7 v=0
145440 On ch=1 n=f5 v=100
145440 On ch=1 n=f6 v=100
146400 On ch=1 n=f6 v=0
146400 On ch=1 n=f5 v=0
146820 On ch=1 n=c8 v=60
146880 On ch=1 n=c8 v=0
146880 On ch=1 n=a#7 v=60
147000 On ch=1 n=a#7 v=0
147300 On ch=1 n=a#7 v=60
147360 On ch=1 n=a#7 v=0
147360 On ch=1 n=g7 v=60
147480 On ch=1 n=g7 v=0
147780 On ch=1 n=g7 v=60
147840 On ch=1 n=g7 v=0
147840 On ch=1 n=f7 v=60
147960 On ch=1 n=f7 v=0
148260 On ch=1 n=f7 v=60
148320 On ch=1 n=f7 v=0
148320 On ch=1 n=d7 v=60
148440 On ch=1 n=d7 v=0
148740 On ch=1 n=d7 v=60
148800 On ch=1 n=d7 v=0
148800 On ch=1 n=a#6 v=60
148920 On ch=1 n=a#6 v=0
149220 On ch=1 n=a#6 v=60
149280 On ch=1 n=a#6 v=0
149280 On ch=1 n=g6 v=60
149400 On ch=1 n=g6 v=0
149760 On ch=1 n=d#7 v=100
149760 On ch=1 n=d#6 v=100
151200 On ch=1 n=d#6 v=0
151200 On ch=1 n=d#7 v=0
151200 On ch=1 n=f5 v=100
151200 On ch=1 n=f6 v=100
152160 On ch=1 n=f6 v=0
152160 On ch=1 n=f5 v=0
152580 On ch=1 n=d5 v=60
152640 On ch=1 n=d5 v=0
152640 On ch=1 n=f5 v=60
152760 On ch=1 n=f5 v=0
153060 On ch=1 n=f5 v=60
153120 On ch=1 n=f5 v=0
153120 On ch=1 n=a#5 v=60
153240 On ch=1 n=a#5 v=0
153540 On ch=1 n=a#5 v=60
153600 On ch=1 n=a#5 v=0
153600 On ch=1 n=d6 v=60
153720 On ch=1 n=d6 v=0
154020 On ch=1 n=d6 v=60
154080 On ch=1 n=d6 v=0
154080 On ch=1 n=f6 v=60
154200 On ch=1 n=f6 v=0
154500 On ch=1 n=f6 v=60
154560 On ch=1 n=f6 v=0
154560 On ch=1 n=a#6 v=60
154680 On ch=1 n=a#6 v=0
154980 On ch=1 n=a#6 v=60
155040 On ch=1 n=a#6 v=0
155040 On ch=1 n=g6 v=60
155160 On ch=1 n=g6 v=0
155520 On ch=1 n=d6 v=60
155640 On ch=1 n=d6 v=0
155640 On ch=1 n=e6 v=60
155760 On ch=1 n=e6 v=0
155760 On ch=1 n=f6 v=60
155880 On ch=1 n=f6 v=0
155880 On ch=1 n=e6 v=60
156000 On ch=1 n=e6 v=0
156000 On ch=1 n=f6 v=60
156092 On ch=1 n=e6 v=60
156096 On ch=1 n=f6 v=0
156188 On ch=1 n=e6 v=0
156188 On ch=1 n=f6 v=60
156284 On ch=1 n=f6 v=0
156292 On ch=1 n=e6 v=60
156384 On ch=1 n=f6 v=60
156388 On ch=1 n=e6 v=0
156480 On ch=1 n=f6 v=0
156480 On ch=1 n=e6 v=60
156640 On ch=1 n=e6 v=0
156640 On ch=1 n=d6 v=60
156800 On ch=1 n=d6 v=0
156800 On ch=1 n=e6 v=60
156960 On ch=1 n=e6 v=0
156960 On ch=1 n=f6 v=60
157080 On ch=1 n=f6 v=0
157440 On ch=1 n=a5 v=60
157680 On ch=1 n=a5 v=0
157680 On ch=1 n=a#5 v=60
157920 On ch=1 n=a#5 v=0
157920 On ch=1 n=c6 v=60
158400 On ch=1 n=c6 v=0
158400 On ch=1 n=e6 v=60
158520 On ch=1 n=e6 v=0
158520 On ch=1 n=f6 v=60
158640 On ch=1 n=f6 v=0
158640 On ch=1 n=e6 v=60
158760 On ch=1 n=e6 v=0
158760 On ch=1 n=f6 v=60
158880 On ch=1 n=f6 v=0
158880 On ch=1 n=e6 v=60
158960 On ch=1 n=e6 v=0
158960 On ch=1 n=f6 v=60
159040 On ch=1 n=f6 v=0
159040 On ch=1 n=e6 v=60
159120 On ch=1 n=e6 v=0
159120 On ch=1 n=f6 v=60
159200 On ch=1 n=f6 v=0
159200 On ch=1 n=e6 v=60
159280 On ch=1 n=e6 v=0
159280 On ch=1 n=f6 v=60
159360 On ch=1 n=f6 v=0
159360 On ch=1 n=e6 v=60
159520 On ch=1 n=e6 v=0
159520 On ch=1 n=d#6 v=60
159680 On ch=1 n=d#6 v=0
159680 On ch=1 n=e6 v=60
159840 On ch=1 n=e6 v=0
159840 On ch=1 n=f6 v=60
159960 On ch=1 n=f6 v=0
160320 On ch=1 n=e6 v=60
160560 On ch=1 n=e6 v=0
160560 On ch=1 n=g6 v=60
160800 On ch=1 n=g6 v=0
160800 On ch=1 n=f6 v=60
161280 On ch=1 n=f6 v=0
161280 On ch=1 n=f#6 v=60
162720 On ch=1 n=f#6 v=0
162720 On ch=1 n=g#5 v=60
164100 On ch=1 n=f5 v=60
164160 On ch=1 n=f5 v=0
164160 On ch=1 n=g#5 v=0
164160 On ch=1 n=g#5 v=60
164280 On ch=1 n=g#5 v=0
164580 On ch=1 n=g#5 v=60
164640 On ch=1 n=g#5 v=0
164640 On ch=1 n=c#6 v=60
164760 On ch=1 n=c#6 v=0
165060 On ch=1 n=c#6 v=60
165120 On ch=1 n=c#6 v=0
165120 On ch=1 n=f6 v=60
165240 On ch=1 n=f6 v=0
165540 On ch=1 n=f6 v=60
165600 On ch=1 n=f6 v=0
165600 On ch=1 n=g#6 v=60
165720 On ch=1 n=g#6 v=0
166020 On ch=1 n=g#6 v=60
166080 On ch=1 n=g#6 v=0
166080 On ch=1 n=c#7 v=60
166200 On ch=1 n=c#7 v=0
166500 On ch=1 n=c#7 v=60
166560 On ch=1 n=c#7 v=0
166560 On ch=1 n=a#6 v=60
166680 On ch=1 n=a#6 v=0
167040 On ch=1 n=f#6 v=60
168480 On ch=1 n=f#6 v=0
168480 On ch=1 n=g#5 v=60
169860 On ch=1 n=d#7 v=60
169920 On ch=1 n=d#7 v=0
169920 On ch=1 n=g#5 v=0
169920 On ch=1 n=c#7 v=60
170040 On ch=1 n=c#7 v=0
170340 On ch=1 n=c#7 v=60
170400 On ch=1 n=c#7 v=0
170400 On ch=1 n=a#6 v=60
170520 On ch=1 n=a#6 v=0
170820 On ch=1 n=a#6 v=60
170880 On ch=1 n=a#6 v=0
170880 On ch=1 n=g#6 v=60
171000 On ch=1 n=g#6 v=0
171300 On ch=1 n=g#6 v=60
171360 On ch=1 n=g#6 v=0
171360 On ch=1 n=f6 v=60
171480 On ch=1 n=f6 v=0
171780 On ch=1 n=f6 v=60
171840 On ch=1 n=f6 v=0
171840 On ch=1 n=c#6 v=60
171960 On ch=1 n=c#6 v=0
172260 On ch=1 n=c#6 v=60
172320 On ch=1 n=c#6 v=0
172320 On ch=1 n=a5 v=60
172440 On ch=1 n=a5 v=0
172800 On ch=1 n=f#6 v=60
174240 On ch=1 n=f#6 v=0
174240 On ch=1 n=g#5 v=60
175620 On ch=1 n=f5 v=60
175680 On ch=1 n=f5 v=0
175680 On ch=1 n=g#5 v=0
175680 On ch=1 n=g#5 v=60
175800 On ch=1 n=g#5 v=0
176100 On ch=1 n=g#5 v=60
176160 On ch=1 n=g#5 v=0
176160 On ch=1 n=c#6 v=60
176280 On ch=1 n=c#6 v=0
176580 On ch=1 n=c#6 v=60
176640 On ch=1 n=c#6 v=0
176640 On ch=1 n=f6 v=60
176760 On ch=1 n=f6 v=0
177060 On ch=1 n=f6 v=60
177120 On ch=1 n=f6 v=0
177120 On ch=1 n=g#6 v=60
177240 On ch=1 n=g#6 v=0
177540 On ch=1 n=g#6 v=60
177600 On ch=1 n=g#6 v=0
177600 On ch=1 n=c#7 v=60
177720 On ch=1 n=c#7 v=0
178020 On ch=1 n=c#7 v=60
178080 On ch=1 n=c#7 v=0
178080 On ch=1 n=c7 v=60
178200 On ch=1 n=c7 v=0
178560 On ch=1 n=b6 v=60
178680 On ch=1 n=b6 v=0
178680 On ch=1 n=c7 v=60
178800 On ch=1 n=c7 v=0
178800 On ch=1 n=b6 v=60
178920 On ch=1 n=b6 v=0
178920 On ch=1 n=c7 v=60
179040 On ch=1 n=c7 v=0
179040 On ch=1 n=b6 v=60
179120 On ch=1 n=b6 v=0
179120 On ch=1 n=c7 v=60
179200 On ch=1 n=c7 v=0
179200 On ch=1 n=b6 v=60
179280 On ch=1 n=b6 v=0
179280 On ch=1 n=c7 v=60
179360 On ch=1 n=c7 v=0
179360 On ch=1 n=b6 v=60
179440 On ch=1 n=b6 v=0
179440 On ch=1 n=c7 v=60
179520 On ch=1 n=c7 v=0
179520 On ch=1 n=b6 v=60
179680 On ch=1 n=b6 v=0
179680 On ch=1 n=a#6 v=60
179840 On ch=1 n=a#6 v=0
179840 On ch=1 n=b6 v=60
180000 On ch=1 n=b6 v=0
180000 On ch=1 n=c7 v=60
180120 On ch=1 n=c7 v=0
180480 On ch=1 n=e6 v=60
180720 On ch=1 n=e6 v=0
180720 On ch=1 n=f6 v=60
180960 On ch=1 n=f6 v=0
180960 On ch=1 n=g6 v=60
181440 On ch=1 n=g6 v=0
181440 On ch=1 n=b6 v=60
181600 On ch=1 n=b6 v=0
181600 On ch=1 n=c7 v=61
181760 On ch=1 n=c7 v=0
181760 On ch=1 n=b6 v=62
181920 On ch=1 n=b6 v=0
181920 On ch=1 n=c7 v=63
182040 On ch=1 n=c7 v=0
182040 On ch=1 n=b6 v=64
182160 On ch=1 n=b6 v=0
182160 On ch=1 n=c7 v=65
182240 On ch=1 n=c7 v=0
182240 On ch=1 n=b6 v=65
182320 On ch=1 n=b6 v=0
182320 On ch=1 n=c7 v=66
182400 On ch=1 n=c7 v=0
182400 On ch=1 n=b6 v=67
182480 On ch=1 n=b6 v=0
182480 On ch=1 n=c7 v=67
182560 On ch=1 n=c7 v=0
182560 On ch=1 n=b6 v=68
182640 On ch=1 n=b6 v=0
182640 On ch=1 n=c7 v=68
182720 On ch=1 n=c7 v=0
182720 On ch=1 n=b6 v=69
182800 On ch=1 n=b6 v=0
182800 On ch=1 n=c7 v=69
182880 On ch=1 n=c7 v=0
182880 On ch=1 n=a#6 v=70
182960 On ch=1 n=a#6 v=0
182960 On ch=1 n=c7 v=71
183040 On ch=1 n=c7 v=0
183040 On ch=1 n=a#6 v=71
183120 On ch=1 n=a#6 v=0
183120 On ch=1 n=c7 v=72
183200 On ch=1 n=c7 v=0
183200 On ch=1 n=a#6 v=72
183280 On ch=1 n=a#6 v=0
183280 On ch=1 n=c7 v=73
183360 On ch=1 n=c7 v=0
183360 On ch=1 n=a#6 v=74
183440 On ch=1 n=a#6 v=0
183440 On ch=1 n=c7 v=74
183520 On ch=1 n=c7 v=0
183520 On ch=1 n=a#6 v=75
183600 On ch=1 n=a#6 v=0
183600 On ch=1 n=c7 v=75
183680 On ch=1 n=c7 v=0
183680 On ch=1 n=a#6 v=76
183760 On ch=1 n=a#6 v=0
183760 On ch=1 n=c7 v=77
183840 On ch=1 n=c7 v=0
183840 On ch=1 n=a#6 v=77
184000 On ch=1 n=a#6 v=0
184000 On ch=1 n=c7 v=78
184160 On ch=1 n=c7 v=0
184160 On ch=1 n=a#6 v=79
184320 On ch=1 n=a#6 v=0
184320 On ch=1 n=a6 v=80
184560 On ch=1 n=a6 v=0
184560 On ch=1 n=g6 v=80
184800 On ch=1 n=g6 v=0
184800 On ch=1 n=f6 v=80
185040 On ch=1 n=f6 v=0
185040 On ch=1 n=c6 v=80
185280 On ch=1 n=c6 v=0
185280 On ch=1 n=e6 v=80
185520 On ch=1 n=e6 v=0
185520 On ch=1 n=d6 v=80
185760 On ch=1 n=d6 v=0
185760 On ch=1 n=c6 v=80
186000 On ch=1 n=c6 v=0
186000 On ch=1 n=a5 v=80
186240 On ch=1 n=a5 v=0
186240 On ch=1 n=a6 v=80
186480 On ch=1 n=a6 v=0
186480 On ch=1 n=g6 v=80
186720 On ch=1 n=g6 v=0
186720 On ch=1 n=f6 v=80
186960 On ch=1 n=f6 v=0
186960 On ch=1 n=d6 v=80
187200 On ch=1 n=d6 v=0
187200 On ch=1 n=e6 v=80
187440 On ch=1 n=e6 v=0
187440 On ch=1 n=d6 v=80
187680 On ch=1 n=d6 v=0
187680 On ch=1 n=c6 v=80
187920 On ch=1 n=c6 v=0
187920 On ch=1 n=a5 v=80
188160 On ch=1 n=a5 v=0
188160 On ch=1 n=a6 v=80
188400 On ch=1 n=a6 v=0
188400 On ch=1 n=g6 v=80
188640 On ch=1 n=g6 v=0
188640 On ch=1 n=f6 v=80
188880 On ch=1 n=f6 v=0
188880 On ch=1 n=d6 v=80
189120 On ch=1 n=d6 v=0
189120 On ch=1 n=e6 v=80
189360 On ch=1 n=e6 v=0
189360 On ch=1 n=d6 v=80
189600 On ch=1 n=d6 v=0
189600 On ch=1 n=c6 v=80
189840 On ch=1 n=c6 v=0
189840 On ch=1 n=a5 v=80
190080 On ch=1 n=a5 v=0
190080 On ch=1 n=e6 v=80
190320 On ch=1 n=e6 v=0
190320 On ch=1 n=d6 v=80
190560 On ch=1 n=d6 v=0
190560 On ch=1 n=c6 v=80
190800 On ch=1 n=c6 v=0
190800 On ch=1 n=g5 v=80
191040 On ch=1 n=g5 v=0
191040 On ch=1 n=e6 v=80
191280 On ch=1 n=e6 v=0
191280 On ch=1 n=d6 v=80
191520 On ch=1 n=d6 v=0
191520 On ch=1 n=c6 v=80
191760 On ch=1 n=c6 v=0
191760 On ch=1 n=a5 v=80
192000 On ch=1 n=a5 v=0
192000 On ch=1 n=e6 v=80
192240 On ch=1 n=e6 v=0
192240 On ch=1 n=d6 v=80
192480 On ch=1 n=d6 v=0
192480 On ch=1 n=c6 v=80
192720 On ch=1 n=c6 v=0
192720 On ch=1 n=g5 v=80
192840 On ch=1 n=f5 v=80
192900 On ch=1 n=f5 v=0
192900 On ch=1 n=g5 v=80
192960 On ch=1 n=g5 v=0
192960 On ch=1 n=g5 v=0
192960 On ch=1 n=f5 v=80
193200 On ch=1 n=f5 v=0
193200 On ch=1 n=e5 v=80
193440 On ch=1 n=e5 v=0
193440 On ch=1 n=f5 v=80
193680 On ch=1 n=f5 v=0
193680 On ch=1 n=a5 v=80
193920 On ch=1 n=a5 v=0
193920 On ch=1 n=c6 v=80
194160 On ch=1 n=c6 v=0
194160 On ch=1 n=e6 v=80
194400 On ch=1 n=e6 v=0
194400 On ch=1 n=f6 v=80
194640 On ch=1 n=f6 v=0
194640 On ch=1 n=a6 v=80
194880 On ch=1 n=a6 v=0
194880 On ch=1 n=c7 v=80
195120 On ch=1 n=c7 v=0
195120 On ch=1 n=e7 v=80
195360 On ch=1 n=e7 v=0
195360 On ch=1 n=f7 v=80
195600 On ch=1 n=f7 v=0
195600 On ch=1 n=c7 v=80
195840 On ch=1 n=c7 v=0
195840 On ch=1 n=a7 v=80
196080 On ch=1 n=a7 v=0
196080 On ch=1 n=g7 v=80
196320 On ch=1 n=g7 v=0
196320 On ch=1 n=f7 v=80
196560 On ch=1 n=f7 v=0
196560 On ch=1 n=c7 v=80
196800 On ch=1 n=c7 v=0
196800 On ch=1 n=e7 v=80
197040 On ch=1 n=e7 v=0
197040 On ch=1 n=d7 v=80
197280 On ch=1 n=d7 v=0
197280 On ch=1 n=c7 v=80
197520 On ch=1 n=c7 v=0
197520 On ch=1 n=a6 v=80
197760 On ch=1 n=a6 v=0
197760 On ch=1 n=a7 v=80
198000 On ch=1 n=a7 v=0
198000 On ch=1 n=g7 v=80
198240 On ch=1 n=g7 v=0
198240 On ch=1 n=f7 v=80
198480 On ch=1 n=f7 v=0
198480 On ch=1 n=d7 v=80
198720 On ch=1 n=d7 v=0
198720 On ch=1 n=e7 v=80
198960 On ch=1 n=e7 v=0
198960 On ch=1 n=d7 v=80
199200 On ch=1 n=d7 v=0
199200 On ch=1 n=c7 v=80
199440 On ch=1 n=c7 v=0
199440 On ch=1 n=a6 v=80
199680 On ch=1 n=a6 v=0
199680 On ch=1 n=a7 v=80
199920 On ch=1 n=a7 v=0
199920 On ch=1 n=g7 v=80
200160 On ch=1 n=g7 v=0
200160 On ch=1 n=f7 v=80
200400 On ch=1 n=f7 v=0
200400 On ch=1 n=d7 v=80
200640 On ch=1 n=d7 v=0
200640 On ch=1 n=e7 v=80
200880 On ch=1 n=e7 v=0
200880 On ch=1 n=d7 v=80
201120 On ch=1 n=d7 v=0
201120 On ch=1 n=c7 v=80
201360 On ch=1 n=c7 v=0
201360 On ch=1 n=a6 v=80
201600 On ch=1 n=a6 v=0
201600 On ch=1 n=e7 v=80
201840 On ch=1 n=e7 v=0
201840 On ch=1 n=d7 v=80
202080 On ch=1 n=d7 v=0
202080 On ch=1 n=c7 v=80
202320 On ch=1 n=c7 v=0
202320 On ch=1 n=g6 v=80
202560 On ch=1 n=g6 v=0
202560 On ch=1 n=e7 v=80
202800 On ch=1 n=e7 v=0
202800 On ch=1 n=d7 v=80
203040 On ch=1 n=d7 v=0
203040 On ch=1 n=c7 v=80
203280 On ch=1 n=c7 v=0
203280 On ch=1 n=a6 v=80
203520 On ch=1 n=a6 v=0
203520 On ch=1 n=e7 v=80
203760 On ch=1 n=e7 v=0
203760 On ch=1 n=d7 v=80
204000 On ch=1 n=d7 v=0
204000 On ch=1 n=c7 v=80
204240 On ch=1 n=c7 v=0
204240 On ch=1 n=g6 v=80
204480 On ch=1 n=g6 v=0
204480 On ch=1 n=f6 v=80
204720 On ch=1 n=f6 v=0
204720 On ch=1 n=a6 v=80
204960 On ch=1 n=a6 v=0
204960 On ch=1 n=g#6 v=80
205200 On ch=1 n=g#6 v=0
205200 On ch=1 n=f#6 v=80
205440 On ch=1 n=f#6 v=0
205440 On ch=1 n=g#6 v=80
205680 On ch=1 n=g#6 v=0
205680 On ch=1 n=g6 v=80
205920 On ch=1 n=g6 v=0
205920 On ch=1 n=f6 v=80
206160 On ch=1 n=f6 v=0
206160 On ch=1 n=g6 v=80
206400 On ch=1 n=g6 v=0
206400 On ch=1 n=f#6 v=80
206640 On ch=1 n=f#6 v=0
206640 On ch=1 n=e6 v=80
206880 On ch=1 n=e6 v=0
206880 On ch=1 n=f6 v=80
207120 On ch=1 n=f6 v=0
207120 On ch=1 n=f#6 v=80
207360 On ch=1 n=f#6 v=0
207360 On ch=1 n=g6 v=80
209040 On ch=1 n=g6 v=0
209040 On ch=1 n=f6 v=80
209280 On ch=1 n=f6 v=0
209280 On ch=1 n=d#6 v=80
209520 On ch=1 n=d#6 v=0
209520 On ch=1 n=a5 v=80
209760 On ch=1 n=a5 v=0
209760 On ch=1 n=d6 v=80
210000 On ch=1 n=d6 v=0
210000 On ch=1 n=c6 v=80
210240 On ch=1 n=c6 v=0
210240 On ch=1 n=a#5 v=80
210720 On ch=1 n=a#5 v=0
213120 On ch=1 n=d6 v=80
214800 On ch=1 n=d6 v=0
214800 On ch=1 n=c6 v=80
215040 On ch=1 n=c6 v=0
215040 On ch=1 n=a#5 v=80
215280 On ch=1 n=a#5 v=0
215280 On ch=1 n=e5 v=80
215520 On ch=1 n=e5 v=0
215520 On ch=1 n=a5 v=80
215760 On ch=1 n=a5 v=0
215760 On ch=1 n=g5 v=80
216000 On ch=1 n=g5 v=0
216000 On ch=1 n=f5 v=80
216240 On ch=1 n=f5 v=0
216240 On ch=1 n=a5 v=79
216480 On ch=1 n=a5 v=0
216480 On ch=1 n=g#5 v=77
216720 On ch=1 n=g#5 v=0
216720 On ch=1 n=f#5 v=75
216960 On ch=1 n=f#5 v=0
216960 On ch=1 n=g#5 v=73
217200 On ch=1 n=g#5 v=0
217200 On ch=1 n=g5 v=72
217440 On ch=1 n=g5 v=0
217440 On ch=1 n=e5 v=70
217680 On ch=1 n=e5 v=0
217680 On ch=1 n=g5 v=68
217920 On ch=1 n=g5 v=0
217920 On ch=1 n=f#5 v=66
218160 On ch=1 n=f#5 v=0
218160 On ch=1 n=e5 v=65
218400 On ch=1 n=e5 v=0
218400 On ch=1 n=f5 v=63
218640 On ch=1 n=f5 v=0
218640 On ch=1 n=f#5 v=61
218880 On ch=1 n=f#5 v=0
218880 On ch=1 n=g5 v=60
220560 On ch=1 n=g5 v=0
220560 On ch=1 n=f5 v=60
220800 On ch=1 n=f5 v=0
220800 On ch=1 n=d#5 v=60
221040 On ch=1 n=d#5 v=0
221040 On ch=1 n=a4 v=60
221280 On ch=1 n=a4 v=0
221280 On ch=1 n=d5 v=60
221520 On ch=1 n=d5 v=0
221520 On ch=1 n=c5 v=60
221760 On ch=1 n=c5 v=0
221760 On ch=1 n=b4 v=60
224640 On ch=1 n=b4 v=0
226560 On ch=1 n=c#5 v=60
226800 On ch=1 n=c#5 v=0
226800 On ch=1 n=c5 v=60
227040 On ch=1 n=c5 v=0
230400 On ch=1 n=f6 v=125
231840 On ch=1 n=f6 v=0
231840 On ch=1 n=c5 v=125
233220 On ch=1 n=a4 v=125
233280 On ch=1 n=a4 v=0
233280 On ch=1 n=c5 v=0
233280 On ch=1 n=c5 v=125
233400 On ch=1 n=c5 v=0
233700 On ch=1 n=c5 v=125
233760 On ch=1 n=c5 v=0
233760 On ch=1 n=f5 v=125
233880 On ch=1 n=f5 v=0
234180 On ch=1 n=f5 v=125
234240 On ch=1 n=f5 v=0
234240 On ch=1 n=a5 v=125
234360 On ch=1 n=a5 v=0
234660 On ch=1 n=a5 v=125
234720 On ch=1 n=a5 v=0
234720 On ch=1 n=c6 v=125
234840 On ch=1 n=c6 v=0
235140 On ch=1 n=c6 v=125
235200 On ch=1 n=c6 v=0
235200 On ch=1 n=f6 v=125
235320 On ch=1 n=f6 v=0
235620 On ch=1 n=f6 v=125
235680 On ch=1 n=f6 v=0
235680 On ch=1 n=g#6 v=125
235800 On ch=1 n=g#6 v=0
236160 On ch=1 n=a6 v=125
237600 On ch=1 n=a6 v=0
237600 On ch=1 n=c5 v=125
238980 On ch=1 n=f5 v=125
239040 On ch=1 n=f5 v=0
239040 On ch=1 n=c5 v=0
239040 On ch=1 n=a5 v=125
239160 On ch=1 n=a5 v=0
239460 On ch=1 n=a5 v=125
239520 On ch=1 n=a5 v=0
239520 On ch=1 n=c6 v=125
239640 On ch=1 n=c6 v=0
239940 On ch=1 n=c6 v=125
240000 On ch=1 n=c6 v=0
240000 On ch=1 n=f6 v=125
240120 On ch=1 n=f6 v=0
240420 On ch=1 n=f6 v=125
240480 On ch=1 n=f6 v=0
240480 On ch=1 n=a6 v=125
240600 On ch=1 n=a6 v=0
240900 On ch=1 n=a6 v=125
240960 On ch=1 n=a6 v=0
240960 On ch=1 n=c7 v=125
241080 On ch=1 n=c7 v=0
241380 On ch=1 n=c7 v=125
241440 On ch=1 n=c7 v=0
241440 On ch=1 n=f7 v=125
241560 On ch=1 n=f7 v=0
241920 On ch=1 n=f8 v=125
242040 On ch=1 n=f8 v=0
243360 On ch=1 n=a6 v=125
243360 On ch=1 n=f6 v=125
243360 On ch=1 n=c6 v=125
243360 On ch=1 n=a5 v=125
243840 On ch=1 n=a5 v=0
243840 On ch=1 n=c6 v=0
243840 On ch=1 n=f6 v=0
243840 On ch=1 n=a6 v=0
244800 On ch=1 n=a4 v=125
244800 On ch=1 n=f5 v=125
245280 On ch=1 n=f5 v=0
245280 On ch=1 n=a4 v=0
246240 On ch=1 n=f7 v=125
246240 On ch=1 n=c7 v=125
246240 On ch=1 n=f6 v=125
246720 On ch=1 n=f6 v=0
246720 On ch=1 n=c7 v=0
246720 On ch=1 n=f7 v=0
247680 On ch=1 n=f4 v=125
247680 On ch=1 n=f5 v=125
249120 On ch=1 n=f5 v=0
249120 On ch=1 n=f4 v=0
249120 Meta TrkEnd
TrkEnd
MTrk
0 SeqSpec 43 00 01 00
0 Meta TrkName "Lower Treble"
0 Meta 0x21 00
0 PrCh ch=1 p=0
33600 On ch=1 n=a5 v=80
33600 On ch=1 n=c5 v=80
34080 On ch=1 n=c5 v=0
34080 On ch=1 n=a5 v=0
34080 On ch=1 n=a5 v=80
34080 On ch=1 n=c5 v=80
34560 On ch=1 n=c5 v=0
34560 On ch=1 n=a5 v=0
35040 On ch=1 n=a5 v=80
35040 On ch=1 n=c5 v=80
35520 On ch=1 n=c5 v=0
35520 On ch=1 n=a5 v=0
35520 On ch=1 n=a#5 v=80
35520 On ch=1 n=d5 v=80
36000 On ch=1 n=d5 v=0
36000 On ch=1 n=a#5 v=0
36480 On ch=1 n=a5 v=80
36480 On ch=1 n=c5 v=80
36960 On ch=1 n=c5 v=0
36960 On ch=1 n=a5 v=0
36960 On ch=1 n=a#5 v=80
36960 On ch=1 n=d5 v=80
37440 On ch=1 n=d5 v=0
37440 On ch=1 n=a#5 v=0
37920 On ch=1 n=a5 v=80
37920 On ch=1 n=c5 v=80
38400 On ch=1 n=c5 v=0
38400 On ch=1 n=a5 v=0
38400 On ch=1 n=a#5 v=80
38400 On ch=1 n=d5 v=80
38880 On ch=1 n=d5 v=0
38880 On ch=1 n=a#5 v=0
39360 On ch=1 n=a5 v=80
39360 On ch=1 n=c5 v=80
39840 On ch=1 n=c5 v=0
39840 On ch=1 n=a5 v=0
39840 On ch=1 n=a4 v=80
39840 On ch=1 n=f5 v=80
40320 On ch=1 n=f5 v=0
40320 On ch=1 n=a4 v=0
42240 On ch=1 n=a#4 v=80
42240 On ch=1 n=c5 v=80
42240 On ch=1 n=a5 v=80
42720 On ch=1 n=a5 v=0
42720 On ch=1 n=c5 v=0
42720 On ch=1 n=a#4 v=0
42720 On ch=1 n=a#4 v=80
42720 On ch=1 n=c5 v=80
42720 On ch=1 n=g5 v=80
43200 On ch=1 n=g5 v=0
43200 On ch=1 n=c5 v=0
43200 On ch=1 n=a#4 v=0
56640 On ch=1 n=c5 v=80
56640 On ch=1 n=a5 v=80
57120 On ch=1 n=a5 v=0
57120 On ch=1 n=c5 v=0
57120 On ch=1 n=c5 v=80
57120 On ch=1 n=a5 v=80
57600 On ch=1 n=a5 v=0
57600 On ch=1 n=c5 v=0
58080 On ch=1 n=c5 v=80
58080 On ch=1 n=a5 v=80
58560 On ch=1 n=a5 v=0
58560 On ch=1 n=c5 v=0
58560 On ch=1 n=d5 v=80
58560 On ch=1 n=a#5 v=80
59040 On ch=1 n=a#5 v=0
59040 On ch=1 n=d5 v=0
59520 On ch=1 n=c5 v=80
59520 On ch=1 n=a5 v=80
60000 On ch=1 n=a5 v=0
60000 On ch=1 n=c5 v=0
60000 On ch=1 n=d5 v=80
60000 On ch=1 n=a#5 v=80
60480 On ch=1 n=a#5 v=0
60480 On ch=1 n=d5 v=0
60960 On ch=1 n=c5 v=80
60960 On ch=1 n=a5 v=80
61440 On ch=1 n=a5 v=0
61440 On ch=1 n=c5 v=0
61440 On ch=1 n=d5 v=80
61440 On ch=1 n=a#5 v=80
61920 On ch=1 n=a#5 v=0
61920 On ch=1 n=d5 v=0
62400 On ch=1 n=c5 v=80
62400 On ch=1 n=a5 v=80
62880 On ch=1 n=a5 v=0
62880 On ch=1 n=c5 v=0
62880 On ch=1 n=a4 v=80
62880 On ch=1 n=f5 v=80
63360 On ch=1 n=f5 v=0
63360 On ch=1 n=a4 v=0
65280 On ch=1 n=a#4 v=80
65280 On ch=1 n=c5 v=80
65280 On ch=1 n=a5 v=80
65760 On ch=1 n=a5 v=0
65760 On ch=1 n=c5 v=0
65760 On ch=1 n=a#4 v=0
65760 On ch=1 n=a#4 v=80
65760 On ch=1 n=c5 v=80
65760 On ch=1 n=g5 v=80
66240 On ch=1 n=g5 v=0
66240 On ch=1 n=c5 v=0
66240 On ch=1 n=a#4 v=0
132960 On ch=1 n=a#4 v=60
132960 On ch=1 n=c5 v=60
132960 On ch=1 n=a5 v=60
133440 On ch=1 n=a5 v=0
133440 On ch=1 n=c5 v=0
133440 On ch=1 n=a#4 v=0
133440 On ch=1 n=a#4 v=60
133440 On ch=1 n=c5 v=60
133440 On ch=1 n=g5 v=60
133920 On ch=1 n=g5 v=0
133920 On ch=1 n=c5 v=0
133920 On ch=1 n=a#4 v=0
135840 On ch=1 n=a#4 v=60
135840 On ch=1 n=c5 v=60
135840 On ch=1 n=a5 v=60
136320 On ch=1 n=a5 v=0
136320 On ch=1 n=c5 v=0
136320 On ch=1 n=a#4 v=0
136320 On ch=1 n=a#4 v=60
136320 On ch=1 n=c5 v=60
136320 On ch=1 n=g5 v=60
136800 On ch=1 n=g5 v=0
136800 On ch=1 n=c5 v=0
136800 On ch=1 n=a#4 v=0
156000 On ch=1 n=a#4 v=60
156000 On ch=1 n=c5 v=60
156000 On ch=1 n=a5 v=60
156480 On ch=1 n=a5 v=0
156480 On ch=1 n=c5 v=0
156480 On ch=1 n=a#4 v=0
156480 On ch=1 n=a#4 v=60
156480 On ch=1 n=c5 v=60
156480 On ch=1 n=g5 v=60
156960 On ch=1 n=g5 v=0
156960 On ch=1 n=c5 v=0
156960 On ch=1 n=a#4 v=0
158880 On ch=1 n=a#4 v=60
158880 On ch=1 n=c5 v=60
158880 On ch=1 n=a5 v=60
159360 On ch=1 n=a5 v=0
159360 On ch=1 n=c5 v=0
159360 On ch=1 n=a#4 v=0
159360 On ch=1 n=a#4 v=60
159360 On ch=1 n=c5 v=60
159360 On ch=1 n=g5 v=60
159840 On ch=1 n=g5 v=0
159840 On ch=1 n=c5 v=0
159840 On ch=1 n=a#4 v=0
194880 On ch=1 n=a5 v=80
194880 On ch=1 n=c5 v=80
195360 On ch=1 n=c5 v=0
195360 On ch=1 n=a5 v=0
195360 On ch=1 n=a5 v=80
195360 On ch=1 n=c5 v=80
195840 On ch=1 n=c5 v=0
195840 On ch=1 n=a5 v=0
196320 On ch=1 n=c5 v=80
196320 On ch=1 n=a5 v=80
196800 On ch=1 n=a5 v=0
196800 On ch=1 n=c5 v=0
196800 On ch=1 n=a#5 v=80
196800 On ch=1 n=d5 v=80
197280 On ch=1 n=d5 v=0
197280 On ch=1 n=a#5 v=0
197760 On ch=1 n=c5 v=80
197760 On ch=1 n=a5 v=80
198240 On ch=1 n=a5 v=0
198240 On ch=1 n=c5 v=0
198240 On ch=1 n=a#5 v=80
198240 On ch=1 n=d5 v=80
198720 On ch=1 n=d5 v=0
198720 On ch=1 n=a#5 v=0
199200 On ch=1 n=c5 v=80
199200 On ch=1 n=a5 v=80
199680 On ch=1 n=a5 v=0
199680 On ch=1 n=c5 v=0
199680 On ch=1 n=a#5 v=80
199680 On ch=1 n=d5 v=80
200160 On ch=1 n=d5 v=0
200160 On ch=1 n=a#5 v=0
200640 On ch=1 n=a5 v=80
200640 On ch=1 n=c5 v=80
201120 On ch=1 n=c5 v=0
201120 On ch=1 n=a5 v=0
201120 On ch=1 n=a4 v=80
201120 On ch=1 n=f5 v=80
201600 On ch=1 n=f5 v=0
201600 On ch=1 n=a4 v=0
203520 On ch=1 n=a#4 v=80
203520 On ch=1 n=c5 v=80
203520 On ch=1 n=a5 v=80
204000 On ch=1 n=a5 v=0
204000 On ch=1 n=c5 v=0
204000 On ch=1 n=a#4 v=0
204000 On ch=1 n=a#4 v=80
204000 On ch=1 n=c5 v=80
204000 On ch=1 n=g5 v=80
204480 On ch=1 n=g5 v=0
204480 On ch=1 n=c5 v=0
204480 On ch=1 n=a#4 v=0
204480 Meta TrkEnd
TrkEnd
MTrk
0 SeqSpec 43 00 01 00
0 Meta TrkName "Lower Bass"
0 Meta 0x21 00
0 PrCh ch=1 p=0
0 On ch=1 n=e5 v=110
0 On ch=1 n=a#4 v=110
0 On ch=1 n=g4 v=110
0 On ch=1 n=c4 v=110
1440 On ch=1 n=c4 v=0
1440 On ch=1 n=g4 v=0
1440 On ch=1 n=a#4 v=0
1440 On ch=1 n=e5 v=0
1440 On ch=1 n=c4 v=110
1440 On ch=1 n=g4 v=110
1440 On ch=1 n=a#4 v=110
1440 On ch=1 n=e5 v=110
2880 On ch=1 n=e5 v=0
2880 On ch=1 n=a#4 v=0
2880 On ch=1 n=g4 v=0
2880 On ch=1 n=c4 v=0
2880 On ch=1 n=e5 v=110
2880 On ch=1 n=a#4 v=110
2880 On ch=1 n=g4 v=110
2880 On ch=1 n=c4 v=110
3360 On ch=1 n=c4 v=0
3360 On ch=1 n=g4 v=0
3360 On ch=1 n=a#4 v=0
3360 On ch=1 n=e5 v=0
4320 On ch=1 n=c4 v=110
4320 On ch=1 n=g4 v=110
4320 On ch=1 n=a#4 v=110
4320 On ch=1 n=e5 v=110
5760 On ch=1 n=e5 v=0
5760 On ch=1 n=a#4 v=0
5760 On ch=1 n=g4 v=0
5760 On ch=1 n=c4 v=0
5760 On ch=1 n=e5 v=110
5760 On ch=1 n=a#4 v=110
5760 On ch=1 n=g4 v=110
5760 On ch=1 n=c4 v=110
6240 On ch=1 n=c4 v=0
6240 On ch=1 n=g4 v=0
6240 On ch=1 n=a#4 v=0
6240 On ch=1 n=e5 v=0
7200 On ch=1 n=e5 v=100
7200 On ch=1 n=a#4 v=100
7200 On ch=1 n=g4 v=100
7200 On ch=1 n=c4 v=100
7680 On ch=1 n=c4 v=0
7680 On ch=1 n=g4 v=0
7680 On ch=1 n=a#4 v=0
7680 On ch=1 n=e5 v=0
8640 On ch=1 n=e5 v=109
8640 On ch=1 n=a#4 v=109
8640 On ch=1 n=g4 v=109
8640 On ch=1 n=c4 v=109
9120 On ch=1 n=c4 v=0
9120 On ch=1 n=g4 v=0
9120 On ch=1 n=a#4 v=0
9120 On ch=1 n=e5 v=0
10080 On ch=1 n=e5 v=118
10080 On ch=1 n=a#4 v=118
10080 On ch=1 n=g4 v=118
10080 On ch=1 n=c4 v=118
10560 On ch=1 n=c4 v=0
10560 On ch=1 n=g4 v=0
10560 On ch=1 n=a#4 v=0
10560 On ch=1 n=e5 v=0
11520 On ch=1 n=e5 v=127
11520 On ch=1 n=a#4 v=127
11520 On ch=1 n=g4 v=127
11520 On ch=1 n=c4 v=127
12000 On ch=1 n=c4 v=0
12000 On ch=1 n=g4 v=0
12000 On ch=1 n=a#4 v=0
12000 On ch=1 n=e5 v=0
23040 On ch=1 n=f4 v=90
23520 On ch=1 n=f5 v=80
23520 On ch=1 n=c5 v=80
23520 On ch=1 n=a4 v=80
24000 On ch=1 n=a4 v=0
24000 On ch=1 n=c5 v=0
24000 On ch=1 n=f5 v=0
24000 On ch=1 n=a#4 v=80
24000 On ch=1 n=d5 v=80
24000 On ch=1 n=f5 v=80
24480 On ch=1 n=f5 v=0
24480 On ch=1 n=d5 v=0
24480 On ch=1 n=a#4 v=0
24480 On ch=1 n=f4 v=0
24480 On ch=1 n=f4 v=90
24960 On ch=1 n=f5 v=80
24960 On ch=1 n=c5 v=80
24960 On ch=1 n=a4 v=80
25440 On ch=1 n=a4 v=0
25440 On ch=1 n=c5 v=0
25440 On ch=1 n=f5 v=0
25440 On ch=1 n=a#4 v=80
25440 On ch=1 n=d5 v=80
25440 On ch=1 n=f5 v=80
25920 On ch=1 n=f5 v=0
25920 On ch=1 n=d5 v=0
25920 On ch=1 n=a#4 v=0
25920 On ch=1 n=f4 v=0
25920 On ch=1 n=f4 v=90
26400 On ch=1 n=f5 v=80
26400 On ch=1 n=c5 v=80
26400 On ch=1 n=a4 v=80
26880 On ch=1 n=a4 v=0
26880 On ch=1 n=c5 v=0
26880 On ch=1 n=f5 v=0
26880 On ch=1 n=a#4 v=80
26880 On ch=1 n=d5 v=80
26880 On ch=1 n=f5 v=80
27360 On ch=1 n=f5 v=0
27360 On ch=1 n=d5 v=0
27360 On ch=1 n=a#4 v=0
27360 On ch=1 n=f4 v=0
27360 On ch=1 n=f4 v=90
27840 On ch=1 n=f5 v=80
27840 On ch=1 n=c5 v=80
27840 On ch=1 n=a4 v=80
28320 On ch=1 n=a4 v=0
28320 On ch=1 n=c5 v=0
28320 On ch=1 n=f5 v=0
28320 On ch=1 n=a4 v=80
28320 On ch=1 n=c5 v=80
28320 On ch=1 n=f5 v=80
28800 On ch=1 n=f5 v=0
28800 On ch=1 n=c5 v=0
28800 On ch=1 n=a4 v=0
28800 On ch=1 n=f4 v=0
28800 On ch=1 n=c4 v=90
29280 On ch=1 n=c4 v=0
29280 On ch=1 n=e5 v=80
29280 On ch=1 n=c5 v=80
29280 On ch=1 n=a#4 v=80
29760 On ch=1 n=a#4 v=0
29760 On ch=1 n=c5 v=0
29760 On ch=1 n=e5 v=0
29760 On ch=1 n=e5 v=80
29760 On ch=1 n=c5 v=80
29760 On ch=1 n=a#4 v=80
30240 On ch=1 n=a#4 v=0
30240 On ch=1 n=c5 v=0
30240 On ch=1 n=e5 v=0
30240 On ch=1 n=c4 v=90
30720 On ch=1 n=c4 v=0
30720 On ch=1 n=e5 v=80
30720 On ch=1 n=c5 v=80
30720 On ch=1 n=a#4 v=80
31200 On ch=1 n=a#4 v=0
31200 On ch=1 n=c5 v=0
31200 On ch=1 n=e5 v=0
31200 On ch=1 n=e5 v=80
31200 On ch=1 n=c5 v=80
31200 On ch=1 n=a#4 v=80
31680 On ch=1 n=a#4 v=0
31680 On ch=1 n=c5 v=0
31680 On ch=1 n=e5 v=0
31680 On ch=1 n=f3 v=90
32160 On ch=1 n=f3 v=0
32160 On ch=1 n=c5 v=80
32160 On ch=1 n=a4 v=80
32640 On ch=1 n=a4 v=0
32640 On ch=1 n=c5 v=0
32640 On ch=1 n=a4 v=80
32640 On ch=1 n=c5 v=80
33120 On ch=1 n=c5 v=0
33120 On ch=1 n=a4 v=0
33120 On ch=1 n=f4 v=90
33600 On ch=1 n=f4 v=0
34560 On ch=1 n=f4 v=90
35040 On ch=1 n=f4 v=0
36000 On ch=1 n=f4 v=90
36480 On ch=1 n=f4 v=0
37440 On ch=1 n=f4 v=90
37920 On ch=1 n=f4 v=0
38880 On ch=1 n=f4 v=90
39360 On ch=1 n=f4 v=0
40320 On ch=1 n=c4 v=90
40800 On ch=1 n=c4 v=0
40800 On ch=1 n=e5 v=80
40800 On ch=1 n=c5 v=80
40800 On ch=1 n=a#4 v=80
41280 On ch=1 n=a#4 v=0
41280 On ch=1 n=c5 v=0
41280 On ch=1 n=e5 v=0
41280 On ch=1 n=a#4 v=80
41280 On ch=1 n=c5 v=80
41280 On ch=1 n=e5 v=80
41760 On ch=1 n=e5 v=0
41760 On ch=1 n=c5 v=0
41760 On ch=1 n=a#4 v=0
41760 On ch=1 n=c4 v=90
42240 On ch=1 n=c4 v=0
43200 On ch=1 n=f4 v=90
43680 On ch=1 n=f4 v=0
43680 On ch=1 n=f5 v=80
43680 On ch=1 n=a4 v=80
44160 On ch=1 n=a4 v=0
44160 On ch=1 n=f5 v=0
44160 On ch=1 n=f5 v=80
44160 On ch=1 n=a4 v=80
44640 On ch=1 n=a4 v=0
44640 On ch=1 n=f5 v=0
44640 On ch=1 n=f3 v=90
45120 On ch=1 n=f3 v=0
46080 On ch=1 n=f4 v=90
46560 On ch=1 n=f5 v=80
46560 On ch=1 n=c5 v=80
46560 On ch=1 n=a4 v=80
47040 On ch=1 n=a4 v=0
47040 On ch=1 n=c5 v=0
47040 On ch=1 n=f5 v=0
47040 On ch=1 n=a#4 v=80
47040 On ch=1 n=d5 v=80
47040 On ch=1 n=f5 v=80
47520 On ch=1 n=f5 v=0
47520 On ch=1 n=d5 v=0
47520 On ch=1 n=a#4 v=0
47520 On ch=1 n=f4 v=0
47520 On ch=1 n=f4 v=90
48000 On ch=1 n=f5 v=80
48000 On ch=1 n=c5 v=80
48000 On ch=1 n=a4 v=80
48480 On ch=1 n=a4 v=0
48480 On ch=1 n=c5 v=0
48480 On ch=1 n=f5 v=0
48480 On ch=1 n=a#4 v=80
48480 On ch=1 n=d5 v=80
48480 On ch=1 n=f5 v=80
48960 On ch=1 n=f5 v=0
48960 On ch=1 n=d5 v=0
48960 On ch=1 n=a#4 v=0
48960 On ch=1 n=f4 v=0
48960 On ch=1 n=f4 v=90
49440 On ch=1 n=f5 v=80
49440 On ch=1 n=c5 v=80
49440 On ch=1 n=a4 v=80
49920 On ch=1 n=a4 v=0
49920 On ch=1 n=c5 v=0
49920 On ch=1 n=f5 v=0
49920 On ch=1 n=a#4 v=80
49920 On ch=1 n=d5 v=80
49920 On ch=1 n=f5 v=80
50400 On ch=1 n=f5 v=0
50400 On ch=1 n=d5 v=0
50400 On ch=1 n=a#4 v=0
50400 On ch=1 n=f4 v=0
50400 On ch=1 n=f4 v=90
50880 On ch=1 n=f5 v=80
50880 On ch=1 n=c5 v=80
50880 On ch=1 n=a4 v=80
51360 On ch=1 n=a4 v=0
51360 On ch=1 n=c5 v=0
51360 On ch=1 n=f5 v=0
51360 On ch=1 n=a4 v=80
51360 On ch=1 n=c5 v=80
51360 On ch=1 n=f5 v=80
51840 On ch=1 n=f5 v=0
51840 On ch=1 n=c5 v=0
51840 On ch=1 n=a4 v=0
51840 On ch=1 n=f4 v=0
51840 On ch=1 n=c4 v=90
52320 On ch=1 n=c4 v=0
52320 On ch=1 n=e5 v=80
52320 On ch=1 n=c5 v=80
52320 On ch=1 n=a#4 v=80
52800 On ch=1 n=a#4 v=0
52800 On ch=1 n=c5 v=0
52800 On ch=1 n=e5 v=0
52800 On ch=1 n=a#4 v=80
52800 On ch=1 n=c5 v=80
52800 On ch=1 n=e5 v=80
53280 On ch=1 n=e5 v=0
53280 On ch=1 n=c5 v=0
53280 On ch=1 n=a#4 v=0
53280 On ch=1 n=c4 v=90
53760 On ch=1 n=c4 v=0
53760 On ch=1 n=e5 v=80
53760 On ch=1 n=c5 v=80
53760 On ch=1 n=a#4 v=80
54240 On ch=1 n=a#4 v=0
54240 On ch=1 n=c5 v=0
54240 On ch=1 n=e5 v=0
54240 On ch=1 n=a#4 v=80
54240 On ch=1 n=c5 v=80
54240 On ch=1 n=e5 v=80
54720 On ch=1 n=e5 v=0
54720 On ch=1 n=c5 v=0
54720 On ch=1 n=a#4 v=0
54720 On ch=1 n=f3 v=90
55200 On ch=1 n=f3 v=0
55200 On ch=1 n=a4 v=80
55200 On ch=1 n=f4 v=80
55680 On ch=1 n=f4 v=0
55680 On ch=1 n=a4 v=0
55680 On ch=1 n=f4 v=80
55680 On ch=1 n=a4 v=80
56160 On ch=1 n=a4 v=0
56160 On ch=1 n=f4 v=0
56160 On ch=1 n=f4 v=90
56640 On ch=1 n=f4 v=0
57600 On ch=1 n=f4 v=90
58080 On ch=1 n=f4 v=0
59040 On ch=1 n=f4 v=90
59520 On ch=1 n=f4 v=0
60480 On ch=1 n=f4 v=90
60960 On ch=1 n=f4 v=0
61920 On ch=1 n=f4 v=90
62400 On ch=1 n=f4 v=0
63360 On ch=1 n=c4 v=90
63840 On ch=1 n=c4 v=0
63840 On ch=1 n=e5 v=80
63840 On ch=1 n=c5 v=80
63840 On ch=1 n=a#4 v=80
64320 On ch=1 n=a#4 v=0
64320 On ch=1 n=c5 v=0
64320 On ch=1 n=e5 v=0
64320 On ch=1 n=c5 v=80
64320 On ch=1 n=a#4 v=80
64320 On ch=1 n=e5 v=80
64800 On ch=1 n=e5 v=0
64800 On ch=1 n=a#4 v=0
64800 On ch=1 n=c5 v=0
64800 On ch=1 n=c4 v=90
65280 On ch=1 n=c4 v=0
66240 On ch=1 n=f4 v=90
66720 On ch=1 n=f4 v=0
66720 On ch=1 n=f5 v=80
66720 On ch=1 n=a4 v=80
67200 On ch=1 n=a4 v=0
67200 On ch=1 n=f5 v=0
67200 On ch=1 n=f5 v=80
67200 On ch=1 n=a4 v=80
67680 On ch=1 n=a4 v=0
67680 On ch=1 n=f5 v=0
67680 On ch=1 n=f3 v=90
68160 On ch=1 n=f3 v=0
69120 On ch=1 n=g3 v=110
69600 On ch=1 n=g3 v=0
69600 On ch=1 n=d#5 v=100
69600 On ch=1 n=a#4 v=100
69600 On ch=1 n=d#4 v=100
70080 On ch=1 n=d#4 v=0
70080 On ch=1 n=a#4 v=0
70080 On ch=1 n=d#5 v=0
70080 On ch=1 n=d#5 v=100
70080 On ch=1 n=a#4 v=100
70080 On ch=1 n=d#4 v=100
70560 On ch=1 n=d#4 v=0
70560 On ch=1 n=a#4 v=0
70560 On ch=1 n=d#5 v=0
70560 On ch=1 n=a3 v=110
71040 On ch=1 n=a3 v=0
71040 On ch=1 n=d#5 v=100
71040 On ch=1 n=c5 v=100
71040 On ch=1 n=f4 v=100
71520 On ch=1 n=f4 v=0
71520 On ch=1 n=c5 v=0
71520 On ch=1 n=d#5 v=0
71520 On ch=1 n=c5 v=100
71520 On ch=1 n=d#5 v=100
71520 On ch=1 n=f4 v=100
72000 On ch=1 n=f4 v=0
72000 On ch=1 n=d#5 v=0
72000 On ch=1 n=c5 v=0
72000 On ch=1 n=a#3 v=110
72480 On ch=1 n=a#3 v=0
72480 On ch=1 n=d5 v=100
72480 On ch=1 n=a#4 v=100
72480 On ch=1 n=f4 v=100
72960 On ch=1 n=f4 v=0
72960 On ch=1 n=a#4 v=0
72960 On ch=1 n=d5 v=0
72960 On ch=1 n=d5 v=100
72960 On ch=1 n=a#4 v=100
72960 On ch=1 n=f4 v=100
73440 On ch=1 n=f4 v=0
73440 On ch=1 n=a#4 v=0
73440 On ch=1 n=d5 v=0
73440 On ch=1 n=d#3 v=110
73920 On ch=1 n=d#3 v=0
73920 On ch=1 n=c5 v=100
73920 On ch=1 n=g4 v=100
73920 On ch=1 n=d#4 v=100
74400 On ch=1 n=d#4 v=0
74400 On ch=1 n=g4 v=0
74400 On ch=1 n=c5 v=0
74400 On ch=1 n=d#4 v=100
74400 On ch=1 n=g4 v=100
74400 On ch=1 n=c5 v=100
74880 On ch=1 n=c5 v=0
74880 On ch=1 n=g4 v=0
74880 On ch=1 n=d#4 v=0
74880 On ch=1 n=f3 v=110
75360 On ch=1 n=f3 v=0
75360 On ch=1 n=d5 v=100
75360 On ch=1 n=f4 v=100
75840 On ch=1 n=f4 v=0
75840 On ch=1 n=d5 v=0
75840 On ch=1 n=d5 v=100
75840 On ch=1 n=f4 v=100
76320 On ch=1 n=f4 v=0
76320 On ch=1 n=d5 v=0
76320 On ch=1 n=f3 v=110
76800 On ch=1 n=f3 v=0
76800 On ch=1 n=d5 v=100
76800 On ch=1 n=a#4 v=100
76800 On ch=1 n=f4 v=100
77280 On ch=1 n=f4 v=0
77280 On ch=1 n=a#4 v=0
77280 On ch=1 n=d5 v=0
77280 On ch=1 n=f4 v=100
77280 On ch=1 n=a#4 v=100
77280 On ch=1 n=d5 v=100
77760 On ch=1 n=d5 v=0
77760 On ch=1 n=a#4 v=0
77760 On ch=1 n=f4 v=0
77760 On ch=1 n=f3 v=110
78240 On ch=1 n=f3 v=0
78240 On ch=1 n=d#5 v=100
78240 On ch=1 n=a4 v=100
78240 On ch=1 n=f4 v=100
78720 On ch=1 n=f4 v=0
78720 On ch=1 n=a4 v=0
78720 On ch=1 n=d#5 v=0
78720 On ch=1 n=d#5 v=100
78720 On ch=1 n=f4 v=100
78720 On ch=1 n=a4 v=100
79200 On ch=1 n=a4 v=0
79200 On ch=1 n=f4 v=0
79200 On ch=1 n=d#5 v=0
79200 On ch=1 n=a#3 v=110
79680 On ch=1 n=a#3 v=0
79680 On ch=1 n=d5 v=100
79680 On ch=1 n=a#4 v=100
79680 On ch=1 n=f4 v=100
80160 On ch=1 n=f4 v=0
80160 On ch=1 n=a#4 v=0
80160 On ch=1 n=d5 v=0
80160 On ch=1 n=a#4 v=100
80160 On ch=1 n=d5 v=100
80160 On ch=1 n=f4 v=100
80640 On ch=1 n=f4 v=0
80640 On ch=1 n=d5 v=0
80640 On ch=1 n=a#4 v=0
80640 On ch=1 n=g3 v=110
81120 On ch=1 n=g3 v=0
81120 On ch=1 n=d#5 v=100
81120 On ch=1 n=a#4 v=100
81120 On ch=1 n=d#4 v=100
81600 On ch=1 n=d#4 v=0
81600 On ch=1 n=a#4 v=0
81600 On ch=1 n=d#5 v=0
81600 On ch=1 n=d#4 v=100
81600 On ch=1 n=a#4 v=100
81600 On ch=1 n=d#5 v=100
82080 On ch=1 n=d#5 v=0
82080 On ch=1 n=a#4 v=0
82080 On ch=1 n=d#4 v=0
82080 On ch=1 n=a3 v=110
82560 On ch=1 n=a3 v=0
82560 On ch=1 n=d#5 v=100
82560 On ch=1 n=c5 v=100
82560 On ch=1 n=f4 v=100
83040 On ch=1 n=f4 v=0
83040 On ch=1 n=c5 v=0
83040 On ch=1 n=d#5 v=0
83040 On ch=1 n=d#5 v=100
83040 On ch=1 n=c5 v=100
83040 On ch=1 n=f4 v=100
83520 On ch=1 n=f4 v=0
83520 On ch=1 n=c5 v=0
83520 On ch=1 n=d#5 v=0
83520 On ch=1 n=f#3 v=110
84000 On ch=1 n=f#3 v=0
84000 On ch=1 n=d5 v=100
84000 On ch=1 n=a4 v=100
84000 On ch=1 n=f#4 v=100
84480 On ch=1 n=f#4 v=0
84480 On ch=1 n=a4 v=0
84480 On ch=1 n=d5 v=0
84480 On ch=1 n=f#4 v=100
84480 On ch=1 n=a4 v=100
84480 On ch=1 n=d5 v=100
84960 On ch=1 n=d5 v=0
84960 On ch=1 n=a4 v=0
84960 On ch=1 n=f#4 v=0
84960 On ch=1 n=f3 v=110
85440 On ch=1 n=f3 v=0
85440 On ch=1 n=d5 v=100
85440 On ch=1 n=g#4 v=100
85440 On ch=1 n=b4 v=100
85440 On ch=1 n=f4 v=100
85920 On ch=1 n=f4 v=0
85920 On ch=1 n=b4 v=0
85920 On ch=1 n=g#4 v=0
85920 On ch=1 n=d5 v=0
85920 On ch=1 n=d5 v=100
85920 On ch=1 n=b4 v=100
85920 On ch=1 n=g#4 v=100
85920 On ch=1 n=f4 v=100
86400 On ch=1 n=f4 v=0
86400 On ch=1 n=g#4 v=0
86400 On ch=1 n=b4 v=0
86400 On ch=1 n=d5 v=0
86400 On ch=1 n=d#3 v=110
86880 On ch=1 n=d#3 v=0
86880 On ch=1 n=c5 v=100
86880 On ch=1 n=g4 v=100
86880 On ch=1 n=d#4 v=100
87360 On ch=1 n=d#4 v=0
87360 On ch=1 n=g4 v=0
87360 On ch=1 n=c5 v=0
87360 On ch=1 n=d#4 v=100
87360 On ch=1 n=g4 v=100
87360 On ch=1 n=c5 v=100
87840 On ch=1 n=c5 v=0
87840 On ch=1 n=g4 v=0
87840 On ch=1 n=d#4 v=0
87840 On ch=1 n=f3 v=110
88320 On ch=1 n=f3 v=0
88320 On ch=1 n=d5 v=100
88320 On ch=1 n=a#4 v=100
88320 On ch=1 n=f4 v=100
88800 On ch=1 n=f4 v=0
88800 On ch=1 n=a#4 v=0
88800 On ch=1 n=d5 v=0
88800 On ch=1 n=f4 v=100
88800 On ch=1 n=a#4 v=100
88800 On ch=1 n=d5 v=100
89280 On ch=1 n=d5 v=0
89280 On ch=1 n=a#4 v=0
89280 On ch=1 n=f4 v=0
89280 On ch=1 n=f3 v=110
89760 On ch=1 n=f3 v=0
89760 On ch=1 n=d#5 v=100
89760 On ch=1 n=a4 v=100
89760 On ch=1 n=f4 v=100
90240 On ch=1 n=f4 v=0
90240 On ch=1 n=a4 v=0
90240 On ch=1 n=d#5 v=0
90240 On ch=1 n=f4 v=100
90240 On ch=1 n=a4 v=100
90240 On ch=1 n=d#5 v=100
90720 On ch=1 n=d#5 v=0
90720 On ch=1 n=a4 v=0
90720 On ch=1 n=f4 v=0
90720 On ch=1 n=a#3 v=110
91200 On ch=1 n=a#3 v=0
91200 On ch=1 n=d5 v=100
91200 On ch=1 n=a#4 v=100
91200 On ch=1 n=f4 v=100
91680 On ch=1 n=f4 v=0
91680 On ch=1 n=a#4 v=0
91680 On ch=1 n=d5 v=0
92160 On ch=1 n=g3 v=110
92640 On ch=1 n=g3 v=0
92640 On ch=1 n=d#5 v=100
92640 On ch=1 n=a#4 v=100
92640 On ch=1 n=d#4 v=100
93120 On ch=1 n=d#4 v=0
93120 On ch=1 n=a#4 v=0
93120 On ch=1 n=d#5 v=0
93120 On ch=1 n=d#4 v=100
93120 On ch=1 n=a#4 v=100
93120 On ch=1 n=d#5 v=100
93600 On ch=1 n=d#5 v=0
93600 On ch=1 n=a#4 v=0
93600 On ch=1 n=d#4 v=0
93600 On ch=1 n=a3 v=110
94080 On ch=1 n=a3 v=0
94080 On ch=1 n=d#5 v=100
94080 On ch=1 n=c5 v=100
94080 On ch=1 n=f4 v=100
94560 On ch=1 n=f4 v=0
94560 On ch=1 n=c5 v=0
94560 On ch=1 n=d#5 v=0
94560 On ch=1 n=c5 v=100
94560 On ch=1 n=d#5 v=100
94560 On ch=1 n=f4 v=100
95040 On ch=1 n=f4 v=0
95040 On ch=1 n=d#5 v=0
95040 On ch=1 n=c5 v=0
95040 On ch=1 n=a#3 v=110
95520 On ch=1 n=a#3 v=0
95520 On ch=1 n=d5 v=100
95520 On ch=1 n=a#4 v=100
95520 On ch=1 n=f4 v=100
96000 On ch=1 n=f4 v=0
96000 On ch=1 n=a#4 v=0
96000 On ch=1 n=d5 v=0
96000 On ch=1 n=a#4 v=100
96000 On ch=1 n=d5 v=100
96000 On ch=1 n=f4 v=100
96480 On ch=1 n=f4 v=0
96480 On ch=1 n=d5 v=0
96480 On ch=1 n=a#4 v=0
96480 On ch=1 n=d#3 v=110
96960 On ch=1 n=d#3 v=0
96960 On ch=1 n=c5 v=100
96960 On ch=1 n=g4 v=100
96960 On ch=1 n=d#4 v=100
97440 On ch=1 n=d#4 v=0
97440 On ch=1 n=g4 v=0
97440 On ch=1 n=c5 v=0
97440 On ch=1 n=d#4 v=100
97440 On ch=1 n=g4 v=100
97440 On ch=1 n=c5 v=100
97920 On ch=1 n=c5 v=0
97920 On ch=1 n=g4 v=0
97920 On ch=1 n=d#4 v=0
97920 On ch=1 n=f3 v=110
98400 On ch=1 n=f3 v=0
98400 On ch=1 n=d5 v=100
98400 On ch=1 n=f4 v=100
98880 On ch=1 n=f4 v=0
98880 On ch=1 n=d5 v=0
98880 On ch=1 n=f4 v=100
98880 On ch=1 n=d5 v=100
99360 On ch=1 n=d5 v=0
99360 On ch=1 n=f4 v=0
99360 On ch=1 n=f3 v=110
99840 On ch=1 n=f3 v=0
99840 On ch=1 n=d5 v=100
99840 On ch=1 n=a#4 v=100
99840 On ch=1 n=f4 v=100
100320 On ch=1 n=f4 v=0
100320 On ch=1 n=a#4 v=0
100320 On ch=1 n=d5 v=0
100320 On ch=1 n=f4 v=100
100320 On ch=1 n=a#4 v=100
100320 On ch=1 n=d5 v=100
100800 On ch=1 n=d5 v=0
100800 On ch=1 n=a#4 v=0
100800 On ch=1 n=f4 v=0
100800 On ch=1 n=f3 v=110
101280 On ch=1 n=f3 v=0
101280 On ch=1 n=d#5 v=100
101280 On ch=1 n=a4 v=100
101280 On ch=1 n=f4 v=100
101760 On ch=1 n=f4 v=0
101760 On ch=1 n=a4 v=0
101760 On ch=1 n=d#5 v=0
101760 On ch=1 n=f4 v=100
101760 On ch=1 n=a4 v=100
101760 On ch=1 n=d#5 v=100
102240 On ch=1 n=d#5 v=0
102240 On ch=1 n=a4 v=0
102240 On ch=1 n=f4 v=0
102240 On ch=1 n=a#3 v=110
102720 On ch=1 n=a#3 v=0
102720 On ch=1 n=d5 v=100
102720 On ch=1 n=a#4 v=100
102720 On ch=1 n=f4 v=100
103200 On ch=1 n=f4 v=0
103200 On ch=1 n=a#4 v=0
103200 On ch=1 n=d5 v=0
103200 On ch=1 n=f4 v=100
103200 On ch=1 n=a#4 v=100
103200 On ch=1 n=d5 v=100
103680 On ch=1 n=d5 v=0
103680 On ch=1 n=a#4 v=0
103680 On ch=1 n=f4 v=0
103680 On ch=1 n=g3 v=110
104160 On ch=1 n=g3 v=0
104160 On ch=1 n=d#5 v=100
104160 On ch=1 n=a#4 v=100
104160 On ch=1 n=d#4 v=100
104640 On ch=1 n=d#4 v=0
104640 On ch=1 n=a#4 v=0
104640 On ch=1 n=d#5 v=0
104640 On ch=1 n=d#4 v=100
104640 On ch=1 n=a#4 v=100
104640 On ch=1 n=d#5 v=100
105120 On ch=1 n=d#5 v=0
105120 On ch=1 n=a#4 v=0
105120 On ch=1 n=d#4 v=0
105120 On ch=1 n=a3 v=110
105600 On ch=1 n=a3 v=0
105600 On ch=1 n=d#5 v=100
105600 On ch=1 n=c5 v=100
105600 On ch=1 n=f4 v=100
106080 On ch=1 n=f4 v=0
106080 On ch=1 n=c5 v=0
106080 On ch=1 n=d#5 v=0
106080 On ch=1 n=f4 v=100
106080 On ch=1 n=c5 v=100
106080 On ch=1 n=d#5 v=100
106560 On ch=1 n=d#5 v=0
106560 On ch=1 n=c5 v=0
106560 On ch=1 n=f4 v=0
106560 On ch=1 n=f#3 v=110
107040 On ch=1 n=f#3 v=0
107040 On ch=1 n=d5 v=100
107040 On ch=1 n=a4 v=100
107040 On ch=1 n=f#4 v=100
107520 On ch=1 n=f#4 v=0
107520 On ch=1 n=a4 v=0
107520 On ch=1 n=d5 v=0
107520 On ch=1 n=f#4 v=100
107520 On ch=1 n=a4 v=100
107520 On ch=1 n=d5 v=100
108000 On ch=1 n=d5 v=0
108000 On ch=1 n=a4 v=0
108000 On ch=1 n=f#4 v=0
108000 On ch=1 n=f3 v=110
108480 On ch=1 n=f3 v=0
108480 On ch=1 n=d5 v=100
108480 On ch=1 n=b4 v=100
108480 On ch=1 n=g#4 v=100
108480 On ch=1 n=f4 v=100
108960 On ch=1 n=f4 v=0
108960 On ch=1 n=g#4 v=0
108960 On ch=1 n=b4 v=0
108960 On ch=1 n=d5 v=0
108960 On ch=1 n=f4 v=100
108960 On ch=1 n=g#4 v=100
108960 On ch=1 n=b4 v=100
108960 On ch=1 n=d5 v=100
109440 On ch=1 n=d5 v=0
109440 On ch=1 n=b4 v=0
109440 On ch=1 n=g#4 v=0
109440 On ch=1 n=f4 v=0
109440 On ch=1 n=d#3 v=110
109920 On ch=1 n=d#3 v=0
109920 On ch=1 n=c5 v=100
109920 On ch=1 n=g4 v=100
109920 On ch=1 n=d#4 v=100
110400 On ch=1 n=d#4 v=0
110400 On ch=1 n=g4 v=0
110400 On ch=1 n=c5 v=0
110400 On ch=1 n=d#4 v=100
110400 On ch=1 n=g4 v=100
110400 On ch=1 n=c5 v=100
110880 On ch=1 n=c5 v=0
110880 On ch=1 n=g4 v=0
110880 On ch=1 n=d#4 v=0
110880 On ch=1 n=f3 v=110
111360 On ch=1 n=f3 v=0
111360 On ch=1 n=d5 v=102
111360 On ch=1 n=a#4 v=102
111360 On ch=1 n=f4 v=102
111840 On ch=1 n=f4 v=0
111840 On ch=1 n=a#4 v=0
111840 On ch=1 n=d5 v=0
111840 On ch=1 n=f4 v=105
111840 On ch=1 n=a#4 v=105
111840 On ch=1 n=d5 v=105
112320 On ch=1 n=d5 v=0
112320 On ch=1 n=a#4 v=0
112320 On ch=1 n=f4 v=0
112320 On ch=1 n=f3 v=118
112800 On ch=1 n=f3 v=0
112800 On ch=1 n=d#5 v=111
112800 On ch=1 n=a4 v=111
112800 On ch=1 n=f4 v=111
113280 On ch=1 n=f4 v=0
113280 On ch=1 n=a4 v=0
113280 On ch=1 n=d#5 v=0
113280 On ch=1 n=f4 v=114
113280 On ch=1 n=a4 v=114
113280 On ch=1 n=d#5 v=114
113760 On ch=1 n=d#5 v=0
113760 On ch=1 n=a4 v=0
113760 On ch=1 n=f4 v=0
113760 On ch=1 n=a#3 v=127
114240 On ch=1 n=a#3 v=0
114240 On ch=1 n=d5 v=120
114240 On ch=1 n=a#4 v=120
114240 On ch=1 n=f4 v=120
114720 On ch=1 n=f4 v=0
114720 On ch=1 n=a#4 v=0
114720 On ch=1 n=d5 v=0
115200 On ch=1 n=f3 v=110
115680 On ch=1 n=f3 v=0
115680 On ch=1 n=d#5 v=100
115680 On ch=1 n=a#4 v=100
115680 On ch=1 n=f#4 v=100
116160 On ch=1 n=f#4 v=0
116160 On ch=1 n=a#4 v=0
116160 On ch=1 n=d#5 v=0
116160 On ch=1 n=f#4 v=100
116160 On ch=1 n=a#4 v=100
116160 On ch=1 n=d#5 v=100
116640 On ch=1 n=d#5 v=0
116640 On ch=1 n=a#4 v=0
116640 On ch=1 n=f#4 v=0
116640 On ch=1 n=f3 v=110
117120 On ch=1 n=f3 v=0
117120 On ch=1 n=d#5 v=100
117120 On ch=1 n=a4 v=100
117120 On ch=1 n=f4 v=100
117600 On ch=1 n=f4 v=0
117600 On ch=1 n=a4 v=0
117600 On ch=1 n=d#5 v=0
117600 On ch=1 n=f4 v=100
117600 On ch=1 n=a4 v=100
117600 On ch=1 n=d#5 v=100
118080 On ch=1 n=d#5 v=0
118080 On ch=1 n=a4 v=0
118080 On ch=1 n=f4 v=0
118080 On ch=1 n=a#3 v=70
118560 On ch=1 n=a#3 v=0
118560 On ch=1 n=d5 v=60
118560 On ch=1 n=a#4 v=60
118560 On ch=1 n=f4 v=60
119040 On ch=1 n=f4 v=0
119040 On ch=1 n=a#4 v=0
119040 On ch=1 n=d5 v=0
119040 On ch=1 n=f4 v=60
119040 On ch=1 n=a#4 v=60
119040 On ch=1 n=d5 v=60
119520 On ch=1 n=d5 v=0
119520 On ch=1 n=a#4 v=0
119520 On ch=1 n=f4 v=0
119520 On ch=1 n=f4 v=60
119520 On ch=1 n=d5 v=60
119520 On ch=1 n=a#4 v=60
120000 On ch=1 n=a#4 v=0
120000 On ch=1 n=d5 v=0
120000 On ch=1 n=f4 v=0
120000 On ch=1 n=f4 v=60
120000 On ch=1 n=d5 v=60
120000 On ch=1 n=a#4 v=60
120480 On ch=1 n=a#4 v=0
120480 On ch=1 n=d5 v=0
120480 On ch=1 n=f4 v=0
120480 On ch=1 n=f4 v=60
120480 On ch=1 n=d5 v=60
120480 On ch=1 n=a#4 v=60
120960 On ch=1 n=a#4 v=0
120960 On ch=1 n=d5 v=0
120960 On ch=1 n=f4 v=0
120960 On ch=1 n=f3 v=110
121440 On ch=1 n=f3 v=0
121440 On ch=1 n=d#5 v=100
121440 On ch=1 n=a#4 v=100
121440 On ch=1 n=f#4 v=100
121920 On ch=1 n=f#4 v=0
121920 On ch=1 n=a#4 v=0
121920 On ch=1 n=d#5 v=0
121920 On ch=1 n=f#4 v=100
121920 On ch=1 n=a#4 v=100
121920 On ch=1 n=d#5 v=100
122400 On ch=1 n=d#5 v=0
122400 On ch=1 n=a#4 v=0
122400 On ch=1 n=f#4 v=0
122400 On ch=1 n=f3 v=110
122880 On ch=1 n=f3 v=0
122880 On ch=1 n=d#5 v=100
122880 On ch=1 n=a4 v=100
122880 On ch=1 n=f4 v=100
123360 On ch=1 n=f4 v=0
123360 On ch=1 n=a4 v=0
123360 On ch=1 n=d#5 v=0
123360 On ch=1 n=f4 v=100
123360 On ch=1 n=a4 v=100
123360 On ch=1 n=d#5 v=100
123840 On ch=1 n=d#5 v=0
123840 On ch=1 n=a4 v=0
123840 On ch=1 n=f4 v=0
123840 On ch=1 n=a#3 v=70
124320 On ch=1 n=a#3 v=0
124320 On ch=1 n=d5 v=60
124320 On ch=1 n=a#4 v=60
124320 On ch=1 n=f4 v=60
124800 On ch=1 n=f4 v=0
124800 On ch=1 n=a#4 v=0
124800 On ch=1 n=d5 v=0
124800 On ch=1 n=f4 v=60
124800 On ch=1 n=a#4 v=60
124800 On ch=1 n=d5 v=60
125280 On ch=1 n=d5 v=0
125280 On ch=1 n=a#4 v=0
125280 On ch=1 n=f4 v=0
125280 On ch=1 n=f4 v=60
125280 On ch=1 n=d5 v=60
125280 On ch=1 n=a#4 v=60
125760 On ch=1 n=a#4 v=0
125760 On ch=1 n=d5 v=0
125760 On ch=1 n=f4 v=0
125760 On ch=1 n=f4 v=60
125760 On ch=1 n=d5 v=60
125760 On ch=1 n=a#4 v=60
126240 On ch=1 n=a#4 v=0
126240 On ch=1 n=d5 v=0
126240 On ch=1 n=f4 v=0
126240 On ch=1 n=f4 v=60
126240 On ch=1 n=d5 v=60
126240 On ch=1 n=a#4 v=60
126720 On ch=1 n=a#4 v=0
126720 On ch=1 n=d5 v=0
126720 On ch=1 n=f4 v=0
126720 On ch=1 n=f3 v=110
127200 On ch=1 n=f3 v=0
127200 On ch=1 n=d#5 v=100
127200 On ch=1 n=a#4 v=100
127200 On ch=1 n=f#4 v=100
127680 On ch=1 n=f#4 v=0
127680 On ch=1 n=a#4 v=0
127680 On ch=1 n=d#5 v=0
127680 On ch=1 n=f#4 v=100
127680 On ch=1 n=a#4 v=100
127680 On ch=1 n=d#5 v=100
128160 On ch=1 n=d#5 v=0
128160 On ch=1 n=a#4 v=0
128160 On ch=1 n=f#4 v=0
128160 On ch=1 n=f3 v=110
128640 On ch=1 n=f3 v=0
128640 On ch=1 n=d#5 v=100
128640 On ch=1 n=a4 v=100
128640 On ch=1 n=f4 v=100
129120 On ch=1 n=f4 v=0
129120 On ch=1 n=a4 v=0
129120 On ch=1 n=d#5 v=0
129120 On ch=1 n=f4 v=100
129120 On ch=1 n=a4 v=100
129120 On ch=1 n=d#5 v=100
129600 On ch=1 n=d#5 v=0
129600 On ch=1 n=a4 v=0
129600 On ch=1 n=f4 v=0
129600 On ch=1 n=a#3 v=70
130080 On ch=1 n=a#3 v=0
130080 On ch=1 n=d5 v=60
130080 On ch=1 n=a#4 v=60
130080 On ch=1 n=f4 v=60
130560 On ch=1 n=f4 v=0
130560 On ch=1 n=a#4 v=0
130560 On ch=1 n=d5 v=0
130560 On ch=1 n=f4 v=60
130560 On ch=1 n=a#4 v=60
130560 On ch=1 n=d5 v=60
131040 On ch=1 n=d5 v=0
131040 On ch=1 n=a#4 v=0
131040 On ch=1 n=f4 v=0
131040 On ch=1 n=f4 v=60
131040 On ch=1 n=d5 v=60
131040 On ch=1 n=a#4 v=60
131040 On ch=1 n=g4 v=60
131520 On ch=1 n=g4 v=0
131520 On ch=1 n=a#4 v=0
131520 On ch=1 n=d5 v=0
131520 On ch=1 n=f4 v=0
131520 On ch=1 n=f4 v=60
131520 On ch=1 n=g4 v=60
131520 On ch=1 n=d5 v=60
131520 On ch=1 n=a#4 v=60
132000 On ch=1 n=a#3 v=60
132480 On ch=1 n=a#3 v=0
132480 On ch=1 n=a#4 v=0
132480 On ch=1 n=d5 v=0
132480 On ch=1 n=g4 v=0
132480 On ch=1 n=f4 v=0
132480 On ch=1 n=c4 v=70
132960 On ch=1 n=c4 v=0
133920 On ch=1 n=f4 v=70
134400 On ch=1 n=e5 v=60
134400 On ch=1 n=a4 v=60
134880 On ch=1 n=a4 v=0
134880 On ch=1 n=e5 v=0
134880 On ch=1 n=d5 v=60
134880 On ch=1 n=a4 v=60
135360 On ch=1 n=a4 v=0
135360 On ch=1 n=d5 v=0
135360 On ch=1 n=f4 v=0
135360 On ch=1 n=c4 v=70
135840 On ch=1 n=c4 v=0
136800 On ch=1 n=f4 v=70
137280 On ch=1 n=g5 v=60
137280 On ch=1 n=c5 v=60
137280 On ch=1 n=a4 v=60
137760 On ch=1 n=a4 v=0
137760 On ch=1 n=c5 v=0
137760 On ch=1 n=g5 v=0
137760 On ch=1 n=f5 v=60
137760 On ch=1 n=c5 v=60
137760 On ch=1 n=a4 v=60
138240 On ch=1 n=a4 v=0
138240 On ch=1 n=c5 v=0
138240 On ch=1 n=f5 v=0
138240 On ch=1 n=f4 v=0
138240 On ch=1 n=f3 v=110
138720 On ch=1 n=f3 v=0
138720 On ch=1 n=d#5 v=100
138720 On ch=1 n=a#4 v=100
138720 On ch=1 n=f#4 v=100
139200 On ch=1 n=f#4 v=0
139200 On ch=1 n=a#4 v=0
139200 On ch=1 n=d#5 v=0
139200 On ch=1 n=f#4 v=100
139200 On ch=1 n=a#4 v=100
139200 On ch=1 n=d#5 v=100
139680 On ch=1 n=d#5 v=0
139680 On ch=1 n=a#4 v=0
139680 On ch=1 n=f#4 v=0
139680 On ch=1 n=f3 v=110
140160 On ch=1 n=f3 v=0
140160 On ch=1 n=d#5 v=100
140160 On ch=1 n=a4 v=100
140160 On ch=1 n=f4 v=100
140640 On ch=1 n=f4 v=0
140640 On ch=1 n=a4 v=0
140640 On ch=1 n=d#5 v=0
140640 On ch=1 n=f4 v=100
140640 On ch=1 n=a4 v=100
140640 On ch=1 n=d#5 v=100
141120 On ch=1 n=d#5 v=0
141120 On ch=1 n=a4 v=0
141120 On ch=1 n=f4 v=0
141120 On ch=1 n=a#3 v=70
141600 On ch=1 n=a#3 v=0
141600 On ch=1 n=d5 v=60
141600 On ch=1 n=a#4 v=60
141600 On ch=1 n=f4 v=60
142080 On ch=1 n=f4 v=0
142080 On ch=1 n=a#4 v=0
142080 On ch=1 n=d5 v=0
142080 On ch=1 n=f4 v=60
142080 On ch=1 n=a#4 v=60
142080 On ch=1 n=d5 v=60
142560 On ch=1 n=d5 v=0
142560 On ch=1 n=a#4 v=0
142560 On ch=1 n=f4 v=0
142560 On ch=1 n=f4 v=60
142560 On ch=1 n=d5 v=60
142560 On ch=1 n=a#4 v=60
143040 On ch=1 n=a#4 v=0
143040 On ch=1 n=d5 v=0
143040 On ch=1 n=f4 v=0
143040 On ch=1 n=f4 v=60
143040 On ch=1 n=d5 v=60
143040 On ch=1 n=a#4 v=60
143520 On ch=1 n=a#4 v=0
143520 On ch=1 n=d5 v=0
143520 On ch=1 n=f4 v=0
143520 On ch=1 n=f4 v=60
143520 On ch=1 n=d5 v=60
143520 On ch=1 n=a#4 v=60
144000 On ch=1 n=a#4 v=0
144000 On ch=1 n=d5 v=0
144000 On ch=1 n=f4 v=0
144000 On ch=1 n=f3 v=110
144480 On ch=1 n=f3 v=0
144480 On ch=1 n=d#5 v=100
144480 On ch=1 n=a#4 v=100
144480 On ch=1 n=f#4 v=100
144960 On ch=1 n=f#4 v=0
144960 On ch=1 n=a#4 v=0
144960 On ch=1 n=d#5 v=0
144960 On ch=1 n=f#4 v=100
144960 On ch=1 n=a#4 v=100
144960 On ch=1 n=d#5 v=100
145440 On ch=1 n=d#5 v=0
145440 On ch=1 n=a#4 v=0
145440 On ch=1 n=f#4 v=0
145440 On ch=1 n=f3 v=110
145920 On ch=1 n=f3 v=0
145920 On ch=1 n=d#5 v=100
145920 On ch=1 n=a4 v=100
145920 On ch=1 n=f4 v=100
146400 On ch=1 n=f4 v=0
146400 On ch=1 n=a4 v=0
146400 On ch=1 n=d#5 v=0
146400 On ch=1 n=f4 v=100
146400 On ch=1 n=a4 v=100
146400 On ch=1 n=d#5 v=100
146880 On ch=1 n=d#5 v=0
146880 On ch=1 n=a4 v=0
146880 On ch=1 n=f4 v=0
146880 On ch=1 n=a#3 v=70
147360 On ch=1 n=a#3 v=0
147360 On ch=1 n=d5 v=60
147360 On ch=1 n=a#4 v=60
147360 On ch=1 n=f4 v=60
147840 On ch=1 n=f4 v=0
147840 On ch=1 n=a#4 v=0
147840 On ch=1 n=d5 v=0
147840 On ch=1 n=f4 v=60
147840 On ch=1 n=a#4 v=60
147840 On ch=1 n=d5 v=60
148320 On ch=1 n=d5 v=0
148320 On ch=1 n=a#4 v=0
148320 On ch=1 n=f4 v=0
148320 On ch=1 n=f4 v=60
148320 On ch=1 n=d5 v=60
148320 On ch=1 n=a#4 v=60
148800 On ch=1 n=a#4 v=0
148800 On ch=1 n=d5 v=0
148800 On ch=1 n=f4 v=0
148800 On ch=1 n=f4 v=60
148800 On ch=1 n=d5 v=60
148800 On ch=1 n=a#4 v=60
149280 On ch=1 n=a#4 v=0
149280 On ch=1 n=d5 v=0
149280 On ch=1 n=f4 v=0
149280 On ch=1 n=f4 v=60
149280 On ch=1 n=d5 v=60
149280 On ch=1 n=a#4 v=60
149760 On ch=1 n=a#4 v=0
149760 On ch=1 n=d5 v=0
149760 On ch=1 n=f4 v=0
149760 On ch=1 n=f3 v=110
150240 On ch=1 n=f3 v=0
150240 On ch=1 n=d#5 v=100
150240 On ch=1 n=a#4 v=100
150240 On ch=1 n=f#4 v=100
150720 On ch=1 n=f#4 v=0
150720 On ch=1 n=a#4 v=0
150720 On ch=1 n=d#5 v=0
150720 On ch=1 n=f#4 v=100
150720 On ch=1 n=a#4 v=100
150720 On ch=1 n=d#5 v=100
151200 On ch=1 n=d#5 v=0
151200 On ch=1 n=a#4 v=0
151200 On ch=1 n=f#4 v=0
151200 On ch=1 n=f3 v=110
151680 On ch=1 n=f3 v=0
151680 On ch=1 n=d#5 v=100
151680 On ch=1 n=a4 v=100
151680 On ch=1 n=f4 v=100
152160 On ch=1 n=f4 v=0
152160 On ch=1 n=a4 v=0
152160 On ch=1 n=d#5 v=0
152160 On ch=1 n=f4 v=100
152160 On ch=1 n=a4 v=100
152160 On ch=1 n=d#5 v=100
152640 On ch=1 n=d#5 v=0
152640 On ch=1 n=a4 v=0
152640 On ch=1 n=f4 v=0
152640 On ch=1 n=a#3 v=70
153120 On ch=1 n=a#3 v=0
153120 On ch=1 n=d5 v=60
153120 On ch=1 n=a#4 v=60
153120 On ch=1 n=f4 v=60
153600 On ch=1 n=f4 v=0
153600 On ch=1 n=a#4 v=0
153600 On ch=1 n=d5 v=0
153600 On ch=1 n=f4 v=60
153600 On ch=1 n=a#4 v=60
153600 On ch=1 n=d5 v=60
154080 On ch=1 n=d5 v=0
154080 On ch=1 n=a#4 v=0
154080 On ch=1 n=f4 v=0
154080 On ch=1 n=f4 v=60
154080 On ch=1 n=d5 v=60
154080 On ch=1 n=a#4 v=60
154080 On ch=1 n=g4 v=60
154560 On ch=1 n=g4 v=0
154560 On ch=1 n=a#4 v=0
154560 On ch=1 n=d5 v=0
154560 On ch=1 n=f4 v=0
154560 On ch=1 n=f4 v=60
154560 On ch=1 n=g4 v=60
154560 On ch=1 n=d5 v=60
154560 On ch=1 n=a#4 v=60
155040 On ch=1 n=a#3 v=60
155520 On ch=1 n=a#3 v=0
155520 On ch=1 n=a#4 v=0
155520 On ch=1 n=d5 v=0
155520 On ch=1 n=g4 v=0
155520 On ch=1 n=f4 v=0
155520 On ch=1 n=c4 v=70
156000 On ch=1 n=c4 v=0
156960 On ch=1 n=f4 v=70
157440 On ch=1 n=e5 v=60
157440 On ch=1 n=a4 v=60
157920 On ch=1 n=a4 v=0
157920 On ch=1 n=e5 v=0
157920 On ch=1 n=d5 v=60
157920 On ch=1 n=a4 v=60
158400 On ch=1 n=a4 v=0
158400 On ch=1 n=d5 v=0
158400 On ch=1 n=f4 v=0
158400 On ch=1 n=c4 v=70
158880 On ch=1 n=c4 v=0
159840 On ch=1 n=f4 v=70
160320 On ch=1 n=g5 v=60
160320 On ch=1 n=c5 v=60
160320 On ch=1 n=a4 v=60
160800 On ch=1 n=a4 v=0
160800 On ch=1 n=c5 v=0
160800 On ch=1 n=g5 v=0
160800 On ch=1 n=f5 v=60
160800 On ch=1 n=c5 v=60
160800 On ch=1 n=a4 v=60
161280 On ch=1 n=a4 v=0
161280 On ch=1 n=c5 v=0
161280 On ch=1 n=f5 v=0
161280 On ch=1 n=f4 v=0
161280 On ch=1 n=g#3 v=70
161760 On ch=1 n=g#3 v=0
161760 On ch=1 n=f#5 v=60
161760 On ch=1 n=c5 v=60
161760 On ch=1 n=g#4 v=60
162240 On ch=1 n=g#4 v=0
162240 On ch=1 n=c5 v=0
162240 On ch=1 n=f#5 v=0
162240 On ch=1 n=g#4 v=60
162240 On ch=1 n=c5 v=60
162240 On ch=1 n=f#5 v=60
162720 On ch=1 n=f#5 v=0
162720 On ch=1 n=c5 v=0
162720 On ch=1 n=g#4 v=0
162720 On ch=1 n=f#5 v=60
162720 On ch=1 n=c5 v=60
162720 On ch=1 n=g#4 v=60
163200 On ch=1 n=g#4 v=0
163200 On ch=1 n=c5 v=0
163200 On ch=1 n=f#5 v=0
163200 On ch=1 n=g#4 v=60
163200 On ch=1 n=c5 v=60
163200 On ch=1 n=f#5 v=60
163680 On ch=1 n=f#5 v=0
163680 On ch=1 n=c5 v=0
163680 On ch=1 n=g#4 v=0
163680 On ch=1 n=g#4 v=60
163680 On ch=1 n=c5 v=60
163680 On ch=1 n=f#5 v=60
164160 On ch=1 n=f#5 v=0
164160 On ch=1 n=c5 v=0
164160 On ch=1 n=g#4 v=0
164160 On ch=1 n=c#4 v=70
164640 On ch=1 n=c#4 v=0
164640 On ch=1 n=f5 v=60
164640 On ch=1 n=c#5 v=60
164640 On ch=1 n=g#4 v=60
165120 On ch=1 n=g#4 v=0
165120 On ch=1 n=c#5 v=0
165120 On ch=1 n=f5 v=0
165120 On ch=1 n=f5 v=60
165120 On ch=1 n=c#5 v=60
165120 On ch=1 n=g#4 v=60
165600 On ch=1 n=g#4 v=0
165600 On ch=1 n=c#5 v=0
165600 On ch=1 n=f5 v=0
165600 On ch=1 n=g#4 v=60
165600 On ch=1 n=c#5 v=60
165600 On ch=1 n=f5 v=60
166080 On ch=1 n=f5 v=0
166080 On ch=1 n=c#5 v=0
166080 On ch=1 n=g#4 v=0
166080 On ch=1 n=g#4 v=60
166080 On ch=1 n=c#5 v=60
166080 On ch=1 n=f5 v=60
166560 On ch=1 n=f5 v=0
166560 On ch=1 n=c#5 v=0
166560 On ch=1 n=g#4 v=0
166560 On ch=1 n=g#4 v=60
166560 On ch=1 n=c#5 v=60
166560 On ch=1 n=f5 v=60
167040 On ch=1 n=f5 v=0
167040 On ch=1 n=c#5 v=0
167040 On ch=1 n=g#4 v=0
167040 On ch=1 n=g#3 v=70
167520 On ch=1 n=g#3 v=0
167520 On ch=1 n=f#5 v=60
167520 On ch=1 n=c5 v=60
167520 On ch=1 n=g#4 v=60
168000 On ch=1 n=g#4 v=0
168000 On ch=1 n=c5 v=0
168000 On ch=1 n=f#5 v=0
168000 On ch=1 n=g#4 v=60
168000 On ch=1 n=c5 v=60
168000 On ch=1 n=f#5 v=60
168480 On ch=1 n=f#5 v=0
168480 On ch=1 n=c5 v=0
168480 On ch=1 n=g#4 v=0
168480 On ch=1 n=f#5 v=60
168480 On ch=1 n=c5 v=60
168480 On ch=1 n=g#4 v=60
168960 On ch=1 n=g#4 v=0
168960 On ch=1 n=c5 v=0
168960 On ch=1 n=f#5 v=0
168960 On ch=1 n=g#4 v=60
168960 On ch=1 n=c5 v=60
168960 On ch=1 n=f#5 v=60
169440 On ch=1 n=f#5 v=0
169440 On ch=1 n=c5 v=0
169440 On ch=1 n=g#4 v=0
169440 On ch=1 n=g#4 v=60
169440 On ch=1 n=c5 v=60
169440 On ch=1 n=f#5 v=60
169920 On ch=1 n=f#5 v=0
169920 On ch=1 n=c5 v=0
169920 On ch=1 n=g#4 v=0
169920 On ch=1 n=c#4 v=70
170400 On ch=1 n=c#4 v=0
170400 On ch=1 n=f5 v=60
170400 On ch=1 n=c#5 v=60
170400 On ch=1 n=g#4 v=60
170880 On ch=1 n=g#4 v=0
170880 On ch=1 n=c#5 v=0
170880 On ch=1 n=f5 v=0
170880 On ch=1 n=f5 v=60
170880 On ch=1 n=c#5 v=60
170880 On ch=1 n=g#4 v=60
171360 On ch=1 n=g#4 v=0
171360 On ch=1 n=c#5 v=0
171360 On ch=1 n=f5 v=0
171360 On ch=1 n=g#4 v=60
171360 On ch=1 n=c#5 v=60
171360 On ch=1 n=f5 v=60
171840 On ch=1 n=f5 v=0
171840 On ch=1 n=c#5 v=0
171840 On ch=1 n=g#4 v=0
171840 On ch=1 n=g#4 v=60
171840 On ch=1 n=c#5 v=60
171840 On ch=1 n=f5 v=60
172320 On ch=1 n=f5 v=0
172320 On ch=1 n=c#5 v=0
172320 On ch=1 n=g#4 v=0
172320 On ch=1 n=g#4 v=60
172320 On ch=1 n=c#5 v=60
172320 On ch=1 n=f5 v=60
172800 On ch=1 n=f5 v=0
172800 On ch=1 n=c#5 v=0
172800 On ch=1 n=g#4 v=0
172800 On ch=1 n=g#3 v=70
173280 On ch=1 n=g#3 v=0
173280 On ch=1 n=f#5 v=60
173280 On ch=1 n=c5 v=60
173280 On ch=1 n=g#4 v=60
173760 On ch=1 n=g#4 v=0
173760 On ch=1 n=c5 v=0
173760 On ch=1 n=f#5 v=0
173760 On ch=1 n=g#4 v=60
173760 On ch=1 n=c5 v=60
173760 On ch=1 n=f#5 v=60
174240 On ch=1 n=f#5 v=0
174240 On ch=1 n=c5 v=0
174240 On ch=1 n=g#4 v=0
174240 On ch=1 n=f#5 v=60
174240 On ch=1 n=c5 v=60
174240 On ch=1 n=g#4 v=60
174720 On ch=1 n=g#4 v=0
174720 On ch=1 n=c5 v=0
174720 On ch=1 n=f#5 v=0
174720 On ch=1 n=g#4 v=60
174720 On ch=1 n=c5 v=60
174720 On ch=1 n=f#5 v=60
175200 On ch=1 n=f#5 v=0
175200 On ch=1 n=c5 v=0
175200 On ch=1 n=g#4 v=0
175200 On ch=1 n=g#4 v=60
175200 On ch=1 n=c5 v=60
175200 On ch=1 n=f#5 v=60
175680 On ch=1 n=f#5 v=0
175680 On ch=1 n=c5 v=0
175680 On ch=1 n=g#4 v=0
175680 On ch=1 n=c#4 v=70
176160 On ch=1 n=c#4 v=0
176160 On ch=1 n=f5 v=60
176160 On ch=1 n=c#5 v=60
176160 On ch=1 n=g#4 v=60
176640 On ch=1 n=g#4 v=0
176640 On ch=1 n=c#5 v=0
176640 On ch=1 n=f5 v=0
176640 On ch=1 n=f5 v=60
176640 On ch=1 n=c#5 v=60
176640 On ch=1 n=g#4 v=60
177120 On ch=1 n=g#4 v=0
177120 On ch=1 n=c#5 v=0
177120 On ch=1 n=f5 v=0
177120 On ch=1 n=g#4 v=60
177120 On ch=1 n=c#5 v=60
177120 On ch=1 n=f5 v=60
177600 On ch=1 n=f5 v=0
177600 On ch=1 n=c#5 v=0
177600 On ch=1 n=g#4 v=0
177600 On ch=1 n=g#4 v=60
177600 On ch=1 n=f5 v=60
178080 On ch=1 n=f5 v=0
178080 On ch=1 n=g#4 v=0
178080 On ch=1 n=g#4 v=60
178080 On ch=1 n=f5 v=60
178560 On ch=1 n=f5 v=0
178560 On ch=1 n=g#4 v=0
178560 On ch=1 n=c#4 v=70
179040 On ch=1 n=c#4 v=0
179040 On ch=1 n=f5 v=60
179040 On ch=1 n=g4 v=60
179520 On ch=1 n=g4 v=0
179520 On ch=1 n=f5 v=0
179520 On ch=1 n=f5 v=60
179520 On ch=1 n=g4 v=60
180000 On ch=1 n=g4 v=0
180000 On ch=1 n=f5 v=0
180000 On ch=1 n=c4 v=70
180480 On ch=1 n=c4 v=0
180480 On ch=1 n=e5 v=60
180480 On ch=1 n=c5 v=60
180480 On ch=1 n=g4 v=60
180960 On ch=1 n=g4 v=0
180960 On ch=1 n=c5 v=0
180960 On ch=1 n=e5 v=0
180960 On ch=1 n=c5 v=60
180960 On ch=1 n=e5 v=60
180960 On ch=1 n=g4 v=60
181440 On ch=1 n=g4 v=0
181440 On ch=1 n=e5 v=0
181440 On ch=1 n=c5 v=0
181440 On ch=1 n=c4 v=70
181920 On ch=1 n=c4 v=0
181920 On ch=1 n=f5 v=63
181920 On ch=1 n=d5 v=63
181920 On ch=1 n=g4 v=63
182400 On ch=1 n=g4 v=0
182400 On ch=1 n=d5 v=0
182400 On ch=1 n=f5 v=0
182400 On ch=1 n=d5 v=67
182400 On ch=1 n=f5 v=67
182400 On ch=1 n=g4 v=67
182880 On ch=1 n=g4 v=0
182880 On ch=1 n=f5 v=0
182880 On ch=1 n=d5 v=0
182880 On ch=1 n=c4 v=80
183360 On ch=1 n=c4 v=0
183360 On ch=1 n=e5 v=74
183360 On ch=1 n=c5 v=74
183360 On ch=1 n=a#4 v=74
183360 On ch=1 n=g4 v=74
183840 On ch=1 n=g4 v=0
183840 On ch=1 n=a#4 v=0
183840 On ch=1 n=c5 v=0
183840 On ch=1 n=e5 v=0
183840 On ch=1 n=c5 v=77
183840 On ch=1 n=e5 v=77
183840 On ch=1 n=a#4 v=77
183840 On ch=1 n=g4 v=77
184320 On ch=1 n=g4 v=0
184320 On ch=1 n=a#4 v=0
184320 On ch=1 n=e5 v=0
184320 On ch=1 n=c5 v=0
184320 On ch=1 n=f4 v=90
184800 On ch=1 n=f5 v=80
184800 On ch=1 n=c5 v=80
184800 On ch=1 n=a4 v=80
185280 On ch=1 n=a4 v=0
185280 On ch=1 n=c5 v=0
185280 On ch=1 n=f5 v=0
185280 On ch=1 n=a#4 v=80
185280 On ch=1 n=d5 v=80
185280 On ch=1 n=f5 v=80
185760 On ch=1 n=f5 v=0
185760 On ch=1 n=d5 v=0
185760 On ch=1 n=a#4 v=0
185760 On ch=1 n=f4 v=0
185760 On ch=1 n=f4 v=90
186240 On ch=1 n=f5 v=80
186240 On ch=1 n=c5 v=80
186240 On ch=1 n=a4 v=80
186720 On ch=1 n=a4 v=0
186720 On ch=1 n=c5 v=0
186720 On ch=1 n=f5 v=0
186720 On ch=1 n=a#4 v=80
186720 On ch=1 n=d5 v=80
186720 On ch=1 n=f5 v=80
187200 On ch=1 n=f5 v=0
187200 On ch=1 n=d5 v=0
187200 On ch=1 n=a#4 v=0
187200 On ch=1 n=f4 v=0
187200 On ch=1 n=f4 v=90
187680 On ch=1 n=f5 v=80
187680 On ch=1 n=c5 v=80
187680 On ch=1 n=a4 v=80
188160 On ch=1 n=a4 v=0
188160 On ch=1 n=c5 v=0
188160 On ch=1 n=f5 v=0
188160 On ch=1 n=a#4 v=80
188160 On ch=1 n=d5 v=80
188160 On ch=1 n=f5 v=80
188640 On ch=1 n=f5 v=0
188640 On ch=1 n=d5 v=0
188640 On ch=1 n=a#4 v=0
188640 On ch=1 n=f4 v=0
188640 On ch=1 n=f4 v=90
189120 On ch=1 n=f5 v=80
189120 On ch=1 n=c5 v=80
189120 On ch=1 n=a4 v=80
189600 On ch=1 n=a4 v=0
189600 On ch=1 n=c5 v=0
189600 On ch=1 n=f5 v=0
189600 On ch=1 n=a4 v=80
189600 On ch=1 n=c5 v=80
189600 On ch=1 n=f5 v=80
190080 On ch=1 n=f5 v=0
190080 On ch=1 n=c5 v=0
190080 On ch=1 n=a4 v=0
190080 On ch=1 n=f4 v=0
190080 On ch=1 n=c4 v=90
190560 On ch=1 n=c4 v=0
190560 On ch=1 n=e5 v=80
190560 On ch=1 n=c5 v=80
190560 On ch=1 n=a#4 v=80
191040 On ch=1 n=a#4 v=0
191040 On ch=1 n=c5 v=0
191040 On ch=1 n=e5 v=0
191040 On ch=1 n=a#4 v=80
191040 On ch=1 n=c5 v=80
191040 On ch=1 n=e5 v=80
191520 On ch=1 n=e5 v=0
191520 On ch=1 n=c5 v=0
191520 On ch=1 n=a#4 v=0
191520 On ch=1 n=c4 v=90
192000 On ch=1 n=c4 v=0
192000 On ch=1 n=e5 v=80
192000 On ch=1 n=c5 v=80
192000 On ch=1 n=a#4 v=80
192480 On ch=1 n=a#4 v=0
192480 On ch=1 n=c5 v=0
192480 On ch=1 n=e5 v=0
192480 On ch=1 n=a#4 v=80
192480 On ch=1 n=c5 v=80
192480 On ch=1 n=e5 v=80
192960 On ch=1 n=e5 v=0
192960 On ch=1 n=c5 v=0
192960 On ch=1 n=a#4 v=0
192960 On ch=1 n=f3 v=90
193440 On ch=1 n=f3 v=0
193440 On ch=1 n=c5 v=80
193440 On ch=1 n=a4 v=80
193920 On ch=1 n=a4 v=0
193920 On ch=1 n=c5 v=0
193920 On ch=1 n=a4 v=80
193920 On ch=1 n=c5 v=80
194400 On ch=1 n=c5 v=0
194400 On ch=1 n=a4 v=0
194400 On ch=1 n=f4 v=90
194880 On ch=1 n=f4 v=0
195840 On ch=1 n=f4 v=90
196320 On ch=1 n=f4 v=0
197280 On ch=1 n=f4 v=90
197760 On ch=1 n=f4 v=0
198720 On ch=1 n=f4 v=90
199200 On ch=1 n=f4 v=0
200160 On ch=1 n=f4 v=90
200640 On ch=1 n=f4 v=0
201600 On ch=1 n=c4 v=90
202080 On ch=1 n=c4 v=0
202080 On ch=1 n=e5 v=80
202080 On ch=1 n=c5 v=80
202080 On ch=1 n=a#4 v=80
202560 On ch=1 n=a#4 v=0
202560 On ch=1 n=c5 v=0
202560 On ch=1 n=e5 v=0
202560 On ch=1 n=a#4 v=80
202560 On ch=1 n=c5 v=80
202560 On ch=1 n=e5 v=80
203040 On ch=1 n=e5 v=0
203040 On ch=1 n=c5 v=0
203040 On ch=1 n=a#4 v=0
203040 On ch=1 n=c4 v=90
203520 On ch=1 n=c4 v=0
204480 On ch=1 n=f5 v=80
204480 On ch=1 n=a4 v=80
204480 On ch=1 n=f4 v=80
204960 On ch=1 n=f4 v=0
204960 On ch=1 n=a4 v=0
204960 On ch=1 n=f5 v=0
207360 On ch=1 n=f3 v=90
207840 On ch=1 n=f3 v=0
207840 On ch=1 n=d#5 v=80
207840 On ch=1 n=a4 v=80
207840 On ch=1 n=f4 v=80
208320 On ch=1 n=f4 v=0
208320 On ch=1 n=a4 v=0
208320 On ch=1 n=d#5 v=0
208320 On ch=1 n=f4 v=80
208320 On ch=1 n=a4 v=80
208320 On ch=1 n=d#5 v=80
208800 On ch=1 n=d#5 v=0
208800 On ch=1 n=a4 v=0
208800 On ch=1 n=f4 v=0
208800 On ch=1 n=d#5 v=80
208800 On ch=1 n=a4 v=80
208800 On ch=1 n=f4 v=80
209280 On ch=1 n=f4 v=0
209280 On ch=1 n=a4 v=0
209280 On ch=1 n=d#5 v=0
209280 On ch=1 n=d#5 v=80
209280 On ch=1 n=f4 v=80
209760 On ch=1 n=f4 v=0
209760 On ch=1 n=d#5 v=0
209760 On ch=1 n=d#5 v=80
209760 On ch=1 n=f4 v=80
210240 On ch=1 n=f4 v=0
210240 On ch=1 n=d#5 v=0
210240 On ch=1 n=f3 v=90
210720 On ch=1 n=f3 v=0
210720 On ch=1 n=d5 v=80
210720 On ch=1 n=a#4 v=80
210720 On ch=1 n=f4 v=80
211200 On ch=1 n=f4 v=0
211200 On ch=1 n=a#4 v=0
211200 On ch=1 n=d5 v=0
211200 On ch=1 n=a#4 v=80
211200 On ch=1 n=d5 v=80
211200 On ch=1 n=e4 v=80
211680 On ch=1 n=e4 v=0
211680 On ch=1 n=d5 v=0
211680 On ch=1 n=a#4 v=0
211680 On ch=1 n=d5 v=80
211680 On ch=1 n=a#4 v=80
211680 On ch=1 n=g4 v=80
212160 On ch=1 n=g4 v=0
212160 On ch=1 n=a#4 v=0
212160 On ch=1 n=d5 v=0
212160 On ch=1 n=f4 v=80
212160 On ch=1 n=a#4 v=80
212160 On ch=1 n=d5 v=80
212640 On ch=1 n=d5 v=0
212640 On ch=1 n=a#4 v=0
212640 On ch=1 n=f4 v=0
212640 On ch=1 n=f5 v=80
212640 On ch=1 n=d4 v=80
213120 On ch=1 n=d4 v=0
213120 On ch=1 n=f5 v=0
213120 On ch=1 n=f3 v=90
213600 On ch=1 n=f3 v=0
213600 On ch=1 n=a#4 v=80
213600 On ch=1 n=e4 v=80
213600 On ch=1 n=c4 v=80
214080 On ch=1 n=c4 v=0
214080 On ch=1 n=e4 v=0
214080 On ch=1 n=a#4 v=0
214080 On ch=1 n=c4 v=80
214080 On ch=1 n=e4 v=80
214080 On ch=1 n=a#4 v=80
214560 On ch=1 n=a#4 v=0
214560 On ch=1 n=e4 v=0
214560 On ch=1 n=c4 v=0
214560 On ch=1 n=c4 v=80
214560 On ch=1 n=e4 v=80
214560 On ch=1 n=a#4 v=80
215040 On ch=1 n=a#4 v=0
215040 On ch=1 n=e4 v=0
215040 On ch=1 n=c4 v=0
215040 On ch=1 n=c4 v=80
215040 On ch=1 n=a#4 v=80
215520 On ch=1 n=a#4 v=0
215520 On ch=1 n=c4 v=0
215520 On ch=1 n=c4 v=80
215520 On ch=1 n=a#4 v=80
216000 On ch=1 n=a#4 v=0
216000 On ch=1 n=c4 v=0
216000 On ch=1 n=f3 v=90
216480 On ch=1 n=f3 v=0
216480 On ch=1 n=c4 v=77
216480 On ch=1 n=a4 v=77
216960 On ch=1 n=a4 v=0
216960 On ch=1 n=c4 v=0
216960 On ch=1 n=b3 v=73
216960 On ch=1 n=a4 v=73
217440 On ch=1 n=a4 v=0
217440 On ch=1 n=b3 v=0
217440 On ch=1 n=d4 v=70
217440 On ch=1 n=a4 v=70
217920 On ch=1 n=a4 v=0
217920 On ch=1 n=d4 v=0
217920 On ch=1 n=c4 v=66
217920 On ch=1 n=a4 v=66
218400 On ch=1 n=a4 v=0
218400 On ch=1 n=c4 v=0
218400 On ch=1 n=a3 v=63
218400 On ch=1 n=a4 v=63
218880 On ch=1 n=a4 v=0
218880 On ch=1 n=a3 v=0
218880 On ch=1 n=f3 v=70
219360 On ch=1 n=f3 v=0
219360 On ch=1 n=d#4 v=60
219360 On ch=1 n=c5 v=60
219840 On ch=1 n=c5 v=0
219840 On ch=1 n=d#4 v=0
219840 On ch=1 n=d#4 v=60
219840 On ch=1 n=c5 v=60
220320 On ch=1 n=c5 v=0
220320 On ch=1 n=d#4 v=0
220320 On ch=1 n=d#4 v=60
220320 On ch=1 n=c5 v=60
220800 On ch=1 n=c5 v=0
220800 On ch=1 n=d#4 v=0
220800 On ch=1 n=d#4 v=60
220800 On ch=1 n=c5 v=60
221280 On ch=1 n=c5 v=0
221280 On ch=1 n=d#4 v=0
221280 On ch=1 n=d#4 v=60
221280 On ch=1 n=c5 v=60
221760 On ch=1 n=c5 v=0
221760 On ch=1 n=d#4 v=0
221760 On ch=1 n=f3 v=70
222240 On ch=1 n=f3 v=0
222240 On ch=1 n=d4 v=60
222240 On ch=1 n=g#4 v=60
222720 On ch=1 n=g#4 v=0
222720 On ch=1 n=d4 v=0
222720 On ch=1 n=d4 v=60
222720 On ch=1 n=g#4 v=60
223200 On ch=1 n=g#4 v=0
223200 On ch=1 n=d4 v=0
223200 On ch=1 n=c#4 v=60
223200 On ch=1 n=g#4 v=60
223680 On ch=1 n=g#4 v=0
223680 On ch=1 n=c#4 v=0
223680 On ch=1 n=c#4 v=60
223680 On ch=1 n=g#4 v=60
224160 On ch=1 n=g#4 v=0
224160 On ch=1 n=c#4 v=0
224160 On ch=1 n=c#4 v=60
224160 On ch=1 n=g#4 v=60
224640 On ch=1 n=g#4 v=0
224640 On ch=1 n=c#4 v=0
224640 On ch=1 n=f3 v=70
225120 On ch=1 n=f3 v=0
225120 On ch=1 n=c#4 v=60
225120 On ch=1 n=g4 v=60
225600 On ch=1 n=g4 v=0
225600 On ch=1 n=c#4 v=0
225600 On ch=1 n=c#4 v=60
225600 On ch=1 n=g4 v=60
226080 On ch=1 n=g4 v=0
226080 On ch=1 n=c#4 v=0
227040 On ch=1 n=a#4 v=60
227280 On ch=1 n=a#4 v=0
227280 On ch=1 n=e4 v=60
227520 On ch=1 n=e4 v=0
230400 On ch=1 n=f2 v=125
230400 On ch=1 n=f3 v=125
230880 On ch=1 n=f3 v=0
230880 On ch=1 n=f2 v=0
230880 On ch=1 n=a4 v=125
230880 On ch=1 n=f4 v=125
230880 On ch=1 n=c4 v=125
231360 On ch=1 n=c4 v=0
231360 On ch=1 n=f4 v=0
231360 On ch=1 n=a4 v=0
231360 On ch=1 n=a4 v=125
231360 On ch=1 n=f4 v=125
231360 On ch=1 n=c4 v=125
231840 On ch=1 n=c4 v=0
231840 On ch=1 n=f4 v=0
231840 On ch=1 n=a4 v=0
231840 On ch=1 n=f4 v=125
231840 On ch=1 n=a4 v=125
231840 On ch=1 n=c4 v=125
232320 On ch=1 n=c4 v=0
232320 On ch=1 n=a4 v=0
232320 On ch=1 n=f4 v=0
232320 On ch=1 n=f4 v=125
232320 On ch=1 n=a4 v=125
232320 On ch=1 n=c4 v=125
232800 On ch=1 n=c4 v=0
232800 On ch=1 n=a4 v=0
232800 On ch=1 n=f4 v=0
232800 On ch=1 n=f4 v=125
232800 On ch=1 n=a4 v=125
232800 On ch=1 n=c4 v=125
233280 On ch=1 n=c4 v=0
233280 On ch=1 n=a4 v=0
233280 On ch=1 n=f4 v=0
233280 On ch=1 n=f4 v=125
233280 On ch=1 n=a4 v=125
233280 On ch=1 n=c4 v=125
233760 On ch=1 n=c4 v=0
233760 On ch=1 n=a4 v=0
233760 On ch=1 n=f4 v=0
233760 On ch=1 n=f4 v=125
233760 On ch=1 n=a4 v=125
233760 On ch=1 n=c4 v=125
234240 On ch=1 n=c4 v=0
234240 On ch=1 n=a4 v=0
234240 On ch=1 n=f4 v=0
234240 On ch=1 n=f4 v=125
234240 On ch=1 n=a4 v=125
234240 On ch=1 n=c4 v=125
234720 On ch=1 n=c4 v=0
234720 On ch=1 n=a4 v=0
234720 On ch=1 n=f4 v=0
234720 On ch=1 n=c5 v=125
234720 On ch=1 n=f4 v=125
234720 On ch=1 n=a4 v=125
234720 On ch=1 n=c4 v=125
235200 On ch=1 n=c4 v=0
235200 On ch=1 n=a4 v=0
235200 On ch=1 n=f4 v=0
235200 On ch=1 n=c5 v=0
235200 On ch=1 n=c5 v=125
235200 On ch=1 n=f4 v=125
235200 On ch=1 n=a4 v=125
235200 On ch=1 n=c4 v=125
235680 On ch=1 n=c4 v=0
235680 On ch=1 n=a4 v=0
235680 On ch=1 n=f4 v=0
235680 On ch=1 n=c5 v=0
235680 On ch=1 n=c5 v=125
235680 On ch=1 n=f4 v=125
235680 On ch=1 n=a4 v=125
235680 On ch=1 n=c4 v=125
236160 On ch=1 n=c4 v=0
236160 On ch=1 n=a4 v=0
236160 On ch=1 n=f4 v=0
236160 On ch=1 n=c5 v=0
236160 On ch=1 n=f2 v=125
236160 On ch=1 n=f3 v=125
236640 On ch=1 n=f3 v=0
236640 On ch=1 n=f2 v=0
236640 On ch=1 n=a4 v=125
236640 On ch=1 n=f4 v=125
236640 On ch=1 n=c4 v=125
237120 On ch=1 n=c4 v=0
237120 On ch=1 n=f4 v=0
237120 On ch=1 n=a4 v=0
237120 On ch=1 n=a4 v=125
237120 On ch=1 n=f4 v=125
237120 On ch=1 n=c4 v=125
237600 On ch=1 n=c4 v=0
237600 On ch=1 n=f4 v=0
237600 On ch=1 n=a4 v=0
237600 On ch=1 n=f4 v=125
237600 On ch=1 n=a4 v=125
237600 On ch=1 n=c4 v=125
238080 On ch=1 n=c4 v=0
238080 On ch=1 n=a4 v=0
238080 On ch=1 n=f4 v=0
238080 On ch=1 n=f4 v=125
238080 On ch=1 n=a4 v=125
238080 On ch=1 n=c4 v=125
238560 On ch=1 n=c4 v=0
238560 On ch=1 n=a4 v=0
238560 On ch=1 n=f4 v=0
238560 On ch=1 n=f4 v=125
238560 On ch=1 n=a4 v=125
238560 On ch=1 n=c4 v=125
239040 On ch=1 n=c4 v=0
239040 On ch=1 n=a4 v=0
239040 On ch=1 n=f4 v=0
239040 On ch=1 n=c5 v=125
239040 On ch=1 n=f4 v=125
239040 On ch=1 n=a4 v=125
239040 On ch=1 n=c4 v=125
239520 On ch=1 n=c4 v=0
239520 On ch=1 n=a4 v=0
239520 On ch=1 n=f4 v=0
239520 On ch=1 n=c5 v=0
239520 On ch=1 n=c5 v=125
239520 On ch=1 n=f4 v=125
239520 On ch=1 n=a4 v=125
239520 On ch=1 n=c4 v=125
240000 On ch=1 n=c4 v=0
240000 On ch=1 n=a4 v=0
240000 On ch=1 n=f4 v=0
240000 On ch=1 n=c5 v=0
240000 On ch=1 n=c5 v=125
240000 On ch=1 n=f4 v=125
240000 On ch=1 n=a4 v=125
240000 On ch=1 n=c4 v=125
240480 On ch=1 n=c4 v=0
240480 On ch=1 n=a4 v=0
240480 On ch=1 n=f4 v=0
240480 On ch=1 n=c5 v=0
240480 On ch=1 n=c5 v=125
240480 On ch=1 n=f4 v=125
240480 On ch=1 n=a4 v=125
240480 On ch=1 n=c4 v=125
240960 On ch=1 n=c4 v=0
240960 On ch=1 n=a4 v=0
240960 On ch=1 n=f4 v=0
240960 On ch=1 n=c5 v=0
240960 On ch=1 n=c5 v=125
240960 On ch=1 n=f4 v=125
240960 On ch=1 n=a4 v=125
240960 On ch=1 n=c4 v=125
241440 On ch=1 n=c4 v=0
241440 On ch=1 n=a4 v=0
241440 On ch=1 n=f4 v=0
241440 On ch=1 n=c5 v=0
241440 On ch=1 n=c5 v=125
241440 On ch=1 n=f4 v=125
241440 On ch=1 n=a4 v=125
241440 On ch=1 n=c4 v=125
241920 On ch=1 n=c4 v=0
241920 On ch=1 n=a4 v=0
241920 On ch=1 n=f4 v=0
241920 On ch=1 n=c5 v=0
241920 On ch=1 n=f2 v=125
242400 On ch=1 n=f2 v=0
243360 On ch=1 n=f5 v=125
243360 On ch=1 n=c5 v=125
243360 On ch=1 n=f4 v=125
243840 On ch=1 n=f4 v=0
243840 On ch=1 n=c5 v=0
243840 On ch=1 n=f5 v=0
244800 On ch=1 n=f3 v=125
244800 On ch=1 n=c4 v=125
245280 On ch=1 n=c4 v=0
245280 On ch=1 n=f3 v=0
246240 On ch=1 n=a5 v=125
246240 On ch=1 n=f5 v=125
246240 On ch=1 n=c5 v=125
246240 On ch=1 n=a4 v=125
246720 On ch=1 n=a4 v=0
246720 On ch=1 n=c5 v=0
246720 On ch=1 n=f5 v=0
246720 On ch=1 n=a5 v=0
247680 On ch=1 n=f2 v=125
247680 On ch=1 n=f3 v=125
249120 On ch=1 n=f3 v=0
249120 On ch=1 n=f2 v=0
249120 Meta TrkEnd
TrkEnd
MTrk
0 SeqSpec 43 00 01 00
0 Meta TrkName "Pedal"
0 Meta 0x21 00
0 PrCh ch=1 p=0
31680 Par ch=1 c=64 v=127
32880 Par ch=1 c=64 v=0
33120 Par ch=1 c=64 v=127
34320 Par ch=1 c=64 v=0
34560 Par ch=1 c=64 v=127
35280 Par ch=1 c=64 v=0
36000 Par ch=1 c=64 v=127
36720 Par ch=1 c=64 v=0
37440 Par ch=1 c=64 v=127
38160 Par ch=1 c=64 v=0
38880 Par ch=1 c=64 v=127
40080 Par ch=1 c=64 v=0
40320 Par ch=1 c=64 v=127
41520 Par ch=1 c=64 v=0
41760 Par ch=1 c=64 v=127
42480 Par ch=1 c=64 v=0
43200 Par ch=1 c=64 v=127
44880 Par ch=1 c=64 v=0
54720 Par ch=1 c=64 v=127
55920 Par ch=1 c=64 v=0
56160 Par ch=1 c=64 v=127
57360 Par ch=1 c=64 v=0
57600 Par ch=1 c=64 v=127
58320 Par ch=1 c=64 v=0
59040 Par ch=1 c=64 v=127
59760 Par ch=1 c=64 v=0
60480 Par ch=1 c=64 v=127
61200 Par ch=1 c=64 v=0
61920 Par ch=1 c=64 v=127
63120 Par ch=1 c=64 v=0
63360 Par ch=1 c=64 v=127
64560 Par ch=1 c=64 v=0
64800 Par ch=1 c=64 v=127
65520 Par ch=1 c=64 v=0
66240 Par ch=1 c=64 v=127
67920 Par ch=1 c=64 v=0
69120 Par ch=1 c=64 v=127
70320 Par ch=1 c=64 v=0
70560 Par ch=1 c=64 v=127
71760 Par ch=1 c=64 v=0
72000 Par ch=1 c=64 v=127
73200 Par ch=1 c=64 v=0
73440 Par ch=1 c=64 v=127
74640 Par ch=1 c=64 v=0
74880 Par ch=1 c=64 v=127
76080 Par ch=1 c=64 v=0
76320 Par ch=1 c=64 v=127
77520 Par ch=1 c=64 v=0
77760 Par ch=1 c=64 v=127
78960 Par ch=1 c=64 v=0
79200 Par ch=1 c=64 v=127
80400 Par ch=1 c=64 v=0
80640 Par ch=1 c=64 v=127
81840 Par ch=1 c=64 v=0
82080 Par ch=1 c=64 v=127
83280 Par ch=1 c=64 v=0
83520 Par ch=1 c=64 v=127
84720 Par ch=1 c=64 v=0
84960 Par ch=1 c=64 v=127
86160 Par ch=1 c=64 v=0
86400 Par ch=1 c=64 v=127
87600 Par ch=1 c=64 v=0
87840 Par ch=1 c=64 v=127
89040 Par ch=1 c=64 v=0
89280 Par ch=1 c=64 v=127
90480 Par ch=1 c=64 v=0
90720 Par ch=1 c=64 v=127
91920 Par ch=1 c=64 v=0
92160 Par ch=1 c=64 v=127
93360 Par ch=1 c=64 v=0
93600 Par ch=1 c=64 v=127
94800 Par ch=1 c=64 v=0
95040 Par ch=1 c=64 v=127
96240 Par ch=1 c=64 v=0
96480 Par ch=1 c=64 v=127
97680 Par ch=1 c=64 v=0
97920 Par ch=1 c=64 v=127
99120 Par ch=1 c=64 v=0
99360 Par ch=1 c=64 v=127
100560 Par ch=1 c=64 v=0
100800 Par ch=1 c=64 v=127
102000 Par ch=1 c=64 v=0
102240 Par ch=1 c=64 v=127
103440 Par ch=1 c=64 v=0
103680 Par ch=1 c=64 v=127
104880 Par ch=1 c=64 v=0
105120 Par ch=1 c=64 v=127
106320 Par ch=1 c=64 v=0
106560 Par ch=1 c=64 v=127
107760 Par ch=1 c=64 v=0
108000 Par ch=1 c=64 v=127
109200 Par ch=1 c=64 v=0
109440 Par ch=1 c=64 v=127
110640 Par ch=1 c=64 v=0
110880 Par ch=1 c=64 v=127
112080 Par ch=1 c=64 v=0
112320 Par ch=1 c=64 v=127
113520 Par ch=1 c=64 v=0
113760 Par ch=1 c=64 v=127
114960 Par ch=1 c=64 v=0
115200 Par ch=1 c=64 v=127
116160 Par ch=1 c=64 v=0
116640 Par ch=1 c=64 v=127
117600 Par ch=1 c=64 v=0
118080 Par ch=1 c=64 v=127
120480 Par ch=1 c=64 v=0
120960 Par ch=1 c=64 v=127
121920 Par ch=1 c=64 v=0
122400 Par ch=1 c=64 v=127
123360 Par ch=1 c=64 v=0
123840 Par ch=1 c=64 v=127
126240 Par ch=1 c=64 v=0
126720 Par ch=1 c=64 v=127
127680 Par ch=1 c=64 v=0
128160 Par ch=1 c=64 v=127
129120 Par ch=1 c=64 v=0
129600 Par ch=1 c=64 v=127
132000 Par ch=1 c=64 v=0
132480 Par ch=1 c=64 v=127
133200 Par ch=1 c=64 v=0
135360 Par ch=1 c=64 v=127
136080 Par ch=1 c=64 v=0
138240 Par ch=1 c=64 v=127
139200 Par ch=1 c=64 v=0
139680 Par ch=1 c=64 v=127
140640 Par ch=1 c=64 v=0
141120 Par ch=1 c=64 v=127
143520 Par ch=1 c=64 v=0
144000 Par ch=1 c=64 v=127
144960 Par ch=1 c=64 v=0
145440 Par ch=1 c=64 v=127
146400 Par ch=1 c=64 v=0
146880 Par ch=1 c=64 v=127
149280 Par ch=1 c=64 v=0
149760 Par ch=1 c=64 v=127
150720 Par ch=1 c=64 v=0
151200 Par ch=1 c=64 v=127
152160 Par ch=1 c=64 v=0
152640 Par ch=1 c=64 v=127
155040 Par ch=1 c=64 v=0
155520 Par ch=1 c=64 v=127
156240 Par ch=1 c=64 v=0
158400 Par ch=1 c=64 v=127
159120 Par ch=1 c=64 v=0
161280 Par ch=1 c=64 v=127
163680 Par ch=1 c=64 v=0
164160 Par ch=1 c=64 v=127
166560 Par ch=1 c=64 v=0
167040 Par ch=1 c=64 v=127
169440 Par ch=1 c=64 v=0
169920 Par ch=1 c=64 v=127
172320 Par ch=1 c=64 v=0
172800 Par ch=1 c=64 v=127
175200 Par ch=1 c=64 v=0
175680 Par ch=1 c=64 v=127
178080 Par ch=1 c=64 v=0
178560 Par ch=1 c=64 v=127
179520 Par ch=1 c=64 v=0
180000 Par ch=1 c=64 v=127
180960 Par ch=1 c=64 v=0
181440 Par ch=1 c=64 v=127
182400 Par ch=1 c=64 v=0
182880 Par ch=1 c=64 v=127
183840 Par ch=1 c=64 v=0
192960 Par ch=1 c=64 v=127
194160 Par ch=1 c=64 v=0
194400 Par ch=1 c=64 v=127
195600 Par ch=1 c=64 v=0
195840 Par ch=1 c=64 v=127
196560 Par ch=1 c=64 v=0
197280 Par ch=1 c=64 v=127
198000 Par ch=1 c=64 v=0
198720 Par ch=1 c=64 v=127
199440 Par ch=1 c=64 v=0
200160 Par ch=1 c=64 v=127
201360 Par ch=1 c=64 v=0
201600 Par ch=1 c=64 v=127
202800 Par ch=1 c=64 v=0
203040 Par ch=1 c=64 v=127
203760 Par ch=1 c=64 v=0
207360 Par ch=1 c=64 v=127
210000 Par ch=1 c=64 v=0
210240 Par ch=1 c=64 v=127
210960 Par ch=1 c=64 v=0
213120 Par ch=1 c=64 v=127
215760 Par ch=1 c=64 v=0
216000 Par ch=1 c=64 v=127
216240 Par ch=1 c=64 v=0
218880 Par ch=1 c=64 v=127
221520 Par ch=1 c=64 v=0
221760 Par ch=1 c=64 v=127
222720 Par ch=1 c=64 v=0
223200 Par ch=1 c=64 v=127
224160 Par ch=1 c=64 v=0
224640 Par ch=1 c=64 v=127
225600 Par ch=1 c=64 v=0
230400 Par ch=1 c=64 v=127
235680 Par ch=1 c=64 v=0
236160 Par ch=1 c=64 v=127
249600 Par ch=1 c=64 v=0
249600 Meta TrkEnd
TrkEnd
MTrk
0 SeqSpec 43 00 01 00
0 Meta TrkName "F. Chopin Valse No. 04 in F Op. 34-3"
0 Meta 0x21 00
0 Meta TrkEnd
TrkEnd
MTrk
0 SeqSpec 43 00 01 00
0 Meta TrkName "Jeruen E. Dery jawjaw@hotmail.com"
0 Meta 0x21 00
0 Meta TrkEnd
TrkEnd
