MFile 1 7 480
MTrk
0 TimeSig 3/4 24 8
0 Tempo 277778
120480 Tempo 319149
166560 Tempo 300000
189120 Tempo 357143
189840 Tempo 652174
190080 Tempo 319149
213120 Tempo 300000
258720 Tempo 277778
282240 Tempo 300000
304800 Tempo 277778
328320 Tempo 300000
350880 Tempo 340909
373920 Tempo 294118
385920 KeySig -3 major
385920 Tempo 277778
447840 Tempo 312500
451680 Tempo 384615
457920 Tempo 277778
506880 Tempo 276498
508320 Tempo 275229
509760 Tempo 273973
511200 Tempo 272727
512640 Tempo 271493
514080 Tempo 270270
515520 Tempo 269058
516960 Tempo 267857
518400 Tempo 266667
519840 Tempo 264719
521280 Tempo 264317
522720 Tempo 263158
524160 Tempo 262009
525600 Tempo 260870
527040 Tempo 259740
528480 Tempo 258621
529920 Tempo 257511
531360 Tempo 256410
532800 Tempo 255319
534240 Tempo 254237
535680 Tempo 253165
537120 Tempo 252101
538560 Tempo 251046
540000 Tempo 250000
541440 Tempo 248963
542880 Tempo 247934
544320 Tempo 246914
545760 Tempo 245902
547200 Tempo 244898
547200 Meta TrkEnd
TrkEnd
MTrk
0 SeqSpec 43 00 01 00
0 Meta TrkName "Upper Treble"
0 Meta 0x21 00
0 PrCh ch=1 p=0
0 On ch=1 n=a#5 v=100
960 On ch=1 n=a#5 v=0
960 On ch=1 n=a#5 v=100
1080 On ch=1 n=a#5 v=0
1200 On ch=1 n=a#5 v=100
1320 On ch=1 n=a#5 v=0
1440 On ch=1 n=a#5 v=100
2400 On ch=1 n=a#5 v=0
2400 On ch=1 n=a#5 v=100
2520 On ch=1 n=a#5 v=0
2640 On ch=1 n=a#5 v=100
2760 On ch=1 n=a#5 v=0
2880 On ch=1 n=a#5 v=100
3360 On ch=1 n=a#5 v=0
3360 On ch=1 n=a#5 v=97
3480 On ch=1 n=a#5 v=0
3600 On ch=1 n=a#5 v=95
3720 On ch=1 n=a#5 v=0
3840 On ch=1 n=a#5 v=93
4320 On ch=1 n=a#5 v=0
4320 On ch=1 n=a#5 v=90
4440 On ch=1 n=a#5 v=0
4560 On ch=1 n=a#5 v=88
4680 On ch=1 n=a#5 v=0
4800 On ch=1 n=a#5 v=86
5280 On ch=1 n=a#5 v=0
5280 On ch=1 n=a#5 v=83
5400 On ch=1 n=a#5 v=0
5520 On ch=1 n=a#5 v=81
5640 On ch=1 n=a#5 v=0
5760 On ch=1 n=a#5 v=80
5880 On ch=1 n=a#5 v=0
6240 On ch=1 n=d6 v=84
6480 On ch=1 n=d6 v=0
6480 On ch=1 n=d#6 v=86
6720 On ch=1 n=d#6 v=0
6720 On ch=1 n=f6 v=89
6720 On ch=1 n=d6 v=89
7200 On ch=1 n=d6 v=0
7200 On ch=1 n=f6 v=0
7200 On ch=1 n=a#5 v=93
7320 On ch=1 n=a#5 v=0
7680 On ch=1 n=d#6 v=98
7920 On ch=1 n=d#6 v=0
7920 On ch=1 n=f6 v=100
8160 On ch=1 n=f6 v=0
8160 On ch=1 n=g6 v=103
8160 On ch=1 n=d#6 v=103
8640 On ch=1 n=d#6 v=0
8640 On ch=1 n=g6 v=0
8640 On ch=1 n=a#5 v=107
8760 On ch=1 n=a#5 v=0
9120 On ch=1 n=f6 v=112
9360 On ch=1 n=f6 v=0
9360 On ch=1 n=g6 v=114
9600 On ch=1 n=g6 v=0
9600 On ch=1 n=g#6 v=116
9600 On ch=1 n=f6 v=116
10080 On ch=1 n=f6 v=0
10080 On ch=1 n=g#6 v=0
10080 On ch=1 n=a#6 v=120
10080 On ch=1 n=g6 v=120
10080 On ch=1 n=c#6 v=120
11040 On ch=1 n=c#6 v=0
11040 On ch=1 n=g6 v=0
11040 On ch=1 n=a#6 v=0
11040 On ch=1 n=a#6 v=73
11040 On ch=1 n=g6 v=73
11040 On ch=1 n=c#6 v=73
11160 On ch=1 n=c#6 v=0
11160 On ch=1 n=g6 v=0
11160 On ch=1 n=a#6 v=0
11280 On ch=1 n=c#6 v=61
11280 On ch=1 n=g6 v=61
11280 On ch=1 n=a#6 v=61
11400 On ch=1 n=a#6 v=0
11400 On ch=1 n=g6 v=0
11400 On ch=1 n=c#6 v=0
11520 On ch=1 n=a#6 v=60
11520 On ch=1 n=c#6 v=60
11520 On ch=1 n=g6 v=60
12000 On ch=1 n=a#6 v=0
12000 On ch=1 n=c7 v=59
12240 On ch=1 n=c7 v=0
12240 On ch=1 n=a#6 v=58
12480 On ch=1 n=a#6 v=0
12480 On ch=1 n=g6 v=0
12480 On ch=1 n=c#6 v=0
12480 On ch=1 n=c6 v=57
12480 On ch=1 n=g#6 v=57
12600 On ch=1 n=g#6 v=0
12960 On ch=1 n=c6 v=0
12960 On ch=1 n=g#6 v=55
12960 On ch=1 n=b5 v=55
13440 On ch=1 n=g#6 v=0
13440 On ch=1 n=a#6 v=53
13680 On ch=1 n=a#6 v=0
13680 On ch=1 n=g#6 v=52
13920 On ch=1 n=g#6 v=0
13920 On ch=1 n=b5 v=0
13920 On ch=1 n=a#5 v=51
13920 On ch=1 n=g6 v=51
14040 On ch=1 n=g6 v=0
14400 On ch=1 n=a#5 v=0
14400 On ch=1 n=g6 v=49
14400 On ch=1 n=a#5 v=49
14880 On ch=1 n=g6 v=0
14880 On ch=1 n=g#6 v=47
15120 On ch=1 n=g#6 v=0
15120 On ch=1 n=g6 v=46
15360 On ch=1 n=g6 v=0
15360 On ch=1 n=a#5 v=0
15360 On ch=1 n=g#5 v=45
15360 On ch=1 n=f6 v=45
15480 On ch=1 n=f6 v=0
15840 On ch=1 n=g#5 v=0
15840 On ch=1 n=f6 v=43
15840 On ch=1 n=g#5 v=43
16320 On ch=1 n=f6 v=0
16320 On ch=1 n=g6 v=41
16560 On ch=1 n=g6 v=0
16560 On ch=1 n=f6 v=40
16800 On ch=1 n=f6 v=0
16800 On ch=1 n=g#5 v=0
16800 On ch=1 n=d#6 v=40
16800 On ch=1 n=g5 v=40
16920 On ch=1 n=d#6 v=0
17280 On ch=1 n=g5 v=0
17280 On ch=1 n=a#5 v=100
17400 On ch=1 n=a#5 v=0
17760 On ch=1 n=d6 v=102
18000 On ch=1 n=d6 v=0
18000 On ch=1 n=d#6 v=103
18240 On ch=1 n=d#6 v=0
18240 On ch=1 n=f6 v=104
18240 On ch=1 n=d6 v=104
18720 On ch=1 n=d6 v=0
18720 On ch=1 n=f6 v=0
18720 On ch=1 n=a#5 v=107
18840 On ch=1 n=a#5 v=0
19200 On ch=1 n=d#6 v=109
19440 On ch=1 n=d#6 v=0
19440 On ch=1 n=f6 v=110
19680 On ch=1 n=f6 v=0
19680 On ch=1 n=g6 v=111
19680 On ch=1 n=d#6 v=111
20160 On ch=1 n=d#6 v=0
20160 On ch=1 n=g6 v=0
20160 On ch=1 n=a#5 v=114
20280 On ch=1 n=a#5 v=0
20640 On ch=1 n=f6 v=116
20880 On ch=1 n=f6 v=0
20880 On ch=1 n=g6 v=117
21120 On ch=1 n=g6 v=0
21120 On ch=1 n=g#6 v=118
21120 On ch=1 n=f6 v=118
21600 On ch=1 n=f6 v=0
21600 On ch=1 n=g#6 v=0
21600 On ch=1 n=a#6 v=120
21600 On ch=1 n=g6 v=120
21600 On ch=1 n=c#6 v=120
22320 On ch=1 n=c#6 v=0
22320 On ch=1 n=g6 v=0
22320 On ch=1 n=a#6 v=0
22320 On ch=1 n=a#6 v=120
22320 On ch=1 n=g6 v=120
22560 On ch=1 n=g6 v=0
22560 On ch=1 n=a#6 v=0
22560 On ch=1 n=c#6 v=120
22800 On ch=1 n=a#6 v=120
22800 On ch=1 n=g6 v=120
23040 On ch=1 n=g6 v=0
23040 On ch=1 n=a#6 v=0
23040 On ch=1 n=c#6 v=0
23040 On ch=1 n=c#6 v=120
23280 On ch=1 n=a#6 v=118
23520 On ch=1 n=a#6 v=0
23520 On ch=1 n=c7 v=116
23760 On ch=1 n=c7 v=0
23760 On ch=1 n=a#6 v=114
24000 On ch=1 n=a#6 v=0
24000 On ch=1 n=c#6 v=0
24000 On ch=1 n=c6 v=111
24000 On ch=1 n=g#6 v=111
24120 On ch=1 n=g#6 v=0
24120 On ch=1 n=c6 v=0
24480 On ch=1 n=b5 v=107
24720 On ch=1 n=g#6 v=104
24960 On ch=1 n=g#6 v=0
24960 On ch=1 n=a#6 v=102
25200 On ch=1 n=a#6 v=0
25200 On ch=1 n=g#6 v=100
25440 On ch=1 n=g#6 v=0
25440 On ch=1 n=b5 v=0
25440 On ch=1 n=a#5 v=97
25440 On ch=1 n=g6 v=97
25560 On ch=1 n=g6 v=0
25560 On ch=1 n=a#5 v=0
25920 On ch=1 n=a#5 v=93
26160 On ch=1 n=g6 v=91
26400 On ch=1 n=g6 v=0
26400 On ch=1 n=g#6 v=88
26640 On ch=1 n=g#6 v=0
26640 On ch=1 n=g6 v=86
26880 On ch=1 n=g6 v=0
26880 On ch=1 n=a#5 v=0
26880 On ch=1 n=g#5 v=84
26880 On ch=1 n=f6 v=84
27000 On ch=1 n=f6 v=0
27000 On ch=1 n=g#5 v=0
27360 On ch=1 n=g5 v=80
27360 On ch=1 n=d#6 v=80
27480 On ch=1 n=d#6 v=0
27480 On ch=1 n=g5 v=0
27840 On ch=1 n=a#5 v=80
27960 On ch=1 n=a#5 v=0
28080 On ch=1 n=a#5 v=80
28200 On ch=1 n=a#5 v=0
28320 On ch=1 n=a#5 v=80
28440 On ch=1 n=a#5 v=0
28560 On ch=1 n=a#5 v=80
28680 On ch=1 n=a#5 v=0
28800 On ch=1 n=a#5 v=80
28920 On ch=1 n=a#5 v=0
29280 On ch=1 n=d6 v=84
29520 On ch=1 n=d6 v=0
29520 On ch=1 n=d#6 v=86
29760 On ch=1 n=d#6 v=0
29760 On ch=1 n=f6 v=89
29760 On ch=1 n=d6 v=89
30240 On ch=1 n=d6 v=0
30240 On ch=1 n=f6 v=0
30240 On ch=1 n=a#5 v=93
30360 On ch=1 n=a#5 v=0
30720 On ch=1 n=d#6 v=98
30960 On ch=1 n=d#6 v=0
30960 On ch=1 n=f6 v=100
31200 On ch=1 n=f6 v=0
31200 On ch=1 n=g6 v=103
31200 On ch=1 n=d#6 v=103
31680 On ch=1 n=d#6 v=0
31680 On ch=1 n=g6 v=0
31680 On ch=1 n=a#5 v=107
31800 On ch=1 n=a#5 v=0
32160 On ch=1 n=f6 v=112
32400 On ch=1 n=f6 v=0
32400 On ch=1 n=g6 v=114
32640 On ch=1 n=g6 v=0
32640 On ch=1 n=g#6 v=116
32640 On ch=1 n=f6 v=116
33120 On ch=1 n=f6 v=0
33120 On ch=1 n=g#6 v=0
33120 On ch=1 n=a#6 v=120
33120 On ch=1 n=g6 v=120
33120 On ch=1 n=c#6 v=120
34080 On ch=1 n=c#6 v=0
34080 On ch=1 n=g6 v=0
34080 On ch=1 n=a#6 v=0
34080 On ch=1 n=a#6 v=73
34080 On ch=1 n=g6 v=73
34080 On ch=1 n=c#6 v=73
34200 On ch=1 n=c#6 v=0
34200 On ch=1 n=g6 v=0
34200 On ch=1 n=a#6 v=0
34320 On ch=1 n=c#6 v=61
34320 On ch=1 n=g6 v=61
34320 On ch=1 n=a#6 v=61
34440 On ch=1 n=a#6 v=0
34440 On ch=1 n=g6 v=0
34440 On ch=1 n=c#6 v=0
34560 On ch=1 n=a#6 v=60
34560 On ch=1 n=c#6 v=60
34560 On ch=1 n=g6 v=60
35040 On ch=1 n=a#6 v=0
35040 On ch=1 n=c7 v=59
35280 On ch=1 n=c7 v=0
35280 On ch=1 n=a#6 v=58
35520 On ch=1 n=a#6 v=0
35520 On ch=1 n=g6 v=0
35520 On ch=1 n=c#6 v=0
35520 On ch=1 n=c6 v=57
35520 On ch=1 n=g#6 v=57
35640 On ch=1 n=g#6 v=0
36000 On ch=1 n=c6 v=0
36000 On ch=1 n=g#6 v=55
36000 On ch=1 n=b5 v=55
36480 On ch=1 n=g#6 v=0
36480 On ch=1 n=a#6 v=53
36720 On ch=1 n=a#6 v=0
36720 On ch=1 n=g#6 v=52
36960 On ch=1 n=g#6 v=0
36960 On ch=1 n=b5 v=0
36960 On ch=1 n=a#5 v=51
36960 On ch=1 n=g6 v=51
37080 On ch=1 n=g6 v=0
37440 On ch=1 n=a#5 v=0
37440 On ch=1 n=g6 v=49
37440 On ch=1 n=a#5 v=49
37920 On ch=1 n=g6 v=0
37920 On ch=1 n=g#6 v=47
38160 On ch=1 n=g#6 v=0
38160 On ch=1 n=g6 v=46
38400 On ch=1 n=g6 v=0
38400 On ch=1 n=a#5 v=0
38400 On ch=1 n=g#5 v=45
38400 On ch=1 n=f6 v=45
38520 On ch=1 n=f6 v=0
38880 On ch=1 n=g#5 v=0
38880 On ch=1 n=f6 v=43
38880 On ch=1 n=g#5 v=43
39360 On ch=1 n=f6 v=0
39360 On ch=1 n=g6 v=41
39600 On ch=1 n=g6 v=0
39600 On ch=1 n=f6 v=40
39840 On ch=1 n=f6 v=0
39840 On ch=1 n=g#5 v=0
39840 On ch=1 n=d#6 v=40
39840 On ch=1 n=g5 v=40
39960 On ch=1 n=d#6 v=0
40320 On ch=1 n=g5 v=0
40320 On ch=1 n=a#5 v=100
40440 On ch=1 n=a#5 v=0
40800 On ch=1 n=d6 v=102
41040 On ch=1 n=d6 v=0
41040 On ch=1 n=d#6 v=103
41280 On ch=1 n=d#6 v=0
41280 On ch=1 n=f6 v=104
41280 On ch=1 n=d6 v=104
41760 On ch=1 n=d6 v=0
41760 On ch=1 n=f6 v=0
41760 On ch=1 n=a#5 v=107
41880 On ch=1 n=a#5 v=0
42240 On ch=1 n=d#6 v=109
42480 On ch=1 n=d#6 v=0
42480 On ch=1 n=f6 v=110
42720 On ch=1 n=f6 v=0
42720 On ch=1 n=g6 v=111
42720 On ch=1 n=d#6 v=111
43200 On ch=1 n=d#6 v=0
43200 On ch=1 n=g6 v=0
43200 On ch=1 n=a#5 v=114
43320 On ch=1 n=a#5 v=0
43680 On ch=1 n=f6 v=116
43920 On ch=1 n=f6 v=0
43920 On ch=1 n=g6 v=117
44160 On ch=1 n=g6 v=0
44160 On ch=1 n=g#6 v=118
44160 On ch=1 n=f6 v=118
44640 On ch=1 n=f6 v=0
44640 On ch=1 n=g#6 v=0
44640 On ch=1 n=a#6 v=120
44640 On ch=1 n=g6 v=120
44640 On ch=1 n=c#6 v=120
45360 On ch=1 n=c#6 v=0
45360 On ch=1 n=g6 v=0
45360 On ch=1 n=a#6 v=0
45360 On ch=1 n=a#6 v=120
45360 On ch=1 n=g6 v=120
45600 On ch=1 n=g6 v=0
45600 On ch=1 n=a#6 v=0
45600 On ch=1 n=c#6 v=120
45840 On ch=1 n=a#6 v=120
45840 On ch=1 n=g6 v=120
46080 On ch=1 n=g6 v=0
46080 On ch=1 n=a#6 v=0
46080 On ch=1 n=c#6 v=0
46080 On ch=1 n=c#6 v=120
46320 On ch=1 n=a#6 v=118
46560 On ch=1 n=a#6 v=0
46560 On ch=1 n=c7 v=116
46800 On ch=1 n=c7 v=0
46800 On ch=1 n=a#6 v=114
47040 On ch=1 n=a#6 v=0
47040 On ch=1 n=c#6 v=0
47040 On ch=1 n=c6 v=111
47040 On ch=1 n=g#6 v=111
47160 On ch=1 n=g#6 v=0
47160 On ch=1 n=c6 v=0
47520 On ch=1 n=b5 v=107
47760 On ch=1 n=g#6 v=104
48000 On ch=1 n=g#6 v=0
48000 On ch=1 n=a#6 v=102
48240 On ch=1 n=a#6 v=0
48240 On ch=1 n=g#6 v=100
48480 On ch=1 n=g#6 v=0
48480 On ch=1 n=b5 v=0
48480 On ch=1 n=a#5 v=97
48480 On ch=1 n=g6 v=97
48600 On ch=1 n=g6 v=0
48600 On ch=1 n=a#5 v=0
48960 On ch=1 n=a#5 v=93
49200 On ch=1 n=g6 v=91
49440 On ch=1 n=g6 v=0
49440 On ch=1 n=g#6 v=88
49680 On ch=1 n=g#6 v=0
49680 On ch=1 n=g6 v=86
49920 On ch=1 n=g6 v=0
49920 On ch=1 n=a#5 v=0
49920 On ch=1 n=g#5 v=84
49920 On ch=1 n=f6 v=84
50040 On ch=1 n=f6 v=0
50040 On ch=1 n=g#5 v=0
50400 On ch=1 n=g5 v=80
50400 On ch=1 n=d#6 v=80
50520 On ch=1 n=d#6 v=0
50520 On ch=1 n=g5 v=0
50880 On ch=1 n=d#6 v=80
51000 On ch=1 n=d#6 v=0
51120 On ch=1 n=d#6 v=80
51240 On ch=1 n=d#6 v=0
51360 On ch=1 n=d#6 v=80
51480 On ch=1 n=d#6 v=0
51600 On ch=1 n=d#6 v=80
51720 On ch=1 n=d#6 v=0
51840 On ch=1 n=d#6 v=60
51960 On ch=1 n=d#6 v=0
52080 On ch=1 n=d#6 v=60
52200 On ch=1 n=d#6 v=0
52320 On ch=1 n=d#6 v=60
52440 On ch=1 n=d#6 v=0
52560 On ch=1 n=d#6 v=60
52680 On ch=1 n=d#6 v=0
52800 On ch=1 n=d#6 v=60
52920 On ch=1 n=d#6 v=0
53040 On ch=1 n=d#6 v=60
53160 On ch=1 n=d#6 v=0
53280 On ch=1 n=f6 v=60
53520 On ch=1 n=f6 v=0
53520 On ch=1 n=d#6 v=60
53760 On ch=1 n=d#6 v=0
53760 On ch=1 n=c6 v=60
54000 On ch=1 n=c6 v=0
54000 On ch=1 n=g#5 v=60
54240 On ch=1 n=g#5 v=0
54240 On ch=1 n=d#5 v=60
54480 On ch=1 n=d#5 v=0
54480 On ch=1 n=e5 v=60
54720 On ch=1 n=e5 v=0
54720 On ch=1 n=f5 v=60
54840 On ch=1 n=f5 v=0
54960 On ch=1 n=f5 v=60
55080 On ch=1 n=f5 v=0
55200 On ch=1 n=f5 v=60
55320 On ch=1 n=f5 v=0
55440 On ch=1 n=f5 v=60
55560 On ch=1 n=f5 v=0
55680 On ch=1 n=f5 v=60
55800 On ch=1 n=f5 v=0
55920 On ch=1 n=f5 v=60
56040 On ch=1 n=f5 v=0
56160 On ch=1 n=d#5 v=60
56400 On ch=1 n=d#5 v=0
56400 On ch=1 n=g#5 v=60
56640 On ch=1 n=g#5 v=0
56640 On ch=1 n=c6 v=60
56880 On ch=1 n=c6 v=0
56880 On ch=1 n=d#6 v=60
57120 On ch=1 n=d#6 v=0
57120 On ch=1 n=g#6 v=60
57360 On ch=1 n=g#6 v=0
57360 On ch=1 n=e6 v=60
57600 On ch=1 n=e6 v=0
57600 On ch=1 n=f6 v=60
57720 On ch=1 n=f6 v=0
57840 On ch=1 n=f6 v=60
57960 On ch=1 n=f6 v=0
58080 On ch=1 n=f6 v=60
58200 On ch=1 n=f6 v=0
58320 On ch=1 n=f6 v=60
58440 On ch=1 n=f6 v=0
58560 On ch=1 n=f6 v=60
58680 On ch=1 n=f6 v=0
58800 On ch=1 n=f6 v=60
58920 On ch=1 n=f6 v=0
59040 On ch=1 n=f6 v=60
59200 On ch=1 n=f6 v=0
59200 On ch=1 n=g6 v=60
59360 On ch=1 n=g6 v=0
59360 On ch=1 n=f6 v=60
59520 On ch=1 n=f6 v=0
59520 On ch=1 n=d#6 v=60
59760 On ch=1 n=d#6 v=0
59760 On ch=1 n=g#6 v=60
60000 On ch=1 n=g#6 v=0
60000 On ch=1 n=c7 v=60
60120 On ch=1 n=c7 v=0
60480 On ch=1 n=f7 v=60
60960 On ch=1 n=f7 v=0
60960 On ch=1 n=d#7 v=60
61200 On ch=1 n=d#7 v=0
61200 On ch=1 n=c#7 v=60
61440 On ch=1 n=c#7 v=0
61440 On ch=1 n=g6 v=60
61560 On ch=1 n=g6 v=0
61920 On ch=1 n=a#6 v=60
62400 On ch=1 n=a#6 v=0
62400 On ch=1 n=g#6 v=60
62640 On ch=1 n=g#6 v=0
62640 On ch=1 n=d#6 v=60
62880 On ch=1 n=d#6 v=0
62880 On ch=1 n=c6 v=60
63000 On ch=1 n=c6 v=0
63360 On ch=1 n=d#6 v=60
63480 On ch=1 n=d#6 v=0
63600 On ch=1 n=d#6 v=60
63720 On ch=1 n=d#6 v=0
63840 On ch=1 n=d#6 v=60
63960 On ch=1 n=d#6 v=0
64080 On ch=1 n=d#6 v=60
64200 On ch=1 n=d#6 v=0
64320 On ch=1 n=d#6 v=60
64440 On ch=1 n=d#6 v=0
64560 On ch=1 n=d#6 v=60
64680 On ch=1 n=d#6 v=0
64800 On ch=1 n=f6 v=60
65040 On ch=1 n=f6 v=0
65040 On ch=1 n=d#6 v=60
65280 On ch=1 n=d#6 v=0
65280 On ch=1 n=c6 v=60
65520 On ch=1 n=c6 v=0
65520 On ch=1 n=g#5 v=60
65760 On ch=1 n=g#5 v=0
65760 On ch=1 n=d#5 v=60
66000 On ch=1 n=d#5 v=0
66000 On ch=1 n=e5 v=60
66240 On ch=1 n=e5 v=0
66240 On ch=1 n=f5 v=60
66360 On ch=1 n=f5 v=0
66480 On ch=1 n=f5 v=60
66600 On ch=1 n=f5 v=0
66720 On ch=1 n=f5 v=60
66840 On ch=1 n=f5 v=0
66960 On ch=1 n=f5 v=60
67080 On ch=1 n=f5 v=0
67200 On ch=1 n=f5 v=60
67320 On ch=1 n=f5 v=0
67440 On ch=1 n=f5 v=60
67560 On ch=1 n=f5 v=0
67680 On ch=1 n=d#5 v=60
67920 On ch=1 n=d#5 v=0
67920 On ch=1 n=g#5 v=63
68160 On ch=1 n=g#5 v=0
68160 On ch=1 n=c6 v=67
68400 On ch=1 n=c6 v=0
68400 On ch=1 n=d#6 v=70
68640 On ch=1 n=d#6 v=0
68640 On ch=1 n=g#6 v=74
68880 On ch=1 n=g#6 v=0
68880 On ch=1 n=e6 v=77
69120 On ch=1 n=e6 v=0
69120 On ch=1 n=f6 v=80
69240 On ch=1 n=f6 v=0
69360 On ch=1 n=f6 v=80
69480 On ch=1 n=f6 v=0
69600 On ch=1 n=f6 v=81
69720 On ch=1 n=f6 v=0
69840 On ch=1 n=f6 v=82
69960 On ch=1 n=f6 v=0
70080 On ch=1 n=f6 v=83
70200 On ch=1 n=f6 v=0
70320 On ch=1 n=f6 v=84
70440 On ch=1 n=f6 v=0
70560 On ch=1 n=f6 v=85
70720 On ch=1 n=f6 v=0
70720 On ch=1 n=g6 v=85
70880 On ch=1 n=g6 v=0
70880 On ch=1 n=f6 v=86
71040 On ch=1 n=f6 v=0
71040 On ch=1 n=d#6 v=87
71280 On ch=1 n=d#6 v=0
71280 On ch=1 n=g#6 v=87
71520 On ch=1 n=g#6 v=0
71520 On ch=1 n=c7 v=88
71640 On ch=1 n=c7 v=0
72000 On ch=1 n=f7 v=90
72480 On ch=1 n=f7 v=0
72480 On ch=1 n=d#7 v=92
72720 On ch=1 n=d#7 v=0
72720 On ch=1 n=c#7 v=93
72960 On ch=1 n=c#7 v=0
72960 On ch=1 n=g6 v=94
73080 On ch=1 n=g6 v=0
73440 On ch=1 n=g#6 v=95
74400 On ch=1 n=g#6 v=0
74400 On ch=1 n=c6 v=99
74496 On ch=1 n=c6 v=0
74496 On ch=1 n=d6 v=99
74592 On ch=1 n=d6 v=0
74592 On ch=1 n=c6 v=100
74688 On ch=1 n=c6 v=0
74688 On ch=1 n=d6 v=100
74784 On ch=1 n=d6 v=0
74784 On ch=1 n=c6 v=100
74880 On ch=1 n=c6 v=0
74880 On ch=1 n=a#5 v=100
75000 On ch=1 n=a#5 v=0
75360 On ch=1 n=d6 v=100
75600 On ch=1 n=d6 v=0
75600 On ch=1 n=d#6 v=100
75840 On ch=1 n=d#6 v=0
75840 On ch=1 n=f6 v=100
75840 On ch=1 n=d6 v=100
76320 On ch=1 n=d6 v=0
76320 On ch=1 n=f6 v=0
76320 On ch=1 n=a#5 v=100
76440 On ch=1 n=a#5 v=0
76800 On ch=1 n=d#6 v=100
77040 On ch=1 n=d#6 v=0
77040 On ch=1 n=f6 v=100
77280 On ch=1 n=f6 v=0
77280 On ch=1 n=g6 v=100
77280 On ch=1 n=d#6 v=100
77760 On ch=1 n=d#6 v=0
77760 On ch=1 n=g6 v=0
77760 On ch=1 n=a#5 v=100
77880 On ch=1 n=a#5 v=0
78240 On ch=1 n=f6 v=100
78480 On ch=1 n=f6 v=0
78480 On ch=1 n=g6 v=100
78720 On ch=1 n=g6 v=0
78720 On ch=1 n=g#6 v=100
78720 On ch=1 n=f6 v=100
79200 On ch=1 n=f6 v=0
79200 On ch=1 n=g#6 v=0
79200 On ch=1 n=a#6 v=120
79200 On ch=1 n=g6 v=120
79200 On ch=1 n=c#6 v=120
80160 On ch=1 n=c#6 v=0
80160 On ch=1 n=g6 v=0
80160 On ch=1 n=a#6 v=0
80160 On ch=1 n=a#6 v=112
80160 On ch=1 n=g6 v=112
80160 On ch=1 n=c#6 v=112
80280 On ch=1 n=c#6 v=0
80280 On ch=1 n=g6 v=0
80280 On ch=1 n=a#6 v=0
80400 On ch=1 n=c#6 v=110
80400 On ch=1 n=g6 v=110
80400 On ch=1 n=a#6 v=110
80520 On ch=1 n=a#6 v=0
80520 On ch=1 n=g6 v=0
80520 On ch=1 n=c#6 v=0
80640 On ch=1 n=a#6 v=108
80640 On ch=1 n=c#6 v=108
80640 On ch=1 n=g6 v=108
81120 On ch=1 n=a#6 v=0
81120 On ch=1 n=c7 v=104
81360 On ch=1 n=c7 v=0
81360 On ch=1 n=a#6 v=102
81600 On ch=1 n=a#6 v=0
81600 On ch=1 n=g6 v=0
81600 On ch=1 n=c#6 v=0
81600 On ch=1 n=c6 v=100
81600 On ch=1 n=g#6 v=100
81720 On ch=1 n=g#6 v=0
82080 On ch=1 n=c6 v=0
82080 On ch=1 n=g#6 v=96
82080 On ch=1 n=b5 v=96
82560 On ch=1 n=g#6 v=0
82560 On ch=1 n=a#6 v=92
82800 On ch=1 n=a#6 v=0
82800 On ch=1 n=g#6 v=89
83040 On ch=1 n=g#6 v=0
83040 On ch=1 n=b5 v=0
83040 On ch=1 n=a#5 v=87
83040 On ch=1 n=g6 v=87
83160 On ch=1 n=g6 v=0
83520 On ch=1 n=a#5 v=0
83520 On ch=1 n=g6 v=83
83520 On ch=1 n=a#5 v=83
84000 On ch=1 n=g6 v=0
84000 On ch=1 n=g#6 v=79
84240 On ch=1 n=g#6 v=0
84240 On ch=1 n=g6 v=77
84480 On ch=1 n=g6 v=0
84480 On ch=1 n=a#5 v=0
84480 On ch=1 n=g#5 v=75
84480 On ch=1 n=f6 v=75
84600 On ch=1 n=f6 v=0
84960 On ch=1 n=g#5 v=0
84960 On ch=1 n=f6 v=71
84960 On ch=1 n=g#5 v=71
85440 On ch=1 n=f6 v=0
85440 On ch=1 n=g6 v=67
85680 On ch=1 n=g6 v=0
85680 On ch=1 n=f6 v=65
85920 On ch=1 n=f6 v=0
85920 On ch=1 n=g#5 v=0
85920 On ch=1 n=d#6 v=63
85920 On ch=1 n=g5 v=63
86040 On ch=1 n=d#6 v=0
86400 On ch=1 n=g5 v=0
86400 On ch=1 n=a#5 v=60
86640 On ch=1 n=a#5 v=0
86640 On ch=1 n=d6 v=63
86880 On ch=1 n=d6 v=0
86880 On ch=1 n=d#6 v=67
87120 On ch=1 n=d#6 v=0
87120 On ch=1 n=e6 v=70
87360 On ch=1 n=e6 v=0
87360 On ch=1 n=f6 v=74
87360 On ch=1 n=d6 v=74
87840 On ch=1 n=d6 v=0
87840 On ch=1 n=f6 v=0
87840 On ch=1 n=a#5 v=81
88080 On ch=1 n=a#5 v=0
88080 On ch=1 n=d6 v=84
88320 On ch=1 n=d6 v=0
88320 On ch=1 n=d#6 v=88
88560 On ch=1 n=d#6 v=0
88560 On ch=1 n=f6 v=91
88800 On ch=1 n=f6 v=0
88800 On ch=1 n=g6 v=95
88800 On ch=1 n=d#6 v=95
89280 On ch=1 n=d#6 v=0
89280 On ch=1 n=g6 v=0
89280 On ch=1 n=a#5 v=102
89520 On ch=1 n=a#5 v=0
89520 On ch=1 n=e6 v=105
89760 On ch=1 n=e6 v=0
89760 On ch=1 n=f6 v=109
90000 On ch=1 n=f6 v=0
90000 On ch=1 n=g6 v=112
90240 On ch=1 n=g6 v=0
90240 On ch=1 n=g#6 v=116
90240 On ch=1 n=f6 v=116
90720 On ch=1 n=f6 v=0
90720 On ch=1 n=g#6 v=0
90720 On ch=1 n=a#6 v=120
90720 On ch=1 n=g6 v=120
90720 On ch=1 n=c#6 v=120
91440 On ch=1 n=c#6 v=0
91440 On ch=1 n=g6 v=0
91440 On ch=1 n=a#6 v=0
91440 On ch=1 n=a#6 v=114
91440 On ch=1 n=g6 v=114
91680 On ch=1 n=g6 v=0
91680 On ch=1 n=a#6 v=0
91680 On ch=1 n=c#6 v=112
91920 On ch=1 n=a#6 v=110
91920 On ch=1 n=g6 v=110
92160 On ch=1 n=g6 v=0
92160 On ch=1 n=a#6 v=0
92160 On ch=1 n=c#6 v=0
92160 On ch=1 n=c#6 v=108
92400 On ch=1 n=a#6 v=106
92640 On ch=1 n=a#6 v=0
92640 On ch=1 n=c7 v=103
92880 On ch=1 n=c7 v=0
92880 On ch=1 n=a#6 v=101
93120 On ch=1 n=a#6 v=0
93120 On ch=1 n=c#6 v=0
93120 On ch=1 n=c6 v=99
93120 On ch=1 n=g#6 v=99
93240 On ch=1 n=g#6 v=0
93240 On ch=1 n=c6 v=0
93600 On ch=1 n=b5 v=95
93840 On ch=1 n=g#6 v=93
94080 On ch=1 n=g#6 v=0
94080 On ch=1 n=a#6 v=91
94320 On ch=1 n=a#6 v=0
94320 On ch=1 n=g#6 v=88
94560 On ch=1 n=g#6 v=0
94560 On ch=1 n=b5 v=0
94560 On ch=1 n=a#5 v=86
94560 On ch=1 n=g6 v=86
94680 On ch=1 n=g6 v=0
94680 On ch=1 n=a#5 v=0
95040 On ch=1 n=a#5 v=82
95280 On ch=1 n=g6 v=80
95520 On ch=1 n=g6 v=0
95520 On ch=1 n=g#6 v=78
95760 On ch=1 n=g#6 v=0
95760 On ch=1 n=g6 v=76
96000 On ch=1 n=g6 v=0
96000 On ch=1 n=a#5 v=0
96000 On ch=1 n=g#5 v=73
96000 On ch=1 n=f6 v=73
96120 On ch=1 n=f6 v=0
96120 On ch=1 n=g#5 v=0
96480 On ch=1 n=g5 v=69
96480 On ch=1 n=d#6 v=69
96600 On ch=1 n=d#6 v=0
96600 On ch=1 n=g5 v=0
96960 On ch=1 n=d#6 v=65
97080 On ch=1 n=d#6 v=0
97200 On ch=1 n=d#6 v=63
97320 On ch=1 n=d#6 v=0
97440 On ch=1 n=d#6 v=61
97560 On ch=1 n=d#6 v=0
97680 On ch=1 n=d#6 v=60
97800 On ch=1 n=d#6 v=0
97920 On ch=1 n=d#6 v=60
98040 On ch=1 n=d#6 v=0
98160 On ch=1 n=d#6 v=60
98280 On ch=1 n=d#6 v=0
98400 On ch=1 n=d#6 v=60
98520 On ch=1 n=d#6 v=0
98640 On ch=1 n=d#6 v=60
98760 On ch=1 n=d#6 v=0
98880 On ch=1 n=d#6 v=60
99000 On ch=1 n=d#6 v=0
99120 On ch=1 n=d#6 v=60
99240 On ch=1 n=d#6 v=0
99360 On ch=1 n=f6 v=60
99600 On ch=1 n=f6 v=0
99600 On ch=1 n=d#6 v=60
99840 On ch=1 n=d#6 v=0
99840 On ch=1 n=c6 v=60
100080 On ch=1 n=c6 v=0
100080 On ch=1 n=g#5 v=60
100320 On ch=1 n=g#5 v=0
100320 On ch=1 n=d#5 v=60
100560 On ch=1 n=d#5 v=0
100560 On ch=1 n=e5 v=60
100800 On ch=1 n=e5 v=0
100800 On ch=1 n=f5 v=60
100920 On ch=1 n=f5 v=0
101040 On ch=1 n=f5 v=60
101160 On ch=1 n=f5 v=0
101280 On ch=1 n=f5 v=60
101400 On ch=1 n=f5 v=0
101520 On ch=1 n=f5 v=60
101640 On ch=1 n=f5 v=0
101760 On ch=1 n=f5 v=60
101880 On ch=1 n=f5 v=0
102000 On ch=1 n=f5 v=60
102120 On ch=1 n=f5 v=0
102240 On ch=1 n=d#5 v=60
102480 On ch=1 n=d#5 v=0
102480 On ch=1 n=g#5 v=60
102720 On ch=1 n=g#5 v=0
102720 On ch=1 n=c6 v=60
102960 On ch=1 n=c6 v=0
102960 On ch=1 n=d#6 v=60
103200 On ch=1 n=d#6 v=0
103200 On ch=1 n=g#6 v=60
103440 On ch=1 n=g#6 v=0
103440 On ch=1 n=e6 v=60
103680 On ch=1 n=e6 v=0
103680 On ch=1 n=f6 v=60
103800 On ch=1 n=f6 v=0
103920 On ch=1 n=f6 v=60
104040 On ch=1 n=f6 v=0
104160 On ch=1 n=f6 v=60
104280 On ch=1 n=f6 v=0
104400 On ch=1 n=f6 v=60
104520 On ch=1 n=f6 v=0
104640 On ch=1 n=f6 v=60
104760 On ch=1 n=f6 v=0
104880 On ch=1 n=f6 v=60
105000 On ch=1 n=f6 v=0
105120 On ch=1 n=f6 v=60
105280 On ch=1 n=f6 v=0
105280 On ch=1 n=g6 v=60
105440 On ch=1 n=g6 v=0
105440 On ch=1 n=f6 v=60
105600 On ch=1 n=f6 v=0
105600 On ch=1 n=d#6 v=60
105840 On ch=1 n=d#6 v=0
105840 On ch=1 n=g#6 v=60
106080 On ch=1 n=g#6 v=0
106080 On ch=1 n=c7 v=60
106200 On ch=1 n=c7 v=0
106560 On ch=1 n=f7 v=60
107040 On ch=1 n=f7 v=0
107040 On ch=1 n=d#7 v=60
107280 On ch=1 n=d#7 v=0
107280 On ch=1 n=c#7 v=60
107520 On ch=1 n=c#7 v=0
107520 On ch=1 n=g6 v=60
107640 On ch=1 n=g6 v=0
108000 On ch=1 n=a#6 v=60
108480 On ch=1 n=a#6 v=0
108480 On ch=1 n=g#6 v=60
108720 On ch=1 n=g#6 v=0
108720 On ch=1 n=d#6 v=60
108960 On ch=1 n=d#6 v=0
108960 On ch=1 n=c6 v=60
109080 On ch=1 n=c6 v=0
109440 On ch=1 n=d#6 v=60
109560 On ch=1 n=d#6 v=0
109680 On ch=1 n=d#6 v=60
109800 On ch=1 n=d#6 v=0
109920 On ch=1 n=d#6 v=60
110040 On ch=1 n=d#6 v=0
110160 On ch=1 n=d#6 v=60
110280 On ch=1 n=d#6 v=0
110400 On ch=1 n=d#6 v=60
110520 On ch=1 n=d#6 v=0
110640 On ch=1 n=d#6 v=60
110760 On ch=1 n=d#6 v=0
110880 On ch=1 n=f6 v=60
111120 On ch=1 n=f6 v=0
111120 On ch=1 n=d#6 v=60
111360 On ch=1 n=d#6 v=0
111360 On ch=1 n=c6 v=60
111600 On ch=1 n=c6 v=0
111600 On ch=1 n=g#5 v=60
111840 On ch=1 n=g#5 v=0
111840 On ch=1 n=d#5 v=60
112080 On ch=1 n=d#5 v=0
112080 On ch=1 n=e5 v=60
112320 On ch=1 n=e5 v=0
112320 On ch=1 n=f5 v=60
112440 On ch=1 n=f5 v=0
112560 On ch=1 n=f5 v=60
112680 On ch=1 n=f5 v=0
112800 On ch=1 n=f5 v=60
112920 On ch=1 n=f5 v=0
113040 On ch=1 n=f5 v=60
113160 On ch=1 n=f5 v=0
113280 On ch=1 n=f5 v=60
113400 On ch=1 n=f5 v=0
113520 On ch=1 n=f5 v=60
113640 On ch=1 n=f5 v=0
113760 On ch=1 n=d#5 v=60
114000 On ch=1 n=d#5 v=0
114000 On ch=1 n=g#5 v=60
114240 On ch=1 n=g#5 v=0
114240 On ch=1 n=c6 v=60
114480 On ch=1 n=c6 v=0
114480 On ch=1 n=d#6 v=60
114720 On ch=1 n=d#6 v=0
114720 On ch=1 n=g#6 v=60
114960 On ch=1 n=g#6 v=0
114960 On ch=1 n=e6 v=60
115200 On ch=1 n=e6 v=0
115200 On ch=1 n=f6 v=60
115320 On ch=1 n=f6 v=0
115440 On ch=1 n=f6 v=60
115560 On ch=1 n=f6 v=0
115680 On ch=1 n=f6 v=60
115800 On ch=1 n=f6 v=0
115920 On ch=1 n=f6 v=60
116040 On ch=1 n=f6 v=0
116160 On ch=1 n=f6 v=60
116280 On ch=1 n=f6 v=0
116400 On ch=1 n=f6 v=60
116520 On ch=1 n=f6 v=0
116640 On ch=1 n=f6 v=60
116800 On ch=1 n=f6 v=0
116800 On ch=1 n=g6 v=60
116960 On ch=1 n=g6 v=0
116960 On ch=1 n=f6 v=60
117120 On ch=1 n=f6 v=0
117120 On ch=1 n=d#6 v=60
117360 On ch=1 n=d#6 v=0
117360 On ch=1 n=g#6 v=60
117600 On ch=1 n=g#6 v=0
117600 On ch=1 n=c7 v=60
117720 On ch=1 n=c7 v=0
118080 On ch=1 n=f7 v=60
118560 On ch=1 n=f7 v=0
118560 On ch=1 n=d#7 v=60
118800 On ch=1 n=d#7 v=0
118800 On ch=1 n=c#7 v=60
119040 On ch=1 n=c#7 v=0
119040 On ch=1 n=g6 v=60
119160 On ch=1 n=g6 v=0
119520 On ch=1 n=g#6 v=60
120480 On ch=1 n=g#6 v=0
120480 On ch=1 n=g#5 v=60
120960 On ch=1 n=g#5 v=0
120960 On ch=1 n=f#6 v=80
120960 On ch=1 n=d#6 v=80
121920 On ch=1 n=d#6 v=0
121920 On ch=1 n=f#6 v=0
121920 On ch=1 n=d6 v=80
121920 On ch=1 n=b5 v=80
122400 On ch=1 n=b5 v=0
122400 On ch=1 n=d6 v=0
122400 On ch=1 n=d#6 v=80
122400 On ch=1 n=c6 v=80
122520 On ch=1 n=c6 v=0
122520 On ch=1 n=d#6 v=0
122880 On ch=1 n=g#5 v=80
123000 On ch=1 n=g#5 v=0
123120 On ch=1 n=g#5 v=80
123240 On ch=1 n=g#5 v=0
123360 On ch=1 n=g#5 v=80
123840 On ch=1 n=g#5 v=0
123840 On ch=1 n=a#6 v=80
123840 On ch=1 n=f#6 v=80
124800 On ch=1 n=f#6 v=0
124800 On ch=1 n=a#6 v=0
124800 On ch=1 n=g6 v=80
124800 On ch=1 n=e6 v=80
125280 On ch=1 n=e6 v=0
125280 On ch=1 n=g6 v=0
125280 On ch=1 n=g#6 v=80
125280 On ch=1 n=f6 v=80
125400 On ch=1 n=f6 v=0
125400 On ch=1 n=g#6 v=0
125760 On ch=1 n=g#5 v=80
125880 On ch=1 n=g#5 v=0
126000 On ch=1 n=g#5 v=80
126120 On ch=1 n=g#5 v=0
126240 On ch=1 n=g#5 v=80
126720 On ch=1 n=g#5 v=0
126720 On ch=1 n=f#6 v=80
126720 On ch=1 n=d#6 v=80
127680 On ch=1 n=d#6 v=0
127680 On ch=1 n=f#6 v=0
127680 On ch=1 n=d6 v=80
127680 On ch=1 n=b5 v=80
128160 On ch=1 n=b5 v=0
128160 On ch=1 n=d6 v=0
128160 On ch=1 n=d#6 v=80
128160 On ch=1 n=c6 v=80
128280 On ch=1 n=c6 v=0
128280 On ch=1 n=d#6 v=0
128640 On ch=1 n=g#5 v=80
128760 On ch=1 n=g#5 v=0
128880 On ch=1 n=g#5 v=80
129000 On ch=1 n=g#5 v=0
129120 On ch=1 n=g#5 v=80
129600 On ch=1 n=g#5 v=0
129600 On ch=1 n=a#5 v=80
129600 On ch=1 n=f#6 v=80
130080 On ch=1 n=f#6 v=0
130080 On ch=1 n=a#5 v=0
130080 On ch=1 n=g#5 v=80
130080 On ch=1 n=f6 v=80
130560 On ch=1 n=f6 v=0
130560 On ch=1 n=g#5 v=0
130560 On ch=1 n=f#5 v=80
130560 On ch=1 n=d#6 v=80
131040 On ch=1 n=d#6 v=0
131040 On ch=1 n=f#5 v=0
131040 On ch=1 n=f5 v=80
131040 On ch=1 n=c#6 v=80
131160 On ch=1 n=c#6 v=0
131160 On ch=1 n=f5 v=0
131520 On ch=1 n=g#5 v=80
131640 On ch=1 n=g#5 v=0
131760 On ch=1 n=g#5 v=80
131880 On ch=1 n=g#5 v=0
132000 On ch=1 n=g#5 v=80
132480 On ch=1 n=g#5 v=0
132480 On ch=1 n=f#6 v=80
132480 On ch=1 n=d#6 v=80
133440 On ch=1 n=d#6 v=0
133440 On ch=1 n=f#6 v=0
133440 On ch=1 n=d6 v=80
133440 On ch=1 n=b5 v=80
133920 On ch=1 n=b5 v=0
133920 On ch=1 n=d6 v=0
133920 On ch=1 n=d#6 v=80
133920 On ch=1 n=c6 v=80
134040 On ch=1 n=c6 v=0
134040 On ch=1 n=d#6 v=0
134400 On ch=1 n=g#5 v=80
134520 On ch=1 n=g#5 v=0
134640 On ch=1 n=g#5 v=80
134760 On ch=1 n=g#5 v=0
134880 On ch=1 n=g#5 v=80
135360 On ch=1 n=g#5 v=0
135360 On ch=1 n=a#6 v=80
135360 On ch=1 n=f#6 v=80
136320 On ch=1 n=f#6 v=0
136320 On ch=1 n=a#6 v=0
136320 On ch=1 n=g6 v=80
136320 On ch=1 n=e6 v=80
136800 On ch=1 n=e6 v=0
136800 On ch=1 n=g6 v=0
136800 On ch=1 n=g#6 v=80
136800 On ch=1 n=f6 v=80
136920 On ch=1 n=f6 v=0
136920 On ch=1 n=g#6 v=0
137280 On ch=1 n=g#5 v=80
137400 On ch=1 n=g#5 v=0
137520 On ch=1 n=g#5 v=80
137640 On ch=1 n=g#5 v=0
137760 On ch=1 n=g#5 v=80
138240 On ch=1 n=g#5 v=0
138240 On ch=1 n=g#6 v=80
138360 On ch=1 n=g#6 v=0
138720 On ch=1 n=a#5 v=80
138960 On ch=1 n=g#6 v=80
139200 On ch=1 n=g#6 v=0
139200 On ch=1 n=a#5 v=0
139200 On ch=1 n=f#6 v=80
139200 On ch=1 n=d#6 v=80
140160 On ch=1 n=d#6 v=0
140160 On ch=1 n=g#5 v=80
140400 On ch=1 n=f#6 v=0
140400 On ch=1 n=f#6 v=80
140640 On ch=1 n=f#6 v=0
140640 On ch=1 n=g#5 v=0
140640 On ch=1 n=f6 v=80
140640 On ch=1 n=c#6 v=80
141600 On ch=1 n=c#6 v=0
141600 On ch=1 n=f#5 v=80
141840 On ch=1 n=f6 v=0
141840 On ch=1 n=f6 v=80
142080 On ch=1 n=f6 v=0
142080 On ch=1 n=f#5 v=0
142080 On ch=1 n=f#5 v=80
142080 On ch=1 n=d#6 v=80
142560 On ch=1 n=d#6 v=0
142560 On ch=1 n=f#5 v=0
142560 On ch=1 n=f5 v=120
142560 On ch=1 n=c#6 v=120
142680 On ch=1 n=c#6 v=0
142680 On ch=1 n=f5 v=0
143040 On ch=1 n=g#5 v=80
143160 On ch=1 n=g#5 v=0
143280 On ch=1 n=g#5 v=80
143400 On ch=1 n=g#5 v=0
143520 On ch=1 n=g#5 v=80
144000 On ch=1 n=g#5 v=0
144000 On ch=1 n=f#6 v=80
144000 On ch=1 n=d#6 v=80
144960 On ch=1 n=d#6 v=0
144960 On ch=1 n=f#6 v=0
144960 On ch=1 n=d6 v=80
144960 On ch=1 n=b5 v=80
145440 On ch=1 n=b5 v=0
145440 On ch=1 n=d6 v=0
145440 On ch=1 n=d#6 v=80
145440 On ch=1 n=c6 v=80
145560 On ch=1 n=c6 v=0
145560 On ch=1 n=d#6 v=0
145920 On ch=1 n=g#5 v=80
146040 On ch=1 n=g#5 v=0
146160 On ch=1 n=g#5 v=80
146280 On ch=1 n=g#5 v=0
146400 On ch=1 n=g#5 v=80
146880 On ch=1 n=g#5 v=0
146880 On ch=1 n=a#6 v=80
146880 On ch=1 n=f#6 v=80
147840 On ch=1 n=f#6 v=0
147840 On ch=1 n=a#6 v=0
147840 On ch=1 n=g6 v=80
147840 On ch=1 n=e6 v=80
148320 On ch=1 n=e6 v=0
148320 On ch=1 n=g6 v=0
148320 On ch=1 n=g#6 v=80
148320 On ch=1 n=f6 v=80
148440 On ch=1 n=f6 v=0
148440 On ch=1 n=g#6 v=0
148800 On ch=1 n=g#5 v=80
148920 On ch=1 n=g#5 v=0
149040 On ch=1 n=g#5 v=80
149160 On ch=1 n=g#5 v=0
149280 On ch=1 n=g#5 v=80
149760 On ch=1 n=g#5 v=0
149760 On ch=1 n=f#6 v=80
149760 On ch=1 n=d#6 v=80
150720 On ch=1 n=d#6 v=0
150720 On ch=1 n=f#6 v=0
150720 On ch=1 n=d6 v=80
150720 On ch=1 n=b5 v=80
151200 On ch=1 n=b5 v=0
151200 On ch=1 n=d6 v=0
151200 On ch=1 n=d#6 v=80
151200 On ch=1 n=c6 v=80
151320 On ch=1 n=c6 v=0
151320 On ch=1 n=d#6 v=0
151680 On ch=1 n=g#5 v=80
151800 On ch=1 n=g#5 v=0
151920 On ch=1 n=g#5 v=80
152040 On ch=1 n=g#5 v=0
152160 On ch=1 n=g#5 v=80
152640 On ch=1 n=g#5 v=0
152640 On ch=1 n=a#5 v=80
152640 On ch=1 n=f#6 v=80
153120 On ch=1 n=f#6 v=0
153120 On ch=1 n=a#5 v=0
153120 On ch=1 n=g#5 v=80
153120 On ch=1 n=f6 v=80
153600 On ch=1 n=f6 v=0
153600 On ch=1 n=g#5 v=0
153600 On ch=1 n=f#5 v=80
153600 On ch=1 n=d#6 v=80
154080 On ch=1 n=d#6 v=0
154080 On ch=1 n=f#5 v=0
154080 On ch=1 n=f5 v=80
154080 On ch=1 n=c#6 v=80
154200 On ch=1 n=c#6 v=0
154200 On ch=1 n=f5 v=0
154560 On ch=1 n=g#5 v=80
154680 On ch=1 n=g#5 v=0
154800 On ch=1 n=g#5 v=80
154920 On ch=1 n=g#5 v=0
155040 On ch=1 n=g#5 v=80
155520 On ch=1 n=g#5 v=0
155520 On ch=1 n=f#6 v=80
155520 On ch=1 n=d#6 v=80
156480 On ch=1 n=d#6 v=0
156480 On ch=1 n=f#6 v=0
156480 On ch=1 n=d6 v=80
156480 On ch=1 n=b5 v=80
156960 On ch=1 n=b5 v=0
156960 On ch=1 n=d6 v=0
156960 On ch=1 n=d#6 v=80
156960 On ch=1 n=c6 v=80
157080 On ch=1 n=c6 v=0
157080 On ch=1 n=d#6 v=0
157440 On ch=1 n=g#5 v=80
157560 On ch=1 n=g#5 v=0
157680 On ch=1 n=g#5 v=80
157800 On ch=1 n=g#5 v=0
157920 On ch=1 n=g#5 v=80
158400 On ch=1 n=g#5 v=0
158400 On ch=1 n=a#6 v=80
158400 On ch=1 n=f#6 v=80
159360 On ch=1 n=f#6 v=0
159360 On ch=1 n=a#6 v=0
159360 On ch=1 n=g6 v=80
159360 On ch=1 n=e6 v=80
159840 On ch=1 n=e6 v=0
159840 On ch=1 n=g6 v=0
159840 On ch=1 n=g#6 v=80
159840 On ch=1 n=f6 v=80
159960 On ch=1 n=f6 v=0
159960 On ch=1 n=g#6 v=0
160320 On ch=1 n=g#5 v=80
160440 On ch=1 n=g#5 v=0
160560 On ch=1 n=g#5 v=80
160680 On ch=1 n=g#5 v=0
160800 On ch=1 n=g#5 v=80
161280 On ch=1 n=g#5 v=0
161280 On ch=1 n=g#6 v=80
161400 On ch=1 n=g#6 v=0
161760 On ch=1 n=a#5 v=80
162000 On ch=1 n=g#6 v=80
162240 On ch=1 n=g#6 v=0
162240 On ch=1 n=a#5 v=0
162240 On ch=1 n=f#6 v=80
162240 On ch=1 n=d#6 v=80
163200 On ch=1 n=d#6 v=0
163200 On ch=1 n=g#5 v=80
163440 On ch=1 n=f#6 v=0
163440 On ch=1 n=f#6 v=80
163680 On ch=1 n=f#6 v=0
163680 On ch=1 n=g#5 v=0
163680 On ch=1 n=f6 v=80
163680 On ch=1 n=c#6 v=80
164640 On ch=1 n=c#6 v=0
164640 On ch=1 n=f#5 v=80
164880 On ch=1 n=f6 v=0
164880 On ch=1 n=f6 v=80
165120 On ch=1 n=f6 v=0
165120 On ch=1 n=f#5 v=0
165120 On ch=1 n=f#5 v=80
165120 On ch=1 n=d#6 v=80
165600 On ch=1 n=d#6 v=0
165600 On ch=1 n=f#5 v=0
165600 On ch=1 n=f5 v=120
165600 On ch=1 n=c#6 v=120
166080 On ch=1 n=c#6 v=0
166080 On ch=1 n=f5 v=0
166560 On ch=1 n=f6 v=110
166560 On ch=1 n=f5 v=110
166980 On ch=1 n=f6 v=110
167040 On ch=1 n=f6 v=0
167040 On ch=1 n=f5 v=0
167040 On ch=1 n=f6 v=0
167040 On ch=1 n=g5 v=110
167040 On ch=1 n=d#6 v=110
167160 On ch=1 n=d#6 v=0
167160 On ch=1 n=g5 v=0
167520 On ch=1 n=g5 v=110
167640 On ch=1 n=g5 v=0
167940 On ch=1 n=f6 v=110
168000 On ch=1 n=f6 v=0
168000 On ch=1 n=d#6 v=110
168000 On ch=1 n=g5 v=110
168120 On ch=1 n=g5 v=0
168120 On ch=1 n=d#6 v=0
168480 On ch=1 n=g5 v=110
168600 On ch=1 n=g5 v=0
168900 On ch=1 n=f6 v=110
168960 On ch=1 n=f6 v=0
168960 On ch=1 n=d#6 v=110
168960 On ch=1 n=g5 v=110
169080 On ch=1 n=g5 v=0
169080 On ch=1 n=d#6 v=0
169440 On ch=1 n=g5 v=110
169560 On ch=1 n=g5 v=0
169920 On ch=1 n=g#5 v=60
170160 On ch=1 n=g#5 v=0
170160 On ch=1 n=c6 v=60
170400 On ch=1 n=c6 v=0
170400 On ch=1 n=d#6 v=60
170640 On ch=1 n=d#6 v=0
170640 On ch=1 n=g#6 v=60
170880 On ch=1 n=g#6 v=0
170880 On ch=1 n=c7 v=60
171360 On ch=1 n=c7 v=0
171360 On ch=1 n=g#6 v=60
171520 On ch=1 n=g#6 v=0
171520 On ch=1 n=a#6 v=60
171680 On ch=1 n=a#6 v=0
171680 On ch=1 n=g#6 v=60
171840 On ch=1 n=g#6 v=0
171840 On ch=1 n=f6 v=60
172080 On ch=1 n=f6 v=0
172080 On ch=1 n=d6 v=60
172320 On ch=1 n=d6 v=0
172320 On ch=1 n=d#6 v=60
172440 On ch=1 n=d#6 v=0
172740 On ch=1 n=f6 v=100
172800 On ch=1 n=f6 v=0
172800 On ch=1 n=g5 v=100
172800 On ch=1 n=d#6 v=100
172920 On ch=1 n=d#6 v=0
172920 On ch=1 n=g5 v=0
173280 On ch=1 n=g5 v=100
173400 On ch=1 n=g5 v=0
173700 On ch=1 n=f6 v=100
173760 On ch=1 n=f6 v=0
173760 On ch=1 n=d#6 v=100
173760 On ch=1 n=g5 v=100
173880 On ch=1 n=g5 v=0
173880 On ch=1 n=d#6 v=0
174240 On ch=1 n=g5 v=100
174360 On ch=1 n=g5 v=0
174660 On ch=1 n=f6 v=100
174720 On ch=1 n=f6 v=0
174720 On ch=1 n=d#6 v=100
174720 On ch=1 n=g5 v=100
174840 On ch=1 n=g5 v=0
174840 On ch=1 n=d#6 v=0
175200 On ch=1 n=g5 v=100
175320 On ch=1 n=g5 v=0
175680 On ch=1 n=d#5 v=60
175840 On ch=1 n=d#5 v=0
175840 On ch=1 n=f5 v=62
176000 On ch=1 n=f5 v=0
176000 On ch=1 n=d#5 v=64
176160 On ch=1 n=d#5 v=0
176160 On ch=1 n=d5 v=67
176400 On ch=1 n=d5 v=0
176400 On ch=1 n=d#5 v=70
176640 On ch=1 n=d#5 v=0
176640 On ch=1 n=c6 v=74
176880 On ch=1 n=c6 v=0
176880 On ch=1 n=a#5 v=77
177000 On ch=1 n=g#5 v=79
177060 On ch=1 n=g#5 v=0
177060 On ch=1 n=a#5 v=80
177120 On ch=1 n=a#5 v=0
177120 On ch=1 n=a#5 v=0
177120 On ch=1 n=g#5 v=81
177360 On ch=1 n=g#5 v=0
177360 On ch=1 n=g5 v=84
177600 On ch=1 n=g5 v=0
177600 On ch=1 n=g#5 v=88
177840 On ch=1 n=g#5 v=0
177840 On ch=1 n=a#5 v=91
178080 On ch=1 n=a#5 v=0
178080 On ch=1 n=c6 v=95
178320 On ch=1 n=c6 v=0
178320 On ch=1 n=c#6 v=98
178500 On ch=1 n=f6 v=100
178560 On ch=1 n=f6 v=0
178560 On ch=1 n=c#6 v=0
178560 On ch=1 n=g5 v=100
178560 On ch=1 n=d#6 v=100
178680 On ch=1 n=d#6 v=0
178680 On ch=1 n=g5 v=0
179040 On ch=1 n=g5 v=100
179160 On ch=1 n=g5 v=0
179460 On ch=1 n=f6 v=100
179520 On ch=1 n=f6 v=0
179520 On ch=1 n=d#6 v=100
179520 On ch=1 n=g5 v=100
179640 On ch=1 n=g5 v=0
179640 On ch=1 n=d#6 v=0
180000 On ch=1 n=g5 v=100
180120 On ch=1 n=g5 v=0
180420 On ch=1 n=f6 v=100
180480 On ch=1 n=f6 v=0
180480 On ch=1 n=d#6 v=100
180480 On ch=1 n=g5 v=100
180600 On ch=1 n=g5 v=0
180600 On ch=1 n=d#6 v=0
180960 On ch=1 n=g5 v=100
181080 On ch=1 n=g5 v=0
181440 On ch=1 n=g#5 v=60
181680 On ch=1 n=g#5 v=0
181680 On ch=1 n=c6 v=60
181920 On ch=1 n=c6 v=0
181920 On ch=1 n=d#6 v=60
182160 On ch=1 n=d#6 v=0
182160 On ch=1 n=g#6 v=60
182400 On ch=1 n=g#6 v=0
182400 On ch=1 n=c7 v=60
182880 On ch=1 n=c7 v=0
182880 On ch=1 n=g#6 v=60
183040 On ch=1 n=g#6 v=0
183040 On ch=1 n=a#6 v=60
183200 On ch=1 n=a#6 v=0
183200 On ch=1 n=g#6 v=60
183360 On ch=1 n=g#6 v=0
183360 On ch=1 n=f6 v=60
183600 On ch=1 n=f6 v=0
183600 On ch=1 n=d6 v=60
183840 On ch=1 n=d6 v=0
183840 On ch=1 n=d#6 v=60
183960 On ch=1 n=d#6 v=0
184260 On ch=1 n=f6 v=100
184320 On ch=1 n=f6 v=0
184320 On ch=1 n=g5 v=100
184320 On ch=1 n=d#6 v=100
184440 On ch=1 n=d#6 v=0
184440 On ch=1 n=g5 v=0
184800 On ch=1 n=g5 v=100
184920 On ch=1 n=g5 v=0
185220 On ch=1 n=f6 v=100
185280 On ch=1 n=f6 v=0
185280 On ch=1 n=d#6 v=100
185280 On ch=1 n=g5 v=100
185400 On ch=1 n=g5 v=0
185400 On ch=1 n=d#6 v=0
185760 On ch=1 n=g5 v=100
185880 On ch=1 n=g5 v=0
186180 On ch=1 n=f6 v=100
186240 On ch=1 n=f6 v=0
186240 On ch=1 n=d#6 v=100
186240 On ch=1 n=g5 v=100
186360 On ch=1 n=g5 v=0
186360 On ch=1 n=d#6 v=0
186720 On ch=1 n=g5 v=100
186840 On ch=1 n=g5 v=0
187080 On ch=1 n=g#5 v=100
187140 On ch=1 n=g#5 v=0
187140 On ch=1 n=a#5 v=100
187200 On ch=1 n=a#5 v=0
187200 On ch=1 n=g#5 v=100
187440 On ch=1 n=g#5 v=0
187440 On ch=1 n=g5 v=100
187680 On ch=1 n=g5 v=0
187680 On ch=1 n=g#5 v=100
187920 On ch=1 n=g#5 v=0
187920 On ch=1 n=a#5 v=100
188160 On ch=1 n=a#5 v=0
188160 On ch=1 n=c6 v=100
188400 On ch=1 n=c6 v=0
188400 On ch=1 n=c#6 v=100
188640 On ch=1 n=c#6 v=0
188640 On ch=1 n=d#6 v=100
188880 On ch=1 n=d#6 v=0
188880 On ch=1 n=f6 v=100
189120 On ch=1 n=f6 v=0
189120 On ch=1 n=f#6 v=100
189360 On ch=1 n=f#6 v=0
189360 On ch=1 n=g6 v=100
189600 On ch=1 n=g6 v=0
189600 On ch=1 n=a#6 v=100
189960 On ch=1 n=a#6 v=0
189960 On ch=1 n=g#6 v=100
190080 On ch=1 n=g#6 v=0
190080 On ch=1 n=f#6 v=80
190080 On ch=1 n=d#6 v=80
191040 On ch=1 n=d#6 v=0
191040 On ch=1 n=f#6 v=0
191040 On ch=1 n=d6 v=80
191040 On ch=1 n=b5 v=80
191520 On ch=1 n=b5 v=0
191520 On ch=1 n=d6 v=0
191520 On ch=1 n=d#6 v=80
191520 On ch=1 n=c6 v=80
191640 On ch=1 n=c6 v=0
191640 On ch=1 n=d#6 v=0
192000 On ch=1 n=g#5 v=80
192120 On ch=1 n=g#5 v=0
192240 On ch=1 n=g#5 v=80
192360 On ch=1 n=g#5 v=0
192480 On ch=1 n=g#5 v=80
192960 On ch=1 n=g#5 v=0
192960 On ch=1 n=a#6 v=80
192960 On ch=1 n=f#6 v=80
193920 On ch=1 n=f#6 v=0
193920 On ch=1 n=a#6 v=0
193920 On ch=1 n=g6 v=80
193920 On ch=1 n=e6 v=80
194400 On ch=1 n=e6 v=0
194400 On ch=1 n=g6 v=0
194400 On ch=1 n=g#6 v=80
194400 On ch=1 n=f6 v=80
194520 On ch=1 n=f6 v=0
194520 On ch=1 n=g#6 v=0
194880 On ch=1 n=g#5 v=80
195000 On ch=1 n=g#5 v=0
195120 On ch=1 n=g#5 v=80
195240 On ch=1 n=g#5 v=0
195360 On ch=1 n=g#5 v=80
195840 On ch=1 n=g#5 v=0
195840 On ch=1 n=f#6 v=80
195840 On ch=1 n=d#6 v=80
196800 On ch=1 n=d#6 v=0
196800 On ch=1 n=f#6 v=0
196800 On ch=1 n=d6 v=80
196800 On ch=1 n=b5 v=80
197280 On ch=1 n=b5 v=0
197280 On ch=1 n=d6 v=0
197280 On ch=1 n=d#6 v=80
197280 On ch=1 n=c6 v=80
197400 On ch=1 n=c6 v=0
197400 On ch=1 n=d#6 v=0
197760 On ch=1 n=g#5 v=80
197880 On ch=1 n=g#5 v=0
198000 On ch=1 n=g#5 v=80
198120 On ch=1 n=g#5 v=0
198240 On ch=1 n=g#5 v=80
198720 On ch=1 n=g#5 v=0
198720 On ch=1 n=a#5 v=80
198720 On ch=1 n=f#6 v=80
199200 On ch=1 n=f#6 v=0
199200 On ch=1 n=a#5 v=0
199200 On ch=1 n=g#5 v=80
199200 On ch=1 n=f6 v=80
199680 On ch=1 n=f6 v=0
199680 On ch=1 n=g#5 v=0
199680 On ch=1 n=f#5 v=80
199680 On ch=1 n=d#6 v=80
200160 On ch=1 n=d#6 v=0
200160 On ch=1 n=f#5 v=0
200160 On ch=1 n=f5 v=80
200160 On ch=1 n=c#6 v=80
200280 On ch=1 n=c#6 v=0
200280 On ch=1 n=f5 v=0
200640 On ch=1 n=g#5 v=80
200760 On ch=1 n=g#5 v=0
200880 On ch=1 n=g#5 v=80
201000 On ch=1 n=g#5 v=0
201120 On ch=1 n=g#5 v=80
201600 On ch=1 n=g#5 v=0
201600 On ch=1 n=f#6 v=80
201600 On ch=1 n=d#6 v=80
202560 On ch=1 n=d#6 v=0
202560 On ch=1 n=f#6 v=0
202560 On ch=1 n=d6 v=80
202560 On ch=1 n=b5 v=80
203040 On ch=1 n=b5 v=0
203040 On ch=1 n=d6 v=0
203040 On ch=1 n=d#6 v=80
203040 On ch=1 n=c6 v=80
203160 On ch=1 n=c6 v=0
203160 On ch=1 n=d#6 v=0
203520 On ch=1 n=g#5 v=80
203640 On ch=1 n=g#5 v=0
203760 On ch=1 n=g#5 v=80
203880 On ch=1 n=g#5 v=0
204000 On ch=1 n=g#5 v=80
204480 On ch=1 n=g#5 v=0
204480 On ch=1 n=a#6 v=80
204480 On ch=1 n=f#6 v=80
205440 On ch=1 n=f#6 v=0
205440 On ch=1 n=a#6 v=0
205440 On ch=1 n=g6 v=80
205440 On ch=1 n=e6 v=80
205920 On ch=1 n=e6 v=0
205920 On ch=1 n=g6 v=0
205920 On ch=1 n=g#6 v=80
205920 On ch=1 n=f6 v=80
206040 On ch=1 n=f6 v=0
206040 On ch=1 n=g#6 v=0
206400 On ch=1 n=g#5 v=80
206520 On ch=1 n=g#5 v=0
206640 On ch=1 n=g#5 v=80
206760 On ch=1 n=g#5 v=0
206880 On ch=1 n=g#5 v=80
207360 On ch=1 n=g#5 v=0
207360 On ch=1 n=g#6 v=80
207480 On ch=1 n=g#6 v=0
207840 On ch=1 n=a#5 v=80
208080 On ch=1 n=g#6 v=80
208320 On ch=1 n=g#6 v=0
208320 On ch=1 n=a#5 v=0
208320 On ch=1 n=f#6 v=80
208320 On ch=1 n=d#6 v=80
209280 On ch=1 n=d#6 v=0
209280 On ch=1 n=g#5 v=80
209520 On ch=1 n=f#6 v=0
209520 On ch=1 n=f#6 v=80
209760 On ch=1 n=f#6 v=0
209760 On ch=1 n=g#5 v=0
209760 On ch=1 n=f6 v=80
209760 On ch=1 n=c#6 v=80
210720 On ch=1 n=c#6 v=0
210720 On ch=1 n=f#5 v=80
210960 On ch=1 n=f6 v=0
210960 On ch=1 n=f6 v=80
211200 On ch=1 n=f6 v=0
211200 On ch=1 n=f#5 v=0
211200 On ch=1 n=f#5 v=80
211200 On ch=1 n=d#6 v=80
211680 On ch=1 n=d#6 v=0
211680 On ch=1 n=f#5 v=0
211680 On ch=1 n=f5 v=80
211680 On ch=1 n=c#6 v=80
211800 On ch=1 n=c#6 v=0
212160 On ch=1 n=f5 v=0
212160 On ch=1 n=c#5 v=80
212280 On ch=1 n=c#5 v=0
212400 On ch=1 n=c#5 v=80
212520 On ch=1 n=c#5 v=0
212640 On ch=1 n=c#5 v=80
213120 On ch=1 n=c#5 v=0
213120 On ch=1 n=f5 v=100
213120 On ch=1 n=g#5 v=100
213600 On ch=1 n=g#5 v=0
213600 On ch=1 n=f5 v=0
214080 On ch=1 n=f5 v=100
214080 On ch=1 n=g#5 v=100
214440 On ch=1 n=g#5 v=100
214500 On ch=1 n=g#5 v=0
214500 On ch=1 n=a#5 v=100
214560 On ch=1 n=a#5 v=0
214560 On ch=1 n=g#5 v=0
214560 On ch=1 n=f5 v=0
214560 On ch=1 n=f5 v=100
214560 On ch=1 n=g#5 v=100
214680 On ch=1 n=g#5 v=0
214680 On ch=1 n=f5 v=0
215280 On ch=1 n=d#5 v=103
215280 On ch=1 n=f#5 v=103
215520 On ch=1 n=f#5 v=0
215520 On ch=1 n=d#5 v=0
215520 On ch=1 n=g#5 v=105
215520 On ch=1 n=f5 v=105
216000 On ch=1 n=f5 v=0
216000 On ch=1 n=g#5 v=0
216000 On ch=1 n=a#5 v=107
216000 On ch=1 n=f#5 v=107
216120 On ch=1 n=f#5 v=0
216120 On ch=1 n=a#5 v=0
216960 On ch=1 n=c#6 v=113
216960 On ch=1 n=a#5 v=113
217080 On ch=1 n=a#5 v=0
217080 On ch=1 n=c#6 v=0
217440 On ch=1 n=a#5 v=115
217440 On ch=1 n=f#6 v=115
218880 On ch=1 n=f#6 v=0
218880 On ch=1 n=a#5 v=0
218880 On ch=1 n=g#5 v=60
218880 On ch=1 n=f6 v=60
219000 On ch=1 n=f6 v=0
219000 On ch=1 n=g#5 v=0
219600 On ch=1 n=d#6 v=60
219720 On ch=1 n=d#6 v=0
219840 On ch=1 n=f#5 v=60
219840 On ch=1 n=d#6 v=60
220320 On ch=1 n=d#6 v=0
220320 On ch=1 n=f#5 v=0
220320 On ch=1 n=f6 v=60
220320 On ch=1 n=g#5 v=60
220440 On ch=1 n=g#5 v=0
220440 On ch=1 n=f6 v=0
221040 On ch=1 n=d#6 v=60
221160 On ch=1 n=d#6 v=0
221280 On ch=1 n=f#5 v=60
221280 On ch=1 n=d#6 v=60
221760 On ch=1 n=d#6 v=0
221760 On ch=1 n=f#5 v=0
221760 On ch=1 n=g#5 v=60
221760 On ch=1 n=f6 v=60
221880 On ch=1 n=f6 v=0
221880 On ch=1 n=g#5 v=0
222480 On ch=1 n=d#6 v=60
222600 On ch=1 n=d#6 v=0
222720 On ch=1 n=f#5 v=60
222720 On ch=1 n=d#6 v=60
223200 On ch=1 n=d#6 v=0
223200 On ch=1 n=f#5 v=0
223200 On ch=1 n=e5 v=60
223200 On ch=1 n=c6 v=60
223320 On ch=1 n=c6 v=0
223320 On ch=1 n=e5 v=0
223920 On ch=1 n=c#6 v=60
224040 On ch=1 n=c#6 v=0
224160 On ch=1 n=f5 v=60
224160 On ch=1 n=c#6 v=60
224640 On ch=1 n=c#6 v=0
224640 On ch=1 n=f5 v=0
224640 On ch=1 n=g#6 v=100
224640 On ch=1 n=f6 v=100
224760 On ch=1 n=f6 v=0
224760 On ch=1 n=g#6 v=0
225360 On ch=1 n=g#6 v=100
225360 On ch=1 n=f6 v=100
225480 On ch=1 n=f6 v=0
225480 On ch=1 n=g#6 v=0
225600 On ch=1 n=g#6 v=100
225600 On ch=1 n=f6 v=100
225960 On ch=1 n=g#6 v=100
226020 On ch=1 n=g#6 v=0
226020 On ch=1 n=a#6 v=100
226080 On ch=1 n=a#6 v=0
226080 On ch=1 n=g#6 v=0
226080 On ch=1 n=f6 v=0
226080 On ch=1 n=g#6 v=100
226080 On ch=1 n=f6 v=100
226200 On ch=1 n=f6 v=0
226200 On ch=1 n=g#6 v=0
226800 On ch=1 n=d#6 v=101
226800 On ch=1 n=f#6 v=101
227040 On ch=1 n=f#6 v=0
227040 On ch=1 n=d#6 v=0
227040 On ch=1 n=g#6 v=102
227040 On ch=1 n=f6 v=102
227520 On ch=1 n=f6 v=0
227520 On ch=1 n=g#6 v=0
227520 On ch=1 n=a#6 v=105
227520 On ch=1 n=f#6 v=105
227640 On ch=1 n=f#6 v=0
227640 On ch=1 n=a#6 v=0
228480 On ch=1 n=c#7 v=111
228480 On ch=1 n=a#6 v=111
228600 On ch=1 n=a#6 v=0
228600 On ch=1 n=c#7 v=0
228960 On ch=1 n=f#7 v=114
228960 On ch=1 n=a#6 v=114
230400 On ch=1 n=a#6 v=0
230400 On ch=1 n=f#7 v=0
230400 On ch=1 n=f7 v=60
230400 On ch=1 n=g#6 v=60
230520 On ch=1 n=g#6 v=0
230520 On ch=1 n=f7 v=0
231120 On ch=1 n=d#7 v=60
231240 On ch=1 n=d#7 v=0
231360 On ch=1 n=f#6 v=60
231360 On ch=1 n=d#7 v=60
231840 On ch=1 n=d#7 v=0
231840 On ch=1 n=f#6 v=0
231840 On ch=1 n=f7 v=60
231840 On ch=1 n=g#6 v=60
231960 On ch=1 n=g#6 v=0
231960 On ch=1 n=f7 v=0
232560 On ch=1 n=d#7 v=60
232680 On ch=1 n=d#7 v=0
232800 On ch=1 n=f#6 v=60
232800 On ch=1 n=d#7 v=60
233280 On ch=1 n=d#7 v=0
233280 On ch=1 n=f#6 v=0
233280 On ch=1 n=f7 v=60
233280 On ch=1 n=g#6 v=60
233400 On ch=1 n=g#6 v=0
233400 On ch=1 n=f7 v=0
234000 On ch=1 n=d#7 v=60
234120 On ch=1 n=d#7 v=0
234240 On ch=1 n=f#6 v=60
234240 On ch=1 n=d#7 v=60
234720 On ch=1 n=d#7 v=0
234720 On ch=1 n=f#6 v=0
234720 On ch=1 n=c#7 v=60
234720 On ch=1 n=f6 v=60
234840 On ch=1 n=f6 v=0
234840 On ch=1 n=c#7 v=0
235680 On ch=1 n=c#5 v=60
236160 On ch=1 n=c#5 v=0
236160 On ch=1 n=f5 v=100
236160 On ch=1 n=g#5 v=100
236640 On ch=1 n=g#5 v=0
236640 On ch=1 n=f5 v=0
237120 On ch=1 n=f5 v=100
237120 On ch=1 n=g#5 v=100
237480 On ch=1 n=g#5 v=100
237540 On ch=1 n=g#5 v=0
237540 On ch=1 n=a#5 v=100
237600 On ch=1 n=a#5 v=0
237600 On ch=1 n=g#5 v=0
237600 On ch=1 n=f5 v=0
237600 On ch=1 n=f5 v=100
237600 On ch=1 n=g#5 v=100
237720 On ch=1 n=g#5 v=0
237720 On ch=1 n=f5 v=0
238320 On ch=1 n=d#5 v=103
238320 On ch=1 n=f#5 v=103
238560 On ch=1 n=f#5 v=0
238560 On ch=1 n=d#5 v=0
238560 On ch=1 n=g#5 v=105
238560 On ch=1 n=f5 v=105
239040 On ch=1 n=f5 v=0
239040 On ch=1 n=g#5 v=0
239040 On ch=1 n=a#5 v=107
239040 On ch=1 n=f#5 v=107
239160 On ch=1 n=f#5 v=0
239160 On ch=1 n=a#5 v=0
240000 On ch=1 n=c#6 v=113
240000 On ch=1 n=a#5 v=113
240120 On ch=1 n=a#5 v=0
240120 On ch=1 n=c#6 v=0
240480 On ch=1 n=a#5 v=115
240480 On ch=1 n=f#6 v=115
241920 On ch=1 n=f#6 v=0
241920 On ch=1 n=a#5 v=0
241920 On ch=1 n=g#5 v=60
241920 On ch=1 n=f6 v=60
242040 On ch=1 n=f6 v=0
242040 On ch=1 n=g#5 v=0
242640 On ch=1 n=d#6 v=60
242760 On ch=1 n=d#6 v=0
242880 On ch=1 n=f#5 v=60
242880 On ch=1 n=d#6 v=60
243360 On ch=1 n=d#6 v=0
243360 On ch=1 n=f#5 v=0
243360 On ch=1 n=f6 v=60
243360 On ch=1 n=g#5 v=60
243480 On ch=1 n=g#5 v=0
243480 On ch=1 n=f6 v=0
244080 On ch=1 n=d#6 v=60
244200 On ch=1 n=d#6 v=0
244320 On ch=1 n=f#5 v=60
244320 On ch=1 n=d#6 v=60
244800 On ch=1 n=d#6 v=0
244800 On ch=1 n=f#5 v=0
244800 On ch=1 n=g#5 v=60
244800 On ch=1 n=f6 v=60
244920 On ch=1 n=f6 v=0
244920 On ch=1 n=g#5 v=0
245520 On ch=1 n=d#6 v=60
245640 On ch=1 n=d#6 v=0
245760 On ch=1 n=f#5 v=60
245760 On ch=1 n=d#6 v=60
246240 On ch=1 n=d#6 v=0
246240 On ch=1 n=f#5 v=0
246240 On ch=1 n=e5 v=60
246240 On ch=1 n=c6 v=60
246360 On ch=1 n=c6 v=0
246360 On ch=1 n=e5 v=0
246960 On ch=1 n=c#6 v=60
247080 On ch=1 n=c#6 v=0
247200 On ch=1 n=f5 v=60
247200 On ch=1 n=c#6 v=60
247680 On ch=1 n=c#6 v=0
247680 On ch=1 n=f5 v=0
247680 On ch=1 n=g#6 v=100
247680 On ch=1 n=f6 v=100
247800 On ch=1 n=f6 v=0
247800 On ch=1 n=g#6 v=0
248400 On ch=1 n=g#6 v=100
248400 On ch=1 n=f6 v=100
248520 On ch=1 n=f6 v=0
248520 On ch=1 n=g#6 v=0
248640 On ch=1 n=g#6 v=100
248640 On ch=1 n=f6 v=100
249000 On ch=1 n=g#6 v=100
249060 On ch=1 n=g#6 v=0
249060 On ch=1 n=a#6 v=100
249120 On ch=1 n=a#6 v=0
249120 On ch=1 n=g#6 v=0
249120 On ch=1 n=f6 v=0
249120 On ch=1 n=g#6 v=100
249120 On ch=1 n=f6 v=100
249240 On ch=1 n=f6 v=0
249240 On ch=1 n=g#6 v=0
249840 On ch=1 n=d#6 v=101
249840 On ch=1 n=f#6 v=101
250080 On ch=1 n=f#6 v=0
250080 On ch=1 n=d#6 v=0
250080 On ch=1 n=g#6 v=102
250080 On ch=1 n=f6 v=102
250560 On ch=1 n=f6 v=0
250560 On ch=1 n=g#6 v=0
250560 On ch=1 n=a#6 v=105
250560 On ch=1 n=f#6 v=105
250680 On ch=1 n=f#6 v=0
250680 On ch=1 n=a#6 v=0
251520 On ch=1 n=c#7 v=111
251520 On ch=1 n=a#6 v=111
251640 On ch=1 n=a#6 v=0
251640 On ch=1 n=c#7 v=0
252000 On ch=1 n=f#7 v=114
252000 On ch=1 n=a#6 v=114
253440 On ch=1 n=a#6 v=0
253440 On ch=1 n=f#7 v=0
253440 On ch=1 n=f7 v=60
253440 On ch=1 n=g#6 v=60
253560 On ch=1 n=g#6 v=0
253560 On ch=1 n=f7 v=0
254160 On ch=1 n=d#7 v=60
254280 On ch=1 n=d#7 v=0
254400 On ch=1 n=f#6 v=60
254400 On ch=1 n=d#7 v=60
254880 On ch=1 n=d#7 v=0
254880 On ch=1 n=f#6 v=0
254880 On ch=1 n=f7 v=60
254880 On ch=1 n=g#6 v=60
255000 On ch=1 n=g#6 v=0
255000 On ch=1 n=f7 v=0
255600 On ch=1 n=d#7 v=60
255720 On ch=1 n=d#7 v=0
255840 On ch=1 n=f#6 v=60
255840 On ch=1 n=d#7 v=60
256320 On ch=1 n=d#7 v=0
256320 On ch=1 n=f#6 v=0
256320 On ch=1 n=f7 v=60
256320 On ch=1 n=g#6 v=60
256440 On ch=1 n=g#6 v=0
256440 On ch=1 n=f7 v=0
257040 On ch=1 n=d#7 v=60
257160 On ch=1 n=d#7 v=0
257280 On ch=1 n=f#6 v=60
257280 On ch=1 n=d#7 v=60
257760 On ch=1 n=d#7 v=0
257760 On ch=1 n=f#6 v=0
257760 On ch=1 n=c#7 v=60
257760 On ch=1 n=f6 v=60
257880 On ch=1 n=f6 v=0
257880 On ch=1 n=c#7 v=0
258720 On ch=1 n=f6 v=60
259140 On ch=1 n=f6 v=60
259200 On ch=1 n=f6 v=0
259200 On ch=1 n=f6 v=0
259200 On ch=1 n=f#6 v=60
259320 On ch=1 n=f#6 v=0
259620 On ch=1 n=f#6 v=60
259680 On ch=1 n=f#6 v=0
259680 On ch=1 n=e6 v=60
259800 On ch=1 n=e6 v=0
260100 On ch=1 n=e6 v=60
260160 On ch=1 n=e6 v=0
260160 On ch=1 n=f6 v=60
260280 On ch=1 n=f6 v=0
260580 On ch=1 n=f6 v=60
260640 On ch=1 n=f6 v=0
260640 On ch=1 n=f#6 v=60
260760 On ch=1 n=f#6 v=0
261060 On ch=1 n=f#6 v=60
261120 On ch=1 n=f#6 v=0
261120 On ch=1 n=e6 v=60
261240 On ch=1 n=e6 v=0
261540 On ch=1 n=e6 v=60
261600 On ch=1 n=e6 v=0
261600 On ch=1 n=f6 v=60
261720 On ch=1 n=f6 v=0
262020 On ch=1 n=f6 v=60
262080 On ch=1 n=f6 v=0
262080 On ch=1 n=c#7 v=60
262200 On ch=1 n=c#7 v=0
262500 On ch=1 n=c#7 v=59
262560 On ch=1 n=c#7 v=0
262560 On ch=1 n=c7 v=59
262680 On ch=1 n=c7 v=0
262980 On ch=1 n=c7 v=57
263040 On ch=1 n=c7 v=0
263040 On ch=1 n=b6 v=57
263160 On ch=1 n=b6 v=0
263460 On ch=1 n=b6 v=55
263520 On ch=1 n=b6 v=0
263520 On ch=1 n=a#6 v=55
263640 On ch=1 n=a#6 v=0
263880 On ch=1 n=a#6 v=54
263940 On ch=1 n=a#6 v=0
264000 On ch=1 n=a6 v=53
264120 On ch=1 n=a6 v=0
264420 On ch=1 n=a6 v=52
264480 On ch=1 n=a6 v=0
264480 On ch=1 n=g#6 v=52
264600 On ch=1 n=g#6 v=0
264900 On ch=1 n=g#6 v=50
264960 On ch=1 n=g#6 v=0
264960 On ch=1 n=g6 v=50
265080 On ch=1 n=g6 v=0
265380 On ch=1 n=g6 v=48
265440 On ch=1 n=g6 v=0
265440 On ch=1 n=f#6 v=48
265560 On ch=1 n=f#6 v=0
265860 On ch=1 n=f#6 v=47
265920 On ch=1 n=f#6 v=0
265920 On ch=1 n=f6 v=46
266040 On ch=1 n=f6 v=0
266340 On ch=1 n=f6 v=45
266400 On ch=1 n=f6 v=0
266400 On ch=1 n=e6 v=45
266520 On ch=1 n=e6 v=0
266820 On ch=1 n=e6 v=43
266880 On ch=1 n=e6 v=0
266880 On ch=1 n=d#6 v=43
267000 On ch=1 n=d#6 v=0
267300 On ch=1 n=d#6 v=41
267360 On ch=1 n=d#6 v=0
267360 On ch=1 n=c6 v=41
267480 On ch=1 n=c6 v=0
267780 On ch=1 n=c6 v=60
267840 On ch=1 n=c6 v=0
267840 On ch=1 n=c#6 v=60
267960 On ch=1 n=c#6 v=0
268260 On ch=1 n=c#6 v=60
268320 On ch=1 n=c#6 v=0
268320 On ch=1 n=a5 v=60
268440 On ch=1 n=a5 v=0
268740 On ch=1 n=a5 v=60
268800 On ch=1 n=a5 v=0
268800 On ch=1 n=a#5 v=60
268920 On ch=1 n=a#5 v=0
269220 On ch=1 n=a#5 v=60
269280 On ch=1 n=a#5 v=0
269280 On ch=1 n=c#6 v=60
269400 On ch=1 n=c#6 v=0
269700 On ch=1 n=c#6 v=64
269760 On ch=1 n=c#6 v=0
269760 On ch=1 n=d#6 v=65
269880 On ch=1 n=d#6 v=0
270180 On ch=1 n=d#6 v=69
270240 On ch=1 n=d#6 v=0
270240 On ch=1 n=e6 v=69
270360 On ch=1 n=e6 v=0
270660 On ch=1 n=e6 v=73
270720 On ch=1 n=e6 v=0
270720 On ch=1 n=f#6 v=74
270840 On ch=1 n=f#6 v=0
271140 On ch=1 n=f#6 v=78
271200 On ch=1 n=f#6 v=0
271200 On ch=1 n=e6 v=79
271320 On ch=1 n=e6 v=0
271620 On ch=1 n=e6 v=83
271680 On ch=1 n=e6 v=0
271680 On ch=1 n=f6 v=83
271800 On ch=1 n=f6 v=0
272100 On ch=1 n=f6 v=87
272160 On ch=1 n=f6 v=0
272160 On ch=1 n=f#6 v=88
272280 On ch=1 n=f#6 v=0
272580 On ch=1 n=f#6 v=92
272640 On ch=1 n=f#6 v=0
272640 On ch=1 n=e6 v=92
272760 On ch=1 n=e6 v=0
273060 On ch=1 n=e6 v=96
273120 On ch=1 n=e6 v=0
273120 On ch=1 n=f6 v=97
273240 On ch=1 n=f6 v=0
273540 On ch=1 n=f6 v=100
273600 On ch=1 n=f6 v=0
273600 On ch=1 n=f7 v=100
273720 On ch=1 n=f7 v=0
274020 On ch=1 n=f7 v=93
274080 On ch=1 n=f7 v=0
274080 On ch=1 n=c#7 v=93
274200 On ch=1 n=c#7 v=0
274500 On ch=1 n=c#7 v=86
274560 On ch=1 n=c#7 v=0
274560 On ch=1 n=a#6 v=86
274680 On ch=1 n=a#6 v=0
274980 On ch=1 n=a#6 v=79
275040 On ch=1 n=a#6 v=0
275040 On ch=1 n=f#6 v=78
275160 On ch=1 n=f#6 v=0
275460 On ch=1 n=f#6 v=72
275520 On ch=1 n=f#6 v=0
275520 On ch=1 n=d#6 v=71
275640 On ch=1 n=d#6 v=0
275940 On ch=1 n=d#6 v=65
276000 On ch=1 n=d#6 v=0
276000 On ch=1 n=c6 v=64
276120 On ch=1 n=c6 v=0
276420 On ch=1 n=f#6 v=60
276480 On ch=1 n=f#6 v=0
276480 On ch=1 n=f6 v=60
276600 On ch=1 n=f6 v=0
276900 On ch=1 n=f6 v=60
276960 On ch=1 n=f6 v=0
276960 On ch=1 n=e6 v=60
277080 On ch=1 n=e6 v=0
277380 On ch=1 n=e6 v=60
277440 On ch=1 n=e6 v=0
277440 On ch=1 n=d#6 v=60
277560 On ch=1 n=d#6 v=0
277860 On ch=1 n=d#6 v=60
277920 On ch=1 n=d#6 v=0
277920 On ch=1 n=d6 v=60
278040 On ch=1 n=d6 v=0
278340 On ch=1 n=d6 v=60
278400 On ch=1 n=d6 v=0
278400 On ch=1 n=c#6 v=60
278520 On ch=1 n=c#6 v=0
278820 On ch=1 n=c#6 v=60
278880 On ch=1 n=c#6 v=0
278880 On ch=1 n=c6 v=60
279000 On ch=1 n=c6 v=0
279300 On ch=1 n=c6 v=60
279360 On ch=1 n=c6 v=0
279360 On ch=1 n=b5 v=60
279480 On ch=1 n=b5 v=0
279780 On ch=1 n=b5 v=67
279840 On ch=1 n=b5 v=0
279840 On ch=1 n=a#5 v=67
279960 On ch=1 n=a#5 v=0
280260 On ch=1 n=a#5 v=74
280320 On ch=1 n=a#5 v=0
280320 On ch=1 n=a5 v=74
280440 On ch=1 n=a5 v=0
280740 On ch=1 n=a5 v=81
280800 On ch=1 n=a5 v=0
280800 On ch=1 n=g#5 v=82
280920 On ch=1 n=g#5 v=0
281220 On ch=1 n=g#5 v=88
281280 On ch=1 n=g#5 v=0
281280 On ch=1 n=g5 v=89
281400 On ch=1 n=g5 v=0
281700 On ch=1 n=g5 v=95
281760 On ch=1 n=g5 v=0
281760 On ch=1 n=f#5 v=96
281880 On ch=1 n=f#5 v=0
282240 On ch=1 n=f5 v=100
282240 On ch=1 n=g#5 v=100
282720 On ch=1 n=g#5 v=0
282720 On ch=1 n=f5 v=0
282960 On ch=1 n=f5 v=100
282960 On ch=1 n=g#5 v=100
283200 On ch=1 n=g#5 v=0
283200 On ch=1 n=f5 v=0
283200 On ch=1 n=f5 v=100
283200 On ch=1 n=g#5 v=100
283560 On ch=1 n=g#5 v=100
283620 On ch=1 n=g#5 v=0
283620 On ch=1 n=a#5 v=100
283680 On ch=1 n=a#5 v=0
283680 On ch=1 n=g#5 v=0
283680 On ch=1 n=f5 v=0
283680 On ch=1 n=f5 v=100
283680 On ch=1 n=g#5 v=100
284160 On ch=1 n=g#5 v=0
284160 On ch=1 n=f5 v=0
284400 On ch=1 n=d#5 v=103
284400 On ch=1 n=f#5 v=103
284640 On ch=1 n=f#5 v=0
284640 On ch=1 n=d#5 v=0
284640 On ch=1 n=f5 v=105
284640 On ch=1 n=g#5 v=105
285120 On ch=1 n=g#5 v=0
285120 On ch=1 n=f5 v=0
285120 On ch=1 n=a#5 v=107
285120 On ch=1 n=f#5 v=107
285240 On ch=1 n=f#5 v=0
285240 On ch=1 n=a#5 v=0
286080 On ch=1 n=c#6 v=113
286080 On ch=1 n=a#5 v=113
286200 On ch=1 n=a#5 v=0
286200 On ch=1 n=c#6 v=0
286560 On ch=1 n=f#6 v=115
286560 On ch=1 n=a#5 v=115
288000 On ch=1 n=a#5 v=0
288000 On ch=1 n=f#6 v=0
288000 On ch=1 n=g#5 v=80
288000 On ch=1 n=f6 v=80
288120 On ch=1 n=f6 v=0
288120 On ch=1 n=g#5 v=0
288720 On ch=1 n=d#6 v=80
288840 On ch=1 n=d#6 v=0
288960 On ch=1 n=f#5 v=80
288960 On ch=1 n=d#6 v=80
289440 On ch=1 n=d#6 v=0
289440 On ch=1 n=f#5 v=0
289440 On ch=1 n=g#5 v=80
289440 On ch=1 n=f6 v=80
289560 On ch=1 n=f6 v=0
289560 On ch=1 n=g#5 v=0
290160 On ch=1 n=d#6 v=80
290280 On ch=1 n=d#6 v=0
290400 On ch=1 n=f#5 v=80
290400 On ch=1 n=d#6 v=80
290880 On ch=1 n=d#6 v=0
290880 On ch=1 n=f#5 v=0
290880 On ch=1 n=g#5 v=80
290880 On ch=1 n=f6 v=80
291000 On ch=1 n=f6 v=0
291000 On ch=1 n=g#5 v=0
291600 On ch=1 n=d#6 v=80
291720 On ch=1 n=d#6 v=0
291840 On ch=1 n=f#5 v=80
291840 On ch=1 n=d#6 v=80
292320 On ch=1 n=d#6 v=0
292320 On ch=1 n=f#5 v=0
292320 On ch=1 n=e5 v=80
292320 On ch=1 n=c6 v=80
292440 On ch=1 n=c6 v=0
292440 On ch=1 n=e5 v=0
293040 On ch=1 n=c#6 v=80
293160 On ch=1 n=c#6 v=0
293280 On ch=1 n=f5 v=80
293280 On ch=1 n=c#6 v=80
293760 On ch=1 n=c#6 v=0
293760 On ch=1 n=f5 v=0
293760 On ch=1 n=g#6 v=100
293760 On ch=1 n=f6 v=100
293880 On ch=1 n=f6 v=0
293880 On ch=1 n=g#6 v=0
294480 On ch=1 n=g#6 v=100
294480 On ch=1 n=f6 v=100
294600 On ch=1 n=f6 v=0
294600 On ch=1 n=g#6 v=0
294720 On ch=1 n=g#6 v=100
294720 On ch=1 n=f6 v=100
295080 On ch=1 n=g#6 v=100
295140 On ch=1 n=g#6 v=0
295140 On ch=1 n=a#6 v=100
295200 On ch=1 n=a#6 v=0
295200 On ch=1 n=g#6 v=0
295200 On ch=1 n=f6 v=0
295200 On ch=1 n=g#6 v=100
295200 On ch=1 n=f6 v=100
295320 On ch=1 n=f6 v=0
295320 On ch=1 n=g#6 v=0
295920 On ch=1 n=d#6 v=103
295920 On ch=1 n=f#6 v=103
296160 On ch=1 n=f#6 v=0
296160 On ch=1 n=d#6 v=0
296160 On ch=1 n=g#6 v=105
296160 On ch=1 n=f6 v=105
296640 On ch=1 n=f6 v=0
296640 On ch=1 n=g#6 v=0
296640 On ch=1 n=a#6 v=107
296640 On ch=1 n=f#6 v=107
296760 On ch=1 n=f#6 v=0
296760 On ch=1 n=a#6 v=0
297600 On ch=1 n=c#7 v=113
297600 On ch=1 n=a#6 v=113
297720 On ch=1 n=a#6 v=0
297720 On ch=1 n=c#7 v=0
298080 On ch=1 n=f#7 v=115
298080 On ch=1 n=a#6 v=115
299520 On ch=1 n=a#6 v=0
299520 On ch=1 n=f#7 v=0
299520 On ch=1 n=f7 v=80
299520 On ch=1 n=g#6 v=80
299640 On ch=1 n=g#6 v=0
299640 On ch=1 n=f7 v=0
300240 On ch=1 n=d#7 v=80
300360 On ch=1 n=d#7 v=0
300480 On ch=1 n=f#6 v=80
300480 On ch=1 n=d#7 v=80
300960 On ch=1 n=d#7 v=0
300960 On ch=1 n=f#6 v=0
300960 On ch=1 n=f7 v=80
300960 On ch=1 n=g#6 v=80
301080 On ch=1 n=g#6 v=0
301080 On ch=1 n=f7 v=0
301680 On ch=1 n=d#7 v=80
301800 On ch=1 n=d#7 v=0
301920 On ch=1 n=f#6 v=80
301920 On ch=1 n=d#7 v=80
302400 On ch=1 n=d#7 v=0
302400 On ch=1 n=f#6 v=0
302400 On ch=1 n=f7 v=80
302400 On ch=1 n=g#6 v=80
302520 On ch=1 n=g#6 v=0
302520 On ch=1 n=f7 v=0
303120 On ch=1 n=d#7 v=80
303240 On ch=1 n=d#7 v=0
303360 On ch=1 n=f#6 v=80
303360 On ch=1 n=d#7 v=80
303840 On ch=1 n=d#7 v=0
303840 On ch=1 n=f#6 v=0
303840 On ch=1 n=c#7 v=80
303840 On ch=1 n=f6 v=80
303960 On ch=1 n=f6 v=0
303960 On ch=1 n=c#7 v=0
304800 On ch=1 n=f6 v=80
305220 On ch=1 n=f6 v=60
305280 On ch=1 n=f6 v=0
305280 On ch=1 n=f6 v=0
305280 On ch=1 n=f#6 v=60
305400 On ch=1 n=f#6 v=0
305700 On ch=1 n=f#6 v=60
305760 On ch=1 n=f#6 v=0
305760 On ch=1 n=e6 v=60
305880 On ch=1 n=e6 v=0
306180 On ch=1 n=e6 v=60
306240 On ch=1 n=e6 v=0
306240 On ch=1 n=f6 v=60
306360 On ch=1 n=f6 v=0
306660 On ch=1 n=f6 v=60
306720 On ch=1 n=f6 v=0
306720 On ch=1 n=f#6 v=60
306840 On ch=1 n=f#6 v=0
307140 On ch=1 n=f#6 v=60
307200 On ch=1 n=f#6 v=0
307200 On ch=1 n=e6 v=60
307320 On ch=1 n=e6 v=0
307620 On ch=1 n=e6 v=60
307680 On ch=1 n=e6 v=0
307680 On ch=1 n=f6 v=60
307800 On ch=1 n=f6 v=0
308100 On ch=1 n=f6 v=60
308160 On ch=1 n=f6 v=0
308160 On ch=1 n=c#7 v=60
308280 On ch=1 n=c#7 v=0
308580 On ch=1 n=c#7 v=59
308640 On ch=1 n=c#7 v=0
308640 On ch=1 n=c7 v=59
308760 On ch=1 n=c7 v=0
309060 On ch=1 n=c7 v=57
309120 On ch=1 n=c7 v=0
309120 On ch=1 n=b6 v=57
309240 On ch=1 n=b6 v=0
309540 On ch=1 n=b6 v=55
309600 On ch=1 n=b6 v=0
309600 On ch=1 n=a#6 v=55
309720 On ch=1 n=a#6 v=0
309960 On ch=1 n=a#6 v=54
310020 On ch=1 n=a#6 v=0
310080 On ch=1 n=a6 v=53
310200 On ch=1 n=a6 v=0
310500 On ch=1 n=a6 v=52
310560 On ch=1 n=a6 v=0
310560 On ch=1 n=g#6 v=52
310680 On ch=1 n=g#6 v=0
310980 On ch=1 n=g#6 v=50
311040 On ch=1 n=g#6 v=0
311040 On ch=1 n=g6 v=50
311160 On ch=1 n=g6 v=0
311460 On ch=1 n=g6 v=48
311520 On ch=1 n=g6 v=0
311520 On ch=1 n=f#6 v=48
311640 On ch=1 n=f#6 v=0
311940 On ch=1 n=f#6 v=47
312000 On ch=1 n=f#6 v=0
312000 On ch=1 n=f6 v=46
312120 On ch=1 n=f6 v=0
312420 On ch=1 n=f6 v=45
312480 On ch=1 n=f6 v=0
312480 On ch=1 n=e6 v=45
312600 On ch=1 n=e6 v=0
312900 On ch=1 n=e6 v=43
312960 On ch=1 n=e6 v=0
312960 On ch=1 n=d#6 v=43
313080 On ch=1 n=d#6 v=0
313380 On ch=1 n=d#6 v=41
313440 On ch=1 n=d#6 v=0
313440 On ch=1 n=c6 v=41
313560 On ch=1 n=c6 v=0
313860 On ch=1 n=c6 v=60
313920 On ch=1 n=c6 v=0
313920 On ch=1 n=c#6 v=60
314040 On ch=1 n=c#6 v=0
314340 On ch=1 n=c#6 v=60
314400 On ch=1 n=c#6 v=0
314400 On ch=1 n=a5 v=60
314520 On ch=1 n=a5 v=0
314820 On ch=1 n=a5 v=60
314880 On ch=1 n=a5 v=0
314880 On ch=1 n=a#5 v=60
315000 On ch=1 n=a#5 v=0
315300 On ch=1 n=a#5 v=60
315360 On ch=1 n=a#5 v=0
315360 On ch=1 n=c#6 v=60
315480 On ch=1 n=c#6 v=0
315780 On ch=1 n=c#6 v=64
315840 On ch=1 n=c#6 v=0
315840 On ch=1 n=d#6 v=65
315960 On ch=1 n=d#6 v=0
316260 On ch=1 n=d#6 v=69
316320 On ch=1 n=d#6 v=0
316320 On ch=1 n=e6 v=69
316440 On ch=1 n=e6 v=0
316740 On ch=1 n=e6 v=73
316800 On ch=1 n=e6 v=0
316800 On ch=1 n=f#6 v=74
316920 On ch=1 n=f#6 v=0
317220 On ch=1 n=f#6 v=78
317280 On ch=1 n=f#6 v=0
317280 On ch=1 n=e6 v=79
317400 On ch=1 n=e6 v=0
317700 On ch=1 n=e6 v=83
317760 On ch=1 n=e6 v=0
317760 On ch=1 n=f6 v=83
317880 On ch=1 n=f6 v=0
318180 On ch=1 n=f6 v=87
318240 On ch=1 n=f6 v=0
318240 On ch=1 n=f#6 v=88
318360 On ch=1 n=f#6 v=0
318660 On ch=1 n=f#6 v=92
318720 On ch=1 n=f#6 v=0
318720 On ch=1 n=e6 v=92
318840 On ch=1 n=e6 v=0
319140 On ch=1 n=e6 v=96
319200 On ch=1 n=e6 v=0
319200 On ch=1 n=f6 v=97
319320 On ch=1 n=f6 v=0
319620 On ch=1 n=f6 v=100
319680 On ch=1 n=f6 v=0
319680 On ch=1 n=f7 v=100
319800 On ch=1 n=f7 v=0
320100 On ch=1 n=f7 v=93
320160 On ch=1 n=f7 v=0
320160 On ch=1 n=c#7 v=93
320280 On ch=1 n=c#7 v=0
320580 On ch=1 n=c#7 v=86
320640 On ch=1 n=c#7 v=0
320640 On ch=1 n=a#6 v=86
320760 On ch=1 n=a#6 v=0
321060 On ch=1 n=a#6 v=79
321120 On ch=1 n=a#6 v=0
321120 On ch=1 n=f#6 v=78
321240 On ch=1 n=f#6 v=0
321540 On ch=1 n=f#6 v=72
321600 On ch=1 n=f#6 v=0
321600 On ch=1 n=d#6 v=71
321720 On ch=1 n=d#6 v=0
322020 On ch=1 n=d#6 v=65
322080 On ch=1 n=d#6 v=0
322080 On ch=1 n=c6 v=64
322200 On ch=1 n=c6 v=0
322500 On ch=1 n=f#6 v=60
322560 On ch=1 n=f#6 v=0
322560 On ch=1 n=f6 v=60
322680 On ch=1 n=f6 v=0
322980 On ch=1 n=f6 v=60
323040 On ch=1 n=f6 v=0
323040 On ch=1 n=e6 v=60
323160 On ch=1 n=e6 v=0
323460 On ch=1 n=e6 v=60
323520 On ch=1 n=e6 v=0
323520 On ch=1 n=d#6 v=60
323640 On ch=1 n=d#6 v=0
323940 On ch=1 n=d#6 v=60
324000 On ch=1 n=d#6 v=0
324000 On ch=1 n=d6 v=60
324120 On ch=1 n=d6 v=0
324420 On ch=1 n=d6 v=60
324480 On ch=1 n=d6 v=0
324480 On ch=1 n=c#6 v=60
324600 On ch=1 n=c#6 v=0
324900 On ch=1 n=c#6 v=60
324960 On ch=1 n=c#6 v=0
324960 On ch=1 n=c6 v=60
325080 On ch=1 n=c6 v=0
325380 On ch=1 n=c6 v=60
325440 On ch=1 n=c6 v=0
325440 On ch=1 n=b5 v=60
325560 On ch=1 n=b5 v=0
325860 On ch=1 n=b5 v=67
325920 On ch=1 n=b5 v=0
325920 On ch=1 n=a#5 v=67
326040 On ch=1 n=a#5 v=0
326340 On ch=1 n=a#5 v=74
326400 On ch=1 n=a#5 v=0
326400 On ch=1 n=a5 v=74
326520 On ch=1 n=a5 v=0
326820 On ch=1 n=a5 v=81
326880 On ch=1 n=a5 v=0
326880 On ch=1 n=g#5 v=82
327000 On ch=1 n=g#5 v=0
327300 On ch=1 n=g#5 v=88
327360 On ch=1 n=g#5 v=0
327360 On ch=1 n=g5 v=89
327480 On ch=1 n=g5 v=0
327780 On ch=1 n=g5 v=95
327840 On ch=1 n=g5 v=0
327840 On ch=1 n=f#5 v=96
327960 On ch=1 n=f#5 v=0
328320 On ch=1 n=f5 v=100
328320 On ch=1 n=g#5 v=100
328800 On ch=1 n=g#5 v=0
328800 On ch=1 n=f5 v=0
329040 On ch=1 n=f5 v=100
329040 On ch=1 n=g#5 v=100
329280 On ch=1 n=g#5 v=0
329280 On ch=1 n=f5 v=0
329280 On ch=1 n=f5 v=100
329280 On ch=1 n=g#5 v=100
329640 On ch=1 n=g#5 v=100
329700 On ch=1 n=g#5 v=0
329700 On ch=1 n=a#5 v=100
329760 On ch=1 n=a#5 v=0
329760 On ch=1 n=g#5 v=0
329760 On ch=1 n=f5 v=0
329760 On ch=1 n=f5 v=100
329760 On ch=1 n=g#5 v=100
330240 On ch=1 n=g#5 v=0
330240 On ch=1 n=f5 v=0
330480 On ch=1 n=d#5 v=103
330480 On ch=1 n=f#5 v=103
330720 On ch=1 n=f#5 v=0
330720 On ch=1 n=d#5 v=0
330720 On ch=1 n=f5 v=105
330720 On ch=1 n=g#5 v=105
331200 On ch=1 n=g#5 v=0
331200 On ch=1 n=f5 v=0
331200 On ch=1 n=a#5 v=107
331200 On ch=1 n=f#5 v=107
331320 On ch=1 n=f#5 v=0
331320 On ch=1 n=a#5 v=0
332160 On ch=1 n=c#6 v=113
332160 On ch=1 n=a#5 v=113
332280 On ch=1 n=a#5 v=0
332280 On ch=1 n=c#6 v=0
332640 On ch=1 n=f#6 v=115
332640 On ch=1 n=a#5 v=115
334080 On ch=1 n=a#5 v=0
334080 On ch=1 n=f#6 v=0
334080 On ch=1 n=g#5 v=80
334080 On ch=1 n=f6 v=80
334200 On ch=1 n=f6 v=0
334200 On ch=1 n=g#5 v=0
334800 On ch=1 n=d#6 v=80
334920 On ch=1 n=d#6 v=0
335040 On ch=1 n=f#5 v=80
335040 On ch=1 n=d#6 v=80
335520 On ch=1 n=d#6 v=0
335520 On ch=1 n=f#5 v=0
335520 On ch=1 n=g#5 v=80
335520 On ch=1 n=f6 v=80
335640 On ch=1 n=f6 v=0
335640 On ch=1 n=g#5 v=0
336240 On ch=1 n=d#6 v=80
336360 On ch=1 n=d#6 v=0
336480 On ch=1 n=f#5 v=80
336480 On ch=1 n=d#6 v=80
336960 On ch=1 n=d#6 v=0
336960 On ch=1 n=f#5 v=0
336960 On ch=1 n=g#5 v=80
336960 On ch=1 n=f6 v=80
337080 On ch=1 n=f6 v=0
337080 On ch=1 n=g#5 v=0
337680 On ch=1 n=d#6 v=80
337800 On ch=1 n=d#6 v=0
337920 On ch=1 n=f#5 v=80
337920 On ch=1 n=d#6 v=80
338400 On ch=1 n=d#6 v=0
338400 On ch=1 n=f#5 v=0
338400 On ch=1 n=e5 v=80
338400 On ch=1 n=c6 v=80
338520 On ch=1 n=c6 v=0
338520 On ch=1 n=e5 v=0
339120 On ch=1 n=c#6 v=80
339240 On ch=1 n=c#6 v=0
339360 On ch=1 n=f5 v=80
339360 On ch=1 n=c#6 v=80
339840 On ch=1 n=c#6 v=0
339840 On ch=1 n=f5 v=0
339840 On ch=1 n=g#6 v=100
339840 On ch=1 n=f6 v=100
339960 On ch=1 n=f6 v=0
339960 On ch=1 n=g#6 v=0
340560 On ch=1 n=g#6 v=100
340560 On ch=1 n=f6 v=100
340680 On ch=1 n=f6 v=0
340680 On ch=1 n=g#6 v=0
340800 On ch=1 n=g#6 v=100
340800 On ch=1 n=f6 v=100
341160 On ch=1 n=g#6 v=100
341220 On ch=1 n=g#6 v=0
341220 On ch=1 n=a#6 v=100
341280 On ch=1 n=a#6 v=0
341280 On ch=1 n=g#6 v=0
341280 On ch=1 n=f6 v=0
341280 On ch=1 n=g#6 v=100
341280 On ch=1 n=f6 v=100
341400 On ch=1 n=f6 v=0
341400 On ch=1 n=g#6 v=0
342000 On ch=1 n=d#6 v=103
342000 On ch=1 n=f#6 v=103
342240 On ch=1 n=f#6 v=0
342240 On ch=1 n=d#6 v=0
342240 On ch=1 n=g#6 v=105
342240 On ch=1 n=f6 v=105
342720 On ch=1 n=f6 v=0
342720 On ch=1 n=g#6 v=0
342720 On ch=1 n=a#6 v=107
342720 On ch=1 n=f#6 v=107
342840 On ch=1 n=f#6 v=0
342840 On ch=1 n=a#6 v=0
343680 On ch=1 n=c#7 v=113
343680 On ch=1 n=a#6 v=113
343800 On ch=1 n=a#6 v=0
343800 On ch=1 n=c#7 v=0
344160 On ch=1 n=f#7 v=115
344160 On ch=1 n=a#6 v=115
345600 On ch=1 n=a#6 v=0
345600 On ch=1 n=f#7 v=0
345600 On ch=1 n=f7 v=80
345600 On ch=1 n=g#6 v=80
345720 On ch=1 n=g#6 v=0
345720 On ch=1 n=f7 v=0
346320 On ch=1 n=d#7 v=80
346440 On ch=1 n=d#7 v=0
346560 On ch=1 n=f#6 v=80
346560 On ch=1 n=d#7 v=80
347040 On ch=1 n=d#7 v=0
347040 On ch=1 n=f#6 v=0
347040 On ch=1 n=f7 v=80
347040 On ch=1 n=g#6 v=80
347160 On ch=1 n=g#6 v=0
347160 On ch=1 n=f7 v=0
347760 On ch=1 n=d#7 v=80
347880 On ch=1 n=d#7 v=0
348000 On ch=1 n=f#6 v=80
348000 On ch=1 n=d#7 v=80
348480 On ch=1 n=d#7 v=0
348480 On ch=1 n=f#6 v=0
348480 On ch=1 n=f7 v=80
348480 On ch=1 n=g#6 v=80
348600 On ch=1 n=g#6 v=0
348600 On ch=1 n=f7 v=0
349200 On ch=1 n=d#7 v=80
349320 On ch=1 n=d#7 v=0
349440 On ch=1 n=f#6 v=80
349440 On ch=1 n=d#7 v=80
349920 On ch=1 n=d#7 v=0
349920 On ch=1 n=f#6 v=0
349920 On ch=1 n=c#7 v=80
349920 On ch=1 n=f6 v=80
350040 On ch=1 n=f6 v=0
350040 On ch=1 n=c#7 v=0
350880 On ch=1 n=c#6 v=60
351120 On ch=1 n=c#6 v=0
351120 On ch=1 n=c#6 v=60
351360 On ch=1 n=c#6 v=0
351360 On ch=1 n=c#6 v=60
351600 On ch=1 n=c#6 v=0
351600 On ch=1 n=d#6 v=60
351840 On ch=1 n=d#6 v=0
351840 On ch=1 n=c#6 v=60
352080 On ch=1 n=c#6 v=0
352080 On ch=1 n=c6 v=60
352320 On ch=1 n=c6 v=0
352320 On ch=1 n=c#6 v=60
352560 On ch=1 n=c#6 v=0
352560 On ch=1 n=d6 v=60
352800 On ch=1 n=d6 v=0
352800 On ch=1 n=f6 v=60
353760 On ch=1 n=f6 v=0
353760 On ch=1 n=d#6 v=60
354240 On ch=1 n=d#6 v=0
354240 On ch=1 n=g#5 v=60
354480 On ch=1 n=g#5 v=0
354480 On ch=1 n=a#5 v=60
354720 On ch=1 n=a#5 v=0
354720 On ch=1 n=g#5 v=60
354960 On ch=1 n=g#5 v=0
354960 On ch=1 n=g5 v=60
355200 On ch=1 n=g5 v=0
355200 On ch=1 n=g#5 v=60
355440 On ch=1 n=g#5 v=0
355440 On ch=1 n=a5 v=60
355680 On ch=1 n=a5 v=0
355680 On ch=1 n=a#5 v=60
356160 On ch=1 n=a#5 v=0
356160 On ch=1 n=f#5 v=60
356280 On ch=1 n=f#5 v=0
356400 On ch=1 n=a#5 v=60
356640 On ch=1 n=a#5 v=0
356640 On ch=1 n=b5 v=60
356880 On ch=1 n=b5 v=0
356880 On ch=1 n=c6 v=60
357000 On ch=1 n=c#6 v=60
357060 On ch=1 n=c#6 v=0
357060 On ch=1 n=d#6 v=60
357120 On ch=1 n=d#6 v=0
357120 On ch=1 n=c6 v=0
357120 On ch=1 n=c#6 v=60
357360 On ch=1 n=c#6 v=0
357360 On ch=1 n=c6 v=60
357600 On ch=1 n=c6 v=0
357600 On ch=1 n=c#6 v=60
357840 On ch=1 n=c#6 v=0
357840 On ch=1 n=a#6 v=60
358080 On ch=1 n=a#6 v=0
358080 On ch=1 n=g#6 v=60
358320 On ch=1 n=g#6 v=0
358320 On ch=1 n=f#6 v=60
358560 On ch=1 n=f#6 v=0
358560 On ch=1 n=f6 v=60
359520 On ch=1 n=f6 v=0
359520 On ch=1 n=d#6 v=60
360000 On ch=1 n=d#6 v=0
360000 On ch=1 n=g#5 v=60
360160 On ch=1 n=g#5 v=0
360160 On ch=1 n=a#5 v=60
360320 On ch=1 n=a#5 v=0
360320 On ch=1 n=g#5 v=60
360480 On ch=1 n=g#5 v=0
360480 On ch=1 n=g5 v=60
360720 On ch=1 n=g5 v=0
360720 On ch=1 n=g#5 v=60
360960 On ch=1 n=g#5 v=0
360960 On ch=1 n=b5 v=60
361200 On ch=1 n=b5 v=0
361200 On ch=1 n=a#5 v=60
361440 On ch=1 n=a#5 v=0
361440 On ch=1 n=f#5 v=60
361560 On ch=1 n=f#5 v=0
361680 On ch=1 n=c5 v=60
361920 On ch=1 n=c5 v=0
361920 On ch=1 n=c#5 v=60
362160 On ch=1 n=c#5 v=0
362160 On ch=1 n=f5 v=60
362400 On ch=1 n=f5 v=0
362400 On ch=1 n=f#5 v=60
362640 On ch=1 n=f#5 v=0
362640 On ch=1 n=a#5 v=60
362880 On ch=1 n=a#5 v=0
362880 On ch=1 n=c#6 v=60
363120 On ch=1 n=c#6 v=0
363120 On ch=1 n=d#6 v=60
363360 On ch=1 n=d#6 v=0
363360 On ch=1 n=c#6 v=60
363600 On ch=1 n=c#6 v=0
363600 On ch=1 n=c6 v=60
363840 On ch=1 n=c6 v=0
363840 On ch=1 n=c#6 v=60
364080 On ch=1 n=c#6 v=0
364080 On ch=1 n=d6 v=60
364260 On ch=1 n=d6 v=60
364320 On ch=1 n=d6 v=0
364320 On ch=1 n=d6 v=0
364320 On ch=1 n=f6 v=60
365280 On ch=1 n=f6 v=0
365280 On ch=1 n=d#6 v=60
365760 On ch=1 n=d#6 v=0
365760 On ch=1 n=g#5 v=60
366000 On ch=1 n=g#5 v=0
366000 On ch=1 n=a#5 v=60
366120 On ch=1 n=g#5 v=60
366180 On ch=1 n=g#5 v=0
366180 On ch=1 n=a#5 v=60
366240 On ch=1 n=a#5 v=0
366240 On ch=1 n=a#5 v=0
366240 On ch=1 n=g#5 v=60
366480 On ch=1 n=g#5 v=0
366480 On ch=1 n=g5 v=60
366720 On ch=1 n=g5 v=0
366720 On ch=1 n=g#5 v=60
366960 On ch=1 n=g#5 v=0
366960 On ch=1 n=a5 v=60
367200 On ch=1 n=a5 v=0
367200 On ch=1 n=a#5 v=60
367680 On ch=1 n=a#5 v=0
367680 On ch=1 n=f#5 v=62
367800 On ch=1 n=f#5 v=0
367920 On ch=1 n=a#5 v=64
368160 On ch=1 n=a#5 v=0
368160 On ch=1 n=b5 v=65
368400 On ch=1 n=b5 v=0
368400 On ch=1 n=c6 v=67
368520 On ch=1 n=c#6 v=67
368580 On ch=1 n=c#6 v=0
368580 On ch=1 n=d#6 v=68
368640 On ch=1 n=d#6 v=0
368640 On ch=1 n=c6 v=0
368640 On ch=1 n=c#6 v=68
368880 On ch=1 n=c#6 v=0
368880 On ch=1 n=c6 v=69
369120 On ch=1 n=c6 v=0
369120 On ch=1 n=c#6 v=71
369280 On ch=1 n=c#6 v=0
369280 On ch=1 n=b6 v=72
369440 On ch=1 n=b6 v=0
369440 On ch=1 n=a#6 v=73
369600 On ch=1 n=a#6 v=0
369600 On ch=1 n=a#6 v=74
369760 On ch=1 n=a#6 v=0
369760 On ch=1 n=g#6 v=75
369920 On ch=1 n=g#6 v=0
369920 On ch=1 n=f#6 v=76
370080 On ch=1 n=f#6 v=0
370080 On ch=1 n=f6 v=77
371040 On ch=1 n=f6 v=0
371040 On ch=1 n=d#6 v=82
371520 On ch=1 n=d#6 v=0
371520 On ch=1 n=g#5 v=85
371680 On ch=1 n=g#5 v=0
371680 On ch=1 n=a#5 v=86
371840 On ch=1 n=a#5 v=0
371840 On ch=1 n=g#5 v=87
372000 On ch=1 n=g#5 v=0
372000 On ch=1 n=g5 v=88
372240 On ch=1 n=g5 v=0
372240 On ch=1 n=g#5 v=89
372480 On ch=1 n=g#5 v=0
372480 On ch=1 n=b5 v=91
372720 On ch=1 n=b5 v=0
372720 On ch=1 n=a#5 v=92
372960 On ch=1 n=a#5 v=0
372960 On ch=1 n=f#5 v=94
373080 On ch=1 n=f#5 v=0
373920 On ch=1 n=a#5 v=99
374040 On ch=1 n=a#5 v=0
374160 On ch=1 n=a#5 v=100
374280 On ch=1 n=a#5 v=0
374400 On ch=1 n=a#5 v=100
374520 On ch=1 n=a#5 v=0
375360 On ch=1 n=a#5 v=100
375480 On ch=1 n=a#5 v=0
375600 On ch=1 n=a#5 v=100
375720 On ch=1 n=a#5 v=0
375840 On ch=1 n=a#5 v=100
375960 On ch=1 n=a#5 v=0
376800 On ch=1 n=a#5 v=100
376920 On ch=1 n=a#5 v=0
377040 On ch=1 n=a#5 v=100
377160 On ch=1 n=a#5 v=0
377280 On ch=1 n=a#5 v=100
377400 On ch=1 n=a#5 v=0
377760 On ch=1 n=a#6 v=110
377760 On ch=1 n=a#5 v=110
377880 On ch=1 n=a#5 v=0
377880 On ch=1 n=a#6 v=0
378000 On ch=1 n=a#6 v=110
378000 On ch=1 n=a#5 v=110
378120 On ch=1 n=a#5 v=0
378120 On ch=1 n=a#6 v=0
378240 On ch=1 n=a#5 v=110
378240 On ch=1 n=a#6 v=110
378360 On ch=1 n=a#6 v=0
378360 On ch=1 n=a#5 v=0
378720 On ch=1 n=a#6 v=110
378720 On ch=1 n=a#5 v=110
378840 On ch=1 n=a#5 v=0
378840 On ch=1 n=a#6 v=0
378960 On ch=1 n=a#6 v=110
378960 On ch=1 n=a#5 v=110
379080 On ch=1 n=a#5 v=0
379080 On ch=1 n=a#6 v=0
379200 On ch=1 n=a#5 v=110
379200 On ch=1 n=a#6 v=110
379320 On ch=1 n=a#6 v=0
379320 On ch=1 n=a#5 v=0
379680 On ch=1 n=a#6 v=110
379680 On ch=1 n=a#5 v=110
379800 On ch=1 n=a#5 v=0
379800 On ch=1 n=a#6 v=0
379920 On ch=1 n=a#6 v=110
379920 On ch=1 n=a#5 v=110
380040 On ch=1 n=a#5 v=0
380040 On ch=1 n=a#6 v=0
380160 On ch=1 n=a#5 v=110
380160 On ch=1 n=a#6 v=110
380280 On ch=1 n=a#6 v=0
380280 On ch=1 n=a#5 v=0
381120 On ch=1 n=a#4 v=60
381120 On ch=1 n=a#5 v=60
381120 On ch=1 n=f5 v=60
381240 On ch=1 n=a#5 v=0
381240 On ch=1 n=a#4 v=0
381360 On ch=1 n=a#4 v=62
381360 On ch=1 n=a#5 v=62
381480 On ch=1 n=a#5 v=0
381480 On ch=1 n=a#4 v=0
381600 On ch=1 n=f5 v=0
381600 On ch=1 n=a#5 v=64
381600 On ch=1 n=a#4 v=64
381600 On ch=1 n=e5 v=64
381720 On ch=1 n=a#4 v=0
381720 On ch=1 n=a#5 v=0
382080 On ch=1 n=e5 v=0
382560 On ch=1 n=a#4 v=72
382560 On ch=1 n=a#5 v=72
382560 On ch=1 n=d#5 v=72
382680 On ch=1 n=a#5 v=0
382680 On ch=1 n=a#4 v=0
382800 On ch=1 n=a#4 v=74
382800 On ch=1 n=a#5 v=74
382920 On ch=1 n=a#5 v=0
382920 On ch=1 n=a#4 v=0
383040 On ch=1 n=d#5 v=0
383040 On ch=1 n=a#4 v=76
383040 On ch=1 n=a#5 v=76
383040 On ch=1 n=d5 v=76
383160 On ch=1 n=a#5 v=0
383160 On ch=1 n=a#4 v=0
383520 On ch=1 n=d5 v=0
383520 On ch=1 n=a#4 v=80
383520 On ch=1 n=a#5 v=80
383640 On ch=1 n=a#5 v=0
383640 On ch=1 n=a#4 v=0
383760 On ch=1 n=a#4 v=82
383760 On ch=1 n=a#5 v=82
383880 On ch=1 n=a#5 v=0
383880 On ch=1 n=a#4 v=0
384000 On ch=1 n=a#4 v=84
384000 On ch=1 n=a#5 v=84
384120 On ch=1 n=a#5 v=0
384120 On ch=1 n=a#4 v=0
384480 On ch=1 n=a#4 v=88
384480 On ch=1 n=a#5 v=88
384600 On ch=1 n=a#5 v=0
384600 On ch=1 n=a#4 v=0
384720 On ch=1 n=a#4 v=91
384720 On ch=1 n=a#5 v=91
384840 On ch=1 n=a#5 v=0
384840 On ch=1 n=a#4 v=0
384960 On ch=1 n=a#4 v=93
384960 On ch=1 n=a#5 v=93
385080 On ch=1 n=a#5 v=0
385080 On ch=1 n=a#4 v=0
385440 On ch=1 n=a#4 v=97
385440 On ch=1 n=a#5 v=97
385560 On ch=1 n=a#5 v=0
385560 On ch=1 n=a#4 v=0
385680 On ch=1 n=a#4 v=99
385680 On ch=1 n=a#5 v=99
385800 On ch=1 n=a#5 v=0
385800 On ch=1 n=a#4 v=0
385920 On ch=1 n=a#4 v=100
385920 On ch=1 n=a#5 v=100
386040 On ch=1 n=a#5 v=0
386040 On ch=1 n=a#4 v=0
386400 On ch=1 n=d6 v=102
386640 On ch=1 n=d6 v=0
386640 On ch=1 n=d#6 v=103
386880 On ch=1 n=d#6 v=0
386880 On ch=1 n=f6 v=104
386880 On ch=1 n=d6 v=104
387360 On ch=1 n=d6 v=0
387360 On ch=1 n=f6 v=0
387360 On ch=1 n=a#5 v=107
387480 On ch=1 n=a#5 v=0
387840 On ch=1 n=d#6 v=109
388080 On ch=1 n=d#6 v=0
388080 On ch=1 n=f6 v=110
388320 On ch=1 n=f6 v=0
388320 On ch=1 n=g6 v=111
388320 On ch=1 n=d#6 v=111
388800 On ch=1 n=d#6 v=0
388800 On ch=1 n=g6 v=0
388800 On ch=1 n=a#5 v=114
388920 On ch=1 n=a#5 v=0
389280 On ch=1 n=f6 v=116
389520 On ch=1 n=f6 v=0
389520 On ch=1 n=g6 v=117
389760 On ch=1 n=g6 v=0
389760 On ch=1 n=g#6 v=118
389760 On ch=1 n=f6 v=118
390240 On ch=1 n=f6 v=0
390240 On ch=1 n=g#6 v=0
390240 On ch=1 n=a#6 v=100
390240 On ch=1 n=g6 v=100
390240 On ch=1 n=c#6 v=100
391200 On ch=1 n=c#6 v=0
391200 On ch=1 n=g6 v=0
391200 On ch=1 n=a#6 v=0
391200 On ch=1 n=a#6 v=95
391200 On ch=1 n=g6 v=95
391200 On ch=1 n=c#6 v=95
391320 On ch=1 n=c#6 v=0
391320 On ch=1 n=g6 v=0
391320 On ch=1 n=a#6 v=0
391440 On ch=1 n=c#6 v=93
391440 On ch=1 n=g6 v=93
391440 On ch=1 n=a#6 v=93
391560 On ch=1 n=a#6 v=0
391560 On ch=1 n=g6 v=0
391560 On ch=1 n=c#6 v=0
391680 On ch=1 n=a#6 v=92
391680 On ch=1 n=c#6 v=92
391680 On ch=1 n=g6 v=92
392160 On ch=1 n=a#6 v=0
392160 On ch=1 n=c7 v=89
392400 On ch=1 n=c7 v=0
392400 On ch=1 n=a#6 v=87
392640 On ch=1 n=a#6 v=0
392640 On ch=1 n=g6 v=0
392640 On ch=1 n=c#6 v=0
392640 On ch=1 n=c6 v=86
392640 On ch=1 n=g#6 v=86
392760 On ch=1 n=g#6 v=0
393120 On ch=1 n=c6 v=0
393120 On ch=1 n=g#6 v=83
393120 On ch=1 n=b5 v=83
393600 On ch=1 n=g#6 v=0
393600 On ch=1 n=a#6 v=80
393840 On ch=1 n=a#6 v=0
393840 On ch=1 n=g#6 v=78
394080 On ch=1 n=g#6 v=0
394080 On ch=1 n=b5 v=0
394080 On ch=1 n=a#5 v=77
394080 On ch=1 n=g6 v=77
394200 On ch=1 n=g6 v=0
394560 On ch=1 n=a#5 v=0
394560 On ch=1 n=g6 v=74
394560 On ch=1 n=a#5 v=74
395040 On ch=1 n=g6 v=0
395040 On ch=1 n=g#6 v=71
395280 On ch=1 n=g#6 v=0
395280 On ch=1 n=g6 v=69
395520 On ch=1 n=g6 v=0
395520 On ch=1 n=a#5 v=0
395520 On ch=1 n=g#5 v=68
395520 On ch=1 n=f6 v=68
395640 On ch=1 n=f6 v=0
396000 On ch=1 n=g#5 v=0
396000 On ch=1 n=f6 v=65
396000 On ch=1 n=g#5 v=65
396480 On ch=1 n=f6 v=0
396480 On ch=1 n=g6 v=62
396720 On ch=1 n=g6 v=0
396720 On ch=1 n=f6 v=60
396960 On ch=1 n=f6 v=0
396960 On ch=1 n=g#5 v=0
396960 On ch=1 n=d#6 v=60
396960 On ch=1 n=g5 v=60
397080 On ch=1 n=d#6 v=0
397440 On ch=1 n=g5 v=0
397440 On ch=1 n=a#6 v=120
397440 On ch=1 n=a#5 v=120
397560 On ch=1 n=a#5 v=0
397560 On ch=1 n=a#6 v=0
397920 On ch=1 n=d6 v=110
398160 On ch=1 n=d6 v=0
398160 On ch=1 n=d#6 v=110
398400 On ch=1 n=d#6 v=0
398400 On ch=1 n=f6 v=110
398400 On ch=1 n=d6 v=110
398880 On ch=1 n=d6 v=0
398880 On ch=1 n=f6 v=0
398880 On ch=1 n=a#6 v=120
398880 On ch=1 n=a#5 v=120
399000 On ch=1 n=a#5 v=0
399000 On ch=1 n=a#6 v=0
399360 On ch=1 n=d#6 v=110
399600 On ch=1 n=d#6 v=0
399600 On ch=1 n=f6 v=110
399840 On ch=1 n=f6 v=0
399840 On ch=1 n=g6 v=110
399840 On ch=1 n=d#6 v=110
400320 On ch=1 n=d#6 v=0
400320 On ch=1 n=g6 v=0
400320 On ch=1 n=a#6 v=120
400320 On ch=1 n=a#5 v=120
400440 On ch=1 n=a#5 v=0
400440 On ch=1 n=a#6 v=0
400800 On ch=1 n=f6 v=110
401040 On ch=1 n=f6 v=0
401040 On ch=1 n=g6 v=110
401280 On ch=1 n=g6 v=0
401280 On ch=1 n=g#6 v=110
401280 On ch=1 n=f6 v=110
401760 On ch=1 n=f6 v=0
401760 On ch=1 n=g#6 v=0
401760 On ch=1 n=a#6 v=120
401760 On ch=1 n=g6 v=120
401760 On ch=1 n=c#6 v=120
402480 On ch=1 n=c#6 v=0
402480 On ch=1 n=g6 v=0
402480 On ch=1 n=a#6 v=0
402480 On ch=1 n=a#6 v=110
402480 On ch=1 n=g6 v=110
402720 On ch=1 n=g6 v=0
402720 On ch=1 n=a#6 v=0
402720 On ch=1 n=c#6 v=110
402960 On ch=1 n=a#6 v=110
402960 On ch=1 n=g6 v=110
403200 On ch=1 n=g6 v=0
403200 On ch=1 n=a#6 v=0
403200 On ch=1 n=c#6 v=0
403200 On ch=1 n=c#6 v=110
403440 On ch=1 n=a#6 v=108
403680 On ch=1 n=a#6 v=0
403680 On ch=1 n=c7 v=106
403920 On ch=1 n=c7 v=0
403920 On ch=1 n=a#6 v=104
404160 On ch=1 n=a#6 v=0
404160 On ch=1 n=c#6 v=0
404160 On ch=1 n=c6 v=102
404160 On ch=1 n=g#6 v=102
404280 On ch=1 n=g#6 v=0
404280 On ch=1 n=c6 v=0
404640 On ch=1 n=b5 v=97
404880 On ch=1 n=g#6 v=95
405120 On ch=1 n=g#6 v=0
405120 On ch=1 n=a#6 v=93
405360 On ch=1 n=a#6 v=0
405360 On ch=1 n=g#6 v=91
405600 On ch=1 n=g#6 v=0
405600 On ch=1 n=b5 v=0
405600 On ch=1 n=a#5 v=88
405600 On ch=1 n=g6 v=88
405720 On ch=1 n=g6 v=0
405720 On ch=1 n=a#5 v=0
406080 On ch=1 n=a#5 v=84
406320 On ch=1 n=g6 v=82
406560 On ch=1 n=g6 v=0
406560 On ch=1 n=g#6 v=79
406800 On ch=1 n=g#6 v=0
406800 On ch=1 n=g6 v=77
407040 On ch=1 n=g6 v=0
407040 On ch=1 n=a#5 v=0
407040 On ch=1 n=g#5 v=75
407040 On ch=1 n=f6 v=75
407160 On ch=1 n=f6 v=0
407160 On ch=1 n=g#5 v=0
407520 On ch=1 n=g5 v=71
407520 On ch=1 n=d#6 v=71
407640 On ch=1 n=d#6 v=0
407640 On ch=1 n=g5 v=0
408000 On ch=1 n=d#6 v=66
408120 On ch=1 n=d#6 v=0
408240 On ch=1 n=d#6 v=64
408360 On ch=1 n=d#6 v=0
408480 On ch=1 n=d#6 v=62
408600 On ch=1 n=d#6 v=0
408720 On ch=1 n=d#6 v=60
408840 On ch=1 n=d#6 v=0
408960 On ch=1 n=d#6 v=60
409080 On ch=1 n=d#6 v=0
409200 On ch=1 n=d#6 v=60
409320 On ch=1 n=d#6 v=0
409440 On ch=1 n=d#6 v=60
409560 On ch=1 n=d#6 v=0
409680 On ch=1 n=d#6 v=60
409800 On ch=1 n=d#6 v=0
409920 On ch=1 n=d#6 v=60
410040 On ch=1 n=d#6 v=0
410160 On ch=1 n=d#6 v=60
410280 On ch=1 n=d#6 v=0
410400 On ch=1 n=f6 v=60
410640 On ch=1 n=f6 v=0
410640 On ch=1 n=d#6 v=60
410880 On ch=1 n=d#6 v=0
410880 On ch=1 n=c6 v=60
411120 On ch=1 n=c6 v=0
411120 On ch=1 n=g#5 v=60
411360 On ch=1 n=g#5 v=0
411360 On ch=1 n=d#5 v=60
411600 On ch=1 n=d#5 v=0
411600 On ch=1 n=e5 v=60
411840 On ch=1 n=e5 v=0
411840 On ch=1 n=f5 v=60
411960 On ch=1 n=f5 v=0
412080 On ch=1 n=f5 v=60
412200 On ch=1 n=f5 v=0
412320 On ch=1 n=f5 v=60
412440 On ch=1 n=f5 v=0
412560 On ch=1 n=f5 v=60
412680 On ch=1 n=f5 v=0
412800 On ch=1 n=f5 v=60
412920 On ch=1 n=f5 v=0
413040 On ch=1 n=f5 v=60
413160 On ch=1 n=f5 v=0
413280 On ch=1 n=d#5 v=60
413520 On ch=1 n=d#5 v=0
413520 On ch=1 n=g#5 v=60
413760 On ch=1 n=g#5 v=0
413760 On ch=1 n=c6 v=60
414000 On ch=1 n=c6 v=0
414000 On ch=1 n=d#6 v=60
414240 On ch=1 n=d#6 v=0
414240 On ch=1 n=g#6 v=60
414480 On ch=1 n=g#6 v=0
414480 On ch=1 n=e6 v=60
414720 On ch=1 n=e6 v=0
414720 On ch=1 n=f6 v=60
414840 On ch=1 n=f6 v=0
414960 On ch=1 n=f6 v=60
415080 On ch=1 n=f6 v=0
415200 On ch=1 n=f6 v=60
415320 On ch=1 n=f6 v=0
415440 On ch=1 n=f6 v=60
415560 On ch=1 n=f6 v=0
415680 On ch=1 n=f6 v=60
415800 On ch=1 n=f6 v=0
415920 On ch=1 n=f6 v=60
416040 On ch=1 n=f6 v=0
416160 On ch=1 n=f6 v=60
416320 On ch=1 n=f6 v=0
416320 On ch=1 n=g6 v=60
416480 On ch=1 n=g6 v=0
416480 On ch=1 n=f6 v=60
416640 On ch=1 n=f6 v=0
416640 On ch=1 n=d#6 v=60
416880 On ch=1 n=d#6 v=0
416880 On ch=1 n=g#6 v=60
417120 On ch=1 n=g#6 v=0
417120 On ch=1 n=c7 v=60
417240 On ch=1 n=c7 v=0
417600 On ch=1 n=f7 v=60
418080 On ch=1 n=f7 v=0
418080 On ch=1 n=d#7 v=60
418320 On ch=1 n=d#7 v=0
418320 On ch=1 n=c#7 v=60
418560 On ch=1 n=c#7 v=0
418560 On ch=1 n=g6 v=60
418680 On ch=1 n=g6 v=0
419040 On ch=1 n=a#6 v=60
419520 On ch=1 n=a#6 v=0
419520 On ch=1 n=g#6 v=60
419760 On ch=1 n=g#6 v=0
419760 On ch=1 n=d#6 v=60
420000 On ch=1 n=d#6 v=0
420000 On ch=1 n=c6 v=60
420120 On ch=1 n=c6 v=0
420480 On ch=1 n=d#6 v=60
420600 On ch=1 n=d#6 v=0
420720 On ch=1 n=d#6 v=60
420840 On ch=1 n=d#6 v=0
420960 On ch=1 n=d#6 v=60
421080 On ch=1 n=d#6 v=0
421200 On ch=1 n=d#6 v=60
421320 On ch=1 n=d#6 v=0
421440 On ch=1 n=d#6 v=60
421560 On ch=1 n=d#6 v=0
421680 On ch=1 n=d#6 v=60
421800 On ch=1 n=d#6 v=0
421920 On ch=1 n=f6 v=60
422160 On ch=1 n=f6 v=0
422160 On ch=1 n=d#6 v=60
422400 On ch=1 n=d#6 v=0
422400 On ch=1 n=c6 v=60
422640 On ch=1 n=c6 v=0
422640 On ch=1 n=g#5 v=60
422880 On ch=1 n=g#5 v=0
422880 On ch=1 n=d#5 v=60
423120 On ch=1 n=d#5 v=0
423120 On ch=1 n=e5 v=60
423360 On ch=1 n=e5 v=0
423360 On ch=1 n=f5 v=60
423480 On ch=1 n=f5 v=0
423600 On ch=1 n=f5 v=60
423720 On ch=1 n=f5 v=0
423840 On ch=1 n=f5 v=60
423960 On ch=1 n=f5 v=0
424080 On ch=1 n=f5 v=60
424200 On ch=1 n=f5 v=0
424320 On ch=1 n=f5 v=60
424440 On ch=1 n=f5 v=0
424560 On ch=1 n=f5 v=60
424680 On ch=1 n=f5 v=0
424800 On ch=1 n=d#5 v=60
425040 On ch=1 n=d#5 v=0
425040 On ch=1 n=g#5 v=61
425280 On ch=1 n=g#5 v=0
425280 On ch=1 n=c6 v=62
425520 On ch=1 n=c6 v=0
425520 On ch=1 n=d#6 v=63
425760 On ch=1 n=d#6 v=0
425760 On ch=1 n=g#6 v=64
426000 On ch=1 n=g#6 v=0
426000 On ch=1 n=e6 v=65
426240 On ch=1 n=e6 v=0
426240 On ch=1 n=f6 v=66
426360 On ch=1 n=f6 v=0
426480 On ch=1 n=f6 v=67
426600 On ch=1 n=f6 v=0
426720 On ch=1 n=f6 v=68
426840 On ch=1 n=f6 v=0
426960 On ch=1 n=f6 v=69
427080 On ch=1 n=f6 v=0
427200 On ch=1 n=f6 v=70
427320 On ch=1 n=f6 v=0
427440 On ch=1 n=f6 v=71
427560 On ch=1 n=f6 v=0
427680 On ch=1 n=f6 v=72
427840 On ch=1 n=f6 v=0
427840 On ch=1 n=g6 v=73
428000 On ch=1 n=g6 v=0
428000 On ch=1 n=f6 v=74
428160 On ch=1 n=f6 v=0
428160 On ch=1 n=d#6 v=74
428400 On ch=1 n=d#6 v=0
428400 On ch=1 n=g#6 v=75
428640 On ch=1 n=g#6 v=0
428640 On ch=1 n=c7 v=76
428760 On ch=1 n=c7 v=0
429120 On ch=1 n=f7 v=78
429600 On ch=1 n=f7 v=0
429600 On ch=1 n=d#7 v=81
429840 On ch=1 n=d#7 v=0
429840 On ch=1 n=c#7 v=82
430080 On ch=1 n=c#7 v=0
430080 On ch=1 n=g6 v=83
430200 On ch=1 n=g6 v=0
430560 On ch=1 n=g#6 v=85
431520 On ch=1 n=g#6 v=0
431520 On ch=1 n=c6 v=89
431616 On ch=1 n=c6 v=0
431616 On ch=1 n=d6 v=89
431712 On ch=1 n=d6 v=0
431712 On ch=1 n=c6 v=90
431808 On ch=1 n=c6 v=0
431808 On ch=1 n=d6 v=90
431904 On ch=1 n=d6 v=0
431904 On ch=1 n=c6 v=91
432000 On ch=1 n=c6 v=0
432000 On ch=1 n=a#5 v=91
432120 On ch=1 n=a#5 v=0
432480 On ch=1 n=d6 v=93
432720 On ch=1 n=d6 v=0
432720 On ch=1 n=d#6 v=94
432960 On ch=1 n=d#6 v=0
432960 On ch=1 n=f6 v=95
432960 On ch=1 n=d6 v=95
433440 On ch=1 n=d6 v=0
433440 On ch=1 n=f6 v=0
433440 On ch=1 n=a#5 v=97
433560 On ch=1 n=a#5 v=0
433920 On ch=1 n=d#6 v=99
434160 On ch=1 n=d#6 v=0
434160 On ch=1 n=f6 v=101
434400 On ch=1 n=f6 v=0
434400 On ch=1 n=g6 v=102
434400 On ch=1 n=d#6 v=102
434880 On ch=1 n=d#6 v=0
434880 On ch=1 n=g6 v=0
434880 On ch=1 n=a#5 v=104
435000 On ch=1 n=a#5 v=0
435360 On ch=1 n=f6 v=106
435600 On ch=1 n=f6 v=0
435600 On ch=1 n=g6 v=107
435840 On ch=1 n=g6 v=0
435840 On ch=1 n=g#6 v=108
435840 On ch=1 n=f6 v=108
436320 On ch=1 n=f6 v=0
436320 On ch=1 n=g#6 v=0
436320 On ch=1 n=a#6 v=110
436320 On ch=1 n=g6 v=110
436320 On ch=1 n=c#6 v=110
437280 On ch=1 n=c#6 v=0
437280 On ch=1 n=g6 v=0
437280 On ch=1 n=a#6 v=0
437280 On ch=1 n=a#6 v=114
437280 On ch=1 n=g6 v=114
437280 On ch=1 n=c#6 v=114
437400 On ch=1 n=c#6 v=0
437400 On ch=1 n=g6 v=0
437400 On ch=1 n=a#6 v=0
437520 On ch=1 n=c#6 v=115
437520 On ch=1 n=g6 v=115
437520 On ch=1 n=a#6 v=115
437640 On ch=1 n=a#6 v=0
437640 On ch=1 n=g6 v=0
437640 On ch=1 n=c#6 v=0
437760 On ch=1 n=a#6 v=116
437760 On ch=1 n=c#6 v=116
437760 On ch=1 n=g6 v=116
438240 On ch=1 n=a#6 v=0
438240 On ch=1 n=c7 v=118
438480 On ch=1 n=c7 v=0
438480 On ch=1 n=a#6 v=119
438720 On ch=1 n=a#6 v=0
438720 On ch=1 n=g6 v=0
438720 On ch=1 n=c#6 v=0
438720 On ch=1 n=c6 v=120
438720 On ch=1 n=g#6 v=120
438840 On ch=1 n=g#6 v=0
439200 On ch=1 n=c6 v=0
439200 On ch=1 n=g#6 v=120
439200 On ch=1 n=b5 v=120
439680 On ch=1 n=g#6 v=0
439680 On ch=1 n=a#6 v=113
439920 On ch=1 n=a#6 v=0
439920 On ch=1 n=g#6 v=109
440160 On ch=1 n=g#6 v=0
440160 On ch=1 n=b5 v=0
440160 On ch=1 n=a#5 v=105
440160 On ch=1 n=g6 v=105
440280 On ch=1 n=g6 v=0
440640 On ch=1 n=a#5 v=0
440640 On ch=1 n=g6 v=97
440640 On ch=1 n=a#5 v=97
441120 On ch=1 n=g6 v=0
441120 On ch=1 n=g#6 v=89
441360 On ch=1 n=g#6 v=0
441360 On ch=1 n=g6 v=85
441600 On ch=1 n=g6 v=0
441600 On ch=1 n=a#5 v=0
441600 On ch=1 n=g#5 v=81
441600 On ch=1 n=f6 v=81
441720 On ch=1 n=f6 v=0
442080 On ch=1 n=g#5 v=0
442080 On ch=1 n=f6 v=73
442080 On ch=1 n=g#5 v=73
442560 On ch=1 n=f6 v=0
442560 On ch=1 n=g6 v=65
442800 On ch=1 n=g6 v=0
442800 On ch=1 n=f6 v=61
443040 On ch=1 n=f6 v=0
443040 On ch=1 n=g#5 v=0
443040 On ch=1 n=d#6 v=60
443040 On ch=1 n=g5 v=60
443160 On ch=1 n=d#6 v=0
443520 On ch=1 n=g5 v=0
443520 On ch=1 n=a#6 v=120
443520 On ch=1 n=a#5 v=120
443640 On ch=1 n=a#5 v=0
443640 On ch=1 n=a#6 v=0
444000 On ch=1 n=d6 v=110
444240 On ch=1 n=d6 v=0
444240 On ch=1 n=d#6 v=110
444480 On ch=1 n=d#6 v=0
444480 On ch=1 n=f6 v=110
444480 On ch=1 n=d6 v=110
444960 On ch=1 n=d6 v=0
444960 On ch=1 n=f6 v=0
444960 On ch=1 n=a#6 v=120
444960 On ch=1 n=a#5 v=120
445080 On ch=1 n=a#5 v=0
445080 On ch=1 n=a#6 v=0
445440 On ch=1 n=d#6 v=110
445680 On ch=1 n=d#6 v=0
445680 On ch=1 n=f6 v=110
445920 On ch=1 n=f6 v=0
445920 On ch=1 n=g6 v=110
445920 On ch=1 n=d#6 v=110
446400 On ch=1 n=d#6 v=0
446400 On ch=1 n=g6 v=0
446400 On ch=1 n=a#6 v=120
446400 On ch=1 n=a#5 v=120
446520 On ch=1 n=a#5 v=0
446520 On ch=1 n=a#6 v=0
446880 On ch=1 n=f6 v=110
447120 On ch=1 n=f6 v=0
447120 On ch=1 n=g6 v=110
447360 On ch=1 n=g6 v=0
447360 On ch=1 n=g#6 v=110
447360 On ch=1 n=f6 v=110
447840 On ch=1 n=f6 v=0
447840 On ch=1 n=g#6 v=0
447840 On ch=1 n=a#6 v=120
447840 On ch=1 n=g6 v=120
447840 On ch=1 n=c#6 v=120
447960 On ch=1 n=c#6 v=0
447960 On ch=1 n=g6 v=0
447960 On ch=1 n=a#6 v=0
451680 On ch=1 n=a#6 v=60
451680 On ch=1 n=g6 v=60
451680 On ch=1 n=c#6 v=60
451800 On ch=1 n=c#6 v=0
451800 On ch=1 n=g6 v=0
451800 On ch=1 n=a#6 v=0
451920 On ch=1 n=g6 v=59
451920 On ch=1 n=a#6 v=59
451920 On ch=1 n=c#6 v=59
452040 On ch=1 n=c#6 v=0
452040 On ch=1 n=a#6 v=0
452040 On ch=1 n=g6 v=0
452160 On ch=1 n=a#6 v=58
452160 On ch=1 n=c#6 v=58
452160 On ch=1 n=g6 v=58
452640 On ch=1 n=a#6 v=0
452640 On ch=1 n=c7 v=56
452880 On ch=1 n=c7 v=0
452880 On ch=1 n=a#6 v=55
453120 On ch=1 n=a#6 v=0
453120 On ch=1 n=g6 v=0
453120 On ch=1 n=c#6 v=0
453120 On ch=1 n=c6 v=53
453120 On ch=1 n=g#6 v=53
453240 On ch=1 n=g#6 v=0
453600 On ch=1 n=c6 v=0
453600 On ch=1 n=g#6 v=51
453600 On ch=1 n=b5 v=51
454080 On ch=1 n=g#6 v=0
454080 On ch=1 n=a#6 v=49
454320 On ch=1 n=a#6 v=0
454320 On ch=1 n=g#6 v=48
454560 On ch=1 n=g#6 v=0
454560 On ch=1 n=b5 v=0
454560 On ch=1 n=a#5 v=46
454560 On ch=1 n=g6 v=46
454680 On ch=1 n=g6 v=0
455040 On ch=1 n=a#5 v=0
455040 On ch=1 n=g6 v=44
455040 On ch=1 n=a#5 v=44
455520 On ch=1 n=g6 v=0
455520 On ch=1 n=g#6 v=42
455760 On ch=1 n=g#6 v=0
455760 On ch=1 n=g6 v=41
456000 On ch=1 n=g6 v=0
456000 On ch=1 n=a#5 v=0
456000 On ch=1 n=g#5 v=40
456000 On ch=1 n=f6 v=40
456120 On ch=1 n=f6 v=0
456480 On ch=1 n=g#5 v=0
463680 On ch=1 n=d#5 v=40
463800 On ch=1 n=d#5 v=0
463920 On ch=1 n=d#5 v=40
464040 On ch=1 n=d#5 v=0
464160 On ch=1 n=d#5 v=40
464280 On ch=1 n=d#5 v=0
464400 On ch=1 n=d#5 v=40
464520 On ch=1 n=d#5 v=0
464640 On ch=1 n=d#5 v=40
465120 On ch=1 n=d#5 v=0
465120 On ch=1 n=g4 v=40
465360 On ch=1 n=g4 v=0
465360 On ch=1 n=a#4 v=40
465600 On ch=1 n=a#4 v=0
465600 On ch=1 n=d#5 v=40
465840 On ch=1 n=d#5 v=0
465840 On ch=1 n=g5 v=40
466080 On ch=1 n=g5 v=0
466080 On ch=1 n=c6 v=40
466500 On ch=1 n=c6 v=40
466560 On ch=1 n=c6 v=0
466560 On ch=1 n=c6 v=0
466560 On ch=1 n=b5 v=40
466680 On ch=1 n=b5 v=0
466980 On ch=1 n=b5 v=41
467040 On ch=1 n=b5 v=0
467040 On ch=1 n=a#5 v=42
467160 On ch=1 n=a#5 v=0
467460 On ch=1 n=a#5 v=43
467520 On ch=1 n=a#5 v=0
467520 On ch=1 n=a5 v=43
467640 On ch=1 n=a5 v=0
467940 On ch=1 n=a5 v=45
468000 On ch=1 n=a5 v=0
468000 On ch=1 n=g#5 v=45
468120 On ch=1 n=g#5 v=0
468420 On ch=1 n=g#5 v=47
468480 On ch=1 n=g#5 v=0
468480 On ch=1 n=g5 v=47
468600 On ch=1 n=g5 v=0
468900 On ch=1 n=g5 v=49
468960 On ch=1 n=g5 v=0
468960 On ch=1 n=f5 v=49
469080 On ch=1 n=f5 v=0
469440 On ch=1 n=d#5 v=51
469560 On ch=1 n=d#5 v=0
469680 On ch=1 n=d#5 v=52
469800 On ch=1 n=d#5 v=0
469920 On ch=1 n=d#5 v=52
470040 On ch=1 n=d#5 v=0
470160 On ch=1 n=d#5 v=53
470280 On ch=1 n=d#5 v=0
470400 On ch=1 n=d#5 v=54
470880 On ch=1 n=d#5 v=0
470880 On ch=1 n=c5 v=56
471120 On ch=1 n=c5 v=0
471120 On ch=1 n=d#5 v=57
471360 On ch=1 n=d#5 v=0
471360 On ch=1 n=g#5 v=58
471600 On ch=1 n=g#5 v=0
471600 On ch=1 n=c6 v=59
471840 On ch=1 n=c6 v=0
471840 On ch=1 n=f6 v=60
472260 On ch=1 n=g6 v=61
472320 On ch=1 n=g6 v=0
472320 On ch=1 n=f6 v=0
472320 On ch=1 n=f6 v=62
472440 On ch=1 n=f6 v=0
472740 On ch=1 n=f6 v=63
472800 On ch=1 n=f6 v=0
472800 On ch=1 n=e6 v=63
472920 On ch=1 n=e6 v=0
473220 On ch=1 n=e6 v=65
473280 On ch=1 n=e6 v=0
473280 On ch=1 n=d#6 v=65
473400 On ch=1 n=d#6 v=0
473700 On ch=1 n=d#6 v=67
473760 On ch=1 n=d#6 v=0
473760 On ch=1 n=d6 v=67
473880 On ch=1 n=d6 v=0
474180 On ch=1 n=d6 v=69
474240 On ch=1 n=d6 v=0
474240 On ch=1 n=c#6 v=69
474360 On ch=1 n=c#6 v=0
474660 On ch=1 n=c#6 v=70
474720 On ch=1 n=c#6 v=0
474720 On ch=1 n=c6 v=71
474840 On ch=1 n=c6 v=0
475200 On ch=1 n=b5 v=72
475320 On ch=1 n=b5 v=0
475440 On ch=1 n=b5 v=73
475560 On ch=1 n=b5 v=0
475680 On ch=1 n=b5 v=74
475800 On ch=1 n=b5 v=0
475920 On ch=1 n=b5 v=75
476040 On ch=1 n=b5 v=0
476160 On ch=1 n=b5 v=76
476280 On ch=1 n=b5 v=0
476400 On ch=1 n=b5 v=77
476520 On ch=1 n=b5 v=0
476640 On ch=1 n=g#5 v=78
476880 On ch=1 n=g#5 v=0
476880 On ch=1 n=b5 v=79
477120 On ch=1 n=b5 v=0
477120 On ch=1 n=d6 v=80
477360 On ch=1 n=d6 v=0
477360 On ch=1 n=f6 v=81
477600 On ch=1 n=f6 v=0
477600 On ch=1 n=b6 v=82
478020 On ch=1 n=b6 v=83
478080 On ch=1 n=b6 v=0
478080 On ch=1 n=b6 v=0
478080 On ch=1 n=a#6 v=83
478200 On ch=1 n=a#6 v=0
478500 On ch=1 n=a#6 v=85
478560 On ch=1 n=a#6 v=0
478560 On ch=1 n=a6 v=85
478680 On ch=1 n=a6 v=0
478980 On ch=1 n=a6 v=87
479040 On ch=1 n=a6 v=0
479040 On ch=1 n=g#6 v=87
479160 On ch=1 n=g#6 v=0
479460 On ch=1 n=g#6 v=89
479520 On ch=1 n=g#6 v=0
479520 On ch=1 n=g6 v=89
479640 On ch=1 n=g6 v=0
479940 On ch=1 n=g6 v=90
480000 On ch=1 n=g6 v=0
480000 On ch=1 n=f#6 v=91
480120 On ch=1 n=f#6 v=0
480420 On ch=1 n=f#6 v=92
480480 On ch=1 n=f#6 v=0
480480 On ch=1 n=f6 v=92
480600 On ch=1 n=f6 v=0
480900 On ch=1 n=f6 v=94
480960 On ch=1 n=f6 v=0
480960 On ch=1 n=g7 v=94
481080 On ch=1 n=g7 v=0
481380 On ch=1 n=g7 v=96
481440 On ch=1 n=g7 v=0
481440 On ch=1 n=f7 v=96
481560 On ch=1 n=f7 v=0
481860 On ch=1 n=f7 v=98
481920 On ch=1 n=f7 v=0
481920 On ch=1 n=e7 v=98
482040 On ch=1 n=e7 v=0
482340 On ch=1 n=e7 v=99
482400 On ch=1 n=e7 v=0
482400 On ch=1 n=d#7 v=100
482520 On ch=1 n=d#7 v=0
482820 On ch=1 n=d#7 v=101
482880 On ch=1 n=d#7 v=0
482880 On ch=1 n=d7 v=102
483000 On ch=1 n=d7 v=0
483300 On ch=1 n=d7 v=103
483360 On ch=1 n=d7 v=0
483360 On ch=1 n=c#7 v=103
483480 On ch=1 n=c#7 v=0
483780 On ch=1 n=c#7 v=105
483840 On ch=1 n=c#7 v=0
483840 On ch=1 n=c7 v=105
483960 On ch=1 n=c7 v=0
484260 On ch=1 n=c7 v=107
484320 On ch=1 n=c7 v=0
484320 On ch=1 n=b6 v=107
484440 On ch=1 n=b6 v=0
484740 On ch=1 n=b6 v=109
484800 On ch=1 n=b6 v=0
484800 On ch=1 n=a#6 v=109
484920 On ch=1 n=a#6 v=0
485220 On ch=1 n=a#6 v=110
485280 On ch=1 n=a#6 v=0
485280 On ch=1 n=a6 v=111
485400 On ch=1 n=a6 v=0
485700 On ch=1 n=a6 v=112
485760 On ch=1 n=a6 v=0
485760 On ch=1 n=g#6 v=112
485880 On ch=1 n=g#6 v=0
486180 On ch=1 n=g#6 v=114
486240 On ch=1 n=g#6 v=0
486240 On ch=1 n=f6 v=114
486360 On ch=1 n=f6 v=0
486720 On ch=1 n=d#7 v=116
486720 On ch=1 n=d#6 v=116
486840 On ch=1 n=d#6 v=0
486840 On ch=1 n=d#7 v=0
487200 On ch=1 n=g6 v=118
487440 On ch=1 n=g6 v=0
487440 On ch=1 n=g#6 v=119
487680 On ch=1 n=g#6 v=0
487680 On ch=1 n=a#6 v=120
487680 On ch=1 n=g6 v=120
488160 On ch=1 n=g6 v=0
488160 On ch=1 n=a#6 v=0
488160 On ch=1 n=d#7 v=120
488160 On ch=1 n=d#6 v=120
488280 On ch=1 n=d#6 v=0
488280 On ch=1 n=d#7 v=0
488640 On ch=1 n=f#6 v=120
488880 On ch=1 n=f#6 v=0
488880 On ch=1 n=g#6 v=120
489120 On ch=1 n=g#6 v=0
489120 On ch=1 n=a6 v=120
489120 On ch=1 n=f#6 v=120
489600 On ch=1 n=f#6 v=0
489600 On ch=1 n=a6 v=0
489600 On ch=1 n=d#7 v=120
489600 On ch=1 n=d#6 v=120
489720 On ch=1 n=d#6 v=0
489720 On ch=1 n=d#7 v=0
490080 On ch=1 n=f6 v=120
490320 On ch=1 n=f6 v=0
490320 On ch=1 n=g6 v=120
490560 On ch=1 n=g6 v=0
490560 On ch=1 n=g#6 v=120
490560 On ch=1 n=f6 v=120
491040 On ch=1 n=f6 v=0
491040 On ch=1 n=g#6 v=0
491040 On ch=1 n=a#5 v=120
491040 On ch=1 n=a#6 v=120
491040 On ch=1 n=g6 v=120
492000 On ch=1 n=g6 v=0
492000 On ch=1 n=a#6 v=0
492000 On ch=1 n=a#5 v=0
492000 On ch=1 n=a#5 v=120
492000 On ch=1 n=a#6 v=120
492000 On ch=1 n=g6 v=120
492120 On ch=1 n=g6 v=0
492120 On ch=1 n=a#6 v=0
492120 On ch=1 n=a#5 v=0
492240 On ch=1 n=a#5 v=120
492240 On ch=1 n=a#6 v=120
492240 On ch=1 n=g6 v=120
492360 On ch=1 n=g6 v=0
492360 On ch=1 n=a#6 v=0
492360 On ch=1 n=a#5 v=0
492480 On ch=1 n=g6 v=110
492480 On ch=1 n=a#5 v=110
492480 On ch=1 n=a#6 v=110
492960 On ch=1 n=g6 v=0
492960 On ch=1 n=g#6 v=109
493200 On ch=1 n=g#6 v=0
493200 On ch=1 n=g6 v=108
493440 On ch=1 n=g6 v=0
493440 On ch=1 n=f6 v=107
493560 On ch=1 n=f6 v=0
493920 On ch=1 n=a#6 v=0
493920 On ch=1 n=a#5 v=0
493920 On ch=1 n=f6 v=105
493920 On ch=1 n=a#5 v=105
493920 On ch=1 n=a#6 v=105
494400 On ch=1 n=f6 v=0
494400 On ch=1 n=g6 v=104
494640 On ch=1 n=g6 v=0
494640 On ch=1 n=f6 v=103
494880 On ch=1 n=f6 v=0
494880 On ch=1 n=d#6 v=102
495000 On ch=1 n=d#6 v=0
495360 On ch=1 n=a#6 v=0
495360 On ch=1 n=a#5 v=0
495360 On ch=1 n=a#5 v=100
495360 On ch=1 n=g6 v=100
495840 On ch=1 n=a#5 v=0
495840 On ch=1 n=c6 v=99
496080 On ch=1 n=c6 v=0
496080 On ch=1 n=a#5 v=98
496320 On ch=1 n=a#5 v=0
496320 On ch=1 n=g6 v=0
496320 On ch=1 n=g#5 v=97
496320 On ch=1 n=f6 v=97
496440 On ch=1 n=f6 v=0
496440 On ch=1 n=g#5 v=0
496800 On ch=1 n=g#5 v=95
496800 On ch=1 n=f6 v=95
497280 On ch=1 n=g#5 v=0
497280 On ch=1 n=a#5 v=93
497520 On ch=1 n=a#5 v=0
497520 On ch=1 n=g#5 v=93
497760 On ch=1 n=g#5 v=0
497760 On ch=1 n=f6 v=0
497760 On ch=1 n=g5 v=92
497760 On ch=1 n=d#6 v=92
497880 On ch=1 n=d#6 v=0
497880 On ch=1 n=g5 v=0
498240 On ch=1 n=d#5 v=90
498240 On ch=1 n=d#6 v=90
498720 On ch=1 n=g#5 v=88
498960 On ch=1 n=g#5 v=0
498960 On ch=1 n=a#5 v=87
499200 On ch=1 n=a#5 v=0
499200 On ch=1 n=c6 v=87
499200 On ch=1 n=g#5 v=87
499320 On ch=1 n=g#5 v=0
499320 On ch=1 n=c6 v=0
499680 On ch=1 n=d#6 v=0
499680 On ch=1 n=d#5 v=0
499680 On ch=1 n=d#5 v=85
499680 On ch=1 n=d#6 v=85
500160 On ch=1 n=g#5 v=83
500400 On ch=1 n=g#5 v=0
500400 On ch=1 n=a#5 v=82
500640 On ch=1 n=a#5 v=0
500640 On ch=1 n=b5 v=81
500640 On ch=1 n=g#5 v=81
500760 On ch=1 n=g#5 v=0
500760 On ch=1 n=b5 v=0
501120 On ch=1 n=d#6 v=0
501120 On ch=1 n=d#5 v=0
501120 On ch=1 n=d#5 v=80
501120 On ch=1 n=d#6 v=80
501600 On ch=1 n=g5 v=78
501840 On ch=1 n=g5 v=0
501840 On ch=1 n=g#5 v=77
502080 On ch=1 n=g#5 v=0
502080 On ch=1 n=a#5 v=76
502080 On ch=1 n=g5 v=76
502200 On ch=1 n=g5 v=0
502200 On ch=1 n=a#5 v=0
502560 On ch=1 n=d#6 v=0
502560 On ch=1 n=d#5 v=0
502560 On ch=1 n=a#4 v=75
502560 On ch=1 n=a#5 v=75
502560 On ch=1 n=g5 v=75
503520 On ch=1 n=g5 v=0
503520 On ch=1 n=a#5 v=0
503520 On ch=1 n=a#4 v=0
503520 On ch=1 n=a#4 v=71
503520 On ch=1 n=a#5 v=71
503520 On ch=1 n=g5 v=71
503640 On ch=1 n=g5 v=0
503640 On ch=1 n=a#5 v=0
503640 On ch=1 n=a#4 v=0
503760 On ch=1 n=a#4 v=70
503760 On ch=1 n=a#5 v=70
503760 On ch=1 n=g5 v=70
503880 On ch=1 n=g5 v=0
503880 On ch=1 n=a#5 v=0
503880 On ch=1 n=a#4 v=0
504000 On ch=1 n=g5 v=69
504000 On ch=1 n=a#4 v=69
504000 On ch=1 n=a#5 v=69
504480 On ch=1 n=g5 v=0
504480 On ch=1 n=g#5 v=68
504720 On ch=1 n=g#5 v=0
504720 On ch=1 n=g5 v=67
504960 On ch=1 n=g5 v=0
504960 On ch=1 n=f5 v=66
505080 On ch=1 n=f5 v=0
505440 On ch=1 n=a#5 v=0
505440 On ch=1 n=a#4 v=0
505440 On ch=1 n=f5 v=64
505440 On ch=1 n=a#4 v=64
505440 On ch=1 n=a#5 v=64
505920 On ch=1 n=f5 v=0
505920 On ch=1 n=g5 v=63
506160 On ch=1 n=g5 v=0
506160 On ch=1 n=f5 v=62
506400 On ch=1 n=f5 v=0
506400 On ch=1 n=d#5 v=61
506520 On ch=1 n=d#5 v=0
506880 On ch=1 n=a#5 v=0
506880 On ch=1 n=a#4 v=0
506880 On ch=1 n=b5 v=60
506880 On ch=1 n=d5 v=60
507000 On ch=1 n=b5 v=0
507120 On ch=1 n=d5 v=0
507120 On ch=1 n=b5 v=60
507240 On ch=1 n=b5 v=0
507360 On ch=1 n=b5 v=60
507480 On ch=1 n=b5 v=0
507600 On ch=1 n=b5 v=60
507720 On ch=1 n=b5 v=0
507840 On ch=1 n=b5 v=60
507960 On ch=1 n=b5 v=0
508080 On ch=1 n=b5 v=60
508200 On ch=1 n=b5 v=0
508320 On ch=1 n=b5 v=60
508560 On ch=1 n=b5 v=0
508560 On ch=1 n=a#5 v=60
508800 On ch=1 n=a#5 v=0
508800 On ch=1 n=g5 v=60
509040 On ch=1 n=g5 v=0
509040 On ch=1 n=d#5 v=60
509280 On ch=1 n=d#5 v=0
509280 On ch=1 n=a#4 v=60
509400 On ch=1 n=a#4 v=0
509760 On ch=1 n=g5 v=60
509760 On ch=1 n=a#4 v=60
509760 On ch=1 n=a#5 v=60
510240 On ch=1 n=g5 v=0
510240 On ch=1 n=g#5 v=60
510480 On ch=1 n=g#5 v=0
510480 On ch=1 n=g5 v=60
510720 On ch=1 n=g5 v=0
510720 On ch=1 n=f5 v=60
510840 On ch=1 n=f5 v=0
511200 On ch=1 n=a#5 v=0
511200 On ch=1 n=a#4 v=0
511200 On ch=1 n=f5 v=60
511200 On ch=1 n=a#4 v=60
511200 On ch=1 n=a#5 v=60
511680 On ch=1 n=f5 v=0
511680 On ch=1 n=g5 v=60
511920 On ch=1 n=g5 v=0
511920 On ch=1 n=f5 v=60
512160 On ch=1 n=f5 v=0
512160 On ch=1 n=d#5 v=60
512280 On ch=1 n=d#5 v=0
512640 On ch=1 n=a#5 v=0
512640 On ch=1 n=a#4 v=0
512640 On ch=1 n=c6 v=60
512640 On ch=1 n=d5 v=60
512760 On ch=1 n=c6 v=0
512880 On ch=1 n=d5 v=0
512880 On ch=1 n=c6 v=60
513000 On ch=1 n=c6 v=0
513120 On ch=1 n=c6 v=60
513240 On ch=1 n=c6 v=0
513360 On ch=1 n=c6 v=60
513480 On ch=1 n=c6 v=0
513600 On ch=1 n=c6 v=60
513720 On ch=1 n=c6 v=0
513840 On ch=1 n=c6 v=60
513960 On ch=1 n=c6 v=0
514080 On ch=1 n=c6 v=60
514320 On ch=1 n=c6 v=0
514320 On ch=1 n=a#5 v=60
514560 On ch=1 n=a#5 v=0
514560 On ch=1 n=g5 v=60
514800 On ch=1 n=g5 v=0
514800 On ch=1 n=d#5 v=60
515040 On ch=1 n=d#5 v=0
515040 On ch=1 n=a#4 v=60
515160 On ch=1 n=a#4 v=0
515520 On ch=1 n=b5 v=60
515520 On ch=1 n=d5 v=60
515640 On ch=1 n=b5 v=0
515760 On ch=1 n=d5 v=0
515760 On ch=1 n=b5 v=62
515880 On ch=1 n=b5 v=0
516000 On ch=1 n=b5 v=64
516120 On ch=1 n=b5 v=0
516240 On ch=1 n=b5 v=66
516360 On ch=1 n=b5 v=0
516480 On ch=1 n=b5 v=68
516600 On ch=1 n=b5 v=0
516720 On ch=1 n=b5 v=70
516840 On ch=1 n=b5 v=0
516960 On ch=1 n=b5 v=72
517200 On ch=1 n=b5 v=0
517200 On ch=1 n=a#5 v=74
517440 On ch=1 n=a#5 v=0
517440 On ch=1 n=g#5 v=77
517680 On ch=1 n=g#5 v=0
517680 On ch=1 n=f5 v=79
517920 On ch=1 n=f5 v=0
517920 On ch=1 n=d5 v=81
518040 On ch=1 n=d5 v=0
518400 On ch=1 n=g6 v=85
518640 On ch=1 n=g6 v=0
518640 On ch=1 n=f6 v=87
518880 On ch=1 n=f6 v=0
518880 On ch=1 n=d6 v=89
519120 On ch=1 n=d6 v=0
519120 On ch=1 n=b5 v=92
519360 On ch=1 n=b5 v=0
519360 On ch=1 n=g#5 v=94
519480 On ch=1 n=g#5 v=0
519840 On ch=1 n=b6 v=98
520080 On ch=1 n=b6 v=0
520080 On ch=1 n=g#6 v=100
520320 On ch=1 n=g#6 v=0
520320 On ch=1 n=f6 v=102
520560 On ch=1 n=f6 v=0
520560 On ch=1 n=d6 v=104
520800 On ch=1 n=d6 v=0
520800 On ch=1 n=b5 v=107
520920 On ch=1 n=b5 v=0
521280 On ch=1 n=b7 v=110
521520 On ch=1 n=b7 v=0
521520 On ch=1 n=g7 v=110
521760 On ch=1 n=g7 v=0
521760 On ch=1 n=b7 v=111
522000 On ch=1 n=b7 v=0
522000 On ch=1 n=g#7 v=112
522240 On ch=1 n=g#7 v=0
522240 On ch=1 n=f7 v=112
522480 On ch=1 n=f7 v=0
522480 On ch=1 n=d7 v=113
522720 On ch=1 n=d7 v=0
522720 On ch=1 n=b6 v=114
522960 On ch=1 n=b6 v=0
522960 On ch=1 n=g6 v=115
523200 On ch=1 n=g6 v=0
523200 On ch=1 n=b6 v=115
523440 On ch=1 n=b6 v=0
523440 On ch=1 n=g#6 v=116
523680 On ch=1 n=g#6 v=0
523680 On ch=1 n=f6 v=117
523920 On ch=1 n=f6 v=0
523920 On ch=1 n=d6 v=118
524160 On ch=1 n=d6 v=0
524160 On ch=1 n=b5 v=118
524400 On ch=1 n=b5 v=0
524400 On ch=1 n=g5 v=119
524640 On ch=1 n=g5 v=0
524640 On ch=1 n=b5 v=120
524880 On ch=1 n=b5 v=0
524880 On ch=1 n=g#5 v=121
525120 On ch=1 n=g#5 v=0
525120 On ch=1 n=f5 v=121
525360 On ch=1 n=f5 v=0
525360 On ch=1 n=d5 v=122
525600 On ch=1 n=d5 v=0
528480 On ch=1 n=d5 v=60
528720 On ch=1 n=d5 v=0
528720 On ch=1 n=d#5 v=60
528960 On ch=1 n=d#5 v=0
528960 On ch=1 n=f5 v=60
529200 On ch=1 n=f5 v=0
529200 On ch=1 n=g5 v=60
529440 On ch=1 n=g5 v=0
529440 On ch=1 n=g#5 v=60
529680 On ch=1 n=g#5 v=0
529680 On ch=1 n=a5 v=60
529920 On ch=1 n=a5 v=0
529920 On ch=1 n=c6 v=60
530160 On ch=1 n=c6 v=0
530160 On ch=1 n=a#5 v=60
530400 On ch=1 n=a#5 v=0
530400 On ch=1 n=g5 v=60
530640 On ch=1 n=g5 v=0
530640 On ch=1 n=g#5 v=60
530880 On ch=1 n=g#5 v=0
530880 On ch=1 n=a#5 v=60
531120 On ch=1 n=a#5 v=0
531120 On ch=1 n=c6 v=60
531360 On ch=1 n=c6 v=0
531360 On ch=1 n=d6 v=60
531600 On ch=1 n=d6 v=0
531600 On ch=1 n=d#6 v=60
531840 On ch=1 n=d#6 v=0
531840 On ch=1 n=f6 v=60
532080 On ch=1 n=f6 v=0
532080 On ch=1 n=g6 v=60
532320 On ch=1 n=g6 v=0
532320 On ch=1 n=g#6 v=60
532560 On ch=1 n=g#6 v=0
532560 On ch=1 n=a6 v=60
532800 On ch=1 n=a6 v=0
532800 On ch=1 n=c7 v=60
533040 On ch=1 n=c7 v=0
533040 On ch=1 n=a#6 v=62
533280 On ch=1 n=a#6 v=0
533280 On ch=1 n=g6 v=65
533520 On ch=1 n=g6 v=0
533520 On ch=1 n=g#6 v=67
533760 On ch=1 n=g#6 v=0
533760 On ch=1 n=a#6 v=70
534000 On ch=1 n=a#6 v=0
534000 On ch=1 n=c7 v=73
534240 On ch=1 n=c7 v=0
534240 On ch=1 n=d7 v=75
534480 On ch=1 n=d7 v=0
534480 On ch=1 n=d#7 v=78
534720 On ch=1 n=d#7 v=0
534720 On ch=1 n=f7 v=80
534960 On ch=1 n=f7 v=0
534960 On ch=1 n=g7 v=83
535200 On ch=1 n=g7 v=0
535200 On ch=1 n=g#7 v=86
535440 On ch=1 n=g#7 v=0
535440 On ch=1 n=a7 v=88
535680 On ch=1 n=a7 v=0
535680 On ch=1 n=c8 v=91
535920 On ch=1 n=c8 v=0
535920 On ch=1 n=a#7 v=93
536160 On ch=1 n=a#7 v=0
536160 On ch=1 n=g7 v=96
536400 On ch=1 n=g7 v=0
536400 On ch=1 n=g#7 v=99
536640 On ch=1 n=g#7 v=0
536640 On ch=1 n=a7 v=101
536880 On ch=1 n=a7 v=0
536880 On ch=1 n=a#7 v=104
537120 On ch=1 n=a#7 v=0
537120 On ch=1 n=c8 v=106
537360 On ch=1 n=c8 v=0
537360 On ch=1 n=a#7 v=109
537600 On ch=1 n=a#7 v=0
537600 On ch=1 n=g7 v=112
537840 On ch=1 n=g7 v=0
537840 On ch=1 n=g#7 v=114
538080 On ch=1 n=g#7 v=0
538080 On ch=1 n=a7 v=117
538320 On ch=1 n=a7 v=0
538320 On ch=1 n=a#7 v=119
538560 On ch=1 n=a#7 v=0
538560 On ch=1 n=d#8 v=120
538680 On ch=1 n=d#8 v=0
539040 On ch=1 n=g7 v=118
539280 On ch=1 n=g7 v=0
539280 On ch=1 n=g#7 v=117
539520 On ch=1 n=g#7 v=0
539520 On ch=1 n=a7 v=115
539760 On ch=1 n=a7 v=0
539760 On ch=1 n=a#7 v=114
540000 On ch=1 n=a#7 v=0
540000 On ch=1 n=d#8 v=113
540120 On ch=1 n=d#8 v=0
540480 On ch=1 n=g7 v=110
540720 On ch=1 n=g7 v=0
540720 On ch=1 n=g#7 v=109
540960 On ch=1 n=g#7 v=0
540960 On ch=1 n=a7 v=108
541200 On ch=1 n=a7 v=0
541200 On ch=1 n=a#7 v=106
541440 On ch=1 n=a#7 v=0
541440 On ch=1 n=d#8 v=105
541560 On ch=1 n=d#8 v=0
541920 On ch=1 n=g7 v=103
542160 On ch=1 n=g7 v=0
542160 On ch=1 n=g#7 v=101
542400 On ch=1 n=g#7 v=0
542400 On ch=1 n=a7 v=100
542640 On ch=1 n=a7 v=0
542640 On ch=1 n=a#7 v=99
542880 On ch=1 n=a#7 v=0
542880 On ch=1 n=d#8 v=98
543000 On ch=1 n=d#8 v=0
543360 On ch=1 n=g7 v=95
543600 On ch=1 n=g7 v=0
543600 On ch=1 n=g#7 v=94
543840 On ch=1 n=g#7 v=0
543840 On ch=1 n=a7 v=92
544080 On ch=1 n=a7 v=0
544080 On ch=1 n=a#7 v=91
544320 On ch=1 n=a#7 v=0
544320 On ch=1 n=d#8 v=90
544440 On ch=1 n=d#8 v=0
544800 On ch=1 n=g7 v=87
545040 On ch=1 n=g7 v=0
545040 On ch=1 n=g#7 v=86
545280 On ch=1 n=g#7 v=0
545280 On ch=1 n=a7 v=85
545520 On ch=1 n=a7 v=0
545520 On ch=1 n=a#7 v=83
545760 On ch=1 n=a#7 v=0
545760 On ch=1 n=d#8 v=82
545880 On ch=1 n=d#8 v=0
546240 On ch=1 n=g7 v=80
546480 On ch=1 n=g7 v=0
546480 On ch=1 n=g#7 v=78
546720 On ch=1 n=g#7 v=0
546720 On ch=1 n=a7 v=77
546960 On ch=1 n=a7 v=0
546960 On ch=1 n=a#7 v=76
547200 On ch=1 n=a#7 v=0
547200 On ch=1 n=d#8 v=75
547320 On ch=1 n=d#8 v=0
547680 On ch=1 n=g7 v=72
547920 On ch=1 n=g7 v=0
547920 On ch=1 n=g#7 v=71
548160 On ch=1 n=g#7 v=0
548160 On ch=1 n=a7 v=69
548400 On ch=1 n=a7 v=0
548400 On ch=1 n=a#7 v=68
548640 On ch=1 n=a#7 v=0
548640 On ch=1 n=d#8 v=67
548760 On ch=1 n=d#8 v=0
549120 On ch=1 n=g7 v=64
549360 On ch=1 n=g7 v=0
549360 On ch=1 n=g#7 v=63
549600 On ch=1 n=g#7 v=0
549600 On ch=1 n=a7 v=62
549840 On ch=1 n=a7 v=0
549840 On ch=1 n=a#7 v=61
550080 On ch=1 n=a#7 v=0
550080 On ch=1 n=d#8 v=60
550200 On ch=1 n=d#8 v=0
552960 On ch=1 n=g7 v=127
552960 On ch=1 n=d#7 v=127
552960 On ch=1 n=a#6 v=127
552960 On ch=1 n=g6 v=127
553080 On ch=1 n=g6 v=0
553080 On ch=1 n=a#6 v=0
553080 On ch=1 n=d#7 v=0
553080 On ch=1 n=g7 v=0
554400 On ch=1 n=g6 v=127
554400 On ch=1 n=d#6 v=127
554400 On ch=1 n=a#5 v=127
554400 On ch=1 n=g5 v=127
554520 On ch=1 n=g5 v=0
554520 On ch=1 n=a#5 v=0
554520 On ch=1 n=d#6 v=0
554520 On ch=1 n=g6 v=0
554880 On ch=1 n=g5 v=127
554880 On ch=1 n=a#5 v=127
554880 On ch=1 n=d#6 v=127
554880 On ch=1 n=g6 v=127
555000 On ch=1 n=g6 v=0
555000 On ch=1 n=d#6 v=0
555000 On ch=1 n=a#5 v=0
555000 On ch=1 n=g5 v=0
555360 On ch=1 n=g6 v=127
555360 On ch=1 n=d#6 v=127
555360 On ch=1 n=a#5 v=127
555360 On ch=1 n=g5 v=127
555480 On ch=1 n=g5 v=0
555480 On ch=1 n=a#5 v=0
555480 On ch=1 n=d#6 v=0
555480 On ch=1 n=g6 v=0
555480 Meta TrkEnd
TrkEnd
MTrk
0 SeqSpec 43 00 01 00
0 Meta TrkName "Lower Treble"
0 Meta 0x21 00
0 PrCh ch=1 p=0
59520 On ch=1 n=c5 v=60
59520 On ch=1 n=d#5 v=60
59520 On ch=1 n=g#5 v=60
60000 On ch=1 n=g#5 v=0
60000 On ch=1 n=d#5 v=0
60000 On ch=1 n=c5 v=0
60000 On ch=1 n=g#5 v=60
60000 On ch=1 n=d#5 v=60
60000 On ch=1 n=c5 v=60
60480 On ch=1 n=c5 v=0
60480 On ch=1 n=d#5 v=0
60480 On ch=1 n=g#5 v=0
60960 On ch=1 n=c#5 v=60
60960 On ch=1 n=d#5 v=60
60960 On ch=1 n=g5 v=60
61440 On ch=1 n=g5 v=0
61440 On ch=1 n=d#5 v=0
61440 On ch=1 n=c#5 v=0
61440 On ch=1 n=c#5 v=60
61440 On ch=1 n=d#5 v=60
61440 On ch=1 n=g5 v=60
61920 On ch=1 n=g5 v=0
61920 On ch=1 n=d#5 v=0
61920 On ch=1 n=c#5 v=0
61920 On ch=1 n=g#4 v=70
62400 On ch=1 n=g#4 v=0
62400 On ch=1 n=g#5 v=60
62400 On ch=1 n=d#5 v=60
62400 On ch=1 n=c5 v=60
62880 On ch=1 n=c5 v=0
62880 On ch=1 n=d#5 v=0
62880 On ch=1 n=g#5 v=0
62880 On ch=1 n=g#5 v=60
62880 On ch=1 n=d#5 v=60
62880 On ch=1 n=c5 v=60
63360 On ch=1 n=c5 v=0
63360 On ch=1 n=d#5 v=0
63360 On ch=1 n=g#5 v=0
71040 On ch=1 n=c5 v=87
71040 On ch=1 n=d#5 v=87
71040 On ch=1 n=g#5 v=87
71520 On ch=1 n=g#5 v=0
71520 On ch=1 n=d#5 v=0
71520 On ch=1 n=c5 v=0
71520 On ch=1 n=g#5 v=88
71520 On ch=1 n=d#5 v=88
71520 On ch=1 n=c5 v=88
72000 On ch=1 n=c5 v=0
72000 On ch=1 n=d#5 v=0
72000 On ch=1 n=g#5 v=0
72480 On ch=1 n=c#5 v=92
72480 On ch=1 n=d#5 v=92
72480 On ch=1 n=g5 v=92
72960 On ch=1 n=g5 v=0
72960 On ch=1 n=d#5 v=0
72960 On ch=1 n=c#5 v=0
72960 On ch=1 n=c#5 v=94
72960 On ch=1 n=d#5 v=94
72960 On ch=1 n=g5 v=94
73440 On ch=1 n=g5 v=0
73440 On ch=1 n=d#5 v=0
73440 On ch=1 n=c#5 v=0
73440 On ch=1 n=g#4 v=105
73920 On ch=1 n=c5 v=97
73920 On ch=1 n=g#5 v=97
74400 On ch=1 n=g#5 v=0
74400 On ch=1 n=c5 v=0
74400 On ch=1 n=f5 v=99
74400 On ch=1 n=g#5 v=99
74880 On ch=1 n=g#5 v=0
74880 On ch=1 n=f5 v=0
74880 On ch=1 n=g#4 v=0
105600 On ch=1 n=c5 v=60
105600 On ch=1 n=d#5 v=60
105600 On ch=1 n=g#5 v=60
106080 On ch=1 n=g#5 v=0
106080 On ch=1 n=d#5 v=0
106080 On ch=1 n=c5 v=0
106080 On ch=1 n=g#5 v=60
106080 On ch=1 n=d#5 v=60
106080 On ch=1 n=c5 v=60
106560 On ch=1 n=c5 v=0
106560 On ch=1 n=d#5 v=0
106560 On ch=1 n=g#5 v=0
107040 On ch=1 n=c#5 v=60
107040 On ch=1 n=d#5 v=60
107040 On ch=1 n=g5 v=60
107520 On ch=1 n=g5 v=0
107520 On ch=1 n=d#5 v=0
107520 On ch=1 n=c#5 v=0
107520 On ch=1 n=c#5 v=60
107520 On ch=1 n=d#5 v=60
107520 On ch=1 n=g5 v=60
108000 On ch=1 n=g5 v=0
108000 On ch=1 n=d#5 v=0
108000 On ch=1 n=c#5 v=0
108000 On ch=1 n=g#4 v=70
108480 On ch=1 n=g#5 v=60
108480 On ch=1 n=d#5 v=60
108480 On ch=1 n=c5 v=60
108960 On ch=1 n=c5 v=0
108960 On ch=1 n=d#5 v=0
108960 On ch=1 n=g#5 v=0
108960 On ch=1 n=g#5 v=60
108960 On ch=1 n=d#5 v=60
108960 On ch=1 n=c5 v=60
109440 On ch=1 n=c5 v=0
109440 On ch=1 n=d#5 v=0
109440 On ch=1 n=g#5 v=0
109440 On ch=1 n=g#4 v=0
225120 On ch=1 n=c#5 v=100
225120 On ch=1 n=g#5 v=100
225120 On ch=1 n=b5 v=100
225600 On ch=1 n=b5 v=0
225600 On ch=1 n=g#5 v=0
225600 On ch=1 n=c#5 v=0
225600 On ch=1 n=c#5 v=100
225600 On ch=1 n=g#5 v=100
225600 On ch=1 n=b5 v=100
226080 On ch=1 n=b5 v=0
226080 On ch=1 n=g#5 v=0
226080 On ch=1 n=c#5 v=0
226560 On ch=1 n=c#5 v=100
226560 On ch=1 n=g#5 v=100
226560 On ch=1 n=b5 v=100
227040 On ch=1 n=b5 v=0
227040 On ch=1 n=g#5 v=0
227040 On ch=1 n=c#5 v=0
227040 On ch=1 n=c#5 v=102
227040 On ch=1 n=g#5 v=102
227040 On ch=1 n=b5 v=102
227520 On ch=1 n=b5 v=0
227520 On ch=1 n=g#5 v=0
227520 On ch=1 n=c#5 v=0
227520 On ch=1 n=f#4 v=115
227640 On ch=1 n=f#4 v=0
228000 On ch=1 n=a#5 v=108
228000 On ch=1 n=f#5 v=108
228000 On ch=1 n=c#5 v=108
228480 On ch=1 n=c#5 v=0
228480 On ch=1 n=f#5 v=0
228480 On ch=1 n=a#5 v=0
228480 On ch=1 n=c#5 v=111
228480 On ch=1 n=f#5 v=111
228480 On ch=1 n=a#5 v=111
228960 On ch=1 n=a#5 v=0
228960 On ch=1 n=f#5 v=0
228960 On ch=1 n=c#5 v=0
228960 On ch=1 n=f#4 v=124
229080 On ch=1 n=f#4 v=0
229440 On ch=1 n=d5 v=117
229440 On ch=1 n=a#5 v=117
229920 On ch=1 n=a#5 v=0
229920 On ch=1 n=d5 v=0
229920 On ch=1 n=d#5 v=120
229920 On ch=1 n=a#5 v=120
230400 On ch=1 n=a#5 v=0
230400 On ch=1 n=d#5 v=0
230400 On ch=1 n=g#4 v=70
230520 On ch=1 n=g#4 v=0
230880 On ch=1 n=c6 v=60
230880 On ch=1 n=g#5 v=60
230880 On ch=1 n=d#5 v=60
231360 On ch=1 n=d#5 v=0
231360 On ch=1 n=g#5 v=0
231360 On ch=1 n=c6 v=0
231360 On ch=1 n=g#5 v=60
231360 On ch=1 n=c6 v=60
231360 On ch=1 n=d#5 v=60
231840 On ch=1 n=d#5 v=0
231840 On ch=1 n=c6 v=0
231840 On ch=1 n=g#5 v=0
231840 On ch=1 n=g#4 v=70
231960 On ch=1 n=g#4 v=0
232320 On ch=1 n=c6 v=60
232320 On ch=1 n=g#5 v=60
232320 On ch=1 n=d#5 v=60
232800 On ch=1 n=d#5 v=0
232800 On ch=1 n=g#5 v=0
232800 On ch=1 n=c6 v=0
232800 On ch=1 n=g#5 v=60
232800 On ch=1 n=c6 v=60
232800 On ch=1 n=d#5 v=60
233280 On ch=1 n=d#5 v=0
233280 On ch=1 n=c6 v=0
233280 On ch=1 n=g#5 v=0
233280 On ch=1 n=g#4 v=70
233400 On ch=1 n=g#4 v=0
233760 On ch=1 n=c6 v=60
233760 On ch=1 n=g#5 v=60
233760 On ch=1 n=d#5 v=60
234240 On ch=1 n=d#5 v=0
234240 On ch=1 n=g#5 v=0
234240 On ch=1 n=c6 v=0
234240 On ch=1 n=g#5 v=60
234240 On ch=1 n=c6 v=60
234240 On ch=1 n=d#5 v=60
234720 On ch=1 n=d#5 v=0
234720 On ch=1 n=c6 v=0
234720 On ch=1 n=g#5 v=0
234720 On ch=1 n=c#6 v=60
234720 On ch=1 n=g#5 v=60
234720 On ch=1 n=c#5 v=60
234840 On ch=1 n=c#5 v=0
234840 On ch=1 n=g#5 v=0
234840 On ch=1 n=c#6 v=0
248160 On ch=1 n=c#5 v=100
248160 On ch=1 n=g#5 v=100
248160 On ch=1 n=b5 v=100
248640 On ch=1 n=b5 v=0
248640 On ch=1 n=g#5 v=0
248640 On ch=1 n=c#5 v=0
248640 On ch=1 n=c#5 v=100
248640 On ch=1 n=g#5 v=100
248640 On ch=1 n=b5 v=100
249120 On ch=1 n=b5 v=0
249120 On ch=1 n=g#5 v=0
249120 On ch=1 n=c#5 v=0
249600 On ch=1 n=c#5 v=100
249600 On ch=1 n=g#5 v=100
249600 On ch=1 n=b5 v=100
250080 On ch=1 n=b5 v=0
250080 On ch=1 n=g#5 v=0
250080 On ch=1 n=c#5 v=0
250080 On ch=1 n=c#5 v=102
250080 On ch=1 n=g#5 v=102
250080 On ch=1 n=b5 v=102
250560 On ch=1 n=b5 v=0
250560 On ch=1 n=g#5 v=0
250560 On ch=1 n=c#5 v=0
250560 On ch=1 n=f#4 v=115
250680 On ch=1 n=f#4 v=0
251040 On ch=1 n=a#5 v=108
251040 On ch=1 n=f#5 v=108
251040 On ch=1 n=c#5 v=108
251520 On ch=1 n=c#5 v=0
251520 On ch=1 n=f#5 v=0
251520 On ch=1 n=a#5 v=0
251520 On ch=1 n=c#5 v=111
251520 On ch=1 n=f#5 v=111
251520 On ch=1 n=a#5 v=111
252000 On ch=1 n=a#5 v=0
252000 On ch=1 n=f#5 v=0
252000 On ch=1 n=c#5 v=0
252000 On ch=1 n=f#4 v=124
252120 On ch=1 n=f#4 v=0
252480 On ch=1 n=d5 v=117
252480 On ch=1 n=a#5 v=117
252960 On ch=1 n=a#5 v=0
252960 On ch=1 n=d5 v=0
252960 On ch=1 n=d#5 v=120
252960 On ch=1 n=a#5 v=120
253440 On ch=1 n=a#5 v=0
253440 On ch=1 n=d#5 v=0
253440 On ch=1 n=g#4 v=70
253560 On ch=1 n=g#4 v=0
253920 On ch=1 n=c6 v=60
253920 On ch=1 n=g#5 v=60
253920 On ch=1 n=d#5 v=60
254400 On ch=1 n=d#5 v=0
254400 On ch=1 n=g#5 v=0
254400 On ch=1 n=c6 v=0
254400 On ch=1 n=g#5 v=60
254400 On ch=1 n=c6 v=60
254400 On ch=1 n=d#5 v=60
254880 On ch=1 n=d#5 v=0
254880 On ch=1 n=c6 v=0
254880 On ch=1 n=g#5 v=0
254880 On ch=1 n=g#4 v=70
255000 On ch=1 n=g#4 v=0
255360 On ch=1 n=c6 v=60
255360 On ch=1 n=g#5 v=60
255360 On ch=1 n=d#5 v=60
255840 On ch=1 n=d#5 v=0
255840 On ch=1 n=g#5 v=0
255840 On ch=1 n=c6 v=0
255840 On ch=1 n=g#5 v=60
255840 On ch=1 n=c6 v=60
255840 On ch=1 n=d#5 v=60
256320 On ch=1 n=d#5 v=0
256320 On ch=1 n=c6 v=0
256320 On ch=1 n=g#5 v=0
256320 On ch=1 n=g#4 v=70
256440 On ch=1 n=g#4 v=0
256800 On ch=1 n=c6 v=60
256800 On ch=1 n=g#5 v=60
256800 On ch=1 n=d#5 v=60
257280 On ch=1 n=d#5 v=0
257280 On ch=1 n=g#5 v=0
257280 On ch=1 n=c6 v=0
257280 On ch=1 n=g#5 v=60
257280 On ch=1 n=c6 v=60
257280 On ch=1 n=d#5 v=60
257760 On ch=1 n=d#5 v=0
257760 On ch=1 n=c6 v=0
257760 On ch=1 n=g#5 v=0
257760 On ch=1 n=c#6 v=60
257760 On ch=1 n=g#5 v=60
257760 On ch=1 n=c#5 v=60
257880 On ch=1 n=c#5 v=0
257880 On ch=1 n=g#5 v=0
257880 On ch=1 n=c#6 v=0
294240 On ch=1 n=c#5 v=100
294240 On ch=1 n=g#5 v=100
294240 On ch=1 n=b5 v=100
294720 On ch=1 n=b5 v=0
294720 On ch=1 n=g#5 v=0
294720 On ch=1 n=c#5 v=0
294720 On ch=1 n=c#5 v=100
294720 On ch=1 n=g#5 v=100
294720 On ch=1 n=b5 v=100
295200 On ch=1 n=b5 v=0
295200 On ch=1 n=g#5 v=0
295200 On ch=1 n=c#5 v=0
295680 On ch=1 n=c#5 v=102
295680 On ch=1 n=g#5 v=102
295680 On ch=1 n=b5 v=102
296160 On ch=1 n=b5 v=0
296160 On ch=1 n=g#5 v=0
296160 On ch=1 n=c#5 v=0
296160 On ch=1 n=c#5 v=105
296160 On ch=1 n=g#5 v=105
296160 On ch=1 n=b5 v=105
296640 On ch=1 n=b5 v=0
296640 On ch=1 n=g#5 v=0
296640 On ch=1 n=c#5 v=0
296640 On ch=1 n=f#4 v=117
296760 On ch=1 n=f#4 v=0
297120 On ch=1 n=a#5 v=110
297120 On ch=1 n=f#5 v=110
297120 On ch=1 n=c#5 v=110
297600 On ch=1 n=c#5 v=0
297600 On ch=1 n=f#5 v=0
297600 On ch=1 n=a#5 v=0
297600 On ch=1 n=c#5 v=113
297600 On ch=1 n=f#5 v=113
297600 On ch=1 n=a#5 v=113
298080 On ch=1 n=a#5 v=0
298080 On ch=1 n=f#5 v=0
298080 On ch=1 n=c#5 v=0
298080 On ch=1 n=f#4 v=125
298200 On ch=1 n=f#4 v=0
298560 On ch=1 n=a#5 v=118
298560 On ch=1 n=d5 v=118
299040 On ch=1 n=d5 v=0
299040 On ch=1 n=a#5 v=0
299040 On ch=1 n=a#5 v=120
299040 On ch=1 n=d#5 v=120
299520 On ch=1 n=d#5 v=0
299520 On ch=1 n=a#5 v=0
299520 On ch=1 n=g#4 v=90
299640 On ch=1 n=g#4 v=0
300000 On ch=1 n=c6 v=80
300000 On ch=1 n=g#5 v=80
300000 On ch=1 n=d#5 v=80
300480 On ch=1 n=d#5 v=0
300480 On ch=1 n=g#5 v=0
300480 On ch=1 n=c6 v=0
300480 On ch=1 n=g#5 v=80
300480 On ch=1 n=c6 v=80
300480 On ch=1 n=d#5 v=80
300960 On ch=1 n=d#5 v=0
300960 On ch=1 n=c6 v=0
300960 On ch=1 n=g#5 v=0
300960 On ch=1 n=g#4 v=90
301080 On ch=1 n=g#4 v=0
301440 On ch=1 n=c6 v=80
301440 On ch=1 n=g#5 v=80
301440 On ch=1 n=d#5 v=80
301920 On ch=1 n=d#5 v=0
301920 On ch=1 n=g#5 v=0
301920 On ch=1 n=c6 v=0
301920 On ch=1 n=g#5 v=80
301920 On ch=1 n=c6 v=80
301920 On ch=1 n=d#5 v=80
302400 On ch=1 n=d#5 v=0
302400 On ch=1 n=c6 v=0
302400 On ch=1 n=g#5 v=0
302400 On ch=1 n=g#4 v=90
302520 On ch=1 n=g#4 v=0
302880 On ch=1 n=c6 v=80
302880 On ch=1 n=g#5 v=80
302880 On ch=1 n=d#5 v=80
303360 On ch=1 n=d#5 v=0
303360 On ch=1 n=g#5 v=0
303360 On ch=1 n=c6 v=0
303360 On ch=1 n=g#5 v=80
303360 On ch=1 n=c6 v=80
303360 On ch=1 n=d#5 v=80
303840 On ch=1 n=d#5 v=0
303840 On ch=1 n=c6 v=0
303840 On ch=1 n=g#5 v=0
303840 On ch=1 n=c#6 v=80
303840 On ch=1 n=g#5 v=80
303840 On ch=1 n=c#5 v=80
303960 On ch=1 n=c#5 v=0
303960 On ch=1 n=g#5 v=0
303960 On ch=1 n=c#6 v=0
340320 On ch=1 n=c#5 v=100
340320 On ch=1 n=g#5 v=100
340320 On ch=1 n=b5 v=100
340800 On ch=1 n=b5 v=0
340800 On ch=1 n=g#5 v=0
340800 On ch=1 n=c#5 v=0
340800 On ch=1 n=c#5 v=100
340800 On ch=1 n=g#5 v=100
340800 On ch=1 n=b5 v=100
341280 On ch=1 n=b5 v=0
341280 On ch=1 n=g#5 v=0
341280 On ch=1 n=c#5 v=0
341760 On ch=1 n=c#5 v=102
341760 On ch=1 n=g#5 v=102
341760 On ch=1 n=b5 v=102
342240 On ch=1 n=b5 v=0
342240 On ch=1 n=g#5 v=0
342240 On ch=1 n=c#5 v=0
342240 On ch=1 n=c#5 v=105
342240 On ch=1 n=g#5 v=105
342240 On ch=1 n=b5 v=105
342720 On ch=1 n=b5 v=0
342720 On ch=1 n=g#5 v=0
342720 On ch=1 n=c#5 v=0
342720 On ch=1 n=f#4 v=117
342840 On ch=1 n=f#4 v=0
343200 On ch=1 n=a#5 v=110
343200 On ch=1 n=f#5 v=110
343200 On ch=1 n=c#5 v=110
343680 On ch=1 n=c#5 v=0
343680 On ch=1 n=f#5 v=0
343680 On ch=1 n=a#5 v=0
343680 On ch=1 n=c#5 v=113
343680 On ch=1 n=f#5 v=113
343680 On ch=1 n=a#5 v=113
344160 On ch=1 n=a#5 v=0
344160 On ch=1 n=f#5 v=0
344160 On ch=1 n=c#5 v=0
344160 On ch=1 n=f#4 v=125
344280 On ch=1 n=f#4 v=0
344640 On ch=1 n=a#5 v=118
344640 On ch=1 n=d5 v=118
345120 On ch=1 n=d5 v=0
345120 On ch=1 n=a#5 v=0
345120 On ch=1 n=a#5 v=120
345120 On ch=1 n=d#5 v=120
345600 On ch=1 n=d#5 v=0
345600 On ch=1 n=a#5 v=0
345600 On ch=1 n=g#4 v=90
345720 On ch=1 n=g#4 v=0
346080 On ch=1 n=c6 v=80
346080 On ch=1 n=g#5 v=80
346080 On ch=1 n=d#5 v=80
346560 On ch=1 n=d#5 v=0
346560 On ch=1 n=g#5 v=0
346560 On ch=1 n=c6 v=0
346560 On ch=1 n=g#5 v=80
346560 On ch=1 n=c6 v=80
346560 On ch=1 n=d#5 v=80
347040 On ch=1 n=d#5 v=0
347040 On ch=1 n=c6 v=0
347040 On ch=1 n=g#5 v=0
347040 On ch=1 n=g#4 v=90
347160 On ch=1 n=g#4 v=0
347520 On ch=1 n=c6 v=80
347520 On ch=1 n=g#5 v=80
347520 On ch=1 n=d#5 v=80
348000 On ch=1 n=d#5 v=0
348000 On ch=1 n=g#5 v=0
348000 On ch=1 n=c6 v=0
348000 On ch=1 n=g#5 v=80
348000 On ch=1 n=c6 v=80
348000 On ch=1 n=d#5 v=80
348480 On ch=1 n=d#5 v=0
348480 On ch=1 n=c6 v=0
348480 On ch=1 n=g#5 v=0
348480 On ch=1 n=g#4 v=90
348600 On ch=1 n=g#4 v=0
348960 On ch=1 n=c6 v=80
348960 On ch=1 n=g#5 v=80
348960 On ch=1 n=d#5 v=80
349440 On ch=1 n=d#5 v=0
349440 On ch=1 n=g#5 v=0
349440 On ch=1 n=c6 v=0
349440 On ch=1 n=g#5 v=80
349440 On ch=1 n=c6 v=80
349440 On ch=1 n=d#5 v=80
349920 On ch=1 n=d#5 v=0
349920 On ch=1 n=c6 v=0
349920 On ch=1 n=g#5 v=0
349920 On ch=1 n=c#6 v=80
349920 On ch=1 n=g#5 v=80
349920 On ch=1 n=c#5 v=80
350040 On ch=1 n=c#5 v=0
350040 On ch=1 n=g#5 v=0
350040 On ch=1 n=c#6 v=0
416640 On ch=1 n=g#5 v=60
416640 On ch=1 n=d#5 v=60
416640 On ch=1 n=c5 v=60
417120 On ch=1 n=c5 v=0
417120 On ch=1 n=d#5 v=0
417120 On ch=1 n=g#5 v=0
417120 On ch=1 n=c5 v=60
417120 On ch=1 n=d#5 v=60
417120 On ch=1 n=g#5 v=60
417600 On ch=1 n=g#5 v=0
417600 On ch=1 n=d#5 v=0
417600 On ch=1 n=c5 v=0
418080 On ch=1 n=g5 v=60
418080 On ch=1 n=d#5 v=60
418080 On ch=1 n=c#5 v=60
418560 On ch=1 n=c#5 v=0
418560 On ch=1 n=d#5 v=0
418560 On ch=1 n=g5 v=0
418560 On ch=1 n=g5 v=60
418560 On ch=1 n=d#5 v=60
418560 On ch=1 n=c#5 v=60
419040 On ch=1 n=c#5 v=0
419040 On ch=1 n=d#5 v=0
419040 On ch=1 n=g5 v=0
419040 On ch=1 n=g#4 v=70
419520 On ch=1 n=g#4 v=0
419520 On ch=1 n=g#5 v=60
419520 On ch=1 n=d#5 v=60
419520 On ch=1 n=c5 v=60
420000 On ch=1 n=c5 v=0
420000 On ch=1 n=d#5 v=0
420000 On ch=1 n=g#5 v=0
420000 On ch=1 n=c5 v=60
420000 On ch=1 n=d#5 v=60
420000 On ch=1 n=g#5 v=60
420480 On ch=1 n=g#5 v=0
420480 On ch=1 n=d#5 v=0
420480 On ch=1 n=c5 v=0
428160 On ch=1 n=g#5 v=74
428160 On ch=1 n=d#5 v=74
428160 On ch=1 n=c5 v=74
428640 On ch=1 n=c5 v=0
428640 On ch=1 n=d#5 v=0
428640 On ch=1 n=g#5 v=0
428640 On ch=1 n=c5 v=76
428640 On ch=1 n=d#5 v=76
428640 On ch=1 n=g#5 v=76
429120 On ch=1 n=g#5 v=0
429120 On ch=1 n=d#5 v=0
429120 On ch=1 n=c5 v=0
429600 On ch=1 n=g5 v=81
429600 On ch=1 n=d#5 v=81
429600 On ch=1 n=c#5 v=81
430080 On ch=1 n=c#5 v=0
430080 On ch=1 n=d#5 v=0
430080 On ch=1 n=g5 v=0
430080 On ch=1 n=g5 v=83
430080 On ch=1 n=d#5 v=83
430080 On ch=1 n=c#5 v=83
430560 On ch=1 n=c#5 v=0
430560 On ch=1 n=d#5 v=0
430560 On ch=1 n=g5 v=0
430560 On ch=1 n=g#4 v=95
431040 On ch=1 n=g#5 v=87
431040 On ch=1 n=c5 v=87
431520 On ch=1 n=c5 v=0
431520 On ch=1 n=g#5 v=0
431520 On ch=1 n=c5 v=89
431520 On ch=1 n=f5 v=89
431520 On ch=1 n=g#5 v=89
432000 On ch=1 n=g#5 v=0
432000 On ch=1 n=f5 v=0
432000 On ch=1 n=c5 v=0
432000 On ch=1 n=g#4 v=0
487200 On ch=1 n=a#5 v=118
487200 On ch=1 n=g5 v=118
487200 On ch=1 n=d#5 v=118
487200 On ch=1 n=c#5 v=118
487680 On ch=1 n=c#5 v=0
487680 On ch=1 n=d#5 v=0
487680 On ch=1 n=g5 v=0
487680 On ch=1 n=a#5 v=0
487680 On ch=1 n=c#5 v=120
487680 On ch=1 n=d#5 v=120
487680 On ch=1 n=g5 v=120
487680 On ch=1 n=a#5 v=120
488160 On ch=1 n=a#5 v=0
488160 On ch=1 n=g5 v=0
488160 On ch=1 n=d#5 v=0
488160 On ch=1 n=c#5 v=0
488640 On ch=1 n=a5 v=120
488640 On ch=1 n=f#5 v=120
488640 On ch=1 n=d#5 v=120
488640 On ch=1 n=c5 v=120
489120 On ch=1 n=c5 v=0
489120 On ch=1 n=d#5 v=0
489120 On ch=1 n=f#5 v=0
489120 On ch=1 n=a5 v=0
489120 On ch=1 n=c5 v=120
489120 On ch=1 n=d#5 v=120
489120 On ch=1 n=f#5 v=120
489120 On ch=1 n=a5 v=120
489600 On ch=1 n=a5 v=0
489600 On ch=1 n=f#5 v=0
489600 On ch=1 n=d#5 v=0
489600 On ch=1 n=c5 v=0
490080 On ch=1 n=g#5 v=120
490080 On ch=1 n=f5 v=120
490080 On ch=1 n=d#5 v=120
490080 On ch=1 n=b4 v=120
490560 On ch=1 n=b4 v=0
490560 On ch=1 n=d#5 v=0
490560 On ch=1 n=f5 v=0
490560 On ch=1 n=g#5 v=0
490560 On ch=1 n=b4 v=120
490560 On ch=1 n=d#5 v=120
490560 On ch=1 n=f5 v=120
490560 On ch=1 n=g#5 v=120
491040 On ch=1 n=g#5 v=0
491040 On ch=1 n=f5 v=0
491040 On ch=1 n=d#5 v=0
491040 On ch=1 n=b4 v=0
542880 On ch=1 n=a#5 v=98
542880 On ch=1 n=g5 v=98
542880 On ch=1 n=a#4 v=98
543360 On ch=1 n=a#4 v=0
543360 On ch=1 n=g5 v=0
543360 On ch=1 n=a#5 v=0
544320 On ch=1 n=d#6 v=90
544320 On ch=1 n=g5 v=90
544320 On ch=1 n=d#5 v=90
544800 On ch=1 n=d#5 v=0
544800 On ch=1 n=g5 v=0
544800 On ch=1 n=d#6 v=0
545760 On ch=1 n=a#5 v=82
545760 On ch=1 n=g5 v=82
545760 On ch=1 n=a#4 v=82
546240 On ch=1 n=a#4 v=0
546240 On ch=1 n=g5 v=0
546240 On ch=1 n=a#5 v=0
547200 On ch=1 n=g6 v=75
547200 On ch=1 n=d#6 v=75
547200 On ch=1 n=g5 v=75
547680 On ch=1 n=g5 v=0
547680 On ch=1 n=d#6 v=0
547680 On ch=1 n=g6 v=0
548640 On ch=1 n=a#6 v=67
548640 On ch=1 n=g6 v=67
548640 On ch=1 n=a#5 v=67
549120 On ch=1 n=a#5 v=0
549120 On ch=1 n=g6 v=0
549120 On ch=1 n=a#6 v=0
550080 On ch=1 n=g7 v=60
550080 On ch=1 n=d#7 v=60
550080 On ch=1 n=g6 v=60
550560 On ch=1 n=g6 v=0
550560 On ch=1 n=d#7 v=0
550560 On ch=1 n=g7 v=0
552960 On ch=1 n=d#5 v=127
552960 On ch=1 n=a#5 v=127
552960 On ch=1 n=d#6 v=127
553440 On ch=1 n=d#6 v=0
553440 On ch=1 n=a#5 v=0
553440 On ch=1 n=d#5 v=0
553440 Meta TrkEnd
TrkEnd
MTrk
0 SeqSpec 43 00 01 00
0 Meta TrkName "Lower Bass"
0 Meta 0x21 00
0 PrCh ch=1 p=0
5760 On ch=1 n=a#3 v=90
5880 On ch=1 n=a#3 v=0
6240 On ch=1 n=g#5 v=84
6240 On ch=1 n=f5 v=84
6240 On ch=1 n=a#4 v=84
6720 On ch=1 n=a#4 v=0
6720 On ch=1 n=f5 v=0
6720 On ch=1 n=g#5 v=0
6720 On ch=1 n=a#4 v=89
6720 On ch=1 n=f5 v=89
6720 On ch=1 n=g#5 v=89
7200 On ch=1 n=g#5 v=0
7200 On ch=1 n=f5 v=0
7200 On ch=1 n=a#4 v=0
7200 On ch=1 n=d#4 v=103
7320 On ch=1 n=d#4 v=0
7680 On ch=1 n=g5 v=98
7680 On ch=1 n=d#5 v=98
7680 On ch=1 n=a#4 v=98
8160 On ch=1 n=a#4 v=0
8160 On ch=1 n=d#5 v=0
8160 On ch=1 n=g5 v=0
8160 On ch=1 n=a#4 v=103
8160 On ch=1 n=d#5 v=103
8160 On ch=1 n=g5 v=103
8640 On ch=1 n=g5 v=0
8640 On ch=1 n=d#5 v=0
8640 On ch=1 n=a#4 v=0
8640 On ch=1 n=d4 v=117
8760 On ch=1 n=d4 v=0
9120 On ch=1 n=g#5 v=112
9120 On ch=1 n=f5 v=112
9120 On ch=1 n=a#4 v=112
9600 On ch=1 n=a#4 v=0
9600 On ch=1 n=f5 v=0
9600 On ch=1 n=g#5 v=0
9600 On ch=1 n=a#4 v=116
9600 On ch=1 n=f5 v=116
9600 On ch=1 n=g#5 v=116
10080 On ch=1 n=g#5 v=0
10080 On ch=1 n=f5 v=0
10080 On ch=1 n=a#4 v=0
10080 On ch=1 n=d#4 v=127
10200 On ch=1 n=d#4 v=0
10560 On ch=1 n=g5 v=97
10560 On ch=1 n=c#5 v=97
10560 On ch=1 n=a#4 v=97
10680 On ch=1 n=a#4 v=0
10680 On ch=1 n=c#5 v=0
10680 On ch=1 n=g5 v=0
11040 On ch=1 n=e4 v=73
11520 On ch=1 n=e4 v=0
11520 On ch=1 n=f4 v=70
11640 On ch=1 n=f4 v=0
12000 On ch=1 n=f5 v=59
12000 On ch=1 n=g#4 v=59
12120 On ch=1 n=g#4 v=0
12120 On ch=1 n=f5 v=0
12480 On ch=1 n=g#3 v=57
12600 On ch=1 n=g#3 v=0
12960 On ch=1 n=a#3 v=65
13080 On ch=1 n=a#3 v=0
13440 On ch=1 n=d#5 v=53
13440 On ch=1 n=g4 v=53
13920 On ch=1 n=g4 v=0
13920 On ch=1 n=d#5 v=0
13920 On ch=1 n=g4 v=51
13920 On ch=1 n=d#5 v=51
14400 On ch=1 n=d#5 v=0
14400 On ch=1 n=g4 v=0
14400 On ch=1 n=a#3 v=59
14520 On ch=1 n=a#3 v=0
14880 On ch=1 n=d5 v=47
14880 On ch=1 n=f4 v=47
15360 On ch=1 n=f4 v=0
15360 On ch=1 n=d5 v=0
15360 On ch=1 n=d5 v=45
15360 On ch=1 n=a#4 v=45
15840 On ch=1 n=a#4 v=0
15840 On ch=1 n=d5 v=0
15840 On ch=1 n=d#4 v=53
16320 On ch=1 n=d#5 v=41
16320 On ch=1 n=a#4 v=41
16800 On ch=1 n=a#4 v=0
16800 On ch=1 n=d#5 v=0
16800 On ch=1 n=d#5 v=40
16800 On ch=1 n=a#4 v=40
17280 On ch=1 n=a#4 v=0
17280 On ch=1 n=d#5 v=0
17280 On ch=1 n=d#4 v=0
17280 On ch=1 n=a#3 v=110
17400 On ch=1 n=a#3 v=0
17760 On ch=1 n=g#5 v=102
17760 On ch=1 n=f5 v=102
17760 On ch=1 n=a#4 v=102
18240 On ch=1 n=a#4 v=0
18240 On ch=1 n=f5 v=0
18240 On ch=1 n=g#5 v=0
18240 On ch=1 n=a#4 v=104
18240 On ch=1 n=f5 v=104
18240 On ch=1 n=g#5 v=104
18720 On ch=1 n=g#5 v=0
18720 On ch=1 n=f5 v=0
18720 On ch=1 n=a#4 v=0
18720 On ch=1 n=d#4 v=117
18840 On ch=1 n=d#4 v=0
19200 On ch=1 n=g5 v=109
19200 On ch=1 n=d#5 v=109
19200 On ch=1 n=a#4 v=109
19680 On ch=1 n=a#4 v=0
19680 On ch=1 n=d#5 v=0
19680 On ch=1 n=g5 v=0
19680 On ch=1 n=a#4 v=111
19680 On ch=1 n=d#5 v=111
19680 On ch=1 n=g5 v=111
20160 On ch=1 n=g5 v=0
20160 On ch=1 n=d#5 v=0
20160 On ch=1 n=a#4 v=0
20160 On ch=1 n=d4 v=124
20280 On ch=1 n=d4 v=0
20640 On ch=1 n=g#5 v=116
20640 On ch=1 n=f5 v=116
20640 On ch=1 n=a#4 v=116
21120 On ch=1 n=a#4 v=0
21120 On ch=1 n=f5 v=0
21120 On ch=1 n=g#5 v=0
21120 On ch=1 n=a#4 v=118
21120 On ch=1 n=f5 v=118
21120 On ch=1 n=g#5 v=118
21600 On ch=1 n=g#5 v=0
21600 On ch=1 n=f5 v=0
21600 On ch=1 n=a#4 v=0
21600 On ch=1 n=d#4 v=127
21720 On ch=1 n=d#4 v=0
22080 On ch=1 n=g5 v=120
22080 On ch=1 n=c#5 v=120
22080 On ch=1 n=a#4 v=120
22200 On ch=1 n=a#4 v=0
22200 On ch=1 n=c#5 v=0
22200 On ch=1 n=g5 v=0
22560 On ch=1 n=e4 v=120
23040 On ch=1 n=e4 v=0
23040 On ch=1 n=f4 v=127
23160 On ch=1 n=f4 v=0
23520 On ch=1 n=f5 v=116
23520 On ch=1 n=g#4 v=116
23640 On ch=1 n=g#4 v=0
23640 On ch=1 n=f5 v=0
24000 On ch=1 n=g#3 v=111
24120 On ch=1 n=g#3 v=0
24480 On ch=1 n=a#3 v=117
24600 On ch=1 n=a#3 v=0
24960 On ch=1 n=d#5 v=102
24960 On ch=1 n=g4 v=102
25440 On ch=1 n=g4 v=0
25440 On ch=1 n=d#5 v=0
25440 On ch=1 n=g4 v=97
25440 On ch=1 n=d#5 v=97
25920 On ch=1 n=d#5 v=0
25920 On ch=1 n=g4 v=0
25920 On ch=1 n=a#3 v=103
26040 On ch=1 n=a#3 v=0
26400 On ch=1 n=d5 v=88
26400 On ch=1 n=f4 v=88
26880 On ch=1 n=f4 v=0
26880 On ch=1 n=d5 v=0
26880 On ch=1 n=d5 v=84
26880 On ch=1 n=a#4 v=84
27360 On ch=1 n=d5 v=0
27360 On ch=1 n=d#4 v=80
27360 On ch=1 n=d#5 v=80
27840 On ch=1 n=d#5 v=0
27840 On ch=1 n=d#4 v=0
27840 On ch=1 n=a#4 v=0
28800 On ch=1 n=a#3 v=90
28920 On ch=1 n=a#3 v=0
29280 On ch=1 n=g#5 v=84
29280 On ch=1 n=f5 v=84
29280 On ch=1 n=a#4 v=84
29760 On ch=1 n=a#4 v=0
29760 On ch=1 n=f5 v=0
29760 On ch=1 n=g#5 v=0
29760 On ch=1 n=a#4 v=89
29760 On ch=1 n=f5 v=89
29760 On ch=1 n=g#5 v=89
30240 On ch=1 n=g#5 v=0
30240 On ch=1 n=f5 v=0
30240 On ch=1 n=a#4 v=0
30240 On ch=1 n=d#4 v=103
30360 On ch=1 n=d#4 v=0
30720 On ch=1 n=g5 v=98
30720 On ch=1 n=d#5 v=98
30720 On ch=1 n=a#4 v=98
31200 On ch=1 n=a#4 v=0
31200 On ch=1 n=d#5 v=0
31200 On ch=1 n=g5 v=0
31200 On ch=1 n=a#4 v=103
31200 On ch=1 n=d#5 v=103
31200 On ch=1 n=g5 v=103
31680 On ch=1 n=g5 v=0
31680 On ch=1 n=d#5 v=0
31680 On ch=1 n=a#4 v=0
31680 On ch=1 n=d4 v=117
31800 On ch=1 n=d4 v=0
32160 On ch=1 n=g#5 v=112
32160 On ch=1 n=f5 v=112
32160 On ch=1 n=a#4 v=112
32640 On ch=1 n=a#4 v=0
32640 On ch=1 n=f5 v=0
32640 On ch=1 n=g#5 v=0
32640 On ch=1 n=a#4 v=116
32640 On ch=1 n=f5 v=116
32640 On ch=1 n=g#5 v=116
33120 On ch=1 n=g#5 v=0
33120 On ch=1 n=f5 v=0
33120 On ch=1 n=a#4 v=0
33120 On ch=1 n=d#4 v=127
33240 On ch=1 n=d#4 v=0
33600 On ch=1 n=g5 v=97
33600 On ch=1 n=c#5 v=97
33600 On ch=1 n=a#4 v=97
33720 On ch=1 n=a#4 v=0
33720 On ch=1 n=c#5 v=0
33720 On ch=1 n=g5 v=0
34080 On ch=1 n=e4 v=73
34560 On ch=1 n=e4 v=0
34560 On ch=1 n=f4 v=70
34680 On ch=1 n=f4 v=0
35040 On ch=1 n=f5 v=59
35040 On ch=1 n=g#4 v=59
35160 On ch=1 n=g#4 v=0
35160 On ch=1 n=f5 v=0
35520 On ch=1 n=g#3 v=57
35640 On ch=1 n=g#3 v=0
36000 On ch=1 n=a#3 v=65
36120 On ch=1 n=a#3 v=0
36480 On ch=1 n=d#5 v=53
36480 On ch=1 n=g4 v=53
36960 On ch=1 n=g4 v=0
36960 On ch=1 n=d#5 v=0
36960 On ch=1 n=g4 v=51
36960 On ch=1 n=d#5 v=51
37440 On ch=1 n=d#5 v=0
37440 On ch=1 n=g4 v=0
37440 On ch=1 n=a#3 v=59
37560 On ch=1 n=a#3 v=0
37920 On ch=1 n=d5 v=47
37920 On ch=1 n=f4 v=47
38400 On ch=1 n=f4 v=0
38400 On ch=1 n=d5 v=0
38400 On ch=1 n=d5 v=45
38400 On ch=1 n=a#4 v=45
38880 On ch=1 n=a#4 v=0
38880 On ch=1 n=d5 v=0
38880 On ch=1 n=d#4 v=53
39360 On ch=1 n=d#5 v=41
39360 On ch=1 n=a#4 v=41
39840 On ch=1 n=a#4 v=0
39840 On ch=1 n=d#5 v=0
39840 On ch=1 n=d#5 v=40
39840 On ch=1 n=a#4 v=40
40320 On ch=1 n=a#4 v=0
40320 On ch=1 n=d#5 v=0
40320 On ch=1 n=d#4 v=0
40320 On ch=1 n=a#3 v=110
40440 On ch=1 n=a#3 v=0
40800 On ch=1 n=g#5 v=102
40800 On ch=1 n=f5 v=102
40800 On ch=1 n=a#4 v=102
41280 On ch=1 n=a#4 v=0
41280 On ch=1 n=f5 v=0
41280 On ch=1 n=g#5 v=0
41280 On ch=1 n=a#4 v=104
41280 On ch=1 n=f5 v=104
41280 On ch=1 n=g#5 v=104
41760 On ch=1 n=g#5 v=0
41760 On ch=1 n=f5 v=0
41760 On ch=1 n=a#4 v=0
41760 On ch=1 n=d#4 v=117
41880 On ch=1 n=d#4 v=0
42240 On ch=1 n=g5 v=109
42240 On ch=1 n=d#5 v=109
42240 On ch=1 n=a#4 v=109
42720 On ch=1 n=a#4 v=0
42720 On ch=1 n=d#5 v=0
42720 On ch=1 n=g5 v=0
42720 On ch=1 n=a#4 v=111
42720 On ch=1 n=d#5 v=111
42720 On ch=1 n=g5 v=111
43200 On ch=1 n=g5 v=0
43200 On ch=1 n=d#5 v=0
43200 On ch=1 n=a#4 v=0
43200 On ch=1 n=d4 v=124
43320 On ch=1 n=d4 v=0
43680 On ch=1 n=g#5 v=116
43680 On ch=1 n=f5 v=116
43680 On ch=1 n=a#4 v=116
44160 On ch=1 n=a#4 v=0
44160 On ch=1 n=f5 v=0
44160 On ch=1 n=g#5 v=0
44160 On ch=1 n=a#4 v=118
44160 On ch=1 n=f5 v=118
44160 On ch=1 n=g#5 v=118
44640 On ch=1 n=g#5 v=0
44640 On ch=1 n=f5 v=0
44640 On ch=1 n=a#4 v=0
44640 On ch=1 n=d#4 v=127
44760 On ch=1 n=d#4 v=0
45120 On ch=1 n=g5 v=120
45120 On ch=1 n=c#5 v=120
45120 On ch=1 n=a#4 v=120
45240 On ch=1 n=a#4 v=0
45240 On ch=1 n=c#5 v=0
45240 On ch=1 n=g5 v=0
45600 On ch=1 n=e4 v=120
46080 On ch=1 n=e4 v=0
46080 On ch=1 n=f4 v=127
46200 On ch=1 n=f4 v=0
46560 On ch=1 n=f5 v=116
46560 On ch=1 n=g#4 v=116
46680 On ch=1 n=g#4 v=0
46680 On ch=1 n=f5 v=0
47040 On ch=1 n=g#3 v=111
47160 On ch=1 n=g#3 v=0
47520 On ch=1 n=a#3 v=117
47640 On ch=1 n=a#3 v=0
48000 On ch=1 n=d#5 v=102
48000 On ch=1 n=g4 v=102
48480 On ch=1 n=g4 v=0
48480 On ch=1 n=d#5 v=0
48480 On ch=1 n=g4 v=97
48480 On ch=1 n=d#5 v=97
48960 On ch=1 n=d#5 v=0
48960 On ch=1 n=g4 v=0
48960 On ch=1 n=a#3 v=103
49080 On ch=1 n=a#3 v=0
49440 On ch=1 n=d5 v=88
49440 On ch=1 n=f4 v=88
49920 On ch=1 n=f4 v=0
49920 On ch=1 n=d5 v=0
49920 On ch=1 n=d5 v=84
49920 On ch=1 n=a#4 v=84
50400 On ch=1 n=a#4 v=0
50400 On ch=1 n=d5 v=0
50400 On ch=1 n=d#4 v=90
50880 On ch=1 n=d#5 v=80
50880 On ch=1 n=g4 v=80
51360 On ch=1 n=g4 v=0
51360 On ch=1 n=d#5 v=0
51360 On ch=1 n=d#4 v=0
51360 On ch=1 n=d#4 v=80
51360 On ch=1 n=g4 v=80
51360 On ch=1 n=c#5 v=80
51840 On ch=1 n=c#5 v=0
51840 On ch=1 n=g4 v=0
51840 On ch=1 n=d#4 v=0
51840 On ch=1 n=g#3 v=70
52320 On ch=1 n=g#3 v=0
52320 On ch=1 n=c5 v=60
52320 On ch=1 n=g#4 v=60
52320 On ch=1 n=d#4 v=60
52800 On ch=1 n=d#4 v=0
52800 On ch=1 n=g#4 v=0
52800 On ch=1 n=c5 v=0
52800 On ch=1 n=g#4 v=60
52800 On ch=1 n=c5 v=60
52800 On ch=1 n=d#4 v=60
53280 On ch=1 n=d#4 v=0
53280 On ch=1 n=c5 v=0
53280 On ch=1 n=g#4 v=0
53280 On ch=1 n=g#3 v=70
53760 On ch=1 n=g#3 v=0
53760 On ch=1 n=c5 v=60
53760 On ch=1 n=g#4 v=60
53760 On ch=1 n=d#4 v=60
54240 On ch=1 n=d#4 v=0
54240 On ch=1 n=g#4 v=0
54240 On ch=1 n=c5 v=0
54240 On ch=1 n=g#4 v=60
54240 On ch=1 n=c5 v=60
54240 On ch=1 n=d#4 v=60
54720 On ch=1 n=d#4 v=0
54720 On ch=1 n=c5 v=0
54720 On ch=1 n=g#4 v=0
54720 On ch=1 n=g#3 v=70
55200 On ch=1 n=g#3 v=0
55200 On ch=1 n=b4 v=60
55200 On ch=1 n=g#4 v=60
55200 On ch=1 n=d4 v=60
55680 On ch=1 n=d4 v=0
55680 On ch=1 n=g#4 v=0
55680 On ch=1 n=b4 v=0
55680 On ch=1 n=g#4 v=60
55680 On ch=1 n=b4 v=60
55680 On ch=1 n=d4 v=60
56160 On ch=1 n=d4 v=0
56160 On ch=1 n=b4 v=0
56160 On ch=1 n=g#4 v=0
56160 On ch=1 n=g#3 v=70
56640 On ch=1 n=g#3 v=0
56640 On ch=1 n=c5 v=60
56640 On ch=1 n=g#4 v=60
56640 On ch=1 n=d#4 v=60
57120 On ch=1 n=d#4 v=0
57120 On ch=1 n=g#4 v=0
57120 On ch=1 n=c5 v=0
57120 On ch=1 n=g#4 v=60
57120 On ch=1 n=c5 v=60
57120 On ch=1 n=d#4 v=60
57600 On ch=1 n=d#4 v=0
57600 On ch=1 n=c5 v=0
57600 On ch=1 n=g#4 v=0
57600 On ch=1 n=d4 v=70
58080 On ch=1 n=d4 v=0
58080 On ch=1 n=f5 v=60
58080 On ch=1 n=b4 v=60
58080 On ch=1 n=g#4 v=60
58560 On ch=1 n=g#4 v=0
58560 On ch=1 n=b4 v=0
58560 On ch=1 n=f5 v=0
58560 On ch=1 n=f5 v=60
58560 On ch=1 n=b4 v=60
58560 On ch=1 n=g#4 v=60
59040 On ch=1 n=g#4 v=0
59040 On ch=1 n=b4 v=0
59040 On ch=1 n=f5 v=0
59040 On ch=1 n=d#4 v=70
59520 On ch=1 n=d#4 v=0
60480 On ch=1 n=d#4 v=70
60960 On ch=1 n=d#4 v=0
63360 On ch=1 n=g#3 v=70
63840 On ch=1 n=g#3 v=0
63840 On ch=1 n=c5 v=60
63840 On ch=1 n=g#4 v=60
63840 On ch=1 n=d#4 v=60
64320 On ch=1 n=d#4 v=0
64320 On ch=1 n=g#4 v=0
64320 On ch=1 n=c5 v=0
64320 On ch=1 n=g#4 v=60
64320 On ch=1 n=c5 v=60
64320 On ch=1 n=d#4 v=60
64800 On ch=1 n=d#4 v=0
64800 On ch=1 n=c5 v=0
64800 On ch=1 n=g#4 v=0
64800 On ch=1 n=g#3 v=70
65280 On ch=1 n=g#3 v=0
65280 On ch=1 n=c5 v=60
65280 On ch=1 n=g#4 v=60
65280 On ch=1 n=d#4 v=60
65760 On ch=1 n=d#4 v=0
65760 On ch=1 n=g#4 v=0
65760 On ch=1 n=c5 v=0
65760 On ch=1 n=g#4 v=60
65760 On ch=1 n=c5 v=60
65760 On ch=1 n=d#4 v=60
66240 On ch=1 n=d#4 v=0
66240 On ch=1 n=c5 v=0
66240 On ch=1 n=g#4 v=0
66240 On ch=1 n=g#3 v=70
66720 On ch=1 n=g#3 v=0
66720 On ch=1 n=b4 v=60
66720 On ch=1 n=g#4 v=60
66720 On ch=1 n=d4 v=60
67200 On ch=1 n=d4 v=0
67200 On ch=1 n=g#4 v=0
67200 On ch=1 n=b4 v=0
67200 On ch=1 n=g#4 v=60
67200 On ch=1 n=b4 v=60
67200 On ch=1 n=d4 v=60
67680 On ch=1 n=d4 v=0
67680 On ch=1 n=b4 v=0
67680 On ch=1 n=g#4 v=0
67680 On ch=1 n=g#3 v=70
68160 On ch=1 n=g#3 v=0
68160 On ch=1 n=c5 v=67
68160 On ch=1 n=g#4 v=67
68160 On ch=1 n=d#4 v=67
68640 On ch=1 n=d#4 v=0
68640 On ch=1 n=g#4 v=0
68640 On ch=1 n=c5 v=0
68640 On ch=1 n=g#4 v=74
68640 On ch=1 n=c5 v=74
68640 On ch=1 n=d#4 v=74
69120 On ch=1 n=d#4 v=0
69120 On ch=1 n=c5 v=0
69120 On ch=1 n=g#4 v=0
69120 On ch=1 n=d4 v=90
69600 On ch=1 n=d4 v=0
69600 On ch=1 n=f5 v=81
69600 On ch=1 n=b4 v=81
69600 On ch=1 n=g#4 v=81
70080 On ch=1 n=g#4 v=0
70080 On ch=1 n=b4 v=0
70080 On ch=1 n=f5 v=0
70080 On ch=1 n=f5 v=83
70080 On ch=1 n=b4 v=83
70080 On ch=1 n=g#4 v=83
70560 On ch=1 n=g#4 v=0
70560 On ch=1 n=b4 v=0
70560 On ch=1 n=f5 v=0
70560 On ch=1 n=d#4 v=95
71040 On ch=1 n=d#4 v=0
72000 On ch=1 n=d#4 v=100
72480 On ch=1 n=d#4 v=0
74880 On ch=1 n=a#3 v=110
74880 On ch=1 n=a#4 v=110
75000 On ch=1 n=a#4 v=0
75000 On ch=1 n=a#3 v=0
75360 On ch=1 n=g#5 v=100
75360 On ch=1 n=f5 v=100
75360 On ch=1 n=a#4 v=100
75840 On ch=1 n=a#4 v=0
75840 On ch=1 n=f5 v=0
75840 On ch=1 n=g#5 v=0
75840 On ch=1 n=f5 v=100
75840 On ch=1 n=g#5 v=100
75840 On ch=1 n=a#4 v=100
76320 On ch=1 n=a#4 v=0
76320 On ch=1 n=g#5 v=0
76320 On ch=1 n=f5 v=0
76320 On ch=1 n=d#4 v=110
76440 On ch=1 n=d#4 v=0
76800 On ch=1 n=g5 v=100
76800 On ch=1 n=d#5 v=100
76800 On ch=1 n=a#4 v=100
77280 On ch=1 n=a#4 v=0
77280 On ch=1 n=d#5 v=0
77280 On ch=1 n=g5 v=0
77280 On ch=1 n=d#5 v=100
77280 On ch=1 n=g5 v=100
77280 On ch=1 n=a#4 v=100
77760 On ch=1 n=a#4 v=0
77760 On ch=1 n=g5 v=0
77760 On ch=1 n=d#5 v=0
77760 On ch=1 n=d4 v=110
77880 On ch=1 n=d4 v=0
78240 On ch=1 n=g#5 v=100
78240 On ch=1 n=f5 v=100
78240 On ch=1 n=a#4 v=100
78720 On ch=1 n=a#4 v=0
78720 On ch=1 n=f5 v=0
78720 On ch=1 n=g#5 v=0
78720 On ch=1 n=a#4 v=100
78720 On ch=1 n=f5 v=100
78720 On ch=1 n=g#5 v=100
79200 On ch=1 n=g#5 v=0
79200 On ch=1 n=f5 v=0
79200 On ch=1 n=a#4 v=0
79200 On ch=1 n=d#4 v=127
79320 On ch=1 n=d#4 v=0
79680 On ch=1 n=g5 v=116
79680 On ch=1 n=c#5 v=116
79680 On ch=1 n=a#4 v=116
79800 On ch=1 n=a#4 v=0
79800 On ch=1 n=c#5 v=0
79800 On ch=1 n=g5 v=0
80160 On ch=1 n=e4 v=112
80640 On ch=1 n=e4 v=0
80640 On ch=1 n=f4 v=118
80760 On ch=1 n=f4 v=0
81120 On ch=1 n=f5 v=104
81120 On ch=1 n=g#4 v=104
81240 On ch=1 n=g#4 v=0
81240 On ch=1 n=f5 v=0
81600 On ch=1 n=g#3 v=100
81720 On ch=1 n=g#3 v=0
82080 On ch=1 n=a#3 v=106
82200 On ch=1 n=a#3 v=0
82560 On ch=1 n=d#5 v=92
82560 On ch=1 n=g4 v=92
83040 On ch=1 n=g4 v=0
83040 On ch=1 n=d#5 v=0
83040 On ch=1 n=d#5 v=87
83040 On ch=1 n=g4 v=87
83520 On ch=1 n=g4 v=0
83520 On ch=1 n=d#5 v=0
83520 On ch=1 n=a#3 v=93
83640 On ch=1 n=a#3 v=0
84000 On ch=1 n=d5 v=79
84000 On ch=1 n=f4 v=79
84480 On ch=1 n=f4 v=0
84480 On ch=1 n=d5 v=0
84480 On ch=1 n=a#4 v=75
84480 On ch=1 n=d5 v=75
84960 On ch=1 n=d5 v=0
84960 On ch=1 n=a#4 v=0
84960 On ch=1 n=d#4 v=81
85440 On ch=1 n=d#5 v=67
85440 On ch=1 n=a#4 v=67
85920 On ch=1 n=a#4 v=0
85920 On ch=1 n=d#5 v=0
85920 On ch=1 n=d#5 v=63
85920 On ch=1 n=a#4 v=63
86400 On ch=1 n=a#4 v=0
86400 On ch=1 n=d#5 v=0
86400 On ch=1 n=d#4 v=0
86400 On ch=1 n=a#3 v=70
86520 On ch=1 n=a#3 v=0
86880 On ch=1 n=g#5 v=67
86880 On ch=1 n=f5 v=67
86880 On ch=1 n=a#4 v=67
87360 On ch=1 n=a#4 v=0
87360 On ch=1 n=f5 v=0
87360 On ch=1 n=g#5 v=0
87360 On ch=1 n=f5 v=74
87360 On ch=1 n=g#5 v=74
87360 On ch=1 n=a#4 v=74
87840 On ch=1 n=a#4 v=0
87840 On ch=1 n=g#5 v=0
87840 On ch=1 n=f5 v=0
87840 On ch=1 n=d#4 v=91
87960 On ch=1 n=d#4 v=0
88320 On ch=1 n=g5 v=88
88320 On ch=1 n=d#5 v=88
88320 On ch=1 n=a#4 v=88
88800 On ch=1 n=a#4 v=0
88800 On ch=1 n=d#5 v=0
88800 On ch=1 n=g5 v=0
88800 On ch=1 n=d#5 v=95
88800 On ch=1 n=g5 v=95
88800 On ch=1 n=a#4 v=95
89280 On ch=1 n=a#4 v=0
89280 On ch=1 n=g5 v=0
89280 On ch=1 n=d#5 v=0
89280 On ch=1 n=d4 v=112
89400 On ch=1 n=d4 v=0
89760 On ch=1 n=g#5 v=109
89760 On ch=1 n=f5 v=109
89760 On ch=1 n=a#4 v=109
90240 On ch=1 n=a#4 v=0
90240 On ch=1 n=f5 v=0
90240 On ch=1 n=g#5 v=0
90240 On ch=1 n=a#4 v=116
90240 On ch=1 n=f5 v=116
90240 On ch=1 n=g#5 v=116
90720 On ch=1 n=g#5 v=0
90720 On ch=1 n=f5 v=0
90720 On ch=1 n=a#4 v=0
90720 On ch=1 n=d#4 v=127
90840 On ch=1 n=d#4 v=0
91200 On ch=1 n=g5 v=116
91200 On ch=1 n=c#5 v=116
91200 On ch=1 n=a#4 v=116
91320 On ch=1 n=a#4 v=0
91320 On ch=1 n=c#5 v=0
91320 On ch=1 n=g5 v=0
91680 On ch=1 n=e4 v=112
92160 On ch=1 n=e4 v=0
92160 On ch=1 n=f4 v=118
92280 On ch=1 n=f4 v=0
92640 On ch=1 n=f5 v=103
92640 On ch=1 n=g#4 v=103
92760 On ch=1 n=g#4 v=0
92760 On ch=1 n=f5 v=0
93120 On ch=1 n=g#3 v=99
93240 On ch=1 n=g#3 v=0
93600 On ch=1 n=a#3 v=105
93720 On ch=1 n=a#3 v=0
94080 On ch=1 n=d#5 v=91
94080 On ch=1 n=g4 v=91
94560 On ch=1 n=g4 v=0
94560 On ch=1 n=d#5 v=0
94560 On ch=1 n=d#5 v=86
94560 On ch=1 n=g4 v=86
95040 On ch=1 n=g4 v=0
95040 On ch=1 n=d#5 v=0
95040 On ch=1 n=a#3 v=92
95160 On ch=1 n=a#3 v=0
95520 On ch=1 n=d5 v=78
95520 On ch=1 n=f4 v=78
96000 On ch=1 n=f4 v=0
96000 On ch=1 n=d5 v=0
96000 On ch=1 n=a#4 v=73
96000 On ch=1 n=d5 v=73
96480 On ch=1 n=d5 v=0
96480 On ch=1 n=d#5 v=69
96480 On ch=1 n=d#4 v=69
96960 On ch=1 n=d#4 v=0
96960 On ch=1 n=d#5 v=0
96960 On ch=1 n=a#4 v=0
97440 On ch=1 n=c#5 v=61
97440 On ch=1 n=g4 v=61
97440 On ch=1 n=d#4 v=61
97920 On ch=1 n=d#4 v=0
97920 On ch=1 n=g4 v=0
97920 On ch=1 n=c#5 v=0
97920 On ch=1 n=g#3 v=70
98400 On ch=1 n=g#3 v=0
98400 On ch=1 n=c5 v=60
98400 On ch=1 n=g#4 v=60
98400 On ch=1 n=d#4 v=60
98880 On ch=1 n=d#4 v=0
98880 On ch=1 n=g#4 v=0
98880 On ch=1 n=c5 v=0
98880 On ch=1 n=g#4 v=60
98880 On ch=1 n=c5 v=60
98880 On ch=1 n=d#4 v=60
99360 On ch=1 n=d#4 v=0
99360 On ch=1 n=c5 v=0
99360 On ch=1 n=g#4 v=0
99360 On ch=1 n=g#3 v=70
99840 On ch=1 n=g#3 v=0
99840 On ch=1 n=c5 v=60
99840 On ch=1 n=g#4 v=60
99840 On ch=1 n=d#4 v=60
100320 On ch=1 n=d#4 v=0
100320 On ch=1 n=g#4 v=0
100320 On ch=1 n=c5 v=0
100320 On ch=1 n=g#4 v=60
100320 On ch=1 n=c5 v=60
100320 On ch=1 n=d#4 v=60
100800 On ch=1 n=d#4 v=0
100800 On ch=1 n=c5 v=0
100800 On ch=1 n=g#4 v=0
100800 On ch=1 n=g#3 v=70
101280 On ch=1 n=g#3 v=0
101280 On ch=1 n=b4 v=60
101280 On ch=1 n=g#4 v=60
101280 On ch=1 n=d4 v=60
101760 On ch=1 n=d4 v=0
101760 On ch=1 n=g#4 v=0
101760 On ch=1 n=b4 v=0
101760 On ch=1 n=g#4 v=60
101760 On ch=1 n=b4 v=60
101760 On ch=1 n=d4 v=60
102240 On ch=1 n=d4 v=0
102240 On ch=1 n=b4 v=0
102240 On ch=1 n=g#4 v=0
102240 On ch=1 n=g#3 v=70
102720 On ch=1 n=g#3 v=0
102720 On ch=1 n=c5 v=60
102720 On ch=1 n=g#4 v=60
102720 On ch=1 n=d#4 v=60
103200 On ch=1 n=d#4 v=0
103200 On ch=1 n=g#4 v=0
103200 On ch=1 n=c5 v=0
103200 On ch=1 n=g#4 v=60
103200 On ch=1 n=c5 v=60
103200 On ch=1 n=d#4 v=60
103680 On ch=1 n=d#4 v=0
103680 On ch=1 n=c5 v=0
103680 On ch=1 n=g#4 v=0
103680 On ch=1 n=d4 v=70
104160 On ch=1 n=d4 v=0
104160 On ch=1 n=f5 v=60
104160 On ch=1 n=b4 v=60
104160 On ch=1 n=g#4 v=60
104640 On ch=1 n=g#4 v=0
104640 On ch=1 n=b4 v=0
104640 On ch=1 n=f5 v=0
104640 On ch=1 n=f5 v=60
104640 On ch=1 n=b4 v=60
104640 On ch=1 n=g#4 v=60
105120 On ch=1 n=g#4 v=0
105120 On ch=1 n=b4 v=0
105120 On ch=1 n=f5 v=0
105120 On ch=1 n=d#4 v=70
105600 On ch=1 n=d#4 v=0
106560 On ch=1 n=d#4 v=70
107040 On ch=1 n=d#4 v=0
109440 On ch=1 n=g#3 v=70
109920 On ch=1 n=g#3 v=0
109920 On ch=1 n=c5 v=60
109920 On ch=1 n=g#4 v=60
109920 On ch=1 n=d#4 v=60
110400 On ch=1 n=d#4 v=0
110400 On ch=1 n=g#4 v=0
110400 On ch=1 n=c5 v=0
110400 On ch=1 n=g#4 v=60
110400 On ch=1 n=c5 v=60
110400 On ch=1 n=d#4 v=60
110880 On ch=1 n=d#4 v=0
110880 On ch=1 n=c5 v=0
110880 On ch=1 n=g#4 v=0
110880 On ch=1 n=g#3 v=70
111360 On ch=1 n=g#3 v=0
111360 On ch=1 n=c5 v=60
111360 On ch=1 n=g#4 v=60
111360 On ch=1 n=d#4 v=60
111840 On ch=1 n=d#4 v=0
111840 On ch=1 n=g#4 v=0
111840 On ch=1 n=c5 v=0
111840 On ch=1 n=g#4 v=60
111840 On ch=1 n=c5 v=60
111840 On ch=1 n=d#4 v=60
112320 On ch=1 n=d#4 v=0
112320 On ch=1 n=c5 v=0
112320 On ch=1 n=g#4 v=0
112320 On ch=1 n=g#3 v=70
112800 On ch=1 n=g#3 v=0
112800 On ch=1 n=b4 v=60
112800 On ch=1 n=g#4 v=60
112800 On ch=1 n=d4 v=60
113280 On ch=1 n=d4 v=0
113280 On ch=1 n=g#4 v=0
113280 On ch=1 n=b4 v=0
113280 On ch=1 n=g#4 v=60
113280 On ch=1 n=b4 v=60
113280 On ch=1 n=d4 v=60
113760 On ch=1 n=d4 v=0
113760 On ch=1 n=b4 v=0
113760 On ch=1 n=g#4 v=0
113760 On ch=1 n=g#3 v=70
114240 On ch=1 n=g#3 v=0
114240 On ch=1 n=c5 v=60
114240 On ch=1 n=g#4 v=60
114240 On ch=1 n=d#4 v=60
114720 On ch=1 n=d#4 v=0
114720 On ch=1 n=g#4 v=0
114720 On ch=1 n=c5 v=0
114720 On ch=1 n=g#4 v=60
114720 On ch=1 n=c5 v=60
114720 On ch=1 n=d#4 v=60
115200 On ch=1 n=d#4 v=0
115200 On ch=1 n=c5 v=0
115200 On ch=1 n=g#4 v=0
115200 On ch=1 n=d4 v=70
115680 On ch=1 n=d4 v=0
115680 On ch=1 n=f5 v=60
115680 On ch=1 n=b4 v=60
115680 On ch=1 n=g#4 v=60
116160 On ch=1 n=g#4 v=0
116160 On ch=1 n=b4 v=0
116160 On ch=1 n=f5 v=0
116160 On ch=1 n=f5 v=60
116160 On ch=1 n=b4 v=60
116160 On ch=1 n=g#4 v=60
116640 On ch=1 n=g#4 v=0
116640 On ch=1 n=b4 v=0
116640 On ch=1 n=f5 v=0
116640 On ch=1 n=d#4 v=70
117120 On ch=1 n=d#5 v=60
117120 On ch=1 n=c5 v=60
117120 On ch=1 n=g#4 v=60
117600 On ch=1 n=g#4 v=0
117600 On ch=1 n=c5 v=0
117600 On ch=1 n=d#5 v=0
117600 On ch=1 n=g#4 v=60
117600 On ch=1 n=c5 v=60
117600 On ch=1 n=d#5 v=60
118080 On ch=1 n=d#5 v=0
118080 On ch=1 n=c5 v=0
118080 On ch=1 n=g#4 v=0
118080 On ch=1 n=d#4 v=0
118080 On ch=1 n=d#4 v=70
118560 On ch=1 n=d#5 v=60
118560 On ch=1 n=c#5 v=60
118560 On ch=1 n=a#4 v=60
119040 On ch=1 n=a#4 v=0
119040 On ch=1 n=c#5 v=0
119040 On ch=1 n=d#5 v=0
119040 On ch=1 n=d#5 v=60
119040 On ch=1 n=c#5 v=60
119040 On ch=1 n=a#4 v=60
119520 On ch=1 n=a#4 v=0
119520 On ch=1 n=c#5 v=0
119520 On ch=1 n=d#5 v=0
119520 On ch=1 n=d#4 v=0
119520 On ch=1 n=g#3 v=70
120000 On ch=1 n=g#3 v=0
120000 On ch=1 n=c5 v=60
120000 On ch=1 n=d#4 v=60
120480 On ch=1 n=d#4 v=0
120480 On ch=1 n=c5 v=0
120960 On ch=1 n=g#3 v=90
121080 On ch=1 n=g#3 v=0
121440 On ch=1 n=c5 v=80
121440 On ch=1 n=d#4 v=80
121920 On ch=1 n=d#4 v=0
121920 On ch=1 n=c5 v=0
121920 On ch=1 n=f#5 v=80
121920 On ch=1 n=g#4 v=80
122400 On ch=1 n=g#4 v=0
122400 On ch=1 n=f#5 v=0
122400 On ch=1 n=g#3 v=90
122520 On ch=1 n=g#3 v=0
122880 On ch=1 n=c5 v=80
122880 On ch=1 n=d#4 v=80
123360 On ch=1 n=d#4 v=0
123360 On ch=1 n=c5 v=0
123360 On ch=1 n=f#5 v=80
123360 On ch=1 n=g#4 v=80
123840 On ch=1 n=g#4 v=0
123840 On ch=1 n=f#5 v=0
123840 On ch=1 n=c#4 v=90
123960 On ch=1 n=c#4 v=0
124320 On ch=1 n=c#5 v=80
124320 On ch=1 n=f4 v=80
124800 On ch=1 n=f4 v=0
124800 On ch=1 n=c#5 v=0
124800 On ch=1 n=f5 v=80
124800 On ch=1 n=g#4 v=80
125280 On ch=1 n=g#4 v=0
125280 On ch=1 n=f5 v=0
125280 On ch=1 n=c#4 v=90
125400 On ch=1 n=c#4 v=0
125760 On ch=1 n=c#5 v=80
125760 On ch=1 n=f4 v=80
126240 On ch=1 n=f4 v=0
126240 On ch=1 n=c#5 v=0
126240 On ch=1 n=f5 v=80
126240 On ch=1 n=g#4 v=80
126720 On ch=1 n=g#4 v=0
126720 On ch=1 n=f5 v=0
126720 On ch=1 n=g#3 v=90
126840 On ch=1 n=g#3 v=0
127200 On ch=1 n=c5 v=80
127200 On ch=1 n=d#4 v=80
127680 On ch=1 n=d#4 v=0
127680 On ch=1 n=c5 v=0
127680 On ch=1 n=f#5 v=80
127680 On ch=1 n=g#4 v=80
128160 On ch=1 n=g#4 v=0
128160 On ch=1 n=f#5 v=0
128160 On ch=1 n=g#3 v=90
128280 On ch=1 n=g#3 v=0
128640 On ch=1 n=c5 v=80
128640 On ch=1 n=d#4 v=80
129120 On ch=1 n=d#4 v=0
129120 On ch=1 n=c5 v=0
129120 On ch=1 n=f#5 v=80
129120 On ch=1 n=g#4 v=80
129600 On ch=1 n=g#4 v=0
129600 On ch=1 n=f#5 v=0
129600 On ch=1 n=c#4 v=90
130080 On ch=1 n=g#4 v=80
130560 On ch=1 n=g#4 v=0
130560 On ch=1 n=c5 v=80
131040 On ch=1 n=c5 v=0
131040 On ch=1 n=c#4 v=0
131040 On ch=1 n=c#4 v=90
131040 On ch=1 n=c#5 v=90
131160 On ch=1 n=c#5 v=0
131160 On ch=1 n=c#4 v=0
131520 On ch=1 n=f4 v=80
131520 On ch=1 n=c#5 v=80
132000 On ch=1 n=c#5 v=0
132000 On ch=1 n=f4 v=0
132000 On ch=1 n=f5 v=80
132000 On ch=1 n=g#4 v=80
132480 On ch=1 n=g#4 v=0
132480 On ch=1 n=f5 v=0
132480 On ch=1 n=g#3 v=90
132600 On ch=1 n=g#3 v=0
132960 On ch=1 n=c5 v=80
132960 On ch=1 n=d#4 v=80
133440 On ch=1 n=d#4 v=0
133440 On ch=1 n=c5 v=0
133440 On ch=1 n=f#5 v=80
133440 On ch=1 n=g#4 v=80
133920 On ch=1 n=g#4 v=0
133920 On ch=1 n=f#5 v=0
133920 On ch=1 n=g#3 v=90
134040 On ch=1 n=g#3 v=0
134400 On ch=1 n=c5 v=80
134400 On ch=1 n=d#4 v=80
134880 On ch=1 n=d#4 v=0
134880 On ch=1 n=c5 v=0
134880 On ch=1 n=f#5 v=80
134880 On ch=1 n=g#4 v=80
135360 On ch=1 n=g#4 v=0
135360 On ch=1 n=f#5 v=0
135360 On ch=1 n=c#3 v=90
135480 On ch=1 n=c#3 v=0
135840 On ch=1 n=c#5 v=80
135840 On ch=1 n=f4 v=80
136320 On ch=1 n=f4 v=0
136320 On ch=1 n=c#5 v=0
136320 On ch=1 n=f5 v=80
136320 On ch=1 n=g#4 v=80
136800 On ch=1 n=g#4 v=0
136800 On ch=1 n=f5 v=0
136800 On ch=1 n=c#4 v=90
136920 On ch=1 n=c#4 v=0
137280 On ch=1 n=c#5 v=80
137280 On ch=1 n=f4 v=80
137760 On ch=1 n=f4 v=0
137760 On ch=1 n=c#5 v=0
137760 On ch=1 n=f5 v=80
137760 On ch=1 n=g#4 v=80
138240 On ch=1 n=g#4 v=0
138240 On ch=1 n=f5 v=0
138240 On ch=1 n=f#3 v=90
138360 On ch=1 n=f#3 v=0
138720 On ch=1 n=d5 v=80
138720 On ch=1 n=f#4 v=80
139200 On ch=1 n=f#4 v=0
139200 On ch=1 n=d5 v=0
139200 On ch=1 n=d#5 v=80
139200 On ch=1 n=a#4 v=80
139680 On ch=1 n=a#4 v=0
139680 On ch=1 n=d#5 v=0
139680 On ch=1 n=g#3 v=90
139800 On ch=1 n=g#3 v=0
140160 On ch=1 n=c5 v=80
140160 On ch=1 n=f4 v=80
140640 On ch=1 n=f4 v=0
140640 On ch=1 n=c5 v=0
140640 On ch=1 n=c#5 v=80
140640 On ch=1 n=g#4 v=80
141120 On ch=1 n=g#4 v=0
141120 On ch=1 n=c#5 v=0
141120 On ch=1 n=g#3 v=90
141240 On ch=1 n=g#3 v=0
141600 On ch=1 n=c5 v=80
141600 On ch=1 n=g#4 v=80
141600 On ch=1 n=d#4 v=80
142080 On ch=1 n=d#4 v=0
142080 On ch=1 n=g#4 v=0
142080 On ch=1 n=c5 v=0
142080 On ch=1 n=d#4 v=80
142080 On ch=1 n=g#4 v=80
142080 On ch=1 n=c5 v=80
142560 On ch=1 n=c5 v=0
142560 On ch=1 n=g#4 v=0
142560 On ch=1 n=d#4 v=0
142560 On ch=1 n=c#5 v=120
142560 On ch=1 n=g#4 v=120
142560 On ch=1 n=c#4 v=120
143040 On ch=1 n=c#4 v=0
143040 On ch=1 n=g#4 v=0
143040 On ch=1 n=c#5 v=0
144000 On ch=1 n=g#3 v=90
144120 On ch=1 n=g#3 v=0
144480 On ch=1 n=c5 v=80
144480 On ch=1 n=d#4 v=80
144960 On ch=1 n=d#4 v=0
144960 On ch=1 n=c5 v=0
144960 On ch=1 n=f#5 v=80
144960 On ch=1 n=g#4 v=80
145440 On ch=1 n=g#4 v=0
145440 On ch=1 n=f#5 v=0
145440 On ch=1 n=g#3 v=90
145560 On ch=1 n=g#3 v=0
145920 On ch=1 n=c5 v=80
145920 On ch=1 n=d#4 v=80
146400 On ch=1 n=d#4 v=0
146400 On ch=1 n=c5 v=0
146400 On ch=1 n=f#5 v=80
146400 On ch=1 n=g#4 v=80
146880 On ch=1 n=g#4 v=0
146880 On ch=1 n=f#5 v=0
146880 On ch=1 n=c#4 v=90
147000 On ch=1 n=c#4 v=0
147360 On ch=1 n=c#5 v=80
147360 On ch=1 n=f4 v=80
147840 On ch=1 n=f4 v=0
147840 On ch=1 n=c#5 v=0
147840 On ch=1 n=f5 v=80
147840 On ch=1 n=g#4 v=80
148320 On ch=1 n=g#4 v=0
148320 On ch=1 n=f5 v=0
148320 On ch=1 n=c#4 v=90
148440 On ch=1 n=c#4 v=0
148800 On ch=1 n=c#5 v=80
148800 On ch=1 n=f4 v=80
149280 On ch=1 n=f4 v=0
149280 On ch=1 n=c#5 v=0
149280 On ch=1 n=f5 v=80
149280 On ch=1 n=g#4 v=80
149760 On ch=1 n=g#4 v=0
149760 On ch=1 n=f5 v=0
149760 On ch=1 n=g#3 v=90
149880 On ch=1 n=g#3 v=0
150240 On ch=1 n=c5 v=80
150240 On ch=1 n=d#4 v=80
150720 On ch=1 n=d#4 v=0
150720 On ch=1 n=c5 v=0
150720 On ch=1 n=f#5 v=80
150720 On ch=1 n=g#4 v=80
151200 On ch=1 n=g#4 v=0
151200 On ch=1 n=f#5 v=0
151200 On ch=1 n=g#3 v=90
151320 On ch=1 n=g#3 v=0
151680 On ch=1 n=c5 v=80
151680 On ch=1 n=d#4 v=80
152160 On ch=1 n=d#4 v=0
152160 On ch=1 n=c5 v=0
152160 On ch=1 n=f#5 v=80
152160 On ch=1 n=g#4 v=80
152640 On ch=1 n=g#4 v=0
152640 On ch=1 n=f#5 v=0
152640 On ch=1 n=c#4 v=90
153120 On ch=1 n=g#4 v=80
153600 On ch=1 n=g#4 v=0
153600 On ch=1 n=c5 v=80
154080 On ch=1 n=c5 v=0
154080 On ch=1 n=c#4 v=0
154080 On ch=1 n=c#4 v=90
154080 On ch=1 n=c#5 v=90
154200 On ch=1 n=c#5 v=0
154200 On ch=1 n=c#4 v=0
154560 On ch=1 n=f4 v=80
154560 On ch=1 n=c#5 v=80
155040 On ch=1 n=c#5 v=0
155040 On ch=1 n=f4 v=0
155040 On ch=1 n=f5 v=80
155040 On ch=1 n=g#4 v=80
155520 On ch=1 n=g#4 v=0
155520 On ch=1 n=f5 v=0
155520 On ch=1 n=g#3 v=90
155640 On ch=1 n=g#3 v=0
156000 On ch=1 n=c5 v=80
156000 On ch=1 n=d#4 v=80
156480 On ch=1 n=d#4 v=0
156480 On ch=1 n=c5 v=0
156480 On ch=1 n=f#5 v=80
156480 On ch=1 n=g#4 v=80
156960 On ch=1 n=g#4 v=0
156960 On ch=1 n=f#5 v=0
156960 On ch=1 n=g#3 v=90
157080 On ch=1 n=g#3 v=0
157440 On ch=1 n=c5 v=80
157440 On ch=1 n=d#4 v=80
157920 On ch=1 n=d#4 v=0
157920 On ch=1 n=c5 v=0
157920 On ch=1 n=f#5 v=80
157920 On ch=1 n=g#4 v=80
158400 On ch=1 n=g#4 v=0
158400 On ch=1 n=f#5 v=0
158400 On ch=1 n=c#3 v=90
158520 On ch=1 n=c#3 v=0
158880 On ch=1 n=c#5 v=80
158880 On ch=1 n=f4 v=80
159360 On ch=1 n=f4 v=0
159360 On ch=1 n=c#5 v=0
159360 On ch=1 n=f5 v=80
159360 On ch=1 n=g#4 v=80
159840 On ch=1 n=g#4 v=0
159840 On ch=1 n=f5 v=0
159840 On ch=1 n=c#4 v=90
159960 On ch=1 n=c#4 v=0
160320 On ch=1 n=c#5 v=80
160320 On ch=1 n=f4 v=80
160800 On ch=1 n=f4 v=0
160800 On ch=1 n=c#5 v=0
160800 On ch=1 n=f5 v=80
160800 On ch=1 n=g#4 v=80
161280 On ch=1 n=g#4 v=0
161280 On ch=1 n=f5 v=0
161280 On ch=1 n=f#3 v=90
161400 On ch=1 n=f#3 v=0
161760 On ch=1 n=d5 v=80
161760 On ch=1 n=f#4 v=80
162240 On ch=1 n=f#4 v=0
162240 On ch=1 n=d5 v=0
162240 On ch=1 n=d#5 v=80
162240 On ch=1 n=a#4 v=80
162720 On ch=1 n=a#4 v=0
162720 On ch=1 n=d#5 v=0
162720 On ch=1 n=g#3 v=90
162840 On ch=1 n=g#3 v=0
163200 On ch=1 n=c5 v=80
163200 On ch=1 n=f4 v=80
163680 On ch=1 n=f4 v=0
163680 On ch=1 n=c5 v=0
163680 On ch=1 n=c#5 v=80
163680 On ch=1 n=g#4 v=80
164160 On ch=1 n=g#4 v=0
164160 On ch=1 n=c#5 v=0
164160 On ch=1 n=g#3 v=90
164280 On ch=1 n=g#3 v=0
164640 On ch=1 n=c5 v=80
164640 On ch=1 n=g#4 v=80
164640 On ch=1 n=d#4 v=80
165120 On ch=1 n=d#4 v=0
165120 On ch=1 n=g#4 v=0
165120 On ch=1 n=c5 v=0
165120 On ch=1 n=d#4 v=80
165120 On ch=1 n=g#4 v=80
165120 On ch=1 n=c5 v=80
165600 On ch=1 n=c5 v=0
165600 On ch=1 n=g#4 v=0
165600 On ch=1 n=d#4 v=0
165600 On ch=1 n=c#5 v=120
165600 On ch=1 n=g#4 v=120
165600 On ch=1 n=c#4 v=120
166080 On ch=1 n=c#4 v=0
166080 On ch=1 n=g#4 v=0
166080 On ch=1 n=c#5 v=0
166560 On ch=1 n=c#4 v=110
166560 On ch=1 n=g#4 v=110
166560 On ch=1 n=c#5 v=110
167040 On ch=1 n=c#5 v=0
167040 On ch=1 n=g#4 v=0
167040 On ch=1 n=c#4 v=0
167040 On ch=1 n=c#5 v=110
167040 On ch=1 n=a#4 v=110
167040 On ch=1 n=d#4 v=110
167160 On ch=1 n=d#4 v=0
167160 On ch=1 n=a#4 v=0
167160 On ch=1 n=c#5 v=0
168000 On ch=1 n=c#5 v=110
168000 On ch=1 n=a#4 v=110
168000 On ch=1 n=d#4 v=110
168120 On ch=1 n=d#4 v=0
168120 On ch=1 n=a#4 v=0
168120 On ch=1 n=c#5 v=0
168480 On ch=1 n=c#5 v=110
168480 On ch=1 n=a#4 v=110
168480 On ch=1 n=d#4 v=110
168600 On ch=1 n=d#4 v=0
168600 On ch=1 n=a#4 v=0
168600 On ch=1 n=c#5 v=0
169440 On ch=1 n=c#5 v=110
169440 On ch=1 n=a#4 v=110
169440 On ch=1 n=d#4 v=110
169560 On ch=1 n=d#4 v=0
169560 On ch=1 n=a#4 v=0
169560 On ch=1 n=c#5 v=0
169920 On ch=1 n=g#3 v=70
170400 On ch=1 n=g#3 v=0
170400 On ch=1 n=c5 v=60
170400 On ch=1 n=g#4 v=60
170400 On ch=1 n=d#4 v=60
170880 On ch=1 n=d#4 v=0
170880 On ch=1 n=g#4 v=0
170880 On ch=1 n=c5 v=0
170880 On ch=1 n=d#4 v=60
170880 On ch=1 n=g#4 v=60
170880 On ch=1 n=c5 v=60
171360 On ch=1 n=c5 v=0
171360 On ch=1 n=g#4 v=0
171360 On ch=1 n=d#4 v=0
171360 On ch=1 n=g#3 v=70
171840 On ch=1 n=g#3 v=0
171840 On ch=1 n=d4 v=60
171840 On ch=1 n=b4 v=60
171840 On ch=1 n=g#4 v=60
172080 On ch=1 n=d4 v=0
172080 On ch=1 n=f4 v=60
172320 On ch=1 n=f4 v=0
172320 On ch=1 n=g#4 v=0
172320 On ch=1 n=b4 v=0
172320 On ch=1 n=d#4 v=60
172320 On ch=1 n=g#4 v=60
172320 On ch=1 n=c5 v=60
172800 On ch=1 n=c5 v=0
172800 On ch=1 n=g#4 v=0
172800 On ch=1 n=d#4 v=0
172800 On ch=1 n=c#5 v=100
172800 On ch=1 n=a#4 v=100
172800 On ch=1 n=d#4 v=100
172920 On ch=1 n=d#4 v=0
172920 On ch=1 n=a#4 v=0
172920 On ch=1 n=c#5 v=0
173760 On ch=1 n=d#4 v=100
173760 On ch=1 n=c#5 v=100
173760 On ch=1 n=a#4 v=100
173880 On ch=1 n=a#4 v=0
173880 On ch=1 n=c#5 v=0
173880 On ch=1 n=d#4 v=0
174240 On ch=1 n=c#5 v=100
174240 On ch=1 n=a#4 v=100
174240 On ch=1 n=d#4 v=100
174360 On ch=1 n=d#4 v=0
174360 On ch=1 n=a#4 v=0
174360 On ch=1 n=c#5 v=0
175200 On ch=1 n=d#4 v=100
175200 On ch=1 n=c#5 v=100
175200 On ch=1 n=a#4 v=100
175320 On ch=1 n=a#4 v=0
175320 On ch=1 n=c#5 v=0
175320 On ch=1 n=d#4 v=0
175680 On ch=1 n=d#3 v=70
176160 On ch=1 n=d#3 v=0
176160 On ch=1 n=c#5 v=67
176160 On ch=1 n=g4 v=67
176640 On ch=1 n=g4 v=0
176640 On ch=1 n=c#5 v=0
176640 On ch=1 n=d#4 v=74
176640 On ch=1 n=c#5 v=74
177120 On ch=1 n=c#5 v=0
177120 On ch=1 n=d#4 v=0
177120 On ch=1 n=g#3 v=91
177600 On ch=1 n=g#3 v=0
177600 On ch=1 n=c5 v=88
177600 On ch=1 n=g#4 v=88
178080 On ch=1 n=g#4 v=0
178080 On ch=1 n=c5 v=0
178080 On ch=1 n=d#4 v=95
178080 On ch=1 n=c5 v=95
178560 On ch=1 n=c5 v=0
178560 On ch=1 n=d#4 v=0
178560 On ch=1 n=c#5 v=100
178560 On ch=1 n=a#4 v=100
178560 On ch=1 n=d#4 v=100
178680 On ch=1 n=d#4 v=0
178680 On ch=1 n=a#4 v=0
178680 On ch=1 n=c#5 v=0
179520 On ch=1 n=c#5 v=100
179520 On ch=1 n=a#4 v=100
179520 On ch=1 n=d#4 v=100
179640 On ch=1 n=d#4 v=0
179640 On ch=1 n=a#4 v=0
179640 On ch=1 n=c#5 v=0
180000 On ch=1 n=c#5 v=100
180000 On ch=1 n=a#4 v=100
180000 On ch=1 n=d#4 v=100
180120 On ch=1 n=d#4 v=0
180120 On ch=1 n=a#4 v=0
180120 On ch=1 n=c#5 v=0
180960 On ch=1 n=c#5 v=100
180960 On ch=1 n=a#4 v=100
180960 On ch=1 n=d#4 v=100
181080 On ch=1 n=d#4 v=0
181080 On ch=1 n=a#4 v=0
181080 On ch=1 n=c#5 v=0
181440 On ch=1 n=g#3 v=70
181920 On ch=1 n=g#3 v=0
181920 On ch=1 n=c5 v=60
181920 On ch=1 n=g#4 v=60
181920 On ch=1 n=d#4 v=60
182400 On ch=1 n=d#4 v=0
182400 On ch=1 n=g#4 v=0
182400 On ch=1 n=c5 v=0
182400 On ch=1 n=d#4 v=60
182400 On ch=1 n=g#4 v=60
182400 On ch=1 n=c5 v=60
182880 On ch=1 n=c5 v=0
182880 On ch=1 n=g#4 v=0
182880 On ch=1 n=d#4 v=0
182880 On ch=1 n=g#3 v=70
183360 On ch=1 n=g#3 v=0
183360 On ch=1 n=d4 v=60
183360 On ch=1 n=b4 v=60
183360 On ch=1 n=g#4 v=60
183600 On ch=1 n=d4 v=0
183600 On ch=1 n=f4 v=60
183840 On ch=1 n=f4 v=0
183840 On ch=1 n=g#4 v=0
183840 On ch=1 n=b4 v=0
183840 On ch=1 n=d#4 v=60
183840 On ch=1 n=g#4 v=60
183840 On ch=1 n=c5 v=60
184320 On ch=1 n=c5 v=0
184320 On ch=1 n=g#4 v=0
184320 On ch=1 n=d#4 v=0
184320 On ch=1 n=c#5 v=100
184320 On ch=1 n=a#4 v=100
184320 On ch=1 n=d#4 v=100
184440 On ch=1 n=d#4 v=0
184440 On ch=1 n=a#4 v=0
184440 On ch=1 n=c#5 v=0
185280 On ch=1 n=d#4 v=100
185280 On ch=1 n=c#5 v=100
185280 On ch=1 n=a#4 v=100
185400 On ch=1 n=a#4 v=0
185400 On ch=1 n=c#5 v=0
185400 On ch=1 n=d#4 v=0
185760 On ch=1 n=c#5 v=100
185760 On ch=1 n=a#4 v=100
185760 On ch=1 n=d#4 v=100
185880 On ch=1 n=d#4 v=0
185880 On ch=1 n=a#4 v=0
185880 On ch=1 n=c#5 v=0
186720 On ch=1 n=c#5 v=100
186720 On ch=1 n=a#4 v=100
186720 On ch=1 n=d#4 v=100
187200 On ch=1 n=d#4 v=0
187200 On ch=1 n=a#4 v=0
187200 On ch=1 n=c#5 v=0
187200 On ch=1 n=c5 v=100
187200 On ch=1 n=g#4 v=100
187680 On ch=1 n=g#4 v=0
187680 On ch=1 n=c5 v=0
190080 On ch=1 n=g#3 v=90
190200 On ch=1 n=g#3 v=0
190560 On ch=1 n=c5 v=80
190560 On ch=1 n=d#4 v=80
191040 On ch=1 n=d#4 v=0
191040 On ch=1 n=c5 v=0
191040 On ch=1 n=f#5 v=80
191040 On ch=1 n=g#4 v=80
191520 On ch=1 n=g#4 v=0
191520 On ch=1 n=f#5 v=0
191520 On ch=1 n=g#3 v=90
191640 On ch=1 n=g#3 v=0
192000 On ch=1 n=c5 v=80
192000 On ch=1 n=d#4 v=80
192480 On ch=1 n=d#4 v=0
192480 On ch=1 n=c5 v=0
192480 On ch=1 n=f#5 v=80
192480 On ch=1 n=g#4 v=80
192960 On ch=1 n=g#4 v=0
192960 On ch=1 n=f#5 v=0
192960 On ch=1 n=c#3 v=90
193080 On ch=1 n=c#3 v=0
193440 On ch=1 n=c#5 v=80
193440 On ch=1 n=f4 v=80
193920 On ch=1 n=f4 v=0
193920 On ch=1 n=c#5 v=0
193920 On ch=1 n=f5 v=80
193920 On ch=1 n=g#4 v=80
194400 On ch=1 n=g#4 v=0
194400 On ch=1 n=f5 v=0
194400 On ch=1 n=c#4 v=90
194520 On ch=1 n=c#4 v=0
194880 On ch=1 n=c#5 v=80
194880 On ch=1 n=f4 v=80
195360 On ch=1 n=f4 v=0
195360 On ch=1 n=c#5 v=0
195360 On ch=1 n=f5 v=80
195360 On ch=1 n=g#4 v=80
195840 On ch=1 n=g#4 v=0
195840 On ch=1 n=f5 v=0
195840 On ch=1 n=g#3 v=90
195960 On ch=1 n=g#3 v=0
196320 On ch=1 n=c5 v=80
196320 On ch=1 n=d#4 v=80
196800 On ch=1 n=d#4 v=0
196800 On ch=1 n=c5 v=0
196800 On ch=1 n=f#5 v=80
196800 On ch=1 n=g#4 v=80
197280 On ch=1 n=g#4 v=0
197280 On ch=1 n=f#5 v=0
197280 On ch=1 n=g#3 v=90
197400 On ch=1 n=g#3 v=0
197760 On ch=1 n=c5 v=80
197760 On ch=1 n=d#4 v=80
198240 On ch=1 n=d#4 v=0
198240 On ch=1 n=c5 v=0
198240 On ch=1 n=f#5 v=80
198240 On ch=1 n=g#4 v=80
198720 On ch=1 n=g#4 v=0
198720 On ch=1 n=f#5 v=0
198720 On ch=1 n=c#4 v=90
199200 On ch=1 n=g#4 v=80
199680 On ch=1 n=g#4 v=0
199680 On ch=1 n=c5 v=80
200160 On ch=1 n=c5 v=0
200160 On ch=1 n=c#4 v=0
200160 On ch=1 n=c#4 v=90
200160 On ch=1 n=c#5 v=90
200280 On ch=1 n=c#5 v=0
200280 On ch=1 n=c#4 v=0
200640 On ch=1 n=f4 v=80
200640 On ch=1 n=c#5 v=80
201120 On ch=1 n=c#5 v=0
201120 On ch=1 n=f4 v=0
201120 On ch=1 n=g#4 v=80
201120 On ch=1 n=f5 v=80
201600 On ch=1 n=f5 v=0
201600 On ch=1 n=g#4 v=0
201600 On ch=1 n=g#3 v=90
201720 On ch=1 n=g#3 v=0
202080 On ch=1 n=c5 v=80
202080 On ch=1 n=d#4 v=80
202560 On ch=1 n=d#4 v=0
202560 On ch=1 n=c5 v=0
202560 On ch=1 n=f#5 v=80
202560 On ch=1 n=g#4 v=80
203040 On ch=1 n=g#4 v=0
203040 On ch=1 n=f#5 v=0
203040 On ch=1 n=g#3 v=90
203160 On ch=1 n=g#3 v=0
203520 On ch=1 n=c5 v=80
203520 On ch=1 n=d#4 v=80
204000 On ch=1 n=d#4 v=0
204000 On ch=1 n=c5 v=0
204000 On ch=1 n=f#5 v=80
204000 On ch=1 n=g#4 v=80
204480 On ch=1 n=g#4 v=0
204480 On ch=1 n=f#5 v=0
204480 On ch=1 n=c#3 v=90
204600 On ch=1 n=c#3 v=0
204960 On ch=1 n=c#5 v=80
204960 On ch=1 n=f4 v=80
205440 On ch=1 n=f4 v=0
205440 On ch=1 n=c#5 v=0
205440 On ch=1 n=f5 v=80
205440 On ch=1 n=g#4 v=80
205920 On ch=1 n=g#4 v=0
205920 On ch=1 n=f5 v=0
205920 On ch=1 n=c#4 v=90
206040 On ch=1 n=c#4 v=0
206400 On ch=1 n=c#5 v=80
206400 On ch=1 n=f4 v=80
206880 On ch=1 n=f4 v=0
206880 On ch=1 n=c#5 v=0
206880 On ch=1 n=f5 v=80
206880 On ch=1 n=g#4 v=80
207360 On ch=1 n=g#4 v=0
207360 On ch=1 n=f5 v=0
207360 On ch=1 n=f#3 v=90
207480 On ch=1 n=f#3 v=0
207840 On ch=1 n=d5 v=80
207840 On ch=1 n=f#4 v=80
208320 On ch=1 n=f#4 v=0
208320 On ch=1 n=d5 v=0
208320 On ch=1 n=d#5 v=80
208320 On ch=1 n=a#4 v=80
208800 On ch=1 n=a#4 v=0
208800 On ch=1 n=d#5 v=0
208800 On ch=1 n=g#3 v=90
208920 On ch=1 n=g#3 v=0
209280 On ch=1 n=c5 v=80
209280 On ch=1 n=f4 v=80
209760 On ch=1 n=f4 v=0
209760 On ch=1 n=c5 v=0
209760 On ch=1 n=c#5 v=80
209760 On ch=1 n=g#4 v=80
210240 On ch=1 n=g#4 v=0
210240 On ch=1 n=c#5 v=0
210240 On ch=1 n=g#3 v=90
210360 On ch=1 n=g#3 v=0
210720 On ch=1 n=c5 v=80
210720 On ch=1 n=g#4 v=80
210720 On ch=1 n=d#4 v=80
211200 On ch=1 n=d#4 v=0
211200 On ch=1 n=g#4 v=0
211200 On ch=1 n=c5 v=0
211200 On ch=1 n=d#4 v=80
211200 On ch=1 n=g#4 v=80
211200 On ch=1 n=c5 v=80
211680 On ch=1 n=c5 v=0
211680 On ch=1 n=g#4 v=0
211680 On ch=1 n=d#4 v=0
211680 On ch=1 n=c#5 v=80
211680 On ch=1 n=g#4 v=80
211680 On ch=1 n=c#4 v=80
211800 On ch=1 n=c#4 v=0
211800 On ch=1 n=g#4 v=0
211800 On ch=1 n=c#5 v=0
213120 On ch=1 n=c#3 v=110
213240 On ch=1 n=c#3 v=0
213600 On ch=1 n=b4 v=100
213600 On ch=1 n=g#4 v=100
213600 On ch=1 n=c#4 v=100
214080 On ch=1 n=c#4 v=0
214080 On ch=1 n=g#4 v=0
214080 On ch=1 n=b4 v=0
214080 On ch=1 n=g#4 v=100
214080 On ch=1 n=b4 v=100
214080 On ch=1 n=c#4 v=100
214560 On ch=1 n=c#4 v=0
214560 On ch=1 n=b4 v=0
214560 On ch=1 n=g#4 v=0
214560 On ch=1 n=c#3 v=110
214680 On ch=1 n=c#3 v=0
215040 On ch=1 n=b4 v=102
215040 On ch=1 n=g#4 v=102
215040 On ch=1 n=c#4 v=102
215520 On ch=1 n=c#4 v=0
215520 On ch=1 n=g#4 v=0
215520 On ch=1 n=b4 v=0
215520 On ch=1 n=g#4 v=105
215520 On ch=1 n=b4 v=105
215520 On ch=1 n=c#4 v=105
216000 On ch=1 n=c#4 v=0
216000 On ch=1 n=b4 v=0
216000 On ch=1 n=g#4 v=0
216000 On ch=1 n=f#3 v=117
216120 On ch=1 n=f#3 v=0
216480 On ch=1 n=a#4 v=110
216480 On ch=1 n=f#4 v=110
216480 On ch=1 n=c#4 v=110
216960 On ch=1 n=c#4 v=0
216960 On ch=1 n=f#4 v=0
216960 On ch=1 n=a#4 v=0
216960 On ch=1 n=c#4 v=113
216960 On ch=1 n=f#4 v=113
216960 On ch=1 n=a#4 v=113
217440 On ch=1 n=a#4 v=0
217440 On ch=1 n=f#4 v=0
217440 On ch=1 n=c#4 v=0
217440 On ch=1 n=f#3 v=125
217560 On ch=1 n=f#3 v=0
217920 On ch=1 n=a#4 v=118
217920 On ch=1 n=d4 v=118
218400 On ch=1 n=d4 v=0
218400 On ch=1 n=a#4 v=0
218400 On ch=1 n=a#4 v=120
218400 On ch=1 n=d#4 v=120
218880 On ch=1 n=d#4 v=0
218880 On ch=1 n=a#4 v=0
218880 On ch=1 n=g#3 v=70
219000 On ch=1 n=g#3 v=0
219360 On ch=1 n=c5 v=60
219360 On ch=1 n=g#4 v=60
219360 On ch=1 n=d#4 v=60
219840 On ch=1 n=d#4 v=0
219840 On ch=1 n=g#4 v=0
219840 On ch=1 n=c5 v=0
219840 On ch=1 n=d#4 v=60
219840 On ch=1 n=g#4 v=60
219840 On ch=1 n=c5 v=60
220320 On ch=1 n=c5 v=0
220320 On ch=1 n=g#4 v=0
220320 On ch=1 n=d#4 v=0
220320 On ch=1 n=g#3 v=70
220440 On ch=1 n=g#3 v=0
220800 On ch=1 n=c5 v=60
220800 On ch=1 n=g#4 v=60
220800 On ch=1 n=d#4 v=60
221280 On ch=1 n=d#4 v=0
221280 On ch=1 n=g#4 v=0
221280 On ch=1 n=c5 v=0
221280 On ch=1 n=d#4 v=60
221280 On ch=1 n=g#4 v=60
221280 On ch=1 n=c5 v=60
221760 On ch=1 n=c5 v=0
221760 On ch=1 n=g#4 v=0
221760 On ch=1 n=d#4 v=0
221760 On ch=1 n=g#3 v=70
221880 On ch=1 n=g#3 v=0
222240 On ch=1 n=c5 v=60
222240 On ch=1 n=g#4 v=60
222240 On ch=1 n=d#4 v=60
222720 On ch=1 n=d#4 v=0
222720 On ch=1 n=g#4 v=0
222720 On ch=1 n=c5 v=0
222720 On ch=1 n=d#4 v=60
222720 On ch=1 n=g#4 v=60
222720 On ch=1 n=c5 v=60
223200 On ch=1 n=c5 v=0
223200 On ch=1 n=g#4 v=0
223200 On ch=1 n=d#4 v=0
223200 On ch=1 n=c#4 v=70
223680 On ch=1 n=c#5 v=60
223680 On ch=1 n=g#4 v=60
224160 On ch=1 n=g#4 v=0
224160 On ch=1 n=c#5 v=0
224160 On ch=1 n=c#5 v=60
224160 On ch=1 n=g#4 v=60
224640 On ch=1 n=g#4 v=0
224640 On ch=1 n=c#5 v=0
224640 On ch=1 n=c#4 v=0
224640 On ch=1 n=c#4 v=110
224760 On ch=1 n=c#4 v=0
226080 On ch=1 n=c#4 v=110
226200 On ch=1 n=c#4 v=0
236160 On ch=1 n=c#3 v=110
236280 On ch=1 n=c#3 v=0
236640 On ch=1 n=b4 v=100
236640 On ch=1 n=g#4 v=100
236640 On ch=1 n=c#4 v=100
237120 On ch=1 n=c#4 v=0
237120 On ch=1 n=g#4 v=0
237120 On ch=1 n=b4 v=0
237120 On ch=1 n=g#4 v=100
237120 On ch=1 n=b4 v=100
237120 On ch=1 n=c#4 v=100
237600 On ch=1 n=c#4 v=0
237600 On ch=1 n=b4 v=0
237600 On ch=1 n=g#4 v=0
237600 On ch=1 n=c#3 v=110
237720 On ch=1 n=c#3 v=0
238080 On ch=1 n=b4 v=102
238080 On ch=1 n=g#4 v=102
238080 On ch=1 n=c#4 v=102
238560 On ch=1 n=c#4 v=0
238560 On ch=1 n=g#4 v=0
238560 On ch=1 n=b4 v=0
238560 On ch=1 n=g#4 v=105
238560 On ch=1 n=b4 v=105
238560 On ch=1 n=c#4 v=105
239040 On ch=1 n=c#4 v=0
239040 On ch=1 n=b4 v=0
239040 On ch=1 n=g#4 v=0
239040 On ch=1 n=f#3 v=117
239160 On ch=1 n=f#3 v=0
239520 On ch=1 n=a#4 v=110
239520 On ch=1 n=f#4 v=110
239520 On ch=1 n=c#4 v=110
240000 On ch=1 n=c#4 v=0
240000 On ch=1 n=f#4 v=0
240000 On ch=1 n=a#4 v=0
240000 On ch=1 n=c#4 v=113
240000 On ch=1 n=f#4 v=113
240000 On ch=1 n=a#4 v=113
240480 On ch=1 n=a#4 v=0
240480 On ch=1 n=f#4 v=0
240480 On ch=1 n=c#4 v=0
240480 On ch=1 n=f#3 v=125
240600 On ch=1 n=f#3 v=0
240960 On ch=1 n=a#4 v=118
240960 On ch=1 n=d4 v=118
241440 On ch=1 n=d4 v=0
241440 On ch=1 n=a#4 v=0
241440 On ch=1 n=a#4 v=120
241440 On ch=1 n=d#4 v=120
241920 On ch=1 n=d#4 v=0
241920 On ch=1 n=a#4 v=0
241920 On ch=1 n=g#3 v=70
242040 On ch=1 n=g#3 v=0
242400 On ch=1 n=c5 v=60
242400 On ch=1 n=g#4 v=60
242400 On ch=1 n=d#4 v=60
242880 On ch=1 n=d#4 v=0
242880 On ch=1 n=g#4 v=0
242880 On ch=1 n=c5 v=0
242880 On ch=1 n=d#4 v=60
242880 On ch=1 n=g#4 v=60
242880 On ch=1 n=c5 v=60
243360 On ch=1 n=c5 v=0
243360 On ch=1 n=g#4 v=0
243360 On ch=1 n=d#4 v=0
243360 On ch=1 n=g#3 v=70
243480 On ch=1 n=g#3 v=0
243840 On ch=1 n=c5 v=60
243840 On ch=1 n=g#4 v=60
243840 On ch=1 n=d#4 v=60
244320 On ch=1 n=d#4 v=0
244320 On ch=1 n=g#4 v=0
244320 On ch=1 n=c5 v=0
244320 On ch=1 n=d#4 v=60
244320 On ch=1 n=g#4 v=60
244320 On ch=1 n=c5 v=60
244800 On ch=1 n=c5 v=0
244800 On ch=1 n=g#4 v=0
244800 On ch=1 n=d#4 v=0
244800 On ch=1 n=g#3 v=70
244920 On ch=1 n=g#3 v=0
245280 On ch=1 n=c5 v=60
245280 On ch=1 n=g#4 v=60
245280 On ch=1 n=d#4 v=60
245760 On ch=1 n=d#4 v=0
245760 On ch=1 n=g#4 v=0
245760 On ch=1 n=c5 v=0
245760 On ch=1 n=d#4 v=60
245760 On ch=1 n=g#4 v=60
245760 On ch=1 n=c5 v=60
246240 On ch=1 n=c5 v=0
246240 On ch=1 n=g#4 v=0
246240 On ch=1 n=d#4 v=0
246240 On ch=1 n=c#4 v=70
246720 On ch=1 n=c#5 v=60
246720 On ch=1 n=g#4 v=60
247200 On ch=1 n=g#4 v=0
247200 On ch=1 n=c#5 v=0
247200 On ch=1 n=c#5 v=60
247200 On ch=1 n=g#4 v=60
247680 On ch=1 n=g#4 v=0
247680 On ch=1 n=c#5 v=0
247680 On ch=1 n=c#4 v=0
247680 On ch=1 n=c#4 v=110
247800 On ch=1 n=c#4 v=0
249120 On ch=1 n=c#4 v=110
249240 On ch=1 n=c#4 v=0
259200 On ch=1 n=a#3 v=70
259320 On ch=1 n=a#3 v=0
259680 On ch=1 n=c#5 v=60
259680 On ch=1 n=f4 v=60
260160 On ch=1 n=f4 v=0
260160 On ch=1 n=c#5 v=0
260160 On ch=1 n=c#5 v=60
260160 On ch=1 n=f4 v=60
260640 On ch=1 n=f4 v=0
260640 On ch=1 n=c#5 v=0
260640 On ch=1 n=a3 v=70
260760 On ch=1 n=a3 v=0
261120 On ch=1 n=d#5 v=60
261120 On ch=1 n=c5 v=60
261120 On ch=1 n=f4 v=60
261600 On ch=1 n=f4 v=0
261600 On ch=1 n=c5 v=0
261600 On ch=1 n=d#5 v=0
261600 On ch=1 n=d#5 v=60
261600 On ch=1 n=c5 v=60
261600 On ch=1 n=f4 v=60
262080 On ch=1 n=f4 v=0
262080 On ch=1 n=c5 v=0
262080 On ch=1 n=d#5 v=0
262080 On ch=1 n=a#3 v=70
262200 On ch=1 n=a#3 v=0
262560 On ch=1 n=c#5 v=59
262560 On ch=1 n=a#4 v=59
262560 On ch=1 n=f4 v=59
263040 On ch=1 n=f4 v=0
263040 On ch=1 n=a#4 v=0
263040 On ch=1 n=c#5 v=0
263040 On ch=1 n=c#5 v=57
263040 On ch=1 n=a#4 v=57
263040 On ch=1 n=f4 v=57
263520 On ch=1 n=f4 v=0
263520 On ch=1 n=a#4 v=0
263520 On ch=1 n=c#5 v=0
263520 On ch=1 n=d#4 v=65
263640 On ch=1 n=d#4 v=0
264000 On ch=1 n=f#5 v=53
264000 On ch=1 n=c5 v=53
264000 On ch=1 n=a#4 v=53
264480 On ch=1 n=a#4 v=0
264480 On ch=1 n=c5 v=0
264480 On ch=1 n=f#5 v=0
264480 On ch=1 n=f#5 v=52
264480 On ch=1 n=c5 v=52
264480 On ch=1 n=a#4 v=52
264960 On ch=1 n=a#4 v=0
264960 On ch=1 n=c5 v=0
264960 On ch=1 n=f#5 v=0
264960 On ch=1 n=f4 v=60
265080 On ch=1 n=f4 v=0
265440 On ch=1 n=f5 v=48
265440 On ch=1 n=c#5 v=48
265440 On ch=1 n=a#4 v=48
265920 On ch=1 n=a#4 v=0
265920 On ch=1 n=c#5 v=0
265920 On ch=1 n=f5 v=0
265920 On ch=1 n=f5 v=46
265920 On ch=1 n=c#5 v=46
265920 On ch=1 n=a#4 v=46
266400 On ch=1 n=a#4 v=0
266400 On ch=1 n=c#5 v=0
266400 On ch=1 n=f5 v=0
266400 On ch=1 n=f4 v=55
266520 On ch=1 n=f4 v=0
266880 On ch=1 n=f5 v=43
266880 On ch=1 n=d#5 v=43
266880 On ch=1 n=a4 v=43
267360 On ch=1 n=a4 v=0
267360 On ch=1 n=d#5 v=0
267360 On ch=1 n=f5 v=0
267360 On ch=1 n=f5 v=41
267360 On ch=1 n=d#5 v=41
267360 On ch=1 n=a4 v=41
267840 On ch=1 n=a4 v=0
267840 On ch=1 n=d#5 v=0
267840 On ch=1 n=f5 v=0
267840 On ch=1 n=a#3 v=70
267960 On ch=1 n=a#3 v=0
268320 On ch=1 n=c#5 v=60
268320 On ch=1 n=f4 v=60
268800 On ch=1 n=f4 v=0
268800 On ch=1 n=c#5 v=0
268800 On ch=1 n=c#5 v=60
268800 On ch=1 n=f4 v=60
269280 On ch=1 n=f4 v=0
269280 On ch=1 n=c#5 v=0
269280 On ch=1 n=a#3 v=70
269400 On ch=1 n=a#3 v=0
269760 On ch=1 n=c#5 v=65
269760 On ch=1 n=f4 v=65
270240 On ch=1 n=f4 v=0
270240 On ch=1 n=c#5 v=0
270240 On ch=1 n=c#5 v=69
270240 On ch=1 n=f4 v=69
270720 On ch=1 n=f4 v=0
270720 On ch=1 n=c#5 v=0
270720 On ch=1 n=a#3 v=84
270840 On ch=1 n=a#3 v=0
271200 On ch=1 n=c#5 v=79
271200 On ch=1 n=f4 v=79
271680 On ch=1 n=f4 v=0
271680 On ch=1 n=c#5 v=0
271680 On ch=1 n=c#5 v=83
271680 On ch=1 n=f4 v=83
272160 On ch=1 n=f4 v=0
272160 On ch=1 n=c#5 v=0
272160 On ch=1 n=a3 v=98
272280 On ch=1 n=a3 v=0
272640 On ch=1 n=d#5 v=92
272640 On ch=1 n=c5 v=92
272640 On ch=1 n=f4 v=92
273120 On ch=1 n=f4 v=0
273120 On ch=1 n=c5 v=0
273120 On ch=1 n=d#5 v=0
273120 On ch=1 n=d#5 v=97
273120 On ch=1 n=c5 v=97
273120 On ch=1 n=f4 v=97
273600 On ch=1 n=f4 v=0
273600 On ch=1 n=c5 v=0
273600 On ch=1 n=d#5 v=0
273600 On ch=1 n=a#3 v=110
273720 On ch=1 n=a#3 v=0
274080 On ch=1 n=c#5 v=93
274080 On ch=1 n=a#4 v=93
274080 On ch=1 n=f4 v=93
274560 On ch=1 n=f4 v=0
274560 On ch=1 n=a#4 v=0
274560 On ch=1 n=c#5 v=0
274560 On ch=1 n=c#5 v=86
274560 On ch=1 n=a#4 v=86
274560 On ch=1 n=f4 v=86
275040 On ch=1 n=f4 v=0
275040 On ch=1 n=a#4 v=0
275040 On ch=1 n=c#5 v=0
275040 On ch=1 n=d#4 v=88
275160 On ch=1 n=d#4 v=0
275520 On ch=1 n=f#5 v=71
275520 On ch=1 n=c5 v=71
275520 On ch=1 n=a#4 v=71
276000 On ch=1 n=a#4 v=0
276000 On ch=1 n=c5 v=0
276000 On ch=1 n=f#5 v=0
276000 On ch=1 n=f#5 v=64
276000 On ch=1 n=c5 v=64
276000 On ch=1 n=a#4 v=64
276480 On ch=1 n=a#4 v=0
276480 On ch=1 n=c5 v=0
276480 On ch=1 n=f#5 v=0
276480 On ch=1 n=f4 v=70
276600 On ch=1 n=f4 v=0
276960 On ch=1 n=f5 v=60
276960 On ch=1 n=c#5 v=60
276960 On ch=1 n=a#4 v=60
277440 On ch=1 n=a#4 v=0
277440 On ch=1 n=c#5 v=0
277440 On ch=1 n=f5 v=0
277440 On ch=1 n=f5 v=60
277440 On ch=1 n=c#5 v=60
277440 On ch=1 n=a#4 v=60
277920 On ch=1 n=a#4 v=0
277920 On ch=1 n=c#5 v=0
277920 On ch=1 n=f5 v=0
277920 On ch=1 n=f4 v=70
278040 On ch=1 n=f4 v=0
278400 On ch=1 n=f5 v=60
278400 On ch=1 n=d#5 v=60
278400 On ch=1 n=a4 v=60
278880 On ch=1 n=a4 v=0
278880 On ch=1 n=d#5 v=0
278880 On ch=1 n=f5 v=0
278880 On ch=1 n=f5 v=60
278880 On ch=1 n=d#5 v=60
278880 On ch=1 n=a4 v=60
279360 On ch=1 n=a4 v=0
279360 On ch=1 n=d#5 v=0
279360 On ch=1 n=f5 v=0
279360 On ch=1 n=f5 v=60
279360 On ch=1 n=c#5 v=60
279360 On ch=1 n=a#4 v=60
279840 On ch=1 n=a#4 v=0
279840 On ch=1 n=c#5 v=0
279840 On ch=1 n=f5 v=0
282240 On ch=1 n=c#3 v=110
282360 On ch=1 n=c#3 v=0
282720 On ch=1 n=b4 v=100
282720 On ch=1 n=g#4 v=100
282720 On ch=1 n=c#4 v=100
283200 On ch=1 n=c#4 v=0
283200 On ch=1 n=g#4 v=0
283200 On ch=1 n=b4 v=0
283200 On ch=1 n=g#4 v=100
283200 On ch=1 n=b4 v=100
283200 On ch=1 n=c#4 v=100
283680 On ch=1 n=c#4 v=0
283680 On ch=1 n=b4 v=0
283680 On ch=1 n=g#4 v=0
283680 On ch=1 n=c#3 v=110
283800 On ch=1 n=c#3 v=0
284160 On ch=1 n=b4 v=102
284160 On ch=1 n=g#4 v=102
284160 On ch=1 n=c#4 v=102
284640 On ch=1 n=c#4 v=0
284640 On ch=1 n=g#4 v=0
284640 On ch=1 n=b4 v=0
284640 On ch=1 n=g#4 v=105
284640 On ch=1 n=b4 v=105
284640 On ch=1 n=c#4 v=105
285120 On ch=1 n=c#4 v=0
285120 On ch=1 n=b4 v=0
285120 On ch=1 n=g#4 v=0
285120 On ch=1 n=f#3 v=117
285240 On ch=1 n=f#3 v=0
285600 On ch=1 n=a#4 v=110
285600 On ch=1 n=f#4 v=110
285600 On ch=1 n=c#4 v=110
286080 On ch=1 n=c#4 v=0
286080 On ch=1 n=f#4 v=0
286080 On ch=1 n=a#4 v=0
286080 On ch=1 n=a#4 v=113
286080 On ch=1 n=f#4 v=113
286080 On ch=1 n=c#4 v=113
286560 On ch=1 n=c#4 v=0
286560 On ch=1 n=f#4 v=0
286560 On ch=1 n=a#4 v=0
286560 On ch=1 n=f#3 v=125
286680 On ch=1 n=f#3 v=0
287040 On ch=1 n=a#4 v=118
287040 On ch=1 n=d4 v=118
287520 On ch=1 n=d4 v=0
287520 On ch=1 n=a#4 v=0
287520 On ch=1 n=a#4 v=120
287520 On ch=1 n=d#4 v=120
288000 On ch=1 n=d#4 v=0
288000 On ch=1 n=a#4 v=0
288000 On ch=1 n=g#3 v=90
288120 On ch=1 n=g#3 v=0
288480 On ch=1 n=c5 v=80
288480 On ch=1 n=g#4 v=80
288480 On ch=1 n=d#4 v=80
288960 On ch=1 n=d#4 v=0
288960 On ch=1 n=g#4 v=0
288960 On ch=1 n=c5 v=0
288960 On ch=1 n=d#4 v=80
288960 On ch=1 n=g#4 v=80
288960 On ch=1 n=c5 v=80
289440 On ch=1 n=c5 v=0
289440 On ch=1 n=g#4 v=0
289440 On ch=1 n=d#4 v=0
289440 On ch=1 n=g#3 v=90
289560 On ch=1 n=g#3 v=0
289920 On ch=1 n=c5 v=80
289920 On ch=1 n=g#4 v=80
289920 On ch=1 n=d#4 v=80
290400 On ch=1 n=d#4 v=0
290400 On ch=1 n=g#4 v=0
290400 On ch=1 n=c5 v=0
290400 On ch=1 n=d#4 v=80
290400 On ch=1 n=g#4 v=80
290400 On ch=1 n=c5 v=80
290880 On ch=1 n=c5 v=0
290880 On ch=1 n=g#4 v=0
290880 On ch=1 n=d#4 v=0
290880 On ch=1 n=g#3 v=90
291000 On ch=1 n=g#3 v=0
291360 On ch=1 n=c5 v=80
291360 On ch=1 n=g#4 v=80
291360 On ch=1 n=d#4 v=80
291840 On ch=1 n=d#4 v=0
291840 On ch=1 n=g#4 v=0
291840 On ch=1 n=c5 v=0
291840 On ch=1 n=d#4 v=80
291840 On ch=1 n=g#4 v=80
291840 On ch=1 n=c5 v=80
292320 On ch=1 n=c5 v=0
292320 On ch=1 n=g#4 v=0
292320 On ch=1 n=d#4 v=0
292320 On ch=1 n=c#4 v=90
292800 On ch=1 n=c#5 v=80
292800 On ch=1 n=g#4 v=80
293280 On ch=1 n=g#4 v=0
293280 On ch=1 n=c#5 v=0
293280 On ch=1 n=c#5 v=80
293280 On ch=1 n=g#4 v=80
293760 On ch=1 n=g#4 v=0
293760 On ch=1 n=c#5 v=0
293760 On ch=1 n=c#4 v=0
293760 On ch=1 n=c#4 v=110
293880 On ch=1 n=c#4 v=0
295200 On ch=1 n=c#4 v=110
295320 On ch=1 n=c#4 v=0
305280 On ch=1 n=a#3 v=70
305400 On ch=1 n=a#3 v=0
305760 On ch=1 n=c#5 v=60
305760 On ch=1 n=f4 v=60
306240 On ch=1 n=f4 v=0
306240 On ch=1 n=c#5 v=0
306240 On ch=1 n=c#5 v=60
306240 On ch=1 n=f4 v=60
306720 On ch=1 n=f4 v=0
306720 On ch=1 n=c#5 v=0
306720 On ch=1 n=a3 v=70
306840 On ch=1 n=a3 v=0
307200 On ch=1 n=d#5 v=60
307200 On ch=1 n=c5 v=60
307200 On ch=1 n=f4 v=60
307680 On ch=1 n=f4 v=0
307680 On ch=1 n=c5 v=0
307680 On ch=1 n=d#5 v=0
307680 On ch=1 n=d#5 v=60
307680 On ch=1 n=c5 v=60
307680 On ch=1 n=f4 v=60
308160 On ch=1 n=f4 v=0
308160 On ch=1 n=c5 v=0
308160 On ch=1 n=d#5 v=0
308160 On ch=1 n=a#3 v=70
308280 On ch=1 n=a#3 v=0
308640 On ch=1 n=c#5 v=59
308640 On ch=1 n=a#4 v=59
308640 On ch=1 n=f4 v=59
309120 On ch=1 n=f4 v=0
309120 On ch=1 n=a#4 v=0
309120 On ch=1 n=c#5 v=0
309120 On ch=1 n=c#5 v=57
309120 On ch=1 n=a#4 v=57
309120 On ch=1 n=f4 v=57
309600 On ch=1 n=f4 v=0
309600 On ch=1 n=a#4 v=0
309600 On ch=1 n=c#5 v=0
309600 On ch=1 n=d#4 v=65
309720 On ch=1 n=d#4 v=0
310080 On ch=1 n=f#5 v=53
310080 On ch=1 n=c5 v=53
310080 On ch=1 n=a#4 v=53
310560 On ch=1 n=a#4 v=0
310560 On ch=1 n=c5 v=0
310560 On ch=1 n=f#5 v=0
310560 On ch=1 n=f#5 v=52
310560 On ch=1 n=c5 v=52
310560 On ch=1 n=a#4 v=52
311040 On ch=1 n=a#4 v=0
311040 On ch=1 n=c5 v=0
311040 On ch=1 n=f#5 v=0
311040 On ch=1 n=f4 v=60
311160 On ch=1 n=f4 v=0
311520 On ch=1 n=f5 v=48
311520 On ch=1 n=c#5 v=48
311520 On ch=1 n=a#4 v=48
312000 On ch=1 n=a#4 v=0
312000 On ch=1 n=c#5 v=0
312000 On ch=1 n=f5 v=0
312000 On ch=1 n=f5 v=46
312000 On ch=1 n=c#5 v=46
312000 On ch=1 n=a#4 v=46
312480 On ch=1 n=a#4 v=0
312480 On ch=1 n=c#5 v=0
312480 On ch=1 n=f5 v=0
312480 On ch=1 n=f4 v=55
312600 On ch=1 n=f4 v=0
312960 On ch=1 n=f5 v=43
312960 On ch=1 n=d#5 v=43
312960 On ch=1 n=a4 v=43
313440 On ch=1 n=a4 v=0
313440 On ch=1 n=d#5 v=0
313440 On ch=1 n=f5 v=0
313440 On ch=1 n=f5 v=41
313440 On ch=1 n=d#5 v=41
313440 On ch=1 n=a4 v=41
313920 On ch=1 n=a4 v=0
313920 On ch=1 n=d#5 v=0
313920 On ch=1 n=f5 v=0
313920 On ch=1 n=a#3 v=70
314040 On ch=1 n=a#3 v=0
314400 On ch=1 n=c#5 v=60
314400 On ch=1 n=f4 v=60
314880 On ch=1 n=f4 v=0
314880 On ch=1 n=c#5 v=0
314880 On ch=1 n=c#5 v=60
314880 On ch=1 n=f4 v=60
315360 On ch=1 n=f4 v=0
315360 On ch=1 n=c#5 v=0
315360 On ch=1 n=a#3 v=70
315480 On ch=1 n=a#3 v=0
315840 On ch=1 n=c#5 v=65
315840 On ch=1 n=f4 v=65
316320 On ch=1 n=f4 v=0
316320 On ch=1 n=c#5 v=0
316320 On ch=1 n=c#5 v=69
316320 On ch=1 n=f4 v=69
316800 On ch=1 n=f4 v=0
316800 On ch=1 n=c#5 v=0
316800 On ch=1 n=a#3 v=84
316920 On ch=1 n=a#3 v=0
317280 On ch=1 n=c#5 v=79
317280 On ch=1 n=f4 v=79
317760 On ch=1 n=f4 v=0
317760 On ch=1 n=c#5 v=0
317760 On ch=1 n=c#5 v=83
317760 On ch=1 n=f4 v=83
318240 On ch=1 n=f4 v=0
318240 On ch=1 n=c#5 v=0
318240 On ch=1 n=a3 v=98
318360 On ch=1 n=a3 v=0
318720 On ch=1 n=d#5 v=92
318720 On ch=1 n=c5 v=92
318720 On ch=1 n=f4 v=92
319200 On ch=1 n=f4 v=0
319200 On ch=1 n=c5 v=0
319200 On ch=1 n=d#5 v=0
319200 On ch=1 n=d#5 v=97
319200 On ch=1 n=c5 v=97
319200 On ch=1 n=f4 v=97
319680 On ch=1 n=f4 v=0
319680 On ch=1 n=c5 v=0
319680 On ch=1 n=d#5 v=0
319680 On ch=1 n=a#3 v=110
319800 On ch=1 n=a#3 v=0
320160 On ch=1 n=c#5 v=93
320160 On ch=1 n=a#4 v=93
320160 On ch=1 n=f4 v=93
320640 On ch=1 n=f4 v=0
320640 On ch=1 n=a#4 v=0
320640 On ch=1 n=c#5 v=0
320640 On ch=1 n=c#5 v=86
320640 On ch=1 n=a#4 v=86
320640 On ch=1 n=f4 v=86
321120 On ch=1 n=f4 v=0
321120 On ch=1 n=a#4 v=0
321120 On ch=1 n=c#5 v=0
321120 On ch=1 n=d#4 v=88
321240 On ch=1 n=d#4 v=0
321600 On ch=1 n=f#5 v=71
321600 On ch=1 n=c5 v=71
321600 On ch=1 n=a#4 v=71
322080 On ch=1 n=a#4 v=0
322080 On ch=1 n=c5 v=0
322080 On ch=1 n=f#5 v=0
322080 On ch=1 n=f#5 v=64
322080 On ch=1 n=c5 v=64
322080 On ch=1 n=a#4 v=64
322560 On ch=1 n=a#4 v=0
322560 On ch=1 n=c5 v=0
322560 On ch=1 n=f#5 v=0
322560 On ch=1 n=f4 v=70
322680 On ch=1 n=f4 v=0
323040 On ch=1 n=f5 v=60
323040 On ch=1 n=c#5 v=60
323040 On ch=1 n=a#4 v=60
323520 On ch=1 n=a#4 v=0
323520 On ch=1 n=c#5 v=0
323520 On ch=1 n=f5 v=0
323520 On ch=1 n=f5 v=60
323520 On ch=1 n=c#5 v=60
323520 On ch=1 n=a#4 v=60
324000 On ch=1 n=a#4 v=0
324000 On ch=1 n=c#5 v=0
324000 On ch=1 n=f5 v=0
324000 On ch=1 n=f4 v=70
324120 On ch=1 n=f4 v=0
324480 On ch=1 n=f5 v=60
324480 On ch=1 n=d#5 v=60
324480 On ch=1 n=a4 v=60
324960 On ch=1 n=a4 v=0
324960 On ch=1 n=d#5 v=0
324960 On ch=1 n=f5 v=0
324960 On ch=1 n=f5 v=60
324960 On ch=1 n=d#5 v=60
324960 On ch=1 n=a4 v=60
325440 On ch=1 n=a4 v=0
325440 On ch=1 n=d#5 v=0
325440 On ch=1 n=f5 v=0
325440 On ch=1 n=f5 v=60
325440 On ch=1 n=c#5 v=60
325440 On ch=1 n=a#4 v=60
325920 On ch=1 n=a#4 v=0
325920 On ch=1 n=c#5 v=0
325920 On ch=1 n=f5 v=0
328320 On ch=1 n=c#3 v=110
328440 On ch=1 n=c#3 v=0
328800 On ch=1 n=b4 v=100
328800 On ch=1 n=g#4 v=100
328800 On ch=1 n=c#4 v=100
329280 On ch=1 n=c#4 v=0
329280 On ch=1 n=g#4 v=0
329280 On ch=1 n=b4 v=0
329280 On ch=1 n=g#4 v=100
329280 On ch=1 n=b4 v=100
329280 On ch=1 n=c#4 v=100
329760 On ch=1 n=c#4 v=0
329760 On ch=1 n=b4 v=0
329760 On ch=1 n=g#4 v=0
329760 On ch=1 n=c#3 v=110
329880 On ch=1 n=c#3 v=0
330240 On ch=1 n=b4 v=102
330240 On ch=1 n=g#4 v=102
330240 On ch=1 n=c#4 v=102
330720 On ch=1 n=c#4 v=0
330720 On ch=1 n=g#4 v=0
330720 On ch=1 n=b4 v=0
330720 On ch=1 n=g#4 v=105
330720 On ch=1 n=b4 v=105
330720 On ch=1 n=c#4 v=105
331200 On ch=1 n=c#4 v=0
331200 On ch=1 n=b4 v=0
331200 On ch=1 n=g#4 v=0
331200 On ch=1 n=f#3 v=117
331320 On ch=1 n=f#3 v=0
331680 On ch=1 n=a#4 v=110
331680 On ch=1 n=f#4 v=110
331680 On ch=1 n=c#4 v=110
332160 On ch=1 n=c#4 v=0
332160 On ch=1 n=f#4 v=0
332160 On ch=1 n=a#4 v=0
332160 On ch=1 n=a#4 v=113
332160 On ch=1 n=f#4 v=113
332160 On ch=1 n=c#4 v=113
332640 On ch=1 n=c#4 v=0
332640 On ch=1 n=f#4 v=0
332640 On ch=1 n=a#4 v=0
332640 On ch=1 n=f#3 v=125
332760 On ch=1 n=f#3 v=0
333120 On ch=1 n=a#4 v=118
333120 On ch=1 n=d4 v=118
333600 On ch=1 n=d4 v=0
333600 On ch=1 n=a#4 v=0
333600 On ch=1 n=a#4 v=120
333600 On ch=1 n=d#4 v=120
334080 On ch=1 n=d#4 v=0
334080 On ch=1 n=a#4 v=0
334080 On ch=1 n=g#3 v=90
334200 On ch=1 n=g#3 v=0
334560 On ch=1 n=c5 v=80
334560 On ch=1 n=g#4 v=80
334560 On ch=1 n=d#4 v=80
335040 On ch=1 n=d#4 v=0
335040 On ch=1 n=g#4 v=0
335040 On ch=1 n=c5 v=0
335040 On ch=1 n=d#4 v=80
335040 On ch=1 n=g#4 v=80
335040 On ch=1 n=c5 v=80
335520 On ch=1 n=c5 v=0
335520 On ch=1 n=g#4 v=0
335520 On ch=1 n=d#4 v=0
335520 On ch=1 n=g#3 v=90
335640 On ch=1 n=g#3 v=0
336000 On ch=1 n=c5 v=80
336000 On ch=1 n=g#4 v=80
336000 On ch=1 n=d#4 v=80
336480 On ch=1 n=d#4 v=0
336480 On ch=1 n=g#4 v=0
336480 On ch=1 n=c5 v=0
336480 On ch=1 n=d#4 v=80
336480 On ch=1 n=g#4 v=80
336480 On ch=1 n=c5 v=80
336960 On ch=1 n=c5 v=0
336960 On ch=1 n=g#4 v=0
336960 On ch=1 n=d#4 v=0
336960 On ch=1 n=g#3 v=90
337080 On ch=1 n=g#3 v=0
337440 On ch=1 n=c5 v=80
337440 On ch=1 n=g#4 v=80
337440 On ch=1 n=d#4 v=80
337920 On ch=1 n=d#4 v=0
337920 On ch=1 n=g#4 v=0
337920 On ch=1 n=c5 v=0
337920 On ch=1 n=d#4 v=80
337920 On ch=1 n=g#4 v=80
337920 On ch=1 n=c5 v=80
338400 On ch=1 n=c5 v=0
338400 On ch=1 n=g#4 v=0
338400 On ch=1 n=d#4 v=0
338400 On ch=1 n=c#4 v=90
338880 On ch=1 n=c#5 v=80
338880 On ch=1 n=g#4 v=80
339360 On ch=1 n=g#4 v=0
339360 On ch=1 n=c#5 v=0
339360 On ch=1 n=c#5 v=80
339360 On ch=1 n=g#4 v=80
339840 On ch=1 n=g#4 v=0
339840 On ch=1 n=c#5 v=0
339840 On ch=1 n=c#4 v=0
339840 On ch=1 n=c#4 v=110
339960 On ch=1 n=c#4 v=0
341280 On ch=1 n=c#4 v=110
341400 On ch=1 n=c#4 v=0
351360 On ch=1 n=a#3 v=70
351840 On ch=1 n=c#5 v=60
351840 On ch=1 n=f#4 v=60
352320 On ch=1 n=f#4 v=0
352320 On ch=1 n=c#5 v=0
352320 On ch=1 n=c#5 v=60
352320 On ch=1 n=f#4 v=60
352800 On ch=1 n=f#4 v=0
352800 On ch=1 n=c#5 v=0
352800 On ch=1 n=a#3 v=0
352800 On ch=1 n=b3 v=70
353280 On ch=1 n=b3 v=0
353280 On ch=1 n=d#5 v=60
353280 On ch=1 n=g#4 v=60
353280 On ch=1 n=f#4 v=60
353760 On ch=1 n=f#4 v=0
353760 On ch=1 n=g#4 v=0
353760 On ch=1 n=d#5 v=0
353760 On ch=1 n=d#5 v=60
353760 On ch=1 n=g#4 v=60
353760 On ch=1 n=f#4 v=60
354240 On ch=1 n=f#4 v=0
354240 On ch=1 n=g#4 v=0
354240 On ch=1 n=d#5 v=0
354240 On ch=1 n=c#4 v=70
354720 On ch=1 n=b4 v=60
354720 On ch=1 n=f4 v=60
355200 On ch=1 n=f4 v=0
355200 On ch=1 n=b4 v=0
355200 On ch=1 n=b4 v=60
355200 On ch=1 n=f4 v=60
355680 On ch=1 n=f4 v=0
355680 On ch=1 n=b4 v=0
355680 On ch=1 n=c#4 v=0
355680 On ch=1 n=f#3 v=70
356160 On ch=1 n=f#3 v=0
356160 On ch=1 n=c#4 v=60
356160 On ch=1 n=a#4 v=60
356640 On ch=1 n=a#4 v=0
356640 On ch=1 n=c#4 v=0
356640 On ch=1 n=c#4 v=60
356640 On ch=1 n=a#4 v=60
357120 On ch=1 n=a#4 v=0
357120 On ch=1 n=c#4 v=0
357120 On ch=1 n=a#3 v=70
357600 On ch=1 n=c#5 v=60
357600 On ch=1 n=f#4 v=60
358080 On ch=1 n=f#4 v=0
358080 On ch=1 n=c#5 v=0
358080 On ch=1 n=c#5 v=60
358080 On ch=1 n=f#4 v=60
358560 On ch=1 n=f#4 v=0
358560 On ch=1 n=c#5 v=0
358560 On ch=1 n=a#3 v=0
358560 On ch=1 n=b3 v=70
359040 On ch=1 n=b3 v=0
359040 On ch=1 n=d#5 v=60
359040 On ch=1 n=g#4 v=60
359040 On ch=1 n=f#4 v=60
359520 On ch=1 n=f#4 v=0
359520 On ch=1 n=g#4 v=0
359520 On ch=1 n=d#5 v=0
359520 On ch=1 n=d#5 v=60
359520 On ch=1 n=g#4 v=60
359520 On ch=1 n=f#4 v=60
360000 On ch=1 n=f#4 v=0
360000 On ch=1 n=g#4 v=0
360000 On ch=1 n=d#5 v=0
360000 On ch=1 n=c#4 v=70
360480 On ch=1 n=b4 v=60
360480 On ch=1 n=f4 v=60
360960 On ch=1 n=f4 v=0
360960 On ch=1 n=b4 v=0
360960 On ch=1 n=b4 v=60
360960 On ch=1 n=f4 v=60
361440 On ch=1 n=f4 v=0
361440 On ch=1 n=b4 v=0
361440 On ch=1 n=c#4 v=0
361440 On ch=1 n=f#3 v=70
361920 On ch=1 n=f#3 v=0
361920 On ch=1 n=c#4 v=60
361920 On ch=1 n=a#4 v=60
362400 On ch=1 n=a#4 v=0
362400 On ch=1 n=c#4 v=0
362400 On ch=1 n=c#4 v=60
362400 On ch=1 n=a#4 v=60
362880 On ch=1 n=a#4 v=0
362880 On ch=1 n=c#4 v=0
362880 On ch=1 n=a#3 v=70
363360 On ch=1 n=c#5 v=60
363360 On ch=1 n=f#4 v=60
363840 On ch=1 n=f#4 v=0
363840 On ch=1 n=c#5 v=0
363840 On ch=1 n=c#5 v=60
363840 On ch=1 n=f#4 v=60
364320 On ch=1 n=f#4 v=0
364320 On ch=1 n=c#5 v=0
364320 On ch=1 n=a#3 v=0
364320 On ch=1 n=b3 v=70
364800 On ch=1 n=b3 v=0
364800 On ch=1 n=d#5 v=60
364800 On ch=1 n=g4 v=60
365280 On ch=1 n=g4 v=0
365280 On ch=1 n=d#5 v=0
365280 On ch=1 n=d#5 v=60
365280 On ch=1 n=g#4 v=60
365760 On ch=1 n=g#4 v=0
365760 On ch=1 n=d#5 v=0
365760 On ch=1 n=c#4 v=70
366240 On ch=1 n=b4 v=60
366240 On ch=1 n=f4 v=60
366720 On ch=1 n=f4 v=0
366720 On ch=1 n=b4 v=0
366720 On ch=1 n=b4 v=60
366720 On ch=1 n=f4 v=60
367200 On ch=1 n=f4 v=0
367200 On ch=1 n=b4 v=0
367200 On ch=1 n=c#4 v=0
367200 On ch=1 n=f#3 v=70
367680 On ch=1 n=f#3 v=0
367680 On ch=1 n=c#4 v=62
367680 On ch=1 n=a#4 v=62
368160 On ch=1 n=a#4 v=0
368160 On ch=1 n=c#4 v=0
368160 On ch=1 n=c#4 v=65
368160 On ch=1 n=a#4 v=65
368640 On ch=1 n=a#4 v=0
368640 On ch=1 n=c#4 v=0
368640 On ch=1 n=a#3 v=78
369120 On ch=1 n=c#5 v=71
369120 On ch=1 n=f#4 v=71
369600 On ch=1 n=f#4 v=0
369600 On ch=1 n=c#5 v=0
369600 On ch=1 n=c#5 v=74
369600 On ch=1 n=f#4 v=74
370080 On ch=1 n=f#4 v=0
370080 On ch=1 n=c#5 v=0
370080 On ch=1 n=a#3 v=0
370080 On ch=1 n=b3 v=87
370560 On ch=1 n=b3 v=0
370560 On ch=1 n=d#5 v=79
370560 On ch=1 n=g#4 v=79
370560 On ch=1 n=f#4 v=79
371040 On ch=1 n=f#4 v=0
371040 On ch=1 n=g#4 v=0
371040 On ch=1 n=d#5 v=0
371040 On ch=1 n=d#5 v=82
371040 On ch=1 n=g#4 v=82
371040 On ch=1 n=f#4 v=82
371520 On ch=1 n=f#4 v=0
371520 On ch=1 n=g#4 v=0
371520 On ch=1 n=d#5 v=0
371520 On ch=1 n=c#4 v=95
372000 On ch=1 n=b4 v=88
372000 On ch=1 n=f4 v=88
372480 On ch=1 n=f4 v=0
372480 On ch=1 n=b4 v=0
372480 On ch=1 n=b4 v=91
372480 On ch=1 n=f4 v=91
372960 On ch=1 n=f4 v=0
372960 On ch=1 n=b4 v=0
372960 On ch=1 n=c#4 v=0
372960 On ch=1 n=f#3 v=104
373440 On ch=1 n=f#3 v=0
373440 On ch=1 n=c#4 v=97
373440 On ch=1 n=a#4 v=97
373920 On ch=1 n=a#4 v=0
373920 On ch=1 n=c#4 v=0
374400 On ch=1 n=a#2 v=100
374400 On ch=1 n=a#3 v=100
374520 On ch=1 n=a#3 v=0
374520 On ch=1 n=a#2 v=0
375360 On ch=1 n=f5 v=100
375360 On ch=1 n=a#4 v=100
375360 On ch=1 n=g#4 v=100
375840 On ch=1 n=g#4 v=0
375840 On ch=1 n=a#4 v=0
375840 On ch=1 n=f5 v=0
375840 On ch=1 n=e5 v=100
375840 On ch=1 n=a#4 v=100
375840 On ch=1 n=g4 v=100
376320 On ch=1 n=g4 v=0
376320 On ch=1 n=a#4 v=0
376320 On ch=1 n=e5 v=0
376800 On ch=1 n=d#5 v=100
376800 On ch=1 n=a#4 v=100
376800 On ch=1 n=f#4 v=100
377280 On ch=1 n=f#4 v=0
377280 On ch=1 n=a#4 v=0
377280 On ch=1 n=d#5 v=0
377280 On ch=1 n=d5 v=100
377280 On ch=1 n=a#4 v=100
377280 On ch=1 n=f4 v=100
377760 On ch=1 n=f4 v=0
377760 On ch=1 n=a#4 v=0
377760 On ch=1 n=d5 v=0
377760 On ch=1 n=a#2 v=110
377760 On ch=1 n=a#3 v=110
377880 On ch=1 n=a#3 v=0
377880 On ch=1 n=a#2 v=0
378000 On ch=1 n=a#2 v=110
378000 On ch=1 n=a#3 v=110
378120 On ch=1 n=a#3 v=0
378120 On ch=1 n=a#2 v=0
378240 On ch=1 n=a#2 v=110
378240 On ch=1 n=a#3 v=110
378360 On ch=1 n=a#3 v=0
378360 On ch=1 n=a#2 v=0
378720 On ch=1 n=a#2 v=110
378720 On ch=1 n=a#3 v=110
378840 On ch=1 n=a#3 v=0
378840 On ch=1 n=a#2 v=0
378960 On ch=1 n=a#2 v=110
378960 On ch=1 n=a#3 v=110
379080 On ch=1 n=a#3 v=0
379080 On ch=1 n=a#2 v=0
379200 On ch=1 n=a#2 v=110
379200 On ch=1 n=a#3 v=110
379320 On ch=1 n=a#3 v=0
379320 On ch=1 n=a#2 v=0
379680 On ch=1 n=a#2 v=110
379680 On ch=1 n=a#3 v=110
379800 On ch=1 n=a#3 v=0
379800 On ch=1 n=a#2 v=0
379920 On ch=1 n=a#2 v=110
379920 On ch=1 n=a#3 v=110
380040 On ch=1 n=a#3 v=0
380040 On ch=1 n=a#2 v=0
380160 On ch=1 n=a#2 v=110
380160 On ch=1 n=a#3 v=110
380280 On ch=1 n=a#3 v=0
380280 On ch=1 n=a#2 v=0
381120 On ch=1 n=g#4 v=60
381120 On ch=1 n=a#3 v=60
381600 On ch=1 n=a#3 v=0
381600 On ch=1 n=g#4 v=0
381600 On ch=1 n=a#3 v=64
381600 On ch=1 n=g4 v=64
382080 On ch=1 n=g4 v=0
382080 On ch=1 n=a#3 v=0
382560 On ch=1 n=a#3 v=72
382560 On ch=1 n=f#4 v=72
383040 On ch=1 n=f#4 v=0
383040 On ch=1 n=a#3 v=0
383040 On ch=1 n=a#3 v=76
383040 On ch=1 n=f4 v=76
383520 On ch=1 n=f4 v=0
383520 On ch=1 n=a#3 v=0
385920 On ch=1 n=a#2 v=110
385920 On ch=1 n=a#3 v=110
386040 On ch=1 n=a#3 v=0
386040 On ch=1 n=a#2 v=0
386400 On ch=1 n=g#5 v=102
386400 On ch=1 n=f5 v=102
386400 On ch=1 n=a#4 v=102
386880 On ch=1 n=a#4 v=0
386880 On ch=1 n=f5 v=0
386880 On ch=1 n=g#5 v=0
386880 On ch=1 n=g#5 v=104
386880 On ch=1 n=f5 v=104
386880 On ch=1 n=a#4 v=104
387360 On ch=1 n=a#4 v=0
387360 On ch=1 n=f5 v=0
387360 On ch=1 n=g#5 v=0
387360 On ch=1 n=d#3 v=117
387360 On ch=1 n=d#4 v=117
387480 On ch=1 n=d#4 v=0
387480 On ch=1 n=d#3 v=0
387840 On ch=1 n=g5 v=109
387840 On ch=1 n=d#5 v=109
387840 On ch=1 n=a#4 v=109
388320 On ch=1 n=a#4 v=0
388320 On ch=1 n=d#5 v=0
388320 On ch=1 n=g5 v=0
388320 On ch=1 n=g5 v=111
388320 On ch=1 n=d#5 v=111
388320 On ch=1 n=a#4 v=111
388800 On ch=1 n=a#4 v=0
388800 On ch=1 n=d#5 v=0
388800 On ch=1 n=g5 v=0
388800 On ch=1 n=a#4 v=124
388800 On ch=1 n=a#3 v=124
388920 On ch=1 n=a#3 v=0
388920 On ch=1 n=a#4 v=0
389280 On ch=1 n=g#5 v=116
389280 On ch=1 n=d5 v=116
389280 On ch=1 n=a#4 v=116
389760 On ch=1 n=a#4 v=0
389760 On ch=1 n=d5 v=0
389760 On ch=1 n=g#5 v=0
389760 On ch=1 n=g#5 v=118
389760 On ch=1 n=d5 v=118
389760 On ch=1 n=a#4 v=118
390240 On ch=1 n=a#4 v=0
390240 On ch=1 n=d5 v=0
390240 On ch=1 n=g#5 v=0
390240 On ch=1 n=d#4 v=110
390360 On ch=1 n=d#4 v=0
390720 On ch=1 n=g5 v=98
390720 On ch=1 n=c#5 v=98
390720 On ch=1 n=a#4 v=98
390840 On ch=1 n=a#4 v=0
390840 On ch=1 n=c#5 v=0
390840 On ch=1 n=g5 v=0
391200 On ch=1 n=e4 v=95
391680 On ch=1 n=e4 v=0
391680 On ch=1 n=f4 v=102
391800 On ch=1 n=f4 v=0
392160 On ch=1 n=f5 v=89
392160 On ch=1 n=g#4 v=89
392280 On ch=1 n=g#4 v=0
392280 On ch=1 n=f5 v=0
392640 On ch=1 n=g#3 v=86
392760 On ch=1 n=g#3 v=0
393120 On ch=1 n=a#3 v=93
393240 On ch=1 n=a#3 v=0
393600 On ch=1 n=d#5 v=80
393600 On ch=1 n=g4 v=80
394080 On ch=1 n=g4 v=0
394080 On ch=1 n=d#5 v=0
394080 On ch=1 n=d#5 v=77
394080 On ch=1 n=g4 v=77
394560 On ch=1 n=g4 v=0
394560 On ch=1 n=d#5 v=0
394560 On ch=1 n=a#3 v=84
394680 On ch=1 n=a#3 v=0
395040 On ch=1 n=d5 v=71
395040 On ch=1 n=f4 v=71
395520 On ch=1 n=f4 v=0
395520 On ch=1 n=d5 v=0
395520 On ch=1 n=d5 v=68
395520 On ch=1 n=a#4 v=68
396000 On ch=1 n=a#4 v=0
396000 On ch=1 n=d5 v=0
396000 On ch=1 n=d#4 v=75
396480 On ch=1 n=d#5 v=62
396480 On ch=1 n=a#4 v=62
396960 On ch=1 n=a#4 v=0
396960 On ch=1 n=d#5 v=0
396960 On ch=1 n=d#5 v=60
396960 On ch=1 n=a#4 v=60
397440 On ch=1 n=a#4 v=0
397440 On ch=1 n=d#5 v=0
397440 On ch=1 n=d#4 v=0
397440 On ch=1 n=a#3 v=120
397440 On ch=1 n=a#4 v=120
397560 On ch=1 n=a#4 v=0
397560 On ch=1 n=a#3 v=0
397920 On ch=1 n=g#5 v=110
397920 On ch=1 n=f5 v=110
397920 On ch=1 n=a#4 v=110
398400 On ch=1 n=a#4 v=0
398400 On ch=1 n=f5 v=0
398400 On ch=1 n=g#5 v=0
398400 On ch=1 n=g#5 v=110
398400 On ch=1 n=f5 v=110
398400 On ch=1 n=a#4 v=110
398880 On ch=1 n=a#4 v=0
398880 On ch=1 n=f5 v=0
398880 On ch=1 n=g#5 v=0
398880 On ch=1 n=d#3 v=120
398880 On ch=1 n=d#4 v=120
399000 On ch=1 n=d#4 v=0
399000 On ch=1 n=d#3 v=0
399360 On ch=1 n=g5 v=110
399360 On ch=1 n=d#5 v=110
399360 On ch=1 n=a#4 v=110
399840 On ch=1 n=a#4 v=0
399840 On ch=1 n=d#5 v=0
399840 On ch=1 n=g5 v=0
399840 On ch=1 n=g5 v=110
399840 On ch=1 n=d#5 v=110
399840 On ch=1 n=a#4 v=110
400320 On ch=1 n=a#4 v=0
400320 On ch=1 n=d#5 v=0
400320 On ch=1 n=g5 v=0
400320 On ch=1 n=a#3 v=120
400320 On ch=1 n=a#4 v=120
400440 On ch=1 n=a#4 v=0
400440 On ch=1 n=a#3 v=0
400800 On ch=1 n=g#5 v=110
400800 On ch=1 n=d5 v=110
400800 On ch=1 n=a#4 v=110
401280 On ch=1 n=a#4 v=0
401280 On ch=1 n=d5 v=0
401280 On ch=1 n=g#5 v=0
401280 On ch=1 n=g#5 v=110
401280 On ch=1 n=d5 v=110
401280 On ch=1 n=a#4 v=110
401760 On ch=1 n=a#4 v=0
401760 On ch=1 n=d5 v=0
401760 On ch=1 n=g#5 v=0
401760 On ch=1 n=d#4 v=120
401880 On ch=1 n=d#4 v=0
402240 On ch=1 n=g5 v=110
402240 On ch=1 n=c#5 v=110
402240 On ch=1 n=a#4 v=110
402360 On ch=1 n=a#4 v=0
402360 On ch=1 n=c#5 v=0
402360 On ch=1 n=g5 v=0
402720 On ch=1 n=e4 v=110
403200 On ch=1 n=e4 v=0
403200 On ch=1 n=f4 v=120
403320 On ch=1 n=f4 v=0
403680 On ch=1 n=f5 v=106
403680 On ch=1 n=g#4 v=106
403800 On ch=1 n=g#4 v=0
403800 On ch=1 n=f5 v=0
404160 On ch=1 n=g#3 v=102
404280 On ch=1 n=g#3 v=0
404640 On ch=1 n=a#3 v=107
404760 On ch=1 n=a#3 v=0
405120 On ch=1 n=d#5 v=93
405120 On ch=1 n=g4 v=93
405600 On ch=1 n=g4 v=0
405600 On ch=1 n=d#5 v=0
405600 On ch=1 n=d#5 v=88
405600 On ch=1 n=g4 v=88
406080 On ch=1 n=g4 v=0
406080 On ch=1 n=d#5 v=0
406080 On ch=1 n=a#3 v=94
406200 On ch=1 n=a#3 v=0
406560 On ch=1 n=d5 v=79
406560 On ch=1 n=f4 v=79
407040 On ch=1 n=f4 v=0
407040 On ch=1 n=d5 v=0
407040 On ch=1 n=d5 v=75
407040 On ch=1 n=a#4 v=75
407520 On ch=1 n=d5 v=0
407520 On ch=1 n=d#5 v=71
407520 On ch=1 n=d#4 v=71
408000 On ch=1 n=d#4 v=0
408000 On ch=1 n=d#5 v=0
408000 On ch=1 n=a#4 v=0
408480 On ch=1 n=c#5 v=62
408480 On ch=1 n=g4 v=62
408480 On ch=1 n=d#4 v=62
408960 On ch=1 n=d#4 v=0
408960 On ch=1 n=g4 v=0
408960 On ch=1 n=c#5 v=0
408960 On ch=1 n=g#3 v=70
409440 On ch=1 n=g#3 v=0
409440 On ch=1 n=c5 v=60
409440 On ch=1 n=g#4 v=60
409440 On ch=1 n=d#4 v=60
409920 On ch=1 n=d#4 v=0
409920 On ch=1 n=g#4 v=0
409920 On ch=1 n=c5 v=0
409920 On ch=1 n=g#4 v=60
409920 On ch=1 n=c5 v=60
409920 On ch=1 n=d#4 v=60
410400 On ch=1 n=d#4 v=0
410400 On ch=1 n=c5 v=0
410400 On ch=1 n=g#4 v=0
410400 On ch=1 n=g#3 v=70
410880 On ch=1 n=g#3 v=0
410880 On ch=1 n=c5 v=60
410880 On ch=1 n=g#4 v=60
410880 On ch=1 n=d#4 v=60
411360 On ch=1 n=d#4 v=0
411360 On ch=1 n=g#4 v=0
411360 On ch=1 n=c5 v=0
411360 On ch=1 n=g#4 v=60
411360 On ch=1 n=c5 v=60
411360 On ch=1 n=d#4 v=60
411840 On ch=1 n=d#4 v=0
411840 On ch=1 n=c5 v=0
411840 On ch=1 n=g#4 v=0
411840 On ch=1 n=g#3 v=70
412320 On ch=1 n=g#3 v=0
412320 On ch=1 n=b4 v=60
412320 On ch=1 n=g#4 v=60
412320 On ch=1 n=d4 v=60
412800 On ch=1 n=d4 v=0
412800 On ch=1 n=g#4 v=0
412800 On ch=1 n=b4 v=0
412800 On ch=1 n=g#4 v=60
412800 On ch=1 n=b4 v=60
412800 On ch=1 n=d4 v=60
413280 On ch=1 n=d4 v=0
413280 On ch=1 n=b4 v=0
413280 On ch=1 n=g#4 v=0
413280 On ch=1 n=g#3 v=70
413760 On ch=1 n=g#3 v=0
413760 On ch=1 n=c5 v=60
413760 On ch=1 n=g#4 v=60
413760 On ch=1 n=d#4 v=60
414240 On ch=1 n=d#4 v=0
414240 On ch=1 n=g#4 v=0
414240 On ch=1 n=c5 v=0
414240 On ch=1 n=g#4 v=60
414240 On ch=1 n=c5 v=60
414240 On ch=1 n=d#4 v=60
414720 On ch=1 n=d#4 v=0
414720 On ch=1 n=c5 v=0
414720 On ch=1 n=g#4 v=0
414720 On ch=1 n=d4 v=70
415200 On ch=1 n=d4 v=0
415200 On ch=1 n=f5 v=60
415200 On ch=1 n=b4 v=60
415200 On ch=1 n=g#4 v=60
415680 On ch=1 n=g#4 v=0
415680 On ch=1 n=b4 v=0
415680 On ch=1 n=f5 v=0
415680 On ch=1 n=f5 v=60
415680 On ch=1 n=g#4 v=60
415680 On ch=1 n=b4 v=60
416160 On ch=1 n=b4 v=0
416160 On ch=1 n=g#4 v=0
416160 On ch=1 n=f5 v=0
416160 On ch=1 n=d#4 v=70
416640 On ch=1 n=d#4 v=0
417600 On ch=1 n=d#4 v=70
418080 On ch=1 n=d#4 v=0
420480 On ch=1 n=g#3 v=70
420960 On ch=1 n=g#3 v=0
420960 On ch=1 n=c5 v=60
420960 On ch=1 n=g#4 v=60
420960 On ch=1 n=d#4 v=60
421440 On ch=1 n=d#4 v=0
421440 On ch=1 n=g#4 v=0
421440 On ch=1 n=c5 v=0
421440 On ch=1 n=g#4 v=60
421440 On ch=1 n=c5 v=60
421440 On ch=1 n=d#4 v=60
421920 On ch=1 n=d#4 v=0
421920 On ch=1 n=c5 v=0
421920 On ch=1 n=g#4 v=0
421920 On ch=1 n=g#3 v=70
422400 On ch=1 n=g#3 v=0
422400 On ch=1 n=c5 v=60
422400 On ch=1 n=g#4 v=60
422400 On ch=1 n=d#4 v=60
422880 On ch=1 n=d#4 v=0
422880 On ch=1 n=g#4 v=0
422880 On ch=1 n=c5 v=0
422880 On ch=1 n=g#4 v=60
422880 On ch=1 n=c5 v=60
422880 On ch=1 n=d#4 v=60
423360 On ch=1 n=d#4 v=0
423360 On ch=1 n=c5 v=0
423360 On ch=1 n=g#4 v=0
423360 On ch=1 n=g#3 v=70
423840 On ch=1 n=g#3 v=0
423840 On ch=1 n=b4 v=60
423840 On ch=1 n=g#4 v=60
423840 On ch=1 n=d4 v=60
424320 On ch=1 n=d4 v=0
424320 On ch=1 n=g#4 v=0
424320 On ch=1 n=b4 v=0
424320 On ch=1 n=g#4 v=60
424320 On ch=1 n=b4 v=60
424320 On ch=1 n=d4 v=60
424800 On ch=1 n=d4 v=0
424800 On ch=1 n=b4 v=0
424800 On ch=1 n=g#4 v=0
424800 On ch=1 n=g#3 v=70
425280 On ch=1 n=g#3 v=0
425280 On ch=1 n=c5 v=62
425280 On ch=1 n=g#4 v=62
425280 On ch=1 n=d#4 v=62
425760 On ch=1 n=d#4 v=0
425760 On ch=1 n=g#4 v=0
425760 On ch=1 n=c5 v=0
425760 On ch=1 n=g#4 v=64
425760 On ch=1 n=c5 v=64
425760 On ch=1 n=d#4 v=64
426240 On ch=1 n=d#4 v=0
426240 On ch=1 n=c5 v=0
426240 On ch=1 n=g#4 v=0
426240 On ch=1 n=d4 v=76
426720 On ch=1 n=d4 v=0
426720 On ch=1 n=f5 v=68
426720 On ch=1 n=b4 v=68
426720 On ch=1 n=g#4 v=68
427200 On ch=1 n=g#4 v=0
427200 On ch=1 n=b4 v=0
427200 On ch=1 n=f5 v=0
427200 On ch=1 n=f5 v=70
427200 On ch=1 n=g#4 v=70
427200 On ch=1 n=b4 v=70
427680 On ch=1 n=b4 v=0
427680 On ch=1 n=g#4 v=0
427680 On ch=1 n=f5 v=0
427680 On ch=1 n=d#4 v=82
428160 On ch=1 n=d#4 v=0
429120 On ch=1 n=d#4 v=88
429600 On ch=1 n=d#4 v=0
432000 On ch=1 n=a#3 v=101
432000 On ch=1 n=a#4 v=101
432120 On ch=1 n=a#4 v=0
432120 On ch=1 n=a#3 v=0
432480 On ch=1 n=g#5 v=93
432480 On ch=1 n=f5 v=93
432480 On ch=1 n=a#4 v=93
432960 On ch=1 n=a#4 v=0
432960 On ch=1 n=f5 v=0
432960 On ch=1 n=g#5 v=0
432960 On ch=1 n=g#5 v=95
432960 On ch=1 n=f5 v=95
432960 On ch=1 n=a#4 v=95
433440 On ch=1 n=a#4 v=0
433440 On ch=1 n=f5 v=0
433440 On ch=1 n=g#5 v=0
433440 On ch=1 n=d#4 v=107
433560 On ch=1 n=d#4 v=0
433920 On ch=1 n=g5 v=99
433920 On ch=1 n=d#5 v=99
433920 On ch=1 n=a#4 v=99
434400 On ch=1 n=a#4 v=0
434400 On ch=1 n=d#5 v=0
434400 On ch=1 n=g5 v=0
434400 On ch=1 n=a#4 v=102
434400 On ch=1 n=d#5 v=102
434400 On ch=1 n=g5 v=102
434880 On ch=1 n=g5 v=0
434880 On ch=1 n=d#5 v=0
434880 On ch=1 n=a#4 v=0
434880 On ch=1 n=d4 v=114
435000 On ch=1 n=d4 v=0
435360 On ch=1 n=g#5 v=106
435360 On ch=1 n=f5 v=106
435360 On ch=1 n=a#4 v=106
435840 On ch=1 n=a#4 v=0
435840 On ch=1 n=f5 v=0
435840 On ch=1 n=g#5 v=0
435840 On ch=1 n=a#4 v=108
435840 On ch=1 n=f5 v=108
435840 On ch=1 n=g#5 v=108
436320 On ch=1 n=g#5 v=0
436320 On ch=1 n=f5 v=0
436320 On ch=1 n=a#4 v=0
436320 On ch=1 n=d#4 v=120
436440 On ch=1 n=d#4 v=0
436800 On ch=1 n=g5 v=112
436800 On ch=1 n=c#5 v=112
436800 On ch=1 n=a#4 v=112
436920 On ch=1 n=a#4 v=0
436920 On ch=1 n=c#5 v=0
436920 On ch=1 n=g5 v=0
437280 On ch=1 n=e4 v=114
437760 On ch=1 n=e4 v=0
437760 On ch=1 n=f4 v=126
437880 On ch=1 n=f4 v=0
438240 On ch=1 n=f5 v=118
438240 On ch=1 n=g#4 v=118
438360 On ch=1 n=g#4 v=0
438360 On ch=1 n=f5 v=0
438720 On ch=1 n=g#3 v=120
438840 On ch=1 n=g#3 v=0
439200 On ch=1 n=a#3 v=127
439320 On ch=1 n=a#3 v=0
439680 On ch=1 n=d#5 v=113
439680 On ch=1 n=g4 v=113
440160 On ch=1 n=g4 v=0
440160 On ch=1 n=d#5 v=0
440160 On ch=1 n=d#5 v=105
440160 On ch=1 n=g4 v=105
440640 On ch=1 n=g4 v=0
440640 On ch=1 n=d#5 v=0
440640 On ch=1 n=a#3 v=107
440760 On ch=1 n=a#3 v=0
441120 On ch=1 n=d5 v=89
441120 On ch=1 n=f4 v=89
441600 On ch=1 n=f4 v=0
441600 On ch=1 n=d5 v=0
441600 On ch=1 n=d5 v=81
441600 On ch=1 n=a#4 v=81
442080 On ch=1 n=a#4 v=0
442080 On ch=1 n=d5 v=0
442080 On ch=1 n=d#4 v=83
442560 On ch=1 n=d#5 v=65
442560 On ch=1 n=a#4 v=65
443040 On ch=1 n=a#4 v=0
443040 On ch=1 n=d#5 v=0
443040 On ch=1 n=d#5 v=60
443040 On ch=1 n=a#4 v=60
443520 On ch=1 n=a#4 v=0
443520 On ch=1 n=d#5 v=0
443520 On ch=1 n=d#4 v=0
443520 On ch=1 n=a#2 v=120
443520 On ch=1 n=a#3 v=120
443640 On ch=1 n=a#3 v=0
443640 On ch=1 n=a#2 v=0
444000 On ch=1 n=g#5 v=110
444000 On ch=1 n=f5 v=110
444000 On ch=1 n=a#4 v=110
444480 On ch=1 n=a#4 v=0
444480 On ch=1 n=f5 v=0
444480 On ch=1 n=g#5 v=0
444480 On ch=1 n=a#4 v=110
444480 On ch=1 n=f5 v=110
444480 On ch=1 n=g#5 v=110
444960 On ch=1 n=g#5 v=0
444960 On ch=1 n=f5 v=0
444960 On ch=1 n=a#4 v=0
444960 On ch=1 n=d#3 v=120
444960 On ch=1 n=d#4 v=120
445080 On ch=1 n=d#4 v=0
445080 On ch=1 n=d#3 v=0
445440 On ch=1 n=g5 v=110
445440 On ch=1 n=d#5 v=110
445440 On ch=1 n=a#4 v=110
445920 On ch=1 n=a#4 v=0
445920 On ch=1 n=d#5 v=0
445920 On ch=1 n=g5 v=0
445920 On ch=1 n=a#4 v=110
445920 On ch=1 n=d#5 v=110
445920 On ch=1 n=g5 v=110
446400 On ch=1 n=g5 v=0
446400 On ch=1 n=d#5 v=0
446400 On ch=1 n=a#4 v=0
446400 On ch=1 n=a#3 v=120
446400 On ch=1 n=a#4 v=120
446520 On ch=1 n=a#4 v=0
446520 On ch=1 n=a#3 v=0
446880 On ch=1 n=g#5 v=110
446880 On ch=1 n=d5 v=110
446880 On ch=1 n=a#4 v=110
447360 On ch=1 n=a#4 v=0
447360 On ch=1 n=d5 v=0
447360 On ch=1 n=g#5 v=0
447360 On ch=1 n=g#5 v=110
447360 On ch=1 n=d5 v=110
447360 On ch=1 n=a#4 v=110
447840 On ch=1 n=a#4 v=0
447840 On ch=1 n=d5 v=0
447840 On ch=1 n=g#5 v=0
447840 On ch=1 n=d#4 v=110
447880 On ch=1 n=a#4 v=110
447920 On ch=1 n=c#5 v=110
447960 On ch=1 n=d#4 v=0
447960 On ch=1 n=g5 v=110
448000 On ch=1 n=a#4 v=0
448040 On ch=1 n=c#5 v=0
448080 On ch=1 n=g5 v=0
451680 On ch=1 n=e4 v=60
451800 On ch=1 n=e4 v=0
452160 On ch=1 n=f4 v=68
452280 On ch=1 n=f4 v=0
452640 On ch=1 n=f5 v=56
452640 On ch=1 n=g#4 v=56
452760 On ch=1 n=g#4 v=0
452760 On ch=1 n=f5 v=0
453120 On ch=1 n=g#3 v=53
453240 On ch=1 n=g#3 v=0
453600 On ch=1 n=a#3 v=61
453720 On ch=1 n=a#3 v=0
454080 On ch=1 n=d#5 v=49
454080 On ch=1 n=g4 v=49
454560 On ch=1 n=g4 v=0
454560 On ch=1 n=d#5 v=0
454560 On ch=1 n=d#5 v=46
454560 On ch=1 n=g4 v=46
455040 On ch=1 n=g4 v=0
455040 On ch=1 n=d#5 v=0
455040 On ch=1 n=a#3 v=54
455160 On ch=1 n=a#3 v=0
455520 On ch=1 n=d5 v=42
455520 On ch=1 n=a#4 v=42
455520 On ch=1 n=f4 v=42
456000 On ch=1 n=f4 v=0
456000 On ch=1 n=a#4 v=0
456000 On ch=1 n=d5 v=0
456000 On ch=1 n=d5 v=40
456000 On ch=1 n=a#4 v=40
456000 On ch=1 n=f4 v=40
456480 On ch=1 n=f4 v=0
456480 On ch=1 n=a#4 v=0
456480 On ch=1 n=d5 v=0
457920 On ch=1 n=d#3 v=50
458400 On ch=1 n=d#3 v=0
458400 On ch=1 n=g4 v=40
458400 On ch=1 n=a#3 v=40
458880 On ch=1 n=a#3 v=0
458880 On ch=1 n=g4 v=0
458880 On ch=1 n=g4 v=40
458880 On ch=1 n=a#3 v=40
459360 On ch=1 n=a#3 v=0
459360 On ch=1 n=g4 v=0
459360 On ch=1 n=d#3 v=50
459840 On ch=1 n=d#3 v=0
459840 On ch=1 n=g4 v=40
459840 On ch=1 n=a#3 v=40
460320 On ch=1 n=a#3 v=0
460320 On ch=1 n=g4 v=0
460320 On ch=1 n=g4 v=40
460320 On ch=1 n=a#3 v=40
460800 On ch=1 n=a#3 v=0
460800 On ch=1 n=g4 v=0
460800 On ch=1 n=d#3 v=50
461280 On ch=1 n=d#3 v=0
461280 On ch=1 n=g4 v=40
461280 On ch=1 n=a#3 v=40
461760 On ch=1 n=a#3 v=0
461760 On ch=1 n=g4 v=0
461760 On ch=1 n=g4 v=40
461760 On ch=1 n=a#3 v=40
462240 On ch=1 n=a#3 v=0
462240 On ch=1 n=g4 v=0
462240 On ch=1 n=d#3 v=50
462720 On ch=1 n=d#3 v=0
462720 On ch=1 n=g4 v=40
462720 On ch=1 n=a#3 v=40
463200 On ch=1 n=a#3 v=0
463200 On ch=1 n=g4 v=0
463200 On ch=1 n=g4 v=40
463200 On ch=1 n=a#3 v=40
463680 On ch=1 n=a#3 v=0
463680 On ch=1 n=g4 v=0
463680 On ch=1 n=d#3 v=50
464160 On ch=1 n=d#3 v=0
464160 On ch=1 n=g4 v=40
464160 On ch=1 n=a#3 v=40
464640 On ch=1 n=a#3 v=0
464640 On ch=1 n=g4 v=0
464640 On ch=1 n=g4 v=40
464640 On ch=1 n=a#3 v=40
465120 On ch=1 n=a#3 v=0
465120 On ch=1 n=g4 v=0
465120 On ch=1 n=d#3 v=50
465600 On ch=1 n=d#3 v=0
465600 On ch=1 n=g4 v=40
465600 On ch=1 n=a#3 v=40
466080 On ch=1 n=a#3 v=0
466080 On ch=1 n=g4 v=0
466080 On ch=1 n=g4 v=40
466080 On ch=1 n=a#3 v=40
466560 On ch=1 n=a#3 v=0
466560 On ch=1 n=g4 v=0
466560 On ch=1 n=d#3 v=50
467040 On ch=1 n=d#3 v=0
467040 On ch=1 n=c#5 v=42
467040 On ch=1 n=g4 v=42
467040 On ch=1 n=d#4 v=42
467520 On ch=1 n=d#4 v=0
467520 On ch=1 n=g4 v=0
467520 On ch=1 n=c#5 v=0
467520 On ch=1 n=c#5 v=43
467520 On ch=1 n=g4 v=43
467520 On ch=1 n=d#4 v=43
468000 On ch=1 n=d#4 v=0
468000 On ch=1 n=g4 v=0
468000 On ch=1 n=c#5 v=0
468000 On ch=1 n=c#5 v=45
468000 On ch=1 n=g4 v=45
468000 On ch=1 n=d#4 v=45
468480 On ch=1 n=d#4 v=0
468480 On ch=1 n=g4 v=0
468480 On ch=1 n=c#5 v=0
468480 On ch=1 n=c#5 v=47
468480 On ch=1 n=g4 v=47
468480 On ch=1 n=d#4 v=47
468960 On ch=1 n=d#4 v=0
468960 On ch=1 n=g4 v=0
468960 On ch=1 n=c#5 v=0
468960 On ch=1 n=c#5 v=49
468960 On ch=1 n=g4 v=49
468960 On ch=1 n=d#4 v=49
469440 On ch=1 n=d#4 v=0
469440 On ch=1 n=g4 v=0
469440 On ch=1 n=c#5 v=0
469440 On ch=1 n=d#3 v=61
469920 On ch=1 n=d#3 v=0
469920 On ch=1 n=c5 v=52
469920 On ch=1 n=g#4 v=52
469920 On ch=1 n=d#4 v=52
470400 On ch=1 n=d#4 v=0
470400 On ch=1 n=g#4 v=0
470400 On ch=1 n=c5 v=0
470400 On ch=1 n=g#4 v=54
470400 On ch=1 n=c5 v=54
470400 On ch=1 n=d#4 v=54
470880 On ch=1 n=d#4 v=0
470880 On ch=1 n=c5 v=0
470880 On ch=1 n=g#4 v=0
470880 On ch=1 n=d#3 v=66
471360 On ch=1 n=d#3 v=0
471360 On ch=1 n=c5 v=58
471360 On ch=1 n=g#4 v=58
471360 On ch=1 n=d#4 v=58
471840 On ch=1 n=d#4 v=0
471840 On ch=1 n=g#4 v=0
471840 On ch=1 n=c5 v=0
471840 On ch=1 n=g#4 v=60
471840 On ch=1 n=c5 v=60
471840 On ch=1 n=d#4 v=60
472320 On ch=1 n=d#4 v=0
472320 On ch=1 n=c5 v=0
472320 On ch=1 n=g#4 v=0
472320 On ch=1 n=d#3 v=72
472800 On ch=1 n=d#3 v=0
472800 On ch=1 n=c5 v=63
472800 On ch=1 n=g#4 v=63
472800 On ch=1 n=d#4 v=63
473280 On ch=1 n=d#4 v=0
473280 On ch=1 n=g#4 v=0
473280 On ch=1 n=c5 v=0
473280 On ch=1 n=g#4 v=65
473280 On ch=1 n=c5 v=65
473280 On ch=1 n=d#4 v=65
473760 On ch=1 n=d#4 v=0
473760 On ch=1 n=c5 v=0
473760 On ch=1 n=g#4 v=0
473760 On ch=1 n=c5 v=67
473760 On ch=1 n=g#4 v=67
473760 On ch=1 n=d#4 v=67
474240 On ch=1 n=d#4 v=0
474240 On ch=1 n=g#4 v=0
474240 On ch=1 n=c5 v=0
474240 On ch=1 n=g#4 v=69
474240 On ch=1 n=c5 v=69
474240 On ch=1 n=d#4 v=69
474720 On ch=1 n=d#4 v=0
474720 On ch=1 n=c5 v=0
474720 On ch=1 n=g#4 v=0
474720 On ch=1 n=g#4 v=71
474720 On ch=1 n=c5 v=71
474720 On ch=1 n=d#4 v=71
475200 On ch=1 n=d#4 v=0
475200 On ch=1 n=c5 v=0
475200 On ch=1 n=g#4 v=0
475200 On ch=1 n=d#3 v=82
475200 On ch=1 n=d#4 v=82
475680 On ch=1 n=d#4 v=0
475680 On ch=1 n=d#3 v=0
475680 On ch=1 n=d5 v=74
475680 On ch=1 n=g#4 v=74
475680 On ch=1 n=d#4 v=74
476160 On ch=1 n=d#4 v=0
476160 On ch=1 n=g#4 v=0
476160 On ch=1 n=d5 v=0
476160 On ch=1 n=d5 v=76
476160 On ch=1 n=g#4 v=76
476160 On ch=1 n=d#4 v=76
476640 On ch=1 n=d#4 v=0
476640 On ch=1 n=g#4 v=0
476640 On ch=1 n=d5 v=0
476640 On ch=1 n=d#3 v=88
476640 On ch=1 n=d#4 v=88
477120 On ch=1 n=d#4 v=0
477120 On ch=1 n=d#3 v=0
477120 On ch=1 n=d5 v=80
477120 On ch=1 n=g#4 v=80
477120 On ch=1 n=d#4 v=80
477600 On ch=1 n=d#4 v=0
477600 On ch=1 n=g#4 v=0
477600 On ch=1 n=d5 v=0
477600 On ch=1 n=d5 v=82
477600 On ch=1 n=g#4 v=82
477600 On ch=1 n=d#4 v=82
478080 On ch=1 n=d#4 v=0
478080 On ch=1 n=g#4 v=0
478080 On ch=1 n=d5 v=0
478080 On ch=1 n=d#3 v=93
478080 On ch=1 n=d#4 v=93
478560 On ch=1 n=d#4 v=0
478560 On ch=1 n=d#3 v=0
478560 On ch=1 n=d5 v=85
478560 On ch=1 n=b4 v=85
478560 On ch=1 n=g#4 v=85
478560 On ch=1 n=d#4 v=85
479040 On ch=1 n=d#4 v=0
479040 On ch=1 n=g#4 v=0
479040 On ch=1 n=b4 v=0
479040 On ch=1 n=d5 v=0
479040 On ch=1 n=d5 v=87
479040 On ch=1 n=b4 v=87
479040 On ch=1 n=g#4 v=87
479040 On ch=1 n=d#4 v=87
479520 On ch=1 n=d#4 v=0
479520 On ch=1 n=g#4 v=0
479520 On ch=1 n=b4 v=0
479520 On ch=1 n=d5 v=0
479520 On ch=1 n=d5 v=89
479520 On ch=1 n=b4 v=89
479520 On ch=1 n=g#4 v=89
479520 On ch=1 n=d#4 v=89
480000 On ch=1 n=d#4 v=0
480000 On ch=1 n=g#4 v=0
480000 On ch=1 n=b4 v=0
480000 On ch=1 n=d5 v=0
480000 On ch=1 n=d5 v=91
480000 On ch=1 n=b4 v=91
480000 On ch=1 n=g#4 v=91
480000 On ch=1 n=d#4 v=91
480480 On ch=1 n=d#4 v=0
480480 On ch=1 n=g#4 v=0
480480 On ch=1 n=b4 v=0
480480 On ch=1 n=d5 v=0
480480 On ch=1 n=d5 v=92
480480 On ch=1 n=b4 v=92
480480 On ch=1 n=g#4 v=92
480480 On ch=1 n=d#4 v=92
480960 On ch=1 n=d#4 v=0
480960 On ch=1 n=g#4 v=0
480960 On ch=1 n=b4 v=0
480960 On ch=1 n=d5 v=0
480960 On ch=1 n=d5 v=94
480960 On ch=1 n=b4 v=94
480960 On ch=1 n=g#4 v=94
480960 On ch=1 n=d#4 v=94
481440 On ch=1 n=d#4 v=0
481440 On ch=1 n=g#4 v=0
481440 On ch=1 n=b4 v=0
481440 On ch=1 n=d5 v=0
481440 On ch=1 n=d5 v=96
481440 On ch=1 n=b4 v=96
481440 On ch=1 n=g#4 v=96
481440 On ch=1 n=d#4 v=96
481920 On ch=1 n=d#4 v=0
481920 On ch=1 n=g#4 v=0
481920 On ch=1 n=b4 v=0
481920 On ch=1 n=d5 v=0
481920 On ch=1 n=d5 v=98
481920 On ch=1 n=b4 v=98
481920 On ch=1 n=g#4 v=98
481920 On ch=1 n=d#4 v=98
482400 On ch=1 n=d#4 v=0
482400 On ch=1 n=g#4 v=0
482400 On ch=1 n=b4 v=0
482400 On ch=1 n=d5 v=0
482400 On ch=1 n=d5 v=100
482400 On ch=1 n=b4 v=100
482400 On ch=1 n=g#4 v=100
482400 On ch=1 n=d#4 v=100
482880 On ch=1 n=d#4 v=0
482880 On ch=1 n=g#4 v=0
482880 On ch=1 n=b4 v=0
482880 On ch=1 n=d5 v=0
482880 On ch=1 n=d5 v=102
482880 On ch=1 n=b4 v=102
482880 On ch=1 n=g#4 v=102
482880 On ch=1 n=d#4 v=102
483360 On ch=1 n=d#4 v=0
483360 On ch=1 n=g#4 v=0
483360 On ch=1 n=b4 v=0
483360 On ch=1 n=d5 v=0
483360 On ch=1 n=d5 v=103
483360 On ch=1 n=b4 v=103
483360 On ch=1 n=g#4 v=103
483360 On ch=1 n=d#4 v=103
483840 On ch=1 n=d#4 v=0
483840 On ch=1 n=g#4 v=0
483840 On ch=1 n=b4 v=0
483840 On ch=1 n=d5 v=0
483840 On ch=1 n=d5 v=105
483840 On ch=1 n=a#4 v=105
483840 On ch=1 n=g#4 v=105
483840 On ch=1 n=d#4 v=105
484320 On ch=1 n=d#4 v=0
484320 On ch=1 n=g#4 v=0
484320 On ch=1 n=a#4 v=0
484320 On ch=1 n=d5 v=0
484320 On ch=1 n=d5 v=107
484320 On ch=1 n=a#4 v=107
484320 On ch=1 n=g#4 v=107
484320 On ch=1 n=d#4 v=107
484800 On ch=1 n=d#4 v=0
484800 On ch=1 n=g#4 v=0
484800 On ch=1 n=a#4 v=0
484800 On ch=1 n=d5 v=0
484800 On ch=1 n=d5 v=109
484800 On ch=1 n=a#4 v=109
484800 On ch=1 n=g#4 v=109
484800 On ch=1 n=d#4 v=109
485280 On ch=1 n=d#4 v=0
485280 On ch=1 n=g#4 v=0
485280 On ch=1 n=a#4 v=0
485280 On ch=1 n=d5 v=0
485280 On ch=1 n=d5 v=111
485280 On ch=1 n=a#4 v=111
485280 On ch=1 n=g#4 v=111
485280 On ch=1 n=d#4 v=111
485760 On ch=1 n=d#4 v=0
485760 On ch=1 n=g#4 v=0
485760 On ch=1 n=a#4 v=0
485760 On ch=1 n=d5 v=0
485760 On ch=1 n=d5 v=112
485760 On ch=1 n=a#4 v=112
485760 On ch=1 n=g#4 v=112
485760 On ch=1 n=d#4 v=112
486240 On ch=1 n=d#4 v=0
486240 On ch=1 n=g#4 v=0
486240 On ch=1 n=a#4 v=0
486240 On ch=1 n=d5 v=0
486240 On ch=1 n=d5 v=114
486240 On ch=1 n=a#4 v=114
486240 On ch=1 n=g#4 v=114
486240 On ch=1 n=d#4 v=114
486720 On ch=1 n=d#4 v=0
486720 On ch=1 n=g#4 v=0
486720 On ch=1 n=a#4 v=0
486720 On ch=1 n=d5 v=0
486720 On ch=1 n=d#3 v=126
486720 On ch=1 n=d#4 v=126
486840 On ch=1 n=d#4 v=0
486840 On ch=1 n=d#3 v=0
488160 On ch=1 n=d#3 v=127
488160 On ch=1 n=d#4 v=127
488280 On ch=1 n=d#4 v=0
488280 On ch=1 n=d#3 v=0
489600 On ch=1 n=d#3 v=127
489600 On ch=1 n=d#4 v=127
489720 On ch=1 n=d#4 v=0
489720 On ch=1 n=d#3 v=0
491040 On ch=1 n=d#3 v=127
491040 On ch=1 n=d#4 v=127
491160 On ch=1 n=d#4 v=0
491160 On ch=1 n=d#3 v=0
491520 On ch=1 n=g5 v=120
491520 On ch=1 n=d#5 v=120
491520 On ch=1 n=a#4 v=120
491520 On ch=1 n=g4 v=120
492000 On ch=1 n=g4 v=0
492000 On ch=1 n=a#4 v=0
492000 On ch=1 n=d#5 v=0
492000 On ch=1 n=g5 v=0
492000 On ch=1 n=g4 v=120
492000 On ch=1 n=g5 v=120
492000 On ch=1 n=d#5 v=120
492000 On ch=1 n=a#4 v=120
492480 On ch=1 n=a#4 v=0
492480 On ch=1 n=d#5 v=0
492480 On ch=1 n=g5 v=0
492480 On ch=1 n=g4 v=0
492480 On ch=1 n=a#2 v=120
492480 On ch=1 n=a#3 v=120
492600 On ch=1 n=a#3 v=0
492600 On ch=1 n=a#2 v=0
492960 On ch=1 n=g#4 v=109
492960 On ch=1 n=f5 v=109
492960 On ch=1 n=d5 v=109
492960 On ch=1 n=a#4 v=109
493440 On ch=1 n=a#4 v=0
493440 On ch=1 n=d5 v=0
493440 On ch=1 n=f5 v=0
493440 On ch=1 n=g#4 v=0
493440 On ch=1 n=g#4 v=107
493440 On ch=1 n=f5 v=107
493440 On ch=1 n=d5 v=107
493440 On ch=1 n=a#4 v=107
493920 On ch=1 n=a#4 v=0
493920 On ch=1 n=d5 v=0
493920 On ch=1 n=f5 v=0
493920 On ch=1 n=g#4 v=0
493920 On ch=1 n=d#3 v=115
493920 On ch=1 n=d#4 v=115
494040 On ch=1 n=d#4 v=0
494040 On ch=1 n=d#3 v=0
494400 On ch=1 n=d#5 v=104
494400 On ch=1 n=a#4 v=104
494400 On ch=1 n=g4 v=104
494880 On ch=1 n=g4 v=0
494880 On ch=1 n=a#4 v=0
494880 On ch=1 n=d#5 v=0
494880 On ch=1 n=g4 v=102
494880 On ch=1 n=a#4 v=102
494880 On ch=1 n=d#5 v=102
495360 On ch=1 n=d#5 v=0
495360 On ch=1 n=a#4 v=0
495360 On ch=1 n=g4 v=0
495360 On ch=1 n=a#3 v=110
495360 On ch=1 n=a#4 v=110
495480 On ch=1 n=a#4 v=0
495480 On ch=1 n=a#3 v=0
495840 On ch=1 n=f4 v=99
495840 On ch=1 n=g#4 v=99
495840 On ch=1 n=d5 v=99
495840 On ch=1 n=a#4 v=99
496320 On ch=1 n=a#4 v=0
496320 On ch=1 n=d5 v=0
496320 On ch=1 n=g#4 v=0
496320 On ch=1 n=f4 v=0
496320 On ch=1 n=f4 v=97
496320 On ch=1 n=g#4 v=97
496320 On ch=1 n=d5 v=97
496320 On ch=1 n=a#4 v=97
496800 On ch=1 n=a#4 v=0
496800 On ch=1 n=d5 v=0
496800 On ch=1 n=g#4 v=0
496800 On ch=1 n=f4 v=0
496800 On ch=1 n=d#3 v=105
496800 On ch=1 n=d#4 v=105
496920 On ch=1 n=d#4 v=0
496920 On ch=1 n=d#3 v=0
497280 On ch=1 n=c#5 v=93
497280 On ch=1 n=a#4 v=93
497280 On ch=1 n=d#4 v=93
497760 On ch=1 n=d#4 v=0
497760 On ch=1 n=a#4 v=0
497760 On ch=1 n=c#5 v=0
497760 On ch=1 n=a#4 v=92
497760 On ch=1 n=c#5 v=92
497760 On ch=1 n=d#4 v=92
498240 On ch=1 n=d#4 v=0
498240 On ch=1 n=c#5 v=0
498240 On ch=1 n=a#4 v=0
498240 On ch=1 n=g#3 v=100
498240 On ch=1 n=g#4 v=100
498720 On ch=1 n=g#4 v=0
498720 On ch=1 n=g#3 v=0
498720 On ch=1 n=c5 v=88
498720 On ch=1 n=g#4 v=88
498720 On ch=1 n=d#4 v=88
499200 On ch=1 n=d#4 v=0
499200 On ch=1 n=g#4 v=0
499200 On ch=1 n=c5 v=0
499200 On ch=1 n=g#4 v=87
499200 On ch=1 n=c5 v=87
499200 On ch=1 n=d#4 v=87
499680 On ch=1 n=d#4 v=0
499680 On ch=1 n=c5 v=0
499680 On ch=1 n=g#4 v=0
499680 On ch=1 n=g#3 v=95
499680 On ch=1 n=g#4 v=95
500160 On ch=1 n=g#4 v=0
500160 On ch=1 n=g#3 v=0
500160 On ch=1 n=b4 v=83
500160 On ch=1 n=g#4 v=83
500160 On ch=1 n=d#4 v=83
500640 On ch=1 n=d#4 v=0
500640 On ch=1 n=g#4 v=0
500640 On ch=1 n=b4 v=0
500640 On ch=1 n=g#4 v=81
500640 On ch=1 n=b4 v=81
500640 On ch=1 n=d#4 v=81
501120 On ch=1 n=d#4 v=0
501120 On ch=1 n=b4 v=0
501120 On ch=1 n=g#4 v=0
501120 On ch=1 n=d#3 v=90
501600 On ch=1 n=d#3 v=0
501600 On ch=1 n=g4 v=78
501600 On ch=1 n=d#4 v=78
501600 On ch=1 n=a#3 v=78
502080 On ch=1 n=a#3 v=0
502080 On ch=1 n=d#4 v=0
502080 On ch=1 n=g4 v=0
502080 On ch=1 n=d#4 v=76
502080 On ch=1 n=g4 v=76
502080 On ch=1 n=a#3 v=76
502560 On ch=1 n=a#3 v=0
502560 On ch=1 n=g4 v=0
502560 On ch=1 n=d#4 v=0
502560 On ch=1 n=d#3 v=85
503040 On ch=1 n=d#3 v=0
503040 On ch=1 n=g4 v=73
503040 On ch=1 n=d#4 v=73
503040 On ch=1 n=a#3 v=73
503520 On ch=1 n=a#3 v=0
503520 On ch=1 n=d#4 v=0
503520 On ch=1 n=g4 v=0
503520 On ch=1 n=d#4 v=71
503520 On ch=1 n=g4 v=71
503520 On ch=1 n=a#3 v=71
504000 On ch=1 n=a#3 v=0
504000 On ch=1 n=g4 v=0
504000 On ch=1 n=d#4 v=0
504000 On ch=1 n=d#3 v=79
504480 On ch=1 n=d#3 v=0
504480 On ch=1 n=g#4 v=68
504480 On ch=1 n=d4 v=68
504480 On ch=1 n=a#3 v=68
504960 On ch=1 n=a#3 v=0
504960 On ch=1 n=d4 v=0
504960 On ch=1 n=g#4 v=0
504960 On ch=1 n=a#3 v=66
504960 On ch=1 n=d4 v=66
504960 On ch=1 n=g#4 v=66
505440 On ch=1 n=g#4 v=0
505440 On ch=1 n=d4 v=0
505440 On ch=1 n=a#3 v=0
505440 On ch=1 n=d#3 v=74
505920 On ch=1 n=d#3 v=0
505920 On ch=1 n=g4 v=63
505920 On ch=1 n=d#4 v=63
505920 On ch=1 n=a#3 v=63
506400 On ch=1 n=a#3 v=0
506400 On ch=1 n=d#4 v=0
506400 On ch=1 n=g4 v=0
506400 On ch=1 n=a#3 v=61
506400 On ch=1 n=d#4 v=61
506400 On ch=1 n=g4 v=61
506880 On ch=1 n=g4 v=0
506880 On ch=1 n=d#4 v=0
506880 On ch=1 n=a#3 v=0
506880 On ch=1 n=d#3 v=70
507360 On ch=1 n=d#3 v=0
507360 On ch=1 n=g#4 v=60
507360 On ch=1 n=f4 v=60
507360 On ch=1 n=a#3 v=60
507840 On ch=1 n=a#3 v=0
507840 On ch=1 n=f4 v=0
507840 On ch=1 n=g#4 v=0
507840 On ch=1 n=a#3 v=60
507840 On ch=1 n=f4 v=60
507840 On ch=1 n=g#4 v=60
508320 On ch=1 n=g#4 v=0
508320 On ch=1 n=f4 v=0
508320 On ch=1 n=a#3 v=0
508320 On ch=1 n=d#3 v=70
508800 On ch=1 n=d#3 v=0
508800 On ch=1 n=g4 v=60
508800 On ch=1 n=d#4 v=60
508800 On ch=1 n=a#3 v=60
509280 On ch=1 n=a#3 v=0
509280 On ch=1 n=d#4 v=0
509280 On ch=1 n=g4 v=0
509280 On ch=1 n=a#3 v=60
509280 On ch=1 n=d#4 v=60
509280 On ch=1 n=g4 v=60
509760 On ch=1 n=g4 v=0
509760 On ch=1 n=d#4 v=0
509760 On ch=1 n=a#3 v=0
509760 On ch=1 n=d#3 v=70
510240 On ch=1 n=d#3 v=0
510240 On ch=1 n=g#4 v=60
510240 On ch=1 n=d4 v=60
510240 On ch=1 n=a#3 v=60
510720 On ch=1 n=a#3 v=0
510720 On ch=1 n=d4 v=0
510720 On ch=1 n=g#4 v=0
510720 On ch=1 n=a#3 v=60
510720 On ch=1 n=d4 v=60
510720 On ch=1 n=g#4 v=60
511200 On ch=1 n=g#4 v=0
511200 On ch=1 n=d4 v=0
511200 On ch=1 n=a#3 v=0
511200 On ch=1 n=d#3 v=70
511680 On ch=1 n=d#3 v=0
511680 On ch=1 n=g4 v=60
511680 On ch=1 n=d#4 v=60
511680 On ch=1 n=a#3 v=60
512160 On ch=1 n=a#3 v=0
512160 On ch=1 n=d#4 v=0
512160 On ch=1 n=g4 v=0
512160 On ch=1 n=g4 v=60
512160 On ch=1 n=d#4 v=60
512160 On ch=1 n=a#3 v=60
512640 On ch=1 n=a#3 v=0
512640 On ch=1 n=d#4 v=0
512640 On ch=1 n=g4 v=0
512640 On ch=1 n=d#3 v=70
513120 On ch=1 n=d#3 v=0
513120 On ch=1 n=g#4 v=60
513120 On ch=1 n=f4 v=60
513120 On ch=1 n=a#3 v=60
513600 On ch=1 n=a#3 v=0
513600 On ch=1 n=f4 v=0
513600 On ch=1 n=g#4 v=0
513600 On ch=1 n=a#3 v=60
513600 On ch=1 n=f4 v=60
513600 On ch=1 n=g#4 v=60
514080 On ch=1 n=g#4 v=0
514080 On ch=1 n=f4 v=0
514080 On ch=1 n=a#3 v=0
514080 On ch=1 n=d#3 v=70
514560 On ch=1 n=d#3 v=0
514560 On ch=1 n=g4 v=60
514560 On ch=1 n=d#4 v=60
514560 On ch=1 n=a#3 v=60
515040 On ch=1 n=a#3 v=0
515040 On ch=1 n=d#4 v=0
515040 On ch=1 n=g4 v=0
515040 On ch=1 n=a#3 v=60
515040 On ch=1 n=d#4 v=60
515040 On ch=1 n=g4 v=60
515520 On ch=1 n=g4 v=0
515520 On ch=1 n=d#4 v=0
515520 On ch=1 n=a#3 v=0
515520 On ch=1 n=d#3 v=70
516000 On ch=1 n=d#3 v=0
516000 On ch=1 n=g#4 v=64
516000 On ch=1 n=f4 v=64
516000 On ch=1 n=a#3 v=64
516480 On ch=1 n=a#3 v=0
516480 On ch=1 n=f4 v=0
516480 On ch=1 n=g#4 v=0
516480 On ch=1 n=a#3 v=68
516480 On ch=1 n=f4 v=68
516480 On ch=1 n=g#4 v=68
516960 On ch=1 n=g#4 v=0
516960 On ch=1 n=f4 v=0
516960 On ch=1 n=a#3 v=0
516960 On ch=1 n=d#3 v=82
517440 On ch=1 n=d#3 v=0
517440 On ch=1 n=g#4 v=77
517440 On ch=1 n=f4 v=77
517440 On ch=1 n=a#3 v=77
517920 On ch=1 n=a#3 v=0
517920 On ch=1 n=f4 v=0
517920 On ch=1 n=g#4 v=0
517920 On ch=1 n=a#3 v=81
517920 On ch=1 n=f4 v=81
517920 On ch=1 n=g#4 v=81
518400 On ch=1 n=g#4 v=0
518400 On ch=1 n=f4 v=0
518400 On ch=1 n=a#3 v=0
518400 On ch=1 n=d#3 v=95
518880 On ch=1 n=d#3 v=0
518880 On ch=1 n=g#4 v=89
518880 On ch=1 n=f4 v=89
518880 On ch=1 n=a#3 v=89
519360 On ch=1 n=a#3 v=0
519360 On ch=1 n=f4 v=0
519360 On ch=1 n=g#4 v=0
519360 On ch=1 n=a#3 v=94
519360 On ch=1 n=f4 v=94
519360 On ch=1 n=g#4 v=94
519840 On ch=1 n=g#4 v=0
519840 On ch=1 n=f4 v=0
519840 On ch=1 n=a#3 v=0
519840 On ch=1 n=d#3 v=108
520320 On ch=1 n=d#3 v=0
520320 On ch=1 n=g#4 v=102
520320 On ch=1 n=f4 v=102
520320 On ch=1 n=a#3 v=102
520800 On ch=1 n=a#3 v=0
520800 On ch=1 n=f4 v=0
520800 On ch=1 n=g#4 v=0
520800 On ch=1 n=a#3 v=107
520800 On ch=1 n=f4 v=107
520800 On ch=1 n=g#4 v=107
521280 On ch=1 n=g#4 v=0
521280 On ch=1 n=f4 v=0
521280 On ch=1 n=a#3 v=0
521280 On ch=1 n=d#3 v=120
521280 On ch=1 n=d#4 v=120
521760 On ch=1 n=d#4 v=0
521760 On ch=1 n=d#3 v=0
521760 On ch=1 n=d5 v=111
521760 On ch=1 n=b4 v=111
521760 On ch=1 n=g#4 v=111
521760 On ch=1 n=d#4 v=111
522240 On ch=1 n=d#4 v=0
522240 On ch=1 n=g#4 v=0
522240 On ch=1 n=b4 v=0
522240 On ch=1 n=d5 v=0
522720 On ch=1 n=d5 v=114
522720 On ch=1 n=b4 v=114
522720 On ch=1 n=g#4 v=114
522720 On ch=1 n=d#4 v=114
523200 On ch=1 n=d#4 v=0
523200 On ch=1 n=g#4 v=0
523200 On ch=1 n=b4 v=0
523200 On ch=1 n=d5 v=0
523200 On ch=1 n=d5 v=115
523200 On ch=1 n=b4 v=115
523200 On ch=1 n=g#4 v=115
523200 On ch=1 n=d#4 v=115
523680 On ch=1 n=d#4 v=0
523680 On ch=1 n=g#4 v=0
523680 On ch=1 n=b4 v=0
523680 On ch=1 n=d5 v=0
524160 On ch=1 n=d5 v=118
524160 On ch=1 n=b4 v=118
524160 On ch=1 n=g#4 v=118
524160 On ch=1 n=d#4 v=118
524640 On ch=1 n=d#4 v=0
524640 On ch=1 n=g#4 v=0
524640 On ch=1 n=b4 v=0
524640 On ch=1 n=d5 v=0
524640 On ch=1 n=d5 v=120
524640 On ch=1 n=b4 v=120
524640 On ch=1 n=g#4 v=120
524640 On ch=1 n=d#4 v=120
525120 On ch=1 n=d#4 v=0
525120 On ch=1 n=g#4 v=0
525120 On ch=1 n=b4 v=0
525120 On ch=1 n=d5 v=0
525600 On ch=1 n=b4 v=123
525840 On ch=1 n=b4 v=0
525840 On ch=1 n=g4 v=124
526080 On ch=1 n=g4 v=0
526080 On ch=1 n=b4 v=124
526320 On ch=1 n=b4 v=0
526320 On ch=1 n=g#4 v=125
526560 On ch=1 n=g#4 v=0
526560 On ch=1 n=f4 v=126
526800 On ch=1 n=f4 v=0
526800 On ch=1 n=d4 v=127
527040 On ch=1 n=d4 v=0
527040 On ch=1 n=d#2 v=127
527040 On ch=1 n=d#3 v=127
527040 On ch=1 n=d#4 v=127
527280 On ch=1 n=d#4 v=0
527280 On ch=1 n=d#3 v=0
527280 On ch=1 n=d#2 v=0
527520 On ch=1 n=g4 v=60
527760 On ch=1 n=g4 v=0
527760 On ch=1 n=g#4 v=60
528000 On ch=1 n=g#4 v=0
528000 On ch=1 n=a#4 v=60
528240 On ch=1 n=a#4 v=0
528240 On ch=1 n=c5 v=60
528480 On ch=1 n=c5 v=0
530400 On ch=1 n=d#5 v=60
530400 On ch=1 n=g4 v=60
530400 On ch=1 n=a#4 v=60
530880 On ch=1 n=a#4 v=0
530880 On ch=1 n=g4 v=0
530880 On ch=1 n=d#5 v=0
530880 On ch=1 n=g5 v=60
530880 On ch=1 n=d#5 v=60
530880 On ch=1 n=a#4 v=60
530880 On ch=1 n=g4 v=60
531360 On ch=1 n=g4 v=0
531360 On ch=1 n=a#4 v=0
531360 On ch=1 n=d#5 v=0
531360 On ch=1 n=g5 v=0
531360 On ch=1 n=g5 v=60
531360 On ch=1 n=d#5 v=60
531360 On ch=1 n=a#4 v=60
531360 On ch=1 n=g4 v=60
531840 On ch=1 n=g4 v=0
531840 On ch=1 n=a#4 v=0
531840 On ch=1 n=d#5 v=0
531840 On ch=1 n=g5 v=0
531840 On ch=1 n=g5 v=60
531840 On ch=1 n=d#5 v=60
531840 On ch=1 n=a#4 v=60
531840 On ch=1 n=g4 v=60
532320 On ch=1 n=g4 v=0
532320 On ch=1 n=a#4 v=0
532320 On ch=1 n=d#5 v=0
532320 On ch=1 n=g5 v=0
532320 On ch=1 n=g5 v=60
532320 On ch=1 n=d#5 v=60
532320 On ch=1 n=a#4 v=60
532320 On ch=1 n=g4 v=60
532800 On ch=1 n=g4 v=0
532800 On ch=1 n=a#4 v=0
532800 On ch=1 n=d#5 v=0
532800 On ch=1 n=g5 v=0
532800 On ch=1 n=g5 v=60
532800 On ch=1 n=d#5 v=60
532800 On ch=1 n=a#4 v=60
532800 On ch=1 n=g4 v=60
533280 On ch=1 n=g4 v=0
533280 On ch=1 n=a#4 v=0
533280 On ch=1 n=d#5 v=0
533280 On ch=1 n=g5 v=0
533280 On ch=1 n=g5 v=65
533280 On ch=1 n=d#5 v=65
533280 On ch=1 n=a#4 v=65
533280 On ch=1 n=g4 v=65
533760 On ch=1 n=g4 v=0
533760 On ch=1 n=a#4 v=0
533760 On ch=1 n=d#5 v=0
533760 On ch=1 n=g5 v=0
533760 On ch=1 n=g5 v=70
533760 On ch=1 n=d#5 v=70
533760 On ch=1 n=a#4 v=70
533760 On ch=1 n=g4 v=70
534240 On ch=1 n=g4 v=0
534240 On ch=1 n=a#4 v=0
534240 On ch=1 n=d#5 v=0
534240 On ch=1 n=g5 v=0
534240 On ch=1 n=g5 v=75
534240 On ch=1 n=d#5 v=75
534240 On ch=1 n=a#4 v=75
534240 On ch=1 n=g4 v=75
534720 On ch=1 n=g4 v=0
534720 On ch=1 n=a#4 v=0
534720 On ch=1 n=d#5 v=0
534720 On ch=1 n=g5 v=0
534720 On ch=1 n=g5 v=80
534720 On ch=1 n=d#5 v=80
534720 On ch=1 n=a#4 v=80
534720 On ch=1 n=g4 v=80
535200 On ch=1 n=g4 v=0
535200 On ch=1 n=a#4 v=0
535200 On ch=1 n=d#5 v=0
535200 On ch=1 n=g5 v=0
535200 On ch=1 n=g5 v=86
535200 On ch=1 n=d#5 v=86
535200 On ch=1 n=a#4 v=86
535200 On ch=1 n=g4 v=86
535680 On ch=1 n=g4 v=0
535680 On ch=1 n=a#4 v=0
535680 On ch=1 n=d#5 v=0
535680 On ch=1 n=g5 v=0
535680 On ch=1 n=g5 v=91
535680 On ch=1 n=d#5 v=91
535680 On ch=1 n=a#4 v=91
535680 On ch=1 n=g4 v=91
536160 On ch=1 n=g4 v=0
536160 On ch=1 n=a#4 v=0
536160 On ch=1 n=d#5 v=0
536160 On ch=1 n=g5 v=0
536160 On ch=1 n=g5 v=96
536160 On ch=1 n=d#5 v=96
536160 On ch=1 n=a#4 v=96
536160 On ch=1 n=g4 v=96
536640 On ch=1 n=g4 v=0
536640 On ch=1 n=a#4 v=0
536640 On ch=1 n=d#5 v=0
536640 On ch=1 n=g5 v=0
536640 On ch=1 n=g5 v=101
536640 On ch=1 n=d#5 v=101
536640 On ch=1 n=a#4 v=101
536640 On ch=1 n=g4 v=101
537120 On ch=1 n=g4 v=0
537120 On ch=1 n=a#4 v=0
537120 On ch=1 n=d#5 v=0
537120 On ch=1 n=g5 v=0
537120 On ch=1 n=g5 v=106
537120 On ch=1 n=d#5 v=106
537120 On ch=1 n=a#4 v=106
537120 On ch=1 n=g4 v=106
537600 On ch=1 n=g4 v=0
537600 On ch=1 n=a#4 v=0
537600 On ch=1 n=d#5 v=0
537600 On ch=1 n=g5 v=0
537600 On ch=1 n=g5 v=112
537600 On ch=1 n=d#5 v=112
537600 On ch=1 n=a#4 v=112
537600 On ch=1 n=g4 v=112
538080 On ch=1 n=g4 v=0
538080 On ch=1 n=a#4 v=0
538080 On ch=1 n=d#5 v=0
538080 On ch=1 n=g5 v=0
538080 On ch=1 n=g5 v=117
538080 On ch=1 n=d#5 v=117
538080 On ch=1 n=a#4 v=117
538080 On ch=1 n=g4 v=117
538560 On ch=1 n=g4 v=0
538560 On ch=1 n=a#4 v=0
538560 On ch=1 n=d#5 v=0
538560 On ch=1 n=g5 v=0
538560 On ch=1 n=g5 v=120
538560 On ch=1 n=d#5 v=120
538560 On ch=1 n=a#4 v=120
538560 On ch=1 n=g4 v=120
539040 On ch=1 n=g4 v=0
539040 On ch=1 n=a#4 v=0
539040 On ch=1 n=d#5 v=0
539040 On ch=1 n=g5 v=0
540000 On ch=1 n=d#5 v=113
540000 On ch=1 n=g4 v=113
540000 On ch=1 n=d#4 v=113
540480 On ch=1 n=d#4 v=0
540480 On ch=1 n=g4 v=0
540480 On ch=1 n=d#5 v=0
541440 On ch=1 n=g5 v=105
541440 On ch=1 n=d#5 v=105
541440 On ch=1 n=a#4 v=105
541440 On ch=1 n=g4 v=105
541920 On ch=1 n=g4 v=0
541920 On ch=1 n=a#4 v=0
541920 On ch=1 n=d#5 v=0
541920 On ch=1 n=g5 v=0
554400 On ch=1 n=d#5 v=127
554400 On ch=1 n=a#4 v=127
554400 On ch=1 n=d#4 v=127
554880 On ch=1 n=d#4 v=0
554880 On ch=1 n=a#4 v=0
554880 On ch=1 n=d#5 v=0
554880 On ch=1 n=d#5 v=127
554880 On ch=1 n=a#4 v=127
554880 On ch=1 n=d#4 v=127
555360 On ch=1 n=d#4 v=0
555360 On ch=1 n=a#4 v=0
555360 On ch=1 n=d#5 v=0
555360 On ch=1 n=d#5 v=127
555360 On ch=1 n=a#4 v=127
555360 On ch=1 n=d#4 v=127
555840 On ch=1 n=d#4 v=0
555840 On ch=1 n=a#4 v=0
555840 On ch=1 n=d#5 v=0
555840 On ch=1 n=d#2 v=127
555840 On ch=1 n=d#3 v=127
555840 On ch=1 n=d#4 v=127
557280 On ch=1 n=d#4 v=0
557280 On ch=1 n=d#3 v=0
557280 On ch=1 n=d#2 v=0
557280 Meta TrkEnd
TrkEnd
MTrk
0 SeqSpec 43 00 01 00
0 Meta TrkName "Pedal"
0 Meta 0x21 00
0 PrCh ch=1 p=0
5760 Par ch=1 c=64 v=127
6720 Par ch=1 c=64 v=0
7200 Par ch=1 c=64 v=127
8160 Par ch=1 c=64 v=0
8640 Par ch=1 c=64 v=127
9600 Par ch=1 c=64 v=0
10080 Par ch=1 c=64 v=127
11040 Par ch=1 c=64 v=0
12960 Par ch=1 c=64 v=127
13920 Par ch=1 c=64 v=0
14400 Par ch=1 c=64 v=127
15360 Par ch=1 c=64 v=0
17280 Par ch=1 c=64 v=127
18240 Par ch=1 c=64 v=0
28800 Par ch=1 c=64 v=127
29760 Par ch=1 c=64 v=0
30240 Par ch=1 c=64 v=127
31200 Par ch=1 c=64 v=0
31680 Par ch=1 c=64 v=127
32640 Par ch=1 c=64 v=0
33120 Par ch=1 c=64 v=127
34080 Par ch=1 c=64 v=0
36000 Par ch=1 c=64 v=127
36960 Par ch=1 c=64 v=0
37440 Par ch=1 c=64 v=127
38400 Par ch=1 c=64 v=0
40320 Par ch=1 c=64 v=127
41280 Par ch=1 c=64 v=0
51840 Par ch=1 c=64 v=127
54240 Par ch=1 c=64 v=0
54720 Par ch=1 c=64 v=127
55680 Par ch=1 c=64 v=0
56160 Par ch=1 c=64 v=127
57120 Par ch=1 c=64 v=0
57600 Par ch=1 c=64 v=127
58560 Par ch=1 c=64 v=0
59040 Par ch=1 c=64 v=127
60000 Par ch=1 c=64 v=0
60480 Par ch=1 c=64 v=127
61440 Par ch=1 c=64 v=0
63360 Par ch=1 c=64 v=127
65760 Par ch=1 c=64 v=0
66240 Par ch=1 c=64 v=127
67200 Par ch=1 c=64 v=0
67680 Par ch=1 c=64 v=127
68640 Par ch=1 c=64 v=0
69120 Par ch=1 c=64 v=127
70080 Par ch=1 c=64 v=0
70560 Par ch=1 c=64 v=127
71520 Par ch=1 c=64 v=0
72000 Par ch=1 c=64 v=127
72960 Par ch=1 c=64 v=0
120960 Par ch=1 c=64 v=127
123360 Par ch=1 c=64 v=0
123840 Par ch=1 c=64 v=127
126240 Par ch=1 c=64 v=0
126720 Par ch=1 c=64 v=127
129120 Par ch=1 c=64 v=0
131040 Par ch=1 c=64 v=127
132000 Par ch=1 c=64 v=0
132480 Par ch=1 c=64 v=127
134880 Par ch=1 c=64 v=0
135360 Par ch=1 c=64 v=127
137760 Par ch=1 c=64 v=0
144000 Par ch=1 c=64 v=127
146400 Par ch=1 c=64 v=0
146880 Par ch=1 c=64 v=127
149280 Par ch=1 c=64 v=0
149760 Par ch=1 c=64 v=127
152160 Par ch=1 c=64 v=0
154080 Par ch=1 c=64 v=127
155040 Par ch=1 c=64 v=0
155520 Par ch=1 c=64 v=127
157920 Par ch=1 c=64 v=0
158400 Par ch=1 c=64 v=127
160800 Par ch=1 c=64 v=0
169920 Par ch=1 c=64 v=127
170880 Par ch=1 c=64 v=0
181440 Par ch=1 c=64 v=127
182400 Par ch=1 c=64 v=0
187200 Par ch=1 c=64 v=127
188160 Par ch=1 c=64 v=0
190080 Par ch=1 c=64 v=127
192480 Par ch=1 c=64 v=0
192960 Par ch=1 c=64 v=127
195360 Par ch=1 c=64 v=0
195840 Par ch=1 c=64 v=127
198240 Par ch=1 c=64 v=0
200160 Par ch=1 c=64 v=127
201120 Par ch=1 c=64 v=0
201600 Par ch=1 c=64 v=127
204000 Par ch=1 c=64 v=0
204480 Par ch=1 c=64 v=127
206880 Par ch=1 c=64 v=0
213120 Par ch=1 c=64 v=127
215520 Par ch=1 c=64 v=0
216000 Par ch=1 c=64 v=127
217920 Par ch=1 c=64 v=0
218880 Par ch=1 c=64 v=127
222720 Par ch=1 c=64 v=0
224640 Par ch=1 c=64 v=127
227040 Par ch=1 c=64 v=0
227520 Par ch=1 c=64 v=127
229440 Par ch=1 c=64 v=0
230400 Par ch=1 c=64 v=127
234240 Par ch=1 c=64 v=0
236160 Par ch=1 c=64 v=127
238560 Par ch=1 c=64 v=0
239040 Par ch=1 c=64 v=127
240960 Par ch=1 c=64 v=0
241920 Par ch=1 c=64 v=127
245760 Par ch=1 c=64 v=0
247680 Par ch=1 c=64 v=127
250080 Par ch=1 c=64 v=0
250560 Par ch=1 c=64 v=127
252480 Par ch=1 c=64 v=0
253440 Par ch=1 c=64 v=127
257280 Par ch=1 c=64 v=0
270720 Par ch=1 c=64 v=127
271680 Par ch=1 c=64 v=0
272160 Par ch=1 c=64 v=127
273120 Par ch=1 c=64 v=0
273600 Par ch=1 c=64 v=127
274560 Par ch=1 c=64 v=0
275040 Par ch=1 c=64 v=127
276000 Par ch=1 c=64 v=0
282240 Par ch=1 c=64 v=127
284640 Par ch=1 c=64 v=0
285120 Par ch=1 c=64 v=127
286560 Par ch=1 c=64 v=0
288000 Par ch=1 c=64 v=127
291840 Par ch=1 c=64 v=0
293760 Par ch=1 c=64 v=127
296160 Par ch=1 c=64 v=0
296640 Par ch=1 c=64 v=127
298560 Par ch=1 c=64 v=0
299520 Par ch=1 c=64 v=127
303360 Par ch=1 c=64 v=0
316800 Par ch=1 c=64 v=127
317760 Par ch=1 c=64 v=0
318240 Par ch=1 c=64 v=127
319200 Par ch=1 c=64 v=0
319680 Par ch=1 c=64 v=127
320640 Par ch=1 c=64 v=0
321120 Par ch=1 c=64 v=127
322080 Par ch=1 c=64 v=0
328320 Par ch=1 c=64 v=127
330720 Par ch=1 c=64 v=0
331200 Par ch=1 c=64 v=127
332640 Par ch=1 c=64 v=0
334080 Par ch=1 c=64 v=127
337920 Par ch=1 c=64 v=0
339840 Par ch=1 c=64 v=127
342240 Par ch=1 c=64 v=0
342720 Par ch=1 c=64 v=127
344640 Par ch=1 c=64 v=0
345600 Par ch=1 c=64 v=127
349440 Par ch=1 c=64 v=0
385920 Par ch=1 c=64 v=127
386880 Par ch=1 c=64 v=0
387360 Par ch=1 c=64 v=127
388320 Par ch=1 c=64 v=0
388800 Par ch=1 c=64 v=127
389760 Par ch=1 c=64 v=0
390240 Par ch=1 c=64 v=127
391200 Par ch=1 c=64 v=0
393120 Par ch=1 c=64 v=127
394080 Par ch=1 c=64 v=0
394560 Par ch=1 c=64 v=127
395520 Par ch=1 c=64 v=0
397440 Par ch=1 c=64 v=127
398400 Par ch=1 c=64 v=0
398880 Par ch=1 c=64 v=127
399840 Par ch=1 c=64 v=0
400320 Par ch=1 c=64 v=127
401280 Par ch=1 c=64 v=0
457920 Par ch=1 c=64 v=127
466080 Par ch=1 c=64 v=0
469440 Par ch=1 c=64 v=127
471840 Par ch=1 c=64 v=0
475200 Par ch=1 c=64 v=127
477600 Par ch=1 c=64 v=0
478080 Par ch=1 c=64 v=127
480480 Par ch=1 c=64 v=0
480960 Par ch=1 c=64 v=127
483360 Par ch=1 c=64 v=0
483840 Par ch=1 c=64 v=127
486240 Par ch=1 c=64 v=0
486720 Par ch=1 c=64 v=127
487680 Par ch=1 c=64 v=0
488160 Par ch=1 c=64 v=127
489120 Par ch=1 c=64 v=0
489600 Par ch=1 c=64 v=127
490560 Par ch=1 c=64 v=0
491040 Par ch=1 c=64 v=127
492000 Par ch=1 c=64 v=0
555840 Par ch=1 c=64 v=127
558720 Par ch=1 c=64 v=0
558720 Meta TrkEnd
TrkEnd
MTrk
0 SeqSpec 43 00 01 00
0 Meta TrkName "F. Chopin Valse No. 01 in Eb Op. 18"
0 Meta 0x21 00
0 Meta TrkEnd
TrkEnd
MTrk
0 SeqSpec 43 00 01 00
0 Meta TrkName "Jeruen E. Dery jawjaw@hotmail.com"
0 Meta 0x21 00
0 Meta TrkEnd
TrkEnd
