MFile 1 7 120
MTrk
0 Meta SeqName ""
0 Meta Text "\n"
0 TimeSig 3/4 24 8
0 KeySig 4 major
0 Tempo 416667
11880 Tempo 283019
23280 Tempo 416667
23400 KeySig -5 major
33360 Tempo 476190
34560 Tempo 535714
34920 KeySig 4 major
34920 Tempo 283019
46440 Tempo 416667
57960 Tempo 283019
57960 Meta TrkEnd
TrkEnd
MTrk
0 Meta 0x21 00
0 Meta TrkName "Upper Treble"
0 PrCh ch=1 p=0
240 On ch=1 n=g#5 v=80
360 On ch=1 n=e6 v=78
720 On ch=1 n=e6 v=0
720 On ch=1 n=g#5 v=0
720 On ch=1 n=g5 v=70
720 On ch=1 n=d#6 v=70
1080 On ch=1 n=d#6 v=0
1080 On ch=1 n=g5 v=0
1140 On ch=1 n=f#5 v=74
1140 On ch=1 n=g#5 v=74
1185 On ch=1 n=b5 v=74
1200 On ch=1 n=b5 v=0
1200 On ch=1 n=g#5 v=0
1200 On ch=1 n=f#5 v=0
1200 On ch=1 n=f#5 v=74
1200 On ch=1 n=a5 v=74
1260 On ch=1 n=a5 v=0
1260 On ch=1 n=f#5 v=0
1290 On ch=1 n=f#5 v=75
1290 On ch=1 n=g#5 v=75
1320 On ch=1 n=g#5 v=0
1320 On ch=1 n=f#5 v=0
1320 On ch=1 n=d#6 v=76
1320 On ch=1 n=f#5 v=76
1440 On ch=1 n=f#5 v=0
1440 On ch=1 n=d#6 v=0
1500 On ch=1 n=g#5 v=77
1500 On ch=1 n=f#5 v=77
1545 On ch=1 n=b5 v=78
1560 On ch=1 n=b5 v=0
1560 On ch=1 n=f#5 v=0
1560 On ch=1 n=g#5 v=0
1560 On ch=1 n=a5 v=78
1560 On ch=1 n=f#5 v=78
1620 On ch=1 n=f#5 v=0
1620 On ch=1 n=a5 v=0
1650 On ch=1 n=g#5 v=79
1650 On ch=1 n=f#5 v=79
1680 On ch=1 n=f#5 v=0
1680 On ch=1 n=g#5 v=0
1680 On ch=1 n=c#6 v=79
1680 On ch=1 n=e5 v=79
1800 On ch=1 n=e5 v=0
1800 On ch=1 n=c#6 v=0
1800 On ch=1 n=e5 v=80
1800 On ch=1 n=c#6 v=80
2160 On ch=1 n=c#6 v=0
2160 On ch=1 n=e5 v=0
2160 On ch=1 n=c6 v=70
2160 On ch=1 n=d#5 v=70
2520 On ch=1 n=d#5 v=0
2520 On ch=1 n=c6 v=0
2580 On ch=1 n=d5 v=75
2580 On ch=1 n=e5 v=75
2625 On ch=1 n=g#5 v=75
2640 On ch=1 n=g#5 v=0
2640 On ch=1 n=e5 v=0
2640 On ch=1 n=d5 v=0
2640 On ch=1 n=d5 v=75
2640 On ch=1 n=f#5 v=75
2700 On ch=1 n=f#5 v=0
2700 On ch=1 n=d5 v=0
2730 On ch=1 n=d5 v=77
2730 On ch=1 n=e5 v=77
2760 On ch=1 n=e5 v=0
2760 On ch=1 n=d5 v=0
2760 On ch=1 n=b5 v=77
2760 On ch=1 n=d5 v=77
2880 On ch=1 n=d5 v=0
2880 On ch=1 n=b5 v=0
2940 On ch=1 n=d5 v=79
2940 On ch=1 n=e5 v=79
2985 On ch=1 n=g#5 v=80
3000 On ch=1 n=g#5 v=0
3000 On ch=1 n=e5 v=0
3000 On ch=1 n=d5 v=0
3000 On ch=1 n=c#5 v=80
3000 On ch=1 n=f#5 v=80
3060 On ch=1 n=f#5 v=0
3060 On ch=1 n=c#5 v=0
3090 On ch=1 n=c#5 v=81
3090 On ch=1 n=e5 v=81
3120 On ch=1 n=e5 v=0
3120 On ch=1 n=c#5 v=0
3120 On ch=1 n=a5 v=81
3120 On ch=1 n=c#5 v=81
3240 On ch=1 n=c#5 v=0
3240 On ch=1 n=a5 v=0
3240 On ch=1 n=a5 v=83
3240 On ch=1 n=c5 v=83
3240 On ch=1 n=f#5 v=83
3480 On ch=1 n=a5 v=0
3480 On ch=1 n=g#5 v=86
3600 On ch=1 n=f#5 v=0
3600 On ch=1 n=c5 v=0
3600 On ch=1 n=e5 v=87
3660 On ch=1 n=g#5 v=0
3660 On ch=1 n=g#5 v=88
3720 On ch=1 n=g#5 v=0
3720 On ch=1 n=g#5 v=89
3780 On ch=1 n=g#5 v=0
3780 On ch=1 n=a5 v=89
3840 On ch=1 n=a5 v=0
3840 On ch=1 n=a5 v=90
3900 On ch=1 n=a5 v=0
3900 On ch=1 n=a#5 v=91
3960 On ch=1 n=a#5 v=0
3960 On ch=1 n=e5 v=0
3960 On ch=1 n=c#6 v=92
3960 On ch=1 n=d#5 v=92
3960 On ch=1 n=a5 v=92
4200 On ch=1 n=c#6 v=0
4200 On ch=1 n=b5 v=95
4320 On ch=1 n=a5 v=0
4320 On ch=1 n=d#5 v=0
4320 On ch=1 n=g#5 v=96
4380 On ch=1 n=b5 v=0
4380 On ch=1 n=b5 v=97
4440 On ch=1 n=b5 v=0
4440 On ch=1 n=b5 v=98
4500 On ch=1 n=b5 v=0
4500 On ch=1 n=c#6 v=98
4560 On ch=1 n=c#6 v=0
4560 On ch=1 n=g#5 v=0
4560 On ch=1 n=c#6 v=99
4560 On ch=1 n=g#5 v=99
4620 On ch=1 n=c#6 v=0
4620 On ch=1 n=d6 v=100
4680 On ch=1 n=d6 v=0
4680 On ch=1 n=g#5 v=0
4680 On ch=1 n=d6 v=100
4740 On ch=1 n=d6 v=0
4740 On ch=1 n=d#6 v=99
4800 On ch=1 n=d#6 v=0
4800 On ch=1 n=d#6 v=98
4860 On ch=1 n=d#6 v=0
4860 On ch=1 n=g#6 v=97
4920 On ch=1 n=g#6 v=0
4920 On ch=1 n=g#6 v=96
4980 On ch=1 n=g#6 v=0
4980 On ch=1 n=g6 v=95
5040 On ch=1 n=g6 v=0
5040 On ch=1 n=g6 v=94
5100 On ch=1 n=g6 v=0
5100 On ch=1 n=f#6 v=93
5160 On ch=1 n=f#6 v=0
5160 On ch=1 n=f#6 v=92
5220 On ch=1 n=f#6 v=0
5220 On ch=1 n=f6 v=91
5280 On ch=1 n=f6 v=0
5280 On ch=1 n=f6 v=90
5340 On ch=1 n=f6 v=0
5340 On ch=1 n=e6 v=89
5400 On ch=1 n=e6 v=0
5400 On ch=1 n=e6 v=88
5460 On ch=1 n=e6 v=0
5460 On ch=1 n=d#6 v=87
5520 On ch=1 n=d#6 v=0
5520 On ch=1 n=d#6 v=86
5580 On ch=1 n=d#6 v=0
5580 On ch=1 n=d6 v=85
5640 On ch=1 n=d6 v=0
5640 On ch=1 n=d6 v=84
5700 On ch=1 n=d6 v=0
5700 On ch=1 n=c#6 v=83
5760 On ch=1 n=c#6 v=0
5760 On ch=1 n=c#6 v=82
5820 On ch=1 n=c#6 v=0
5820 On ch=1 n=c6 v=81
5880 On ch=1 n=c6 v=0
5880 On ch=1 n=c6 v=80
5940 On ch=1 n=c6 v=0
5940 On ch=1 n=b5 v=79
6000 On ch=1 n=b5 v=0
6000 On ch=1 n=b5 v=78
6060 On ch=1 n=b5 v=0
6060 On ch=1 n=a5 v=77
6120 On ch=1 n=a5 v=0
6120 On ch=1 n=e6 v=76
6120 On ch=1 n=g#5 v=76
6480 On ch=1 n=g#5 v=0
6480 On ch=1 n=e6 v=0
6480 On ch=1 n=g5 v=70
6480 On ch=1 n=d#6 v=70
6840 On ch=1 n=d#6 v=0
6840 On ch=1 n=g5 v=0
6900 On ch=1 n=f#5 v=74
6900 On ch=1 n=g#5 v=74
6945 On ch=1 n=b5 v=74
6960 On ch=1 n=b5 v=0
6960 On ch=1 n=g#5 v=0
6960 On ch=1 n=f#5 v=0
6960 On ch=1 n=f#5 v=74
6960 On ch=1 n=a5 v=74
7020 On ch=1 n=a5 v=0
7020 On ch=1 n=f#5 v=0
7050 On ch=1 n=f#5 v=75
7050 On ch=1 n=g#5 v=75
7080 On ch=1 n=g#5 v=0
7080 On ch=1 n=f#5 v=0
7080 On ch=1 n=d#6 v=76
7080 On ch=1 n=f#5 v=76
7200 On ch=1 n=f#5 v=0
7200 On ch=1 n=d#6 v=0
7260 On ch=1 n=g#5 v=77
7260 On ch=1 n=f#5 v=77
7305 On ch=1 n=b5 v=78
7320 On ch=1 n=b5 v=0
7320 On ch=1 n=f#5 v=0
7320 On ch=1 n=g#5 v=0
7320 On ch=1 n=a5 v=78
7320 On ch=1 n=f#5 v=78
7380 On ch=1 n=f#5 v=0
7380 On ch=1 n=a5 v=0
7410 On ch=1 n=g#5 v=79
7410 On ch=1 n=f#5 v=79
7440 On ch=1 n=f#5 v=0
7440 On ch=1 n=g#5 v=0
7440 On ch=1 n=c#6 v=79
7440 On ch=1 n=e5 v=79
7560 On ch=1 n=e5 v=0
7560 On ch=1 n=c#6 v=0
7560 On ch=1 n=e5 v=80
7560 On ch=1 n=c#6 v=80
7920 On ch=1 n=c#6 v=0
7920 On ch=1 n=e5 v=0
7920 On ch=1 n=c6 v=70
7920 On ch=1 n=d#5 v=70
8280 On ch=1 n=d#5 v=0
8280 On ch=1 n=c6 v=0
8340 On ch=1 n=d5 v=71
8340 On ch=1 n=e5 v=71
8385 On ch=1 n=g#5 v=71
8400 On ch=1 n=g#5 v=0
8400 On ch=1 n=e5 v=0
8400 On ch=1 n=d5 v=0
8400 On ch=1 n=d5 v=71
8400 On ch=1 n=f#5 v=71
8460 On ch=1 n=f#5 v=0
8460 On ch=1 n=d5 v=0
8490 On ch=1 n=d5 v=71
8490 On ch=1 n=e5 v=71
8520 On ch=1 n=e5 v=0
8520 On ch=1 n=d5 v=0
8520 On ch=1 n=b5 v=71
8520 On ch=1 n=d5 v=71
8640 On ch=1 n=d5 v=0
8640 On ch=1 n=b5 v=0
8700 On ch=1 n=d5 v=72
8700 On ch=1 n=e5 v=72
8745 On ch=1 n=g#5 v=72
8760 On ch=1 n=g#5 v=0
8760 On ch=1 n=e5 v=0
8760 On ch=1 n=d5 v=0
8760 On ch=1 n=c#5 v=72
8760 On ch=1 n=f#5 v=72
8820 On ch=1 n=f#5 v=0
8820 On ch=1 n=c#5 v=0
8850 On ch=1 n=c#5 v=72
8850 On ch=1 n=e5 v=72
8880 On ch=1 n=e5 v=0
8880 On ch=1 n=c#5 v=0
8880 On ch=1 n=a5 v=72
8880 On ch=1 n=c#5 v=72
9000 On ch=1 n=c#5 v=0
9000 On ch=1 n=a5 v=0
9000 On ch=1 n=a5 v=73
9000 On ch=1 n=c5 v=73
9000 On ch=1 n=f#5 v=73
9240 On ch=1 n=a5 v=0
9240 On ch=1 n=g#5 v=73
9360 On ch=1 n=f#5 v=0
9360 On ch=1 n=c5 v=0
9360 On ch=1 n=f5 v=74
9420 On ch=1 n=g#5 v=0
9420 On ch=1 n=a#5 v=74
9480 On ch=1 n=a#5 v=0
9480 On ch=1 n=a#5 v=74
9540 On ch=1 n=a#5 v=0
9540 On ch=1 n=b5 v=74
9600 On ch=1 n=b5 v=0
9600 On ch=1 n=b5 v=74
9660 On ch=1 n=b5 v=0
9660 On ch=1 n=c6 v=74
9720 On ch=1 n=c6 v=0
9720 On ch=1 n=f5 v=0
9720 On ch=1 n=d#6 v=75
9720 On ch=1 n=e5 v=75
9960 On ch=1 n=d#6 v=0
9960 On ch=1 n=c#6 v=75
10080 On ch=1 n=e5 v=0
10080 On ch=1 n=d#5 v=76
10140 On ch=1 n=c#6 v=0
10140 On ch=1 n=f#5 v=76
10200 On ch=1 n=f#5 v=0
10200 On ch=1 n=f#5 v=76
10260 On ch=1 n=f#5 v=0
10260 On ch=1 n=g#5 v=76
10320 On ch=1 n=g#5 v=0
10320 On ch=1 n=g#5 v=76
10380 On ch=1 n=g#5 v=0
10380 On ch=1 n=a5 v=77
10440 On ch=1 n=a5 v=0
10440 On ch=1 n=d#5 v=0
10440 On ch=1 n=c#6 v=77
10440 On ch=1 n=d5 v=77
10680 On ch=1 n=c#6 v=0
10680 On ch=1 n=b5 v=77
10800 On ch=1 n=d5 v=0
10800 On ch=1 n=c#5 v=78
10860 On ch=1 n=b5 v=0
10860 On ch=1 n=a5 v=78
10920 On ch=1 n=a5 v=0
10920 On ch=1 n=g#5 v=78
10950 On ch=1 n=f#5 v=78
10965 On ch=1 n=f#5 v=0
10965 On ch=1 n=g#5 v=78
10980 On ch=1 n=g#5 v=0
10980 On ch=1 n=g#5 v=0
10980 On ch=1 n=f#5 v=78
11040 On ch=1 n=f#5 v=0
11040 On ch=1 n=e5 v=78
11100 On ch=1 n=e5 v=0
11100 On ch=1 n=f#5 v=79
11160 On ch=1 n=f#5 v=0
11160 On ch=1 n=c#5 v=0
11160 On ch=1 n=g5 v=79
11220 On ch=1 n=g5 v=0
11220 On ch=1 n=g#5 v=79
11280 On ch=1 n=g#5 v=0
11280 On ch=1 n=g#4 v=79
11340 On ch=1 n=g#4 v=0
11340 On ch=1 n=g#5 v=79
11340 On ch=1 n=e5 v=79
11400 On ch=1 n=e5 v=0
11400 On ch=1 n=g#5 v=0
11400 On ch=1 n=g#5 v=79
11400 On ch=1 n=e5 v=79
11460 On ch=1 n=e5 v=0
11460 On ch=1 n=d#5 v=80
11520 On ch=1 n=d#5 v=0
11520 On ch=1 n=c#5 v=80
11640 On ch=1 n=c#5 v=0
11760 On ch=1 n=g#5 v=0
11760 On ch=1 n=g#5 v=80
11880 On ch=1 n=g#5 v=0
11880 On ch=1 n=g#6 v=80
11940 On ch=1 n=g#6 v=0
11940 On ch=1 n=a6 v=80
12000 On ch=1 n=a6 v=0
12000 On ch=1 n=g#6 v=79
12060 On ch=1 n=g#6 v=0
12060 On ch=1 n=f#6 v=79
12120 On ch=1 n=f#6 v=0
12120 On ch=1 n=d#6 v=79
12180 On ch=1 n=d#6 v=0
12180 On ch=1 n=g#5 v=78
12240 On ch=1 n=g#5 v=0
12240 On ch=1 n=f#6 v=78
12300 On ch=1 n=f#6 v=0
12300 On ch=1 n=g#6 v=78
12360 On ch=1 n=g#6 v=0
12360 On ch=1 n=f#6 v=78
12420 On ch=1 n=f#6 v=0
12420 On ch=1 n=e6 v=77
12480 On ch=1 n=e6 v=0
12480 On ch=1 n=c#6 v=77
12540 On ch=1 n=c#6 v=0
12540 On ch=1 n=g#5 v=77
12600 On ch=1 n=g#5 v=0
12600 On ch=1 n=e6 v=76
12660 On ch=1 n=e6 v=0
12660 On ch=1 n=f#6 v=76
12720 On ch=1 n=f#6 v=0
12720 On ch=1 n=e6 v=76
12780 On ch=1 n=e6 v=0
12780 On ch=1 n=d#6 v=76
12840 On ch=1 n=d#6 v=0
12840 On ch=1 n=c6 v=75
12900 On ch=1 n=c6 v=0
12900 On ch=1 n=f#5 v=75
12960 On ch=1 n=f#5 v=0
12960 On ch=1 n=d#6 v=75
13020 On ch=1 n=d#6 v=0
13020 On ch=1 n=e6 v=74
13080 On ch=1 n=e6 v=0
13080 On ch=1 n=d#6 v=74
13140 On ch=1 n=d#6 v=0
13140 On ch=1 n=c#6 v=74
13200 On ch=1 n=c#6 v=0
13200 On ch=1 n=a5 v=74
13260 On ch=1 n=a5 v=0
13260 On ch=1 n=d#5 v=73
13320 On ch=1 n=d#5 v=0
13320 On ch=1 n=c#6 v=73
13380 On ch=1 n=c#6 v=0
13380 On ch=1 n=d#6 v=73
13440 On ch=1 n=d#6 v=0
13440 On ch=1 n=c#6 v=72
13500 On ch=1 n=c#6 v=0
13500 On ch=1 n=a5 v=72
13560 On ch=1 n=a5 v=0
13560 On ch=1 n=d#5 v=72
13620 On ch=1 n=d#5 v=0
13620 On ch=1 n=c#6 v=72
13680 On ch=1 n=c#6 v=0
13680 On ch=1 n=c#6 v=71
13740 On ch=1 n=c#6 v=0
13740 On ch=1 n=d#6 v=71
13800 On ch=1 n=d#6 v=0
13800 On ch=1 n=c#6 v=71
13860 On ch=1 n=c#6 v=0
13860 On ch=1 n=g#5 v=70
13920 On ch=1 n=g#5 v=0
13920 On ch=1 n=c#5 v=70
13980 On ch=1 n=c#5 v=0
13980 On ch=1 n=g#5 v=70
14040 On ch=1 n=g#5 v=0
14040 On ch=1 n=g#5 v=70
14100 On ch=1 n=g#5 v=0
14100 On ch=1 n=g#4 v=71
14160 On ch=1 n=g#4 v=0
14160 On ch=1 n=d#5 v=73
14220 On ch=1 n=d#5 v=0
14220 On ch=1 n=g#5 v=75
14280 On ch=1 n=g#5 v=0
14280 On ch=1 n=a5 v=77
14340 On ch=1 n=a5 v=0
14340 On ch=1 n=g#5 v=78
14400 On ch=1 n=g#5 v=0
14400 On ch=1 n=g5 v=80
14460 On ch=1 n=g5 v=0
14460 On ch=1 n=g#5 v=82
14520 On ch=1 n=g#5 v=0
14520 On ch=1 n=c6 v=84
14580 On ch=1 n=c6 v=0
14580 On ch=1 n=c#6 v=85
14640 On ch=1 n=c#6 v=0
14640 On ch=1 n=e6 v=87
14700 On ch=1 n=e6 v=0
14700 On ch=1 n=f#6 v=89
14760 On ch=1 n=f#6 v=0
14760 On ch=1 n=g#6 v=90
14820 On ch=1 n=g#6 v=0
14820 On ch=1 n=a6 v=89
14880 On ch=1 n=a6 v=0
14880 On ch=1 n=g#6 v=88
14940 On ch=1 n=g#6 v=0
14940 On ch=1 n=f#6 v=87
15000 On ch=1 n=f#6 v=0
15000 On ch=1 n=d#6 v=86
15060 On ch=1 n=d#6 v=0
15060 On ch=1 n=g#5 v=85
15120 On ch=1 n=g#5 v=0
15120 On ch=1 n=f#6 v=84
15180 On ch=1 n=f#6 v=0
15180 On ch=1 n=g#6 v=83
15240 On ch=1 n=g#6 v=0
15240 On ch=1 n=f#6 v=82
15300 On ch=1 n=f#6 v=0
15300 On ch=1 n=e6 v=81
15360 On ch=1 n=e6 v=0
15360 On ch=1 n=c#6 v=80
15420 On ch=1 n=c#6 v=0
15420 On ch=1 n=g#5 v=79
15480 On ch=1 n=g#5 v=0
15480 On ch=1 n=e6 v=78
15540 On ch=1 n=e6 v=0
15540 On ch=1 n=f#6 v=77
15600 On ch=1 n=f#6 v=0
15600 On ch=1 n=e6 v=76
15660 On ch=1 n=e6 v=0
15660 On ch=1 n=d#6 v=74
15720 On ch=1 n=d#6 v=0
15720 On ch=1 n=c6 v=73
15780 On ch=1 n=c6 v=0
15780 On ch=1 n=f#5 v=72
15840 On ch=1 n=f#5 v=0
15840 On ch=1 n=d#6 v=71
15900 On ch=1 n=d#6 v=0
15900 On ch=1 n=e6 v=70
15960 On ch=1 n=e6 v=0
15960 On ch=1 n=d#6 v=69
16020 On ch=1 n=d#6 v=0
16020 On ch=1 n=c#6 v=68
16080 On ch=1 n=c#6 v=0
16080 On ch=1 n=a5 v=67
16140 On ch=1 n=a5 v=0
16140 On ch=1 n=e5 v=66
16200 On ch=1 n=e5 v=0
16200 On ch=1 n=a5 v=65
16260 On ch=1 n=a5 v=0
16260 On ch=1 n=b5 v=64
16320 On ch=1 n=b5 v=0
16320 On ch=1 n=c#6 v=63
16380 On ch=1 n=c#6 v=0
16380 On ch=1 n=d6 v=62
16440 On ch=1 n=d6 v=0
16440 On ch=1 n=e6 v=61
16500 On ch=1 n=e6 v=0
16500 On ch=1 n=f#6 v=59
16560 On ch=1 n=f#6 v=0
16560 On ch=1 n=g6 v=58
16620 On ch=1 n=g6 v=0
16620 On ch=1 n=g#6 v=57
16680 On ch=1 n=g#6 v=0
16680 On ch=1 n=a6 v=56
16740 On ch=1 n=a6 v=0
16740 On ch=1 n=b6 v=55
16800 On ch=1 n=b6 v=0
16800 On ch=1 n=c#7 v=54
16860 On ch=1 n=c#7 v=0
16860 On ch=1 n=d7 v=53
16920 On ch=1 n=d7 v=0
16920 On ch=1 n=d#7 v=52
16980 On ch=1 n=d#7 v=0
16980 On ch=1 n=e7 v=51
17040 On ch=1 n=e7 v=0
17040 On ch=1 n=f7 v=50
17100 On ch=1 n=f7 v=0
17100 On ch=1 n=f#7 v=49
17160 On ch=1 n=f#7 v=0
17160 On ch=1 n=g7 v=48
17220 On ch=1 n=g7 v=0
17220 On ch=1 n=g#7 v=47
17280 On ch=1 n=g#7 v=0
17280 On ch=1 n=c#8 v=46
17310 On ch=1 n=c#8 v=0
17520 On ch=1 n=g#5 v=41
17640 On ch=1 n=g#5 v=0
17640 On ch=1 n=g#6 v=40
17700 On ch=1 n=g#6 v=0
17700 On ch=1 n=a6 v=40
17760 On ch=1 n=a6 v=0
17760 On ch=1 n=g#6 v=40
17820 On ch=1 n=g#6 v=0
17820 On ch=1 n=f#6 v=40
17880 On ch=1 n=f#6 v=0
17880 On ch=1 n=d#6 v=40
17940 On ch=1 n=d#6 v=0
17940 On ch=1 n=g#5 v=40
18000 On ch=1 n=g#5 v=0
18000 On ch=1 n=f#6 v=40
18060 On ch=1 n=f#6 v=0
18060 On ch=1 n=g#6 v=40
18120 On ch=1 n=g#6 v=0
18120 On ch=1 n=f#6 v=40
18180 On ch=1 n=f#6 v=0
18180 On ch=1 n=e6 v=40
18240 On ch=1 n=e6 v=0
18240 On ch=1 n=c#6 v=40
18300 On ch=1 n=c#6 v=0
18300 On ch=1 n=g#5 v=40
18360 On ch=1 n=g#5 v=0
18360 On ch=1 n=e6 v=40
18420 On ch=1 n=e6 v=0
18420 On ch=1 n=f#6 v=40
18480 On ch=1 n=f#6 v=0
18480 On ch=1 n=e6 v=40
18540 On ch=1 n=e6 v=0
18540 On ch=1 n=d#6 v=40
18600 On ch=1 n=d#6 v=0
18600 On ch=1 n=c6 v=40
18660 On ch=1 n=c6 v=0
18660 On ch=1 n=f#5 v=40
18720 On ch=1 n=f#5 v=0
18720 On ch=1 n=d#6 v=40
18780 On ch=1 n=d#6 v=0
18780 On ch=1 n=e6 v=40
18840 On ch=1 n=e6 v=0
18840 On ch=1 n=d#6 v=40
18900 On ch=1 n=d#6 v=0
18900 On ch=1 n=c#6 v=40
18960 On ch=1 n=c#6 v=0
18960 On ch=1 n=a5 v=40
19020 On ch=1 n=a5 v=0
19020 On ch=1 n=e5 v=40
19080 On ch=1 n=e5 v=0
19080 On ch=1 n=c#6 v=40
19140 On ch=1 n=c#6 v=0
19140 On ch=1 n=d#6 v=40
19200 On ch=1 n=d#6 v=0
19200 On ch=1 n=c#6 v=40
19260 On ch=1 n=c#6 v=0
19260 On ch=1 n=a5 v=40
19320 On ch=1 n=a5 v=0
19320 On ch=1 n=d#5 v=40
19380 On ch=1 n=d#5 v=0
19380 On ch=1 n=c#6 v=40
19440 On ch=1 n=c#6 v=0
19440 On ch=1 n=c#6 v=40
19500 On ch=1 n=c#6 v=0
19500 On ch=1 n=d#6 v=40
19560 On ch=1 n=d#6 v=0
19560 On ch=1 n=c#6 v=40
19620 On ch=1 n=c#6 v=0
19620 On ch=1 n=g#5 v=40
19680 On ch=1 n=g#5 v=0
19680 On ch=1 n=c#5 v=40
19740 On ch=1 n=c#5 v=0
19740 On ch=1 n=g#5 v=40
19800 On ch=1 n=g#5 v=0
19800 On ch=1 n=g#5 v=40
19860 On ch=1 n=g#5 v=0
19860 On ch=1 n=g#4 v=40
19920 On ch=1 n=g#4 v=0
19920 On ch=1 n=d#5 v=40
19980 On ch=1 n=d#5 v=0
19980 On ch=1 n=g#5 v=40
20040 On ch=1 n=g#5 v=0
20040 On ch=1 n=a5 v=40
20100 On ch=1 n=a5 v=0
20100 On ch=1 n=g#5 v=40
20160 On ch=1 n=g#5 v=0
20160 On ch=1 n=g5 v=40
20220 On ch=1 n=g5 v=0
20220 On ch=1 n=g#5 v=40
20280 On ch=1 n=g#5 v=0
20280 On ch=1 n=c6 v=40
20340 On ch=1 n=c6 v=0
20340 On ch=1 n=c#6 v=40
20400 On ch=1 n=c#6 v=0
20400 On ch=1 n=e6 v=40
20460 On ch=1 n=e6 v=0
20460 On ch=1 n=f#6 v=40
20520 On ch=1 n=f#6 v=0
20520 On ch=1 n=g#6 v=40
20580 On ch=1 n=g#6 v=0
20580 On ch=1 n=a6 v=40
20640 On ch=1 n=a6 v=0
20640 On ch=1 n=g#6 v=40
20700 On ch=1 n=g#6 v=0
20700 On ch=1 n=f#6 v=40
20760 On ch=1 n=f#6 v=0
20760 On ch=1 n=d#6 v=40
20820 On ch=1 n=d#6 v=0
20820 On ch=1 n=g#5 v=40
20880 On ch=1 n=g#5 v=0
20880 On ch=1 n=f#6 v=40
20940 On ch=1 n=f#6 v=0
20940 On ch=1 n=g#6 v=40
21000 On ch=1 n=g#6 v=0
21000 On ch=1 n=f#6 v=40
21060 On ch=1 n=f#6 v=0
21060 On ch=1 n=e6 v=40
21120 On ch=1 n=e6 v=0
21120 On ch=1 n=c#6 v=40
21180 On ch=1 n=c#6 v=0
21180 On ch=1 n=g#5 v=40
21240 On ch=1 n=g#5 v=0
21240 On ch=1 n=e6 v=40
21300 On ch=1 n=e6 v=0
21300 On ch=1 n=f#6 v=40
21360 On ch=1 n=f#6 v=0
21360 On ch=1 n=e6 v=40
21420 On ch=1 n=e6 v=0
21420 On ch=1 n=d#6 v=40
21480 On ch=1 n=d#6 v=0
21480 On ch=1 n=c6 v=40
21540 On ch=1 n=c6 v=0
21540 On ch=1 n=f#5 v=40
21600 On ch=1 n=f#5 v=0
21600 On ch=1 n=d#6 v=40
21660 On ch=1 n=d#6 v=0
21660 On ch=1 n=e6 v=40
21720 On ch=1 n=e6 v=0
21720 On ch=1 n=d#6 v=40
21780 On ch=1 n=d#6 v=0
21780 On ch=1 n=c#6 v=40
21840 On ch=1 n=c#6 v=0
21840 On ch=1 n=a5 v=40
21900 On ch=1 n=a5 v=0
21900 On ch=1 n=e5 v=40
21960 On ch=1 n=e5 v=0
21960 On ch=1 n=a5 v=40
22020 On ch=1 n=a5 v=0
22020 On ch=1 n=b5 v=40
22080 On ch=1 n=b5 v=0
22080 On ch=1 n=c#6 v=40
22140 On ch=1 n=c#6 v=0
22140 On ch=1 n=d6 v=40
22200 On ch=1 n=d6 v=0
22200 On ch=1 n=e6 v=40
22260 On ch=1 n=e6 v=0
22260 On ch=1 n=f#6 v=40
22320 On ch=1 n=f#6 v=0
22320 On ch=1 n=g6 v=40
22380 On ch=1 n=g6 v=0
22380 On ch=1 n=g#6 v=40
22440 On ch=1 n=g#6 v=0
22440 On ch=1 n=a6 v=40
22500 On ch=1 n=a6 v=0
22500 On ch=1 n=b6 v=40
22560 On ch=1 n=b6 v=0
22560 On ch=1 n=c#7 v=40
22620 On ch=1 n=c#7 v=0
22620 On ch=1 n=d7 v=40
22680 On ch=1 n=d7 v=0
22680 On ch=1 n=d#7 v=40
22740 On ch=1 n=d#7 v=0
22740 On ch=1 n=e7 v=40
22800 On ch=1 n=e7 v=0
22800 On ch=1 n=f7 v=40
22860 On ch=1 n=f7 v=0
22860 On ch=1 n=f#7 v=40
22920 On ch=1 n=f#7 v=0
22920 On ch=1 n=g7 v=40
22980 On ch=1 n=g7 v=0
22980 On ch=1 n=g#7 v=40
23040 On ch=1 n=g#7 v=0
23040 On ch=1 n=c#8 v=40
23070 On ch=1 n=c#8 v=0
23280 On ch=1 n=f5 v=80
23400 On ch=1 n=f5 v=0
23400 On ch=1 n=f6 v=79
23760 On ch=1 n=f6 v=0
23760 On ch=1 n=f6 v=76
24000 On ch=1 n=f6 v=0
24000 On ch=1 n=d#6 v=74
24360 On ch=1 n=d#6 v=0
24360 On ch=1 n=c#6 v=71
24480 On ch=1 n=c#6 v=0
24480 On ch=1 n=c6 v=70
24600 On ch=1 n=c6 v=0
24600 On ch=1 n=a#5 v=70
24720 On ch=1 n=a#5 v=0
24720 On ch=1 n=f5 v=70
24840 On ch=1 n=f5 v=0
24840 On ch=1 n=f#5 v=70
24960 On ch=1 n=f#5 v=0
25200 On ch=1 n=f#6 v=70
25440 On ch=1 n=f#6 v=0
25440 On ch=1 n=f6 v=70
25680 On ch=1 n=f6 v=0
25680 On ch=1 n=d#6 v=70
25860 On ch=1 n=d#6 v=0
25860 On ch=1 n=c#6 v=70
25920 On ch=1 n=c#6 v=0
25920 On ch=1 n=c6 v=70
25980 On ch=1 n=c6 v=0
25980 On ch=1 n=c#6 v=70
26040 On ch=1 n=c#6 v=0
26040 On ch=1 n=f6 v=70
26100 On ch=1 n=f6 v=0
26100 On ch=1 n=d#6 v=70
26160 On ch=1 n=d#6 v=0
26160 On ch=1 n=c6 v=70
26220 On ch=1 n=c6 v=0
26220 On ch=1 n=a#5 v=70
26280 On ch=1 n=a#5 v=0
26280 On ch=1 n=g#5 v=70
26400 On ch=1 n=g#5 v=0
26520 On ch=1 n=g#6 v=68
26760 On ch=1 n=g#6 v=0
26760 On ch=1 n=f#6 v=65
26880 On ch=1 n=f#6 v=0
26880 On ch=1 n=f6 v=64
27000 On ch=1 n=f6 v=0
27000 On ch=1 n=f6 v=62
27120 On ch=1 n=f6 v=0
27120 On ch=1 n=d#6 v=61
27240 On ch=1 n=d#6 v=0
27240 On ch=1 n=c#7 v=1
27600 On ch=1 n=c#7 v=0
27600 On ch=1 n=c#7 v=60
27840 On ch=1 n=c#7 v=0
27840 On ch=1 n=c7 v=60
28020 On ch=1 n=c7 v=0
28020 On ch=1 n=a#6 v=60
28080 On ch=1 n=a#6 v=0
28080 On ch=1 n=c7 v=60
28200 On ch=1 n=c7 v=0
28200 On ch=1 n=a#6 v=60
28320 On ch=1 n=a#6 v=0
28320 On ch=1 n=a6 v=60
28440 On ch=1 n=a6 v=0
28440 On ch=1 n=g#6 v=60
28560 On ch=1 n=g#6 v=0
28560 On ch=1 n=g6 v=60
28680 On ch=1 n=g6 v=0
28680 On ch=1 n=f#6 v=60
28800 On ch=1 n=f#6 v=0
28800 On ch=1 n=f6 v=60
28860 On ch=1 n=f6 v=0
28860 On ch=1 n=c6 v=60
28890 On ch=1 n=c#6 v=60
28905 On ch=1 n=c#6 v=0
28905 On ch=1 n=d#6 v=60
28920 On ch=1 n=d#6 v=0
28920 On ch=1 n=c6 v=0
28920 On ch=1 n=c#6 v=60
28980 On ch=1 n=c#6 v=0
28980 On ch=1 n=c6 v=60
29040 On ch=1 n=c6 v=0
29040 On ch=1 n=c#6 v=60
29100 On ch=1 n=c#6 v=0
29100 On ch=1 n=a#5 v=60
29160 On ch=1 n=a#5 v=0
29160 On ch=1 n=g#5 v=60
29280 On ch=1 n=g#5 v=0
29400 On ch=1 n=f6 v=60
29760 On ch=1 n=f6 v=0
29760 On ch=1 n=d#6 v=60
30000 On ch=1 n=d#6 v=0
30000 On ch=1 n=c#6 v=60
30120 On ch=1 n=c#6 v=0
30120 On ch=1 n=a5 v=60
30240 On ch=1 n=a5 v=0
30240 On ch=1 n=c6 v=60
30284 On ch=1 n=c6 v=0
30284 On ch=1 n=a#5 v=60
30328 On ch=1 n=a#5 v=0
30328 On ch=1 n=e5 v=60
30372 On ch=1 n=e5 v=0
30374 On ch=1 n=f5 v=60
30418 On ch=1 n=f5 v=0
30418 On ch=1 n=f#5 v=60
30462 On ch=1 n=f#5 v=0
30465 On ch=1 n=f5 v=60
30509 On ch=1 n=f5 v=0
30509 On ch=1 n=a#5 v=60
30553 On ch=1 n=a#5 v=0
30556 On ch=1 n=a5 v=60
30600 On ch=1 n=a5 v=0
30600 On ch=1 n=g#5 v=60
30640 On ch=1 n=g#5 v=0
30640 On ch=1 n=g5 v=60
30680 On ch=1 n=g5 v=0
30680 On ch=1 n=f#5 v=60
30720 On ch=1 n=f#5 v=0
30720 On ch=1 n=f#6 v=60
30780 On ch=1 n=f#6 v=0
31200 On ch=1 n=f6 v=60
31440 On ch=1 n=f6 v=0
31440 On ch=1 n=d#6 v=60
31560 On ch=1 n=d#6 v=0
31560 On ch=1 n=c#6 v=60
31635 On ch=1 n=c6 v=60
31650 On ch=1 n=c6 v=0
31650 On ch=1 n=c#6 v=60
31665 On ch=1 n=c#6 v=0
31665 On ch=1 n=d#6 v=60
31680 On ch=1 n=d#6 v=0
31680 On ch=1 n=c#6 v=0
31680 On ch=1 n=c#6 v=60
31800 On ch=1 n=c#6 v=0
31800 On ch=1 n=c6 v=60
31860 On ch=1 n=c6 v=0
31860 On ch=1 n=d#6 v=60
31920 On ch=1 n=d#6 v=0
31920 On ch=1 n=a#5 v=60
31980 On ch=1 n=a#5 v=0
31980 On ch=1 n=c6 v=60
32040 On ch=1 n=c6 v=0
32040 On ch=1 n=g#5 v=60
32160 On ch=1 n=g#5 v=0
32280 On ch=1 n=g#6 v=60
32520 On ch=1 n=g#6 v=0
32520 On ch=1 n=f#6 v=60
32700 On ch=1 n=f#6 v=0
32700 On ch=1 n=f6 v=60
32760 On ch=1 n=f6 v=0
32760 On ch=1 n=f6 v=60
32880 On ch=1 n=f6 v=0
32880 On ch=1 n=d#6 v=60
33000 On ch=1 n=d#6 v=0
33000 On ch=1 n=c#7 v=60
33360 On ch=1 n=c#7 v=0
33360 On ch=1 n=c#7 v=60
33600 On ch=1 n=c#7 v=0
33600 On ch=1 n=c7 v=60
33720 On ch=1 n=c7 v=0
33720 On ch=1 n=a#6 v=60
33840 On ch=1 n=a#6 v=0
33840 On ch=1 n=g#6 v=60
33960 On ch=1 n=g#6 v=0
33960 On ch=1 n=g6 v=58
34080 On ch=1 n=g6 v=0
34080 On ch=1 n=f#6 v=56
34200 On ch=1 n=f#6 v=0
34200 On ch=1 n=e6 v=53
34320 On ch=1 n=e6 v=0
34320 On ch=1 n=d#6 v=51
34440 On ch=1 n=d#6 v=0
34440 On ch=1 n=c#6 v=48
34560 On ch=1 n=c#6 v=0
34560 On ch=1 n=c6 v=46
34620 On ch=1 n=c6 v=0
34620 On ch=1 n=c#6 v=44
34680 On ch=1 n=c#6 v=0
34680 On ch=1 n=d#6 v=43
34740 On ch=1 n=d#6 v=0
34740 On ch=1 n=c#6 v=42
34800 On ch=1 n=c#6 v=0
34800 On ch=1 n=e6 v=41
34860 On ch=1 n=e6 v=0
34860 On ch=1 n=g5 v=40
34920 On ch=1 n=g5 v=0
34920 On ch=1 n=g#5 v=80
34980 On ch=1 n=g#5 v=0
34980 On ch=1 n=a6 v=80
35040 On ch=1 n=a6 v=0
35040 On ch=1 n=g#6 v=80
35100 On ch=1 n=g#6 v=0
35100 On ch=1 n=f#6 v=79
35160 On ch=1 n=f#6 v=0
35160 On ch=1 n=d#6 v=79
35220 On ch=1 n=d#6 v=0
35220 On ch=1 n=g#5 v=78
35280 On ch=1 n=g#5 v=0
35280 On ch=1 n=f#6 v=78
35340 On ch=1 n=f#6 v=0
35340 On ch=1 n=g#6 v=77
35400 On ch=1 n=g#6 v=0
35400 On ch=1 n=f#6 v=77
35460 On ch=1 n=f#6 v=0
35460 On ch=1 n=e6 v=76
35520 On ch=1 n=e6 v=0
35520 On ch=1 n=c#6 v=76
35580 On ch=1 n=c#6 v=0
35580 On ch=1 n=g#5 v=75
35640 On ch=1 n=g#5 v=0
35640 On ch=1 n=e6 v=75
35700 On ch=1 n=e6 v=0
35700 On ch=1 n=f#6 v=74
35760 On ch=1 n=f#6 v=0
35760 On ch=1 n=e6 v=74
35820 On ch=1 n=e6 v=0
35820 On ch=1 n=d#6 v=73
35880 On ch=1 n=d#6 v=0
35880 On ch=1 n=c6 v=73
35940 On ch=1 n=c6 v=0
35940 On ch=1 n=f#5 v=72
36000 On ch=1 n=f#5 v=0
36000 On ch=1 n=d#6 v=72
36060 On ch=1 n=d#6 v=0
36060 On ch=1 n=e6 v=71
36120 On ch=1 n=e6 v=0
36120 On ch=1 n=d#6 v=71
36180 On ch=1 n=d#6 v=0
36180 On ch=1 n=c#6 v=70
36240 On ch=1 n=c#6 v=0
36240 On ch=1 n=a5 v=70
36300 On ch=1 n=a5 v=0
36300 On ch=1 n=d#5 v=69
36360 On ch=1 n=d#5 v=0
36360 On ch=1 n=c#6 v=69
36420 On ch=1 n=c#6 v=0
36420 On ch=1 n=d#6 v=68
36480 On ch=1 n=d#6 v=0
36480 On ch=1 n=c#6 v=68
36540 On ch=1 n=c#6 v=0
36540 On ch=1 n=a5 v=67
36600 On ch=1 n=a5 v=0
36600 On ch=1 n=d#5 v=67
36660 On ch=1 n=d#5 v=0
36660 On ch=1 n=c#6 v=66
36720 On ch=1 n=c#6 v=0
36720 On ch=1 n=c#6 v=66
36780 On ch=1 n=c#6 v=0
36780 On ch=1 n=d#6 v=65
36840 On ch=1 n=d#6 v=0
36840 On ch=1 n=c#6 v=65
36900 On ch=1 n=c#6 v=0
36900 On ch=1 n=g#5 v=64
36960 On ch=1 n=g#5 v=0
36960 On ch=1 n=c#5 v=64
37020 On ch=1 n=c#5 v=0
37020 On ch=1 n=g#5 v=63
37080 On ch=1 n=g#5 v=0
37080 On ch=1 n=g#5 v=63
37140 On ch=1 n=g#5 v=0
37140 On ch=1 n=g#4 v=62
37200 On ch=1 n=g#4 v=0
37200 On ch=1 n=d#5 v=62
37260 On ch=1 n=d#5 v=0
37260 On ch=1 n=g#5 v=61
37320 On ch=1 n=g#5 v=0
37320 On ch=1 n=a5 v=61
37380 On ch=1 n=a5 v=0
37380 On ch=1 n=g#5 v=60
37440 On ch=1 n=g#5 v=0
37440 On ch=1 n=g5 v=60
37500 On ch=1 n=g5 v=0
37500 On ch=1 n=g#5 v=63
37560 On ch=1 n=g#5 v=0
37560 On ch=1 n=c6 v=67
37620 On ch=1 n=c6 v=0
37620 On ch=1 n=c#6 v=70
37680 On ch=1 n=c#6 v=0
37680 On ch=1 n=e6 v=74
37740 On ch=1 n=e6 v=0
37740 On ch=1 n=f#6 v=77
37800 On ch=1 n=f#6 v=0
37800 On ch=1 n=g#6 v=80
37860 On ch=1 n=g#6 v=0
37860 On ch=1 n=a6 v=80
37920 On ch=1 n=a6 v=0
37920 On ch=1 n=g#6 v=79
37980 On ch=1 n=g#6 v=0
37980 On ch=1 n=f#6 v=78
38040 On ch=1 n=f#6 v=0
38040 On ch=1 n=d#6 v=77
38100 On ch=1 n=d#6 v=0
38100 On ch=1 n=g#5 v=76
38160 On ch=1 n=g#5 v=0
38160 On ch=1 n=f#6 v=75
38220 On ch=1 n=f#6 v=0
38220 On ch=1 n=g#6 v=75
38280 On ch=1 n=g#6 v=0
38280 On ch=1 n=f#6 v=74
38340 On ch=1 n=f#6 v=0
38340 On ch=1 n=e6 v=73
38400 On ch=1 n=e6 v=0
38400 On ch=1 n=c#6 v=72
38460 On ch=1 n=c#6 v=0
38460 On ch=1 n=g#5 v=71
38520 On ch=1 n=g#5 v=0
38520 On ch=1 n=e6 v=70
38580 On ch=1 n=e6 v=0
38580 On ch=1 n=f#6 v=69
38640 On ch=1 n=f#6 v=0
38640 On ch=1 n=e6 v=69
38700 On ch=1 n=e6 v=0
38700 On ch=1 n=d#6 v=68
38760 On ch=1 n=d#6 v=0
38760 On ch=1 n=c6 v=67
38820 On ch=1 n=c6 v=0
38820 On ch=1 n=f#5 v=66
38880 On ch=1 n=f#5 v=0
38880 On ch=1 n=d#6 v=65
38940 On ch=1 n=d#6 v=0
38940 On ch=1 n=e6 v=64
39000 On ch=1 n=e6 v=0
39000 On ch=1 n=d#6 v=63
39060 On ch=1 n=d#6 v=0
39060 On ch=1 n=c#6 v=63
39120 On ch=1 n=c#6 v=0
39120 On ch=1 n=a5 v=62
39180 On ch=1 n=a5 v=0
39180 On ch=1 n=e5 v=61
39240 On ch=1 n=e5 v=0
39240 On ch=1 n=a5 v=60
39300 On ch=1 n=a5 v=0
39300 On ch=1 n=b5 v=59
39360 On ch=1 n=b5 v=0
39360 On ch=1 n=c#6 v=58
39420 On ch=1 n=c#6 v=0
39420 On ch=1 n=d6 v=57
39480 On ch=1 n=d6 v=0
39480 On ch=1 n=e6 v=57
39540 On ch=1 n=e6 v=0
39540 On ch=1 n=f#6 v=56
39600 On ch=1 n=f#6 v=0
39600 On ch=1 n=g6 v=55
39660 On ch=1 n=g6 v=0
39660 On ch=1 n=g#6 v=54
39720 On ch=1 n=g#6 v=0
39720 On ch=1 n=a6 v=53
39780 On ch=1 n=a6 v=0
39780 On ch=1 n=b6 v=52
39840 On ch=1 n=b6 v=0
39840 On ch=1 n=c#7 v=51
39900 On ch=1 n=c#7 v=0
39900 On ch=1 n=d7 v=51
39960 On ch=1 n=d7 v=0
39960 On ch=1 n=d#7 v=50
40020 On ch=1 n=d#7 v=0
40020 On ch=1 n=e7 v=49
40080 On ch=1 n=e7 v=0
40080 On ch=1 n=f7 v=48
40140 On ch=1 n=f7 v=0
40140 On ch=1 n=f#7 v=47
40200 On ch=1 n=f#7 v=0
40200 On ch=1 n=g7 v=46
40260 On ch=1 n=g7 v=0
40260 On ch=1 n=g#7 v=45
40320 On ch=1 n=g#7 v=0
40320 On ch=1 n=c#8 v=45
40350 On ch=1 n=c#8 v=0
40560 On ch=1 n=g#5 v=41
40680 On ch=1 n=g#5 v=0
40680 On ch=1 n=g#6 v=40
40740 On ch=1 n=g#6 v=0
40740 On ch=1 n=a6 v=40
40800 On ch=1 n=a6 v=0
40800 On ch=1 n=g#6 v=40
40860 On ch=1 n=g#6 v=0
40860 On ch=1 n=f#6 v=40
40920 On ch=1 n=f#6 v=0
40920 On ch=1 n=d#6 v=40
40980 On ch=1 n=d#6 v=0
40980 On ch=1 n=g#5 v=40
41040 On ch=1 n=g#5 v=0
41040 On ch=1 n=f#6 v=40
41100 On ch=1 n=f#6 v=0
41100 On ch=1 n=g#6 v=40
41160 On ch=1 n=g#6 v=0
41160 On ch=1 n=f#6 v=40
41220 On ch=1 n=f#6 v=0
41220 On ch=1 n=e6 v=40
41280 On ch=1 n=e6 v=0
41280 On ch=1 n=c#6 v=40
41340 On ch=1 n=c#6 v=0
41340 On ch=1 n=g#5 v=40
41400 On ch=1 n=g#5 v=0
41400 On ch=1 n=e6 v=40
41460 On ch=1 n=e6 v=0
41460 On ch=1 n=f#6 v=40
41520 On ch=1 n=f#6 v=0
41520 On ch=1 n=e6 v=40
41580 On ch=1 n=e6 v=0
41580 On ch=1 n=d#6 v=40
41640 On ch=1 n=d#6 v=0
41640 On ch=1 n=c6 v=40
41700 On ch=1 n=c6 v=0
41700 On ch=1 n=f#5 v=40
41760 On ch=1 n=f#5 v=0
41760 On ch=1 n=d#6 v=40
41820 On ch=1 n=d#6 v=0
41820 On ch=1 n=e6 v=40
41880 On ch=1 n=e6 v=0
41880 On ch=1 n=d#6 v=40
41940 On ch=1 n=d#6 v=0
41940 On ch=1 n=c#6 v=40
42000 On ch=1 n=c#6 v=0
42000 On ch=1 n=a5 v=40
42060 On ch=1 n=a5 v=0
42060 On ch=1 n=e5 v=40
42120 On ch=1 n=e5 v=0
42120 On ch=1 n=c#6 v=40
42180 On ch=1 n=c#6 v=0
42180 On ch=1 n=d#6 v=40
42240 On ch=1 n=d#6 v=0
42240 On ch=1 n=c#6 v=40
42300 On ch=1 n=c#6 v=0
42300 On ch=1 n=a5 v=40
42360 On ch=1 n=a5 v=0
42360 On ch=1 n=d#5 v=40
42420 On ch=1 n=d#5 v=0
42420 On ch=1 n=c#6 v=40
42480 On ch=1 n=c#6 v=0
42480 On ch=1 n=c#6 v=40
42540 On ch=1 n=c#6 v=0
42540 On ch=1 n=d#6 v=40
42600 On ch=1 n=d#6 v=0
42600 On ch=1 n=c#6 v=40
42660 On ch=1 n=c#6 v=0
42660 On ch=1 n=g#5 v=40
42720 On ch=1 n=g#5 v=0
42720 On ch=1 n=c#5 v=40
42780 On ch=1 n=c#5 v=0
42780 On ch=1 n=g#5 v=40
42840 On ch=1 n=g#5 v=0
42840 On ch=1 n=g#5 v=40
42900 On ch=1 n=g#5 v=0
42900 On ch=1 n=g#4 v=40
42960 On ch=1 n=g#4 v=0
42960 On ch=1 n=d#5 v=40
43020 On ch=1 n=d#5 v=0
43020 On ch=1 n=g#5 v=40
43080 On ch=1 n=g#5 v=0
43080 On ch=1 n=a5 v=40
43140 On ch=1 n=a5 v=0
43140 On ch=1 n=g#5 v=40
43200 On ch=1 n=g#5 v=0
43200 On ch=1 n=g5 v=40
43260 On ch=1 n=g5 v=0
43260 On ch=1 n=g#5 v=40
43320 On ch=1 n=g#5 v=0
43320 On ch=1 n=c6 v=40
43380 On ch=1 n=c6 v=0
43380 On ch=1 n=c#6 v=40
43440 On ch=1 n=c#6 v=0
43440 On ch=1 n=e6 v=40
43500 On ch=1 n=e6 v=0
43500 On ch=1 n=f#6 v=40
43560 On ch=1 n=f#6 v=0
43560 On ch=1 n=g#6 v=40
43620 On ch=1 n=g#6 v=0
43620 On ch=1 n=a6 v=40
43680 On ch=1 n=a6 v=0
43680 On ch=1 n=g#6 v=40
43740 On ch=1 n=g#6 v=0
43740 On ch=1 n=f#6 v=40
43800 On ch=1 n=f#6 v=0
43800 On ch=1 n=d#6 v=40
43860 On ch=1 n=d#6 v=0
43860 On ch=1 n=g#5 v=40
43920 On ch=1 n=g#5 v=0
43920 On ch=1 n=f#6 v=40
43980 On ch=1 n=f#6 v=0
43980 On ch=1 n=g#6 v=40
44040 On ch=1 n=g#6 v=0
44040 On ch=1 n=f#6 v=40
44100 On ch=1 n=f#6 v=0
44100 On ch=1 n=e6 v=40
44160 On ch=1 n=e6 v=0
44160 On ch=1 n=c#6 v=40
44220 On ch=1 n=c#6 v=0
44220 On ch=1 n=g#5 v=40
44280 On ch=1 n=g#5 v=0
44280 On ch=1 n=e6 v=40
44340 On ch=1 n=e6 v=0
44340 On ch=1 n=f#6 v=40
44400 On ch=1 n=f#6 v=0
44400 On ch=1 n=e6 v=40
44460 On ch=1 n=e6 v=0
44460 On ch=1 n=d#6 v=40
44520 On ch=1 n=d#6 v=0
44520 On ch=1 n=c6 v=40
44580 On ch=1 n=c6 v=0
44580 On ch=1 n=f#5 v=40
44640 On ch=1 n=f#5 v=0
44640 On ch=1 n=d#6 v=40
44700 On ch=1 n=d#6 v=0
44700 On ch=1 n=e6 v=40
44760 On ch=1 n=e6 v=0
44760 On ch=1 n=d#6 v=40
44820 On ch=1 n=d#6 v=0
44820 On ch=1 n=c#6 v=40
44880 On ch=1 n=c#6 v=0
44880 On ch=1 n=a5 v=40
44940 On ch=1 n=a5 v=0
44940 On ch=1 n=e5 v=40
45000 On ch=1 n=e5 v=0
45000 On ch=1 n=a5 v=40
45060 On ch=1 n=a5 v=0
45060 On ch=1 n=b5 v=40
45120 On ch=1 n=b5 v=0
45120 On ch=1 n=c#6 v=40
45180 On ch=1 n=c#6 v=0
45180 On ch=1 n=d6 v=40
45240 On ch=1 n=d6 v=0
45240 On ch=1 n=e6 v=40
45300 On ch=1 n=e6 v=0
45300 On ch=1 n=f#6 v=40
45360 On ch=1 n=f#6 v=0
45360 On ch=1 n=g6 v=40
45420 On ch=1 n=g6 v=0
45420 On ch=1 n=g#6 v=40
45480 On ch=1 n=g#6 v=0
45480 On ch=1 n=a6 v=40
45540 On ch=1 n=a6 v=0
45540 On ch=1 n=b6 v=40
45600 On ch=1 n=b6 v=0
45600 On ch=1 n=c#7 v=40
45660 On ch=1 n=c#7 v=0
45660 On ch=1 n=d7 v=40
45720 On ch=1 n=d7 v=0
45720 On ch=1 n=d#7 v=40
45780 On ch=1 n=d#7 v=0
45780 On ch=1 n=e7 v=40
45840 On ch=1 n=e7 v=0
45840 On ch=1 n=f7 v=40
45900 On ch=1 n=f7 v=0
45900 On ch=1 n=f#7 v=40
45960 On ch=1 n=f#7 v=0
45960 On ch=1 n=g7 v=40
46020 On ch=1 n=g7 v=0
46020 On ch=1 n=g#7 v=40
46080 On ch=1 n=g#7 v=0
46080 On ch=1 n=c#8 v=40
46110 On ch=1 n=c#8 v=0
46320 On ch=1 n=g#5 v=80
46440 On ch=1 n=e6 v=79
46800 On ch=1 n=e6 v=0
46800 On ch=1 n=g#5 v=0
46800 On ch=1 n=g5 v=74
46800 On ch=1 n=d#6 v=74
47160 On ch=1 n=d#6 v=0
47160 On ch=1 n=g5 v=0
47220 On ch=1 n=f#5 v=70
47220 On ch=1 n=g#5 v=70
47265 On ch=1 n=b5 v=71
47280 On ch=1 n=b5 v=0
47280 On ch=1 n=g#5 v=0
47280 On ch=1 n=f#5 v=0
47280 On ch=1 n=f#5 v=71
47280 On ch=1 n=a5 v=71
47340 On ch=1 n=a5 v=0
47340 On ch=1 n=f#5 v=0
47370 On ch=1 n=f#5 v=73
47370 On ch=1 n=g#5 v=73
47400 On ch=1 n=g#5 v=0
47400 On ch=1 n=f#5 v=0
47400 On ch=1 n=d#6 v=73
47400 On ch=1 n=f#5 v=73
47520 On ch=1 n=f#5 v=0
47520 On ch=1 n=d#6 v=0
47580 On ch=1 n=g#5 v=76
47580 On ch=1 n=f#5 v=76
47625 On ch=1 n=b5 v=77
47640 On ch=1 n=b5 v=0
47640 On ch=1 n=f#5 v=0
47640 On ch=1 n=g#5 v=0
47640 On ch=1 n=a5 v=77
47640 On ch=1 n=f#5 v=77
47700 On ch=1 n=f#5 v=0
47700 On ch=1 n=a5 v=0
47730 On ch=1 n=g#5 v=78
47730 On ch=1 n=f#5 v=78
47760 On ch=1 n=f#5 v=0
47760 On ch=1 n=g#5 v=0
47760 On ch=1 n=c#6 v=79
47760 On ch=1 n=e5 v=79
47880 On ch=1 n=e5 v=0
47880 On ch=1 n=c#6 v=0
47880 On ch=1 n=e5 v=80
47880 On ch=1 n=c#6 v=80
48240 On ch=1 n=c#6 v=0
48240 On ch=1 n=e5 v=0
48240 On ch=1 n=c6 v=79
48240 On ch=1 n=d#5 v=79
48600 On ch=1 n=d#5 v=0
48600 On ch=1 n=c6 v=0
48660 On ch=1 n=d5 v=77
48660 On ch=1 n=e5 v=77
48705 On ch=1 n=g#5 v=77
48720 On ch=1 n=g#5 v=0
48720 On ch=1 n=e5 v=0
48720 On ch=1 n=d5 v=0
48720 On ch=1 n=d5 v=77
48720 On ch=1 n=f#5 v=77
48780 On ch=1 n=f#5 v=0
48780 On ch=1 n=d5 v=0
48810 On ch=1 n=d5 v=76
48810 On ch=1 n=e5 v=76
48840 On ch=1 n=e5 v=0
48840 On ch=1 n=d5 v=0
48840 On ch=1 n=b5 v=76
48840 On ch=1 n=d5 v=76
48960 On ch=1 n=d5 v=0
48960 On ch=1 n=b5 v=0
49020 On ch=1 n=d5 v=76
49020 On ch=1 n=e5 v=76
49065 On ch=1 n=g#5 v=75
49080 On ch=1 n=g#5 v=0
49080 On ch=1 n=e5 v=0
49080 On ch=1 n=d5 v=0
49080 On ch=1 n=c#5 v=75
49080 On ch=1 n=f#5 v=75
49140 On ch=1 n=f#5 v=0
49140 On ch=1 n=c#5 v=0
49170 On ch=1 n=c#5 v=75
49170 On ch=1 n=e5 v=75
49200 On ch=1 n=e5 v=0
49200 On ch=1 n=c#5 v=0
49200 On ch=1 n=a5 v=75
49200 On ch=1 n=c#5 v=75
49320 On ch=1 n=c#5 v=0
49320 On ch=1 n=a5 v=0
49320 On ch=1 n=a5 v=74
49320 On ch=1 n=c5 v=74
49320 On ch=1 n=f#5 v=74
49560 On ch=1 n=a5 v=0
49560 On ch=1 n=g#5 v=73
49680 On ch=1 n=f#5 v=0
49680 On ch=1 n=c5 v=0
49680 On ch=1 n=e5 v=73
49740 On ch=1 n=g#5 v=0
49740 On ch=1 n=g#5 v=72
49800 On ch=1 n=g#5 v=0
49800 On ch=1 n=g#5 v=72
49860 On ch=1 n=g#5 v=0
49860 On ch=1 n=a5 v=72
49920 On ch=1 n=a5 v=0
49920 On ch=1 n=a5 v=72
49980 On ch=1 n=a5 v=0
49980 On ch=1 n=a#5 v=71
50040 On ch=1 n=a#5 v=0
50040 On ch=1 n=e5 v=0
50040 On ch=1 n=c#6 v=71
50040 On ch=1 n=d#5 v=71
50040 On ch=1 n=a5 v=71
50280 On ch=1 n=c#6 v=0
50280 On ch=1 n=b5 v=70
50400 On ch=1 n=a5 v=0
50400 On ch=1 n=d#5 v=0
50400 On ch=1 n=g#5 v=70
50460 On ch=1 n=b5 v=0
50460 On ch=1 n=b5 v=71
50520 On ch=1 n=b5 v=0
50520 On ch=1 n=b5 v=73
50580 On ch=1 n=b5 v=0
50580 On ch=1 n=c#6 v=75
50640 On ch=1 n=c#6 v=0
50640 On ch=1 n=g#5 v=0
50640 On ch=1 n=c#6 v=77
50640 On ch=1 n=g#5 v=77
50700 On ch=1 n=c#6 v=0
50700 On ch=1 n=d6 v=78
50760 On ch=1 n=d6 v=0
50760 On ch=1 n=g#5 v=0
50760 On ch=1 n=d6 v=80
50820 On ch=1 n=d6 v=0
50820 On ch=1 n=d#6 v=82
50880 On ch=1 n=d#6 v=0
50880 On ch=1 n=d#6 v=84
50940 On ch=1 n=d#6 v=0
50940 On ch=1 n=g#6 v=85
51000 On ch=1 n=g#6 v=0
51000 On ch=1 n=g#6 v=87
51060 On ch=1 n=g#6 v=0
51060 On ch=1 n=g6 v=89
51120 On ch=1 n=g6 v=0
51120 On ch=1 n=g6 v=90
51180 On ch=1 n=g6 v=0
51180 On ch=1 n=f#6 v=90
51240 On ch=1 n=f#6 v=0
51240 On ch=1 n=f#6 v=89
51300 On ch=1 n=f#6 v=0
51300 On ch=1 n=f6 v=89
51360 On ch=1 n=f6 v=0
51360 On ch=1 n=f6 v=88
51420 On ch=1 n=f6 v=0
51420 On ch=1 n=e6 v=87
51480 On ch=1 n=e6 v=0
51480 On ch=1 n=e6 v=87
51540 On ch=1 n=e6 v=0
51540 On ch=1 n=d#6 v=86
51600 On ch=1 n=d#6 v=0
51600 On ch=1 n=d#6 v=86
51660 On ch=1 n=d#6 v=0
51660 On ch=1 n=d6 v=85
51720 On ch=1 n=d6 v=0
51720 On ch=1 n=d6 v=84
51780 On ch=1 n=d6 v=0
51780 On ch=1 n=c#6 v=84
51840 On ch=1 n=c#6 v=0
51840 On ch=1 n=c#6 v=83
51900 On ch=1 n=c#6 v=0
51900 On ch=1 n=c6 v=83
51960 On ch=1 n=c6 v=0
51960 On ch=1 n=c6 v=82
52020 On ch=1 n=c6 v=0
52020 On ch=1 n=b5 v=81
52080 On ch=1 n=b5 v=0
52080 On ch=1 n=b5 v=81
52140 On ch=1 n=b5 v=0
52140 On ch=1 n=a5 v=80
52200 On ch=1 n=a5 v=0
52200 On ch=1 n=e6 v=80
52200 On ch=1 n=g#5 v=80
52560 On ch=1 n=g#5 v=0
52560 On ch=1 n=e6 v=0
52560 On ch=1 n=g5 v=75
52560 On ch=1 n=d#6 v=75
52920 On ch=1 n=d#6 v=0
52920 On ch=1 n=g5 v=0
52980 On ch=1 n=f#5 v=70
52980 On ch=1 n=g#5 v=70
53025 On ch=1 n=b5 v=71
53040 On ch=1 n=b5 v=0
53040 On ch=1 n=g#5 v=0
53040 On ch=1 n=f#5 v=0
53040 On ch=1 n=f#5 v=71
53040 On ch=1 n=a5 v=71
53100 On ch=1 n=a5 v=0
53100 On ch=1 n=f#5 v=0
53130 On ch=1 n=f#5 v=73
53130 On ch=1 n=g#5 v=73
53160 On ch=1 n=g#5 v=0
53160 On ch=1 n=f#5 v=0
53160 On ch=1 n=d#6 v=73
53160 On ch=1 n=f#5 v=73
53280 On ch=1 n=f#5 v=0
53280 On ch=1 n=d#6 v=0
53340 On ch=1 n=g#5 v=76
53340 On ch=1 n=f#5 v=76
53385 On ch=1 n=b5 v=77
53400 On ch=1 n=b5 v=0
53400 On ch=1 n=f#5 v=0
53400 On ch=1 n=g#5 v=0
53400 On ch=1 n=a5 v=77
53400 On ch=1 n=f#5 v=77
53460 On ch=1 n=f#5 v=0
53460 On ch=1 n=a5 v=0
53490 On ch=1 n=g#5 v=78
53490 On ch=1 n=f#5 v=78
53520 On ch=1 n=f#5 v=0
53520 On ch=1 n=g#5 v=0
53520 On ch=1 n=c#6 v=79
53520 On ch=1 n=e5 v=79
53640 On ch=1 n=e5 v=0
53640 On ch=1 n=c#6 v=0
53640 On ch=1 n=e5 v=80
53640 On ch=1 n=c#6 v=80
54000 On ch=1 n=c#6 v=0
54000 On ch=1 n=e5 v=0
54000 On ch=1 n=c6 v=75
54000 On ch=1 n=d#5 v=75
54360 On ch=1 n=d#5 v=0
54360 On ch=1 n=c6 v=0
54420 On ch=1 n=d5 v=70
54420 On ch=1 n=e5 v=70
54465 On ch=1 n=g#5 v=71
54480 On ch=1 n=g#5 v=0
54480 On ch=1 n=e5 v=0
54480 On ch=1 n=d5 v=0
54480 On ch=1 n=d5 v=71
54480 On ch=1 n=f#5 v=71
54540 On ch=1 n=f#5 v=0
54540 On ch=1 n=d5 v=0
54570 On ch=1 n=d5 v=73
54570 On ch=1 n=e5 v=73
54600 On ch=1 n=e5 v=0
54600 On ch=1 n=d5 v=0
54600 On ch=1 n=b5 v=73
54600 On ch=1 n=d5 v=73
54720 On ch=1 n=d5 v=0
54720 On ch=1 n=b5 v=0
54780 On ch=1 n=d5 v=76
54780 On ch=1 n=e5 v=76
54825 On ch=1 n=g#5 v=77
54840 On ch=1 n=g#5 v=0
54840 On ch=1 n=e5 v=0
54840 On ch=1 n=d5 v=0
54840 On ch=1 n=c#5 v=77
54840 On ch=1 n=f#5 v=77
54900 On ch=1 n=f#5 v=0
54900 On ch=1 n=c#5 v=0
54930 On ch=1 n=c#5 v=78
54930 On ch=1 n=e5 v=78
54960 On ch=1 n=e5 v=0
54960 On ch=1 n=c#5 v=0
54960 On ch=1 n=a5 v=79
54960 On ch=1 n=c#5 v=79
55080 On ch=1 n=c#5 v=0
55080 On ch=1 n=a5 v=0
55080 On ch=1 n=a5 v=80
55080 On ch=1 n=c5 v=80
55080 On ch=1 n=f#5 v=80
55320 On ch=1 n=a5 v=0
55320 On ch=1 n=g#5 v=79
55440 On ch=1 n=f#5 v=0
55440 On ch=1 n=c5 v=0
55440 On ch=1 n=f5 v=78
55500 On ch=1 n=g#5 v=0
55500 On ch=1 n=a#5 v=77
55560 On ch=1 n=a#5 v=0
55560 On ch=1 n=a#5 v=77
55620 On ch=1 n=a#5 v=0
55620 On ch=1 n=b5 v=76
55680 On ch=1 n=b5 v=0
55680 On ch=1 n=b5 v=76
55740 On ch=1 n=b5 v=0
55740 On ch=1 n=c6 v=75
55800 On ch=1 n=c6 v=0
55800 On ch=1 n=f5 v=0
55800 On ch=1 n=d#6 v=75
55800 On ch=1 n=e5 v=75
56040 On ch=1 n=d#6 v=0
56040 On ch=1 n=c#6 v=73
56160 On ch=1 n=e5 v=0
56160 On ch=1 n=d#5 v=72
56220 On ch=1 n=c#6 v=0
56220 On ch=1 n=f#5 v=71
56280 On ch=1 n=f#5 v=0
56280 On ch=1 n=f#5 v=71
56340 On ch=1 n=f#5 v=0
56340 On ch=1 n=g#5 v=70
56400 On ch=1 n=g#5 v=0
56400 On ch=1 n=g#5 v=70
56460 On ch=1 n=g#5 v=0
56460 On ch=1 n=a5 v=69
56520 On ch=1 n=a5 v=0
56520 On ch=1 n=d#5 v=0
56520 On ch=1 n=c#6 v=69
56520 On ch=1 n=d5 v=69
56760 On ch=1 n=c#6 v=0
56760 On ch=1 n=b5 v=67
56880 On ch=1 n=d5 v=0
56880 On ch=1 n=c#5 v=66
56940 On ch=1 n=b5 v=0
56940 On ch=1 n=a5 v=66
57000 On ch=1 n=a5 v=0
57000 On ch=1 n=g#5 v=65
57030 On ch=1 n=f#5 v=65
57045 On ch=1 n=f#5 v=0
57045 On ch=1 n=g#5 v=65
57060 On ch=1 n=g#5 v=0
57060 On ch=1 n=g#5 v=0
57060 On ch=1 n=f#5 v=65
57120 On ch=1 n=f#5 v=0
57120 On ch=1 n=e5 v=64
57180 On ch=1 n=e5 v=0
57180 On ch=1 n=f#5 v=64
57240 On ch=1 n=f#5 v=0
57240 On ch=1 n=c#5 v=0
57240 On ch=1 n=g5 v=63
57300 On ch=1 n=g5 v=0
57300 On ch=1 n=g#5 v=63
57360 On ch=1 n=g#5 v=0
57360 On ch=1 n=g#4 v=62
57420 On ch=1 n=g#4 v=0
57420 On ch=1 n=g#5 v=62
57420 On ch=1 n=e5 v=62
57480 On ch=1 n=e5 v=0
57480 On ch=1 n=g#5 v=0
57480 On ch=1 n=g#5 v=61
57480 On ch=1 n=e5 v=61
57540 On ch=1 n=e5 v=0
57540 On ch=1 n=d#5 v=61
57600 On ch=1 n=d#5 v=0
57600 On ch=1 n=c#5 v=60
57720 On ch=1 n=c#5 v=0
57840 On ch=1 n=g#5 v=0
57840 On ch=1 n=g#5 v=80
57960 On ch=1 n=g#5 v=0
57960 On ch=1 n=g#6 v=79
58020 On ch=1 n=g#6 v=0
58020 On ch=1 n=a6 v=79
58080 On ch=1 n=a6 v=0
58080 On ch=1 n=g#6 v=78
58140 On ch=1 n=g#6 v=0
58140 On ch=1 n=f#6 v=78
58200 On ch=1 n=f#6 v=0
58200 On ch=1 n=d#6 v=77
58260 On ch=1 n=d#6 v=0
58260 On ch=1 n=g#5 v=77
58320 On ch=1 n=g#5 v=0
58320 On ch=1 n=f#6 v=76
58380 On ch=1 n=f#6 v=0
58380 On ch=1 n=g#6 v=76
58440 On ch=1 n=g#6 v=0
58440 On ch=1 n=f#6 v=75
58500 On ch=1 n=f#6 v=0
58500 On ch=1 n=e6 v=74
58560 On ch=1 n=e6 v=0
58560 On ch=1 n=c#6 v=74
58620 On ch=1 n=c#6 v=0
58620 On ch=1 n=g#5 v=73
58680 On ch=1 n=g#5 v=0
58680 On ch=1 n=e6 v=73
58740 On ch=1 n=e6 v=0
58740 On ch=1 n=f#6 v=72
58800 On ch=1 n=f#6 v=0
58800 On ch=1 n=e6 v=72
58860 On ch=1 n=e6 v=0
58860 On ch=1 n=d#6 v=71
58920 On ch=1 n=d#6 v=0
58920 On ch=1 n=c6 v=71
58980 On ch=1 n=c6 v=0
58980 On ch=1 n=f#5 v=70
59040 On ch=1 n=f#5 v=0
59040 On ch=1 n=d#6 v=69
59100 On ch=1 n=d#6 v=0
59100 On ch=1 n=e6 v=69
59160 On ch=1 n=e6 v=0
59160 On ch=1 n=d#6 v=68
59220 On ch=1 n=d#6 v=0
59220 On ch=1 n=c#6 v=68
59280 On ch=1 n=c#6 v=0
59280 On ch=1 n=a5 v=67
59340 On ch=1 n=a5 v=0
59340 On ch=1 n=d#5 v=67
59400 On ch=1 n=d#5 v=0
59400 On ch=1 n=c#6 v=66
59460 On ch=1 n=c#6 v=0
59460 On ch=1 n=d#6 v=66
59520 On ch=1 n=d#6 v=0
59520 On ch=1 n=c#6 v=65
59580 On ch=1 n=c#6 v=0
59580 On ch=1 n=a5 v=64
59640 On ch=1 n=a5 v=0
59640 On ch=1 n=d#5 v=64
59700 On ch=1 n=d#5 v=0
59700 On ch=1 n=c#6 v=63
59760 On ch=1 n=c#6 v=0
59760 On ch=1 n=c#6 v=63
59820 On ch=1 n=c#6 v=0
59820 On ch=1 n=d#6 v=62
59880 On ch=1 n=d#6 v=0
59880 On ch=1 n=c#6 v=62
59940 On ch=1 n=c#6 v=0
59940 On ch=1 n=g#5 v=61
60000 On ch=1 n=g#5 v=0
60000 On ch=1 n=c#5 v=61
60060 On ch=1 n=c#5 v=0
60060 On ch=1 n=g#5 v=60
60120 On ch=1 n=g#5 v=0
60120 On ch=1 n=g#5 v=60
60180 On ch=1 n=g#5 v=0
60180 On ch=1 n=g#4 v=62
60240 On ch=1 n=g#4 v=0
60240 On ch=1 n=d#5 v=65
60300 On ch=1 n=d#5 v=0
60300 On ch=1 n=g#5 v=67
60360 On ch=1 n=g#5 v=0
60360 On ch=1 n=a5 v=70
60420 On ch=1 n=a5 v=0
60420 On ch=1 n=g#5 v=73
60480 On ch=1 n=g#5 v=0
60480 On ch=1 n=g5 v=75
60540 On ch=1 n=g5 v=0
60540 On ch=1 n=g#5 v=78
60600 On ch=1 n=g#5 v=0
60600 On ch=1 n=c6 v=80
60660 On ch=1 n=c6 v=0
60660 On ch=1 n=c#6 v=83
60720 On ch=1 n=c#6 v=0
60720 On ch=1 n=e6 v=86
60780 On ch=1 n=e6 v=0
60780 On ch=1 n=f#6 v=88
60840 On ch=1 n=f#6 v=0
60840 On ch=1 n=g#6 v=90
60900 On ch=1 n=g#6 v=0
60900 On ch=1 n=a6 v=89
60960 On ch=1 n=a6 v=0
60960 On ch=1 n=g#6 v=88
61020 On ch=1 n=g#6 v=0
61020 On ch=1 n=f#6 v=87
61080 On ch=1 n=f#6 v=0
61080 On ch=1 n=d#6 v=86
61140 On ch=1 n=d#6 v=0
61140 On ch=1 n=g#5 v=85
61200 On ch=1 n=g#5 v=0
61200 On ch=1 n=f#6 v=84
61260 On ch=1 n=f#6 v=0
61260 On ch=1 n=g#6 v=83
61320 On ch=1 n=g#6 v=0
61320 On ch=1 n=f#6 v=82
61380 On ch=1 n=f#6 v=0
61380 On ch=1 n=e6 v=81
61440 On ch=1 n=e6 v=0
61440 On ch=1 n=c#6 v=80
61500 On ch=1 n=c#6 v=0
61500 On ch=1 n=g#5 v=79
61560 On ch=1 n=g#5 v=0
61560 On ch=1 n=e6 v=78
61620 On ch=1 n=e6 v=0
61620 On ch=1 n=f#6 v=77
61680 On ch=1 n=f#6 v=0
61680 On ch=1 n=e6 v=76
61740 On ch=1 n=e6 v=0
61740 On ch=1 n=d#6 v=74
61800 On ch=1 n=d#6 v=0
61800 On ch=1 n=c6 v=73
61860 On ch=1 n=c6 v=0
61860 On ch=1 n=f#5 v=72
61920 On ch=1 n=f#5 v=0
61920 On ch=1 n=d#6 v=71
61980 On ch=1 n=d#6 v=0
61980 On ch=1 n=e6 v=70
62040 On ch=1 n=e6 v=0
62040 On ch=1 n=d#6 v=69
62100 On ch=1 n=d#6 v=0
62100 On ch=1 n=c#6 v=68
62160 On ch=1 n=c#6 v=0
62160 On ch=1 n=a5 v=67
62220 On ch=1 n=a5 v=0
62220 On ch=1 n=e5 v=66
62280 On ch=1 n=e5 v=0
62280 On ch=1 n=a5 v=65
62340 On ch=1 n=a5 v=0
62340 On ch=1 n=b5 v=64
62400 On ch=1 n=b5 v=0
62400 On ch=1 n=c#6 v=63
62460 On ch=1 n=c#6 v=0
62460 On ch=1 n=d6 v=62
62520 On ch=1 n=d6 v=0
62520 On ch=1 n=e6 v=61
62580 On ch=1 n=e6 v=0
62580 On ch=1 n=f#6 v=59
62640 On ch=1 n=f#6 v=0
62640 On ch=1 n=g6 v=58
62700 On ch=1 n=g6 v=0
62700 On ch=1 n=g#6 v=57
62760 On ch=1 n=g#6 v=0
62760 On ch=1 n=a6 v=56
62820 On ch=1 n=a6 v=0
62820 On ch=1 n=b6 v=55
62880 On ch=1 n=b6 v=0
62880 On ch=1 n=c#7 v=54
62940 On ch=1 n=c#7 v=0
62940 On ch=1 n=d7 v=53
63000 On ch=1 n=d7 v=0
63000 On ch=1 n=d#7 v=52
63060 On ch=1 n=d#7 v=0
63060 On ch=1 n=e7 v=51
63120 On ch=1 n=e7 v=0
63120 On ch=1 n=f7 v=50
63180 On ch=1 n=f7 v=0
63180 On ch=1 n=f#7 v=49
63240 On ch=1 n=f#7 v=0
63240 On ch=1 n=g7 v=48
63300 On ch=1 n=g7 v=0
63300 On ch=1 n=g#7 v=47
63360 On ch=1 n=g#7 v=0
63360 On ch=1 n=c#8 v=46
63390 On ch=1 n=c#8 v=0
63600 On ch=1 n=g#5 v=41
63720 On ch=1 n=g#5 v=0
63720 On ch=1 n=g#6 v=40
63780 On ch=1 n=g#6 v=0
63780 On ch=1 n=a6 v=40
63840 On ch=1 n=a6 v=0
63840 On ch=1 n=g#6 v=40
63900 On ch=1 n=g#6 v=0
63900 On ch=1 n=f#6 v=40
63960 On ch=1 n=f#6 v=0
63960 On ch=1 n=d#6 v=40
64020 On ch=1 n=d#6 v=0
64020 On ch=1 n=g#5 v=40
64080 On ch=1 n=g#5 v=0
64080 On ch=1 n=f#6 v=40
64140 On ch=1 n=f#6 v=0
64140 On ch=1 n=g#6 v=40
64200 On ch=1 n=g#6 v=0
64200 On ch=1 n=f#6 v=40
64260 On ch=1 n=f#6 v=0
64260 On ch=1 n=e6 v=40
64320 On ch=1 n=e6 v=0
64320 On ch=1 n=c#6 v=40
64380 On ch=1 n=c#6 v=0
64380 On ch=1 n=g#5 v=40
64440 On ch=1 n=g#5 v=0
64440 On ch=1 n=e6 v=40
64500 On ch=1 n=e6 v=0
64500 On ch=1 n=f#6 v=40
64560 On ch=1 n=f#6 v=0
64560 On ch=1 n=e6 v=40
64620 On ch=1 n=e6 v=0
64620 On ch=1 n=d#6 v=40
64680 On ch=1 n=d#6 v=0
64680 On ch=1 n=c6 v=40
64740 On ch=1 n=c6 v=0
64740 On ch=1 n=f#5 v=40
64800 On ch=1 n=f#5 v=0
64800 On ch=1 n=d#6 v=40
64860 On ch=1 n=d#6 v=0
64860 On ch=1 n=e6 v=40
64920 On ch=1 n=e6 v=0
64920 On ch=1 n=d#6 v=40
64980 On ch=1 n=d#6 v=0
64980 On ch=1 n=c#6 v=40
65040 On ch=1 n=c#6 v=0
65040 On ch=1 n=a5 v=40
65100 On ch=1 n=a5 v=0
65100 On ch=1 n=e5 v=40
65160 On ch=1 n=e5 v=0
65160 On ch=1 n=c#6 v=40
65220 On ch=1 n=c#6 v=0
65220 On ch=1 n=d#6 v=40
65280 On ch=1 n=d#6 v=0
65280 On ch=1 n=c#6 v=40
65340 On ch=1 n=c#6 v=0
65340 On ch=1 n=a5 v=40
65400 On ch=1 n=a5 v=0
65400 On ch=1 n=d#5 v=40
65460 On ch=1 n=d#5 v=0
65460 On ch=1 n=c#6 v=40
65520 On ch=1 n=c#6 v=0
65520 On ch=1 n=c#6 v=40
65580 On ch=1 n=c#6 v=0
65580 On ch=1 n=d#6 v=40
65640 On ch=1 n=d#6 v=0
65640 On ch=1 n=c#6 v=40
65700 On ch=1 n=c#6 v=0
65700 On ch=1 n=g#5 v=40
65760 On ch=1 n=g#5 v=0
65760 On ch=1 n=c#5 v=40
65820 On ch=1 n=c#5 v=0
65820 On ch=1 n=g#5 v=40
65880 On ch=1 n=g#5 v=0
65880 On ch=1 n=g#5 v=40
65940 On ch=1 n=g#5 v=0
65940 On ch=1 n=g#4 v=40
66000 On ch=1 n=g#4 v=0
66000 On ch=1 n=d#5 v=40
66060 On ch=1 n=d#5 v=0
66060 On ch=1 n=g#5 v=40
66120 On ch=1 n=g#5 v=0
66120 On ch=1 n=a5 v=40
66180 On ch=1 n=a5 v=0
66180 On ch=1 n=g#5 v=40
66240 On ch=1 n=g#5 v=0
66240 On ch=1 n=g5 v=40
66300 On ch=1 n=g5 v=0
66300 On ch=1 n=g#5 v=40
66360 On ch=1 n=g#5 v=0
66360 On ch=1 n=c6 v=40
66420 On ch=1 n=c6 v=0
66420 On ch=1 n=c#6 v=40
66480 On ch=1 n=c#6 v=0
66480 On ch=1 n=e6 v=40
66540 On ch=1 n=e6 v=0
66540 On ch=1 n=f#6 v=40
66600 On ch=1 n=f#6 v=0
66600 On ch=1 n=g#6 v=40
66660 On ch=1 n=g#6 v=0
66660 On ch=1 n=a6 v=40
66720 On ch=1 n=a6 v=0
66720 On ch=1 n=g#6 v=40
66780 On ch=1 n=g#6 v=0
66780 On ch=1 n=f#6 v=40
66840 On ch=1 n=f#6 v=0
66840 On ch=1 n=d#6 v=40
66900 On ch=1 n=d#6 v=0
66900 On ch=1 n=g#5 v=40
66960 On ch=1 n=g#5 v=0
66960 On ch=1 n=f#6 v=40
67020 On ch=1 n=f#6 v=0
67020 On ch=1 n=g#6 v=40
67080 On ch=1 n=g#6 v=0
67080 On ch=1 n=f#6 v=40
67140 On ch=1 n=f#6 v=0
67140 On ch=1 n=e6 v=40
67200 On ch=1 n=e6 v=0
67200 On ch=1 n=c#6 v=40
67260 On ch=1 n=c#6 v=0
67260 On ch=1 n=g#5 v=40
67320 On ch=1 n=g#5 v=0
67320 On ch=1 n=e6 v=40
67380 On ch=1 n=e6 v=0
67380 On ch=1 n=f#6 v=40
67440 On ch=1 n=f#6 v=0
67440 On ch=1 n=e6 v=40
67500 On ch=1 n=e6 v=0
67500 On ch=1 n=d#6 v=40
67560 On ch=1 n=d#6 v=0
67560 On ch=1 n=c6 v=40
67620 On ch=1 n=c6 v=0
67620 On ch=1 n=f#5 v=40
67680 On ch=1 n=f#5 v=0
67680 On ch=1 n=d#6 v=40
67740 On ch=1 n=d#6 v=0
67740 On ch=1 n=e6 v=40
67800 On ch=1 n=e6 v=0
67800 On ch=1 n=d#6 v=40
67860 On ch=1 n=d#6 v=0
67860 On ch=1 n=c#6 v=40
67920 On ch=1 n=c#6 v=0
67920 On ch=1 n=a5 v=40
67980 On ch=1 n=a5 v=0
67980 On ch=1 n=e5 v=40
68040 On ch=1 n=e5 v=0
68040 On ch=1 n=a5 v=40
68100 On ch=1 n=a5 v=0
68100 On ch=1 n=b5 v=40
68160 On ch=1 n=b5 v=0
68160 On ch=1 n=c#6 v=40
68220 On ch=1 n=c#6 v=0
68220 On ch=1 n=d6 v=40
68280 On ch=1 n=d6 v=0
68280 On ch=1 n=e6 v=40
68340 On ch=1 n=e6 v=0
68340 On ch=1 n=f#6 v=40
68400 On ch=1 n=f#6 v=0
68400 On ch=1 n=g6 v=40
68460 On ch=1 n=g6 v=0
68460 On ch=1 n=g#6 v=40
68520 On ch=1 n=g#6 v=0
68520 On ch=1 n=a6 v=40
68580 On ch=1 n=a6 v=0
68580 On ch=1 n=b6 v=40
68640 On ch=1 n=b6 v=0
68640 On ch=1 n=c#7 v=40
68700 On ch=1 n=c#7 v=0
68700 On ch=1 n=d7 v=40
68760 On ch=1 n=d7 v=0
68760 On ch=1 n=d#7 v=40
68820 On ch=1 n=d#7 v=0
68820 On ch=1 n=e7 v=40
68880 On ch=1 n=e7 v=0
68880 On ch=1 n=f7 v=40
68940 On ch=1 n=f7 v=0
68940 On ch=1 n=f#7 v=40
69000 On ch=1 n=f#7 v=0
69000 On ch=1 n=g7 v=40
69060 On ch=1 n=g7 v=0
69060 On ch=1 n=g#7 v=40
69120 On ch=1 n=g#7 v=0
69120 On ch=1 n=c#8 v=40
69150 On ch=1 n=c#8 v=0
69150 Meta TrkEnd
TrkEnd
MTrk
0 Meta 0x21 00
0 Meta TrkName "Lower Treble"
0 PrCh ch=1 p=0
4800 On ch=1 n=b4 v=98
4800 On ch=1 n=d#5 v=98
4800 On ch=1 n=b5 v=98
4800 On ch=1 n=g#5 v=98
4920 On ch=1 n=g#5 v=0
4920 On ch=1 n=b4 v=0
4920 On ch=1 n=d#5 v=0
4920 On ch=1 n=b5 v=0
27120 On ch=1 n=a#4 v=61
27120 On ch=1 n=d#5 v=61
27120 On ch=1 n=f#5 v=61
27240 On ch=1 n=f#5 v=0
27240 On ch=1 n=d#5 v=0
27240 On ch=1 n=a#4 v=0
27240 On ch=1 n=a#4 v=1
27240 On ch=1 n=d#5 v=1
27240 On ch=1 n=a#5 v=1
27480 On ch=1 n=a#5 v=0
27480 On ch=1 n=d#5 v=0
27480 On ch=1 n=a#4 v=0
27480 On ch=1 n=a#4 v=60
27480 On ch=1 n=d#5 v=60
27480 On ch=1 n=a#5 v=60
27600 On ch=1 n=a#5 v=0
27600 On ch=1 n=d#5 v=0
27600 On ch=1 n=a#4 v=0
27600 On ch=1 n=a#4 v=60
27600 On ch=1 n=d#5 v=60
27600 On ch=1 n=a#5 v=60
27720 On ch=1 n=a#5 v=0
27720 On ch=1 n=d#5 v=0
27720 On ch=1 n=a#4 v=0
27840 On ch=1 n=c#5 v=60
27840 On ch=1 n=e5 v=60
27840 On ch=1 n=a#5 v=60
27960 On ch=1 n=a#5 v=0
27960 On ch=1 n=e5 v=0
27960 On ch=1 n=c#5 v=0
27960 On ch=1 n=c#5 v=60
27960 On ch=1 n=e5 v=60
27960 On ch=1 n=a#5 v=60
28080 On ch=1 n=a#5 v=0
28080 On ch=1 n=e5 v=0
28080 On ch=1 n=c#5 v=0
28080 On ch=1 n=g#4 v=60
28200 On ch=1 n=g#4 v=0
28200 On ch=1 n=c#6 v=60
28200 On ch=1 n=f5 v=60
28320 On ch=1 n=f5 v=0
28320 On ch=1 n=c#6 v=0
32520 On ch=1 n=a#4 v=60
32520 On ch=1 n=d5 v=60
32520 On ch=1 n=g#5 v=60
32640 On ch=1 n=g#5 v=0
32640 On ch=1 n=d5 v=0
32640 On ch=1 n=a#4 v=0
32640 On ch=1 n=a#4 v=60
32640 On ch=1 n=d5 v=60
32640 On ch=1 n=g#5 v=60
32760 On ch=1 n=g#5 v=0
32760 On ch=1 n=d5 v=0
32760 On ch=1 n=a#4 v=0
32760 On ch=1 n=f#4 v=70
32880 On ch=1 n=f#4 v=0
32880 On ch=1 n=f#5 v=60
32880 On ch=1 n=d#5 v=60
32880 On ch=1 n=a#4 v=60
33000 On ch=1 n=a#4 v=0
33000 On ch=1 n=d#5 v=0
33000 On ch=1 n=f#5 v=0
33000 On ch=1 n=a#5 v=60
33000 On ch=1 n=a#4 v=60
33000 On ch=1 n=d#5 v=60
33120 On ch=1 n=d#5 v=0
33120 On ch=1 n=a#4 v=0
33120 On ch=1 n=a#5 v=0
33120 On ch=1 n=g4 v=60
33240 On ch=1 n=g4 v=0
33240 On ch=1 n=c#5 v=60
33240 On ch=1 n=e5 v=60
33240 On ch=1 n=a#5 v=60
33360 On ch=1 n=a#5 v=0
33360 On ch=1 n=e5 v=0
33360 On ch=1 n=c#5 v=0
33360 On ch=1 n=a#4 v=60
33480 On ch=1 n=a#4 v=0
33480 On ch=1 n=c#6 v=60
33480 On ch=1 n=g5 v=60
33480 On ch=1 n=e5 v=60
33600 On ch=1 n=e5 v=0
33600 On ch=1 n=g5 v=0
33600 On ch=1 n=c#6 v=0
33600 On ch=1 n=c#5 v=60
33720 On ch=1 n=c#5 v=0
33720 On ch=1 n=e6 v=60
33720 On ch=1 n=a#5 v=60
33720 On ch=1 n=g5 v=60
33840 On ch=1 n=g5 v=0
33840 On ch=1 n=a#5 v=0
33840 On ch=1 n=e6 v=0
50880 On ch=1 n=b4 v=84
50880 On ch=1 n=d#5 v=84
50880 On ch=1 n=b5 v=84
50880 On ch=1 n=g#5 v=84
51000 On ch=1 n=g#5 v=0
51000 On ch=1 n=b4 v=0
51000 On ch=1 n=d#5 v=0
51000 On ch=1 n=b5 v=0
51000 Meta TrkEnd
TrkEnd
MTrk
0 Meta 0x21 00
0 Meta TrkName "Lower Bass"
0 PrCh ch=1 p=0
360 On ch=1 n=c#3 v=88
480 On ch=1 n=c#3 v=0
480 On ch=1 n=e5 v=75
480 On ch=1 n=c#5 v=75
480 On ch=1 n=g#4 v=75
600 On ch=1 n=g#4 v=0
600 On ch=1 n=c#5 v=0
600 On ch=1 n=e5 v=0
600 On ch=1 n=c#5 v=72
600 On ch=1 n=e5 v=72
600 On ch=1 n=g#4 v=72
720 On ch=1 n=g#4 v=0
720 On ch=1 n=e5 v=0
720 On ch=1 n=c#5 v=0
720 On ch=1 n=d#3 v=80
840 On ch=1 n=d#3 v=0
840 On ch=1 n=c#5 v=71
840 On ch=1 n=a#4 v=71
840 On ch=1 n=d#4 v=71
960 On ch=1 n=d#4 v=0
960 On ch=1 n=a#4 v=0
960 On ch=1 n=c#5 v=0
960 On ch=1 n=a#4 v=72
960 On ch=1 n=c#5 v=72
960 On ch=1 n=d#4 v=72
1080 On ch=1 n=d#4 v=0
1080 On ch=1 n=c#5 v=0
1080 On ch=1 n=a#4 v=0
1080 On ch=1 n=g#3 v=83
1200 On ch=1 n=g#3 v=0
1200 On ch=1 n=d#4 v=74
1200 On ch=1 n=g#4 v=74
1200 On ch=1 n=c5 v=74
1320 On ch=1 n=c5 v=0
1320 On ch=1 n=g#4 v=0
1320 On ch=1 n=d#4 v=0
1320 On ch=1 n=d#4 v=76
1320 On ch=1 n=g#4 v=76
1320 On ch=1 n=c5 v=76
1440 On ch=1 n=c5 v=0
1440 On ch=1 n=g#4 v=0
1440 On ch=1 n=d#4 v=0
1440 On ch=1 n=c#4 v=87
1560 On ch=1 n=c#4 v=0
1560 On ch=1 n=g#4 v=78
1560 On ch=1 n=d#5 v=78
1680 On ch=1 n=d#5 v=0
1680 On ch=1 n=g#4 v=0
1680 On ch=1 n=g#4 v=79
1680 On ch=1 n=c#5 v=79
1800 On ch=1 n=c#5 v=0
1800 On ch=1 n=g#4 v=0
1800 On ch=1 n=e3 v=90
1920 On ch=1 n=e3 v=0
1920 On ch=1 n=a4 v=77
1920 On ch=1 n=e4 v=77
2040 On ch=1 n=e4 v=0
2040 On ch=1 n=a4 v=0
2040 On ch=1 n=a4 v=73
2040 On ch=1 n=e4 v=73
2160 On ch=1 n=e4 v=0
2160 On ch=1 n=a4 v=0
2160 On ch=1 n=e3 v=80
2280 On ch=1 n=e3 v=0
2280 On ch=1 n=a4 v=71
2280 On ch=1 n=f#4 v=71
2400 On ch=1 n=f#4 v=0
2400 On ch=1 n=a4 v=0
2400 On ch=1 n=f#4 v=72
2400 On ch=1 n=a4 v=72
2520 On ch=1 n=a4 v=0
2520 On ch=1 n=f#4 v=0
2520 On ch=1 n=e3 v=84
2640 On ch=1 n=e3 v=0
2640 On ch=1 n=g#4 v=75
2760 On ch=1 n=g#4 v=0
2760 On ch=1 n=e4 v=77
2760 On ch=1 n=g#4 v=77
2880 On ch=1 n=g#4 v=0
2880 On ch=1 n=e4 v=0
2880 On ch=1 n=a3 v=88
3000 On ch=1 n=a3 v=0
3000 On ch=1 n=e4 v=80
3000 On ch=1 n=a4 v=80
3120 On ch=1 n=a4 v=0
3120 On ch=1 n=e4 v=0
3120 On ch=1 n=d#4 v=81
3120 On ch=1 n=a4 v=81
3240 On ch=1 n=a4 v=0
3240 On ch=1 n=d#4 v=0
3240 On ch=1 n=g#3 v=93
3360 On ch=1 n=g#3 v=0
3360 On ch=1 n=d#5 v=84
3360 On ch=1 n=g#4 v=84
3480 On ch=1 n=g#4 v=0
3480 On ch=1 n=d#5 v=0
3480 On ch=1 n=d#5 v=86
3480 On ch=1 n=g#4 v=86
3600 On ch=1 n=g#4 v=0
3600 On ch=1 n=d#5 v=0
3600 On ch=1 n=c#4 v=97
3720 On ch=1 n=c#4 v=0
3720 On ch=1 n=c#5 v=89
3720 On ch=1 n=g#4 v=89
3840 On ch=1 n=g#4 v=0
3840 On ch=1 n=f#4 v=90
3960 On ch=1 n=f#4 v=0
3960 On ch=1 n=c#5 v=0
3960 On ch=1 n=b3 v=102
4080 On ch=1 n=b3 v=0
4080 On ch=1 n=f#5 v=93
4080 On ch=1 n=b4 v=93
4200 On ch=1 n=b4 v=0
4200 On ch=1 n=f#5 v=0
4200 On ch=1 n=f#5 v=95
4200 On ch=1 n=b4 v=95
4320 On ch=1 n=b4 v=0
4320 On ch=1 n=f#5 v=0
4320 On ch=1 n=e4 v=106
4440 On ch=1 n=b4 v=98
4440 On ch=1 n=e5 v=98
4560 On ch=1 n=e5 v=0
4560 On ch=1 n=b4 v=0
4560 On ch=1 n=a#4 v=99
4560 On ch=1 n=e5 v=99
4680 On ch=1 n=e5 v=0
4680 On ch=1 n=a#4 v=0
4680 On ch=1 n=e4 v=0
4680 On ch=1 n=d#4 v=110
4800 On ch=1 n=d#4 v=0
5040 On ch=1 n=d#3 v=104
5160 On ch=1 n=d#3 v=0
5160 On ch=1 n=g5 v=92
5160 On ch=1 n=c#5 v=92
5280 On ch=1 n=c#5 v=0
5280 On ch=1 n=g5 v=0
5400 On ch=1 n=g#3 v=98
5520 On ch=1 n=g#3 v=0
5520 On ch=1 n=f#5 v=86
5520 On ch=1 n=c5 v=86
5640 On ch=1 n=c5 v=0
5640 On ch=1 n=f#5 v=0
6120 On ch=1 n=c#4 v=96
6240 On ch=1 n=c#4 v=0
6240 On ch=1 n=e5 v=74
6240 On ch=1 n=c#5 v=74
6240 On ch=1 n=g#4 v=74
6360 On ch=1 n=g#4 v=0
6360 On ch=1 n=c#5 v=0
6360 On ch=1 n=e5 v=0
6360 On ch=1 n=c#5 v=72
6360 On ch=1 n=e5 v=72
6360 On ch=1 n=g#4 v=72
6480 On ch=1 n=g#4 v=0
6480 On ch=1 n=e5 v=0
6480 On ch=1 n=c#5 v=0
6480 On ch=1 n=d#4 v=80
6600 On ch=1 n=c#5 v=71
6600 On ch=1 n=a#4 v=71
6720 On ch=1 n=a#4 v=0
6720 On ch=1 n=c#5 v=0
6720 On ch=1 n=a#4 v=72
6720 On ch=1 n=c#5 v=72
6840 On ch=1 n=c#5 v=0
6840 On ch=1 n=a#4 v=0
6840 On ch=1 n=d#4 v=0
6840 On ch=1 n=g#3 v=83
6960 On ch=1 n=g#3 v=0
6960 On ch=1 n=c5 v=74
6960 On ch=1 n=g#4 v=74
6960 On ch=1 n=d#4 v=74
7080 On ch=1 n=d#4 v=0
7080 On ch=1 n=g#4 v=0
7080 On ch=1 n=c5 v=0
7080 On ch=1 n=d#4 v=76
7080 On ch=1 n=g#4 v=76
7080 On ch=1 n=c5 v=76
7200 On ch=1 n=c5 v=0
7200 On ch=1 n=g#4 v=0
7200 On ch=1 n=d#4 v=0
7200 On ch=1 n=c#4 v=87
7320 On ch=1 n=c#4 v=0
7320 On ch=1 n=g#4 v=78
7320 On ch=1 n=d#5 v=78
7440 On ch=1 n=d#5 v=0
7440 On ch=1 n=g#4 v=0
7440 On ch=1 n=g#4 v=79
7440 On ch=1 n=c#5 v=79
7560 On ch=1 n=c#5 v=0
7560 On ch=1 n=g#4 v=0
7560 On ch=1 n=e3 v=90
7680 On ch=1 n=e3 v=0
7680 On ch=1 n=a4 v=77
7680 On ch=1 n=e4 v=77
7800 On ch=1 n=e4 v=0
7800 On ch=1 n=a4 v=0
7800 On ch=1 n=e4 v=73
7800 On ch=1 n=a4 v=73
7920 On ch=1 n=a4 v=0
7920 On ch=1 n=e4 v=0
7920 On ch=1 n=e3 v=80
8040 On ch=1 n=e3 v=0
8040 On ch=1 n=a4 v=70
8040 On ch=1 n=f#4 v=70
8160 On ch=1 n=f#4 v=0
8160 On ch=1 n=a4 v=0
8160 On ch=1 n=f#4 v=70
8160 On ch=1 n=a4 v=70
8280 On ch=1 n=a4 v=0
8280 On ch=1 n=f#4 v=0
8280 On ch=1 n=e3 v=81
8400 On ch=1 n=e3 v=0
8400 On ch=1 n=g#4 v=71
8520 On ch=1 n=g#4 v=0
8520 On ch=1 n=e4 v=71
8520 On ch=1 n=g#4 v=71
8640 On ch=1 n=g#4 v=0
8640 On ch=1 n=e4 v=0
8640 On ch=1 n=a3 v=82
8760 On ch=1 n=a3 v=0
8760 On ch=1 n=a4 v=72
8760 On ch=1 n=e4 v=72
8880 On ch=1 n=e4 v=0
8880 On ch=1 n=a4 v=0
8880 On ch=1 n=d#4 v=72
8880 On ch=1 n=a4 v=72
9000 On ch=1 n=a4 v=0
9000 On ch=1 n=d#4 v=0
9000 On ch=1 n=g#3 v=83
9120 On ch=1 n=g#3 v=0
9120 On ch=1 n=d#5 v=73
9120 On ch=1 n=g#4 v=73
9240 On ch=1 n=g#4 v=0
9240 On ch=1 n=d#5 v=0
9240 On ch=1 n=d#5 v=73
9240 On ch=1 n=g#4 v=73
9360 On ch=1 n=g#4 v=0
9360 On ch=1 n=d#5 v=0
9360 On ch=1 n=c#4 v=84
9480 On ch=1 n=c#4 v=0
9480 On ch=1 n=c#5 v=74
9480 On ch=1 n=b4 v=74
9480 On ch=1 n=g#4 v=74
9600 On ch=1 n=g#4 v=0
9600 On ch=1 n=b4 v=0
9600 On ch=1 n=c#5 v=0
9600 On ch=1 n=c#5 v=74
9600 On ch=1 n=b4 v=74
9600 On ch=1 n=g#4 v=74
9720 On ch=1 n=g#4 v=0
9720 On ch=1 n=b4 v=0
9720 On ch=1 n=c#5 v=0
9720 On ch=1 n=f#3 v=85
9840 On ch=1 n=f#3 v=0
9840 On ch=1 n=f#5 v=75
9840 On ch=1 n=a#4 v=75
9960 On ch=1 n=a#4 v=0
9960 On ch=1 n=f#5 v=0
9960 On ch=1 n=f#5 v=75
9960 On ch=1 n=a#4 v=75
10080 On ch=1 n=a#4 v=0
10080 On ch=1 n=f#5 v=0
10080 On ch=1 n=b3 v=86
10200 On ch=1 n=b3 v=0
10200 On ch=1 n=a4 v=76
10200 On ch=1 n=b4 v=76
10320 On ch=1 n=b4 v=0
10320 On ch=1 n=a4 v=0
10320 On ch=1 n=a4 v=76
10320 On ch=1 n=b4 v=76
10440 On ch=1 n=b4 v=0
10440 On ch=1 n=a4 v=0
10440 On ch=1 n=e3 v=87
10560 On ch=1 n=e3 v=0
10560 On ch=1 n=g#4 v=77
10560 On ch=1 n=b3 v=77
10680 On ch=1 n=b3 v=0
10680 On ch=1 n=g#4 v=0
10680 On ch=1 n=f3 v=77
10800 On ch=1 n=f3 v=0
10800 On ch=1 n=f#3 v=88
10920 On ch=1 n=f#3 v=0
10920 On ch=1 n=a4 v=78
10920 On ch=1 n=d#4 v=78
11040 On ch=1 n=d#4 v=0
11040 On ch=1 n=a4 v=0
11160 On ch=1 n=g#3 v=89
11280 On ch=1 n=g#3 v=0
11280 On ch=1 n=c#5 v=79
11280 On ch=1 n=e4 v=79
11400 On ch=1 n=e4 v=0
11400 On ch=1 n=c#5 v=0
11400 On ch=1 n=f#4 v=79
11400 On ch=1 n=c5 v=79
11520 On ch=1 n=c5 v=0
11520 On ch=1 n=f#4 v=0
11520 On ch=1 n=c#4 v=90
11640 On ch=1 n=c#4 v=0
11640 On ch=1 n=e5 v=80
11640 On ch=1 n=g#4 v=80
11760 On ch=1 n=g#4 v=0
11760 On ch=1 n=e5 v=0
11880 On ch=1 n=c4 v=90
12000 On ch=1 n=c4 v=0
12000 On ch=1 n=d#5 v=79
12000 On ch=1 n=g#4 v=79
12120 On ch=1 n=g#4 v=0
12120 On ch=1 n=d#5 v=0
12120 On ch=1 n=g#4 v=79
12120 On ch=1 n=d#5 v=79
12240 On ch=1 n=d#5 v=0
12240 On ch=1 n=g#4 v=0
12240 On ch=1 n=c#4 v=88
12360 On ch=1 n=c#4 v=0
12360 On ch=1 n=e5 v=78
12360 On ch=1 n=g#4 v=78
12480 On ch=1 n=g#4 v=0
12480 On ch=1 n=e5 v=0
12480 On ch=1 n=g#4 v=77
12480 On ch=1 n=e5 v=77
12600 On ch=1 n=e5 v=0
12600 On ch=1 n=g#4 v=0
12600 On ch=1 n=g#3 v=86
12720 On ch=1 n=g#3 v=0
12720 On ch=1 n=c5 v=76
12720 On ch=1 n=f#4 v=76
12840 On ch=1 n=f#4 v=0
12840 On ch=1 n=c5 v=0
12840 On ch=1 n=c5 v=75
12840 On ch=1 n=f#4 v=75
12960 On ch=1 n=f#4 v=0
12960 On ch=1 n=c5 v=0
12960 On ch=1 n=a3 v=85
13080 On ch=1 n=a3 v=0
13080 On ch=1 n=c#5 v=74
13080 On ch=1 n=e4 v=74
13200 On ch=1 n=e4 v=0
13200 On ch=1 n=c#5 v=0
13200 On ch=1 n=c#5 v=74
13200 On ch=1 n=e4 v=74
13320 On ch=1 n=e4 v=0
13320 On ch=1 n=c#5 v=0
13320 On ch=1 n=f#3 v=83
13440 On ch=1 n=f#3 v=0
13440 On ch=1 n=c#5 v=72
13440 On ch=1 n=f#4 v=72
13560 On ch=1 n=f#4 v=0
13560 On ch=1 n=c#5 v=0
13680 On ch=1 n=g#3 v=81
13800 On ch=1 n=g#3 v=0
13800 On ch=1 n=g#4 v=71
13800 On ch=1 n=e4 v=71
13920 On ch=1 n=e4 v=0
13920 On ch=1 n=g#4 v=0
14040 On ch=1 n=g#2 v=80
14160 On ch=1 n=g#2 v=0
14280 On ch=1 n=c5 v=77
14280 On ch=1 n=f#4 v=77
14400 On ch=1 n=f#4 v=0
14400 On ch=1 n=c5 v=0
14400 On ch=1 n=c#4 v=90
14520 On ch=1 n=c#4 v=0
14520 On ch=1 n=e5 v=84
14520 On ch=1 n=g#4 v=84
14640 On ch=1 n=g#4 v=0
14640 On ch=1 n=e5 v=0
14640 On ch=1 n=g#4 v=87
14640 On ch=1 n=e5 v=87
14760 On ch=1 n=e5 v=0
14760 On ch=1 n=g#4 v=0
14760 On ch=1 n=c4 v=100
14880 On ch=1 n=c4 v=0
14880 On ch=1 n=d#5 v=88
14880 On ch=1 n=g#4 v=88
15000 On ch=1 n=g#4 v=0
15000 On ch=1 n=d#5 v=0
15000 On ch=1 n=d#5 v=86
15000 On ch=1 n=g#4 v=86
15120 On ch=1 n=g#4 v=0
15120 On ch=1 n=d#5 v=0
15120 On ch=1 n=c#4 v=94
15240 On ch=1 n=c#4 v=0
15240 On ch=1 n=e5 v=82
15240 On ch=1 n=c#5 v=82
15240 On ch=1 n=g#4 v=82
15360 On ch=1 n=g#4 v=0
15360 On ch=1 n=c#5 v=0
15360 On ch=1 n=e5 v=0
15360 On ch=1 n=g#4 v=80
15360 On ch=1 n=c#5 v=80
15360 On ch=1 n=e5 v=80
15480 On ch=1 n=e5 v=0
15480 On ch=1 n=c#5 v=0
15480 On ch=1 n=g#4 v=0
15480 On ch=1 n=g#3 v=88
15600 On ch=1 n=g#3 v=0
15600 On ch=1 n=c5 v=76
15600 On ch=1 n=f#4 v=76
15720 On ch=1 n=f#4 v=0
15720 On ch=1 n=c5 v=0
15720 On ch=1 n=c5 v=73
15720 On ch=1 n=f#4 v=73
15840 On ch=1 n=f#4 v=0
15840 On ch=1 n=c5 v=0
15840 On ch=1 n=a3 v=81
15960 On ch=1 n=a3 v=0
15960 On ch=1 n=c#5 v=69
15960 On ch=1 n=e4 v=69
16080 On ch=1 n=e4 v=0
16080 On ch=1 n=c#5 v=0
16080 On ch=1 n=c#5 v=67
16080 On ch=1 n=e4 v=67
16200 On ch=1 n=e4 v=0
16200 On ch=1 n=c#5 v=0
16200 On ch=1 n=f#3 v=75
16320 On ch=1 n=f#3 v=0
16440 On ch=1 n=a5 v=61
16440 On ch=1 n=d5 v=61
16440 On ch=1 n=a4 v=61
16560 On ch=1 n=a4 v=0
16560 On ch=1 n=d5 v=0
16560 On ch=1 n=a5 v=0
16920 On ch=1 n=g#3 v=62
17040 On ch=1 n=g#3 v=0
17040 On ch=1 n=f#5 v=50
17040 On ch=1 n=c5 v=50
17040 On ch=1 n=g#4 v=50
17160 On ch=1 n=g#4 v=0
17160 On ch=1 n=c5 v=0
17160 On ch=1 n=f#5 v=0
17160 On ch=1 n=g#4 v=48
17160 On ch=1 n=c5 v=48
17160 On ch=1 n=f#5 v=48
17280 On ch=1 n=f#5 v=0
17280 On ch=1 n=c5 v=0
17280 On ch=1 n=g#4 v=0
17280 On ch=1 n=c#4 v=56
17400 On ch=1 n=c#4 v=0
17400 On ch=1 n=e5 v=43
17400 On ch=1 n=g#4 v=43
17520 On ch=1 n=g#4 v=0
17520 On ch=1 n=e5 v=0
17640 On ch=1 n=c4 v=50
17760 On ch=1 n=c4 v=0
17760 On ch=1 n=d#5 v=40
17760 On ch=1 n=g#4 v=40
17880 On ch=1 n=g#4 v=0
17880 On ch=1 n=d#5 v=0
17880 On ch=1 n=g#4 v=40
17880 On ch=1 n=d#5 v=40
18000 On ch=1 n=d#5 v=0
18000 On ch=1 n=g#4 v=0
18000 On ch=1 n=c#4 v=50
18120 On ch=1 n=c#4 v=0
18120 On ch=1 n=e5 v=40
18120 On ch=1 n=g#4 v=40
18240 On ch=1 n=g#4 v=0
18240 On ch=1 n=e5 v=0
18240 On ch=1 n=g#4 v=40
18240 On ch=1 n=e5 v=40
18360 On ch=1 n=e5 v=0
18360 On ch=1 n=g#4 v=0
18360 On ch=1 n=g#3 v=50
18480 On ch=1 n=g#3 v=0
18480 On ch=1 n=c5 v=40
18480 On ch=1 n=f#4 v=40
18600 On ch=1 n=f#4 v=0
18600 On ch=1 n=c5 v=0
18600 On ch=1 n=c5 v=40
18600 On ch=1 n=f#4 v=40
18720 On ch=1 n=f#4 v=0
18720 On ch=1 n=c5 v=0
18720 On ch=1 n=a3 v=50
18840 On ch=1 n=a3 v=0
18840 On ch=1 n=c#5 v=40
18840 On ch=1 n=e4 v=40
18960 On ch=1 n=e4 v=0
18960 On ch=1 n=c#5 v=0
18960 On ch=1 n=c#5 v=40
18960 On ch=1 n=e4 v=40
19080 On ch=1 n=e4 v=0
19080 On ch=1 n=c#5 v=0
19080 On ch=1 n=f#3 v=50
19200 On ch=1 n=f#3 v=0
19200 On ch=1 n=c#5 v=40
19200 On ch=1 n=f#4 v=40
19320 On ch=1 n=f#4 v=0
19320 On ch=1 n=c#5 v=0
19320 On ch=1 n=c#5 v=40
19320 On ch=1 n=f#4 v=40
19440 On ch=1 n=f#4 v=0
19440 On ch=1 n=c#5 v=0
19440 On ch=1 n=g#3 v=50
19560 On ch=1 n=g#3 v=0
19560 On ch=1 n=g#4 v=40
19560 On ch=1 n=e4 v=40
19680 On ch=1 n=e4 v=0
19680 On ch=1 n=g#4 v=0
19800 On ch=1 n=g#2 v=50
19920 On ch=1 n=g#2 v=0
20040 On ch=1 n=c5 v=40
20040 On ch=1 n=f#4 v=40
20160 On ch=1 n=f#4 v=0
20160 On ch=1 n=c5 v=0
20160 On ch=1 n=c#4 v=50
20280 On ch=1 n=c#4 v=0
20280 On ch=1 n=e5 v=40
20280 On ch=1 n=g#4 v=40
20400 On ch=1 n=g#4 v=0
20400 On ch=1 n=e5 v=0
20400 On ch=1 n=e5 v=40
20400 On ch=1 n=g#4 v=40
20520 On ch=1 n=g#4 v=0
20520 On ch=1 n=e5 v=0
20520 On ch=1 n=c4 v=50
20640 On ch=1 n=c4 v=0
20640 On ch=1 n=d#5 v=40
20640 On ch=1 n=g#4 v=40
20760 On ch=1 n=g#4 v=0
20760 On ch=1 n=d#5 v=0
20760 On ch=1 n=d#5 v=40
20760 On ch=1 n=g#4 v=40
20880 On ch=1 n=g#4 v=0
20880 On ch=1 n=d#5 v=0
20880 On ch=1 n=c#4 v=50
21000 On ch=1 n=c#4 v=0
21000 On ch=1 n=e5 v=40
21000 On ch=1 n=g#4 v=40
21120 On ch=1 n=g#4 v=0
21120 On ch=1 n=e5 v=0
21120 On ch=1 n=e5 v=40
21120 On ch=1 n=g#4 v=40
21240 On ch=1 n=g#4 v=0
21240 On ch=1 n=e5 v=0
21240 On ch=1 n=g#3 v=50
21360 On ch=1 n=g#3 v=0
21360 On ch=1 n=c5 v=40
21360 On ch=1 n=f#4 v=40
21480 On ch=1 n=f#4 v=0
21480 On ch=1 n=c5 v=0
21480 On ch=1 n=c5 v=40
21480 On ch=1 n=f#4 v=40
21600 On ch=1 n=f#4 v=0
21600 On ch=1 n=c5 v=0
21600 On ch=1 n=a3 v=50
21720 On ch=1 n=a3 v=0
21720 On ch=1 n=c#5 v=40
21720 On ch=1 n=e4 v=40
21840 On ch=1 n=e4 v=0
21840 On ch=1 n=c#5 v=0
21960 On ch=1 n=f#3 v=50
22080 On ch=1 n=f#3 v=0
22200 On ch=1 n=a5 v=40
22200 On ch=1 n=d5 v=40
22200 On ch=1 n=a4 v=40
22320 On ch=1 n=a4 v=0
22320 On ch=1 n=d5 v=0
22320 On ch=1 n=a5 v=0
22680 On ch=1 n=g#3 v=50
22800 On ch=1 n=g#3 v=0
22800 On ch=1 n=f#5 v=40
22800 On ch=1 n=c5 v=40
22800 On ch=1 n=g#4 v=40
22920 On ch=1 n=g#4 v=0
22920 On ch=1 n=c5 v=0
22920 On ch=1 n=f#5 v=0
22920 On ch=1 n=g#4 v=40
22920 On ch=1 n=c5 v=40
22920 On ch=1 n=f#5 v=40
23040 On ch=1 n=f#5 v=0
23040 On ch=1 n=c5 v=0
23040 On ch=1 n=g#4 v=0
23040 On ch=1 n=c#4 v=50
23160 On ch=1 n=c#4 v=0
23160 On ch=1 n=e5 v=40
23160 On ch=1 n=c#5 v=40
23160 On ch=1 n=g#4 v=40
23280 On ch=1 n=g#4 v=0
23280 On ch=1 n=c#5 v=0
23280 On ch=1 n=e5 v=0
23400 On ch=1 n=c#3 v=89
23520 On ch=1 n=c#3 v=0
23520 On ch=1 n=f5 v=78
23520 On ch=1 n=c#5 v=78
23520 On ch=1 n=g#4 v=78
23640 On ch=1 n=g#4 v=0
23640 On ch=1 n=c#5 v=0
23640 On ch=1 n=f5 v=0
23640 On ch=1 n=f5 v=77
23640 On ch=1 n=c#5 v=77
23640 On ch=1 n=g#4 v=77
23880 On ch=1 n=g#4 v=0
23880 On ch=1 n=c#5 v=0
23880 On ch=1 n=f5 v=0
23880 On ch=1 n=f5 v=75
23880 On ch=1 n=c#5 v=75
23880 On ch=1 n=g#4 v=75
24000 On ch=1 n=g#4 v=0
24000 On ch=1 n=c#5 v=0
24000 On ch=1 n=f5 v=0
24000 On ch=1 n=f5 v=74
24000 On ch=1 n=c#5 v=74
24000 On ch=1 n=a4 v=74
24120 On ch=1 n=c#5 v=0
24120 On ch=1 n=f5 v=0
24120 On ch=1 n=c#4 v=83
24240 On ch=1 n=c#4 v=0
24240 On ch=1 n=a4 v=0
24240 On ch=1 n=f5 v=72
24240 On ch=1 n=a#4 v=72
24360 On ch=1 n=a#4 v=0
24360 On ch=1 n=f5 v=0
24360 On ch=1 n=f5 v=71
24360 On ch=1 n=a#4 v=71
24600 On ch=1 n=f5 v=0
24600 On ch=1 n=c#4 v=70
24720 On ch=1 n=c#4 v=0
24720 On ch=1 n=d4 v=70
24840 On ch=1 n=d4 v=0
24840 On ch=1 n=d#4 v=80
24960 On ch=1 n=d#4 v=0
24960 On ch=1 n=a#4 v=0
24960 On ch=1 n=a#4 v=70
25080 On ch=1 n=a#4 v=0
25080 On ch=1 n=f#5 v=70
25080 On ch=1 n=a#4 v=70
25320 On ch=1 n=a#4 v=0
25320 On ch=1 n=f#5 v=0
25320 On ch=1 n=f#5 v=70
25320 On ch=1 n=a#4 v=70
25440 On ch=1 n=a#4 v=0
25440 On ch=1 n=f#5 v=0
25440 On ch=1 n=b4 v=70
25440 On ch=1 n=f#5 v=70
25560 On ch=1 n=f#5 v=0
25560 On ch=1 n=d#4 v=80
25680 On ch=1 n=d#4 v=0
25680 On ch=1 n=b4 v=0
25680 On ch=1 n=f#5 v=70
25680 On ch=1 n=c5 v=70
25800 On ch=1 n=c5 v=0
25800 On ch=1 n=f#5 v=0
25800 On ch=1 n=c5 v=70
25800 On ch=1 n=f#5 v=70
26040 On ch=1 n=f#5 v=0
26040 On ch=1 n=d#4 v=70
26160 On ch=1 n=d#4 v=0
26160 On ch=1 n=e4 v=70
26280 On ch=1 n=e4 v=0
26280 On ch=1 n=f4 v=80
26400 On ch=1 n=c5 v=0
26400 On ch=1 n=g#5 v=69
26400 On ch=1 n=c5 v=69
26520 On ch=1 n=c5 v=0
26520 On ch=1 n=g#5 v=0
26520 On ch=1 n=f4 v=0
26520 On ch=1 n=g#5 v=68
26520 On ch=1 n=c5 v=68
26640 On ch=1 n=c5 v=0
26640 On ch=1 n=g#5 v=0
26640 On ch=1 n=f4 v=76
26760 On ch=1 n=f4 v=0
26760 On ch=1 n=g#5 v=65
26760 On ch=1 n=d5 v=65
26760 On ch=1 n=a#4 v=65
26880 On ch=1 n=a#4 v=0
26880 On ch=1 n=d5 v=0
26880 On ch=1 n=g#5 v=0
26880 On ch=1 n=a#4 v=64
26880 On ch=1 n=d5 v=64
26880 On ch=1 n=g#5 v=64
27000 On ch=1 n=g#5 v=0
27000 On ch=1 n=d5 v=0
27000 On ch=1 n=a#4 v=0
27000 On ch=1 n=f#4 v=72
27120 On ch=1 n=f#4 v=0
27720 On ch=1 n=g4 v=70
27840 On ch=1 n=g4 v=0
28440 On ch=1 n=g#3 v=70
28560 On ch=1 n=g#3 v=0
28680 On ch=1 n=f#5 v=60
28680 On ch=1 n=c5 v=60
28680 On ch=1 n=g#4 v=60
28800 On ch=1 n=g#4 v=0
28800 On ch=1 n=c5 v=0
28800 On ch=1 n=f#5 v=0
28800 On ch=1 n=c#4 v=70
28920 On ch=1 n=c#4 v=0
28920 On ch=1 n=f5 v=60
28920 On ch=1 n=c#5 v=60
28920 On ch=1 n=g#4 v=60
29040 On ch=1 n=g#4 v=0
29040 On ch=1 n=c#5 v=0
29040 On ch=1 n=f5 v=0
29040 On ch=1 n=g4 v=60
29040 On ch=1 n=c#5 v=60
29040 On ch=1 n=e5 v=60
29160 On ch=1 n=e5 v=0
29160 On ch=1 n=c#5 v=0
29160 On ch=1 n=g4 v=0
29160 On ch=1 n=c#3 v=70
29280 On ch=1 n=c#3 v=0
29280 On ch=1 n=f5 v=60
29280 On ch=1 n=g#4 v=60
29400 On ch=1 n=g#4 v=0
29400 On ch=1 n=f5 v=0
29400 On ch=1 n=f5 v=60
29400 On ch=1 n=g#4 v=60
29520 On ch=1 n=g#4 v=0
29520 On ch=1 n=f5 v=0
29520 On ch=1 n=c#4 v=70
29640 On ch=1 n=c#4 v=0
29640 On ch=1 n=f5 v=60
29640 On ch=1 n=g#4 v=60
29760 On ch=1 n=g#4 v=0
29760 On ch=1 n=f5 v=0
29760 On ch=1 n=a4 v=60
29760 On ch=1 n=f5 v=60
29880 On ch=1 n=f5 v=0
29880 On ch=1 n=c#4 v=70
30000 On ch=1 n=c#4 v=0
30000 On ch=1 n=a4 v=0
30000 On ch=1 n=f5 v=60
30000 On ch=1 n=a#4 v=60
30120 On ch=1 n=a#4 v=0
30120 On ch=1 n=f5 v=0
30120 On ch=1 n=a#4 v=60
30120 On ch=1 n=f5 v=60
30240 On ch=1 n=f5 v=0
30360 On ch=1 n=c#4 v=60
30480 On ch=1 n=c#4 v=0
30480 On ch=1 n=d4 v=60
30600 On ch=1 n=d4 v=0
30600 On ch=1 n=d#4 v=70
30720 On ch=1 n=d#4 v=0
30720 On ch=1 n=a#4 v=0
30720 On ch=1 n=a#4 v=60
30840 On ch=1 n=a#4 v=0
30840 On ch=1 n=a#4 v=60
30840 On ch=1 n=f#5 v=60
30960 On ch=1 n=f#5 v=0
30960 On ch=1 n=d#4 v=70
31080 On ch=1 n=d#4 v=0
31080 On ch=1 n=a#4 v=0
31080 On ch=1 n=f#5 v=60
31080 On ch=1 n=a#4 v=60
31200 On ch=1 n=a#4 v=0
31200 On ch=1 n=f#5 v=0
31200 On ch=1 n=b4 v=60
31200 On ch=1 n=f#5 v=60
31320 On ch=1 n=f#5 v=0
31320 On ch=1 n=d#4 v=70
31440 On ch=1 n=d#4 v=0
31440 On ch=1 n=b4 v=0
31440 On ch=1 n=f#5 v=60
31440 On ch=1 n=c5 v=60
31560 On ch=1 n=c5 v=0
31560 On ch=1 n=f#5 v=0
31560 On ch=1 n=c5 v=60
31560 On ch=1 n=f#5 v=60
31800 On ch=1 n=f#5 v=0
31800 On ch=1 n=d#4 v=60
31920 On ch=1 n=d#4 v=0
31920 On ch=1 n=e4 v=60
32040 On ch=1 n=e4 v=0
32040 On ch=1 n=f4 v=70
32160 On ch=1 n=f4 v=0
32160 On ch=1 n=c5 v=0
32160 On ch=1 n=g#5 v=60
32160 On ch=1 n=c5 v=60
32280 On ch=1 n=c5 v=0
32280 On ch=1 n=g#5 v=0
32280 On ch=1 n=g#5 v=60
32280 On ch=1 n=c5 v=60
32400 On ch=1 n=c5 v=0
32400 On ch=1 n=g#5 v=0
32400 On ch=1 n=f4 v=70
32520 On ch=1 n=f4 v=0
34920 On ch=1 n=c4 v=90
35040 On ch=1 n=c4 v=0
35040 On ch=1 n=d#5 v=80
35040 On ch=1 n=g#4 v=80
35160 On ch=1 n=g#4 v=0
35160 On ch=1 n=d#5 v=0
35160 On ch=1 n=g#4 v=79
35160 On ch=1 n=d#5 v=79
35280 On ch=1 n=d#5 v=0
35280 On ch=1 n=g#4 v=0
35280 On ch=1 n=c#4 v=88
35400 On ch=1 n=c#4 v=0
35400 On ch=1 n=e5 v=77
35400 On ch=1 n=g#4 v=77
35520 On ch=1 n=g#4 v=0
35520 On ch=1 n=e5 v=0
35520 On ch=1 n=g#4 v=76
35520 On ch=1 n=e5 v=76
35640 On ch=1 n=e5 v=0
35640 On ch=1 n=g#4 v=0
35640 On ch=1 n=g#3 v=85
35760 On ch=1 n=g#3 v=0
35760 On ch=1 n=c5 v=74
35760 On ch=1 n=f#4 v=74
35880 On ch=1 n=f#4 v=0
35880 On ch=1 n=c5 v=0
35880 On ch=1 n=c5 v=73
35880 On ch=1 n=f#4 v=73
36000 On ch=1 n=f#4 v=0
36000 On ch=1 n=c5 v=0
36000 On ch=1 n=a3 v=82
36120 On ch=1 n=a3 v=0
36120 On ch=1 n=c#5 v=71
36120 On ch=1 n=e4 v=71
36240 On ch=1 n=e4 v=0
36240 On ch=1 n=c#5 v=0
36240 On ch=1 n=c#5 v=70
36240 On ch=1 n=e4 v=70
36360 On ch=1 n=e4 v=0
36360 On ch=1 n=c#5 v=0
36360 On ch=1 n=f#3 v=79
36480 On ch=1 n=f#3 v=0
36480 On ch=1 n=c#5 v=68
36480 On ch=1 n=f#4 v=68
36600 On ch=1 n=f#4 v=0
36600 On ch=1 n=c#5 v=0
36720 On ch=1 n=g#3 v=76
36840 On ch=1 n=g#3 v=0
36840 On ch=1 n=g#4 v=65
36840 On ch=1 n=e4 v=65
36960 On ch=1 n=e4 v=0
36960 On ch=1 n=g#4 v=0
37080 On ch=1 n=g#2 v=73
37200 On ch=1 n=g#2 v=0
37320 On ch=1 n=c5 v=61
37320 On ch=1 n=f#4 v=61
37440 On ch=1 n=f#4 v=0
37440 On ch=1 n=c5 v=0
37440 On ch=1 n=c#4 v=70
37560 On ch=1 n=c#4 v=0
37560 On ch=1 n=e5 v=67
37560 On ch=1 n=g#4 v=67
37680 On ch=1 n=g#4 v=0
37680 On ch=1 n=e5 v=0
37680 On ch=1 n=g#4 v=74
37680 On ch=1 n=e5 v=74
37800 On ch=1 n=e5 v=0
37800 On ch=1 n=g#4 v=0
37800 On ch=1 n=c4 v=90
37920 On ch=1 n=c4 v=0
37920 On ch=1 n=d#5 v=79
37920 On ch=1 n=g#4 v=79
38040 On ch=1 n=g#4 v=0
38040 On ch=1 n=d#5 v=0
38040 On ch=1 n=d#5 v=77
38040 On ch=1 n=g#4 v=77
38160 On ch=1 n=g#4 v=0
38160 On ch=1 n=d#5 v=0
38160 On ch=1 n=c#4 v=85
38280 On ch=1 n=c#4 v=0
38280 On ch=1 n=e5 v=74
38280 On ch=1 n=c#5 v=74
38280 On ch=1 n=g#4 v=74
38400 On ch=1 n=g#4 v=0
38400 On ch=1 n=c#5 v=0
38400 On ch=1 n=e5 v=0
38400 On ch=1 n=g#4 v=72
38400 On ch=1 n=c#5 v=72
38400 On ch=1 n=e5 v=72
38520 On ch=1 n=e5 v=0
38520 On ch=1 n=c#5 v=0
38520 On ch=1 n=g#4 v=0
38520 On ch=1 n=g#3 v=80
38640 On ch=1 n=g#3 v=0
38640 On ch=1 n=c5 v=69
38640 On ch=1 n=f#4 v=69
38760 On ch=1 n=f#4 v=0
38760 On ch=1 n=c5 v=0
38760 On ch=1 n=c5 v=67
38760 On ch=1 n=f#4 v=67
38880 On ch=1 n=f#4 v=0
38880 On ch=1 n=c5 v=0
38880 On ch=1 n=a3 v=75
39000 On ch=1 n=a3 v=0
39000 On ch=1 n=c#5 v=63
39000 On ch=1 n=e4 v=63
39120 On ch=1 n=e4 v=0
39120 On ch=1 n=c#5 v=0
39120 On ch=1 n=c#5 v=62
39120 On ch=1 n=e4 v=62
39240 On ch=1 n=e4 v=0
39240 On ch=1 n=c#5 v=0
39240 On ch=1 n=f#3 v=70
39360 On ch=1 n=f#3 v=0
39480 On ch=1 n=a5 v=57
39480 On ch=1 n=d5 v=57
39480 On ch=1 n=a4 v=57
39600 On ch=1 n=a4 v=0
39600 On ch=1 n=d5 v=0
39600 On ch=1 n=a5 v=0
39960 On ch=1 n=g#3 v=60
40080 On ch=1 n=g#3 v=0
40080 On ch=1 n=f#5 v=48
40080 On ch=1 n=c5 v=48
40080 On ch=1 n=g#4 v=48
40200 On ch=1 n=g#4 v=0
40200 On ch=1 n=c5 v=0
40200 On ch=1 n=f#5 v=0
40200 On ch=1 n=g#4 v=46
40200 On ch=1 n=c5 v=46
40200 On ch=1 n=f#5 v=46
40320 On ch=1 n=f#5 v=0
40320 On ch=1 n=c5 v=0
40320 On ch=1 n=g#4 v=0
40320 On ch=1 n=c#4 v=55
40440 On ch=1 n=c#4 v=0
40440 On ch=1 n=e5 v=43
40440 On ch=1 n=g#4 v=43
40560 On ch=1 n=g#4 v=0
40560 On ch=1 n=e5 v=0
40680 On ch=1 n=c4 v=50
40800 On ch=1 n=c4 v=0
40800 On ch=1 n=d#5 v=40
40800 On ch=1 n=g#4 v=40
40920 On ch=1 n=g#4 v=0
40920 On ch=1 n=d#5 v=0
40920 On ch=1 n=g#4 v=40
40920 On ch=1 n=d#5 v=40
41040 On ch=1 n=d#5 v=0
41040 On ch=1 n=g#4 v=0
41040 On ch=1 n=c#4 v=50
41160 On ch=1 n=c#4 v=0
41160 On ch=1 n=e5 v=40
41160 On ch=1 n=g#4 v=40
41280 On ch=1 n=g#4 v=0
41280 On ch=1 n=e5 v=0
41280 On ch=1 n=g#4 v=40
41280 On ch=1 n=e5 v=40
41400 On ch=1 n=e5 v=0
41400 On ch=1 n=g#4 v=0
41400 On ch=1 n=g#3 v=50
41520 On ch=1 n=g#3 v=0
41520 On ch=1 n=c5 v=40
41520 On ch=1 n=f#4 v=40
41640 On ch=1 n=f#4 v=0
41640 On ch=1 n=c5 v=0
41640 On ch=1 n=c5 v=40
41640 On ch=1 n=f#4 v=40
41760 On ch=1 n=f#4 v=0
41760 On ch=1 n=c5 v=0
41760 On ch=1 n=a3 v=50
41880 On ch=1 n=a3 v=0
41880 On ch=1 n=c#5 v=40
41880 On ch=1 n=e4 v=40
42000 On ch=1 n=e4 v=0
42000 On ch=1 n=c#5 v=0
42000 On ch=1 n=c#5 v=40
42000 On ch=1 n=e4 v=40
42120 On ch=1 n=e4 v=0
42120 On ch=1 n=c#5 v=0
42120 On ch=1 n=f#3 v=50
42240 On ch=1 n=f#3 v=0
42240 On ch=1 n=c#5 v=40
42240 On ch=1 n=f#4 v=40
42360 On ch=1 n=f#4 v=0
42360 On ch=1 n=c#5 v=0
42360 On ch=1 n=c#5 v=40
42360 On ch=1 n=f#4 v=40
42480 On ch=1 n=f#4 v=0
42480 On ch=1 n=c#5 v=0
42480 On ch=1 n=g#3 v=50
42600 On ch=1 n=g#3 v=0
42600 On ch=1 n=g#4 v=40
42600 On ch=1 n=e4 v=40
42720 On ch=1 n=e4 v=0
42720 On ch=1 n=g#4 v=0
42840 On ch=1 n=g#2 v=50
42960 On ch=1 n=g#2 v=0
43080 On ch=1 n=c5 v=40
43080 On ch=1 n=f#4 v=40
43200 On ch=1 n=f#4 v=0
43200 On ch=1 n=c5 v=0
43200 On ch=1 n=c#4 v=50
43320 On ch=1 n=c#4 v=0
43320 On ch=1 n=e5 v=40
43320 On ch=1 n=g#4 v=40
43440 On ch=1 n=g#4 v=0
43440 On ch=1 n=e5 v=0
43440 On ch=1 n=e5 v=40
43440 On ch=1 n=g#4 v=40
43560 On ch=1 n=g#4 v=0
43560 On ch=1 n=e5 v=0
43560 On ch=1 n=c4 v=50
43680 On ch=1 n=c4 v=0
43680 On ch=1 n=d#5 v=40
43680 On ch=1 n=g#4 v=40
43800 On ch=1 n=g#4 v=0
43800 On ch=1 n=d#5 v=0
43800 On ch=1 n=d#5 v=40
43800 On ch=1 n=g#4 v=40
43920 On ch=1 n=g#4 v=0
43920 On ch=1 n=d#5 v=0
43920 On ch=1 n=c#4 v=50
44040 On ch=1 n=c#4 v=0
44040 On ch=1 n=e5 v=40
44040 On ch=1 n=g#4 v=40
44160 On ch=1 n=g#4 v=0
44160 On ch=1 n=e5 v=0
44160 On ch=1 n=e5 v=40
44160 On ch=1 n=g#4 v=40
44280 On ch=1 n=g#4 v=0
44280 On ch=1 n=e5 v=0
44280 On ch=1 n=g#3 v=50
44400 On ch=1 n=g#3 v=0
44400 On ch=1 n=c5 v=40
44400 On ch=1 n=f#4 v=40
44520 On ch=1 n=f#4 v=0
44520 On ch=1 n=c5 v=0
44520 On ch=1 n=c5 v=40
44520 On ch=1 n=f#4 v=40
44640 On ch=1 n=f#4 v=0
44640 On ch=1 n=c5 v=0
44640 On ch=1 n=a3 v=50
44760 On ch=1 n=a3 v=0
44760 On ch=1 n=c#5 v=40
44760 On ch=1 n=e4 v=40
44880 On ch=1 n=e4 v=0
44880 On ch=1 n=c#5 v=0
45000 On ch=1 n=f#3 v=50
45120 On ch=1 n=f#3 v=0
45240 On ch=1 n=a5 v=40
45240 On ch=1 n=d5 v=40
45240 On ch=1 n=a4 v=40
45360 On ch=1 n=a4 v=0
45360 On ch=1 n=d5 v=0
45360 On ch=1 n=a5 v=0
45720 On ch=1 n=g#3 v=50
45840 On ch=1 n=g#3 v=0
45840 On ch=1 n=f#5 v=40
45840 On ch=1 n=c5 v=40
45840 On ch=1 n=g#4 v=40
45960 On ch=1 n=g#4 v=0
45960 On ch=1 n=c5 v=0
45960 On ch=1 n=f#5 v=0
45960 On ch=1 n=g#4 v=40
45960 On ch=1 n=c5 v=40
45960 On ch=1 n=f#5 v=40
46080 On ch=1 n=f#5 v=0
46080 On ch=1 n=c5 v=0
46080 On ch=1 n=g#4 v=0
46080 On ch=1 n=c#4 v=50
46200 On ch=1 n=c#4 v=0
46200 On ch=1 n=e5 v=40
46200 On ch=1 n=c#5 v=40
46200 On ch=1 n=g#4 v=40
46320 On ch=1 n=g#4 v=0
46320 On ch=1 n=c#5 v=0
46320 On ch=1 n=e5 v=0
46440 On ch=1 n=c#3 v=89
46560 On ch=1 n=c#3 v=0
46560 On ch=1 n=e5 v=77
46560 On ch=1 n=c#5 v=77
46560 On ch=1 n=g#4 v=77
46680 On ch=1 n=g#4 v=0
46680 On ch=1 n=c#5 v=0
46680 On ch=1 n=e5 v=0
46680 On ch=1 n=c#5 v=76
46680 On ch=1 n=e5 v=76
46680 On ch=1 n=g#4 v=76
46800 On ch=1 n=g#4 v=0
46800 On ch=1 n=e5 v=0
46800 On ch=1 n=c#5 v=0
46800 On ch=1 n=d#3 v=84
46920 On ch=1 n=d#3 v=0
46920 On ch=1 n=c#5 v=73
46920 On ch=1 n=a#4 v=73
46920 On ch=1 n=d#4 v=73
47040 On ch=1 n=d#4 v=0
47040 On ch=1 n=a#4 v=0
47040 On ch=1 n=c#5 v=0
47040 On ch=1 n=a#4 v=71
47040 On ch=1 n=c#5 v=71
47040 On ch=1 n=d#4 v=71
47160 On ch=1 n=d#4 v=0
47160 On ch=1 n=c#5 v=0
47160 On ch=1 n=a#4 v=0
47160 On ch=1 n=g#3 v=80
47280 On ch=1 n=g#3 v=0
47280 On ch=1 n=d#4 v=71
47280 On ch=1 n=g#4 v=71
47280 On ch=1 n=c5 v=71
47400 On ch=1 n=c5 v=0
47400 On ch=1 n=g#4 v=0
47400 On ch=1 n=d#4 v=0
47400 On ch=1 n=d#4 v=73
47400 On ch=1 n=g#4 v=73
47400 On ch=1 n=c5 v=73
47520 On ch=1 n=c5 v=0
47520 On ch=1 n=g#4 v=0
47520 On ch=1 n=d#4 v=0
47520 On ch=1 n=c#4 v=85
47640 On ch=1 n=c#4 v=0
47640 On ch=1 n=g#4 v=77
47640 On ch=1 n=d#5 v=77
47760 On ch=1 n=d#5 v=0
47760 On ch=1 n=g#4 v=0
47760 On ch=1 n=g#4 v=79
47760 On ch=1 n=c#5 v=79
47880 On ch=1 n=c#5 v=0
47880 On ch=1 n=g#4 v=0
47880 On ch=1 n=e3 v=90
48000 On ch=1 n=e3 v=0
48000 On ch=1 n=a4 v=80
48000 On ch=1 n=e4 v=80
48120 On ch=1 n=e4 v=0
48120 On ch=1 n=a4 v=0
48120 On ch=1 n=a4 v=79
48120 On ch=1 n=e4 v=79
48240 On ch=1 n=e4 v=0
48240 On ch=1 n=a4 v=0
48240 On ch=1 n=e3 v=89
48360 On ch=1 n=e3 v=0
48360 On ch=1 n=a4 v=78
48360 On ch=1 n=f#4 v=78
48480 On ch=1 n=f#4 v=0
48480 On ch=1 n=a4 v=0
48480 On ch=1 n=f#4 v=78
48480 On ch=1 n=a4 v=78
48600 On ch=1 n=a4 v=0
48600 On ch=1 n=f#4 v=0
48600 On ch=1 n=e3 v=87
48720 On ch=1 n=e3 v=0
48720 On ch=1 n=g#4 v=77
48840 On ch=1 n=g#4 v=0
48840 On ch=1 n=e4 v=76
48840 On ch=1 n=g#4 v=76
48960 On ch=1 n=g#4 v=0
48960 On ch=1 n=e4 v=0
48960 On ch=1 n=a3 v=86
49080 On ch=1 n=a3 v=0
49080 On ch=1 n=e4 v=75
49080 On ch=1 n=a4 v=75
49200 On ch=1 n=a4 v=0
49200 On ch=1 n=e4 v=0
49200 On ch=1 n=d#4 v=75
49200 On ch=1 n=a4 v=75
49320 On ch=1 n=a4 v=0
49320 On ch=1 n=d#4 v=0
49320 On ch=1 n=g#3 v=84
49440 On ch=1 n=g#3 v=0
49440 On ch=1 n=d#5 v=74
49440 On ch=1 n=g#4 v=74
49560 On ch=1 n=g#4 v=0
49560 On ch=1 n=d#5 v=0
49560 On ch=1 n=d#5 v=73
49560 On ch=1 n=g#4 v=73
49680 On ch=1 n=g#4 v=0
49680 On ch=1 n=d#5 v=0
49680 On ch=1 n=c#4 v=83
49800 On ch=1 n=c#4 v=0
49800 On ch=1 n=c#5 v=72
49800 On ch=1 n=g#4 v=72
49920 On ch=1 n=g#4 v=0
49920 On ch=1 n=f#4 v=72
50040 On ch=1 n=f#4 v=0
50040 On ch=1 n=c#5 v=0
50040 On ch=1 n=b3 v=81
50160 On ch=1 n=b3 v=0
50160 On ch=1 n=f#5 v=71
50160 On ch=1 n=b4 v=71
50280 On ch=1 n=b4 v=0
50280 On ch=1 n=f#5 v=0
50280 On ch=1 n=f#5 v=70
50280 On ch=1 n=b4 v=70
50400 On ch=1 n=b4 v=0
50400 On ch=1 n=f#5 v=0
50400 On ch=1 n=e4 v=80
50520 On ch=1 n=b4 v=73
50520 On ch=1 n=e5 v=73
50640 On ch=1 n=e5 v=0
50640 On ch=1 n=b4 v=0
50640 On ch=1 n=a#4 v=77
50640 On ch=1 n=e5 v=77
50760 On ch=1 n=e5 v=0
50760 On ch=1 n=a#4 v=0
50760 On ch=1 n=e4 v=0
50760 On ch=1 n=d#4 v=90
50880 On ch=1 n=d#4 v=0
51120 On ch=1 n=d#3 v=100
51240 On ch=1 n=d#3 v=0
51240 On ch=1 n=g5 v=89
51240 On ch=1 n=c#5 v=89
51360 On ch=1 n=c#5 v=0
51360 On ch=1 n=g5 v=0
51480 On ch=1 n=g#3 v=97
51600 On ch=1 n=g#3 v=0
51600 On ch=1 n=f#5 v=86
51600 On ch=1 n=c5 v=86
51720 On ch=1 n=c5 v=0
51720 On ch=1 n=f#5 v=0
52200 On ch=1 n=c#4 v=90
52320 On ch=1 n=c#4 v=0
52320 On ch=1 n=e5 v=79
52320 On ch=1 n=c#5 v=79
52320 On ch=1 n=g#4 v=79
52440 On ch=1 n=g#4 v=0
52440 On ch=1 n=c#5 v=0
52440 On ch=1 n=e5 v=0
52440 On ch=1 n=c#5 v=77
52440 On ch=1 n=e5 v=77
52440 On ch=1 n=g#4 v=77
52560 On ch=1 n=g#4 v=0
52560 On ch=1 n=e5 v=0
52560 On ch=1 n=c#5 v=0
52560 On ch=1 n=d#4 v=85
52680 On ch=1 n=c#5 v=73
52680 On ch=1 n=a#4 v=73
52800 On ch=1 n=a#4 v=0
52800 On ch=1 n=c#5 v=0
52800 On ch=1 n=a#4 v=71
52800 On ch=1 n=c#5 v=71
52920 On ch=1 n=c#5 v=0
52920 On ch=1 n=a#4 v=0
52920 On ch=1 n=d#4 v=0
52920 On ch=1 n=g#3 v=80
53040 On ch=1 n=g#3 v=0
53040 On ch=1 n=c5 v=71
53040 On ch=1 n=g#4 v=71
53040 On ch=1 n=d#4 v=71
53160 On ch=1 n=d#4 v=0
53160 On ch=1 n=g#4 v=0
53160 On ch=1 n=c5 v=0
53160 On ch=1 n=d#4 v=73
53160 On ch=1 n=g#4 v=73
53160 On ch=1 n=c5 v=73
53280 On ch=1 n=c5 v=0
53280 On ch=1 n=g#4 v=0
53280 On ch=1 n=d#4 v=0
53280 On ch=1 n=c#4 v=85
53400 On ch=1 n=c#4 v=0
53400 On ch=1 n=g#4 v=77
53400 On ch=1 n=d#5 v=77
53520 On ch=1 n=d#5 v=0
53520 On ch=1 n=g#4 v=0
53520 On ch=1 n=g#4 v=79
53520 On ch=1 n=c#5 v=79
53640 On ch=1 n=c#5 v=0
53640 On ch=1 n=g#4 v=0
53640 On ch=1 n=e3 v=90
53760 On ch=1 n=e3 v=0
53760 On ch=1 n=a4 v=79
53760 On ch=1 n=e4 v=79
53880 On ch=1 n=e4 v=0
53880 On ch=1 n=a4 v=0
53880 On ch=1 n=e4 v=77
53880 On ch=1 n=a4 v=77
54000 On ch=1 n=a4 v=0
54000 On ch=1 n=e4 v=0
54000 On ch=1 n=e3 v=85
54120 On ch=1 n=e3 v=0
54120 On ch=1 n=a4 v=73
54120 On ch=1 n=f#4 v=73
54240 On ch=1 n=f#4 v=0
54240 On ch=1 n=a4 v=0
54240 On ch=1 n=f#4 v=71
54240 On ch=1 n=a4 v=71
54360 On ch=1 n=a4 v=0
54360 On ch=1 n=f#4 v=0
54360 On ch=1 n=e3 v=80
54480 On ch=1 n=e3 v=0
54480 On ch=1 n=g#4 v=71
54600 On ch=1 n=g#4 v=0
54600 On ch=1 n=e4 v=73
54600 On ch=1 n=g#4 v=73
54720 On ch=1 n=g#4 v=0
54720 On ch=1 n=e4 v=0
54720 On ch=1 n=a3 v=85
54840 On ch=1 n=a3 v=0
54840 On ch=1 n=a4 v=77
54840 On ch=1 n=e4 v=77
54960 On ch=1 n=e4 v=0
54960 On ch=1 n=a4 v=0
54960 On ch=1 n=d#4 v=79
54960 On ch=1 n=a4 v=79
55080 On ch=1 n=a4 v=0
55080 On ch=1 n=d#4 v=0
55080 On ch=1 n=g#3 v=90
55200 On ch=1 n=g#3 v=0
55200 On ch=1 n=d#5 v=80
55200 On ch=1 n=g#4 v=80
55320 On ch=1 n=g#4 v=0
55320 On ch=1 n=d#5 v=0
55320 On ch=1 n=d#5 v=79
55320 On ch=1 n=g#4 v=79
55440 On ch=1 n=g#4 v=0
55440 On ch=1 n=d#5 v=0
55440 On ch=1 n=c#4 v=88
55560 On ch=1 n=c#4 v=0
55560 On ch=1 n=c#5 v=77
55560 On ch=1 n=b4 v=77
55560 On ch=1 n=g#4 v=77
55680 On ch=1 n=g#4 v=0
55680 On ch=1 n=b4 v=0
55680 On ch=1 n=c#5 v=0
55680 On ch=1 n=c#5 v=76
55680 On ch=1 n=b4 v=76
55680 On ch=1 n=g#4 v=76
55800 On ch=1 n=g#4 v=0
55800 On ch=1 n=b4 v=0
55800 On ch=1 n=c#5 v=0
55800 On ch=1 n=f#3 v=85
55920 On ch=1 n=f#3 v=0
55920 On ch=1 n=f#5 v=74
55920 On ch=1 n=a#4 v=74
56040 On ch=1 n=a#4 v=0
56040 On ch=1 n=f#5 v=0
56040 On ch=1 n=f#5 v=73
56040 On ch=1 n=a#4 v=73
56160 On ch=1 n=a#4 v=0
56160 On ch=1 n=f#5 v=0
56160 On ch=1 n=b3 v=82
56280 On ch=1 n=b3 v=0
56280 On ch=1 n=a4 v=71
56280 On ch=1 n=b4 v=71
56400 On ch=1 n=b4 v=0
56400 On ch=1 n=a4 v=0
56400 On ch=1 n=a4 v=70
56400 On ch=1 n=b4 v=70
56520 On ch=1 n=b4 v=0
56520 On ch=1 n=a4 v=0
56520 On ch=1 n=e3 v=79
56640 On ch=1 n=e3 v=0
56640 On ch=1 n=g#4 v=68
56640 On ch=1 n=b3 v=68
56760 On ch=1 n=b3 v=0
56760 On ch=1 n=g#4 v=0
56760 On ch=1 n=f3 v=67
56880 On ch=1 n=f3 v=0
56880 On ch=1 n=f#3 v=76
57000 On ch=1 n=f#3 v=0
57000 On ch=1 n=a4 v=65
57000 On ch=1 n=d#4 v=65
57120 On ch=1 n=d#4 v=0
57120 On ch=1 n=a4 v=0
57240 On ch=1 n=g#3 v=73
57360 On ch=1 n=g#3 v=0
57360 On ch=1 n=c#5 v=62
57360 On ch=1 n=e4 v=62
57480 On ch=1 n=e4 v=0
57480 On ch=1 n=c#5 v=0
57480 On ch=1 n=f#4 v=61
57480 On ch=1 n=c5 v=61
57600 On ch=1 n=c5 v=0
57600 On ch=1 n=f#4 v=0
57600 On ch=1 n=c#4 v=70
57720 On ch=1 n=c#4 v=0
57720 On ch=1 n=e5 v=60
57720 On ch=1 n=g#4 v=60
57840 On ch=1 n=g#4 v=0
57840 On ch=1 n=e5 v=0
57960 On ch=1 n=c4 v=89
58080 On ch=1 n=c4 v=0
58080 On ch=1 n=d#5 v=78
58080 On ch=1 n=g#4 v=78
58200 On ch=1 n=g#4 v=0
58200 On ch=1 n=d#5 v=0
58200 On ch=1 n=g#4 v=77
58200 On ch=1 n=d#5 v=77
58320 On ch=1 n=d#5 v=0
58320 On ch=1 n=g#4 v=0
58320 On ch=1 n=c#4 v=86
58440 On ch=1 n=c#4 v=0
58440 On ch=1 n=e5 v=75
58440 On ch=1 n=g#4 v=75
58560 On ch=1 n=g#4 v=0
58560 On ch=1 n=e5 v=0
58560 On ch=1 n=g#4 v=74
58560 On ch=1 n=e5 v=74
58680 On ch=1 n=e5 v=0
58680 On ch=1 n=g#4 v=0
58680 On ch=1 n=g#3 v=83
58800 On ch=1 n=g#3 v=0
58800 On ch=1 n=c5 v=72
58800 On ch=1 n=f#4 v=72
58920 On ch=1 n=f#4 v=0
58920 On ch=1 n=c5 v=0
58920 On ch=1 n=c5 v=71
58920 On ch=1 n=f#4 v=71
59040 On ch=1 n=f#4 v=0
59040 On ch=1 n=c5 v=0
59040 On ch=1 n=a3 v=79
59160 On ch=1 n=a3 v=0
59160 On ch=1 n=c#5 v=68
59160 On ch=1 n=e4 v=68
59280 On ch=1 n=e4 v=0
59280 On ch=1 n=c#5 v=0
59280 On ch=1 n=c#5 v=67
59280 On ch=1 n=e4 v=67
59400 On ch=1 n=e4 v=0
59400 On ch=1 n=c#5 v=0
59400 On ch=1 n=f#3 v=76
59520 On ch=1 n=f#3 v=0
59520 On ch=1 n=c#5 v=65
59520 On ch=1 n=f#4 v=65
59640 On ch=1 n=f#4 v=0
59640 On ch=1 n=c#5 v=0
59760 On ch=1 n=g#3 v=73
59880 On ch=1 n=g#3 v=0
59880 On ch=1 n=g#4 v=62
59880 On ch=1 n=e4 v=62
60000 On ch=1 n=e4 v=0
60000 On ch=1 n=g#4 v=0
60120 On ch=1 n=g#2 v=70
60240 On ch=1 n=g#2 v=0
60360 On ch=1 n=c5 v=70
60360 On ch=1 n=f#4 v=70
60480 On ch=1 n=f#4 v=0
60480 On ch=1 n=c5 v=0
60480 On ch=1 n=c#4 v=85
60600 On ch=1 n=c#4 v=0
60600 On ch=1 n=e5 v=80
60600 On ch=1 n=g#4 v=80
60720 On ch=1 n=g#4 v=0
60720 On ch=1 n=e5 v=0
60720 On ch=1 n=g#4 v=86
60720 On ch=1 n=e5 v=86
60840 On ch=1 n=e5 v=0
60840 On ch=1 n=g#4 v=0
60840 On ch=1 n=c4 v=100
60960 On ch=1 n=c4 v=0
60960 On ch=1 n=d#5 v=88
60960 On ch=1 n=g#4 v=88
61080 On ch=1 n=g#4 v=0
61080 On ch=1 n=d#5 v=0
61080 On ch=1 n=d#5 v=86
61080 On ch=1 n=g#4 v=86
61200 On ch=1 n=g#4 v=0
61200 On ch=1 n=d#5 v=0
61200 On ch=1 n=c#4 v=94
61320 On ch=1 n=c#4 v=0
61320 On ch=1 n=e5 v=82
61320 On ch=1 n=c#5 v=82
61320 On ch=1 n=g#4 v=82
61440 On ch=1 n=g#4 v=0
61440 On ch=1 n=c#5 v=0
61440 On ch=1 n=e5 v=0
61440 On ch=1 n=g#4 v=80
61440 On ch=1 n=c#5 v=80
61440 On ch=1 n=e5 v=80
61560 On ch=1 n=e5 v=0
61560 On ch=1 n=c#5 v=0
61560 On ch=1 n=g#4 v=0
61560 On ch=1 n=g#3 v=88
61680 On ch=1 n=g#3 v=0
61680 On ch=1 n=c5 v=76
61680 On ch=1 n=f#4 v=76
61800 On ch=1 n=f#4 v=0
61800 On ch=1 n=c5 v=0
61800 On ch=1 n=c5 v=73
61800 On ch=1 n=f#4 v=73
61920 On ch=1 n=f#4 v=0
61920 On ch=1 n=c5 v=0
61920 On ch=1 n=a3 v=81
62040 On ch=1 n=a3 v=0
62040 On ch=1 n=c#5 v=69
62040 On ch=1 n=e4 v=69
62160 On ch=1 n=e4 v=0
62160 On ch=1 n=c#5 v=0
62160 On ch=1 n=c#5 v=67
62160 On ch=1 n=e4 v=67
62280 On ch=1 n=e4 v=0
62280 On ch=1 n=c#5 v=0
62280 On ch=1 n=f#3 v=75
62400 On ch=1 n=f#3 v=0
62520 On ch=1 n=a5 v=61
62520 On ch=1 n=d5 v=61
62520 On ch=1 n=a4 v=61
62640 On ch=1 n=a4 v=0
62640 On ch=1 n=d5 v=0
62640 On ch=1 n=a5 v=0
63000 On ch=1 n=g#3 v=62
63120 On ch=1 n=g#3 v=0
63120 On ch=1 n=f#5 v=50
63120 On ch=1 n=c5 v=50
63120 On ch=1 n=g#4 v=50
63240 On ch=1 n=g#4 v=0
63240 On ch=1 n=c5 v=0
63240 On ch=1 n=f#5 v=0
63240 On ch=1 n=g#4 v=48
63240 On ch=1 n=c5 v=48
63240 On ch=1 n=f#5 v=48
63360 On ch=1 n=f#5 v=0
63360 On ch=1 n=c5 v=0
63360 On ch=1 n=g#4 v=0
63360 On ch=1 n=c#4 v=56
63480 On ch=1 n=c#4 v=0
63480 On ch=1 n=e5 v=43
63480 On ch=1 n=g#4 v=43
63600 On ch=1 n=g#4 v=0
63600 On ch=1 n=e5 v=0
63720 On ch=1 n=c4 v=50
63840 On ch=1 n=c4 v=0
63840 On ch=1 n=d#5 v=40
63840 On ch=1 n=g#4 v=40
63960 On ch=1 n=g#4 v=0
63960 On ch=1 n=d#5 v=0
63960 On ch=1 n=g#4 v=40
63960 On ch=1 n=d#5 v=40
64080 On ch=1 n=d#5 v=0
64080 On ch=1 n=g#4 v=0
64080 On ch=1 n=c#4 v=50
64200 On ch=1 n=c#4 v=0
64200 On ch=1 n=e5 v=40
64200 On ch=1 n=g#4 v=40
64320 On ch=1 n=g#4 v=0
64320 On ch=1 n=e5 v=0
64320 On ch=1 n=g#4 v=40
64320 On ch=1 n=e5 v=40
64440 On ch=1 n=e5 v=0
64440 On ch=1 n=g#4 v=0
64440 On ch=1 n=g#3 v=50
64560 On ch=1 n=g#3 v=0
64560 On ch=1 n=c5 v=40
64560 On ch=1 n=f#4 v=40
64680 On ch=1 n=f#4 v=0
64680 On ch=1 n=c5 v=0
64680 On ch=1 n=c5 v=40
64680 On ch=1 n=f#4 v=40
64800 On ch=1 n=f#4 v=0
64800 On ch=1 n=c5 v=0
64800 On ch=1 n=a3 v=50
64920 On ch=1 n=a3 v=0
64920 On ch=1 n=c#5 v=40
64920 On ch=1 n=e4 v=40
65040 On ch=1 n=e4 v=0
65040 On ch=1 n=c#5 v=0
65040 On ch=1 n=c#5 v=40
65040 On ch=1 n=e4 v=40
65160 On ch=1 n=e4 v=0
65160 On ch=1 n=c#5 v=0
65160 On ch=1 n=f#3 v=50
65280 On ch=1 n=f#3 v=0
65280 On ch=1 n=c#5 v=40
65280 On ch=1 n=f#4 v=40
65400 On ch=1 n=f#4 v=0
65400 On ch=1 n=c#5 v=0
65400 On ch=1 n=c#5 v=40
65400 On ch=1 n=f#4 v=40
65520 On ch=1 n=f#4 v=0
65520 On ch=1 n=c#5 v=0
65520 On ch=1 n=g#3 v=50
65640 On ch=1 n=g#3 v=0
65640 On ch=1 n=g#4 v=40
65640 On ch=1 n=e4 v=40
65760 On ch=1 n=e4 v=0
65760 On ch=1 n=g#4 v=0
65880 On ch=1 n=g#2 v=50
66000 On ch=1 n=g#2 v=0
66120 On ch=1 n=c5 v=40
66120 On ch=1 n=f#4 v=40
66240 On ch=1 n=f#4 v=0
66240 On ch=1 n=c5 v=0
66240 On ch=1 n=c#4 v=50
66360 On ch=1 n=c#4 v=0
66360 On ch=1 n=e5 v=40
66360 On ch=1 n=g#4 v=40
66480 On ch=1 n=g#4 v=0
66480 On ch=1 n=e5 v=0
66480 On ch=1 n=e5 v=40
66480 On ch=1 n=g#4 v=40
66600 On ch=1 n=g#4 v=0
66600 On ch=1 n=e5 v=0
66600 On ch=1 n=c4 v=50
66720 On ch=1 n=c4 v=0
66720 On ch=1 n=d#5 v=40
66720 On ch=1 n=g#4 v=40
66840 On ch=1 n=g#4 v=0
66840 On ch=1 n=d#5 v=0
66840 On ch=1 n=d#5 v=40
66840 On ch=1 n=g#4 v=40
66960 On ch=1 n=g#4 v=0
66960 On ch=1 n=d#5 v=0
66960 On ch=1 n=c#4 v=50
67080 On ch=1 n=c#4 v=0
67080 On ch=1 n=e5 v=40
67080 On ch=1 n=g#4 v=40
67200 On ch=1 n=g#4 v=0
67200 On ch=1 n=e5 v=0
67200 On ch=1 n=e5 v=40
67200 On ch=1 n=g#4 v=40
67320 On ch=1 n=g#4 v=0
67320 On ch=1 n=e5 v=0
67320 On ch=1 n=g#3 v=50
67440 On ch=1 n=g#3 v=0
67440 On ch=1 n=c5 v=40
67440 On ch=1 n=f#4 v=40
67560 On ch=1 n=f#4 v=0
67560 On ch=1 n=c5 v=0
67560 On ch=1 n=c5 v=40
67560 On ch=1 n=f#4 v=40
67680 On ch=1 n=f#4 v=0
67680 On ch=1 n=c5 v=0
67680 On ch=1 n=a3 v=50
67800 On ch=1 n=a3 v=0
67800 On ch=1 n=c#5 v=40
67800 On ch=1 n=e4 v=40
67920 On ch=1 n=e4 v=0
67920 On ch=1 n=c#5 v=0
68040 On ch=1 n=f#3 v=50
68160 On ch=1 n=f#3 v=0
68280 On ch=1 n=a5 v=40
68280 On ch=1 n=d5 v=40
68280 On ch=1 n=a4 v=40
68400 On ch=1 n=a4 v=0
68400 On ch=1 n=d5 v=0
68400 On ch=1 n=a5 v=0
68760 On ch=1 n=g#3 v=50
68880 On ch=1 n=g#3 v=0
68880 On ch=1 n=f#5 v=40
68880 On ch=1 n=c5 v=40
68880 On ch=1 n=g#4 v=40
69000 On ch=1 n=g#4 v=0
69000 On ch=1 n=c5 v=0
69000 On ch=1 n=f#5 v=0
69000 On ch=1 n=g#4 v=40
69000 On ch=1 n=c5 v=40
69000 On ch=1 n=f#5 v=40
69120 On ch=1 n=f#5 v=0
69120 On ch=1 n=c5 v=0
69120 On ch=1 n=g#4 v=0
69120 On ch=1 n=c#4 v=50
69240 On ch=1 n=e5 v=40
69240 On ch=1 n=g#4 v=40
69360 On ch=1 n=g#4 v=0
69360 On ch=1 n=e5 v=0
69360 On ch=1 n=c#4 v=0
69360 Meta TrkEnd
TrkEnd
MTrk
0 Meta 0x21 00
0 Meta TrkName "Pedal"
0 PrCh ch=1 p=0
360 Par ch=1 c=64 v=127
600 Par ch=1 c=64 v=0
720 Par ch=1 c=64 v=127
960 Par ch=1 c=64 v=0
1080 Par ch=1 c=64 v=127
1320 Par ch=1 c=64 v=0
1440 Par ch=1 c=64 v=127
1680 Par ch=1 c=64 v=0
1800 Par ch=1 c=64 v=127
2040 Par ch=1 c=64 v=0
2160 Par ch=1 c=64 v=127
2400 Par ch=1 c=64 v=0
2520 Par ch=1 c=64 v=127
2760 Par ch=1 c=64 v=0
2880 Par ch=1 c=64 v=127
3120 Par ch=1 c=64 v=0
3240 Par ch=1 c=64 v=127
3480 Par ch=1 c=64 v=0
3600 Par ch=1 c=64 v=127
3840 Par ch=1 c=64 v=0
3960 Par ch=1 c=64 v=127
4200 Par ch=1 c=64 v=0
4680 Par ch=1 c=64 v=127
4920 Par ch=1 c=64 v=0
5040 Par ch=1 c=64 v=127
5280 Par ch=1 c=64 v=0
5400 Par ch=1 c=64 v=127
5640 Par ch=1 c=64 v=0
6120 Par ch=1 c=64 v=127
6360 Par ch=1 c=64 v=0
6480 Par ch=1 c=64 v=127
6720 Par ch=1 c=64 v=0
6840 Par ch=1 c=64 v=127
7080 Par ch=1 c=64 v=0
7200 Par ch=1 c=64 v=127
7440 Par ch=1 c=64 v=0
7560 Par ch=1 c=64 v=127
7800 Par ch=1 c=64 v=0
7920 Par ch=1 c=64 v=127
8160 Par ch=1 c=64 v=0
8280 Par ch=1 c=64 v=127
8520 Par ch=1 c=64 v=0
8640 Par ch=1 c=64 v=127
8880 Par ch=1 c=64 v=0
9000 Par ch=1 c=64 v=127
9240 Par ch=1 c=64 v=0
9360 Par ch=1 c=64 v=127
9600 Par ch=1 c=64 v=0
9720 Par ch=1 c=64 v=127
9960 Par ch=1 c=64 v=0
10080 Par ch=1 c=64 v=127
10320 Par ch=1 c=64 v=0
10440 Par ch=1 c=64 v=127
10680 Par ch=1 c=64 v=0
10800 Par ch=1 c=64 v=127
11040 Par ch=1 c=64 v=0
11160 Par ch=1 c=64 v=127
11400 Par ch=1 c=64 v=0
11520 Par ch=1 c=64 v=127
11640 Par ch=1 c=64 v=0
11880 Par ch=1 c=64 v=127
12120 Par ch=1 c=64 v=0
12240 Par ch=1 c=64 v=127
12480 Par ch=1 c=64 v=0
12600 Par ch=1 c=64 v=127
12840 Par ch=1 c=64 v=0
12960 Par ch=1 c=64 v=127
13200 Par ch=1 c=64 v=0
13320 Par ch=1 c=64 v=127
13560 Par ch=1 c=64 v=0
13680 Par ch=1 c=64 v=127
13920 Par ch=1 c=64 v=0
14040 Par ch=1 c=64 v=127
14280 Par ch=1 c=64 v=0
14400 Par ch=1 c=64 v=127
14640 Par ch=1 c=64 v=0
14760 Par ch=1 c=64 v=127
15000 Par ch=1 c=64 v=0
15120 Par ch=1 c=64 v=127
15360 Par ch=1 c=64 v=0
15480 Par ch=1 c=64 v=127
15720 Par ch=1 c=64 v=0
15840 Par ch=1 c=64 v=127
16080 Par ch=1 c=64 v=0
16200 Par ch=1 c=64 v=127
16800 Par ch=1 c=64 v=0
16920 Par ch=1 c=64 v=127
17160 Par ch=1 c=64 v=0
17280 Par ch=1 c=64 v=127
17400 Par ch=1 c=64 v=0
17640 Par ch=1 c=64 v=127
17880 Par ch=1 c=64 v=0
18000 Par ch=1 c=64 v=127
18240 Par ch=1 c=64 v=0
18360 Par ch=1 c=64 v=127
18600 Par ch=1 c=64 v=0
18720 Par ch=1 c=64 v=127
18960 Par ch=1 c=64 v=0
19080 Par ch=1 c=64 v=127
19320 Par ch=1 c=64 v=0
19440 Par ch=1 c=64 v=127
19680 Par ch=1 c=64 v=0
19800 Par ch=1 c=64 v=127
20040 Par ch=1 c=64 v=0
20160 Par ch=1 c=64 v=127
20400 Par ch=1 c=64 v=0
20520 Par ch=1 c=64 v=127
20760 Par ch=1 c=64 v=0
20880 Par ch=1 c=64 v=127
21120 Par ch=1 c=64 v=0
21240 Par ch=1 c=64 v=127
21480 Par ch=1 c=64 v=0
21600 Par ch=1 c=64 v=127
21840 Par ch=1 c=64 v=0
21960 Par ch=1 c=64 v=127
22560 Par ch=1 c=64 v=0
22680 Par ch=1 c=64 v=127
22920 Par ch=1 c=64 v=0
23040 Par ch=1 c=64 v=127
23160 Par ch=1 c=64 v=0
23400 Par ch=1 c=64 v=127
23880 Par ch=1 c=64 v=0
24960 Par ch=1 c=64 v=127
25320 Par ch=1 c=64 v=0
26280 Par ch=1 c=64 v=127
26520 Par ch=1 c=64 v=0
26640 Par ch=1 c=64 v=127
26880 Par ch=1 c=64 v=0
27000 Par ch=1 c=64 v=127
27600 Par ch=1 c=64 v=0
27720 Par ch=1 c=64 v=127
27960 Par ch=1 c=64 v=0
28080 Par ch=1 c=64 v=127
28320 Par ch=1 c=64 v=0
28440 Par ch=1 c=64 v=127
28680 Par ch=1 c=64 v=0
28800 Par ch=1 c=64 v=127
29040 Par ch=1 c=64 v=0
29160 Par ch=1 c=64 v=127
29640 Par ch=1 c=64 v=0
30720 Par ch=1 c=64 v=127
31080 Par ch=1 c=64 v=0
32040 Par ch=1 c=64 v=127
32280 Par ch=1 c=64 v=0
32400 Par ch=1 c=64 v=127
32640 Par ch=1 c=64 v=0
32760 Par ch=1 c=64 v=127
33000 Par ch=1 c=64 v=0
33120 Par ch=1 c=64 v=127
33720 Par ch=1 c=64 v=0
34920 Par ch=1 c=64 v=127
35160 Par ch=1 c=64 v=0
35280 Par ch=1 c=64 v=127
35520 Par ch=1 c=64 v=0
35640 Par ch=1 c=64 v=127
35880 Par ch=1 c=64 v=0
36000 Par ch=1 c=64 v=127
36240 Par ch=1 c=64 v=0
36360 Par ch=1 c=64 v=127
36600 Par ch=1 c=64 v=0
36720 Par ch=1 c=64 v=127
36960 Par ch=1 c=64 v=0
37080 Par ch=1 c=64 v=127
37320 Par ch=1 c=64 v=0
37440 Par ch=1 c=64 v=127
37680 Par ch=1 c=64 v=0
37800 Par ch=1 c=64 v=127
38040 Par ch=1 c=64 v=0
38160 Par ch=1 c=64 v=127
38400 Par ch=1 c=64 v=0
38520 Par ch=1 c=64 v=127
38760 Par ch=1 c=64 v=0
38880 Par ch=1 c=64 v=127
39120 Par ch=1 c=64 v=0
39240 Par ch=1 c=64 v=127
39840 Par ch=1 c=64 v=0
39960 Par ch=1 c=64 v=127
40200 Par ch=1 c=64 v=0
40320 Par ch=1 c=64 v=127
40560 Par ch=1 c=64 v=0
40680 Par ch=1 c=64 v=127
40920 Par ch=1 c=64 v=0
41040 Par ch=1 c=64 v=127
41280 Par ch=1 c=64 v=0
41400 Par ch=1 c=64 v=127
41640 Par ch=1 c=64 v=0
41760 Par ch=1 c=64 v=127
42000 Par ch=1 c=64 v=0
42120 Par ch=1 c=64 v=127
42360 Par ch=1 c=64 v=0
42480 Par ch=1 c=64 v=127
42720 Par ch=1 c=64 v=0
42840 Par ch=1 c=64 v=127
43080 Par ch=1 c=64 v=0
43200 Par ch=1 c=64 v=127
43440 Par ch=1 c=64 v=0
43560 Par ch=1 c=64 v=127
43800 Par ch=1 c=64 v=0
43920 Par ch=1 c=64 v=127
44160 Par ch=1 c=64 v=0
44280 Par ch=1 c=64 v=127
44520 Par ch=1 c=64 v=0
44640 Par ch=1 c=64 v=127
44880 Par ch=1 c=64 v=0
45000 Par ch=1 c=64 v=127
45600 Par ch=1 c=64 v=0
45720 Par ch=1 c=64 v=127
45960 Par ch=1 c=64 v=0
46080 Par ch=1 c=64 v=127
46200 Par ch=1 c=64 v=0
46440 Par ch=1 c=64 v=127
46680 Par ch=1 c=64 v=0
46800 Par ch=1 c=64 v=127
47040 Par ch=1 c=64 v=0
47160 Par ch=1 c=64 v=127
47400 Par ch=1 c=64 v=0
47520 Par ch=1 c=64 v=127
47760 Par ch=1 c=64 v=0
47880 Par ch=1 c=64 v=127
48120 Par ch=1 c=64 v=0
48240 Par ch=1 c=64 v=127
48480 Par ch=1 c=64 v=0
48600 Par ch=1 c=64 v=127
48840 Par ch=1 c=64 v=0
48960 Par ch=1 c=64 v=127
49200 Par ch=1 c=64 v=0
49320 Par ch=1 c=64 v=127
49560 Par ch=1 c=64 v=0
49680 Par ch=1 c=64 v=127
49920 Par ch=1 c=64 v=0
50040 Par ch=1 c=64 v=127
50280 Par ch=1 c=64 v=0
50760 Par ch=1 c=64 v=127
51000 Par ch=1 c=64 v=0
51120 Par ch=1 c=64 v=127
51360 Par ch=1 c=64 v=0
51480 Par ch=1 c=64 v=127
51720 Par ch=1 c=64 v=0
52200 Par ch=1 c=64 v=127
52440 Par ch=1 c=64 v=0
52560 Par ch=1 c=64 v=127
52800 Par ch=1 c=64 v=0
52920 Par ch=1 c=64 v=127
53160 Par ch=1 c=64 v=0
53280 Par ch=1 c=64 v=127
53520 Par ch=1 c=64 v=0
53640 Par ch=1 c=64 v=127
53880 Par ch=1 c=64 v=0
54000 Par ch=1 c=64 v=127
54240 Par ch=1 c=64 v=0
54360 Par ch=1 c=64 v=127
54600 Par ch=1 c=64 v=0
54720 Par ch=1 c=64 v=127
54960 Par ch=1 c=64 v=0
55080 Par ch=1 c=64 v=127
55320 Par ch=1 c=64 v=0
55440 Par ch=1 c=64 v=127
55680 Par ch=1 c=64 v=0
55800 Par ch=1 c=64 v=127
56040 Par ch=1 c=64 v=0
56160 Par ch=1 c=64 v=127
56400 Par ch=1 c=64 v=0
56520 Par ch=1 c=64 v=127
56760 Par ch=1 c=64 v=0
56880 Par ch=1 c=64 v=127
57120 Par ch=1 c=64 v=0
57240 Par ch=1 c=64 v=127
57480 Par ch=1 c=64 v=0
57600 Par ch=1 c=64 v=127
57720 Par ch=1 c=64 v=0
57960 Par ch=1 c=64 v=127
58200 Par ch=1 c=64 v=0
58320 Par ch=1 c=64 v=127
58560 Par ch=1 c=64 v=0
58680 Par ch=1 c=64 v=127
58920 Par ch=1 c=64 v=0
59040 Par ch=1 c=64 v=127
59280 Par ch=1 c=64 v=0
59400 Par ch=1 c=64 v=127
59640 Par ch=1 c=64 v=0
59760 Par ch=1 c=64 v=127
60000 Par ch=1 c=64 v=0
60120 Par ch=1 c=64 v=127
60360 Par ch=1 c=64 v=0
60480 Par ch=1 c=64 v=127
60720 Par ch=1 c=64 v=0
60840 Par ch=1 c=64 v=127
61080 Par ch=1 c=64 v=0
61200 Par ch=1 c=64 v=127
61440 Par ch=1 c=64 v=0
61560 Par ch=1 c=64 v=127
61800 Par ch=1 c=64 v=0
61920 Par ch=1 c=64 v=127
62160 Par ch=1 c=64 v=0
62280 Par ch=1 c=64 v=127
62880 Par ch=1 c=64 v=0
63000 Par ch=1 c=64 v=127
63240 Par ch=1 c=64 v=0
63360 Par ch=1 c=64 v=127
63480 Par ch=1 c=64 v=0
63720 Par ch=1 c=64 v=127
63960 Par ch=1 c=64 v=0
64080 Par ch=1 c=64 v=127
64320 Par ch=1 c=64 v=0
64440 Par ch=1 c=64 v=127
64680 Par ch=1 c=64 v=0
64800 Par ch=1 c=64 v=127
65040 Par ch=1 c=64 v=0
65160 Par ch=1 c=64 v=127
65400 Par ch=1 c=64 v=0
65520 Par ch=1 c=64 v=127
65760 Par ch=1 c=64 v=0
65880 Par ch=1 c=64 v=127
66120 Par ch=1 c=64 v=0
66240 Par ch=1 c=64 v=127
66480 Par ch=1 c=64 v=0
66600 Par ch=1 c=64 v=127
66840 Par ch=1 c=64 v=0
66960 Par ch=1 c=64 v=127
67200 Par ch=1 c=64 v=0
67320 Par ch=1 c=64 v=127
67560 Par ch=1 c=64 v=0
67680 Par ch=1 c=64 v=127
67920 Par ch=1 c=64 v=0
68040 Par ch=1 c=64 v=127
68640 Par ch=1 c=64 v=0
68760 Par ch=1 c=64 v=127
69000 Par ch=1 c=64 v=0
69120 Par ch=1 c=64 v=127
69480 Par ch=1 c=64 v=0
69480 Meta TrkEnd
TrkEnd
MTrk
0 Meta 0x21 00
0 Meta TrkName "F. Chopin Valse No. 07 in C#- Op. 64-2"
0 Meta TrkEnd
TrkEnd
MTrk
0 Meta 0x21 00
0 Meta TrkName "Jeruen E. Dery jawjaw@hotmail.com"
0 Meta TrkEnd
TrkEnd
