MFile 1 7 480
MTrk
0 Meta Text "\n"
0 TimeSig 3/4 24 8
0 KeySig 0 major
0 Tempo 535714
74880 KeySig 3 major
97920 KeySig 0 major
172800 KeySig 3 major
195840 KeySig 0 major
267840 Tempo 535714
267868 Tempo 544465
267896 Tempo 549199
267924 Tempo 554990
267952 Tempo 559910
267980 Tempo 564919
268008 Tempo 570017
268036 Tempo 576258
268064 Tempo 581564
268092 Tempo 586969
268120 Tempo 592476
268148 Tempo 599221
268176 Tempo 604961
268204 Tempo 610811
268232 Tempo 616776
268260 Tempo 624090
268288 Tempo 630318
268320 Tempo 636672
268348 Tempo 643156
268376 Tempo 651112
268404 Tempo 657895
268432 Tempo 664820
268460 Tempo 671892
268488 Tempo 680581
268516 Tempo 687994
268544 Tempo 695572
268572 Tempo 703317
268600 Tempo 712843
268628 Tempo 720981
268656 Tempo 729306
268684 Tempo 737826
268712 Tempo 748316
268740 Tempo 757289
268768 Tempo 766479
268800 Tempo 775896
268828 Tempo 787505
268856 Tempo 797448
268884 Tempo 807646
268912 Tempo 818107
268940 Tempo 831025
268968 Tempo 842105
268996 Tempo 656877
269024 Tempo 668569
269052 Tempo 683028
269080 Tempo 695453
269108 Tempo 708233
269136 Tempo 917993
269164 Tempo 934288
269192 Tempo 948317
269220 Tempo 962773
269248 Tempo 977676
269280 Tempo 1000000
270720 Tempo 535714
290880 Tempo 535714
290908 Tempo 538890
290936 Tempo 543527
290964 Tempo 549199
290992 Tempo 554017
291020 Tempo 558919
291048 Tempo 564919
291076 Tempo 570017
291104 Tempo 576258
291132 Tempo 581564
291160 Tempo 586969
291188 Tempo 593589
291216 Tempo 599221
291244 Tempo 606122
291272 Tempo 611995
291300 Tempo 617983
291328 Tempo 625326
291360 Tempo 631579
291388 Tempo 639250
291416 Tempo 645786
291444 Tempo 652458
291472 Tempo 660647
291500 Tempo 667631
291528 Tempo 676209
291556 Tempo 683527
291584 Tempo 691005
291612 Tempo 700198
291640 Tempo 708048
291668 Tempo 716076
291696 Tempo 725953
291724 Tempo 734394
291752 Tempo 744786
291780 Tempo 753674
291808 Tempo 762777
291840 Tempo 773994
291868 Tempo 783597
291896 Tempo 795439
291924 Tempo 805585
291952 Tempo 815993
291980 Tempo 828844
292008 Tempo 839866
292036 Tempo 656877
292064 Tempo 668569
292092 Tempo 680585
292120 Tempo 695453
292148 Tempo 708233
292176 Tempo 920669
292204 Tempo 934288
292232 Tempo 948317
292260 Tempo 965717
292288 Tempo 980713
292320 Tempo 1000000
292320 Meta TrkEnd
TrkEnd
MTrk
0 SeqSpec 43 00 01 00
0 Meta TrkName "Right Treble"
0 Meta 0x21 00
0 PrCh ch=1 p=0
480 On ch=1 n=e5 v=60
480 On ch=1 n=c5 v=60
960 On ch=1 n=c5 v=0
960 On ch=1 n=e5 v=0
960 On ch=1 n=a5 v=60
960 On ch=1 n=c5 v=60
1440 On ch=1 n=c5 v=0
1440 On ch=1 n=a5 v=0
1920 On ch=1 n=b4 v=60
1920 On ch=1 n=d5 v=60
2400 On ch=1 n=d5 v=0
2400 On ch=1 n=b4 v=0
2400 On ch=1 n=a5 v=60
2400 On ch=1 n=b4 v=60
2880 On ch=1 n=b4 v=0
2880 On ch=1 n=a5 v=0
3360 On ch=1 n=c5 v=60
3360 On ch=1 n=e5 v=60
3840 On ch=1 n=e5 v=0
3840 On ch=1 n=c5 v=0
3840 On ch=1 n=a5 v=60
3840 On ch=1 n=c5 v=60
4320 On ch=1 n=c5 v=0
4320 On ch=1 n=a5 v=0
4800 On ch=1 n=b4 v=60
4800 On ch=1 n=d5 v=60
5280 On ch=1 n=d5 v=0
5280 On ch=1 n=b4 v=0
5280 On ch=1 n=a5 v=60
5280 On ch=1 n=b4 v=60
5760 On ch=1 n=b4 v=0
5760 On ch=1 n=a5 v=0
6240 On ch=1 n=c5 v=60
6240 On ch=1 n=e5 v=60
6720 On ch=1 n=e5 v=0
6720 On ch=1 n=c5 v=0
6720 On ch=1 n=a5 v=60
6720 On ch=1 n=c5 v=60
7200 On ch=1 n=c5 v=0
7200 On ch=1 n=a5 v=0
7680 On ch=1 n=d#5 v=60
7680 On ch=1 n=f#5 v=60
8160 On ch=1 n=f#5 v=0
8160 On ch=1 n=d#5 v=0
8160 On ch=1 n=a5 v=60
8160 On ch=1 n=d#5 v=60
8640 On ch=1 n=d#5 v=0
8640 On ch=1 n=a5 v=0
9120 On ch=1 n=d5 v=60
9120 On ch=1 n=e5 v=60
9600 On ch=1 n=e5 v=0
9600 On ch=1 n=d5 v=0
9600 On ch=1 n=g#5 v=60
9600 On ch=1 n=d5 v=60
10080 On ch=1 n=d5 v=0
10080 On ch=1 n=g#5 v=0
10560 On ch=1 n=c6 v=60
10560 On ch=1 n=g#5 v=60
10560 On ch=1 n=d5 v=60
11040 On ch=1 n=d5 v=0
11040 On ch=1 n=g#5 v=0
11040 On ch=1 n=c6 v=0
11040 On ch=1 n=b5 v=60
11040 On ch=1 n=g#5 v=60
11040 On ch=1 n=d5 v=60
11520 On ch=1 n=d5 v=0
11520 On ch=1 n=g#5 v=0
11520 On ch=1 n=b5 v=0
12000 On ch=1 n=e5 v=60
12000 On ch=1 n=c5 v=60
12480 On ch=1 n=c5 v=0
12480 On ch=1 n=e5 v=0
12480 On ch=1 n=a5 v=60
12480 On ch=1 n=c5 v=60
12960 On ch=1 n=c5 v=0
12960 On ch=1 n=a5 v=0
13440 On ch=1 n=b4 v=60
13440 On ch=1 n=d5 v=60
13920 On ch=1 n=d5 v=0
13920 On ch=1 n=b4 v=0
13920 On ch=1 n=a5 v=60
13920 On ch=1 n=b4 v=60
14400 On ch=1 n=b4 v=0
14400 On ch=1 n=a5 v=0
14880 On ch=1 n=c5 v=60
14880 On ch=1 n=e5 v=60
15360 On ch=1 n=e5 v=0
15360 On ch=1 n=c5 v=0
15360 On ch=1 n=a5 v=60
15360 On ch=1 n=c5 v=60
15840 On ch=1 n=c5 v=0
15840 On ch=1 n=a5 v=0
16320 On ch=1 n=b4 v=60
16320 On ch=1 n=d5 v=60
16800 On ch=1 n=d5 v=0
16800 On ch=1 n=b4 v=0
16800 On ch=1 n=a5 v=60
16800 On ch=1 n=b4 v=60
17280 On ch=1 n=b4 v=0
17280 On ch=1 n=a5 v=0
17760 On ch=1 n=c5 v=60
17760 On ch=1 n=e5 v=60
18240 On ch=1 n=e5 v=0
18240 On ch=1 n=c5 v=0
18240 On ch=1 n=a5 v=60
18240 On ch=1 n=c5 v=60
18720 On ch=1 n=c5 v=0
18720 On ch=1 n=a5 v=0
19200 On ch=1 n=d#5 v=60
19200 On ch=1 n=f#5 v=60
19680 On ch=1 n=f#5 v=0
19680 On ch=1 n=d#5 v=0
19680 On ch=1 n=a5 v=60
19680 On ch=1 n=d#5 v=60
20160 On ch=1 n=d#5 v=0
20160 On ch=1 n=a5 v=0
20640 On ch=1 n=d5 v=60
20640 On ch=1 n=e5 v=60
21120 On ch=1 n=e5 v=0
21120 On ch=1 n=d5 v=0
21120 On ch=1 n=g#5 v=60
21120 On ch=1 n=d5 v=60
21600 On ch=1 n=d5 v=0
21600 On ch=1 n=g#5 v=0
21600 On ch=1 n=a5 v=60
21600 On ch=1 n=c5 v=60
22080 On ch=1 n=c5 v=0
22080 On ch=1 n=a5 v=0
22560 On ch=1 n=e5 v=60
23040 On ch=1 n=e5 v=0
23040 On ch=1 n=e6 v=60
23520 On ch=1 n=e6 v=0
23520 On ch=1 n=a5 v=60
24240 On ch=1 n=a5 v=0
24240 On ch=1 n=b5 v=60
24480 On ch=1 n=b5 v=0
24960 On ch=1 n=a5 v=60
25440 On ch=1 n=a5 v=0
25440 On ch=1 n=g#5 v=60
25920 On ch=1 n=g#5 v=0
25920 On ch=1 n=f6 v=60
26400 On ch=1 n=f6 v=0
26400 On ch=1 n=b5 v=60
27120 On ch=1 n=b5 v=0
27120 On ch=1 n=c6 v=60
27360 On ch=1 n=c6 v=0
27840 On ch=1 n=b5 v=60
28320 On ch=1 n=b5 v=0
28320 On ch=1 n=a5 v=60
28800 On ch=1 n=a5 v=0
28800 On ch=1 n=a6 v=60
29520 On ch=1 n=a6 v=0
29520 On ch=1 n=g6 v=60
29760 On ch=1 n=g6 v=0
29760 On ch=1 n=g6 v=60
29920 On ch=1 n=g6 v=0
29920 On ch=1 n=f6 v=60
30080 On ch=1 n=f6 v=0
30080 On ch=1 n=e6 v=60
30240 On ch=1 n=e6 v=0
30240 On ch=1 n=g6 v=60
30480 On ch=1 n=g6 v=0
30480 On ch=1 n=f6 v=60
30720 On ch=1 n=f6 v=0
30720 On ch=1 n=a5 v=60
30960 On ch=1 n=a5 v=0
30960 On ch=1 n=b5 v=60
31200 On ch=1 n=b5 v=0
31200 On ch=1 n=c6 v=60
31440 On ch=1 n=c6 v=0
31440 On ch=1 n=d6 v=60
31680 On ch=1 n=d6 v=0
31680 On ch=1 n=e6 v=60
31920 On ch=1 n=e6 v=0
31920 On ch=1 n=d6 v=60
32160 On ch=1 n=d6 v=0
32160 On ch=1 n=d5 v=60
32400 On ch=1 n=d5 v=0
32400 On ch=1 n=a5 v=60
32640 On ch=1 n=a5 v=0
32640 On ch=1 n=c6 v=60
32880 On ch=1 n=c6 v=0
32880 On ch=1 n=b5 v=60
33000 On ch=1 n=a5 v=60
33060 On ch=1 n=a5 v=0
33060 On ch=1 n=b5 v=60
33120 On ch=1 n=b5 v=0
33120 On ch=1 n=b5 v=0
33120 On ch=1 n=a5 v=60
33360 On ch=1 n=a5 v=0
33360 On ch=1 n=g#5 v=60
33600 On ch=1 n=g#5 v=0
33600 On ch=1 n=b5 v=60
33732 On ch=1 n=c6 v=60
33736 On ch=1 n=b5 v=0
33868 On ch=1 n=c6 v=0
33868 On ch=1 n=d6 v=60
34004 On ch=1 n=d6 v=0
34008 On ch=1 n=d#6 v=60
34140 On ch=1 n=e6 v=60
34144 On ch=1 n=d#6 v=0
34276 On ch=1 n=e6 v=0
34288 On ch=1 n=g6 v=60
34424 On ch=1 n=g6 v=0
34424 On ch=1 n=f6 v=60
34560 On ch=1 n=f6 v=0
34560 On ch=1 n=d#6 v=60
34756 On ch=1 n=e6 v=60
34768 On ch=1 n=d#6 v=0
34964 On ch=1 n=e6 v=0
34964 On ch=1 n=d#5 v=60
35168 On ch=1 n=e5 v=60
35172 On ch=1 n=d#5 v=0
35376 On ch=1 n=e5 v=0
35380 On ch=1 n=c6 v=60
35584 On ch=1 n=b5 v=60
35588 On ch=1 n=c6 v=0
35792 On ch=1 n=b5 v=0
35792 On ch=1 n=a5 v=60
35940 On ch=1 n=b5 v=60
36000 On ch=1 n=b5 v=0
36000 On ch=1 n=a5 v=0
36000 On ch=1 n=a5 v=60
36480 On ch=1 n=a5 v=0
36480 On ch=1 n=g#5 v=60
36960 On ch=1 n=g#5 v=0
36960 On ch=1 n=g#5 v=60
37440 On ch=1 n=g#5 v=0
37440 On ch=1 n=f5 v=60
37680 On ch=1 n=f5 v=0
37680 On ch=1 n=f6 v=60
37920 On ch=1 n=f6 v=0
37920 On ch=1 n=a#5 v=60
38080 On ch=1 n=a#5 v=0
38080 On ch=1 n=b5 v=60
38240 On ch=1 n=b5 v=0
38240 On ch=1 n=c6 v=60
38400 On ch=1 n=c6 v=0
38400 On ch=1 n=b5 v=60
38560 On ch=1 n=b5 v=0
38560 On ch=1 n=d6 v=60
38720 On ch=1 n=d6 v=0
38720 On ch=1 n=c6 v=60
38880 On ch=1 n=c6 v=0
38880 On ch=1 n=b5 v=60
39360 On ch=1 n=b5 v=0
39360 On ch=1 n=a5 v=60
39840 On ch=1 n=a5 v=0
39840 On ch=1 n=a5 v=60
40320 On ch=1 n=a5 v=0
40320 On ch=1 n=a6 v=60
41040 On ch=1 n=g6 v=60
41280 On ch=1 n=g6 v=0
41280 On ch=1 n=f6 v=60
41520 On ch=1 n=f6 v=0
41520 On ch=1 n=e6 v=60
41760 On ch=1 n=e6 v=0
41760 On ch=1 n=a6 v=0
41760 On ch=1 n=g6 v=60
41760 On ch=1 n=a6 v=60
42480 On ch=1 n=g6 v=0
42480 On ch=1 n=f6 v=60
42720 On ch=1 n=f6 v=0
42720 On ch=1 n=e6 v=60
42960 On ch=1 n=e6 v=0
42960 On ch=1 n=d6 v=60
43200 On ch=1 n=d6 v=0
43200 On ch=1 n=a6 v=0
43200 On ch=1 n=f6 v=60
43200 On ch=1 n=a6 v=60
43920 On ch=1 n=f6 v=0
43920 On ch=1 n=e6 v=60
44160 On ch=1 n=e6 v=0
44160 On ch=1 n=d6 v=60
44400 On ch=1 n=d6 v=0
44400 On ch=1 n=c#6 v=60
44640 On ch=1 n=c#6 v=0
44640 On ch=1 n=a6 v=0
44640 On ch=1 n=e6 v=60
44640 On ch=1 n=a6 v=60
44880 On ch=1 n=e6 v=0
44880 On ch=1 n=d6 v=60
44960 On ch=1 n=d6 v=0
44960 On ch=1 n=e6 v=60
45040 On ch=1 n=e6 v=0
45040 On ch=1 n=d6 v=60
45120 On ch=1 n=d6 v=0
45120 On ch=1 n=c#6 v=60
45360 On ch=1 n=c#6 v=0
45360 On ch=1 n=d6 v=60
45600 On ch=1 n=d6 v=0
45600 On ch=1 n=e6 v=60
45840 On ch=1 n=e6 v=0
45840 On ch=1 n=f6 v=60
46080 On ch=1 n=f6 v=0
46080 On ch=1 n=a6 v=0
46080 On ch=1 n=e6 v=60
46800 On ch=1 n=d6 v=60
47040 On ch=1 n=d6 v=0
47040 On ch=1 n=c6 v=60
47280 On ch=1 n=c6 v=0
47280 On ch=1 n=b5 v=60
47520 On ch=1 n=b5 v=0
47520 On ch=1 n=e6 v=0
47520 On ch=1 n=d6 v=60
47520 On ch=1 n=e6 v=60
48240 On ch=1 n=d6 v=0
48240 On ch=1 n=c6 v=60
48480 On ch=1 n=c6 v=0
48480 On ch=1 n=b5 v=60
48720 On ch=1 n=b5 v=0
48720 On ch=1 n=a5 v=60
48960 On ch=1 n=a5 v=0
48960 On ch=1 n=e6 v=0
48960 On ch=1 n=c6 v=60
48960 On ch=1 n=e6 v=60
49680 On ch=1 n=c6 v=0
49680 On ch=1 n=e5 v=60
49920 On ch=1 n=e5 v=0
49920 On ch=1 n=c6 v=60
50160 On ch=1 n=c6 v=0
50160 On ch=1 n=b5 v=60
50400 On ch=1 n=b5 v=0
50400 On ch=1 n=e6 v=0
50400 On ch=1 n=a5 v=60
50880 On ch=1 n=a5 v=0
51360 On ch=1 n=a5 v=60
51720 On ch=1 n=a5 v=60
51780 On ch=1 n=a5 v=0
51780 On ch=1 n=b5 v=60
51840 On ch=1 n=b5 v=0
51840 On ch=1 n=a5 v=0
51840 On ch=1 n=a5 v=60
52320 On ch=1 n=a5 v=0
52320 On ch=1 n=g5 v=60
52560 On ch=1 n=g5 v=0
52560 On ch=1 n=b5 v=60
52800 On ch=1 n=b5 v=0
52800 On ch=1 n=d6 v=60
53040 On ch=1 n=d6 v=0
53040 On ch=1 n=f6 v=60
53280 On ch=1 n=a6 v=60
53760 On ch=1 n=a6 v=0
53760 On ch=1 n=f6 v=0
53760 On ch=1 n=e6 v=60
53760 On ch=1 n=g6 v=60
54240 On ch=1 n=g6 v=0
54240 On ch=1 n=e6 v=0
54240 On ch=1 n=e6 v=60
54240 On ch=1 n=g6 v=60
54600 On ch=1 n=g5 v=60
54660 On ch=1 n=g5 v=0
54660 On ch=1 n=a5 v=60
54720 On ch=1 n=a5 v=0
54720 On ch=1 n=g6 v=0
54720 On ch=1 n=e6 v=0
54720 On ch=1 n=g5 v=60
55200 On ch=1 n=g5 v=0
55200 On ch=1 n=f#5 v=60
55440 On ch=1 n=f#5 v=0
55440 On ch=1 n=f5 v=60
55680 On ch=1 n=f5 v=0
55680 On ch=1 n=e6 v=60
55920 On ch=1 n=e6 v=0
55920 On ch=1 n=d6 v=60
56160 On ch=1 n=f5 v=60
56640 On ch=1 n=f5 v=0
56640 On ch=1 n=d6 v=0
56640 On ch=1 n=c6 v=60
56640 On ch=1 n=e5 v=60
57120 On ch=1 n=e5 v=0
57120 On ch=1 n=c6 v=0
57120 On ch=1 n=c6 v=60
57120 On ch=1 n=e5 v=60
57480 On ch=1 n=f5 v=60
57540 On ch=1 n=f5 v=0
57540 On ch=1 n=g5 v=60
57600 On ch=1 n=g5 v=0
57600 On ch=1 n=e5 v=0
57600 On ch=1 n=c6 v=0
57600 On ch=1 n=f5 v=60
58080 On ch=1 n=f5 v=0
58080 On ch=1 n=e5 v=60
58320 On ch=1 n=e5 v=0
58320 On ch=1 n=g#5 v=60
58560 On ch=1 n=g#5 v=0
58560 On ch=1 n=b5 v=60
58800 On ch=1 n=b5 v=0
58800 On ch=1 n=d6 v=60
59040 On ch=1 n=f6 v=60
59520 On ch=1 n=f6 v=0
59520 On ch=1 n=d6 v=0
59520 On ch=1 n=c6 v=60
59520 On ch=1 n=e6 v=60
60000 On ch=1 n=e6 v=0
60000 On ch=1 n=c6 v=0
60000 On ch=1 n=c6 v=60
60000 On ch=1 n=e6 v=60
60360 On ch=1 n=e5 v=60
60420 On ch=1 n=e5 v=0
60420 On ch=1 n=f5 v=60
60480 On ch=1 n=f5 v=0
60480 On ch=1 n=e6 v=0
60480 On ch=1 n=c6 v=0
60480 On ch=1 n=e5 v=60
60960 On ch=1 n=e5 v=0
60960 On ch=1 n=d#5 v=60
61200 On ch=1 n=d#5 v=0
61200 On ch=1 n=d5 v=60
61440 On ch=1 n=d5 v=0
61440 On ch=1 n=c6 v=60
61680 On ch=1 n=c6 v=0
61680 On ch=1 n=b5 v=60
61920 On ch=1 n=d5 v=60
62400 On ch=1 n=d5 v=0
62400 On ch=1 n=b5 v=0
62400 On ch=1 n=a5 v=60
62400 On ch=1 n=c5 v=60
62880 On ch=1 n=c5 v=0
62880 On ch=1 n=a5 v=0
62880 On ch=1 n=a5 v=60
62880 On ch=1 n=c5 v=60
63240 On ch=1 n=a5 v=60
63300 On ch=1 n=a5 v=0
63300 On ch=1 n=b5 v=60
63360 On ch=1 n=b5 v=0
63360 On ch=1 n=a5 v=0
63360 On ch=1 n=c5 v=0
63360 On ch=1 n=a5 v=60
63360 On ch=1 n=b4 v=60
63840 On ch=1 n=b4 v=0
63840 On ch=1 n=a5 v=0
63840 On ch=1 n=g5 v=60
64080 On ch=1 n=g5 v=0
64080 On ch=1 n=b5 v=60
64320 On ch=1 n=b5 v=0
64320 On ch=1 n=d6 v=60
64560 On ch=1 n=d6 v=0
64560 On ch=1 n=f6 v=60
64800 On ch=1 n=a6 v=60
65280 On ch=1 n=a6 v=0
65280 On ch=1 n=f6 v=0
65280 On ch=1 n=e6 v=60
65280 On ch=1 n=g6 v=60
65760 On ch=1 n=g6 v=0
65760 On ch=1 n=e6 v=0
65760 On ch=1 n=e6 v=60
65760 On ch=1 n=g6 v=60
66120 On ch=1 n=g5 v=60
66180 On ch=1 n=g5 v=0
66180 On ch=1 n=a5 v=60
66240 On ch=1 n=a5 v=0
66240 On ch=1 n=g6 v=0
66240 On ch=1 n=e6 v=0
66240 On ch=1 n=g5 v=60
66720 On ch=1 n=g5 v=0
66720 On ch=1 n=f#5 v=60
66960 On ch=1 n=f#5 v=0
66960 On ch=1 n=f5 v=60
67200 On ch=1 n=f5 v=0
67200 On ch=1 n=e6 v=60
67440 On ch=1 n=e6 v=0
67440 On ch=1 n=d6 v=60
67680 On ch=1 n=f5 v=60
68160 On ch=1 n=f5 v=0
68160 On ch=1 n=d6 v=0
68160 On ch=1 n=c6 v=60
68160 On ch=1 n=e5 v=60
68640 On ch=1 n=e5 v=0
68640 On ch=1 n=c6 v=0
68640 On ch=1 n=c6 v=60
68640 On ch=1 n=e5 v=60
69000 On ch=1 n=f5 v=60
69060 On ch=1 n=f5 v=0
69060 On ch=1 n=g5 v=60
69120 On ch=1 n=g5 v=0
69120 On ch=1 n=e5 v=0
69120 On ch=1 n=c6 v=0
69120 On ch=1 n=f5 v=60
69600 On ch=1 n=f5 v=0
69600 On ch=1 n=e5 v=60
69840 On ch=1 n=e5 v=0
69840 On ch=1 n=g#5 v=60
70080 On ch=1 n=g#5 v=0
70080 On ch=1 n=b5 v=60
70320 On ch=1 n=b5 v=0
70320 On ch=1 n=d6 v=60
70560 On ch=1 n=f6 v=60
71040 On ch=1 n=f6 v=0
71040 On ch=1 n=d6 v=0
71040 On ch=1 n=c6 v=60
71040 On ch=1 n=e6 v=60
71520 On ch=1 n=e6 v=0
71520 On ch=1 n=c6 v=0
71520 On ch=1 n=c6 v=60
71520 On ch=1 n=e6 v=60
71880 On ch=1 n=e5 v=60
71940 On ch=1 n=e5 v=0
71940 On ch=1 n=f5 v=60
72000 On ch=1 n=f5 v=0
72000 On ch=1 n=e6 v=0
72000 On ch=1 n=c6 v=0
72000 On ch=1 n=e5 v=60
72480 On ch=1 n=e5 v=0
72480 On ch=1 n=d#5 v=67
72720 On ch=1 n=d#5 v=0
72720 On ch=1 n=d5 v=70
72960 On ch=1 n=d5 v=0
72960 On ch=1 n=c6 v=74
73200 On ch=1 n=c6 v=0
73200 On ch=1 n=b5 v=77
73440 On ch=1 n=b5 v=0
73440 On ch=1 n=a5 v=81
73680 On ch=1 n=a5 v=0
73680 On ch=1 n=g#5 v=84
73920 On ch=1 n=g#5 v=0
73920 On ch=1 n=f6 v=88
74160 On ch=1 n=f6 v=0
74160 On ch=1 n=e6 v=91
74400 On ch=1 n=e6 v=0
74400 On ch=1 n=d#6 v=95
74640 On ch=1 n=d#6 v=0
74640 On ch=1 n=d6 v=98
74880 On ch=1 n=d6 v=0
74880 On ch=1 n=c#6 v=100
76320 On ch=1 n=c#6 v=0
76320 On ch=1 n=b5 v=100
77280 On ch=1 n=b5 v=0
77280 On ch=1 n=a5 v=100
77640 On ch=1 n=g#5 v=100
77700 On ch=1 n=g#5 v=0
77700 On ch=1 n=a5 v=100
77760 On ch=1 n=a5 v=0
77760 On ch=1 n=a5 v=0
77760 On ch=1 n=g#5 v=100
78240 On ch=1 n=g#5 v=0
78240 On ch=1 n=g5 v=100
78480 On ch=1 n=g5 v=0
78480 On ch=1 n=g#5 v=100
78720 On ch=1 n=g#5 v=0
78720 On ch=1 n=a5 v=100
78960 On ch=1 n=a5 v=0
78960 On ch=1 n=b5 v=100
79200 On ch=1 n=b5 v=0
79200 On ch=1 n=a5 v=100
80640 On ch=1 n=a5 v=0
80640 On ch=1 n=b5 v=100
82080 On ch=1 n=b5 v=0
82080 On ch=1 n=c#6 v=100
83040 On ch=1 n=c#6 v=0
83040 On ch=1 n=a5 v=100
83400 On ch=1 n=f#5 v=100
83460 On ch=1 n=f#5 v=0
83460 On ch=1 n=g#5 v=100
83520 On ch=1 n=g#5 v=0
83520 On ch=1 n=a5 v=0
83520 On ch=1 n=f#5 v=100
84000 On ch=1 n=f#5 v=0
84000 On ch=1 n=f5 v=100
84240 On ch=1 n=f5 v=0
84240 On ch=1 n=f#5 v=100
84480 On ch=1 n=f#5 v=0
84480 On ch=1 n=e6 v=100
84720 On ch=1 n=e6 v=0
84720 On ch=1 n=d6 v=100
84960 On ch=1 n=d6 v=0
84960 On ch=1 n=b5 v=100
85920 On ch=1 n=b5 v=0
85920 On ch=1 n=c6 v=100
86400 On ch=1 n=c6 v=0
86400 On ch=1 n=c#6 v=100
87840 On ch=1 n=c#6 v=0
87840 On ch=1 n=b5 v=100
88800 On ch=1 n=b5 v=0
88800 On ch=1 n=a5 v=100
89160 On ch=1 n=g#5 v=100
89220 On ch=1 n=g#5 v=0
89220 On ch=1 n=a5 v=100
89280 On ch=1 n=a5 v=0
89280 On ch=1 n=a5 v=0
89280 On ch=1 n=g#5 v=100
89760 On ch=1 n=g#5 v=0
89760 On ch=1 n=g5 v=100
90000 On ch=1 n=g5 v=0
90000 On ch=1 n=g#5 v=100
90240 On ch=1 n=g#5 v=0
90240 On ch=1 n=a5 v=100
90480 On ch=1 n=a5 v=0
90480 On ch=1 n=b5 v=100
90720 On ch=1 n=b5 v=0
90720 On ch=1 n=a5 v=100
92160 On ch=1 n=a5 v=0
92160 On ch=1 n=e5 v=100
92400 On ch=1 n=e5 v=0
92400 On ch=1 n=a5 v=100
92640 On ch=1 n=a5 v=0
92640 On ch=1 n=b5 v=100
92880 On ch=1 n=b5 v=0
92880 On ch=1 n=c#6 v=100
93120 On ch=1 n=c#6 v=0
93120 On ch=1 n=d6 v=100
93360 On ch=1 n=d6 v=0
93360 On ch=1 n=e6 v=100
93600 On ch=1 n=e6 v=0
93600 On ch=1 n=f#6 v=100
93840 On ch=1 n=f#6 v=0
93840 On ch=1 n=d7 v=100
94080 On ch=1 n=d7 v=0
94080 On ch=1 n=c#7 v=100
94320 On ch=1 n=c#7 v=0
94320 On ch=1 n=e6 v=100
94560 On ch=1 n=e6 v=0
94560 On ch=1 n=c#6 v=100
94800 On ch=1 n=c#6 v=0
94800 On ch=1 n=a6 v=100
95040 On ch=1 n=a6 v=0
95040 On ch=1 n=f#6 v=100
95280 On ch=1 n=f#6 v=0
95280 On ch=1 n=a5 v=97
95520 On ch=1 n=a5 v=0
95520 On ch=1 n=f#5 v=93
95760 On ch=1 n=d6 v=90
96000 On ch=1 n=d6 v=0
96000 On ch=1 n=c#6 v=86
96240 On ch=1 n=c#6 v=0
96240 On ch=1 n=f#5 v=0
96240 On ch=1 n=e5 v=83
96480 On ch=1 n=e5 v=0
96480 On ch=1 n=c#5 v=79
96480 On ch=1 n=a5 v=79
97440 On ch=1 n=a5 v=0
97440 On ch=1 n=c#5 v=0
97440 On ch=1 n=c5 v=65
97920 On ch=1 n=c5 v=0
97920 On ch=1 n=c6 v=60
99360 On ch=1 n=c6 v=0
99360 On ch=1 n=a#5 v=60
100320 On ch=1 n=a#5 v=0
100320 On ch=1 n=a5 v=60
100680 On ch=1 n=g#5 v=60
100740 On ch=1 n=g#5 v=0
100740 On ch=1 n=a5 v=60
100800 On ch=1 n=a5 v=0
100800 On ch=1 n=a5 v=0
100800 On ch=1 n=g#5 v=60
101280 On ch=1 n=g#5 v=0
101280 On ch=1 n=g5 v=60
101520 On ch=1 n=g5 v=0
101520 On ch=1 n=g#5 v=60
101760 On ch=1 n=g#5 v=0
101760 On ch=1 n=a5 v=60
102000 On ch=1 n=a5 v=0
102000 On ch=1 n=b5 v=60
102240 On ch=1 n=b5 v=0
102240 On ch=1 n=a5 v=60
103680 On ch=1 n=a5 v=0
103680 On ch=1 n=b5 v=60
105120 On ch=1 n=b5 v=0
105120 On ch=1 n=c6 v=60
106080 On ch=1 n=c6 v=0
106080 On ch=1 n=a5 v=60
106440 On ch=1 n=f5 v=60
106500 On ch=1 n=f5 v=0
106500 On ch=1 n=g5 v=60
106560 On ch=1 n=g5 v=0
106560 On ch=1 n=a5 v=0
106560 On ch=1 n=f5 v=60
107040 On ch=1 n=f5 v=0
107040 On ch=1 n=e5 v=60
107280 On ch=1 n=e5 v=0
107280 On ch=1 n=f5 v=60
107520 On ch=1 n=f5 v=0
107520 On ch=1 n=e6 v=60
107760 On ch=1 n=e6 v=0
107760 On ch=1 n=d6 v=60
108000 On ch=1 n=d6 v=0
108000 On ch=1 n=b5 v=60
109440 On ch=1 n=b5 v=0
109440 On ch=1 n=c6 v=60
110880 On ch=1 n=c6 v=0
110880 On ch=1 n=a#5 v=60
111840 On ch=1 n=a#5 v=0
111840 On ch=1 n=a5 v=60
112200 On ch=1 n=g#5 v=60
112260 On ch=1 n=g#5 v=0
112260 On ch=1 n=a5 v=60
112320 On ch=1 n=a5 v=0
112320 On ch=1 n=a5 v=0
112320 On ch=1 n=g#5 v=60
112800 On ch=1 n=g#5 v=0
112800 On ch=1 n=g5 v=60
113040 On ch=1 n=g5 v=0
113040 On ch=1 n=g#5 v=60
113280 On ch=1 n=g#5 v=0
113280 On ch=1 n=a5 v=60
113520 On ch=1 n=a5 v=0
113520 On ch=1 n=b5 v=60
113760 On ch=1 n=b5 v=0
113760 On ch=1 n=a5 v=60
115200 On ch=1 n=a5 v=0
115200 On ch=1 n=e5 v=40
115440 On ch=1 n=e5 v=0
115440 On ch=1 n=a5 v=40
115680 On ch=1 n=a5 v=0
115680 On ch=1 n=b5 v=40
115920 On ch=1 n=b5 v=0
115920 On ch=1 n=c6 v=40
116160 On ch=1 n=c6 v=0
116160 On ch=1 n=d6 v=40
116400 On ch=1 n=d6 v=0
116400 On ch=1 n=e6 v=40
116640 On ch=1 n=e6 v=0
116640 On ch=1 n=f6 v=40
116880 On ch=1 n=f6 v=0
116880 On ch=1 n=d7 v=40
117120 On ch=1 n=d7 v=0
117120 On ch=1 n=c7 v=40
117360 On ch=1 n=c7 v=0
117360 On ch=1 n=e6 v=40
117600 On ch=1 n=e6 v=0
117600 On ch=1 n=c6 v=40
117840 On ch=1 n=c6 v=0
117840 On ch=1 n=a6 v=40
118080 On ch=1 n=a6 v=0
118080 On ch=1 n=g6 v=40
118320 On ch=1 n=g6 v=0
118320 On ch=1 n=a5 v=40
118560 On ch=1 n=a5 v=0
118560 On ch=1 n=f5 v=40
118800 On ch=1 n=d6 v=40
119040 On ch=1 n=d6 v=0
119040 On ch=1 n=c6 v=40
119280 On ch=1 n=c6 v=0
119280 On ch=1 n=f5 v=0
119280 On ch=1 n=e5 v=40
119520 On ch=1 n=e5 v=0
119520 On ch=1 n=a5 v=40
119520 On ch=1 n=c5 v=40
120000 On ch=1 n=c5 v=0
120000 On ch=1 n=a5 v=0
120480 On ch=1 n=e5 v=40
120960 On ch=1 n=e5 v=0
120960 On ch=1 n=e6 v=40
121440 On ch=1 n=e6 v=0
121440 On ch=1 n=a5 v=40
122160 On ch=1 n=a5 v=0
122160 On ch=1 n=b5 v=40
122400 On ch=1 n=b5 v=0
122880 On ch=1 n=a5 v=40
123360 On ch=1 n=a5 v=0
123360 On ch=1 n=g#5 v=40
123840 On ch=1 n=g#5 v=0
123840 On ch=1 n=f6 v=40
124320 On ch=1 n=f6 v=0
124320 On ch=1 n=b5 v=40
125040 On ch=1 n=b5 v=0
125040 On ch=1 n=c6 v=40
125280 On ch=1 n=c6 v=0
125760 On ch=1 n=b5 v=40
126240 On ch=1 n=b5 v=0
126240 On ch=1 n=a5 v=40
126720 On ch=1 n=a5 v=0
126720 On ch=1 n=a6 v=40
127440 On ch=1 n=a6 v=0
127440 On ch=1 n=g6 v=40
127680 On ch=1 n=g6 v=0
127680 On ch=1 n=g6 v=40
127840 On ch=1 n=g6 v=0
127840 On ch=1 n=f6 v=40
128000 On ch=1 n=f6 v=0
128000 On ch=1 n=e6 v=40
128160 On ch=1 n=e6 v=0
128160 On ch=1 n=g6 v=40
128400 On ch=1 n=g6 v=0
128400 On ch=1 n=f6 v=40
128640 On ch=1 n=f6 v=0
128640 On ch=1 n=a5 v=40
128880 On ch=1 n=a5 v=0
128880 On ch=1 n=b5 v=40
129120 On ch=1 n=b5 v=0
129120 On ch=1 n=c6 v=40
129360 On ch=1 n=c6 v=0
129360 On ch=1 n=d6 v=40
129600 On ch=1 n=d6 v=0
129600 On ch=1 n=e6 v=40
129840 On ch=1 n=e6 v=0
129840 On ch=1 n=d6 v=40
130080 On ch=1 n=d6 v=0
130080 On ch=1 n=d5 v=40
130320 On ch=1 n=d5 v=0
130320 On ch=1 n=a5 v=40
130560 On ch=1 n=a5 v=0
130560 On ch=1 n=c6 v=40
130800 On ch=1 n=c6 v=0
130800 On ch=1 n=b5 v=40
130920 On ch=1 n=a5 v=40
130980 On ch=1 n=a5 v=0
130980 On ch=1 n=b5 v=40
131040 On ch=1 n=b5 v=0
131040 On ch=1 n=b5 v=0
131040 On ch=1 n=a5 v=40
131280 On ch=1 n=a5 v=0
131280 On ch=1 n=g#5 v=40
131520 On ch=1 n=g#5 v=0
131520 On ch=1 n=b5 v=40
131652 On ch=1 n=c6 v=40
131656 On ch=1 n=b5 v=0
131788 On ch=1 n=c6 v=0
131788 On ch=1 n=d6 v=40
131924 On ch=1 n=d6 v=0
131928 On ch=1 n=d#6 v=40
132060 On ch=1 n=e6 v=40
132064 On ch=1 n=d#6 v=0
132196 On ch=1 n=e6 v=0
132208 On ch=1 n=g6 v=40
132344 On ch=1 n=g6 v=0
132344 On ch=1 n=f6 v=40
132480 On ch=1 n=f6 v=0
132480 On ch=1 n=d#6 v=40
132676 On ch=1 n=e6 v=40
132688 On ch=1 n=d#6 v=0
132884 On ch=1 n=e6 v=0
132884 On ch=1 n=d#5 v=40
133088 On ch=1 n=e5 v=40
133092 On ch=1 n=d#5 v=0
133296 On ch=1 n=e5 v=0
133300 On ch=1 n=c6 v=40
133504 On ch=1 n=b5 v=40
133508 On ch=1 n=c6 v=0
133712 On ch=1 n=b5 v=0
133712 On ch=1 n=a5 v=40
133860 On ch=1 n=b5 v=40
133920 On ch=1 n=b5 v=0
133920 On ch=1 n=a5 v=0
133920 On ch=1 n=a5 v=40
134400 On ch=1 n=a5 v=0
134400 On ch=1 n=g#5 v=40
134880 On ch=1 n=g#5 v=0
134880 On ch=1 n=g#5 v=40
135360 On ch=1 n=g#5 v=0
135360 On ch=1 n=f5 v=40
135600 On ch=1 n=f5 v=0
135600 On ch=1 n=f6 v=40
135840 On ch=1 n=f6 v=0
135840 On ch=1 n=a#5 v=40
136000 On ch=1 n=a#5 v=0
136000 On ch=1 n=b5 v=40
136160 On ch=1 n=b5 v=0
136160 On ch=1 n=c6 v=40
136320 On ch=1 n=c6 v=0
136320 On ch=1 n=b5 v=40
136480 On ch=1 n=b5 v=0
136480 On ch=1 n=d6 v=40
136640 On ch=1 n=d6 v=0
136640 On ch=1 n=c6 v=40
136800 On ch=1 n=c6 v=0
136800 On ch=1 n=b5 v=40
137280 On ch=1 n=b5 v=0
137280 On ch=1 n=a5 v=40
137760 On ch=1 n=a5 v=0
137760 On ch=1 n=a5 v=40
138240 On ch=1 n=a5 v=0
138240 On ch=1 n=a6 v=40
138960 On ch=1 n=g6 v=40
139200 On ch=1 n=g6 v=0
139200 On ch=1 n=f6 v=40
139440 On ch=1 n=f6 v=0
139440 On ch=1 n=e6 v=40
139680 On ch=1 n=e6 v=0
139680 On ch=1 n=a6 v=0
139680 On ch=1 n=g6 v=40
139680 On ch=1 n=a6 v=40
140400 On ch=1 n=g6 v=0
140400 On ch=1 n=f6 v=40
140640 On ch=1 n=f6 v=0
140640 On ch=1 n=e6 v=40
140880 On ch=1 n=e6 v=0
140880 On ch=1 n=d6 v=40
141120 On ch=1 n=d6 v=0
141120 On ch=1 n=a6 v=0
141120 On ch=1 n=f6 v=40
141120 On ch=1 n=a6 v=40
141840 On ch=1 n=f6 v=0
141840 On ch=1 n=e6 v=40
142080 On ch=1 n=e6 v=0
142080 On ch=1 n=d6 v=40
142320 On ch=1 n=d6 v=0
142320 On ch=1 n=c#6 v=40
142560 On ch=1 n=c#6 v=0
142560 On ch=1 n=a6 v=0
142560 On ch=1 n=e6 v=40
142560 On ch=1 n=a6 v=40
142800 On ch=1 n=e6 v=0
142800 On ch=1 n=d6 v=40
142880 On ch=1 n=d6 v=0
142880 On ch=1 n=e6 v=40
142960 On ch=1 n=e6 v=0
142960 On ch=1 n=d6 v=40
143040 On ch=1 n=d6 v=0
143040 On ch=1 n=c#6 v=40
143280 On ch=1 n=c#6 v=0
143280 On ch=1 n=d6 v=40
143520 On ch=1 n=d6 v=0
143520 On ch=1 n=e6 v=40
143760 On ch=1 n=e6 v=0
143760 On ch=1 n=f6 v=40
144000 On ch=1 n=f6 v=0
144000 On ch=1 n=a6 v=0
144000 On ch=1 n=e6 v=40
144720 On ch=1 n=d6 v=40
144960 On ch=1 n=d6 v=0
144960 On ch=1 n=c6 v=40
145200 On ch=1 n=c6 v=0
145200 On ch=1 n=b5 v=40
145440 On ch=1 n=b5 v=0
145440 On ch=1 n=e6 v=0
145440 On ch=1 n=d6 v=40
145440 On ch=1 n=e6 v=40
146160 On ch=1 n=d6 v=0
146160 On ch=1 n=c6 v=40
146400 On ch=1 n=c6 v=0
146400 On ch=1 n=b5 v=40
146640 On ch=1 n=b5 v=0
146640 On ch=1 n=a5 v=40
146880 On ch=1 n=a5 v=0
146880 On ch=1 n=e6 v=0
146880 On ch=1 n=c6 v=40
146880 On ch=1 n=e6 v=40
147600 On ch=1 n=c6 v=0
147600 On ch=1 n=e5 v=40
147840 On ch=1 n=e5 v=0
147840 On ch=1 n=c6 v=40
148080 On ch=1 n=c6 v=0
148080 On ch=1 n=b5 v=40
148320 On ch=1 n=b5 v=0
148320 On ch=1 n=e6 v=0
148320 On ch=1 n=a5 v=40
148800 On ch=1 n=a5 v=0
149280 On ch=1 n=a5 v=40
149640 On ch=1 n=a5 v=40
149700 On ch=1 n=a5 v=0
149700 On ch=1 n=b5 v=40
149760 On ch=1 n=b5 v=0
149760 On ch=1 n=a5 v=0
149760 On ch=1 n=a5 v=40
150240 On ch=1 n=a5 v=0
150240 On ch=1 n=g5 v=40
150480 On ch=1 n=g5 v=0
150480 On ch=1 n=b5 v=40
150720 On ch=1 n=b5 v=0
150720 On ch=1 n=d6 v=40
150960 On ch=1 n=d6 v=0
150960 On ch=1 n=f6 v=40
151200 On ch=1 n=a6 v=40
151680 On ch=1 n=a6 v=0
151680 On ch=1 n=f6 v=0
151680 On ch=1 n=e6 v=40
151680 On ch=1 n=g6 v=40
152160 On ch=1 n=g6 v=0
152160 On ch=1 n=e6 v=0
152160 On ch=1 n=e6 v=40
152160 On ch=1 n=g6 v=40
152520 On ch=1 n=g5 v=40
152580 On ch=1 n=g5 v=0
152580 On ch=1 n=a5 v=40
152640 On ch=1 n=a5 v=0
152640 On ch=1 n=g6 v=0
152640 On ch=1 n=e6 v=0
152640 On ch=1 n=g5 v=40
153120 On ch=1 n=g5 v=0
153120 On ch=1 n=f#5 v=40
153360 On ch=1 n=f#5 v=0
153360 On ch=1 n=f5 v=40
153600 On ch=1 n=f5 v=0
153600 On ch=1 n=e6 v=40
153840 On ch=1 n=e6 v=0
153840 On ch=1 n=d6 v=40
154080 On ch=1 n=f5 v=40
154560 On ch=1 n=f5 v=0
154560 On ch=1 n=d6 v=0
154560 On ch=1 n=c6 v=40
154560 On ch=1 n=e5 v=40
155040 On ch=1 n=e5 v=0
155040 On ch=1 n=c6 v=0
155040 On ch=1 n=c6 v=40
155040 On ch=1 n=e5 v=40
155400 On ch=1 n=f5 v=40
155460 On ch=1 n=f5 v=0
155460 On ch=1 n=g5 v=40
155520 On ch=1 n=g5 v=0
155520 On ch=1 n=e5 v=0
155520 On ch=1 n=c6 v=0
155520 On ch=1 n=f5 v=40
156000 On ch=1 n=f5 v=0
156000 On ch=1 n=e5 v=40
156240 On ch=1 n=e5 v=0
156240 On ch=1 n=g#5 v=40
156480 On ch=1 n=g#5 v=0
156480 On ch=1 n=b5 v=40
156720 On ch=1 n=b5 v=0
156720 On ch=1 n=d6 v=40
156960 On ch=1 n=f6 v=40
157440 On ch=1 n=f6 v=0
157440 On ch=1 n=d6 v=0
157440 On ch=1 n=c6 v=40
157440 On ch=1 n=e6 v=40
157920 On ch=1 n=e6 v=0
157920 On ch=1 n=c6 v=0
157920 On ch=1 n=c6 v=40
157920 On ch=1 n=e6 v=40
158280 On ch=1 n=e5 v=40
158340 On ch=1 n=e5 v=0
158340 On ch=1 n=f5 v=40
158400 On ch=1 n=f5 v=0
158400 On ch=1 n=e6 v=0
158400 On ch=1 n=c6 v=0
158400 On ch=1 n=e5 v=40
158880 On ch=1 n=e5 v=0
158880 On ch=1 n=d#5 v=40
159120 On ch=1 n=d#5 v=0
159120 On ch=1 n=d5 v=40
159360 On ch=1 n=d5 v=0
159360 On ch=1 n=c6 v=40
159600 On ch=1 n=c6 v=0
159600 On ch=1 n=b5 v=40
159840 On ch=1 n=d5 v=40
160320 On ch=1 n=d5 v=0
160320 On ch=1 n=b5 v=0
160320 On ch=1 n=a5 v=40
160320 On ch=1 n=c5 v=40
160800 On ch=1 n=c5 v=0
160800 On ch=1 n=a5 v=0
160800 On ch=1 n=a5 v=40
160800 On ch=1 n=c5 v=40
161160 On ch=1 n=a5 v=40
161220 On ch=1 n=a5 v=0
161220 On ch=1 n=b5 v=40
161280 On ch=1 n=b5 v=0
161280 On ch=1 n=a5 v=0
161280 On ch=1 n=c5 v=0
161280 On ch=1 n=a5 v=40
161280 On ch=1 n=b4 v=40
161760 On ch=1 n=b4 v=0
161760 On ch=1 n=a5 v=0
161760 On ch=1 n=g5 v=40
162000 On ch=1 n=g5 v=0
162000 On ch=1 n=b5 v=40
162240 On ch=1 n=b5 v=0
162240 On ch=1 n=d6 v=40
162480 On ch=1 n=d6 v=0
162480 On ch=1 n=f6 v=40
162720 On ch=1 n=a6 v=40
163200 On ch=1 n=a6 v=0
163200 On ch=1 n=f6 v=0
163200 On ch=1 n=e6 v=40
163200 On ch=1 n=g6 v=40
163680 On ch=1 n=g6 v=0
163680 On ch=1 n=e6 v=0
163680 On ch=1 n=e6 v=40
163680 On ch=1 n=g6 v=40
164040 On ch=1 n=g5 v=40
164100 On ch=1 n=g5 v=0
164100 On ch=1 n=a5 v=40
164160 On ch=1 n=a5 v=0
164160 On ch=1 n=g6 v=0
164160 On ch=1 n=e6 v=0
164160 On ch=1 n=g5 v=40
164640 On ch=1 n=g5 v=0
164640 On ch=1 n=f#5 v=40
164880 On ch=1 n=f#5 v=0
164880 On ch=1 n=f5 v=40
165120 On ch=1 n=f5 v=0
165120 On ch=1 n=e6 v=40
165360 On ch=1 n=e6 v=0
165360 On ch=1 n=d6 v=40
165600 On ch=1 n=f5 v=40
166080 On ch=1 n=f5 v=0
166080 On ch=1 n=d6 v=0
166080 On ch=1 n=c6 v=40
166080 On ch=1 n=e5 v=40
166560 On ch=1 n=e5 v=0
166560 On ch=1 n=c6 v=0
166560 On ch=1 n=c6 v=40
166560 On ch=1 n=e5 v=40
166920 On ch=1 n=f5 v=40
166980 On ch=1 n=f5 v=0
166980 On ch=1 n=g5 v=40
167040 On ch=1 n=g5 v=0
167040 On ch=1 n=e5 v=0
167040 On ch=1 n=c6 v=0
167040 On ch=1 n=f5 v=40
167520 On ch=1 n=f5 v=0
167520 On ch=1 n=e5 v=40
167760 On ch=1 n=e5 v=0
167760 On ch=1 n=g#5 v=40
168000 On ch=1 n=g#5 v=0
168000 On ch=1 n=b5 v=40
168240 On ch=1 n=b5 v=0
168240 On ch=1 n=d6 v=40
168480 On ch=1 n=f6 v=40
168960 On ch=1 n=f6 v=0
168960 On ch=1 n=d6 v=0
168960 On ch=1 n=c6 v=40
168960 On ch=1 n=e6 v=40
169440 On ch=1 n=e6 v=0
169440 On ch=1 n=c6 v=0
169440 On ch=1 n=c6 v=40
169440 On ch=1 n=e6 v=40
169800 On ch=1 n=e5 v=40
169860 On ch=1 n=e5 v=0
169860 On ch=1 n=f5 v=40
169920 On ch=1 n=f5 v=0
169920 On ch=1 n=e6 v=0
169920 On ch=1 n=c6 v=0
169920 On ch=1 n=e5 v=40
170400 On ch=1 n=e5 v=0
170400 On ch=1 n=d#5 v=50
170640 On ch=1 n=d#5 v=0
170640 On ch=1 n=d5 v=56
170880 On ch=1 n=d5 v=0
170880 On ch=1 n=c6 v=61
171120 On ch=1 n=c6 v=0
171120 On ch=1 n=b5 v=67
171360 On ch=1 n=b5 v=0
171360 On ch=1 n=a5 v=72
171600 On ch=1 n=a5 v=0
171600 On ch=1 n=g#5 v=78
171840 On ch=1 n=g#5 v=0
171840 On ch=1 n=f6 v=83
172080 On ch=1 n=f6 v=0
172080 On ch=1 n=e6 v=89
172320 On ch=1 n=e6 v=0
172320 On ch=1 n=d#6 v=94
172560 On ch=1 n=d#6 v=0
172560 On ch=1 n=d6 v=99
172800 On ch=1 n=d6 v=0
172800 On ch=1 n=c#6 v=100
174240 On ch=1 n=c#6 v=0
174240 On ch=1 n=b5 v=100
175200 On ch=1 n=b5 v=0
175200 On ch=1 n=a5 v=100
175560 On ch=1 n=g#5 v=100
175620 On ch=1 n=g#5 v=0
175620 On ch=1 n=a5 v=100
175680 On ch=1 n=a5 v=0
175680 On ch=1 n=a5 v=0
175680 On ch=1 n=g#5 v=100
176160 On ch=1 n=g#5 v=0
176160 On ch=1 n=g5 v=100
176400 On ch=1 n=g5 v=0
176400 On ch=1 n=g#5 v=100
176640 On ch=1 n=g#5 v=0
176640 On ch=1 n=a5 v=100
176880 On ch=1 n=a5 v=0
176880 On ch=1 n=b5 v=100
177120 On ch=1 n=b5 v=0
177120 On ch=1 n=a5 v=100
178560 On ch=1 n=a5 v=0
178560 On ch=1 n=b5 v=100
180000 On ch=1 n=b5 v=0
180000 On ch=1 n=c#6 v=100
180960 On ch=1 n=c#6 v=0
180960 On ch=1 n=a5 v=100
181320 On ch=1 n=f#5 v=100
181380 On ch=1 n=f#5 v=0
181380 On ch=1 n=g#5 v=100
181440 On ch=1 n=g#5 v=0
181440 On ch=1 n=a5 v=0
181440 On ch=1 n=f#5 v=100
181920 On ch=1 n=f#5 v=0
181920 On ch=1 n=f5 v=100
182160 On ch=1 n=f5 v=0
182160 On ch=1 n=f#5 v=100
182400 On ch=1 n=f#5 v=0
182400 On ch=1 n=e6 v=100
182640 On ch=1 n=e6 v=0
182640 On ch=1 n=d6 v=100
182880 On ch=1 n=d6 v=0
182880 On ch=1 n=b5 v=100
183840 On ch=1 n=b5 v=0
183840 On ch=1 n=c6 v=100
184320 On ch=1 n=c6 v=0
184320 On ch=1 n=c#6 v=100
185760 On ch=1 n=c#6 v=0
185760 On ch=1 n=b5 v=100
186720 On ch=1 n=b5 v=0
186720 On ch=1 n=a5 v=100
187080 On ch=1 n=g#5 v=100
187140 On ch=1 n=g#5 v=0
187140 On ch=1 n=a5 v=100
187200 On ch=1 n=a5 v=0
187200 On ch=1 n=a5 v=0
187200 On ch=1 n=g#5 v=100
187680 On ch=1 n=g#5 v=0
187680 On ch=1 n=g5 v=100
187920 On ch=1 n=g5 v=0
187920 On ch=1 n=g#5 v=100
188160 On ch=1 n=g#5 v=0
188160 On ch=1 n=a5 v=100
188400 On ch=1 n=a5 v=0
188400 On ch=1 n=b5 v=100
188640 On ch=1 n=b5 v=0
188640 On ch=1 n=a5 v=100
190080 On ch=1 n=a5 v=0
190080 On ch=1 n=e5 v=100
190320 On ch=1 n=e5 v=0
190320 On ch=1 n=a5 v=100
190560 On ch=1 n=a5 v=0
190560 On ch=1 n=b5 v=100
190800 On ch=1 n=b5 v=0
190800 On ch=1 n=c#6 v=100
191040 On ch=1 n=c#6 v=0
191040 On ch=1 n=d6 v=100
191280 On ch=1 n=d6 v=0
191280 On ch=1 n=e6 v=100
191520 On ch=1 n=e6 v=0
191520 On ch=1 n=f#6 v=100
191760 On ch=1 n=f#6 v=0
191760 On ch=1 n=d7 v=100
192000 On ch=1 n=d7 v=0
192000 On ch=1 n=c#7 v=100
192240 On ch=1 n=c#7 v=0
192240 On ch=1 n=e6 v=100
192480 On ch=1 n=e6 v=0
192480 On ch=1 n=c#6 v=100
192720 On ch=1 n=c#6 v=0
192720 On ch=1 n=a6 v=100
192960 On ch=1 n=a6 v=0
192960 On ch=1 n=f#6 v=100
193200 On ch=1 n=f#6 v=0
193200 On ch=1 n=a5 v=97
193440 On ch=1 n=a5 v=0
193440 On ch=1 n=f#5 v=93
193680 On ch=1 n=d6 v=90
193920 On ch=1 n=d6 v=0
193920 On ch=1 n=c#6 v=86
194160 On ch=1 n=c#6 v=0
194160 On ch=1 n=f#5 v=0
194160 On ch=1 n=e5 v=83
194400 On ch=1 n=e5 v=0
194400 On ch=1 n=c#5 v=79
194400 On ch=1 n=a5 v=79
195360 On ch=1 n=a5 v=0
195360 On ch=1 n=c#5 v=0
195360 On ch=1 n=c5 v=65
195840 On ch=1 n=c5 v=0
195840 On ch=1 n=c6 v=60
197280 On ch=1 n=c6 v=0
197280 On ch=1 n=a#5 v=60
198240 On ch=1 n=a#5 v=0
198240 On ch=1 n=a5 v=60
198600 On ch=1 n=g#5 v=60
198660 On ch=1 n=g#5 v=0
198660 On ch=1 n=a5 v=60
198720 On ch=1 n=a5 v=0
198720 On ch=1 n=a5 v=0
198720 On ch=1 n=g#5 v=60
199200 On ch=1 n=g#5 v=0
199200 On ch=1 n=g5 v=60
199440 On ch=1 n=g5 v=0
199440 On ch=1 n=g#5 v=60
199680 On ch=1 n=g#5 v=0
199680 On ch=1 n=a5 v=60
199920 On ch=1 n=a5 v=0
199920 On ch=1 n=b5 v=60
200160 On ch=1 n=b5 v=0
200160 On ch=1 n=a5 v=60
201600 On ch=1 n=a5 v=0
201600 On ch=1 n=b5 v=60
203040 On ch=1 n=b5 v=0
203040 On ch=1 n=c6 v=60
204000 On ch=1 n=c6 v=0
204000 On ch=1 n=a5 v=60
204360 On ch=1 n=f5 v=60
204420 On ch=1 n=f5 v=0
204420 On ch=1 n=g5 v=60
204480 On ch=1 n=g5 v=0
204480 On ch=1 n=a5 v=0
204480 On ch=1 n=f5 v=60
204960 On ch=1 n=f5 v=0
204960 On ch=1 n=e5 v=60
205200 On ch=1 n=e5 v=0
205200 On ch=1 n=f5 v=60
205440 On ch=1 n=f5 v=0
205440 On ch=1 n=e6 v=60
205680 On ch=1 n=e6 v=0
205680 On ch=1 n=d6 v=60
205920 On ch=1 n=d6 v=0
205920 On ch=1 n=b5 v=60
207360 On ch=1 n=b5 v=0
207360 On ch=1 n=c6 v=60
208800 On ch=1 n=c6 v=0
208800 On ch=1 n=a#5 v=60
209760 On ch=1 n=a#5 v=0
209760 On ch=1 n=a5 v=60
210120 On ch=1 n=g#5 v=60
210180 On ch=1 n=g#5 v=0
210180 On ch=1 n=a5 v=60
210240 On ch=1 n=a5 v=0
210240 On ch=1 n=a5 v=0
210240 On ch=1 n=g#5 v=60
210720 On ch=1 n=g#5 v=0
210720 On ch=1 n=g5 v=60
210960 On ch=1 n=g5 v=0
210960 On ch=1 n=g#5 v=60
211200 On ch=1 n=g#5 v=0
211200 On ch=1 n=a5 v=60
211440 On ch=1 n=a5 v=0
211440 On ch=1 n=b5 v=60
211680 On ch=1 n=b5 v=0
211680 On ch=1 n=a5 v=60
213120 On ch=1 n=a5 v=0
213120 On ch=1 n=e5 v=40
213360 On ch=1 n=e5 v=0
213360 On ch=1 n=a5 v=40
213600 On ch=1 n=a5 v=0
213600 On ch=1 n=b5 v=40
213840 On ch=1 n=b5 v=0
213840 On ch=1 n=c6 v=40
214080 On ch=1 n=c6 v=0
214080 On ch=1 n=d6 v=40
214320 On ch=1 n=d6 v=0
214320 On ch=1 n=e6 v=40
214560 On ch=1 n=e6 v=0
214560 On ch=1 n=f6 v=40
214800 On ch=1 n=f6 v=0
214800 On ch=1 n=d7 v=40
215040 On ch=1 n=d7 v=0
215040 On ch=1 n=c7 v=40
215280 On ch=1 n=c7 v=0
215280 On ch=1 n=e6 v=40
215520 On ch=1 n=e6 v=0
215520 On ch=1 n=c6 v=40
215760 On ch=1 n=c6 v=0
215760 On ch=1 n=a6 v=40
216000 On ch=1 n=a6 v=0
216000 On ch=1 n=g6 v=40
216240 On ch=1 n=g6 v=0
216240 On ch=1 n=a5 v=40
216480 On ch=1 n=a5 v=0
216480 On ch=1 n=f5 v=40
216720 On ch=1 n=d6 v=40
216960 On ch=1 n=d6 v=0
216960 On ch=1 n=c6 v=40
217200 On ch=1 n=c6 v=0
217200 On ch=1 n=f5 v=0
217200 On ch=1 n=e5 v=40
217440 On ch=1 n=e5 v=0
217440 On ch=1 n=a5 v=40
217440 On ch=1 n=c5 v=40
217920 On ch=1 n=c5 v=0
217920 On ch=1 n=a5 v=0
218400 On ch=1 n=c5 v=40
218400 On ch=1 n=e5 v=40
219360 On ch=1 n=e5 v=0
219360 On ch=1 n=c5 v=0
219360 On ch=1 n=e5 v=60
219360 On ch=1 n=c5 v=60
219840 On ch=1 n=c5 v=0
219840 On ch=1 n=e5 v=0
219840 On ch=1 n=a5 v=60
219840 On ch=1 n=c5 v=60
220320 On ch=1 n=c5 v=0
220320 On ch=1 n=a5 v=0
220800 On ch=1 n=b4 v=60
220800 On ch=1 n=d5 v=60
221280 On ch=1 n=d5 v=0
221280 On ch=1 n=b4 v=0
221280 On ch=1 n=a5 v=60
221280 On ch=1 n=b4 v=60
221760 On ch=1 n=b4 v=0
221760 On ch=1 n=a5 v=0
222240 On ch=1 n=c5 v=60
222240 On ch=1 n=e5 v=60
222720 On ch=1 n=e5 v=0
222720 On ch=1 n=c5 v=0
222720 On ch=1 n=a5 v=60
222720 On ch=1 n=c5 v=60
223200 On ch=1 n=c5 v=0
223200 On ch=1 n=a5 v=0
223680 On ch=1 n=b4 v=60
223680 On ch=1 n=d5 v=60
224160 On ch=1 n=d5 v=0
224160 On ch=1 n=b4 v=0
224160 On ch=1 n=a5 v=60
224160 On ch=1 n=b4 v=60
224640 On ch=1 n=b4 v=0
224640 On ch=1 n=a5 v=0
225120 On ch=1 n=c5 v=60
225120 On ch=1 n=e5 v=60
225600 On ch=1 n=e5 v=0
225600 On ch=1 n=c5 v=0
225600 On ch=1 n=a5 v=60
225600 On ch=1 n=c5 v=60
226080 On ch=1 n=c5 v=0
226080 On ch=1 n=a5 v=0
226560 On ch=1 n=d#5 v=60
226560 On ch=1 n=f#5 v=60
227040 On ch=1 n=f#5 v=0
227040 On ch=1 n=d#5 v=0
227040 On ch=1 n=a5 v=60
227040 On ch=1 n=d#5 v=60
227520 On ch=1 n=d#5 v=0
227520 On ch=1 n=a5 v=0
228000 On ch=1 n=d5 v=60
228000 On ch=1 n=e5 v=60
228480 On ch=1 n=e5 v=0
228480 On ch=1 n=d5 v=0
228480 On ch=1 n=g#5 v=60
228480 On ch=1 n=d5 v=60
228960 On ch=1 n=d5 v=0
228960 On ch=1 n=g#5 v=0
229440 On ch=1 n=c6 v=60
229440 On ch=1 n=g#5 v=60
229440 On ch=1 n=d5 v=60
229920 On ch=1 n=d5 v=0
229920 On ch=1 n=g#5 v=0
229920 On ch=1 n=c6 v=0
229920 On ch=1 n=b5 v=60
229920 On ch=1 n=g#5 v=60
229920 On ch=1 n=d5 v=60
230400 On ch=1 n=d5 v=0
230400 On ch=1 n=g#5 v=0
230400 On ch=1 n=b5 v=0
230880 On ch=1 n=e5 v=60
230880 On ch=1 n=c5 v=60
231360 On ch=1 n=c5 v=0
231360 On ch=1 n=e5 v=0
231360 On ch=1 n=a5 v=60
231360 On ch=1 n=c5 v=60
231840 On ch=1 n=c5 v=0
231840 On ch=1 n=a5 v=0
232320 On ch=1 n=b4 v=60
232320 On ch=1 n=d5 v=60
232800 On ch=1 n=d5 v=0
232800 On ch=1 n=b4 v=0
232800 On ch=1 n=a5 v=60
232800 On ch=1 n=b4 v=60
233280 On ch=1 n=b4 v=0
233280 On ch=1 n=a5 v=0
233760 On ch=1 n=c5 v=60
233760 On ch=1 n=e5 v=60
234240 On ch=1 n=e5 v=0
234240 On ch=1 n=c5 v=0
234240 On ch=1 n=a5 v=60
234240 On ch=1 n=c5 v=60
234720 On ch=1 n=c5 v=0
234720 On ch=1 n=a5 v=0
235200 On ch=1 n=b4 v=60
235200 On ch=1 n=d5 v=60
235680 On ch=1 n=d5 v=0
235680 On ch=1 n=b4 v=0
235680 On ch=1 n=a5 v=60
235680 On ch=1 n=b4 v=60
236160 On ch=1 n=b4 v=0
236160 On ch=1 n=a5 v=0
236640 On ch=1 n=c5 v=60
236640 On ch=1 n=e5 v=60
237120 On ch=1 n=e5 v=0
237120 On ch=1 n=c5 v=0
237120 On ch=1 n=a5 v=60
237120 On ch=1 n=c5 v=60
237600 On ch=1 n=c5 v=0
237600 On ch=1 n=a5 v=0
238080 On ch=1 n=d#5 v=60
238080 On ch=1 n=f#5 v=60
238560 On ch=1 n=f#5 v=0
238560 On ch=1 n=d#5 v=0
238560 On ch=1 n=a5 v=60
238560 On ch=1 n=d#5 v=60
239040 On ch=1 n=d#5 v=0
239040 On ch=1 n=a5 v=0
239520 On ch=1 n=d5 v=60
239520 On ch=1 n=e5 v=60
240000 On ch=1 n=e5 v=0
240000 On ch=1 n=d5 v=0
240000 On ch=1 n=g#5 v=60
240000 On ch=1 n=d5 v=60
240480 On ch=1 n=d5 v=0
240480 On ch=1 n=g#5 v=0
240960 On ch=1 n=c5 v=60
240960 On ch=1 n=e5 v=60
241440 On ch=1 n=e5 v=0
241440 On ch=1 n=c5 v=0
241440 On ch=1 n=a5 v=60
241440 On ch=1 n=c5 v=60
241920 On ch=1 n=c5 v=0
241920 On ch=1 n=a5 v=0
242400 On ch=1 n=b4 v=60
242400 On ch=1 n=f5 v=60
242880 On ch=1 n=f5 v=0
242880 On ch=1 n=b4 v=0
242880 On ch=1 n=b4 v=60
242880 On ch=1 n=g5 v=60
242880 On ch=1 n=f5 v=60
243360 On ch=1 n=f5 v=0
243360 On ch=1 n=g5 v=0
243360 On ch=1 n=b4 v=0
243840 On ch=1 n=g5 v=60
243840 On ch=1 n=c5 v=60
244320 On ch=1 n=c5 v=0
244320 On ch=1 n=g5 v=0
244320 On ch=1 n=e5 v=60
244320 On ch=1 n=g5 v=60
244320 On ch=1 n=c5 v=60
244800 On ch=1 n=c5 v=0
244800 On ch=1 n=g5 v=0
244800 On ch=1 n=e5 v=0
245280 On ch=1 n=b4 v=60
245280 On ch=1 n=f5 v=60
245760 On ch=1 n=f5 v=0
245760 On ch=1 n=b4 v=0
245760 On ch=1 n=g5 v=60
245760 On ch=1 n=f5 v=60
246240 On ch=1 n=f5 v=0
246240 On ch=1 n=g5 v=0
246720 On ch=1 n=g5 v=60
246720 On ch=1 n=e5 v=60
247200 On ch=1 n=e5 v=0
247200 On ch=1 n=g5 v=0
247200 On ch=1 n=c6 v=60
247200 On ch=1 n=e5 v=60
247680 On ch=1 n=e5 v=0
247680 On ch=1 n=c6 v=0
248160 On ch=1 n=g#5 v=59
248640 On ch=1 n=g#5 v=0
248640 On ch=1 n=d5 v=57
248640 On ch=1 n=e5 v=57
248640 On ch=1 n=g#5 v=57
249120 On ch=1 n=g#5 v=0
249120 On ch=1 n=e5 v=0
249120 On ch=1 n=d5 v=0
249600 On ch=1 n=c5 v=53
249600 On ch=1 n=e5 v=53
249600 On ch=1 n=a5 v=53
250080 On ch=1 n=a5 v=0
250080 On ch=1 n=e5 v=0
250080 On ch=1 n=c5 v=0
250080 On ch=1 n=e5 v=52
250080 On ch=1 n=c5 v=52
250080 On ch=1 n=a5 v=52
250560 On ch=1 n=a5 v=0
250560 On ch=1 n=c5 v=0
250560 On ch=1 n=e5 v=0
251040 On ch=1 n=b4 v=48
251040 On ch=1 n=d#5 v=48
251040 On ch=1 n=a5 v=48
251520 On ch=1 n=a5 v=0
251520 On ch=1 n=d#5 v=0
251520 On ch=1 n=b4 v=0
251520 On ch=1 n=d#5 v=46
251520 On ch=1 n=b4 v=46
251520 On ch=1 n=a5 v=46
252000 On ch=1 n=a5 v=0
252000 On ch=1 n=b4 v=0
252000 On ch=1 n=d#5 v=0
252480 On ch=1 n=a5 v=43
252480 On ch=1 n=b5 v=43
252480 On ch=1 n=d#5 v=43
252960 On ch=1 n=d#5 v=0
252960 On ch=1 n=b5 v=0
252960 On ch=1 n=a5 v=0
252960 On ch=1 n=a5 v=41
252960 On ch=1 n=b5 v=41
252960 On ch=1 n=d#5 v=41
253440 On ch=1 n=d#5 v=0
253440 On ch=1 n=b5 v=0
253440 On ch=1 n=a5 v=0
253920 On ch=1 n=e5 v=40
253920 On ch=1 n=g#5 v=40
253920 On ch=1 n=b5 v=40
254400 On ch=1 n=b5 v=0
254400 On ch=1 n=g#5 v=0
254400 On ch=1 n=e5 v=0
254400 On ch=1 n=g#5 v=40
254400 On ch=1 n=b5 v=40
254880 On ch=1 n=b5 v=0
254880 On ch=1 n=g#5 v=0
255360 On ch=1 n=b5 v=40
255840 On ch=1 n=b5 v=0
255840 On ch=1 n=g#5 v=40
255840 On ch=1 n=b5 v=40
256320 On ch=1 n=g#5 v=0
256800 On ch=1 n=b5 v=0
256800 On ch=1 n=a5 v=40
256800 On ch=1 n=b5 v=40
257280 On ch=1 n=b5 v=0
257280 On ch=1 n=a5 v=0
257280 On ch=1 n=f#6 v=40
257280 On ch=1 n=a5 v=40
257280 On ch=1 n=b5 v=40
257760 On ch=1 n=b5 v=0
257760 On ch=1 n=a5 v=0
258240 On ch=1 n=f#6 v=0
258240 On ch=1 n=g#6 v=40
258240 On ch=1 n=a5 v=40
258240 On ch=1 n=b5 v=40
258720 On ch=1 n=b5 v=0
258720 On ch=1 n=a5 v=0
258720 On ch=1 n=g#6 v=0
258720 On ch=1 n=d#6 v=40
258720 On ch=1 n=a5 v=40
258720 On ch=1 n=b5 v=40
259200 On ch=1 n=b5 v=0
259200 On ch=1 n=a5 v=0
259200 On ch=1 n=d#6 v=0
259200 On ch=1 n=f#6 v=40
259680 On ch=1 n=f#6 v=0
259680 On ch=1 n=e6 v=40
259680 On ch=1 n=g#5 v=40
259680 On ch=1 n=b5 v=40
260160 On ch=1 n=b5 v=0
260160 On ch=1 n=g#5 v=0
260160 On ch=1 n=b5 v=40
260160 On ch=1 n=g#5 v=40
260640 On ch=1 n=g#5 v=0
260640 On ch=1 n=b5 v=0
260640 On ch=1 n=e6 v=0
261120 On ch=1 n=b5 v=40
261600 On ch=1 n=b5 v=0
261600 On ch=1 n=g#5 v=40
261600 On ch=1 n=b5 v=40
262080 On ch=1 n=g#5 v=0
262560 On ch=1 n=b5 v=0
262560 On ch=1 n=a5 v=40
262560 On ch=1 n=b5 v=40
263040 On ch=1 n=b5 v=0
263040 On ch=1 n=a5 v=0
263040 On ch=1 n=f#6 v=40
263040 On ch=1 n=a5 v=40
263040 On ch=1 n=b5 v=40
263520 On ch=1 n=b5 v=0
263520 On ch=1 n=a5 v=0
264000 On ch=1 n=f#6 v=0
264000 On ch=1 n=g#6 v=40
264000 On ch=1 n=a5 v=40
264000 On ch=1 n=b5 v=40
264480 On ch=1 n=b5 v=0
264480 On ch=1 n=a5 v=0
264480 On ch=1 n=g#6 v=0
264480 On ch=1 n=d#6 v=40
264480 On ch=1 n=a5 v=40
264480 On ch=1 n=b5 v=40
264960 On ch=1 n=b5 v=0
264960 On ch=1 n=a5 v=0
264960 On ch=1 n=d#6 v=0
264960 On ch=1 n=f#6 v=40
265440 On ch=1 n=f#6 v=0
265440 On ch=1 n=e6 v=40
265440 On ch=1 n=g#5 v=40
265440 On ch=1 n=b5 v=40
265920 On ch=1 n=b5 v=0
265920 On ch=1 n=g#5 v=0
265920 On ch=1 n=b5 v=40
265920 On ch=1 n=g#5 v=40
266400 On ch=1 n=g#5 v=0
266400 On ch=1 n=b5 v=0
266880 On ch=1 n=g#5 v=40
266880 On ch=1 n=b5 v=40
267360 On ch=1 n=b5 v=0
267360 On ch=1 n=g#5 v=0
267360 On ch=1 n=g#5 v=40
267360 On ch=1 n=b5 v=40
267840 On ch=1 n=b5 v=0
267840 On ch=1 n=g#5 v=0
267840 On ch=1 n=e6 v=0
268320 On ch=1 n=g#5 v=40
268320 On ch=1 n=b5 v=40
268800 On ch=1 n=b5 v=0
268800 On ch=1 n=g#5 v=0
268800 On ch=1 n=e5 v=40
268800 On ch=1 n=g#5 v=40
268800 On ch=1 n=b5 v=40
269040 On ch=1 n=e5 v=0
269040 On ch=1 n=b5 v=40
269280 On ch=1 n=b5 v=0
269280 On ch=1 n=b5 v=0
269280 On ch=1 n=g#5 v=0
269280 On ch=1 n=e6 v=40
270240 On ch=1 n=e6 v=0
270240 On ch=1 n=e5 v=40
271200 On ch=1 n=e5 v=0
271200 On ch=1 n=e5 v=60
271200 On ch=1 n=c5 v=60
271680 On ch=1 n=c5 v=0
271680 On ch=1 n=e5 v=0
271680 On ch=1 n=a5 v=60
271680 On ch=1 n=c5 v=60
272160 On ch=1 n=c5 v=0
272160 On ch=1 n=a5 v=0
272640 On ch=1 n=b4 v=60
272640 On ch=1 n=d5 v=60
273120 On ch=1 n=d5 v=0
273120 On ch=1 n=b4 v=0
273120 On ch=1 n=a5 v=60
273120 On ch=1 n=b4 v=60
273600 On ch=1 n=b4 v=0
273600 On ch=1 n=a5 v=0
274080 On ch=1 n=c5 v=60
274080 On ch=1 n=e5 v=60
274560 On ch=1 n=e5 v=0
274560 On ch=1 n=c5 v=0
274560 On ch=1 n=a5 v=60
274560 On ch=1 n=c5 v=60
275040 On ch=1 n=c5 v=0
275040 On ch=1 n=a5 v=0
275520 On ch=1 n=b4 v=60
275520 On ch=1 n=d5 v=60
276000 On ch=1 n=d5 v=0
276000 On ch=1 n=b4 v=0
276000 On ch=1 n=a5 v=60
276000 On ch=1 n=b4 v=60
276480 On ch=1 n=b4 v=0
276480 On ch=1 n=a5 v=0
276960 On ch=1 n=c5 v=60
276960 On ch=1 n=e5 v=60
277440 On ch=1 n=e5 v=0
277440 On ch=1 n=c5 v=0
277440 On ch=1 n=a5 v=60
277440 On ch=1 n=c5 v=60
277920 On ch=1 n=c5 v=0
277920 On ch=1 n=a5 v=0
278400 On ch=1 n=d#5 v=60
278400 On ch=1 n=f#5 v=60
278880 On ch=1 n=f#5 v=0
278880 On ch=1 n=d#5 v=0
278880 On ch=1 n=a5 v=60
278880 On ch=1 n=d#5 v=60
279360 On ch=1 n=d#5 v=0
279360 On ch=1 n=a5 v=0
279840 On ch=1 n=d5 v=60
279840 On ch=1 n=e5 v=60
280320 On ch=1 n=e5 v=0
280320 On ch=1 n=d5 v=0
280320 On ch=1 n=g#5 v=60
280320 On ch=1 n=d5 v=60
280800 On ch=1 n=d5 v=0
280800 On ch=1 n=g#5 v=0
281280 On ch=1 n=c6 v=60
281280 On ch=1 n=g#5 v=60
281280 On ch=1 n=d5 v=60
281760 On ch=1 n=d5 v=0
281760 On ch=1 n=g#5 v=0
281760 On ch=1 n=c6 v=0
281760 On ch=1 n=b5 v=60
281760 On ch=1 n=g#5 v=60
281760 On ch=1 n=d5 v=60
282240 On ch=1 n=d5 v=0
282240 On ch=1 n=g#5 v=0
282240 On ch=1 n=b5 v=0
282720 On ch=1 n=e5 v=60
282720 On ch=1 n=c5 v=60
283200 On ch=1 n=c5 v=0
283200 On ch=1 n=e5 v=0
283200 On ch=1 n=a5 v=60
283200 On ch=1 n=c5 v=60
283680 On ch=1 n=c5 v=0
283680 On ch=1 n=a5 v=0
284160 On ch=1 n=b4 v=60
284160 On ch=1 n=d5 v=60
284640 On ch=1 n=d5 v=0
284640 On ch=1 n=b4 v=0
284640 On ch=1 n=a5 v=60
284640 On ch=1 n=b4 v=60
285120 On ch=1 n=b4 v=0
285120 On ch=1 n=a5 v=0
285600 On ch=1 n=c5 v=60
285600 On ch=1 n=e5 v=60
286080 On ch=1 n=e5 v=0
286080 On ch=1 n=c5 v=0
286080 On ch=1 n=a5 v=60
286080 On ch=1 n=c5 v=60
286560 On ch=1 n=c5 v=0
286560 On ch=1 n=a5 v=0
287040 On ch=1 n=b4 v=60
287040 On ch=1 n=d5 v=60
287520 On ch=1 n=d5 v=0
287520 On ch=1 n=b4 v=0
287520 On ch=1 n=a5 v=60
287520 On ch=1 n=b4 v=60
288000 On ch=1 n=b4 v=0
288000 On ch=1 n=a5 v=0
288480 On ch=1 n=c5 v=60
288480 On ch=1 n=e5 v=60
288960 On ch=1 n=e5 v=0
288960 On ch=1 n=c5 v=0
288960 On ch=1 n=a5 v=60
288960 On ch=1 n=c5 v=60
289440 On ch=1 n=c5 v=0
289440 On ch=1 n=a5 v=0
289920 On ch=1 n=d#5 v=60
289920 On ch=1 n=f#5 v=60
290400 On ch=1 n=f#5 v=0
290400 On ch=1 n=d#5 v=0
290400 On ch=1 n=a5 v=60
290400 On ch=1 n=d#5 v=60
290880 On ch=1 n=d#5 v=0
290880 On ch=1 n=a5 v=0
291360 On ch=1 n=d5 v=60
291360 On ch=1 n=e5 v=60
291840 On ch=1 n=e5 v=0
291840 On ch=1 n=d5 v=0
291840 On ch=1 n=g#5 v=60
291840 On ch=1 n=d5 v=60
292320 On ch=1 n=d5 v=0
292320 On ch=1 n=g#5 v=0
292320 On ch=1 n=a5 v=40
292320 On ch=1 n=c5 v=40
292800 On ch=1 n=c5 v=0
292800 On ch=1 n=a5 v=0
292800 Meta TrkEnd
TrkEnd
MTrk
0 SeqSpec 43 00 01 00
0 Meta TrkName "Left Treble"
0 Meta 0x21 00
0 PrCh ch=1 p=0
73920 On ch=1 n=b5 v=88
74400 On ch=1 n=b5 v=0
92640 On ch=1 n=a5 v=100
92640 On ch=1 n=c#5 v=100
93120 On ch=1 n=c#5 v=0
93120 On ch=1 n=a5 v=0
115680 On ch=1 n=c5 v=40
115680 On ch=1 n=a5 v=40
116160 On ch=1 n=a5 v=0
116160 On ch=1 n=c5 v=0
171840 On ch=1 n=b5 v=83
172320 On ch=1 n=b5 v=0
190560 On ch=1 n=a5 v=100
190560 On ch=1 n=c#5 v=100
191040 On ch=1 n=c#5 v=0
191040 On ch=1 n=a5 v=0
213600 On ch=1 n=c5 v=40
213600 On ch=1 n=a5 v=40
214080 On ch=1 n=a5 v=0
214080 On ch=1 n=c5 v=0
214080 Meta TrkEnd
TrkEnd
MTrk
0 SeqSpec 43 00 01 00
0 Meta TrkName "Left Bass"
0 Meta 0x21 00
0 PrCh ch=1 p=0
0 On ch=1 n=e4 v=60
0 On ch=1 n=a3 v=60
960 On ch=1 n=e4 v=0
960 On ch=1 n=d4 v=60
1200 On ch=1 n=d4 v=0
1200 On ch=1 n=e4 v=60
1440 On ch=1 n=e4 v=0
1440 On ch=1 n=f4 v=60
2400 On ch=1 n=f4 v=0
2400 On ch=1 n=g4 v=60
2640 On ch=1 n=g4 v=0
2640 On ch=1 n=f4 v=60
2880 On ch=1 n=f4 v=0
2880 On ch=1 n=e4 v=60
3840 On ch=1 n=e4 v=0
3840 On ch=1 n=d4 v=60
4080 On ch=1 n=d4 v=0
4080 On ch=1 n=e4 v=60
4320 On ch=1 n=e4 v=0
4320 On ch=1 n=f4 v=60
5280 On ch=1 n=f4 v=0
5280 On ch=1 n=g4 v=60
5520 On ch=1 n=g4 v=0
5520 On ch=1 n=f4 v=60
5760 On ch=1 n=f4 v=0
5760 On ch=1 n=a3 v=0
5760 On ch=1 n=e4 v=60
5840 On ch=1 n=e4 v=0
5840 On ch=1 n=f4 v=60
5920 On ch=1 n=f4 v=0
5920 On ch=1 n=e4 v=60
6000 On ch=1 n=e4 v=0
6000 On ch=1 n=f4 v=60
6060 On ch=1 n=f4 v=0
6060 On ch=1 n=e4 v=60
6120 On ch=1 n=e4 v=0
6120 On ch=1 n=f4 v=60
6180 On ch=1 n=f4 v=0
6180 On ch=1 n=e4 v=60
6240 On ch=1 n=e4 v=0
6240 On ch=1 n=f4 v=60
6300 On ch=1 n=f4 v=0
6300 On ch=1 n=e4 v=60
6360 On ch=1 n=e4 v=0
6360 On ch=1 n=f4 v=60
6420 On ch=1 n=f4 v=0
6420 On ch=1 n=e4 v=60
6480 On ch=1 n=e4 v=0
6480 On ch=1 n=f4 v=60
6540 On ch=1 n=f4 v=0
6540 On ch=1 n=e4 v=60
6600 On ch=1 n=e4 v=0
6600 On ch=1 n=f4 v=60
6660 On ch=1 n=f4 v=0
6660 On ch=1 n=e4 v=60
6720 On ch=1 n=e4 v=0
6720 On ch=1 n=d#4 v=60
6960 On ch=1 n=d#4 v=0
6960 On ch=1 n=e4 v=60
7200 On ch=1 n=c5 v=60
8160 On ch=1 n=c5 v=0
8160 On ch=1 n=b4 v=60
8400 On ch=1 n=b4 v=0
8400 On ch=1 n=a4 v=60
8640 On ch=1 n=a4 v=0
8640 On ch=1 n=b4 v=60
9120 On ch=1 n=b4 v=0
9120 On ch=1 n=c5 v=60
9360 On ch=1 n=c5 v=0
9360 On ch=1 n=b4 v=60
9600 On ch=1 n=b4 v=0
9600 On ch=1 n=a#4 v=60
9840 On ch=1 n=a#4 v=0
9840 On ch=1 n=b4 v=60
10080 On ch=1 n=b4 v=0
10080 On ch=1 n=e5 v=60
11040 On ch=1 n=e5 v=0
11040 On ch=1 n=e4 v=0
11040 On ch=1 n=e4 v=60
11520 On ch=1 n=e4 v=0
11520 On ch=1 n=e4 v=60
11520 On ch=1 n=a3 v=60
12480 On ch=1 n=e4 v=0
12480 On ch=1 n=d4 v=60
12720 On ch=1 n=d4 v=0
12720 On ch=1 n=e4 v=60
12960 On ch=1 n=e4 v=0
12960 On ch=1 n=f4 v=60
13920 On ch=1 n=f4 v=0
13920 On ch=1 n=g4 v=60
14160 On ch=1 n=g4 v=0
14160 On ch=1 n=f4 v=60
14400 On ch=1 n=f4 v=0
14400 On ch=1 n=e4 v=60
15360 On ch=1 n=e4 v=0
15360 On ch=1 n=d4 v=60
15600 On ch=1 n=d4 v=0
15600 On ch=1 n=e4 v=60
15840 On ch=1 n=e4 v=0
15840 On ch=1 n=f4 v=60
16800 On ch=1 n=f4 v=0
16800 On ch=1 n=g4 v=60
17040 On ch=1 n=g4 v=0
17040 On ch=1 n=f4 v=60
17280 On ch=1 n=f4 v=0
17280 On ch=1 n=a3 v=0
17280 On ch=1 n=e4 v=60
17360 On ch=1 n=e4 v=0
17360 On ch=1 n=f4 v=60
17440 On ch=1 n=f4 v=0
17440 On ch=1 n=e4 v=60
17520 On ch=1 n=e4 v=0
17520 On ch=1 n=f4 v=60
17580 On ch=1 n=f4 v=0
17580 On ch=1 n=e4 v=60
17640 On ch=1 n=e4 v=0
17640 On ch=1 n=f4 v=60
17700 On ch=1 n=f4 v=0
17700 On ch=1 n=e4 v=60
17760 On ch=1 n=e4 v=0
17760 On ch=1 n=f4 v=60
17820 On ch=1 n=f4 v=0
17820 On ch=1 n=e4 v=60
17880 On ch=1 n=e4 v=0
17880 On ch=1 n=f4 v=60
17940 On ch=1 n=f4 v=0
17940 On ch=1 n=e4 v=60
18000 On ch=1 n=e4 v=0
18000 On ch=1 n=f4 v=60
18060 On ch=1 n=f4 v=0
18060 On ch=1 n=e4 v=60
18120 On ch=1 n=e4 v=0
18120 On ch=1 n=f4 v=60
18180 On ch=1 n=f4 v=0
18180 On ch=1 n=e4 v=60
18240 On ch=1 n=e4 v=0
18240 On ch=1 n=d#4 v=60
18480 On ch=1 n=d#4 v=0
18480 On ch=1 n=e4 v=60
18720 On ch=1 n=c5 v=60
19680 On ch=1 n=c5 v=0
19680 On ch=1 n=b4 v=60
19920 On ch=1 n=b4 v=0
19920 On ch=1 n=a4 v=60
20160 On ch=1 n=a4 v=0
20160 On ch=1 n=b4 v=60
21120 On ch=1 n=b4 v=0
21120 On ch=1 n=c5 v=60
21360 On ch=1 n=c5 v=0
21360 On ch=1 n=b4 v=60
21600 On ch=1 n=b4 v=0
21600 On ch=1 n=e4 v=0
21600 On ch=1 n=a4 v=60
22080 On ch=1 n=a4 v=0
23040 On ch=1 n=a3 v=60
23520 On ch=1 n=a3 v=0
23520 On ch=1 n=c5 v=60
23520 On ch=1 n=e4 v=60
24000 On ch=1 n=e4 v=0
24000 On ch=1 n=c5 v=0
24000 On ch=1 n=c5 v=60
24000 On ch=1 n=e4 v=60
24480 On ch=1 n=e4 v=0
24480 On ch=1 n=c5 v=0
24480 On ch=1 n=b3 v=60
24960 On ch=1 n=b3 v=0
24960 On ch=1 n=d5 v=60
24960 On ch=1 n=e4 v=60
25440 On ch=1 n=e4 v=0
25440 On ch=1 n=d5 v=0
25440 On ch=1 n=d5 v=60
25440 On ch=1 n=e4 v=60
25920 On ch=1 n=e4 v=0
25920 On ch=1 n=d5 v=0
25920 On ch=1 n=b3 v=60
26400 On ch=1 n=b3 v=0
26400 On ch=1 n=d5 v=60
26400 On ch=1 n=f4 v=60
26400 On ch=1 n=g#4 v=60
26880 On ch=1 n=g#4 v=0
26880 On ch=1 n=f4 v=0
26880 On ch=1 n=d5 v=0
26880 On ch=1 n=d5 v=60
26880 On ch=1 n=f4 v=60
26880 On ch=1 n=g#4 v=60
27360 On ch=1 n=g#4 v=0
27360 On ch=1 n=f4 v=0
27360 On ch=1 n=d5 v=0
27360 On ch=1 n=c4 v=60
27840 On ch=1 n=c4 v=0
27840 On ch=1 n=f5 v=60
27840 On ch=1 n=a4 v=60
27840 On ch=1 n=f4 v=60
28320 On ch=1 n=f4 v=0
28320 On ch=1 n=a4 v=0
28320 On ch=1 n=f5 v=0
28320 On ch=1 n=f5 v=60
28320 On ch=1 n=f4 v=60
28320 On ch=1 n=a4 v=60
28800 On ch=1 n=a4 v=0
28800 On ch=1 n=f4 v=0
28800 On ch=1 n=f5 v=0
28800 On ch=1 n=c#4 v=60
29280 On ch=1 n=c#4 v=0
29280 On ch=1 n=f5 v=60
29280 On ch=1 n=g4 v=60
29280 On ch=1 n=a4 v=60
29760 On ch=1 n=a4 v=0
29760 On ch=1 n=g4 v=0
29760 On ch=1 n=f5 v=0
29760 On ch=1 n=e5 v=60
29760 On ch=1 n=g4 v=60
29760 On ch=1 n=a4 v=60
30240 On ch=1 n=a4 v=0
30240 On ch=1 n=g4 v=0
30240 On ch=1 n=e5 v=0
30240 On ch=1 n=d4 v=60
30720 On ch=1 n=e5 v=60
30720 On ch=1 n=a4 v=60
30720 On ch=1 n=f4 v=60
31200 On ch=1 n=f4 v=0
31200 On ch=1 n=a4 v=0
31200 On ch=1 n=e5 v=0
31200 On ch=1 n=d5 v=60
31200 On ch=1 n=a4 v=60
31200 On ch=1 n=f4 v=60
31680 On ch=1 n=f4 v=0
31680 On ch=1 n=a4 v=0
31680 On ch=1 n=d5 v=0
31680 On ch=1 n=d4 v=0
31680 On ch=1 n=f4 v=60
32160 On ch=1 n=a4 v=60
32640 On ch=1 n=d5 v=60
33120 On ch=1 n=f4 v=0
33120 On ch=1 n=e4 v=60
33600 On ch=1 n=a4 v=0
33600 On ch=1 n=g#4 v=60
34080 On ch=1 n=g#4 v=0
34080 On ch=1 n=e4 v=0
34080 On ch=1 n=d5 v=0
34560 On ch=1 n=a3 v=60
35040 On ch=1 n=a3 v=0
35040 On ch=1 n=c5 v=60
35040 On ch=1 n=e4 v=60
35520 On ch=1 n=e4 v=0
35520 On ch=1 n=c5 v=0
35520 On ch=1 n=c5 v=60
35520 On ch=1 n=e4 v=60
36000 On ch=1 n=e4 v=0
36000 On ch=1 n=c5 v=0
36000 On ch=1 n=b3 v=60
36480 On ch=1 n=b3 v=0
36480 On ch=1 n=d5 v=60
36480 On ch=1 n=e4 v=60
36960 On ch=1 n=e4 v=0
36960 On ch=1 n=d5 v=0
36960 On ch=1 n=d5 v=60
36960 On ch=1 n=e4 v=60
37440 On ch=1 n=e4 v=0
37440 On ch=1 n=d5 v=0
37440 On ch=1 n=b3 v=60
37920 On ch=1 n=b3 v=0
37920 On ch=1 n=d5 v=60
37920 On ch=1 n=f4 v=60
37920 On ch=1 n=g#4 v=60
38400 On ch=1 n=g#4 v=0
38400 On ch=1 n=f4 v=0
38400 On ch=1 n=d5 v=0
38400 On ch=1 n=d5 v=60
38400 On ch=1 n=f4 v=60
38400 On ch=1 n=g#4 v=60
38880 On ch=1 n=g#4 v=0
38880 On ch=1 n=f4 v=0
38880 On ch=1 n=d5 v=0
38880 On ch=1 n=c4 v=60
39360 On ch=1 n=c4 v=0
39360 On ch=1 n=f5 v=60
39360 On ch=1 n=a4 v=60
39360 On ch=1 n=f4 v=60
39840 On ch=1 n=f4 v=0
39840 On ch=1 n=a4 v=0
39840 On ch=1 n=f5 v=0
39840 On ch=1 n=f5 v=60
39840 On ch=1 n=f4 v=60
39840 On ch=1 n=a4 v=60
40320 On ch=1 n=a4 v=0
40320 On ch=1 n=f4 v=0
40320 On ch=1 n=f5 v=0
40320 On ch=1 n=c#4 v=60
40800 On ch=1 n=g4 v=60
40800 On ch=1 n=a4 v=60
40800 On ch=1 n=e5 v=60
41280 On ch=1 n=e5 v=0
41280 On ch=1 n=a4 v=0
41280 On ch=1 n=g4 v=0
41280 On ch=1 n=g4 v=60
41280 On ch=1 n=a4 v=60
41280 On ch=1 n=e5 v=60
41760 On ch=1 n=e5 v=0
41760 On ch=1 n=a4 v=0
41760 On ch=1 n=g4 v=0
41760 On ch=1 n=c#4 v=0
41760 On ch=1 n=d4 v=60
42240 On ch=1 n=f4 v=60
42240 On ch=1 n=a4 v=60
42240 On ch=1 n=d5 v=60
42720 On ch=1 n=d5 v=0
42720 On ch=1 n=a4 v=0
42720 On ch=1 n=f4 v=0
42720 On ch=1 n=f4 v=60
42720 On ch=1 n=a4 v=60
42720 On ch=1 n=d5 v=60
43200 On ch=1 n=d5 v=0
43200 On ch=1 n=a4 v=0
43200 On ch=1 n=f4 v=0
43200 On ch=1 n=d4 v=0
43200 On ch=1 n=e4 v=60
43680 On ch=1 n=a4 v=60
43680 On ch=1 n=c#5 v=60
43680 On ch=1 n=g5 v=60
44160 On ch=1 n=g5 v=0
44160 On ch=1 n=c#5 v=0
44160 On ch=1 n=a4 v=0
44160 On ch=1 n=a4 v=60
44160 On ch=1 n=c#5 v=60
44160 On ch=1 n=g5 v=60
44640 On ch=1 n=g5 v=0
44640 On ch=1 n=c#5 v=0
44640 On ch=1 n=a4 v=0
44640 On ch=1 n=e4 v=0
44640 On ch=1 n=f4 v=60
45120 On ch=1 n=a5 v=60
45120 On ch=1 n=d5 v=60
45120 On ch=1 n=a4 v=60
45600 On ch=1 n=a4 v=0
45600 On ch=1 n=d5 v=0
45600 On ch=1 n=a5 v=0
45600 On ch=1 n=f4 v=0
46080 On ch=1 n=g#3 v=60
46560 On ch=1 n=g#3 v=0
46560 On ch=1 n=d5 v=60
46560 On ch=1 n=b4 v=60
46560 On ch=1 n=e4 v=60
47040 On ch=1 n=e4 v=0
47040 On ch=1 n=b4 v=0
47040 On ch=1 n=d5 v=0
47040 On ch=1 n=d5 v=60
47040 On ch=1 n=b4 v=60
47040 On ch=1 n=e4 v=60
47520 On ch=1 n=e4 v=0
47520 On ch=1 n=b4 v=0
47520 On ch=1 n=d5 v=0
47520 On ch=1 n=a3 v=60
48000 On ch=1 n=a3 v=0
48000 On ch=1 n=c5 v=60
48000 On ch=1 n=e4 v=60
48480 On ch=1 n=e4 v=0
48480 On ch=1 n=c5 v=0
48480 On ch=1 n=c5 v=60
48480 On ch=1 n=e4 v=60
48960 On ch=1 n=e4 v=0
48960 On ch=1 n=c5 v=0
48960 On ch=1 n=e3 v=60
49440 On ch=1 n=e3 v=0
49440 On ch=1 n=d5 v=60
49440 On ch=1 n=g#4 v=60
49440 On ch=1 n=e4 v=60
49920 On ch=1 n=e4 v=0
49920 On ch=1 n=g#4 v=0
49920 On ch=1 n=d5 v=0
49920 On ch=1 n=d5 v=60
49920 On ch=1 n=g#4 v=60
49920 On ch=1 n=e4 v=60
50400 On ch=1 n=e4 v=0
50400 On ch=1 n=g#4 v=0
50400 On ch=1 n=d5 v=0
50400 On ch=1 n=a3 v=60
50880 On ch=1 n=c5 v=60
50880 On ch=1 n=e4 v=60
51360 On ch=1 n=e4 v=0
51360 On ch=1 n=c5 v=0
51360 On ch=1 n=a3 v=0
51840 On ch=1 n=b3 v=60
52320 On ch=1 n=b3 v=0
52320 On ch=1 n=f5 v=60
52560 On ch=1 n=f5 v=0
52560 On ch=1 n=g4 v=60
52800 On ch=1 n=g4 v=0
52800 On ch=1 n=a4 v=60
53040 On ch=1 n=a4 v=0
53040 On ch=1 n=g4 v=60
53280 On ch=1 n=g4 v=0
53280 On ch=1 n=c4 v=60
53760 On ch=1 n=c4 v=0
53760 On ch=1 n=e5 v=60
53760 On ch=1 n=g4 v=60
54240 On ch=1 n=g4 v=0
54240 On ch=1 n=e5 v=0
54240 On ch=1 n=e5 v=60
54240 On ch=1 n=g4 v=60
54720 On ch=1 n=g4 v=0
54720 On ch=1 n=e5 v=0
54720 On ch=1 n=g3 v=60
55200 On ch=1 n=g3 v=0
55200 On ch=1 n=d4 v=60
55440 On ch=1 n=d4 v=0
55440 On ch=1 n=g4 v=60
55680 On ch=1 n=g4 v=0
55680 On ch=1 n=a4 v=60
55920 On ch=1 n=a4 v=0
55920 On ch=1 n=b4 v=60
56160 On ch=1 n=b4 v=0
56160 On ch=1 n=c4 v=60
56640 On ch=1 n=c4 v=0
56640 On ch=1 n=c5 v=60
56640 On ch=1 n=g4 v=60
57120 On ch=1 n=g4 v=0
57120 On ch=1 n=c5 v=0
57120 On ch=1 n=a4 v=60
57120 On ch=1 n=c5 v=60
57600 On ch=1 n=c5 v=0
57600 On ch=1 n=a4 v=0
57600 On ch=1 n=e3 v=60
58080 On ch=1 n=e3 v=0
58080 On ch=1 n=d5 v=60
58320 On ch=1 n=d5 v=0
58320 On ch=1 n=e4 v=60
58560 On ch=1 n=e4 v=0
58560 On ch=1 n=f4 v=60
58800 On ch=1 n=f4 v=0
58800 On ch=1 n=e4 v=60
59040 On ch=1 n=e4 v=0
59040 On ch=1 n=a3 v=60
59520 On ch=1 n=a3 v=0
59520 On ch=1 n=c5 v=60
59520 On ch=1 n=a4 v=60
59520 On ch=1 n=e4 v=60
60000 On ch=1 n=e4 v=0
60000 On ch=1 n=a4 v=0
60000 On ch=1 n=c5 v=0
60000 On ch=1 n=a4 v=60
60000 On ch=1 n=c5 v=60
60000 On ch=1 n=e4 v=60
60480 On ch=1 n=e4 v=0
60480 On ch=1 n=c5 v=0
60480 On ch=1 n=a4 v=0
60480 On ch=1 n=e3 v=60
60960 On ch=1 n=e3 v=0
60960 On ch=1 n=b3 v=60
61200 On ch=1 n=b3 v=0
61200 On ch=1 n=e4 v=60
61440 On ch=1 n=e4 v=0
61440 On ch=1 n=f#4 v=60
61680 On ch=1 n=f#4 v=0
61680 On ch=1 n=g#4 v=60
61920 On ch=1 n=g#4 v=0
61920 On ch=1 n=a3 v=60
62400 On ch=1 n=a3 v=0
62400 On ch=1 n=a4 v=60
62400 On ch=1 n=e4 v=60
62880 On ch=1 n=e4 v=0
62880 On ch=1 n=a4 v=0
62880 On ch=1 n=d4 v=60
62880 On ch=1 n=f4 v=60
63360 On ch=1 n=f4 v=0
63360 On ch=1 n=d4 v=0
63360 On ch=1 n=g3 v=60
63840 On ch=1 n=g3 v=0
63840 On ch=1 n=f5 v=60
64080 On ch=1 n=f5 v=0
64080 On ch=1 n=g4 v=60
64320 On ch=1 n=g4 v=0
64320 On ch=1 n=a4 v=60
64560 On ch=1 n=a4 v=0
64560 On ch=1 n=g4 v=60
64800 On ch=1 n=g4 v=0
64800 On ch=1 n=c4 v=60
65280 On ch=1 n=c4 v=0
65280 On ch=1 n=e5 v=60
65280 On ch=1 n=g4 v=60
65760 On ch=1 n=g4 v=0
65760 On ch=1 n=e5 v=0
65760 On ch=1 n=e5 v=60
65760 On ch=1 n=g4 v=60
66240 On ch=1 n=g4 v=0
66240 On ch=1 n=e5 v=0
66240 On ch=1 n=g3 v=60
66720 On ch=1 n=g3 v=0
66720 On ch=1 n=d4 v=60
66960 On ch=1 n=d4 v=0
66960 On ch=1 n=g4 v=60
67200 On ch=1 n=g4 v=0
67200 On ch=1 n=a4 v=60
67440 On ch=1 n=a4 v=0
67440 On ch=1 n=b4 v=60
67680 On ch=1 n=b4 v=0
67680 On ch=1 n=c4 v=60
68160 On ch=1 n=c4 v=0
68160 On ch=1 n=c5 v=60
68160 On ch=1 n=g4 v=60
68640 On ch=1 n=g4 v=0
68640 On ch=1 n=c5 v=0
68640 On ch=1 n=a4 v=60
68640 On ch=1 n=c5 v=60
69120 On ch=1 n=c5 v=0
69120 On ch=1 n=a4 v=0
69120 On ch=1 n=e3 v=60
69600 On ch=1 n=e3 v=0
69600 On ch=1 n=d5 v=60
69840 On ch=1 n=d5 v=0
69840 On ch=1 n=e4 v=60
70080 On ch=1 n=e4 v=0
70080 On ch=1 n=f4 v=60
70320 On ch=1 n=f4 v=0
70320 On ch=1 n=e4 v=60
70560 On ch=1 n=e4 v=0
70560 On ch=1 n=a3 v=60
71040 On ch=1 n=a3 v=0
71040 On ch=1 n=c5 v=60
71040 On ch=1 n=a4 v=60
71040 On ch=1 n=e4 v=60
71520 On ch=1 n=e4 v=0
71520 On ch=1 n=a4 v=0
71520 On ch=1 n=c5 v=0
71520 On ch=1 n=a4 v=60
71520 On ch=1 n=c5 v=60
71520 On ch=1 n=e4 v=60
72000 On ch=1 n=e4 v=0
72000 On ch=1 n=c5 v=0
72000 On ch=1 n=a4 v=0
72000 On ch=1 n=e3 v=60
72480 On ch=1 n=e3 v=0
72480 On ch=1 n=b3 v=67
72960 On ch=1 n=b3 v=0
72960 On ch=1 n=g#4 v=74
73440 On ch=1 n=g#4 v=0
73440 On ch=1 n=d5 v=81
73920 On ch=1 n=d5 v=0
74880 On ch=1 n=a3 v=100
75360 On ch=1 n=a3 v=0
75360 On ch=1 n=e4 v=100
75360 On ch=1 n=c#5 v=100
75840 On ch=1 n=c#5 v=0
75840 On ch=1 n=e4 v=0
75840 On ch=1 n=g4 v=100
75840 On ch=1 n=e4 v=100
75840 On ch=1 n=c#5 v=100
76320 On ch=1 n=c#5 v=0
76320 On ch=1 n=e4 v=0
76320 On ch=1 n=g4 v=0
76320 On ch=1 n=d4 v=100
76800 On ch=1 n=d4 v=0
76800 On ch=1 n=d5 v=100
76800 On ch=1 n=f#4 v=100
77280 On ch=1 n=f#4 v=0
77280 On ch=1 n=d5 v=0
77280 On ch=1 n=b4 v=100
77280 On ch=1 n=d5 v=100
77280 On ch=1 n=f#4 v=100
77760 On ch=1 n=f#4 v=0
77760 On ch=1 n=d5 v=0
77760 On ch=1 n=b4 v=0
77760 On ch=1 n=e4 v=100
78240 On ch=1 n=d5 v=100
78240 On ch=1 n=b4 v=100
78720 On ch=1 n=e4 v=0
78720 On ch=1 n=f4 v=100
79200 On ch=1 n=f4 v=0
79200 On ch=1 n=b4 v=0
79200 On ch=1 n=d5 v=0
79200 On ch=1 n=f#4 v=100
79680 On ch=1 n=c#5 v=100
79680 On ch=1 n=a4 v=100
80160 On ch=1 n=a4 v=0
80160 On ch=1 n=c#5 v=0
80160 On ch=1 n=a4 v=100
80160 On ch=1 n=c#5 v=100
80640 On ch=1 n=c#5 v=0
80640 On ch=1 n=a4 v=0
80640 On ch=1 n=f#4 v=0
80640 On ch=1 n=e4 v=100
81120 On ch=1 n=e5 v=100
81120 On ch=1 n=b4 v=100
81120 On ch=1 n=g#4 v=100
81600 On ch=1 n=g#4 v=0
81600 On ch=1 n=b4 v=0
81600 On ch=1 n=e5 v=0
81600 On ch=1 n=e4 v=0
81600 On ch=1 n=d4 v=100
82080 On ch=1 n=d4 v=0
82080 On ch=1 n=c#4 v=100
82560 On ch=1 n=c#4 v=0
82560 On ch=1 n=f5 v=100
82560 On ch=1 n=b4 v=100
82560 On ch=1 n=g#4 v=100
83040 On ch=1 n=g#4 v=0
83040 On ch=1 n=b4 v=0
83040 On ch=1 n=f5 v=0
83040 On ch=1 n=f#4 v=100
83040 On ch=1 n=a4 v=100
83040 On ch=1 n=f#5 v=100
83520 On ch=1 n=f#5 v=0
83520 On ch=1 n=a4 v=0
83520 On ch=1 n=f#4 v=0
83520 On ch=1 n=d4 v=100
84000 On ch=1 n=d5 v=100
84000 On ch=1 n=b4 v=100
84000 On ch=1 n=f#4 v=100
84480 On ch=1 n=f#4 v=0
84480 On ch=1 n=b4 v=0
84480 On ch=1 n=d5 v=0
84480 On ch=1 n=d4 v=0
84480 On ch=1 n=b3 v=100
84960 On ch=1 n=b3 v=0
84960 On ch=1 n=e4 v=100
85440 On ch=1 n=f#5 v=100
85440 On ch=1 n=d5 v=100
85440 On ch=1 n=g#4 v=100
85920 On ch=1 n=g#4 v=0
85920 On ch=1 n=d5 v=0
85920 On ch=1 n=f#5 v=0
85920 On ch=1 n=e5 v=100
85920 On ch=1 n=d5 v=100
85920 On ch=1 n=g#4 v=100
86400 On ch=1 n=g#4 v=0
86400 On ch=1 n=d5 v=0
86400 On ch=1 n=e5 v=0
86400 On ch=1 n=e4 v=0
86400 On ch=1 n=a3 v=100
86880 On ch=1 n=a3 v=0
86880 On ch=1 n=c#5 v=100
86880 On ch=1 n=a4 v=100
86880 On ch=1 n=e4 v=100
87360 On ch=1 n=e4 v=0
87360 On ch=1 n=a4 v=0
87360 On ch=1 n=c#5 v=0
87360 On ch=1 n=a4 v=100
87360 On ch=1 n=c#5 v=100
87360 On ch=1 n=e4 v=100
87840 On ch=1 n=e4 v=0
87840 On ch=1 n=c#5 v=0
87840 On ch=1 n=a4 v=0
87840 On ch=1 n=d4 v=100
88320 On ch=1 n=b4 v=100
88320 On ch=1 n=f#4 v=100
88800 On ch=1 n=f#4 v=0
88800 On ch=1 n=b4 v=0
88800 On ch=1 n=b4 v=100
88800 On ch=1 n=f#4 v=100
89280 On ch=1 n=f#4 v=0
89280 On ch=1 n=b4 v=0
89280 On ch=1 n=d4 v=0
89280 On ch=1 n=e4 v=100
89760 On ch=1 n=d5 v=100
89760 On ch=1 n=b4 v=100
90240 On ch=1 n=b4 v=0
90240 On ch=1 n=d5 v=0
90240 On ch=1 n=d5 v=100
90240 On ch=1 n=b4 v=100
90720 On ch=1 n=b4 v=0
90720 On ch=1 n=d5 v=0
90720 On ch=1 n=e4 v=0
90720 On ch=1 n=f4 v=100
91200 On ch=1 n=a4 v=100
91200 On ch=1 n=c5 v=100
91680 On ch=1 n=f4 v=0
91680 On ch=1 n=d#4 v=100
92160 On ch=1 n=d#4 v=0
92160 On ch=1 n=c5 v=0
92160 On ch=1 n=a4 v=0
92160 On ch=1 n=e4 v=100
92640 On ch=1 n=e4 v=0
95040 On ch=1 n=e3 v=100
95520 On ch=1 n=e3 v=0
95520 On ch=1 n=d5 v=93
95520 On ch=1 n=g#4 v=93
95520 On ch=1 n=e4 v=93
96000 On ch=1 n=e4 v=0
96000 On ch=1 n=g#4 v=0
96000 On ch=1 n=d5 v=0
96000 On ch=1 n=e4 v=86
96000 On ch=1 n=g#4 v=86
96000 On ch=1 n=d5 v=86
96480 On ch=1 n=d5 v=0
96480 On ch=1 n=g#4 v=0
96480 On ch=1 n=e4 v=0
96480 On ch=1 n=a3 v=79
96960 On ch=1 n=e5 v=72
96960 On ch=1 n=a4 v=72
96960 On ch=1 n=e4 v=72
97440 On ch=1 n=e4 v=0
97440 On ch=1 n=a4 v=0
97440 On ch=1 n=e5 v=0
97440 On ch=1 n=a3 v=0
97920 On ch=1 n=a3 v=60
98400 On ch=1 n=a3 v=0
98400 On ch=1 n=c5 v=60
98400 On ch=1 n=a4 v=60
98400 On ch=1 n=e4 v=60
98880 On ch=1 n=e4 v=0
98880 On ch=1 n=a4 v=0
98880 On ch=1 n=c5 v=0
98880 On ch=1 n=c5 v=60
98880 On ch=1 n=a4 v=60
98880 On ch=1 n=e4 v=60
99360 On ch=1 n=e4 v=0
99360 On ch=1 n=a4 v=0
99360 On ch=1 n=c5 v=0
99360 On ch=1 n=d4 v=60
99840 On ch=1 n=d4 v=0
99840 On ch=1 n=d5 v=60
99840 On ch=1 n=a#4 v=60
99840 On ch=1 n=f4 v=60
100320 On ch=1 n=f4 v=0
100320 On ch=1 n=a#4 v=0
100320 On ch=1 n=d5 v=0
100320 On ch=1 n=d5 v=60
100320 On ch=1 n=a#4 v=60
100320 On ch=1 n=f4 v=60
100800 On ch=1 n=f4 v=0
100800 On ch=1 n=a#4 v=0
100800 On ch=1 n=d5 v=0
100800 On ch=1 n=e4 v=60
101280 On ch=1 n=d5 v=60
101280 On ch=1 n=b4 v=60
101760 On ch=1 n=b4 v=0
101760 On ch=1 n=d5 v=0
101760 On ch=1 n=d5 v=60
101760 On ch=1 n=b4 v=60
102240 On ch=1 n=b4 v=0
102240 On ch=1 n=d5 v=0
102240 On ch=1 n=e4 v=0
102240 On ch=1 n=f4 v=60
102720 On ch=1 n=c5 v=60
102720 On ch=1 n=a4 v=60
103200 On ch=1 n=a4 v=0
103200 On ch=1 n=c5 v=0
103200 On ch=1 n=c5 v=60
103200 On ch=1 n=a4 v=60
103680 On ch=1 n=a4 v=0
103680 On ch=1 n=c5 v=0
103680 On ch=1 n=f4 v=0
103680 On ch=1 n=e4 v=60
104160 On ch=1 n=e5 v=60
104160 On ch=1 n=b4 v=60
104160 On ch=1 n=g#4 v=60
104640 On ch=1 n=g#4 v=0
104640 On ch=1 n=b4 v=0
104640 On ch=1 n=e5 v=0
104640 On ch=1 n=e4 v=0
104640 On ch=1 n=d4 v=60
105120 On ch=1 n=d4 v=0
105120 On ch=1 n=c4 v=60
105600 On ch=1 n=e5 v=60
105600 On ch=1 n=a4 v=60
105600 On ch=1 n=e4 v=60
106080 On ch=1 n=e4 v=0
106080 On ch=1 n=a4 v=0
106080 On ch=1 n=e5 v=0
106080 On ch=1 n=e5 v=60
106080 On ch=1 n=a4 v=60
106080 On ch=1 n=e4 v=60
106560 On ch=1 n=e4 v=0
106560 On ch=1 n=a4 v=0
106560 On ch=1 n=e5 v=0
106560 On ch=1 n=c4 v=0
106560 On ch=1 n=d4 v=60
107040 On ch=1 n=d5 v=60
107040 On ch=1 n=a#4 v=60
107040 On ch=1 n=f4 v=60
107520 On ch=1 n=f4 v=0
107520 On ch=1 n=a#4 v=0
107520 On ch=1 n=d5 v=0
107520 On ch=1 n=d5 v=60
107520 On ch=1 n=a#4 v=60
107520 On ch=1 n=f4 v=60
108000 On ch=1 n=f4 v=0
108000 On ch=1 n=a#4 v=0
108000 On ch=1 n=d5 v=0
108000 On ch=1 n=d4 v=0
108000 On ch=1 n=e4 v=60
108480 On ch=1 n=f5 v=60
108480 On ch=1 n=d5 v=60
108480 On ch=1 n=g#4 v=60
108960 On ch=1 n=g#4 v=0
108960 On ch=1 n=d5 v=0
108960 On ch=1 n=f5 v=0
108960 On ch=1 n=d5 v=60
108960 On ch=1 n=e5 v=60
108960 On ch=1 n=g#4 v=60
109440 On ch=1 n=g#4 v=0
109440 On ch=1 n=e5 v=0
109440 On ch=1 n=d5 v=0
109440 On ch=1 n=e4 v=0
109440 On ch=1 n=a3 v=60
109920 On ch=1 n=a3 v=0
109920 On ch=1 n=c5 v=60
109920 On ch=1 n=a4 v=60
109920 On ch=1 n=e4 v=60
110400 On ch=1 n=e4 v=0
110400 On ch=1 n=a4 v=0
110400 On ch=1 n=c5 v=0
110400 On ch=1 n=a4 v=60
110400 On ch=1 n=c5 v=60
110400 On ch=1 n=e4 v=60
110880 On ch=1 n=e4 v=0
110880 On ch=1 n=c5 v=0
110880 On ch=1 n=a4 v=0
110880 On ch=1 n=d4 v=60
111360 On ch=1 n=a#4 v=60
111360 On ch=1 n=f4 v=60
111840 On ch=1 n=f4 v=0
111840 On ch=1 n=a#4 v=0
111840 On ch=1 n=a#4 v=60
111840 On ch=1 n=f4 v=60
112320 On ch=1 n=f4 v=0
112320 On ch=1 n=a#4 v=0
112320 On ch=1 n=d4 v=0
112320 On ch=1 n=e4 v=60
112800 On ch=1 n=d5 v=60
112800 On ch=1 n=b4 v=60
113280 On ch=1 n=b4 v=0
113280 On ch=1 n=d5 v=0
113280 On ch=1 n=d5 v=60
113280 On ch=1 n=b4 v=60
113760 On ch=1 n=b4 v=0
113760 On ch=1 n=d5 v=0
113760 On ch=1 n=e4 v=0
113760 On ch=1 n=f4 v=60
114240 On ch=1 n=c5 v=60
114240 On ch=1 n=a4 v=60
114720 On ch=1 n=f4 v=0
114720 On ch=1 n=d#4 v=60
115200 On ch=1 n=d#4 v=0
115200 On ch=1 n=a4 v=0
115200 On ch=1 n=c5 v=0
115200 On ch=1 n=e4 v=40
115680 On ch=1 n=e4 v=0
118080 On ch=1 n=e3 v=40
118560 On ch=1 n=e3 v=0
118560 On ch=1 n=d5 v=40
118560 On ch=1 n=g#4 v=40
118560 On ch=1 n=e4 v=40
119040 On ch=1 n=e4 v=0
119040 On ch=1 n=g#4 v=0
119040 On ch=1 n=d5 v=0
119040 On ch=1 n=e4 v=40
119040 On ch=1 n=g#4 v=40
119040 On ch=1 n=d5 v=40
119520 On ch=1 n=d5 v=0
119520 On ch=1 n=g#4 v=0
119520 On ch=1 n=e4 v=0
119520 On ch=1 n=a3 v=40
120000 On ch=1 n=a4 v=40
120000 On ch=1 n=e4 v=40
120480 On ch=1 n=e4 v=0
120480 On ch=1 n=a4 v=0
120480 On ch=1 n=a3 v=0
120960 On ch=1 n=a3 v=40
121440 On ch=1 n=a3 v=0
121440 On ch=1 n=c5 v=40
121440 On ch=1 n=e4 v=40
121920 On ch=1 n=e4 v=0
121920 On ch=1 n=c5 v=0
121920 On ch=1 n=c5 v=40
121920 On ch=1 n=e4 v=40
122400 On ch=1 n=e4 v=0
122400 On ch=1 n=c5 v=0
122400 On ch=1 n=b3 v=40
122880 On ch=1 n=b3 v=0
122880 On ch=1 n=d5 v=40
122880 On ch=1 n=e4 v=40
123360 On ch=1 n=e4 v=0
123360 On ch=1 n=d5 v=0
123360 On ch=1 n=d5 v=40
123360 On ch=1 n=e4 v=40
123840 On ch=1 n=e4 v=0
123840 On ch=1 n=d5 v=0
123840 On ch=1 n=b3 v=40
124320 On ch=1 n=b3 v=0
124320 On ch=1 n=d5 v=40
124320 On ch=1 n=f4 v=40
124320 On ch=1 n=g#4 v=40
124800 On ch=1 n=g#4 v=0
124800 On ch=1 n=f4 v=0
124800 On ch=1 n=d5 v=0
124800 On ch=1 n=d5 v=40
124800 On ch=1 n=f4 v=40
124800 On ch=1 n=g#4 v=40
125280 On ch=1 n=g#4 v=0
125280 On ch=1 n=f4 v=0
125280 On ch=1 n=d5 v=0
125280 On ch=1 n=c4 v=40
125760 On ch=1 n=c4 v=0
125760 On ch=1 n=f5 v=40
125760 On ch=1 n=a4 v=40
125760 On ch=1 n=f4 v=40
126240 On ch=1 n=f4 v=0
126240 On ch=1 n=a4 v=0
126240 On ch=1 n=f5 v=0
126240 On ch=1 n=f5 v=40
126240 On ch=1 n=f4 v=40
126240 On ch=1 n=a4 v=40
126720 On ch=1 n=a4 v=0
126720 On ch=1 n=f4 v=0
126720 On ch=1 n=f5 v=0
126720 On ch=1 n=c#4 v=40
127200 On ch=1 n=c#4 v=0
127200 On ch=1 n=f5 v=40
127200 On ch=1 n=g4 v=40
127200 On ch=1 n=a4 v=40
127680 On ch=1 n=a4 v=0
127680 On ch=1 n=g4 v=0
127680 On ch=1 n=f5 v=0
127680 On ch=1 n=e5 v=40
127680 On ch=1 n=g4 v=40
127680 On ch=1 n=a4 v=40
128160 On ch=1 n=a4 v=0
128160 On ch=1 n=g4 v=0
128160 On ch=1 n=e5 v=0
128160 On ch=1 n=d4 v=40
128640 On ch=1 n=e5 v=40
128640 On ch=1 n=a4 v=40
128640 On ch=1 n=f4 v=40
129120 On ch=1 n=f4 v=0
129120 On ch=1 n=a4 v=0
129120 On ch=1 n=e5 v=0
129120 On ch=1 n=d5 v=40
129120 On ch=1 n=a4 v=40
129120 On ch=1 n=f4 v=40
129600 On ch=1 n=f4 v=0
129600 On ch=1 n=a4 v=0
129600 On ch=1 n=d5 v=0
129600 On ch=1 n=d4 v=0
129600 On ch=1 n=f4 v=40
130080 On ch=1 n=a4 v=40
130560 On ch=1 n=d5 v=40
131040 On ch=1 n=f4 v=0
131040 On ch=1 n=e4 v=40
131520 On ch=1 n=a4 v=0
131520 On ch=1 n=g#4 v=40
132000 On ch=1 n=g#4 v=0
132000 On ch=1 n=e4 v=0
132000 On ch=1 n=d5 v=0
132480 On ch=1 n=a3 v=40
132960 On ch=1 n=a3 v=0
132960 On ch=1 n=c5 v=40
132960 On ch=1 n=e4 v=40
133440 On ch=1 n=e4 v=0
133440 On ch=1 n=c5 v=0
133440 On ch=1 n=c5 v=40
133440 On ch=1 n=e4 v=40
133920 On ch=1 n=e4 v=0
133920 On ch=1 n=c5 v=0
133920 On ch=1 n=b3 v=40
134400 On ch=1 n=b3 v=0
134400 On ch=1 n=d5 v=40
134400 On ch=1 n=e4 v=40
134880 On ch=1 n=e4 v=0
134880 On ch=1 n=d5 v=0
134880 On ch=1 n=d5 v=40
134880 On ch=1 n=e4 v=40
135360 On ch=1 n=e4 v=0
135360 On ch=1 n=d5 v=0
135360 On ch=1 n=b3 v=40
135840 On ch=1 n=b3 v=0
135840 On ch=1 n=d5 v=40
135840 On ch=1 n=f4 v=40
135840 On ch=1 n=g#4 v=40
136320 On ch=1 n=g#4 v=0
136320 On ch=1 n=f4 v=0
136320 On ch=1 n=d5 v=0
136320 On ch=1 n=d5 v=40
136320 On ch=1 n=f4 v=40
136320 On ch=1 n=g#4 v=40
136800 On ch=1 n=g#4 v=0
136800 On ch=1 n=f4 v=0
136800 On ch=1 n=d5 v=0
136800 On ch=1 n=c4 v=40
137280 On ch=1 n=c4 v=0
137280 On ch=1 n=f5 v=40
137280 On ch=1 n=a4 v=40
137280 On ch=1 n=f4 v=40
137760 On ch=1 n=f4 v=0
137760 On ch=1 n=a4 v=0
137760 On ch=1 n=f5 v=0
137760 On ch=1 n=f5 v=40
137760 On ch=1 n=f4 v=40
137760 On ch=1 n=a4 v=40
138240 On ch=1 n=a4 v=0
138240 On ch=1 n=f4 v=0
138240 On ch=1 n=f5 v=0
138240 On ch=1 n=c#4 v=40
138720 On ch=1 n=g4 v=40
138720 On ch=1 n=a4 v=40
138720 On ch=1 n=e5 v=40
139200 On ch=1 n=e5 v=0
139200 On ch=1 n=a4 v=0
139200 On ch=1 n=g4 v=0
139200 On ch=1 n=g4 v=40
139200 On ch=1 n=a4 v=40
139200 On ch=1 n=e5 v=40
139680 On ch=1 n=e5 v=0
139680 On ch=1 n=a4 v=0
139680 On ch=1 n=g4 v=0
139680 On ch=1 n=c#4 v=0
139680 On ch=1 n=d4 v=40
140160 On ch=1 n=f4 v=40
140160 On ch=1 n=a4 v=40
140160 On ch=1 n=d5 v=40
140640 On ch=1 n=d5 v=0
140640 On ch=1 n=a4 v=0
140640 On ch=1 n=f4 v=0
140640 On ch=1 n=f4 v=40
140640 On ch=1 n=a4 v=40
140640 On ch=1 n=d5 v=40
141120 On ch=1 n=d5 v=0
141120 On ch=1 n=a4 v=0
141120 On ch=1 n=f4 v=0
141120 On ch=1 n=d4 v=0
141120 On ch=1 n=e4 v=40
141600 On ch=1 n=a4 v=40
141600 On ch=1 n=c#5 v=40
141600 On ch=1 n=g5 v=40
142080 On ch=1 n=g5 v=0
142080 On ch=1 n=c#5 v=0
142080 On ch=1 n=a4 v=0
142080 On ch=1 n=a4 v=40
142080 On ch=1 n=c#5 v=40
142080 On ch=1 n=g5 v=40
142560 On ch=1 n=g5 v=0
142560 On ch=1 n=c#5 v=0
142560 On ch=1 n=a4 v=0
142560 On ch=1 n=e4 v=0
142560 On ch=1 n=f4 v=40
143040 On ch=1 n=a5 v=40
143040 On ch=1 n=d5 v=40
143040 On ch=1 n=a4 v=40
143520 On ch=1 n=a4 v=0
143520 On ch=1 n=d5 v=0
143520 On ch=1 n=a5 v=0
143520 On ch=1 n=f4 v=0
144000 On ch=1 n=g#3 v=40
144480 On ch=1 n=g#3 v=0
144480 On ch=1 n=d5 v=40
144480 On ch=1 n=b4 v=40
144480 On ch=1 n=e4 v=40
144960 On ch=1 n=e4 v=0
144960 On ch=1 n=b4 v=0
144960 On ch=1 n=d5 v=0
144960 On ch=1 n=d5 v=40
144960 On ch=1 n=b4 v=40
144960 On ch=1 n=e4 v=40
145440 On ch=1 n=e4 v=0
145440 On ch=1 n=b4 v=0
145440 On ch=1 n=d5 v=0
145440 On ch=1 n=a3 v=40
145920 On ch=1 n=a3 v=0
145920 On ch=1 n=c5 v=40
145920 On ch=1 n=e4 v=40
146400 On ch=1 n=e4 v=0
146400 On ch=1 n=c5 v=0
146400 On ch=1 n=c5 v=40
146400 On ch=1 n=e4 v=40
146880 On ch=1 n=e4 v=0
146880 On ch=1 n=c5 v=0
146880 On ch=1 n=e3 v=40
147360 On ch=1 n=e3 v=0
147360 On ch=1 n=d5 v=40
147360 On ch=1 n=g#4 v=40
147360 On ch=1 n=e4 v=40
147840 On ch=1 n=e4 v=0
147840 On ch=1 n=g#4 v=0
147840 On ch=1 n=d5 v=0
147840 On ch=1 n=d5 v=40
147840 On ch=1 n=g#4 v=40
147840 On ch=1 n=e4 v=40
148320 On ch=1 n=e4 v=0
148320 On ch=1 n=g#4 v=0
148320 On ch=1 n=d5 v=0
148320 On ch=1 n=a3 v=40
148800 On ch=1 n=c5 v=40
148800 On ch=1 n=e4 v=40
149280 On ch=1 n=e4 v=0
149280 On ch=1 n=c5 v=0
149280 On ch=1 n=a3 v=0
149760 On ch=1 n=b3 v=40
150240 On ch=1 n=b3 v=0
150240 On ch=1 n=f5 v=40
150480 On ch=1 n=f5 v=0
150480 On ch=1 n=g4 v=40
150720 On ch=1 n=g4 v=0
150720 On ch=1 n=a4 v=40
150960 On ch=1 n=a4 v=0
150960 On ch=1 n=g4 v=40
151200 On ch=1 n=g4 v=0
151200 On ch=1 n=c4 v=40
151680 On ch=1 n=c4 v=0
151680 On ch=1 n=e5 v=40
151680 On ch=1 n=g4 v=40
152160 On ch=1 n=g4 v=0
152160 On ch=1 n=e5 v=0
152160 On ch=1 n=e5 v=40
152160 On ch=1 n=g4 v=40
152640 On ch=1 n=g4 v=0
152640 On ch=1 n=e5 v=0
152640 On ch=1 n=g3 v=40
153120 On ch=1 n=g3 v=0
153120 On ch=1 n=d4 v=40
153360 On ch=1 n=d4 v=0
153360 On ch=1 n=g4 v=40
153600 On ch=1 n=g4 v=0
153600 On ch=1 n=a4 v=40
153840 On ch=1 n=a4 v=0
153840 On ch=1 n=b4 v=40
154080 On ch=1 n=b4 v=0
154080 On ch=1 n=c4 v=40
154560 On ch=1 n=c4 v=0
154560 On ch=1 n=c5 v=40
154560 On ch=1 n=g4 v=40
155040 On ch=1 n=g4 v=0
155040 On ch=1 n=c5 v=0
155040 On ch=1 n=a4 v=40
155040 On ch=1 n=c5 v=40
155520 On ch=1 n=c5 v=0
155520 On ch=1 n=a4 v=0
155520 On ch=1 n=e3 v=40
156000 On ch=1 n=e3 v=0
156000 On ch=1 n=d5 v=40
156240 On ch=1 n=d5 v=0
156240 On ch=1 n=e4 v=40
156480 On ch=1 n=e4 v=0
156480 On ch=1 n=f4 v=40
156720 On ch=1 n=f4 v=0
156720 On ch=1 n=e4 v=40
156960 On ch=1 n=e4 v=0
156960 On ch=1 n=a3 v=40
157440 On ch=1 n=a3 v=0
157440 On ch=1 n=c5 v=40
157440 On ch=1 n=a4 v=40
157440 On ch=1 n=e4 v=40
157920 On ch=1 n=e4 v=0
157920 On ch=1 n=a4 v=0
157920 On ch=1 n=c5 v=0
157920 On ch=1 n=a4 v=40
157920 On ch=1 n=c5 v=40
157920 On ch=1 n=e4 v=40
158400 On ch=1 n=e4 v=0
158400 On ch=1 n=c5 v=0
158400 On ch=1 n=a4 v=0
158400 On ch=1 n=e3 v=40
158880 On ch=1 n=e3 v=0
158880 On ch=1 n=b3 v=40
159120 On ch=1 n=b3 v=0
159120 On ch=1 n=e4 v=40
159360 On ch=1 n=e4 v=0
159360 On ch=1 n=f#4 v=40
159600 On ch=1 n=f#4 v=0
159600 On ch=1 n=g#4 v=40
159840 On ch=1 n=g#4 v=0
159840 On ch=1 n=a3 v=40
160320 On ch=1 n=a3 v=0
160320 On ch=1 n=a4 v=40
160320 On ch=1 n=e4 v=40
160800 On ch=1 n=e4 v=0
160800 On ch=1 n=a4 v=0
160800 On ch=1 n=d4 v=40
160800 On ch=1 n=f4 v=40
161280 On ch=1 n=f4 v=0
161280 On ch=1 n=d4 v=0
161280 On ch=1 n=g3 v=40
161760 On ch=1 n=g3 v=0
161760 On ch=1 n=f5 v=40
162000 On ch=1 n=f5 v=0
162000 On ch=1 n=g4 v=40
162240 On ch=1 n=g4 v=0
162240 On ch=1 n=a4 v=40
162480 On ch=1 n=a4 v=0
162480 On ch=1 n=g4 v=40
162720 On ch=1 n=g4 v=0
162720 On ch=1 n=c4 v=40
163200 On ch=1 n=c4 v=0
163200 On ch=1 n=e5 v=40
163200 On ch=1 n=g4 v=40
163680 On ch=1 n=g4 v=0
163680 On ch=1 n=e5 v=0
163680 On ch=1 n=e5 v=40
163680 On ch=1 n=g4 v=40
164160 On ch=1 n=g4 v=0
164160 On ch=1 n=e5 v=0
164160 On ch=1 n=g3 v=40
164640 On ch=1 n=g3 v=0
164640 On ch=1 n=d4 v=40
164880 On ch=1 n=d4 v=0
164880 On ch=1 n=g4 v=40
165120 On ch=1 n=g4 v=0
165120 On ch=1 n=a4 v=40
165360 On ch=1 n=a4 v=0
165360 On ch=1 n=b4 v=40
165600 On ch=1 n=b4 v=0
165600 On ch=1 n=c4 v=40
166080 On ch=1 n=c4 v=0
166080 On ch=1 n=c5 v=40
166080 On ch=1 n=g4 v=40
166560 On ch=1 n=g4 v=0
166560 On ch=1 n=c5 v=0
166560 On ch=1 n=a4 v=40
166560 On ch=1 n=c5 v=40
167040 On ch=1 n=c5 v=0
167040 On ch=1 n=a4 v=0
167040 On ch=1 n=e3 v=40
167520 On ch=1 n=e3 v=0
167520 On ch=1 n=d5 v=40
167760 On ch=1 n=d5 v=0
167760 On ch=1 n=e4 v=40
168000 On ch=1 n=e4 v=0
168000 On ch=1 n=f4 v=40
168240 On ch=1 n=f4 v=0
168240 On ch=1 n=e4 v=40
168480 On ch=1 n=e4 v=0
168480 On ch=1 n=a3 v=40
168960 On ch=1 n=a3 v=0
168960 On ch=1 n=c5 v=40
168960 On ch=1 n=a4 v=40
168960 On ch=1 n=e4 v=40
169440 On ch=1 n=e4 v=0
169440 On ch=1 n=a4 v=0
169440 On ch=1 n=c5 v=0
169440 On ch=1 n=a4 v=40
169440 On ch=1 n=c5 v=40
169440 On ch=1 n=e4 v=40
169920 On ch=1 n=e4 v=0
169920 On ch=1 n=c5 v=0
169920 On ch=1 n=a4 v=0
169920 On ch=1 n=e3 v=40
170400 On ch=1 n=e3 v=0
170400 On ch=1 n=b3 v=50
170880 On ch=1 n=b3 v=0
170880 On ch=1 n=g#4 v=61
171360 On ch=1 n=g#4 v=0
171360 On ch=1 n=d5 v=72
171840 On ch=1 n=d5 v=0
172800 On ch=1 n=a3 v=100
173280 On ch=1 n=a3 v=0
173280 On ch=1 n=e4 v=100
173280 On ch=1 n=c#5 v=100
173760 On ch=1 n=c#5 v=0
173760 On ch=1 n=e4 v=0
173760 On ch=1 n=g4 v=100
173760 On ch=1 n=e4 v=100
173760 On ch=1 n=c#5 v=100
174240 On ch=1 n=c#5 v=0
174240 On ch=1 n=e4 v=0
174240 On ch=1 n=g4 v=0
174240 On ch=1 n=d4 v=100
174720 On ch=1 n=d4 v=0
174720 On ch=1 n=d5 v=100
174720 On ch=1 n=f#4 v=100
175200 On ch=1 n=f#4 v=0
175200 On ch=1 n=d5 v=0
175200 On ch=1 n=b4 v=100
175200 On ch=1 n=d5 v=100
175200 On ch=1 n=f#4 v=100
175680 On ch=1 n=f#4 v=0
175680 On ch=1 n=d5 v=0
175680 On ch=1 n=b4 v=0
175680 On ch=1 n=e4 v=100
176160 On ch=1 n=d5 v=100
176160 On ch=1 n=b4 v=100
176640 On ch=1 n=e4 v=0
176640 On ch=1 n=f4 v=100
177120 On ch=1 n=f4 v=0
177120 On ch=1 n=b4 v=0
177120 On ch=1 n=d5 v=0
177120 On ch=1 n=f#4 v=100
177600 On ch=1 n=c#5 v=100
177600 On ch=1 n=a4 v=100
178080 On ch=1 n=a4 v=0
178080 On ch=1 n=c#5 v=0
178080 On ch=1 n=a4 v=100
178080 On ch=1 n=c#5 v=100
178560 On ch=1 n=c#5 v=0
178560 On ch=1 n=a4 v=0
178560 On ch=1 n=f#4 v=0
178560 On ch=1 n=e4 v=100
179040 On ch=1 n=e5 v=100
179040 On ch=1 n=b4 v=100
179040 On ch=1 n=g#4 v=100
179520 On ch=1 n=g#4 v=0
179520 On ch=1 n=b4 v=0
179520 On ch=1 n=e5 v=0
179520 On ch=1 n=e4 v=0
179520 On ch=1 n=d4 v=100
180000 On ch=1 n=d4 v=0
180000 On ch=1 n=c#4 v=100
180480 On ch=1 n=c#4 v=0
180480 On ch=1 n=f5 v=100
180480 On ch=1 n=b4 v=100
180480 On ch=1 n=g#4 v=100
180960 On ch=1 n=g#4 v=0
180960 On ch=1 n=b4 v=0
180960 On ch=1 n=f5 v=0
180960 On ch=1 n=f#4 v=100
180960 On ch=1 n=a4 v=100
180960 On ch=1 n=f#5 v=100
181440 On ch=1 n=f#5 v=0
181440 On ch=1 n=a4 v=0
181440 On ch=1 n=f#4 v=0
181440 On ch=1 n=d4 v=100
181920 On ch=1 n=d5 v=100
181920 On ch=1 n=b4 v=100
181920 On ch=1 n=f#4 v=100
182400 On ch=1 n=f#4 v=0
182400 On ch=1 n=b4 v=0
182400 On ch=1 n=d5 v=0
182400 On ch=1 n=d4 v=0
182400 On ch=1 n=b3 v=100
182880 On ch=1 n=b3 v=0
182880 On ch=1 n=e4 v=100
183360 On ch=1 n=f#5 v=100
183360 On ch=1 n=d5 v=100
183360 On ch=1 n=g#4 v=100
183840 On ch=1 n=g#4 v=0
183840 On ch=1 n=d5 v=0
183840 On ch=1 n=f#5 v=0
183840 On ch=1 n=e5 v=100
183840 On ch=1 n=d5 v=100
183840 On ch=1 n=g#4 v=100
184320 On ch=1 n=g#4 v=0
184320 On ch=1 n=d5 v=0
184320 On ch=1 n=e5 v=0
184320 On ch=1 n=e4 v=0
184320 On ch=1 n=a3 v=100
184800 On ch=1 n=a3 v=0
184800 On ch=1 n=c#5 v=100
184800 On ch=1 n=a4 v=100
184800 On ch=1 n=e4 v=100
185280 On ch=1 n=e4 v=0
185280 On ch=1 n=a4 v=0
185280 On ch=1 n=c#5 v=0
185280 On ch=1 n=a4 v=100
185280 On ch=1 n=c#5 v=100
185280 On ch=1 n=e4 v=100
185760 On ch=1 n=e4 v=0
185760 On ch=1 n=c#5 v=0
185760 On ch=1 n=a4 v=0
185760 On ch=1 n=d4 v=100
186240 On ch=1 n=b4 v=100
186240 On ch=1 n=f#4 v=100
186720 On ch=1 n=f#4 v=0
186720 On ch=1 n=b4 v=0
186720 On ch=1 n=b4 v=100
186720 On ch=1 n=f#4 v=100
187200 On ch=1 n=f#4 v=0
187200 On ch=1 n=b4 v=0
187200 On ch=1 n=d4 v=0
187200 On ch=1 n=e4 v=100
187680 On ch=1 n=d5 v=100
187680 On ch=1 n=b4 v=100
188160 On ch=1 n=b4 v=0
188160 On ch=1 n=d5 v=0
188160 On ch=1 n=d5 v=100
188160 On ch=1 n=b4 v=100
188640 On ch=1 n=b4 v=0
188640 On ch=1 n=d5 v=0
188640 On ch=1 n=e4 v=0
188640 On ch=1 n=f4 v=100
189120 On ch=1 n=a4 v=100
189120 On ch=1 n=c5 v=100
189600 On ch=1 n=f4 v=0
189600 On ch=1 n=d#4 v=100
190080 On ch=1 n=d#4 v=0
190080 On ch=1 n=c5 v=0
190080 On ch=1 n=a4 v=0
190080 On ch=1 n=e4 v=100
190560 On ch=1 n=e4 v=0
192960 On ch=1 n=e3 v=100
193440 On ch=1 n=e3 v=0
193440 On ch=1 n=d5 v=93
193440 On ch=1 n=g#4 v=93
193440 On ch=1 n=e4 v=93
193920 On ch=1 n=e4 v=0
193920 On ch=1 n=g#4 v=0
193920 On ch=1 n=d5 v=0
193920 On ch=1 n=e4 v=86
193920 On ch=1 n=g#4 v=86
193920 On ch=1 n=d5 v=86
194400 On ch=1 n=d5 v=0
194400 On ch=1 n=g#4 v=0
194400 On ch=1 n=e4 v=0
194400 On ch=1 n=a3 v=79
194880 On ch=1 n=e5 v=72
194880 On ch=1 n=a4 v=72
194880 On ch=1 n=e4 v=72
195360 On ch=1 n=e4 v=0
195360 On ch=1 n=a4 v=0
195360 On ch=1 n=e5 v=0
195360 On ch=1 n=a3 v=0
195840 On ch=1 n=a3 v=60
196320 On ch=1 n=a3 v=0
196320 On ch=1 n=c5 v=60
196320 On ch=1 n=a4 v=60
196320 On ch=1 n=e4 v=60
196800 On ch=1 n=e4 v=0
196800 On ch=1 n=a4 v=0
196800 On ch=1 n=c5 v=0
196800 On ch=1 n=c5 v=60
196800 On ch=1 n=a4 v=60
196800 On ch=1 n=e4 v=60
197280 On ch=1 n=e4 v=0
197280 On ch=1 n=a4 v=0
197280 On ch=1 n=c5 v=0
197280 On ch=1 n=d4 v=60
197760 On ch=1 n=d4 v=0
197760 On ch=1 n=d5 v=60
197760 On ch=1 n=a#4 v=60
197760 On ch=1 n=f4 v=60
198240 On ch=1 n=f4 v=0
198240 On ch=1 n=a#4 v=0
198240 On ch=1 n=d5 v=0
198240 On ch=1 n=d5 v=60
198240 On ch=1 n=a#4 v=60
198240 On ch=1 n=f4 v=60
198720 On ch=1 n=f4 v=0
198720 On ch=1 n=a#4 v=0
198720 On ch=1 n=d5 v=0
198720 On ch=1 n=e4 v=60
199200 On ch=1 n=d5 v=60
199200 On ch=1 n=b4 v=60
199680 On ch=1 n=b4 v=0
199680 On ch=1 n=d5 v=0
199680 On ch=1 n=d5 v=60
199680 On ch=1 n=b4 v=60
200160 On ch=1 n=b4 v=0
200160 On ch=1 n=d5 v=0
200160 On ch=1 n=e4 v=0
200160 On ch=1 n=f4 v=60
200640 On ch=1 n=c5 v=60
200640 On ch=1 n=a4 v=60
201120 On ch=1 n=a4 v=0
201120 On ch=1 n=c5 v=0
201120 On ch=1 n=c5 v=60
201120 On ch=1 n=a4 v=60
201600 On ch=1 n=a4 v=0
201600 On ch=1 n=c5 v=0
201600 On ch=1 n=f4 v=0
201600 On ch=1 n=e4 v=60
202080 On ch=1 n=e5 v=60
202080 On ch=1 n=b4 v=60
202080 On ch=1 n=g#4 v=60
202560 On ch=1 n=g#4 v=0
202560 On ch=1 n=b4 v=0
202560 On ch=1 n=e5 v=0
202560 On ch=1 n=e4 v=0
202560 On ch=1 n=d4 v=60
203040 On ch=1 n=d4 v=0
203040 On ch=1 n=c4 v=60
203520 On ch=1 n=e5 v=60
203520 On ch=1 n=a4 v=60
203520 On ch=1 n=e4 v=60
204000 On ch=1 n=e4 v=0
204000 On ch=1 n=a4 v=0
204000 On ch=1 n=e5 v=0
204000 On ch=1 n=e5 v=60
204000 On ch=1 n=a4 v=60
204000 On ch=1 n=e4 v=60
204480 On ch=1 n=e4 v=0
204480 On ch=1 n=a4 v=0
204480 On ch=1 n=e5 v=0
204480 On ch=1 n=c4 v=0
204480 On ch=1 n=d4 v=60
204960 On ch=1 n=d5 v=60
204960 On ch=1 n=a#4 v=60
204960 On ch=1 n=f4 v=60
205440 On ch=1 n=f4 v=0
205440 On ch=1 n=a#4 v=0
205440 On ch=1 n=d5 v=0
205440 On ch=1 n=d5 v=60
205440 On ch=1 n=a#4 v=60
205440 On ch=1 n=f4 v=60
205920 On ch=1 n=f4 v=0
205920 On ch=1 n=a#4 v=0
205920 On ch=1 n=d5 v=0
205920 On ch=1 n=d4 v=0
205920 On ch=1 n=e4 v=60
206400 On ch=1 n=f5 v=60
206400 On ch=1 n=d5 v=60
206400 On ch=1 n=g#4 v=60
206880 On ch=1 n=g#4 v=0
206880 On ch=1 n=d5 v=0
206880 On ch=1 n=f5 v=0
206880 On ch=1 n=d5 v=60
206880 On ch=1 n=e5 v=60
206880 On ch=1 n=g#4 v=60
207360 On ch=1 n=g#4 v=0
207360 On ch=1 n=e5 v=0
207360 On ch=1 n=d5 v=0
207360 On ch=1 n=e4 v=0
207360 On ch=1 n=a3 v=60
207840 On ch=1 n=a3 v=0
207840 On ch=1 n=c5 v=60
207840 On ch=1 n=a4 v=60
207840 On ch=1 n=e4 v=60
208320 On ch=1 n=e4 v=0
208320 On ch=1 n=a4 v=0
208320 On ch=1 n=c5 v=0
208320 On ch=1 n=a4 v=60
208320 On ch=1 n=c5 v=60
208320 On ch=1 n=e4 v=60
208800 On ch=1 n=e4 v=0
208800 On ch=1 n=c5 v=0
208800 On ch=1 n=a4 v=0
208800 On ch=1 n=d4 v=60
209280 On ch=1 n=a#4 v=60
209280 On ch=1 n=f4 v=60
209760 On ch=1 n=f4 v=0
209760 On ch=1 n=a#4 v=0
209760 On ch=1 n=a#4 v=60
209760 On ch=1 n=f4 v=60
210240 On ch=1 n=f4 v=0
210240 On ch=1 n=a#4 v=0
210240 On ch=1 n=d4 v=0
210240 On ch=1 n=e4 v=60
210720 On ch=1 n=d5 v=60
210720 On ch=1 n=b4 v=60
211200 On ch=1 n=b4 v=0
211200 On ch=1 n=d5 v=0
211200 On ch=1 n=d5 v=60
211200 On ch=1 n=b4 v=60
211680 On ch=1 n=b4 v=0
211680 On ch=1 n=d5 v=0
211680 On ch=1 n=e4 v=0
211680 On ch=1 n=f4 v=60
212160 On ch=1 n=c5 v=60
212160 On ch=1 n=a4 v=60
212640 On ch=1 n=f4 v=0
212640 On ch=1 n=d#4 v=60
213120 On ch=1 n=d#4 v=0
213120 On ch=1 n=a4 v=0
213120 On ch=1 n=c5 v=0
213120 On ch=1 n=e4 v=40
213600 On ch=1 n=e4 v=0
216000 On ch=1 n=e3 v=40
216480 On ch=1 n=e3 v=0
216480 On ch=1 n=d5 v=40
216480 On ch=1 n=g#4 v=40
216480 On ch=1 n=e4 v=40
216960 On ch=1 n=e4 v=0
216960 On ch=1 n=g#4 v=0
216960 On ch=1 n=d5 v=0
216960 On ch=1 n=e4 v=40
216960 On ch=1 n=g#4 v=40
216960 On ch=1 n=d5 v=40
217440 On ch=1 n=d5 v=0
217440 On ch=1 n=g#4 v=0
217440 On ch=1 n=e4 v=0
217440 On ch=1 n=a3 v=40
217920 On ch=1 n=a4 v=40
217920 On ch=1 n=e4 v=40
218400 On ch=1 n=e4 v=0
218400 On ch=1 n=a4 v=0
218400 On ch=1 n=a3 v=0
218880 On ch=1 n=e4 v=60
218880 On ch=1 n=a3 v=60
219840 On ch=1 n=e4 v=0
219840 On ch=1 n=d4 v=60
220080 On ch=1 n=d4 v=0
220080 On ch=1 n=e4 v=60
220320 On ch=1 n=e4 v=0
220320 On ch=1 n=f4 v=60
221280 On ch=1 n=f4 v=0
221280 On ch=1 n=g4 v=60
221520 On ch=1 n=g4 v=0
221520 On ch=1 n=f4 v=60
221760 On ch=1 n=f4 v=0
221760 On ch=1 n=e4 v=60
222720 On ch=1 n=e4 v=0
222720 On ch=1 n=d4 v=60
222960 On ch=1 n=d4 v=0
222960 On ch=1 n=e4 v=60
223200 On ch=1 n=e4 v=0
223200 On ch=1 n=f4 v=60
224160 On ch=1 n=f4 v=0
224160 On ch=1 n=g4 v=60
224400 On ch=1 n=g4 v=0
224400 On ch=1 n=f4 v=60
224640 On ch=1 n=f4 v=0
224640 On ch=1 n=a3 v=0
224640 On ch=1 n=e4 v=60
224720 On ch=1 n=e4 v=0
224720 On ch=1 n=f4 v=60
224800 On ch=1 n=f4 v=0
224800 On ch=1 n=e4 v=60
224880 On ch=1 n=e4 v=0
224880 On ch=1 n=f4 v=60
224940 On ch=1 n=f4 v=0
224940 On ch=1 n=e4 v=60
225000 On ch=1 n=e4 v=0
225000 On ch=1 n=f4 v=60
225060 On ch=1 n=f4 v=0
225060 On ch=1 n=e4 v=60
225120 On ch=1 n=e4 v=0
225120 On ch=1 n=f4 v=60
225180 On ch=1 n=f4 v=0
225180 On ch=1 n=e4 v=60
225240 On ch=1 n=e4 v=0
225240 On ch=1 n=f4 v=60
225300 On ch=1 n=f4 v=0
225300 On ch=1 n=e4 v=60
225360 On ch=1 n=e4 v=0
225360 On ch=1 n=f4 v=60
225420 On ch=1 n=f4 v=0
225420 On ch=1 n=e4 v=60
225480 On ch=1 n=e4 v=0
225480 On ch=1 n=f4 v=60
225540 On ch=1 n=f4 v=0
225540 On ch=1 n=e4 v=60
225600 On ch=1 n=e4 v=0
225600 On ch=1 n=d#4 v=60
225840 On ch=1 n=d#4 v=0
225840 On ch=1 n=e4 v=60
226080 On ch=1 n=c5 v=60
227040 On ch=1 n=c5 v=0
227040 On ch=1 n=b4 v=60
227280 On ch=1 n=b4 v=0
227280 On ch=1 n=a4 v=60
227520 On ch=1 n=a4 v=0
227520 On ch=1 n=b4 v=60
228000 On ch=1 n=b4 v=0
228000 On ch=1 n=c5 v=60
228240 On ch=1 n=c5 v=0
228240 On ch=1 n=b4 v=60
228480 On ch=1 n=b4 v=0
228480 On ch=1 n=a#4 v=60
228720 On ch=1 n=a#4 v=0
228720 On ch=1 n=b4 v=60
228960 On ch=1 n=b4 v=0
228960 On ch=1 n=e5 v=60
229920 On ch=1 n=e5 v=0
229920 On ch=1 n=e4 v=0
229920 On ch=1 n=e4 v=60
230400 On ch=1 n=e4 v=0
230400 On ch=1 n=e4 v=60
230400 On ch=1 n=a3 v=60
231360 On ch=1 n=e4 v=0
231360 On ch=1 n=d4 v=60
231600 On ch=1 n=d4 v=0
231600 On ch=1 n=e4 v=60
231840 On ch=1 n=e4 v=0
231840 On ch=1 n=f4 v=60
232800 On ch=1 n=f4 v=0
232800 On ch=1 n=g4 v=60
233040 On ch=1 n=g4 v=0
233040 On ch=1 n=f4 v=60
233280 On ch=1 n=f4 v=0
233280 On ch=1 n=e4 v=60
234240 On ch=1 n=e4 v=0
234240 On ch=1 n=d4 v=60
234480 On ch=1 n=d4 v=0
234480 On ch=1 n=e4 v=60
234720 On ch=1 n=e4 v=0
234720 On ch=1 n=f4 v=60
235680 On ch=1 n=f4 v=0
235680 On ch=1 n=g4 v=60
235920 On ch=1 n=g4 v=0
235920 On ch=1 n=f4 v=60
236160 On ch=1 n=f4 v=0
236160 On ch=1 n=a3 v=0
236160 On ch=1 n=e4 v=60
236240 On ch=1 n=e4 v=0
236240 On ch=1 n=f4 v=60
236320 On ch=1 n=f4 v=0
236320 On ch=1 n=e4 v=60
236400 On ch=1 n=e4 v=0
236400 On ch=1 n=f4 v=60
236460 On ch=1 n=f4 v=0
236460 On ch=1 n=e4 v=60
236520 On ch=1 n=e4 v=0
236520 On ch=1 n=f4 v=60
236580 On ch=1 n=f4 v=0
236580 On ch=1 n=e4 v=60
236640 On ch=1 n=e4 v=0
236640 On ch=1 n=f4 v=60
236700 On ch=1 n=f4 v=0
236700 On ch=1 n=e4 v=60
236760 On ch=1 n=e4 v=0
236760 On ch=1 n=f4 v=60
236820 On ch=1 n=f4 v=0
236820 On ch=1 n=e4 v=60
236880 On ch=1 n=e4 v=0
236880 On ch=1 n=f4 v=60
236940 On ch=1 n=f4 v=0
236940 On ch=1 n=e4 v=60
237000 On ch=1 n=e4 v=0
237000 On ch=1 n=f4 v=60
237060 On ch=1 n=f4 v=0
237060 On ch=1 n=e4 v=60
237120 On ch=1 n=e4 v=0
237120 On ch=1 n=d#4 v=60
237360 On ch=1 n=d#4 v=0
237360 On ch=1 n=e4 v=60
237600 On ch=1 n=c5 v=60
238560 On ch=1 n=c5 v=0
238560 On ch=1 n=b4 v=60
238800 On ch=1 n=b4 v=0
238800 On ch=1 n=a4 v=60
239040 On ch=1 n=a4 v=0
239040 On ch=1 n=b4 v=60
240000 On ch=1 n=b4 v=0
240000 On ch=1 n=c5 v=60
240240 On ch=1 n=c5 v=0
240240 On ch=1 n=b4 v=60
240480 On ch=1 n=b4 v=0
240480 On ch=1 n=e4 v=0
240480 On ch=1 n=a4 v=60
241860 On ch=1 n=g3 v=60
241920 On ch=1 n=g3 v=0
241920 On ch=1 n=a4 v=0
241920 On ch=1 n=a4 v=60
242400 On ch=1 n=a4 v=0
242400 On ch=1 n=g4 v=60
242640 On ch=1 n=g4 v=0
242640 On ch=1 n=f4 v=60
242880 On ch=1 n=f4 v=0
242880 On ch=1 n=e4 v=60
243120 On ch=1 n=e4 v=0
243120 On ch=1 n=d4 v=60
243360 On ch=1 n=d4 v=0
243360 On ch=1 n=c4 v=60
243600 On ch=1 n=c4 v=0
243600 On ch=1 n=d4 v=60
243840 On ch=1 n=d4 v=0
243840 On ch=1 n=e4 v=60
244080 On ch=1 n=e4 v=0
244080 On ch=1 n=f4 v=60
244320 On ch=1 n=f4 v=0
244320 On ch=1 n=f#4 v=60
244560 On ch=1 n=f#4 v=0
244560 On ch=1 n=g4 v=60
244800 On ch=1 n=g4 v=0
244800 On ch=1 n=a4 v=60
245040 On ch=1 n=a4 v=0
245040 On ch=1 n=g4 v=60
245280 On ch=1 n=g4 v=0
245280 On ch=1 n=f#4 v=60
245520 On ch=1 n=f#4 v=0
245520 On ch=1 n=g4 v=60
245760 On ch=1 n=g4 v=0
245760 On ch=1 n=a4 v=60
246000 On ch=1 n=a4 v=0
246000 On ch=1 n=b4 v=60
246240 On ch=1 n=b4 v=0
246240 On ch=1 n=c5 v=60
246480 On ch=1 n=c5 v=0
246480 On ch=1 n=d5 v=60
246720 On ch=1 n=d5 v=0
246720 On ch=1 n=c5 v=60
246960 On ch=1 n=c5 v=0
246960 On ch=1 n=b4 v=60
247200 On ch=1 n=b4 v=0
247200 On ch=1 n=c5 v=60
247440 On ch=1 n=c5 v=0
247440 On ch=1 n=d5 v=60
247680 On ch=1 n=d5 v=0
247680 On ch=1 n=f5 v=60
248160 On ch=1 n=f5 v=0
248160 On ch=1 n=e5 v=59
248400 On ch=1 n=e5 v=0
248400 On ch=1 n=d5 v=58
248640 On ch=1 n=d5 v=0
248640 On ch=1 n=c5 v=57
248880 On ch=1 n=c5 v=0
248880 On ch=1 n=b4 v=56
249120 On ch=1 n=b4 v=0
249120 On ch=1 n=d5 v=55
249360 On ch=1 n=d5 v=0
249360 On ch=1 n=c5 v=54
249600 On ch=1 n=c5 v=0
249600 On ch=1 n=b4 v=53
249840 On ch=1 n=b4 v=0
249840 On ch=1 n=a4 v=53
250080 On ch=1 n=a4 v=0
250080 On ch=1 n=g#4 v=52
250320 On ch=1 n=g#4 v=0
250320 On ch=1 n=a4 v=51
250560 On ch=1 n=a4 v=0
250560 On ch=1 n=b4 v=50
250800 On ch=1 n=b4 v=0
250800 On ch=1 n=a4 v=49
251040 On ch=1 n=a4 v=0
251040 On ch=1 n=g4 v=48
251280 On ch=1 n=g4 v=0
251280 On ch=1 n=f4 v=47
251520 On ch=1 n=f4 v=0
251520 On ch=1 n=e4 v=46
251760 On ch=1 n=e4 v=0
251760 On ch=1 n=f4 v=46
252000 On ch=1 n=f4 v=0
252000 On ch=1 n=g4 v=45
252240 On ch=1 n=g4 v=0
252240 On ch=1 n=f4 v=44
252480 On ch=1 n=f4 v=0
252480 On ch=1 n=e4 v=43
252720 On ch=1 n=e4 v=0
252720 On ch=1 n=f4 v=42
252960 On ch=1 n=f4 v=0
252960 On ch=1 n=g3 v=41
253200 On ch=1 n=g3 v=0
253200 On ch=1 n=f3 v=40
253440 On ch=1 n=f3 v=0
253440 On ch=1 n=e3 v=40
253680 On ch=1 n=e3 v=0
253680 On ch=1 n=b3 v=40
253920 On ch=1 n=b3 v=0
253920 On ch=1 n=e4 v=40
254160 On ch=1 n=e4 v=0
254160 On ch=1 n=g#4 v=40
254400 On ch=1 n=g#4 v=0
254400 On ch=1 n=b4 v=40
254640 On ch=1 n=b4 v=0
254640 On ch=1 n=e5 v=40
254880 On ch=1 n=e5 v=0
254880 On ch=1 n=g#5 v=40
255360 On ch=1 n=g#5 v=0
255360 On ch=1 n=f#5 v=40
255600 On ch=1 n=f#5 v=0
255600 On ch=1 n=e5 v=40
255840 On ch=1 n=e5 v=0
255840 On ch=1 n=d#5 v=40
256080 On ch=1 n=d#5 v=0
256080 On ch=1 n=c#5 v=40
256320 On ch=1 n=c#5 v=0
256320 On ch=1 n=d#5 v=40
256560 On ch=1 n=d#5 v=0
256560 On ch=1 n=c#5 v=40
256800 On ch=1 n=c#5 v=0
256800 On ch=1 n=b4 v=40
257040 On ch=1 n=b4 v=0
257040 On ch=1 n=f#4 v=40
257280 On ch=1 n=f#4 v=0
257280 On ch=1 n=b3 v=40
257760 On ch=1 n=b3 v=0
257760 On ch=1 n=d#5 v=40
258000 On ch=1 n=d#5 v=0
258000 On ch=1 n=c#5 v=40
258240 On ch=1 n=c#5 v=0
258240 On ch=1 n=b4 v=40
258480 On ch=1 n=b4 v=0
258480 On ch=1 n=f#4 v=40
258720 On ch=1 n=f#4 v=0
258720 On ch=1 n=b3 v=40
259200 On ch=1 n=b3 v=0
259200 On ch=1 n=e3 v=40
259440 On ch=1 n=e3 v=0
259440 On ch=1 n=b3 v=40
259680 On ch=1 n=b3 v=0
259680 On ch=1 n=e4 v=40
259920 On ch=1 n=e4 v=0
259920 On ch=1 n=g#4 v=40
260160 On ch=1 n=g#4 v=0
260160 On ch=1 n=b4 v=40
260400 On ch=1 n=b4 v=0
260400 On ch=1 n=e5 v=40
260640 On ch=1 n=e5 v=0
260640 On ch=1 n=g#5 v=40
261120 On ch=1 n=g#5 v=0
261120 On ch=1 n=f#5 v=40
261360 On ch=1 n=f#5 v=0
261360 On ch=1 n=e5 v=40
261600 On ch=1 n=e5 v=0
261600 On ch=1 n=d#5 v=40
261840 On ch=1 n=d#5 v=0
261840 On ch=1 n=c#5 v=40
262080 On ch=1 n=c#5 v=0
262080 On ch=1 n=d#5 v=40
262320 On ch=1 n=d#5 v=0
262320 On ch=1 n=c#5 v=40
262560 On ch=1 n=c#5 v=0
262560 On ch=1 n=b4 v=40
262800 On ch=1 n=b4 v=0
262800 On ch=1 n=f#4 v=40
263040 On ch=1 n=f#4 v=0
263040 On ch=1 n=b3 v=40
263520 On ch=1 n=b3 v=0
263520 On ch=1 n=d#5 v=40
263760 On ch=1 n=d#5 v=0
263760 On ch=1 n=c#5 v=40
264000 On ch=1 n=c#5 v=0
264000 On ch=1 n=b4 v=40
264240 On ch=1 n=b4 v=0
264240 On ch=1 n=f#4 v=40
264480 On ch=1 n=f#4 v=0
264480 On ch=1 n=b3 v=40
264960 On ch=1 n=b3 v=0
264960 On ch=1 n=e3 v=40
265200 On ch=1 n=e3 v=0
265200 On ch=1 n=b3 v=40
265440 On ch=1 n=b3 v=0
265440 On ch=1 n=e4 v=40
265680 On ch=1 n=e4 v=0
265680 On ch=1 n=g#4 v=40
265920 On ch=1 n=g#4 v=0
265920 On ch=1 n=b4 v=40
266160 On ch=1 n=b4 v=0
266160 On ch=1 n=e5 v=40
266400 On ch=1 n=e5 v=0
266400 On ch=1 n=g#5 v=40
266880 On ch=1 n=g#5 v=0
266880 On ch=1 n=e5 v=40
267120 On ch=1 n=e5 v=0
267120 On ch=1 n=b4 v=40
267360 On ch=1 n=b4 v=0
267360 On ch=1 n=g#4 v=40
267600 On ch=1 n=g#4 v=0
267600 On ch=1 n=e4 v=40
267840 On ch=1 n=e4 v=0
267840 On ch=1 n=e3 v=40
268080 On ch=1 n=e3 v=0
268080 On ch=1 n=b3 v=40
268320 On ch=1 n=b3 v=0
268320 On ch=1 n=e4 v=40
268560 On ch=1 n=e4 v=0
268560 On ch=1 n=b4 v=40
268800 On ch=1 n=b4 v=0
270720 On ch=1 n=e4 v=60
270720 On ch=1 n=a3 v=60
271680 On ch=1 n=e4 v=0
271680 On ch=1 n=d4 v=60
271920 On ch=1 n=d4 v=0
271920 On ch=1 n=e4 v=60
272160 On ch=1 n=e4 v=0
272160 On ch=1 n=f4 v=60
273120 On ch=1 n=f4 v=0
273120 On ch=1 n=g4 v=60
273360 On ch=1 n=g4 v=0
273360 On ch=1 n=f4 v=60
273600 On ch=1 n=f4 v=0
273600 On ch=1 n=e4 v=60
274560 On ch=1 n=e4 v=0
274560 On ch=1 n=d4 v=60
274800 On ch=1 n=d4 v=0
274800 On ch=1 n=e4 v=60
275040 On ch=1 n=e4 v=0
275040 On ch=1 n=f4 v=60
276000 On ch=1 n=f4 v=0
276000 On ch=1 n=g4 v=60
276240 On ch=1 n=g4 v=0
276240 On ch=1 n=f4 v=60
276480 On ch=1 n=f4 v=0
276480 On ch=1 n=a3 v=0
276480 On ch=1 n=e4 v=60
276560 On ch=1 n=e4 v=0
276560 On ch=1 n=f4 v=60
276640 On ch=1 n=f4 v=0
276640 On ch=1 n=e4 v=60
276720 On ch=1 n=e4 v=0
276720 On ch=1 n=f4 v=60
276780 On ch=1 n=f4 v=0
276780 On ch=1 n=e4 v=60
276840 On ch=1 n=e4 v=0
276840 On ch=1 n=f4 v=60
276900 On ch=1 n=f4 v=0
276900 On ch=1 n=e4 v=60
276960 On ch=1 n=e4 v=0
276960 On ch=1 n=f4 v=60
277020 On ch=1 n=f4 v=0
277020 On ch=1 n=e4 v=60
277080 On ch=1 n=e4 v=0
277080 On ch=1 n=f4 v=60
277140 On ch=1 n=f4 v=0
277140 On ch=1 n=e4 v=60
277200 On ch=1 n=e4 v=0
277200 On ch=1 n=f4 v=60
277260 On ch=1 n=f4 v=0
277260 On ch=1 n=e4 v=60
277320 On ch=1 n=e4 v=0
277320 On ch=1 n=f4 v=60
277380 On ch=1 n=f4 v=0
277380 On ch=1 n=e4 v=60
277440 On ch=1 n=e4 v=0
277440 On ch=1 n=d#4 v=60
277680 On ch=1 n=d#4 v=0
277680 On ch=1 n=e4 v=60
277920 On ch=1 n=c5 v=60
278880 On ch=1 n=c5 v=0
278880 On ch=1 n=b4 v=60
279120 On ch=1 n=b4 v=0
279120 On ch=1 n=a4 v=60
279360 On ch=1 n=a4 v=0
279360 On ch=1 n=b4 v=60
279840 On ch=1 n=b4 v=0
279840 On ch=1 n=c5 v=60
280080 On ch=1 n=c5 v=0
280080 On ch=1 n=b4 v=60
280320 On ch=1 n=b4 v=0
280320 On ch=1 n=a#4 v=60
280560 On ch=1 n=a#4 v=0
280560 On ch=1 n=b4 v=60
280800 On ch=1 n=b4 v=0
280800 On ch=1 n=e5 v=60
281760 On ch=1 n=e5 v=0
281760 On ch=1 n=e4 v=0
281760 On ch=1 n=e4 v=60
282240 On ch=1 n=e4 v=0
282240 On ch=1 n=e4 v=60
282240 On ch=1 n=a3 v=60
283200 On ch=1 n=e4 v=0
283200 On ch=1 n=d4 v=60
283440 On ch=1 n=d4 v=0
283440 On ch=1 n=e4 v=60
283680 On ch=1 n=e4 v=0
283680 On ch=1 n=f4 v=60
284640 On ch=1 n=f4 v=0
284640 On ch=1 n=g4 v=60
284880 On ch=1 n=g4 v=0
284880 On ch=1 n=f4 v=60
285120 On ch=1 n=f4 v=0
285120 On ch=1 n=e4 v=60
286080 On ch=1 n=e4 v=0
286080 On ch=1 n=d4 v=60
286320 On ch=1 n=d4 v=0
286320 On ch=1 n=e4 v=60
286560 On ch=1 n=e4 v=0
286560 On ch=1 n=f4 v=60
287520 On ch=1 n=f4 v=0
287520 On ch=1 n=g4 v=60
287760 On ch=1 n=g4 v=0
287760 On ch=1 n=f4 v=60
288000 On ch=1 n=f4 v=0
288000 On ch=1 n=a3 v=0
288000 On ch=1 n=e4 v=60
288080 On ch=1 n=e4 v=0
288080 On ch=1 n=f4 v=60
288160 On ch=1 n=f4 v=0
288160 On ch=1 n=e4 v=60
288240 On ch=1 n=e4 v=0
288240 On ch=1 n=f4 v=60
288300 On ch=1 n=f4 v=0
288300 On ch=1 n=e4 v=60
288360 On ch=1 n=e4 v=0
288360 On ch=1 n=f4 v=60
288420 On ch=1 n=f4 v=0
288420 On ch=1 n=e4 v=60
288480 On ch=1 n=e4 v=0
288480 On ch=1 n=f4 v=60
288540 On ch=1 n=f4 v=0
288540 On ch=1 n=e4 v=60
288600 On ch=1 n=e4 v=0
288600 On ch=1 n=f4 v=60
288660 On ch=1 n=f4 v=0
288660 On ch=1 n=e4 v=60
288720 On ch=1 n=e4 v=0
288720 On ch=1 n=f4 v=60
288780 On ch=1 n=f4 v=0
288780 On ch=1 n=e4 v=60
288840 On ch=1 n=e4 v=0
288840 On ch=1 n=f4 v=60
288900 On ch=1 n=f4 v=0
288900 On ch=1 n=e4 v=60
288960 On ch=1 n=e4 v=0
288960 On ch=1 n=d#4 v=60
289200 On ch=1 n=d#4 v=0
289200 On ch=1 n=e4 v=60
289440 On ch=1 n=c5 v=60
290400 On ch=1 n=c5 v=0
290400 On ch=1 n=b4 v=60
290640 On ch=1 n=b4 v=0
290640 On ch=1 n=a4 v=60
290880 On ch=1 n=a4 v=0
290880 On ch=1 n=b4 v=60
291840 On ch=1 n=b4 v=0
291840 On ch=1 n=c5 v=60
292080 On ch=1 n=c5 v=0
292080 On ch=1 n=b4 v=60
292320 On ch=1 n=b4 v=0
292320 On ch=1 n=e4 v=0
292320 On ch=1 n=a4 v=40
292800 On ch=1 n=a4 v=0
292800 Meta TrkEnd
TrkEnd
MTrk
0 SeqSpec 43 00 01 00
0 Meta TrkName "Pedal"
0 Meta 0x21 00
0 PrCh ch=1 p=0
0 Par ch=1 c=64 v=127
960 Par ch=1 c=64 v=0
1440 Par ch=1 c=64 v=127
2400 Par ch=1 c=64 v=0
2880 Par ch=1 c=64 v=127
3840 Par ch=1 c=64 v=0
4320 Par ch=1 c=64 v=127
5280 Par ch=1 c=64 v=0
5760 Par ch=1 c=64 v=127
6720 Par ch=1 c=64 v=0
7200 Par ch=1 c=64 v=127
8160 Par ch=1 c=64 v=0
8640 Par ch=1 c=64 v=127
9600 Par ch=1 c=64 v=0
10080 Par ch=1 c=64 v=127
11040 Par ch=1 c=64 v=0
11520 Par ch=1 c=64 v=127
12480 Par ch=1 c=64 v=0
12960 Par ch=1 c=64 v=127
13920 Par ch=1 c=64 v=0
14400 Par ch=1 c=64 v=127
15360 Par ch=1 c=64 v=0
15840 Par ch=1 c=64 v=127
16800 Par ch=1 c=64 v=0
17280 Par ch=1 c=64 v=127
18240 Par ch=1 c=64 v=0
18720 Par ch=1 c=64 v=127
19680 Par ch=1 c=64 v=0
20160 Par ch=1 c=64 v=127
21120 Par ch=1 c=64 v=0
21600 Par ch=1 c=64 v=127
22080 Par ch=1 c=64 v=0
23040 Par ch=1 c=64 v=127
23520 Par ch=1 c=64 v=0
24480 Par ch=1 c=64 v=127
24960 Par ch=1 c=64 v=0
25920 Par ch=1 c=64 v=127
26400 Par ch=1 c=64 v=0
27360 Par ch=1 c=64 v=127
27840 Par ch=1 c=64 v=0
28800 Par ch=1 c=64 v=127
29280 Par ch=1 c=64 v=0
30240 Par ch=1 c=64 v=127
30720 Par ch=1 c=64 v=0
31680 Par ch=1 c=64 v=127
32160 Par ch=1 c=64 v=0
33120 Par ch=1 c=64 v=127
33600 Par ch=1 c=64 v=0
34560 Par ch=1 c=64 v=127
35040 Par ch=1 c=64 v=0
36000 Par ch=1 c=64 v=127
36480 Par ch=1 c=64 v=0
37440 Par ch=1 c=64 v=127
37920 Par ch=1 c=64 v=0
38880 Par ch=1 c=64 v=127
39360 Par ch=1 c=64 v=0
40320 Par ch=1 c=64 v=127
41280 Par ch=1 c=64 v=0
41760 Par ch=1 c=64 v=127
42720 Par ch=1 c=64 v=0
43200 Par ch=1 c=64 v=127
44160 Par ch=1 c=64 v=0
44640 Par ch=1 c=64 v=127
45600 Par ch=1 c=64 v=0
46080 Par ch=1 c=64 v=127
47040 Par ch=1 c=64 v=0
47520 Par ch=1 c=64 v=127
48480 Par ch=1 c=64 v=0
48960 Par ch=1 c=64 v=127
49920 Par ch=1 c=64 v=0
50400 Par ch=1 c=64 v=127
51360 Par ch=1 c=64 v=0
51840 Par ch=1 c=64 v=127
52320 Par ch=1 c=64 v=0
53280 Par ch=1 c=64 v=127
53760 Par ch=1 c=64 v=0
54720 Par ch=1 c=64 v=127
55200 Par ch=1 c=64 v=0
56160 Par ch=1 c=64 v=127
56640 Par ch=1 c=64 v=0
57600 Par ch=1 c=64 v=127
58080 Par ch=1 c=64 v=0
59040 Par ch=1 c=64 v=127
59520 Par ch=1 c=64 v=0
60480 Par ch=1 c=64 v=127
60960 Par ch=1 c=64 v=0
61920 Par ch=1 c=64 v=127
62400 Par ch=1 c=64 v=0
63360 Par ch=1 c=64 v=127
63840 Par ch=1 c=64 v=0
64800 Par ch=1 c=64 v=127
65280 Par ch=1 c=64 v=0
66240 Par ch=1 c=64 v=127
66720 Par ch=1 c=64 v=0
67680 Par ch=1 c=64 v=127
68160 Par ch=1 c=64 v=0
69120 Par ch=1 c=64 v=127
69600 Par ch=1 c=64 v=0
70560 Par ch=1 c=64 v=127
71040 Par ch=1 c=64 v=0
72000 Par ch=1 c=64 v=127
74400 Par ch=1 c=64 v=0
74880 Par ch=1 c=64 v=127
75840 Par ch=1 c=64 v=0
76320 Par ch=1 c=64 v=127
77280 Par ch=1 c=64 v=0
77760 Par ch=1 c=64 v=127
78720 Par ch=1 c=64 v=0
79200 Par ch=1 c=64 v=127
80160 Par ch=1 c=64 v=0
80640 Par ch=1 c=64 v=127
81600 Par ch=1 c=64 v=0
82080 Par ch=1 c=64 v=127
83040 Par ch=1 c=64 v=0
83520 Par ch=1 c=64 v=127
84480 Par ch=1 c=64 v=0
84960 Par ch=1 c=64 v=127
85920 Par ch=1 c=64 v=0
92160 Par ch=1 c=64 v=127
94560 Par ch=1 c=64 v=0
95040 Par ch=1 c=64 v=127
96000 Par ch=1 c=64 v=0
96480 Par ch=1 c=64 v=127
96960 Par ch=1 c=64 v=0
115200 Par ch=1 c=64 v=127
117600 Par ch=1 c=64 v=0
118080 Par ch=1 c=64 v=127
119040 Par ch=1 c=64 v=0
120960 Par ch=1 c=64 v=127
121440 Par ch=1 c=64 v=0
122400 Par ch=1 c=64 v=127
122880 Par ch=1 c=64 v=0
123840 Par ch=1 c=64 v=127
124320 Par ch=1 c=64 v=0
125280 Par ch=1 c=64 v=127
125760 Par ch=1 c=64 v=0
126720 Par ch=1 c=64 v=127
127200 Par ch=1 c=64 v=0
128160 Par ch=1 c=64 v=127
128640 Par ch=1 c=64 v=0
129600 Par ch=1 c=64 v=127
130080 Par ch=1 c=64 v=0
131040 Par ch=1 c=64 v=127
131520 Par ch=1 c=64 v=0
132480 Par ch=1 c=64 v=127
132960 Par ch=1 c=64 v=0
133920 Par ch=1 c=64 v=127
134400 Par ch=1 c=64 v=0
135360 Par ch=1 c=64 v=127
135840 Par ch=1 c=64 v=0
136800 Par ch=1 c=64 v=127
137280 Par ch=1 c=64 v=0
138240 Par ch=1 c=64 v=127
139200 Par ch=1 c=64 v=0
139680 Par ch=1 c=64 v=127
140640 Par ch=1 c=64 v=0
141120 Par ch=1 c=64 v=127
142080 Par ch=1 c=64 v=0
142560 Par ch=1 c=64 v=127
143520 Par ch=1 c=64 v=0
144000 Par ch=1 c=64 v=127
144960 Par ch=1 c=64 v=0
145440 Par ch=1 c=64 v=127
146400 Par ch=1 c=64 v=0
146880 Par ch=1 c=64 v=127
147840 Par ch=1 c=64 v=0
148320 Par ch=1 c=64 v=127
149280 Par ch=1 c=64 v=0
149760 Par ch=1 c=64 v=127
150240 Par ch=1 c=64 v=0
151200 Par ch=1 c=64 v=127
151680 Par ch=1 c=64 v=0
152640 Par ch=1 c=64 v=127
153120 Par ch=1 c=64 v=0
154080 Par ch=1 c=64 v=127
154560 Par ch=1 c=64 v=0
155520 Par ch=1 c=64 v=127
156000 Par ch=1 c=64 v=0
156960 Par ch=1 c=64 v=127
157440 Par ch=1 c=64 v=0
158400 Par ch=1 c=64 v=127
158880 Par ch=1 c=64 v=0
159840 Par ch=1 c=64 v=127
160320 Par ch=1 c=64 v=0
161280 Par ch=1 c=64 v=127
161760 Par ch=1 c=64 v=0
162720 Par ch=1 c=64 v=127
163200 Par ch=1 c=64 v=0
164160 Par ch=1 c=64 v=127
164640 Par ch=1 c=64 v=0
165600 Par ch=1 c=64 v=127
166080 Par ch=1 c=64 v=0
167040 Par ch=1 c=64 v=127
167520 Par ch=1 c=64 v=0
168480 Par ch=1 c=64 v=127
168960 Par ch=1 c=64 v=0
169920 Par ch=1 c=64 v=127
172320 Par ch=1 c=64 v=0
172800 Par ch=1 c=64 v=127
173760 Par ch=1 c=64 v=0
174240 Par ch=1 c=64 v=127
175200 Par ch=1 c=64 v=0
175680 Par ch=1 c=64 v=127
176640 Par ch=1 c=64 v=0
177120 Par ch=1 c=64 v=127
178080 Par ch=1 c=64 v=0
178560 Par ch=1 c=64 v=127
179520 Par ch=1 c=64 v=0
180000 Par ch=1 c=64 v=127
180960 Par ch=1 c=64 v=0
181440 Par ch=1 c=64 v=127
182400 Par ch=1 c=64 v=0
182880 Par ch=1 c=64 v=127
183840 Par ch=1 c=64 v=0
190080 Par ch=1 c=64 v=127
192480 Par ch=1 c=64 v=0
192960 Par ch=1 c=64 v=127
193920 Par ch=1 c=64 v=0
194400 Par ch=1 c=64 v=127
194880 Par ch=1 c=64 v=0
213120 Par ch=1 c=64 v=127
215520 Par ch=1 c=64 v=0
216000 Par ch=1 c=64 v=127
216960 Par ch=1 c=64 v=0
218880 Par ch=1 c=64 v=127
219840 Par ch=1 c=64 v=0
220320 Par ch=1 c=64 v=127
221280 Par ch=1 c=64 v=0
221760 Par ch=1 c=64 v=127
222720 Par ch=1 c=64 v=0
223200 Par ch=1 c=64 v=127
224160 Par ch=1 c=64 v=0
224640 Par ch=1 c=64 v=127
225600 Par ch=1 c=64 v=0
226080 Par ch=1 c=64 v=127
227040 Par ch=1 c=64 v=0
227520 Par ch=1 c=64 v=127
228480 Par ch=1 c=64 v=0
228960 Par ch=1 c=64 v=127
229920 Par ch=1 c=64 v=0
230400 Par ch=1 c=64 v=127
231360 Par ch=1 c=64 v=0
231840 Par ch=1 c=64 v=127
232800 Par ch=1 c=64 v=0
233280 Par ch=1 c=64 v=127
234240 Par ch=1 c=64 v=0
234720 Par ch=1 c=64 v=127
235680 Par ch=1 c=64 v=0
236160 Par ch=1 c=64 v=127
237120 Par ch=1 c=64 v=0
237600 Par ch=1 c=64 v=127
238560 Par ch=1 c=64 v=0
239040 Par ch=1 c=64 v=127
240000 Par ch=1 c=64 v=0
253440 Par ch=1 c=64 v=127
254880 Par ch=1 c=64 v=0
256800 Par ch=1 c=64 v=127
257280 Par ch=1 c=64 v=0
258240 Par ch=1 c=64 v=127
258720 Par ch=1 c=64 v=0
259200 Par ch=1 c=64 v=127
260640 Par ch=1 c=64 v=0
262560 Par ch=1 c=64 v=127
263040 Par ch=1 c=64 v=0
264000 Par ch=1 c=64 v=127
264480 Par ch=1 c=64 v=0
264960 Par ch=1 c=64 v=127
270240 Par ch=1 c=64 v=0
270720 Par ch=1 c=64 v=127
271680 Par ch=1 c=64 v=0
272160 Par ch=1 c=64 v=127
273120 Par ch=1 c=64 v=0
273600 Par ch=1 c=64 v=127
274560 Par ch=1 c=64 v=0
275040 Par ch=1 c=64 v=127
276000 Par ch=1 c=64 v=0
276480 Par ch=1 c=64 v=127
277440 Par ch=1 c=64 v=0
277920 Par ch=1 c=64 v=127
278880 Par ch=1 c=64 v=0
279360 Par ch=1 c=64 v=127
280320 Par ch=1 c=64 v=0
280800 Par ch=1 c=64 v=127
281760 Par ch=1 c=64 v=0
282240 Par ch=1 c=64 v=127
283200 Par ch=1 c=64 v=0
283680 Par ch=1 c=64 v=127
284640 Par ch=1 c=64 v=0
285120 Par ch=1 c=64 v=127
286080 Par ch=1 c=64 v=0
286560 Par ch=1 c=64 v=127
287520 Par ch=1 c=64 v=0
288000 Par ch=1 c=64 v=127
288960 Par ch=1 c=64 v=0
289440 Par ch=1 c=64 v=127
290400 Par ch=1 c=64 v=0
290880 Par ch=1 c=64 v=127
291840 Par ch=1 c=64 v=0
292320 Par ch=1 c=64 v=127
293760 Par ch=1 c=64 v=0
293760 Meta TrkEnd
TrkEnd
MTrk
0 SeqSpec 43 00 01 00
0 Meta TrkName "F. Chopin Valse No. 03 in A- Op. 34-2"
0 Meta 0x21 00
0 Meta TrkEnd
TrkEnd
MTrk
0 SeqSpec 43 00 01 00
0 Meta TrkName "Jeruen E. Dery jawjaw@hotmail.com"
0 Meta 0x21 00
0 Meta TrkEnd
TrkEnd
