MFile 1 8 480
MTrk
0 Meta Text "\n"
0 TimeSig 3/4 24 8
0 KeySig -4 major
0 Tempo 283019
161280 KeySig -5 major
299520 KeySig -4 major
299520 Meta TrkEnd
TrkEnd
MTrk
0 SeqSpec 43 00 01 00
0 Meta TrkName "Upper Treble"
0 Meta 0x21 00
0 PrCh ch=1 p=0
0 On ch=1 n=d#5 v=100
480 On ch=1 n=d#5 v=0
480 On ch=1 n=d#5 v=100
720 On ch=1 n=d#5 v=0
720 On ch=1 n=d#5 v=100
960 On ch=1 n=d#5 v=0
960 On ch=1 n=d#5 v=100
1440 On ch=1 n=d#5 v=0
1440 On ch=1 n=f5 v=100
1680 On ch=1 n=f5 v=0
1680 On ch=1 n=d#5 v=100
1920 On ch=1 n=d#5 v=0
1920 On ch=1 n=c#5 v=100
2160 On ch=1 n=c#5 v=0
3360 On ch=1 n=c#6 v=105
3360 On ch=1 n=g6 v=105
3360 On ch=1 n=d#6 v=105
3360 On ch=1 n=g5 v=105
3480 On ch=1 n=g5 v=0
3480 On ch=1 n=d#6 v=0
3480 On ch=1 n=g6 v=0
3480 On ch=1 n=c#6 v=0
3840 On ch=1 n=g#5 v=110
3840 On ch=1 n=c#6 v=110
3840 On ch=1 n=d#6 v=110
3840 On ch=1 n=g#6 v=110
3960 On ch=1 n=g#6 v=0
3960 On ch=1 n=d#6 v=0
3960 On ch=1 n=c#6 v=0
3960 On ch=1 n=g#5 v=0
4320 On ch=1 n=a6 v=116
4320 On ch=1 n=d#6 v=116
4320 On ch=1 n=c#6 v=116
4320 On ch=1 n=a5 v=116
4440 On ch=1 n=a5 v=0
4440 On ch=1 n=c#6 v=0
4440 On ch=1 n=d#6 v=0
4440 On ch=1 n=a6 v=0
4800 On ch=1 n=a#5 v=120
4800 On ch=1 n=c#6 v=120
4800 On ch=1 n=d#6 v=120
4800 On ch=1 n=a#6 v=120
4920 On ch=1 n=a#6 v=0
4920 On ch=1 n=d#6 v=0
4920 On ch=1 n=c#6 v=0
4920 On ch=1 n=a#5 v=0
5760 On ch=1 n=d#5 v=100
6240 On ch=1 n=d#5 v=0
6240 On ch=1 n=d#5 v=100
6480 On ch=1 n=d#5 v=0
6480 On ch=1 n=d#5 v=100
6720 On ch=1 n=d#5 v=0
6720 On ch=1 n=d#5 v=100
7200 On ch=1 n=d#5 v=0
7200 On ch=1 n=f5 v=100
7440 On ch=1 n=f5 v=0
7440 On ch=1 n=d#5 v=100
7680 On ch=1 n=d#5 v=0
7680 On ch=1 n=c#5 v=100
7920 On ch=1 n=c#5 v=0
9120 On ch=1 n=a#5 v=105
9120 On ch=1 n=d#6 v=105
9120 On ch=1 n=a#6 v=105
9240 On ch=1 n=a#6 v=0
9240 On ch=1 n=d#6 v=0
9240 On ch=1 n=a#5 v=0
9600 On ch=1 n=b6 v=110
9600 On ch=1 n=d#6 v=110
9600 On ch=1 n=b5 v=110
9720 On ch=1 n=b5 v=0
9720 On ch=1 n=d#6 v=0
9720 On ch=1 n=b6 v=0
10080 On ch=1 n=c6 v=116
10080 On ch=1 n=d#6 v=116
10080 On ch=1 n=f#6 v=116
10080 On ch=1 n=c7 v=116
10200 On ch=1 n=c7 v=0
10200 On ch=1 n=f#6 v=0
10200 On ch=1 n=d#6 v=0
10200 On ch=1 n=c6 v=0
10560 On ch=1 n=c#6 v=120
10560 On ch=1 n=c#7 v=120
10560 On ch=1 n=g6 v=120
10560 On ch=1 n=d#6 v=120
10680 On ch=1 n=d#6 v=0
10680 On ch=1 n=g6 v=0
10680 On ch=1 n=c#7 v=0
10680 On ch=1 n=c#6 v=0
11520 On ch=1 n=d#5 v=100
12000 On ch=1 n=d#5 v=0
12000 On ch=1 n=d#5 v=100
12240 On ch=1 n=d#5 v=0
12240 On ch=1 n=d#5 v=100
12480 On ch=1 n=d#5 v=0
12480 On ch=1 n=d#5 v=100
12960 On ch=1 n=d#5 v=0
12960 On ch=1 n=f5 v=100
13200 On ch=1 n=f5 v=0
13200 On ch=1 n=d#5 v=100
13440 On ch=1 n=d#5 v=0
13440 On ch=1 n=c#5 v=100
13680 On ch=1 n=c#5 v=0
14400 On ch=1 n=f6 v=100
14640 On ch=1 n=f6 v=0
14640 On ch=1 n=d#6 v=101
14880 On ch=1 n=d#6 v=0
14880 On ch=1 n=c#6 v=103
15120 On ch=1 n=c#6 v=0
15120 On ch=1 n=a#5 v=105
15360 On ch=1 n=a#5 v=0
15360 On ch=1 n=d#5 v=106
15840 On ch=1 n=d#5 v=0
15840 On ch=1 n=f7 v=110
16080 On ch=1 n=f7 v=0
16080 On ch=1 n=d#7 v=111
16320 On ch=1 n=d#7 v=0
16320 On ch=1 n=c#7 v=113
16560 On ch=1 n=c#7 v=0
16560 On ch=1 n=a#6 v=115
16800 On ch=1 n=a#6 v=0
16800 On ch=1 n=d#6 v=117
17280 On ch=1 n=d#6 v=0
17280 On ch=1 n=f8 v=120
17520 On ch=1 n=f8 v=0
17520 On ch=1 n=d#8 v=120
17760 On ch=1 n=d#8 v=0
17760 On ch=1 n=c#8 v=119
18000 On ch=1 n=c#8 v=0
18000 On ch=1 n=a#7 v=118
18240 On ch=1 n=a#7 v=0
18240 On ch=1 n=d#7 v=117
18480 On ch=1 n=d#7 v=0
18480 On ch=1 n=f7 v=116
18720 On ch=1 n=f7 v=0
18720 On ch=1 n=d#7 v=115
18960 On ch=1 n=d#7 v=0
18960 On ch=1 n=c#7 v=114
19200 On ch=1 n=c#7 v=0
19200 On ch=1 n=a#6 v=113
19440 On ch=1 n=a#6 v=0
19440 On ch=1 n=d#6 v=113
19680 On ch=1 n=d#6 v=0
19680 On ch=1 n=f6 v=112
19920 On ch=1 n=f6 v=0
19920 On ch=1 n=d#6 v=111
20160 On ch=1 n=d#6 v=0
20160 On ch=1 n=c#6 v=110
20400 On ch=1 n=c#6 v=0
20400 On ch=1 n=a#5 v=109
20640 On ch=1 n=a#5 v=0
20640 On ch=1 n=d#5 v=108
20880 On ch=1 n=d#5 v=0
20880 On ch=1 n=f5 v=107
21120 On ch=1 n=f5 v=0
21120 On ch=1 n=d#5 v=106
21360 On ch=1 n=d#5 v=0
21360 On ch=1 n=c#5 v=106
21600 On ch=1 n=c#5 v=0
23040 On ch=1 n=d#5 v=100
23040 On ch=1 n=c6 v=100
24480 On ch=1 n=c6 v=0
24480 On ch=1 n=d#5 v=0
24480 On ch=1 n=c#6 v=100
24480 On ch=1 n=f5 v=100
25920 On ch=1 n=f5 v=0
25920 On ch=1 n=c#6 v=0
25920 On ch=1 n=d#5 v=100
25920 On ch=1 n=c6 v=100
26400 On ch=1 n=c6 v=0
26400 On ch=1 n=d#5 v=0
26400 On ch=1 n=c#5 v=100
26400 On ch=1 n=a#5 v=100
26880 On ch=1 n=a#5 v=0
26880 On ch=1 n=c#5 v=0
26880 On ch=1 n=d#5 v=100
26880 On ch=1 n=c6 v=100
27360 On ch=1 n=c6 v=0
27360 On ch=1 n=d#5 v=0
27360 On ch=1 n=a#5 v=100
27360 On ch=1 n=c#5 v=100
27840 On ch=1 n=c#5 v=0
27840 On ch=1 n=a#5 v=0
27840 On ch=1 n=g#5 v=100
27840 On ch=1 n=c5 v=100
28320 On ch=1 n=c5 v=0
28320 On ch=1 n=g#5 v=0
28800 On ch=1 n=a#5 v=100
28800 On ch=1 n=g6 v=100
30240 On ch=1 n=g6 v=0
30240 On ch=1 n=a#5 v=0
30240 On ch=1 n=g#6 v=100
30240 On ch=1 n=c6 v=100
31680 On ch=1 n=c6 v=0
31680 On ch=1 n=g#6 v=0
31680 On ch=1 n=a#5 v=100
31680 On ch=1 n=g6 v=100
32160 On ch=1 n=g6 v=0
32160 On ch=1 n=a#5 v=0
32160 On ch=1 n=g#5 v=100
32160 On ch=1 n=f6 v=100
32640 On ch=1 n=f6 v=0
32640 On ch=1 n=g#5 v=0
32640 On ch=1 n=a#5 v=100
32640 On ch=1 n=g6 v=100
33120 On ch=1 n=g6 v=0
33120 On ch=1 n=a#5 v=0
33120 On ch=1 n=g#5 v=100
33120 On ch=1 n=f6 v=100
33600 On ch=1 n=f6 v=0
33600 On ch=1 n=g#5 v=0
33600 On ch=1 n=g5 v=100
33600 On ch=1 n=d#6 v=100
34080 On ch=1 n=d#6 v=0
34080 On ch=1 n=g5 v=0
34080 On ch=1 n=f5 v=100
34080 On ch=1 n=c#6 v=100
34440 On ch=1 n=c6 v=100
34500 On ch=1 n=c6 v=0
34500 On ch=1 n=c#6 v=100
34560 On ch=1 n=c#6 v=0
34560 On ch=1 n=c#6 v=0
34560 On ch=1 n=f5 v=0
34560 On ch=1 n=d#5 v=100
34560 On ch=1 n=c6 v=100
35040 On ch=1 n=c6 v=0
35040 On ch=1 n=d#5 v=0
35040 On ch=1 n=d5 v=100
35040 On ch=1 n=b5 v=100
35520 On ch=1 n=b5 v=0
35520 On ch=1 n=d5 v=0
35520 On ch=1 n=d#5 v=100
35520 On ch=1 n=c6 v=100
35940 On ch=1 n=f#5 v=100
36000 On ch=1 n=c6 v=0
36000 On ch=1 n=d#5 v=0
36000 On ch=1 n=d#6 v=100
36960 On ch=1 n=d#6 v=0
36960 On ch=1 n=f#5 v=0
36960 On ch=1 n=f5 v=100
36960 On ch=1 n=c#6 v=100
37440 On ch=1 n=c#6 v=0
37440 On ch=1 n=f5 v=0
37440 On ch=1 n=d#5 v=100
37440 On ch=1 n=c6 v=100
37920 On ch=1 n=c6 v=0
37920 On ch=1 n=d#5 v=0
37920 On ch=1 n=c#5 v=100
37920 On ch=1 n=a#5 v=100
38400 On ch=1 n=a#5 v=0
38400 On ch=1 n=c#5 v=0
38400 On ch=1 n=d#5 v=100
38400 On ch=1 n=c6 v=100
38880 On ch=1 n=c6 v=0
38880 On ch=1 n=d#5 v=0
38880 On ch=1 n=c#5 v=100
38880 On ch=1 n=a#5 v=100
39360 On ch=1 n=a#5 v=0
39360 On ch=1 n=c#5 v=0
39360 On ch=1 n=c5 v=100
39360 On ch=1 n=g#5 v=100
39840 On ch=1 n=g#5 v=0
39840 On ch=1 n=c5 v=0
40200 On ch=1 n=g6 v=100
40260 On ch=1 n=g6 v=0
40260 On ch=1 n=g#6 v=100
40260 On ch=1 n=a#5 v=100
40320 On ch=1 n=g#6 v=0
40320 On ch=1 n=g6 v=100
40800 On ch=1 n=g6 v=0
40800 On ch=1 n=a#5 v=0
40800 On ch=1 n=a5 v=100
40800 On ch=1 n=f#6 v=100
41280 On ch=1 n=f#6 v=0
41280 On ch=1 n=a5 v=0
41280 On ch=1 n=a#5 v=100
41280 On ch=1 n=g6 v=100
41760 On ch=1 n=g6 v=0
41760 On ch=1 n=a#5 v=0
41760 On ch=1 n=a#6 v=100
41760 On ch=1 n=d6 v=100
42240 On ch=1 n=d6 v=0
42240 On ch=1 n=a#6 v=0
42240 On ch=1 n=a6 v=100
42240 On ch=1 n=c#6 v=100
42720 On ch=1 n=c#6 v=0
42720 On ch=1 n=a6 v=0
42720 On ch=1 n=g#6 v=100
42720 On ch=1 n=c6 v=100
43200 On ch=1 n=c6 v=0
43200 On ch=1 n=g#6 v=0
43200 On ch=1 n=a#5 v=100
43200 On ch=1 n=g6 v=100
43680 On ch=1 n=g6 v=0
43680 On ch=1 n=a#5 v=0
43680 On ch=1 n=g#5 v=100
43680 On ch=1 n=f6 v=100
44160 On ch=1 n=f6 v=0
44160 On ch=1 n=g#5 v=0
44160 On ch=1 n=a#5 v=100
44160 On ch=1 n=g6 v=100
44640 On ch=1 n=g6 v=0
44640 On ch=1 n=a#5 v=0
44640 On ch=1 n=f6 v=100
44640 On ch=1 n=g#5 v=100
45120 On ch=1 n=g#5 v=0
45120 On ch=1 n=f6 v=0
45120 On ch=1 n=d#6 v=100
45120 On ch=1 n=g5 v=100
45480 On ch=1 n=g#5 v=100
45540 On ch=1 n=g#5 v=0
45540 On ch=1 n=a#5 v=100
45600 On ch=1 n=a#5 v=0
45600 On ch=1 n=g5 v=0
45600 On ch=1 n=d#6 v=0
45600 On ch=1 n=g#5 v=100
46080 On ch=1 n=g#5 v=0
46080 On ch=1 n=g5 v=100
46320 On ch=1 n=g5 v=0
46320 On ch=1 n=c#6 v=100
46560 On ch=1 n=c#6 v=0
46560 On ch=1 n=d#6 v=100
46800 On ch=1 n=d#6 v=0
46800 On ch=1 n=g6 v=100
47040 On ch=1 n=g6 v=0
47040 On ch=1 n=c#7 v=100
47280 On ch=1 n=c#7 v=0
47280 On ch=1 n=f7 v=100
47400 On ch=1 n=d#7 v=100
47460 On ch=1 n=d#7 v=0
47460 On ch=1 n=f7 v=100
47520 On ch=1 n=f7 v=0
47520 On ch=1 n=f7 v=0
47520 On ch=1 n=d#7 v=100
48000 On ch=1 n=d#7 v=0
48000 On ch=1 n=c#7 v=100
48240 On ch=1 n=c#7 v=0
48240 On ch=1 n=g6 v=100
48480 On ch=1 n=g6 v=0
48480 On ch=1 n=f6 v=100
48720 On ch=1 n=f6 v=0
48720 On ch=1 n=d#6 v=100
48960 On ch=1 n=d#6 v=0
48960 On ch=1 n=g5 v=100
49200 On ch=1 n=g5 v=0
49200 On ch=1 n=c#6 v=100
49440 On ch=1 n=c#6 v=0
49440 On ch=1 n=d#6 v=100
49680 On ch=1 n=d#6 v=0
49680 On ch=1 n=g6 v=100
49920 On ch=1 n=g6 v=0
49920 On ch=1 n=c#7 v=100
50160 On ch=1 n=c#7 v=0
50160 On ch=1 n=f7 v=100
50280 On ch=1 n=d#7 v=100
50340 On ch=1 n=d#7 v=0
50340 On ch=1 n=f7 v=100
50400 On ch=1 n=f7 v=0
50400 On ch=1 n=f7 v=0
50400 On ch=1 n=d#7 v=100
50880 On ch=1 n=d#7 v=0
50880 On ch=1 n=c7 v=100
51120 On ch=1 n=c7 v=0
51120 On ch=1 n=g#6 v=100
51360 On ch=1 n=g#6 v=0
51360 On ch=1 n=f6 v=100
51600 On ch=1 n=f6 v=0
51600 On ch=1 n=d#6 v=100
51840 On ch=1 n=d#6 v=0
51840 On ch=1 n=g5 v=100
52080 On ch=1 n=g5 v=0
52080 On ch=1 n=c#6 v=100
52320 On ch=1 n=c#6 v=0
52320 On ch=1 n=d#6 v=100
52560 On ch=1 n=d#6 v=0
52560 On ch=1 n=g6 v=100
52800 On ch=1 n=g6 v=0
52800 On ch=1 n=c#7 v=100
53040 On ch=1 n=c#7 v=0
53040 On ch=1 n=f7 v=100
53160 On ch=1 n=d#7 v=100
53220 On ch=1 n=d#7 v=0
53220 On ch=1 n=f7 v=100
53280 On ch=1 n=f7 v=0
53280 On ch=1 n=f7 v=0
53280 On ch=1 n=d#7 v=100
53760 On ch=1 n=d#7 v=0
53760 On ch=1 n=c#7 v=100
54000 On ch=1 n=c#7 v=0
54000 On ch=1 n=g6 v=100
54240 On ch=1 n=g6 v=0
54240 On ch=1 n=f6 v=100
54480 On ch=1 n=f6 v=0
54480 On ch=1 n=d#6 v=100
54720 On ch=1 n=d#6 v=0
54720 On ch=1 n=g5 v=100
54960 On ch=1 n=g5 v=0
54960 On ch=1 n=c#6 v=100
55200 On ch=1 n=c#6 v=0
55200 On ch=1 n=d#6 v=100
55440 On ch=1 n=d#6 v=0
55440 On ch=1 n=g6 v=100
55680 On ch=1 n=g6 v=0
55680 On ch=1 n=c#7 v=100
55920 On ch=1 n=c#7 v=0
55920 On ch=1 n=g7 v=100
56160 On ch=1 n=g7 v=0
56160 On ch=1 n=g#7 v=100
56160 On ch=1 n=g#6 v=100
56280 On ch=1 n=g#6 v=0
56280 On ch=1 n=g#7 v=0
57000 On ch=1 n=g#5 v=60
57060 On ch=1 n=g#5 v=0
57060 On ch=1 n=a#5 v=60
57120 On ch=1 n=a#5 v=0
57120 On ch=1 n=g#5 v=60
57600 On ch=1 n=g#5 v=0
57600 On ch=1 n=g5 v=60
57840 On ch=1 n=g5 v=0
57840 On ch=1 n=c#6 v=60
58080 On ch=1 n=c#6 v=0
58080 On ch=1 n=d#6 v=60
58320 On ch=1 n=d#6 v=0
58320 On ch=1 n=g6 v=60
58560 On ch=1 n=g6 v=0
58560 On ch=1 n=c#7 v=60
58800 On ch=1 n=c#7 v=0
58800 On ch=1 n=f7 v=60
58920 On ch=1 n=f7 v=0
58920 On ch=1 n=d#7 v=60
58980 On ch=1 n=d#7 v=0
58980 On ch=1 n=f7 v=60
59040 On ch=1 n=f7 v=0
59040 On ch=1 n=d#7 v=60
59520 On ch=1 n=d#7 v=0
59520 On ch=1 n=c#7 v=60
59760 On ch=1 n=c#7 v=0
59760 On ch=1 n=g6 v=60
60000 On ch=1 n=g6 v=0
60000 On ch=1 n=f6 v=60
60240 On ch=1 n=f6 v=0
60240 On ch=1 n=d#6 v=60
60480 On ch=1 n=d#6 v=0
60480 On ch=1 n=g5 v=60
60720 On ch=1 n=g5 v=0
60720 On ch=1 n=c#6 v=60
60960 On ch=1 n=c#6 v=0
60960 On ch=1 n=d#6 v=60
61200 On ch=1 n=d#6 v=0
61200 On ch=1 n=g6 v=60
61440 On ch=1 n=g6 v=0
61440 On ch=1 n=c#7 v=60
61680 On ch=1 n=c#7 v=0
61680 On ch=1 n=f7 v=60
61800 On ch=1 n=f7 v=0
61800 On ch=1 n=d#7 v=60
61860 On ch=1 n=d#7 v=0
61860 On ch=1 n=f7 v=60
61920 On ch=1 n=f7 v=0
61920 On ch=1 n=d#7 v=60
62400 On ch=1 n=d#7 v=0
62400 On ch=1 n=c7 v=60
62640 On ch=1 n=c7 v=0
62640 On ch=1 n=g#6 v=60
62880 On ch=1 n=g#6 v=0
62880 On ch=1 n=f6 v=60
63120 On ch=1 n=f6 v=0
63120 On ch=1 n=d#6 v=60
63360 On ch=1 n=d#6 v=0
63360 On ch=1 n=g5 v=60
63600 On ch=1 n=g5 v=0
63600 On ch=1 n=c#6 v=60
63840 On ch=1 n=c#6 v=0
63840 On ch=1 n=d#6 v=60
64080 On ch=1 n=d#6 v=0
64080 On ch=1 n=g6 v=60
64320 On ch=1 n=g6 v=0
64320 On ch=1 n=c#7 v=60
64560 On ch=1 n=c#7 v=0
64560 On ch=1 n=f7 v=60
64680 On ch=1 n=f7 v=0
64680 On ch=1 n=d#7 v=60
64740 On ch=1 n=d#7 v=0
64740 On ch=1 n=f7 v=60
64800 On ch=1 n=f7 v=0
64800 On ch=1 n=d#7 v=60
65280 On ch=1 n=d#7 v=0
65280 On ch=1 n=c#7 v=60
65520 On ch=1 n=c#7 v=0
65520 On ch=1 n=g6 v=60
65760 On ch=1 n=g6 v=0
65760 On ch=1 n=f6 v=60
66000 On ch=1 n=f6 v=0
66000 On ch=1 n=d#6 v=60
66240 On ch=1 n=d#6 v=0
66240 On ch=1 n=g5 v=60
66480 On ch=1 n=g5 v=0
66480 On ch=1 n=c#6 v=71
66720 On ch=1 n=c#6 v=0
66720 On ch=1 n=d#6 v=83
66960 On ch=1 n=d#6 v=0
66960 On ch=1 n=g6 v=95
67200 On ch=1 n=g6 v=0
67200 On ch=1 n=c#7 v=107
67440 On ch=1 n=c#7 v=0
67440 On ch=1 n=g7 v=119
67680 On ch=1 n=g7 v=0
67680 On ch=1 n=g#7 v=120
67680 On ch=1 n=g#6 v=120
67800 On ch=1 n=g#6 v=0
67800 On ch=1 n=g#7 v=0
68640 On ch=1 n=d#5 v=100
69120 On ch=1 n=d#5 v=0
69120 On ch=1 n=d#5 v=100
69120 On ch=1 n=c6 v=100
70560 On ch=1 n=c6 v=0
70560 On ch=1 n=d#5 v=0
70560 On ch=1 n=c#6 v=100
70560 On ch=1 n=f5 v=100
72000 On ch=1 n=f5 v=0
72000 On ch=1 n=c#6 v=0
72000 On ch=1 n=d#5 v=100
72000 On ch=1 n=c6 v=100
72480 On ch=1 n=c6 v=0
72480 On ch=1 n=d#5 v=0
72480 On ch=1 n=c#5 v=100
72480 On ch=1 n=a#5 v=100
72960 On ch=1 n=a#5 v=0
72960 On ch=1 n=c#5 v=0
72960 On ch=1 n=d#5 v=100
72960 On ch=1 n=c6 v=100
73440 On ch=1 n=c6 v=0
73440 On ch=1 n=d#5 v=0
73440 On ch=1 n=a#5 v=100
73440 On ch=1 n=c#5 v=100
73920 On ch=1 n=c#5 v=0
73920 On ch=1 n=a#5 v=0
73920 On ch=1 n=g#5 v=100
73920 On ch=1 n=c5 v=100
74400 On ch=1 n=c5 v=0
74400 On ch=1 n=g#5 v=0
74880 On ch=1 n=a#5 v=100
74880 On ch=1 n=g6 v=100
76320 On ch=1 n=g6 v=0
76320 On ch=1 n=a#5 v=0
76320 On ch=1 n=g#6 v=100
76320 On ch=1 n=c6 v=100
77760 On ch=1 n=c6 v=0
77760 On ch=1 n=g#6 v=0
77760 On ch=1 n=a#5 v=100
77760 On ch=1 n=g6 v=100
78240 On ch=1 n=g6 v=0
78240 On ch=1 n=a#5 v=0
78240 On ch=1 n=g#5 v=100
78240 On ch=1 n=f6 v=100
78720 On ch=1 n=f6 v=0
78720 On ch=1 n=g#5 v=0
78720 On ch=1 n=a#5 v=100
78720 On ch=1 n=g6 v=100
79200 On ch=1 n=g6 v=0
79200 On ch=1 n=a#5 v=0
79200 On ch=1 n=g#5 v=100
79200 On ch=1 n=f6 v=100
79680 On ch=1 n=f6 v=0
79680 On ch=1 n=g#5 v=0
79680 On ch=1 n=g5 v=100
79680 On ch=1 n=d#6 v=100
80160 On ch=1 n=d#6 v=0
80160 On ch=1 n=g5 v=0
80160 On ch=1 n=f5 v=100
80160 On ch=1 n=c#6 v=100
80520 On ch=1 n=c6 v=100
80580 On ch=1 n=c6 v=0
80580 On ch=1 n=c#6 v=100
80640 On ch=1 n=c#6 v=0
80640 On ch=1 n=c#6 v=0
80640 On ch=1 n=f5 v=0
80640 On ch=1 n=d#5 v=100
80640 On ch=1 n=c6 v=100
81120 On ch=1 n=c6 v=0
81120 On ch=1 n=d#5 v=0
81120 On ch=1 n=d5 v=100
81120 On ch=1 n=b5 v=100
81600 On ch=1 n=b5 v=0
81600 On ch=1 n=d5 v=0
81600 On ch=1 n=d#5 v=100
81600 On ch=1 n=c6 v=100
82020 On ch=1 n=f#5 v=100
82080 On ch=1 n=c6 v=0
82080 On ch=1 n=d#5 v=0
82080 On ch=1 n=d#6 v=100
83040 On ch=1 n=d#6 v=0
83040 On ch=1 n=f#5 v=0
83040 On ch=1 n=f5 v=100
83040 On ch=1 n=c#6 v=100
83520 On ch=1 n=c#6 v=0
83520 On ch=1 n=f5 v=0
83520 On ch=1 n=d#5 v=100
83520 On ch=1 n=c6 v=100
84000 On ch=1 n=c6 v=0
84000 On ch=1 n=d#5 v=0
84000 On ch=1 n=c#5 v=100
84000 On ch=1 n=a#5 v=100
84480 On ch=1 n=a#5 v=0
84480 On ch=1 n=c#5 v=0
84480 On ch=1 n=d#5 v=100
84480 On ch=1 n=c6 v=100
84960 On ch=1 n=c6 v=0
84960 On ch=1 n=d#5 v=0
84960 On ch=1 n=c#5 v=100
84960 On ch=1 n=a#5 v=100
85440 On ch=1 n=a#5 v=0
85440 On ch=1 n=c#5 v=0
85440 On ch=1 n=c5 v=100
85440 On ch=1 n=g#5 v=100
85920 On ch=1 n=g#5 v=0
85920 On ch=1 n=c5 v=0
86280 On ch=1 n=g6 v=100
86340 On ch=1 n=g6 v=0
86340 On ch=1 n=g#6 v=100
86340 On ch=1 n=a#5 v=100
86400 On ch=1 n=g#6 v=0
86400 On ch=1 n=g6 v=100
86880 On ch=1 n=g6 v=0
86880 On ch=1 n=a#5 v=0
86880 On ch=1 n=a5 v=100
86880 On ch=1 n=f#6 v=100
87360 On ch=1 n=f#6 v=0
87360 On ch=1 n=a5 v=0
87360 On ch=1 n=a#5 v=100
87360 On ch=1 n=g6 v=100
87840 On ch=1 n=g6 v=0
87840 On ch=1 n=a#5 v=0
87840 On ch=1 n=a#6 v=100
87840 On ch=1 n=d6 v=100
88320 On ch=1 n=d6 v=0
88320 On ch=1 n=a#6 v=0
88320 On ch=1 n=a6 v=100
88320 On ch=1 n=c#6 v=100
88800 On ch=1 n=c#6 v=0
88800 On ch=1 n=a6 v=0
88800 On ch=1 n=g#6 v=100
88800 On ch=1 n=c6 v=100
89280 On ch=1 n=c6 v=0
89280 On ch=1 n=g#6 v=0
89280 On ch=1 n=a#5 v=100
89280 On ch=1 n=g6 v=100
89760 On ch=1 n=g6 v=0
89760 On ch=1 n=a#5 v=0
89760 On ch=1 n=g#5 v=100
89760 On ch=1 n=f6 v=100
90240 On ch=1 n=f6 v=0
90240 On ch=1 n=g#5 v=0
90240 On ch=1 n=a#5 v=100
90240 On ch=1 n=g6 v=100
90720 On ch=1 n=g6 v=0
90720 On ch=1 n=a#5 v=0
90720 On ch=1 n=f6 v=100
90720 On ch=1 n=g#5 v=100
91200 On ch=1 n=g#5 v=0
91200 On ch=1 n=f6 v=0
91200 On ch=1 n=d#6 v=100
91200 On ch=1 n=g5 v=100
91560 On ch=1 n=g#5 v=100
91620 On ch=1 n=g#5 v=0
91620 On ch=1 n=a#5 v=100
91680 On ch=1 n=a#5 v=0
91680 On ch=1 n=g5 v=0
91680 On ch=1 n=d#6 v=0
91680 On ch=1 n=g#5 v=100
92160 On ch=1 n=g#5 v=0
92160 On ch=1 n=g5 v=100
92400 On ch=1 n=g5 v=0
92400 On ch=1 n=c#6 v=100
92640 On ch=1 n=c#6 v=0
92640 On ch=1 n=d#6 v=100
92880 On ch=1 n=d#6 v=0
92880 On ch=1 n=g6 v=100
93120 On ch=1 n=g6 v=0
93120 On ch=1 n=c#7 v=100
93360 On ch=1 n=c#7 v=0
93360 On ch=1 n=f7 v=100
93480 On ch=1 n=d#7 v=100
93540 On ch=1 n=d#7 v=0
93540 On ch=1 n=f7 v=100
93600 On ch=1 n=f7 v=0
93600 On ch=1 n=f7 v=0
93600 On ch=1 n=d#7 v=100
94080 On ch=1 n=d#7 v=0
94080 On ch=1 n=c#7 v=100
94320 On ch=1 n=c#7 v=0
94320 On ch=1 n=g6 v=100
94560 On ch=1 n=g6 v=0
94560 On ch=1 n=f6 v=100
94800 On ch=1 n=f6 v=0
94800 On ch=1 n=d#6 v=100
95040 On ch=1 n=d#6 v=0
95040 On ch=1 n=g5 v=100
95280 On ch=1 n=g5 v=0
95280 On ch=1 n=c#6 v=100
95520 On ch=1 n=c#6 v=0
95520 On ch=1 n=d#6 v=100
95760 On ch=1 n=d#6 v=0
95760 On ch=1 n=g6 v=100
96000 On ch=1 n=g6 v=0
96000 On ch=1 n=c#7 v=100
96240 On ch=1 n=c#7 v=0
96240 On ch=1 n=f7 v=100
96360 On ch=1 n=d#7 v=100
96420 On ch=1 n=d#7 v=0
96420 On ch=1 n=f7 v=100
96480 On ch=1 n=f7 v=0
96480 On ch=1 n=f7 v=0
96480 On ch=1 n=d#7 v=100
96960 On ch=1 n=d#7 v=0
96960 On ch=1 n=c7 v=100
97200 On ch=1 n=c7 v=0
97200 On ch=1 n=g#6 v=100
97440 On ch=1 n=g#6 v=0
97440 On ch=1 n=f6 v=100
97680 On ch=1 n=f6 v=0
97680 On ch=1 n=d#6 v=100
97920 On ch=1 n=d#6 v=0
97920 On ch=1 n=g5 v=100
98160 On ch=1 n=g5 v=0
98160 On ch=1 n=c#6 v=100
98400 On ch=1 n=c#6 v=0
98400 On ch=1 n=d#6 v=100
98640 On ch=1 n=d#6 v=0
98640 On ch=1 n=g6 v=100
98880 On ch=1 n=g6 v=0
98880 On ch=1 n=c#7 v=100
99120 On ch=1 n=c#7 v=0
99120 On ch=1 n=f7 v=100
99240 On ch=1 n=d#7 v=100
99300 On ch=1 n=d#7 v=0
99300 On ch=1 n=f7 v=100
99360 On ch=1 n=f7 v=0
99360 On ch=1 n=f7 v=0
99360 On ch=1 n=d#7 v=100
99840 On ch=1 n=d#7 v=0
99840 On ch=1 n=c#7 v=100
100080 On ch=1 n=c#7 v=0
100080 On ch=1 n=g6 v=100
100320 On ch=1 n=g6 v=0
100320 On ch=1 n=f6 v=100
100560 On ch=1 n=f6 v=0
100560 On ch=1 n=d#6 v=100
100800 On ch=1 n=d#6 v=0
100800 On ch=1 n=g5 v=100
101040 On ch=1 n=g5 v=0
101040 On ch=1 n=c#6 v=100
101280 On ch=1 n=c#6 v=0
101280 On ch=1 n=d#6 v=100
101520 On ch=1 n=d#6 v=0
101520 On ch=1 n=g6 v=100
101760 On ch=1 n=g6 v=0
101760 On ch=1 n=c#7 v=100
102000 On ch=1 n=c#7 v=0
102000 On ch=1 n=g7 v=100
102240 On ch=1 n=g7 v=0
102240 On ch=1 n=g#7 v=100
102240 On ch=1 n=g#6 v=100
102360 On ch=1 n=g#6 v=0
102360 On ch=1 n=g#7 v=0
103080 On ch=1 n=g#5 v=60
103140 On ch=1 n=g#5 v=0
103140 On ch=1 n=a#5 v=60
103200 On ch=1 n=a#5 v=0
103200 On ch=1 n=g#5 v=60
103680 On ch=1 n=g#5 v=0
103680 On ch=1 n=g5 v=60
103920 On ch=1 n=g5 v=0
103920 On ch=1 n=c#6 v=60
104160 On ch=1 n=c#6 v=0
104160 On ch=1 n=d#6 v=60
104400 On ch=1 n=d#6 v=0
104400 On ch=1 n=g6 v=60
104640 On ch=1 n=g6 v=0
104640 On ch=1 n=c#7 v=60
104880 On ch=1 n=c#7 v=0
104880 On ch=1 n=f7 v=60
105000 On ch=1 n=f7 v=0
105000 On ch=1 n=d#7 v=60
105060 On ch=1 n=d#7 v=0
105060 On ch=1 n=f7 v=60
105120 On ch=1 n=f7 v=0
105120 On ch=1 n=d#7 v=60
105600 On ch=1 n=d#7 v=0
105600 On ch=1 n=c#7 v=60
105840 On ch=1 n=c#7 v=0
105840 On ch=1 n=g6 v=60
106080 On ch=1 n=g6 v=0
106080 On ch=1 n=f6 v=60
106320 On ch=1 n=f6 v=0
106320 On ch=1 n=d#6 v=60
106560 On ch=1 n=d#6 v=0
106560 On ch=1 n=g5 v=60
106800 On ch=1 n=g5 v=0
106800 On ch=1 n=c#6 v=60
107040 On ch=1 n=c#6 v=0
107040 On ch=1 n=d#6 v=60
107280 On ch=1 n=d#6 v=0
107280 On ch=1 n=g6 v=60
107520 On ch=1 n=g6 v=0
107520 On ch=1 n=c#7 v=60
107760 On ch=1 n=c#7 v=0
107760 On ch=1 n=f7 v=60
107880 On ch=1 n=f7 v=0
107880 On ch=1 n=d#7 v=60
107940 On ch=1 n=d#7 v=0
107940 On ch=1 n=f7 v=60
108000 On ch=1 n=f7 v=0
108000 On ch=1 n=d#7 v=60
108480 On ch=1 n=d#7 v=0
108480 On ch=1 n=c7 v=60
108720 On ch=1 n=c7 v=0
108720 On ch=1 n=g#6 v=60
108960 On ch=1 n=g#6 v=0
108960 On ch=1 n=f6 v=60
109200 On ch=1 n=f6 v=0
109200 On ch=1 n=d#6 v=60
109440 On ch=1 n=d#6 v=0
109440 On ch=1 n=g5 v=60
109680 On ch=1 n=g5 v=0
109680 On ch=1 n=c#6 v=60
109920 On ch=1 n=c#6 v=0
109920 On ch=1 n=d#6 v=60
110160 On ch=1 n=d#6 v=0
110160 On ch=1 n=g6 v=60
110400 On ch=1 n=g6 v=0
110400 On ch=1 n=c#7 v=60
110640 On ch=1 n=c#7 v=0
110640 On ch=1 n=f7 v=60
110760 On ch=1 n=f7 v=0
110760 On ch=1 n=d#7 v=60
110820 On ch=1 n=d#7 v=0
110820 On ch=1 n=f7 v=60
110880 On ch=1 n=f7 v=0
110880 On ch=1 n=d#7 v=60
111360 On ch=1 n=d#7 v=0
111360 On ch=1 n=c#7 v=60
111600 On ch=1 n=c#7 v=0
111600 On ch=1 n=g6 v=60
111840 On ch=1 n=g6 v=0
111840 On ch=1 n=f6 v=60
112080 On ch=1 n=f6 v=0
112080 On ch=1 n=d#6 v=60
112320 On ch=1 n=d#6 v=0
112320 On ch=1 n=g5 v=60
112560 On ch=1 n=g5 v=0
112560 On ch=1 n=c#6 v=71
112800 On ch=1 n=c#6 v=0
112800 On ch=1 n=d#6 v=83
113040 On ch=1 n=d#6 v=0
113040 On ch=1 n=g6 v=95
113280 On ch=1 n=g6 v=0
113280 On ch=1 n=c#7 v=107
113520 On ch=1 n=c#7 v=0
113520 On ch=1 n=g7 v=119
113760 On ch=1 n=g7 v=0
113760 On ch=1 n=g#7 v=120
113760 On ch=1 n=g#6 v=120
113880 On ch=1 n=g#6 v=0
113880 On ch=1 n=g#7 v=0
114720 On ch=1 n=g#4 v=100
116160 On ch=1 n=g#4 v=0
116160 On ch=1 n=g#5 v=100
117120 On ch=1 n=g#5 v=0
117120 On ch=1 n=g#5 v=100
117360 On ch=1 n=g#5 v=0
117360 On ch=1 n=g#5 v=100
117600 On ch=1 n=g#5 v=0
117600 On ch=1 n=g#5 v=100
117960 On ch=1 n=g#5 v=100
118020 On ch=1 n=g#5 v=0
118020 On ch=1 n=a#5 v=100
118080 On ch=1 n=a#5 v=0
118080 On ch=1 n=g#5 v=0
118080 On ch=1 n=g#5 v=100
118560 On ch=1 n=g#5 v=0
118560 On ch=1 n=g5 v=100
118800 On ch=1 n=g5 v=0
118800 On ch=1 n=g#5 v=100
119040 On ch=1 n=g#5 v=0
119040 On ch=1 n=c#6 v=100
119280 On ch=1 n=c#6 v=0
119280 On ch=1 n=d#6 v=100
119520 On ch=1 n=d#6 v=0
119520 On ch=1 n=f6 v=100
120000 On ch=1 n=f6 v=0
120480 On ch=1 n=a#4 v=100
121920 On ch=1 n=a#4 v=0
121920 On ch=1 n=a#5 v=100
122880 On ch=1 n=a#5 v=0
122880 On ch=1 n=a#5 v=100
123120 On ch=1 n=a#5 v=0
123120 On ch=1 n=a#5 v=100
123360 On ch=1 n=a#5 v=0
123360 On ch=1 n=a#5 v=100
123720 On ch=1 n=a#5 v=100
123780 On ch=1 n=a#5 v=0
123780 On ch=1 n=c6 v=100
123840 On ch=1 n=c6 v=0
123840 On ch=1 n=a#5 v=0
123840 On ch=1 n=a#5 v=100
124320 On ch=1 n=a#5 v=0
124320 On ch=1 n=a5 v=100
124560 On ch=1 n=a5 v=0
124560 On ch=1 n=a#5 v=100
124800 On ch=1 n=a#5 v=0
124800 On ch=1 n=d#6 v=100
125040 On ch=1 n=d#6 v=0
125040 On ch=1 n=f6 v=100
125280 On ch=1 n=f6 v=0
125280 On ch=1 n=g6 v=100
125760 On ch=1 n=g6 v=0
126240 On ch=1 n=d#5 v=100
126240 On ch=1 n=d#6 v=100
127680 On ch=1 n=d#6 v=0
127680 On ch=1 n=d#5 v=0
127680 On ch=1 n=d#7 v=100
127680 On ch=1 n=d#6 v=100
128640 On ch=1 n=d#6 v=0
128640 On ch=1 n=d#7 v=0
128640 On ch=1 n=d#7 v=100
128640 On ch=1 n=d#6 v=100
128880 On ch=1 n=d#6 v=0
128880 On ch=1 n=d#7 v=0
128880 On ch=1 n=d#7 v=100
128880 On ch=1 n=d#6 v=100
129120 On ch=1 n=d#6 v=0
129120 On ch=1 n=d#7 v=0
129120 On ch=1 n=d#6 v=100
129120 On ch=1 n=d#7 v=100
129480 On ch=1 n=d#7 v=100
129540 On ch=1 n=d#7 v=0
129540 On ch=1 n=f7 v=100
129600 On ch=1 n=f7 v=0
129600 On ch=1 n=d#7 v=0
129600 On ch=1 n=d#6 v=0
129600 On ch=1 n=d#7 v=100
130080 On ch=1 n=d#7 v=0
130080 On ch=1 n=d7 v=101
130320 On ch=1 n=d7 v=0
130320 On ch=1 n=d#7 v=102
130560 On ch=1 n=d#7 v=0
130560 On ch=1 n=g#6 v=103
130560 On ch=1 n=g#7 v=103
130800 On ch=1 n=g#7 v=0
130800 On ch=1 n=g#6 v=0
130800 On ch=1 n=a#6 v=104
130800 On ch=1 n=a#7 v=104
131040 On ch=1 n=a#7 v=0
131040 On ch=1 n=a#6 v=0
131040 On ch=1 n=c8 v=105
131040 On ch=1 n=g#7 v=105
131040 On ch=1 n=c7 v=105
131760 On ch=1 n=c7 v=0
131760 On ch=1 n=g#7 v=0
131760 On ch=1 n=c8 v=0
131760 On ch=1 n=c8 v=108
131760 On ch=1 n=g#7 v=108
131760 On ch=1 n=c7 v=108
132000 On ch=1 n=c7 v=0
132000 On ch=1 n=g#7 v=0
132000 On ch=1 n=c8 v=0
132000 On ch=1 n=c8 v=109
132000 On ch=1 n=g#7 v=109
132000 On ch=1 n=c7 v=109
132120 On ch=1 n=c7 v=0
132120 On ch=1 n=g#7 v=0
132120 On ch=1 n=c8 v=0
132360 On ch=1 n=c8 v=110
132360 On ch=1 n=g#7 v=110
132360 On ch=1 n=c7 v=110
132480 On ch=1 n=c7 v=0
132480 On ch=1 n=g#7 v=0
132480 On ch=1 n=c8 v=0
132480 On ch=1 n=c8 v=110
132480 On ch=1 n=g#7 v=110
132480 On ch=1 n=c7 v=110
132600 On ch=1 n=c7 v=0
132600 On ch=1 n=g#7 v=0
132600 On ch=1 n=c8 v=0
133200 On ch=1 n=a#7 v=110
133200 On ch=1 n=g7 v=110
133200 On ch=1 n=a#6 v=110
133440 On ch=1 n=a#6 v=0
133440 On ch=1 n=g7 v=0
133440 On ch=1 n=a#7 v=0
133440 On ch=1 n=a#7 v=110
133440 On ch=1 n=g7 v=110
133440 On ch=1 n=a#6 v=110
133560 On ch=1 n=a#6 v=0
133560 On ch=1 n=g7 v=0
133560 On ch=1 n=a#7 v=0
133800 On ch=1 n=g#7 v=110
133800 On ch=1 n=f7 v=110
133800 On ch=1 n=g#6 v=110
133920 On ch=1 n=g#6 v=0
133920 On ch=1 n=f7 v=0
133920 On ch=1 n=g#7 v=0
133920 On ch=1 n=g#7 v=110
133920 On ch=1 n=f7 v=110
133920 On ch=1 n=g#6 v=110
134040 On ch=1 n=g#6 v=0
134040 On ch=1 n=f7 v=0
134040 On ch=1 n=g#7 v=0
134640 On ch=1 n=g7 v=110
134640 On ch=1 n=d#7 v=110
134640 On ch=1 n=g6 v=110
134880 On ch=1 n=g6 v=0
134880 On ch=1 n=d#7 v=0
134880 On ch=1 n=g7 v=0
134880 On ch=1 n=g7 v=110
134880 On ch=1 n=d#7 v=110
134880 On ch=1 n=g6 v=110
135000 On ch=1 n=g6 v=0
135000 On ch=1 n=d#7 v=0
135000 On ch=1 n=g7 v=0
135240 On ch=1 n=f7 v=110
135240 On ch=1 n=c#7 v=110
135240 On ch=1 n=f6 v=110
135360 On ch=1 n=f6 v=0
135360 On ch=1 n=c#7 v=0
135360 On ch=1 n=f7 v=0
135360 On ch=1 n=f7 v=110
135360 On ch=1 n=c#7 v=110
135360 On ch=1 n=f6 v=110
135480 On ch=1 n=f6 v=0
135480 On ch=1 n=c#7 v=0
135480 On ch=1 n=f7 v=0
136080 On ch=1 n=f7 v=110
136080 On ch=1 n=c#7 v=110
136080 On ch=1 n=f6 v=110
136320 On ch=1 n=f6 v=0
136320 On ch=1 n=c#7 v=0
136320 On ch=1 n=f7 v=0
136320 On ch=1 n=f7 v=110
136320 On ch=1 n=c#7 v=110
136320 On ch=1 n=f6 v=110
136440 On ch=1 n=f6 v=0
136440 On ch=1 n=c#7 v=0
136440 On ch=1 n=f7 v=0
136680 On ch=1 n=g6 v=110
136680 On ch=1 n=c#6 v=110
136680 On ch=1 n=g5 v=110
136800 On ch=1 n=g5 v=0
136800 On ch=1 n=c#6 v=0
136800 On ch=1 n=g6 v=0
136800 On ch=1 n=g#5 v=110
136800 On ch=1 n=c6 v=110
136800 On ch=1 n=g#6 v=110
136920 On ch=1 n=g#6 v=0
136920 On ch=1 n=c6 v=0
136920 On ch=1 n=g#5 v=0
137760 On ch=1 n=g#4 v=100
138720 On ch=1 n=g#4 v=0
138720 On ch=1 n=g#5 v=100
139560 On ch=1 n=g#5 v=0
139560 On ch=1 n=g#6 v=100
139680 On ch=1 n=g#6 v=0
139680 On ch=1 n=g#5 v=100
140520 On ch=1 n=g#5 v=0
140520 On ch=1 n=g#5 v=100
140640 On ch=1 n=g#5 v=0
140640 On ch=1 n=g#5 v=100
141000 On ch=1 n=g#5 v=100
141060 On ch=1 n=g#5 v=0
141060 On ch=1 n=a#5 v=100
141120 On ch=1 n=a#5 v=0
141120 On ch=1 n=g#5 v=0
141120 On ch=1 n=g#5 v=100
142080 On ch=1 n=g#5 v=0
142080 On ch=1 n=g5 v=100
142172 On ch=1 n=g#5 v=100
142200 On ch=1 n=g5 v=0
142292 On ch=1 n=g#5 v=0
142292 On ch=1 n=a#5 v=100
142400 On ch=1 n=c6 v=100
142412 On ch=1 n=a#5 v=0
142512 On ch=1 n=c#6 v=100
142520 On ch=1 n=c6 v=0
142620 On ch=1 n=d#6 v=100
142632 On ch=1 n=c#6 v=0
142736 On ch=1 n=f6 v=100
142740 On ch=1 n=d#6 v=0
142848 On ch=1 n=f#6 v=100
142856 On ch=1 n=f6 v=0
142956 On ch=1 n=g#6 v=100
142968 On ch=1 n=f#6 v=0
143068 On ch=1 n=a#6 v=100
143076 On ch=1 n=g#6 v=0
143184 On ch=1 n=c7 v=100
143188 On ch=1 n=a#6 v=0
143288 On ch=1 n=c#7 v=100
143304 On ch=1 n=c7 v=0
143400 On ch=1 n=d#7 v=100
143408 On ch=1 n=c#7 v=0
143520 On ch=1 n=d#7 v=0
143520 On ch=1 n=f7 v=100
143640 On ch=1 n=f7 v=0
144000 On ch=1 n=a#4 v=100
144480 On ch=1 n=a#4 v=0
144480 On ch=1 n=a#5 v=100
145320 On ch=1 n=a#5 v=0
145320 On ch=1 n=a#6 v=100
145440 On ch=1 n=a#6 v=0
145440 On ch=1 n=a#5 v=100
146280 On ch=1 n=a#5 v=0
146280 On ch=1 n=a#5 v=100
146400 On ch=1 n=a#5 v=0
146400 On ch=1 n=a#5 v=100
146760 On ch=1 n=a#5 v=100
146820 On ch=1 n=a#5 v=0
146820 On ch=1 n=c6 v=100
146880 On ch=1 n=c6 v=0
146880 On ch=1 n=a#5 v=0
146880 On ch=1 n=a#5 v=100
147840 On ch=1 n=a#5 v=0
147840 On ch=1 n=a5 v=100
147932 On ch=1 n=a#5 v=100
147960 On ch=1 n=a5 v=0
148052 On ch=1 n=a#5 v=0
148052 On ch=1 n=c6 v=100
148160 On ch=1 n=d6 v=100
148172 On ch=1 n=c6 v=0
148272 On ch=1 n=d#6 v=100
148280 On ch=1 n=d6 v=0
148380 On ch=1 n=f6 v=100
148392 On ch=1 n=d#6 v=0
148496 On ch=1 n=g6 v=100
148500 On ch=1 n=f6 v=0
148608 On ch=1 n=g#6 v=100
148616 On ch=1 n=g6 v=0
148716 On ch=1 n=a#6 v=100
148728 On ch=1 n=g#6 v=0
148828 On ch=1 n=c7 v=100
148836 On ch=1 n=a#6 v=0
148944 On ch=1 n=d7 v=100
148948 On ch=1 n=c7 v=0
149048 On ch=1 n=d#7 v=100
149064 On ch=1 n=d7 v=0
149160 On ch=1 n=f7 v=100
149168 On ch=1 n=d#7 v=0
149280 On ch=1 n=f7 v=0
149280 On ch=1 n=g7 v=100
149400 On ch=1 n=g7 v=0
149760 On ch=1 n=d#5 v=100
149760 On ch=1 n=d#6 v=100
150240 On ch=1 n=d#6 v=0
150240 On ch=1 n=d#5 v=0
150240 On ch=1 n=d#7 v=100
150240 On ch=1 n=d#6 v=100
150720 On ch=1 n=d#6 v=0
150720 On ch=1 n=d#7 v=0
151080 On ch=1 n=d#8 v=100
151080 On ch=1 n=d#7 v=100
151200 On ch=1 n=d#7 v=0
151200 On ch=1 n=d#8 v=0
151200 On ch=1 n=d#6 v=100
151200 On ch=1 n=d#7 v=100
151680 On ch=1 n=d#7 v=0
151680 On ch=1 n=d#6 v=0
152040 On ch=1 n=d#6 v=100
152040 On ch=1 n=d#7 v=100
152160 On ch=1 n=d#7 v=0
152160 On ch=1 n=d#6 v=0
152160 On ch=1 n=d#6 v=100
152160 On ch=1 n=d#7 v=100
152520 On ch=1 n=d#7 v=100
152580 On ch=1 n=d#7 v=0
152580 On ch=1 n=f7 v=100
152640 On ch=1 n=f7 v=0
152640 On ch=1 n=d#7 v=0
152640 On ch=1 n=d#6 v=0
152640 On ch=1 n=d#7 v=100
153120 On ch=1 n=d#7 v=0
153120 On ch=1 n=d7 v=101
153360 On ch=1 n=d7 v=0
153360 On ch=1 n=d#7 v=102
153600 On ch=1 n=d#7 v=0
153600 On ch=1 n=g#6 v=103
153600 On ch=1 n=g#7 v=103
153840 On ch=1 n=g#7 v=0
153840 On ch=1 n=g#6 v=0
153840 On ch=1 n=a#6 v=104
153840 On ch=1 n=a#7 v=104
154080 On ch=1 n=a#7 v=0
154080 On ch=1 n=a#6 v=0
154080 On ch=1 n=c8 v=105
154080 On ch=1 n=g#7 v=105
154080 On ch=1 n=c7 v=105
154800 On ch=1 n=c7 v=0
154800 On ch=1 n=g#7 v=0
154800 On ch=1 n=c8 v=0
154800 On ch=1 n=c8 v=108
154800 On ch=1 n=g#7 v=108
154800 On ch=1 n=c7 v=108
155040 On ch=1 n=c7 v=0
155040 On ch=1 n=g#7 v=0
155040 On ch=1 n=c8 v=0
155040 On ch=1 n=c8 v=109
155040 On ch=1 n=g#7 v=109
155040 On ch=1 n=c7 v=109
155160 On ch=1 n=c7 v=0
155160 On ch=1 n=g#7 v=0
155160 On ch=1 n=c8 v=0
155400 On ch=1 n=c8 v=110
155400 On ch=1 n=g#7 v=110
155400 On ch=1 n=c7 v=110
155520 On ch=1 n=c7 v=0
155520 On ch=1 n=g#7 v=0
155520 On ch=1 n=c8 v=0
155520 On ch=1 n=c8 v=110
155520 On ch=1 n=g#7 v=110
155520 On ch=1 n=c7 v=110
155640 On ch=1 n=c7 v=0
155640 On ch=1 n=g#7 v=0
155640 On ch=1 n=c8 v=0
156240 On ch=1 n=a#7 v=110
156240 On ch=1 n=g7 v=110
156240 On ch=1 n=a#6 v=110
156480 On ch=1 n=a#6 v=0
156480 On ch=1 n=g7 v=0
156480 On ch=1 n=a#7 v=0
156480 On ch=1 n=a#7 v=110
156480 On ch=1 n=g7 v=110
156480 On ch=1 n=a#6 v=110
156600 On ch=1 n=a#6 v=0
156600 On ch=1 n=g7 v=0
156600 On ch=1 n=a#7 v=0
156840 On ch=1 n=g#7 v=110
156840 On ch=1 n=f7 v=110
156840 On ch=1 n=g#6 v=110
156960 On ch=1 n=g#6 v=0
156960 On ch=1 n=f7 v=0
156960 On ch=1 n=g#7 v=0
156960 On ch=1 n=g#7 v=110
156960 On ch=1 n=f7 v=110
156960 On ch=1 n=g#6 v=110
157080 On ch=1 n=g#6 v=0
157080 On ch=1 n=f7 v=0
157080 On ch=1 n=g#7 v=0
157680 On ch=1 n=g7 v=110
157680 On ch=1 n=d#7 v=110
157680 On ch=1 n=g6 v=110
157920 On ch=1 n=g6 v=0
157920 On ch=1 n=d#7 v=0
157920 On ch=1 n=g7 v=0
157920 On ch=1 n=g7 v=110
157920 On ch=1 n=d#7 v=110
157920 On ch=1 n=g6 v=110
158040 On ch=1 n=g6 v=0
158040 On ch=1 n=d#7 v=0
158040 On ch=1 n=g7 v=0
158280 On ch=1 n=f7 v=110
158280 On ch=1 n=c#7 v=110
158280 On ch=1 n=f6 v=110
158400 On ch=1 n=f6 v=0
158400 On ch=1 n=c#7 v=0
158400 On ch=1 n=f7 v=0
158400 On ch=1 n=f7 v=110
158400 On ch=1 n=c#7 v=110
158400 On ch=1 n=f6 v=110
158520 On ch=1 n=f6 v=0
158520 On ch=1 n=c#7 v=0
158520 On ch=1 n=f7 v=0
159120 On ch=1 n=f7 v=110
159120 On ch=1 n=c#7 v=110
159120 On ch=1 n=f6 v=110
159360 On ch=1 n=f6 v=0
159360 On ch=1 n=c#7 v=0
159360 On ch=1 n=f7 v=0
159360 On ch=1 n=f7 v=110
159360 On ch=1 n=c#7 v=110
159360 On ch=1 n=f6 v=110
159480 On ch=1 n=f6 v=0
159480 On ch=1 n=c#7 v=0
159480 On ch=1 n=f7 v=0
159720 On ch=1 n=g6 v=110
159720 On ch=1 n=c#6 v=110
159720 On ch=1 n=g5 v=110
159840 On ch=1 n=g5 v=0
159840 On ch=1 n=c#6 v=0
159840 On ch=1 n=g6 v=0
159840 On ch=1 n=g#5 v=110
159840 On ch=1 n=c6 v=110
159840 On ch=1 n=g#6 v=110
159960 On ch=1 n=g#6 v=0
159960 On ch=1 n=c6 v=0
159960 On ch=1 n=g#5 v=0
160800 On ch=1 n=g#5 v=60
161280 On ch=1 n=g#5 v=0
161280 On ch=1 n=a#5 v=60
161280 On ch=1 n=f#5 v=60
162240 On ch=1 n=f#5 v=0
162240 On ch=1 n=a#5 v=0
162240 On ch=1 n=c5 v=60
162240 On ch=1 n=g#5 v=60
162720 On ch=1 n=g#5 v=0
162720 On ch=1 n=c5 v=0
162720 On ch=1 n=a#5 v=60
162720 On ch=1 n=f#5 v=60
163440 On ch=1 n=f#5 v=0
163440 On ch=1 n=a#5 v=0
163440 On ch=1 n=c5 v=60
163440 On ch=1 n=g#5 v=60
163620 On ch=1 n=c6 v=60
163680 On ch=1 n=c6 v=0
163680 On ch=1 n=g#5 v=0
163680 On ch=1 n=c5 v=0
163680 On ch=1 n=f#5 v=60
163680 On ch=1 n=a#5 v=60
164040 On ch=1 n=a#5 v=0
164040 On ch=1 n=f#5 v=0
164040 On ch=1 n=c5 v=60
164040 On ch=1 n=g#5 v=60
164160 On ch=1 n=g#5 v=0
164160 On ch=1 n=c5 v=0
164160 On ch=1 n=c#5 v=60
164160 On ch=1 n=f5 v=60
164880 On ch=1 n=f5 v=0
164880 On ch=1 n=c#5 v=0
164880 On ch=1 n=c#5 v=60
164880 On ch=1 n=f5 v=60
165120 On ch=1 n=f5 v=0
165120 On ch=1 n=c#5 v=0
165120 On ch=1 n=g#5 v=60
165120 On ch=1 n=f5 v=60
165360 On ch=1 n=f5 v=0
165360 On ch=1 n=g#5 v=0
165480 On ch=1 n=c#6 v=60
165480 On ch=1 n=f5 v=60
165600 On ch=1 n=f5 v=0
165600 On ch=1 n=c#6 v=0
165600 On ch=1 n=f6 v=60
165600 On ch=1 n=g#5 v=60
166560 On ch=1 n=g#5 v=0
166560 On ch=1 n=f6 v=0
166560 On ch=1 n=f6 v=60
166560 On ch=1 n=g#5 v=60
167040 On ch=1 n=g#5 v=0
167040 On ch=1 n=f6 v=0
167040 On ch=1 n=g#5 v=60
167040 On ch=1 n=f6 v=60
167280 On ch=1 n=g#5 v=0
167280 On ch=1 n=g5 v=60
167400 On ch=1 n=d#6 v=60
167460 On ch=1 n=d#6 v=0
167460 On ch=1 n=f6 v=60
167520 On ch=1 n=f6 v=0
167520 On ch=1 n=g5 v=0
167520 On ch=1 n=f6 v=0
167520 On ch=1 n=d#6 v=60
167520 On ch=1 n=f#5 v=60
168000 On ch=1 n=f#5 v=0
168000 On ch=1 n=d#6 v=0
168000 On ch=1 n=f5 v=60
168000 On ch=1 n=d6 v=60
168480 On ch=1 n=d6 v=0
168480 On ch=1 n=f5 v=0
168480 On ch=1 n=f#5 v=60
168480 On ch=1 n=d#6 v=60
168960 On ch=1 n=d#6 v=0
168960 On ch=1 n=f#5 v=0
168960 On ch=1 n=f#6 v=60
168960 On ch=1 n=a#5 v=60
169440 On ch=1 n=a#5 v=0
169440 On ch=1 n=f#6 v=0
169440 On ch=1 n=f6 v=60
169440 On ch=1 n=g#5 v=60
169920 On ch=1 n=g#5 v=0
169920 On ch=1 n=f6 v=0
169920 On ch=1 n=f#5 v=60
169920 On ch=1 n=d#6 v=60
170400 On ch=1 n=d#6 v=0
170400 On ch=1 n=f#5 v=0
170400 On ch=1 n=f5 v=60
170400 On ch=1 n=c#6 v=60
170880 On ch=1 n=c#6 v=0
170880 On ch=1 n=f5 v=0
170880 On ch=1 n=e5 v=60
170880 On ch=1 n=a#5 v=60
171360 On ch=1 n=a#5 v=0
171360 On ch=1 n=e5 v=0
171360 On ch=1 n=g#5 v=60
171360 On ch=1 n=f5 v=60
172080 On ch=1 n=f5 v=0
172080 On ch=1 n=g#5 v=0
172080 On ch=1 n=g#5 v=60
172080 On ch=1 n=f5 v=60
172320 On ch=1 n=f5 v=0
172320 On ch=1 n=g#5 v=0
172320 On ch=1 n=g#5 v=60
172320 On ch=1 n=f5 v=60
172440 On ch=1 n=f5 v=0
172440 On ch=1 n=g#5 v=0
172680 On ch=1 n=g#5 v=60
172680 On ch=1 n=f5 v=60
172800 On ch=1 n=f5 v=0
172800 On ch=1 n=g#5 v=0
172800 On ch=1 n=a#5 v=60
172800 On ch=1 n=f#5 v=60
173280 On ch=1 n=f#5 v=0
173280 On ch=1 n=a#5 v=0
173520 On ch=1 n=c5 v=60
173520 On ch=1 n=g#5 v=60
173760 On ch=1 n=g#5 v=0
173760 On ch=1 n=c5 v=0
173760 On ch=1 n=a#5 v=60
173760 On ch=1 n=f#5 v=60
174000 On ch=1 n=f#5 v=0
174000 On ch=1 n=a#5 v=0
174120 On ch=1 n=c5 v=60
174120 On ch=1 n=g#5 v=60
174240 On ch=1 n=g#5 v=0
174240 On ch=1 n=c5 v=0
174240 On ch=1 n=a#5 v=60
174240 On ch=1 n=f#5 v=60
174720 On ch=1 n=f#5 v=0
174720 On ch=1 n=a#5 v=0
174960 On ch=1 n=c5 v=60
174960 On ch=1 n=g#5 v=60
175140 On ch=1 n=c6 v=60
175200 On ch=1 n=c6 v=0
175200 On ch=1 n=g#5 v=0
175200 On ch=1 n=c5 v=0
175200 On ch=1 n=f#5 v=60
175200 On ch=1 n=a#5 v=60
175440 On ch=1 n=a#5 v=0
175440 On ch=1 n=f#5 v=0
175560 On ch=1 n=c5 v=60
175560 On ch=1 n=g#5 v=60
175680 On ch=1 n=g#5 v=0
175680 On ch=1 n=c5 v=0
175680 On ch=1 n=c#5 v=60
175680 On ch=1 n=f5 v=60
176400 On ch=1 n=f5 v=0
176400 On ch=1 n=c#5 v=0
176400 On ch=1 n=g#5 v=82
176400 On ch=1 n=f5 v=82
176640 On ch=1 n=f5 v=0
176640 On ch=1 n=g#5 v=0
176640 On ch=1 n=c#6 v=89
176640 On ch=1 n=g#5 v=89
176880 On ch=1 n=g#5 v=0
176880 On ch=1 n=c#6 v=0
177000 On ch=1 n=f6 v=100
177000 On ch=1 n=c#6 v=100
177000 On ch=1 n=g#5 v=100
177120 On ch=1 n=g#5 v=0
177120 On ch=1 n=c#6 v=0
177120 On ch=1 n=f6 v=0
177120 On ch=1 n=g#6 v=100
177120 On ch=1 n=d6 v=100
177120 On ch=1 n=g#5 v=100
177840 On ch=1 n=g#5 v=0
177840 On ch=1 n=d6 v=0
177840 On ch=1 n=g#6 v=0
177840 On ch=1 n=g#6 v=100
177840 On ch=1 n=d6 v=100
178080 On ch=1 n=d6 v=0
178080 On ch=1 n=g#6 v=0
178080 On ch=1 n=d6 v=100
178080 On ch=1 n=g#6 v=100
178200 On ch=1 n=g#6 v=0
178200 On ch=1 n=d6 v=0
178440 On ch=1 n=g#6 v=100
178440 On ch=1 n=d6 v=100
178560 On ch=1 n=d6 v=0
178560 On ch=1 n=g#6 v=0
178560 On ch=1 n=g#6 v=100
178560 On ch=1 n=c#6 v=100
178680 On ch=1 n=c#6 v=0
178680 On ch=1 n=g#6 v=0
179280 On ch=1 n=c#6 v=100
179280 On ch=1 n=g6 v=100
179520 On ch=1 n=g6 v=0
179520 On ch=1 n=c#6 v=0
179520 On ch=1 n=c#6 v=100
179520 On ch=1 n=d#6 v=100
179760 On ch=1 n=d#6 v=0
179760 On ch=1 n=c#6 v=0
179880 On ch=1 n=f6 v=100
179880 On ch=1 n=c#6 v=100
180000 On ch=1 n=c#6 v=0
180000 On ch=1 n=f6 v=0
180000 On ch=1 n=c#6 v=100
180000 On ch=1 n=f#6 v=100
180480 On ch=1 n=f#6 v=0
180480 On ch=1 n=c#6 v=0
180720 On ch=1 n=c6 v=100
180720 On ch=1 n=f#6 v=100
180960 On ch=1 n=f#6 v=0
180960 On ch=1 n=c6 v=0
180960 On ch=1 n=g5 v=100
180960 On ch=1 n=f#6 v=100
181080 On ch=1 n=f#6 v=0
181080 On ch=1 n=g5 v=0
181320 On ch=1 n=g#5 v=100
181320 On ch=1 n=f#6 v=100
181440 On ch=1 n=f#6 v=0
181440 On ch=1 n=g#5 v=0
181440 On ch=1 n=a5 v=100
181440 On ch=1 n=f#6 v=100
181560 On ch=1 n=f#6 v=0
181560 On ch=1 n=a5 v=0
182160 On ch=1 n=g#5 v=100
182160 On ch=1 n=f6 v=100
182400 On ch=1 n=f6 v=0
182400 On ch=1 n=g#5 v=0
182400 On ch=1 n=g#5 v=100
182400 On ch=1 n=f6 v=100
182520 On ch=1 n=f6 v=0
182520 On ch=1 n=g#5 v=0
182760 On ch=1 n=f#5 v=100
182760 On ch=1 n=d#6 v=100
182880 On ch=1 n=d#6 v=0
182880 On ch=1 n=f#5 v=0
182880 On ch=1 n=f#5 v=100
182880 On ch=1 n=d#6 v=100
183000 On ch=1 n=d#6 v=0
183000 On ch=1 n=f#5 v=0
183600 On ch=1 n=f5 v=78
183600 On ch=1 n=c#6 v=78
183840 On ch=1 n=c#6 v=0
183840 On ch=1 n=f5 v=0
183840 On ch=1 n=f5 v=71
183840 On ch=1 n=c6 v=71
183960 On ch=1 n=c6 v=0
183960 On ch=1 n=f5 v=0
184200 On ch=1 n=f5 v=1
184200 On ch=1 n=a#5 v=1
184320 On ch=1 n=a#5 v=0
184320 On ch=1 n=f5 v=0
184320 On ch=1 n=a#5 v=60
184320 On ch=1 n=f#5 v=60
185280 On ch=1 n=f#5 v=0
185280 On ch=1 n=a#5 v=0
185280 On ch=1 n=c5 v=60
185280 On ch=1 n=g#5 v=60
185760 On ch=1 n=g#5 v=0
185760 On ch=1 n=c5 v=0
185760 On ch=1 n=a#5 v=60
185760 On ch=1 n=f#5 v=60
186480 On ch=1 n=f#5 v=0
186480 On ch=1 n=a#5 v=0
186480 On ch=1 n=c5 v=60
186480 On ch=1 n=g#5 v=60
186660 On ch=1 n=c6 v=60
186720 On ch=1 n=c6 v=0
186720 On ch=1 n=g#5 v=0
186720 On ch=1 n=c5 v=0
186720 On ch=1 n=f#5 v=60
186720 On ch=1 n=a#5 v=60
187080 On ch=1 n=a#5 v=0
187080 On ch=1 n=f#5 v=0
187080 On ch=1 n=c5 v=60
187080 On ch=1 n=g#5 v=60
187200 On ch=1 n=g#5 v=0
187200 On ch=1 n=c5 v=0
187200 On ch=1 n=c#5 v=60
187200 On ch=1 n=f5 v=60
187920 On ch=1 n=f5 v=0
187920 On ch=1 n=c#5 v=0
187920 On ch=1 n=c#5 v=60
187920 On ch=1 n=f5 v=60
188160 On ch=1 n=f5 v=0
188160 On ch=1 n=c#5 v=0
188160 On ch=1 n=g#5 v=60
188160 On ch=1 n=f5 v=60
188400 On ch=1 n=f5 v=0
188400 On ch=1 n=g#5 v=0
188520 On ch=1 n=c#6 v=60
188520 On ch=1 n=f5 v=60
188640 On ch=1 n=f5 v=0
188640 On ch=1 n=c#6 v=0
188640 On ch=1 n=f6 v=60
188640 On ch=1 n=g#5 v=60
189600 On ch=1 n=g#5 v=0
189600 On ch=1 n=f6 v=0
189600 On ch=1 n=f6 v=60
189600 On ch=1 n=g#5 v=60
190080 On ch=1 n=g#5 v=0
190080 On ch=1 n=f6 v=0
190080 On ch=1 n=g#5 v=60
190080 On ch=1 n=f6 v=60
190320 On ch=1 n=g#5 v=0
190320 On ch=1 n=g5 v=60
190440 On ch=1 n=d#6 v=60
190500 On ch=1 n=d#6 v=0
190500 On ch=1 n=f6 v=60
190560 On ch=1 n=f6 v=0
190560 On ch=1 n=g5 v=0
190560 On ch=1 n=f6 v=0
190560 On ch=1 n=d#6 v=60
190560 On ch=1 n=f#5 v=60
191040 On ch=1 n=f#5 v=0
191040 On ch=1 n=d#6 v=0
191040 On ch=1 n=f5 v=60
191040 On ch=1 n=d6 v=60
191520 On ch=1 n=d6 v=0
191520 On ch=1 n=f5 v=0
191520 On ch=1 n=f#5 v=60
191520 On ch=1 n=d#6 v=60
192000 On ch=1 n=d#6 v=0
192000 On ch=1 n=f#5 v=0
192000 On ch=1 n=f#6 v=60
192000 On ch=1 n=a#5 v=60
192480 On ch=1 n=a#5 v=0
192480 On ch=1 n=f#6 v=0
192480 On ch=1 n=f6 v=60
192480 On ch=1 n=g#5 v=60
192960 On ch=1 n=g#5 v=0
192960 On ch=1 n=f6 v=0
192960 On ch=1 n=f#5 v=60
192960 On ch=1 n=d#6 v=60
193440 On ch=1 n=d#6 v=0
193440 On ch=1 n=f#5 v=0
193440 On ch=1 n=f5 v=60
193440 On ch=1 n=c#6 v=60
193920 On ch=1 n=c#6 v=0
193920 On ch=1 n=f5 v=0
193920 On ch=1 n=e5 v=60
193920 On ch=1 n=a#5 v=60
194400 On ch=1 n=a#5 v=0
194400 On ch=1 n=e5 v=0
194400 On ch=1 n=g#5 v=60
194400 On ch=1 n=f5 v=60
195120 On ch=1 n=f5 v=0
195120 On ch=1 n=g#5 v=0
195120 On ch=1 n=g#5 v=60
195120 On ch=1 n=f5 v=60
195360 On ch=1 n=f5 v=0
195360 On ch=1 n=g#5 v=0
195360 On ch=1 n=g#5 v=60
195360 On ch=1 n=f5 v=60
195480 On ch=1 n=f5 v=0
195480 On ch=1 n=g#5 v=0
195720 On ch=1 n=g#5 v=60
195720 On ch=1 n=f5 v=60
195840 On ch=1 n=f5 v=0
195840 On ch=1 n=g#5 v=0
195840 On ch=1 n=a#5 v=60
195840 On ch=1 n=f#5 v=60
196320 On ch=1 n=f#5 v=0
196320 On ch=1 n=a#5 v=0
196560 On ch=1 n=c5 v=60
196560 On ch=1 n=g#5 v=60
196800 On ch=1 n=g#5 v=0
196800 On ch=1 n=c5 v=0
196800 On ch=1 n=a#5 v=60
196800 On ch=1 n=f#5 v=60
197040 On ch=1 n=f#5 v=0
197040 On ch=1 n=a#5 v=0
197160 On ch=1 n=c5 v=60
197160 On ch=1 n=g#5 v=60
197280 On ch=1 n=g#5 v=0
197280 On ch=1 n=c5 v=0
197280 On ch=1 n=a#5 v=60
197280 On ch=1 n=f#5 v=60
197760 On ch=1 n=f#5 v=0
197760 On ch=1 n=a#5 v=0
198000 On ch=1 n=c5 v=60
198000 On ch=1 n=g#5 v=60
198180 On ch=1 n=c6 v=60
198240 On ch=1 n=c6 v=0
198240 On ch=1 n=g#5 v=0
198240 On ch=1 n=c5 v=0
198240 On ch=1 n=f#5 v=60
198240 On ch=1 n=a#5 v=60
198480 On ch=1 n=a#5 v=0
198480 On ch=1 n=f#5 v=0
198600 On ch=1 n=c5 v=60
198600 On ch=1 n=g#5 v=60
198720 On ch=1 n=g#5 v=0
198720 On ch=1 n=c5 v=0
198720 On ch=1 n=c#5 v=60
198720 On ch=1 n=f5 v=60
199440 On ch=1 n=f5 v=0
199440 On ch=1 n=c#5 v=0
199440 On ch=1 n=g#5 v=82
199440 On ch=1 n=f5 v=82
199680 On ch=1 n=f5 v=0
199680 On ch=1 n=g#5 v=0
199680 On ch=1 n=c#6 v=89
199680 On ch=1 n=g#5 v=89
199920 On ch=1 n=g#5 v=0
199920 On ch=1 n=c#6 v=0
200040 On ch=1 n=f6 v=100
200040 On ch=1 n=c#6 v=100
200040 On ch=1 n=g#5 v=100
200160 On ch=1 n=g#5 v=0
200160 On ch=1 n=c#6 v=0
200160 On ch=1 n=f6 v=0
200160 On ch=1 n=g#6 v=100
200160 On ch=1 n=d6 v=100
200160 On ch=1 n=g#5 v=100
200880 On ch=1 n=g#5 v=0
200880 On ch=1 n=d6 v=0
200880 On ch=1 n=g#6 v=0
200880 On ch=1 n=g#6 v=100
200880 On ch=1 n=d6 v=100
201120 On ch=1 n=d6 v=0
201120 On ch=1 n=g#6 v=0
201120 On ch=1 n=d6 v=100
201120 On ch=1 n=g#6 v=100
201240 On ch=1 n=g#6 v=0
201240 On ch=1 n=d6 v=0
201480 On ch=1 n=g#6 v=100
201480 On ch=1 n=d6 v=100
201600 On ch=1 n=d6 v=0
201600 On ch=1 n=g#6 v=0
201600 On ch=1 n=g#6 v=100
201600 On ch=1 n=c#6 v=100
201720 On ch=1 n=c#6 v=0
201720 On ch=1 n=g#6 v=0
202320 On ch=1 n=c#6 v=100
202320 On ch=1 n=g6 v=100
202560 On ch=1 n=g6 v=0
202560 On ch=1 n=c#6 v=0
202560 On ch=1 n=c#6 v=100
202560 On ch=1 n=d#6 v=100
202800 On ch=1 n=d#6 v=0
202800 On ch=1 n=c#6 v=0
202920 On ch=1 n=f6 v=100
202920 On ch=1 n=c#6 v=100
203040 On ch=1 n=c#6 v=0
203040 On ch=1 n=f6 v=0
203040 On ch=1 n=c#6 v=100
203040 On ch=1 n=f#6 v=100
203520 On ch=1 n=f#6 v=0
203520 On ch=1 n=c#6 v=0
203760 On ch=1 n=c6 v=100
203760 On ch=1 n=f#6 v=100
204000 On ch=1 n=f#6 v=0
204000 On ch=1 n=c6 v=0
204000 On ch=1 n=g5 v=100
204000 On ch=1 n=f#6 v=100
204120 On ch=1 n=f#6 v=0
204120 On ch=1 n=g5 v=0
204360 On ch=1 n=g#5 v=100
204360 On ch=1 n=f#6 v=100
204480 On ch=1 n=f#6 v=0
204480 On ch=1 n=g#5 v=0
204480 On ch=1 n=a5 v=100
204480 On ch=1 n=f#6 v=100
204600 On ch=1 n=f#6 v=0
204600 On ch=1 n=a5 v=0
205200 On ch=1 n=g#5 v=100
205200 On ch=1 n=f6 v=100
205440 On ch=1 n=f6 v=0
205440 On ch=1 n=g#5 v=0
205440 On ch=1 n=g#5 v=100
205440 On ch=1 n=f6 v=100
205560 On ch=1 n=f6 v=0
205560 On ch=1 n=g#5 v=0
205800 On ch=1 n=f#5 v=100
205800 On ch=1 n=d#6 v=100
205920 On ch=1 n=d#6 v=0
205920 On ch=1 n=f#5 v=0
205920 On ch=1 n=f5 v=100
205920 On ch=1 n=c#6 v=100
206400 On ch=1 n=c#6 v=0
206400 On ch=1 n=f5 v=0
206880 On ch=1 n=f5 v=100
207360 On ch=1 n=f#6 v=100
207360 On ch=1 n=d#6 v=100
208080 On ch=1 n=d#6 v=0
208080 On ch=1 n=f#6 v=0
208080 On ch=1 n=f#6 v=100
208080 On ch=1 n=d#6 v=100
208320 On ch=1 n=d#6 v=0
208320 On ch=1 n=f#6 v=0
208320 On ch=1 n=f#6 v=100
208320 On ch=1 n=d#6 v=100
208800 On ch=1 n=d#6 v=0
208800 On ch=1 n=f#6 v=0
208800 On ch=1 n=f#6 v=100
208800 On ch=1 n=d#6 v=100
209280 On ch=1 n=d#6 v=0
209280 On ch=1 n=f#6 v=0
209280 On ch=1 n=f6 v=100
209280 On ch=1 n=c#6 v=100
209760 On ch=1 n=c#6 v=0
209760 On ch=1 n=f6 v=0
209760 On ch=1 n=f5 v=0
209760 On ch=1 n=a#5 v=100
209760 On ch=1 n=c#6 v=100
209760 On ch=1 n=c#5 v=100
210240 On ch=1 n=c#5 v=0
210240 On ch=1 n=c#6 v=0
210240 On ch=1 n=a#5 v=0
210240 On ch=1 n=d#5 v=100
210240 On ch=1 n=c6 v=100
210240 On ch=1 n=d#6 v=100
211200 On ch=1 n=d#6 v=0
211200 On ch=1 n=c6 v=0
211200 On ch=1 n=d#5 v=0
211200 On ch=1 n=c#5 v=100
211200 On ch=1 n=a#5 v=100
211200 On ch=1 n=c#6 v=100
211680 On ch=1 n=c#6 v=0
211680 On ch=1 n=a#5 v=0
211680 On ch=1 n=c#5 v=0
211680 On ch=1 n=c5 v=100
211680 On ch=1 n=a5 v=100
211680 On ch=1 n=c6 v=100
212160 On ch=1 n=c6 v=0
212160 On ch=1 n=a5 v=0
212160 On ch=1 n=c5 v=0
212640 On ch=1 n=d#5 v=100
214080 On ch=1 n=d#5 v=0
214080 On ch=1 n=c#5 v=100
214560 On ch=1 n=c#5 v=0
214560 On ch=1 n=c5 v=100
215040 On ch=1 n=c5 v=0
215520 On ch=1 n=d#5 v=100
216000 On ch=1 n=c6 v=100
216960 On ch=1 n=c6 v=0
216960 On ch=1 n=d#5 v=0
216960 On ch=1 n=c#5 v=100
216960 On ch=1 n=a#5 v=100
217440 On ch=1 n=a#5 v=0
217440 On ch=1 n=c#5 v=0
217440 On ch=1 n=c5 v=100
217440 On ch=1 n=a5 v=100
217920 On ch=1 n=a5 v=0
217920 On ch=1 n=c5 v=0
218400 On ch=1 n=f#5 v=100
218880 On ch=1 n=f#6 v=100
218880 On ch=1 n=d#6 v=100
219520 On ch=1 n=d#6 v=0
219520 On ch=1 n=f#6 v=0
219520 On ch=1 n=f#5 v=0
219520 On ch=1 n=f#5 v=102
219520 On ch=1 n=d#6 v=102
219520 On ch=1 n=f#6 v=102
219680 On ch=1 n=f#6 v=0
219680 On ch=1 n=d#6 v=0
219680 On ch=1 n=f#5 v=0
219680 On ch=1 n=f#5 v=103
219680 On ch=1 n=d#6 v=103
219680 On ch=1 n=f#6 v=103
219840 On ch=1 n=f#6 v=0
219840 On ch=1 n=d#6 v=0
219840 On ch=1 n=f#5 v=0
219840 On ch=1 n=f#5 v=103
219840 On ch=1 n=d#6 v=103
219840 On ch=1 n=f#6 v=103
220000 On ch=1 n=f#6 v=0
220000 On ch=1 n=d#6 v=0
220000 On ch=1 n=f#5 v=0
220000 On ch=1 n=f#5 v=104
220000 On ch=1 n=d#6 v=104
220000 On ch=1 n=f#6 v=104
220160 On ch=1 n=f#6 v=0
220160 On ch=1 n=d#6 v=0
220160 On ch=1 n=f#5 v=0
220160 On ch=1 n=f#5 v=104
220160 On ch=1 n=d#6 v=104
220160 On ch=1 n=f#6 v=104
220320 On ch=1 n=f#6 v=0
220320 On ch=1 n=d#6 v=0
220320 On ch=1 n=f#5 v=0
220320 On ch=1 n=f#5 v=105
220320 On ch=1 n=d#6 v=105
220320 On ch=1 n=f#6 v=105
220800 On ch=1 n=f#6 v=0
220800 On ch=1 n=d#6 v=0
220800 On ch=1 n=f#5 v=0
220800 On ch=1 n=f5 v=107
220800 On ch=1 n=c#6 v=107
220800 On ch=1 n=f6 v=107
221280 On ch=1 n=f6 v=0
221280 On ch=1 n=c#6 v=0
221280 On ch=1 n=f5 v=0
221280 On ch=1 n=c#5 v=109
221280 On ch=1 n=a#5 v=109
221280 On ch=1 n=c#6 v=109
221760 On ch=1 n=c#6 v=0
221760 On ch=1 n=a#5 v=0
221760 On ch=1 n=c#5 v=0
221760 On ch=1 n=d#5 v=110
221760 On ch=1 n=c6 v=110
221760 On ch=1 n=d#6 v=110
222480 On ch=1 n=d#6 v=0
222480 On ch=1 n=c6 v=0
222480 On ch=1 n=d#5 v=0
222480 On ch=1 n=c#5 v=105
222480 On ch=1 n=a#5 v=105
222480 On ch=1 n=c#6 v=105
222720 On ch=1 n=c#6 v=0
222720 On ch=1 n=a#5 v=0
222720 On ch=1 n=c#5 v=0
222720 On ch=1 n=d#5 v=103
222720 On ch=1 n=c6 v=103
222720 On ch=1 n=d#6 v=103
222960 On ch=1 n=d#6 v=0
222960 On ch=1 n=c6 v=0
222960 On ch=1 n=d#5 v=0
222960 On ch=1 n=c#5 v=101
222960 On ch=1 n=a#5 v=101
222960 On ch=1 n=c#6 v=101
223200 On ch=1 n=c#6 v=0
223200 On ch=1 n=a#5 v=0
223200 On ch=1 n=c#5 v=0
223200 On ch=1 n=c5 v=100
223200 On ch=1 n=a5 v=100
223200 On ch=1 n=c6 v=100
223680 On ch=1 n=c6 v=0
223680 On ch=1 n=a5 v=0
223680 On ch=1 n=c5 v=0
224160 On ch=1 n=d#5 v=100
225360 On ch=1 n=d#5 v=0
225360 On ch=1 n=c#5 v=100
225600 On ch=1 n=c#5 v=0
225600 On ch=1 n=d#5 v=100
225840 On ch=1 n=d#5 v=0
225840 On ch=1 n=c#5 v=100
226080 On ch=1 n=c#5 v=0
226080 On ch=1 n=c5 v=100
226560 On ch=1 n=c5 v=0
227040 On ch=1 n=d#5 v=100
227520 On ch=1 n=c6 v=100
228000 On ch=1 n=c6 v=0
228000 On ch=1 n=d#5 v=0
228000 On ch=1 n=d5 v=60
228000 On ch=1 n=b5 v=60
228240 On ch=1 n=b5 v=0
228240 On ch=1 n=d5 v=0
228240 On ch=1 n=c#5 v=60
228240 On ch=1 n=a#5 v=60
228480 On ch=1 n=a#5 v=0
228480 On ch=1 n=c#5 v=0
228480 On ch=1 n=d#5 v=60
228480 On ch=1 n=c6 v=60
228720 On ch=1 n=c6 v=0
228720 On ch=1 n=d#5 v=0
228720 On ch=1 n=c#5 v=60
228720 On ch=1 n=a#5 v=60
228960 On ch=1 n=a#5 v=0
228960 On ch=1 n=c#5 v=0
228960 On ch=1 n=c5 v=60
228960 On ch=1 n=a5 v=60
229440 On ch=1 n=a5 v=0
229440 On ch=1 n=c5 v=0
229920 On ch=1 n=f5 v=60
230400 On ch=1 n=f5 v=0
230400 On ch=1 n=a#5 v=60
230400 On ch=1 n=f#5 v=60
231360 On ch=1 n=f#5 v=0
231360 On ch=1 n=a#5 v=0
231360 On ch=1 n=c5 v=60
231360 On ch=1 n=g#5 v=60
231840 On ch=1 n=g#5 v=0
231840 On ch=1 n=c5 v=0
231840 On ch=1 n=a#5 v=60
231840 On ch=1 n=f#5 v=60
232560 On ch=1 n=f#5 v=0
232560 On ch=1 n=a#5 v=0
232560 On ch=1 n=c5 v=60
232560 On ch=1 n=g#5 v=60
232740 On ch=1 n=c6 v=60
232800 On ch=1 n=c6 v=0
232800 On ch=1 n=g#5 v=0
232800 On ch=1 n=c5 v=0
232800 On ch=1 n=f#5 v=60
232800 On ch=1 n=a#5 v=60
233160 On ch=1 n=a#5 v=0
233160 On ch=1 n=f#5 v=0
233160 On ch=1 n=c5 v=60
233160 On ch=1 n=g#5 v=60
233280 On ch=1 n=g#5 v=0
233280 On ch=1 n=c5 v=0
233280 On ch=1 n=c#5 v=60
233280 On ch=1 n=f5 v=60
234000 On ch=1 n=f5 v=0
234000 On ch=1 n=c#5 v=0
234000 On ch=1 n=c#5 v=60
234000 On ch=1 n=f5 v=60
234240 On ch=1 n=f5 v=0
234240 On ch=1 n=c#5 v=0
234240 On ch=1 n=g#5 v=60
234240 On ch=1 n=f5 v=60
234480 On ch=1 n=f5 v=0
234480 On ch=1 n=g#5 v=0
234600 On ch=1 n=c#6 v=60
234600 On ch=1 n=f5 v=60
234720 On ch=1 n=f5 v=0
234720 On ch=1 n=c#6 v=0
234720 On ch=1 n=f6 v=60
234720 On ch=1 n=g#5 v=60
235680 On ch=1 n=g#5 v=0
235680 On ch=1 n=f6 v=0
235680 On ch=1 n=f6 v=60
235680 On ch=1 n=g#5 v=60
236160 On ch=1 n=g#5 v=0
236160 On ch=1 n=f6 v=0
236160 On ch=1 n=g#5 v=60
236160 On ch=1 n=f6 v=60
236400 On ch=1 n=g#5 v=0
236400 On ch=1 n=g5 v=60
236520 On ch=1 n=d#6 v=60
236580 On ch=1 n=d#6 v=0
236580 On ch=1 n=f6 v=60
236640 On ch=1 n=f6 v=0
236640 On ch=1 n=g5 v=0
236640 On ch=1 n=f6 v=0
236640 On ch=1 n=d#6 v=60
236640 On ch=1 n=f#5 v=60
237120 On ch=1 n=f#5 v=0
237120 On ch=1 n=d#6 v=0
237120 On ch=1 n=f5 v=60
237120 On ch=1 n=d6 v=60
237600 On ch=1 n=d6 v=0
237600 On ch=1 n=f5 v=0
237600 On ch=1 n=f#5 v=60
237600 On ch=1 n=d#6 v=60
238080 On ch=1 n=d#6 v=0
238080 On ch=1 n=f#5 v=0
238080 On ch=1 n=f#6 v=60
238080 On ch=1 n=a#5 v=60
238560 On ch=1 n=a#5 v=0
238560 On ch=1 n=f#6 v=0
238560 On ch=1 n=f6 v=60
238560 On ch=1 n=g#5 v=60
239040 On ch=1 n=g#5 v=0
239040 On ch=1 n=f6 v=0
239040 On ch=1 n=f#5 v=60
239040 On ch=1 n=d#6 v=60
239520 On ch=1 n=d#6 v=0
239520 On ch=1 n=f#5 v=0
239520 On ch=1 n=f5 v=60
239520 On ch=1 n=c#6 v=60
240000 On ch=1 n=c#6 v=0
240000 On ch=1 n=f5 v=0
240000 On ch=1 n=e5 v=60
240000 On ch=1 n=a#5 v=60
240480 On ch=1 n=a#5 v=0
240480 On ch=1 n=e5 v=0
240480 On ch=1 n=g#5 v=60
240480 On ch=1 n=f5 v=60
241200 On ch=1 n=f5 v=0
241200 On ch=1 n=g#5 v=0
241200 On ch=1 n=g#5 v=60
241200 On ch=1 n=f5 v=60
241440 On ch=1 n=f5 v=0
241440 On ch=1 n=g#5 v=0
241440 On ch=1 n=g#5 v=60
241440 On ch=1 n=f5 v=60
241560 On ch=1 n=f5 v=0
241560 On ch=1 n=g#5 v=0
241800 On ch=1 n=g#5 v=60
241800 On ch=1 n=f5 v=60
241920 On ch=1 n=f5 v=0
241920 On ch=1 n=g#5 v=0
241920 On ch=1 n=a#5 v=60
241920 On ch=1 n=f#5 v=60
242400 On ch=1 n=f#5 v=0
242400 On ch=1 n=a#5 v=0
242640 On ch=1 n=c5 v=60
242640 On ch=1 n=g#5 v=60
242880 On ch=1 n=g#5 v=0
242880 On ch=1 n=c5 v=0
242880 On ch=1 n=a#5 v=60
242880 On ch=1 n=f#5 v=60
243120 On ch=1 n=f#5 v=0
243120 On ch=1 n=a#5 v=0
243240 On ch=1 n=c5 v=60
243240 On ch=1 n=g#5 v=60
243360 On ch=1 n=g#5 v=0
243360 On ch=1 n=c5 v=0
243360 On ch=1 n=a#5 v=60
243360 On ch=1 n=f#5 v=60
243840 On ch=1 n=f#5 v=0
243840 On ch=1 n=a#5 v=0
244080 On ch=1 n=c5 v=60
244080 On ch=1 n=g#5 v=60
244260 On ch=1 n=c6 v=60
244320 On ch=1 n=c6 v=0
244320 On ch=1 n=g#5 v=0
244320 On ch=1 n=c5 v=0
244320 On ch=1 n=f#5 v=60
244320 On ch=1 n=a#5 v=60
244560 On ch=1 n=a#5 v=0
244560 On ch=1 n=f#5 v=0
244680 On ch=1 n=c5 v=60
244680 On ch=1 n=g#5 v=60
244800 On ch=1 n=g#5 v=0
244800 On ch=1 n=c5 v=0
244800 On ch=1 n=c#5 v=60
244800 On ch=1 n=f5 v=60
245520 On ch=1 n=f5 v=0
245520 On ch=1 n=c#5 v=0
245520 On ch=1 n=g#5 v=82
245520 On ch=1 n=f5 v=82
245760 On ch=1 n=f5 v=0
245760 On ch=1 n=g#5 v=0
245760 On ch=1 n=c#6 v=89
245760 On ch=1 n=g#5 v=89
246000 On ch=1 n=g#5 v=0
246000 On ch=1 n=c#6 v=0
246120 On ch=1 n=f6 v=100
246120 On ch=1 n=c#6 v=100
246120 On ch=1 n=g#5 v=100
246240 On ch=1 n=g#5 v=0
246240 On ch=1 n=c#6 v=0
246240 On ch=1 n=f6 v=0
246240 On ch=1 n=g#6 v=100
246240 On ch=1 n=d6 v=100
246240 On ch=1 n=g#5 v=100
246960 On ch=1 n=g#5 v=0
246960 On ch=1 n=d6 v=0
246960 On ch=1 n=g#6 v=0
246960 On ch=1 n=g#6 v=100
246960 On ch=1 n=d6 v=100
247200 On ch=1 n=d6 v=0
247200 On ch=1 n=g#6 v=0
247200 On ch=1 n=d6 v=100
247200 On ch=1 n=g#6 v=100
247320 On ch=1 n=g#6 v=0
247320 On ch=1 n=d6 v=0
247560 On ch=1 n=g#6 v=100
247560 On ch=1 n=d6 v=100
247680 On ch=1 n=d6 v=0
247680 On ch=1 n=g#6 v=0
247680 On ch=1 n=g#6 v=100
247680 On ch=1 n=c#6 v=100
247800 On ch=1 n=c#6 v=0
247800 On ch=1 n=g#6 v=0
248400 On ch=1 n=c#6 v=100
248400 On ch=1 n=g6 v=100
248640 On ch=1 n=g6 v=0
248640 On ch=1 n=c#6 v=0
248640 On ch=1 n=c#6 v=100
248640 On ch=1 n=d#6 v=100
248880 On ch=1 n=d#6 v=0
248880 On ch=1 n=c#6 v=0
249000 On ch=1 n=f6 v=100
249000 On ch=1 n=c#6 v=100
249120 On ch=1 n=c#6 v=0
249120 On ch=1 n=f6 v=0
249120 On ch=1 n=c#6 v=100
249120 On ch=1 n=f#6 v=100
249600 On ch=1 n=f#6 v=0
249600 On ch=1 n=c#6 v=0
249840 On ch=1 n=c6 v=100
249840 On ch=1 n=f#6 v=100
250080 On ch=1 n=f#6 v=0
250080 On ch=1 n=c6 v=0
250080 On ch=1 n=g5 v=100
250080 On ch=1 n=f#6 v=100
250200 On ch=1 n=f#6 v=0
250200 On ch=1 n=g5 v=0
250440 On ch=1 n=g#5 v=100
250440 On ch=1 n=f#6 v=100
250560 On ch=1 n=f#6 v=0
250560 On ch=1 n=g#5 v=0
250560 On ch=1 n=a5 v=100
250560 On ch=1 n=f#6 v=100
250680 On ch=1 n=f#6 v=0
250680 On ch=1 n=a5 v=0
251280 On ch=1 n=g#5 v=100
251280 On ch=1 n=f6 v=100
251520 On ch=1 n=f6 v=0
251520 On ch=1 n=g#5 v=0
251520 On ch=1 n=g#5 v=100
251520 On ch=1 n=f6 v=100
251640 On ch=1 n=f6 v=0
251640 On ch=1 n=g#5 v=0
251880 On ch=1 n=f#5 v=100
251880 On ch=1 n=d#6 v=100
252000 On ch=1 n=d#6 v=0
252000 On ch=1 n=f#5 v=0
252000 On ch=1 n=f5 v=100
252000 On ch=1 n=c#6 v=100
252480 On ch=1 n=c#6 v=0
252480 On ch=1 n=f5 v=0
254400 On ch=1 n=c#5 v=100
255360 On ch=1 n=c#5 v=0
255360 On ch=1 n=c#5 v=100
255600 On ch=1 n=c#5 v=0
255600 On ch=1 n=c#5 v=100
255840 On ch=1 n=c#5 v=0
255840 On ch=1 n=c#5 v=100
256200 On ch=1 n=c#5 v=100
256260 On ch=1 n=c#5 v=0
256260 On ch=1 n=d#5 v=100
256320 On ch=1 n=d#5 v=0
256320 On ch=1 n=c#5 v=0
256320 On ch=1 n=c#5 v=100
256800 On ch=1 n=c#5 v=0
256800 On ch=1 n=c5 v=100
257040 On ch=1 n=c5 v=0
257040 On ch=1 n=c#5 v=100
257280 On ch=1 n=c#5 v=0
257280 On ch=1 n=f#5 v=100
257520 On ch=1 n=f#5 v=0
257520 On ch=1 n=g#5 v=100
257760 On ch=1 n=g#5 v=0
257760 On ch=1 n=a#5 v=100
258240 On ch=1 n=a#5 v=0
260160 On ch=1 n=d#5 v=100
261120 On ch=1 n=d#5 v=0
261120 On ch=1 n=d#5 v=100
261360 On ch=1 n=d#5 v=0
261360 On ch=1 n=d#5 v=100
261600 On ch=1 n=d#5 v=0
261600 On ch=1 n=d#5 v=100
261960 On ch=1 n=d#5 v=100
262020 On ch=1 n=d#5 v=0
262020 On ch=1 n=f5 v=100
262080 On ch=1 n=f5 v=0
262080 On ch=1 n=d#5 v=0
262080 On ch=1 n=d#5 v=100
262560 On ch=1 n=d#5 v=0
262560 On ch=1 n=d5 v=100
262800 On ch=1 n=d5 v=0
262800 On ch=1 n=d#5 v=100
263040 On ch=1 n=d#5 v=0
263040 On ch=1 n=g#5 v=100
263280 On ch=1 n=g#5 v=0
263280 On ch=1 n=a#5 v=100
263520 On ch=1 n=a#5 v=0
263520 On ch=1 n=c6 v=100
264000 On ch=1 n=c6 v=0
264480 On ch=1 n=g#4 v=100
264480 On ch=1 n=g#5 v=100
265440 On ch=1 n=g#5 v=0
265440 On ch=1 n=g#4 v=0
265920 On ch=1 n=g#6 v=100
265920 On ch=1 n=g#5 v=100
267120 On ch=1 n=g#5 v=0
267120 On ch=1 n=g#6 v=0
267120 On ch=1 n=g#6 v=100
267120 On ch=1 n=g#5 v=100
267360 On ch=1 n=g#5 v=0
267360 On ch=1 n=g#6 v=0
267360 On ch=1 n=g#5 v=100
267360 On ch=1 n=g#6 v=100
267720 On ch=1 n=g#6 v=100
267780 On ch=1 n=g#6 v=0
267780 On ch=1 n=a#6 v=100
267840 On ch=1 n=a#6 v=0
267840 On ch=1 n=g#6 v=0
267840 On ch=1 n=g#5 v=0
267840 On ch=1 n=g#6 v=100
268320 On ch=1 n=g#6 v=0
268320 On ch=1 n=g6 v=101
268560 On ch=1 n=g6 v=0
268560 On ch=1 n=g#6 v=102
268800 On ch=1 n=g#6 v=0
268800 On ch=1 n=c#7 v=103
268800 On ch=1 n=c#6 v=103
269040 On ch=1 n=c#6 v=0
269040 On ch=1 n=c#7 v=0
269040 On ch=1 n=d#7 v=104
269040 On ch=1 n=d#6 v=104
269280 On ch=1 n=d#6 v=0
269280 On ch=1 n=d#7 v=0
269280 On ch=1 n=f7 v=105
269280 On ch=1 n=c#7 v=105
269280 On ch=1 n=f6 v=105
270000 On ch=1 n=f6 v=0
270000 On ch=1 n=c#7 v=0
270000 On ch=1 n=f7 v=0
270000 On ch=1 n=f7 v=108
270000 On ch=1 n=c#7 v=108
270000 On ch=1 n=f6 v=108
270240 On ch=1 n=f6 v=0
270240 On ch=1 n=c#7 v=0
270240 On ch=1 n=f7 v=0
270240 On ch=1 n=f7 v=109
270240 On ch=1 n=c#7 v=109
270240 On ch=1 n=f6 v=109
270360 On ch=1 n=f6 v=0
270360 On ch=1 n=c#7 v=0
270360 On ch=1 n=f7 v=0
270600 On ch=1 n=f7 v=110
270600 On ch=1 n=c#7 v=110
270600 On ch=1 n=f6 v=110
270720 On ch=1 n=f6 v=0
270720 On ch=1 n=c#7 v=0
270720 On ch=1 n=f7 v=0
270720 On ch=1 n=f7 v=110
270720 On ch=1 n=c#7 v=110
270720 On ch=1 n=f6 v=110
270840 On ch=1 n=f6 v=0
270840 On ch=1 n=c#7 v=0
270840 On ch=1 n=f7 v=0
271440 On ch=1 n=d#7 v=110
271440 On ch=1 n=c7 v=110
271440 On ch=1 n=d#6 v=110
271680 On ch=1 n=d#6 v=0
271680 On ch=1 n=c7 v=0
271680 On ch=1 n=d#7 v=0
271680 On ch=1 n=d#7 v=110
271680 On ch=1 n=c7 v=110
271680 On ch=1 n=d#6 v=110
271800 On ch=1 n=d#6 v=0
271800 On ch=1 n=c7 v=0
271800 On ch=1 n=d#7 v=0
272040 On ch=1 n=c#7 v=110
272040 On ch=1 n=a#6 v=110
272040 On ch=1 n=c#6 v=110
272160 On ch=1 n=c#6 v=0
272160 On ch=1 n=a#6 v=0
272160 On ch=1 n=c#7 v=0
272160 On ch=1 n=c#7 v=110
272160 On ch=1 n=a#6 v=110
272160 On ch=1 n=c#6 v=110
272280 On ch=1 n=c#6 v=0
272280 On ch=1 n=a#6 v=0
272280 On ch=1 n=c#7 v=0
272880 On ch=1 n=c7 v=110
272880 On ch=1 n=g#6 v=110
272880 On ch=1 n=c6 v=110
273120 On ch=1 n=c6 v=0
273120 On ch=1 n=g#6 v=0
273120 On ch=1 n=c7 v=0
273120 On ch=1 n=c7 v=110
273120 On ch=1 n=g#6 v=110
273120 On ch=1 n=c6 v=110
273240 On ch=1 n=c6 v=0
273240 On ch=1 n=g#6 v=0
273240 On ch=1 n=c7 v=0
273480 On ch=1 n=a#6 v=110
273480 On ch=1 n=f#6 v=110
273480 On ch=1 n=a#5 v=110
273600 On ch=1 n=a#5 v=0
273600 On ch=1 n=f#6 v=0
273600 On ch=1 n=a#6 v=0
273600 On ch=1 n=a#6 v=110
273600 On ch=1 n=f#6 v=110
273600 On ch=1 n=a#5 v=110
273720 On ch=1 n=a#5 v=0
273720 On ch=1 n=f#6 v=0
273720 On ch=1 n=a#6 v=0
274320 On ch=1 n=a#6 v=110
274320 On ch=1 n=f#6 v=110
274320 On ch=1 n=a#5 v=110
274560 On ch=1 n=a#5 v=0
274560 On ch=1 n=f#6 v=0
274560 On ch=1 n=a#6 v=0
274560 On ch=1 n=a#6 v=110
274560 On ch=1 n=f#6 v=110
274560 On ch=1 n=a#5 v=110
274680 On ch=1 n=a#5 v=0
274680 On ch=1 n=f#6 v=0
274680 On ch=1 n=a#6 v=0
274920 On ch=1 n=c5 v=110
274920 On ch=1 n=f#5 v=110
274920 On ch=1 n=c6 v=110
275040 On ch=1 n=c6 v=0
275040 On ch=1 n=f#5 v=0
275040 On ch=1 n=c5 v=0
275040 On ch=1 n=c#6 v=110
275040 On ch=1 n=f5 v=110
275040 On ch=1 n=c#5 v=110
275160 On ch=1 n=c#5 v=0
275160 On ch=1 n=f5 v=0
275160 On ch=1 n=c#6 v=0
276960 On ch=1 n=c#5 v=100
277800 On ch=1 n=c#5 v=0
277800 On ch=1 n=c#6 v=100
277920 On ch=1 n=c#6 v=0
277920 On ch=1 n=c#5 v=100
278400 On ch=1 n=c#5 v=0
278760 On ch=1 n=c#5 v=100
278880 On ch=1 n=c#5 v=0
278880 On ch=1 n=c#5 v=100
279240 On ch=1 n=c#5 v=100
279300 On ch=1 n=c#5 v=0
279300 On ch=1 n=d#5 v=100
279360 On ch=1 n=d#5 v=0
279360 On ch=1 n=c#5 v=0
279360 On ch=1 n=c#5 v=100
280320 On ch=1 n=c#5 v=0
280320 On ch=1 n=c5 v=100
280412 On ch=1 n=c#5 v=100
280440 On ch=1 n=c5 v=0
280532 On ch=1 n=c#5 v=0
280532 On ch=1 n=d#5 v=100
280640 On ch=1 n=f5 v=100
280652 On ch=1 n=d#5 v=0
280752 On ch=1 n=f#5 v=100
280760 On ch=1 n=f5 v=0
280860 On ch=1 n=g#5 v=100
280872 On ch=1 n=f#5 v=0
280976 On ch=1 n=a#5 v=100
280980 On ch=1 n=g#5 v=0
281088 On ch=1 n=b5 v=100
281096 On ch=1 n=a#5 v=0
281196 On ch=1 n=c#6 v=100
281208 On ch=1 n=b5 v=0
281308 On ch=1 n=d#6 v=100
281316 On ch=1 n=c#6 v=0
281424 On ch=1 n=f6 v=100
281428 On ch=1 n=d#6 v=0
281528 On ch=1 n=f#6 v=100
281544 On ch=1 n=f6 v=0
281640 On ch=1 n=g#6 v=100
281648 On ch=1 n=f#6 v=0
281760 On ch=1 n=g#6 v=0
281760 On ch=1 n=a#6 v=100
281880 On ch=1 n=a#6 v=0
282720 On ch=1 n=d#5 v=100
283560 On ch=1 n=d#5 v=0
283560 On ch=1 n=d#6 v=100
283680 On ch=1 n=d#6 v=0
283680 On ch=1 n=d#5 v=100
284160 On ch=1 n=d#5 v=0
284520 On ch=1 n=d#5 v=100
284640 On ch=1 n=d#5 v=0
284640 On ch=1 n=d#5 v=100
285000 On ch=1 n=d#5 v=100
285060 On ch=1 n=d#5 v=0
285060 On ch=1 n=f5 v=100
285120 On ch=1 n=f5 v=0
285120 On ch=1 n=d#5 v=0
285120 On ch=1 n=d#5 v=100
286080 On ch=1 n=d#5 v=0
286080 On ch=1 n=d5 v=100
286172 On ch=1 n=d#5 v=100
286200 On ch=1 n=d5 v=0
286292 On ch=1 n=d#5 v=0
286292 On ch=1 n=f5 v=100
286400 On ch=1 n=g5 v=100
286412 On ch=1 n=f5 v=0
286512 On ch=1 n=g#5 v=100
286520 On ch=1 n=g5 v=0
286620 On ch=1 n=a#5 v=100
286632 On ch=1 n=g#5 v=0
286736 On ch=1 n=c6 v=100
286740 On ch=1 n=a#5 v=0
286848 On ch=1 n=c#6 v=100
286856 On ch=1 n=c6 v=0
286956 On ch=1 n=d#6 v=100
286968 On ch=1 n=c#6 v=0
287068 On ch=1 n=f6 v=100
287076 On ch=1 n=d#6 v=0
287184 On ch=1 n=g6 v=100
287188 On ch=1 n=f6 v=0
287288 On ch=1 n=g#6 v=100
287304 On ch=1 n=g6 v=0
287400 On ch=1 n=a#6 v=100
287408 On ch=1 n=g#6 v=0
287520 On ch=1 n=a#6 v=0
287520 On ch=1 n=c7 v=100
287640 On ch=1 n=c7 v=0
288000 On ch=1 n=g#4 v=100
288000 On ch=1 n=g#5 v=100
288480 On ch=1 n=g#5 v=0
288480 On ch=1 n=g#4 v=0
288480 On ch=1 n=g#6 v=100
288480 On ch=1 n=g#5 v=100
288960 On ch=1 n=g#5 v=0
288960 On ch=1 n=g#6 v=0
289200 On ch=1 n=g#5 v=100
289200 On ch=1 n=g#6 v=100
289440 On ch=1 n=g#6 v=0
289440 On ch=1 n=g#5 v=0
289440 On ch=1 n=g#5 v=100
289440 On ch=1 n=g#6 v=100
290160 On ch=1 n=g#6 v=0
290160 On ch=1 n=g#5 v=0
290160 On ch=1 n=g#6 v=100
290160 On ch=1 n=g#5 v=100
290400 On ch=1 n=g#5 v=0
290400 On ch=1 n=g#6 v=0
290400 On ch=1 n=g#5 v=100
290400 On ch=1 n=g#6 v=100
290760 On ch=1 n=g#7 v=100
290820 On ch=1 n=g#7 v=0
290820 On ch=1 n=a#7 v=100
290880 On ch=1 n=a#7 v=0
290880 On ch=1 n=g#6 v=0
290880 On ch=1 n=g#5 v=0
290880 On ch=1 n=g#7 v=100
291360 On ch=1 n=g#7 v=0
291360 On ch=1 n=g7 v=101
291600 On ch=1 n=g7 v=0
291600 On ch=1 n=g#7 v=102
291840 On ch=1 n=g#7 v=0
291840 On ch=1 n=c#8 v=103
291840 On ch=1 n=c#7 v=103
292080 On ch=1 n=c#7 v=0
292080 On ch=1 n=c#8 v=0
292080 On ch=1 n=d#8 v=104
292080 On ch=1 n=d#7 v=104
292320 On ch=1 n=d#7 v=0
292320 On ch=1 n=d#8 v=0
292320 On ch=1 n=f8 v=105
292320 On ch=1 n=c#8 v=105
292320 On ch=1 n=f7 v=105
293040 On ch=1 n=f7 v=0
293040 On ch=1 n=c#8 v=0
293040 On ch=1 n=f8 v=0
293040 On ch=1 n=f8 v=108
293040 On ch=1 n=c#8 v=108
293040 On ch=1 n=f7 v=108
293280 On ch=1 n=f7 v=0
293280 On ch=1 n=c#8 v=0
293280 On ch=1 n=f8 v=0
293280 On ch=1 n=f8 v=109
293280 On ch=1 n=c#8 v=109
293280 On ch=1 n=f7 v=109
293400 On ch=1 n=f7 v=0
293400 On ch=1 n=c#8 v=0
293400 On ch=1 n=f8 v=0
293640 On ch=1 n=f8 v=110
293640 On ch=1 n=c#8 v=110
293640 On ch=1 n=f7 v=110
293760 On ch=1 n=f7 v=0
293760 On ch=1 n=c#8 v=0
293760 On ch=1 n=f8 v=0
293760 On ch=1 n=f8 v=110
293760 On ch=1 n=c#8 v=110
293760 On ch=1 n=f7 v=110
293880 On ch=1 n=f7 v=0
293880 On ch=1 n=c#8 v=0
293880 On ch=1 n=f8 v=0
294480 On ch=1 n=d#8 v=110
294480 On ch=1 n=c8 v=110
294480 On ch=1 n=d#7 v=110
294720 On ch=1 n=d#7 v=0
294720 On ch=1 n=c8 v=0
294720 On ch=1 n=d#8 v=0
294720 On ch=1 n=d#8 v=110
294720 On ch=1 n=c8 v=110
294720 On ch=1 n=d#7 v=110
294840 On ch=1 n=d#7 v=0
294840 On ch=1 n=c8 v=0
294840 On ch=1 n=d#8 v=0
295080 On ch=1 n=c#8 v=110
295080 On ch=1 n=a#7 v=110
295080 On ch=1 n=c#7 v=110
295200 On ch=1 n=c#7 v=0
295200 On ch=1 n=a#7 v=0
295200 On ch=1 n=c#8 v=0
295200 On ch=1 n=c#8 v=110
295200 On ch=1 n=a#7 v=110
295200 On ch=1 n=c#7 v=110
295320 On ch=1 n=c#7 v=0
295320 On ch=1 n=a#7 v=0
295320 On ch=1 n=c#8 v=0
295920 On ch=1 n=c8 v=110
295920 On ch=1 n=g#7 v=110
295920 On ch=1 n=c7 v=110
296160 On ch=1 n=c7 v=0
296160 On ch=1 n=g#7 v=0
296160 On ch=1 n=c8 v=0
296160 On ch=1 n=c8 v=110
296160 On ch=1 n=g#7 v=110
296160 On ch=1 n=c7 v=110
296280 On ch=1 n=c7 v=0
296280 On ch=1 n=g#7 v=0
296280 On ch=1 n=c8 v=0
296520 On ch=1 n=a#7 v=110
296520 On ch=1 n=f#7 v=110
296520 On ch=1 n=a#6 v=110
296640 On ch=1 n=a#6 v=0
296640 On ch=1 n=f#7 v=0
296640 On ch=1 n=a#7 v=0
296640 On ch=1 n=a#7 v=110
296640 On ch=1 n=f#7 v=110
296640 On ch=1 n=a#6 v=110
296760 On ch=1 n=a#6 v=0
296760 On ch=1 n=f#7 v=0
296760 On ch=1 n=a#7 v=0
297360 On ch=1 n=a#7 v=110
297360 On ch=1 n=f#7 v=110
297360 On ch=1 n=a#6 v=110
297600 On ch=1 n=a#6 v=0
297600 On ch=1 n=f#7 v=0
297600 On ch=1 n=a#7 v=0
297600 On ch=1 n=a#7 v=110
297600 On ch=1 n=f#7 v=110
297600 On ch=1 n=a#6 v=110
297720 On ch=1 n=a#6 v=0
297720 On ch=1 n=f#7 v=0
297720 On ch=1 n=a#7 v=0
297960 On ch=1 n=c5 v=110
297960 On ch=1 n=f#5 v=110
297960 On ch=1 n=c6 v=110
298080 On ch=1 n=c6 v=0
298080 On ch=1 n=f#5 v=0
298080 On ch=1 n=c5 v=0
298080 On ch=1 n=c#6 v=110
298080 On ch=1 n=f5 v=110
298080 On ch=1 n=c#5 v=110
298200 On ch=1 n=c#5 v=0
298200 On ch=1 n=f5 v=0
298200 On ch=1 n=c#6 v=0
299040 On ch=1 n=d#5 v=100
299520 On ch=1 n=c6 v=100
300960 On ch=1 n=c6 v=0
300960 On ch=1 n=d#5 v=0
300960 On ch=1 n=f5 v=100
300960 On ch=1 n=c#6 v=100
302400 On ch=1 n=c#6 v=0
302400 On ch=1 n=f5 v=0
302400 On ch=1 n=d#5 v=100
302400 On ch=1 n=c6 v=100
302880 On ch=1 n=c6 v=0
302880 On ch=1 n=d#5 v=0
302880 On ch=1 n=c#5 v=100
302880 On ch=1 n=a#5 v=100
303360 On ch=1 n=a#5 v=0
303360 On ch=1 n=c#5 v=0
303360 On ch=1 n=d#5 v=100
303360 On ch=1 n=c6 v=100
303840 On ch=1 n=c6 v=0
303840 On ch=1 n=d#5 v=0
303840 On ch=1 n=a#5 v=100
303840 On ch=1 n=c#5 v=100
304320 On ch=1 n=c#5 v=0
304320 On ch=1 n=a#5 v=0
304320 On ch=1 n=g#5 v=100
304320 On ch=1 n=c5 v=100
304800 On ch=1 n=c5 v=0
304800 On ch=1 n=g#5 v=0
305280 On ch=1 n=a#5 v=100
305280 On ch=1 n=g6 v=100
306720 On ch=1 n=g6 v=0
306720 On ch=1 n=a#5 v=0
306720 On ch=1 n=g#6 v=100
306720 On ch=1 n=c6 v=100
308160 On ch=1 n=c6 v=0
308160 On ch=1 n=g#6 v=0
308160 On ch=1 n=a#5 v=100
308160 On ch=1 n=g6 v=100
308640 On ch=1 n=g6 v=0
308640 On ch=1 n=a#5 v=0
308640 On ch=1 n=g#5 v=100
308640 On ch=1 n=f6 v=100
309120 On ch=1 n=f6 v=0
309120 On ch=1 n=g#5 v=0
309120 On ch=1 n=a#5 v=100
309120 On ch=1 n=g6 v=100
309600 On ch=1 n=g6 v=0
309600 On ch=1 n=a#5 v=0
309600 On ch=1 n=g#5 v=100
309600 On ch=1 n=f6 v=100
310080 On ch=1 n=f6 v=0
310080 On ch=1 n=g#5 v=0
310080 On ch=1 n=g5 v=100
310080 On ch=1 n=d#6 v=100
310560 On ch=1 n=d#6 v=0
310560 On ch=1 n=g5 v=0
310560 On ch=1 n=f5 v=100
310560 On ch=1 n=c#6 v=100
310920 On ch=1 n=c6 v=100
310980 On ch=1 n=c6 v=0
310980 On ch=1 n=c#6 v=100
311040 On ch=1 n=c#6 v=0
311040 On ch=1 n=c#6 v=0
311040 On ch=1 n=f5 v=0
311040 On ch=1 n=d#5 v=100
311040 On ch=1 n=c6 v=100
311520 On ch=1 n=c6 v=0
311520 On ch=1 n=d#5 v=0
311520 On ch=1 n=d5 v=100
311520 On ch=1 n=b5 v=100
312000 On ch=1 n=b5 v=0
312000 On ch=1 n=d5 v=0
312000 On ch=1 n=d#5 v=100
312000 On ch=1 n=c6 v=100
312420 On ch=1 n=f#5 v=100
312480 On ch=1 n=c6 v=0
312480 On ch=1 n=d#5 v=0
312480 On ch=1 n=d#6 v=100
313440 On ch=1 n=d#6 v=0
313440 On ch=1 n=f#5 v=0
313440 On ch=1 n=f5 v=100
313440 On ch=1 n=c#6 v=100
313920 On ch=1 n=c#6 v=0
313920 On ch=1 n=f5 v=0
313920 On ch=1 n=d#5 v=100
313920 On ch=1 n=c6 v=100
314400 On ch=1 n=c6 v=0
314400 On ch=1 n=d#5 v=0
314400 On ch=1 n=c#5 v=100
314400 On ch=1 n=a#5 v=100
314880 On ch=1 n=a#5 v=0
314880 On ch=1 n=c#5 v=0
314880 On ch=1 n=d#5 v=100
314880 On ch=1 n=c6 v=100
315360 On ch=1 n=c6 v=0
315360 On ch=1 n=d#5 v=0
315360 On ch=1 n=c#5 v=100
315360 On ch=1 n=a#5 v=100
315840 On ch=1 n=a#5 v=0
315840 On ch=1 n=c#5 v=0
315840 On ch=1 n=c5 v=100
315840 On ch=1 n=g#5 v=100
316320 On ch=1 n=g#5 v=0
316320 On ch=1 n=c5 v=0
316680 On ch=1 n=g6 v=100
316740 On ch=1 n=g6 v=0
316740 On ch=1 n=g#6 v=100
316740 On ch=1 n=a#5 v=100
316800 On ch=1 n=g#6 v=0
316800 On ch=1 n=g6 v=100
317280 On ch=1 n=g6 v=0
317280 On ch=1 n=a#5 v=0
317280 On ch=1 n=a5 v=100
317280 On ch=1 n=f#6 v=100
317760 On ch=1 n=f#6 v=0
317760 On ch=1 n=a5 v=0
317760 On ch=1 n=a#5 v=100
317760 On ch=1 n=g6 v=100
318240 On ch=1 n=g6 v=0
318240 On ch=1 n=a#5 v=0
318240 On ch=1 n=a#6 v=100
318240 On ch=1 n=d6 v=100
318720 On ch=1 n=d6 v=0
318720 On ch=1 n=a#6 v=0
318720 On ch=1 n=a6 v=100
318720 On ch=1 n=c#6 v=100
319200 On ch=1 n=c#6 v=0
319200 On ch=1 n=a6 v=0
319200 On ch=1 n=g#6 v=100
319200 On ch=1 n=c6 v=100
319680 On ch=1 n=c6 v=0
319680 On ch=1 n=g#6 v=0
319680 On ch=1 n=a#5 v=100
319680 On ch=1 n=g6 v=100
320160 On ch=1 n=g6 v=0
320160 On ch=1 n=a#5 v=0
320160 On ch=1 n=g#5 v=100
320160 On ch=1 n=f6 v=100
320640 On ch=1 n=f6 v=0
320640 On ch=1 n=g#5 v=0
320640 On ch=1 n=a#5 v=100
320640 On ch=1 n=g6 v=100
321120 On ch=1 n=g6 v=0
321120 On ch=1 n=a#5 v=0
321120 On ch=1 n=f6 v=100
321120 On ch=1 n=g#5 v=100
321600 On ch=1 n=g#5 v=0
321600 On ch=1 n=f6 v=0
321600 On ch=1 n=d#6 v=100
321600 On ch=1 n=g5 v=100
321960 On ch=1 n=g#5 v=100
322020 On ch=1 n=g#5 v=0
322020 On ch=1 n=a#5 v=100
322080 On ch=1 n=a#5 v=0
322080 On ch=1 n=g5 v=0
322080 On ch=1 n=d#6 v=0
322080 On ch=1 n=g#5 v=100
322560 On ch=1 n=g#5 v=0
322560 On ch=1 n=g5 v=100
322800 On ch=1 n=g5 v=0
322800 On ch=1 n=c#6 v=100
323040 On ch=1 n=c#6 v=0
323040 On ch=1 n=d#6 v=100
323280 On ch=1 n=d#6 v=0
323280 On ch=1 n=g6 v=100
323520 On ch=1 n=g6 v=0
323520 On ch=1 n=c#7 v=100
323760 On ch=1 n=c#7 v=0
323760 On ch=1 n=f7 v=100
323880 On ch=1 n=d#7 v=100
323940 On ch=1 n=d#7 v=0
323940 On ch=1 n=f7 v=100
324000 On ch=1 n=f7 v=0
324000 On ch=1 n=f7 v=0
324000 On ch=1 n=d#7 v=100
324480 On ch=1 n=d#7 v=0
324480 On ch=1 n=c#7 v=100
324720 On ch=1 n=c#7 v=0
324720 On ch=1 n=g6 v=100
324960 On ch=1 n=g6 v=0
324960 On ch=1 n=f6 v=100
325200 On ch=1 n=f6 v=0
325200 On ch=1 n=d#6 v=100
325440 On ch=1 n=d#6 v=0
325440 On ch=1 n=g5 v=100
325680 On ch=1 n=g5 v=0
325680 On ch=1 n=c#6 v=100
325920 On ch=1 n=c#6 v=0
325920 On ch=1 n=d#6 v=100
326160 On ch=1 n=d#6 v=0
326160 On ch=1 n=g6 v=100
326400 On ch=1 n=g6 v=0
326400 On ch=1 n=c#7 v=100
326640 On ch=1 n=c#7 v=0
326640 On ch=1 n=f7 v=100
326760 On ch=1 n=d#7 v=100
326820 On ch=1 n=d#7 v=0
326820 On ch=1 n=f7 v=100
326880 On ch=1 n=f7 v=0
326880 On ch=1 n=f7 v=0
326880 On ch=1 n=d#7 v=100
327360 On ch=1 n=d#7 v=0
327360 On ch=1 n=c7 v=100
327600 On ch=1 n=c7 v=0
327600 On ch=1 n=g#6 v=100
327840 On ch=1 n=g#6 v=0
327840 On ch=1 n=f6 v=100
328080 On ch=1 n=f6 v=0
328080 On ch=1 n=d#6 v=100
328320 On ch=1 n=d#6 v=0
328320 On ch=1 n=g5 v=100
328560 On ch=1 n=g5 v=0
328560 On ch=1 n=c#6 v=100
328800 On ch=1 n=c#6 v=0
328800 On ch=1 n=d#6 v=100
329040 On ch=1 n=d#6 v=0
329040 On ch=1 n=g6 v=100
329280 On ch=1 n=g6 v=0
329280 On ch=1 n=c#7 v=100
329520 On ch=1 n=c#7 v=0
329520 On ch=1 n=f7 v=100
329640 On ch=1 n=d#7 v=100
329700 On ch=1 n=d#7 v=0
329700 On ch=1 n=f7 v=100
329760 On ch=1 n=f7 v=0
329760 On ch=1 n=f7 v=0
329760 On ch=1 n=d#7 v=100
330240 On ch=1 n=d#7 v=0
330240 On ch=1 n=c#7 v=100
330480 On ch=1 n=c#7 v=0
330480 On ch=1 n=g6 v=100
330720 On ch=1 n=g6 v=0
330720 On ch=1 n=f6 v=100
330960 On ch=1 n=f6 v=0
330960 On ch=1 n=d#6 v=100
331200 On ch=1 n=d#6 v=0
331200 On ch=1 n=g5 v=100
331440 On ch=1 n=g5 v=0
331440 On ch=1 n=c#6 v=100
331680 On ch=1 n=c#6 v=0
331680 On ch=1 n=d#6 v=100
331920 On ch=1 n=d#6 v=0
331920 On ch=1 n=g6 v=100
332160 On ch=1 n=g6 v=0
332160 On ch=1 n=c#7 v=100
332400 On ch=1 n=c#7 v=0
332400 On ch=1 n=g7 v=100
332640 On ch=1 n=g7 v=0
332640 On ch=1 n=g#7 v=100
332640 On ch=1 n=g#6 v=100
332760 On ch=1 n=g#6 v=0
332760 On ch=1 n=g#7 v=0
333480 On ch=1 n=g#5 v=60
333540 On ch=1 n=g#5 v=0
333540 On ch=1 n=a#5 v=60
333600 On ch=1 n=a#5 v=0
333600 On ch=1 n=g#5 v=60
334080 On ch=1 n=g#5 v=0
334080 On ch=1 n=g5 v=60
334320 On ch=1 n=g5 v=0
334320 On ch=1 n=c#6 v=60
334560 On ch=1 n=c#6 v=0
334560 On ch=1 n=d#6 v=60
334800 On ch=1 n=d#6 v=0
334800 On ch=1 n=g6 v=60
335040 On ch=1 n=g6 v=0
335040 On ch=1 n=c#7 v=60
335280 On ch=1 n=c#7 v=0
335280 On ch=1 n=f7 v=60
335400 On ch=1 n=f7 v=0
335400 On ch=1 n=d#7 v=60
335460 On ch=1 n=d#7 v=0
335460 On ch=1 n=f7 v=60
335520 On ch=1 n=f7 v=0
335520 On ch=1 n=d#7 v=60
336000 On ch=1 n=d#7 v=0
336000 On ch=1 n=c#7 v=60
336240 On ch=1 n=c#7 v=0
336240 On ch=1 n=g6 v=60
336480 On ch=1 n=g6 v=0
336480 On ch=1 n=f6 v=60
336720 On ch=1 n=f6 v=0
336720 On ch=1 n=d#6 v=60
336960 On ch=1 n=d#6 v=0
336960 On ch=1 n=g5 v=60
337200 On ch=1 n=g5 v=0
337200 On ch=1 n=c#6 v=60
337440 On ch=1 n=c#6 v=0
337440 On ch=1 n=d#6 v=60
337680 On ch=1 n=d#6 v=0
337680 On ch=1 n=g6 v=60
337920 On ch=1 n=g6 v=0
337920 On ch=1 n=c#7 v=60
338160 On ch=1 n=c#7 v=0
338160 On ch=1 n=f7 v=60
338280 On ch=1 n=f7 v=0
338280 On ch=1 n=d#7 v=60
338340 On ch=1 n=d#7 v=0
338340 On ch=1 n=f7 v=60
338400 On ch=1 n=f7 v=0
338400 On ch=1 n=d#7 v=60
338880 On ch=1 n=d#7 v=0
338880 On ch=1 n=c7 v=60
339120 On ch=1 n=c7 v=0
339120 On ch=1 n=g#6 v=60
339360 On ch=1 n=g#6 v=0
339360 On ch=1 n=f6 v=60
339600 On ch=1 n=f6 v=0
339600 On ch=1 n=d#6 v=60
339840 On ch=1 n=d#6 v=0
339840 On ch=1 n=g5 v=60
340080 On ch=1 n=g5 v=0
340080 On ch=1 n=c#6 v=60
340320 On ch=1 n=c#6 v=0
340320 On ch=1 n=d#6 v=60
340560 On ch=1 n=d#6 v=0
340560 On ch=1 n=g6 v=60
340800 On ch=1 n=g6 v=0
340800 On ch=1 n=c#7 v=60
341040 On ch=1 n=c#7 v=0
341040 On ch=1 n=f7 v=60
341160 On ch=1 n=f7 v=0
341160 On ch=1 n=d#7 v=60
341220 On ch=1 n=d#7 v=0
341220 On ch=1 n=f7 v=60
341280 On ch=1 n=f7 v=0
341280 On ch=1 n=d#7 v=60
341760 On ch=1 n=d#7 v=0
341760 On ch=1 n=c#7 v=60
342000 On ch=1 n=c#7 v=0
342000 On ch=1 n=g6 v=60
342240 On ch=1 n=g6 v=0
342240 On ch=1 n=f6 v=60
342480 On ch=1 n=f6 v=0
342480 On ch=1 n=d#6 v=60
342720 On ch=1 n=d#6 v=0
342720 On ch=1 n=g5 v=60
342960 On ch=1 n=g5 v=0
342960 On ch=1 n=c#6 v=71
343200 On ch=1 n=c#6 v=0
343200 On ch=1 n=d#6 v=83
343440 On ch=1 n=d#6 v=0
343440 On ch=1 n=g6 v=95
343680 On ch=1 n=g6 v=0
343680 On ch=1 n=c#7 v=107
343920 On ch=1 n=c#7 v=0
343920 On ch=1 n=g7 v=119
344160 On ch=1 n=g7 v=0
344160 On ch=1 n=g#7 v=120
344160 On ch=1 n=g#6 v=120
344280 On ch=1 n=g#6 v=0
344280 On ch=1 n=g#7 v=0
345120 On ch=1 n=g#4 v=100
346560 On ch=1 n=g#4 v=0
346560 On ch=1 n=g#5 v=100
347520 On ch=1 n=g#5 v=0
347520 On ch=1 n=g#5 v=100
347760 On ch=1 n=g#5 v=0
347760 On ch=1 n=g#5 v=100
348000 On ch=1 n=g#5 v=0
348000 On ch=1 n=g#5 v=100
348360 On ch=1 n=g#5 v=100
348420 On ch=1 n=g#5 v=0
348420 On ch=1 n=a#5 v=100
348480 On ch=1 n=a#5 v=0
348480 On ch=1 n=g#5 v=0
348480 On ch=1 n=g#5 v=100
348960 On ch=1 n=g#5 v=0
348960 On ch=1 n=g5 v=100
349200 On ch=1 n=g5 v=0
349200 On ch=1 n=g#5 v=100
349440 On ch=1 n=g#5 v=0
349440 On ch=1 n=c#6 v=100
349680 On ch=1 n=c#6 v=0
349680 On ch=1 n=d#6 v=100
349920 On ch=1 n=d#6 v=0
349920 On ch=1 n=f6 v=100
350400 On ch=1 n=f6 v=0
350880 On ch=1 n=a#4 v=100
352320 On ch=1 n=a#4 v=0
352320 On ch=1 n=a#5 v=100
353280 On ch=1 n=a#5 v=0
353280 On ch=1 n=a#5 v=100
353520 On ch=1 n=a#5 v=0
353520 On ch=1 n=a#5 v=100
353760 On ch=1 n=a#5 v=0
353760 On ch=1 n=a#5 v=100
354120 On ch=1 n=a#5 v=100
354180 On ch=1 n=a#5 v=0
354180 On ch=1 n=c6 v=100
354240 On ch=1 n=c6 v=0
354240 On ch=1 n=a#5 v=0
354240 On ch=1 n=a#5 v=100
354720 On ch=1 n=a#5 v=0
354720 On ch=1 n=a5 v=100
354960 On ch=1 n=a5 v=0
354960 On ch=1 n=a#5 v=100
355200 On ch=1 n=a#5 v=0
355200 On ch=1 n=d#6 v=100
355440 On ch=1 n=d#6 v=0
355440 On ch=1 n=f6 v=100
355680 On ch=1 n=f6 v=0
355680 On ch=1 n=g6 v=100
356160 On ch=1 n=g6 v=0
356640 On ch=1 n=d#5 v=100
356640 On ch=1 n=d#6 v=100
358080 On ch=1 n=d#6 v=0
358080 On ch=1 n=d#5 v=0
358080 On ch=1 n=d#7 v=100
358080 On ch=1 n=d#6 v=100
359040 On ch=1 n=d#6 v=0
359040 On ch=1 n=d#7 v=0
359040 On ch=1 n=d#7 v=100
359040 On ch=1 n=d#6 v=100
359280 On ch=1 n=d#6 v=0
359280 On ch=1 n=d#7 v=0
359280 On ch=1 n=d#7 v=100
359280 On ch=1 n=d#6 v=100
359520 On ch=1 n=d#6 v=0
359520 On ch=1 n=d#7 v=0
359520 On ch=1 n=d#6 v=100
359520 On ch=1 n=d#7 v=100
359880 On ch=1 n=d#7 v=100
359940 On ch=1 n=d#7 v=0
359940 On ch=1 n=f7 v=100
360000 On ch=1 n=f7 v=0
360000 On ch=1 n=d#7 v=0
360000 On ch=1 n=d#6 v=0
360000 On ch=1 n=d#7 v=100
360480 On ch=1 n=d#7 v=0
360480 On ch=1 n=d7 v=100
360720 On ch=1 n=d7 v=0
360720 On ch=1 n=d#7 v=100
360960 On ch=1 n=d#7 v=0
360960 On ch=1 n=g#6 v=100
360960 On ch=1 n=g#7 v=100
361200 On ch=1 n=g#7 v=0
361200 On ch=1 n=g#6 v=0
361200 On ch=1 n=a#6 v=100
361200 On ch=1 n=a#7 v=100
361440 On ch=1 n=a#7 v=0
361440 On ch=1 n=a#6 v=0
361440 On ch=1 n=c8 v=100
361440 On ch=1 n=g#7 v=100
361440 On ch=1 n=c7 v=100
362160 On ch=1 n=c7 v=0
362160 On ch=1 n=g#7 v=0
362160 On ch=1 n=c8 v=0
362160 On ch=1 n=c8 v=100
362160 On ch=1 n=g#7 v=100
362160 On ch=1 n=c7 v=100
362400 On ch=1 n=c7 v=0
362400 On ch=1 n=g#7 v=0
362400 On ch=1 n=c8 v=0
362400 On ch=1 n=c8 v=100
362400 On ch=1 n=g#7 v=100
362400 On ch=1 n=c7 v=100
362520 On ch=1 n=c7 v=0
362520 On ch=1 n=g#7 v=0
362520 On ch=1 n=c8 v=0
362760 On ch=1 n=c8 v=100
362760 On ch=1 n=g#7 v=100
362760 On ch=1 n=c7 v=100
362880 On ch=1 n=c7 v=0
362880 On ch=1 n=g#7 v=0
362880 On ch=1 n=c8 v=0
362880 On ch=1 n=c8 v=100
362880 On ch=1 n=g#7 v=100
362880 On ch=1 n=c7 v=100
363000 On ch=1 n=c7 v=0
363000 On ch=1 n=g#7 v=0
363000 On ch=1 n=c8 v=0
363600 On ch=1 n=a#7 v=100
363600 On ch=1 n=g7 v=100
363600 On ch=1 n=a#6 v=100
363840 On ch=1 n=a#6 v=0
363840 On ch=1 n=g7 v=0
363840 On ch=1 n=a#7 v=0
363840 On ch=1 n=a#7 v=100
363840 On ch=1 n=g7 v=100
363840 On ch=1 n=a#6 v=100
363960 On ch=1 n=a#6 v=0
363960 On ch=1 n=g7 v=0
363960 On ch=1 n=a#7 v=0
364200 On ch=1 n=g#7 v=100
364200 On ch=1 n=f7 v=100
364200 On ch=1 n=g#6 v=100
364320 On ch=1 n=g#6 v=0
364320 On ch=1 n=f7 v=0
364320 On ch=1 n=g#7 v=0
364320 On ch=1 n=g#7 v=100
364320 On ch=1 n=f7 v=100
364320 On ch=1 n=g#6 v=100
364440 On ch=1 n=g#6 v=0
364440 On ch=1 n=f7 v=0
364440 On ch=1 n=g#7 v=0
365040 On ch=1 n=g7 v=100
365040 On ch=1 n=d#7 v=100
365040 On ch=1 n=g6 v=100
365280 On ch=1 n=g6 v=0
365280 On ch=1 n=d#7 v=0
365280 On ch=1 n=g7 v=0
365280 On ch=1 n=g7 v=100
365280 On ch=1 n=d#7 v=100
365280 On ch=1 n=g6 v=100
365400 On ch=1 n=g6 v=0
365400 On ch=1 n=d#7 v=0
365400 On ch=1 n=g7 v=0
365640 On ch=1 n=f7 v=100
365640 On ch=1 n=c#7 v=100
365640 On ch=1 n=f6 v=100
365760 On ch=1 n=f6 v=0
365760 On ch=1 n=c#7 v=0
365760 On ch=1 n=f7 v=0
365760 On ch=1 n=f7 v=100
365760 On ch=1 n=c#7 v=100
365760 On ch=1 n=f6 v=100
365880 On ch=1 n=f6 v=0
365880 On ch=1 n=c#7 v=0
365880 On ch=1 n=f7 v=0
366480 On ch=1 n=f7 v=100
366480 On ch=1 n=c#7 v=100
366480 On ch=1 n=f6 v=100
366720 On ch=1 n=f6 v=0
366720 On ch=1 n=c#7 v=0
366720 On ch=1 n=f7 v=0
366720 On ch=1 n=f7 v=100
366720 On ch=1 n=c#7 v=100
366720 On ch=1 n=f6 v=100
366840 On ch=1 n=f6 v=0
366840 On ch=1 n=c#7 v=0
366840 On ch=1 n=f7 v=0
367080 On ch=1 n=g6 v=100
367080 On ch=1 n=c#6 v=100
367080 On ch=1 n=g5 v=100
367200 On ch=1 n=g5 v=0
367200 On ch=1 n=c#6 v=0
367200 On ch=1 n=g6 v=0
367200 On ch=1 n=g#5 v=100
367200 On ch=1 n=c6 v=100
367200 On ch=1 n=g#6 v=100
367320 On ch=1 n=g#6 v=0
367320 On ch=1 n=c6 v=0
367320 On ch=1 n=g#5 v=0
368160 On ch=1 n=g#4 v=100
369120 On ch=1 n=g#4 v=0
369120 On ch=1 n=g#5 v=100
369960 On ch=1 n=g#5 v=0
369960 On ch=1 n=g#6 v=100
370080 On ch=1 n=g#6 v=0
370080 On ch=1 n=g#5 v=100
370920 On ch=1 n=g#5 v=0
370920 On ch=1 n=g#5 v=100
371040 On ch=1 n=g#5 v=0
371040 On ch=1 n=g#5 v=100
371400 On ch=1 n=g#5 v=100
371460 On ch=1 n=g#5 v=0
371460 On ch=1 n=a#5 v=100
371520 On ch=1 n=a#5 v=0
371520 On ch=1 n=g#5 v=0
371520 On ch=1 n=g#5 v=100
372480 On ch=1 n=g#5 v=0
372480 On ch=1 n=g5 v=100
372572 On ch=1 n=g#5 v=100
372600 On ch=1 n=g5 v=0
372692 On ch=1 n=g#5 v=0
372692 On ch=1 n=a#5 v=100
372800 On ch=1 n=c6 v=100
372812 On ch=1 n=a#5 v=0
372912 On ch=1 n=c#6 v=100
372920 On ch=1 n=c6 v=0
373020 On ch=1 n=d#6 v=100
373032 On ch=1 n=c#6 v=0
373136 On ch=1 n=f6 v=100
373140 On ch=1 n=d#6 v=0
373248 On ch=1 n=f#6 v=100
373256 On ch=1 n=f6 v=0
373356 On ch=1 n=g#6 v=100
373368 On ch=1 n=f#6 v=0
373468 On ch=1 n=a#6 v=100
373476 On ch=1 n=g#6 v=0
373584 On ch=1 n=c7 v=100
373588 On ch=1 n=a#6 v=0
373688 On ch=1 n=c#7 v=100
373704 On ch=1 n=c7 v=0
373800 On ch=1 n=d#7 v=100
373808 On ch=1 n=c#7 v=0
373920 On ch=1 n=d#7 v=0
373920 On ch=1 n=f7 v=100
374040 On ch=1 n=f7 v=0
374400 On ch=1 n=a#4 v=100
374880 On ch=1 n=a#4 v=0
374880 On ch=1 n=a#5 v=100
375720 On ch=1 n=a#5 v=0
375720 On ch=1 n=a#6 v=100
375840 On ch=1 n=a#6 v=0
375840 On ch=1 n=a#5 v=100
376680 On ch=1 n=a#5 v=0
376680 On ch=1 n=a#5 v=100
376800 On ch=1 n=a#5 v=0
376800 On ch=1 n=a#5 v=100
377160 On ch=1 n=a#5 v=100
377220 On ch=1 n=a#5 v=0
377220 On ch=1 n=c6 v=100
377280 On ch=1 n=c6 v=0
377280 On ch=1 n=a#5 v=0
377280 On ch=1 n=a#5 v=100
378240 On ch=1 n=a#5 v=0
378240 On ch=1 n=a5 v=100
378332 On ch=1 n=a#5 v=100
378360 On ch=1 n=a5 v=0
378452 On ch=1 n=a#5 v=0
378452 On ch=1 n=c6 v=100
378560 On ch=1 n=d6 v=100
378572 On ch=1 n=c6 v=0
378672 On ch=1 n=d#6 v=100
378680 On ch=1 n=d6 v=0
378780 On ch=1 n=f6 v=100
378792 On ch=1 n=d#6 v=0
378896 On ch=1 n=g6 v=100
378900 On ch=1 n=f6 v=0
379008 On ch=1 n=g#6 v=100
379016 On ch=1 n=g6 v=0
379116 On ch=1 n=a#6 v=100
379128 On ch=1 n=g#6 v=0
379228 On ch=1 n=c7 v=100
379236 On ch=1 n=a#6 v=0
379344 On ch=1 n=d7 v=100
379348 On ch=1 n=c7 v=0
379448 On ch=1 n=d#7 v=100
379464 On ch=1 n=d7 v=0
379560 On ch=1 n=f7 v=100
379568 On ch=1 n=d#7 v=0
379680 On ch=1 n=f7 v=0
379680 On ch=1 n=g7 v=100
379800 On ch=1 n=g7 v=0
380160 On ch=1 n=d#5 v=100
380160 On ch=1 n=d#6 v=100
380640 On ch=1 n=d#6 v=0
380640 On ch=1 n=d#5 v=0
380640 On ch=1 n=d#7 v=100
380640 On ch=1 n=d#6 v=100
381120 On ch=1 n=d#6 v=0
381120 On ch=1 n=d#7 v=0
381480 On ch=1 n=d#8 v=100
381480 On ch=1 n=d#7 v=100
381600 On ch=1 n=d#7 v=0
381600 On ch=1 n=d#8 v=0
381600 On ch=1 n=d#6 v=100
381600 On ch=1 n=d#7 v=100
382080 On ch=1 n=d#7 v=0
382080 On ch=1 n=d#6 v=0
382440 On ch=1 n=d#6 v=100
382440 On ch=1 n=d#7 v=100
382560 On ch=1 n=d#7 v=0
382560 On ch=1 n=d#6 v=0
382560 On ch=1 n=d#6 v=100
382560 On ch=1 n=d#7 v=100
382920 On ch=1 n=d#7 v=100
382980 On ch=1 n=d#7 v=0
382980 On ch=1 n=f7 v=100
383040 On ch=1 n=f7 v=0
383040 On ch=1 n=d#7 v=0
383040 On ch=1 n=d#6 v=0
383040 On ch=1 n=d#7 v=100
383520 On ch=1 n=d#7 v=0
383520 On ch=1 n=d7 v=103
383760 On ch=1 n=d7 v=0
383760 On ch=1 n=d#7 v=105
384000 On ch=1 n=d#7 v=0
384000 On ch=1 n=g#6 v=107
384000 On ch=1 n=g#7 v=107
384240 On ch=1 n=g#7 v=0
384240 On ch=1 n=g#6 v=0
384240 On ch=1 n=a#6 v=109
384240 On ch=1 n=a#7 v=109
384480 On ch=1 n=a#7 v=0
384480 On ch=1 n=a#6 v=0
384480 On ch=1 n=c8 v=110
384480 On ch=1 n=g#7 v=110
384480 On ch=1 n=c7 v=110
385200 On ch=1 n=c7 v=0
385200 On ch=1 n=g#7 v=0
385200 On ch=1 n=c8 v=0
385200 On ch=1 n=c8 v=110
385200 On ch=1 n=g#7 v=110
385200 On ch=1 n=c7 v=110
385440 On ch=1 n=c7 v=0
385440 On ch=1 n=g#7 v=0
385440 On ch=1 n=c8 v=0
385440 On ch=1 n=c8 v=110
385440 On ch=1 n=g#7 v=110
385440 On ch=1 n=c7 v=110
385560 On ch=1 n=c7 v=0
385560 On ch=1 n=g#7 v=0
385560 On ch=1 n=c8 v=0
385800 On ch=1 n=c8 v=110
385800 On ch=1 n=g#7 v=110
385800 On ch=1 n=c7 v=110
385920 On ch=1 n=c7 v=0
385920 On ch=1 n=g#7 v=0
385920 On ch=1 n=c8 v=0
385920 On ch=1 n=c8 v=110
385920 On ch=1 n=g#7 v=110
385920 On ch=1 n=c7 v=110
386040 On ch=1 n=c7 v=0
386040 On ch=1 n=g#7 v=0
386040 On ch=1 n=c8 v=0
386640 On ch=1 n=a#7 v=110
386640 On ch=1 n=g7 v=110
386640 On ch=1 n=a#6 v=110
386880 On ch=1 n=a#6 v=0
386880 On ch=1 n=g7 v=0
386880 On ch=1 n=a#7 v=0
386880 On ch=1 n=a#7 v=110
386880 On ch=1 n=g7 v=110
386880 On ch=1 n=a#6 v=110
387000 On ch=1 n=a#6 v=0
387000 On ch=1 n=g7 v=0
387000 On ch=1 n=a#7 v=0
387240 On ch=1 n=g#7 v=110
387240 On ch=1 n=f7 v=110
387240 On ch=1 n=g#6 v=110
387360 On ch=1 n=g#6 v=0
387360 On ch=1 n=f7 v=0
387360 On ch=1 n=g#7 v=0
387360 On ch=1 n=g#7 v=110
387360 On ch=1 n=f7 v=110
387360 On ch=1 n=g#6 v=110
387480 On ch=1 n=g#6 v=0
387480 On ch=1 n=f7 v=0
387480 On ch=1 n=g#7 v=0
388080 On ch=1 n=g7 v=110
388080 On ch=1 n=d#7 v=110
388080 On ch=1 n=g6 v=110
388320 On ch=1 n=g6 v=0
388320 On ch=1 n=d#7 v=0
388320 On ch=1 n=g7 v=0
388320 On ch=1 n=g7 v=110
388320 On ch=1 n=d#7 v=110
388320 On ch=1 n=g6 v=110
388440 On ch=1 n=g6 v=0
388440 On ch=1 n=d#7 v=0
388440 On ch=1 n=g7 v=0
388680 On ch=1 n=f7 v=110
388680 On ch=1 n=c#7 v=110
388680 On ch=1 n=f6 v=110
388800 On ch=1 n=f6 v=0
388800 On ch=1 n=c#7 v=0
388800 On ch=1 n=f7 v=0
388800 On ch=1 n=f7 v=110
388800 On ch=1 n=c#7 v=110
388800 On ch=1 n=f6 v=110
390240 On ch=1 n=f6 v=0
390240 On ch=1 n=c#7 v=0
390240 On ch=1 n=f7 v=0
390240 On ch=1 n=a#5 v=110
390240 On ch=1 n=f6 v=110
390240 On ch=1 n=g#6 v=110
390240 On ch=1 n=a#6 v=110
391680 On ch=1 n=a#6 v=0
391680 On ch=1 n=g#6 v=0
391680 On ch=1 n=f6 v=0
391680 On ch=1 n=a#5 v=0
391680 On ch=1 n=c8 v=110
391680 On ch=1 n=g#7 v=110
391680 On ch=1 n=c7 v=110
392160 On ch=1 n=c7 v=0
392160 On ch=1 n=g#7 v=0
392160 On ch=1 n=c8 v=0
392400 On ch=1 n=a#6 v=110
392400 On ch=1 n=g7 v=110
392400 On ch=1 n=a#7 v=110
392640 On ch=1 n=a#7 v=0
392640 On ch=1 n=g7 v=0
392640 On ch=1 n=a#6 v=0
392640 On ch=1 n=a#6 v=110
392640 On ch=1 n=a#7 v=110
392640 On ch=1 n=g7 v=110
392760 On ch=1 n=g7 v=0
392760 On ch=1 n=a#7 v=0
392760 On ch=1 n=a#6 v=0
393000 On ch=1 n=g#6 v=110
393000 On ch=1 n=f7 v=110
393000 On ch=1 n=g#7 v=110
393120 On ch=1 n=g#7 v=0
393120 On ch=1 n=f7 v=0
393120 On ch=1 n=g#6 v=0
393120 On ch=1 n=g#7 v=110
393120 On ch=1 n=f7 v=110
393120 On ch=1 n=g#6 v=110
393240 On ch=1 n=g#6 v=0
393240 On ch=1 n=f7 v=0
393240 On ch=1 n=g#7 v=0
393840 On ch=1 n=g6 v=110
393840 On ch=1 n=d#7 v=110
393840 On ch=1 n=g7 v=110
394080 On ch=1 n=g7 v=0
394080 On ch=1 n=d#7 v=0
394080 On ch=1 n=g6 v=0
394080 On ch=1 n=g6 v=110
394080 On ch=1 n=d#7 v=110
394080 On ch=1 n=g7 v=110
394200 On ch=1 n=g7 v=0
394200 On ch=1 n=d#7 v=0
394200 On ch=1 n=g6 v=0
394440 On ch=1 n=f6 v=110
394440 On ch=1 n=a#6 v=110
394440 On ch=1 n=f7 v=110
394560 On ch=1 n=f7 v=0
394560 On ch=1 n=a#6 v=0
394560 On ch=1 n=f6 v=0
394560 On ch=1 n=f7 v=110
394560 On ch=1 n=a#6 v=110
394560 On ch=1 n=f6 v=110
396000 On ch=1 n=f6 v=0
396000 On ch=1 n=a#6 v=0
396000 On ch=1 n=f7 v=0
396000 On ch=1 n=a#5 v=110
396000 On ch=1 n=f6 v=110
396000 On ch=1 n=g#6 v=110
396000 On ch=1 n=a#6 v=110
396960 On ch=1 n=a#6 v=0
396960 On ch=1 n=g#6 v=0
396960 On ch=1 n=f6 v=0
396960 On ch=1 n=a#5 v=0
396960 On ch=1 n=b5 v=110
396960 On ch=1 n=b6 v=110
397440 On ch=1 n=b6 v=0
397440 On ch=1 n=b5 v=0
397440 On ch=1 n=c7 v=120
397440 On ch=1 n=g#6 v=120
397440 On ch=1 n=c6 v=120
397560 On ch=1 n=c6 v=0
397560 On ch=1 n=g#6 v=0
397560 On ch=1 n=c7 v=0
397920 On ch=1 n=c6 v=60
398160 On ch=1 n=c6 v=0
398160 On ch=1 n=c#6 v=60
398400 On ch=1 n=c#6 v=0
398400 On ch=1 n=d6 v=60
398640 On ch=1 n=d6 v=0
398640 On ch=1 n=f6 v=60
398880 On ch=1 n=f6 v=0
398880 On ch=1 n=d#6 v=60
399040 On ch=1 n=d#6 v=0
399040 On ch=1 n=f6 v=60
399200 On ch=1 n=f6 v=0
399200 On ch=1 n=d#6 v=60
399360 On ch=1 n=d#6 v=0
399360 On ch=1 n=c6 v=60
399600 On ch=1 n=c6 v=0
399600 On ch=1 n=c#6 v=60
399840 On ch=1 n=c#6 v=0
399840 On ch=1 n=d6 v=60
400080 On ch=1 n=d6 v=0
400080 On ch=1 n=f6 v=60
400320 On ch=1 n=f6 v=0
400320 On ch=1 n=d#6 v=60
400480 On ch=1 n=d#6 v=0
400480 On ch=1 n=f6 v=60
400640 On ch=1 n=f6 v=0
400640 On ch=1 n=d#6 v=60
400800 On ch=1 n=d#6 v=0
400800 On ch=1 n=c6 v=60
401040 On ch=1 n=c6 v=0
401040 On ch=1 n=c#6 v=60
401280 On ch=1 n=c#6 v=0
401280 On ch=1 n=d6 v=60
401520 On ch=1 n=d6 v=0
401520 On ch=1 n=d#6 v=60
401760 On ch=1 n=d#6 v=0
401760 On ch=1 n=e6 v=60
402000 On ch=1 n=e6 v=0
402000 On ch=1 n=f6 v=60
402240 On ch=1 n=f6 v=0
402240 On ch=1 n=c7 v=60
402480 On ch=1 n=c7 v=0
402480 On ch=1 n=f#6 v=60
402720 On ch=1 n=f#6 v=0
402720 On ch=1 n=f6 v=60
402960 On ch=1 n=f6 v=0
402960 On ch=1 n=d#6 v=60
403200 On ch=1 n=d#6 v=0
403200 On ch=1 n=c#6 v=60
403360 On ch=1 n=c#6 v=0
403360 On ch=1 n=f6 v=60
403520 On ch=1 n=f6 v=0
403520 On ch=1 n=c#6 v=60
403680 On ch=1 n=c#6 v=0
403680 On ch=1 n=a5 v=60
403920 On ch=1 n=a5 v=0
403920 On ch=1 n=a#5 v=60
404160 On ch=1 n=a#5 v=0
404160 On ch=1 n=b5 v=60
404400 On ch=1 n=b5 v=0
404400 On ch=1 n=c6 v=60
404640 On ch=1 n=c6 v=0
404640 On ch=1 n=c#6 v=60
404800 On ch=1 n=c#6 v=0
404800 On ch=1 n=e6 v=60
404960 On ch=1 n=e6 v=0
404960 On ch=1 n=c#6 v=60
405120 On ch=1 n=c#6 v=0
405120 On ch=1 n=a5 v=60
405360 On ch=1 n=a5 v=0
405360 On ch=1 n=a#5 v=60
405600 On ch=1 n=a#5 v=0
405600 On ch=1 n=b5 v=60
405840 On ch=1 n=b5 v=0
405840 On ch=1 n=c6 v=60
406080 On ch=1 n=c6 v=0
406080 On ch=1 n=c#6 v=60
406320 On ch=1 n=c#6 v=0
406320 On ch=1 n=e6 v=60
406560 On ch=1 n=e6 v=0
406560 On ch=1 n=d#6 v=60
406800 On ch=1 n=d#6 v=0
406800 On ch=1 n=c#6 v=60
407040 On ch=1 n=c#6 v=0
407040 On ch=1 n=g5 v=60
407280 On ch=1 n=g5 v=0
407280 On ch=1 n=a#5 v=60
407520 On ch=1 n=a#5 v=0
407520 On ch=1 n=c#6 v=60
407760 On ch=1 n=c#6 v=0
407760 On ch=1 n=d#6 v=60
408000 On ch=1 n=d#6 v=0
408000 On ch=1 n=g6 v=60
408240 On ch=1 n=g6 v=0
408240 On ch=1 n=c#7 v=60
408480 On ch=1 n=c#7 v=0
408480 On ch=1 n=f7 v=60
408720 On ch=1 n=f7 v=0
408720 On ch=1 n=d#7 v=60
408960 On ch=1 n=d#7 v=0
408960 On ch=1 n=c7 v=60
409440 On ch=1 n=c7 v=0
409440 On ch=1 n=c7 v=60
409680 On ch=1 n=c7 v=0
409680 On ch=1 n=c#7 v=60
409920 On ch=1 n=c#7 v=0
409920 On ch=1 n=d7 v=60
410160 On ch=1 n=d7 v=0
410160 On ch=1 n=f7 v=60
410400 On ch=1 n=f7 v=0
410400 On ch=1 n=d#7 v=60
410560 On ch=1 n=d#7 v=0
410560 On ch=1 n=f7 v=60
410720 On ch=1 n=f7 v=0
410720 On ch=1 n=d#7 v=60
410880 On ch=1 n=d#7 v=0
410880 On ch=1 n=c7 v=60
411120 On ch=1 n=c7 v=0
411120 On ch=1 n=c#7 v=60
411360 On ch=1 n=c#7 v=0
411360 On ch=1 n=d7 v=60
411600 On ch=1 n=d7 v=0
411600 On ch=1 n=f7 v=60
411840 On ch=1 n=f7 v=0
411840 On ch=1 n=d#7 v=60
412000 On ch=1 n=d#7 v=0
412000 On ch=1 n=f7 v=60
412160 On ch=1 n=f7 v=0
412160 On ch=1 n=d#7 v=60
412320 On ch=1 n=d#7 v=0
412320 On ch=1 n=c7 v=60
412560 On ch=1 n=c7 v=0
412560 On ch=1 n=c#7 v=60
412800 On ch=1 n=c#7 v=0
412800 On ch=1 n=d7 v=60
413040 On ch=1 n=d7 v=0
413040 On ch=1 n=d#7 v=60
413280 On ch=1 n=d#7 v=0
413280 On ch=1 n=e7 v=60
413520 On ch=1 n=e7 v=0
413520 On ch=1 n=f7 v=60
413760 On ch=1 n=f7 v=0
413760 On ch=1 n=c8 v=60
414000 On ch=1 n=c8 v=0
414000 On ch=1 n=f#7 v=60
414240 On ch=1 n=f#7 v=0
414240 On ch=1 n=f7 v=60
414480 On ch=1 n=f7 v=0
414480 On ch=1 n=d#7 v=60
414720 On ch=1 n=d#7 v=0
414720 On ch=1 n=c#7 v=60
414880 On ch=1 n=c#7 v=0
414880 On ch=1 n=f7 v=60
415040 On ch=1 n=f7 v=0
415040 On ch=1 n=c#7 v=60
415200 On ch=1 n=c#7 v=0
415200 On ch=1 n=a6 v=60
415440 On ch=1 n=a6 v=0
415440 On ch=1 n=a#6 v=60
415680 On ch=1 n=a#6 v=0
415680 On ch=1 n=b6 v=60
415920 On ch=1 n=b6 v=0
415920 On ch=1 n=c7 v=60
416160 On ch=1 n=c7 v=0
416160 On ch=1 n=c#7 v=60
416320 On ch=1 n=c#7 v=0
416320 On ch=1 n=e7 v=60
416480 On ch=1 n=e7 v=0
416480 On ch=1 n=c#7 v=60
416640 On ch=1 n=c#7 v=0
416640 On ch=1 n=a6 v=60
416880 On ch=1 n=a6 v=0
416880 On ch=1 n=a#6 v=60
417120 On ch=1 n=a#6 v=0
417120 On ch=1 n=b6 v=60
417360 On ch=1 n=b6 v=0
417360 On ch=1 n=c7 v=60
417600 On ch=1 n=c7 v=0
417600 On ch=1 n=c#7 v=60
417840 On ch=1 n=c#7 v=0
417840 On ch=1 n=e7 v=60
418080 On ch=1 n=e7 v=0
418080 On ch=1 n=d#7 v=60
418320 On ch=1 n=d#7 v=0
418320 On ch=1 n=c#7 v=60
418560 On ch=1 n=c#7 v=0
418560 On ch=1 n=a#6 v=60
418800 On ch=1 n=a#6 v=0
418800 On ch=1 n=g6 v=60
419040 On ch=1 n=g6 v=0
419040 On ch=1 n=d#6 v=60
419280 On ch=1 n=d#6 v=0
419280 On ch=1 n=c#6 v=60
419520 On ch=1 n=c#6 v=0
419520 On ch=1 n=a#5 v=60
419760 On ch=1 n=a#5 v=0
419760 On ch=1 n=g5 v=60
420000 On ch=1 n=g5 v=0
420000 On ch=1 n=d#5 v=60
420240 On ch=1 n=d#5 v=0
420240 On ch=1 n=c#5 v=60
420480 On ch=1 n=c#5 v=0
420480 On ch=1 n=c5 v=60
420720 On ch=1 n=c5 v=0
420720 On ch=1 n=c#5 v=60
420960 On ch=1 n=c#5 v=0
420960 On ch=1 n=d5 v=60
421200 On ch=1 n=d5 v=0
421200 On ch=1 n=d#5 v=60
421440 On ch=1 n=d#5 v=0
421440 On ch=1 n=e5 v=60
421680 On ch=1 n=e5 v=0
421680 On ch=1 n=f5 v=60
421920 On ch=1 n=f5 v=0
421920 On ch=1 n=f#5 v=60
422160 On ch=1 n=f#5 v=0
422160 On ch=1 n=c6 v=60
422400 On ch=1 n=c6 v=0
422400 On ch=1 n=a5 v=60
422640 On ch=1 n=a5 v=0
422640 On ch=1 n=f#5 v=60
422880 On ch=1 n=f#5 v=0
422880 On ch=1 n=f5 v=60
423120 On ch=1 n=f5 v=0
423120 On ch=1 n=d#5 v=60
423360 On ch=1 n=d#5 v=0
423360 On ch=1 n=c#5 v=60
423600 On ch=1 n=c#5 v=0
423600 On ch=1 n=d#5 v=60
423840 On ch=1 n=d#5 v=0
423840 On ch=1 n=e5 v=60
424080 On ch=1 n=e5 v=0
424080 On ch=1 n=f5 v=60
424320 On ch=1 n=f5 v=0
424320 On ch=1 n=f#5 v=60
424560 On ch=1 n=f#5 v=0
424560 On ch=1 n=g5 v=60
424800 On ch=1 n=g5 v=0
424800 On ch=1 n=g#5 v=60
425040 On ch=1 n=g#5 v=0
425040 On ch=1 n=d6 v=60
425280 On ch=1 n=d6 v=0
425280 On ch=1 n=b5 v=60
425520 On ch=1 n=b5 v=0
425520 On ch=1 n=g#5 v=60
425760 On ch=1 n=g#5 v=0
425760 On ch=1 n=g5 v=60
426000 On ch=1 n=g5 v=0
426000 On ch=1 n=f5 v=60
426240 On ch=1 n=f5 v=0
426240 On ch=1 n=d#5 v=60
426480 On ch=1 n=d#5 v=0
426480 On ch=1 n=e5 v=60
426720 On ch=1 n=e5 v=0
426720 On ch=1 n=f5 v=60
426960 On ch=1 n=f5 v=0
426960 On ch=1 n=f#5 v=60
427200 On ch=1 n=f#5 v=0
427200 On ch=1 n=g5 v=60
427440 On ch=1 n=g5 v=0
427440 On ch=1 n=g#5 v=60
427680 On ch=1 n=g#5 v=0
427680 On ch=1 n=a#5 v=60
427920 On ch=1 n=a#5 v=0
427920 On ch=1 n=d#6 v=60
428160 On ch=1 n=d#6 v=0
428160 On ch=1 n=c6 v=60
428400 On ch=1 n=c6 v=0
428400 On ch=1 n=a#5 v=60
428640 On ch=1 n=a#5 v=0
428640 On ch=1 n=g#5 v=60
428880 On ch=1 n=g#5 v=0
428880 On ch=1 n=f#5 v=60
429120 On ch=1 n=f#5 v=0
429120 On ch=1 n=f5 v=60
429360 On ch=1 n=f5 v=0
429360 On ch=1 n=f#5 v=60
429600 On ch=1 n=f#5 v=0
429600 On ch=1 n=g#5 v=60
429840 On ch=1 n=g#5 v=0
429840 On ch=1 n=a#5 v=60
430080 On ch=1 n=a#5 v=0
430080 On ch=1 n=c6 v=60
430320 On ch=1 n=c6 v=0
430320 On ch=1 n=c#6 v=60
430560 On ch=1 n=c#6 v=0
430560 On ch=1 n=d#6 v=60
430800 On ch=1 n=d#6 v=0
430800 On ch=1 n=e6 v=60
431040 On ch=1 n=e6 v=0
431040 On ch=1 n=f6 v=60
431280 On ch=1 n=f6 v=0
431280 On ch=1 n=f#6 v=60
431520 On ch=1 n=f#6 v=0
431520 On ch=1 n=g6 v=60
431760 On ch=1 n=g6 v=0
431760 On ch=1 n=g#6 v=60
432000 On ch=1 n=g#6 v=0
432000 On ch=1 n=g6 v=60
432240 On ch=1 n=g6 v=0
432240 On ch=1 n=a#6 v=60
432480 On ch=1 n=a#6 v=0
432480 On ch=1 n=g#6 v=60
432720 On ch=1 n=g#6 v=0
432720 On ch=1 n=g6 v=60
432960 On ch=1 n=g6 v=0
432960 On ch=1 n=f6 v=60
433200 On ch=1 n=f6 v=0
433200 On ch=1 n=d#6 v=60
433440 On ch=1 n=d#6 v=0
433440 On ch=1 n=g6 v=60
433680 On ch=1 n=g6 v=0
433680 On ch=1 n=g#6 v=60
433920 On ch=1 n=g#6 v=0
433920 On ch=1 n=g6 v=60
434160 On ch=1 n=g6 v=0
434160 On ch=1 n=f6 v=60
434400 On ch=1 n=f6 v=0
434400 On ch=1 n=d#6 v=60
434640 On ch=1 n=d#6 v=0
434640 On ch=1 n=c#6 v=60
434880 On ch=1 n=c#6 v=0
434880 On ch=1 n=f6 v=60
435120 On ch=1 n=f6 v=0
435120 On ch=1 n=g6 v=60
435360 On ch=1 n=g6 v=0
435360 On ch=1 n=f6 v=60
435600 On ch=1 n=f6 v=0
435600 On ch=1 n=d#6 v=60
435840 On ch=1 n=d#6 v=0
435840 On ch=1 n=c#6 v=60
436080 On ch=1 n=c#6 v=0
436080 On ch=1 n=c6 v=60
436320 On ch=1 n=c6 v=0
436320 On ch=1 n=d#6 v=60
436560 On ch=1 n=d#6 v=0
436560 On ch=1 n=f6 v=60
436800 On ch=1 n=f6 v=0
436800 On ch=1 n=d#6 v=60
437040 On ch=1 n=d#6 v=0
437040 On ch=1 n=c#6 v=60
437280 On ch=1 n=c#6 v=0
437280 On ch=1 n=c6 v=60
437520 On ch=1 n=c6 v=0
437520 On ch=1 n=a#5 v=60
437760 On ch=1 n=a#5 v=0
437760 On ch=1 n=b5 v=100
438000 On ch=1 n=b5 v=0
438000 On ch=1 n=d6 v=100
438240 On ch=1 n=d6 v=0
438240 On ch=1 n=f6 v=100
438480 On ch=1 n=f6 v=0
438480 On ch=1 n=g#6 v=100
438720 On ch=1 n=g#6 v=0
438720 On ch=1 n=b6 v=100
438960 On ch=1 n=b6 v=0
438960 On ch=1 n=d7 v=100
439200 On ch=1 n=d7 v=0
439200 On ch=1 n=b7 v=100
439440 On ch=1 n=b7 v=0
439440 On ch=1 n=d7 v=100
439680 On ch=1 n=d7 v=0
439680 On ch=1 n=b6 v=100
439920 On ch=1 n=b6 v=0
439920 On ch=1 n=g#7 v=100
440160 On ch=1 n=g#7 v=0
440160 On ch=1 n=b6 v=100
440400 On ch=1 n=b6 v=0
440400 On ch=1 n=g#6 v=100
440640 On ch=1 n=g#6 v=0
440640 On ch=1 n=f7 v=100
440880 On ch=1 n=f7 v=0
440880 On ch=1 n=g#6 v=100
441120 On ch=1 n=g#6 v=0
441120 On ch=1 n=f6 v=100
441360 On ch=1 n=f6 v=0
441360 On ch=1 n=d7 v=100
441600 On ch=1 n=d7 v=0
441600 On ch=1 n=f6 v=100
441840 On ch=1 n=f6 v=0
441840 On ch=1 n=d6 v=100
442080 On ch=1 n=d6 v=0
442080 On ch=1 n=b6 v=100
442320 On ch=1 n=b6 v=0
442320 On ch=1 n=d6 v=100
442560 On ch=1 n=d6 v=0
442560 On ch=1 n=b5 v=100
442800 On ch=1 n=b5 v=0
442800 On ch=1 n=g#6 v=100
443040 On ch=1 n=g#6 v=0
443040 On ch=1 n=b5 v=100
443280 On ch=1 n=b5 v=0
443280 On ch=1 n=g#5 v=100
443520 On ch=1 n=g#5 v=0
443520 On ch=1 n=d#5 v=100
446400 On ch=1 n=d#5 v=0
446400 On ch=1 n=d#5 v=80
446560 On ch=1 n=d#5 v=0
446560 On ch=1 n=f5 v=80
446720 On ch=1 n=f5 v=0
446720 On ch=1 n=d#5 v=80
446880 On ch=1 n=d#5 v=0
446880 On ch=1 n=d5 v=80
447120 On ch=1 n=d5 v=0
447120 On ch=1 n=d#5 v=80
447360 On ch=1 n=d#5 v=0
447360 On ch=1 n=g#5 v=80
447600 On ch=1 n=g#5 v=0
447600 On ch=1 n=a#5 v=80
447840 On ch=1 n=a#5 v=0
447840 On ch=1 n=c6 v=80
448320 On ch=1 n=c6 v=0
450120 On ch=1 n=c#5 v=80
450120 On ch=1 n=a#5 v=80
450240 On ch=1 n=a#5 v=0
450240 On ch=1 n=c#5 v=0
450240 On ch=1 n=c#5 v=80
450240 On ch=1 n=a#5 v=80
450360 On ch=1 n=a#5 v=0
450360 On ch=1 n=c#5 v=0
451560 On ch=1 n=c5 v=80
451560 On ch=1 n=g#5 v=80
451680 On ch=1 n=g#5 v=0
451680 On ch=1 n=c5 v=0
451680 On ch=1 n=c5 v=80
451680 On ch=1 n=g#5 v=80
451800 On ch=1 n=g#5 v=0
451800 On ch=1 n=c5 v=0
453000 On ch=1 n=a#4 v=80
453000 On ch=1 n=d#5 v=80
453120 On ch=1 n=d#5 v=0
453120 On ch=1 n=a#4 v=0
453120 On ch=1 n=a#4 v=80
453120 On ch=1 n=d#5 v=80
453240 On ch=1 n=d#5 v=0
453240 On ch=1 n=a#4 v=0
454440 On ch=1 n=g#4 v=80
454440 On ch=1 n=d#5 v=80
454560 On ch=1 n=d#5 v=0
454560 On ch=1 n=g#4 v=0
454560 On ch=1 n=g#4 v=80
454560 On ch=1 n=d#5 v=80
454680 On ch=1 n=d#5 v=0
454680 On ch=1 n=g#4 v=0
461640 On ch=1 n=d#5 v=77
461760 On ch=1 n=d#5 v=0
461760 On ch=1 n=a#4 v=77
461760 On ch=1 n=d#5 v=77
461880 On ch=1 n=d#5 v=0
461880 On ch=1 n=a#4 v=0
463080 On ch=1 n=d#5 v=72
463200 On ch=1 n=d#5 v=0
463200 On ch=1 n=g#4 v=72
463200 On ch=1 n=d#5 v=72
463320 On ch=1 n=d#5 v=0
463320 On ch=1 n=g#4 v=0
464520 On ch=1 n=d#5 v=67
464640 On ch=1 n=d#5 v=0
464640 On ch=1 n=a#4 v=66
464640 On ch=1 n=d#5 v=66
464760 On ch=1 n=d#5 v=0
464760 On ch=1 n=a#4 v=0
465960 On ch=1 n=d#5 v=62
466080 On ch=1 n=d#5 v=0
466080 On ch=1 n=g#4 v=61
466080 On ch=1 n=d#5 v=61
466200 On ch=1 n=d#5 v=0
466200 On ch=1 n=g#4 v=0
470880 On ch=1 n=d#5 v=60
471040 On ch=1 n=d#5 v=0
471040 On ch=1 n=f5 v=60
471200 On ch=1 n=f5 v=0
471200 On ch=1 n=d#5 v=60
471360 On ch=1 n=d#5 v=0
471360 On ch=1 n=d5 v=60
471600 On ch=1 n=d5 v=0
471600 On ch=1 n=d#5 v=60
471840 On ch=1 n=d#5 v=0
471840 On ch=1 n=g#5 v=60
472080 On ch=1 n=g#5 v=0
472080 On ch=1 n=a#5 v=60
472320 On ch=1 n=a#5 v=0
472320 On ch=1 n=c6 v=60
472800 On ch=1 n=c6 v=0
473760 On ch=1 n=d#5 v=60
473920 On ch=1 n=d#5 v=0
473920 On ch=1 n=f5 v=60
474080 On ch=1 n=f5 v=0
474080 On ch=1 n=d#5 v=60
474240 On ch=1 n=d#5 v=0
474240 On ch=1 n=d5 v=60
474480 On ch=1 n=d5 v=0
474480 On ch=1 n=d#5 v=60
474720 On ch=1 n=d#5 v=0
474720 On ch=1 n=g#5 v=60
474960 On ch=1 n=g#5 v=0
474960 On ch=1 n=a#5 v=60
475200 On ch=1 n=a#5 v=0
475200 On ch=1 n=c6 v=60
475680 On ch=1 n=c6 v=0
476640 On ch=1 n=d#5 v=60
476800 On ch=1 n=d#5 v=0
476800 On ch=1 n=f5 v=60
476960 On ch=1 n=f5 v=0
476960 On ch=1 n=d#5 v=60
477120 On ch=1 n=d#5 v=0
477120 On ch=1 n=d5 v=60
477360 On ch=1 n=d5 v=0
477360 On ch=1 n=d#5 v=60
477600 On ch=1 n=d#5 v=0
477600 On ch=1 n=g#5 v=60
477840 On ch=1 n=g#5 v=0
477840 On ch=1 n=a#5 v=60
478080 On ch=1 n=a#5 v=0
478080 On ch=1 n=c6 v=60
478200 On ch=1 n=c6 v=0
478560 On ch=1 n=g#5 v=60
478800 On ch=1 n=g#5 v=0
478800 On ch=1 n=a#5 v=60
479040 On ch=1 n=a#5 v=0
479040 On ch=1 n=c6 v=60
479280 On ch=1 n=c6 v=0
479280 On ch=1 n=d#6 v=60
479520 On ch=1 n=d#6 v=0
479520 On ch=1 n=g#6 v=60
479760 On ch=1 n=g#6 v=0
479760 On ch=1 n=a#6 v=60
480000 On ch=1 n=a#6 v=0
480000 On ch=1 n=c7 v=60
480240 On ch=1 n=c7 v=0
480240 On ch=1 n=d#7 v=60
480480 On ch=1 n=d#7 v=0
480480 On ch=1 n=g#7 v=60
480720 On ch=1 n=g#7 v=0
480720 On ch=1 n=a#7 v=60
480960 On ch=1 n=a#7 v=0
480960 On ch=1 n=c8 v=60
481080 On ch=1 n=c8 v=0
482400 On ch=1 n=g#7 v=110
482400 On ch=1 n=d#7 v=110
482400 On ch=1 n=g#6 v=110
482880 On ch=1 n=g#6 v=0
482880 On ch=1 n=d#7 v=0
482880 On ch=1 n=g#7 v=0
483840 On ch=1 n=g#4 v=110
483840 On ch=1 n=g#5 v=110
485280 On ch=1 n=g#5 v=0
485280 On ch=1 n=g#4 v=0
485280 Meta TrkEnd
TrkEnd
MTrk
0 SeqSpec 43 00 01 00
0 Meta TrkName "Upper Bass"
0 Meta 0x21 00
0 PrCh ch=1 p=0
455040 On ch=1 n=d#4 v=80
457920 On ch=1 n=d#4 v=0
457920 On ch=1 n=d#4 v=80
458080 On ch=1 n=d#4 v=0
458080 On ch=1 n=f4 v=80
458240 On ch=1 n=f4 v=0
458240 On ch=1 n=d#4 v=80
458400 On ch=1 n=d#4 v=0
458400 On ch=1 n=d4 v=80
458640 On ch=1 n=d4 v=0
458640 On ch=1 n=d#4 v=80
458880 On ch=1 n=d#4 v=0
458880 On ch=1 n=g#4 v=80
459120 On ch=1 n=g#4 v=0
459120 On ch=1 n=a#4 v=80
459360 On ch=1 n=a#4 v=0
459360 On ch=1 n=c5 v=80
459840 On ch=1 n=c5 v=0
459840 Meta TrkEnd
TrkEnd
MTrk
0 SeqSpec 43 00 01 00
0 Meta TrkName "Lower Treble"
0 Meta 0x21 00
0 PrCh ch=1 p=0
9120 On ch=1 n=g4 v=105
9120 On ch=1 n=d#5 v=105
9120 On ch=1 n=g5 v=105
9240 On ch=1 n=g5 v=0
9240 On ch=1 n=d#5 v=0
9240 On ch=1 n=g4 v=0
9600 On ch=1 n=g#4 v=110
9600 On ch=1 n=d#5 v=110
9600 On ch=1 n=g#5 v=110
9720 On ch=1 n=g#5 v=0
9720 On ch=1 n=d#5 v=0
9720 On ch=1 n=g#4 v=0
10080 On ch=1 n=a4 v=116
10080 On ch=1 n=d#5 v=116
10080 On ch=1 n=a5 v=116
10200 On ch=1 n=a5 v=0
10200 On ch=1 n=d#5 v=0
10200 On ch=1 n=a4 v=0
10560 On ch=1 n=a#4 v=120
10560 On ch=1 n=d#5 v=120
10560 On ch=1 n=a#5 v=120
10680 On ch=1 n=a#5 v=0
10680 On ch=1 n=d#5 v=0
10680 On ch=1 n=a#4 v=0
15840 On ch=1 n=f6 v=110
16080 On ch=1 n=f6 v=0
16080 On ch=1 n=d#6 v=111
16320 On ch=1 n=d#6 v=0
16320 On ch=1 n=c#6 v=113
16560 On ch=1 n=c#6 v=0
16560 On ch=1 n=a#5 v=115
16800 On ch=1 n=a#5 v=0
16800 On ch=1 n=d#5 v=117
17280 On ch=1 n=a#5 v=120
17320 On ch=1 n=c#6 v=120
17360 On ch=1 n=g6 v=120
17760 On ch=1 n=g6 v=0
17760 On ch=1 n=c#6 v=0
17760 On ch=1 n=a#5 v=0
17760 On ch=1 n=d#5 v=0
46560 On ch=1 n=a#4 v=100
46560 On ch=1 n=c#5 v=100
46560 On ch=1 n=g#5 v=100
47040 On ch=1 n=g#5 v=0
47040 On ch=1 n=g5 v=100
47520 On ch=1 n=g5 v=0
47520 On ch=1 n=c#5 v=0
47520 On ch=1 n=a#4 v=0
48000 On ch=1 n=a#4 v=100
48000 On ch=1 n=c#5 v=100
48000 On ch=1 n=g5 v=100
48480 On ch=1 n=g5 v=0
48480 On ch=1 n=f5 v=100
48960 On ch=1 n=f5 v=0
48960 On ch=1 n=c#5 v=0
48960 On ch=1 n=a#4 v=0
49440 On ch=1 n=a#4 v=100
49440 On ch=1 n=c#5 v=100
49440 On ch=1 n=f5 v=100
49920 On ch=1 n=f5 v=0
49920 On ch=1 n=d#5 v=100
50400 On ch=1 n=d#5 v=0
50400 On ch=1 n=c#5 v=0
50400 On ch=1 n=a#4 v=0
50880 On ch=1 n=g#4 v=100
50880 On ch=1 n=c5 v=100
50880 On ch=1 n=f5 v=100
51360 On ch=1 n=f5 v=0
51360 On ch=1 n=d#5 v=100
51840 On ch=1 n=d#5 v=0
51840 On ch=1 n=c5 v=0
51840 On ch=1 n=g#4 v=0
52320 On ch=1 n=a#4 v=100
52320 On ch=1 n=c#5 v=100
52320 On ch=1 n=g#5 v=100
52800 On ch=1 n=g#5 v=0
52800 On ch=1 n=g5 v=100
53280 On ch=1 n=g5 v=0
53280 On ch=1 n=c#5 v=0
53280 On ch=1 n=a#4 v=0
53760 On ch=1 n=a#4 v=100
53760 On ch=1 n=c#5 v=100
53760 On ch=1 n=g5 v=100
54240 On ch=1 n=g5 v=0
54240 On ch=1 n=f5 v=100
54720 On ch=1 n=f5 v=0
54720 On ch=1 n=c#5 v=0
54720 On ch=1 n=a#4 v=0
55200 On ch=1 n=a#4 v=100
55200 On ch=1 n=c#5 v=100
55200 On ch=1 n=f5 v=100
55680 On ch=1 n=f5 v=0
55680 On ch=1 n=d#5 v=100
56160 On ch=1 n=d#5 v=0
56160 On ch=1 n=c#5 v=0
56160 On ch=1 n=a#4 v=0
58080 On ch=1 n=a#4 v=60
58080 On ch=1 n=c#5 v=60
58080 On ch=1 n=g#5 v=60
58560 On ch=1 n=g#5 v=0
58560 On ch=1 n=g5 v=60
59040 On ch=1 n=g5 v=0
59040 On ch=1 n=c#5 v=0
59040 On ch=1 n=a#4 v=0
59520 On ch=1 n=a#4 v=60
59520 On ch=1 n=c#5 v=60
59520 On ch=1 n=g5 v=60
60000 On ch=1 n=g5 v=0
60000 On ch=1 n=f5 v=60
60480 On ch=1 n=f5 v=0
60480 On ch=1 n=c#5 v=0
60480 On ch=1 n=a#4 v=0
60960 On ch=1 n=a#4 v=60
60960 On ch=1 n=c#5 v=60
60960 On ch=1 n=f5 v=60
61440 On ch=1 n=f5 v=0
61440 On ch=1 n=d#5 v=60
61920 On ch=1 n=d#5 v=0
61920 On ch=1 n=c#5 v=0
61920 On ch=1 n=a#4 v=0
62400 On ch=1 n=g#4 v=60
62400 On ch=1 n=c5 v=60
62400 On ch=1 n=f5 v=60
62880 On ch=1 n=f5 v=0
62880 On ch=1 n=d#5 v=60
63360 On ch=1 n=d#5 v=0
63360 On ch=1 n=c5 v=0
63360 On ch=1 n=g#4 v=0
63840 On ch=1 n=a#4 v=60
63840 On ch=1 n=c#5 v=60
63840 On ch=1 n=g#5 v=60
64320 On ch=1 n=g#5 v=0
64320 On ch=1 n=g5 v=60
64800 On ch=1 n=g5 v=0
64800 On ch=1 n=c#5 v=0
64800 On ch=1 n=a#4 v=0
65280 On ch=1 n=a#4 v=60
65280 On ch=1 n=c#5 v=60
65280 On ch=1 n=g5 v=60
65760 On ch=1 n=g5 v=0
65760 On ch=1 n=f5 v=60
66240 On ch=1 n=f5 v=0
66240 On ch=1 n=c#5 v=0
66240 On ch=1 n=a#4 v=0
66720 On ch=1 n=a#4 v=83
66720 On ch=1 n=c#5 v=83
66720 On ch=1 n=f5 v=83
67200 On ch=1 n=f5 v=0
67200 On ch=1 n=d#5 v=107
67680 On ch=1 n=d#5 v=0
67680 On ch=1 n=c#5 v=0
67680 On ch=1 n=a#4 v=0
92640 On ch=1 n=a#4 v=100
92640 On ch=1 n=c#5 v=100
92640 On ch=1 n=g#5 v=100
93120 On ch=1 n=g#5 v=0
93120 On ch=1 n=g5 v=100
93600 On ch=1 n=g5 v=0
93600 On ch=1 n=c#5 v=0
93600 On ch=1 n=a#4 v=0
94080 On ch=1 n=a#4 v=100
94080 On ch=1 n=c#5 v=100
94080 On ch=1 n=g5 v=100
94560 On ch=1 n=g5 v=0
94560 On ch=1 n=f5 v=100
95040 On ch=1 n=f5 v=0
95040 On ch=1 n=c#5 v=0
95040 On ch=1 n=a#4 v=0
95520 On ch=1 n=a#4 v=100
95520 On ch=1 n=c#5 v=100
95520 On ch=1 n=f5 v=100
96000 On ch=1 n=f5 v=0
96000 On ch=1 n=d#5 v=100
96480 On ch=1 n=d#5 v=0
96480 On ch=1 n=c#5 v=0
96480 On ch=1 n=a#4 v=0
96960 On ch=1 n=g#4 v=100
96960 On ch=1 n=c5 v=100
96960 On ch=1 n=f5 v=100
97440 On ch=1 n=f5 v=0
97440 On ch=1 n=d#5 v=100
97920 On ch=1 n=d#5 v=0
97920 On ch=1 n=c5 v=0
97920 On ch=1 n=g#4 v=0
98400 On ch=1 n=a#4 v=100
98400 On ch=1 n=c#5 v=100
98400 On ch=1 n=g#5 v=100
98880 On ch=1 n=g#5 v=0
98880 On ch=1 n=g5 v=100
99360 On ch=1 n=g5 v=0
99360 On ch=1 n=c#5 v=0
99360 On ch=1 n=a#4 v=0
99840 On ch=1 n=a#4 v=100
99840 On ch=1 n=c#5 v=100
99840 On ch=1 n=g5 v=100
100320 On ch=1 n=g5 v=0
100320 On ch=1 n=f5 v=100
100800 On ch=1 n=f5 v=0
100800 On ch=1 n=c#5 v=0
100800 On ch=1 n=a#4 v=0
101280 On ch=1 n=a#4 v=100
101280 On ch=1 n=c#5 v=100
101280 On ch=1 n=f5 v=100
101760 On ch=1 n=f5 v=0
101760 On ch=1 n=d#5 v=100
102240 On ch=1 n=d#5 v=0
102240 On ch=1 n=c#5 v=0
102240 On ch=1 n=a#4 v=0
104160 On ch=1 n=a#4 v=60
104160 On ch=1 n=c#5 v=60
104160 On ch=1 n=g#5 v=60
104640 On ch=1 n=g#5 v=0
104640 On ch=1 n=g5 v=60
105120 On ch=1 n=g5 v=0
105120 On ch=1 n=c#5 v=0
105120 On ch=1 n=a#4 v=0
105600 On ch=1 n=a#4 v=60
105600 On ch=1 n=c#5 v=60
105600 On ch=1 n=g5 v=60
106080 On ch=1 n=g5 v=0
106080 On ch=1 n=f5 v=60
106560 On ch=1 n=f5 v=0
106560 On ch=1 n=c#5 v=0
106560 On ch=1 n=a#4 v=0
107040 On ch=1 n=a#4 v=60
107040 On ch=1 n=c#5 v=60
107040 On ch=1 n=f5 v=60
107520 On ch=1 n=f5 v=0
107520 On ch=1 n=d#5 v=60
108000 On ch=1 n=d#5 v=0
108000 On ch=1 n=c#5 v=0
108000 On ch=1 n=a#4 v=0
108480 On ch=1 n=g#4 v=60
108480 On ch=1 n=c5 v=60
108480 On ch=1 n=f5 v=60
108960 On ch=1 n=f5 v=0
108960 On ch=1 n=d#5 v=60
109440 On ch=1 n=d#5 v=0
109440 On ch=1 n=c5 v=0
109440 On ch=1 n=g#4 v=0
109920 On ch=1 n=a#4 v=60
109920 On ch=1 n=c#5 v=60
109920 On ch=1 n=g#5 v=60
110400 On ch=1 n=g#5 v=0
110400 On ch=1 n=g5 v=60
110880 On ch=1 n=g5 v=0
110880 On ch=1 n=c#5 v=0
110880 On ch=1 n=a#4 v=0
111360 On ch=1 n=a#4 v=60
111360 On ch=1 n=c#5 v=60
111360 On ch=1 n=g5 v=60
111840 On ch=1 n=g5 v=0
111840 On ch=1 n=f5 v=60
112320 On ch=1 n=f5 v=0
112320 On ch=1 n=c#5 v=0
112320 On ch=1 n=a#4 v=0
112800 On ch=1 n=a#4 v=83
112800 On ch=1 n=c#5 v=83
112800 On ch=1 n=f5 v=83
113280 On ch=1 n=f5 v=0
113280 On ch=1 n=d#5 v=107
113760 On ch=1 n=d#5 v=0
113760 On ch=1 n=c#5 v=0
113760 On ch=1 n=a#4 v=0
124320 On ch=1 n=a#4 v=100
124320 On ch=1 n=d5 v=100
124320 On ch=1 n=g#5 v=100
124800 On ch=1 n=g#5 v=0
124800 On ch=1 n=d5 v=0
124800 On ch=1 n=a#4 v=0
124800 On ch=1 n=a#4 v=100
124800 On ch=1 n=d5 v=100
124800 On ch=1 n=g#5 v=100
125280 On ch=1 n=g#5 v=0
125280 On ch=1 n=d5 v=0
125280 On ch=1 n=a#4 v=0
127200 On ch=1 n=a#4 v=100
127200 On ch=1 n=c#5 v=100
127200 On ch=1 n=d#5 v=100
127200 On ch=1 n=g5 v=100
127680 On ch=1 n=g5 v=0
127680 On ch=1 n=d#5 v=0
127680 On ch=1 n=c#5 v=0
127680 On ch=1 n=a#4 v=0
127680 On ch=1 n=a#4 v=100
127680 On ch=1 n=c#5 v=100
127680 On ch=1 n=d#5 v=100
127680 On ch=1 n=g5 v=100
128160 On ch=1 n=g5 v=0
128160 On ch=1 n=d#5 v=0
128160 On ch=1 n=c#5 v=0
128160 On ch=1 n=a#4 v=0
128640 On ch=1 n=c5 v=100
128640 On ch=1 n=d#5 v=100
128640 On ch=1 n=g#5 v=100
128640 On ch=1 n=c6 v=100
129120 On ch=1 n=c6 v=0
129120 On ch=1 n=g#5 v=0
129120 On ch=1 n=d#5 v=0
129120 On ch=1 n=c5 v=0
129120 On ch=1 n=c5 v=100
129120 On ch=1 n=d#5 v=100
129120 On ch=1 n=g#5 v=100
129120 On ch=1 n=c6 v=100
129600 On ch=1 n=c6 v=0
129600 On ch=1 n=g#5 v=0
129600 On ch=1 n=d#5 v=0
129600 On ch=1 n=c5 v=0
130080 On ch=1 n=c#5 v=101
130080 On ch=1 n=d#5 v=101
130080 On ch=1 n=g5 v=101
130080 On ch=1 n=c#6 v=101
130560 On ch=1 n=c#6 v=0
130560 On ch=1 n=g5 v=0
130560 On ch=1 n=d#5 v=0
130560 On ch=1 n=c#5 v=0
130560 On ch=1 n=c#5 v=103
130560 On ch=1 n=d#5 v=103
130560 On ch=1 n=g5 v=103
130560 On ch=1 n=c#6 v=103
131040 On ch=1 n=c#6 v=0
131040 On ch=1 n=g5 v=0
131040 On ch=1 n=d#5 v=0
131040 On ch=1 n=c#5 v=0
131520 On ch=1 n=c5 v=107
131520 On ch=1 n=d#5 v=107
131520 On ch=1 n=g#5 v=107
131520 On ch=1 n=c6 v=107
132000 On ch=1 n=c6 v=0
132000 On ch=1 n=g#5 v=0
132000 On ch=1 n=d#5 v=0
132000 On ch=1 n=c5 v=0
133920 On ch=1 n=g#4 v=110
133920 On ch=1 n=a#4 v=110
133920 On ch=1 n=c#5 v=110
133920 On ch=1 n=g#5 v=110
134400 On ch=1 n=g#5 v=0
134400 On ch=1 n=c#5 v=0
134400 On ch=1 n=a#4 v=0
134400 On ch=1 n=g#4 v=0
134400 On ch=1 n=g#4 v=110
134400 On ch=1 n=a#4 v=110
134400 On ch=1 n=c#5 v=110
134400 On ch=1 n=f5 v=110
134880 On ch=1 n=f5 v=0
134880 On ch=1 n=c#5 v=0
134880 On ch=1 n=a#4 v=0
134880 On ch=1 n=g#4 v=0
134880 On ch=1 n=f4 v=110
134880 On ch=1 n=g#4 v=110
134880 On ch=1 n=a#4 v=110
134880 On ch=1 n=c#5 v=110
135360 On ch=1 n=c#5 v=0
135360 On ch=1 n=a#4 v=0
135360 On ch=1 n=g#4 v=0
135360 On ch=1 n=f4 v=0
147360 On ch=1 n=f4 v=100
147360 On ch=1 n=a#4 v=100
147360 On ch=1 n=d5 v=100
147840 On ch=1 n=d5 v=0
147840 On ch=1 n=a#4 v=0
147840 On ch=1 n=f4 v=0
147840 On ch=1 n=a#4 v=100
147840 On ch=1 n=g#5 v=100
147840 On ch=1 n=d5 v=100
148320 On ch=1 n=d5 v=0
148320 On ch=1 n=g#5 v=0
148320 On ch=1 n=a#4 v=0
150240 On ch=1 n=a#4 v=100
150240 On ch=1 n=c#5 v=100
150240 On ch=1 n=d#5 v=100
150240 On ch=1 n=g5 v=100
150720 On ch=1 n=g5 v=0
150720 On ch=1 n=d#5 v=0
150720 On ch=1 n=c#5 v=0
150720 On ch=1 n=a#4 v=0
150720 On ch=1 n=a#4 v=100
150720 On ch=1 n=c#5 v=100
150720 On ch=1 n=d#5 v=100
150720 On ch=1 n=g5 v=100
151200 On ch=1 n=g5 v=0
151200 On ch=1 n=d#5 v=0
151200 On ch=1 n=c#5 v=0
151200 On ch=1 n=a#4 v=0
151680 On ch=1 n=c5 v=100
151680 On ch=1 n=d#5 v=100
151680 On ch=1 n=g#5 v=100
151680 On ch=1 n=c6 v=100
152160 On ch=1 n=c6 v=0
152160 On ch=1 n=g#5 v=0
152160 On ch=1 n=d#5 v=0
152160 On ch=1 n=c5 v=0
152160 On ch=1 n=c5 v=100
152160 On ch=1 n=d#5 v=100
152160 On ch=1 n=g#5 v=100
152160 On ch=1 n=c6 v=100
152640 On ch=1 n=c6 v=0
152640 On ch=1 n=g#5 v=0
152640 On ch=1 n=d#5 v=0
152640 On ch=1 n=c5 v=0
153120 On ch=1 n=c#5 v=101
153120 On ch=1 n=d#5 v=101
153120 On ch=1 n=g5 v=101
153120 On ch=1 n=c#6 v=101
153600 On ch=1 n=c#6 v=0
153600 On ch=1 n=g5 v=0
153600 On ch=1 n=d#5 v=0
153600 On ch=1 n=c#5 v=0
153600 On ch=1 n=c#5 v=103
153600 On ch=1 n=d#5 v=103
153600 On ch=1 n=g5 v=103
153600 On ch=1 n=c#6 v=103
154080 On ch=1 n=c#6 v=0
154080 On ch=1 n=g5 v=0
154080 On ch=1 n=d#5 v=0
154080 On ch=1 n=c#5 v=0
154560 On ch=1 n=c5 v=107
154560 On ch=1 n=d#5 v=107
154560 On ch=1 n=g#5 v=107
154560 On ch=1 n=c6 v=107
155040 On ch=1 n=c6 v=0
155040 On ch=1 n=g#5 v=0
155040 On ch=1 n=d#5 v=0
155040 On ch=1 n=c5 v=0
156960 On ch=1 n=g#4 v=110
156960 On ch=1 n=a#4 v=110
156960 On ch=1 n=c#5 v=110
156960 On ch=1 n=g#5 v=110
157440 On ch=1 n=g#5 v=0
157440 On ch=1 n=c#5 v=0
157440 On ch=1 n=a#4 v=0
157440 On ch=1 n=g#4 v=0
157440 On ch=1 n=g#4 v=110
157440 On ch=1 n=a#4 v=110
157440 On ch=1 n=c#5 v=110
157440 On ch=1 n=f5 v=110
157920 On ch=1 n=f5 v=0
157920 On ch=1 n=c#5 v=0
157920 On ch=1 n=a#4 v=0
157920 On ch=1 n=g#4 v=0
157920 On ch=1 n=f4 v=110
157920 On ch=1 n=g#4 v=110
157920 On ch=1 n=a#4 v=110
157920 On ch=1 n=c#5 v=110
158400 On ch=1 n=c#5 v=0
158400 On ch=1 n=a#4 v=0
158400 On ch=1 n=g#4 v=0
158400 On ch=1 n=f4 v=0
271680 On ch=1 n=a#4 v=110
271680 On ch=1 n=c#5 v=110
271680 On ch=1 n=d#5 v=110
271680 On ch=1 n=f#5 v=110
272160 On ch=1 n=f#5 v=0
272160 On ch=1 n=d#5 v=0
272160 On ch=1 n=c#5 v=0
272160 On ch=1 n=a#4 v=0
272160 On ch=1 n=c#5 v=110
272160 On ch=1 n=d#5 v=110
272160 On ch=1 n=a#5 v=110
272640 On ch=1 n=a#5 v=0
272640 On ch=1 n=d#5 v=0
272640 On ch=1 n=c#5 v=0
272640 On ch=1 n=a#4 v=110
272640 On ch=1 n=c#5 v=110
272640 On ch=1 n=d#5 v=110
272640 On ch=1 n=f#5 v=110
273120 On ch=1 n=f#5 v=0
273120 On ch=1 n=d#5 v=0
273120 On ch=1 n=c#5 v=0
273120 On ch=1 n=a#4 v=0
273120 On ch=1 n=f#4 v=110
273120 On ch=1 n=a#4 v=110
273120 On ch=1 n=c#5 v=110
273120 On ch=1 n=d#5 v=110
273600 On ch=1 n=d#5 v=0
273600 On ch=1 n=c#5 v=0
273600 On ch=1 n=a#4 v=0
273600 On ch=1 n=f#4 v=0
291360 On ch=1 n=g#4 v=101
291360 On ch=1 n=c5 v=101
291360 On ch=1 n=f#5 v=101
291840 On ch=1 n=f#5 v=0
291840 On ch=1 n=c5 v=0
291840 On ch=1 n=g#4 v=0
291840 On ch=1 n=g#4 v=103
291840 On ch=1 n=c5 v=103
291840 On ch=1 n=f#5 v=103
292320 On ch=1 n=f#5 v=0
292320 On ch=1 n=c5 v=0
292320 On ch=1 n=g#4 v=0
294720 On ch=1 n=a#4 v=110
294720 On ch=1 n=c#5 v=110
294720 On ch=1 n=d#5 v=110
294720 On ch=1 n=f#5 v=110
295200 On ch=1 n=f#5 v=0
295200 On ch=1 n=d#5 v=0
295200 On ch=1 n=c#5 v=0
295200 On ch=1 n=a#4 v=0
295200 On ch=1 n=c#5 v=110
295200 On ch=1 n=d#5 v=110
295200 On ch=1 n=a#5 v=110
295680 On ch=1 n=a#5 v=0
295680 On ch=1 n=d#5 v=0
295680 On ch=1 n=c#5 v=0
295680 On ch=1 n=a#4 v=110
295680 On ch=1 n=c#5 v=110
295680 On ch=1 n=d#5 v=110
295680 On ch=1 n=f#5 v=110
296160 On ch=1 n=f#5 v=0
296160 On ch=1 n=d#5 v=0
296160 On ch=1 n=c#5 v=0
296160 On ch=1 n=a#4 v=0
296160 On ch=1 n=f#4 v=110
296160 On ch=1 n=a#4 v=110
296160 On ch=1 n=c#5 v=110
296160 On ch=1 n=d#5 v=110
296640 On ch=1 n=d#5 v=0
296640 On ch=1 n=c#5 v=0
296640 On ch=1 n=a#4 v=0
296640 On ch=1 n=f#4 v=0
323040 On ch=1 n=a#4 v=100
323040 On ch=1 n=c#5 v=100
323040 On ch=1 n=g#5 v=100
323520 On ch=1 n=g#5 v=0
323520 On ch=1 n=g5 v=100
324000 On ch=1 n=g5 v=0
324000 On ch=1 n=c#5 v=0
324000 On ch=1 n=a#4 v=0
324480 On ch=1 n=a#4 v=100
324480 On ch=1 n=c#5 v=100
324480 On ch=1 n=g5 v=100
324960 On ch=1 n=g5 v=0
324960 On ch=1 n=f5 v=100
325440 On ch=1 n=f5 v=0
325440 On ch=1 n=c#5 v=0
325440 On ch=1 n=a#4 v=0
325920 On ch=1 n=a#4 v=100
325920 On ch=1 n=c#5 v=100
325920 On ch=1 n=f5 v=100
326400 On ch=1 n=f5 v=0
326400 On ch=1 n=d#5 v=100
326880 On ch=1 n=d#5 v=0
326880 On ch=1 n=c#5 v=0
326880 On ch=1 n=a#4 v=0
327360 On ch=1 n=g#4 v=100
327360 On ch=1 n=c5 v=100
327360 On ch=1 n=f5 v=100
327840 On ch=1 n=f5 v=0
327840 On ch=1 n=d#5 v=100
328320 On ch=1 n=d#5 v=0
328320 On ch=1 n=c5 v=0
328320 On ch=1 n=g#4 v=0
328800 On ch=1 n=a#4 v=100
328800 On ch=1 n=c#5 v=100
328800 On ch=1 n=g#5 v=100
329280 On ch=1 n=g#5 v=0
329280 On ch=1 n=g5 v=100
329760 On ch=1 n=g5 v=0
329760 On ch=1 n=c#5 v=0
329760 On ch=1 n=a#4 v=0
330240 On ch=1 n=a#4 v=100
330240 On ch=1 n=c#5 v=100
330240 On ch=1 n=g5 v=100
330720 On ch=1 n=g5 v=0
330720 On ch=1 n=f5 v=100
331200 On ch=1 n=f5 v=0
331200 On ch=1 n=c#5 v=0
331200 On ch=1 n=a#4 v=0
331680 On ch=1 n=a#4 v=100
331680 On ch=1 n=c#5 v=100
331680 On ch=1 n=f5 v=100
332160 On ch=1 n=f5 v=0
332160 On ch=1 n=d#5 v=100
332640 On ch=1 n=d#5 v=0
332640 On ch=1 n=c#5 v=0
332640 On ch=1 n=a#4 v=0
334560 On ch=1 n=a#4 v=60
334560 On ch=1 n=c#5 v=60
334560 On ch=1 n=g#5 v=60
335040 On ch=1 n=g#5 v=0
335040 On ch=1 n=g5 v=60
335520 On ch=1 n=g5 v=0
335520 On ch=1 n=c#5 v=0
335520 On ch=1 n=a#4 v=0
336000 On ch=1 n=a#4 v=60
336000 On ch=1 n=c#5 v=60
336000 On ch=1 n=g5 v=60
336480 On ch=1 n=g5 v=0
336480 On ch=1 n=f5 v=60
336960 On ch=1 n=f5 v=0
336960 On ch=1 n=c#5 v=0
336960 On ch=1 n=a#4 v=0
337440 On ch=1 n=a#4 v=60
337440 On ch=1 n=c#5 v=60
337440 On ch=1 n=f5 v=60
337920 On ch=1 n=f5 v=0
337920 On ch=1 n=d#5 v=60
338400 On ch=1 n=d#5 v=0
338400 On ch=1 n=c#5 v=0
338400 On ch=1 n=a#4 v=0
338880 On ch=1 n=g#4 v=60
338880 On ch=1 n=c5 v=60
338880 On ch=1 n=f5 v=60
339360 On ch=1 n=f5 v=0
339360 On ch=1 n=d#5 v=60
339840 On ch=1 n=d#5 v=0
339840 On ch=1 n=c5 v=0
339840 On ch=1 n=g#4 v=0
340320 On ch=1 n=a#4 v=60
340320 On ch=1 n=c#5 v=60
340320 On ch=1 n=g#5 v=60
340800 On ch=1 n=g#5 v=0
340800 On ch=1 n=g5 v=60
341280 On ch=1 n=g5 v=0
341280 On ch=1 n=c#5 v=0
341280 On ch=1 n=a#4 v=0
341760 On ch=1 n=a#4 v=60
341760 On ch=1 n=c#5 v=60
341760 On ch=1 n=g5 v=60
342240 On ch=1 n=g5 v=0
342240 On ch=1 n=f5 v=60
342720 On ch=1 n=f5 v=0
342720 On ch=1 n=c#5 v=0
342720 On ch=1 n=a#4 v=0
343200 On ch=1 n=a#4 v=83
343200 On ch=1 n=c#5 v=83
343200 On ch=1 n=f5 v=83
343680 On ch=1 n=f5 v=0
343680 On ch=1 n=d#5 v=107
344160 On ch=1 n=d#5 v=0
344160 On ch=1 n=c#5 v=0
344160 On ch=1 n=a#4 v=0
354720 On ch=1 n=a#4 v=100
354720 On ch=1 n=d5 v=100
354720 On ch=1 n=g#5 v=100
355200 On ch=1 n=g#5 v=0
355200 On ch=1 n=d5 v=0
355200 On ch=1 n=a#4 v=0
355200 On ch=1 n=a#4 v=100
355200 On ch=1 n=d5 v=100
355200 On ch=1 n=g#5 v=100
355680 On ch=1 n=g#5 v=0
355680 On ch=1 n=d5 v=0
355680 On ch=1 n=a#4 v=0
357600 On ch=1 n=a#4 v=100
357600 On ch=1 n=c#5 v=100
357600 On ch=1 n=d#5 v=100
357600 On ch=1 n=g5 v=100
358080 On ch=1 n=g5 v=0
358080 On ch=1 n=d#5 v=0
358080 On ch=1 n=c#5 v=0
358080 On ch=1 n=a#4 v=0
358080 On ch=1 n=a#4 v=100
358080 On ch=1 n=c#5 v=100
358080 On ch=1 n=d#5 v=100
358080 On ch=1 n=g5 v=100
358560 On ch=1 n=g5 v=0
358560 On ch=1 n=d#5 v=0
358560 On ch=1 n=c#5 v=0
358560 On ch=1 n=a#4 v=0
359040 On ch=1 n=c5 v=100
359040 On ch=1 n=d#5 v=100
359040 On ch=1 n=g#5 v=100
359040 On ch=1 n=c6 v=100
359520 On ch=1 n=c6 v=0
359520 On ch=1 n=g#5 v=0
359520 On ch=1 n=d#5 v=0
359520 On ch=1 n=c5 v=0
359520 On ch=1 n=c5 v=100
359520 On ch=1 n=d#5 v=100
359520 On ch=1 n=g#5 v=100
359520 On ch=1 n=c6 v=100
360000 On ch=1 n=c6 v=0
360000 On ch=1 n=g#5 v=0
360000 On ch=1 n=d#5 v=0
360000 On ch=1 n=c5 v=0
360480 On ch=1 n=c#5 v=100
360480 On ch=1 n=d#5 v=100
360480 On ch=1 n=g5 v=100
360480 On ch=1 n=c#6 v=100
360960 On ch=1 n=c#6 v=0
360960 On ch=1 n=g5 v=0
360960 On ch=1 n=d#5 v=0
360960 On ch=1 n=c#5 v=0
360960 On ch=1 n=c#5 v=100
360960 On ch=1 n=d#5 v=100
360960 On ch=1 n=g5 v=100
360960 On ch=1 n=c#6 v=100
361440 On ch=1 n=c#6 v=0
361440 On ch=1 n=g5 v=0
361440 On ch=1 n=d#5 v=0
361440 On ch=1 n=c#5 v=0
361920 On ch=1 n=c5 v=100
361920 On ch=1 n=d#5 v=100
361920 On ch=1 n=g#5 v=100
361920 On ch=1 n=c6 v=100
362400 On ch=1 n=c6 v=0
362400 On ch=1 n=g#5 v=0
362400 On ch=1 n=d#5 v=0
362400 On ch=1 n=c5 v=0
364320 On ch=1 n=g#4 v=100
364320 On ch=1 n=a#4 v=100
364320 On ch=1 n=c#5 v=100
364320 On ch=1 n=g#5 v=100
364800 On ch=1 n=g#5 v=0
364800 On ch=1 n=c#5 v=0
364800 On ch=1 n=a#4 v=0
364800 On ch=1 n=g#4 v=0
364800 On ch=1 n=g#4 v=100
364800 On ch=1 n=a#4 v=100
364800 On ch=1 n=c#5 v=100
364800 On ch=1 n=f5 v=100
365280 On ch=1 n=f5 v=0
365280 On ch=1 n=c#5 v=0
365280 On ch=1 n=a#4 v=0
365280 On ch=1 n=g#4 v=0
365280 On ch=1 n=f4 v=100
365280 On ch=1 n=g#4 v=100
365280 On ch=1 n=a#4 v=100
365280 On ch=1 n=c#5 v=100
365760 On ch=1 n=c#5 v=0
365760 On ch=1 n=a#4 v=0
365760 On ch=1 n=g#4 v=0
365760 On ch=1 n=f4 v=0
377760 On ch=1 n=f4 v=100
377760 On ch=1 n=a#4 v=100
377760 On ch=1 n=d5 v=100
378240 On ch=1 n=d5 v=0
378240 On ch=1 n=a#4 v=0
378240 On ch=1 n=f4 v=0
378240 On ch=1 n=a#4 v=100
378240 On ch=1 n=g#5 v=100
378240 On ch=1 n=d5 v=100
378720 On ch=1 n=d5 v=0
378720 On ch=1 n=g#5 v=0
378720 On ch=1 n=a#4 v=0
380640 On ch=1 n=a#4 v=100
380640 On ch=1 n=c#5 v=100
380640 On ch=1 n=d#5 v=100
380640 On ch=1 n=g5 v=100
381120 On ch=1 n=g5 v=0
381120 On ch=1 n=d#5 v=0
381120 On ch=1 n=c#5 v=0
381120 On ch=1 n=a#4 v=0
381120 On ch=1 n=a#4 v=100
381120 On ch=1 n=c#5 v=100
381120 On ch=1 n=d#5 v=100
381120 On ch=1 n=g5 v=100
381600 On ch=1 n=g5 v=0
381600 On ch=1 n=d#5 v=0
381600 On ch=1 n=c#5 v=0
381600 On ch=1 n=a#4 v=0
382080 On ch=1 n=c5 v=100
382080 On ch=1 n=d#5 v=100
382080 On ch=1 n=g#5 v=100
382080 On ch=1 n=c6 v=100
382560 On ch=1 n=c6 v=0
382560 On ch=1 n=g#5 v=0
382560 On ch=1 n=d#5 v=0
382560 On ch=1 n=c5 v=0
382560 On ch=1 n=c5 v=100
382560 On ch=1 n=d#5 v=100
382560 On ch=1 n=g#5 v=100
382560 On ch=1 n=c6 v=100
383040 On ch=1 n=c6 v=0
383040 On ch=1 n=g#5 v=0
383040 On ch=1 n=d#5 v=0
383040 On ch=1 n=c5 v=0
383520 On ch=1 n=c#5 v=103
383520 On ch=1 n=d#5 v=103
383520 On ch=1 n=g5 v=103
383520 On ch=1 n=c#6 v=103
384000 On ch=1 n=c#6 v=0
384000 On ch=1 n=g5 v=0
384000 On ch=1 n=d#5 v=0
384000 On ch=1 n=c#5 v=0
384000 On ch=1 n=c#5 v=107
384000 On ch=1 n=d#5 v=107
384000 On ch=1 n=g5 v=107
384000 On ch=1 n=c#6 v=107
384480 On ch=1 n=c#6 v=0
384480 On ch=1 n=g5 v=0
384480 On ch=1 n=d#5 v=0
384480 On ch=1 n=c#5 v=0
384960 On ch=1 n=c5 v=110
384960 On ch=1 n=d#5 v=110
384960 On ch=1 n=g#5 v=110
384960 On ch=1 n=c6 v=110
385440 On ch=1 n=c6 v=0
385440 On ch=1 n=g#5 v=0
385440 On ch=1 n=d#5 v=0
385440 On ch=1 n=c5 v=0
387360 On ch=1 n=g#4 v=110
387360 On ch=1 n=a#4 v=110
387360 On ch=1 n=c#5 v=110
387360 On ch=1 n=g#5 v=110
387840 On ch=1 n=g#5 v=0
387840 On ch=1 n=c#5 v=0
387840 On ch=1 n=a#4 v=0
387840 On ch=1 n=g#4 v=0
387840 On ch=1 n=g#4 v=110
387840 On ch=1 n=a#4 v=110
387840 On ch=1 n=c#5 v=110
387840 On ch=1 n=f5 v=110
388320 On ch=1 n=f5 v=0
388320 On ch=1 n=c#5 v=0
388320 On ch=1 n=a#4 v=0
388320 On ch=1 n=g#4 v=0
388320 On ch=1 n=f4 v=110
388320 On ch=1 n=g#4 v=110
388320 On ch=1 n=a#4 v=110
388320 On ch=1 n=c#5 v=110
388800 On ch=1 n=c#5 v=0
388800 On ch=1 n=a#4 v=0
388800 On ch=1 n=g#4 v=0
388800 On ch=1 n=f4 v=0
390240 On ch=1 n=g#4 v=110
390240 On ch=1 n=a#4 v=110
390240 On ch=1 n=c#5 v=110
390240 On ch=1 n=g#5 v=110
390720 On ch=1 n=g#5 v=0
390720 On ch=1 n=c#5 v=0
390720 On ch=1 n=a#4 v=0
390720 On ch=1 n=g#4 v=0
390720 On ch=1 n=g#4 v=110
390720 On ch=1 n=a#4 v=110
390720 On ch=1 n=c#5 v=110
390720 On ch=1 n=f5 v=110
391200 On ch=1 n=f5 v=0
391200 On ch=1 n=c#5 v=0
391200 On ch=1 n=a#4 v=0
391200 On ch=1 n=g#4 v=0
391200 On ch=1 n=f4 v=110
391200 On ch=1 n=g#4 v=110
391200 On ch=1 n=a#4 v=110
391200 On ch=1 n=c#5 v=110
391680 On ch=1 n=c#5 v=0
391680 On ch=1 n=a#4 v=0
391680 On ch=1 n=g#4 v=0
391680 On ch=1 n=f4 v=0
409440 On ch=1 n=d#5 v=60
409440 On ch=1 n=c6 v=60
409920 On ch=1 n=c6 v=0
409920 On ch=1 n=d#5 v=0
409920 On ch=1 n=d#5 v=60
409920 On ch=1 n=c6 v=60
410400 On ch=1 n=c6 v=0
410400 On ch=1 n=d#5 v=0
410880 On ch=1 n=d#5 v=60
410880 On ch=1 n=c6 v=60
411360 On ch=1 n=c6 v=0
411360 On ch=1 n=d#5 v=0
411360 On ch=1 n=d#5 v=60
411360 On ch=1 n=c6 v=60
411840 On ch=1 n=c6 v=0
411840 On ch=1 n=d#5 v=0
412320 On ch=1 n=d#5 v=60
412320 On ch=1 n=c6 v=60
412800 On ch=1 n=c6 v=0
412800 On ch=1 n=d#5 v=0
412800 On ch=1 n=d#5 v=60
412800 On ch=1 n=c6 v=60
413280 On ch=1 n=c6 v=0
413280 On ch=1 n=d#5 v=0
413760 On ch=1 n=d#5 v=60
413760 On ch=1 n=f5 v=60
413760 On ch=1 n=c6 v=60
414240 On ch=1 n=c6 v=0
414240 On ch=1 n=f5 v=0
414240 On ch=1 n=d#5 v=0
414240 On ch=1 n=d#5 v=60
414240 On ch=1 n=f5 v=60
414240 On ch=1 n=c6 v=60
414720 On ch=1 n=c6 v=0
414720 On ch=1 n=f5 v=0
414720 On ch=1 n=d#5 v=0
415200 On ch=1 n=c#5 v=60
415200 On ch=1 n=f5 v=60
415200 On ch=1 n=c#6 v=60
415680 On ch=1 n=c#6 v=0
415680 On ch=1 n=f5 v=0
415680 On ch=1 n=c#5 v=0
415680 On ch=1 n=c#5 v=60
415680 On ch=1 n=f5 v=60
415680 On ch=1 n=c#6 v=60
416160 On ch=1 n=c#6 v=0
416160 On ch=1 n=f5 v=0
416160 On ch=1 n=c#5 v=0
416160 On ch=1 n=e5 v=70
416640 On ch=1 n=c#6 v=60
416640 On ch=1 n=g#5 v=60
417120 On ch=1 n=g#5 v=0
417120 On ch=1 n=c#6 v=0
417120 On ch=1 n=e5 v=0
417120 On ch=1 n=a#4 v=60
417600 On ch=1 n=a#4 v=0
417600 On ch=1 n=d#5 v=70
418080 On ch=1 n=c#6 v=60
418080 On ch=1 n=g5 v=60
418560 On ch=1 n=g5 v=0
418560 On ch=1 n=c#6 v=0
418560 On ch=1 n=c#6 v=60
418560 On ch=1 n=g5 v=60
419040 On ch=1 n=g5 v=0
419040 On ch=1 n=c#6 v=0
419040 On ch=1 n=d#5 v=0
440640 On ch=1 n=b4 v=100
440640 On ch=1 n=g#5 v=100
442080 On ch=1 n=g#5 v=0
442080 On ch=1 n=b4 v=0
442080 On ch=1 n=d5 v=100
442080 On ch=1 n=b5 v=100
442560 On ch=1 n=b5 v=0
442560 On ch=1 n=d5 v=0
482400 On ch=1 n=c5 v=110
482400 On ch=1 n=d#5 v=110
482400 On ch=1 n=g#5 v=110
482400 On ch=1 n=c6 v=110
482880 On ch=1 n=c6 v=0
482880 On ch=1 n=g#5 v=0
482880 On ch=1 n=d#5 v=0
482880 On ch=1 n=c5 v=0
482880 Meta TrkEnd
TrkEnd
MTrk
0 SeqSpec 43 00 01 00
0 Meta TrkName "Lower Bass"
0 Meta 0x21 00
0 PrCh ch=1 p=0
2160 On ch=1 n=a#4 v=100
2400 On ch=1 n=a#4 v=0
2400 On ch=1 n=d#4 v=100
2880 On ch=1 n=d#4 v=0
2880 On ch=1 n=d#3 v=100
3000 On ch=1 n=d#3 v=0
3360 On ch=1 n=d#5 v=105
3360 On ch=1 n=d#4 v=105
3480 On ch=1 n=d#4 v=0
3480 On ch=1 n=d#5 v=0
3840 On ch=1 n=f5 v=110
3840 On ch=1 n=d#5 v=110
3840 On ch=1 n=f4 v=110
3960 On ch=1 n=f4 v=0
3960 On ch=1 n=d#5 v=0
3960 On ch=1 n=f5 v=0
4320 On ch=1 n=d#5 v=116
4320 On ch=1 n=f#5 v=116
4320 On ch=1 n=f#4 v=116
4440 On ch=1 n=f#4 v=0
4440 On ch=1 n=f#5 v=0
4440 On ch=1 n=d#5 v=0
4800 On ch=1 n=g5 v=120
4800 On ch=1 n=d#5 v=120
4800 On ch=1 n=g4 v=120
4920 On ch=1 n=g4 v=0
4920 On ch=1 n=d#5 v=0
4920 On ch=1 n=g5 v=0
7920 On ch=1 n=a#4 v=100
8160 On ch=1 n=a#4 v=0
8160 On ch=1 n=d#4 v=100
8640 On ch=1 n=d#4 v=0
8640 On ch=1 n=d#3 v=100
8760 On ch=1 n=d#3 v=0
13680 On ch=1 n=a#4 v=100
13920 On ch=1 n=a#4 v=0
13920 On ch=1 n=d#4 v=100
14400 On ch=1 n=d#4 v=0
14400 On ch=1 n=f5 v=100
14640 On ch=1 n=f5 v=0
14640 On ch=1 n=d#5 v=101
14880 On ch=1 n=d#5 v=0
14880 On ch=1 n=c#5 v=103
15120 On ch=1 n=c#5 v=0
15120 On ch=1 n=a#4 v=105
15360 On ch=1 n=a#4 v=0
15360 On ch=1 n=d#4 v=106
15840 On ch=1 n=d#4 v=0
21600 On ch=1 n=a#4 v=105
21840 On ch=1 n=a#4 v=0
21840 On ch=1 n=d#4 v=104
22080 On ch=1 n=d#4 v=0
22080 On ch=1 n=f4 v=103
22320 On ch=1 n=f4 v=0
22320 On ch=1 n=d#4 v=102
22560 On ch=1 n=d#4 v=0
22560 On ch=1 n=c#4 v=101
22800 On ch=1 n=c#4 v=0
22800 On ch=1 n=a#3 v=100
23040 On ch=1 n=a#3 v=0
23040 On ch=1 n=g#2 v=110
23520 On ch=1 n=g#2 v=0
23520 On ch=1 n=c5 v=100
23520 On ch=1 n=g#4 v=100
23520 On ch=1 n=d#4 v=100
24000 On ch=1 n=d#4 v=0
24000 On ch=1 n=g#4 v=0
24000 On ch=1 n=c5 v=0
24000 On ch=1 n=d#4 v=100
24000 On ch=1 n=g#4 v=100
24000 On ch=1 n=c5 v=100
24480 On ch=1 n=c5 v=0
24480 On ch=1 n=g#4 v=0
24480 On ch=1 n=d#4 v=0
24480 On ch=1 n=c#3 v=110
24960 On ch=1 n=c#3 v=0
24960 On ch=1 n=c#4 v=100
24960 On ch=1 n=g#4 v=100
25440 On ch=1 n=g#4 v=0
25440 On ch=1 n=c#4 v=0
25440 On ch=1 n=c#4 v=100
25440 On ch=1 n=g#4 v=100
25920 On ch=1 n=g#4 v=0
25920 On ch=1 n=c#4 v=0
25920 On ch=1 n=d#3 v=110
26400 On ch=1 n=d#3 v=0
26400 On ch=1 n=g4 v=100
26400 On ch=1 n=d#4 v=100
26880 On ch=1 n=d#4 v=0
26880 On ch=1 n=g4 v=0
26880 On ch=1 n=d#4 v=100
26880 On ch=1 n=g4 v=100
27360 On ch=1 n=g4 v=0
27360 On ch=1 n=d#4 v=0
27360 On ch=1 n=g#3 v=110
27840 On ch=1 n=g#3 v=0
27840 On ch=1 n=g#4 v=100
27840 On ch=1 n=d#4 v=100
28320 On ch=1 n=d#4 v=0
28320 On ch=1 n=g#4 v=0
28320 On ch=1 n=d#4 v=100
28320 On ch=1 n=g#4 v=100
28800 On ch=1 n=g#4 v=0
28800 On ch=1 n=d#4 v=0
28800 On ch=1 n=d#3 v=110
29280 On ch=1 n=d#3 v=0
29280 On ch=1 n=g5 v=100
29280 On ch=1 n=d#5 v=100
29280 On ch=1 n=a#4 v=100
29280 On ch=1 n=g4 v=100
29760 On ch=1 n=g4 v=0
29760 On ch=1 n=a#4 v=0
29760 On ch=1 n=d#5 v=0
29760 On ch=1 n=g5 v=0
29760 On ch=1 n=g4 v=100
29760 On ch=1 n=a#4 v=100
29760 On ch=1 n=d#5 v=100
29760 On ch=1 n=g5 v=100
30240 On ch=1 n=g5 v=0
30240 On ch=1 n=d#5 v=0
30240 On ch=1 n=a#4 v=0
30240 On ch=1 n=g4 v=0
30240 On ch=1 n=g#3 v=110
30720 On ch=1 n=g#3 v=0
30720 On ch=1 n=f5 v=100
30720 On ch=1 n=c5 v=100
30720 On ch=1 n=f4 v=100
31200 On ch=1 n=f4 v=0
31200 On ch=1 n=c5 v=0
31200 On ch=1 n=f5 v=0
31200 On ch=1 n=f5 v=100
31200 On ch=1 n=c5 v=100
31200 On ch=1 n=f4 v=100
31680 On ch=1 n=f4 v=0
31680 On ch=1 n=c5 v=0
31680 On ch=1 n=f5 v=0
31680 On ch=1 n=a#3 v=110
32160 On ch=1 n=a#3 v=0
32160 On ch=1 n=d5 v=100
32160 On ch=1 n=a#4 v=100
32160 On ch=1 n=f4 v=100
32640 On ch=1 n=f4 v=0
32640 On ch=1 n=a#4 v=0
32640 On ch=1 n=d5 v=0
32640 On ch=1 n=f4 v=100
32640 On ch=1 n=a#4 v=100
32640 On ch=1 n=d5 v=100
33120 On ch=1 n=d5 v=0
33120 On ch=1 n=a#4 v=0
33120 On ch=1 n=f4 v=0
33120 On ch=1 n=d#4 v=110
33600 On ch=1 n=d#5 v=100
33600 On ch=1 n=g4 v=100
34080 On ch=1 n=g4 v=0
34080 On ch=1 n=d#5 v=0
34080 On ch=1 n=c#5 v=100
34080 On ch=1 n=g4 v=100
34560 On ch=1 n=g4 v=0
34560 On ch=1 n=c#5 v=0
34560 On ch=1 n=d#4 v=0
34560 On ch=1 n=g#3 v=110
35040 On ch=1 n=g#3 v=0
35040 On ch=1 n=f4 v=100
35040 On ch=1 n=g#4 v=100
35040 On ch=1 n=b4 v=100
35520 On ch=1 n=b4 v=0
35520 On ch=1 n=g#4 v=0
35520 On ch=1 n=f4 v=0
35520 On ch=1 n=d#4 v=100
35520 On ch=1 n=g#4 v=100
35520 On ch=1 n=c5 v=100
36000 On ch=1 n=c5 v=0
36000 On ch=1 n=g#4 v=0
36000 On ch=1 n=d#4 v=0
36000 On ch=1 n=c#3 v=110
36480 On ch=1 n=c#3 v=0
36480 On ch=1 n=a4 v=100
36480 On ch=1 n=c#4 v=100
36960 On ch=1 n=c#4 v=0
36960 On ch=1 n=a4 v=0
36960 On ch=1 n=a#4 v=100
36960 On ch=1 n=c#4 v=100
37440 On ch=1 n=c#4 v=0
37440 On ch=1 n=a#4 v=0
37440 On ch=1 n=d#3 v=110
37920 On ch=1 n=d#3 v=0
37920 On ch=1 n=g4 v=100
37920 On ch=1 n=d#4 v=100
38400 On ch=1 n=d#4 v=0
38400 On ch=1 n=g4 v=0
38400 On ch=1 n=d#4 v=100
38400 On ch=1 n=g4 v=100
38880 On ch=1 n=g4 v=0
38880 On ch=1 n=d#4 v=0
38880 On ch=1 n=g#3 v=110
39360 On ch=1 n=g#3 v=0
39360 On ch=1 n=g#4 v=100
39360 On ch=1 n=d#4 v=100
39840 On ch=1 n=d#4 v=0
39840 On ch=1 n=g#4 v=0
39840 On ch=1 n=g#4 v=100
39840 On ch=1 n=d#4 v=100
40320 On ch=1 n=d#4 v=0
40320 On ch=1 n=g#4 v=0
40320 On ch=1 n=d#3 v=110
40800 On ch=1 n=d#3 v=0
40800 On ch=1 n=g5 v=100
40800 On ch=1 n=d#5 v=100
40800 On ch=1 n=a#4 v=100
40800 On ch=1 n=g4 v=100
41280 On ch=1 n=g4 v=0
41280 On ch=1 n=a#4 v=0
41280 On ch=1 n=d#5 v=0
41280 On ch=1 n=g5 v=0
41280 On ch=1 n=g4 v=100
41280 On ch=1 n=a#4 v=100
41280 On ch=1 n=d#5 v=100
41280 On ch=1 n=g5 v=100
41760 On ch=1 n=g5 v=0
41760 On ch=1 n=d#5 v=0
41760 On ch=1 n=a#4 v=0
41760 On ch=1 n=g4 v=0
41760 On ch=1 n=g#3 v=110
42240 On ch=1 n=g#3 v=0
42240 On ch=1 n=f5 v=100
42240 On ch=1 n=c5 v=100
42240 On ch=1 n=f4 v=100
42720 On ch=1 n=f4 v=0
42720 On ch=1 n=c5 v=0
42720 On ch=1 n=f5 v=0
42720 On ch=1 n=f4 v=100
42720 On ch=1 n=c5 v=100
42720 On ch=1 n=f5 v=100
43200 On ch=1 n=f5 v=0
43200 On ch=1 n=c5 v=0
43200 On ch=1 n=f4 v=0
43200 On ch=1 n=a#3 v=110
43680 On ch=1 n=a#3 v=0
43680 On ch=1 n=d5 v=100
43680 On ch=1 n=a#4 v=100
43680 On ch=1 n=f4 v=100
44160 On ch=1 n=f4 v=0
44160 On ch=1 n=a#4 v=0
44160 On ch=1 n=d5 v=0
44160 On ch=1 n=a#4 v=100
44160 On ch=1 n=d5 v=100
44160 On ch=1 n=f4 v=100
44640 On ch=1 n=f4 v=0
44640 On ch=1 n=d5 v=0
44640 On ch=1 n=a#4 v=0
44640 On ch=1 n=d#4 v=110
45120 On ch=1 n=d#5 v=100
45120 On ch=1 n=a#4 v=100
45600 On ch=1 n=a#4 v=0
45600 On ch=1 n=d#5 v=0
45600 On ch=1 n=c5 v=100
45600 On ch=1 n=d#5 v=100
46080 On ch=1 n=d#5 v=0
46080 On ch=1 n=c5 v=0
46080 On ch=1 n=d#4 v=0
46080 On ch=1 n=d#4 v=110
46560 On ch=1 n=d#4 v=0
47520 On ch=1 n=d#4 v=110
48000 On ch=1 n=d#4 v=0
48960 On ch=1 n=d#4 v=110
49440 On ch=1 n=d#4 v=0
50400 On ch=1 n=d#4 v=110
50880 On ch=1 n=d#4 v=0
51840 On ch=1 n=d#4 v=110
52320 On ch=1 n=d#4 v=0
53280 On ch=1 n=d#4 v=110
53760 On ch=1 n=d#4 v=0
54720 On ch=1 n=d#4 v=110
55200 On ch=1 n=d#4 v=0
56160 On ch=1 n=g#3 v=110
56640 On ch=1 n=g#3 v=0
56640 On ch=1 n=c5 v=100
56640 On ch=1 n=g#4 v=100
56640 On ch=1 n=d#4 v=100
57120 On ch=1 n=d#4 v=0
57120 On ch=1 n=g#4 v=0
57120 On ch=1 n=c5 v=0
57600 On ch=1 n=d#3 v=70
58080 On ch=1 n=d#3 v=0
59040 On ch=1 n=d#4 v=70
59520 On ch=1 n=d#4 v=0
60480 On ch=1 n=d#4 v=70
60960 On ch=1 n=d#4 v=0
61920 On ch=1 n=d#4 v=70
62400 On ch=1 n=d#4 v=0
63360 On ch=1 n=d#4 v=70
63840 On ch=1 n=d#4 v=0
64800 On ch=1 n=d#4 v=70
65280 On ch=1 n=d#4 v=0
66240 On ch=1 n=d#4 v=70
66720 On ch=1 n=d#4 v=0
67680 On ch=1 n=g#3 v=120
68160 On ch=1 n=g#3 v=0
68160 On ch=1 n=c5 v=100
68160 On ch=1 n=d#4 v=100
68640 On ch=1 n=d#4 v=0
68640 On ch=1 n=c5 v=0
69120 On ch=1 n=g#2 v=110
69600 On ch=1 n=g#2 v=0
69600 On ch=1 n=c5 v=100
69600 On ch=1 n=g#4 v=100
69600 On ch=1 n=d#4 v=100
70080 On ch=1 n=d#4 v=0
70080 On ch=1 n=g#4 v=0
70080 On ch=1 n=c5 v=0
70080 On ch=1 n=d#4 v=100
70080 On ch=1 n=g#4 v=100
70080 On ch=1 n=c5 v=100
70560 On ch=1 n=c5 v=0
70560 On ch=1 n=g#4 v=0
70560 On ch=1 n=d#4 v=0
70560 On ch=1 n=c#3 v=110
71040 On ch=1 n=c#3 v=0
71040 On ch=1 n=c#4 v=100
71040 On ch=1 n=g#4 v=100
71520 On ch=1 n=g#4 v=0
71520 On ch=1 n=c#4 v=0
71520 On ch=1 n=c#4 v=100
71520 On ch=1 n=g#4 v=100
72000 On ch=1 n=g#4 v=0
72000 On ch=1 n=c#4 v=0
72000 On ch=1 n=d#3 v=110
72480 On ch=1 n=d#3 v=0
72480 On ch=1 n=g4 v=100
72480 On ch=1 n=d#4 v=100
72960 On ch=1 n=d#4 v=0
72960 On ch=1 n=g4 v=0
72960 On ch=1 n=d#4 v=100
72960 On ch=1 n=g4 v=100
73440 On ch=1 n=g4 v=0
73440 On ch=1 n=d#4 v=0
73440 On ch=1 n=g#3 v=110
73920 On ch=1 n=g#3 v=0
73920 On ch=1 n=g#4 v=100
73920 On ch=1 n=d#4 v=100
74400 On ch=1 n=d#4 v=0
74400 On ch=1 n=g#4 v=0
74400 On ch=1 n=d#4 v=100
74400 On ch=1 n=g#4 v=100
74880 On ch=1 n=g#4 v=0
74880 On ch=1 n=d#4 v=0
74880 On ch=1 n=d#3 v=110
75360 On ch=1 n=d#3 v=0
75360 On ch=1 n=g5 v=100
75360 On ch=1 n=d#5 v=100
75360 On ch=1 n=a#4 v=100
75360 On ch=1 n=g4 v=100
75840 On ch=1 n=g4 v=0
75840 On ch=1 n=a#4 v=0
75840 On ch=1 n=d#5 v=0
75840 On ch=1 n=g5 v=0
75840 On ch=1 n=g4 v=100
75840 On ch=1 n=a#4 v=100
75840 On ch=1 n=d#5 v=100
75840 On ch=1 n=g5 v=100
76320 On ch=1 n=g5 v=0
76320 On ch=1 n=d#5 v=0
76320 On ch=1 n=a#4 v=0
76320 On ch=1 n=g4 v=0
76320 On ch=1 n=g#3 v=110
76800 On ch=1 n=g#3 v=0
76800 On ch=1 n=f5 v=100
76800 On ch=1 n=c5 v=100
76800 On ch=1 n=f4 v=100
77280 On ch=1 n=f4 v=0
77280 On ch=1 n=c5 v=0
77280 On ch=1 n=f5 v=0
77280 On ch=1 n=f5 v=100
77280 On ch=1 n=c5 v=100
77280 On ch=1 n=f4 v=100
77760 On ch=1 n=f4 v=0
77760 On ch=1 n=c5 v=0
77760 On ch=1 n=f5 v=0
77760 On ch=1 n=a#3 v=110
78240 On ch=1 n=a#3 v=0
78240 On ch=1 n=d5 v=100
78240 On ch=1 n=a#4 v=100
78240 On ch=1 n=f4 v=100
78720 On ch=1 n=f4 v=0
78720 On ch=1 n=a#4 v=0
78720 On ch=1 n=d5 v=0
78720 On ch=1 n=f4 v=100
78720 On ch=1 n=a#4 v=100
78720 On ch=1 n=d5 v=100
79200 On ch=1 n=d5 v=0
79200 On ch=1 n=a#4 v=0
79200 On ch=1 n=f4 v=0
79200 On ch=1 n=d#4 v=110
79680 On ch=1 n=d#5 v=100
79680 On ch=1 n=g4 v=100
80160 On ch=1 n=g4 v=0
80160 On ch=1 n=d#5 v=0
80160 On ch=1 n=c#5 v=100
80160 On ch=1 n=g4 v=100
80640 On ch=1 n=g4 v=0
80640 On ch=1 n=c#5 v=0
80640 On ch=1 n=d#4 v=0
80640 On ch=1 n=g#3 v=110
81120 On ch=1 n=g#3 v=0
81120 On ch=1 n=f4 v=100
81120 On ch=1 n=g#4 v=100
81120 On ch=1 n=b4 v=100
81600 On ch=1 n=b4 v=0
81600 On ch=1 n=g#4 v=0
81600 On ch=1 n=f4 v=0
81600 On ch=1 n=d#4 v=100
81600 On ch=1 n=g#4 v=100
81600 On ch=1 n=c5 v=100
82080 On ch=1 n=c5 v=0
82080 On ch=1 n=g#4 v=0
82080 On ch=1 n=d#4 v=0
82080 On ch=1 n=c#3 v=110
82560 On ch=1 n=c#3 v=0
82560 On ch=1 n=a4 v=100
82560 On ch=1 n=c#4 v=100
83040 On ch=1 n=c#4 v=0
83040 On ch=1 n=a4 v=0
83040 On ch=1 n=a#4 v=100
83040 On ch=1 n=c#4 v=100
83520 On ch=1 n=c#4 v=0
83520 On ch=1 n=a#4 v=0
83520 On ch=1 n=d#3 v=110
84000 On ch=1 n=d#3 v=0
84000 On ch=1 n=g4 v=100
84000 On ch=1 n=d#4 v=100
84480 On ch=1 n=d#4 v=0
84480 On ch=1 n=g4 v=0
84480 On ch=1 n=d#4 v=100
84480 On ch=1 n=g4 v=100
84960 On ch=1 n=g4 v=0
84960 On ch=1 n=d#4 v=0
84960 On ch=1 n=g#3 v=110
85440 On ch=1 n=g#3 v=0
85440 On ch=1 n=g#4 v=100
85440 On ch=1 n=d#4 v=100
85920 On ch=1 n=d#4 v=0
85920 On ch=1 n=g#4 v=0
85920 On ch=1 n=g#4 v=100
85920 On ch=1 n=d#4 v=100
86400 On ch=1 n=d#4 v=0
86400 On ch=1 n=g#4 v=0
86400 On ch=1 n=d#3 v=110
86880 On ch=1 n=d#3 v=0
86880 On ch=1 n=g5 v=100
86880 On ch=1 n=d#5 v=100
86880 On ch=1 n=a#4 v=100
86880 On ch=1 n=g4 v=100
87360 On ch=1 n=g4 v=0
87360 On ch=1 n=a#4 v=0
87360 On ch=1 n=d#5 v=0
87360 On ch=1 n=g5 v=0
87360 On ch=1 n=g4 v=100
87360 On ch=1 n=a#4 v=100
87360 On ch=1 n=d#5 v=100
87360 On ch=1 n=g5 v=100
87840 On ch=1 n=g5 v=0
87840 On ch=1 n=d#5 v=0
87840 On ch=1 n=a#4 v=0
87840 On ch=1 n=g4 v=0
87840 On ch=1 n=g#3 v=110
88320 On ch=1 n=g#3 v=0
88320 On ch=1 n=f5 v=100
88320 On ch=1 n=c5 v=100
88320 On ch=1 n=f4 v=100
88800 On ch=1 n=f4 v=0
88800 On ch=1 n=c5 v=0
88800 On ch=1 n=f5 v=0
88800 On ch=1 n=f4 v=100
88800 On ch=1 n=c5 v=100
88800 On ch=1 n=f5 v=100
89280 On ch=1 n=f5 v=0
89280 On ch=1 n=c5 v=0
89280 On ch=1 n=f4 v=0
89280 On ch=1 n=a#3 v=110
89760 On ch=1 n=a#3 v=0
89760 On ch=1 n=d5 v=100
89760 On ch=1 n=a#4 v=100
89760 On ch=1 n=f4 v=100
90240 On ch=1 n=f4 v=0
90240 On ch=1 n=a#4 v=0
90240 On ch=1 n=d5 v=0
90240 On ch=1 n=a#4 v=100
90240 On ch=1 n=d5 v=100
90240 On ch=1 n=f4 v=100
90720 On ch=1 n=f4 v=0
90720 On ch=1 n=d5 v=0
90720 On ch=1 n=a#4 v=0
90720 On ch=1 n=d#4 v=110
91200 On ch=1 n=d#5 v=100
91200 On ch=1 n=a#4 v=100
91680 On ch=1 n=a#4 v=0
91680 On ch=1 n=d#5 v=0
91680 On ch=1 n=c5 v=100
91680 On ch=1 n=d#5 v=100
92160 On ch=1 n=d#5 v=0
92160 On ch=1 n=c5 v=0
92160 On ch=1 n=d#4 v=0
92160 On ch=1 n=d#4 v=110
92640 On ch=1 n=d#4 v=0
93600 On ch=1 n=d#4 v=110
94080 On ch=1 n=d#4 v=0
95040 On ch=1 n=d#4 v=110
95520 On ch=1 n=d#4 v=0
96480 On ch=1 n=d#4 v=110
96960 On ch=1 n=d#4 v=0
97920 On ch=1 n=d#4 v=110
98400 On ch=1 n=d#4 v=0
99360 On ch=1 n=d#4 v=110
99840 On ch=1 n=d#4 v=0
100800 On ch=1 n=d#4 v=110
101280 On ch=1 n=d#4 v=0
102240 On ch=1 n=g#3 v=110
102720 On ch=1 n=g#3 v=0
102720 On ch=1 n=c5 v=100
102720 On ch=1 n=g#4 v=100
102720 On ch=1 n=d#4 v=100
103200 On ch=1 n=d#4 v=0
103200 On ch=1 n=g#4 v=0
103200 On ch=1 n=c5 v=0
103680 On ch=1 n=d#3 v=70
104160 On ch=1 n=d#3 v=0
105120 On ch=1 n=d#4 v=70
105600 On ch=1 n=d#4 v=0
106560 On ch=1 n=d#4 v=70
107040 On ch=1 n=d#4 v=0
108000 On ch=1 n=d#4 v=70
108480 On ch=1 n=d#4 v=0
109440 On ch=1 n=d#4 v=70
109920 On ch=1 n=d#4 v=0
110880 On ch=1 n=d#4 v=70
111360 On ch=1 n=d#4 v=0
112320 On ch=1 n=d#4 v=70
112800 On ch=1 n=d#4 v=0
113760 On ch=1 n=g#3 v=120
114240 On ch=1 n=g#3 v=0
114240 On ch=1 n=c5 v=100
114240 On ch=1 n=d#4 v=100
114720 On ch=1 n=d#4 v=0
114720 On ch=1 n=c5 v=0
115200 On ch=1 n=g#2 v=110
115200 On ch=1 n=g#3 v=110
115680 On ch=1 n=g#3 v=0
115680 On ch=1 n=g#2 v=0
115680 On ch=1 n=c5 v=100
115680 On ch=1 n=f#4 v=100
115680 On ch=1 n=d#4 v=100
116160 On ch=1 n=d#4 v=0
116160 On ch=1 n=f#4 v=0
116160 On ch=1 n=c5 v=0
116160 On ch=1 n=g#4 v=100
116160 On ch=1 n=f#4 v=100
116160 On ch=1 n=c5 v=100
116160 On ch=1 n=d#4 v=100
116640 On ch=1 n=d#4 v=0
116640 On ch=1 n=c5 v=0
116640 On ch=1 n=f#4 v=0
116640 On ch=1 n=g#4 v=0
116640 On ch=1 n=c#3 v=110
116640 On ch=1 n=c#4 v=110
117120 On ch=1 n=c#4 v=0
117120 On ch=1 n=c#3 v=0
117120 On ch=1 n=c#5 v=100
117120 On ch=1 n=g#4 v=100
117120 On ch=1 n=f4 v=100
117600 On ch=1 n=f4 v=0
117600 On ch=1 n=g#4 v=0
117600 On ch=1 n=c#5 v=0
117600 On ch=1 n=f5 v=100
117600 On ch=1 n=c#5 v=100
117600 On ch=1 n=g#4 v=100
118080 On ch=1 n=g#4 v=0
118080 On ch=1 n=c#5 v=0
118080 On ch=1 n=f5 v=0
118080 On ch=1 n=g#3 v=110
118560 On ch=1 n=g#3 v=0
118560 On ch=1 n=f#5 v=100
118560 On ch=1 n=c5 v=100
118560 On ch=1 n=g#4 v=100
119040 On ch=1 n=g#4 v=0
119040 On ch=1 n=c5 v=0
119040 On ch=1 n=f#5 v=0
119040 On ch=1 n=f#5 v=100
119040 On ch=1 n=g#4 v=100
119040 On ch=1 n=c5 v=100
119520 On ch=1 n=c5 v=0
119520 On ch=1 n=g#4 v=0
119520 On ch=1 n=f#5 v=0
119520 On ch=1 n=c#4 v=110
120000 On ch=1 n=c#4 v=0
120000 On ch=1 n=f5 v=100
120000 On ch=1 n=c#5 v=100
120000 On ch=1 n=g#4 v=100
120480 On ch=1 n=g#4 v=0
120480 On ch=1 n=c#5 v=0
120480 On ch=1 n=f5 v=0
120960 On ch=1 n=a#2 v=110
120960 On ch=1 n=a#3 v=110
121440 On ch=1 n=a#3 v=0
121440 On ch=1 n=a#2 v=0
121440 On ch=1 n=d5 v=100
121440 On ch=1 n=g#4 v=100
121440 On ch=1 n=f4 v=100
121920 On ch=1 n=f4 v=0
121920 On ch=1 n=g#4 v=0
121920 On ch=1 n=d5 v=0
121920 On ch=1 n=f4 v=100
121920 On ch=1 n=g#4 v=100
121920 On ch=1 n=a#4 v=100
121920 On ch=1 n=d5 v=100
122400 On ch=1 n=d5 v=0
122400 On ch=1 n=a#4 v=0
122400 On ch=1 n=g#4 v=0
122400 On ch=1 n=f4 v=0
122400 On ch=1 n=d#3 v=110
122400 On ch=1 n=d#4 v=110
122880 On ch=1 n=d#4 v=0
122880 On ch=1 n=d#3 v=0
122880 On ch=1 n=d#5 v=100
122880 On ch=1 n=a#4 v=100
122880 On ch=1 n=g4 v=100
123360 On ch=1 n=g4 v=0
123360 On ch=1 n=a#4 v=0
123360 On ch=1 n=d#5 v=0
123360 On ch=1 n=a#4 v=100
123360 On ch=1 n=g5 v=100
123360 On ch=1 n=d#5 v=100
123840 On ch=1 n=d#5 v=0
123840 On ch=1 n=g5 v=0
123840 On ch=1 n=a#4 v=0
123840 On ch=1 n=a#3 v=110
124320 On ch=1 n=a#3 v=0
125280 On ch=1 n=d#4 v=110
125760 On ch=1 n=d#4 v=0
125760 On ch=1 n=g5 v=100
125760 On ch=1 n=d#5 v=100
125760 On ch=1 n=a#4 v=100
126240 On ch=1 n=a#4 v=0
126240 On ch=1 n=d#5 v=0
126240 On ch=1 n=g5 v=0
126720 On ch=1 n=d#3 v=110
126720 On ch=1 n=d#4 v=110
127200 On ch=1 n=d#4 v=0
127200 On ch=1 n=d#3 v=0
128160 On ch=1 n=d#5 v=110
128160 On ch=1 n=d#4 v=110
128640 On ch=1 n=d#4 v=0
128640 On ch=1 n=d#5 v=0
129600 On ch=1 n=d#5 v=110
129600 On ch=1 n=d#4 v=110
130080 On ch=1 n=d#4 v=0
130080 On ch=1 n=d#5 v=0
131040 On ch=1 n=g#3 v=115
131040 On ch=1 n=g#4 v=115
131520 On ch=1 n=g#4 v=0
131520 On ch=1 n=g#3 v=0
132480 On ch=1 n=c#3 v=120
132480 On ch=1 n=c#4 v=120
132960 On ch=1 n=c#4 v=0
132960 On ch=1 n=c#3 v=0
132960 On ch=1 n=c#5 v=110
132960 On ch=1 n=a#4 v=110
132960 On ch=1 n=g#4 v=110
132960 On ch=1 n=f4 v=110
133440 On ch=1 n=f4 v=0
133440 On ch=1 n=g#4 v=0
133440 On ch=1 n=a#4 v=0
133440 On ch=1 n=c#5 v=0
133440 On ch=1 n=g#4 v=110
133440 On ch=1 n=f5 v=110
133440 On ch=1 n=c#5 v=110
133440 On ch=1 n=a#4 v=110
133920 On ch=1 n=a#4 v=0
133920 On ch=1 n=c#5 v=0
133920 On ch=1 n=f5 v=0
133920 On ch=1 n=g#4 v=0
135360 On ch=1 n=d#3 v=120
135360 On ch=1 n=d#4 v=120
135840 On ch=1 n=d#4 v=0
135840 On ch=1 n=d#3 v=0
135840 On ch=1 n=g5 v=110
135840 On ch=1 n=d#5 v=110
135840 On ch=1 n=c#5 v=110
135840 On ch=1 n=a#4 v=110
136320 On ch=1 n=a#4 v=0
136320 On ch=1 n=c#5 v=0
136320 On ch=1 n=d#5 v=0
136320 On ch=1 n=g5 v=0
136320 On ch=1 n=d#4 v=110
136320 On ch=1 n=c#5 v=110
136320 On ch=1 n=a#4 v=110
136800 On ch=1 n=a#4 v=0
136800 On ch=1 n=c#5 v=0
136800 On ch=1 n=d#4 v=0
136800 On ch=1 n=g#3 v=120
137280 On ch=1 n=g#3 v=0
137280 On ch=1 n=c5 v=110
137280 On ch=1 n=g#4 v=110
137280 On ch=1 n=d#4 v=110
137760 On ch=1 n=d#4 v=0
137760 On ch=1 n=g#4 v=0
137760 On ch=1 n=c5 v=0
138240 On ch=1 n=g#2 v=110
138240 On ch=1 n=g#3 v=110
138720 On ch=1 n=g#3 v=0
138720 On ch=1 n=g#2 v=0
138720 On ch=1 n=c5 v=100
138720 On ch=1 n=g#4 v=100
138720 On ch=1 n=d#4 v=100
139200 On ch=1 n=d#4 v=0
139200 On ch=1 n=g#4 v=0
139200 On ch=1 n=c5 v=0
139200 On ch=1 n=f#5 v=100
139200 On ch=1 n=c5 v=100
139200 On ch=1 n=g#4 v=100
139680 On ch=1 n=g#4 v=0
139680 On ch=1 n=c5 v=0
139680 On ch=1 n=f#5 v=0
139680 On ch=1 n=c#3 v=110
139680 On ch=1 n=c#4 v=110
140160 On ch=1 n=c#4 v=0
140160 On ch=1 n=c#3 v=0
140160 On ch=1 n=c#5 v=100
140160 On ch=1 n=g#4 v=100
140160 On ch=1 n=f4 v=100
140640 On ch=1 n=f4 v=0
140640 On ch=1 n=g#4 v=0
140640 On ch=1 n=c#5 v=0
140640 On ch=1 n=f5 v=100
140640 On ch=1 n=c#5 v=100
140640 On ch=1 n=g#4 v=100
141120 On ch=1 n=g#4 v=0
141120 On ch=1 n=c#5 v=0
141120 On ch=1 n=f5 v=0
141120 On ch=1 n=g#3 v=110
141600 On ch=1 n=g#3 v=0
141600 On ch=1 n=c5 v=100
141600 On ch=1 n=g#4 v=100
141600 On ch=1 n=d#4 v=100
142080 On ch=1 n=d#4 v=0
142080 On ch=1 n=g#4 v=0
142080 On ch=1 n=c5 v=0
142080 On ch=1 n=f#5 v=100
142080 On ch=1 n=c5 v=100
142080 On ch=1 n=g#4 v=100
142560 On ch=1 n=g#4 v=0
142560 On ch=1 n=c5 v=0
142560 On ch=1 n=f#5 v=0
142560 On ch=1 n=c#4 v=110
143040 On ch=1 n=c#4 v=0
143040 On ch=1 n=c#5 v=100
143040 On ch=1 n=g#4 v=100
143040 On ch=1 n=f4 v=100
143520 On ch=1 n=f4 v=0
143520 On ch=1 n=g#4 v=0
143520 On ch=1 n=c#5 v=0
143520 On ch=1 n=f5 v=100
143520 On ch=1 n=c#5 v=100
143520 On ch=1 n=g#4 v=100
144000 On ch=1 n=g#4 v=0
144000 On ch=1 n=c#5 v=0
144000 On ch=1 n=f5 v=0
144000 On ch=1 n=a#2 v=110
144000 On ch=1 n=a#3 v=110
144480 On ch=1 n=a#3 v=0
144480 On ch=1 n=a#2 v=0
144480 On ch=1 n=d5 v=100
144480 On ch=1 n=a#4 v=100
144480 On ch=1 n=f4 v=100
144960 On ch=1 n=f4 v=0
144960 On ch=1 n=a#4 v=0
144960 On ch=1 n=d5 v=0
144960 On ch=1 n=g#5 v=100
144960 On ch=1 n=d5 v=100
144960 On ch=1 n=a#4 v=100
145440 On ch=1 n=a#4 v=0
145440 On ch=1 n=d5 v=0
145440 On ch=1 n=g#5 v=0
145440 On ch=1 n=d#3 v=110
145440 On ch=1 n=d#4 v=110
145920 On ch=1 n=d#4 v=0
145920 On ch=1 n=d#3 v=0
145920 On ch=1 n=d#5 v=100
145920 On ch=1 n=a#4 v=100
145920 On ch=1 n=g4 v=100
146400 On ch=1 n=g4 v=0
146400 On ch=1 n=a#4 v=0
146400 On ch=1 n=d#5 v=0
146400 On ch=1 n=a#4 v=100
146400 On ch=1 n=g5 v=100
146400 On ch=1 n=d#5 v=100
146880 On ch=1 n=d#5 v=0
146880 On ch=1 n=g5 v=0
146880 On ch=1 n=a#4 v=0
146880 On ch=1 n=a#3 v=110
147360 On ch=1 n=a#3 v=0
148320 On ch=1 n=d#4 v=110
148800 On ch=1 n=d#4 v=0
148800 On ch=1 n=d#5 v=100
148800 On ch=1 n=a#4 v=100
148800 On ch=1 n=g4 v=100
149280 On ch=1 n=g4 v=0
149280 On ch=1 n=a#4 v=0
149280 On ch=1 n=d#5 v=0
149280 On ch=1 n=a#4 v=100
149280 On ch=1 n=g5 v=100
149280 On ch=1 n=d#5 v=100
149760 On ch=1 n=d#5 v=0
149760 On ch=1 n=g5 v=0
149760 On ch=1 n=a#4 v=0
149760 On ch=1 n=d#3 v=110
149760 On ch=1 n=d#4 v=110
150240 On ch=1 n=d#4 v=0
150240 On ch=1 n=d#3 v=0
151200 On ch=1 n=d#5 v=110
151200 On ch=1 n=d#4 v=110
151680 On ch=1 n=d#4 v=0
151680 On ch=1 n=d#5 v=0
152640 On ch=1 n=d#5 v=110
152640 On ch=1 n=d#4 v=110
153120 On ch=1 n=d#4 v=0
153120 On ch=1 n=d#5 v=0
154080 On ch=1 n=g#3 v=115
154080 On ch=1 n=g#4 v=115
154560 On ch=1 n=g#4 v=0
154560 On ch=1 n=g#3 v=0
155520 On ch=1 n=c#3 v=120
155520 On ch=1 n=c#4 v=120
156000 On ch=1 n=c#4 v=0
156000 On ch=1 n=c#3 v=0
156000 On ch=1 n=f4 v=110
156000 On ch=1 n=g#4 v=110
156000 On ch=1 n=a#4 v=110
156000 On ch=1 n=c#5 v=110
156480 On ch=1 n=c#5 v=0
156480 On ch=1 n=a#4 v=0
156480 On ch=1 n=g#4 v=0
156480 On ch=1 n=f4 v=0
156480 On ch=1 n=g#4 v=110
156480 On ch=1 n=a#4 v=110
156480 On ch=1 n=c#5 v=110
156480 On ch=1 n=f5 v=110
156960 On ch=1 n=f5 v=0
156960 On ch=1 n=c#5 v=0
156960 On ch=1 n=a#4 v=0
156960 On ch=1 n=g#4 v=0
158400 On ch=1 n=d#3 v=120
158400 On ch=1 n=d#4 v=120
158880 On ch=1 n=d#4 v=0
158880 On ch=1 n=d#3 v=0
158880 On ch=1 n=a#4 v=110
158880 On ch=1 n=c#5 v=110
158880 On ch=1 n=d#5 v=110
158880 On ch=1 n=g5 v=110
159360 On ch=1 n=g5 v=0
159360 On ch=1 n=d#5 v=0
159360 On ch=1 n=c#5 v=0
159360 On ch=1 n=a#4 v=0
159360 On ch=1 n=d#4 v=110
159360 On ch=1 n=c#5 v=110
159360 On ch=1 n=a#4 v=120
159840 On ch=1 n=a#4 v=0
159840 On ch=1 n=c#5 v=0
159840 On ch=1 n=d#4 v=0
159840 On ch=1 n=g#3 v=110
160320 On ch=1 n=g#3 v=0
160320 On ch=1 n=c5 v=110
160320 On ch=1 n=g#4 v=110
160320 On ch=1 n=d#4 v=110
160800 On ch=1 n=d#4 v=0
160800 On ch=1 n=g#4 v=0
160800 On ch=1 n=c5 v=0
161280 On ch=1 n=g#3 v=60
161760 On ch=1 n=g#3 v=0
161760 On ch=1 n=g#4 v=60
162240 On ch=1 n=g#4 v=0
162240 On ch=1 n=g#4 v=60
162720 On ch=1 n=g#4 v=0
162720 On ch=1 n=g#4 v=60
163200 On ch=1 n=g#4 v=0
163200 On ch=1 n=g#4 v=60
163680 On ch=1 n=g#4 v=0
163680 On ch=1 n=g#4 v=60
164160 On ch=1 n=g#4 v=0
164160 On ch=1 n=c#4 v=60
164640 On ch=1 n=g#4 v=60
165120 On ch=1 n=g#4 v=0
165120 On ch=1 n=g#4 v=60
165600 On ch=1 n=g#4 v=0
165600 On ch=1 n=g#4 v=60
166020 On ch=1 n=c5 v=60
166080 On ch=1 n=c5 v=0
166080 On ch=1 n=g#4 v=0
166080 On ch=1 n=a#4 v=60
166560 On ch=1 n=a#4 v=0
166560 On ch=1 n=g#4 v=60
167040 On ch=1 n=g#4 v=0
167040 On ch=1 n=c#4 v=0
167040 On ch=1 n=g#3 v=70
167520 On ch=1 n=g#3 v=0
167520 On ch=1 n=c5 v=60
167520 On ch=1 n=g#4 v=60
167520 On ch=1 n=d#4 v=60
168000 On ch=1 n=d#4 v=0
168000 On ch=1 n=g#4 v=0
168000 On ch=1 n=c5 v=0
168000 On ch=1 n=d#4 v=60
168000 On ch=1 n=g#4 v=60
168000 On ch=1 n=c5 v=60
168480 On ch=1 n=c5 v=0
168480 On ch=1 n=g#4 v=0
168480 On ch=1 n=d#4 v=0
168480 On ch=1 n=g#3 v=70
168960 On ch=1 n=g#3 v=0
168960 On ch=1 n=c5 v=60
168960 On ch=1 n=g#4 v=60
168960 On ch=1 n=d#4 v=60
169440 On ch=1 n=d#4 v=0
169440 On ch=1 n=g#4 v=0
169440 On ch=1 n=c5 v=0
169440 On ch=1 n=d#4 v=60
169440 On ch=1 n=g#4 v=60
169440 On ch=1 n=c5 v=60
169920 On ch=1 n=c5 v=0
169920 On ch=1 n=g#4 v=0
169920 On ch=1 n=d#4 v=0
169920 On ch=1 n=c#4 v=70
170400 On ch=1 n=c#5 v=60
170400 On ch=1 n=g#4 v=60
170880 On ch=1 n=g#4 v=0
170880 On ch=1 n=c#5 v=0
170880 On ch=1 n=c#5 v=60
170880 On ch=1 n=g4 v=60
171360 On ch=1 n=g4 v=0
171360 On ch=1 n=c#5 v=0
171360 On ch=1 n=c#4 v=0
171360 On ch=1 n=c#4 v=70
171840 On ch=1 n=c#5 v=60
171840 On ch=1 n=g#4 v=60
172320 On ch=1 n=g#4 v=0
172320 On ch=1 n=c#5 v=0
172320 On ch=1 n=c#5 v=60
172320 On ch=1 n=g#4 v=60
172800 On ch=1 n=g#4 v=0
172800 On ch=1 n=c#5 v=0
172800 On ch=1 n=c#4 v=0
172800 On ch=1 n=g#3 v=70
173280 On ch=1 n=g#3 v=0
173280 On ch=1 n=d#5 v=60
173280 On ch=1 n=g#4 v=60
173760 On ch=1 n=g#4 v=0
173760 On ch=1 n=d#5 v=0
173760 On ch=1 n=d#5 v=60
173760 On ch=1 n=g#4 v=60
174240 On ch=1 n=g#4 v=0
174240 On ch=1 n=d#5 v=0
174240 On ch=1 n=g#3 v=70
174720 On ch=1 n=g#3 v=0
174720 On ch=1 n=d#5 v=60
174720 On ch=1 n=g#4 v=60
175200 On ch=1 n=g#4 v=0
175200 On ch=1 n=d#5 v=0
175200 On ch=1 n=d#5 v=60
175200 On ch=1 n=g#4 v=60
175680 On ch=1 n=g#4 v=0
175680 On ch=1 n=d#5 v=0
175680 On ch=1 n=c#4 v=70
176160 On ch=1 n=c#5 v=74
176160 On ch=1 n=g#4 v=74
176640 On ch=1 n=g#4 v=0
176640 On ch=1 n=c#5 v=0
176640 On ch=1 n=c#4 v=0
176640 On ch=1 n=b3 v=89
177120 On ch=1 n=b3 v=0
177120 On ch=1 n=a#3 v=110
177600 On ch=1 n=a#3 v=0
177600 On ch=1 n=f5 v=100
177600 On ch=1 n=a#4 v=100
178080 On ch=1 n=a#4 v=0
178080 On ch=1 n=f5 v=0
178560 On ch=1 n=d#3 v=110
178560 On ch=1 n=d#4 v=110
179040 On ch=1 n=d#4 v=0
179040 On ch=1 n=d#3 v=0
179040 On ch=1 n=a#4 v=100
179040 On ch=1 n=c#5 v=100
179040 On ch=1 n=d#5 v=100
179040 On ch=1 n=g5 v=100
179520 On ch=1 n=g5 v=0
179520 On ch=1 n=d#5 v=0
179520 On ch=1 n=c#5 v=0
179520 On ch=1 n=a#4 v=0
179520 On ch=1 n=a#4 v=100
179520 On ch=1 n=c#5 v=100
179520 On ch=1 n=d#5 v=100
179520 On ch=1 n=g5 v=100
180000 On ch=1 n=g5 v=0
180000 On ch=1 n=d#5 v=0
180000 On ch=1 n=c#5 v=0
180000 On ch=1 n=a#4 v=0
180000 On ch=1 n=g#3 v=110
180480 On ch=1 n=g#3 v=0
180480 On ch=1 n=g#4 v=100
180480 On ch=1 n=d#5 v=100
180480 On ch=1 n=f#5 v=100
180960 On ch=1 n=f#5 v=0
180960 On ch=1 n=d#5 v=0
180960 On ch=1 n=g#4 v=0
180960 On ch=1 n=g#4 v=100
180960 On ch=1 n=c5 v=100
180960 On ch=1 n=f#5 v=100
181440 On ch=1 n=f#5 v=0
181440 On ch=1 n=c5 v=0
181440 On ch=1 n=g#4 v=0
181440 On ch=1 n=g#3 v=110
181920 On ch=1 n=g#3 v=0
181920 On ch=1 n=c5 v=100
181920 On ch=1 n=g#4 v=100
181920 On ch=1 n=d#4 v=100
182400 On ch=1 n=d#4 v=0
182400 On ch=1 n=g#4 v=0
182400 On ch=1 n=c5 v=0
182400 On ch=1 n=d#4 v=100
182400 On ch=1 n=g#4 v=100
182400 On ch=1 n=c5 v=100
182880 On ch=1 n=c5 v=0
182880 On ch=1 n=g#4 v=0
182880 On ch=1 n=d#4 v=0
182880 On ch=1 n=c#4 v=110
183360 On ch=1 n=c#5 v=86
183360 On ch=1 n=g#4 v=86
183840 On ch=1 n=g#4 v=0
183840 On ch=1 n=c#5 v=0
183840 On ch=1 n=c#5 v=71
183840 On ch=1 n=g#4 v=71
184320 On ch=1 n=g#4 v=0
184320 On ch=1 n=c#5 v=0
184320 On ch=1 n=c#4 v=0
184320 On ch=1 n=g#3 v=70
184800 On ch=1 n=g#3 v=0
184800 On ch=1 n=d#5 v=60
184800 On ch=1 n=g#4 v=60
185280 On ch=1 n=g#4 v=0
185280 On ch=1 n=d#5 v=0
185280 On ch=1 n=g#4 v=60
185280 On ch=1 n=d#5 v=60
185760 On ch=1 n=d#5 v=0
185760 On ch=1 n=g#4 v=0
185760 On ch=1 n=d#5 v=60
185760 On ch=1 n=g#4 v=60
186240 On ch=1 n=g#4 v=0
186240 On ch=1 n=d#5 v=0
186240 On ch=1 n=d#5 v=60
186240 On ch=1 n=g#4 v=60
186720 On ch=1 n=g#4 v=0
186720 On ch=1 n=d#5 v=0
186720 On ch=1 n=d#5 v=60
186720 On ch=1 n=g#4 v=60
187200 On ch=1 n=g#4 v=0
187200 On ch=1 n=d#5 v=0
187200 On ch=1 n=c#4 v=70
187680 On ch=1 n=g#4 v=60
188160 On ch=1 n=g#4 v=0
188160 On ch=1 n=g#4 v=60
188640 On ch=1 n=g#4 v=0
188640 On ch=1 n=g#4 v=60
189060 On ch=1 n=c5 v=60
189120 On ch=1 n=c5 v=0
189120 On ch=1 n=g#4 v=0
189120 On ch=1 n=a#4 v=60
189600 On ch=1 n=a#4 v=0
189600 On ch=1 n=g#4 v=60
190080 On ch=1 n=g#4 v=0
190080 On ch=1 n=c#4 v=0
190080 On ch=1 n=g#3 v=70
190560 On ch=1 n=g#3 v=0
190560 On ch=1 n=c5 v=60
190560 On ch=1 n=g#4 v=60
190560 On ch=1 n=d#4 v=60
191040 On ch=1 n=d#4 v=0
191040 On ch=1 n=g#4 v=0
191040 On ch=1 n=c5 v=0
191040 On ch=1 n=d#4 v=60
191040 On ch=1 n=g#4 v=60
191040 On ch=1 n=c5 v=60
191520 On ch=1 n=c5 v=0
191520 On ch=1 n=g#4 v=0
191520 On ch=1 n=d#4 v=0
191520 On ch=1 n=g#3 v=70
192000 On ch=1 n=g#3 v=0
192000 On ch=1 n=c5 v=60
192000 On ch=1 n=g#4 v=60
192000 On ch=1 n=d#4 v=60
192480 On ch=1 n=d#4 v=0
192480 On ch=1 n=g#4 v=0
192480 On ch=1 n=c5 v=0
192480 On ch=1 n=d#4 v=60
192480 On ch=1 n=g#4 v=60
192480 On ch=1 n=c5 v=60
192960 On ch=1 n=c5 v=0
192960 On ch=1 n=g#4 v=0
192960 On ch=1 n=d#4 v=0
192960 On ch=1 n=c#4 v=70
193440 On ch=1 n=c#5 v=60
193440 On ch=1 n=g#4 v=60
193920 On ch=1 n=g#4 v=0
193920 On ch=1 n=c#5 v=0
193920 On ch=1 n=c#5 v=60
193920 On ch=1 n=g4 v=60
194400 On ch=1 n=g4 v=0
194400 On ch=1 n=c#5 v=0
194400 On ch=1 n=c#4 v=0
194400 On ch=1 n=c#4 v=70
194880 On ch=1 n=c#5 v=60
194880 On ch=1 n=g#4 v=60
195360 On ch=1 n=g#4 v=0
195360 On ch=1 n=c#5 v=0
195360 On ch=1 n=c#5 v=60
195360 On ch=1 n=g#4 v=60
195840 On ch=1 n=g#4 v=0
195840 On ch=1 n=c#5 v=0
195840 On ch=1 n=c#4 v=0
195840 On ch=1 n=g#3 v=70
196320 On ch=1 n=g#3 v=0
196320 On ch=1 n=d#5 v=60
196320 On ch=1 n=g#4 v=60
196320 On ch=1 n=d#4 v=60
196800 On ch=1 n=d#4 v=0
196800 On ch=1 n=g#4 v=0
196800 On ch=1 n=d#5 v=0
196800 On ch=1 n=d#4 v=60
196800 On ch=1 n=g#4 v=60
196800 On ch=1 n=d#5 v=60
197280 On ch=1 n=d#5 v=0
197280 On ch=1 n=g#4 v=0
197280 On ch=1 n=d#4 v=0
197280 On ch=1 n=g#3 v=70
197760 On ch=1 n=g#3 v=0
197760 On ch=1 n=d#5 v=60
197760 On ch=1 n=g#4 v=60
197760 On ch=1 n=d#4 v=60
198240 On ch=1 n=d#4 v=0
198240 On ch=1 n=g#4 v=0
198240 On ch=1 n=d#5 v=0
198240 On ch=1 n=d#5 v=60
198240 On ch=1 n=g#4 v=60
198240 On ch=1 n=d#4 v=60
198720 On ch=1 n=d#4 v=0
198720 On ch=1 n=g#4 v=0
198720 On ch=1 n=d#5 v=0
198720 On ch=1 n=c#3 v=70
198720 On ch=1 n=c#4 v=70
199200 On ch=1 n=c#4 v=0
199200 On ch=1 n=c#3 v=0
199200 On ch=1 n=c#5 v=74
199200 On ch=1 n=g#4 v=74
199200 On ch=1 n=f4 v=74
199680 On ch=1 n=f4 v=0
199680 On ch=1 n=g#4 v=0
199680 On ch=1 n=c#5 v=0
200160 On ch=1 n=a#2 v=110
200160 On ch=1 n=a#3 v=110
200640 On ch=1 n=a#3 v=0
200640 On ch=1 n=a#2 v=0
200640 On ch=1 n=f5 v=100
200640 On ch=1 n=a#4 v=100
200640 On ch=1 n=f4 v=100
201120 On ch=1 n=f4 v=0
201120 On ch=1 n=a#4 v=0
201120 On ch=1 n=f5 v=0
201600 On ch=1 n=d#3 v=110
201600 On ch=1 n=d#4 v=110
202080 On ch=1 n=d#4 v=0
202080 On ch=1 n=d#3 v=0
202080 On ch=1 n=a#4 v=100
202080 On ch=1 n=c#5 v=100
202080 On ch=1 n=d#5 v=100
202080 On ch=1 n=g5 v=100
202560 On ch=1 n=g5 v=0
202560 On ch=1 n=d#5 v=0
202560 On ch=1 n=c#5 v=0
202560 On ch=1 n=a#4 v=0
202560 On ch=1 n=a#4 v=100
202560 On ch=1 n=c#5 v=100
202560 On ch=1 n=d#5 v=100
202560 On ch=1 n=g5 v=100
203040 On ch=1 n=g5 v=0
203040 On ch=1 n=d#5 v=0
203040 On ch=1 n=c#5 v=0
203040 On ch=1 n=a#4 v=0
203040 On ch=1 n=g#3 v=110
203520 On ch=1 n=g#3 v=0
203520 On ch=1 n=g#4 v=100
203520 On ch=1 n=d#5 v=100
203520 On ch=1 n=f#5 v=100
204000 On ch=1 n=f#5 v=0
204000 On ch=1 n=d#5 v=0
204000 On ch=1 n=g#4 v=0
204000 On ch=1 n=f#5 v=100
204000 On ch=1 n=c5 v=100
204000 On ch=1 n=g#4 v=100
204480 On ch=1 n=g#4 v=0
204480 On ch=1 n=c5 v=0
204480 On ch=1 n=f#5 v=0
204480 On ch=1 n=g#3 v=110
204960 On ch=1 n=g#3 v=0
204960 On ch=1 n=d#4 v=100
204960 On ch=1 n=g#4 v=100
204960 On ch=1 n=c5 v=100
205440 On ch=1 n=c5 v=0
205440 On ch=1 n=g#4 v=0
205440 On ch=1 n=d#4 v=0
205440 On ch=1 n=c5 v=100
205440 On ch=1 n=g#4 v=100
205440 On ch=1 n=d#4 v=100
205920 On ch=1 n=d#4 v=0
205920 On ch=1 n=g#4 v=0
205920 On ch=1 n=c5 v=0
205920 On ch=1 n=c#4 v=110
206400 On ch=1 n=c#5 v=100
206400 On ch=1 n=g#4 v=100
206880 On ch=1 n=g#4 v=0
206880 On ch=1 n=c#5 v=0
207360 On ch=1 n=c#4 v=0
207360 On ch=1 n=f3 v=110
207840 On ch=1 n=f3 v=0
207840 On ch=1 n=c4 v=100
207840 On ch=1 n=d#4 v=100
207840 On ch=1 n=a4 v=100
208320 On ch=1 n=a4 v=0
208320 On ch=1 n=d#4 v=0
208320 On ch=1 n=c4 v=0
208320 On ch=1 n=d#4 v=100
208320 On ch=1 n=c4 v=100
208320 On ch=1 n=a4 v=100
208800 On ch=1 n=a4 v=0
208800 On ch=1 n=c4 v=0
208800 On ch=1 n=d#4 v=0
208800 On ch=1 n=f3 v=110
209280 On ch=1 n=f3 v=0
209280 On ch=1 n=a#4 v=100
209280 On ch=1 n=c#4 v=100
209760 On ch=1 n=c#4 v=0
209760 On ch=1 n=a#4 v=0
209760 On ch=1 n=a#4 v=100
209760 On ch=1 n=c#4 v=100
210240 On ch=1 n=c#4 v=0
210240 On ch=1 n=a#4 v=0
210240 On ch=1 n=f3 v=110
210720 On ch=1 n=f3 v=0
210720 On ch=1 n=a#4 v=100
210720 On ch=1 n=f#4 v=100
210720 On ch=1 n=c#4 v=100
211200 On ch=1 n=c#4 v=0
211200 On ch=1 n=f#4 v=0
211200 On ch=1 n=a#4 v=0
211200 On ch=1 n=a#4 v=100
211200 On ch=1 n=c#4 v=100
211680 On ch=1 n=c#4 v=0
211680 On ch=1 n=a#4 v=0
211680 On ch=1 n=f3 v=110
212160 On ch=1 n=f3 v=0
212160 On ch=1 n=a4 v=100
212160 On ch=1 n=c4 v=100
212640 On ch=1 n=c4 v=0
212640 On ch=1 n=a4 v=0
212640 On ch=1 n=a4 v=100
212640 On ch=1 n=c4 v=100
213120 On ch=1 n=c4 v=0
213120 On ch=1 n=a4 v=0
213120 On ch=1 n=e3 v=110
213600 On ch=1 n=e3 v=0
213600 On ch=1 n=a#4 v=100
213600 On ch=1 n=f#4 v=100
213600 On ch=1 n=c#4 v=100
214080 On ch=1 n=c#4 v=0
214080 On ch=1 n=f#4 v=0
214080 On ch=1 n=a#4 v=0
214080 On ch=1 n=f#4 v=100
214080 On ch=1 n=a#4 v=100
214080 On ch=1 n=c#4 v=100
214560 On ch=1 n=c#4 v=0
214560 On ch=1 n=a#4 v=0
214560 On ch=1 n=f#4 v=0
214560 On ch=1 n=f3 v=110
215040 On ch=1 n=f3 v=0
215040 On ch=1 n=a4 v=100
215040 On ch=1 n=c4 v=100
215520 On ch=1 n=c4 v=0
215520 On ch=1 n=a4 v=0
215520 On ch=1 n=a4 v=100
215520 On ch=1 n=c4 v=100
216000 On ch=1 n=c4 v=0
216000 On ch=1 n=a4 v=0
216000 On ch=1 n=e3 v=110
216480 On ch=1 n=e3 v=0
216480 On ch=1 n=a#4 v=100
216480 On ch=1 n=f#4 v=100
216480 On ch=1 n=c#4 v=100
216960 On ch=1 n=c#4 v=0
216960 On ch=1 n=f#4 v=0
216960 On ch=1 n=a#4 v=0
216960 On ch=1 n=f#4 v=100
216960 On ch=1 n=a#4 v=100
216960 On ch=1 n=c#4 v=100
217440 On ch=1 n=c#4 v=0
217440 On ch=1 n=a#4 v=0
217440 On ch=1 n=f#4 v=0
217440 On ch=1 n=f3 v=110
217920 On ch=1 n=f3 v=0
217920 On ch=1 n=a4 v=100
217920 On ch=1 n=c4 v=100
218400 On ch=1 n=c4 v=0
218400 On ch=1 n=a4 v=0
218400 On ch=1 n=a4 v=100
218400 On ch=1 n=c4 v=100
218880 On ch=1 n=c4 v=0
218880 On ch=1 n=a4 v=0
218880 On ch=1 n=f2 v=110
218880 On ch=1 n=f3 v=110
219360 On ch=1 n=f3 v=0
219360 On ch=1 n=f2 v=0
219360 On ch=1 n=c5 v=101
219360 On ch=1 n=a4 v=101
219360 On ch=1 n=d#4 v=101
219360 On ch=1 n=c4 v=101
219840 On ch=1 n=c4 v=0
219840 On ch=1 n=d#4 v=0
219840 On ch=1 n=a4 v=0
219840 On ch=1 n=c5 v=0
219840 On ch=1 n=c4 v=103
219840 On ch=1 n=d#4 v=103
219840 On ch=1 n=a4 v=103
219840 On ch=1 n=c5 v=103
220320 On ch=1 n=c5 v=0
220320 On ch=1 n=a4 v=0
220320 On ch=1 n=d#4 v=0
220320 On ch=1 n=c4 v=0
220320 On ch=1 n=f3 v=115
220800 On ch=1 n=f3 v=0
220800 On ch=1 n=c#5 v=107
220800 On ch=1 n=a#4 v=107
220800 On ch=1 n=f4 v=107
220800 On ch=1 n=c#4 v=107
221280 On ch=1 n=c#4 v=0
221280 On ch=1 n=f4 v=0
221280 On ch=1 n=a#4 v=0
221280 On ch=1 n=c#5 v=0
221280 On ch=1 n=c#4 v=109
221280 On ch=1 n=f4 v=109
221280 On ch=1 n=a#4 v=109
221760 On ch=1 n=a#4 v=0
221760 On ch=1 n=f4 v=0
221760 On ch=1 n=c#4 v=0
221760 On ch=1 n=f3 v=120
222240 On ch=1 n=f3 v=0
222240 On ch=1 n=a#4 v=107
222240 On ch=1 n=f#4 v=107
222240 On ch=1 n=c#4 v=107
222720 On ch=1 n=c#4 v=0
222720 On ch=1 n=f#4 v=0
222720 On ch=1 n=a#4 v=0
222720 On ch=1 n=a#4 v=103
222720 On ch=1 n=c#4 v=103
223200 On ch=1 n=c#4 v=0
223200 On ch=1 n=a#4 v=0
223200 On ch=1 n=f3 v=110
223680 On ch=1 n=f3 v=0
223680 On ch=1 n=a4 v=100
223680 On ch=1 n=f4 v=100
223680 On ch=1 n=c4 v=100
224160 On ch=1 n=c4 v=0
224160 On ch=1 n=f4 v=0
224160 On ch=1 n=a4 v=0
224160 On ch=1 n=a4 v=100
224160 On ch=1 n=c4 v=100
224640 On ch=1 n=c4 v=0
224640 On ch=1 n=a4 v=0
224640 On ch=1 n=e3 v=110
225120 On ch=1 n=e3 v=0
225120 On ch=1 n=a#4 v=100
225120 On ch=1 n=f#4 v=100
225120 On ch=1 n=c#4 v=100
225600 On ch=1 n=c#4 v=0
225600 On ch=1 n=f#4 v=0
225600 On ch=1 n=a#4 v=0
225600 On ch=1 n=c#4 v=100
225600 On ch=1 n=f#4 v=100
225600 On ch=1 n=a#4 v=100
226080 On ch=1 n=a#4 v=0
226080 On ch=1 n=f#4 v=0
226080 On ch=1 n=c#4 v=0
226080 On ch=1 n=f3 v=110
226560 On ch=1 n=f3 v=0
226560 On ch=1 n=a4 v=100
226560 On ch=1 n=c4 v=100
227040 On ch=1 n=c4 v=0
227040 On ch=1 n=a4 v=0
227040 On ch=1 n=a4 v=100
227040 On ch=1 n=c4 v=100
227520 On ch=1 n=c4 v=0
227520 On ch=1 n=a4 v=0
227520 On ch=1 n=e3 v=110
228000 On ch=1 n=e3 v=0
228000 On ch=1 n=a#4 v=60
228000 On ch=1 n=f#4 v=60
228000 On ch=1 n=c#4 v=60
228480 On ch=1 n=c#4 v=0
228480 On ch=1 n=f#4 v=0
228480 On ch=1 n=a#4 v=0
228480 On ch=1 n=f#4 v=60
228480 On ch=1 n=a#4 v=60
228480 On ch=1 n=c#4 v=60
228960 On ch=1 n=c#4 v=0
228960 On ch=1 n=a#4 v=0
228960 On ch=1 n=f#4 v=0
228960 On ch=1 n=f3 v=70
229440 On ch=1 n=f3 v=0
229440 On ch=1 n=a4 v=60
229440 On ch=1 n=c4 v=60
229920 On ch=1 n=c4 v=0
229920 On ch=1 n=a4 v=0
230400 On ch=1 n=g#3 v=70
230880 On ch=1 n=g#3 v=0
230880 On ch=1 n=d#5 v=60
230880 On ch=1 n=g#4 v=60
231360 On ch=1 n=g#4 v=0
231360 On ch=1 n=d#5 v=0
231360 On ch=1 n=g#4 v=60
231360 On ch=1 n=d#5 v=60
231840 On ch=1 n=d#5 v=0
231840 On ch=1 n=g#4 v=0
231840 On ch=1 n=d#5 v=60
231840 On ch=1 n=g#4 v=60
232320 On ch=1 n=g#4 v=0
232320 On ch=1 n=d#5 v=0
232320 On ch=1 n=d#5 v=60
232320 On ch=1 n=g#4 v=60
232800 On ch=1 n=g#4 v=0
232800 On ch=1 n=d#5 v=0
232800 On ch=1 n=d#5 v=60
232800 On ch=1 n=g#4 v=60
233280 On ch=1 n=g#4 v=0
233280 On ch=1 n=d#5 v=0
233280 On ch=1 n=c#4 v=70
233760 On ch=1 n=g#4 v=60
234240 On ch=1 n=g#4 v=0
234240 On ch=1 n=g#4 v=60
234720 On ch=1 n=g#4 v=0
234720 On ch=1 n=g#4 v=60
235140 On ch=1 n=c5 v=60
235200 On ch=1 n=c5 v=0
235200 On ch=1 n=g#4 v=0
235200 On ch=1 n=a#4 v=60
235680 On ch=1 n=a#4 v=0
235680 On ch=1 n=g#4 v=60
236160 On ch=1 n=g#4 v=0
236160 On ch=1 n=c#4 v=0
236160 On ch=1 n=g#3 v=70
236640 On ch=1 n=g#3 v=0
236640 On ch=1 n=c5 v=60
236640 On ch=1 n=g#4 v=60
236640 On ch=1 n=d#4 v=60
237120 On ch=1 n=d#4 v=0
237120 On ch=1 n=g#4 v=0
237120 On ch=1 n=c5 v=0
237120 On ch=1 n=d#4 v=60
237120 On ch=1 n=g#4 v=60
237120 On ch=1 n=c5 v=60
237600 On ch=1 n=c5 v=0
237600 On ch=1 n=g#4 v=0
237600 On ch=1 n=d#4 v=0
237600 On ch=1 n=g#3 v=70
238080 On ch=1 n=g#3 v=0
238080 On ch=1 n=c5 v=60
238080 On ch=1 n=g#4 v=60
238080 On ch=1 n=d#4 v=60
238560 On ch=1 n=d#4 v=0
238560 On ch=1 n=g#4 v=0
238560 On ch=1 n=c5 v=0
238560 On ch=1 n=d#4 v=60
238560 On ch=1 n=g#4 v=60
238560 On ch=1 n=c5 v=60
239040 On ch=1 n=c5 v=0
239040 On ch=1 n=g#4 v=0
239040 On ch=1 n=d#4 v=0
239040 On ch=1 n=c#4 v=70
239520 On ch=1 n=c#5 v=60
239520 On ch=1 n=g#4 v=60
240000 On ch=1 n=g#4 v=0
240000 On ch=1 n=c#5 v=0
240000 On ch=1 n=c#5 v=60
240000 On ch=1 n=g4 v=60
240480 On ch=1 n=g4 v=0
240480 On ch=1 n=c#5 v=0
240480 On ch=1 n=c#4 v=0
240480 On ch=1 n=c#4 v=70
240960 On ch=1 n=c#5 v=60
240960 On ch=1 n=g#4 v=60
241440 On ch=1 n=g#4 v=0
241440 On ch=1 n=c#5 v=0
241440 On ch=1 n=c#5 v=60
241440 On ch=1 n=g#4 v=60
241920 On ch=1 n=g#4 v=0
241920 On ch=1 n=c#5 v=0
241920 On ch=1 n=c#4 v=0
241920 On ch=1 n=g#3 v=70
242400 On ch=1 n=g#3 v=0
242400 On ch=1 n=d#5 v=60
242400 On ch=1 n=g#4 v=60
242400 On ch=1 n=d#4 v=60
242880 On ch=1 n=d#4 v=0
242880 On ch=1 n=g#4 v=0
242880 On ch=1 n=d#5 v=0
242880 On ch=1 n=d#4 v=60
242880 On ch=1 n=g#4 v=60
242880 On ch=1 n=d#5 v=60
243360 On ch=1 n=d#5 v=0
243360 On ch=1 n=g#4 v=0
243360 On ch=1 n=d#4 v=0
243360 On ch=1 n=g#3 v=70
243840 On ch=1 n=g#3 v=0
243840 On ch=1 n=d#5 v=60
243840 On ch=1 n=g#4 v=60
243840 On ch=1 n=d#4 v=60
244320 On ch=1 n=d#4 v=0
244320 On ch=1 n=g#4 v=0
244320 On ch=1 n=d#5 v=0
244320 On ch=1 n=d#5 v=60
244320 On ch=1 n=g#4 v=60
244320 On ch=1 n=d#4 v=60
244800 On ch=1 n=d#4 v=0
244800 On ch=1 n=g#4 v=0
244800 On ch=1 n=d#5 v=0
244800 On ch=1 n=c#3 v=70
244800 On ch=1 n=c#4 v=70
245280 On ch=1 n=c#4 v=0
245280 On ch=1 n=c#3 v=0
245280 On ch=1 n=c#5 v=74
245280 On ch=1 n=g#4 v=74
245280 On ch=1 n=f4 v=74
245760 On ch=1 n=f4 v=0
245760 On ch=1 n=g#4 v=0
245760 On ch=1 n=c#5 v=0
246240 On ch=1 n=a#2 v=110
246240 On ch=1 n=a#3 v=110
246720 On ch=1 n=a#3 v=0
246720 On ch=1 n=a#2 v=0
246720 On ch=1 n=f5 v=100
246720 On ch=1 n=a#4 v=100
246720 On ch=1 n=f4 v=100
247200 On ch=1 n=f4 v=0
247200 On ch=1 n=a#4 v=0
247200 On ch=1 n=f5 v=0
247680 On ch=1 n=d#3 v=110
247680 On ch=1 n=d#4 v=110
248160 On ch=1 n=d#4 v=0
248160 On ch=1 n=d#3 v=0
248160 On ch=1 n=a#4 v=100
248160 On ch=1 n=c#5 v=100
248160 On ch=1 n=d#5 v=100
248160 On ch=1 n=g5 v=100
248640 On ch=1 n=g5 v=0
248640 On ch=1 n=d#5 v=0
248640 On ch=1 n=c#5 v=0
248640 On ch=1 n=a#4 v=0
248640 On ch=1 n=a#4 v=100
248640 On ch=1 n=c#5 v=100
248640 On ch=1 n=d#5 v=100
248640 On ch=1 n=g5 v=100
249120 On ch=1 n=g5 v=0
249120 On ch=1 n=d#5 v=0
249120 On ch=1 n=c#5 v=0
249120 On ch=1 n=a#4 v=0
249120 On ch=1 n=g#3 v=110
249600 On ch=1 n=g#3 v=0
249600 On ch=1 n=g#4 v=100
249600 On ch=1 n=d#5 v=100
249600 On ch=1 n=f#5 v=100
250080 On ch=1 n=f#5 v=0
250080 On ch=1 n=d#5 v=0
250080 On ch=1 n=g#4 v=0
250080 On ch=1 n=f#5 v=100
250080 On ch=1 n=c5 v=100
250080 On ch=1 n=g#4 v=100
250560 On ch=1 n=g#4 v=0
250560 On ch=1 n=c5 v=0
250560 On ch=1 n=f#5 v=0
250560 On ch=1 n=g#3 v=110
251040 On ch=1 n=g#3 v=0
251040 On ch=1 n=d#4 v=100
251040 On ch=1 n=g#4 v=100
251040 On ch=1 n=c5 v=100
251520 On ch=1 n=c5 v=0
251520 On ch=1 n=g#4 v=0
251520 On ch=1 n=d#4 v=0
251520 On ch=1 n=c5 v=100
251520 On ch=1 n=g#4 v=100
251520 On ch=1 n=d#4 v=100
252000 On ch=1 n=d#4 v=0
252000 On ch=1 n=g#4 v=0
252000 On ch=1 n=c5 v=0
252000 On ch=1 n=c#4 v=110
252480 On ch=1 n=c#5 v=100
252480 On ch=1 n=g#4 v=100
252960 On ch=1 n=g#4 v=0
252960 On ch=1 n=c#5 v=0
252960 On ch=1 n=c#4 v=0
252960 On ch=1 n=c#4 v=100
253440 On ch=1 n=c#3 v=110
253920 On ch=1 n=c#3 v=0
253920 On ch=1 n=c#4 v=0
253920 On ch=1 n=b4 v=100
253920 On ch=1 n=f4 v=100
253920 On ch=1 n=c#4 v=100
254400 On ch=1 n=c#4 v=0
254400 On ch=1 n=f4 v=0
254400 On ch=1 n=b4 v=0
254400 On ch=1 n=b4 v=100
254400 On ch=1 n=f4 v=100
254400 On ch=1 n=c#4 v=100
254880 On ch=1 n=c#4 v=0
254880 On ch=1 n=f4 v=0
254880 On ch=1 n=b4 v=0
254880 On ch=1 n=f#3 v=110
255360 On ch=1 n=f#3 v=0
255360 On ch=1 n=a#4 v=100
255360 On ch=1 n=f#4 v=100
255360 On ch=1 n=c#4 v=100
255840 On ch=1 n=c#4 v=0
255840 On ch=1 n=f#4 v=0
255840 On ch=1 n=a#4 v=0
255840 On ch=1 n=c#4 v=100
255840 On ch=1 n=f#4 v=100
255840 On ch=1 n=a#4 v=100
256320 On ch=1 n=a#4 v=0
256320 On ch=1 n=f#4 v=0
256320 On ch=1 n=c#4 v=0
256320 On ch=1 n=f3 v=110
256800 On ch=1 n=f3 v=0
256800 On ch=1 n=b4 v=100
256800 On ch=1 n=g#4 v=100
256800 On ch=1 n=c#4 v=100
257280 On ch=1 n=c#4 v=0
257280 On ch=1 n=g#4 v=0
257280 On ch=1 n=b4 v=0
257280 On ch=1 n=g#4 v=100
257280 On ch=1 n=b4 v=100
257280 On ch=1 n=c#4 v=100
257760 On ch=1 n=c#4 v=0
257760 On ch=1 n=b4 v=0
257760 On ch=1 n=g#4 v=0
257760 On ch=1 n=f#3 v=110
258240 On ch=1 n=f#3 v=0
258240 On ch=1 n=a#4 v=100
258240 On ch=1 n=f#4 v=100
258240 On ch=1 n=c#4 v=100
258720 On ch=1 n=c#4 v=0
258720 On ch=1 n=f#4 v=0
258720 On ch=1 n=a#4 v=0
258720 On ch=1 n=d#4 v=100
259200 On ch=1 n=g3 v=110
259680 On ch=1 n=g3 v=0
259680 On ch=1 n=d#4 v=0
259680 On ch=1 n=c#5 v=100
259680 On ch=1 n=a#4 v=100
259680 On ch=1 n=d#4 v=100
260160 On ch=1 n=d#4 v=0
260160 On ch=1 n=a#4 v=0
260160 On ch=1 n=c#5 v=0
260160 On ch=1 n=a#4 v=100
260160 On ch=1 n=c#5 v=100
260160 On ch=1 n=d#4 v=100
260640 On ch=1 n=d#4 v=0
260640 On ch=1 n=c#5 v=0
260640 On ch=1 n=a#4 v=0
260640 On ch=1 n=g#3 v=110
261120 On ch=1 n=g#3 v=0
261120 On ch=1 n=c5 v=100
261120 On ch=1 n=g#4 v=100
261120 On ch=1 n=d#4 v=100
261600 On ch=1 n=d#4 v=0
261600 On ch=1 n=g#4 v=0
261600 On ch=1 n=c5 v=0
261600 On ch=1 n=g#4 v=100
261600 On ch=1 n=c5 v=100
261600 On ch=1 n=d#4 v=100
262080 On ch=1 n=d#4 v=0
262080 On ch=1 n=c5 v=0
262080 On ch=1 n=g#4 v=0
262080 On ch=1 n=g3 v=110
262560 On ch=1 n=g3 v=0
262560 On ch=1 n=c#5 v=100
262560 On ch=1 n=a#4 v=100
262560 On ch=1 n=d#4 v=100
263040 On ch=1 n=d#4 v=0
263040 On ch=1 n=a#4 v=0
263040 On ch=1 n=c#5 v=0
263040 On ch=1 n=d#4 v=100
263040 On ch=1 n=a#4 v=100
263040 On ch=1 n=c#5 v=100
263520 On ch=1 n=c#5 v=0
263520 On ch=1 n=a#4 v=0
263520 On ch=1 n=d#4 v=0
263520 On ch=1 n=g#3 v=110
264000 On ch=1 n=g#3 v=0
264000 On ch=1 n=c5 v=100
264000 On ch=1 n=g#4 v=100
264000 On ch=1 n=d#4 v=100
264480 On ch=1 n=d#4 v=0
264480 On ch=1 n=g#4 v=0
264480 On ch=1 n=c5 v=0
264960 On ch=1 n=g#2 v=110
264960 On ch=1 n=g#3 v=110
265440 On ch=1 n=g#3 v=0
265440 On ch=1 n=g#2 v=0
265440 On ch=1 n=c5 v=100
265440 On ch=1 n=g#4 v=100
265440 On ch=1 n=d#4 v=100
265920 On ch=1 n=d#4 v=0
265920 On ch=1 n=g#4 v=0
265920 On ch=1 n=c5 v=0
265920 On ch=1 n=f#5 v=100
265920 On ch=1 n=c5 v=100
265920 On ch=1 n=g#4 v=100
266400 On ch=1 n=g#4 v=0
266400 On ch=1 n=c5 v=0
266400 On ch=1 n=f#5 v=0
266400 On ch=1 n=c#3 v=110
266400 On ch=1 n=c#4 v=110
266880 On ch=1 n=c#4 v=0
266880 On ch=1 n=c#3 v=0
266880 On ch=1 n=c#5 v=100
266880 On ch=1 n=g#4 v=100
266880 On ch=1 n=f4 v=100
267360 On ch=1 n=f4 v=0
267360 On ch=1 n=g#4 v=0
267360 On ch=1 n=c#5 v=0
267360 On ch=1 n=f5 v=100
267360 On ch=1 n=c#5 v=100
267360 On ch=1 n=g#4 v=100
267840 On ch=1 n=g#4 v=0
267840 On ch=1 n=c#5 v=0
267840 On ch=1 n=f5 v=0
267840 On ch=1 n=g#3 v=110
267840 On ch=1 n=g#4 v=110
268320 On ch=1 n=g#4 v=0
268320 On ch=1 n=g#3 v=0
268320 On ch=1 n=f#5 v=101
268320 On ch=1 n=c5 v=101
268320 On ch=1 n=g#4 v=101
268800 On ch=1 n=g#4 v=0
268800 On ch=1 n=c5 v=0
268800 On ch=1 n=f#5 v=0
268800 On ch=1 n=g#4 v=103
268800 On ch=1 n=c5 v=103
268800 On ch=1 n=f#5 v=103
269280 On ch=1 n=f#5 v=0
269280 On ch=1 n=c5 v=0
269280 On ch=1 n=g#4 v=0
269280 On ch=1 n=c#3 v=115
269280 On ch=1 n=c#4 v=115
269760 On ch=1 n=c#4 v=0
269760 On ch=1 n=c#3 v=0
269760 On ch=1 n=f5 v=107
269760 On ch=1 n=c#5 v=107
269760 On ch=1 n=g#4 v=107
269760 On ch=1 n=f4 v=107
270240 On ch=1 n=f4 v=0
270240 On ch=1 n=g#4 v=0
270240 On ch=1 n=c#5 v=0
270240 On ch=1 n=f5 v=0
270720 On ch=1 n=f#2 v=120
270720 On ch=1 n=f#3 v=120
271200 On ch=1 n=f#3 v=0
271200 On ch=1 n=f#2 v=0
271200 On ch=1 n=f#4 v=110
271200 On ch=1 n=a#4 v=110
271200 On ch=1 n=c#5 v=110
271200 On ch=1 n=d#5 v=110
271680 On ch=1 n=d#5 v=0
271680 On ch=1 n=c#5 v=0
271680 On ch=1 n=a#4 v=0
271680 On ch=1 n=f#4 v=0
273600 On ch=1 n=f#2 v=120
273600 On ch=1 n=g#3 v=120
274080 On ch=1 n=g#3 v=0
274080 On ch=1 n=f#2 v=0
274080 On ch=1 n=d#4 v=110
274080 On ch=1 n=f#4 v=110
274080 On ch=1 n=g#4 v=110
274080 On ch=1 n=c5 v=110
274560 On ch=1 n=c5 v=0
274560 On ch=1 n=g#4 v=0
274560 On ch=1 n=f#4 v=0
274560 On ch=1 n=d#4 v=0
274560 On ch=1 n=g#4 v=110
274560 On ch=1 n=c5 v=110
274560 On ch=1 n=f#4 v=110
274560 On ch=1 n=d#4 v=110
275040 On ch=1 n=d#4 v=0
275040 On ch=1 n=f#4 v=0
275040 On ch=1 n=c5 v=0
275040 On ch=1 n=g#4 v=0
275040 On ch=1 n=c#3 v=120
275040 On ch=1 n=c#4 v=120
275520 On ch=1 n=c#4 v=0
275520 On ch=1 n=c#3 v=0
275520 On ch=1 n=c#5 v=100
275520 On ch=1 n=g#4 v=100
275520 On ch=1 n=f4 v=100
276000 On ch=1 n=f4 v=0
276000 On ch=1 n=g#4 v=0
276000 On ch=1 n=c#5 v=0
276000 On ch=1 n=c#4 v=100
276480 On ch=1 n=c#3 v=110
276960 On ch=1 n=c#3 v=0
276960 On ch=1 n=c#4 v=0
276960 On ch=1 n=b4 v=100
276960 On ch=1 n=f4 v=100
276960 On ch=1 n=c#4 v=100
277440 On ch=1 n=c#4 v=0
277440 On ch=1 n=f4 v=0
277440 On ch=1 n=b4 v=0
277440 On ch=1 n=b4 v=100
277440 On ch=1 n=f4 v=100
277440 On ch=1 n=c#4 v=100
277920 On ch=1 n=c#4 v=0
277920 On ch=1 n=f4 v=0
277920 On ch=1 n=b4 v=0
277920 On ch=1 n=f#3 v=110
278400 On ch=1 n=f#3 v=0
278400 On ch=1 n=a#4 v=100
278400 On ch=1 n=f#4 v=100
278400 On ch=1 n=c#4 v=100
278880 On ch=1 n=c#4 v=0
278880 On ch=1 n=f#4 v=0
278880 On ch=1 n=a#4 v=0
278880 On ch=1 n=f#4 v=100
278880 On ch=1 n=a#4 v=100
278880 On ch=1 n=c#4 v=100
279360 On ch=1 n=c#4 v=0
279360 On ch=1 n=a#4 v=0
279360 On ch=1 n=f#4 v=0
279360 On ch=1 n=f3 v=110
279840 On ch=1 n=f3 v=0
279840 On ch=1 n=b4 v=100
279840 On ch=1 n=g#4 v=100
279840 On ch=1 n=c#4 v=100
280320 On ch=1 n=c#4 v=0
280320 On ch=1 n=g#4 v=0
280320 On ch=1 n=b4 v=0
280320 On ch=1 n=b4 v=100
280320 On ch=1 n=g#4 v=100
280320 On ch=1 n=c#4 v=100
280800 On ch=1 n=c#4 v=0
280800 On ch=1 n=g#4 v=0
280800 On ch=1 n=b4 v=0
280800 On ch=1 n=f#3 v=110
281280 On ch=1 n=f#3 v=0
281280 On ch=1 n=a#4 v=100
281280 On ch=1 n=f#4 v=100
281280 On ch=1 n=c#4 v=100
281760 On ch=1 n=c#4 v=0
281760 On ch=1 n=f#4 v=0
281760 On ch=1 n=a#4 v=0
282240 On ch=1 n=g3 v=110
282240 On ch=1 n=d#4 v=110
282720 On ch=1 n=d#4 v=0
282720 On ch=1 n=g3 v=0
282720 On ch=1 n=c#5 v=100
282720 On ch=1 n=a#4 v=100
282720 On ch=1 n=d#4 v=100
283200 On ch=1 n=d#4 v=0
283200 On ch=1 n=a#4 v=0
283200 On ch=1 n=c#5 v=0
283200 On ch=1 n=a#4 v=100
283200 On ch=1 n=c#5 v=100
283200 On ch=1 n=d#4 v=100
283680 On ch=1 n=d#4 v=0
283680 On ch=1 n=c#5 v=0
283680 On ch=1 n=a#4 v=0
283680 On ch=1 n=g#3 v=110
284160 On ch=1 n=g#3 v=0
284160 On ch=1 n=c5 v=100
284160 On ch=1 n=g#4 v=100
284160 On ch=1 n=d#4 v=100
284640 On ch=1 n=d#4 v=0
284640 On ch=1 n=g#4 v=0
284640 On ch=1 n=c5 v=0
284640 On ch=1 n=d#4 v=100
284640 On ch=1 n=g#4 v=100
284640 On ch=1 n=c5 v=100
285120 On ch=1 n=c5 v=0
285120 On ch=1 n=g#4 v=0
285120 On ch=1 n=d#4 v=0
285120 On ch=1 n=d#3 v=110
285600 On ch=1 n=d#3 v=0
285600 On ch=1 n=c#5 v=100
285600 On ch=1 n=a#4 v=100
285600 On ch=1 n=d#4 v=100
286080 On ch=1 n=d#4 v=0
286080 On ch=1 n=a#4 v=0
286080 On ch=1 n=c#5 v=0
286080 On ch=1 n=d#4 v=100
286080 On ch=1 n=a#4 v=100
286080 On ch=1 n=c#5 v=100
286560 On ch=1 n=c#5 v=0
286560 On ch=1 n=a#4 v=0
286560 On ch=1 n=d#4 v=0
286560 On ch=1 n=g#3 v=110
287040 On ch=1 n=g#3 v=0
287040 On ch=1 n=c5 v=100
287040 On ch=1 n=g#4 v=100
287040 On ch=1 n=d#4 v=100
287520 On ch=1 n=d#4 v=0
287520 On ch=1 n=g#4 v=0
287520 On ch=1 n=c5 v=0
288000 On ch=1 n=g#2 v=110
288000 On ch=1 n=g#3 v=110
288480 On ch=1 n=g#3 v=0
288480 On ch=1 n=g#2 v=0
288480 On ch=1 n=c5 v=100
288480 On ch=1 n=g#4 v=100
288480 On ch=1 n=d#4 v=100
288960 On ch=1 n=d#4 v=0
288960 On ch=1 n=g#4 v=0
288960 On ch=1 n=c5 v=0
288960 On ch=1 n=f#5 v=100
288960 On ch=1 n=g#4 v=100
288960 On ch=1 n=c5 v=100
289440 On ch=1 n=c5 v=0
289440 On ch=1 n=g#4 v=0
289440 On ch=1 n=f#5 v=0
289440 On ch=1 n=c#3 v=110
289440 On ch=1 n=c#4 v=110
289920 On ch=1 n=c#4 v=0
289920 On ch=1 n=c#3 v=0
289920 On ch=1 n=c#5 v=100
289920 On ch=1 n=g#4 v=100
289920 On ch=1 n=f4 v=100
290400 On ch=1 n=f4 v=0
290400 On ch=1 n=g#4 v=0
290400 On ch=1 n=c#5 v=0
290400 On ch=1 n=g#4 v=100
290400 On ch=1 n=f5 v=100
290400 On ch=1 n=c#5 v=100
290880 On ch=1 n=c#5 v=0
290880 On ch=1 n=f5 v=0
290880 On ch=1 n=g#4 v=0
290880 On ch=1 n=g#3 v=110
290880 On ch=1 n=g#4 v=110
291360 On ch=1 n=g#4 v=0
291360 On ch=1 n=g#3 v=0
292320 On ch=1 n=c#3 v=115
292320 On ch=1 n=c#4 v=115
292800 On ch=1 n=c#4 v=0
292800 On ch=1 n=c#3 v=0
292800 On ch=1 n=f5 v=107
292800 On ch=1 n=c#5 v=107
292800 On ch=1 n=g#4 v=107
292800 On ch=1 n=f4 v=107
293280 On ch=1 n=f4 v=0
293280 On ch=1 n=g#4 v=0
293280 On ch=1 n=c#5 v=0
293280 On ch=1 n=f5 v=0
293760 On ch=1 n=f#2 v=120
293760 On ch=1 n=f#3 v=120
294240 On ch=1 n=f#3 v=0
294240 On ch=1 n=f#2 v=0
294240 On ch=1 n=f#4 v=110
294240 On ch=1 n=a#4 v=110
294240 On ch=1 n=c#5 v=110
294240 On ch=1 n=d#5 v=110
294720 On ch=1 n=d#5 v=0
294720 On ch=1 n=c#5 v=0
294720 On ch=1 n=a#4 v=0
294720 On ch=1 n=f#4 v=0
296640 On ch=1 n=g#2 v=120
296640 On ch=1 n=g#3 v=120
297120 On ch=1 n=g#3 v=0
297120 On ch=1 n=g#2 v=0
297120 On ch=1 n=d#4 v=110
297120 On ch=1 n=f#4 v=110
297120 On ch=1 n=g#4 v=110
297120 On ch=1 n=c5 v=110
297600 On ch=1 n=c5 v=0
297600 On ch=1 n=g#4 v=0
297600 On ch=1 n=f#4 v=0
297600 On ch=1 n=d#4 v=0
297600 On ch=1 n=d#4 v=110
297600 On ch=1 n=f#4 v=110
297600 On ch=1 n=g#4 v=110
297600 On ch=1 n=c5 v=110
298080 On ch=1 n=c5 v=0
298080 On ch=1 n=g#4 v=0
298080 On ch=1 n=f#4 v=0
298080 On ch=1 n=d#4 v=0
298080 On ch=1 n=c#3 v=120
298560 On ch=1 n=c#3 v=0
298560 On ch=1 n=g#4 v=110
298560 On ch=1 n=c#4 v=110
299040 On ch=1 n=c#4 v=0
299040 On ch=1 n=g#4 v=0
299520 On ch=1 n=g#2 v=110
300000 On ch=1 n=g#2 v=0
300000 On ch=1 n=c5 v=100
300000 On ch=1 n=g#4 v=100
300000 On ch=1 n=d#4 v=100
300480 On ch=1 n=d#4 v=0
300480 On ch=1 n=g#4 v=0
300480 On ch=1 n=c5 v=0
300480 On ch=1 n=d#4 v=100
300480 On ch=1 n=g#4 v=100
300480 On ch=1 n=c5 v=100
300960 On ch=1 n=c5 v=0
300960 On ch=1 n=g#4 v=0
300960 On ch=1 n=d#4 v=0
300960 On ch=1 n=c#3 v=110
301440 On ch=1 n=c#3 v=0
301440 On ch=1 n=c#4 v=100
301440 On ch=1 n=g#4 v=100
301920 On ch=1 n=g#4 v=0
301920 On ch=1 n=c#4 v=0
301920 On ch=1 n=c#4 v=100
301920 On ch=1 n=g#4 v=100
302400 On ch=1 n=g#4 v=0
302400 On ch=1 n=c#4 v=0
302400 On ch=1 n=d#3 v=110
302880 On ch=1 n=d#3 v=0
302880 On ch=1 n=g4 v=100
302880 On ch=1 n=d#4 v=100
303360 On ch=1 n=d#4 v=0
303360 On ch=1 n=g4 v=0
303360 On ch=1 n=d#4 v=100
303360 On ch=1 n=g4 v=100
303840 On ch=1 n=g4 v=0
303840 On ch=1 n=d#4 v=0
303840 On ch=1 n=g#3 v=110
304320 On ch=1 n=g#3 v=0
304320 On ch=1 n=g#4 v=100
304320 On ch=1 n=d#4 v=100
304800 On ch=1 n=d#4 v=0
304800 On ch=1 n=g#4 v=0
304800 On ch=1 n=d#4 v=100
304800 On ch=1 n=g#4 v=100
305280 On ch=1 n=g#4 v=0
305280 On ch=1 n=d#4 v=0
305280 On ch=1 n=d#3 v=110
305760 On ch=1 n=d#3 v=0
305760 On ch=1 n=g5 v=100
305760 On ch=1 n=d#5 v=100
305760 On ch=1 n=a#4 v=100
305760 On ch=1 n=g4 v=100
306240 On ch=1 n=g4 v=0
306240 On ch=1 n=a#4 v=0
306240 On ch=1 n=d#5 v=0
306240 On ch=1 n=g5 v=0
306240 On ch=1 n=g4 v=100
306240 On ch=1 n=a#4 v=100
306240 On ch=1 n=d#5 v=100
306240 On ch=1 n=g5 v=100
306720 On ch=1 n=g5 v=0
306720 On ch=1 n=d#5 v=0
306720 On ch=1 n=a#4 v=0
306720 On ch=1 n=g4 v=0
306720 On ch=1 n=g#3 v=110
307200 On ch=1 n=g#3 v=0
307200 On ch=1 n=f5 v=100
307200 On ch=1 n=c5 v=100
307200 On ch=1 n=f4 v=100
307680 On ch=1 n=f4 v=0
307680 On ch=1 n=c5 v=0
307680 On ch=1 n=f5 v=0
307680 On ch=1 n=f5 v=100
307680 On ch=1 n=c5 v=100
307680 On ch=1 n=f4 v=100
308160 On ch=1 n=f4 v=0
308160 On ch=1 n=c5 v=0
308160 On ch=1 n=f5 v=0
308160 On ch=1 n=a#3 v=110
308640 On ch=1 n=a#3 v=0
308640 On ch=1 n=d5 v=100
308640 On ch=1 n=a#4 v=100
308640 On ch=1 n=f4 v=100
309120 On ch=1 n=f4 v=0
309120 On ch=1 n=a#4 v=0
309120 On ch=1 n=d5 v=0
309120 On ch=1 n=f4 v=100
309120 On ch=1 n=a#4 v=100
309120 On ch=1 n=d5 v=100
309600 On ch=1 n=d5 v=0
309600 On ch=1 n=a#4 v=0
309600 On ch=1 n=f4 v=0
309600 On ch=1 n=d#4 v=110
310080 On ch=1 n=d#5 v=100
310080 On ch=1 n=g4 v=100
310560 On ch=1 n=g4 v=0
310560 On ch=1 n=d#5 v=0
310560 On ch=1 n=c#5 v=100
310560 On ch=1 n=g4 v=100
311040 On ch=1 n=g4 v=0
311040 On ch=1 n=c#5 v=0
311040 On ch=1 n=d#4 v=0
311040 On ch=1 n=g#3 v=110
311520 On ch=1 n=g#3 v=0
311520 On ch=1 n=f4 v=100
311520 On ch=1 n=g#4 v=100
311520 On ch=1 n=b4 v=100
312000 On ch=1 n=b4 v=0
312000 On ch=1 n=g#4 v=0
312000 On ch=1 n=f4 v=0
312000 On ch=1 n=d#4 v=100
312000 On ch=1 n=g#4 v=100
312000 On ch=1 n=c5 v=100
312480 On ch=1 n=c5 v=0
312480 On ch=1 n=g#4 v=0
312480 On ch=1 n=d#4 v=0
312480 On ch=1 n=c#3 v=110
312960 On ch=1 n=c#3 v=0
312960 On ch=1 n=a4 v=100
312960 On ch=1 n=c#4 v=100
313440 On ch=1 n=c#4 v=0
313440 On ch=1 n=a4 v=0
313440 On ch=1 n=a#4 v=100
313440 On ch=1 n=c#4 v=100
313920 On ch=1 n=c#4 v=0
313920 On ch=1 n=a#4 v=0
313920 On ch=1 n=d#3 v=110
314400 On ch=1 n=d#3 v=0
314400 On ch=1 n=g4 v=100
314400 On ch=1 n=d#4 v=100
314880 On ch=1 n=d#4 v=0
314880 On ch=1 n=g4 v=0
314880 On ch=1 n=d#4 v=100
314880 On ch=1 n=g4 v=100
315360 On ch=1 n=g4 v=0
315360 On ch=1 n=d#4 v=0
315360 On ch=1 n=g#3 v=110
315840 On ch=1 n=g#3 v=0
315840 On ch=1 n=g#4 v=100
315840 On ch=1 n=d#4 v=100
316320 On ch=1 n=d#4 v=0
316320 On ch=1 n=g#4 v=0
316320 On ch=1 n=g#4 v=100
316320 On ch=1 n=d#4 v=100
316800 On ch=1 n=d#4 v=0
316800 On ch=1 n=g#4 v=0
316800 On ch=1 n=d#3 v=110
317280 On ch=1 n=d#3 v=0
317280 On ch=1 n=g5 v=100
317280 On ch=1 n=d#5 v=100
317280 On ch=1 n=a#4 v=100
317280 On ch=1 n=g4 v=100
317760 On ch=1 n=g4 v=0
317760 On ch=1 n=a#4 v=0
317760 On ch=1 n=d#5 v=0
317760 On ch=1 n=g5 v=0
317760 On ch=1 n=g4 v=100
317760 On ch=1 n=a#4 v=100
317760 On ch=1 n=d#5 v=100
317760 On ch=1 n=g5 v=100
318240 On ch=1 n=g5 v=0
318240 On ch=1 n=d#5 v=0
318240 On ch=1 n=a#4 v=0
318240 On ch=1 n=g4 v=0
318240 On ch=1 n=g#3 v=110
318720 On ch=1 n=g#3 v=0
318720 On ch=1 n=f5 v=100
318720 On ch=1 n=c5 v=100
318720 On ch=1 n=f4 v=100
319200 On ch=1 n=f4 v=0
319200 On ch=1 n=c5 v=0
319200 On ch=1 n=f5 v=0
319200 On ch=1 n=f4 v=100
319200 On ch=1 n=c5 v=100
319200 On ch=1 n=f5 v=100
319680 On ch=1 n=f5 v=0
319680 On ch=1 n=c5 v=0
319680 On ch=1 n=f4 v=0
319680 On ch=1 n=a#3 v=110
320160 On ch=1 n=a#3 v=0
320160 On ch=1 n=d5 v=100
320160 On ch=1 n=a#4 v=100
320160 On ch=1 n=f4 v=100
320640 On ch=1 n=f4 v=0
320640 On ch=1 n=a#4 v=0
320640 On ch=1 n=d5 v=0
320640 On ch=1 n=a#4 v=100
320640 On ch=1 n=d5 v=100
320640 On ch=1 n=f4 v=100
321120 On ch=1 n=f4 v=0
321120 On ch=1 n=d5 v=0
321120 On ch=1 n=a#4 v=0
321120 On ch=1 n=d#4 v=110
321600 On ch=1 n=d#5 v=100
321600 On ch=1 n=a#4 v=100
322080 On ch=1 n=a#4 v=0
322080 On ch=1 n=d#5 v=0
322080 On ch=1 n=c5 v=100
322080 On ch=1 n=d#5 v=100
322560 On ch=1 n=d#5 v=0
322560 On ch=1 n=c5 v=0
322560 On ch=1 n=d#4 v=0
322560 On ch=1 n=d#4 v=110
323040 On ch=1 n=d#4 v=0
324000 On ch=1 n=d#4 v=110
324480 On ch=1 n=d#4 v=0
325440 On ch=1 n=d#4 v=110
325920 On ch=1 n=d#4 v=0
326880 On ch=1 n=d#4 v=110
327360 On ch=1 n=d#4 v=0
328320 On ch=1 n=d#4 v=110
328800 On ch=1 n=d#4 v=0
329760 On ch=1 n=d#4 v=110
330240 On ch=1 n=d#4 v=0
331200 On ch=1 n=d#4 v=110
331680 On ch=1 n=d#4 v=0
332640 On ch=1 n=g#3 v=110
333120 On ch=1 n=g#3 v=0
333120 On ch=1 n=c5 v=100
333120 On ch=1 n=g#4 v=100
333120 On ch=1 n=d#4 v=100
333600 On ch=1 n=d#4 v=0
333600 On ch=1 n=g#4 v=0
333600 On ch=1 n=c5 v=0
334080 On ch=1 n=d#3 v=70
334560 On ch=1 n=d#3 v=0
335520 On ch=1 n=d#4 v=70
336000 On ch=1 n=d#4 v=0
336960 On ch=1 n=d#4 v=70
337440 On ch=1 n=d#4 v=0
338400 On ch=1 n=d#4 v=70
338880 On ch=1 n=d#4 v=0
339840 On ch=1 n=d#4 v=70
340320 On ch=1 n=d#4 v=0
341280 On ch=1 n=d#4 v=70
341760 On ch=1 n=d#4 v=0
342720 On ch=1 n=d#4 v=70
343200 On ch=1 n=d#4 v=0
344160 On ch=1 n=g#3 v=120
344640 On ch=1 n=g#3 v=0
344640 On ch=1 n=c5 v=100
344640 On ch=1 n=d#4 v=100
345120 On ch=1 n=d#4 v=0
345120 On ch=1 n=c5 v=0
345600 On ch=1 n=g#2 v=110
345600 On ch=1 n=g#3 v=110
346080 On ch=1 n=g#3 v=0
346080 On ch=1 n=g#2 v=0
346080 On ch=1 n=c5 v=100
346080 On ch=1 n=f#4 v=100
346080 On ch=1 n=d#4 v=100
346560 On ch=1 n=d#4 v=0
346560 On ch=1 n=f#4 v=0
346560 On ch=1 n=c5 v=0
346560 On ch=1 n=g#4 v=100
346560 On ch=1 n=f#4 v=100
346560 On ch=1 n=c5 v=100
346560 On ch=1 n=d#4 v=100
347040 On ch=1 n=d#4 v=0
347040 On ch=1 n=c5 v=0
347040 On ch=1 n=f#4 v=0
347040 On ch=1 n=g#4 v=0
347040 On ch=1 n=c#3 v=110
347040 On ch=1 n=c#4 v=110
347520 On ch=1 n=c#4 v=0
347520 On ch=1 n=c#3 v=0
347520 On ch=1 n=c#5 v=100
347520 On ch=1 n=g#4 v=100
347520 On ch=1 n=f4 v=100
348000 On ch=1 n=f4 v=0
348000 On ch=1 n=g#4 v=0
348000 On ch=1 n=c#5 v=0
348000 On ch=1 n=f5 v=100
348000 On ch=1 n=c#5 v=100
348000 On ch=1 n=g#4 v=100
348480 On ch=1 n=g#4 v=0
348480 On ch=1 n=c#5 v=0
348480 On ch=1 n=f5 v=0
348480 On ch=1 n=g#3 v=110
348960 On ch=1 n=g#3 v=0
348960 On ch=1 n=f#5 v=100
348960 On ch=1 n=c5 v=100
348960 On ch=1 n=g#4 v=100
349440 On ch=1 n=g#4 v=0
349440 On ch=1 n=c5 v=0
349440 On ch=1 n=f#5 v=0
349440 On ch=1 n=f#5 v=100
349440 On ch=1 n=g#4 v=100
349440 On ch=1 n=c5 v=100
349920 On ch=1 n=c5 v=0
349920 On ch=1 n=g#4 v=0
349920 On ch=1 n=f#5 v=0
349920 On ch=1 n=c#4 v=110
350400 On ch=1 n=c#4 v=0
350400 On ch=1 n=f5 v=100
350400 On ch=1 n=c#5 v=100
350400 On ch=1 n=g#4 v=100
350880 On ch=1 n=g#4 v=0
350880 On ch=1 n=c#5 v=0
350880 On ch=1 n=f5 v=0
351360 On ch=1 n=a#2 v=110
351360 On ch=1 n=a#3 v=110
351840 On ch=1 n=a#3 v=0
351840 On ch=1 n=a#2 v=0
351840 On ch=1 n=d5 v=100
351840 On ch=1 n=g#4 v=100
351840 On ch=1 n=f4 v=100
352320 On ch=1 n=f4 v=0
352320 On ch=1 n=g#4 v=0
352320 On ch=1 n=d5 v=0
352320 On ch=1 n=f4 v=100
352320 On ch=1 n=g#4 v=100
352320 On ch=1 n=a#4 v=100
352320 On ch=1 n=d5 v=100
352800 On ch=1 n=d5 v=0
352800 On ch=1 n=a#4 v=0
352800 On ch=1 n=g#4 v=0
352800 On ch=1 n=f4 v=0
352800 On ch=1 n=d#3 v=110
352800 On ch=1 n=d#4 v=110
353280 On ch=1 n=d#4 v=0
353280 On ch=1 n=d#3 v=0
353280 On ch=1 n=d#5 v=100
353280 On ch=1 n=a#4 v=100
353280 On ch=1 n=g4 v=100
353760 On ch=1 n=g4 v=0
353760 On ch=1 n=a#4 v=0
353760 On ch=1 n=d#5 v=0
353760 On ch=1 n=a#4 v=100
353760 On ch=1 n=g5 v=100
353760 On ch=1 n=d#5 v=100
354240 On ch=1 n=d#5 v=0
354240 On ch=1 n=g5 v=0
354240 On ch=1 n=a#4 v=0
354240 On ch=1 n=a#3 v=110
354720 On ch=1 n=a#3 v=0
355680 On ch=1 n=d#4 v=110
356160 On ch=1 n=d#4 v=0
356160 On ch=1 n=g5 v=100
356160 On ch=1 n=d#5 v=100
356160 On ch=1 n=a#4 v=100
356640 On ch=1 n=a#4 v=0
356640 On ch=1 n=d#5 v=0
356640 On ch=1 n=g5 v=0
357120 On ch=1 n=d#3 v=110
357120 On ch=1 n=d#4 v=110
357600 On ch=1 n=d#4 v=0
357600 On ch=1 n=d#3 v=0
358560 On ch=1 n=d#5 v=110
358560 On ch=1 n=d#4 v=110
359040 On ch=1 n=d#4 v=0
359040 On ch=1 n=d#5 v=0
360000 On ch=1 n=d#5 v=110
360000 On ch=1 n=d#4 v=110
360480 On ch=1 n=d#4 v=0
360480 On ch=1 n=d#5 v=0
361440 On ch=1 n=g#3 v=110
361440 On ch=1 n=g#4 v=110
361920 On ch=1 n=g#4 v=0
361920 On ch=1 n=g#3 v=0
362880 On ch=1 n=c#3 v=110
362880 On ch=1 n=c#4 v=110
363360 On ch=1 n=c#4 v=0
363360 On ch=1 n=c#3 v=0
363360 On ch=1 n=c#5 v=100
363360 On ch=1 n=a#4 v=100
363360 On ch=1 n=g#4 v=100
363360 On ch=1 n=f4 v=100
363840 On ch=1 n=f4 v=0
363840 On ch=1 n=g#4 v=0
363840 On ch=1 n=a#4 v=0
363840 On ch=1 n=c#5 v=0
363840 On ch=1 n=g#4 v=100
363840 On ch=1 n=f5 v=100
363840 On ch=1 n=c#5 v=100
363840 On ch=1 n=a#4 v=100
364320 On ch=1 n=a#4 v=0
364320 On ch=1 n=c#5 v=0
364320 On ch=1 n=f5 v=0
364320 On ch=1 n=g#4 v=0
365760 On ch=1 n=d#3 v=110
365760 On ch=1 n=d#4 v=110
366240 On ch=1 n=d#4 v=0
366240 On ch=1 n=d#3 v=0
366240 On ch=1 n=g5 v=100
366240 On ch=1 n=d#5 v=100
366240 On ch=1 n=c#5 v=100
366240 On ch=1 n=a#4 v=100
366720 On ch=1 n=a#4 v=0
366720 On ch=1 n=c#5 v=0
366720 On ch=1 n=d#5 v=0
366720 On ch=1 n=g5 v=0
366720 On ch=1 n=d#4 v=100
366720 On ch=1 n=c#5 v=100
366720 On ch=1 n=a#4 v=100
367200 On ch=1 n=a#4 v=0
367200 On ch=1 n=c#5 v=0
367200 On ch=1 n=d#4 v=0
367200 On ch=1 n=g#3 v=110
367680 On ch=1 n=g#3 v=0
367680 On ch=1 n=c5 v=100
367680 On ch=1 n=g#4 v=100
367680 On ch=1 n=d#4 v=100
368160 On ch=1 n=d#4 v=0
368160 On ch=1 n=g#4 v=0
368160 On ch=1 n=c5 v=0
368640 On ch=1 n=g#2 v=110
368640 On ch=1 n=g#3 v=110
369120 On ch=1 n=g#3 v=0
369120 On ch=1 n=g#2 v=0
369120 On ch=1 n=c5 v=100
369120 On ch=1 n=g#4 v=100
369120 On ch=1 n=d#4 v=100
369600 On ch=1 n=d#4 v=0
369600 On ch=1 n=g#4 v=0
369600 On ch=1 n=c5 v=0
369600 On ch=1 n=f#5 v=100
369600 On ch=1 n=c5 v=100
369600 On ch=1 n=g#4 v=100
370080 On ch=1 n=g#4 v=0
370080 On ch=1 n=c5 v=0
370080 On ch=1 n=f#5 v=0
370080 On ch=1 n=c#3 v=110
370080 On ch=1 n=c#4 v=110
370560 On ch=1 n=c#4 v=0
370560 On ch=1 n=c#3 v=0
370560 On ch=1 n=c#5 v=100
370560 On ch=1 n=g#4 v=100
370560 On ch=1 n=f4 v=100
371040 On ch=1 n=f4 v=0
371040 On ch=1 n=g#4 v=0
371040 On ch=1 n=c#5 v=0
371040 On ch=1 n=f5 v=100
371040 On ch=1 n=c#5 v=100
371040 On ch=1 n=g#4 v=100
371520 On ch=1 n=g#4 v=0
371520 On ch=1 n=c#5 v=0
371520 On ch=1 n=f5 v=0
371520 On ch=1 n=g#3 v=110
372000 On ch=1 n=g#3 v=0
372000 On ch=1 n=c5 v=100
372000 On ch=1 n=g#4 v=100
372000 On ch=1 n=d#4 v=100
372480 On ch=1 n=d#4 v=0
372480 On ch=1 n=g#4 v=0
372480 On ch=1 n=c5 v=0
372480 On ch=1 n=f#5 v=100
372480 On ch=1 n=c5 v=100
372480 On ch=1 n=g#4 v=100
372960 On ch=1 n=g#4 v=0
372960 On ch=1 n=c5 v=0
372960 On ch=1 n=f#5 v=0
372960 On ch=1 n=c#4 v=110
373440 On ch=1 n=c#4 v=0
373440 On ch=1 n=c#5 v=100
373440 On ch=1 n=g#4 v=100
373440 On ch=1 n=f4 v=100
373920 On ch=1 n=f4 v=0
373920 On ch=1 n=g#4 v=0
373920 On ch=1 n=c#5 v=0
373920 On ch=1 n=f5 v=100
373920 On ch=1 n=c#5 v=100
373920 On ch=1 n=g#4 v=100
374400 On ch=1 n=g#4 v=0
374400 On ch=1 n=c#5 v=0
374400 On ch=1 n=f5 v=0
374400 On ch=1 n=a#2 v=110
374400 On ch=1 n=a#3 v=110
374880 On ch=1 n=a#3 v=0
374880 On ch=1 n=a#2 v=0
374880 On ch=1 n=d5 v=100
374880 On ch=1 n=a#4 v=100
374880 On ch=1 n=f4 v=100
375360 On ch=1 n=f4 v=0
375360 On ch=1 n=a#4 v=0
375360 On ch=1 n=d5 v=0
375360 On ch=1 n=g#5 v=100
375360 On ch=1 n=d5 v=100
375360 On ch=1 n=a#4 v=100
375840 On ch=1 n=a#4 v=0
375840 On ch=1 n=d5 v=0
375840 On ch=1 n=g#5 v=0
375840 On ch=1 n=d#3 v=110
375840 On ch=1 n=d#4 v=110
376320 On ch=1 n=d#4 v=0
376320 On ch=1 n=d#3 v=0
376320 On ch=1 n=d#5 v=100
376320 On ch=1 n=a#4 v=100
376320 On ch=1 n=g4 v=100
376800 On ch=1 n=g4 v=0
376800 On ch=1 n=a#4 v=0
376800 On ch=1 n=d#5 v=0
376800 On ch=1 n=a#4 v=100
376800 On ch=1 n=g5 v=100
376800 On ch=1 n=d#5 v=100
377280 On ch=1 n=d#5 v=0
377280 On ch=1 n=g5 v=0
377280 On ch=1 n=a#4 v=0
377280 On ch=1 n=a#3 v=110
377760 On ch=1 n=a#3 v=0
378720 On ch=1 n=d#4 v=110
379200 On ch=1 n=d#4 v=0
379200 On ch=1 n=d#5 v=100
379200 On ch=1 n=a#4 v=100
379200 On ch=1 n=g4 v=100
379680 On ch=1 n=g4 v=0
379680 On ch=1 n=a#4 v=0
379680 On ch=1 n=d#5 v=0
379680 On ch=1 n=a#4 v=100
379680 On ch=1 n=g5 v=100
379680 On ch=1 n=d#5 v=100
380160 On ch=1 n=d#5 v=0
380160 On ch=1 n=g5 v=0
380160 On ch=1 n=a#4 v=0
380160 On ch=1 n=d#3 v=110
380160 On ch=1 n=d#4 v=110
380640 On ch=1 n=d#4 v=0
380640 On ch=1 n=d#3 v=0
381600 On ch=1 n=d#5 v=110
381600 On ch=1 n=d#4 v=110
382080 On ch=1 n=d#4 v=0
382080 On ch=1 n=d#5 v=0
383040 On ch=1 n=d#5 v=110
383040 On ch=1 n=d#4 v=110
383520 On ch=1 n=d#4 v=0
383520 On ch=1 n=d#5 v=0
384480 On ch=1 n=g#3 v=120
384480 On ch=1 n=g#4 v=120
384960 On ch=1 n=g#4 v=0
384960 On ch=1 n=g#3 v=0
385920 On ch=1 n=c#3 v=120
385920 On ch=1 n=c#4 v=120
386400 On ch=1 n=c#4 v=0
386400 On ch=1 n=c#3 v=0
386400 On ch=1 n=f4 v=110
386400 On ch=1 n=g#4 v=110
386400 On ch=1 n=a#4 v=110
386400 On ch=1 n=c#5 v=110
386880 On ch=1 n=c#5 v=0
386880 On ch=1 n=a#4 v=0
386880 On ch=1 n=g#4 v=0
386880 On ch=1 n=f4 v=0
386880 On ch=1 n=g#4 v=110
386880 On ch=1 n=a#4 v=110
386880 On ch=1 n=c#5 v=110
386880 On ch=1 n=f5 v=110
387360 On ch=1 n=f5 v=0
387360 On ch=1 n=c#5 v=0
387360 On ch=1 n=a#4 v=0
387360 On ch=1 n=g#4 v=0
388800 On ch=1 n=c#3 v=120
388800 On ch=1 n=c#4 v=120
389280 On ch=1 n=c#4 v=0
389280 On ch=1 n=c#3 v=0
389280 On ch=1 n=f4 v=110
389280 On ch=1 n=g#4 v=110
389280 On ch=1 n=a#4 v=110
389280 On ch=1 n=c#5 v=110
389760 On ch=1 n=c#5 v=0
389760 On ch=1 n=a#4 v=0
389760 On ch=1 n=g#4 v=0
389760 On ch=1 n=f4 v=0
389760 On ch=1 n=g#4 v=110
389760 On ch=1 n=a#4 v=110
389760 On ch=1 n=c#5 v=110
389760 On ch=1 n=f5 v=110
390240 On ch=1 n=f5 v=0
390240 On ch=1 n=c#5 v=0
390240 On ch=1 n=a#4 v=0
390240 On ch=1 n=g#4 v=0
391680 On ch=1 n=d3 v=120
391680 On ch=1 n=d4 v=120
392160 On ch=1 n=d4 v=0
392160 On ch=1 n=d3 v=0
392160 On ch=1 n=d4 v=110
392160 On ch=1 n=g#4 v=110
392160 On ch=1 n=a#4 v=110
392640 On ch=1 n=a#4 v=0
392640 On ch=1 n=g#4 v=0
392640 On ch=1 n=d4 v=0
392640 On ch=1 n=g#4 v=110
392640 On ch=1 n=a#4 v=110
392640 On ch=1 n=f5 v=110
393120 On ch=1 n=f5 v=0
393120 On ch=1 n=a#4 v=0
393120 On ch=1 n=g#4 v=0
393120 On ch=1 n=g#5 v=110
393120 On ch=1 n=g#4 v=110
393120 On ch=1 n=a#4 v=110
393600 On ch=1 n=a#4 v=0
393600 On ch=1 n=g#4 v=0
393600 On ch=1 n=g#5 v=0
393600 On ch=1 n=f5 v=110
393600 On ch=1 n=g#4 v=110
393600 On ch=1 n=a#4 v=110
394080 On ch=1 n=a#4 v=0
394080 On ch=1 n=g#4 v=0
394080 On ch=1 n=f5 v=0
394080 On ch=1 n=d4 v=110
394080 On ch=1 n=g#4 v=110
394080 On ch=1 n=a#4 v=110
394560 On ch=1 n=a#4 v=0
394560 On ch=1 n=g#4 v=0
394560 On ch=1 n=d4 v=0
394560 On ch=1 n=d3 v=120
394560 On ch=1 n=d4 v=120
395040 On ch=1 n=d4 v=0
395040 On ch=1 n=d3 v=0
395040 On ch=1 n=d4 v=110
395040 On ch=1 n=g#4 v=110
395040 On ch=1 n=a#4 v=110
395520 On ch=1 n=a#4 v=0
395520 On ch=1 n=g#4 v=0
395520 On ch=1 n=d4 v=0
395520 On ch=1 n=g#4 v=110
395520 On ch=1 n=a#4 v=110
395520 On ch=1 n=f5 v=110
396000 On ch=1 n=f5 v=0
396000 On ch=1 n=a#4 v=0
396000 On ch=1 n=g#4 v=0
396000 On ch=1 n=g#5 v=110
396000 On ch=1 n=g#4 v=110
396000 On ch=1 n=a#4 v=110
396480 On ch=1 n=a#4 v=0
396480 On ch=1 n=g#4 v=0
396480 On ch=1 n=g#5 v=0
396480 On ch=1 n=f5 v=110
396480 On ch=1 n=g#4 v=110
396480 On ch=1 n=a#4 v=110
396960 On ch=1 n=a#4 v=0
396960 On ch=1 n=g#4 v=0
396960 On ch=1 n=f5 v=0
396960 On ch=1 n=d4 v=110
396960 On ch=1 n=g#4 v=110
396960 On ch=1 n=b4 v=110
397440 On ch=1 n=b4 v=0
397440 On ch=1 n=g#4 v=0
397440 On ch=1 n=d4 v=0
397440 On ch=1 n=d#3 v=120
397440 On ch=1 n=d#4 v=120
397920 On ch=1 n=d#4 v=0
397920 On ch=1 n=d#3 v=0
397920 On ch=1 n=c5 v=60
397920 On ch=1 n=g#4 v=60
397920 On ch=1 n=d#4 v=60
398400 On ch=1 n=d#4 v=0
398400 On ch=1 n=g#4 v=0
398400 On ch=1 n=c5 v=0
398400 On ch=1 n=g#4 v=60
398400 On ch=1 n=c5 v=60
398400 On ch=1 n=d#4 v=60
398880 On ch=1 n=d#4 v=0
398880 On ch=1 n=c5 v=0
398880 On ch=1 n=g#4 v=0
398880 On ch=1 n=g#5 v=60
398880 On ch=1 n=c5 v=60
398880 On ch=1 n=g#4 v=60
399360 On ch=1 n=g#4 v=0
399360 On ch=1 n=c5 v=0
399360 On ch=1 n=g#5 v=0
399360 On ch=1 n=d#4 v=60
399360 On ch=1 n=g#4 v=60
399360 On ch=1 n=c5 v=60
399840 On ch=1 n=c5 v=0
399840 On ch=1 n=g#4 v=0
399840 On ch=1 n=d#4 v=0
399840 On ch=1 n=c5 v=60
399840 On ch=1 n=g#4 v=60
399840 On ch=1 n=d#4 v=60
400320 On ch=1 n=d#4 v=0
400320 On ch=1 n=g#4 v=0
400320 On ch=1 n=c5 v=0
400320 On ch=1 n=f#5 v=60
400320 On ch=1 n=c5 v=60
400320 On ch=1 n=a4 v=60
400800 On ch=1 n=a4 v=0
400800 On ch=1 n=c5 v=0
400800 On ch=1 n=f#5 v=0
400800 On ch=1 n=d#4 v=60
400800 On ch=1 n=c5 v=60
400800 On ch=1 n=a4 v=60
401280 On ch=1 n=a4 v=0
401280 On ch=1 n=c5 v=0
401280 On ch=1 n=d#4 v=0
401280 On ch=1 n=d#4 v=60
401280 On ch=1 n=a4 v=60
401280 On ch=1 n=c5 v=60
401760 On ch=1 n=c5 v=0
401760 On ch=1 n=a4 v=0
401760 On ch=1 n=d#4 v=0
401760 On ch=1 n=a4 v=60
401760 On ch=1 n=c5 v=60
401760 On ch=1 n=f5 v=60
402240 On ch=1 n=f5 v=0
402240 On ch=1 n=c5 v=0
402240 On ch=1 n=a4 v=0
402240 On ch=1 n=d#4 v=60
402240 On ch=1 n=a4 v=60
402240 On ch=1 n=c5 v=60
402720 On ch=1 n=c5 v=0
402720 On ch=1 n=a4 v=0
402720 On ch=1 n=d#4 v=0
402720 On ch=1 n=d#4 v=60
402720 On ch=1 n=a4 v=60
402720 On ch=1 n=c5 v=60
403200 On ch=1 n=c5 v=0
403200 On ch=1 n=a4 v=0
403200 On ch=1 n=d#4 v=0
403200 On ch=1 n=f5 v=60
403200 On ch=1 n=c#5 v=60
403200 On ch=1 n=a#4 v=60
403680 On ch=1 n=a#4 v=0
403680 On ch=1 n=c#5 v=0
403680 On ch=1 n=f5 v=0
403680 On ch=1 n=d#4 v=60
403680 On ch=1 n=c#5 v=60
403680 On ch=1 n=a#4 v=60
404160 On ch=1 n=a#4 v=0
404160 On ch=1 n=c#5 v=0
404160 On ch=1 n=d#4 v=0
404160 On ch=1 n=d#4 v=60
404160 On ch=1 n=a#4 v=60
404160 On ch=1 n=c#5 v=60
404640 On ch=1 n=c#5 v=0
404640 On ch=1 n=a#4 v=0
404640 On ch=1 n=d#4 v=0
404640 On ch=1 n=e5 v=60
404640 On ch=1 n=c#5 v=60
404640 On ch=1 n=g#4 v=60
405120 On ch=1 n=g#4 v=0
405120 On ch=1 n=c#5 v=0
405120 On ch=1 n=e5 v=0
405120 On ch=1 n=d#4 v=60
405120 On ch=1 n=g#4 v=60
405120 On ch=1 n=c#5 v=60
405600 On ch=1 n=c#5 v=0
405600 On ch=1 n=g#4 v=0
405600 On ch=1 n=d#4 v=0
405600 On ch=1 n=d#4 v=60
405600 On ch=1 n=g#4 v=60
405600 On ch=1 n=c#5 v=60
406080 On ch=1 n=c#5 v=0
406080 On ch=1 n=g#4 v=0
406080 On ch=1 n=d#4 v=0
406080 On ch=1 n=d#5 v=60
406080 On ch=1 n=c#5 v=60
406080 On ch=1 n=g4 v=60
406560 On ch=1 n=g4 v=0
406560 On ch=1 n=c#5 v=0
406560 On ch=1 n=d#5 v=0
406560 On ch=1 n=d#4 v=60
406560 On ch=1 n=c#5 v=60
407040 On ch=1 n=c#5 v=0
407040 On ch=1 n=d#4 v=0
407040 On ch=1 n=d#4 v=60
407040 On ch=1 n=c#5 v=60
407520 On ch=1 n=c#5 v=0
407520 On ch=1 n=d#4 v=0
407520 On ch=1 n=g5 v=60
407520 On ch=1 n=c#5 v=60
407520 On ch=1 n=a#4 v=60
408000 On ch=1 n=a#4 v=0
408000 On ch=1 n=c#5 v=0
408000 On ch=1 n=g5 v=0
408000 On ch=1 n=c#4 v=60
408000 On ch=1 n=c#5 v=60
408480 On ch=1 n=c#5 v=0
408480 On ch=1 n=c#4 v=0
408480 On ch=1 n=c#4 v=60
408480 On ch=1 n=c#5 v=60
408960 On ch=1 n=c#5 v=0
408960 On ch=1 n=c#4 v=0
408960 On ch=1 n=g#4 v=70
409440 On ch=1 n=g#4 v=0
410400 On ch=1 n=d#4 v=70
410880 On ch=1 n=d#4 v=0
411840 On ch=1 n=g#4 v=70
412320 On ch=1 n=g#4 v=0
413280 On ch=1 n=a4 v=70
413760 On ch=1 n=a4 v=0
414720 On ch=1 n=a#4 v=70
415200 On ch=1 n=a#4 v=0
419040 On ch=1 n=d#4 v=70
419520 On ch=1 n=d#4 v=0
420480 On ch=1 n=g#3 v=60
421920 On ch=1 n=g#3 v=0
421920 On ch=1 n=a3 v=60
422400 On ch=1 n=a3 v=0
422400 On ch=1 n=c5 v=60
422400 On ch=1 n=f4 v=60
422880 On ch=1 n=f4 v=0
422880 On ch=1 n=c5 v=0
422880 On ch=1 n=a3 v=60
423360 On ch=1 n=a3 v=0
423360 On ch=1 n=a#3 v=70
423840 On ch=1 n=a#3 v=0
423840 On ch=1 n=c#5 v=60
423840 On ch=1 n=f4 v=60
424320 On ch=1 n=f4 v=0
424320 On ch=1 n=c#5 v=0
424320 On ch=1 n=c#5 v=60
424320 On ch=1 n=f4 v=60
424800 On ch=1 n=f4 v=0
424800 On ch=1 n=c#5 v=0
424800 On ch=1 n=b3 v=60
425280 On ch=1 n=b3 v=0
425280 On ch=1 n=d5 v=60
425280 On ch=1 n=g4 v=60
425760 On ch=1 n=g4 v=0
425760 On ch=1 n=d5 v=0
425760 On ch=1 n=b3 v=60
426240 On ch=1 n=b3 v=0
426240 On ch=1 n=c4 v=70
426720 On ch=1 n=c4 v=0
426720 On ch=1 n=d#5 v=60
426720 On ch=1 n=g4 v=60
427200 On ch=1 n=g4 v=0
427200 On ch=1 n=d#5 v=0
427200 On ch=1 n=d#5 v=60
427200 On ch=1 n=g4 v=60
427680 On ch=1 n=g4 v=0
427680 On ch=1 n=d#5 v=0
427680 On ch=1 n=c4 v=60
428160 On ch=1 n=c4 v=0
428160 On ch=1 n=f#5 v=60
428160 On ch=1 n=g#4 v=60
428640 On ch=1 n=g#4 v=0
428640 On ch=1 n=f#5 v=0
428640 On ch=1 n=c4 v=60
429120 On ch=1 n=c4 v=0
429120 On ch=1 n=c#4 v=60
429600 On ch=1 n=c#4 v=0
429600 On ch=1 n=f5 v=60
429600 On ch=1 n=g#4 v=60
430080 On ch=1 n=g#4 v=0
430080 On ch=1 n=f5 v=0
430080 On ch=1 n=c#4 v=60
430560 On ch=1 n=c#4 v=0
430560 On ch=1 n=d4 v=60
431040 On ch=1 n=d4 v=0
431040 On ch=1 n=f5 v=60
431040 On ch=1 n=g#4 v=60
431040 On ch=1 n=b4 v=60
431520 On ch=1 n=b4 v=0
431520 On ch=1 n=g#4 v=0
431520 On ch=1 n=f5 v=0
431520 On ch=1 n=f4 v=60
432000 On ch=1 n=f4 v=0
432000 On ch=1 n=d#4 v=70
432480 On ch=1 n=g5 v=60
432480 On ch=1 n=c#5 v=60
432480 On ch=1 n=a#4 v=60
432960 On ch=1 n=a#4 v=0
432960 On ch=1 n=c#5 v=0
432960 On ch=1 n=g5 v=0
432960 On ch=1 n=a#4 v=60
432960 On ch=1 n=c#5 v=60
432960 On ch=1 n=g5 v=60
433440 On ch=1 n=g5 v=0
433440 On ch=1 n=c#5 v=0
433440 On ch=1 n=a#4 v=0
433440 On ch=1 n=d#4 v=0
433440 On ch=1 n=d#4 v=70
433920 On ch=1 n=f5 v=60
433920 On ch=1 n=c5 v=60
433920 On ch=1 n=g#4 v=60
434400 On ch=1 n=g#4 v=0
434400 On ch=1 n=c5 v=0
434400 On ch=1 n=f5 v=0
434400 On ch=1 n=g#4 v=60
434400 On ch=1 n=c5 v=60
434400 On ch=1 n=f5 v=60
434880 On ch=1 n=f5 v=0
434880 On ch=1 n=c5 v=0
434880 On ch=1 n=g#4 v=0
434880 On ch=1 n=d#4 v=0
434880 On ch=1 n=d#4 v=70
435360 On ch=1 n=d#5 v=60
435360 On ch=1 n=g4 v=60
435840 On ch=1 n=g4 v=0
435840 On ch=1 n=d#5 v=0
435840 On ch=1 n=d#5 v=60
435840 On ch=1 n=g4 v=60
436320 On ch=1 n=g4 v=0
436320 On ch=1 n=d#5 v=0
436320 On ch=1 n=d#4 v=0
436320 On ch=1 n=d#4 v=70
436800 On ch=1 n=c#5 v=60
436800 On ch=1 n=f4 v=60
437280 On ch=1 n=f4 v=0
437280 On ch=1 n=c#5 v=0
437280 On ch=1 n=c#5 v=60
437280 On ch=1 n=f4 v=60
437760 On ch=1 n=f4 v=0
437760 On ch=1 n=c#5 v=0
437760 On ch=1 n=d#4 v=0
437760 On ch=1 n=d#4 v=100
437760 On ch=1 n=f4 v=100
437760 On ch=1 n=g#4 v=100
437760 On ch=1 n=b4 v=100
437760 On ch=1 n=d5 v=100
439200 On ch=1 n=d5 v=0
439200 On ch=1 n=b4 v=0
439200 On ch=1 n=g#4 v=0
439200 On ch=1 n=f4 v=0
439200 On ch=1 n=d#4 v=0
439200 On ch=1 n=f5 v=100
439200 On ch=1 n=g#4 v=100
440640 On ch=1 n=g#4 v=0
440640 On ch=1 n=f5 v=0
443520 On ch=1 n=d#3 v=110
444000 On ch=1 n=d#3 v=0
444000 On ch=1 n=c#5 v=97
444000 On ch=1 n=g4 v=97
444000 On ch=1 n=d#4 v=97
444480 On ch=1 n=d#4 v=0
444480 On ch=1 n=g4 v=0
444480 On ch=1 n=c#5 v=0
444480 On ch=1 n=d#4 v=93
444480 On ch=1 n=g4 v=93
444480 On ch=1 n=c#5 v=93
444960 On ch=1 n=c#5 v=0
444960 On ch=1 n=g4 v=0
444960 On ch=1 n=d#4 v=0
444960 On ch=1 n=g#3 v=100
445440 On ch=1 n=g#3 v=0
445440 On ch=1 n=c5 v=86
445440 On ch=1 n=g#4 v=86
445440 On ch=1 n=d#4 v=86
445920 On ch=1 n=d#4 v=0
445920 On ch=1 n=g#4 v=0
445920 On ch=1 n=c5 v=0
445920 On ch=1 n=d#4 v=83
445920 On ch=1 n=g#4 v=83
445920 On ch=1 n=c5 v=83
446400 On ch=1 n=c5 v=0
446400 On ch=1 n=g#4 v=0
446400 On ch=1 n=d#4 v=0
446400 On ch=1 n=g3 v=90
446880 On ch=1 n=g3 v=0
446880 On ch=1 n=c#5 v=80
446880 On ch=1 n=a#4 v=80
446880 On ch=1 n=d#4 v=80
447360 On ch=1 n=d#4 v=0
447360 On ch=1 n=a#4 v=0
447360 On ch=1 n=c#5 v=0
447360 On ch=1 n=d#4 v=80
447360 On ch=1 n=a#4 v=80
447360 On ch=1 n=c#5 v=80
447840 On ch=1 n=c#5 v=0
447840 On ch=1 n=a#4 v=0
447840 On ch=1 n=d#4 v=0
447840 On ch=1 n=g#3 v=90
448320 On ch=1 n=g#3 v=0
448320 On ch=1 n=c5 v=80
448320 On ch=1 n=g#4 v=80
448320 On ch=1 n=d#4 v=80
448800 On ch=1 n=d#4 v=0
448800 On ch=1 n=g#4 v=0
448800 On ch=1 n=c5 v=0
448800 On ch=1 n=d#4 v=80
448800 On ch=1 n=g#4 v=80
448800 On ch=1 n=c5 v=80
449280 On ch=1 n=c5 v=0
449280 On ch=1 n=g#4 v=0
449280 On ch=1 n=d#4 v=0
449280 On ch=1 n=d#3 v=90
449760 On ch=1 n=d#3 v=0
449760 On ch=1 n=d#5 v=80
449760 On ch=1 n=g4 v=80
449760 On ch=1 n=d#4 v=80
450240 On ch=1 n=d#4 v=0
450240 On ch=1 n=g4 v=0
450240 On ch=1 n=d#5 v=0
450240 On ch=1 n=d#4 v=80
450240 On ch=1 n=g4 v=80
450240 On ch=1 n=d#5 v=80
450720 On ch=1 n=d#5 v=0
450720 On ch=1 n=g4 v=0
450720 On ch=1 n=d#4 v=0
450720 On ch=1 n=g#3 v=90
451200 On ch=1 n=g#3 v=0
451200 On ch=1 n=d#5 v=80
451200 On ch=1 n=g#4 v=80
451200 On ch=1 n=d#4 v=80
451680 On ch=1 n=d#4 v=0
451680 On ch=1 n=g#4 v=0
451680 On ch=1 n=d#5 v=0
451680 On ch=1 n=d#4 v=80
451680 On ch=1 n=g#4 v=80
451680 On ch=1 n=d#5 v=80
452160 On ch=1 n=d#5 v=0
452160 On ch=1 n=g#4 v=0
452160 On ch=1 n=d#4 v=0
452160 On ch=1 n=d#3 v=90
452640 On ch=1 n=d#3 v=0
452640 On ch=1 n=c#5 v=80
452640 On ch=1 n=g4 v=80
452640 On ch=1 n=d#4 v=80
453120 On ch=1 n=d#4 v=0
453120 On ch=1 n=g4 v=0
453120 On ch=1 n=c#5 v=0
453120 On ch=1 n=d#4 v=80
453120 On ch=1 n=g4 v=80
453120 On ch=1 n=c#5 v=80
453600 On ch=1 n=c#5 v=0
453600 On ch=1 n=g4 v=0
453600 On ch=1 n=d#4 v=0
453600 On ch=1 n=g#3 v=90
454080 On ch=1 n=g#3 v=0
454080 On ch=1 n=c5 v=80
454080 On ch=1 n=d#4 v=80
454560 On ch=1 n=d#4 v=0
454560 On ch=1 n=c5 v=0
454560 On ch=1 n=c5 v=80
454560 On ch=1 n=d#4 v=80
455040 On ch=1 n=d#4 v=0
455040 On ch=1 n=c5 v=0
455040 On ch=1 n=d#3 v=90
455520 On ch=1 n=d#3 v=0
455520 On ch=1 n=c#5 v=80
455520 On ch=1 n=g4 v=80
456000 On ch=1 n=g4 v=0
456000 On ch=1 n=c#5 v=0
456000 On ch=1 n=c#5 v=80
456000 On ch=1 n=g4 v=80
456480 On ch=1 n=g4 v=0
456480 On ch=1 n=c#5 v=0
456480 On ch=1 n=g#3 v=90
456960 On ch=1 n=g#3 v=0
456960 On ch=1 n=c5 v=80
456960 On ch=1 n=g#4 v=80
457440 On ch=1 n=g#4 v=0
457440 On ch=1 n=c5 v=0
457440 On ch=1 n=g#4 v=80
457440 On ch=1 n=c5 v=80
457920 On ch=1 n=c5 v=0
457920 On ch=1 n=g#4 v=0
457920 On ch=1 n=g3 v=90
458400 On ch=1 n=g3 v=0
458400 On ch=1 n=c#5 v=80
458400 On ch=1 n=a#4 v=80
458880 On ch=1 n=a#4 v=0
458880 On ch=1 n=c#5 v=0
458880 On ch=1 n=c#5 v=80
458880 On ch=1 n=d#4 v=80
459360 On ch=1 n=d#4 v=0
459360 On ch=1 n=c#5 v=0
459360 On ch=1 n=g#3 v=90
459840 On ch=1 n=g#3 v=0
459840 On ch=1 n=d#5 v=80
459840 On ch=1 n=g#4 v=80
459840 On ch=1 n=d#4 v=80
460320 On ch=1 n=d#4 v=0
460320 On ch=1 n=g#4 v=0
460320 On ch=1 n=d#5 v=0
460320 On ch=1 n=d#5 v=80
460320 On ch=1 n=g#4 v=80
460320 On ch=1 n=d#4 v=80
460800 On ch=1 n=d#4 v=0
460800 On ch=1 n=g#4 v=0
460800 On ch=1 n=d#5 v=0
460800 On ch=1 n=d#3 v=90
461280 On ch=1 n=d#3 v=0
461280 On ch=1 n=c#5 v=79
461280 On ch=1 n=g4 v=79
461280 On ch=1 n=d#4 v=79
461760 On ch=1 n=d#4 v=0
461760 On ch=1 n=g4 v=0
461760 On ch=1 n=c#5 v=0
461760 On ch=1 n=d#4 v=77
461760 On ch=1 n=g4 v=77
461760 On ch=1 n=c#5 v=77
462240 On ch=1 n=c#5 v=0
462240 On ch=1 n=g4 v=0
462240 On ch=1 n=d#4 v=0
462240 On ch=1 n=g#3 v=85
462720 On ch=1 n=g#3 v=0
462720 On ch=1 n=c5 v=73
462720 On ch=1 n=d#4 v=73
463200 On ch=1 n=d#4 v=0
463200 On ch=1 n=c5 v=0
463200 On ch=1 n=c5 v=72
463200 On ch=1 n=d#4 v=72
463680 On ch=1 n=d#4 v=0
463680 On ch=1 n=c5 v=0
463680 On ch=1 n=d#3 v=80
464160 On ch=1 n=d#3 v=0
464160 On ch=1 n=c#5 v=68
464160 On ch=1 n=g4 v=68
464160 On ch=1 n=d#4 v=68
464640 On ch=1 n=d#4 v=0
464640 On ch=1 n=g4 v=0
464640 On ch=1 n=c#5 v=0
464640 On ch=1 n=d#4 v=66
464640 On ch=1 n=g4 v=66
464640 On ch=1 n=c#5 v=66
465120 On ch=1 n=c#5 v=0
465120 On ch=1 n=g4 v=0
465120 On ch=1 n=d#4 v=0
465120 On ch=1 n=g#3 v=75
465600 On ch=1 n=g#3 v=0
465600 On ch=1 n=c5 v=63
465600 On ch=1 n=d#4 v=63
466080 On ch=1 n=d#4 v=0
466080 On ch=1 n=c5 v=0
466080 On ch=1 n=c5 v=61
466080 On ch=1 n=d#4 v=61
466560 On ch=1 n=d#4 v=0
466560 On ch=1 n=c5 v=0
466560 On ch=1 n=g#3 v=70
466560 On ch=1 n=g#2 v=70
467040 On ch=1 n=g#3 v=0
467040 On ch=1 n=c5 v=60
467040 On ch=1 n=g#4 v=60
467040 On ch=1 n=d#4 v=60
467520 On ch=1 n=d#4 v=0
467520 On ch=1 n=g#4 v=0
467520 On ch=1 n=c5 v=0
467520 On ch=1 n=g#4 v=60
467520 On ch=1 n=c5 v=60
467520 On ch=1 n=d#4 v=60
468000 On ch=1 n=d#4 v=0
468000 On ch=1 n=c5 v=0
468000 On ch=1 n=g#4 v=0
468000 On ch=1 n=c5 v=60
468000 On ch=1 n=g#4 v=60
468000 On ch=1 n=d#4 v=60
468480 On ch=1 n=d#4 v=0
468480 On ch=1 n=g#4 v=0
468480 On ch=1 n=c5 v=0
468480 On ch=1 n=g#4 v=60
468480 On ch=1 n=c5 v=60
468480 On ch=1 n=d#4 v=60
468960 On ch=1 n=d#4 v=0
468960 On ch=1 n=c5 v=0
468960 On ch=1 n=g#4 v=0
468960 On ch=1 n=c5 v=60
468960 On ch=1 n=g#4 v=60
468960 On ch=1 n=d#4 v=60
469440 On ch=1 n=d#4 v=0
469440 On ch=1 n=g#4 v=0
469440 On ch=1 n=c5 v=0
469440 On ch=1 n=g#2 v=0
469440 On ch=1 n=d#4 v=60
469440 On ch=1 n=g#4 v=60
469440 On ch=1 n=c5 v=60
469920 On ch=1 n=c5 v=0
469920 On ch=1 n=g#4 v=0
469920 On ch=1 n=d#4 v=0
469920 On ch=1 n=d#4 v=60
469920 On ch=1 n=g#4 v=60
469920 On ch=1 n=c5 v=60
470400 On ch=1 n=c5 v=0
470400 On ch=1 n=g#4 v=0
470400 On ch=1 n=d#4 v=0
470400 On ch=1 n=d#4 v=60
470400 On ch=1 n=g#4 v=60
470400 On ch=1 n=c5 v=60
470880 On ch=1 n=c5 v=0
470880 On ch=1 n=g#4 v=0
470880 On ch=1 n=d#4 v=0
470880 On ch=1 n=d#4 v=60
470880 On ch=1 n=g#4 v=60
470880 On ch=1 n=c5 v=60
471360 On ch=1 n=c5 v=0
471360 On ch=1 n=g#4 v=0
471360 On ch=1 n=d#4 v=0
471360 On ch=1 n=d#4 v=60
471360 On ch=1 n=g#4 v=60
471360 On ch=1 n=c5 v=60
471840 On ch=1 n=c5 v=0
471840 On ch=1 n=g#4 v=0
471840 On ch=1 n=d#4 v=0
471840 On ch=1 n=d#4 v=60
471840 On ch=1 n=g#4 v=60
471840 On ch=1 n=c5 v=60
472320 On ch=1 n=c5 v=0
472320 On ch=1 n=g#4 v=0
472320 On ch=1 n=d#4 v=0
472320 On ch=1 n=g#3 v=70
472800 On ch=1 n=g#3 v=0
472800 On ch=1 n=c5 v=60
472800 On ch=1 n=g#4 v=60
472800 On ch=1 n=d#4 v=60
473280 On ch=1 n=d#4 v=0
473280 On ch=1 n=g#4 v=0
473280 On ch=1 n=c5 v=0
473280 On ch=1 n=e4 v=60
473280 On ch=1 n=g#4 v=60
473280 On ch=1 n=c5 v=60
473760 On ch=1 n=c5 v=0
473760 On ch=1 n=g#4 v=0
473760 On ch=1 n=e4 v=0
473760 On ch=1 n=g#3 v=70
474240 On ch=1 n=g#3 v=0
474240 On ch=1 n=c5 v=60
474240 On ch=1 n=g#4 v=60
474240 On ch=1 n=d#4 v=60
474720 On ch=1 n=d#4 v=0
474720 On ch=1 n=g#4 v=0
474720 On ch=1 n=c5 v=0
474720 On ch=1 n=g#4 v=60
474720 On ch=1 n=c5 v=60
474720 On ch=1 n=d#4 v=60
475200 On ch=1 n=d#4 v=0
475200 On ch=1 n=c5 v=0
475200 On ch=1 n=g#4 v=0
475200 On ch=1 n=g#3 v=70
475680 On ch=1 n=g#3 v=0
475680 On ch=1 n=c5 v=60
475680 On ch=1 n=g#4 v=60
475680 On ch=1 n=d#4 v=60
476160 On ch=1 n=d#4 v=0
476160 On ch=1 n=g#4 v=0
476160 On ch=1 n=c5 v=0
476160 On ch=1 n=e4 v=60
476160 On ch=1 n=g#4 v=60
476160 On ch=1 n=c5 v=60
476640 On ch=1 n=c5 v=0
476640 On ch=1 n=g#4 v=0
476640 On ch=1 n=e4 v=0
476640 On ch=1 n=g#3 v=70
477120 On ch=1 n=g#3 v=0
477120 On ch=1 n=c5 v=60
477120 On ch=1 n=g#4 v=60
477120 On ch=1 n=d#4 v=60
477600 On ch=1 n=d#4 v=0
477600 On ch=1 n=g#4 v=0
477600 On ch=1 n=c5 v=0
477600 On ch=1 n=g#4 v=60
477600 On ch=1 n=c5 v=60
477600 On ch=1 n=d#4 v=60
478080 On ch=1 n=d#4 v=0
478080 On ch=1 n=c5 v=0
478080 On ch=1 n=g#4 v=0
478080 On ch=1 n=g#3 v=60
478560 On ch=1 n=g#3 v=0
483840 On ch=1 n=g#2 v=110
483840 On ch=1 n=g#3 v=110
485280 On ch=1 n=g#3 v=0
485280 On ch=1 n=g#2 v=0
485280 Meta TrkEnd
TrkEnd
MTrk
0 SeqSpec 43 00 01 00
0 Meta TrkName "Pedal"
0 Meta 0x21 00
0 PrCh ch=1 p=0
0 Par ch=1 c=64 v=127
2400 Par ch=1 c=64 v=0
2880 Par ch=1 c=64 v=127
3600 Par ch=1 c=64 v=0
5760 Par ch=1 c=64 v=127
8160 Par ch=1 c=64 v=0
8640 Par ch=1 c=64 v=127
9360 Par ch=1 c=64 v=0
11520 Par ch=1 c=64 v=127
21840 Par ch=1 c=64 v=0
23040 Par ch=1 c=64 v=127
24000 Par ch=1 c=64 v=0
24480 Par ch=1 c=64 v=127
25440 Par ch=1 c=64 v=0
25920 Par ch=1 c=64 v=127
26880 Par ch=1 c=64 v=0
27360 Par ch=1 c=64 v=127
28320 Par ch=1 c=64 v=0
28800 Par ch=1 c=64 v=127
29760 Par ch=1 c=64 v=0
30240 Par ch=1 c=64 v=127
31200 Par ch=1 c=64 v=0
31680 Par ch=1 c=64 v=127
32640 Par ch=1 c=64 v=0
46080 Par ch=1 c=64 v=127
47040 Par ch=1 c=64 v=0
47520 Par ch=1 c=64 v=127
48480 Par ch=1 c=64 v=0
48960 Par ch=1 c=64 v=127
49920 Par ch=1 c=64 v=0
50400 Par ch=1 c=64 v=127
51360 Par ch=1 c=64 v=0
51840 Par ch=1 c=64 v=127
52800 Par ch=1 c=64 v=0
53280 Par ch=1 c=64 v=127
54240 Par ch=1 c=64 v=0
54720 Par ch=1 c=64 v=127
55680 Par ch=1 c=64 v=0
56160 Par ch=1 c=64 v=127
56640 Par ch=1 c=64 v=0
57600 Par ch=1 c=64 v=127
58560 Par ch=1 c=64 v=0
59040 Par ch=1 c=64 v=127
60000 Par ch=1 c=64 v=0
60480 Par ch=1 c=64 v=127
61440 Par ch=1 c=64 v=0
61920 Par ch=1 c=64 v=127
62880 Par ch=1 c=64 v=0
63360 Par ch=1 c=64 v=127
64320 Par ch=1 c=64 v=0
64800 Par ch=1 c=64 v=127
65760 Par ch=1 c=64 v=0
66240 Par ch=1 c=64 v=127
67200 Par ch=1 c=64 v=0
67680 Par ch=1 c=64 v=127
68160 Par ch=1 c=64 v=0
69120 Par ch=1 c=64 v=127
70080 Par ch=1 c=64 v=0
70560 Par ch=1 c=64 v=127
71520 Par ch=1 c=64 v=0
72000 Par ch=1 c=64 v=127
72960 Par ch=1 c=64 v=0
73440 Par ch=1 c=64 v=127
74400 Par ch=1 c=64 v=0
74880 Par ch=1 c=64 v=127
75840 Par ch=1 c=64 v=0
76320 Par ch=1 c=64 v=127
77280 Par ch=1 c=64 v=0
77760 Par ch=1 c=64 v=127
78720 Par ch=1 c=64 v=0
92160 Par ch=1 c=64 v=127
93120 Par ch=1 c=64 v=0
93600 Par ch=1 c=64 v=127
94560 Par ch=1 c=64 v=0
95040 Par ch=1 c=64 v=127
96000 Par ch=1 c=64 v=0
96480 Par ch=1 c=64 v=127
97440 Par ch=1 c=64 v=0
97920 Par ch=1 c=64 v=127
98880 Par ch=1 c=64 v=0
99360 Par ch=1 c=64 v=127
100320 Par ch=1 c=64 v=0
100800 Par ch=1 c=64 v=127
101760 Par ch=1 c=64 v=0
102240 Par ch=1 c=64 v=127
102720 Par ch=1 c=64 v=0
103680 Par ch=1 c=64 v=127
104640 Par ch=1 c=64 v=0
105120 Par ch=1 c=64 v=127
106080 Par ch=1 c=64 v=0
106560 Par ch=1 c=64 v=127
107520 Par ch=1 c=64 v=0
108000 Par ch=1 c=64 v=127
108960 Par ch=1 c=64 v=0
109440 Par ch=1 c=64 v=127
110400 Par ch=1 c=64 v=0
110880 Par ch=1 c=64 v=127
111840 Par ch=1 c=64 v=0
112320 Par ch=1 c=64 v=127
113280 Par ch=1 c=64 v=0
113760 Par ch=1 c=64 v=127
114240 Par ch=1 c=64 v=0
115200 Par ch=1 c=64 v=127
116160 Par ch=1 c=64 v=0
116640 Par ch=1 c=64 v=127
117600 Par ch=1 c=64 v=0
118080 Par ch=1 c=64 v=127
119040 Par ch=1 c=64 v=0
119520 Par ch=1 c=64 v=127
120000 Par ch=1 c=64 v=0
120960 Par ch=1 c=64 v=127
121920 Par ch=1 c=64 v=0
122400 Par ch=1 c=64 v=127
123360 Par ch=1 c=64 v=0
123840 Par ch=1 c=64 v=127
124800 Par ch=1 c=64 v=0
125280 Par ch=1 c=64 v=127
126240 Par ch=1 c=64 v=0
126720 Par ch=1 c=64 v=127
127680 Par ch=1 c=64 v=0
128160 Par ch=1 c=64 v=127
129120 Par ch=1 c=64 v=0
129600 Par ch=1 c=64 v=127
130560 Par ch=1 c=64 v=0
131040 Par ch=1 c=64 v=127
132000 Par ch=1 c=64 v=0
132480 Par ch=1 c=64 v=127
134880 Par ch=1 c=64 v=0
135360 Par ch=1 c=64 v=127
136320 Par ch=1 c=64 v=0
136800 Par ch=1 c=64 v=127
137280 Par ch=1 c=64 v=0
138240 Par ch=1 c=64 v=127
139200 Par ch=1 c=64 v=0
139680 Par ch=1 c=64 v=127
140640 Par ch=1 c=64 v=0
141120 Par ch=1 c=64 v=127
142080 Par ch=1 c=64 v=0
142560 Par ch=1 c=64 v=127
143520 Par ch=1 c=64 v=0
144000 Par ch=1 c=64 v=127
144960 Par ch=1 c=64 v=0
145440 Par ch=1 c=64 v=127
146400 Par ch=1 c=64 v=0
146880 Par ch=1 c=64 v=127
147840 Par ch=1 c=64 v=0
148320 Par ch=1 c=64 v=127
149280 Par ch=1 c=64 v=0
149760 Par ch=1 c=64 v=127
150720 Par ch=1 c=64 v=0
151200 Par ch=1 c=64 v=127
152160 Par ch=1 c=64 v=0
152640 Par ch=1 c=64 v=127
153600 Par ch=1 c=64 v=0
154080 Par ch=1 c=64 v=127
155040 Par ch=1 c=64 v=0
155520 Par ch=1 c=64 v=127
157920 Par ch=1 c=64 v=0
158400 Par ch=1 c=64 v=127
159360 Par ch=1 c=64 v=0
159840 Par ch=1 c=64 v=127
160800 Par ch=1 c=64 v=0
161280 Par ch=1 c=64 v=127
163920 Par ch=1 c=64 v=0
164160 Par ch=1 c=64 v=127
165600 Par ch=1 c=64 v=0
167040 Par ch=1 c=64 v=127
169440 Par ch=1 c=64 v=0
169920 Par ch=1 c=64 v=127
170880 Par ch=1 c=64 v=0
171360 Par ch=1 c=64 v=127
172320 Par ch=1 c=64 v=0
172800 Par ch=1 c=64 v=127
175440 Par ch=1 c=64 v=0
177120 Par ch=1 c=64 v=127
178080 Par ch=1 c=64 v=0
178560 Par ch=1 c=64 v=127
179520 Par ch=1 c=64 v=0
180000 Par ch=1 c=64 v=127
180960 Par ch=1 c=64 v=0
181440 Par ch=1 c=64 v=127
182400 Par ch=1 c=64 v=0
182880 Par ch=1 c=64 v=127
183840 Par ch=1 c=64 v=0
184320 Par ch=1 c=64 v=127
186960 Par ch=1 c=64 v=0
187200 Par ch=1 c=64 v=127
188640 Par ch=1 c=64 v=0
190080 Par ch=1 c=64 v=127
192480 Par ch=1 c=64 v=0
192960 Par ch=1 c=64 v=127
193920 Par ch=1 c=64 v=0
194400 Par ch=1 c=64 v=127
195360 Par ch=1 c=64 v=0
195840 Par ch=1 c=64 v=127
198480 Par ch=1 c=64 v=0
198720 Par ch=1 c=64 v=127
199680 Par ch=1 c=64 v=0
200160 Par ch=1 c=64 v=127
201120 Par ch=1 c=64 v=0
201600 Par ch=1 c=64 v=127
202560 Par ch=1 c=64 v=0
203040 Par ch=1 c=64 v=127
204000 Par ch=1 c=64 v=0
204480 Par ch=1 c=64 v=127
205440 Par ch=1 c=64 v=0
205920 Par ch=1 c=64 v=127
206880 Par ch=1 c=64 v=0
207360 Par ch=1 c=64 v=127
208320 Par ch=1 c=64 v=0
208800 Par ch=1 c=64 v=127
209760 Par ch=1 c=64 v=0
210240 Par ch=1 c=64 v=127
211200 Par ch=1 c=64 v=0
211680 Par ch=1 c=64 v=127
212640 Par ch=1 c=64 v=0
213120 Par ch=1 c=64 v=127
214080 Par ch=1 c=64 v=0
214560 Par ch=1 c=64 v=127
215520 Par ch=1 c=64 v=0
216000 Par ch=1 c=64 v=127
216960 Par ch=1 c=64 v=0
217440 Par ch=1 c=64 v=127
218400 Par ch=1 c=64 v=0
218880 Par ch=1 c=64 v=127
219840 Par ch=1 c=64 v=0
220320 Par ch=1 c=64 v=127
221280 Par ch=1 c=64 v=0
221760 Par ch=1 c=64 v=127
222720 Par ch=1 c=64 v=0
223200 Par ch=1 c=64 v=127
224160 Par ch=1 c=64 v=0
224640 Par ch=1 c=64 v=127
225600 Par ch=1 c=64 v=0
226080 Par ch=1 c=64 v=127
227040 Par ch=1 c=64 v=0
230400 Par ch=1 c=64 v=127
233040 Par ch=1 c=64 v=0
233280 Par ch=1 c=64 v=127
234720 Par ch=1 c=64 v=0
236160 Par ch=1 c=64 v=127
238560 Par ch=1 c=64 v=0
239040 Par ch=1 c=64 v=127
240000 Par ch=1 c=64 v=0
240480 Par ch=1 c=64 v=127
241440 Par ch=1 c=64 v=0
241920 Par ch=1 c=64 v=127
244560 Par ch=1 c=64 v=0
244800 Par ch=1 c=64 v=127
245760 Par ch=1 c=64 v=0
246240 Par ch=1 c=64 v=127
247200 Par ch=1 c=64 v=0
247680 Par ch=1 c=64 v=127
248640 Par ch=1 c=64 v=0
249120 Par ch=1 c=64 v=127
250080 Par ch=1 c=64 v=0
250560 Par ch=1 c=64 v=127
251520 Par ch=1 c=64 v=0
252000 Par ch=1 c=64 v=127
252960 Par ch=1 c=64 v=0
253440 Par ch=1 c=64 v=127
254400 Par ch=1 c=64 v=0
254880 Par ch=1 c=64 v=127
255840 Par ch=1 c=64 v=0
256320 Par ch=1 c=64 v=127
257280 Par ch=1 c=64 v=0
257760 Par ch=1 c=64 v=127
258240 Par ch=1 c=64 v=0
258720 Par ch=1 c=64 v=127
260160 Par ch=1 c=64 v=0
260640 Par ch=1 c=64 v=127
261600 Par ch=1 c=64 v=0
262080 Par ch=1 c=64 v=127
263040 Par ch=1 c=64 v=0
263520 Par ch=1 c=64 v=127
264480 Par ch=1 c=64 v=0
264960 Par ch=1 c=64 v=127
265920 Par ch=1 c=64 v=0
266400 Par ch=1 c=64 v=127
267360 Par ch=1 c=64 v=0
267840 Par ch=1 c=64 v=127
268800 Par ch=1 c=64 v=0
269280 Par ch=1 c=64 v=127
270240 Par ch=1 c=64 v=0
270720 Par ch=1 c=64 v=127
273120 Par ch=1 c=64 v=0
273600 Par ch=1 c=64 v=127
274560 Par ch=1 c=64 v=0
275040 Par ch=1 c=64 v=127
275520 Par ch=1 c=64 v=0
276480 Par ch=1 c=64 v=127
277440 Par ch=1 c=64 v=0
277920 Par ch=1 c=64 v=127
278880 Par ch=1 c=64 v=0
279360 Par ch=1 c=64 v=127
280320 Par ch=1 c=64 v=0
280800 Par ch=1 c=64 v=127
281760 Par ch=1 c=64 v=0
282240 Par ch=1 c=64 v=127
283200 Par ch=1 c=64 v=0
283680 Par ch=1 c=64 v=127
284640 Par ch=1 c=64 v=0
285120 Par ch=1 c=64 v=127
286080 Par ch=1 c=64 v=0
286560 Par ch=1 c=64 v=127
287520 Par ch=1 c=64 v=0
288000 Par ch=1 c=64 v=127
288960 Par ch=1 c=64 v=0
289440 Par ch=1 c=64 v=127
290400 Par ch=1 c=64 v=0
290880 Par ch=1 c=64 v=127
291840 Par ch=1 c=64 v=0
292320 Par ch=1 c=64 v=127
293280 Par ch=1 c=64 v=0
293760 Par ch=1 c=64 v=127
296160 Par ch=1 c=64 v=0
296640 Par ch=1 c=64 v=127
297600 Par ch=1 c=64 v=0
298080 Par ch=1 c=64 v=127
298560 Par ch=1 c=64 v=0
299520 Par ch=1 c=64 v=127
300480 Par ch=1 c=64 v=0
300960 Par ch=1 c=64 v=127
301920 Par ch=1 c=64 v=0
302400 Par ch=1 c=64 v=127
303360 Par ch=1 c=64 v=0
303840 Par ch=1 c=64 v=127
304800 Par ch=1 c=64 v=0
305280 Par ch=1 c=64 v=127
306240 Par ch=1 c=64 v=0
306720 Par ch=1 c=64 v=127
307680 Par ch=1 c=64 v=0
308160 Par ch=1 c=64 v=127
309120 Par ch=1 c=64 v=0
322560 Par ch=1 c=64 v=127
323520 Par ch=1 c=64 v=0
324000 Par ch=1 c=64 v=127
324960 Par ch=1 c=64 v=0
325440 Par ch=1 c=64 v=127
326400 Par ch=1 c=64 v=0
326880 Par ch=1 c=64 v=127
327840 Par ch=1 c=64 v=0
328320 Par ch=1 c=64 v=127
329280 Par ch=1 c=64 v=0
329760 Par ch=1 c=64 v=127
330720 Par ch=1 c=64 v=0
331200 Par ch=1 c=64 v=127
332160 Par ch=1 c=64 v=0
332640 Par ch=1 c=64 v=127
333600 Par ch=1 c=64 v=0
334080 Par ch=1 c=64 v=127
335040 Par ch=1 c=64 v=0
335520 Par ch=1 c=64 v=127
336480 Par ch=1 c=64 v=0
336960 Par ch=1 c=64 v=127
337920 Par ch=1 c=64 v=0
338400 Par ch=1 c=64 v=127
339360 Par ch=1 c=64 v=0
339840 Par ch=1 c=64 v=127
340800 Par ch=1 c=64 v=0
341280 Par ch=1 c=64 v=127
342240 Par ch=1 c=64 v=0
342720 Par ch=1 c=64 v=127
343680 Par ch=1 c=64 v=0
344160 Par ch=1 c=64 v=127
344640 Par ch=1 c=64 v=0
345600 Par ch=1 c=64 v=127
346560 Par ch=1 c=64 v=0
347040 Par ch=1 c=64 v=127
348000 Par ch=1 c=64 v=0
348480 Par ch=1 c=64 v=127
349440 Par ch=1 c=64 v=0
349920 Par ch=1 c=64 v=127
350880 Par ch=1 c=64 v=0
351360 Par ch=1 c=64 v=127
352320 Par ch=1 c=64 v=0
352800 Par ch=1 c=64 v=127
353760 Par ch=1 c=64 v=0
354240 Par ch=1 c=64 v=127
355200 Par ch=1 c=64 v=0
355680 Par ch=1 c=64 v=127
356640 Par ch=1 c=64 v=0
357120 Par ch=1 c=64 v=127
358080 Par ch=1 c=64 v=0
358560 Par ch=1 c=64 v=127
359520 Par ch=1 c=64 v=0
360000 Par ch=1 c=64 v=127
360960 Par ch=1 c=64 v=0
361440 Par ch=1 c=64 v=127
362400 Par ch=1 c=64 v=0
362880 Par ch=1 c=64 v=127
365280 Par ch=1 c=64 v=0
365760 Par ch=1 c=64 v=127
366720 Par ch=1 c=64 v=0
367200 Par ch=1 c=64 v=127
367680 Par ch=1 c=64 v=0
368640 Par ch=1 c=64 v=127
369600 Par ch=1 c=64 v=0
370080 Par ch=1 c=64 v=127
371040 Par ch=1 c=64 v=0
371520 Par ch=1 c=64 v=127
372480 Par ch=1 c=64 v=0
372960 Par ch=1 c=64 v=127
373920 Par ch=1 c=64 v=0
374400 Par ch=1 c=64 v=127
375360 Par ch=1 c=64 v=0
375840 Par ch=1 c=64 v=127
376800 Par ch=1 c=64 v=0
377280 Par ch=1 c=64 v=127
378240 Par ch=1 c=64 v=0
378720 Par ch=1 c=64 v=127
379680 Par ch=1 c=64 v=0
380160 Par ch=1 c=64 v=127
381120 Par ch=1 c=64 v=0
381600 Par ch=1 c=64 v=127
382560 Par ch=1 c=64 v=0
383040 Par ch=1 c=64 v=127
384000 Par ch=1 c=64 v=0
384480 Par ch=1 c=64 v=127
385440 Par ch=1 c=64 v=0
385920 Par ch=1 c=64 v=127
388320 Par ch=1 c=64 v=0
388800 Par ch=1 c=64 v=127
391200 Par ch=1 c=64 v=0
391680 Par ch=1 c=64 v=127
394080 Par ch=1 c=64 v=0
394560 Par ch=1 c=64 v=127
396960 Par ch=1 c=64 v=0
408960 Par ch=1 c=64 v=127
409920 Par ch=1 c=64 v=0
410400 Par ch=1 c=64 v=127
411360 Par ch=1 c=64 v=0
411840 Par ch=1 c=64 v=127
412800 Par ch=1 c=64 v=0
413280 Par ch=1 c=64 v=127
414240 Par ch=1 c=64 v=0
432000 Par ch=1 c=64 v=127
432480 Par ch=1 c=64 v=0
433440 Par ch=1 c=64 v=127
433920 Par ch=1 c=64 v=0
437760 Par ch=1 c=64 v=127
443040 Par ch=1 c=64 v=0
443520 Par ch=1 c=64 v=127
444480 Par ch=1 c=64 v=0
444960 Par ch=1 c=64 v=127
445920 Par ch=1 c=64 v=0
446400 Par ch=1 c=64 v=127
447360 Par ch=1 c=64 v=0
447840 Par ch=1 c=64 v=127
448800 Par ch=1 c=64 v=0
449280 Par ch=1 c=64 v=127
450240 Par ch=1 c=64 v=0
450720 Par ch=1 c=64 v=127
451680 Par ch=1 c=64 v=0
452160 Par ch=1 c=64 v=127
453120 Par ch=1 c=64 v=0
453600 Par ch=1 c=64 v=127
454560 Par ch=1 c=64 v=0
455040 Par ch=1 c=64 v=127
456000 Par ch=1 c=64 v=0
456480 Par ch=1 c=64 v=127
457440 Par ch=1 c=64 v=0
457920 Par ch=1 c=64 v=127
458400 Par ch=1 c=64 v=0
459360 Par ch=1 c=64 v=127
460320 Par ch=1 c=64 v=0
460800 Par ch=1 c=64 v=127
461760 Par ch=1 c=64 v=0
462240 Par ch=1 c=64 v=127
463200 Par ch=1 c=64 v=0
463680 Par ch=1 c=64 v=127
464640 Par ch=1 c=64 v=0
465120 Par ch=1 c=64 v=127
466080 Par ch=1 c=64 v=0
466560 Par ch=1 c=64 v=127
472320 Par ch=1 c=64 v=0
473760 Par ch=1 c=64 v=127
475200 Par ch=1 c=64 v=0
476640 Par ch=1 c=64 v=127
485280 Par ch=1 c=64 v=0
486720 Par ch=1 c=64 v=127
487680 Par ch=1 c=64 v=0
487680 Meta TrkEnd
TrkEnd
MTrk
0 SeqSpec 43 00 01 00
0 Meta TrkName "F. Chopin Valse No. 02 in Ab Op. 34-1"
0 Meta 0x21 00
0 Meta TrkEnd
TrkEnd
MTrk
0 SeqSpec 43 00 01 00
0 Meta TrkName "Jeruen E. Dery jawjaw@hotmail.com"
0 Meta 0x21 00
0 Meta TrkEnd
TrkEnd
