MFile 1 7 480
MTrk
0 Meta Text "\n"
0 TimeSig 3/4 24 8
0 KeySig -4 major
0 Tempo 283019
397440 Tempo 281690
397920 Tempo 280374
398400 Tempo 279070
398880 Tempo 277778
399360 Tempo 276498
399840 Tempo 275229
400320 Tempo 273973
400800 Tempo 272727
401280 Tempo 271493
401760 Tempo 270270
402240 Tempo 269058
402720 Tempo 267857
403200 Tempo 266667
403680 Tempo 264719
404160 Tempo 264317
404640 Tempo 263158
405120 Tempo 262009
405600 Tempo 260870
406080 Tempo 259740
406560 Tempo 258621
407040 Tempo 257511
407520 Tempo 256410
408000 Tempo 255319
408480 Tempo 254237
408960 Tempo 253165
408960 Meta TrkEnd
TrkEnd
MTrk
0 SeqSpec 43 00 01 00
0 Meta TrkName "Upper Treble"
0 Meta 0x21 00
0 PrCh ch=1 p=0
0 On ch=1 n=d#5 v=60
240 On ch=1 n=d#5 v=0
240 On ch=1 n=f5 v=60
480 On ch=1 n=f5 v=0
480 On ch=1 n=d#5 v=60
720 On ch=1 n=d#5 v=0
720 On ch=1 n=f5 v=60
960 On ch=1 n=f5 v=0
960 On ch=1 n=d#5 v=60
1120 On ch=1 n=d#5 v=0
1120 On ch=1 n=f5 v=60
1280 On ch=1 n=f5 v=0
1280 On ch=1 n=d#5 v=60
1440 On ch=1 n=d#5 v=0
1440 On ch=1 n=f5 v=60
1600 On ch=1 n=f5 v=0
1600 On ch=1 n=d#5 v=60
1760 On ch=1 n=d#5 v=0
1760 On ch=1 n=f5 v=60
1920 On ch=1 n=f5 v=0
1920 On ch=1 n=d#5 v=60
2040 On ch=1 n=d#5 v=0
2040 On ch=1 n=f5 v=60
2160 On ch=1 n=f5 v=0
2160 On ch=1 n=d#5 v=60
2280 On ch=1 n=d#5 v=0
2280 On ch=1 n=f5 v=60
2400 On ch=1 n=f5 v=0
2400 On ch=1 n=d#5 v=60
2520 On ch=1 n=d#5 v=0
2520 On ch=1 n=f5 v=60
2640 On ch=1 n=f5 v=0
2640 On ch=1 n=d#5 v=60
2760 On ch=1 n=d#5 v=0
2760 On ch=1 n=f5 v=60
2880 On ch=1 n=f5 v=0
2880 On ch=1 n=d#5 v=60
3000 On ch=1 n=d#5 v=0
3000 On ch=1 n=f5 v=60
3120 On ch=1 n=f5 v=0
3120 On ch=1 n=d#5 v=60
3240 On ch=1 n=d#5 v=0
3240 On ch=1 n=f5 v=60
3360 On ch=1 n=f5 v=0
3360 On ch=1 n=d#5 v=60
3480 On ch=1 n=d#5 v=0
3480 On ch=1 n=f5 v=60
3600 On ch=1 n=f5 v=0
3600 On ch=1 n=d#5 v=60
3720 On ch=1 n=d#5 v=0
3720 On ch=1 n=f5 v=60
3840 On ch=1 n=f5 v=0
3840 On ch=1 n=d#5 v=60
3960 On ch=1 n=d#5 v=0
3960 On ch=1 n=f5 v=60
4080 On ch=1 n=f5 v=0
4080 On ch=1 n=d#5 v=60
4200 On ch=1 n=d#5 v=0
4200 On ch=1 n=f5 v=60
4320 On ch=1 n=f5 v=0
4320 On ch=1 n=d#5 v=60
4440 On ch=1 n=d#5 v=0
4440 On ch=1 n=f5 v=60
4560 On ch=1 n=f5 v=0
4560 On ch=1 n=d#5 v=60
4680 On ch=1 n=d#5 v=0
4680 On ch=1 n=f5 v=60
4800 On ch=1 n=f5 v=0
4800 On ch=1 n=d#5 v=60
4920 On ch=1 n=d#5 v=0
4920 On ch=1 n=f5 v=60
5040 On ch=1 n=f5 v=0
5040 On ch=1 n=d#5 v=60
5160 On ch=1 n=d#5 v=0
5160 On ch=1 n=f5 v=60
5280 On ch=1 n=f5 v=0
5280 On ch=1 n=d#5 v=60
5400 On ch=1 n=d#5 v=0
5400 On ch=1 n=f5 v=60
5520 On ch=1 n=f5 v=0
5520 On ch=1 n=d#5 v=60
5640 On ch=1 n=d#5 v=0
5640 On ch=1 n=f5 v=60
5760 On ch=1 n=f5 v=0
5760 On ch=1 n=d#5 v=60
5880 On ch=1 n=d#5 v=0
5880 On ch=1 n=f5 v=60
6000 On ch=1 n=f5 v=0
6000 On ch=1 n=d#5 v=60
6120 On ch=1 n=d#5 v=0
6120 On ch=1 n=f5 v=60
6240 On ch=1 n=f5 v=0
6240 On ch=1 n=d#5 v=60
6360 On ch=1 n=d#5 v=0
6360 On ch=1 n=f5 v=60
6480 On ch=1 n=f5 v=0
6480 On ch=1 n=d#5 v=60
6600 On ch=1 n=d#5 v=0
6600 On ch=1 n=f5 v=60
6720 On ch=1 n=f5 v=0
6720 On ch=1 n=d#5 v=60
6840 On ch=1 n=d#5 v=0
6840 On ch=1 n=f5 v=60
6960 On ch=1 n=f5 v=0
6960 On ch=1 n=d#5 v=60
7080 On ch=1 n=d#5 v=0
7080 On ch=1 n=f5 v=60
7200 On ch=1 n=f5 v=0
7200 On ch=1 n=d#5 v=60
7320 On ch=1 n=d#5 v=0
7320 On ch=1 n=f5 v=60
7440 On ch=1 n=f5 v=0
7440 On ch=1 n=d#5 v=60
7560 On ch=1 n=d#5 v=0
7560 On ch=1 n=f5 v=60
7680 On ch=1 n=f5 v=0
7680 On ch=1 n=d#5 v=60
7800 On ch=1 n=d#5 v=0
7800 On ch=1 n=f5 v=60
7920 On ch=1 n=f5 v=0
7920 On ch=1 n=d#5 v=60
8040 On ch=1 n=d#5 v=0
8040 On ch=1 n=f5 v=60
8160 On ch=1 n=f5 v=0
8160 On ch=1 n=d#5 v=60
8280 On ch=1 n=d#5 v=0
8280 On ch=1 n=f5 v=60
8400 On ch=1 n=f5 v=0
8400 On ch=1 n=d#5 v=60
8520 On ch=1 n=d#5 v=0
8520 On ch=1 n=f5 v=60
8640 On ch=1 n=f5 v=0
8640 On ch=1 n=d#5 v=60
8760 On ch=1 n=d#5 v=0
8760 On ch=1 n=f5 v=60
8880 On ch=1 n=f5 v=0
8880 On ch=1 n=d#5 v=60
9000 On ch=1 n=d#5 v=0
9000 On ch=1 n=f5 v=60
9120 On ch=1 n=f5 v=0
9120 On ch=1 n=d#5 v=60
9240 On ch=1 n=d#5 v=0
9240 On ch=1 n=f5 v=60
9360 On ch=1 n=f5 v=0
9360 On ch=1 n=d#5 v=60
9480 On ch=1 n=d#5 v=0
9480 On ch=1 n=f5 v=60
9600 On ch=1 n=f5 v=0
9600 On ch=1 n=d#5 v=60
9720 On ch=1 n=d#5 v=0
9720 On ch=1 n=f5 v=60
9840 On ch=1 n=f5 v=0
9840 On ch=1 n=d#5 v=60
9960 On ch=1 n=d#5 v=0
9960 On ch=1 n=f5 v=60
10080 On ch=1 n=f5 v=0
10080 On ch=1 n=d#5 v=60
10200 On ch=1 n=d#5 v=0
10200 On ch=1 n=f5 v=60
10320 On ch=1 n=f5 v=0
10320 On ch=1 n=d#5 v=60
10440 On ch=1 n=d#5 v=0
10440 On ch=1 n=f5 v=60
10560 On ch=1 n=f5 v=0
10560 On ch=1 n=d#5 v=60
10720 On ch=1 n=d#5 v=0
10720 On ch=1 n=f5 v=60
10880 On ch=1 n=f5 v=0
10880 On ch=1 n=d#5 v=60
11040 On ch=1 n=d#5 v=0
11040 On ch=1 n=d5 v=60
11280 On ch=1 n=d5 v=0
11280 On ch=1 n=d#5 v=60
11520 On ch=1 n=d#5 v=0
11520 On ch=1 n=c6 v=70
11760 On ch=1 n=d5 v=60
12000 On ch=1 n=d5 v=0
12000 On ch=1 n=d#5 v=60
12240 On ch=1 n=d#5 v=0
12240 On ch=1 n=c6 v=0
12240 On ch=1 n=c#6 v=70
12480 On ch=1 n=e5 v=60
12720 On ch=1 n=e5 v=0
12720 On ch=1 n=f5 v=60
12960 On ch=1 n=f5 v=0
12960 On ch=1 n=c#6 v=0
12960 On ch=1 n=c6 v=70
13200 On ch=1 n=d5 v=60
13440 On ch=1 n=d5 v=0
13440 On ch=1 n=d#5 v=60
13680 On ch=1 n=d#5 v=0
13680 On ch=1 n=c6 v=0
13680 On ch=1 n=a#5 v=70
13920 On ch=1 n=c5 v=60
14160 On ch=1 n=c5 v=0
14160 On ch=1 n=c#5 v=60
14400 On ch=1 n=c#5 v=0
14400 On ch=1 n=a#5 v=0
14400 On ch=1 n=a#5 v=70
14640 On ch=1 n=c5 v=60
14880 On ch=1 n=c5 v=0
14880 On ch=1 n=c#5 v=60
15120 On ch=1 n=c#5 v=0
15120 On ch=1 n=a#5 v=0
15120 On ch=1 n=c6 v=70
15360 On ch=1 n=d5 v=60
15600 On ch=1 n=d5 v=0
15600 On ch=1 n=d#5 v=60
15840 On ch=1 n=d#5 v=0
15840 On ch=1 n=c6 v=0
15840 On ch=1 n=a#5 v=70
16080 On ch=1 n=c5 v=60
16320 On ch=1 n=c5 v=0
16320 On ch=1 n=c#5 v=60
16560 On ch=1 n=c#5 v=0
16560 On ch=1 n=a#5 v=0
16560 On ch=1 n=g#5 v=70
16800 On ch=1 n=b4 v=60
17040 On ch=1 n=b4 v=0
17040 On ch=1 n=c5 v=60
17280 On ch=1 n=c5 v=0
17280 On ch=1 n=g#5 v=0
17280 On ch=1 n=g5 v=70
17520 On ch=1 n=a#4 v=60
17760 On ch=1 n=a#4 v=0
17760 On ch=1 n=b4 v=60
18000 On ch=1 n=b4 v=0
18000 On ch=1 n=g5 v=0
18000 On ch=1 n=f5 v=70
18240 On ch=1 n=a#4 v=60
18480 On ch=1 n=a#4 v=0
18480 On ch=1 n=b4 v=60
18720 On ch=1 n=b4 v=0
18720 On ch=1 n=f5 v=0
18720 On ch=1 n=d#5 v=70
18960 On ch=1 n=b4 v=60
19200 On ch=1 n=b4 v=0
19200 On ch=1 n=c5 v=60
19440 On ch=1 n=c5 v=0
19440 On ch=1 n=d#5 v=0
19440 On ch=1 n=g#5 v=70
19680 On ch=1 n=b4 v=60
19920 On ch=1 n=b4 v=0
19920 On ch=1 n=c5 v=60
20160 On ch=1 n=c5 v=0
20160 On ch=1 n=g#5 v=0
20160 On ch=1 n=d#5 v=70
20400 On ch=1 n=c5 v=60
20640 On ch=1 n=c5 v=0
20640 On ch=1 n=c#5 v=60
20880 On ch=1 n=c#5 v=0
20880 On ch=1 n=d#5 v=0
20880 On ch=1 n=a#5 v=70
21120 On ch=1 n=c5 v=60
21360 On ch=1 n=c5 v=0
21360 On ch=1 n=c#5 v=60
21600 On ch=1 n=c#5 v=0
21600 On ch=1 n=a#5 v=0
21600 On ch=1 n=d#5 v=70
21840 On ch=1 n=b4 v=60
22080 On ch=1 n=b4 v=0
22080 On ch=1 n=c5 v=60
22320 On ch=1 n=c5 v=0
22320 On ch=1 n=d#5 v=0
22320 On ch=1 n=c6 v=70
22560 On ch=1 n=d5 v=60
22800 On ch=1 n=d5 v=0
22800 On ch=1 n=d#5 v=60
23040 On ch=1 n=d#5 v=0
23040 On ch=1 n=c6 v=0
23040 On ch=1 n=c6 v=70
23280 On ch=1 n=e5 v=60
23520 On ch=1 n=e5 v=0
23520 On ch=1 n=f5 v=60
23760 On ch=1 n=f5 v=0
23760 On ch=1 n=c6 v=0
23760 On ch=1 n=c#6 v=70
24000 On ch=1 n=e5 v=60
24240 On ch=1 n=e5 v=0
24240 On ch=1 n=f5 v=60
24480 On ch=1 n=f5 v=0
24480 On ch=1 n=c#6 v=0
24480 On ch=1 n=c6 v=70
24720 On ch=1 n=e5 v=60
24960 On ch=1 n=e5 v=0
24960 On ch=1 n=f5 v=60
25200 On ch=1 n=f5 v=0
25200 On ch=1 n=c6 v=0
25200 On ch=1 n=a#5 v=70
25440 On ch=1 n=e5 v=60
25680 On ch=1 n=e5 v=0
25680 On ch=1 n=f5 v=60
25920 On ch=1 n=f5 v=0
25920 On ch=1 n=a#5 v=0
25920 On ch=1 n=a#5 v=70
26160 On ch=1 n=d#5 v=60
26400 On ch=1 n=d#5 v=0
26400 On ch=1 n=e5 v=60
26640 On ch=1 n=e5 v=0
26640 On ch=1 n=a#5 v=0
26640 On ch=1 n=c6 v=70
26880 On ch=1 n=d#5 v=60
27120 On ch=1 n=d#5 v=0
27120 On ch=1 n=e5 v=60
27360 On ch=1 n=e5 v=0
27360 On ch=1 n=c6 v=0
27360 On ch=1 n=a#5 v=70
27600 On ch=1 n=e5 v=60
27840 On ch=1 n=e5 v=0
27840 On ch=1 n=f5 v=60
28080 On ch=1 n=f5 v=0
28080 On ch=1 n=a#5 v=0
28080 On ch=1 n=g#5 v=70
28320 On ch=1 n=e5 v=60
28560 On ch=1 n=e5 v=0
28560 On ch=1 n=f5 v=60
28800 On ch=1 n=f5 v=0
28800 On ch=1 n=g#5 v=0
28800 On ch=1 n=g5 v=70
29040 On ch=1 n=a#4 v=60
29280 On ch=1 n=a#4 v=0
29280 On ch=1 n=b4 v=60
29520 On ch=1 n=b4 v=0
29520 On ch=1 n=g5 v=0
29520 On ch=1 n=f5 v=70
29760 On ch=1 n=a#4 v=60
30000 On ch=1 n=a#4 v=0
30000 On ch=1 n=b4 v=60
30240 On ch=1 n=b4 v=0
30240 On ch=1 n=f5 v=0
30240 On ch=1 n=d#5 v=70
30480 On ch=1 n=b4 v=60
30720 On ch=1 n=b4 v=0
30720 On ch=1 n=c5 v=60
30960 On ch=1 n=c5 v=0
30960 On ch=1 n=d#5 v=0
30960 On ch=1 n=g#5 v=70
31200 On ch=1 n=d5 v=60
31440 On ch=1 n=d5 v=0
31440 On ch=1 n=d#5 v=60
31680 On ch=1 n=d#5 v=0
31680 On ch=1 n=g#5 v=0
31680 On ch=1 n=c6 v=70
31920 On ch=1 n=d5 v=60
32160 On ch=1 n=d5 v=0
32160 On ch=1 n=d#5 v=60
32400 On ch=1 n=d#5 v=0
32400 On ch=1 n=c6 v=0
32400 On ch=1 n=a#5 v=70
32640 On ch=1 n=c5 v=60
32880 On ch=1 n=c5 v=0
32880 On ch=1 n=c#5 v=60
33120 On ch=1 n=c#5 v=0
33120 On ch=1 n=a#5 v=0
33120 On ch=1 n=g#5 v=70
33360 On ch=1 n=c5 v=60
33600 On ch=1 n=c5 v=0
33600 On ch=1 n=d#5 v=60
33840 On ch=1 n=d#5 v=0
33840 On ch=1 n=g#5 v=0
33840 On ch=1 n=g#5 v=60
34080 On ch=1 n=g#5 v=0
34080 On ch=1 n=c6 v=60
34320 On ch=1 n=c6 v=0
34320 On ch=1 n=d#6 v=60
34560 On ch=1 n=d#6 v=0
34560 On ch=1 n=c7 v=50
34800 On ch=1 n=d6 v=40
35040 On ch=1 n=d6 v=0
35040 On ch=1 n=d#6 v=40
35280 On ch=1 n=d#6 v=0
35280 On ch=1 n=c7 v=0
35280 On ch=1 n=c#7 v=50
35520 On ch=1 n=e6 v=40
35760 On ch=1 n=e6 v=0
35760 On ch=1 n=f6 v=40
36000 On ch=1 n=f6 v=0
36000 On ch=1 n=c#7 v=0
36000 On ch=1 n=c7 v=50
36240 On ch=1 n=d6 v=40
36480 On ch=1 n=d6 v=0
36480 On ch=1 n=d#6 v=40
36720 On ch=1 n=d#6 v=0
36720 On ch=1 n=c7 v=0
36720 On ch=1 n=a#6 v=50
36960 On ch=1 n=c6 v=40
37200 On ch=1 n=c6 v=0
37200 On ch=1 n=c#6 v=40
37440 On ch=1 n=c#6 v=0
37440 On ch=1 n=a#6 v=0
37440 On ch=1 n=a#6 v=50
37680 On ch=1 n=c6 v=40
37920 On ch=1 n=c6 v=0
37920 On ch=1 n=c#6 v=40
38160 On ch=1 n=c#6 v=0
38160 On ch=1 n=a#6 v=0
38160 On ch=1 n=c7 v=50
38400 On ch=1 n=d6 v=40
38640 On ch=1 n=d6 v=0
38640 On ch=1 n=d#6 v=40
38880 On ch=1 n=d#6 v=0
38880 On ch=1 n=c7 v=0
38880 On ch=1 n=a#6 v=50
39120 On ch=1 n=c6 v=40
39360 On ch=1 n=c6 v=0
39360 On ch=1 n=c#6 v=40
39600 On ch=1 n=c#6 v=0
39600 On ch=1 n=a#6 v=0
39600 On ch=1 n=g#6 v=50
39840 On ch=1 n=b5 v=40
40080 On ch=1 n=b5 v=0
40080 On ch=1 n=c6 v=40
40320 On ch=1 n=c6 v=0
40320 On ch=1 n=g#6 v=0
40320 On ch=1 n=g6 v=50
40560 On ch=1 n=a#5 v=40
40800 On ch=1 n=a#5 v=0
40800 On ch=1 n=b5 v=40
41040 On ch=1 n=b5 v=0
41040 On ch=1 n=g6 v=0
41040 On ch=1 n=f6 v=50
41280 On ch=1 n=a#5 v=40
41520 On ch=1 n=a#5 v=0
41520 On ch=1 n=b5 v=40
41760 On ch=1 n=b5 v=0
41760 On ch=1 n=f6 v=0
41760 On ch=1 n=d#6 v=50
42000 On ch=1 n=b5 v=40
42240 On ch=1 n=b5 v=0
42240 On ch=1 n=c6 v=40
42480 On ch=1 n=c6 v=0
42480 On ch=1 n=d#6 v=0
42480 On ch=1 n=g#6 v=50
42720 On ch=1 n=b5 v=40
42960 On ch=1 n=b5 v=0
42960 On ch=1 n=c6 v=40
43200 On ch=1 n=c6 v=0
43200 On ch=1 n=g#6 v=0
43200 On ch=1 n=d#6 v=50
43440 On ch=1 n=c6 v=40
43680 On ch=1 n=c6 v=0
43680 On ch=1 n=c#6 v=40
43920 On ch=1 n=c#6 v=0
43920 On ch=1 n=d#6 v=0
43920 On ch=1 n=a#6 v=50
44160 On ch=1 n=c6 v=40
44400 On ch=1 n=c6 v=0
44400 On ch=1 n=c#6 v=40
44640 On ch=1 n=c#6 v=0
44640 On ch=1 n=a#6 v=0
44640 On ch=1 n=d#6 v=50
44880 On ch=1 n=b5 v=40
45120 On ch=1 n=b5 v=0
45120 On ch=1 n=c6 v=40
45360 On ch=1 n=c6 v=0
45360 On ch=1 n=d#6 v=0
45360 On ch=1 n=c7 v=50
45600 On ch=1 n=d6 v=40
45840 On ch=1 n=d6 v=0
45840 On ch=1 n=d#6 v=40
46080 On ch=1 n=d#6 v=0
46080 On ch=1 n=c7 v=0
46080 On ch=1 n=c7 v=50
46320 On ch=1 n=e6 v=40
46560 On ch=1 n=e6 v=0
46560 On ch=1 n=f6 v=40
46800 On ch=1 n=f6 v=0
46800 On ch=1 n=c7 v=0
46800 On ch=1 n=c#7 v=50
47040 On ch=1 n=e6 v=40
47280 On ch=1 n=e6 v=0
47280 On ch=1 n=f6 v=40
47520 On ch=1 n=f6 v=0
47520 On ch=1 n=c#7 v=0
47520 On ch=1 n=c7 v=50
47760 On ch=1 n=e6 v=40
48000 On ch=1 n=e6 v=0
48000 On ch=1 n=f6 v=40
48240 On ch=1 n=f6 v=0
48240 On ch=1 n=c7 v=0
48240 On ch=1 n=a#6 v=50
48480 On ch=1 n=e6 v=40
48720 On ch=1 n=e6 v=0
48720 On ch=1 n=f6 v=40
48960 On ch=1 n=f6 v=0
48960 On ch=1 n=a#6 v=0
48960 On ch=1 n=a#6 v=50
49200 On ch=1 n=d#6 v=40
49440 On ch=1 n=d#6 v=0
49440 On ch=1 n=e6 v=40
49680 On ch=1 n=e6 v=0
49680 On ch=1 n=a#6 v=0
49680 On ch=1 n=c7 v=50
49920 On ch=1 n=d#6 v=40
50160 On ch=1 n=d#6 v=0
50160 On ch=1 n=e6 v=40
50400 On ch=1 n=e6 v=0
50400 On ch=1 n=c7 v=0
50400 On ch=1 n=a#6 v=50
50640 On ch=1 n=e6 v=40
50880 On ch=1 n=e6 v=0
50880 On ch=1 n=f6 v=40
51120 On ch=1 n=f6 v=0
51120 On ch=1 n=a#6 v=0
51120 On ch=1 n=g#6 v=50
51360 On ch=1 n=e6 v=40
51600 On ch=1 n=e6 v=0
51600 On ch=1 n=f6 v=40
51840 On ch=1 n=f6 v=0
51840 On ch=1 n=g#6 v=0
51840 On ch=1 n=g6 v=50
52080 On ch=1 n=a#5 v=40
52320 On ch=1 n=a#5 v=0
52320 On ch=1 n=b5 v=40
52560 On ch=1 n=b5 v=0
52560 On ch=1 n=g6 v=0
52560 On ch=1 n=f6 v=50
52800 On ch=1 n=a#5 v=40
53040 On ch=1 n=a#5 v=0
53040 On ch=1 n=b5 v=40
53280 On ch=1 n=b5 v=0
53280 On ch=1 n=f6 v=0
53280 On ch=1 n=d#6 v=50
53520 On ch=1 n=b5 v=40
53760 On ch=1 n=b5 v=0
53760 On ch=1 n=c6 v=40
54000 On ch=1 n=c6 v=0
54000 On ch=1 n=d#6 v=0
54000 On ch=1 n=g#6 v=50
54240 On ch=1 n=d6 v=40
54480 On ch=1 n=d6 v=0
54480 On ch=1 n=d#6 v=40
54720 On ch=1 n=d#6 v=0
54720 On ch=1 n=g#6 v=0
54720 On ch=1 n=c7 v=50
54960 On ch=1 n=d6 v=40
55200 On ch=1 n=d6 v=0
55200 On ch=1 n=d#6 v=40
55440 On ch=1 n=d#6 v=0
55440 On ch=1 n=c7 v=0
55440 On ch=1 n=a#6 v=50
55680 On ch=1 n=c6 v=40
55920 On ch=1 n=c6 v=0
55920 On ch=1 n=c#6 v=40
56160 On ch=1 n=c#6 v=0
56160 On ch=1 n=a#6 v=0
56160 On ch=1 n=c6 v=40
56160 On ch=1 n=g#6 v=50
56640 On ch=1 n=g#6 v=0
56640 On ch=1 n=c6 v=0
57120 On ch=1 n=g#5 v=60
57216 On ch=1 n=g#5 v=0
57216 On ch=1 n=a#5 v=60
57312 On ch=1 n=a#5 v=0
57312 On ch=1 n=g#5 v=60
57408 On ch=1 n=g#5 v=0
57408 On ch=1 n=a#5 v=60
57504 On ch=1 n=a#5 v=0
57504 On ch=1 n=g#5 v=60
57600 On ch=1 n=g#5 v=0
57600 On ch=1 n=g5 v=60
57840 On ch=1 n=g5 v=0
57840 On ch=1 n=c6 v=60
58080 On ch=1 n=c6 v=0
58080 On ch=1 n=d#6 v=60
58320 On ch=1 n=d#6 v=0
58320 On ch=1 n=g6 v=60
58560 On ch=1 n=g6 v=0
58560 On ch=1 n=c#7 v=60
58800 On ch=1 n=c#7 v=0
58800 On ch=1 n=f7 v=60
59040 On ch=1 n=f7 v=0
59040 On ch=1 n=d7 v=60
59280 On ch=1 n=d7 v=0
59280 On ch=1 n=d#7 v=60
59520 On ch=1 n=d#7 v=0
59520 On ch=1 n=f7 v=60
59760 On ch=1 n=f7 v=0
59760 On ch=1 n=d#7 v=60
60000 On ch=1 n=d#7 v=0
60000 On ch=1 n=g#7 v=60
60240 On ch=1 n=g#7 v=0
60240 On ch=1 n=g#6 v=60
60480 On ch=1 n=g#6 v=0
60480 On ch=1 n=f7 v=60
60720 On ch=1 n=f7 v=0
60720 On ch=1 n=d#7 v=60
60960 On ch=1 n=d#7 v=0
60960 On ch=1 n=c#7 v=60
61200 On ch=1 n=c#7 v=0
61200 On ch=1 n=g6 v=60
61440 On ch=1 n=g6 v=0
61440 On ch=1 n=f6 v=60
61680 On ch=1 n=f6 v=0
61680 On ch=1 n=d#6 v=60
61920 On ch=1 n=d#6 v=0
61920 On ch=1 n=d6 v=60
62160 On ch=1 n=d6 v=0
62160 On ch=1 n=d#6 v=60
62400 On ch=1 n=d#6 v=0
62400 On ch=1 n=f6 v=60
62640 On ch=1 n=f6 v=0
62640 On ch=1 n=d#6 v=60
62880 On ch=1 n=d#6 v=0
62880 On ch=1 n=g#6 v=60
63120 On ch=1 n=g#6 v=0
63120 On ch=1 n=g#5 v=60
63360 On ch=1 n=g#5 v=0
63360 On ch=1 n=g5 v=60
63600 On ch=1 n=g5 v=0
63600 On ch=1 n=c#6 v=60
63840 On ch=1 n=c#6 v=0
63840 On ch=1 n=d#6 v=60
64080 On ch=1 n=d#6 v=0
64080 On ch=1 n=g6 v=60
64320 On ch=1 n=g6 v=0
64320 On ch=1 n=c#7 v=60
64560 On ch=1 n=c#7 v=0
64560 On ch=1 n=f7 v=60
64800 On ch=1 n=f7 v=0
64800 On ch=1 n=d7 v=60
65040 On ch=1 n=d7 v=0
65040 On ch=1 n=d#7 v=60
65280 On ch=1 n=d#7 v=0
65280 On ch=1 n=f7 v=60
65520 On ch=1 n=f7 v=0
65520 On ch=1 n=d#7 v=60
65760 On ch=1 n=d#7 v=0
65760 On ch=1 n=c8 v=60
66000 On ch=1 n=c8 v=0
66000 On ch=1 n=c7 v=60
66240 On ch=1 n=c7 v=0
66240 On ch=1 n=f7 v=60
66480 On ch=1 n=f7 v=0
66480 On ch=1 n=d#7 v=60
66720 On ch=1 n=d#7 v=0
66720 On ch=1 n=c#7 v=60
66960 On ch=1 n=c#7 v=0
66960 On ch=1 n=g6 v=60
67200 On ch=1 n=g6 v=0
67200 On ch=1 n=f6 v=60
67440 On ch=1 n=f6 v=0
67440 On ch=1 n=d#6 v=60
67680 On ch=1 n=d#6 v=0
67680 On ch=1 n=c#6 v=60
67920 On ch=1 n=c#6 v=0
67920 On ch=1 n=c6 v=60
68160 On ch=1 n=c6 v=0
68160 On ch=1 n=a#5 v=60
68400 On ch=1 n=a#5 v=0
68400 On ch=1 n=g#5 v=60
68640 On ch=1 n=g#5 v=0
68640 On ch=1 n=g5 v=60
68880 On ch=1 n=g5 v=0
68880 On ch=1 n=f5 v=60
69120 On ch=1 n=f5 v=0
69120 On ch=1 n=d#5 v=60
69360 On ch=1 n=d#5 v=0
69360 On ch=1 n=g5 v=60
69600 On ch=1 n=g5 v=0
69600 On ch=1 n=c#6 v=60
69840 On ch=1 n=c#6 v=0
69840 On ch=1 n=d#6 v=60
70080 On ch=1 n=d#6 v=0
70080 On ch=1 n=g6 v=60
70320 On ch=1 n=g6 v=0
70320 On ch=1 n=f7 v=60
70560 On ch=1 n=f7 v=0
70560 On ch=1 n=d7 v=60
70800 On ch=1 n=d7 v=0
70800 On ch=1 n=d#7 v=60
71040 On ch=1 n=d#7 v=0
71040 On ch=1 n=f7 v=60
71280 On ch=1 n=f7 v=0
71280 On ch=1 n=d#7 v=60
71520 On ch=1 n=d#7 v=0
71520 On ch=1 n=g#7 v=60
71760 On ch=1 n=g#7 v=0
71760 On ch=1 n=g#6 v=60
72000 On ch=1 n=g#6 v=0
72000 On ch=1 n=f7 v=60
72240 On ch=1 n=f7 v=0
72240 On ch=1 n=d#7 v=60
72480 On ch=1 n=d#7 v=0
72480 On ch=1 n=c#7 v=60
72720 On ch=1 n=c#7 v=0
72720 On ch=1 n=g6 v=60
72960 On ch=1 n=g6 v=0
72960 On ch=1 n=f6 v=60
73200 On ch=1 n=f6 v=0
73200 On ch=1 n=d#6 v=60
73440 On ch=1 n=d#6 v=0
73440 On ch=1 n=d6 v=60
73680 On ch=1 n=d6 v=0
73680 On ch=1 n=d#6 v=60
73920 On ch=1 n=d#6 v=0
73920 On ch=1 n=f6 v=60
74160 On ch=1 n=f6 v=0
74160 On ch=1 n=d#6 v=60
74400 On ch=1 n=d#6 v=0
74400 On ch=1 n=g#6 v=60
74640 On ch=1 n=g#6 v=0
74640 On ch=1 n=g#5 v=60
74880 On ch=1 n=g#5 v=0
74880 On ch=1 n=g5 v=60
75120 On ch=1 n=g5 v=0
75120 On ch=1 n=c#6 v=60
75360 On ch=1 n=c#6 v=0
75360 On ch=1 n=d#6 v=60
75600 On ch=1 n=d#6 v=0
75600 On ch=1 n=g6 v=60
75840 On ch=1 n=g6 v=0
75840 On ch=1 n=c#7 v=60
76080 On ch=1 n=c#7 v=0
76080 On ch=1 n=f7 v=60
76320 On ch=1 n=f7 v=0
76320 On ch=1 n=d7 v=60
76560 On ch=1 n=d7 v=0
76560 On ch=1 n=d#7 v=60
76800 On ch=1 n=d#7 v=0
76800 On ch=1 n=f7 v=60
77040 On ch=1 n=f7 v=0
77040 On ch=1 n=d#7 v=60
77280 On ch=1 n=d#7 v=0
77280 On ch=1 n=c8 v=60
77520 On ch=1 n=c8 v=0
77520 On ch=1 n=c7 v=60
77760 On ch=1 n=c7 v=0
77760 On ch=1 n=f7 v=60
78000 On ch=1 n=f7 v=0
78000 On ch=1 n=e7 v=60
78240 On ch=1 n=e7 v=0
78240 On ch=1 n=d#7 v=60
78480 On ch=1 n=d#7 v=0
78480 On ch=1 n=c#7 v=60
78720 On ch=1 n=c#7 v=0
78720 On ch=1 n=g6 v=60
78960 On ch=1 n=g6 v=0
78960 On ch=1 n=f6 v=60
79200 On ch=1 n=f6 v=0
79200 On ch=1 n=e6 v=60
79440 On ch=1 n=e6 v=0
79440 On ch=1 n=d#6 v=60
79680 On ch=1 n=d#6 v=0
79680 On ch=1 n=c#6 v=60
79920 On ch=1 n=c#6 v=0
79920 On ch=1 n=g5 v=60
80160 On ch=1 n=g5 v=0
80160 On ch=1 n=f5 v=60
80400 On ch=1 n=f5 v=0
80400 On ch=1 n=e5 v=60
80640 On ch=1 n=e5 v=0
80640 On ch=1 n=d#5 v=60
81120 On ch=1 n=d#5 v=0
81120 On ch=1 n=c5 v=60
81600 On ch=1 n=c5 v=0
81600 On ch=1 n=g#5 v=60
81760 On ch=1 n=g#5 v=0
81760 On ch=1 n=a#5 v=60
81920 On ch=1 n=a#5 v=0
81920 On ch=1 n=g#5 v=60
82080 On ch=1 n=g#5 v=0
82080 On ch=1 n=g5 v=60
82560 On ch=1 n=c#5 v=60
82680 On ch=1 n=c#5 v=0
83040 On ch=1 n=f6 v=60
83040 On ch=1 n=c#6 v=60
83160 On ch=1 n=c#6 v=0
83160 On ch=1 n=f6 v=0
83520 On ch=1 n=g5 v=0
83520 On ch=1 n=g5 v=60
84000 On ch=1 n=c#5 v=60
84120 On ch=1 n=c#5 v=0
84480 On ch=1 n=d#6 v=60
84480 On ch=1 n=c6 v=60
84600 On ch=1 n=c6 v=0
84600 On ch=1 n=d#6 v=0
84960 On ch=1 n=g5 v=0
84960 On ch=1 n=g5 v=60
85200 On ch=1 n=g5 v=0
85200 On ch=1 n=c5 v=60
85440 On ch=1 n=c5 v=0
85440 On ch=1 n=g5 v=60
85680 On ch=1 n=g5 v=0
85680 On ch=1 n=g#5 v=60
85920 On ch=1 n=g#5 v=0
85920 On ch=1 n=c6 v=60
86160 On ch=1 n=c6 v=0
86160 On ch=1 n=g#5 v=60
86400 On ch=1 n=g#5 v=0
86400 On ch=1 n=d#5 v=60
86880 On ch=1 n=d#5 v=0
86880 On ch=1 n=c5 v=60
87360 On ch=1 n=c5 v=0
87360 On ch=1 n=g#5 v=60
87520 On ch=1 n=g#5 v=0
87520 On ch=1 n=a#5 v=60
87680 On ch=1 n=a#5 v=0
87680 On ch=1 n=g#5 v=60
87840 On ch=1 n=g#5 v=0
87840 On ch=1 n=g5 v=60
88320 On ch=1 n=c#5 v=60
88440 On ch=1 n=c#5 v=0
88800 On ch=1 n=f6 v=60
88800 On ch=1 n=c#6 v=60
88920 On ch=1 n=c#6 v=0
88920 On ch=1 n=f6 v=0
89280 On ch=1 n=g5 v=0
89280 On ch=1 n=g5 v=60
89760 On ch=1 n=c#5 v=60
89880 On ch=1 n=c#5 v=0
90240 On ch=1 n=d#6 v=60
90240 On ch=1 n=c6 v=60
90360 On ch=1 n=c6 v=0
90360 On ch=1 n=d#6 v=0
90720 On ch=1 n=g5 v=0
90720 On ch=1 n=c5 v=60
90720 On ch=1 n=g#5 v=60
91680 On ch=1 n=g#5 v=0
91680 On ch=1 n=c5 v=0
91680 On ch=1 n=c#5 v=60
91680 On ch=1 n=f5 v=60
92160 On ch=1 n=c#5 v=0
92160 On ch=1 n=c5 v=60
92640 On ch=1 n=f5 v=0
92640 On ch=1 n=d#5 v=60
93120 On ch=1 n=d#5 v=0
93120 On ch=1 n=g#5 v=60
93280 On ch=1 n=g#5 v=0
93280 On ch=1 n=a#5 v=60
93440 On ch=1 n=a#5 v=0
93440 On ch=1 n=g#5 v=60
93600 On ch=1 n=g#5 v=0
93600 On ch=1 n=g5 v=60
94080 On ch=1 n=c5 v=0
94080 On ch=1 n=c#5 v=60
94200 On ch=1 n=c#5 v=0
94560 On ch=1 n=f6 v=60
94560 On ch=1 n=c#6 v=60
94680 On ch=1 n=c#6 v=0
94680 On ch=1 n=f6 v=0
95040 On ch=1 n=g5 v=0
95040 On ch=1 n=g5 v=60
95520 On ch=1 n=c#5 v=60
95640 On ch=1 n=c#5 v=0
96000 On ch=1 n=d#6 v=60
96000 On ch=1 n=c6 v=60
96120 On ch=1 n=c6 v=0
96120 On ch=1 n=d#6 v=0
96480 On ch=1 n=g5 v=0
96480 On ch=1 n=g5 v=60
96720 On ch=1 n=g5 v=0
96720 On ch=1 n=c5 v=60
96960 On ch=1 n=c5 v=0
96960 On ch=1 n=g5 v=60
97200 On ch=1 n=g5 v=0
97200 On ch=1 n=g#5 v=60
97440 On ch=1 n=g#5 v=0
97440 On ch=1 n=c6 v=60
97680 On ch=1 n=c6 v=0
97680 On ch=1 n=g#5 v=60
97920 On ch=1 n=g#5 v=0
97920 On ch=1 n=d#5 v=60
98400 On ch=1 n=d#5 v=0
98400 On ch=1 n=c5 v=60
98880 On ch=1 n=c5 v=0
98880 On ch=1 n=g#5 v=60
99040 On ch=1 n=g#5 v=0
99040 On ch=1 n=a#5 v=60
99200 On ch=1 n=a#5 v=0
99200 On ch=1 n=g#5 v=60
99360 On ch=1 n=g#5 v=0
99360 On ch=1 n=g5 v=60
99840 On ch=1 n=c#5 v=60
99960 On ch=1 n=c#5 v=0
100320 On ch=1 n=f6 v=60
100320 On ch=1 n=c#6 v=60
100440 On ch=1 n=c#6 v=0
100440 On ch=1 n=f6 v=0
100800 On ch=1 n=g5 v=0
100800 On ch=1 n=g5 v=60
101280 On ch=1 n=c#5 v=60
101400 On ch=1 n=c#5 v=0
101760 On ch=1 n=d#6 v=60
101760 On ch=1 n=c6 v=60
101880 On ch=1 n=c6 v=0
101880 On ch=1 n=d#6 v=0
102240 On ch=1 n=g5 v=0
102240 On ch=1 n=c5 v=60
102240 On ch=1 n=g#5 v=60
102720 On ch=1 n=g#5 v=0
102720 On ch=1 n=c5 v=0
103200 On ch=1 n=g#5 v=60
103296 On ch=1 n=g#5 v=0
103296 On ch=1 n=a#5 v=60
103392 On ch=1 n=a#5 v=0
103392 On ch=1 n=g#5 v=60
103488 On ch=1 n=g#5 v=0
103488 On ch=1 n=a#5 v=60
103584 On ch=1 n=a#5 v=0
103584 On ch=1 n=g#5 v=60
103680 On ch=1 n=g#5 v=0
103680 On ch=1 n=g5 v=60
103920 On ch=1 n=g5 v=0
103920 On ch=1 n=c6 v=60
104160 On ch=1 n=c6 v=0
104160 On ch=1 n=d#6 v=60
104400 On ch=1 n=d#6 v=0
104400 On ch=1 n=g6 v=60
104640 On ch=1 n=g6 v=0
104640 On ch=1 n=c#7 v=60
104880 On ch=1 n=c#7 v=0
104880 On ch=1 n=f7 v=60
105120 On ch=1 n=f7 v=0
105120 On ch=1 n=d7 v=60
105360 On ch=1 n=d7 v=0
105360 On ch=1 n=d#7 v=60
105600 On ch=1 n=d#7 v=0
105600 On ch=1 n=f7 v=60
105840 On ch=1 n=f7 v=0
105840 On ch=1 n=d#7 v=60
106080 On ch=1 n=d#7 v=0
106080 On ch=1 n=g#7 v=60
106320 On ch=1 n=g#7 v=0
106320 On ch=1 n=g#6 v=60
106560 On ch=1 n=g#6 v=0
106560 On ch=1 n=f7 v=60
106800 On ch=1 n=f7 v=0
106800 On ch=1 n=d#7 v=60
107040 On ch=1 n=d#7 v=0
107040 On ch=1 n=c#7 v=60
107280 On ch=1 n=c#7 v=0
107280 On ch=1 n=g6 v=60
107520 On ch=1 n=g6 v=0
107520 On ch=1 n=f6 v=60
107760 On ch=1 n=f6 v=0
107760 On ch=1 n=d#6 v=60
108000 On ch=1 n=d#6 v=0
108000 On ch=1 n=d6 v=60
108240 On ch=1 n=d6 v=0
108240 On ch=1 n=d#6 v=60
108480 On ch=1 n=d#6 v=0
108480 On ch=1 n=f6 v=60
108720 On ch=1 n=f6 v=0
108720 On ch=1 n=d#6 v=60
108960 On ch=1 n=d#6 v=0
108960 On ch=1 n=g#6 v=60
109200 On ch=1 n=g#6 v=0
109200 On ch=1 n=g#5 v=60
109440 On ch=1 n=g#5 v=0
109440 On ch=1 n=g5 v=60
109680 On ch=1 n=g5 v=0
109680 On ch=1 n=c#6 v=60
109920 On ch=1 n=c#6 v=0
109920 On ch=1 n=d#6 v=60
110160 On ch=1 n=d#6 v=0
110160 On ch=1 n=g6 v=60
110400 On ch=1 n=g6 v=0
110400 On ch=1 n=c#7 v=60
110640 On ch=1 n=c#7 v=0
110640 On ch=1 n=f7 v=60
110880 On ch=1 n=f7 v=0
110880 On ch=1 n=d7 v=60
111120 On ch=1 n=d7 v=0
111120 On ch=1 n=d#7 v=60
111360 On ch=1 n=d#7 v=0
111360 On ch=1 n=f7 v=60
111600 On ch=1 n=f7 v=0
111600 On ch=1 n=d#7 v=60
111840 On ch=1 n=d#7 v=0
111840 On ch=1 n=c8 v=60
112080 On ch=1 n=c8 v=0
112080 On ch=1 n=c7 v=60
112320 On ch=1 n=c7 v=0
112320 On ch=1 n=f7 v=60
112560 On ch=1 n=f7 v=0
112560 On ch=1 n=d#7 v=60
112800 On ch=1 n=d#7 v=0
112800 On ch=1 n=c#7 v=60
113040 On ch=1 n=c#7 v=0
113040 On ch=1 n=g6 v=60
113280 On ch=1 n=g6 v=0
113280 On ch=1 n=f6 v=60
113520 On ch=1 n=f6 v=0
113520 On ch=1 n=d#6 v=60
113760 On ch=1 n=d#6 v=0
113760 On ch=1 n=c#6 v=60
114000 On ch=1 n=c#6 v=0
114000 On ch=1 n=c6 v=60
114240 On ch=1 n=c6 v=0
114240 On ch=1 n=a#5 v=60
114480 On ch=1 n=a#5 v=0
114480 On ch=1 n=g#5 v=60
114720 On ch=1 n=g#5 v=0
114720 On ch=1 n=g5 v=60
114960 On ch=1 n=g5 v=0
114960 On ch=1 n=f5 v=60
115200 On ch=1 n=f5 v=0
115200 On ch=1 n=d#5 v=60
115440 On ch=1 n=d#5 v=0
115440 On ch=1 n=g5 v=60
115680 On ch=1 n=g5 v=0
115680 On ch=1 n=c#6 v=60
115920 On ch=1 n=c#6 v=0
115920 On ch=1 n=d#6 v=60
116160 On ch=1 n=d#6 v=0
116160 On ch=1 n=g6 v=60
116400 On ch=1 n=g6 v=0
116400 On ch=1 n=f7 v=60
116640 On ch=1 n=f7 v=0
116640 On ch=1 n=d7 v=60
116880 On ch=1 n=d7 v=0
116880 On ch=1 n=d#7 v=60
117120 On ch=1 n=d#7 v=0
117120 On ch=1 n=f7 v=60
117360 On ch=1 n=f7 v=0
117360 On ch=1 n=d#7 v=60
117600 On ch=1 n=d#7 v=0
117600 On ch=1 n=g#7 v=60
117840 On ch=1 n=g#7 v=0
117840 On ch=1 n=g#6 v=60
118080 On ch=1 n=g#6 v=0
118080 On ch=1 n=f7 v=60
118320 On ch=1 n=f7 v=0
118320 On ch=1 n=d#7 v=60
118560 On ch=1 n=d#7 v=0
118560 On ch=1 n=c#7 v=60
118800 On ch=1 n=c#7 v=0
118800 On ch=1 n=g6 v=60
119040 On ch=1 n=g6 v=0
119040 On ch=1 n=f6 v=60
119280 On ch=1 n=f6 v=0
119280 On ch=1 n=d#6 v=60
119520 On ch=1 n=d#6 v=0
119520 On ch=1 n=d6 v=60
119760 On ch=1 n=d6 v=0
119760 On ch=1 n=d#6 v=60
120000 On ch=1 n=d#6 v=0
120000 On ch=1 n=f6 v=60
120240 On ch=1 n=f6 v=0
120240 On ch=1 n=d#6 v=60
120480 On ch=1 n=d#6 v=0
120480 On ch=1 n=g#6 v=60
120720 On ch=1 n=g#6 v=0
120720 On ch=1 n=g#5 v=60
120960 On ch=1 n=g#5 v=0
120960 On ch=1 n=g5 v=60
121200 On ch=1 n=g5 v=0
121200 On ch=1 n=c#6 v=60
121440 On ch=1 n=c#6 v=0
121440 On ch=1 n=d#6 v=60
121680 On ch=1 n=d#6 v=0
121680 On ch=1 n=g6 v=60
121920 On ch=1 n=g6 v=0
121920 On ch=1 n=c#7 v=60
122160 On ch=1 n=c#7 v=0
122160 On ch=1 n=f7 v=60
122400 On ch=1 n=f7 v=0
122400 On ch=1 n=d7 v=60
122640 On ch=1 n=d7 v=0
122640 On ch=1 n=d#7 v=60
122880 On ch=1 n=d#7 v=0
122880 On ch=1 n=f7 v=60
123120 On ch=1 n=f7 v=0
123120 On ch=1 n=d#7 v=60
123360 On ch=1 n=d#7 v=0
123360 On ch=1 n=c8 v=60
123600 On ch=1 n=c8 v=0
123600 On ch=1 n=c7 v=60
123840 On ch=1 n=c7 v=0
123840 On ch=1 n=f7 v=60
124080 On ch=1 n=f7 v=0
124080 On ch=1 n=e7 v=60
124320 On ch=1 n=e7 v=0
124320 On ch=1 n=d#7 v=60
124560 On ch=1 n=d#7 v=0
124560 On ch=1 n=c#7 v=60
124800 On ch=1 n=c#7 v=0
124800 On ch=1 n=g6 v=60
125040 On ch=1 n=g6 v=0
125040 On ch=1 n=f6 v=60
125280 On ch=1 n=f6 v=0
125280 On ch=1 n=e6 v=60
125520 On ch=1 n=e6 v=0
125520 On ch=1 n=d#6 v=60
125760 On ch=1 n=d#6 v=0
125760 On ch=1 n=c#6 v=60
126000 On ch=1 n=c#6 v=0
126000 On ch=1 n=g5 v=60
126240 On ch=1 n=g5 v=0
126240 On ch=1 n=f5 v=60
126480 On ch=1 n=f5 v=0
126480 On ch=1 n=e5 v=60
126720 On ch=1 n=e5 v=0
126720 On ch=1 n=g#4 v=60
126720 On ch=1 n=d#5 v=60
128160 On ch=1 n=d#5 v=0
128160 On ch=1 n=g#4 v=0
128160 On ch=1 n=c#5 v=63
128160 On ch=1 n=f5 v=63
128880 On ch=1 n=f5 v=0
128880 On ch=1 n=c#5 v=0
128880 On ch=1 n=g#4 v=65
128880 On ch=1 n=d#5 v=65
129120 On ch=1 n=d#5 v=0
129120 On ch=1 n=g#4 v=0
129120 On ch=1 n=f4 v=65
129120 On ch=1 n=c#5 v=65
129360 On ch=1 n=c#5 v=0
129360 On ch=1 n=f4 v=0
129360 On ch=1 n=g#4 v=66
129360 On ch=1 n=c5 v=66
129600 On ch=1 n=c5 v=0
129600 On ch=1 n=g#4 v=0
129600 On ch=1 n=g4 v=67
129600 On ch=1 n=a#4 v=67
129720 On ch=1 n=a#4 v=0
129720 On ch=1 n=g4 v=0
130320 On ch=1 n=g5 v=68
130320 On ch=1 n=f6 v=68
130560 On ch=1 n=f6 v=0
130560 On ch=1 n=g5 v=0
130560 On ch=1 n=a#5 v=69
130560 On ch=1 n=d#6 v=69
130800 On ch=1 n=d#6 v=0
130800 On ch=1 n=a#5 v=0
130920 On ch=1 n=d#5 v=70
130920 On ch=1 n=c#6 v=70
131040 On ch=1 n=c#6 v=0
131040 On ch=1 n=d#5 v=0
131040 On ch=1 n=g#5 v=70
131040 On ch=1 n=c6 v=70
131520 On ch=1 n=c6 v=0
131520 On ch=1 n=g#5 v=0
131760 On ch=1 n=c5 v=72
131760 On ch=1 n=a#5 v=72
132000 On ch=1 n=a#5 v=0
132000 On ch=1 n=c5 v=0
132000 On ch=1 n=d#5 v=72
132000 On ch=1 n=g#5 v=72
132240 On ch=1 n=g#5 v=0
132240 On ch=1 n=d#5 v=0
132360 On ch=1 n=f5 v=73
132480 On ch=1 n=f5 v=0
132480 On ch=1 n=g#4 v=74
132480 On ch=1 n=d#5 v=74
133920 On ch=1 n=d#5 v=0
133920 On ch=1 n=g#4 v=0
133920 On ch=1 n=c#5 v=77
133920 On ch=1 n=f5 v=77
134640 On ch=1 n=f5 v=0
134640 On ch=1 n=c#5 v=0
134640 On ch=1 n=g#4 v=79
134640 On ch=1 n=d#5 v=79
134880 On ch=1 n=d#5 v=0
134880 On ch=1 n=g#4 v=0
134880 On ch=1 n=f4 v=79
134880 On ch=1 n=c#5 v=79
135120 On ch=1 n=c#5 v=0
135120 On ch=1 n=f4 v=0
135120 On ch=1 n=g#4 v=80
135120 On ch=1 n=c5 v=80
135360 On ch=1 n=c5 v=0
135360 On ch=1 n=g#4 v=0
135360 On ch=1 n=g4 v=81
135360 On ch=1 n=a#4 v=81
135480 On ch=1 n=a#4 v=0
135480 On ch=1 n=g4 v=0
136200 On ch=1 n=e6 v=83
136200 On ch=1 n=c#6 v=83
136200 On ch=1 n=a#5 v=83
136200 On ch=1 n=e5 v=83
136320 On ch=1 n=e5 v=0
136320 On ch=1 n=a#5 v=0
136320 On ch=1 n=c#6 v=0
136320 On ch=1 n=e6 v=0
136320 On ch=1 n=e6 v=83
136320 On ch=1 n=c#6 v=83
136320 On ch=1 n=a#5 v=83
136320 On ch=1 n=e5 v=83
136800 On ch=1 n=e5 v=0
136800 On ch=1 n=a#5 v=0
136800 On ch=1 n=c#6 v=0
136800 On ch=1 n=e6 v=0
136800 On ch=1 n=d#5 v=84
136800 On ch=1 n=a#5 v=84
136800 On ch=1 n=c#6 v=84
136800 On ch=1 n=d#6 v=84
136920 On ch=1 n=d#6 v=0
136920 On ch=1 n=c#6 v=0
136920 On ch=1 n=a#5 v=0
136920 On ch=1 n=d#5 v=0
137640 On ch=1 n=e5 v=86
137640 On ch=1 n=a#5 v=86
137640 On ch=1 n=c#6 v=86
137640 On ch=1 n=e6 v=86
137760 On ch=1 n=e6 v=0
137760 On ch=1 n=c#6 v=0
137760 On ch=1 n=a#5 v=0
137760 On ch=1 n=e5 v=0
137760 On ch=1 n=d#5 v=87
137760 On ch=1 n=a#5 v=87
137760 On ch=1 n=c#6 v=87
137760 On ch=1 n=d#6 v=87
138240 On ch=1 n=d#6 v=0
138240 On ch=1 n=c#6 v=0
138240 On ch=1 n=a#5 v=0
138240 On ch=1 n=d#5 v=0
138240 On ch=1 n=g#5 v=88
138240 On ch=1 n=d#6 v=88
139680 On ch=1 n=d#6 v=0
139680 On ch=1 n=g#5 v=0
139680 On ch=1 n=c#6 v=91
139680 On ch=1 n=f6 v=91
140400 On ch=1 n=f6 v=0
140400 On ch=1 n=c#6 v=0
140400 On ch=1 n=g#5 v=93
140400 On ch=1 n=d#6 v=93
140640 On ch=1 n=d#6 v=0
140640 On ch=1 n=g#5 v=0
140640 On ch=1 n=f5 v=94
140640 On ch=1 n=c#6 v=94
140880 On ch=1 n=c#6 v=0
140880 On ch=1 n=f5 v=0
140880 On ch=1 n=g#5 v=94
140880 On ch=1 n=c6 v=94
141120 On ch=1 n=c6 v=0
141120 On ch=1 n=g#5 v=0
141120 On ch=1 n=g5 v=95
141120 On ch=1 n=a#5 v=95
141600 On ch=1 n=a#5 v=0
141600 On ch=1 n=g5 v=0
141840 On ch=1 n=g6 v=97
141840 On ch=1 n=f7 v=97
142080 On ch=1 n=f7 v=0
142080 On ch=1 n=g6 v=0
142080 On ch=1 n=d#7 v=97
142080 On ch=1 n=a#6 v=97
142320 On ch=1 n=a#6 v=0
142320 On ch=1 n=d#7 v=0
142440 On ch=1 n=d#6 v=98
142440 On ch=1 n=c#7 v=98
142560 On ch=1 n=c#7 v=0
142560 On ch=1 n=d#6 v=0
142560 On ch=1 n=c7 v=98
142560 On ch=1 n=g#6 v=98
143040 On ch=1 n=g#6 v=0
143040 On ch=1 n=c7 v=0
143280 On ch=1 n=a#6 v=100
143280 On ch=1 n=c6 v=100
143520 On ch=1 n=c6 v=0
143520 On ch=1 n=a#6 v=0
143520 On ch=1 n=f6 v=101
143520 On ch=1 n=g#6 v=101
143760 On ch=1 n=g#6 v=0
143760 On ch=1 n=f6 v=0
143880 On ch=1 n=c#6 v=102
143880 On ch=1 n=f6 v=102
144000 On ch=1 n=f6 v=0
144000 On ch=1 n=c#6 v=0
144000 On ch=1 n=g#5 v=102
144000 On ch=1 n=d#6 v=102
145440 On ch=1 n=d#6 v=0
145440 On ch=1 n=g#5 v=0
145440 On ch=1 n=f6 v=105
145440 On ch=1 n=c#6 v=105
146160 On ch=1 n=c#6 v=0
146160 On ch=1 n=f6 v=0
146160 On ch=1 n=g#5 v=107
146160 On ch=1 n=d#6 v=107
146340 On ch=1 n=g#5 v=108
146340 On ch=1 n=d#6 v=108
146400 On ch=1 n=d#6 v=0
146400 On ch=1 n=g#5 v=0
146400 On ch=1 n=d#6 v=0
146400 On ch=1 n=g#5 v=0
146400 On ch=1 n=f5 v=108
146400 On ch=1 n=c#6 v=108
146640 On ch=1 n=c#6 v=0
146640 On ch=1 n=f5 v=0
146640 On ch=1 n=g#5 v=108
146640 On ch=1 n=c6 v=108
146880 On ch=1 n=c6 v=0
146880 On ch=1 n=g#5 v=0
146880 On ch=1 n=d#5 v=109
146880 On ch=1 n=a#5 v=109
147000 On ch=1 n=a#5 v=0
147000 On ch=1 n=d#5 v=0
147720 On ch=1 n=e7 v=110
147720 On ch=1 n=c#7 v=110
147720 On ch=1 n=a#6 v=110
147720 On ch=1 n=e6 v=110
147840 On ch=1 n=e6 v=0
147840 On ch=1 n=a#6 v=0
147840 On ch=1 n=c#7 v=0
147840 On ch=1 n=e7 v=0
147840 On ch=1 n=e7 v=110
147840 On ch=1 n=c#7 v=110
147840 On ch=1 n=a#6 v=110
147840 On ch=1 n=e6 v=110
148320 On ch=1 n=e6 v=0
148320 On ch=1 n=a#6 v=0
148320 On ch=1 n=c#7 v=0
148320 On ch=1 n=e7 v=0
148320 On ch=1 n=d#7 v=110
148320 On ch=1 n=c#7 v=110
148320 On ch=1 n=a#6 v=110
148320 On ch=1 n=d#6 v=110
148800 On ch=1 n=d#6 v=0
148800 On ch=1 n=a#6 v=0
148800 On ch=1 n=c#7 v=0
148800 On ch=1 n=d#7 v=0
149160 On ch=1 n=e7 v=110
149160 On ch=1 n=c#7 v=110
149160 On ch=1 n=a#6 v=110
149160 On ch=1 n=e6 v=110
149280 On ch=1 n=e6 v=0
149280 On ch=1 n=a#6 v=0
149280 On ch=1 n=c#7 v=0
149280 On ch=1 n=e7 v=0
149280 On ch=1 n=e7 v=110
149280 On ch=1 n=c#7 v=110
149280 On ch=1 n=a#6 v=110
149280 On ch=1 n=e6 v=110
149760 On ch=1 n=e6 v=0
149760 On ch=1 n=a#6 v=0
149760 On ch=1 n=c#7 v=0
149760 On ch=1 n=e7 v=0
149760 On ch=1 n=g5 v=60
150000 On ch=1 n=g5 v=0
150000 On ch=1 n=c6 v=60
150240 On ch=1 n=c6 v=0
150240 On ch=1 n=d#6 v=60
150480 On ch=1 n=d#6 v=0
150480 On ch=1 n=g6 v=60
150720 On ch=1 n=g6 v=0
150720 On ch=1 n=c#7 v=60
150960 On ch=1 n=c#7 v=0
150960 On ch=1 n=f7 v=60
151200 On ch=1 n=f7 v=0
151200 On ch=1 n=d7 v=60
151440 On ch=1 n=d7 v=0
151440 On ch=1 n=d#7 v=60
151680 On ch=1 n=d#7 v=0
151680 On ch=1 n=f7 v=60
151920 On ch=1 n=f7 v=0
151920 On ch=1 n=d#7 v=60
152160 On ch=1 n=d#7 v=0
152160 On ch=1 n=g#7 v=60
152400 On ch=1 n=g#7 v=0
152400 On ch=1 n=g#6 v=60
152640 On ch=1 n=g#6 v=0
152640 On ch=1 n=f7 v=60
152880 On ch=1 n=f7 v=0
152880 On ch=1 n=d#7 v=60
153120 On ch=1 n=d#7 v=0
153120 On ch=1 n=c#7 v=60
153360 On ch=1 n=c#7 v=0
153360 On ch=1 n=g6 v=60
153600 On ch=1 n=g6 v=0
153600 On ch=1 n=f6 v=60
153840 On ch=1 n=f6 v=0
153840 On ch=1 n=d#6 v=60
154080 On ch=1 n=d#6 v=0
154080 On ch=1 n=d6 v=60
154320 On ch=1 n=d6 v=0
154320 On ch=1 n=d#6 v=60
154560 On ch=1 n=d#6 v=0
154560 On ch=1 n=f6 v=60
154800 On ch=1 n=f6 v=0
154800 On ch=1 n=d#6 v=60
155040 On ch=1 n=d#6 v=0
155040 On ch=1 n=g#6 v=60
155280 On ch=1 n=g#6 v=0
155280 On ch=1 n=g#5 v=60
155520 On ch=1 n=g#5 v=0
155520 On ch=1 n=g5 v=60
155760 On ch=1 n=g5 v=0
155760 On ch=1 n=c#6 v=60
156000 On ch=1 n=c#6 v=0
156000 On ch=1 n=d#6 v=60
156240 On ch=1 n=d#6 v=0
156240 On ch=1 n=g6 v=60
156480 On ch=1 n=g6 v=0
156480 On ch=1 n=c#7 v=60
156720 On ch=1 n=c#7 v=0
156720 On ch=1 n=f7 v=60
156960 On ch=1 n=f7 v=0
156960 On ch=1 n=d7 v=60
157200 On ch=1 n=d7 v=0
157200 On ch=1 n=d#7 v=60
157440 On ch=1 n=d#7 v=0
157440 On ch=1 n=f7 v=60
157680 On ch=1 n=f7 v=0
157680 On ch=1 n=d#7 v=60
157920 On ch=1 n=d#7 v=0
157920 On ch=1 n=c8 v=60
158160 On ch=1 n=c8 v=0
158160 On ch=1 n=c7 v=60
158400 On ch=1 n=c7 v=0
158400 On ch=1 n=f7 v=60
158640 On ch=1 n=f7 v=0
158640 On ch=1 n=d#7 v=60
158880 On ch=1 n=d#7 v=0
158880 On ch=1 n=c#7 v=60
159120 On ch=1 n=c#7 v=0
159120 On ch=1 n=g6 v=60
159360 On ch=1 n=g6 v=0
159360 On ch=1 n=f6 v=60
159600 On ch=1 n=f6 v=0
159600 On ch=1 n=d#6 v=60
159840 On ch=1 n=d#6 v=0
159840 On ch=1 n=c#6 v=60
160080 On ch=1 n=c#6 v=0
160080 On ch=1 n=c6 v=60
160320 On ch=1 n=c6 v=0
160320 On ch=1 n=a#5 v=60
160560 On ch=1 n=a#5 v=0
160560 On ch=1 n=g#5 v=60
160800 On ch=1 n=g#5 v=0
160800 On ch=1 n=g5 v=60
161040 On ch=1 n=g5 v=0
161040 On ch=1 n=f5 v=60
161280 On ch=1 n=f5 v=0
161280 On ch=1 n=d#5 v=60
161520 On ch=1 n=d#5 v=0
161520 On ch=1 n=g5 v=60
161760 On ch=1 n=g5 v=0
161760 On ch=1 n=c#6 v=60
162000 On ch=1 n=c#6 v=0
162000 On ch=1 n=d#6 v=60
162240 On ch=1 n=d#6 v=0
162240 On ch=1 n=g6 v=60
162480 On ch=1 n=g6 v=0
162480 On ch=1 n=f7 v=60
162720 On ch=1 n=f7 v=0
162720 On ch=1 n=d7 v=60
162960 On ch=1 n=d7 v=0
162960 On ch=1 n=d#7 v=60
163200 On ch=1 n=d#7 v=0
163200 On ch=1 n=f7 v=60
163440 On ch=1 n=f7 v=0
163440 On ch=1 n=d#7 v=60
163680 On ch=1 n=d#7 v=0
163680 On ch=1 n=g#7 v=60
163920 On ch=1 n=g#7 v=0
163920 On ch=1 n=g#6 v=60
164160 On ch=1 n=g#6 v=0
164160 On ch=1 n=f7 v=60
164400 On ch=1 n=f7 v=0
164400 On ch=1 n=d#7 v=60
164640 On ch=1 n=d#7 v=0
164640 On ch=1 n=c#7 v=60
164880 On ch=1 n=c#7 v=0
164880 On ch=1 n=g6 v=60
165120 On ch=1 n=g6 v=0
165120 On ch=1 n=f6 v=60
165360 On ch=1 n=f6 v=0
165360 On ch=1 n=d#6 v=60
165600 On ch=1 n=d#6 v=0
165600 On ch=1 n=d6 v=60
165840 On ch=1 n=d6 v=0
165840 On ch=1 n=d#6 v=60
166080 On ch=1 n=d#6 v=0
166080 On ch=1 n=f6 v=60
166320 On ch=1 n=f6 v=0
166320 On ch=1 n=d#6 v=60
166560 On ch=1 n=d#6 v=0
166560 On ch=1 n=g#6 v=60
166800 On ch=1 n=g#6 v=0
166800 On ch=1 n=g#5 v=60
167040 On ch=1 n=g#5 v=0
167040 On ch=1 n=g5 v=60
167280 On ch=1 n=g5 v=0
167280 On ch=1 n=c#6 v=60
167520 On ch=1 n=c#6 v=0
167520 On ch=1 n=d#6 v=60
167760 On ch=1 n=d#6 v=0
167760 On ch=1 n=g6 v=60
168000 On ch=1 n=g6 v=0
168000 On ch=1 n=c#7 v=60
168240 On ch=1 n=c#7 v=0
168240 On ch=1 n=f7 v=60
168480 On ch=1 n=f7 v=0
168480 On ch=1 n=d7 v=60
168720 On ch=1 n=d7 v=0
168720 On ch=1 n=d#7 v=60
168960 On ch=1 n=d#7 v=0
168960 On ch=1 n=f7 v=60
169200 On ch=1 n=f7 v=0
169200 On ch=1 n=d#7 v=60
169440 On ch=1 n=d#7 v=0
169440 On ch=1 n=c8 v=60
169680 On ch=1 n=c8 v=0
169680 On ch=1 n=c7 v=60
169920 On ch=1 n=c7 v=0
169920 On ch=1 n=f7 v=60
170160 On ch=1 n=f7 v=0
170160 On ch=1 n=e7 v=60
170400 On ch=1 n=e7 v=0
170400 On ch=1 n=d#7 v=60
170640 On ch=1 n=d#7 v=0
170640 On ch=1 n=c#7 v=60
170880 On ch=1 n=c#7 v=0
170880 On ch=1 n=g6 v=60
171120 On ch=1 n=g6 v=0
171120 On ch=1 n=f6 v=60
171360 On ch=1 n=f6 v=0
171360 On ch=1 n=e6 v=60
171600 On ch=1 n=e6 v=0
171600 On ch=1 n=d#6 v=60
171840 On ch=1 n=d#6 v=0
171840 On ch=1 n=c#6 v=60
172080 On ch=1 n=c#6 v=0
172080 On ch=1 n=g5 v=60
172320 On ch=1 n=g5 v=0
172320 On ch=1 n=f5 v=60
172560 On ch=1 n=f5 v=0
172560 On ch=1 n=e5 v=60
172800 On ch=1 n=e5 v=0
172800 On ch=1 n=d#5 v=80
174480 On ch=1 n=d#5 v=0
174480 On ch=1 n=d5 v=80
174720 On ch=1 n=d5 v=0
174720 On ch=1 n=c#5 v=80
174960 On ch=1 n=c#5 v=0
174960 On ch=1 n=d5 v=80
175200 On ch=1 n=d5 v=0
175200 On ch=1 n=f5 v=80
175440 On ch=1 n=f5 v=0
175440 On ch=1 n=d#5 v=80
175680 On ch=1 n=d#5 v=0
175680 On ch=1 n=d5 v=80
176640 On ch=1 n=d5 v=0
176640 On ch=1 n=c5 v=80
177600 On ch=1 n=c5 v=0
178080 On ch=1 n=g5 v=80
178560 On ch=1 n=g5 v=0
178560 On ch=1 n=g5 v=80
180000 On ch=1 n=g5 v=0
180000 On ch=1 n=f5 v=80
180480 On ch=1 n=f5 v=0
180480 On ch=1 n=g5 v=80
180960 On ch=1 n=g5 v=0
180960 On ch=1 n=g#5 v=80
181440 On ch=1 n=g#5 v=0
181440 On ch=1 n=a#5 v=80
182880 On ch=1 n=a#5 v=0
182880 On ch=1 n=d#5 v=80
184320 On ch=1 n=d#5 v=0
184320 On ch=1 n=c6 v=80
185760 On ch=1 n=c6 v=0
185760 On ch=1 n=a#5 v=80
186720 On ch=1 n=a#5 v=0
186720 On ch=1 n=c6 v=80
187200 On ch=1 n=c6 v=0
187200 On ch=1 n=g#5 v=80
188640 On ch=1 n=g#5 v=0
188640 On ch=1 n=f5 v=80
189600 On ch=1 n=f5 v=0
189600 On ch=1 n=g5 v=80
190080 On ch=1 n=g5 v=0
190080 On ch=1 n=d#5 v=80
191520 On ch=1 n=d#5 v=0
191520 On ch=1 n=f5 v=80
192000 On ch=1 n=f5 v=0
192000 On ch=1 n=d#5 v=80
192480 On ch=1 n=d#5 v=0
192480 On ch=1 n=a#4 v=80
192960 On ch=1 n=a#4 v=0
192960 On ch=1 n=c5 v=80
194400 On ch=1 n=d#5 v=80
195360 On ch=1 n=d#5 v=0
195360 On ch=1 n=d#5 v=80
195840 On ch=1 n=d#5 v=0
195840 On ch=1 n=c5 v=0
195840 On ch=1 n=c5 v=80
195840 On ch=1 n=d#5 v=80
197280 On ch=1 n=d#5 v=0
197280 On ch=1 n=c5 v=0
197280 On ch=1 n=d5 v=80
197280 On ch=1 n=b4 v=80
197440 On ch=1 n=d5 v=0
197440 On ch=1 n=d#5 v=80
197600 On ch=1 n=d#5 v=0
197600 On ch=1 n=d5 v=80
197760 On ch=1 n=d5 v=0
197760 On ch=1 n=b4 v=0
197760 On ch=1 n=a#4 v=80
197760 On ch=1 n=c#5 v=80
198000 On ch=1 n=c#5 v=0
198000 On ch=1 n=a#4 v=0
198000 On ch=1 n=b4 v=80
198000 On ch=1 n=c#5 v=80
198240 On ch=1 n=c#5 v=0
198240 On ch=1 n=b4 v=0
198240 On ch=1 n=g#4 v=80
198240 On ch=1 n=f5 v=80
198480 On ch=1 n=f5 v=0
198480 On ch=1 n=g#4 v=0
198480 On ch=1 n=g4 v=80
198480 On ch=1 n=d#5 v=80
198720 On ch=1 n=d#5 v=0
198720 On ch=1 n=g4 v=0
198720 On ch=1 n=f4 v=80
198720 On ch=1 n=d5 v=80
199680 On ch=1 n=d5 v=0
199680 On ch=1 n=f4 v=0
199680 On ch=1 n=d#4 v=80
199680 On ch=1 n=c5 v=80
200640 On ch=1 n=c5 v=0
200640 On ch=1 n=d#4 v=0
201120 On ch=1 n=a4 v=80
201120 On ch=1 n=d#5 v=80
201120 On ch=1 n=g5 v=80
201540 On ch=1 n=g#4 v=80
201600 On ch=1 n=g#4 v=0
201600 On ch=1 n=g5 v=0
201600 On ch=1 n=d#5 v=0
201600 On ch=1 n=a4 v=0
201600 On ch=1 n=d#5 v=80
201600 On ch=1 n=g5 v=80
202560 On ch=1 n=g5 v=0
202560 On ch=1 n=d#5 v=0
202560 On ch=1 n=d5 v=80
202560 On ch=1 n=f5 v=80
203520 On ch=1 n=f5 v=0
203520 On ch=1 n=d5 v=0
203520 On ch=1 n=d#5 v=80
203520 On ch=1 n=g5 v=80
204000 On ch=1 n=g5 v=0
204000 On ch=1 n=d#5 v=0
204000 On ch=1 n=g#5 v=80
204000 On ch=1 n=d5 v=80
204480 On ch=1 n=d5 v=0
204480 On ch=1 n=g#5 v=0
204480 On ch=1 n=a#5 v=80
204480 On ch=1 n=c#5 v=80
205920 On ch=1 n=c#5 v=0
205920 On ch=1 n=a#5 v=0
205920 On ch=1 n=c#5 v=80
205920 On ch=1 n=d#5 v=80
206880 On ch=1 n=d#5 v=0
206880 On ch=1 n=c#5 v=0
206880 On ch=1 n=d#5 v=80
207360 On ch=1 n=d#5 v=0
207360 On ch=1 n=c6 v=80
207360 On ch=1 n=g#5 v=80
208800 On ch=1 n=g#5 v=0
208800 On ch=1 n=c6 v=0
208800 On ch=1 n=e5 v=80
208800 On ch=1 n=a#5 v=80
209760 On ch=1 n=a#5 v=0
209760 On ch=1 n=e5 v=0
209760 On ch=1 n=e5 v=80
209760 On ch=1 n=c6 v=80
210240 On ch=1 n=c6 v=0
210240 On ch=1 n=e5 v=0
210240 On ch=1 n=f5 v=80
210240 On ch=1 n=g#5 v=80
211680 On ch=1 n=g#5 v=0
211680 On ch=1 n=f5 v=0
211680 On ch=1 n=b4 v=80
211680 On ch=1 n=f5 v=80
212640 On ch=1 n=f5 v=0
212640 On ch=1 n=b4 v=0
212640 On ch=1 n=b4 v=80
212640 On ch=1 n=g5 v=80
213120 On ch=1 n=g5 v=0
213120 On ch=1 n=b4 v=0
213120 On ch=1 n=c5 v=80
213120 On ch=1 n=d#5 v=80
213600 On ch=1 n=d#5 v=0
213600 On ch=1 n=c5 v=0
213600 On ch=1 n=g#5 v=80
213600 On ch=1 n=d#5 v=80
214080 On ch=1 n=d#5 v=0
214080 On ch=1 n=g#5 v=0
214080 On ch=1 n=c6 v=80
214080 On ch=1 n=g#5 v=80
214560 On ch=1 n=g#5 v=0
214560 On ch=1 n=c6 v=0
214560 On ch=1 n=f6 v=80
214560 On ch=1 n=c#6 v=80
215040 On ch=1 n=c#6 v=0
215040 On ch=1 n=f6 v=0
215040 On ch=1 n=a#5 v=80
215040 On ch=1 n=d#6 v=80
215520 On ch=1 n=d#6 v=0
215520 On ch=1 n=a#5 v=0
215520 On ch=1 n=d#5 v=80
215520 On ch=1 n=a#5 v=80
216000 On ch=1 n=a#5 v=0
216000 On ch=1 n=d#5 v=0
216000 On ch=1 n=g#5 v=80
216000 On ch=1 n=c6 v=80
217440 On ch=1 n=c6 v=0
217440 On ch=1 n=g#5 v=0
217440 On ch=1 n=c5 v=80
217440 On ch=1 n=d#5 v=80
218400 On ch=1 n=d#5 v=0
218400 On ch=1 n=c5 v=0
218400 On ch=1 n=c5 v=80
218400 On ch=1 n=d#5 v=80
218880 On ch=1 n=d#5 v=0
218880 On ch=1 n=c5 v=0
218880 On ch=1 n=g#5 v=80
218880 On ch=1 n=c6 v=80
220320 On ch=1 n=c6 v=0
220320 On ch=1 n=g#5 v=0
220320 On ch=1 n=e5 v=80
220320 On ch=1 n=a#5 v=80
221280 On ch=1 n=a#5 v=0
221280 On ch=1 n=e5 v=0
221280 On ch=1 n=e5 v=80
221280 On ch=1 n=c6 v=80
221760 On ch=1 n=c6 v=0
221760 On ch=1 n=e5 v=0
221760 On ch=1 n=f5 v=80
221760 On ch=1 n=g#5 v=80
223200 On ch=1 n=g#5 v=0
223200 On ch=1 n=f5 v=0
223200 On ch=1 n=b4 v=80
223200 On ch=1 n=f5 v=80
224160 On ch=1 n=f5 v=0
224160 On ch=1 n=b4 v=0
224160 On ch=1 n=b4 v=80
224160 On ch=1 n=g5 v=80
224640 On ch=1 n=g5 v=0
224640 On ch=1 n=b4 v=0
224640 On ch=1 n=c5 v=80
224640 On ch=1 n=d#5 v=80
225120 On ch=1 n=d#5 v=0
225120 On ch=1 n=c5 v=0
225120 On ch=1 n=g#5 v=80
225120 On ch=1 n=d#5 v=80
225600 On ch=1 n=d#5 v=0
225600 On ch=1 n=g#5 v=0
225600 On ch=1 n=c6 v=80
225600 On ch=1 n=g#5 v=80
226020 On ch=1 n=d#6 v=80
226080 On ch=1 n=d#6 v=0
226080 On ch=1 n=g#5 v=0
226080 On ch=1 n=c6 v=0
226080 On ch=1 n=c#6 v=80
226080 On ch=1 n=f#5 v=80
226080 On ch=1 n=d#5 v=80
227040 On ch=1 n=d#5 v=0
227040 On ch=1 n=f#5 v=0
227040 On ch=1 n=c#6 v=0
227040 On ch=1 n=c6 v=83
227040 On ch=1 n=f#5 v=83
227040 On ch=1 n=d#5 v=83
227520 On ch=1 n=d#5 v=0
227520 On ch=1 n=f#5 v=0
227520 On ch=1 n=c6 v=0
227520 On ch=1 n=c6 v=84
227520 On ch=1 n=f5 v=84
227520 On ch=1 n=c#5 v=84
228000 On ch=1 n=c#5 v=0
228480 On ch=1 n=f5 v=0
228480 On ch=1 n=c6 v=0
228480 On ch=1 n=a#5 v=87
228480 On ch=1 n=f5 v=87
228480 On ch=1 n=c#5 v=87
228780 On ch=1 n=f5 v=88
228840 On ch=1 n=b5 v=89
228900 On ch=1 n=f6 v=89
228960 On ch=1 n=f6 v=0
228960 On ch=1 n=c#5 v=0
228960 On ch=1 n=f5 v=0
228960 On ch=1 n=a#5 v=0
228960 On ch=1 n=d#6 v=89
229920 On ch=1 n=d#6 v=0
229920 On ch=1 n=b5 v=0
229920 On ch=1 n=f5 v=0
229920 On ch=1 n=d6 v=92
229920 On ch=1 n=b5 v=92
229920 On ch=1 n=f5 v=92
230400 On ch=1 n=f5 v=0
230400 On ch=1 n=b5 v=0
230400 On ch=1 n=d6 v=0
230400 On ch=1 n=d#5 v=94
230400 On ch=1 n=g5 v=94
230400 On ch=1 n=d6 v=94
231360 On ch=1 n=d6 v=0
231360 On ch=1 n=g5 v=0
231360 On ch=1 n=d#5 v=0
231360 On ch=1 n=c6 v=97
231360 On ch=1 n=g5 v=97
231360 On ch=1 n=d#5 v=97
231840 On ch=1 n=d#5 v=0
231840 On ch=1 n=g5 v=0
231840 On ch=1 n=c6 v=0
231840 On ch=1 n=g5 v=98
231840 On ch=1 n=c#6 v=98
231840 On ch=1 n=d#6 v=98
232320 On ch=1 n=d#6 v=0
232320 On ch=1 n=c#6 v=0
232320 On ch=1 n=g5 v=0
232560 On ch=1 n=g5 v=101
232560 On ch=1 n=c#6 v=101
232560 On ch=1 n=e6 v=101
232800 On ch=1 n=e6 v=0
232800 On ch=1 n=c#6 v=0
232800 On ch=1 n=g5 v=0
232800 On ch=1 n=g5 v=102
232800 On ch=1 n=c#6 v=102
232800 On ch=1 n=e6 v=102
233280 On ch=1 n=e6 v=0
233280 On ch=1 n=c#6 v=0
233280 On ch=1 n=g5 v=0
233280 On ch=1 n=g5 v=103
233280 On ch=1 n=c#6 v=103
233280 On ch=1 n=f6 v=103
233400 On ch=1 n=f6 v=0
233400 On ch=1 n=c#6 v=0
233400 On ch=1 n=g5 v=0
234000 On ch=1 n=c#6 v=105
234000 On ch=1 n=d#6 v=105
234000 On ch=1 n=f#6 v=105
234240 On ch=1 n=f#6 v=0
234240 On ch=1 n=d#6 v=0
234240 On ch=1 n=c#6 v=0
234240 On ch=1 n=c#6 v=106
234240 On ch=1 n=d#6 v=106
234240 On ch=1 n=f#6 v=106
234720 On ch=1 n=f#6 v=0
234720 On ch=1 n=d#6 v=0
234720 On ch=1 n=c#6 v=0
234720 On ch=1 n=g6 v=108
234720 On ch=1 n=d#6 v=108
234720 On ch=1 n=c6 v=108
234840 On ch=1 n=c6 v=0
234840 On ch=1 n=d#6 v=0
234840 On ch=1 n=g6 v=0
235440 On ch=1 n=g#6 v=110
235440 On ch=1 n=d#6 v=110
235440 On ch=1 n=c6 v=110
235680 On ch=1 n=c6 v=0
235680 On ch=1 n=d#6 v=0
235680 On ch=1 n=g#6 v=0
235680 On ch=1 n=c6 v=110
235680 On ch=1 n=d#6 v=110
235680 On ch=1 n=g#6 v=110
236160 On ch=1 n=g#6 v=0
236160 On ch=1 n=d#6 v=0
236160 On ch=1 n=c6 v=0
236160 On ch=1 n=g5 v=60
236400 On ch=1 n=g5 v=0
236400 On ch=1 n=c6 v=60
236640 On ch=1 n=c6 v=0
236640 On ch=1 n=d#6 v=60
236880 On ch=1 n=d#6 v=0
236880 On ch=1 n=g6 v=60
237120 On ch=1 n=g6 v=0
237120 On ch=1 n=c#7 v=60
237360 On ch=1 n=c#7 v=0
237360 On ch=1 n=f7 v=60
237600 On ch=1 n=f7 v=0
237600 On ch=1 n=d7 v=60
237840 On ch=1 n=d7 v=0
237840 On ch=1 n=d#7 v=60
238080 On ch=1 n=d#7 v=0
238080 On ch=1 n=f7 v=60
238320 On ch=1 n=f7 v=0
238320 On ch=1 n=d#7 v=60
238560 On ch=1 n=d#7 v=0
238560 On ch=1 n=g#7 v=60
238800 On ch=1 n=g#7 v=0
238800 On ch=1 n=g#6 v=60
239040 On ch=1 n=g#6 v=0
239040 On ch=1 n=f7 v=60
239280 On ch=1 n=f7 v=0
239280 On ch=1 n=d#7 v=60
239520 On ch=1 n=d#7 v=0
239520 On ch=1 n=c#7 v=60
239760 On ch=1 n=c#7 v=0
239760 On ch=1 n=g6 v=60
240000 On ch=1 n=g6 v=0
240000 On ch=1 n=f6 v=60
240240 On ch=1 n=f6 v=0
240240 On ch=1 n=d#6 v=60
240480 On ch=1 n=d#6 v=0
240480 On ch=1 n=d6 v=60
240720 On ch=1 n=d6 v=0
240720 On ch=1 n=d#6 v=60
240960 On ch=1 n=d#6 v=0
240960 On ch=1 n=f6 v=60
241200 On ch=1 n=f6 v=0
241200 On ch=1 n=d#6 v=60
241440 On ch=1 n=d#6 v=0
241440 On ch=1 n=g#6 v=60
241680 On ch=1 n=g#6 v=0
241680 On ch=1 n=g#5 v=60
241920 On ch=1 n=g#5 v=0
241920 On ch=1 n=g5 v=60
242160 On ch=1 n=g5 v=0
242160 On ch=1 n=c#6 v=60
242400 On ch=1 n=c#6 v=0
242400 On ch=1 n=d#6 v=60
242640 On ch=1 n=d#6 v=0
242640 On ch=1 n=g6 v=60
242880 On ch=1 n=g6 v=0
242880 On ch=1 n=c#7 v=60
243120 On ch=1 n=c#7 v=0
243120 On ch=1 n=f7 v=60
243360 On ch=1 n=f7 v=0
243360 On ch=1 n=d7 v=60
243600 On ch=1 n=d7 v=0
243600 On ch=1 n=d#7 v=60
243840 On ch=1 n=d#7 v=0
243840 On ch=1 n=f7 v=60
244080 On ch=1 n=f7 v=0
244080 On ch=1 n=d#7 v=60
244320 On ch=1 n=d#7 v=0
244320 On ch=1 n=c8 v=60
244560 On ch=1 n=c8 v=0
244560 On ch=1 n=c7 v=60
244800 On ch=1 n=c7 v=0
244800 On ch=1 n=f7 v=60
245040 On ch=1 n=f7 v=0
245040 On ch=1 n=d#7 v=60
245280 On ch=1 n=d#7 v=0
245280 On ch=1 n=c#7 v=60
245520 On ch=1 n=c#7 v=0
245520 On ch=1 n=g6 v=60
245760 On ch=1 n=g6 v=0
245760 On ch=1 n=f6 v=60
246000 On ch=1 n=f6 v=0
246000 On ch=1 n=d#6 v=60
246240 On ch=1 n=d#6 v=0
246240 On ch=1 n=c#6 v=60
246480 On ch=1 n=c#6 v=0
246480 On ch=1 n=c6 v=60
246720 On ch=1 n=c6 v=0
246720 On ch=1 n=a#5 v=60
246960 On ch=1 n=a#5 v=0
246960 On ch=1 n=g#5 v=60
247200 On ch=1 n=g#5 v=0
247200 On ch=1 n=g5 v=60
247440 On ch=1 n=g5 v=0
247440 On ch=1 n=f5 v=60
247680 On ch=1 n=f5 v=0
247680 On ch=1 n=d#5 v=60
247920 On ch=1 n=d#5 v=0
247920 On ch=1 n=g5 v=60
248160 On ch=1 n=g5 v=0
248160 On ch=1 n=c#6 v=60
248400 On ch=1 n=c#6 v=0
248400 On ch=1 n=d#6 v=60
248640 On ch=1 n=d#6 v=0
248640 On ch=1 n=g6 v=60
248880 On ch=1 n=g6 v=0
248880 On ch=1 n=f7 v=60
249120 On ch=1 n=f7 v=0
249120 On ch=1 n=d7 v=60
249360 On ch=1 n=d7 v=0
249360 On ch=1 n=d#7 v=60
249600 On ch=1 n=d#7 v=0
249600 On ch=1 n=f7 v=60
249840 On ch=1 n=f7 v=0
249840 On ch=1 n=d#7 v=60
250080 On ch=1 n=d#7 v=0
250080 On ch=1 n=g#7 v=60
250320 On ch=1 n=g#7 v=0
250320 On ch=1 n=g#6 v=60
250560 On ch=1 n=g#6 v=0
250560 On ch=1 n=f7 v=60
250800 On ch=1 n=f7 v=0
250800 On ch=1 n=d#7 v=60
251040 On ch=1 n=d#7 v=0
251040 On ch=1 n=c#7 v=60
251280 On ch=1 n=c#7 v=0
251280 On ch=1 n=g6 v=60
251520 On ch=1 n=g6 v=0
251520 On ch=1 n=f6 v=60
251760 On ch=1 n=f6 v=0
251760 On ch=1 n=d#6 v=60
252000 On ch=1 n=d#6 v=0
252000 On ch=1 n=d6 v=60
252240 On ch=1 n=d6 v=0
252240 On ch=1 n=d#6 v=60
252480 On ch=1 n=d#6 v=0
252480 On ch=1 n=f6 v=60
252720 On ch=1 n=f6 v=0
252720 On ch=1 n=d#6 v=60
252960 On ch=1 n=d#6 v=0
252960 On ch=1 n=g#6 v=60
253200 On ch=1 n=g#6 v=0
253200 On ch=1 n=g#5 v=60
253440 On ch=1 n=g#5 v=0
253440 On ch=1 n=g5 v=60
253680 On ch=1 n=g5 v=0
253680 On ch=1 n=c#6 v=60
253920 On ch=1 n=c#6 v=0
253920 On ch=1 n=d#6 v=60
254160 On ch=1 n=d#6 v=0
254160 On ch=1 n=g6 v=60
254400 On ch=1 n=g6 v=0
254400 On ch=1 n=c#7 v=60
254640 On ch=1 n=c#7 v=0
254640 On ch=1 n=f7 v=60
254880 On ch=1 n=f7 v=0
254880 On ch=1 n=d7 v=60
255120 On ch=1 n=d7 v=0
255120 On ch=1 n=d#7 v=60
255360 On ch=1 n=d#7 v=0
255360 On ch=1 n=f7 v=60
255600 On ch=1 n=f7 v=0
255600 On ch=1 n=d#7 v=60
255840 On ch=1 n=d#7 v=0
255840 On ch=1 n=c8 v=60
256080 On ch=1 n=c8 v=0
256080 On ch=1 n=c7 v=60
256320 On ch=1 n=c7 v=0
256320 On ch=1 n=f7 v=60
256560 On ch=1 n=f7 v=0
256560 On ch=1 n=e7 v=60
256800 On ch=1 n=e7 v=0
256800 On ch=1 n=d#7 v=60
257040 On ch=1 n=d#7 v=0
257040 On ch=1 n=c#7 v=60
257280 On ch=1 n=c#7 v=0
257280 On ch=1 n=g6 v=60
257520 On ch=1 n=g6 v=0
257520 On ch=1 n=f6 v=60
257760 On ch=1 n=f6 v=0
257760 On ch=1 n=e6 v=60
258000 On ch=1 n=e6 v=0
258000 On ch=1 n=d#6 v=60
258240 On ch=1 n=d#6 v=0
258240 On ch=1 n=c#6 v=60
258480 On ch=1 n=c#6 v=0
258480 On ch=1 n=g5 v=60
258720 On ch=1 n=g5 v=0
258720 On ch=1 n=f5 v=60
258960 On ch=1 n=f5 v=0
258960 On ch=1 n=e5 v=60
259200 On ch=1 n=e5 v=0
259200 On ch=1 n=c6 v=70
259440 On ch=1 n=d5 v=60
259680 On ch=1 n=d5 v=0
259680 On ch=1 n=d#5 v=60
259920 On ch=1 n=d#5 v=0
259920 On ch=1 n=c6 v=0
259920 On ch=1 n=c#6 v=70
260160 On ch=1 n=e5 v=60
260400 On ch=1 n=e5 v=0
260400 On ch=1 n=f5 v=60
260640 On ch=1 n=f5 v=0
260640 On ch=1 n=c#6 v=0
260640 On ch=1 n=c6 v=70
260880 On ch=1 n=d5 v=60
261120 On ch=1 n=d5 v=0
261120 On ch=1 n=d#5 v=60
261360 On ch=1 n=d#5 v=0
261360 On ch=1 n=c6 v=0
261360 On ch=1 n=a#5 v=70
261600 On ch=1 n=c5 v=60
261840 On ch=1 n=c5 v=0
261840 On ch=1 n=c#5 v=60
262080 On ch=1 n=c#5 v=0
262080 On ch=1 n=a#5 v=0
262080 On ch=1 n=a#5 v=70
262320 On ch=1 n=c5 v=60
262560 On ch=1 n=c5 v=0
262560 On ch=1 n=c#5 v=60
262800 On ch=1 n=c#5 v=0
262800 On ch=1 n=a#5 v=0
262800 On ch=1 n=c6 v=70
263040 On ch=1 n=d5 v=60
263280 On ch=1 n=d5 v=0
263280 On ch=1 n=d#5 v=60
263520 On ch=1 n=d#5 v=0
263520 On ch=1 n=c6 v=0
263520 On ch=1 n=a#5 v=70
263760 On ch=1 n=c5 v=60
264000 On ch=1 n=c5 v=0
264000 On ch=1 n=c#5 v=60
264240 On ch=1 n=c#5 v=0
264240 On ch=1 n=a#5 v=0
264240 On ch=1 n=g#5 v=70
264480 On ch=1 n=b4 v=60
264720 On ch=1 n=b4 v=0
264720 On ch=1 n=c5 v=60
264960 On ch=1 n=c5 v=0
264960 On ch=1 n=g#5 v=0
264960 On ch=1 n=g5 v=70
265200 On ch=1 n=a#4 v=60
265440 On ch=1 n=a#4 v=0
265440 On ch=1 n=b4 v=60
265680 On ch=1 n=b4 v=0
265680 On ch=1 n=g5 v=0
265680 On ch=1 n=f5 v=70
265920 On ch=1 n=a#4 v=60
266160 On ch=1 n=a#4 v=0
266160 On ch=1 n=b4 v=60
266400 On ch=1 n=b4 v=0
266400 On ch=1 n=f5 v=0
266400 On ch=1 n=d#5 v=70
266640 On ch=1 n=b4 v=60
266880 On ch=1 n=b4 v=0
266880 On ch=1 n=c5 v=60
267120 On ch=1 n=c5 v=0
267120 On ch=1 n=d#5 v=0
267120 On ch=1 n=g#5 v=70
267360 On ch=1 n=b4 v=60
267600 On ch=1 n=b4 v=0
267600 On ch=1 n=c5 v=60
267840 On ch=1 n=c5 v=0
267840 On ch=1 n=g#5 v=0
267840 On ch=1 n=d#5 v=70
268080 On ch=1 n=c5 v=60
268320 On ch=1 n=c5 v=0
268320 On ch=1 n=c#5 v=60
268560 On ch=1 n=c#5 v=0
268560 On ch=1 n=d#5 v=0
268560 On ch=1 n=a#5 v=70
268800 On ch=1 n=c5 v=60
269040 On ch=1 n=c5 v=0
269040 On ch=1 n=c#5 v=60
269280 On ch=1 n=c#5 v=0
269280 On ch=1 n=a#5 v=0
269280 On ch=1 n=d#5 v=70
269520 On ch=1 n=b4 v=60
269760 On ch=1 n=b4 v=0
269760 On ch=1 n=c5 v=60
270000 On ch=1 n=c5 v=0
270000 On ch=1 n=d#5 v=0
270000 On ch=1 n=c6 v=70
270240 On ch=1 n=d5 v=60
270480 On ch=1 n=d5 v=0
270480 On ch=1 n=d#5 v=60
270720 On ch=1 n=d#5 v=0
270720 On ch=1 n=c6 v=0
270720 On ch=1 n=c6 v=70
270960 On ch=1 n=e5 v=60
271200 On ch=1 n=e5 v=0
271200 On ch=1 n=f5 v=60
271440 On ch=1 n=f5 v=0
271440 On ch=1 n=c6 v=0
271440 On ch=1 n=c#6 v=70
271680 On ch=1 n=e5 v=60
271920 On ch=1 n=e5 v=0
271920 On ch=1 n=f5 v=60
272160 On ch=1 n=f5 v=0
272160 On ch=1 n=c#6 v=0
272160 On ch=1 n=c6 v=70
272400 On ch=1 n=e5 v=60
272640 On ch=1 n=e5 v=0
272640 On ch=1 n=f5 v=60
272880 On ch=1 n=f5 v=0
272880 On ch=1 n=c6 v=0
272880 On ch=1 n=a#5 v=70
273120 On ch=1 n=e5 v=60
273360 On ch=1 n=e5 v=0
273360 On ch=1 n=f5 v=60
273600 On ch=1 n=f5 v=0
273600 On ch=1 n=a#5 v=0
273600 On ch=1 n=a#5 v=70
273840 On ch=1 n=d#5 v=60
274080 On ch=1 n=d#5 v=0
274080 On ch=1 n=e5 v=60
274320 On ch=1 n=e5 v=0
274320 On ch=1 n=a#5 v=0
274320 On ch=1 n=c6 v=70
274560 On ch=1 n=d#5 v=60
274800 On ch=1 n=d#5 v=0
274800 On ch=1 n=e5 v=60
275040 On ch=1 n=e5 v=0
275040 On ch=1 n=c6 v=0
275040 On ch=1 n=a#5 v=70
275280 On ch=1 n=e5 v=60
275520 On ch=1 n=e5 v=0
275520 On ch=1 n=f5 v=60
275760 On ch=1 n=f5 v=0
275760 On ch=1 n=a#5 v=0
275760 On ch=1 n=g#5 v=70
276000 On ch=1 n=e5 v=60
276240 On ch=1 n=e5 v=0
276240 On ch=1 n=f5 v=60
276480 On ch=1 n=f5 v=0
276480 On ch=1 n=g#5 v=0
276480 On ch=1 n=g5 v=70
276720 On ch=1 n=a#4 v=60
276960 On ch=1 n=a#4 v=0
276960 On ch=1 n=b4 v=60
277200 On ch=1 n=b4 v=0
277200 On ch=1 n=g5 v=0
277200 On ch=1 n=f5 v=70
277440 On ch=1 n=a#4 v=60
277680 On ch=1 n=a#4 v=0
277680 On ch=1 n=b4 v=60
277920 On ch=1 n=b4 v=0
277920 On ch=1 n=f5 v=0
277920 On ch=1 n=d#5 v=70
278160 On ch=1 n=b4 v=60
278400 On ch=1 n=b4 v=0
278400 On ch=1 n=c5 v=60
278640 On ch=1 n=c5 v=0
278640 On ch=1 n=d#5 v=0
278640 On ch=1 n=g#5 v=70
278880 On ch=1 n=d5 v=60
279120 On ch=1 n=d5 v=0
279120 On ch=1 n=d#5 v=60
279360 On ch=1 n=d#5 v=0
279360 On ch=1 n=g#5 v=0
279360 On ch=1 n=c6 v=70
279600 On ch=1 n=d5 v=60
279840 On ch=1 n=d5 v=0
279840 On ch=1 n=d#5 v=60
280080 On ch=1 n=d#5 v=0
280080 On ch=1 n=c6 v=0
280080 On ch=1 n=a#5 v=70
280320 On ch=1 n=c5 v=60
280560 On ch=1 n=c5 v=0
280560 On ch=1 n=c#5 v=60
280800 On ch=1 n=c#5 v=0
280800 On ch=1 n=a#5 v=0
280800 On ch=1 n=g#5 v=70
281040 On ch=1 n=c5 v=60
281280 On ch=1 n=c5 v=0
281280 On ch=1 n=d#5 v=60
281520 On ch=1 n=d#5 v=0
281520 On ch=1 n=g#5 v=0
281520 On ch=1 n=g#5 v=60
281760 On ch=1 n=g#5 v=0
281760 On ch=1 n=c6 v=60
282000 On ch=1 n=c6 v=0
282000 On ch=1 n=d#6 v=60
282240 On ch=1 n=d#6 v=0
282240 On ch=1 n=c7 v=50
282480 On ch=1 n=d6 v=40
282720 On ch=1 n=d6 v=0
282720 On ch=1 n=d#6 v=40
282960 On ch=1 n=d#6 v=0
282960 On ch=1 n=c7 v=0
282960 On ch=1 n=c#7 v=50
283200 On ch=1 n=e6 v=40
283440 On ch=1 n=e6 v=0
283440 On ch=1 n=f6 v=40
283680 On ch=1 n=f6 v=0
283680 On ch=1 n=c#7 v=0
283680 On ch=1 n=c7 v=50
283920 On ch=1 n=d6 v=40
284160 On ch=1 n=d6 v=0
284160 On ch=1 n=d#6 v=40
284400 On ch=1 n=d#6 v=0
284400 On ch=1 n=c7 v=0
284400 On ch=1 n=a#6 v=50
284640 On ch=1 n=c6 v=40
284880 On ch=1 n=c6 v=0
284880 On ch=1 n=c#6 v=40
285120 On ch=1 n=c#6 v=0
285120 On ch=1 n=a#6 v=0
285120 On ch=1 n=a#6 v=50
285360 On ch=1 n=c6 v=40
285600 On ch=1 n=c6 v=0
285600 On ch=1 n=c#6 v=40
285840 On ch=1 n=c#6 v=0
285840 On ch=1 n=a#6 v=0
285840 On ch=1 n=c7 v=50
286080 On ch=1 n=d6 v=40
286320 On ch=1 n=d6 v=0
286320 On ch=1 n=d#6 v=40
286560 On ch=1 n=d#6 v=0
286560 On ch=1 n=c7 v=0
286560 On ch=1 n=a#6 v=50
286800 On ch=1 n=c6 v=40
287040 On ch=1 n=c6 v=0
287040 On ch=1 n=c#6 v=40
287280 On ch=1 n=c#6 v=0
287280 On ch=1 n=a#6 v=0
287280 On ch=1 n=g#6 v=50
287520 On ch=1 n=b5 v=40
287760 On ch=1 n=b5 v=0
287760 On ch=1 n=c6 v=40
288000 On ch=1 n=c6 v=0
288000 On ch=1 n=g#6 v=0
288000 On ch=1 n=g6 v=50
288240 On ch=1 n=a#5 v=40
288480 On ch=1 n=a#5 v=0
288480 On ch=1 n=b5 v=40
288720 On ch=1 n=b5 v=0
288720 On ch=1 n=g6 v=0
288720 On ch=1 n=f6 v=50
288960 On ch=1 n=a#5 v=40
289200 On ch=1 n=a#5 v=0
289200 On ch=1 n=b5 v=40
289440 On ch=1 n=b5 v=0
289440 On ch=1 n=f6 v=0
289440 On ch=1 n=d#6 v=50
289680 On ch=1 n=b5 v=40
289920 On ch=1 n=b5 v=0
289920 On ch=1 n=c6 v=40
290160 On ch=1 n=c6 v=0
290160 On ch=1 n=d#6 v=0
290160 On ch=1 n=g#6 v=50
290400 On ch=1 n=b5 v=40
290640 On ch=1 n=b5 v=0
290640 On ch=1 n=c6 v=40
290880 On ch=1 n=c6 v=0
290880 On ch=1 n=g#6 v=0
290880 On ch=1 n=d#6 v=50
291120 On ch=1 n=c6 v=40
291360 On ch=1 n=c6 v=0
291360 On ch=1 n=c#6 v=40
291600 On ch=1 n=c#6 v=0
291600 On ch=1 n=d#6 v=0
291600 On ch=1 n=a#6 v=50
291840 On ch=1 n=c6 v=40
292080 On ch=1 n=c6 v=0
292080 On ch=1 n=c#6 v=40
292320 On ch=1 n=c#6 v=0
292320 On ch=1 n=a#6 v=0
292320 On ch=1 n=d#6 v=50
292560 On ch=1 n=b5 v=40
292800 On ch=1 n=b5 v=0
292800 On ch=1 n=c6 v=40
293040 On ch=1 n=c6 v=0
293040 On ch=1 n=d#6 v=0
293040 On ch=1 n=c7 v=50
293280 On ch=1 n=d6 v=40
293520 On ch=1 n=d6 v=0
293520 On ch=1 n=d#6 v=40
293760 On ch=1 n=d#6 v=0
293760 On ch=1 n=c7 v=0
293760 On ch=1 n=c7 v=50
294000 On ch=1 n=e6 v=40
294240 On ch=1 n=e6 v=0
294240 On ch=1 n=f6 v=40
294480 On ch=1 n=f6 v=0
294480 On ch=1 n=c7 v=0
294480 On ch=1 n=c#7 v=50
294720 On ch=1 n=e6 v=40
294960 On ch=1 n=e6 v=0
294960 On ch=1 n=f6 v=40
295200 On ch=1 n=f6 v=0
295200 On ch=1 n=c#7 v=0
295200 On ch=1 n=c7 v=50
295440 On ch=1 n=e6 v=40
295680 On ch=1 n=e6 v=0
295680 On ch=1 n=f6 v=40
295920 On ch=1 n=f6 v=0
295920 On ch=1 n=c7 v=0
295920 On ch=1 n=a#6 v=50
296160 On ch=1 n=e6 v=40
296400 On ch=1 n=e6 v=0
296400 On ch=1 n=f6 v=40
296640 On ch=1 n=f6 v=0
296640 On ch=1 n=a#6 v=0
296640 On ch=1 n=a#6 v=50
296880 On ch=1 n=d#6 v=40
297120 On ch=1 n=d#6 v=0
297120 On ch=1 n=e6 v=40
297360 On ch=1 n=e6 v=0
297360 On ch=1 n=a#6 v=0
297360 On ch=1 n=c7 v=50
297600 On ch=1 n=d#6 v=40
297840 On ch=1 n=d#6 v=0
297840 On ch=1 n=e6 v=40
298080 On ch=1 n=e6 v=0
298080 On ch=1 n=c7 v=0
298080 On ch=1 n=a#6 v=50
298320 On ch=1 n=e6 v=40
298560 On ch=1 n=e6 v=0
298560 On ch=1 n=f6 v=40
298800 On ch=1 n=f6 v=0
298800 On ch=1 n=a#6 v=0
298800 On ch=1 n=g#6 v=50
299040 On ch=1 n=e6 v=40
299280 On ch=1 n=e6 v=0
299280 On ch=1 n=f6 v=40
299520 On ch=1 n=f6 v=0
299520 On ch=1 n=g#6 v=0
299520 On ch=1 n=g6 v=50
299760 On ch=1 n=a#5 v=40
300000 On ch=1 n=a#5 v=0
300000 On ch=1 n=b5 v=40
300240 On ch=1 n=b5 v=0
300240 On ch=1 n=g6 v=0
300240 On ch=1 n=f6 v=50
300480 On ch=1 n=a#5 v=40
300720 On ch=1 n=a#5 v=0
300720 On ch=1 n=b5 v=40
300960 On ch=1 n=b5 v=0
300960 On ch=1 n=f6 v=0
300960 On ch=1 n=g5 v=40
301920 On ch=1 n=g5 v=0
301920 On ch=1 n=f5 v=40
302400 On ch=1 n=f5 v=0
302400 On ch=1 n=g5 v=40
303360 On ch=1 n=g5 v=0
303360 On ch=1 n=f5 v=40
303840 On ch=1 n=f5 v=0
303840 On ch=1 n=g5 v=40
304740 On ch=1 n=a#5 v=40
304800 On ch=1 n=a#5 v=0
304800 On ch=1 n=g5 v=0
304800 On ch=1 n=g#5 v=40
305280 On ch=1 n=g#5 v=0
305280 On ch=1 n=g5 v=60
305520 On ch=1 n=g5 v=0
305520 On ch=1 n=c#6 v=60
305760 On ch=1 n=c#6 v=0
305760 On ch=1 n=d#6 v=60
306000 On ch=1 n=d#6 v=0
306000 On ch=1 n=g6 v=60
306240 On ch=1 n=g6 v=0
306240 On ch=1 n=c#7 v=60
306480 On ch=1 n=c#7 v=0
306480 On ch=1 n=f7 v=60
306720 On ch=1 n=f7 v=0
306720 On ch=1 n=d7 v=60
306960 On ch=1 n=d7 v=0
306960 On ch=1 n=d#7 v=60
307200 On ch=1 n=d#7 v=0
307200 On ch=1 n=f7 v=60
307440 On ch=1 n=f7 v=0
307440 On ch=1 n=d#7 v=60
307680 On ch=1 n=d#7 v=0
307680 On ch=1 n=g#7 v=60
307920 On ch=1 n=g#7 v=0
307920 On ch=1 n=g#6 v=60
308160 On ch=1 n=g#6 v=0
308160 On ch=1 n=f7 v=60
308400 On ch=1 n=f7 v=0
308400 On ch=1 n=d#7 v=60
308640 On ch=1 n=d#7 v=0
308640 On ch=1 n=c#7 v=60
308880 On ch=1 n=c#7 v=0
308880 On ch=1 n=g6 v=60
309120 On ch=1 n=g6 v=0
309120 On ch=1 n=f6 v=60
309360 On ch=1 n=f6 v=0
309360 On ch=1 n=d#6 v=60
309600 On ch=1 n=d#6 v=0
309600 On ch=1 n=d6 v=60
309840 On ch=1 n=d6 v=0
309840 On ch=1 n=d#6 v=60
310080 On ch=1 n=d#6 v=0
310080 On ch=1 n=f6 v=60
310320 On ch=1 n=f6 v=0
310320 On ch=1 n=d#6 v=60
310560 On ch=1 n=d#6 v=0
310560 On ch=1 n=g#6 v=60
310800 On ch=1 n=g#6 v=0
310800 On ch=1 n=g#5 v=60
311040 On ch=1 n=g#5 v=0
311040 On ch=1 n=a5 v=60
311280 On ch=1 n=a5 v=0
311280 On ch=1 n=d#6 v=62
311520 On ch=1 n=d#6 v=0
311520 On ch=1 n=f#6 v=65
311760 On ch=1 n=f#6 v=0
311760 On ch=1 n=a6 v=68
312000 On ch=1 n=a6 v=0
312000 On ch=1 n=d#7 v=71
312240 On ch=1 n=d#7 v=0
312240 On ch=1 n=f#7 v=74
312480 On ch=1 n=f#7 v=0
312480 On ch=1 n=e7 v=77
312720 On ch=1 n=e7 v=0
312720 On ch=1 n=f7 v=79
312960 On ch=1 n=f7 v=0
312960 On ch=1 n=f#7 v=82
313200 On ch=1 n=f#7 v=0
313200 On ch=1 n=f7 v=85
313440 On ch=1 n=f7 v=0
313440 On ch=1 n=a#7 v=88
313680 On ch=1 n=a#7 v=0
313680 On ch=1 n=a#6 v=91
313920 On ch=1 n=a#6 v=0
313920 On ch=1 n=f#7 v=94
314160 On ch=1 n=f#7 v=0
314160 On ch=1 n=f7 v=97
314400 On ch=1 n=f7 v=0
314400 On ch=1 n=d#7 v=99
314640 On ch=1 n=d#7 v=0
314640 On ch=1 n=a6 v=102
314880 On ch=1 n=a6 v=0
314880 On ch=1 n=f#6 v=105
315120 On ch=1 n=f#6 v=0
315120 On ch=1 n=f6 v=108
315360 On ch=1 n=f6 v=0
315360 On ch=1 n=e6 v=110
315600 On ch=1 n=e6 v=0
315600 On ch=1 n=f6 v=110
315840 On ch=1 n=f6 v=0
315840 On ch=1 n=f#6 v=110
316080 On ch=1 n=f#6 v=0
316080 On ch=1 n=f6 v=110
316320 On ch=1 n=f6 v=0
316320 On ch=1 n=a#6 v=110
316560 On ch=1 n=a#6 v=0
316560 On ch=1 n=a#5 v=110
316800 On ch=1 n=a#5 v=0
316800 On ch=1 n=b5 v=110
317040 On ch=1 n=b5 v=0
317040 On ch=1 n=d6 v=110
317280 On ch=1 n=d6 v=0
317280 On ch=1 n=d#6 v=110
317520 On ch=1 n=d#6 v=0
317520 On ch=1 n=g#6 v=110
317760 On ch=1 n=g#6 v=0
317760 On ch=1 n=b6 v=110
318000 On ch=1 n=b6 v=0
318000 On ch=1 n=b7 v=110
318240 On ch=1 n=b7 v=0
318240 On ch=1 n=a#7 v=110
318480 On ch=1 n=a#7 v=0
318480 On ch=1 n=g#7 v=110
318720 On ch=1 n=g#7 v=0
318720 On ch=1 n=a#7 v=110
318960 On ch=1 n=a#7 v=0
318960 On ch=1 n=g#7 v=110
319200 On ch=1 n=g#7 v=0
319200 On ch=1 n=g7 v=110
319440 On ch=1 n=g7 v=0
319440 On ch=1 n=f7 v=110
319680 On ch=1 n=f7 v=0
319680 On ch=1 n=g7 v=110
319920 On ch=1 n=g7 v=0
319920 On ch=1 n=f7 v=110
320160 On ch=1 n=f7 v=0
320160 On ch=1 n=g7 v=110
320400 On ch=1 n=g7 v=0
320400 On ch=1 n=f7 v=110
320640 On ch=1 n=f7 v=0
320640 On ch=1 n=d#7 v=110
320880 On ch=1 n=d#7 v=0
320880 On ch=1 n=d7 v=110
321120 On ch=1 n=d7 v=0
321120 On ch=1 n=d#7 v=110
321360 On ch=1 n=d#7 v=0
321360 On ch=1 n=d7 v=110
321600 On ch=1 n=d7 v=0
321600 On ch=1 n=d#7 v=110
321840 On ch=1 n=d#7 v=0
321840 On ch=1 n=d7 v=110
322080 On ch=1 n=d7 v=0
322080 On ch=1 n=c#7 v=110
322320 On ch=1 n=c#7 v=0
322320 On ch=1 n=b6 v=110
322560 On ch=1 n=b6 v=0
322560 On ch=1 n=c#7 v=110
322800 On ch=1 n=c#7 v=0
322800 On ch=1 n=b6 v=110
323040 On ch=1 n=b6 v=0
323040 On ch=1 n=c#7 v=110
323280 On ch=1 n=c#7 v=0
323280 On ch=1 n=b6 v=110
323520 On ch=1 n=b6 v=0
323520 On ch=1 n=a#6 v=110
323760 On ch=1 n=a#6 v=0
323760 On ch=1 n=g#6 v=110
324000 On ch=1 n=g#6 v=0
324000 On ch=1 n=a#6 v=110
324240 On ch=1 n=a#6 v=0
324240 On ch=1 n=g#6 v=110
324480 On ch=1 n=g#6 v=0
324480 On ch=1 n=a#6 v=110
324720 On ch=1 n=a#6 v=0
324720 On ch=1 n=g#6 v=110
324960 On ch=1 n=g#6 v=0
324960 On ch=1 n=g6 v=110
325200 On ch=1 n=g6 v=0
325200 On ch=1 n=f6 v=110
325440 On ch=1 n=f6 v=0
325440 On ch=1 n=g6 v=110
325680 On ch=1 n=g6 v=0
325680 On ch=1 n=f6 v=106
325920 On ch=1 n=f6 v=0
325920 On ch=1 n=d#6 v=102
326160 On ch=1 n=d#6 v=0
326160 On ch=1 n=d6 v=98
326400 On ch=1 n=d6 v=0
326400 On ch=1 n=d#6 v=93
326640 On ch=1 n=d#6 v=0
326640 On ch=1 n=d6 v=89
326880 On ch=1 n=d6 v=0
326880 On ch=1 n=c#6 v=85
327120 On ch=1 n=c#6 v=0
327120 On ch=1 n=b5 v=81
327360 On ch=1 n=b5 v=0
327360 On ch=1 n=c#6 v=76
327600 On ch=1 n=c#6 v=0
327600 On ch=1 n=b5 v=72
327840 On ch=1 n=b5 v=0
327840 On ch=1 n=a#5 v=68
328080 On ch=1 n=a#5 v=0
328080 On ch=1 n=g#5 v=63
328320 On ch=1 n=g#5 v=0
328320 On ch=1 n=d#5 v=60
328320 On ch=1 n=a#5 v=60
329760 On ch=1 n=a#5 v=0
329760 On ch=1 n=d#5 v=0
329760 On ch=1 n=c6 v=60
329760 On ch=1 n=g#5 v=60
330480 On ch=1 n=g#5 v=0
330480 On ch=1 n=c6 v=0
330480 On ch=1 n=d#5 v=60
330480 On ch=1 n=a#5 v=60
330720 On ch=1 n=a#5 v=0
330720 On ch=1 n=d#5 v=0
330720 On ch=1 n=c5 v=60
330720 On ch=1 n=g#5 v=60
330960 On ch=1 n=g#5 v=0
330960 On ch=1 n=c5 v=0
331080 On ch=1 n=c#5 v=60
331080 On ch=1 n=f5 v=60
331200 On ch=1 n=f5 v=0
331200 On ch=1 n=c#5 v=0
331200 On ch=1 n=g4 v=60
331200 On ch=1 n=d#5 v=60
331320 On ch=1 n=d#5 v=0
331320 On ch=1 n=g4 v=0
331920 On ch=1 n=g5 v=60
331920 On ch=1 n=f6 v=60
332160 On ch=1 n=f6 v=0
332160 On ch=1 n=g5 v=0
332160 On ch=1 n=a#5 v=60
332160 On ch=1 n=d#6 v=60
332400 On ch=1 n=d#6 v=0
332400 On ch=1 n=a#5 v=0
332520 On ch=1 n=d#5 v=60
332520 On ch=1 n=c#6 v=60
332640 On ch=1 n=c#6 v=0
332640 On ch=1 n=d#5 v=0
332640 On ch=1 n=g#5 v=60
332640 On ch=1 n=c6 v=60
333120 On ch=1 n=c6 v=0
333120 On ch=1 n=g#5 v=0
333360 On ch=1 n=c5 v=60
333360 On ch=1 n=a#5 v=60
333600 On ch=1 n=a#5 v=0
333600 On ch=1 n=c5 v=0
333600 On ch=1 n=d#5 v=60
333600 On ch=1 n=g#5 v=60
333840 On ch=1 n=g#5 v=0
333840 On ch=1 n=d#5 v=0
333960 On ch=1 n=f5 v=60
334080 On ch=1 n=f5 v=0
334080 On ch=1 n=d#5 v=60
334080 On ch=1 n=a#5 v=60
335520 On ch=1 n=a#5 v=0
335520 On ch=1 n=d#5 v=0
335520 On ch=1 n=c6 v=70
335520 On ch=1 n=g#5 v=70
336240 On ch=1 n=g#5 v=0
336240 On ch=1 n=c6 v=0
336240 On ch=1 n=d#5 v=75
336240 On ch=1 n=a#5 v=75
336480 On ch=1 n=a#5 v=0
336480 On ch=1 n=d#5 v=0
336480 On ch=1 n=c5 v=77
336480 On ch=1 n=g#5 v=77
336720 On ch=1 n=g#5 v=0
336720 On ch=1 n=c5 v=0
336840 On ch=1 n=c#5 v=79
336840 On ch=1 n=f5 v=79
336960 On ch=1 n=f5 v=0
336960 On ch=1 n=c#5 v=0
336960 On ch=1 n=g4 v=80
336960 On ch=1 n=d#5 v=80
337080 On ch=1 n=d#5 v=0
337080 On ch=1 n=g4 v=0
337680 On ch=1 n=f7 v=85
337680 On ch=1 n=g6 v=85
337920 On ch=1 n=g6 v=0
337920 On ch=1 n=f7 v=0
337920 On ch=1 n=d#7 v=87
337920 On ch=1 n=a#6 v=87
338160 On ch=1 n=a#6 v=0
338160 On ch=1 n=d#7 v=0
338280 On ch=1 n=c#7 v=89
338280 On ch=1 n=d#6 v=89
338400 On ch=1 n=d#6 v=0
338400 On ch=1 n=c#7 v=0
338400 On ch=1 n=c7 v=90
338400 On ch=1 n=g#6 v=90
338880 On ch=1 n=g#6 v=0
338880 On ch=1 n=c7 v=0
339120 On ch=1 n=a#6 v=95
339120 On ch=1 n=c6 v=95
339360 On ch=1 n=c6 v=0
339360 On ch=1 n=a#6 v=0
339360 On ch=1 n=d#6 v=97
339360 On ch=1 n=g#6 v=97
339600 On ch=1 n=g#6 v=0
339600 On ch=1 n=d#6 v=0
339720 On ch=1 n=d#5 v=100
339720 On ch=1 n=d#6 v=100
339840 On ch=1 n=d#6 v=0
339840 On ch=1 n=d#5 v=0
339840 On ch=1 n=e5 v=101
339840 On ch=1 n=b5 v=101
339840 On ch=1 n=e6 v=101
340320 On ch=1 n=e6 v=0
340320 On ch=1 n=b5 v=0
340320 On ch=1 n=e5 v=0
340680 On ch=1 n=e7 v=107
340680 On ch=1 n=b6 v=107
340680 On ch=1 n=e6 v=107
340800 On ch=1 n=e6 v=0
340800 On ch=1 n=b6 v=0
340800 On ch=1 n=e7 v=0
340800 On ch=1 n=e7 v=107
340800 On ch=1 n=b6 v=107
340800 On ch=1 n=e6 v=107
341280 On ch=1 n=e6 v=0
341280 On ch=1 n=b6 v=0
341280 On ch=1 n=e7 v=0
341280 On ch=1 n=e7 v=111
341280 On ch=1 n=b6 v=111
341280 On ch=1 n=e6 v=111
342000 On ch=1 n=e6 v=0
342000 On ch=1 n=b6 v=0
342000 On ch=1 n=e7 v=0
342000 On ch=1 n=e7 v=116
342000 On ch=1 n=c#7 v=116
342000 On ch=1 n=e6 v=116
342240 On ch=1 n=e6 v=0
342240 On ch=1 n=c#7 v=0
342240 On ch=1 n=e7 v=0
342240 On ch=1 n=e7 v=118
342240 On ch=1 n=b6 v=118
342240 On ch=1 n=e6 v=118
342720 On ch=1 n=e6 v=0
342720 On ch=1 n=b6 v=0
342720 On ch=1 n=e7 v=0
342720 On ch=1 n=e7 v=120
342720 On ch=1 n=b6 v=120
342720 On ch=1 n=e6 v=120
342840 On ch=1 n=e6 v=0
342840 On ch=1 n=b6 v=0
342840 On ch=1 n=e7 v=0
345600 On ch=1 n=d#5 v=60
345840 On ch=1 n=d#5 v=0
345840 On ch=1 n=e5 v=60
346080 On ch=1 n=e5 v=0
346080 On ch=1 n=f#5 v=60
346320 On ch=1 n=f#5 v=0
346320 On ch=1 n=g#5 v=60
346560 On ch=1 n=g#5 v=0
346560 On ch=1 n=a5 v=60
346800 On ch=1 n=a5 v=0
346800 On ch=1 n=b5 v=60
347040 On ch=1 n=b5 v=0
347040 On ch=1 n=c#6 v=60
347280 On ch=1 n=c#6 v=0
347280 On ch=1 n=d6 v=60
347520 On ch=1 n=d6 v=0
347520 On ch=1 n=d#6 v=60
347760 On ch=1 n=d#6 v=0
347760 On ch=1 n=e6 v=60
348000 On ch=1 n=e6 v=0
348000 On ch=1 n=f#6 v=60
348240 On ch=1 n=f#6 v=0
348240 On ch=1 n=g#6 v=60
348480 On ch=1 n=g#6 v=0
348480 On ch=1 n=a6 v=60
348720 On ch=1 n=a6 v=0
348720 On ch=1 n=b6 v=60
348960 On ch=1 n=b6 v=0
348960 On ch=1 n=c#7 v=60
349200 On ch=1 n=c#7 v=0
349200 On ch=1 n=d7 v=60
349440 On ch=1 n=d7 v=0
349440 On ch=1 n=d#7 v=60
349680 On ch=1 n=d#7 v=0
349680 On ch=1 n=e7 v=60
349920 On ch=1 n=e7 v=0
349920 On ch=1 n=a7 v=60
350040 On ch=1 n=a7 v=0
350880 On ch=1 n=g#6 v=60
350880 On ch=1 n=g#5 v=60
351360 On ch=1 n=g#5 v=0
351360 On ch=1 n=g#6 v=0
351360 On ch=1 n=a#5 v=60
351360 On ch=1 n=d#5 v=60
352800 On ch=1 n=d#5 v=0
352800 On ch=1 n=a#5 v=0
352800 On ch=1 n=c6 v=60
352800 On ch=1 n=g#5 v=60
353520 On ch=1 n=g#5 v=0
353520 On ch=1 n=c6 v=0
353520 On ch=1 n=d#5 v=60
353520 On ch=1 n=a#5 v=60
353760 On ch=1 n=a#5 v=0
353760 On ch=1 n=d#5 v=0
353760 On ch=1 n=c5 v=60
353760 On ch=1 n=g#5 v=60
354000 On ch=1 n=g#5 v=0
354000 On ch=1 n=c5 v=0
354120 On ch=1 n=c#5 v=60
354120 On ch=1 n=f5 v=60
354240 On ch=1 n=f5 v=0
354240 On ch=1 n=c#5 v=0
354240 On ch=1 n=g4 v=60
354240 On ch=1 n=d#5 v=60
354360 On ch=1 n=d#5 v=0
354360 On ch=1 n=g4 v=0
354960 On ch=1 n=g5 v=60
354960 On ch=1 n=f6 v=60
355200 On ch=1 n=f6 v=0
355200 On ch=1 n=g5 v=0
355200 On ch=1 n=a#5 v=60
355200 On ch=1 n=d#6 v=60
355440 On ch=1 n=d#6 v=0
355440 On ch=1 n=a#5 v=0
355560 On ch=1 n=d#5 v=60
355560 On ch=1 n=c#6 v=60
355680 On ch=1 n=c#6 v=0
355680 On ch=1 n=d#5 v=0
355680 On ch=1 n=g#5 v=60
355680 On ch=1 n=c6 v=60
356160 On ch=1 n=c6 v=0
356160 On ch=1 n=g#5 v=0
356400 On ch=1 n=c5 v=60
356400 On ch=1 n=a#5 v=60
356640 On ch=1 n=a#5 v=0
356640 On ch=1 n=c5 v=0
356640 On ch=1 n=g#5 v=60
356640 On ch=1 n=d#5 v=60
356880 On ch=1 n=d#5 v=0
356880 On ch=1 n=g#5 v=0
357000 On ch=1 n=f5 v=60
357120 On ch=1 n=f5 v=0
357120 On ch=1 n=a#5 v=60
357120 On ch=1 n=d#5 v=60
358560 On ch=1 n=d#5 v=0
358560 On ch=1 n=a#5 v=0
358560 On ch=1 n=c6 v=65
358560 On ch=1 n=g#5 v=65
359280 On ch=1 n=g#5 v=0
359280 On ch=1 n=c6 v=0
359280 On ch=1 n=d#5 v=67
359280 On ch=1 n=a#5 v=67
359520 On ch=1 n=a#5 v=0
359520 On ch=1 n=d#5 v=0
359520 On ch=1 n=c5 v=68
359520 On ch=1 n=g#5 v=68
359760 On ch=1 n=g#5 v=0
359760 On ch=1 n=c5 v=0
359880 On ch=1 n=c#5 v=69
359880 On ch=1 n=f5 v=69
360000 On ch=1 n=f5 v=0
360000 On ch=1 n=c#5 v=0
360000 On ch=1 n=g4 v=70
360000 On ch=1 n=d#5 v=70
360120 On ch=1 n=d#5 v=0
360120 On ch=1 n=g4 v=0
360720 On ch=1 n=f7 v=72
360720 On ch=1 n=g6 v=72
360960 On ch=1 n=g6 v=0
360960 On ch=1 n=f7 v=0
360960 On ch=1 n=a#6 v=73
360960 On ch=1 n=d#7 v=73
361200 On ch=1 n=d#7 v=0
361200 On ch=1 n=a#6 v=0
361320 On ch=1 n=c#7 v=74
361320 On ch=1 n=d#6 v=74
361440 On ch=1 n=d#6 v=0
361440 On ch=1 n=c#7 v=0
361440 On ch=1 n=c7 v=75
361440 On ch=1 n=g#6 v=75
361920 On ch=1 n=g#6 v=0
361920 On ch=1 n=c7 v=0
362160 On ch=1 n=c6 v=77
362160 On ch=1 n=a#6 v=77
362400 On ch=1 n=a#6 v=0
362400 On ch=1 n=c6 v=0
362400 On ch=1 n=d#6 v=78
362400 On ch=1 n=g#6 v=78
362640 On ch=1 n=g#6 v=0
362640 On ch=1 n=d#6 v=0
362760 On ch=1 n=f6 v=80
362880 On ch=1 n=f6 v=0
362880 On ch=1 n=g#6 v=80
362880 On ch=1 n=d#6 v=80
362880 On ch=1 n=g#5 v=80
364320 On ch=1 n=g#5 v=0
364320 On ch=1 n=d#6 v=0
364320 On ch=1 n=g#6 v=0
364320 On ch=1 n=g#6 v=85
364320 On ch=1 n=f6 v=85
364320 On ch=1 n=g#5 v=85
365040 On ch=1 n=g#5 v=0
365040 On ch=1 n=f6 v=0
365040 On ch=1 n=g#6 v=0
365040 On ch=1 n=g#6 v=88
365040 On ch=1 n=d#6 v=88
365040 On ch=1 n=g#5 v=88
365280 On ch=1 n=g#5 v=0
365280 On ch=1 n=d#6 v=0
365280 On ch=1 n=g#6 v=0
365280 On ch=1 n=g#5 v=89
365280 On ch=1 n=c#6 v=89
365280 On ch=1 n=g#6 v=89
365520 On ch=1 n=g#6 v=0
365520 On ch=1 n=c#6 v=0
365520 On ch=1 n=g#5 v=0
365640 On ch=1 n=g#6 v=90
365640 On ch=1 n=a#5 v=90
365760 On ch=1 n=a#5 v=0
365760 On ch=1 n=g#6 v=0
365760 On ch=1 n=g#5 v=90
365760 On ch=1 n=c6 v=90
365760 On ch=1 n=f#6 v=90
365760 On ch=1 n=g#6 v=90
365880 On ch=1 n=g#6 v=0
365880 On ch=1 n=f#6 v=0
365880 On ch=1 n=c6 v=0
365880 On ch=1 n=g#5 v=0
366480 On ch=1 n=a#7 v=93
366480 On ch=1 n=c7 v=93
366720 On ch=1 n=c7 v=0
366720 On ch=1 n=a#7 v=0
366720 On ch=1 n=d#7 v=94
366720 On ch=1 n=g#7 v=94
366960 On ch=1 n=g#7 v=0
366960 On ch=1 n=d#7 v=0
367080 On ch=1 n=f#7 v=95
367080 On ch=1 n=g#6 v=95
367200 On ch=1 n=g#6 v=0
367200 On ch=1 n=f#7 v=0
367200 On ch=1 n=f7 v=95
367200 On ch=1 n=c#7 v=95
367680 On ch=1 n=c#7 v=0
367680 On ch=1 n=f7 v=0
367920 On ch=1 n=d#7 v=98
367920 On ch=1 n=f6 v=98
368160 On ch=1 n=f6 v=0
368160 On ch=1 n=d#7 v=0
368160 On ch=1 n=g#6 v=99
368160 On ch=1 n=c#7 v=99
368400 On ch=1 n=c#7 v=0
368400 On ch=1 n=g#6 v=0
368520 On ch=1 n=g#5 v=100
368520 On ch=1 n=g#6 v=100
368640 On ch=1 n=g#6 v=0
368640 On ch=1 n=g#5 v=0
368640 On ch=1 n=a6 v=101
368640 On ch=1 n=e6 v=101
368640 On ch=1 n=a5 v=101
370080 On ch=1 n=a5 v=0
370080 On ch=1 n=e6 v=0
370080 On ch=1 n=a6 v=0
370080 On ch=1 n=a6 v=106
370080 On ch=1 n=f#6 v=106
370080 On ch=1 n=a5 v=106
370800 On ch=1 n=a5 v=0
370800 On ch=1 n=f#6 v=0
370800 On ch=1 n=a6 v=0
370800 On ch=1 n=a6 v=108
370800 On ch=1 n=e6 v=108
370800 On ch=1 n=a5 v=108
371040 On ch=1 n=a5 v=0
371040 On ch=1 n=e6 v=0
371040 On ch=1 n=a6 v=0
371040 On ch=1 n=a5 v=109
371040 On ch=1 n=d6 v=109
371040 On ch=1 n=a6 v=109
371280 On ch=1 n=a6 v=0
371280 On ch=1 n=d6 v=0
371280 On ch=1 n=a5 v=0
371400 On ch=1 n=a#6 v=110
371400 On ch=1 n=a#5 v=110
371520 On ch=1 n=a#5 v=0
371520 On ch=1 n=a#6 v=0
371520 On ch=1 n=a#6 v=111
371520 On ch=1 n=f6 v=111
371520 On ch=1 n=d6 v=111
371520 On ch=1 n=a#5 v=111
371640 On ch=1 n=a#5 v=0
371640 On ch=1 n=d6 v=0
371640 On ch=1 n=f6 v=0
371640 On ch=1 n=a#6 v=0
372240 On ch=1 n=b6 v=113
372240 On ch=1 n=f6 v=113
372240 On ch=1 n=d6 v=113
372240 On ch=1 n=b5 v=113
372480 On ch=1 n=b5 v=0
372480 On ch=1 n=d6 v=0
372480 On ch=1 n=f6 v=0
372480 On ch=1 n=b6 v=0
372480 On ch=1 n=b6 v=114
372480 On ch=1 n=f#6 v=114
372480 On ch=1 n=d6 v=114
372480 On ch=1 n=b5 v=114
372960 On ch=1 n=b5 v=0
372960 On ch=1 n=d6 v=0
372960 On ch=1 n=f#6 v=0
372960 On ch=1 n=b6 v=0
372960 On ch=1 n=b6 v=116
372960 On ch=1 n=g6 v=116
372960 On ch=1 n=d6 v=116
372960 On ch=1 n=b5 v=116
373440 On ch=1 n=b5 v=0
373440 On ch=1 n=d6 v=0
373440 On ch=1 n=g6 v=0
373440 On ch=1 n=b6 v=0
373680 On ch=1 n=b6 v=119
373680 On ch=1 n=g6 v=119
373680 On ch=1 n=d6 v=119
373680 On ch=1 n=b5 v=119
373920 On ch=1 n=b5 v=0
373920 On ch=1 n=d6 v=0
373920 On ch=1 n=g6 v=0
373920 On ch=1 n=b6 v=0
373920 On ch=1 n=b6 v=119
373920 On ch=1 n=g#6 v=119
373920 On ch=1 n=d6 v=119
373920 On ch=1 n=b5 v=119
374400 On ch=1 n=b5 v=0
374400 On ch=1 n=d6 v=0
374400 On ch=1 n=g#6 v=0
374400 On ch=1 n=b6 v=0
374400 On ch=1 n=d#7 v=120
374400 On ch=1 n=d#6 v=120
374520 On ch=1 n=d#6 v=0
374520 On ch=1 n=d#7 v=0
374880 On ch=1 n=g5 v=60
375120 On ch=1 n=g5 v=0
375120 On ch=1 n=c#6 v=60
375360 On ch=1 n=c#6 v=0
375360 On ch=1 n=g6 v=60
375600 On ch=1 n=g6 v=0
375600 On ch=1 n=f7 v=60
375840 On ch=1 n=f7 v=0
375840 On ch=1 n=d7 v=60
376080 On ch=1 n=d7 v=0
376080 On ch=1 n=d#7 v=60
376320 On ch=1 n=d#7 v=0
376320 On ch=1 n=f7 v=60
376560 On ch=1 n=f7 v=0
376560 On ch=1 n=d#7 v=60
376800 On ch=1 n=d#7 v=0
376800 On ch=1 n=g#7 v=60
377040 On ch=1 n=g#7 v=0
377040 On ch=1 n=g#6 v=60
377280 On ch=1 n=g#6 v=0
377280 On ch=1 n=f7 v=60
377520 On ch=1 n=f7 v=0
377520 On ch=1 n=d#7 v=60
377760 On ch=1 n=d#7 v=0
377760 On ch=1 n=c#7 v=60
378000 On ch=1 n=c#7 v=0
378000 On ch=1 n=g6 v=60
378240 On ch=1 n=g6 v=0
378240 On ch=1 n=f6 v=60
378480 On ch=1 n=f6 v=0
378480 On ch=1 n=d#6 v=60
378720 On ch=1 n=d#6 v=0
378720 On ch=1 n=d6 v=60
378960 On ch=1 n=d6 v=0
378960 On ch=1 n=d#6 v=60
379200 On ch=1 n=d#6 v=0
379200 On ch=1 n=f6 v=60
379440 On ch=1 n=f6 v=0
379440 On ch=1 n=d#6 v=60
379680 On ch=1 n=d#6 v=0
379680 On ch=1 n=g#6 v=60
379920 On ch=1 n=g#6 v=0
379920 On ch=1 n=g#5 v=60
380160 On ch=1 n=g#5 v=0
380160 On ch=1 n=g5 v=60
380400 On ch=1 n=g5 v=0
380400 On ch=1 n=c#6 v=61
380640 On ch=1 n=c#6 v=0
380640 On ch=1 n=d#6 v=63
380880 On ch=1 n=d#6 v=0
380880 On ch=1 n=g6 v=65
381120 On ch=1 n=g6 v=0
381120 On ch=1 n=c#7 v=66
381360 On ch=1 n=c#7 v=0
381360 On ch=1 n=f7 v=68
381600 On ch=1 n=f7 v=0
381600 On ch=1 n=d7 v=70
381840 On ch=1 n=d7 v=0
381840 On ch=1 n=d#7 v=71
382080 On ch=1 n=d#7 v=0
382080 On ch=1 n=f7 v=73
382320 On ch=1 n=f7 v=0
382320 On ch=1 n=d#7 v=75
382560 On ch=1 n=d#7 v=0
382560 On ch=1 n=c8 v=77
382800 On ch=1 n=c8 v=0
382800 On ch=1 n=c7 v=78
383040 On ch=1 n=c7 v=0
383040 On ch=1 n=f7 v=80
383280 On ch=1 n=f7 v=0
383280 On ch=1 n=d#7 v=82
383520 On ch=1 n=d#7 v=0
383520 On ch=1 n=c#7 v=83
383760 On ch=1 n=c#7 v=0
383760 On ch=1 n=g6 v=85
384000 On ch=1 n=g6 v=0
384000 On ch=1 n=f6 v=87
384240 On ch=1 n=f6 v=0
384240 On ch=1 n=d#6 v=89
384480 On ch=1 n=d#6 v=0
384480 On ch=1 n=c#6 v=90
384720 On ch=1 n=c#6 v=0
384720 On ch=1 n=c6 v=92
384960 On ch=1 n=c6 v=0
384960 On ch=1 n=a#5 v=94
385200 On ch=1 n=a#5 v=0
385200 On ch=1 n=g#5 v=95
385440 On ch=1 n=g#5 v=0
385440 On ch=1 n=g5 v=97
385680 On ch=1 n=g5 v=0
385680 On ch=1 n=f5 v=99
385920 On ch=1 n=f5 v=0
385920 On ch=1 n=d#5 v=100
386160 On ch=1 n=d#5 v=0
386160 On ch=1 n=g5 v=100
386400 On ch=1 n=g5 v=0
386400 On ch=1 n=c#6 v=100
386640 On ch=1 n=c#6 v=0
386640 On ch=1 n=d#6 v=100
386880 On ch=1 n=d#6 v=0
386880 On ch=1 n=g6 v=100
387120 On ch=1 n=g6 v=0
387120 On ch=1 n=f7 v=100
387360 On ch=1 n=f7 v=0
387360 On ch=1 n=d7 v=100
387600 On ch=1 n=d7 v=0
387600 On ch=1 n=d#7 v=100
387840 On ch=1 n=d#7 v=0
387840 On ch=1 n=f7 v=100
388080 On ch=1 n=f7 v=0
388080 On ch=1 n=d#7 v=100
388320 On ch=1 n=d#7 v=0
388320 On ch=1 n=g#7 v=100
388560 On ch=1 n=g#7 v=0
388560 On ch=1 n=g#6 v=100
388800 On ch=1 n=g#6 v=0
388800 On ch=1 n=f7 v=100
389040 On ch=1 n=f7 v=0
389040 On ch=1 n=d#7 v=100
389280 On ch=1 n=d#7 v=0
389280 On ch=1 n=c#7 v=100
389520 On ch=1 n=c#7 v=0
389520 On ch=1 n=g6 v=100
389760 On ch=1 n=g6 v=0
389760 On ch=1 n=f6 v=100
390000 On ch=1 n=f6 v=0
390000 On ch=1 n=d#6 v=100
390240 On ch=1 n=d#6 v=0
390240 On ch=1 n=d6 v=100
390480 On ch=1 n=d6 v=0
390480 On ch=1 n=d#6 v=100
390720 On ch=1 n=d#6 v=0
390720 On ch=1 n=f6 v=100
390960 On ch=1 n=f6 v=0
390960 On ch=1 n=d#6 v=100
391200 On ch=1 n=d#6 v=0
391200 On ch=1 n=g#6 v=100
391440 On ch=1 n=g#6 v=0
391440 On ch=1 n=g#5 v=100
391680 On ch=1 n=g#5 v=0
391680 On ch=1 n=g5 v=110
391920 On ch=1 n=g5 v=0
391920 On ch=1 n=c#6 v=110
392160 On ch=1 n=c#6 v=0
392160 On ch=1 n=f6 v=111
392400 On ch=1 n=f6 v=0
392400 On ch=1 n=d#6 v=112
392640 On ch=1 n=d#6 v=0
392640 On ch=1 n=g6 v=113
392880 On ch=1 n=g6 v=0
392880 On ch=1 n=c#7 v=114
393120 On ch=1 n=c#7 v=0
393120 On ch=1 n=f7 v=115
393360 On ch=1 n=f7 v=0
393360 On ch=1 n=d#7 v=116
393600 On ch=1 n=d#7 v=0
393600 On ch=1 n=g7 v=117
393840 On ch=1 n=g7 v=0
393840 On ch=1 n=c#8 v=118
394080 On ch=1 n=c#8 v=0
394080 On ch=1 n=f8 v=119
394320 On ch=1 n=f8 v=0
394320 On ch=1 n=d#8 v=120
394560 On ch=1 n=d#8 v=0
394560 On ch=1 n=c#8 v=120
394800 On ch=1 n=c#8 v=0
394800 On ch=1 n=g7 v=119
395040 On ch=1 n=g7 v=0
395040 On ch=1 n=f7 v=117
395280 On ch=1 n=f7 v=0
395280 On ch=1 n=d#7 v=115
395520 On ch=1 n=d#7 v=0
395520 On ch=1 n=c#7 v=113
395760 On ch=1 n=c#7 v=0
395760 On ch=1 n=g6 v=112
396000 On ch=1 n=g6 v=0
396000 On ch=1 n=f6 v=110
396240 On ch=1 n=f6 v=0
396240 On ch=1 n=d#6 v=108
396480 On ch=1 n=d#6 v=0
396480 On ch=1 n=c#6 v=106
396720 On ch=1 n=c#6 v=0
396720 On ch=1 n=g5 v=105
396960 On ch=1 n=g5 v=0
396960 On ch=1 n=f5 v=103
397200 On ch=1 n=f5 v=0
397200 On ch=1 n=d#5 v=101
397440 On ch=1 n=d#5 v=0
397440 On ch=1 n=c6 v=100
397440 On ch=1 n=g#5 v=100
397680 On ch=1 n=g#5 v=0
397680 On ch=1 n=c6 v=0
397680 On ch=1 n=d5 v=100
397920 On ch=1 n=d5 v=0
397920 On ch=1 n=d#5 v=100
398160 On ch=1 n=d#5 v=0
398160 On ch=1 n=c6 v=100
398160 On ch=1 n=g#5 v=100
398400 On ch=1 n=g#5 v=0
398400 On ch=1 n=c6 v=0
398400 On ch=1 n=d#5 v=100
398640 On ch=1 n=d#5 v=0
398640 On ch=1 n=e5 v=100
398880 On ch=1 n=e5 v=0
398880 On ch=1 n=c6 v=100
398880 On ch=1 n=g#5 v=100
399120 On ch=1 n=g#5 v=0
399120 On ch=1 n=c6 v=0
399120 On ch=1 n=d5 v=100
399360 On ch=1 n=d5 v=0
399360 On ch=1 n=d#5 v=100
399600 On ch=1 n=d#5 v=0
399600 On ch=1 n=c6 v=100
399600 On ch=1 n=g#5 v=100
399840 On ch=1 n=g#5 v=0
399840 On ch=1 n=c6 v=0
399840 On ch=1 n=d#5 v=100
400080 On ch=1 n=d#5 v=0
400080 On ch=1 n=e5 v=100
400320 On ch=1 n=e5 v=0
400320 On ch=1 n=c6 v=100
400320 On ch=1 n=g#5 v=100
400560 On ch=1 n=g#5 v=0
400560 On ch=1 n=c6 v=0
400560 On ch=1 n=d5 v=100
400800 On ch=1 n=d5 v=0
400800 On ch=1 n=d#5 v=100
401040 On ch=1 n=d#5 v=0
401040 On ch=1 n=c6 v=100
401040 On ch=1 n=g#5 v=100
401280 On ch=1 n=g#5 v=0
401280 On ch=1 n=c6 v=0
401280 On ch=1 n=d#5 v=100
401520 On ch=1 n=d#5 v=0
401520 On ch=1 n=e5 v=100
401760 On ch=1 n=e5 v=0
401760 On ch=1 n=c6 v=100
401760 On ch=1 n=g#5 v=100
402000 On ch=1 n=g#5 v=0
402000 On ch=1 n=c6 v=0
402000 On ch=1 n=d5 v=100
402240 On ch=1 n=d5 v=0
402240 On ch=1 n=d#5 v=100
402480 On ch=1 n=d#5 v=0
402480 On ch=1 n=c6 v=100
402480 On ch=1 n=g#5 v=100
402720 On ch=1 n=g#5 v=0
402720 On ch=1 n=c6 v=0
402720 On ch=1 n=d#5 v=100
402960 On ch=1 n=d#5 v=0
402960 On ch=1 n=e5 v=100
403200 On ch=1 n=e5 v=0
403200 On ch=1 n=c6 v=100
403200 On ch=1 n=g#5 v=100
403440 On ch=1 n=g#5 v=0
403440 On ch=1 n=c6 v=0
403440 On ch=1 n=d5 v=100
403680 On ch=1 n=d5 v=0
403680 On ch=1 n=d#5 v=101
403920 On ch=1 n=d#5 v=0
403920 On ch=1 n=g#5 v=102
404160 On ch=1 n=g#5 v=0
404160 On ch=1 n=d6 v=103
404400 On ch=1 n=d6 v=0
404400 On ch=1 n=d#6 v=104
404640 On ch=1 n=d#6 v=0
404640 On ch=1 n=c7 v=105
404640 On ch=1 n=g#6 v=105
404880 On ch=1 n=g#6 v=0
404880 On ch=1 n=c7 v=0
404880 On ch=1 n=d6 v=106
405120 On ch=1 n=d6 v=0
405120 On ch=1 n=d#6 v=107
405360 On ch=1 n=d#6 v=0
405360 On ch=1 n=g#6 v=108
405600 On ch=1 n=g#6 v=0
405600 On ch=1 n=d7 v=109
405840 On ch=1 n=d7 v=0
405840 On ch=1 n=d#7 v=110
406080 On ch=1 n=d#7 v=0
406080 On ch=1 n=c8 v=110
406080 On ch=1 n=g#7 v=110
406320 On ch=1 n=g#7 v=0
406320 On ch=1 n=c8 v=0
406320 On ch=1 n=d#7 v=110
406560 On ch=1 n=d#7 v=0
406560 On ch=1 n=c7 v=110
406800 On ch=1 n=c7 v=0
406800 On ch=1 n=d#6 v=110
407040 On ch=1 n=d#6 v=0
407040 On ch=1 n=c7 v=110
407040 On ch=1 n=g#6 v=110
407280 On ch=1 n=g#6 v=0
407280 On ch=1 n=c7 v=0
407280 On ch=1 n=d#6 v=110
407520 On ch=1 n=d#6 v=0
407520 On ch=1 n=c6 v=110
407760 On ch=1 n=c6 v=0
407760 On ch=1 n=d#5 v=110
408000 On ch=1 n=d#5 v=0
408000 On ch=1 n=c6 v=110
408000 On ch=1 n=g#5 v=110
408240 On ch=1 n=g#5 v=0
408240 On ch=1 n=c6 v=0
408240 On ch=1 n=d#5 v=110
408480 On ch=1 n=d#5 v=0
408480 On ch=1 n=c5 v=110
408720 On ch=1 n=c5 v=0
410400 On ch=1 n=g#7 v=110
410400 On ch=1 n=d#7 v=110
410400 On ch=1 n=g#6 v=110
410880 On ch=1 n=g#6 v=0
410880 On ch=1 n=d#7 v=0
410880 On ch=1 n=g#7 v=0
411840 On ch=1 n=c5 v=110
411840 On ch=1 n=d#5 v=110
411840 On ch=1 n=g#5 v=110
411840 On ch=1 n=c6 v=110
412320 On ch=1 n=c6 v=0
412320 On ch=1 n=g#5 v=0
412320 On ch=1 n=d#5 v=0
412320 On ch=1 n=c5 v=0
412320 Meta TrkEnd
TrkEnd
MTrk
0 SeqSpec 43 00 01 00
0 Meta TrkName "Lower Treble"
0 Meta 0x21 00
0 PrCh ch=1 p=0
35040 On ch=1 n=d#5 v=40
35040 On ch=1 n=g#5 v=40
35040 On ch=1 n=c6 v=40
35520 On ch=1 n=c6 v=0
35520 On ch=1 n=g#5 v=0
35520 On ch=1 n=d#5 v=0
35520 On ch=1 n=d#5 v=40
35520 On ch=1 n=g#5 v=40
35520 On ch=1 n=c6 v=40
36000 On ch=1 n=c6 v=0
36000 On ch=1 n=g#5 v=0
36000 On ch=1 n=d#5 v=0
45120 On ch=1 n=d#5 v=40
45120 On ch=1 n=g#5 v=40
45600 On ch=1 n=g#5 v=0
45600 On ch=1 n=d#5 v=0
45600 On ch=1 n=d#5 v=40
45600 On ch=1 n=g#5 v=40
46080 On ch=1 n=g#5 v=0
46080 On ch=1 n=d#5 v=0
46560 On ch=1 n=c5 v=40
46560 On ch=1 n=f5 v=40
46560 On ch=1 n=g#5 v=40
47040 On ch=1 n=g#5 v=0
47040 On ch=1 n=f5 v=0
47040 On ch=1 n=c5 v=0
47040 On ch=1 n=c5 v=40
47040 On ch=1 n=f5 v=40
47040 On ch=1 n=g#5 v=40
47520 On ch=1 n=g#5 v=0
47520 On ch=1 n=f5 v=0
47520 On ch=1 n=c5 v=0
48000 On ch=1 n=c#5 v=40
48000 On ch=1 n=f5 v=40
48000 On ch=1 n=a#5 v=40
48480 On ch=1 n=a#5 v=0
48480 On ch=1 n=f5 v=0
48480 On ch=1 n=c#5 v=0
48480 On ch=1 n=c#5 v=40
48480 On ch=1 n=f5 v=40
48480 On ch=1 n=a#5 v=40
48960 On ch=1 n=a#5 v=0
48960 On ch=1 n=f5 v=0
48960 On ch=1 n=c#5 v=0
59520 On ch=1 n=c5 v=60
59520 On ch=1 n=d#5 v=60
59520 On ch=1 n=g#5 v=60
60000 On ch=1 n=g#5 v=0
60000 On ch=1 n=d#5 v=0
60000 On ch=1 n=c5 v=0
60000 On ch=1 n=c5 v=60
60000 On ch=1 n=d#5 v=60
60000 On ch=1 n=g#5 v=60
60480 On ch=1 n=g#5 v=0
60480 On ch=1 n=d#5 v=0
60480 On ch=1 n=c5 v=0
65280 On ch=1 n=d#5 v=60
65280 On ch=1 n=f#5 v=60
65280 On ch=1 n=c6 v=60
65760 On ch=1 n=c6 v=0
65760 On ch=1 n=f#5 v=0
65760 On ch=1 n=d#5 v=0
65760 On ch=1 n=a4 v=60
66240 On ch=1 n=a4 v=0
66240 On ch=1 n=a#4 v=70
66720 On ch=1 n=a#4 v=0
66720 On ch=1 n=c#6 v=60
66720 On ch=1 n=g5 v=60
66720 On ch=1 n=d#5 v=60
67200 On ch=1 n=d#5 v=0
67200 On ch=1 n=g5 v=0
67200 On ch=1 n=c#6 v=0
71040 On ch=1 n=c5 v=60
71040 On ch=1 n=d#5 v=60
71040 On ch=1 n=g#5 v=60
71520 On ch=1 n=g#5 v=0
71520 On ch=1 n=d#5 v=0
71520 On ch=1 n=c5 v=0
71520 On ch=1 n=c5 v=60
71520 On ch=1 n=d#5 v=60
71520 On ch=1 n=g#5 v=60
72000 On ch=1 n=g#5 v=0
72000 On ch=1 n=d#5 v=0
72000 On ch=1 n=c5 v=0
76800 On ch=1 n=d#5 v=60
76800 On ch=1 n=f#5 v=60
76800 On ch=1 n=c6 v=60
77280 On ch=1 n=c6 v=0
77280 On ch=1 n=f#5 v=0
77280 On ch=1 n=d#5 v=0
77280 On ch=1 n=a4 v=60
77760 On ch=1 n=a4 v=0
77760 On ch=1 n=a#4 v=70
78240 On ch=1 n=a#4 v=0
78240 On ch=1 n=c#6 v=60
78240 On ch=1 n=g5 v=60
78240 On ch=1 n=d#5 v=60
78720 On ch=1 n=d#5 v=0
78720 On ch=1 n=g5 v=0
78720 On ch=1 n=c#6 v=0
105600 On ch=1 n=c5 v=60
105600 On ch=1 n=d#5 v=60
105600 On ch=1 n=g#5 v=60
106080 On ch=1 n=g#5 v=0
106080 On ch=1 n=d#5 v=0
106080 On ch=1 n=c5 v=0
106080 On ch=1 n=c5 v=60
106080 On ch=1 n=d#5 v=60
106080 On ch=1 n=g#5 v=60
106560 On ch=1 n=g#5 v=0
106560 On ch=1 n=d#5 v=0
106560 On ch=1 n=c5 v=0
111360 On ch=1 n=d#5 v=60
111360 On ch=1 n=f#5 v=60
111360 On ch=1 n=c6 v=60
111840 On ch=1 n=c6 v=0
111840 On ch=1 n=f#5 v=0
111840 On ch=1 n=d#5 v=0
111840 On ch=1 n=a4 v=60
112320 On ch=1 n=a4 v=0
112320 On ch=1 n=a#4 v=70
112800 On ch=1 n=a#4 v=0
112800 On ch=1 n=c#6 v=60
112800 On ch=1 n=g5 v=60
112800 On ch=1 n=d#5 v=60
113280 On ch=1 n=d#5 v=0
113280 On ch=1 n=g5 v=0
113280 On ch=1 n=c#6 v=0
122880 On ch=1 n=d#5 v=60
122880 On ch=1 n=f#5 v=60
122880 On ch=1 n=c6 v=60
123360 On ch=1 n=c6 v=0
123360 On ch=1 n=f#5 v=0
123360 On ch=1 n=d#5 v=0
123360 On ch=1 n=a4 v=60
123840 On ch=1 n=a4 v=0
123840 On ch=1 n=a#4 v=70
124320 On ch=1 n=a#4 v=0
124320 On ch=1 n=c#6 v=60
124320 On ch=1 n=g5 v=60
124320 On ch=1 n=d#5 v=60
124800 On ch=1 n=d#5 v=0
124800 On ch=1 n=g5 v=0
124800 On ch=1 n=c#6 v=0
141600 On ch=1 n=c#5 v=96
141600 On ch=1 n=d#5 v=96
141600 On ch=1 n=a#5 v=96
142080 On ch=1 n=a#5 v=0
142080 On ch=1 n=d#5 v=0
142080 On ch=1 n=c#5 v=0
142080 On ch=1 n=g5 v=97
142080 On ch=1 n=c#5 v=97
142080 On ch=1 n=d#5 v=97
142560 On ch=1 n=d#5 v=0
142560 On ch=1 n=c#5 v=0
142560 On ch=1 n=g5 v=0
142560 On ch=1 n=g#4 v=108
143040 On ch=1 n=g#4 v=0
143040 On ch=1 n=g#5 v=99
143040 On ch=1 n=d#5 v=99
143040 On ch=1 n=c5 v=99
143520 On ch=1 n=c5 v=0
143520 On ch=1 n=d#5 v=0
143520 On ch=1 n=g#5 v=0
143520 On ch=1 n=c#5 v=101
143520 On ch=1 n=f5 v=101
143520 On ch=1 n=g#5 v=101
144000 On ch=1 n=g#5 v=0
144000 On ch=1 n=f5 v=0
144000 On ch=1 n=c#5 v=0
151200 On ch=1 n=g#4 v=70
151680 On ch=1 n=g#4 v=0
151680 On ch=1 n=c5 v=60
151680 On ch=1 n=d#5 v=60
151680 On ch=1 n=g#5 v=60
152160 On ch=1 n=g#5 v=0
152160 On ch=1 n=d#5 v=0
152160 On ch=1 n=c5 v=0
152160 On ch=1 n=c5 v=60
152160 On ch=1 n=d#5 v=60
152160 On ch=1 n=g#5 v=60
152640 On ch=1 n=g#5 v=0
152640 On ch=1 n=d#5 v=0
152640 On ch=1 n=c5 v=0
157440 On ch=1 n=d#5 v=60
157440 On ch=1 n=f#5 v=60
157440 On ch=1 n=c6 v=60
157920 On ch=1 n=c6 v=0
157920 On ch=1 n=f#5 v=0
157920 On ch=1 n=d#5 v=0
157920 On ch=1 n=a4 v=60
158400 On ch=1 n=a4 v=0
158400 On ch=1 n=a#4 v=70
158880 On ch=1 n=a#4 v=0
158880 On ch=1 n=c#6 v=60
158880 On ch=1 n=g5 v=60
158880 On ch=1 n=d#5 v=60
159360 On ch=1 n=d#5 v=0
159360 On ch=1 n=g5 v=0
159360 On ch=1 n=c#6 v=0
162720 On ch=1 n=g#4 v=70
163200 On ch=1 n=g#4 v=0
163200 On ch=1 n=c5 v=60
163200 On ch=1 n=d#5 v=60
163200 On ch=1 n=g#5 v=60
163680 On ch=1 n=g#5 v=0
163680 On ch=1 n=d#5 v=0
163680 On ch=1 n=c5 v=0
163680 On ch=1 n=c5 v=60
163680 On ch=1 n=d#5 v=60
163680 On ch=1 n=g#5 v=60
164160 On ch=1 n=g#5 v=0
164160 On ch=1 n=d#5 v=0
164160 On ch=1 n=c5 v=0
168960 On ch=1 n=d#5 v=60
168960 On ch=1 n=f#5 v=60
168960 On ch=1 n=c6 v=60
169440 On ch=1 n=c6 v=0
169440 On ch=1 n=f#5 v=0
169440 On ch=1 n=d#5 v=0
169440 On ch=1 n=a4 v=60
169920 On ch=1 n=a4 v=0
169920 On ch=1 n=a#4 v=70
170400 On ch=1 n=a#4 v=0
170400 On ch=1 n=c#6 v=60
170400 On ch=1 n=g5 v=60
170400 On ch=1 n=d#5 v=60
170880 On ch=1 n=d#5 v=0
170880 On ch=1 n=g5 v=0
170880 On ch=1 n=c#6 v=0
235200 On ch=1 n=c5 v=109
235200 On ch=1 n=d#5 v=109
235200 On ch=1 n=g5 v=109
235680 On ch=1 n=g5 v=0
235680 On ch=1 n=d#5 v=0
235680 On ch=1 n=c5 v=0
235680 On ch=1 n=c5 v=110
235680 On ch=1 n=d#5 v=110
235680 On ch=1 n=g#5 v=110
236160 On ch=1 n=g#5 v=0
236160 On ch=1 n=d#5 v=0
236160 On ch=1 n=c5 v=0
236640 On ch=1 n=c#5 v=60
236640 On ch=1 n=d#5 v=60
236640 On ch=1 n=g5 v=60
237120 On ch=1 n=g5 v=0
237120 On ch=1 n=d#5 v=0
237120 On ch=1 n=c#5 v=0
237120 On ch=1 n=c#5 v=60
237120 On ch=1 n=d#5 v=60
237120 On ch=1 n=g5 v=60
237600 On ch=1 n=g5 v=0
237600 On ch=1 n=d#5 v=0
237600 On ch=1 n=c#5 v=0
237600 On ch=1 n=g#4 v=70
238080 On ch=1 n=g#4 v=0
238080 On ch=1 n=c5 v=60
238080 On ch=1 n=d#5 v=60
238080 On ch=1 n=g#5 v=60
238560 On ch=1 n=g#5 v=0
238560 On ch=1 n=d#5 v=0
238560 On ch=1 n=c5 v=0
238560 On ch=1 n=c5 v=60
238560 On ch=1 n=d#5 v=60
238560 On ch=1 n=g#5 v=60
239040 On ch=1 n=g#5 v=0
239040 On ch=1 n=d#5 v=0
239040 On ch=1 n=c5 v=0
243840 On ch=1 n=d#5 v=60
243840 On ch=1 n=f#5 v=60
243840 On ch=1 n=c6 v=60
244320 On ch=1 n=c6 v=0
244320 On ch=1 n=f#5 v=0
244320 On ch=1 n=d#5 v=0
244320 On ch=1 n=a4 v=60
244800 On ch=1 n=a4 v=0
244800 On ch=1 n=a#4 v=70
245280 On ch=1 n=a#4 v=0
245280 On ch=1 n=c#6 v=60
245280 On ch=1 n=g5 v=60
245280 On ch=1 n=d#5 v=60
245760 On ch=1 n=d#5 v=0
245760 On ch=1 n=g5 v=0
245760 On ch=1 n=c#6 v=0
249120 On ch=1 n=g#4 v=70
249600 On ch=1 n=g#4 v=0
249600 On ch=1 n=c5 v=60
249600 On ch=1 n=d#5 v=60
249600 On ch=1 n=g#5 v=60
250080 On ch=1 n=g#5 v=0
250080 On ch=1 n=d#5 v=0
250080 On ch=1 n=c5 v=0
250080 On ch=1 n=c5 v=60
250080 On ch=1 n=d#5 v=60
250080 On ch=1 n=g#5 v=60
250560 On ch=1 n=g#5 v=0
250560 On ch=1 n=d#5 v=0
250560 On ch=1 n=c5 v=0
255360 On ch=1 n=d#5 v=60
255360 On ch=1 n=f#5 v=60
255360 On ch=1 n=c6 v=60
255840 On ch=1 n=c6 v=0
255840 On ch=1 n=f#5 v=0
255840 On ch=1 n=d#5 v=0
255840 On ch=1 n=a4 v=60
256320 On ch=1 n=a4 v=0
256320 On ch=1 n=a#4 v=70
256800 On ch=1 n=a#4 v=0
256800 On ch=1 n=c#6 v=60
256800 On ch=1 n=g5 v=60
256800 On ch=1 n=d#5 v=60
257280 On ch=1 n=d#5 v=0
257280 On ch=1 n=g5 v=0
257280 On ch=1 n=c#6 v=0
282720 On ch=1 n=d#5 v=40
282720 On ch=1 n=g#5 v=40
282720 On ch=1 n=c6 v=40
283200 On ch=1 n=c6 v=0
283200 On ch=1 n=g#5 v=0
283200 On ch=1 n=d#5 v=0
283200 On ch=1 n=d#5 v=40
283200 On ch=1 n=g#5 v=40
283200 On ch=1 n=c6 v=40
283680 On ch=1 n=c6 v=0
283680 On ch=1 n=g#5 v=0
283680 On ch=1 n=d#5 v=0
292800 On ch=1 n=d#5 v=40
292800 On ch=1 n=g#5 v=40
293280 On ch=1 n=g#5 v=0
293280 On ch=1 n=d#5 v=0
293280 On ch=1 n=d#5 v=40
293280 On ch=1 n=g#5 v=40
293760 On ch=1 n=g#5 v=0
293760 On ch=1 n=d#5 v=0
294240 On ch=1 n=c5 v=40
294240 On ch=1 n=f5 v=40
294240 On ch=1 n=g#5 v=40
294720 On ch=1 n=g#5 v=0
294720 On ch=1 n=f5 v=0
294720 On ch=1 n=c5 v=0
294720 On ch=1 n=c5 v=40
294720 On ch=1 n=f5 v=40
294720 On ch=1 n=g#5 v=40
295200 On ch=1 n=g#5 v=0
295200 On ch=1 n=f5 v=0
295200 On ch=1 n=c5 v=0
295680 On ch=1 n=c#5 v=40
295680 On ch=1 n=f5 v=40
295680 On ch=1 n=a#5 v=40
296160 On ch=1 n=a#5 v=0
296160 On ch=1 n=f5 v=0
296160 On ch=1 n=c#5 v=0
296160 On ch=1 n=c#5 v=40
296160 On ch=1 n=f5 v=40
296160 On ch=1 n=a#5 v=40
296640 On ch=1 n=a#5 v=0
296640 On ch=1 n=f5 v=0
296640 On ch=1 n=c#5 v=0
305760 On ch=1 n=c#5 v=60
305760 On ch=1 n=d#5 v=60
305760 On ch=1 n=a#5 v=60
306240 On ch=1 n=a#5 v=0
306240 On ch=1 n=d#5 v=0
306240 On ch=1 n=c#5 v=0
306240 On ch=1 n=c#5 v=60
306240 On ch=1 n=d#5 v=60
306240 On ch=1 n=a#5 v=60
306720 On ch=1 n=a#5 v=0
306720 On ch=1 n=d#5 v=0
306720 On ch=1 n=c#5 v=0
306720 On ch=1 n=g#4 v=70
307200 On ch=1 n=g#4 v=0
307200 On ch=1 n=c5 v=60
307200 On ch=1 n=d#5 v=60
307200 On ch=1 n=g#5 v=60
307680 On ch=1 n=g#5 v=0
307680 On ch=1 n=d#5 v=0
307680 On ch=1 n=c5 v=0
307680 On ch=1 n=c5 v=60
307680 On ch=1 n=d#5 v=60
307680 On ch=1 n=g#5 v=60
308160 On ch=1 n=g#5 v=0
308160 On ch=1 n=d#5 v=0
308160 On ch=1 n=c5 v=0
311520 On ch=1 n=c5 v=65
311520 On ch=1 n=d#5 v=65
311520 On ch=1 n=a5 v=65
312000 On ch=1 n=a5 v=0
312000 On ch=1 n=d#5 v=0
312000 On ch=1 n=c5 v=0
312000 On ch=1 n=c5 v=71
312000 On ch=1 n=d#5 v=71
312000 On ch=1 n=a5 v=71
312480 On ch=1 n=a5 v=0
312480 On ch=1 n=d#5 v=0
312480 On ch=1 n=c5 v=0
312480 On ch=1 n=a#4 v=87
312960 On ch=1 n=a#4 v=0
312960 On ch=1 n=c#5 v=82
312960 On ch=1 n=f5 v=82
312960 On ch=1 n=a#5 v=82
313440 On ch=1 n=a#5 v=0
313440 On ch=1 n=f5 v=0
313440 On ch=1 n=c#5 v=0
313440 On ch=1 n=c#5 v=88
313440 On ch=1 n=f5 v=88
313440 On ch=1 n=a#5 v=88
313920 On ch=1 n=a#5 v=0
313920 On ch=1 n=f5 v=0
313920 On ch=1 n=c#5 v=0
314400 On ch=1 n=c5 v=99
314400 On ch=1 n=d#5 v=99
314400 On ch=1 n=a5 v=99
314880 On ch=1 n=a5 v=0
314880 On ch=1 n=d#5 v=0
314880 On ch=1 n=c5 v=0
314880 On ch=1 n=c5 v=105
314880 On ch=1 n=d#5 v=105
314880 On ch=1 n=a5 v=105
315360 On ch=1 n=a5 v=0
315360 On ch=1 n=d#5 v=0
315360 On ch=1 n=c5 v=0
318240 On ch=1 n=d5 v=110
318240 On ch=1 n=f5 v=110
318240 On ch=1 n=g#5 v=110
318240 On ch=1 n=b5 v=110
318720 On ch=1 n=b5 v=0
318720 On ch=1 n=g#5 v=0
318720 On ch=1 n=f5 v=0
318720 On ch=1 n=d5 v=0
319680 On ch=1 n=g6 v=110
319920 On ch=1 n=g6 v=0
319920 On ch=1 n=f6 v=110
320160 On ch=1 n=f6 v=0
321120 On ch=1 n=d#6 v=110
321360 On ch=1 n=d#6 v=0
321360 On ch=1 n=d6 v=110
321600 On ch=1 n=d6 v=0
322560 On ch=1 n=c#6 v=110
322800 On ch=1 n=c#6 v=0
322800 On ch=1 n=b5 v=110
323040 On ch=1 n=b5 v=0
324000 On ch=1 n=a#5 v=110
324240 On ch=1 n=a#5 v=0
324240 On ch=1 n=g#5 v=110
324480 On ch=1 n=g#5 v=0
325440 On ch=1 n=g5 v=110
325680 On ch=1 n=g5 v=0
325680 On ch=1 n=f5 v=106
325920 On ch=1 n=f5 v=0
338880 On ch=1 n=c5 v=94
338880 On ch=1 n=d#5 v=94
338880 On ch=1 n=g#5 v=94
339360 On ch=1 n=g#5 v=0
339360 On ch=1 n=d#5 v=0
339360 On ch=1 n=c5 v=0
339360 On ch=1 n=c5 v=97
339360 On ch=1 n=d#5 v=97
339360 On ch=1 n=g#5 v=97
339600 On ch=1 n=g#5 v=0
339600 On ch=1 n=d#5 v=0
339600 On ch=1 n=c5 v=0
373440 On ch=1 n=b4 v=118
373440 On ch=1 n=d5 v=118
373440 On ch=1 n=g5 v=118
373920 On ch=1 n=g5 v=0
373920 On ch=1 n=d5 v=0
373920 On ch=1 n=b4 v=0
376320 On ch=1 n=c5 v=60
376320 On ch=1 n=d#5 v=60
376320 On ch=1 n=g#5 v=60
376800 On ch=1 n=g#5 v=0
376800 On ch=1 n=d#5 v=0
376800 On ch=1 n=c5 v=0
376800 On ch=1 n=c5 v=60
376800 On ch=1 n=d#5 v=60
376800 On ch=1 n=g#5 v=60
377280 On ch=1 n=g#5 v=0
377280 On ch=1 n=d#5 v=0
377280 On ch=1 n=c5 v=0
382080 On ch=1 n=d#5 v=73
382080 On ch=1 n=f#5 v=73
382080 On ch=1 n=c6 v=73
382560 On ch=1 n=c6 v=0
382560 On ch=1 n=f#5 v=0
382560 On ch=1 n=d#5 v=0
382560 On ch=1 n=a4 v=77
383040 On ch=1 n=a4 v=0
383040 On ch=1 n=a#4 v=90
383520 On ch=1 n=a#4 v=0
383520 On ch=1 n=c#6 v=83
383520 On ch=1 n=g5 v=83
383520 On ch=1 n=d#5 v=83
384000 On ch=1 n=d#5 v=0
384000 On ch=1 n=g5 v=0
384000 On ch=1 n=c#6 v=0
387840 On ch=1 n=c5 v=100
387840 On ch=1 n=d#5 v=100
387840 On ch=1 n=g#5 v=100
388320 On ch=1 n=g#5 v=0
388320 On ch=1 n=d#5 v=0
388320 On ch=1 n=c5 v=0
388320 On ch=1 n=c5 v=100
388320 On ch=1 n=d#5 v=100
388320 On ch=1 n=g#5 v=100
388800 On ch=1 n=g#5 v=0
388800 On ch=1 n=d#5 v=0
388800 On ch=1 n=c5 v=0
390720 On ch=1 n=c5 v=100
390720 On ch=1 n=d#5 v=100
390720 On ch=1 n=g#5 v=100
391200 On ch=1 n=g#5 v=0
391200 On ch=1 n=d#5 v=0
391200 On ch=1 n=c5 v=0
391200 On ch=1 n=c5 v=100
391200 On ch=1 n=d#5 v=100
391200 On ch=1 n=g#5 v=100
391680 On ch=1 n=g#5 v=0
391680 On ch=1 n=d#5 v=0
391680 On ch=1 n=c5 v=0
393120 On ch=1 n=a#4 v=115
393160 On ch=1 n=d#5 v=115
393200 On ch=1 n=g5 v=115
393240 On ch=1 n=c#6 v=115
393600 On ch=1 n=c#6 v=0
393600 On ch=1 n=g5 v=0
393600 On ch=1 n=d#5 v=0
393600 On ch=1 n=a#4 v=0
410400 On ch=1 n=c5 v=110
410400 On ch=1 n=d#5 v=110
410400 On ch=1 n=g#5 v=110
410400 On ch=1 n=c6 v=110
410880 On ch=1 n=c6 v=0
410880 On ch=1 n=g#5 v=0
410880 On ch=1 n=d#5 v=0
410880 On ch=1 n=c5 v=0
410880 Meta TrkEnd
TrkEnd
MTrk
0 SeqSpec 43 00 01 00
0 Meta TrkName "Lower Bass"
0 Meta 0x21 00
0 PrCh ch=1 p=0
6720 On ch=1 n=c#5 v=60
6720 On ch=1 n=f4 v=60
7200 On ch=1 n=f4 v=0
7200 On ch=1 n=c#5 v=0
7200 On ch=1 n=c#4 v=60
7200 On ch=1 n=a#4 v=60
8160 On ch=1 n=a#4 v=0
8160 On ch=1 n=c#4 v=0
8160 On ch=1 n=c5 v=60
8160 On ch=1 n=d#4 v=60
8640 On ch=1 n=d#4 v=0
8640 On ch=1 n=c5 v=0
8640 On ch=1 n=c4 v=60
8640 On ch=1 n=g#4 v=60
10080 On ch=1 n=g#4 v=0
10080 On ch=1 n=c4 v=0
10080 On ch=1 n=a#3 v=60
10080 On ch=1 n=g4 v=60
10560 On ch=1 n=g4 v=0
10560 On ch=1 n=a#3 v=0
11520 On ch=1 n=g#3 v=70
12000 On ch=1 n=g#3 v=0
12000 On ch=1 n=c5 v=60
12000 On ch=1 n=g#4 v=60
12000 On ch=1 n=d#4 v=60
12480 On ch=1 n=d#4 v=0
12480 On ch=1 n=g#4 v=0
12480 On ch=1 n=c5 v=0
12480 On ch=1 n=d#4 v=60
12480 On ch=1 n=g#4 v=60
12480 On ch=1 n=c5 v=60
12960 On ch=1 n=c5 v=0
12960 On ch=1 n=g#4 v=0
12960 On ch=1 n=d#4 v=0
12960 On ch=1 n=d#3 v=70
13440 On ch=1 n=d#3 v=0
13440 On ch=1 n=g4 v=60
13440 On ch=1 n=d#4 v=60
13920 On ch=1 n=d#4 v=0
13920 On ch=1 n=g4 v=0
13920 On ch=1 n=d#4 v=60
13920 On ch=1 n=g4 v=60
14400 On ch=1 n=g4 v=0
14400 On ch=1 n=d#4 v=0
14400 On ch=1 n=e3 v=70
14880 On ch=1 n=e3 v=0
14880 On ch=1 n=g4 v=60
14880 On ch=1 n=c#4 v=60
15360 On ch=1 n=c#4 v=0
15360 On ch=1 n=g4 v=0
15360 On ch=1 n=g4 v=60
15360 On ch=1 n=c#4 v=60
15840 On ch=1 n=c#4 v=0
15840 On ch=1 n=g4 v=0
15840 On ch=1 n=f3 v=70
16320 On ch=1 n=f3 v=0
16320 On ch=1 n=g#4 v=60
16320 On ch=1 n=c4 v=60
16800 On ch=1 n=c4 v=0
16800 On ch=1 n=g#4 v=0
16800 On ch=1 n=g#4 v=60
16800 On ch=1 n=c4 v=60
17280 On ch=1 n=c4 v=0
17280 On ch=1 n=g#4 v=0
17280 On ch=1 n=d3 v=70
17760 On ch=1 n=d3 v=0
17760 On ch=1 n=g#4 v=60
17760 On ch=1 n=d4 v=60
18240 On ch=1 n=d4 v=0
18240 On ch=1 n=g#4 v=0
18240 On ch=1 n=g#4 v=60
18240 On ch=1 n=d4 v=60
18720 On ch=1 n=d4 v=0
18720 On ch=1 n=g#4 v=0
18720 On ch=1 n=d#3 v=70
19200 On ch=1 n=d#3 v=0
19200 On ch=1 n=g#4 v=60
19200 On ch=1 n=d#4 v=60
19680 On ch=1 n=d#4 v=0
19680 On ch=1 n=g#4 v=0
19680 On ch=1 n=g#4 v=60
19680 On ch=1 n=d#4 v=60
20160 On ch=1 n=d#4 v=0
20160 On ch=1 n=g#4 v=0
20160 On ch=1 n=d#3 v=70
20640 On ch=1 n=d#3 v=0
20640 On ch=1 n=g4 v=60
20640 On ch=1 n=d#4 v=60
21120 On ch=1 n=d#4 v=0
21120 On ch=1 n=g4 v=0
21120 On ch=1 n=d#4 v=60
21120 On ch=1 n=g4 v=60
21600 On ch=1 n=g4 v=0
21600 On ch=1 n=d#4 v=0
21600 On ch=1 n=g#3 v=70
22080 On ch=1 n=g#3 v=0
22080 On ch=1 n=g#4 v=60
22080 On ch=1 n=d#4 v=60
22560 On ch=1 n=d#4 v=0
22560 On ch=1 n=g#4 v=0
22560 On ch=1 n=g#4 v=60
22560 On ch=1 n=d#4 v=60
23040 On ch=1 n=d#4 v=0
23040 On ch=1 n=g#4 v=0
23040 On ch=1 n=g#3 v=70
23520 On ch=1 n=g#3 v=0
23520 On ch=1 n=c5 v=60
23520 On ch=1 n=f4 v=60
24000 On ch=1 n=f4 v=0
24000 On ch=1 n=c5 v=0
24000 On ch=1 n=c5 v=60
24000 On ch=1 n=f4 v=60
24480 On ch=1 n=f4 v=0
24480 On ch=1 n=c5 v=0
24480 On ch=1 n=g3 v=70
24960 On ch=1 n=g3 v=0
24960 On ch=1 n=a#4 v=60
24960 On ch=1 n=c#4 v=60
25440 On ch=1 n=c#4 v=0
25440 On ch=1 n=a#4 v=0
25440 On ch=1 n=a#4 v=60
25440 On ch=1 n=c#4 v=60
25920 On ch=1 n=c#4 v=0
25920 On ch=1 n=a#4 v=0
25920 On ch=1 n=c3 v=70
26400 On ch=1 n=c3 v=0
26400 On ch=1 n=a#4 v=60
26400 On ch=1 n=g4 v=60
26400 On ch=1 n=c4 v=60
26880 On ch=1 n=c4 v=0
26880 On ch=1 n=g4 v=0
26880 On ch=1 n=a#4 v=0
26880 On ch=1 n=g4 v=60
26880 On ch=1 n=a#4 v=60
26880 On ch=1 n=c4 v=60
27360 On ch=1 n=c4 v=0
27360 On ch=1 n=a#4 v=0
27360 On ch=1 n=g4 v=0
27360 On ch=1 n=f3 v=70
27840 On ch=1 n=f3 v=0
27840 On ch=1 n=g#4 v=60
27840 On ch=1 n=c4 v=60
28320 On ch=1 n=c4 v=0
28320 On ch=1 n=g#4 v=0
28320 On ch=1 n=g#4 v=60
28320 On ch=1 n=c4 v=60
28800 On ch=1 n=c4 v=0
28800 On ch=1 n=g#4 v=0
28800 On ch=1 n=d3 v=70
29280 On ch=1 n=d3 v=0
29280 On ch=1 n=g#4 v=60
29280 On ch=1 n=d4 v=60
29760 On ch=1 n=d4 v=0
29760 On ch=1 n=g#4 v=0
29760 On ch=1 n=g#4 v=60
29760 On ch=1 n=d4 v=60
30240 On ch=1 n=d4 v=0
30240 On ch=1 n=g#4 v=0
30240 On ch=1 n=d#3 v=70
30720 On ch=1 n=d#3 v=0
30720 On ch=1 n=g#4 v=60
30720 On ch=1 n=d#4 v=60
31200 On ch=1 n=d#4 v=0
31200 On ch=1 n=g#4 v=0
31200 On ch=1 n=c5 v=60
31200 On ch=1 n=g#4 v=60
31200 On ch=1 n=d#4 v=60
31680 On ch=1 n=d#4 v=0
31680 On ch=1 n=g#4 v=0
31680 On ch=1 n=c5 v=0
31680 On ch=1 n=d#3 v=70
32160 On ch=1 n=d#3 v=0
32160 On ch=1 n=g4 v=60
32160 On ch=1 n=d#4 v=60
32640 On ch=1 n=d#4 v=0
32640 On ch=1 n=g4 v=0
32640 On ch=1 n=d#4 v=60
32640 On ch=1 n=g4 v=60
33120 On ch=1 n=g4 v=0
33120 On ch=1 n=d#4 v=0
33120 On ch=1 n=g#4 v=60
33120 On ch=1 n=d#4 v=60
33120 On ch=1 n=g#3 v=60
33600 On ch=1 n=g#3 v=0
33600 On ch=1 n=d#4 v=0
33600 On ch=1 n=g#4 v=0
34560 On ch=1 n=g#4 v=50
35040 On ch=1 n=g#4 v=0
36000 On ch=1 n=d#4 v=50
36480 On ch=1 n=d#4 v=0
36480 On ch=1 n=g5 v=40
36480 On ch=1 n=c#5 v=40
36480 On ch=1 n=a#4 v=40
36960 On ch=1 n=a#4 v=0
36960 On ch=1 n=c#5 v=0
36960 On ch=1 n=g5 v=0
36960 On ch=1 n=g5 v=40
36960 On ch=1 n=c#5 v=40
36960 On ch=1 n=a#4 v=40
37440 On ch=1 n=a#4 v=0
37440 On ch=1 n=c#5 v=0
37440 On ch=1 n=g5 v=0
37440 On ch=1 n=e4 v=50
37920 On ch=1 n=e4 v=0
37920 On ch=1 n=g5 v=40
37920 On ch=1 n=c#5 v=40
37920 On ch=1 n=a#4 v=40
38400 On ch=1 n=a#4 v=0
38400 On ch=1 n=c#5 v=0
38400 On ch=1 n=g5 v=0
38400 On ch=1 n=a#4 v=40
38400 On ch=1 n=c#5 v=40
38400 On ch=1 n=g5 v=40
38880 On ch=1 n=g5 v=0
38880 On ch=1 n=c#5 v=0
38880 On ch=1 n=a#4 v=0
38880 On ch=1 n=f4 v=50
39360 On ch=1 n=f4 v=0
39360 On ch=1 n=g#5 v=40
39360 On ch=1 n=c5 v=40
39360 On ch=1 n=g#4 v=40
39840 On ch=1 n=g#4 v=0
39840 On ch=1 n=c5 v=0
39840 On ch=1 n=g#5 v=0
39840 On ch=1 n=g#4 v=40
39840 On ch=1 n=c5 v=40
39840 On ch=1 n=g#5 v=40
40320 On ch=1 n=g#5 v=0
40320 On ch=1 n=c5 v=0
40320 On ch=1 n=g#4 v=0
40320 On ch=1 n=d4 v=50
40800 On ch=1 n=d4 v=0
40800 On ch=1 n=f5 v=40
40800 On ch=1 n=g#4 v=40
40800 On ch=1 n=b4 v=40
41280 On ch=1 n=b4 v=0
41280 On ch=1 n=g#4 v=0
41280 On ch=1 n=f5 v=0
41280 On ch=1 n=f5 v=40
41280 On ch=1 n=g#4 v=40
41280 On ch=1 n=b4 v=40
41760 On ch=1 n=b4 v=0
41760 On ch=1 n=g#4 v=0
41760 On ch=1 n=f5 v=0
41760 On ch=1 n=d#4 v=50
42240 On ch=1 n=d#4 v=0
42240 On ch=1 n=d#5 v=40
42240 On ch=1 n=c5 v=40
42240 On ch=1 n=g#4 v=40
42720 On ch=1 n=g#4 v=0
42720 On ch=1 n=c5 v=0
42720 On ch=1 n=d#5 v=0
42720 On ch=1 n=g#4 v=40
42720 On ch=1 n=c5 v=40
42720 On ch=1 n=d#5 v=40
43200 On ch=1 n=d#5 v=0
43200 On ch=1 n=c5 v=0
43200 On ch=1 n=g#4 v=0
43200 On ch=1 n=d#4 v=50
43680 On ch=1 n=d#4 v=0
43680 On ch=1 n=g5 v=40
43680 On ch=1 n=d#5 v=40
43680 On ch=1 n=a#4 v=40
44160 On ch=1 n=a#4 v=0
44160 On ch=1 n=d#5 v=0
44160 On ch=1 n=g5 v=0
44160 On ch=1 n=d#5 v=40
44160 On ch=1 n=g5 v=40
44160 On ch=1 n=a#4 v=40
44640 On ch=1 n=a#4 v=0
44640 On ch=1 n=g5 v=0
44640 On ch=1 n=d#5 v=0
44640 On ch=1 n=g#4 v=50
45120 On ch=1 n=g#4 v=0
46080 On ch=1 n=g#4 v=50
46560 On ch=1 n=g#4 v=0
47520 On ch=1 n=g4 v=50
48000 On ch=1 n=g4 v=0
48960 On ch=1 n=c4 v=50
49440 On ch=1 n=c4 v=0
49440 On ch=1 n=g5 v=40
49440 On ch=1 n=a#4 v=40
49440 On ch=1 n=c5 v=40
49920 On ch=1 n=c5 v=0
49920 On ch=1 n=a#4 v=0
49920 On ch=1 n=g5 v=0
49920 On ch=1 n=g5 v=40
49920 On ch=1 n=a#4 v=40
49920 On ch=1 n=c5 v=40
50400 On ch=1 n=c5 v=0
50400 On ch=1 n=a#4 v=0
50400 On ch=1 n=g5 v=0
50400 On ch=1 n=f4 v=50
50880 On ch=1 n=f4 v=0
50880 On ch=1 n=f5 v=40
50880 On ch=1 n=c5 v=40
50880 On ch=1 n=g#4 v=40
51360 On ch=1 n=g#4 v=0
51360 On ch=1 n=c5 v=0
51360 On ch=1 n=f5 v=0
51360 On ch=1 n=g#4 v=40
51360 On ch=1 n=c5 v=40
51360 On ch=1 n=f5 v=40
51840 On ch=1 n=f5 v=0
51840 On ch=1 n=c5 v=0
51840 On ch=1 n=g#4 v=0
51840 On ch=1 n=d4 v=50
52320 On ch=1 n=d4 v=0
52320 On ch=1 n=f5 v=40
52320 On ch=1 n=g#4 v=40
52320 On ch=1 n=b4 v=40
52800 On ch=1 n=b4 v=0
52800 On ch=1 n=g#4 v=0
52800 On ch=1 n=f5 v=0
52800 On ch=1 n=f5 v=40
52800 On ch=1 n=g#4 v=40
52800 On ch=1 n=b4 v=40
53280 On ch=1 n=b4 v=0
53280 On ch=1 n=g#4 v=0
53280 On ch=1 n=f5 v=0
53280 On ch=1 n=d#4 v=50
53760 On ch=1 n=d#4 v=0
53760 On ch=1 n=d#5 v=40
53760 On ch=1 n=c5 v=40
53760 On ch=1 n=g#4 v=40
54240 On ch=1 n=g#4 v=0
54240 On ch=1 n=c5 v=0
54240 On ch=1 n=d#5 v=0
54240 On ch=1 n=g#4 v=40
54240 On ch=1 n=c5 v=40
54240 On ch=1 n=d#5 v=40
54720 On ch=1 n=d#5 v=0
54720 On ch=1 n=c5 v=0
54720 On ch=1 n=g#4 v=0
54720 On ch=1 n=d#3 v=50
55200 On ch=1 n=d#3 v=0
55200 On ch=1 n=c#5 v=40
55200 On ch=1 n=d#5 v=40
55200 On ch=1 n=g4 v=40
55680 On ch=1 n=g4 v=0
55680 On ch=1 n=d#5 v=0
55680 On ch=1 n=c#5 v=0
55680 On ch=1 n=c#5 v=40
55680 On ch=1 n=d#5 v=40
55680 On ch=1 n=g4 v=40
56160 On ch=1 n=g4 v=0
56160 On ch=1 n=d#5 v=0
56160 On ch=1 n=c#5 v=0
56160 On ch=1 n=g#3 v=50
56640 On ch=1 n=g#3 v=0
56640 On ch=1 n=c5 v=40
56640 On ch=1 n=g#4 v=40
56640 On ch=1 n=d#4 v=40
57120 On ch=1 n=d#4 v=0
57120 On ch=1 n=g#4 v=0
57120 On ch=1 n=c5 v=0
57600 On ch=1 n=d#3 v=70
58080 On ch=1 n=d#3 v=0
58080 On ch=1 n=c#5 v=60
58080 On ch=1 n=g5 v=60
58080 On ch=1 n=d#5 v=60
58560 On ch=1 n=d#5 v=0
58560 On ch=1 n=g5 v=0
58560 On ch=1 n=c#5 v=0
58560 On ch=1 n=c#5 v=60
58560 On ch=1 n=g5 v=60
58560 On ch=1 n=d#5 v=60
59040 On ch=1 n=d#5 v=0
59040 On ch=1 n=g5 v=0
59040 On ch=1 n=c#5 v=0
59040 On ch=1 n=g#4 v=70
59520 On ch=1 n=g#4 v=0
60480 On ch=1 n=d#4 v=70
60960 On ch=1 n=d#4 v=0
60960 On ch=1 n=c#5 v=60
60960 On ch=1 n=d#5 v=60
60960 On ch=1 n=g5 v=60
61440 On ch=1 n=g5 v=0
61440 On ch=1 n=d#5 v=0
61440 On ch=1 n=c#5 v=0
61440 On ch=1 n=c#5 v=60
61440 On ch=1 n=d#5 v=60
61440 On ch=1 n=g5 v=60
61920 On ch=1 n=g5 v=0
61920 On ch=1 n=d#5 v=0
61920 On ch=1 n=c#5 v=0
61920 On ch=1 n=g#3 v=70
62400 On ch=1 n=g#3 v=0
62400 On ch=1 n=d#5 v=60
62400 On ch=1 n=c5 v=60
62880 On ch=1 n=c5 v=0
62880 On ch=1 n=d#5 v=0
62880 On ch=1 n=c5 v=60
62880 On ch=1 n=d#5 v=60
63360 On ch=1 n=d#5 v=0
63360 On ch=1 n=c5 v=0
63360 On ch=1 n=d#3 v=70
63840 On ch=1 n=d#3 v=0
63840 On ch=1 n=c#5 v=60
63840 On ch=1 n=g5 v=60
63840 On ch=1 n=d#5 v=60
64320 On ch=1 n=d#5 v=0
64320 On ch=1 n=g5 v=0
64320 On ch=1 n=c#5 v=0
64320 On ch=1 n=c#5 v=60
64320 On ch=1 n=g5 v=60
64320 On ch=1 n=d#5 v=60
64800 On ch=1 n=d#5 v=0
64800 On ch=1 n=g5 v=0
64800 On ch=1 n=c#5 v=0
64800 On ch=1 n=g#4 v=70
65280 On ch=1 n=g#4 v=0
67200 On ch=1 n=d#4 v=60
67680 On ch=1 n=d#4 v=0
67680 On ch=1 n=g#4 v=70
68160 On ch=1 n=g#4 v=0
68160 On ch=1 n=d#5 v=60
68160 On ch=1 n=c5 v=60
68640 On ch=1 n=c5 v=0
68640 On ch=1 n=d#5 v=0
68640 On ch=1 n=d4 v=60
68640 On ch=1 n=b4 v=60
69120 On ch=1 n=b4 v=0
69120 On ch=1 n=d4 v=0
69120 On ch=1 n=d#4 v=70
69600 On ch=1 n=d#4 v=0
69600 On ch=1 n=d#5 v=60
69600 On ch=1 n=c#5 v=60
70080 On ch=1 n=c#5 v=0
70080 On ch=1 n=d#5 v=0
70080 On ch=1 n=g5 v=60
70080 On ch=1 n=d#5 v=60
70080 On ch=1 n=c#5 v=60
70560 On ch=1 n=c#5 v=0
70560 On ch=1 n=d#5 v=0
70560 On ch=1 n=g5 v=0
70560 On ch=1 n=g#4 v=70
71040 On ch=1 n=g#4 v=0
72000 On ch=1 n=d#4 v=70
72480 On ch=1 n=d#4 v=0
72480 On ch=1 n=c#5 v=60
72480 On ch=1 n=d#5 v=60
72480 On ch=1 n=g5 v=60
72960 On ch=1 n=g5 v=0
72960 On ch=1 n=d#5 v=0
72960 On ch=1 n=c#5 v=0
72960 On ch=1 n=c#5 v=60
72960 On ch=1 n=d#5 v=60
72960 On ch=1 n=g5 v=60
73440 On ch=1 n=g5 v=0
73440 On ch=1 n=d#5 v=0
73440 On ch=1 n=c#5 v=0
73440 On ch=1 n=g#3 v=70
73920 On ch=1 n=g#3 v=0
73920 On ch=1 n=d#5 v=60
73920 On ch=1 n=c5 v=60
74400 On ch=1 n=c5 v=0
74400 On ch=1 n=d#5 v=0
74400 On ch=1 n=c5 v=60
74400 On ch=1 n=d#5 v=60
74880 On ch=1 n=d#5 v=0
74880 On ch=1 n=c5 v=0
74880 On ch=1 n=d#3 v=70
75360 On ch=1 n=d#3 v=0
75360 On ch=1 n=c#5 v=60
75360 On ch=1 n=d#5 v=60
75360 On ch=1 n=g5 v=60
75840 On ch=1 n=g5 v=0
75840 On ch=1 n=d#5 v=0
75840 On ch=1 n=c#5 v=0
75840 On ch=1 n=c#5 v=60
75840 On ch=1 n=d#5 v=60
75840 On ch=1 n=g5 v=60
76320 On ch=1 n=g5 v=0
76320 On ch=1 n=d#5 v=0
76320 On ch=1 n=c#5 v=0
76320 On ch=1 n=g#4 v=70
76800 On ch=1 n=g#4 v=0
80640 On ch=1 n=g#3 v=60
80760 On ch=1 n=g#3 v=0
81120 On ch=1 n=g#4 v=60
81240 On ch=1 n=g#4 v=0
81600 On ch=1 n=d#4 v=60
81720 On ch=1 n=d#4 v=0
82080 On ch=1 n=d#3 v=60
82200 On ch=1 n=d#3 v=0
82560 On ch=1 n=a#4 v=60
82680 On ch=1 n=a#4 v=0
83040 On ch=1 n=d#4 v=60
83160 On ch=1 n=d#4 v=0
83520 On ch=1 n=d#3 v=60
83640 On ch=1 n=d#3 v=0
84000 On ch=1 n=a#4 v=60
84120 On ch=1 n=a#4 v=0
84480 On ch=1 n=d#4 v=60
84600 On ch=1 n=d#4 v=0
84960 On ch=1 n=g#3 v=60
85080 On ch=1 n=g#3 v=0
85440 On ch=1 n=g#4 v=60
85560 On ch=1 n=g#4 v=0
85920 On ch=1 n=d#4 v=60
86040 On ch=1 n=d#4 v=0
86400 On ch=1 n=g#3 v=60
86880 On ch=1 n=g#3 v=0
86880 On ch=1 n=g#4 v=60
87360 On ch=1 n=g#4 v=0
87360 On ch=1 n=d#4 v=60
87840 On ch=1 n=d#4 v=0
87840 On ch=1 n=d#3 v=60
88320 On ch=1 n=d#3 v=0
88320 On ch=1 n=a#4 v=60
88800 On ch=1 n=a#4 v=0
88800 On ch=1 n=d#4 v=60
89280 On ch=1 n=d#4 v=0
89280 On ch=1 n=d#3 v=60
89760 On ch=1 n=d#3 v=0
89760 On ch=1 n=a#4 v=60
90240 On ch=1 n=a#4 v=0
90240 On ch=1 n=d#4 v=60
90720 On ch=1 n=d#4 v=0
90720 On ch=1 n=g#3 v=60
91200 On ch=1 n=g#3 v=0
91200 On ch=1 n=g#4 v=60
91680 On ch=1 n=g#4 v=0
91680 On ch=1 n=d#4 v=60
92160 On ch=1 n=d#4 v=0
92160 On ch=1 n=g#3 v=60
92640 On ch=1 n=g#3 v=0
92640 On ch=1 n=g#4 v=60
93120 On ch=1 n=g#4 v=0
93120 On ch=1 n=d#4 v=60
93600 On ch=1 n=d#4 v=0
93600 On ch=1 n=d#3 v=60
94080 On ch=1 n=d#3 v=0
94080 On ch=1 n=a#4 v=60
94560 On ch=1 n=a#4 v=0
94560 On ch=1 n=d#4 v=60
95040 On ch=1 n=d#4 v=0
95040 On ch=1 n=d#3 v=60
95520 On ch=1 n=d#3 v=0
95520 On ch=1 n=a#4 v=60
96000 On ch=1 n=a#4 v=0
96000 On ch=1 n=d#4 v=60
96480 On ch=1 n=d#4 v=0
96480 On ch=1 n=g#3 v=60
96960 On ch=1 n=g#3 v=0
96960 On ch=1 n=g#4 v=60
97440 On ch=1 n=g#4 v=0
97440 On ch=1 n=d#4 v=60
97920 On ch=1 n=d#4 v=0
97920 On ch=1 n=g#3 v=60
98400 On ch=1 n=g#3 v=0
98400 On ch=1 n=g#4 v=60
98880 On ch=1 n=g#4 v=0
98880 On ch=1 n=d#4 v=60
99360 On ch=1 n=d#4 v=0
99360 On ch=1 n=d#3 v=60
99840 On ch=1 n=d#3 v=0
99840 On ch=1 n=a#4 v=60
100320 On ch=1 n=a#4 v=0
100320 On ch=1 n=d#4 v=60
100800 On ch=1 n=d#4 v=0
100800 On ch=1 n=d#3 v=60
101280 On ch=1 n=d#3 v=0
101280 On ch=1 n=a#4 v=60
101760 On ch=1 n=a#4 v=0
101760 On ch=1 n=d#4 v=60
102240 On ch=1 n=d#4 v=0
102240 On ch=1 n=g#3 v=70
102720 On ch=1 n=g#3 v=0
102720 On ch=1 n=d#5 v=60
102720 On ch=1 n=g#4 v=60
102720 On ch=1 n=d#4 v=60
103200 On ch=1 n=d#4 v=0
103200 On ch=1 n=g#4 v=0
103200 On ch=1 n=d#5 v=0
103680 On ch=1 n=d#3 v=70
104160 On ch=1 n=d#3 v=0
104160 On ch=1 n=c#5 v=60
104160 On ch=1 n=g5 v=60
104160 On ch=1 n=d#5 v=60
104640 On ch=1 n=d#5 v=0
104640 On ch=1 n=g5 v=0
104640 On ch=1 n=c#5 v=0
104640 On ch=1 n=c#5 v=60
104640 On ch=1 n=g5 v=60
104640 On ch=1 n=d#5 v=60
105120 On ch=1 n=d#5 v=0
105120 On ch=1 n=g5 v=0
105120 On ch=1 n=c#5 v=0
105120 On ch=1 n=g#4 v=70
105600 On ch=1 n=g#4 v=0
106560 On ch=1 n=d#4 v=70
107040 On ch=1 n=d#4 v=0
107040 On ch=1 n=c#5 v=60
107040 On ch=1 n=d#5 v=60
107040 On ch=1 n=g5 v=60
107520 On ch=1 n=g5 v=0
107520 On ch=1 n=d#5 v=0
107520 On ch=1 n=c#5 v=0
107520 On ch=1 n=c#5 v=60
107520 On ch=1 n=d#5 v=60
107520 On ch=1 n=g5 v=60
108000 On ch=1 n=g5 v=0
108000 On ch=1 n=d#5 v=0
108000 On ch=1 n=c#5 v=0
108000 On ch=1 n=g#3 v=70
108480 On ch=1 n=g#3 v=0
108480 On ch=1 n=d#5 v=60
108480 On ch=1 n=c5 v=60
108960 On ch=1 n=c5 v=0
108960 On ch=1 n=d#5 v=0
108960 On ch=1 n=c5 v=60
108960 On ch=1 n=d#5 v=60
109440 On ch=1 n=d#5 v=0
109440 On ch=1 n=c5 v=0
109440 On ch=1 n=d#3 v=70
109920 On ch=1 n=d#3 v=0
109920 On ch=1 n=c#5 v=60
109920 On ch=1 n=g5 v=60
109920 On ch=1 n=d#5 v=60
110400 On ch=1 n=d#5 v=0
110400 On ch=1 n=g5 v=0
110400 On ch=1 n=c#5 v=0
110400 On ch=1 n=c#5 v=60
110400 On ch=1 n=g5 v=60
110400 On ch=1 n=d#5 v=60
110880 On ch=1 n=d#5 v=0
110880 On ch=1 n=g5 v=0
110880 On ch=1 n=c#5 v=0
110880 On ch=1 n=g#4 v=70
111360 On ch=1 n=g#4 v=0
113280 On ch=1 n=d#4 v=60
113760 On ch=1 n=d#4 v=0
113760 On ch=1 n=g#4 v=70
114240 On ch=1 n=g#4 v=0
114240 On ch=1 n=d#5 v=60
114240 On ch=1 n=c5 v=60
114720 On ch=1 n=c5 v=0
114720 On ch=1 n=d#5 v=0
114720 On ch=1 n=d4 v=60
114720 On ch=1 n=b4 v=60
115200 On ch=1 n=b4 v=0
115200 On ch=1 n=d4 v=0
115200 On ch=1 n=d#4 v=70
115680 On ch=1 n=d#4 v=0
115680 On ch=1 n=d#5 v=60
115680 On ch=1 n=c#5 v=60
116160 On ch=1 n=c#5 v=0
116160 On ch=1 n=d#5 v=0
116160 On ch=1 n=g5 v=60
116160 On ch=1 n=d#5 v=60
116160 On ch=1 n=c#5 v=60
116640 On ch=1 n=c#5 v=0
116640 On ch=1 n=d#5 v=0
116640 On ch=1 n=g5 v=0
116640 On ch=1 n=g#4 v=70
117120 On ch=1 n=g#4 v=0
117120 On ch=1 n=g#5 v=60
117120 On ch=1 n=d#5 v=60
117120 On ch=1 n=c5 v=60
117600 On ch=1 n=c5 v=0
117600 On ch=1 n=d#5 v=0
117600 On ch=1 n=g#5 v=0
117600 On ch=1 n=g#5 v=60
117600 On ch=1 n=d#5 v=60
117600 On ch=1 n=c5 v=60
118080 On ch=1 n=c5 v=0
118080 On ch=1 n=d#5 v=0
118080 On ch=1 n=g#5 v=0
118080 On ch=1 n=d#4 v=70
118560 On ch=1 n=d#4 v=0
118560 On ch=1 n=c#5 v=60
118560 On ch=1 n=d#5 v=60
118560 On ch=1 n=g5 v=60
119040 On ch=1 n=g5 v=0
119040 On ch=1 n=d#5 v=0
119040 On ch=1 n=c#5 v=0
119040 On ch=1 n=c#5 v=60
119040 On ch=1 n=d#5 v=60
119040 On ch=1 n=g5 v=60
119520 On ch=1 n=g5 v=0
119520 On ch=1 n=d#5 v=0
119520 On ch=1 n=c#5 v=0
119520 On ch=1 n=g#3 v=70
120000 On ch=1 n=g#3 v=0
120000 On ch=1 n=d#5 v=60
120000 On ch=1 n=c5 v=60
120480 On ch=1 n=c5 v=0
120480 On ch=1 n=d#5 v=0
120480 On ch=1 n=c5 v=60
120480 On ch=1 n=d#5 v=60
120960 On ch=1 n=d#5 v=0
120960 On ch=1 n=c5 v=0
120960 On ch=1 n=d#3 v=70
121440 On ch=1 n=d#3 v=0
121440 On ch=1 n=c#5 v=60
121440 On ch=1 n=d#5 v=60
121440 On ch=1 n=g5 v=60
121920 On ch=1 n=g5 v=0
121920 On ch=1 n=d#5 v=0
121920 On ch=1 n=c#5 v=0
121920 On ch=1 n=c#5 v=60
121920 On ch=1 n=d#5 v=60
121920 On ch=1 n=g5 v=60
122400 On ch=1 n=g5 v=0
122400 On ch=1 n=d#5 v=0
122400 On ch=1 n=c#5 v=0
122400 On ch=1 n=g#4 v=70
122880 On ch=1 n=g#4 v=0
126720 On ch=1 n=g#3 v=70
127200 On ch=1 n=g#3 v=0
127200 On ch=1 n=c5 v=61
127200 On ch=1 n=f#4 v=61
127680 On ch=1 n=f#4 v=0
127680 On ch=1 n=c5 v=0
127680 On ch=1 n=c5 v=62
127680 On ch=1 n=f#4 v=62
128160 On ch=1 n=f#4 v=0
128160 On ch=1 n=c5 v=0
128160 On ch=1 n=c#3 v=73
128640 On ch=1 n=c#3 v=0
128640 On ch=1 n=c#4 v=64
128640 On ch=1 n=g#4 v=64
129120 On ch=1 n=g#4 v=0
129120 On ch=1 n=c#4 v=0
129120 On ch=1 n=a#3 v=65
129600 On ch=1 n=a#3 v=0
129600 On ch=1 n=d#3 v=77
130080 On ch=1 n=d#3 v=0
130080 On ch=1 n=c#5 v=68
130080 On ch=1 n=a#4 v=68
130080 On ch=1 n=d#4 v=68
130560 On ch=1 n=d#4 v=0
130560 On ch=1 n=a#4 v=0
130560 On ch=1 n=c#5 v=0
130560 On ch=1 n=d#4 v=69
130560 On ch=1 n=g4 v=69
130560 On ch=1 n=c#5 v=69
131040 On ch=1 n=c#5 v=0
131040 On ch=1 n=g4 v=0
131040 On ch=1 n=d#4 v=0
131040 On ch=1 n=g#3 v=80
131520 On ch=1 n=g#3 v=0
131520 On ch=1 n=g#4 v=71
131520 On ch=1 n=d#4 v=71
132000 On ch=1 n=d#4 v=0
132000 On ch=1 n=g#4 v=0
132000 On ch=1 n=c5 v=72
132000 On ch=1 n=d#4 v=72
132000 On ch=1 n=g#4 v=72
132480 On ch=1 n=g#4 v=0
132480 On ch=1 n=d#4 v=0
132480 On ch=1 n=c5 v=0
132480 On ch=1 n=g#3 v=84
132960 On ch=1 n=g#3 v=0
132960 On ch=1 n=c5 v=75
132960 On ch=1 n=f#4 v=75
133440 On ch=1 n=f#4 v=0
133440 On ch=1 n=c5 v=0
133440 On ch=1 n=f#4 v=76
133440 On ch=1 n=c5 v=76
133920 On ch=1 n=c5 v=0
133920 On ch=1 n=f#4 v=0
133920 On ch=1 n=c#3 v=87
134400 On ch=1 n=c#3 v=0
134400 On ch=1 n=g#4 v=78
134400 On ch=1 n=c#4 v=78
134880 On ch=1 n=c#4 v=0
134880 On ch=1 n=g#4 v=0
134880 On ch=1 n=a#3 v=79
135360 On ch=1 n=a#3 v=0
135360 On ch=1 n=d#3 v=91
135840 On ch=1 n=d#3 v=0
135840 On ch=1 n=c#5 v=82
135840 On ch=1 n=g4 v=82
135840 On ch=1 n=d#4 v=82
136320 On ch=1 n=d#4 v=0
136320 On ch=1 n=g4 v=0
136320 On ch=1 n=c#5 v=0
136320 On ch=1 n=d#4 v=83
136320 On ch=1 n=g#4 v=83
136320 On ch=1 n=c#5 v=83
136800 On ch=1 n=c#5 v=0
136800 On ch=1 n=g#4 v=0
136800 On ch=1 n=d#4 v=0
136800 On ch=1 n=c#5 v=84
136800 On ch=1 n=g4 v=84
136800 On ch=1 n=d#4 v=84
137280 On ch=1 n=d#4 v=0
137280 On ch=1 n=g4 v=0
137280 On ch=1 n=c#5 v=0
137280 On ch=1 n=g#4 v=85
137280 On ch=1 n=a#4 v=85
137280 On ch=1 n=c#5 v=85
137760 On ch=1 n=c#5 v=0
137760 On ch=1 n=a#4 v=0
137760 On ch=1 n=g#4 v=0
137760 On ch=1 n=g4 v=87
137760 On ch=1 n=a#4 v=87
137760 On ch=1 n=c#5 v=87
138240 On ch=1 n=c#5 v=0
138240 On ch=1 n=a#4 v=0
138240 On ch=1 n=g4 v=0
138240 On ch=1 n=g#3 v=98
138720 On ch=1 n=g#3 v=0
138720 On ch=1 n=f#5 v=89
138720 On ch=1 n=c5 v=89
138720 On ch=1 n=g#4 v=89
139200 On ch=1 n=g#4 v=0
139200 On ch=1 n=c5 v=0
139200 On ch=1 n=f#5 v=0
139200 On ch=1 n=g#4 v=90
139200 On ch=1 n=c5 v=90
139200 On ch=1 n=f#5 v=90
139680 On ch=1 n=f#5 v=0
139680 On ch=1 n=c5 v=0
139680 On ch=1 n=g#4 v=0
139680 On ch=1 n=c#4 v=101
140160 On ch=1 n=c#4 v=0
140160 On ch=1 n=f5 v=92
140160 On ch=1 n=c#5 v=92
140160 On ch=1 n=g#4 v=92
140640 On ch=1 n=g#4 v=0
140640 On ch=1 n=c#5 v=0
140640 On ch=1 n=f5 v=0
140640 On ch=1 n=c#5 v=94
140640 On ch=1 n=a#4 v=94
141120 On ch=1 n=a#4 v=0
141120 On ch=1 n=c#5 v=0
141120 On ch=1 n=d#3 v=105
141120 On ch=1 n=d#4 v=105
141600 On ch=1 n=d#4 v=0
141600 On ch=1 n=d#3 v=0
144000 On ch=1 n=g#3 v=112
144000 On ch=1 n=g#4 v=112
144480 On ch=1 n=g#4 v=0
144480 On ch=1 n=g#3 v=0
144480 On ch=1 n=f#5 v=103
144480 On ch=1 n=c5 v=103
144480 On ch=1 n=g#4 v=103
144960 On ch=1 n=g#4 v=0
144960 On ch=1 n=c5 v=0
144960 On ch=1 n=f#5 v=0
144960 On ch=1 n=g#4 v=104
144960 On ch=1 n=c5 v=104
144960 On ch=1 n=f#5 v=104
145440 On ch=1 n=f#5 v=0
145440 On ch=1 n=c5 v=0
145440 On ch=1 n=g#4 v=0
145440 On ch=1 n=c#4 v=115
145920 On ch=1 n=c#4 v=0
145920 On ch=1 n=f5 v=107
145920 On ch=1 n=c#5 v=107
145920 On ch=1 n=g#4 v=107
146400 On ch=1 n=g#4 v=0
146400 On ch=1 n=c#5 v=0
146400 On ch=1 n=f5 v=0
146400 On ch=1 n=g#4 v=108
146400 On ch=1 n=a#4 v=108
146400 On ch=1 n=c#5 v=108
146880 On ch=1 n=c#5 v=0
146880 On ch=1 n=a#4 v=0
146880 On ch=1 n=g#4 v=0
146880 On ch=1 n=d#3 v=119
146880 On ch=1 n=d#4 v=119
147360 On ch=1 n=d#4 v=0
147360 On ch=1 n=d#3 v=0
147360 On ch=1 n=g#4 v=110
147360 On ch=1 n=a#4 v=110
147360 On ch=1 n=c#5 v=110
147360 On ch=1 n=e5 v=110
147840 On ch=1 n=e5 v=0
147840 On ch=1 n=c#5 v=0
147840 On ch=1 n=a#4 v=0
147840 On ch=1 n=g#4 v=0
147840 On ch=1 n=g#4 v=110
147840 On ch=1 n=a#4 v=110
147840 On ch=1 n=c#5 v=110
147840 On ch=1 n=e5 v=110
148320 On ch=1 n=e5 v=0
148320 On ch=1 n=c#5 v=0
148320 On ch=1 n=a#4 v=0
148320 On ch=1 n=g#4 v=0
148320 On ch=1 n=g4 v=110
148320 On ch=1 n=a#4 v=110
148320 On ch=1 n=c#5 v=110
148320 On ch=1 n=d#5 v=110
148800 On ch=1 n=d#5 v=0
148800 On ch=1 n=c#5 v=0
148800 On ch=1 n=a#4 v=0
148800 On ch=1 n=g4 v=0
148800 On ch=1 n=g#4 v=110
148800 On ch=1 n=a#4 v=110
148800 On ch=1 n=c#5 v=110
148800 On ch=1 n=e5 v=110
149280 On ch=1 n=e5 v=0
149280 On ch=1 n=c#5 v=0
149280 On ch=1 n=a#4 v=0
149280 On ch=1 n=g#4 v=0
149280 On ch=1 n=g#4 v=110
149280 On ch=1 n=a#4 v=110
149280 On ch=1 n=c#5 v=110
149280 On ch=1 n=e5 v=110
149760 On ch=1 n=e5 v=0
149760 On ch=1 n=c#5 v=0
149760 On ch=1 n=a#4 v=0
149760 On ch=1 n=g#4 v=0
149760 On ch=1 n=d#3 v=70
150240 On ch=1 n=d#3 v=0
150240 On ch=1 n=c#5 v=60
150240 On ch=1 n=g5 v=60
150240 On ch=1 n=d#5 v=60
150720 On ch=1 n=d#5 v=0
150720 On ch=1 n=g5 v=0
150720 On ch=1 n=c#5 v=0
150720 On ch=1 n=c#5 v=60
150720 On ch=1 n=g5 v=60
150720 On ch=1 n=d#5 v=60
151200 On ch=1 n=d#5 v=0
151200 On ch=1 n=g5 v=0
151200 On ch=1 n=c#5 v=0
152640 On ch=1 n=d#4 v=70
153120 On ch=1 n=d#4 v=0
153120 On ch=1 n=c#5 v=60
153120 On ch=1 n=d#5 v=60
153120 On ch=1 n=g5 v=60
153600 On ch=1 n=g5 v=0
153600 On ch=1 n=d#5 v=0
153600 On ch=1 n=c#5 v=0
153600 On ch=1 n=c#5 v=60
153600 On ch=1 n=d#5 v=60
153600 On ch=1 n=g5 v=60
154080 On ch=1 n=g5 v=0
154080 On ch=1 n=d#5 v=0
154080 On ch=1 n=c#5 v=0
154080 On ch=1 n=g#3 v=70
154560 On ch=1 n=g#3 v=0
154560 On ch=1 n=d#5 v=60
154560 On ch=1 n=c5 v=60
155040 On ch=1 n=c5 v=0
155040 On ch=1 n=d#5 v=0
155040 On ch=1 n=c5 v=60
155040 On ch=1 n=d#5 v=60
155520 On ch=1 n=d#5 v=0
155520 On ch=1 n=c5 v=0
155520 On ch=1 n=d#3 v=70
156000 On ch=1 n=d#3 v=0
156000 On ch=1 n=c#5 v=60
156000 On ch=1 n=g5 v=60
156000 On ch=1 n=d#5 v=60
156480 On ch=1 n=d#5 v=0
156480 On ch=1 n=g5 v=0
156480 On ch=1 n=c#5 v=0
156480 On ch=1 n=c#5 v=60
156480 On ch=1 n=g5 v=60
156480 On ch=1 n=d#5 v=60
156960 On ch=1 n=d#5 v=0
156960 On ch=1 n=g5 v=0
156960 On ch=1 n=c#5 v=0
156960 On ch=1 n=g#4 v=70
157440 On ch=1 n=g#4 v=0
159360 On ch=1 n=d#4 v=60
159840 On ch=1 n=d#4 v=0
159840 On ch=1 n=g#4 v=70
160320 On ch=1 n=g#4 v=0
160320 On ch=1 n=d#5 v=60
160320 On ch=1 n=c5 v=60
160800 On ch=1 n=c5 v=0
160800 On ch=1 n=d#5 v=0
160800 On ch=1 n=d4 v=60
160800 On ch=1 n=b4 v=60
161280 On ch=1 n=b4 v=0
161280 On ch=1 n=d4 v=0
161280 On ch=1 n=d#4 v=70
161760 On ch=1 n=d#4 v=0
161760 On ch=1 n=d#5 v=60
161760 On ch=1 n=c#5 v=60
162240 On ch=1 n=c#5 v=0
162240 On ch=1 n=d#5 v=0
162240 On ch=1 n=g5 v=60
162240 On ch=1 n=d#5 v=60
162240 On ch=1 n=c#5 v=60
162720 On ch=1 n=c#5 v=0
162720 On ch=1 n=d#5 v=0
162720 On ch=1 n=g5 v=0
164160 On ch=1 n=d#4 v=70
164640 On ch=1 n=d#4 v=0
164640 On ch=1 n=c#5 v=60
164640 On ch=1 n=d#5 v=60
164640 On ch=1 n=g5 v=60
165120 On ch=1 n=g5 v=0
165120 On ch=1 n=d#5 v=0
165120 On ch=1 n=c#5 v=0
165120 On ch=1 n=c#5 v=60
165120 On ch=1 n=d#5 v=60
165120 On ch=1 n=g5 v=60
165600 On ch=1 n=g5 v=0
165600 On ch=1 n=d#5 v=0
165600 On ch=1 n=c#5 v=0
165600 On ch=1 n=g#3 v=70
166080 On ch=1 n=g#3 v=0
166080 On ch=1 n=d#5 v=60
166080 On ch=1 n=c5 v=60
166560 On ch=1 n=c5 v=0
166560 On ch=1 n=d#5 v=0
166560 On ch=1 n=c5 v=60
166560 On ch=1 n=d#5 v=60
167040 On ch=1 n=d#5 v=0
167040 On ch=1 n=c5 v=0
167040 On ch=1 n=d#3 v=70
167520 On ch=1 n=d#3 v=0
167520 On ch=1 n=c#5 v=60
167520 On ch=1 n=d#5 v=60
167520 On ch=1 n=g5 v=60
168000 On ch=1 n=g5 v=0
168000 On ch=1 n=d#5 v=0
168000 On ch=1 n=c#5 v=0
168000 On ch=1 n=c#5 v=60
168000 On ch=1 n=d#5 v=60
168000 On ch=1 n=g5 v=60
168480 On ch=1 n=g5 v=0
168480 On ch=1 n=d#5 v=0
168480 On ch=1 n=c#5 v=0
168480 On ch=1 n=g#4 v=70
168960 On ch=1 n=g#4 v=0
172800 On ch=1 n=g#3 v=90
173280 On ch=1 n=g#3 v=0
173280 On ch=1 n=c5 v=80
173280 On ch=1 n=f#4 v=80
173280 On ch=1 n=c4 v=80
173760 On ch=1 n=c4 v=0
173760 On ch=1 n=f#4 v=0
173760 On ch=1 n=c5 v=0
173760 On ch=1 n=c5 v=80
173760 On ch=1 n=f#4 v=80
173760 On ch=1 n=c4 v=80
174240 On ch=1 n=c4 v=0
174240 On ch=1 n=f#4 v=0
174240 On ch=1 n=c5 v=0
174240 On ch=1 n=g3 v=90
174720 On ch=1 n=g3 v=0
174720 On ch=1 n=d4 v=80
174720 On ch=1 n=g4 v=80
174720 On ch=1 n=c5 v=80
175200 On ch=1 n=c5 v=0
175200 On ch=1 n=g4 v=0
175200 On ch=1 n=d4 v=0
175200 On ch=1 n=d4 v=80
175200 On ch=1 n=f4 v=80
175200 On ch=1 n=g4 v=80
175200 On ch=1 n=b4 v=80
175680 On ch=1 n=b4 v=0
175680 On ch=1 n=g4 v=0
175680 On ch=1 n=f4 v=0
175680 On ch=1 n=d4 v=0
175680 On ch=1 n=c3 v=90
176160 On ch=1 n=c3 v=0
176160 On ch=1 n=d#4 v=80
176160 On ch=1 n=g4 v=80
176640 On ch=1 n=g4 v=0
176640 On ch=1 n=d#4 v=0
176640 On ch=1 n=d#4 v=80
176640 On ch=1 n=g4 v=80
177120 On ch=1 n=g4 v=0
177120 On ch=1 n=d#4 v=0
177120 On ch=1 n=f3 v=90
177600 On ch=1 n=f3 v=0
177600 On ch=1 n=d#5 v=80
177600 On ch=1 n=a4 v=80
177600 On ch=1 n=f4 v=80
178080 On ch=1 n=f4 v=0
178080 On ch=1 n=a4 v=0
178080 On ch=1 n=d#5 v=0
178080 On ch=1 n=f4 v=80
178080 On ch=1 n=a4 v=80
178080 On ch=1 n=d#5 v=80
178560 On ch=1 n=d#5 v=0
178560 On ch=1 n=a4 v=0
178560 On ch=1 n=f4 v=0
178560 On ch=1 n=a#3 v=90
179040 On ch=1 n=a#3 v=0
179040 On ch=1 n=d#5 v=80
179040 On ch=1 n=a#4 v=80
179040 On ch=1 n=f4 v=80
179520 On ch=1 n=f4 v=0
179520 On ch=1 n=a#4 v=0
179520 On ch=1 n=d#5 v=0
179520 On ch=1 n=d#5 v=80
179520 On ch=1 n=a#4 v=80
179520 On ch=1 n=f4 v=80
180000 On ch=1 n=f4 v=0
180000 On ch=1 n=a#4 v=0
180000 On ch=1 n=d#5 v=0
180000 On ch=1 n=a#3 v=90
180480 On ch=1 n=a#3 v=0
180480 On ch=1 n=g#4 v=80
180480 On ch=1 n=a#4 v=80
180480 On ch=1 n=d5 v=80
180960 On ch=1 n=d5 v=0
180960 On ch=1 n=a#4 v=0
180960 On ch=1 n=g#4 v=0
180960 On ch=1 n=g#4 v=80
180960 On ch=1 n=a#4 v=80
180960 On ch=1 n=d5 v=80
181440 On ch=1 n=d5 v=0
181440 On ch=1 n=a#4 v=0
181440 On ch=1 n=g#4 v=0
181440 On ch=1 n=d#3 v=90
181920 On ch=1 n=d#3 v=0
181920 On ch=1 n=c#5 v=80
181920 On ch=1 n=g#4 v=80
181920 On ch=1 n=d#4 v=80
182400 On ch=1 n=d#4 v=0
182400 On ch=1 n=g#4 v=0
182400 On ch=1 n=c#5 v=0
182400 On ch=1 n=c#5 v=80
182400 On ch=1 n=g#4 v=80
182400 On ch=1 n=d#4 v=80
182880 On ch=1 n=d#4 v=0
182880 On ch=1 n=g#4 v=0
182880 On ch=1 n=c#5 v=0
182880 On ch=1 n=d#3 v=90
183360 On ch=1 n=d#3 v=0
183360 On ch=1 n=c#5 v=80
183360 On ch=1 n=g4 v=80
183360 On ch=1 n=d#4 v=80
183840 On ch=1 n=d#4 v=0
183840 On ch=1 n=g4 v=0
183840 On ch=1 n=c#5 v=0
183840 On ch=1 n=d#4 v=80
183840 On ch=1 n=g4 v=80
183840 On ch=1 n=c#5 v=80
184320 On ch=1 n=c#5 v=0
184320 On ch=1 n=g4 v=0
184320 On ch=1 n=d#4 v=0
184320 On ch=1 n=g#3 v=90
184800 On ch=1 n=g#3 v=0
184800 On ch=1 n=c5 v=80
184800 On ch=1 n=g#4 v=80
184800 On ch=1 n=d#4 v=80
185280 On ch=1 n=d#4 v=0
185280 On ch=1 n=g#4 v=0
185280 On ch=1 n=c5 v=0
185280 On ch=1 n=d#4 v=80
185280 On ch=1 n=g#4 v=80
185280 On ch=1 n=c5 v=80
185760 On ch=1 n=c5 v=0
185760 On ch=1 n=g#4 v=0
185760 On ch=1 n=d#4 v=0
185760 On ch=1 n=c4 v=90
186240 On ch=1 n=c4 v=0
186240 On ch=1 n=e5 v=80
186240 On ch=1 n=c5 v=80
186240 On ch=1 n=g4 v=80
186720 On ch=1 n=g4 v=0
186720 On ch=1 n=c5 v=0
186720 On ch=1 n=e5 v=0
186720 On ch=1 n=g4 v=80
186720 On ch=1 n=c5 v=80
186720 On ch=1 n=e5 v=80
187200 On ch=1 n=e5 v=0
187200 On ch=1 n=c5 v=0
187200 On ch=1 n=g4 v=0
187200 On ch=1 n=f4 v=90
187680 On ch=1 n=f5 v=80
187680 On ch=1 n=c5 v=80
187680 On ch=1 n=g#4 v=80
188160 On ch=1 n=g#4 v=0
188160 On ch=1 n=c5 v=0
188160 On ch=1 n=f5 v=0
188160 On ch=1 n=g#4 v=80
188160 On ch=1 n=c5 v=80
188160 On ch=1 n=f5 v=80
188640 On ch=1 n=f5 v=0
188640 On ch=1 n=c5 v=0
188640 On ch=1 n=g#4 v=0
188640 On ch=1 n=f4 v=0
188640 On ch=1 n=d4 v=90
189120 On ch=1 n=g#4 v=80
189120 On ch=1 n=b4 v=80
189600 On ch=1 n=b4 v=0
189600 On ch=1 n=g#4 v=0
189600 On ch=1 n=g#4 v=80
189600 On ch=1 n=b4 v=80
190080 On ch=1 n=b4 v=0
190080 On ch=1 n=g#4 v=0
190080 On ch=1 n=d4 v=0
190080 On ch=1 n=d#4 v=90
190560 On ch=1 n=g#4 v=80
190560 On ch=1 n=c5 v=80
191040 On ch=1 n=c5 v=0
191040 On ch=1 n=g#4 v=0
191040 On ch=1 n=g#4 v=80
191040 On ch=1 n=c5 v=80
191520 On ch=1 n=c5 v=0
191520 On ch=1 n=g#4 v=0
191520 On ch=1 n=d#4 v=0
191520 On ch=1 n=d#3 v=90
192000 On ch=1 n=d#3 v=0
192000 On ch=1 n=c#5 v=80
192000 On ch=1 n=g4 v=80
192000 On ch=1 n=d#4 v=80
192480 On ch=1 n=d#4 v=0
192480 On ch=1 n=g4 v=0
192480 On ch=1 n=c#5 v=0
192480 On ch=1 n=d#4 v=80
192480 On ch=1 n=g4 v=80
192480 On ch=1 n=c#5 v=80
192960 On ch=1 n=c#5 v=0
192960 On ch=1 n=g4 v=0
192960 On ch=1 n=d#4 v=0
192960 On ch=1 n=g#3 v=90
193440 On ch=1 n=d#4 v=80
193440 On ch=1 n=g#4 v=80
193920 On ch=1 n=g#4 v=0
193920 On ch=1 n=d#4 v=0
193920 On ch=1 n=d#4 v=80
193920 On ch=1 n=g#4 v=80
194400 On ch=1 n=g#4 v=0
194400 On ch=1 n=d#4 v=0
194400 On ch=1 n=g#3 v=0
194400 On ch=1 n=f#3 v=90
194880 On ch=1 n=f#3 v=0
194880 On ch=1 n=g#4 v=80
194880 On ch=1 n=d#4 v=80
195360 On ch=1 n=d#4 v=0
195360 On ch=1 n=g#4 v=0
195360 On ch=1 n=d#4 v=80
195360 On ch=1 n=g#4 v=80
195840 On ch=1 n=g#4 v=0
195840 On ch=1 n=d#4 v=0
195840 On ch=1 n=g3 v=90
196320 On ch=1 n=g3 v=0
196320 On ch=1 n=g4 v=80
196320 On ch=1 n=c4 v=80
196800 On ch=1 n=c4 v=0
196800 On ch=1 n=g4 v=0
196800 On ch=1 n=c4 v=80
196800 On ch=1 n=g4 v=80
197280 On ch=1 n=g4 v=0
197280 On ch=1 n=c4 v=0
197280 On ch=1 n=g2 v=90
197760 On ch=1 n=g2 v=0
197760 On ch=1 n=f4 v=80
198240 On ch=1 n=f4 v=0
198240 On ch=1 n=d4 v=80
198240 On ch=1 n=b4 v=80
198720 On ch=1 n=b4 v=0
198720 On ch=1 n=d4 v=0
198720 On ch=1 n=c3 v=90
199200 On ch=1 n=c3 v=0
199200 On ch=1 n=g4 v=80
199200 On ch=1 n=c4 v=80
199680 On ch=1 n=c4 v=0
199680 On ch=1 n=g4 v=0
199680 On ch=1 n=g4 v=80
199680 On ch=1 n=c4 v=80
200160 On ch=1 n=c4 v=0
200160 On ch=1 n=g4 v=0
200160 On ch=1 n=f3 v=90
200640 On ch=1 n=f3 v=0
200640 On ch=1 n=c5 v=80
200640 On ch=1 n=f4 v=80
201120 On ch=1 n=f4 v=0
201120 On ch=1 n=c5 v=0
201120 On ch=1 n=c5 v=80
201120 On ch=1 n=f4 v=80
201600 On ch=1 n=f4 v=0
201600 On ch=1 n=c5 v=0
201600 On ch=1 n=a#2 v=90
202080 On ch=1 n=a#2 v=0
202080 On ch=1 n=a#3 v=80
202080 On ch=1 n=a#4 v=80
202560 On ch=1 n=a#4 v=0
202560 On ch=1 n=a#3 v=0
202560 On ch=1 n=a#3 v=80
202560 On ch=1 n=g#4 v=80
202560 On ch=1 n=a#4 v=80
203520 On ch=1 n=a#4 v=0
203520 On ch=1 n=g#4 v=0
203520 On ch=1 n=a#3 v=0
203520 On ch=1 n=a#3 v=80
203520 On ch=1 n=g4 v=80
203520 On ch=1 n=a#4 v=80
204000 On ch=1 n=a#4 v=0
204000 On ch=1 n=g4 v=0
204000 On ch=1 n=a#3 v=0
204000 On ch=1 n=a#3 v=80
204000 On ch=1 n=f4 v=80
204000 On ch=1 n=a#4 v=80
204480 On ch=1 n=a#4 v=0
204480 On ch=1 n=f4 v=0
204480 On ch=1 n=a#3 v=0
204480 On ch=1 n=d#3 v=90
204960 On ch=1 n=d#3 v=0
204960 On ch=1 n=c#5 v=80
204960 On ch=1 n=g4 v=80
204960 On ch=1 n=d#4 v=80
205440 On ch=1 n=d#4 v=0
205440 On ch=1 n=g4 v=0
205440 On ch=1 n=c#5 v=0
205440 On ch=1 n=d#4 v=80
205440 On ch=1 n=g4 v=80
205440 On ch=1 n=c#5 v=80
205920 On ch=1 n=c#5 v=0
205920 On ch=1 n=g4 v=0
205920 On ch=1 n=d#4 v=0
205920 On ch=1 n=d#3 v=90
206400 On ch=1 n=d#3 v=0
206400 On ch=1 n=c#5 v=80
206400 On ch=1 n=g4 v=80
206400 On ch=1 n=d#4 v=80
206880 On ch=1 n=d#4 v=0
206880 On ch=1 n=g4 v=0
206880 On ch=1 n=c#5 v=0
206880 On ch=1 n=d#4 v=80
206880 On ch=1 n=g4 v=80
206880 On ch=1 n=c#5 v=80
207360 On ch=1 n=c#5 v=0
207360 On ch=1 n=g4 v=0
207360 On ch=1 n=d#4 v=0
207360 On ch=1 n=g#3 v=90
207840 On ch=1 n=g#3 v=0
207840 On ch=1 n=c5 v=80
207840 On ch=1 n=g#4 v=80
207840 On ch=1 n=d#4 v=80
208320 On ch=1 n=d#4 v=0
208320 On ch=1 n=g#4 v=0
208320 On ch=1 n=c5 v=0
208320 On ch=1 n=d#4 v=80
208320 On ch=1 n=g#4 v=80
208320 On ch=1 n=c5 v=80
208800 On ch=1 n=c5 v=0
208800 On ch=1 n=g#4 v=0
208800 On ch=1 n=d#4 v=0
208800 On ch=1 n=c3 v=90
209280 On ch=1 n=c3 v=0
209280 On ch=1 n=c5 v=80
209280 On ch=1 n=g4 v=80
209280 On ch=1 n=c4 v=80
209760 On ch=1 n=c4 v=0
209760 On ch=1 n=g4 v=0
209760 On ch=1 n=c5 v=0
209760 On ch=1 n=c4 v=80
209760 On ch=1 n=g4 v=80
209760 On ch=1 n=c5 v=80
210240 On ch=1 n=c5 v=0
210240 On ch=1 n=g4 v=0
210240 On ch=1 n=c4 v=0
210240 On ch=1 n=f3 v=90
210720 On ch=1 n=f3 v=0
210720 On ch=1 n=c5 v=80
210720 On ch=1 n=f4 v=80
211200 On ch=1 n=f4 v=0
211200 On ch=1 n=c5 v=0
211200 On ch=1 n=f4 v=80
211200 On ch=1 n=c5 v=80
211680 On ch=1 n=c5 v=0
211680 On ch=1 n=f4 v=0
211680 On ch=1 n=d3 v=90
212160 On ch=1 n=d3 v=0
212160 On ch=1 n=d4 v=80
212160 On ch=1 n=g#4 v=80
212640 On ch=1 n=g#4 v=0
212640 On ch=1 n=d4 v=0
212640 On ch=1 n=d4 v=80
212640 On ch=1 n=g#4 v=80
213120 On ch=1 n=g#4 v=0
213120 On ch=1 n=d4 v=0
213120 On ch=1 n=d#3 v=90
213600 On ch=1 n=d#3 v=0
213600 On ch=1 n=g#4 v=80
213600 On ch=1 n=d#4 v=80
214080 On ch=1 n=d#4 v=0
214080 On ch=1 n=g#4 v=0
214080 On ch=1 n=c5 v=80
214080 On ch=1 n=g#4 v=80
214080 On ch=1 n=d#4 v=80
214560 On ch=1 n=d#4 v=0
214560 On ch=1 n=g#4 v=0
214560 On ch=1 n=c5 v=0
214560 On ch=1 n=d#3 v=90
215040 On ch=1 n=d#3 v=0
215040 On ch=1 n=c#5 v=80
215040 On ch=1 n=g4 v=80
215040 On ch=1 n=d#4 v=80
215520 On ch=1 n=d#4 v=0
215520 On ch=1 n=g4 v=0
215520 On ch=1 n=c#5 v=0
215520 On ch=1 n=d#4 v=80
215520 On ch=1 n=g4 v=80
215520 On ch=1 n=c#5 v=80
216000 On ch=1 n=c#5 v=0
216000 On ch=1 n=g4 v=0
216000 On ch=1 n=d#4 v=0
216000 On ch=1 n=g#3 v=90
216480 On ch=1 n=g#3 v=0
216480 On ch=1 n=c5 v=80
216480 On ch=1 n=g#4 v=80
216480 On ch=1 n=d#4 v=80
216960 On ch=1 n=d#4 v=0
216960 On ch=1 n=g#4 v=0
216960 On ch=1 n=c5 v=0
216960 On ch=1 n=d#4 v=80
216960 On ch=1 n=g#4 v=80
216960 On ch=1 n=c5 v=80
217440 On ch=1 n=c5 v=0
217440 On ch=1 n=g#4 v=0
217440 On ch=1 n=d#4 v=0
217440 On ch=1 n=g#3 v=90
217920 On ch=1 n=g#3 v=0
217920 On ch=1 n=g#4 v=80
217920 On ch=1 n=d#4 v=80
218400 On ch=1 n=d#4 v=0
218400 On ch=1 n=g#4 v=0
218400 On ch=1 n=g#4 v=80
218400 On ch=1 n=d#4 v=80
218880 On ch=1 n=d#4 v=0
218880 On ch=1 n=g#4 v=0
218880 On ch=1 n=g#3 v=90
219360 On ch=1 n=g#3 v=0
219360 On ch=1 n=d#5 v=80
219360 On ch=1 n=g#4 v=80
219360 On ch=1 n=d#4 v=80
219840 On ch=1 n=d#4 v=0
219840 On ch=1 n=g#4 v=0
219840 On ch=1 n=d#5 v=0
219840 On ch=1 n=d#4 v=80
219840 On ch=1 n=g#4 v=80
219840 On ch=1 n=d#5 v=80
220320 On ch=1 n=d#5 v=0
220320 On ch=1 n=g#4 v=0
220320 On ch=1 n=d#4 v=0
220320 On ch=1 n=c3 v=90
220800 On ch=1 n=c3 v=0
220800 On ch=1 n=c5 v=80
220800 On ch=1 n=g4 v=80
220800 On ch=1 n=c4 v=80
221280 On ch=1 n=c4 v=0
221280 On ch=1 n=g4 v=0
221280 On ch=1 n=c5 v=0
221280 On ch=1 n=c5 v=80
221280 On ch=1 n=g4 v=80
221280 On ch=1 n=c4 v=80
221760 On ch=1 n=c4 v=0
221760 On ch=1 n=g4 v=0
221760 On ch=1 n=c5 v=0
221760 On ch=1 n=f3 v=90
222240 On ch=1 n=f3 v=0
222240 On ch=1 n=c5 v=80
222240 On ch=1 n=f4 v=80
222720 On ch=1 n=f4 v=0
222720 On ch=1 n=c5 v=0
222720 On ch=1 n=c5 v=80
222720 On ch=1 n=f4 v=80
223200 On ch=1 n=f4 v=0
223200 On ch=1 n=c5 v=0
223200 On ch=1 n=d3 v=90
223680 On ch=1 n=d3 v=0
223680 On ch=1 n=d4 v=80
223680 On ch=1 n=g#4 v=80
224160 On ch=1 n=g#4 v=0
224160 On ch=1 n=d4 v=0
224160 On ch=1 n=d4 v=80
224160 On ch=1 n=g#4 v=80
224640 On ch=1 n=g#4 v=0
224640 On ch=1 n=d4 v=0
224640 On ch=1 n=d#3 v=90
225120 On ch=1 n=d#3 v=0
225120 On ch=1 n=g#4 v=80
225120 On ch=1 n=d#4 v=80
225600 On ch=1 n=d#4 v=0
225600 On ch=1 n=g#4 v=0
225600 On ch=1 n=c5 v=80
225600 On ch=1 n=g#4 v=80
225600 On ch=1 n=d#4 v=80
226080 On ch=1 n=d#4 v=0
226080 On ch=1 n=g#4 v=0
226080 On ch=1 n=c5 v=0
226080 On ch=1 n=d#3 v=90
226560 On ch=1 n=d#3 v=0
226560 On ch=1 n=c5 v=81
226560 On ch=1 n=a4 v=81
226560 On ch=1 n=d#4 v=81
227040 On ch=1 n=d#4 v=0
227040 On ch=1 n=a4 v=0
227040 On ch=1 n=c5 v=0
227040 On ch=1 n=c5 v=83
227040 On ch=1 n=a4 v=83
227040 On ch=1 n=d#4 v=83
227520 On ch=1 n=d#4 v=0
227520 On ch=1 n=a4 v=0
227520 On ch=1 n=c5 v=0
227520 On ch=1 n=d#3 v=94
228000 On ch=1 n=d#3 v=0
228000 On ch=1 n=c#5 v=86
228000 On ch=1 n=a#4 v=86
228000 On ch=1 n=d#4 v=86
228480 On ch=1 n=d#4 v=0
228480 On ch=1 n=a#4 v=0
228480 On ch=1 n=c#5 v=0
228480 On ch=1 n=d#4 v=87
228480 On ch=1 n=a#4 v=87
228960 On ch=1 n=a#4 v=0
228960 On ch=1 n=d#4 v=0
228960 On ch=1 n=d#3 v=99
229440 On ch=1 n=d#3 v=0
229440 On ch=1 n=d5 v=91
229440 On ch=1 n=b4 v=91
229440 On ch=1 n=d#4 v=91
229920 On ch=1 n=d#4 v=0
229920 On ch=1 n=b4 v=0
229920 On ch=1 n=d5 v=0
229920 On ch=1 n=b4 v=92
229920 On ch=1 n=d5 v=92
229920 On ch=1 n=d#4 v=92
230400 On ch=1 n=d#4 v=0
230400 On ch=1 n=d5 v=0
230400 On ch=1 n=b4 v=0
230400 On ch=1 n=d#3 v=104
230880 On ch=1 n=d#3 v=0
230880 On ch=1 n=c5 v=95
230880 On ch=1 n=d#4 v=95
231360 On ch=1 n=d#4 v=0
231360 On ch=1 n=c5 v=0
231360 On ch=1 n=c5 v=97
231360 On ch=1 n=d#4 v=97
231840 On ch=1 n=d#4 v=0
231840 On ch=1 n=c5 v=0
231840 On ch=1 n=d#3 v=108
231840 On ch=1 n=d#4 v=108
232320 On ch=1 n=d#4 v=0
232320 On ch=1 n=d#3 v=0
232320 On ch=1 n=g4 v=100
232320 On ch=1 n=a#4 v=100
232320 On ch=1 n=c#5 v=100
232320 On ch=1 n=d#5 v=100
232800 On ch=1 n=d#5 v=0
232800 On ch=1 n=c#5 v=0
232800 On ch=1 n=a#4 v=0
232800 On ch=1 n=g4 v=0
232800 On ch=1 n=a#4 v=102
232800 On ch=1 n=c#5 v=102
232800 On ch=1 n=e5 v=102
233280 On ch=1 n=e5 v=0
233280 On ch=1 n=c#5 v=0
233280 On ch=1 n=a#4 v=0
233280 On ch=1 n=d#3 v=113
233280 On ch=1 n=d#4 v=113
233760 On ch=1 n=d#4 v=0
233760 On ch=1 n=d#3 v=0
233760 On ch=1 n=f5 v=105
233760 On ch=1 n=c#5 v=105
233760 On ch=1 n=a#4 v=105
234240 On ch=1 n=a#4 v=0
234240 On ch=1 n=c#5 v=0
234240 On ch=1 n=f5 v=0
234240 On ch=1 n=f#5 v=106
234240 On ch=1 n=c#5 v=106
234240 On ch=1 n=a#4 v=106
234720 On ch=1 n=a#4 v=0
234720 On ch=1 n=c#5 v=0
234720 On ch=1 n=f#5 v=0
234720 On ch=1 n=d#3 v=118
234720 On ch=1 n=d#4 v=118
235200 On ch=1 n=d#4 v=0
235200 On ch=1 n=d#3 v=0
236160 On ch=1 n=d#3 v=70
236640 On ch=1 n=d#3 v=0
239040 On ch=1 n=d#4 v=70
239520 On ch=1 n=d#4 v=0
239520 On ch=1 n=c#5 v=60
239520 On ch=1 n=d#5 v=60
239520 On ch=1 n=g5 v=60
240000 On ch=1 n=g5 v=0
240000 On ch=1 n=d#5 v=0
240000 On ch=1 n=c#5 v=0
240000 On ch=1 n=c#5 v=60
240000 On ch=1 n=d#5 v=60
240000 On ch=1 n=g5 v=60
240480 On ch=1 n=g5 v=0
240480 On ch=1 n=d#5 v=0
240480 On ch=1 n=c#5 v=0
240480 On ch=1 n=g#3 v=70
240960 On ch=1 n=g#3 v=0
240960 On ch=1 n=d#5 v=60
240960 On ch=1 n=c5 v=60
241440 On ch=1 n=c5 v=0
241440 On ch=1 n=d#5 v=0
241440 On ch=1 n=c5 v=60
241440 On ch=1 n=d#5 v=60
241920 On ch=1 n=d#5 v=0
241920 On ch=1 n=c5 v=0
241920 On ch=1 n=d#3 v=70
242400 On ch=1 n=d#3 v=0
242400 On ch=1 n=c#5 v=60
242400 On ch=1 n=g5 v=60
242400 On ch=1 n=d#5 v=60
242880 On ch=1 n=d#5 v=0
242880 On ch=1 n=g5 v=0
242880 On ch=1 n=c#5 v=0
242880 On ch=1 n=c#5 v=60
242880 On ch=1 n=g5 v=60
242880 On ch=1 n=d#5 v=60
243360 On ch=1 n=d#5 v=0
243360 On ch=1 n=g5 v=0
243360 On ch=1 n=c#5 v=0
243360 On ch=1 n=g#4 v=70
243840 On ch=1 n=g#4 v=0
245760 On ch=1 n=d#4 v=60
246240 On ch=1 n=d#4 v=0
246240 On ch=1 n=g#4 v=70
246720 On ch=1 n=g#4 v=0
246720 On ch=1 n=d#5 v=60
246720 On ch=1 n=c5 v=60
247200 On ch=1 n=c5 v=0
247200 On ch=1 n=d#5 v=0
247200 On ch=1 n=d4 v=60
247200 On ch=1 n=b4 v=60
247680 On ch=1 n=b4 v=0
247680 On ch=1 n=d4 v=0
247680 On ch=1 n=d#4 v=70
248160 On ch=1 n=d#4 v=0
248160 On ch=1 n=d#5 v=60
248160 On ch=1 n=c#5 v=60
248640 On ch=1 n=c#5 v=0
248640 On ch=1 n=d#5 v=0
248640 On ch=1 n=g5 v=60
248640 On ch=1 n=d#5 v=60
248640 On ch=1 n=c#5 v=60
249120 On ch=1 n=c#5 v=0
249120 On ch=1 n=d#5 v=0
249120 On ch=1 n=g5 v=0
250560 On ch=1 n=d#4 v=70
251040 On ch=1 n=d#4 v=0
251040 On ch=1 n=c#5 v=60
251040 On ch=1 n=d#5 v=60
251040 On ch=1 n=g5 v=60
251520 On ch=1 n=g5 v=0
251520 On ch=1 n=d#5 v=0
251520 On ch=1 n=c#5 v=0
251520 On ch=1 n=c#5 v=60
251520 On ch=1 n=d#5 v=60
251520 On ch=1 n=g5 v=60
252000 On ch=1 n=g5 v=0
252000 On ch=1 n=d#5 v=0
252000 On ch=1 n=c#5 v=0
252000 On ch=1 n=g#3 v=70
252480 On ch=1 n=g#3 v=0
252480 On ch=1 n=d#5 v=60
252480 On ch=1 n=c5 v=60
252960 On ch=1 n=c5 v=0
252960 On ch=1 n=d#5 v=0
252960 On ch=1 n=c5 v=60
252960 On ch=1 n=d#5 v=60
253440 On ch=1 n=d#5 v=0
253440 On ch=1 n=c5 v=0
253440 On ch=1 n=d#3 v=70
253920 On ch=1 n=d#3 v=0
253920 On ch=1 n=c#5 v=60
253920 On ch=1 n=d#5 v=60
253920 On ch=1 n=g5 v=60
254400 On ch=1 n=g5 v=0
254400 On ch=1 n=d#5 v=0
254400 On ch=1 n=c#5 v=0
254400 On ch=1 n=c#5 v=60
254400 On ch=1 n=d#5 v=60
254400 On ch=1 n=g5 v=60
254880 On ch=1 n=g5 v=0
254880 On ch=1 n=d#5 v=0
254880 On ch=1 n=c#5 v=0
254880 On ch=1 n=g#4 v=70
255360 On ch=1 n=g#4 v=0
259200 On ch=1 n=g#3 v=70
259680 On ch=1 n=g#3 v=0
259680 On ch=1 n=c5 v=60
259680 On ch=1 n=g#4 v=60
259680 On ch=1 n=d#4 v=60
260160 On ch=1 n=d#4 v=0
260160 On ch=1 n=g#4 v=0
260160 On ch=1 n=c5 v=0
260160 On ch=1 n=d#4 v=60
260160 On ch=1 n=g#4 v=60
260160 On ch=1 n=c5 v=60
260640 On ch=1 n=c5 v=0
260640 On ch=1 n=g#4 v=0
260640 On ch=1 n=d#4 v=0
260640 On ch=1 n=d#3 v=70
261120 On ch=1 n=d#3 v=0
261120 On ch=1 n=g4 v=60
261120 On ch=1 n=d#4 v=60
261600 On ch=1 n=d#4 v=0
261600 On ch=1 n=g4 v=0
261600 On ch=1 n=d#4 v=60
261600 On ch=1 n=g4 v=60
262080 On ch=1 n=g4 v=0
262080 On ch=1 n=d#4 v=0
262080 On ch=1 n=e3 v=70
262560 On ch=1 n=e3 v=0
262560 On ch=1 n=g4 v=60
262560 On ch=1 n=c#4 v=60
263040 On ch=1 n=c#4 v=0
263040 On ch=1 n=g4 v=0
263040 On ch=1 n=g4 v=60
263040 On ch=1 n=c#4 v=60
263520 On ch=1 n=c#4 v=0
263520 On ch=1 n=g4 v=0
263520 On ch=1 n=f3 v=70
264000 On ch=1 n=f3 v=0
264000 On ch=1 n=g#4 v=60
264000 On ch=1 n=c4 v=60
264480 On ch=1 n=c4 v=0
264480 On ch=1 n=g#4 v=0
264480 On ch=1 n=g#4 v=60
264480 On ch=1 n=c4 v=60
264960 On ch=1 n=c4 v=0
264960 On ch=1 n=g#4 v=0
264960 On ch=1 n=d3 v=70
265440 On ch=1 n=d3 v=0
265440 On ch=1 n=g#4 v=60
265440 On ch=1 n=d4 v=60
265920 On ch=1 n=d4 v=0
265920 On ch=1 n=g#4 v=0
265920 On ch=1 n=g#4 v=60
265920 On ch=1 n=d4 v=60
266400 On ch=1 n=d4 v=0
266400 On ch=1 n=g#4 v=0
266400 On ch=1 n=d#3 v=70
266880 On ch=1 n=d#3 v=0
266880 On ch=1 n=g#4 v=60
266880 On ch=1 n=d#4 v=60
267360 On ch=1 n=d#4 v=0
267360 On ch=1 n=g#4 v=0
267360 On ch=1 n=g#4 v=60
267360 On ch=1 n=d#4 v=60
267840 On ch=1 n=d#4 v=0
267840 On ch=1 n=g#4 v=0
267840 On ch=1 n=d#3 v=70
268320 On ch=1 n=d#3 v=0
268320 On ch=1 n=g4 v=60
268320 On ch=1 n=d#4 v=60
268800 On ch=1 n=d#4 v=0
268800 On ch=1 n=g4 v=0
268800 On ch=1 n=d#4 v=60
268800 On ch=1 n=g4 v=60
269280 On ch=1 n=g4 v=0
269280 On ch=1 n=d#4 v=0
269280 On ch=1 n=g#3 v=70
269760 On ch=1 n=g#3 v=0
269760 On ch=1 n=g#4 v=60
269760 On ch=1 n=d#4 v=60
270240 On ch=1 n=d#4 v=0
270240 On ch=1 n=g#4 v=0
270240 On ch=1 n=g#4 v=60
270240 On ch=1 n=d#4 v=60
270720 On ch=1 n=d#4 v=0
270720 On ch=1 n=g#4 v=0
270720 On ch=1 n=g#3 v=70
271200 On ch=1 n=g#3 v=0
271200 On ch=1 n=c5 v=60
271200 On ch=1 n=f4 v=60
271680 On ch=1 n=f4 v=0
271680 On ch=1 n=c5 v=0
271680 On ch=1 n=c5 v=60
271680 On ch=1 n=f4 v=60
272160 On ch=1 n=f4 v=0
272160 On ch=1 n=c5 v=0
272160 On ch=1 n=g3 v=70
272640 On ch=1 n=g3 v=0
272640 On ch=1 n=a#4 v=60
272640 On ch=1 n=c#4 v=60
273120 On ch=1 n=c#4 v=0
273120 On ch=1 n=a#4 v=0
273120 On ch=1 n=a#4 v=60
273120 On ch=1 n=c#4 v=60
273600 On ch=1 n=c#4 v=0
273600 On ch=1 n=a#4 v=0
273600 On ch=1 n=c3 v=70
274080 On ch=1 n=c3 v=0
274080 On ch=1 n=a#4 v=60
274080 On ch=1 n=g4 v=60
274080 On ch=1 n=c4 v=60
274560 On ch=1 n=c4 v=0
274560 On ch=1 n=g4 v=0
274560 On ch=1 n=a#4 v=0
274560 On ch=1 n=g4 v=60
274560 On ch=1 n=a#4 v=60
274560 On ch=1 n=c4 v=60
275040 On ch=1 n=c4 v=0
275040 On ch=1 n=a#4 v=0
275040 On ch=1 n=g4 v=0
275040 On ch=1 n=f3 v=70
275520 On ch=1 n=f3 v=0
275520 On ch=1 n=g#4 v=60
275520 On ch=1 n=c4 v=60
276000 On ch=1 n=c4 v=0
276000 On ch=1 n=g#4 v=0
276000 On ch=1 n=g#4 v=60
276000 On ch=1 n=c4 v=60
276480 On ch=1 n=c4 v=0
276480 On ch=1 n=g#4 v=0
276480 On ch=1 n=d3 v=70
276960 On ch=1 n=d3 v=0
276960 On ch=1 n=g#4 v=60
276960 On ch=1 n=d4 v=60
277440 On ch=1 n=d4 v=0
277440 On ch=1 n=g#4 v=0
277440 On ch=1 n=g#4 v=60
277440 On ch=1 n=d4 v=60
277920 On ch=1 n=d4 v=0
277920 On ch=1 n=g#4 v=0
277920 On ch=1 n=d#3 v=70
278400 On ch=1 n=d#3 v=0
278400 On ch=1 n=g#4 v=60
278400 On ch=1 n=d#4 v=60
278880 On ch=1 n=d#4 v=0
278880 On ch=1 n=g#4 v=0
278880 On ch=1 n=c5 v=60
278880 On ch=1 n=g#4 v=60
278880 On ch=1 n=d#4 v=60
279360 On ch=1 n=d#4 v=0
279360 On ch=1 n=g#4 v=0
279360 On ch=1 n=c5 v=0
279360 On ch=1 n=d#3 v=70
279840 On ch=1 n=d#3 v=0
279840 On ch=1 n=g4 v=60
279840 On ch=1 n=d#4 v=60
280320 On ch=1 n=d#4 v=0
280320 On ch=1 n=g4 v=0
280320 On ch=1 n=d#4 v=60
280320 On ch=1 n=g4 v=60
280800 On ch=1 n=g4 v=0
280800 On ch=1 n=d#4 v=0
280800 On ch=1 n=g#4 v=60
280800 On ch=1 n=d#4 v=60
280800 On ch=1 n=g#3 v=60
281280 On ch=1 n=g#3 v=0
281280 On ch=1 n=d#4 v=0
281280 On ch=1 n=g#4 v=0
282240 On ch=1 n=g#4 v=50
282720 On ch=1 n=g#4 v=0
283680 On ch=1 n=d#4 v=50
284160 On ch=1 n=d#4 v=0
284160 On ch=1 n=g5 v=40
284160 On ch=1 n=c#5 v=40
284160 On ch=1 n=a#4 v=40
284640 On ch=1 n=a#4 v=0
284640 On ch=1 n=c#5 v=0
284640 On ch=1 n=g5 v=0
284640 On ch=1 n=g5 v=40
284640 On ch=1 n=c#5 v=40
284640 On ch=1 n=a#4 v=40
285120 On ch=1 n=a#4 v=0
285120 On ch=1 n=c#5 v=0
285120 On ch=1 n=g5 v=0
285120 On ch=1 n=e4 v=50
285600 On ch=1 n=e4 v=0
285600 On ch=1 n=g5 v=40
285600 On ch=1 n=c#5 v=40
285600 On ch=1 n=a#4 v=40
286080 On ch=1 n=a#4 v=0
286080 On ch=1 n=c#5 v=0
286080 On ch=1 n=g5 v=0
286080 On ch=1 n=a#4 v=40
286080 On ch=1 n=c#5 v=40
286080 On ch=1 n=g5 v=40
286560 On ch=1 n=g5 v=0
286560 On ch=1 n=c#5 v=0
286560 On ch=1 n=a#4 v=0
286560 On ch=1 n=f4 v=50
287040 On ch=1 n=f4 v=0
287040 On ch=1 n=g#5 v=40
287040 On ch=1 n=c5 v=40
287040 On ch=1 n=g#4 v=40
287520 On ch=1 n=g#4 v=0
287520 On ch=1 n=c5 v=0
287520 On ch=1 n=g#5 v=0
287520 On ch=1 n=g#4 v=40
287520 On ch=1 n=c5 v=40
287520 On ch=1 n=g#5 v=40
288000 On ch=1 n=g#5 v=0
288000 On ch=1 n=c5 v=0
288000 On ch=1 n=g#4 v=0
288000 On ch=1 n=d4 v=50
288480 On ch=1 n=d4 v=0
288480 On ch=1 n=f5 v=40
288480 On ch=1 n=g#4 v=40
288480 On ch=1 n=b4 v=40
288960 On ch=1 n=b4 v=0
288960 On ch=1 n=g#4 v=0
288960 On ch=1 n=f5 v=0
288960 On ch=1 n=f5 v=40
288960 On ch=1 n=g#4 v=40
288960 On ch=1 n=b4 v=40
289440 On ch=1 n=b4 v=0
289440 On ch=1 n=g#4 v=0
289440 On ch=1 n=f5 v=0
289440 On ch=1 n=d#4 v=50
289920 On ch=1 n=d#4 v=0
289920 On ch=1 n=d#5 v=40
289920 On ch=1 n=c5 v=40
289920 On ch=1 n=g#4 v=40
290400 On ch=1 n=g#4 v=0
290400 On ch=1 n=c5 v=0
290400 On ch=1 n=d#5 v=0
290400 On ch=1 n=g#4 v=40
290400 On ch=1 n=c5 v=40
290400 On ch=1 n=d#5 v=40
290880 On ch=1 n=d#5 v=0
290880 On ch=1 n=c5 v=0
290880 On ch=1 n=g#4 v=0
290880 On ch=1 n=d#4 v=50
291360 On ch=1 n=d#4 v=0
291360 On ch=1 n=g5 v=40
291360 On ch=1 n=d#5 v=40
291360 On ch=1 n=a#4 v=40
291840 On ch=1 n=a#4 v=0
291840 On ch=1 n=d#5 v=0
291840 On ch=1 n=g5 v=0
291840 On ch=1 n=d#5 v=40
291840 On ch=1 n=g5 v=40
291840 On ch=1 n=a#4 v=40
292320 On ch=1 n=a#4 v=0
292320 On ch=1 n=g5 v=0
292320 On ch=1 n=d#5 v=0
292320 On ch=1 n=g#4 v=50
292800 On ch=1 n=g#4 v=0
293760 On ch=1 n=g#4 v=50
294240 On ch=1 n=g#4 v=0
295200 On ch=1 n=g4 v=50
295680 On ch=1 n=g4 v=0
296640 On ch=1 n=c4 v=50
297120 On ch=1 n=c4 v=0
297120 On ch=1 n=g5 v=40
297120 On ch=1 n=a#4 v=40
297120 On ch=1 n=c5 v=40
297600 On ch=1 n=c5 v=0
297600 On ch=1 n=a#4 v=0
297600 On ch=1 n=g5 v=0
297600 On ch=1 n=g5 v=40
297600 On ch=1 n=a#4 v=40
297600 On ch=1 n=c5 v=40
298080 On ch=1 n=c5 v=0
298080 On ch=1 n=a#4 v=0
298080 On ch=1 n=g5 v=0
298080 On ch=1 n=f4 v=50
298560 On ch=1 n=f4 v=0
298560 On ch=1 n=f5 v=40
298560 On ch=1 n=c5 v=40
298560 On ch=1 n=g#4 v=40
299040 On ch=1 n=g#4 v=0
299040 On ch=1 n=c5 v=0
299040 On ch=1 n=f5 v=0
299040 On ch=1 n=g#4 v=40
299040 On ch=1 n=c5 v=40
299040 On ch=1 n=f5 v=40
299520 On ch=1 n=f5 v=0
299520 On ch=1 n=c5 v=0
299520 On ch=1 n=g#4 v=0
299520 On ch=1 n=d4 v=50
300000 On ch=1 n=d4 v=0
300000 On ch=1 n=f5 v=40
300000 On ch=1 n=g#4 v=40
300000 On ch=1 n=b4 v=40
300480 On ch=1 n=b4 v=0
300480 On ch=1 n=g#4 v=0
300480 On ch=1 n=f5 v=0
300960 On ch=1 n=g4 v=40
301920 On ch=1 n=g4 v=0
301920 On ch=1 n=f4 v=40
302400 On ch=1 n=f4 v=0
302400 On ch=1 n=g4 v=40
303360 On ch=1 n=g4 v=0
303360 On ch=1 n=f4 v=40
303840 On ch=1 n=f4 v=0
303840 On ch=1 n=g4 v=40
304740 On ch=1 n=a#4 v=40
304800 On ch=1 n=a#4 v=0
304800 On ch=1 n=g4 v=0
304800 On ch=1 n=g#4 v=40
305280 On ch=1 n=g#4 v=0
305280 On ch=1 n=d#4 v=70
305760 On ch=1 n=d#4 v=0
308160 On ch=1 n=d#4 v=70
308640 On ch=1 n=d#4 v=0
308640 On ch=1 n=c#5 v=60
308640 On ch=1 n=d#5 v=60
308640 On ch=1 n=g5 v=60
309120 On ch=1 n=g5 v=0
309120 On ch=1 n=d#5 v=0
309120 On ch=1 n=c#5 v=0
309120 On ch=1 n=c#5 v=60
309120 On ch=1 n=d#5 v=60
309120 On ch=1 n=g5 v=60
309600 On ch=1 n=g5 v=0
309600 On ch=1 n=d#5 v=0
309600 On ch=1 n=c#5 v=0
309600 On ch=1 n=g#3 v=70
310080 On ch=1 n=g#3 v=0
310080 On ch=1 n=d#5 v=60
310080 On ch=1 n=c5 v=60
310560 On ch=1 n=c5 v=0
310560 On ch=1 n=d#5 v=0
310560 On ch=1 n=c5 v=60
310560 On ch=1 n=d#5 v=60
311040 On ch=1 n=d#5 v=0
311040 On ch=1 n=c5 v=0
311040 On ch=1 n=d#4 v=70
311520 On ch=1 n=d#4 v=0
313920 On ch=1 n=d#4 v=104
314400 On ch=1 n=d#4 v=0
315360 On ch=1 n=d#2 v=120
315360 On ch=1 n=d#3 v=120
315840 On ch=1 n=d#3 v=0
315840 On ch=1 n=d#2 v=0
315840 On ch=1 n=f5 v=110
315840 On ch=1 n=c#5 v=110
315840 On ch=1 n=a#4 v=110
316320 On ch=1 n=a#4 v=0
316320 On ch=1 n=c#5 v=0
316320 On ch=1 n=f5 v=0
316320 On ch=1 n=a#4 v=110
316320 On ch=1 n=c#5 v=110
316320 On ch=1 n=f5 v=110
316800 On ch=1 n=f5 v=0
316800 On ch=1 n=c#5 v=0
316800 On ch=1 n=a#4 v=0
316800 On ch=1 n=d#2 v=120
316800 On ch=1 n=d#3 v=120
317280 On ch=1 n=d#3 v=0
317280 On ch=1 n=d#2 v=0
328320 On ch=1 n=d#3 v=70
328800 On ch=1 n=d#3 v=0
328800 On ch=1 n=c#5 v=60
328800 On ch=1 n=g4 v=60
328800 On ch=1 n=d#4 v=60
329280 On ch=1 n=d#4 v=0
329280 On ch=1 n=g4 v=0
329280 On ch=1 n=c#5 v=0
329280 On ch=1 n=d#4 v=60
329280 On ch=1 n=g4 v=60
329280 On ch=1 n=c#5 v=60
329760 On ch=1 n=c#5 v=0
329760 On ch=1 n=g4 v=0
329760 On ch=1 n=d#4 v=0
329760 On ch=1 n=g#3 v=70
330240 On ch=1 n=g#3 v=0
330240 On ch=1 n=c5 v=60
330240 On ch=1 n=g#4 v=60
330240 On ch=1 n=d#4 v=60
330720 On ch=1 n=d#4 v=0
330720 On ch=1 n=g#4 v=0
330720 On ch=1 n=c5 v=0
330720 On ch=1 n=d#4 v=60
330720 On ch=1 n=g#4 v=60
331200 On ch=1 n=g#4 v=0
331200 On ch=1 n=d#4 v=0
331200 On ch=1 n=d#3 v=70
331680 On ch=1 n=d#3 v=0
331680 On ch=1 n=c#5 v=60
331680 On ch=1 n=a#4 v=60
331680 On ch=1 n=d#4 v=60
332160 On ch=1 n=d#4 v=0
332160 On ch=1 n=a#4 v=0
332160 On ch=1 n=c#5 v=0
332160 On ch=1 n=d#4 v=60
332160 On ch=1 n=g4 v=60
332160 On ch=1 n=c#5 v=60
332640 On ch=1 n=c#5 v=0
332640 On ch=1 n=g4 v=0
332640 On ch=1 n=d#4 v=0
332640 On ch=1 n=g#3 v=70
333120 On ch=1 n=g#3 v=0
333120 On ch=1 n=g#4 v=60
333120 On ch=1 n=d#4 v=60
333600 On ch=1 n=d#4 v=0
333600 On ch=1 n=g#4 v=0
333600 On ch=1 n=d#4 v=60
333600 On ch=1 n=c5 v=60
333600 On ch=1 n=g#4 v=60
334080 On ch=1 n=g#4 v=0
334080 On ch=1 n=c5 v=0
334080 On ch=1 n=d#4 v=0
334080 On ch=1 n=d#3 v=70
334560 On ch=1 n=d#3 v=0
334560 On ch=1 n=c#5 v=63
334560 On ch=1 n=g4 v=63
334560 On ch=1 n=d#4 v=63
335040 On ch=1 n=d#4 v=0
335040 On ch=1 n=g4 v=0
335040 On ch=1 n=c#5 v=0
335040 On ch=1 n=d#4 v=66
335040 On ch=1 n=g4 v=66
335040 On ch=1 n=c#5 v=66
335520 On ch=1 n=c#5 v=0
335520 On ch=1 n=g4 v=0
335520 On ch=1 n=d#4 v=0
335520 On ch=1 n=g#3 v=80
336000 On ch=1 n=g#3 v=0
336000 On ch=1 n=c5 v=73
336000 On ch=1 n=g#4 v=73
336000 On ch=1 n=d#4 v=73
336480 On ch=1 n=d#4 v=0
336480 On ch=1 n=g#4 v=0
336480 On ch=1 n=c5 v=0
336480 On ch=1 n=d#4 v=77
336480 On ch=1 n=g#4 v=77
336960 On ch=1 n=g#4 v=0
336960 On ch=1 n=d#4 v=0
336960 On ch=1 n=d#3 v=90
337440 On ch=1 n=d#3 v=0
337440 On ch=1 n=g5 v=83
337440 On ch=1 n=d#5 v=83
337440 On ch=1 n=c#5 v=83
337440 On ch=1 n=a#4 v=83
337920 On ch=1 n=a#4 v=0
337920 On ch=1 n=c#5 v=0
337920 On ch=1 n=d#5 v=0
337920 On ch=1 n=g5 v=0
337920 On ch=1 n=g5 v=87
337920 On ch=1 n=d#5 v=87
337920 On ch=1 n=c#5 v=87
337920 On ch=1 n=a#4 v=87
338400 On ch=1 n=a#4 v=0
338400 On ch=1 n=c#5 v=0
338400 On ch=1 n=d#5 v=0
338400 On ch=1 n=g5 v=0
338400 On ch=1 n=g#3 v=100
338880 On ch=1 n=g#3 v=0
339840 On ch=1 n=d3 v=111
339840 On ch=1 n=d4 v=111
340320 On ch=1 n=d4 v=0
340320 On ch=1 n=d3 v=0
340320 On ch=1 n=d4 v=104
340320 On ch=1 n=e4 v=104
340320 On ch=1 n=g#4 v=104
340320 On ch=1 n=b4 v=104
340800 On ch=1 n=b4 v=0
340800 On ch=1 n=g#4 v=0
340800 On ch=1 n=e4 v=0
340800 On ch=1 n=d4 v=0
340800 On ch=1 n=d4 v=107
340800 On ch=1 n=e4 v=107
340800 On ch=1 n=g#4 v=107
340800 On ch=1 n=b4 v=107
341280 On ch=1 n=b4 v=0
341280 On ch=1 n=g#4 v=0
341280 On ch=1 n=e4 v=0
341280 On ch=1 n=d4 v=0
341280 On ch=1 n=d4 v=111
341280 On ch=1 n=e4 v=111
341280 On ch=1 n=g#4 v=111
341280 On ch=1 n=b4 v=111
342000 On ch=1 n=b4 v=0
342000 On ch=1 n=g#4 v=0
342000 On ch=1 n=e4 v=0
342000 On ch=1 n=d4 v=0
342000 On ch=1 n=c#5 v=116
342000 On ch=1 n=g#4 v=116
342000 On ch=1 n=e4 v=116
342000 On ch=1 n=d4 v=116
342240 On ch=1 n=d4 v=0
342240 On ch=1 n=e4 v=0
342240 On ch=1 n=g#4 v=0
342240 On ch=1 n=c#5 v=0
342240 On ch=1 n=d4 v=118
342240 On ch=1 n=e4 v=118
342240 On ch=1 n=g#4 v=118
342240 On ch=1 n=b4 v=118
342720 On ch=1 n=b4 v=0
342720 On ch=1 n=g#4 v=0
342720 On ch=1 n=e4 v=0
342720 On ch=1 n=d4 v=0
342720 On ch=1 n=d4 v=120
342720 On ch=1 n=e4 v=120
342720 On ch=1 n=g#4 v=120
342720 On ch=1 n=b4 v=120
342840 On ch=1 n=b4 v=0
342840 On ch=1 n=g#4 v=0
342840 On ch=1 n=e4 v=0
342840 On ch=1 n=d4 v=0
343680 On ch=1 n=d#4 v=60
343920 On ch=1 n=d#4 v=0
343920 On ch=1 n=e4 v=60
344160 On ch=1 n=e4 v=0
344160 On ch=1 n=f#4 v=60
344400 On ch=1 n=f#4 v=0
344400 On ch=1 n=g#4 v=60
344640 On ch=1 n=g#4 v=0
344640 On ch=1 n=a4 v=60
344880 On ch=1 n=a4 v=0
344880 On ch=1 n=b4 v=60
345120 On ch=1 n=b4 v=0
345120 On ch=1 n=c#5 v=60
345360 On ch=1 n=c#5 v=0
345360 On ch=1 n=d5 v=60
345600 On ch=1 n=d5 v=0
349920 On ch=1 n=c#4 v=60
349960 On ch=1 n=a4 v=60
350000 On ch=1 n=e5 v=60
350400 On ch=1 n=e5 v=0
350400 On ch=1 n=a4 v=0
350400 On ch=1 n=c#4 v=0
350880 On ch=1 n=b4 v=60
350880 On ch=1 n=f4 v=60
350880 On ch=1 n=d4 v=60
351360 On ch=1 n=d4 v=0
351360 On ch=1 n=f4 v=0
351360 On ch=1 n=b4 v=0
351360 On ch=1 n=d#3 v=70
351840 On ch=1 n=d#3 v=0
351840 On ch=1 n=c#5 v=60
351840 On ch=1 n=g4 v=60
351840 On ch=1 n=d#4 v=60
352320 On ch=1 n=d#4 v=0
352320 On ch=1 n=g4 v=0
352320 On ch=1 n=c#5 v=0
352320 On ch=1 n=d#4 v=60
352320 On ch=1 n=g4 v=60
352320 On ch=1 n=c#5 v=60
352800 On ch=1 n=c#5 v=0
352800 On ch=1 n=g4 v=0
352800 On ch=1 n=d#4 v=0
352800 On ch=1 n=g#3 v=70
353280 On ch=1 n=g#3 v=0
353280 On ch=1 n=c5 v=60
353280 On ch=1 n=g#4 v=60
353280 On ch=1 n=d#4 v=60
353760 On ch=1 n=d#4 v=0
353760 On ch=1 n=g#4 v=0
353760 On ch=1 n=c5 v=0
353760 On ch=1 n=d#4 v=60
353760 On ch=1 n=g#4 v=60
354240 On ch=1 n=g#4 v=0
354240 On ch=1 n=d#4 v=0
354240 On ch=1 n=d#3 v=70
354720 On ch=1 n=d#3 v=0
354720 On ch=1 n=c#5 v=60
354720 On ch=1 n=a#4 v=60
354720 On ch=1 n=d#4 v=60
355200 On ch=1 n=d#4 v=0
355200 On ch=1 n=a#4 v=0
355200 On ch=1 n=c#5 v=0
355200 On ch=1 n=d#4 v=60
355200 On ch=1 n=g4 v=60
355200 On ch=1 n=c#5 v=60
355680 On ch=1 n=c#5 v=0
355680 On ch=1 n=g4 v=0
355680 On ch=1 n=d#4 v=0
355680 On ch=1 n=g#3 v=70
356160 On ch=1 n=g#3 v=0
356160 On ch=1 n=g#4 v=60
356160 On ch=1 n=d#4 v=60
356640 On ch=1 n=d#4 v=0
356640 On ch=1 n=g#4 v=0
356640 On ch=1 n=d#4 v=60
356640 On ch=1 n=c5 v=60
356640 On ch=1 n=g#4 v=60
357120 On ch=1 n=g#4 v=0
357120 On ch=1 n=c5 v=0
357120 On ch=1 n=d#4 v=0
357120 On ch=1 n=c#3 v=70
357120 On ch=1 n=c#4 v=70
357600 On ch=1 n=c#4 v=0
357600 On ch=1 n=c#3 v=0
357600 On ch=1 n=d#5 v=61
357600 On ch=1 n=g4 v=61
357600 On ch=1 n=d#4 v=61
358080 On ch=1 n=d#4 v=0
358080 On ch=1 n=g4 v=0
358080 On ch=1 n=d#5 v=0
358080 On ch=1 n=d#4 v=63
358080 On ch=1 n=g4 v=63
358080 On ch=1 n=d#5 v=63
358560 On ch=1 n=d#5 v=0
358560 On ch=1 n=g4 v=0
358560 On ch=1 n=d#4 v=0
358560 On ch=1 n=c3 v=75
358560 On ch=1 n=c4 v=75
359040 On ch=1 n=c4 v=0
359040 On ch=1 n=c3 v=0
359040 On ch=1 n=g#4 v=66
359040 On ch=1 n=d#4 v=66
359520 On ch=1 n=d#4 v=0
359520 On ch=1 n=g#4 v=0
359520 On ch=1 n=d#5 v=68
359520 On ch=1 n=d#4 v=68
359520 On ch=1 n=g#4 v=68
360000 On ch=1 n=g#4 v=0
360000 On ch=1 n=d#4 v=0
360000 On ch=1 n=d#5 v=0
360000 On ch=1 n=a#2 v=80
360000 On ch=1 n=a#3 v=80
360480 On ch=1 n=a#3 v=0
360480 On ch=1 n=a#2 v=0
360480 On ch=1 n=d#4 v=71
360480 On ch=1 n=a#4 v=71
360480 On ch=1 n=c#5 v=71
360480 On ch=1 n=d#5 v=71
360960 On ch=1 n=d#5 v=0
360960 On ch=1 n=c#5 v=0
360960 On ch=1 n=a#4 v=0
360960 On ch=1 n=d#4 v=0
360960 On ch=1 n=d#5 v=73
360960 On ch=1 n=c#5 v=73
360960 On ch=1 n=g4 v=73
360960 On ch=1 n=d#4 v=73
361440 On ch=1 n=d#4 v=0
361440 On ch=1 n=g4 v=0
361440 On ch=1 n=c#5 v=0
361440 On ch=1 n=d#5 v=0
361440 On ch=1 n=g#2 v=85
361440 On ch=1 n=g#3 v=85
361920 On ch=1 n=g#3 v=0
361920 On ch=1 n=g#2 v=0
361920 On ch=1 n=d#5 v=77
361920 On ch=1 n=c5 v=77
361920 On ch=1 n=g#4 v=77
361920 On ch=1 n=d#4 v=77
362400 On ch=1 n=d#4 v=0
362400 On ch=1 n=g#4 v=0
362400 On ch=1 n=c5 v=0
362400 On ch=1 n=d#5 v=0
362400 On ch=1 n=d#4 v=78
362400 On ch=1 n=g#4 v=78
362400 On ch=1 n=c5 v=78
362400 On ch=1 n=d#5 v=78
362880 On ch=1 n=d#5 v=0
362880 On ch=1 n=c5 v=0
362880 On ch=1 n=g#4 v=0
362880 On ch=1 n=d#4 v=0
362880 On ch=1 n=f#2 v=90
362880 On ch=1 n=f#3 v=90
363360 On ch=1 n=f#3 v=0
363360 On ch=1 n=f#2 v=0
363360 On ch=1 n=f#4 v=82
363360 On ch=1 n=g#4 v=82
363360 On ch=1 n=c5 v=82
363360 On ch=1 n=d#5 v=82
363840 On ch=1 n=d#5 v=0
363840 On ch=1 n=c5 v=0
363840 On ch=1 n=g#4 v=0
363840 On ch=1 n=f#4 v=0
363840 On ch=1 n=f#4 v=83
363840 On ch=1 n=g#4 v=83
363840 On ch=1 n=c5 v=83
363840 On ch=1 n=d#5 v=83
364320 On ch=1 n=d#5 v=0
364320 On ch=1 n=c5 v=0
364320 On ch=1 n=g#4 v=0
364320 On ch=1 n=f#4 v=0
364320 On ch=1 n=f2 v=95
364320 On ch=1 n=f3 v=95
364800 On ch=1 n=f3 v=0
364800 On ch=1 n=f2 v=0
364800 On ch=1 n=f5 v=87
364800 On ch=1 n=c#5 v=87
364800 On ch=1 n=f4 v=87
364800 On ch=1 n=g#4 v=87
365280 On ch=1 n=g#4 v=0
365280 On ch=1 n=f4 v=0
365280 On ch=1 n=c#5 v=0
365280 On ch=1 n=f5 v=0
365280 On ch=1 n=f4 v=89
365280 On ch=1 n=g#4 v=89
365280 On ch=1 n=c#5 v=89
365280 On ch=1 n=f5 v=89
365760 On ch=1 n=f5 v=0
365760 On ch=1 n=c#5 v=0
365760 On ch=1 n=g#4 v=0
365760 On ch=1 n=f4 v=0
365760 On ch=1 n=d#2 v=100
365760 On ch=1 n=d#3 v=100
366240 On ch=1 n=d#3 v=0
366240 On ch=1 n=d#2 v=0
366240 On ch=1 n=f#5 v=92
366240 On ch=1 n=c5 v=92
366240 On ch=1 n=g#4 v=92
366240 On ch=1 n=d#4 v=92
366720 On ch=1 n=d#4 v=0
366720 On ch=1 n=g#4 v=0
366720 On ch=1 n=c5 v=0
366720 On ch=1 n=f#5 v=0
366720 On ch=1 n=d#4 v=94
366720 On ch=1 n=g#4 v=94
366720 On ch=1 n=c5 v=94
366720 On ch=1 n=f#5 v=94
367200 On ch=1 n=f#5 v=0
367200 On ch=1 n=c5 v=0
367200 On ch=1 n=g#4 v=0
367200 On ch=1 n=d#4 v=0
367200 On ch=1 n=c#2 v=105
367200 On ch=1 n=c#3 v=105
367680 On ch=1 n=c#3 v=0
367680 On ch=1 n=c#2 v=0
367680 On ch=1 n=f5 v=97
367680 On ch=1 n=c#5 v=97
367680 On ch=1 n=g#4 v=97
367680 On ch=1 n=f4 v=97
368160 On ch=1 n=f4 v=0
368160 On ch=1 n=g#4 v=0
368160 On ch=1 n=c#5 v=0
368160 On ch=1 n=f5 v=0
368160 On ch=1 n=f4 v=99
368160 On ch=1 n=g#4 v=99
368160 On ch=1 n=c#5 v=99
368160 On ch=1 n=f5 v=99
368640 On ch=1 n=f5 v=0
368640 On ch=1 n=c#5 v=0
368640 On ch=1 n=g#4 v=0
368640 On ch=1 n=f4 v=0
368640 On ch=1 n=g2 v=111
368640 On ch=1 n=g3 v=111
369120 On ch=1 n=g3 v=0
369120 On ch=1 n=g2 v=0
369120 On ch=1 n=e5 v=102
369120 On ch=1 n=c#5 v=102
369120 On ch=1 n=a4 v=102
369120 On ch=1 n=g4 v=102
369600 On ch=1 n=g4 v=0
369600 On ch=1 n=a4 v=0
369600 On ch=1 n=c#5 v=0
369600 On ch=1 n=e5 v=0
369600 On ch=1 n=g4 v=104
369600 On ch=1 n=a4 v=104
369600 On ch=1 n=c#5 v=104
369600 On ch=1 n=e5 v=104
370080 On ch=1 n=e5 v=0
370080 On ch=1 n=c#5 v=0
370080 On ch=1 n=a4 v=0
370080 On ch=1 n=g4 v=0
370080 On ch=1 n=f#2 v=116
370080 On ch=1 n=f#3 v=116
370560 On ch=1 n=f#3 v=0
370560 On ch=1 n=f#2 v=0
370560 On ch=1 n=f#5 v=107
370560 On ch=1 n=d5 v=107
370560 On ch=1 n=a4 v=107
370560 On ch=1 n=f#4 v=107
371040 On ch=1 n=f#4 v=0
371040 On ch=1 n=a4 v=0
371040 On ch=1 n=d5 v=0
371040 On ch=1 n=f#5 v=0
371040 On ch=1 n=f#4 v=109
371040 On ch=1 n=a4 v=109
371040 On ch=1 n=d5 v=109
371040 On ch=1 n=f#5 v=109
371520 On ch=1 n=f#5 v=0
371520 On ch=1 n=d5 v=0
371520 On ch=1 n=a4 v=0
371520 On ch=1 n=f#4 v=0
371520 On ch=1 n=g#2 v=121
371520 On ch=1 n=g#3 v=121
372000 On ch=1 n=g#3 v=0
372000 On ch=1 n=g#2 v=0
372000 On ch=1 n=f5 v=113
372000 On ch=1 n=d5 v=113
372000 On ch=1 n=g#4 v=113
372480 On ch=1 n=g#4 v=0
372480 On ch=1 n=d5 v=0
372480 On ch=1 n=f5 v=0
372480 On ch=1 n=f#2 v=114
372480 On ch=1 n=f#3 v=114
372960 On ch=1 n=f#3 v=0
372960 On ch=1 n=f#2 v=0
372960 On ch=1 n=f2 v=126
372960 On ch=1 n=f3 v=126
373440 On ch=1 n=f3 v=0
373440 On ch=1 n=f2 v=0
373920 On ch=1 n=e2 v=119
373920 On ch=1 n=e3 v=119
374400 On ch=1 n=e3 v=0
374400 On ch=1 n=e2 v=0
374400 On ch=1 n=d#2 v=127
374400 On ch=1 n=d#3 v=127
374880 On ch=1 n=d#3 v=0
374880 On ch=1 n=d#2 v=0
374880 On ch=1 n=d#5 v=60
374880 On ch=1 n=c#5 v=60
375360 On ch=1 n=c#5 v=0
375360 On ch=1 n=d#5 v=0
375360 On ch=1 n=c#5 v=60
375360 On ch=1 n=d#5 v=60
375360 On ch=1 n=g5 v=60
375840 On ch=1 n=g5 v=0
375840 On ch=1 n=d#5 v=0
375840 On ch=1 n=c#5 v=0
375840 On ch=1 n=d#4 v=70
376320 On ch=1 n=d#4 v=0
377280 On ch=1 n=d#4 v=70
377760 On ch=1 n=d#4 v=0
377760 On ch=1 n=c#5 v=60
377760 On ch=1 n=d#5 v=60
377760 On ch=1 n=g5 v=60
378240 On ch=1 n=g5 v=0
378240 On ch=1 n=d#5 v=0
378240 On ch=1 n=c#5 v=0
378240 On ch=1 n=c#5 v=60
378240 On ch=1 n=d#5 v=60
378240 On ch=1 n=g5 v=60
378720 On ch=1 n=g5 v=0
378720 On ch=1 n=d#5 v=0
378720 On ch=1 n=c#5 v=0
378720 On ch=1 n=g#3 v=70
379200 On ch=1 n=g#3 v=0
379200 On ch=1 n=d#5 v=60
379200 On ch=1 n=c5 v=60
379680 On ch=1 n=c5 v=0
379680 On ch=1 n=d#5 v=0
379680 On ch=1 n=c5 v=60
379680 On ch=1 n=d#5 v=60
380160 On ch=1 n=d#5 v=0
380160 On ch=1 n=c5 v=0
380160 On ch=1 n=d#4 v=70
380640 On ch=1 n=d#4 v=0
380640 On ch=1 n=c#5 v=63
380640 On ch=1 n=g5 v=63
380640 On ch=1 n=d#5 v=63
381120 On ch=1 n=d#5 v=0
381120 On ch=1 n=g5 v=0
381120 On ch=1 n=c#5 v=0
381120 On ch=1 n=c#5 v=66
381120 On ch=1 n=g5 v=66
381120 On ch=1 n=d#5 v=66
381600 On ch=1 n=d#5 v=0
381600 On ch=1 n=g5 v=0
381600 On ch=1 n=c#5 v=0
381600 On ch=1 n=d#4 v=80
382080 On ch=1 n=d#4 v=0
384000 On ch=1 n=d#4 v=87
384480 On ch=1 n=d#4 v=0
384480 On ch=1 n=g#4 v=100
384960 On ch=1 n=g#4 v=0
384960 On ch=1 n=d#5 v=94
384960 On ch=1 n=c5 v=94
385440 On ch=1 n=c5 v=0
385440 On ch=1 n=d#5 v=0
385440 On ch=1 n=d4 v=97
385440 On ch=1 n=b4 v=97
385920 On ch=1 n=b4 v=0
385920 On ch=1 n=d4 v=0
385920 On ch=1 n=d#4 v=110
386400 On ch=1 n=d#4 v=0
386400 On ch=1 n=d#5 v=100
386400 On ch=1 n=c#5 v=100
386880 On ch=1 n=c#5 v=0
386880 On ch=1 n=d#5 v=0
386880 On ch=1 n=g5 v=100
386880 On ch=1 n=d#5 v=100
386880 On ch=1 n=c#5 v=100
387360 On ch=1 n=c#5 v=0
387360 On ch=1 n=d#5 v=0
387360 On ch=1 n=g5 v=0
387360 On ch=1 n=d#4 v=110
387840 On ch=1 n=d#4 v=0
388800 On ch=1 n=d#4 v=110
389280 On ch=1 n=d#4 v=0
389280 On ch=1 n=c#5 v=100
389280 On ch=1 n=d#5 v=100
389280 On ch=1 n=g5 v=100
389760 On ch=1 n=g5 v=0
389760 On ch=1 n=d#5 v=0
389760 On ch=1 n=c#5 v=0
389760 On ch=1 n=c#5 v=100
389760 On ch=1 n=d#5 v=100
389760 On ch=1 n=g5 v=100
390240 On ch=1 n=g5 v=0
390240 On ch=1 n=d#5 v=0
390240 On ch=1 n=c#5 v=0
390240 On ch=1 n=d#4 v=110
390720 On ch=1 n=d#4 v=0
391680 On ch=1 n=d#3 v=120
391680 On ch=1 n=d#4 v=120
392160 On ch=1 n=d#4 v=0
392160 On ch=1 n=d#3 v=0
397440 On ch=1 n=g#3 v=110
397920 On ch=1 n=g#3 v=0
397920 On ch=1 n=c5 v=100
397920 On ch=1 n=g#4 v=100
397920 On ch=1 n=d#4 v=100
398400 On ch=1 n=d#4 v=0
398400 On ch=1 n=g#4 v=0
398400 On ch=1 n=c5 v=0
398400 On ch=1 n=e4 v=100
398400 On ch=1 n=g#4 v=100
398400 On ch=1 n=c5 v=100
398880 On ch=1 n=c5 v=0
398880 On ch=1 n=g#4 v=0
398880 On ch=1 n=e4 v=0
398880 On ch=1 n=g#3 v=110
399360 On ch=1 n=g#3 v=0
399360 On ch=1 n=c5 v=100
399360 On ch=1 n=g#4 v=100
399360 On ch=1 n=d#4 v=100
399840 On ch=1 n=d#4 v=0
399840 On ch=1 n=g#4 v=0
399840 On ch=1 n=c5 v=0
399840 On ch=1 n=e4 v=100
399840 On ch=1 n=g#4 v=100
399840 On ch=1 n=c5 v=100
400320 On ch=1 n=c5 v=0
400320 On ch=1 n=g#4 v=0
400320 On ch=1 n=e4 v=0
400320 On ch=1 n=g#3 v=110
400800 On ch=1 n=g#3 v=0
400800 On ch=1 n=c5 v=100
400800 On ch=1 n=g#4 v=100
400800 On ch=1 n=d#4 v=100
401280 On ch=1 n=d#4 v=0
401280 On ch=1 n=g#4 v=0
401280 On ch=1 n=c5 v=0
401280 On ch=1 n=e4 v=100
401280 On ch=1 n=g#4 v=100
401280 On ch=1 n=c5 v=100
401760 On ch=1 n=c5 v=0
401760 On ch=1 n=g#4 v=0
401760 On ch=1 n=e4 v=0
401760 On ch=1 n=g#3 v=110
402240 On ch=1 n=g#3 v=0
402240 On ch=1 n=c5 v=100
402240 On ch=1 n=g#4 v=100
402240 On ch=1 n=d#4 v=100
402720 On ch=1 n=d#4 v=0
402720 On ch=1 n=g#4 v=0
402720 On ch=1 n=c5 v=0
402720 On ch=1 n=e4 v=100
402720 On ch=1 n=g#4 v=100
402720 On ch=1 n=c5 v=100
403200 On ch=1 n=c5 v=0
403200 On ch=1 n=g#4 v=0
403200 On ch=1 n=e4 v=0
403200 On ch=1 n=g#3 v=110
403680 On ch=1 n=g#3 v=0
403680 On ch=1 n=c5 v=101
403680 On ch=1 n=g#4 v=101
403680 On ch=1 n=d#4 v=101
404160 On ch=1 n=d#4 v=0
404160 On ch=1 n=g#4 v=0
404160 On ch=1 n=c5 v=0
404160 On ch=1 n=d#4 v=103
404160 On ch=1 n=g#4 v=103
404160 On ch=1 n=c5 v=103
404640 On ch=1 n=c5 v=0
404640 On ch=1 n=g#4 v=0
404640 On ch=1 n=d#4 v=0
404640 On ch=1 n=c5 v=105
404640 On ch=1 n=g#4 v=105
404640 On ch=1 n=d#4 v=105
405120 On ch=1 n=d#4 v=0
405120 On ch=1 n=g#4 v=0
405120 On ch=1 n=c5 v=0
405120 On ch=1 n=c5 v=107
405120 On ch=1 n=g#4 v=107
405120 On ch=1 n=d#4 v=107
405600 On ch=1 n=d#4 v=0
405600 On ch=1 n=g#4 v=0
405600 On ch=1 n=c5 v=0
405600 On ch=1 n=c5 v=109
405600 On ch=1 n=g#4 v=109
405600 On ch=1 n=d#4 v=109
406080 On ch=1 n=d#4 v=0
406080 On ch=1 n=g#4 v=0
406080 On ch=1 n=c5 v=0
406080 On ch=1 n=d#4 v=110
406080 On ch=1 n=g#4 v=110
406080 On ch=1 n=c5 v=110
406560 On ch=1 n=c5 v=0
406560 On ch=1 n=g#4 v=0
406560 On ch=1 n=d#4 v=0
408720 On ch=1 n=d#4 v=110
408960 On ch=1 n=d#4 v=0
408960 On ch=1 n=g#2 v=110
409440 On ch=1 n=g#2 v=0
411840 On ch=1 n=g#3 v=110
411840 On ch=1 n=d#4 v=110
411840 On ch=1 n=g#4 v=110
412320 On ch=1 n=g#4 v=0
412320 On ch=1 n=d#4 v=0
412320 On ch=1 n=g#3 v=0
413280 On ch=1 n=d3 v=110
413280 On ch=1 n=d4 v=110
413520 On ch=1 n=d4 v=0
413520 On ch=1 n=d3 v=0
413520 On ch=1 n=f3 v=110
413520 On ch=1 n=f4 v=110
413760 On ch=1 n=f4 v=0
413760 On ch=1 n=f3 v=0
413760 On ch=1 n=d#3 v=110
413760 On ch=1 n=d#4 v=110
414000 On ch=1 n=d#4 v=0
414000 On ch=1 n=d#3 v=0
414000 On ch=1 n=b2 v=110
414000 On ch=1 n=b3 v=110
414240 On ch=1 n=b3 v=0
414240 On ch=1 n=b2 v=0
414240 On ch=1 n=c#3 v=110
414240 On ch=1 n=c#4 v=110
414480 On ch=1 n=c#4 v=0
414480 On ch=1 n=c#3 v=0
414480 On ch=1 n=c3 v=110
414480 On ch=1 n=c4 v=110
414720 On ch=1 n=c4 v=0
414720 On ch=1 n=c3 v=0
414720 On ch=1 n=g#2 v=110
414720 On ch=1 n=g#3 v=110
415200 On ch=1 n=g#3 v=0
415200 On ch=1 n=g#2 v=0
415200 Meta TrkEnd
TrkEnd
MTrk
0 SeqSpec 43 00 01 00
0 Meta TrkName "Pedal"
0 Meta 0x21 00
0 PrCh ch=1 p=0
11520 Par ch=1 c=64 v=127
12240 Par ch=1 c=64 v=0
12960 Par ch=1 c=64 v=127
13680 Par ch=1 c=64 v=0
14400 Par ch=1 c=64 v=127
15120 Par ch=1 c=64 v=0
15840 Par ch=1 c=64 v=127
16560 Par ch=1 c=64 v=0
17280 Par ch=1 c=64 v=127
18000 Par ch=1 c=64 v=0
18720 Par ch=1 c=64 v=127
19440 Par ch=1 c=64 v=0
20160 Par ch=1 c=64 v=127
20880 Par ch=1 c=64 v=0
21600 Par ch=1 c=64 v=127
22320 Par ch=1 c=64 v=0
23040 Par ch=1 c=64 v=127
23760 Par ch=1 c=64 v=0
24480 Par ch=1 c=64 v=127
25200 Par ch=1 c=64 v=0
25920 Par ch=1 c=64 v=127
26640 Par ch=1 c=64 v=0
27360 Par ch=1 c=64 v=127
28080 Par ch=1 c=64 v=0
28800 Par ch=1 c=64 v=127
29520 Par ch=1 c=64 v=0
30240 Par ch=1 c=64 v=127
30960 Par ch=1 c=64 v=0
31680 Par ch=1 c=64 v=127
32400 Par ch=1 c=64 v=0
33120 Par ch=1 c=64 v=127
33840 Par ch=1 c=64 v=0
34560 Par ch=1 c=64 v=127
35280 Par ch=1 c=64 v=0
36000 Par ch=1 c=64 v=127
36720 Par ch=1 c=64 v=0
37440 Par ch=1 c=64 v=127
38160 Par ch=1 c=64 v=0
38880 Par ch=1 c=64 v=127
39600 Par ch=1 c=64 v=0
40320 Par ch=1 c=64 v=127
41040 Par ch=1 c=64 v=0
41760 Par ch=1 c=64 v=127
42480 Par ch=1 c=64 v=0
43200 Par ch=1 c=64 v=127
43920 Par ch=1 c=64 v=0
44640 Par ch=1 c=64 v=127
45360 Par ch=1 c=64 v=0
46080 Par ch=1 c=64 v=127
46800 Par ch=1 c=64 v=0
47520 Par ch=1 c=64 v=127
48240 Par ch=1 c=64 v=0
48960 Par ch=1 c=64 v=127
49680 Par ch=1 c=64 v=0
50400 Par ch=1 c=64 v=127
51120 Par ch=1 c=64 v=0
51840 Par ch=1 c=64 v=127
52560 Par ch=1 c=64 v=0
53280 Par ch=1 c=64 v=127
54000 Par ch=1 c=64 v=0
54720 Par ch=1 c=64 v=127
55440 Par ch=1 c=64 v=0
56160 Par ch=1 c=64 v=127
56880 Par ch=1 c=64 v=0
57600 Par ch=1 c=64 v=127
58560 Par ch=1 c=64 v=0
59040 Par ch=1 c=64 v=127
60000 Par ch=1 c=64 v=0
60480 Par ch=1 c=64 v=127
61440 Par ch=1 c=64 v=0
61920 Par ch=1 c=64 v=127
62880 Par ch=1 c=64 v=0
63360 Par ch=1 c=64 v=127
64320 Par ch=1 c=64 v=0
64800 Par ch=1 c=64 v=127
65520 Par ch=1 c=64 v=0
66240 Par ch=1 c=64 v=127
66960 Par ch=1 c=64 v=0
69120 Par ch=1 c=64 v=127
70080 Par ch=1 c=64 v=0
70560 Par ch=1 c=64 v=127
71520 Par ch=1 c=64 v=0
72000 Par ch=1 c=64 v=127
72960 Par ch=1 c=64 v=0
73440 Par ch=1 c=64 v=127
74400 Par ch=1 c=64 v=0
74880 Par ch=1 c=64 v=127
75840 Par ch=1 c=64 v=0
76320 Par ch=1 c=64 v=127
77280 Par ch=1 c=64 v=0
77760 Par ch=1 c=64 v=127
79200 Par ch=1 c=64 v=0
82080 Par ch=1 c=64 v=127
83040 Par ch=1 c=64 v=0
83520 Par ch=1 c=64 v=127
84480 Par ch=1 c=64 v=0
87840 Par ch=1 c=64 v=127
88800 Par ch=1 c=64 v=0
89280 Par ch=1 c=64 v=127
90240 Par ch=1 c=64 v=0
93600 Par ch=1 c=64 v=127
94560 Par ch=1 c=64 v=0
95040 Par ch=1 c=64 v=127
96000 Par ch=1 c=64 v=0
99360 Par ch=1 c=64 v=127
100320 Par ch=1 c=64 v=0
100800 Par ch=1 c=64 v=127
101760 Par ch=1 c=64 v=0
103680 Par ch=1 c=64 v=127
104640 Par ch=1 c=64 v=0
105120 Par ch=1 c=64 v=127
106080 Par ch=1 c=64 v=0
106560 Par ch=1 c=64 v=127
107520 Par ch=1 c=64 v=0
108000 Par ch=1 c=64 v=127
108960 Par ch=1 c=64 v=0
109440 Par ch=1 c=64 v=127
110400 Par ch=1 c=64 v=0
110880 Par ch=1 c=64 v=127
111600 Par ch=1 c=64 v=0
112320 Par ch=1 c=64 v=127
113040 Par ch=1 c=64 v=0
115200 Par ch=1 c=64 v=127
116160 Par ch=1 c=64 v=0
116640 Par ch=1 c=64 v=127
117600 Par ch=1 c=64 v=0
118080 Par ch=1 c=64 v=127
119040 Par ch=1 c=64 v=0
119520 Par ch=1 c=64 v=127
120480 Par ch=1 c=64 v=0
120960 Par ch=1 c=64 v=127
121920 Par ch=1 c=64 v=0
122400 Par ch=1 c=64 v=127
123360 Par ch=1 c=64 v=0
123840 Par ch=1 c=64 v=127
125280 Par ch=1 c=64 v=0
138240 Par ch=1 c=64 v=127
139200 Par ch=1 c=64 v=0
141120 Par ch=1 c=64 v=127
142080 Par ch=1 c=64 v=0
144000 Par ch=1 c=64 v=127
144960 Par ch=1 c=64 v=0
146880 Par ch=1 c=64 v=127
147840 Par ch=1 c=64 v=0
149760 Par ch=1 c=64 v=127
150720 Par ch=1 c=64 v=0
151200 Par ch=1 c=64 v=127
152160 Par ch=1 c=64 v=0
152640 Par ch=1 c=64 v=127
153600 Par ch=1 c=64 v=0
154080 Par ch=1 c=64 v=127
155040 Par ch=1 c=64 v=0
155520 Par ch=1 c=64 v=127
156480 Par ch=1 c=64 v=0
156960 Par ch=1 c=64 v=127
157680 Par ch=1 c=64 v=0
158400 Par ch=1 c=64 v=127
159120 Par ch=1 c=64 v=0
161280 Par ch=1 c=64 v=127
162240 Par ch=1 c=64 v=0
162720 Par ch=1 c=64 v=127
163680 Par ch=1 c=64 v=0
164160 Par ch=1 c=64 v=127
165120 Par ch=1 c=64 v=0
165600 Par ch=1 c=64 v=127
166560 Par ch=1 c=64 v=0
167040 Par ch=1 c=64 v=127
168000 Par ch=1 c=64 v=0
168480 Par ch=1 c=64 v=127
169440 Par ch=1 c=64 v=0
169920 Par ch=1 c=64 v=127
171360 Par ch=1 c=64 v=0
172800 Par ch=1 c=64 v=127
173760 Par ch=1 c=64 v=0
174240 Par ch=1 c=64 v=127
175200 Par ch=1 c=64 v=0
175680 Par ch=1 c=64 v=127
176640 Par ch=1 c=64 v=0
177120 Par ch=1 c=64 v=127
178080 Par ch=1 c=64 v=0
178560 Par ch=1 c=64 v=127
179520 Par ch=1 c=64 v=0
180000 Par ch=1 c=64 v=127
180960 Par ch=1 c=64 v=0
181440 Par ch=1 c=64 v=127
182400 Par ch=1 c=64 v=0
182880 Par ch=1 c=64 v=127
183840 Par ch=1 c=64 v=0
184320 Par ch=1 c=64 v=127
185280 Par ch=1 c=64 v=0
185760 Par ch=1 c=64 v=127
186720 Par ch=1 c=64 v=0
191520 Par ch=1 c=64 v=127
192480 Par ch=1 c=64 v=0
194400 Par ch=1 c=64 v=127
195360 Par ch=1 c=64 v=0
195840 Par ch=1 c=64 v=127
196800 Par ch=1 c=64 v=0
197280 Par ch=1 c=64 v=127
198240 Par ch=1 c=64 v=0
198720 Par ch=1 c=64 v=127
199680 Par ch=1 c=64 v=0
200160 Par ch=1 c=64 v=127
201120 Par ch=1 c=64 v=0
201600 Par ch=1 c=64 v=127
203040 Par ch=1 c=64 v=0
204480 Par ch=1 c=64 v=127
206400 Par ch=1 c=64 v=0
207360 Par ch=1 c=64 v=127
208320 Par ch=1 c=64 v=0
208800 Par ch=1 c=64 v=127
209760 Par ch=1 c=64 v=0
210240 Par ch=1 c=64 v=127
211200 Par ch=1 c=64 v=0
211680 Par ch=1 c=64 v=127
212640 Par ch=1 c=64 v=0
213120 Par ch=1 c=64 v=127
214080 Par ch=1 c=64 v=0
214560 Par ch=1 c=64 v=127
215520 Par ch=1 c=64 v=0
216000 Par ch=1 c=64 v=127
217920 Par ch=1 c=64 v=0
218880 Par ch=1 c=64 v=127
219840 Par ch=1 c=64 v=0
220320 Par ch=1 c=64 v=127
221280 Par ch=1 c=64 v=0
221760 Par ch=1 c=64 v=127
222720 Par ch=1 c=64 v=0
223200 Par ch=1 c=64 v=127
223680 Par ch=1 c=64 v=0
224640 Par ch=1 c=64 v=127
225600 Par ch=1 c=64 v=0
226080 Par ch=1 c=64 v=127
226560 Par ch=1 c=64 v=0
227520 Par ch=1 c=64 v=127
228000 Par ch=1 c=64 v=0
228960 Par ch=1 c=64 v=127
229920 Par ch=1 c=64 v=0
230400 Par ch=1 c=64 v=127
230880 Par ch=1 c=64 v=0
231840 Par ch=1 c=64 v=127
232800 Par ch=1 c=64 v=0
233280 Par ch=1 c=64 v=127
234240 Par ch=1 c=64 v=0
234720 Par ch=1 c=64 v=127
235680 Par ch=1 c=64 v=0
236160 Par ch=1 c=64 v=127
237120 Par ch=1 c=64 v=0
237600 Par ch=1 c=64 v=127
238560 Par ch=1 c=64 v=0
239040 Par ch=1 c=64 v=127
240000 Par ch=1 c=64 v=0
240480 Par ch=1 c=64 v=127
241440 Par ch=1 c=64 v=0
241920 Par ch=1 c=64 v=127
242880 Par ch=1 c=64 v=0
243360 Par ch=1 c=64 v=127
244080 Par ch=1 c=64 v=0
244800 Par ch=1 c=64 v=127
245520 Par ch=1 c=64 v=0
247680 Par ch=1 c=64 v=127
248640 Par ch=1 c=64 v=0
249120 Par ch=1 c=64 v=127
250080 Par ch=1 c=64 v=0
250560 Par ch=1 c=64 v=127
251520 Par ch=1 c=64 v=0
252000 Par ch=1 c=64 v=127
252960 Par ch=1 c=64 v=0
253440 Par ch=1 c=64 v=127
254400 Par ch=1 c=64 v=0
254880 Par ch=1 c=64 v=127
255840 Par ch=1 c=64 v=0
256320 Par ch=1 c=64 v=127
257760 Par ch=1 c=64 v=0
259200 Par ch=1 c=64 v=127
259920 Par ch=1 c=64 v=0
260640 Par ch=1 c=64 v=127
261360 Par ch=1 c=64 v=0
262080 Par ch=1 c=64 v=127
262800 Par ch=1 c=64 v=0
263520 Par ch=1 c=64 v=127
264240 Par ch=1 c=64 v=0
264960 Par ch=1 c=64 v=127
265680 Par ch=1 c=64 v=0
266400 Par ch=1 c=64 v=127
267120 Par ch=1 c=64 v=0
267840 Par ch=1 c=64 v=127
268560 Par ch=1 c=64 v=0
269280 Par ch=1 c=64 v=127
270000 Par ch=1 c=64 v=0
270720 Par ch=1 c=64 v=127
271440 Par ch=1 c=64 v=0
272160 Par ch=1 c=64 v=127
272880 Par ch=1 c=64 v=0
273600 Par ch=1 c=64 v=127
274320 Par ch=1 c=64 v=0
275040 Par ch=1 c=64 v=127
275760 Par ch=1 c=64 v=0
276480 Par ch=1 c=64 v=127
277200 Par ch=1 c=64 v=0
277920 Par ch=1 c=64 v=127
278640 Par ch=1 c=64 v=0
279360 Par ch=1 c=64 v=127
280080 Par ch=1 c=64 v=0
280800 Par ch=1 c=64 v=127
281520 Par ch=1 c=64 v=0
282240 Par ch=1 c=64 v=127
282960 Par ch=1 c=64 v=0
283680 Par ch=1 c=64 v=127
284400 Par ch=1 c=64 v=0
285120 Par ch=1 c=64 v=127
285840 Par ch=1 c=64 v=0
286560 Par ch=1 c=64 v=127
287280 Par ch=1 c=64 v=0
288000 Par ch=1 c=64 v=127
288720 Par ch=1 c=64 v=0
289440 Par ch=1 c=64 v=127
290160 Par ch=1 c=64 v=0
290880 Par ch=1 c=64 v=127
291600 Par ch=1 c=64 v=0
292320 Par ch=1 c=64 v=127
293040 Par ch=1 c=64 v=0
293760 Par ch=1 c=64 v=127
294480 Par ch=1 c=64 v=0
295200 Par ch=1 c=64 v=127
295920 Par ch=1 c=64 v=0
296640 Par ch=1 c=64 v=127
297360 Par ch=1 c=64 v=0
298080 Par ch=1 c=64 v=127
298800 Par ch=1 c=64 v=0
299520 Par ch=1 c=64 v=127
300240 Par ch=1 c=64 v=0
311040 Par ch=1 c=64 v=127
312000 Par ch=1 c=64 v=0
313920 Par ch=1 c=64 v=127
314880 Par ch=1 c=64 v=0
315360 Par ch=1 c=64 v=127
316320 Par ch=1 c=64 v=0
316800 Par ch=1 c=64 v=127
320640 Par ch=1 c=64 v=0
328320 Par ch=1 c=64 v=127
329280 Par ch=1 c=64 v=0
329760 Par ch=1 c=64 v=127
330720 Par ch=1 c=64 v=0
331200 Par ch=1 c=64 v=127
332160 Par ch=1 c=64 v=0
334080 Par ch=1 c=64 v=127
335040 Par ch=1 c=64 v=0
335520 Par ch=1 c=64 v=127
336480 Par ch=1 c=64 v=0
336960 Par ch=1 c=64 v=127
337920 Par ch=1 c=64 v=0
338400 Par ch=1 c=64 v=127
339360 Par ch=1 c=64 v=0
339840 Par ch=1 c=64 v=127
341760 Par ch=1 c=64 v=0
349920 Par ch=1 c=64 v=127
350880 Par ch=1 c=64 v=0
351360 Par ch=1 c=64 v=127
352320 Par ch=1 c=64 v=0
352800 Par ch=1 c=64 v=127
353760 Par ch=1 c=64 v=0
354240 Par ch=1 c=64 v=127
355200 Par ch=1 c=64 v=0
357120 Par ch=1 c=64 v=127
358080 Par ch=1 c=64 v=0
358560 Par ch=1 c=64 v=127
359520 Par ch=1 c=64 v=0
360000 Par ch=1 c=64 v=127
360960 Par ch=1 c=64 v=0
361440 Par ch=1 c=64 v=127
362400 Par ch=1 c=64 v=0
362880 Par ch=1 c=64 v=127
363840 Par ch=1 c=64 v=0
364320 Par ch=1 c=64 v=127
365280 Par ch=1 c=64 v=0
365760 Par ch=1 c=64 v=127
366720 Par ch=1 c=64 v=0
367200 Par ch=1 c=64 v=127
368160 Par ch=1 c=64 v=0
368640 Par ch=1 c=64 v=127
369600 Par ch=1 c=64 v=0
370080 Par ch=1 c=64 v=127
371040 Par ch=1 c=64 v=0
371520 Par ch=1 c=64 v=127
372480 Par ch=1 c=64 v=0
372960 Par ch=1 c=64 v=127
373920 Par ch=1 c=64 v=0
374400 Par ch=1 c=64 v=127
375360 Par ch=1 c=64 v=0
375840 Par ch=1 c=64 v=127
376800 Par ch=1 c=64 v=0
377280 Par ch=1 c=64 v=127
378240 Par ch=1 c=64 v=0
378720 Par ch=1 c=64 v=127
379680 Par ch=1 c=64 v=0
380160 Par ch=1 c=64 v=127
381120 Par ch=1 c=64 v=0
381600 Par ch=1 c=64 v=127
382560 Par ch=1 c=64 v=0
383040 Par ch=1 c=64 v=127
384000 Par ch=1 c=64 v=0
384480 Par ch=1 c=64 v=127
385440 Par ch=1 c=64 v=0
385920 Par ch=1 c=64 v=127
386880 Par ch=1 c=64 v=0
387360 Par ch=1 c=64 v=127
388320 Par ch=1 c=64 v=0
388800 Par ch=1 c=64 v=127
389760 Par ch=1 c=64 v=0
390240 Par ch=1 c=64 v=127
391200 Par ch=1 c=64 v=0
391680 Par ch=1 c=64 v=127
396960 Par ch=1 c=64 v=0
397440 Par ch=1 c=64 v=127
398160 Par ch=1 c=64 v=0
398880 Par ch=1 c=64 v=127
399600 Par ch=1 c=64 v=0
400320 Par ch=1 c=64 v=127
401040 Par ch=1 c=64 v=0
401760 Par ch=1 c=64 v=127
402480 Par ch=1 c=64 v=0
403200 Par ch=1 c=64 v=127
412800 Par ch=1 c=64 v=0
416160 Par ch=1 c=64 v=127
417120 Par ch=1 c=64 v=0
417120 Meta TrkEnd
TrkEnd
MTrk
0 SeqSpec 43 00 01 00
0 Meta TrkName "F. Chopin Valse No. 05 in Ab Op. 42"
0 Meta 0x21 00
0 Meta TrkEnd
TrkEnd
MTrk
0 SeqSpec 43 00 01 00
0 Meta TrkName "Jeruen E. Dery jawjaw@hotmail.com"
0 Meta 0x21 00
0 Meta TrkEnd
TrkEnd
