MFile 1 6 120
MTrk
0 Meta SeqName ""
0 TimeSig 3/4 24 8
0 KeySig -4 major
0 Tempo 312500
34920 KeySig -5 major
40680 KeySig -4 major
40680 Meta TrkEnd
TrkEnd
MTrk
0 Meta 0x21 00
0 Meta TrkName "Upper Treble"
0 PrCh ch=1 p=0
240 On ch=1 n=c#6 v=80
300 On ch=1 n=c#6 v=0
360 On ch=1 n=c#6 v=80
420 On ch=1 n=c#6 v=0
420 On ch=1 n=c6 v=80
480 On ch=1 n=c6 v=0
480 On ch=1 n=d#6 v=80
540 On ch=1 n=d#6 v=0
540 On ch=1 n=c#6 v=80
600 On ch=1 n=c#6 v=0
600 On ch=1 n=c7 v=80
660 On ch=1 n=c7 v=0
660 On ch=1 n=a#6 v=80
720 On ch=1 n=a#6 v=0
720 On ch=1 n=c#6 v=80
780 On ch=1 n=c#6 v=0
780 On ch=1 n=c6 v=80
840 On ch=1 n=c6 v=0
840 On ch=1 n=d#6 v=80
900 On ch=1 n=d#6 v=0
900 On ch=1 n=c#6 v=80
960 On ch=1 n=c#6 v=0
960 On ch=1 n=c7 v=80
1020 On ch=1 n=c7 v=0
1020 On ch=1 n=a#6 v=80
1080 On ch=1 n=a#6 v=0
1080 On ch=1 n=c6 v=80
1140 On ch=1 n=c6 v=0
1140 On ch=1 n=b5 v=80
1200 On ch=1 n=b5 v=0
1200 On ch=1 n=c#6 v=80
1260 On ch=1 n=c#6 v=0
1260 On ch=1 n=c6 v=80
1320 On ch=1 n=c6 v=0
1320 On ch=1 n=a#6 v=80
1380 On ch=1 n=a#6 v=0
1380 On ch=1 n=g#6 v=80
1440 On ch=1 n=g#6 v=0
1440 On ch=1 n=c6 v=80
1500 On ch=1 n=c6 v=0
1500 On ch=1 n=b5 v=80
1560 On ch=1 n=b5 v=0
1560 On ch=1 n=c#6 v=80
1620 On ch=1 n=c#6 v=0
1620 On ch=1 n=c6 v=80
1680 On ch=1 n=c6 v=0
1680 On ch=1 n=a#6 v=80
1740 On ch=1 n=a#6 v=0
1740 On ch=1 n=g#6 v=80
1800 On ch=1 n=g#6 v=0
1800 On ch=1 n=a#5 v=80
1860 On ch=1 n=a#5 v=0
1860 On ch=1 n=a5 v=80
1920 On ch=1 n=a5 v=0
1920 On ch=1 n=c6 v=80
1980 On ch=1 n=c6 v=0
1980 On ch=1 n=a#5 v=80
2040 On ch=1 n=a#5 v=0
2040 On ch=1 n=c#6 v=80
2100 On ch=1 n=c#6 v=0
2100 On ch=1 n=c6 v=80
2160 On ch=1 n=c6 v=0
2160 On ch=1 n=d#6 v=80
2220 On ch=1 n=d#6 v=0
2220 On ch=1 n=c#6 v=80
2280 On ch=1 n=c#6 v=0
2280 On ch=1 n=g6 v=80
2340 On ch=1 n=g6 v=0
2340 On ch=1 n=f6 v=80
2400 On ch=1 n=f6 v=0
2400 On ch=1 n=c#6 v=80
2460 On ch=1 n=c#6 v=0
2460 On ch=1 n=g5 v=80
2520 On ch=1 n=g5 v=0
2520 On ch=1 n=g#5 v=80
2580 On ch=1 n=g#5 v=0
2580 On ch=1 n=a5 v=80
2640 On ch=1 n=a5 v=0
2640 On ch=1 n=a#5 v=80
2700 On ch=1 n=a#5 v=0
2700 On ch=1 n=b5 v=80
2760 On ch=1 n=b5 v=0
2760 On ch=1 n=c6 v=80
2820 On ch=1 n=c6 v=0
2820 On ch=1 n=g#5 v=80
2880 On ch=1 n=g#5 v=0
2880 On ch=1 n=d#5 v=80
3000 On ch=1 n=d#5 v=0
3120 On ch=1 n=c6 v=80
3180 On ch=1 n=c6 v=0
3240 On ch=1 n=c#6 v=100
3300 On ch=1 n=c#6 v=0
3300 On ch=1 n=c6 v=100
3360 On ch=1 n=c6 v=0
3360 On ch=1 n=d#6 v=100
3420 On ch=1 n=d#6 v=0
3420 On ch=1 n=c#6 v=100
3480 On ch=1 n=c#6 v=0
3480 On ch=1 n=c7 v=100
3540 On ch=1 n=c7 v=0
3540 On ch=1 n=a#6 v=100
3600 On ch=1 n=a#6 v=0
3600 On ch=1 n=c#6 v=100
3660 On ch=1 n=c#6 v=0
3660 On ch=1 n=c6 v=100
3720 On ch=1 n=c6 v=0
3720 On ch=1 n=d#6 v=100
3780 On ch=1 n=d#6 v=0
3780 On ch=1 n=c#6 v=100
3840 On ch=1 n=c#6 v=0
3840 On ch=1 n=c7 v=100
3900 On ch=1 n=c7 v=0
3900 On ch=1 n=a#6 v=100
3960 On ch=1 n=a#6 v=0
3960 On ch=1 n=c6 v=100
4020 On ch=1 n=c6 v=0
4020 On ch=1 n=b5 v=100
4080 On ch=1 n=b5 v=0
4080 On ch=1 n=c#6 v=100
4140 On ch=1 n=c#6 v=0
4140 On ch=1 n=c6 v=100
4200 On ch=1 n=c6 v=0
4200 On ch=1 n=a#6 v=100
4260 On ch=1 n=a#6 v=0
4260 On ch=1 n=g#6 v=100
4320 On ch=1 n=g#6 v=0
4320 On ch=1 n=c6 v=100
4380 On ch=1 n=c6 v=0
4380 On ch=1 n=b5 v=100
4440 On ch=1 n=b5 v=0
4440 On ch=1 n=c#6 v=100
4500 On ch=1 n=c#6 v=0
4500 On ch=1 n=c6 v=100
4560 On ch=1 n=c6 v=0
4560 On ch=1 n=a#6 v=100
4620 On ch=1 n=a#6 v=0
4620 On ch=1 n=g#6 v=100
4680 On ch=1 n=g#6 v=0
4680 On ch=1 n=d6 v=100
4740 On ch=1 n=d6 v=0
4740 On ch=1 n=d#6 v=103
4800 On ch=1 n=d#6 v=0
4800 On ch=1 n=f6 v=107
4860 On ch=1 n=f6 v=0
4860 On ch=1 n=g6 v=110
4920 On ch=1 n=g6 v=0
4920 On ch=1 n=g#6 v=114
4980 On ch=1 n=g#6 v=0
4980 On ch=1 n=a6 v=117
5040 On ch=1 n=a6 v=0
5040 On ch=1 n=a#6 v=120
5100 On ch=1 n=a#6 v=0
5100 On ch=1 n=b6 v=118
5160 On ch=1 n=b6 v=0
5160 On ch=1 n=d7 v=116
5220 On ch=1 n=d7 v=0
5220 On ch=1 n=c7 v=114
5280 On ch=1 n=c7 v=0
5280 On ch=1 n=a#6 v=111
5340 On ch=1 n=a#6 v=0
5340 On ch=1 n=g#6 v=109
5400 On ch=1 n=g#6 v=0
5400 On ch=1 n=g#6 v=107
5460 On ch=1 n=g#6 v=0
5460 On ch=1 n=g6 v=104
5520 On ch=1 n=g6 v=0
5520 On ch=1 n=g6 v=102
5580 On ch=1 n=g6 v=0
5580 On ch=1 n=f#6 v=100
5640 On ch=1 n=f#6 v=0
5640 On ch=1 n=f#6 v=97
5700 On ch=1 n=f#6 v=0
5700 On ch=1 n=f6 v=95
5760 On ch=1 n=f6 v=0
5760 On ch=1 n=f6 v=93
5820 On ch=1 n=f6 v=0
5820 On ch=1 n=e6 v=91
5880 On ch=1 n=e6 v=0
5880 On ch=1 n=e6 v=88
5940 On ch=1 n=e6 v=0
5940 On ch=1 n=d#6 v=86
6000 On ch=1 n=d#6 v=0
6000 On ch=1 n=d#6 v=84
6060 On ch=1 n=d#6 v=0
6060 On ch=1 n=d6 v=81
6120 On ch=1 n=d6 v=0
6120 On ch=1 n=c#6 v=80
6180 On ch=1 n=c#6 v=0
6180 On ch=1 n=c6 v=80
6240 On ch=1 n=c6 v=0
6240 On ch=1 n=d#6 v=80
6300 On ch=1 n=d#6 v=0
6300 On ch=1 n=c#6 v=80
6360 On ch=1 n=c#6 v=0
6360 On ch=1 n=c7 v=80
6420 On ch=1 n=c7 v=0
6420 On ch=1 n=a#6 v=80
6480 On ch=1 n=a#6 v=0
6480 On ch=1 n=c#6 v=80
6540 On ch=1 n=c#6 v=0
6540 On ch=1 n=c6 v=80
6600 On ch=1 n=c6 v=0
6600 On ch=1 n=d#6 v=80
6660 On ch=1 n=d#6 v=0
6660 On ch=1 n=c#6 v=80
6720 On ch=1 n=c#6 v=0
6720 On ch=1 n=c7 v=80
6780 On ch=1 n=c7 v=0
6780 On ch=1 n=a#6 v=80
6840 On ch=1 n=a#6 v=0
6840 On ch=1 n=c6 v=80
6900 On ch=1 n=c6 v=0
6900 On ch=1 n=b5 v=80
6960 On ch=1 n=b5 v=0
6960 On ch=1 n=c#6 v=80
7020 On ch=1 n=c#6 v=0
7020 On ch=1 n=c6 v=80
7080 On ch=1 n=c6 v=0
7080 On ch=1 n=a#6 v=80
7140 On ch=1 n=a#6 v=0
7140 On ch=1 n=g#6 v=80
7200 On ch=1 n=g#6 v=0
7200 On ch=1 n=c6 v=80
7260 On ch=1 n=c6 v=0
7260 On ch=1 n=b5 v=80
7320 On ch=1 n=b5 v=0
7320 On ch=1 n=c#6 v=80
7380 On ch=1 n=c#6 v=0
7380 On ch=1 n=c6 v=80
7440 On ch=1 n=c6 v=0
7440 On ch=1 n=a#6 v=80
7500 On ch=1 n=a#6 v=0
7500 On ch=1 n=g#6 v=80
7560 On ch=1 n=g#6 v=0
7560 On ch=1 n=a#5 v=80
7620 On ch=1 n=a#5 v=0
7620 On ch=1 n=a5 v=80
7680 On ch=1 n=a5 v=0
7680 On ch=1 n=c6 v=80
7740 On ch=1 n=c6 v=0
7740 On ch=1 n=a#5 v=80
7800 On ch=1 n=a#5 v=0
7800 On ch=1 n=c#6 v=80
7860 On ch=1 n=c#6 v=0
7860 On ch=1 n=c6 v=80
7920 On ch=1 n=c6 v=0
7920 On ch=1 n=d#6 v=80
7980 On ch=1 n=d#6 v=0
7980 On ch=1 n=c#6 v=80
8040 On ch=1 n=c#6 v=0
8040 On ch=1 n=g6 v=80
8100 On ch=1 n=g6 v=0
8100 On ch=1 n=f6 v=80
8160 On ch=1 n=f6 v=0
8160 On ch=1 n=c#6 v=80
8220 On ch=1 n=c#6 v=0
8220 On ch=1 n=g5 v=80
8280 On ch=1 n=g5 v=0
8280 On ch=1 n=g#5 v=80
8340 On ch=1 n=g#5 v=0
8340 On ch=1 n=a5 v=80
8400 On ch=1 n=a5 v=0
8400 On ch=1 n=a#5 v=80
8460 On ch=1 n=a#5 v=0
8460 On ch=1 n=b5 v=80
8520 On ch=1 n=b5 v=0
8520 On ch=1 n=c6 v=80
8580 On ch=1 n=c6 v=0
8580 On ch=1 n=g#5 v=80
8640 On ch=1 n=g#5 v=0
8640 On ch=1 n=d#5 v=80
8760 On ch=1 n=d#5 v=0
8880 On ch=1 n=c6 v=80
8940 On ch=1 n=c6 v=0
9000 On ch=1 n=c#6 v=100
9060 On ch=1 n=c#6 v=0
9060 On ch=1 n=c6 v=100
9120 On ch=1 n=c6 v=0
9120 On ch=1 n=d#6 v=100
9180 On ch=1 n=d#6 v=0
9180 On ch=1 n=c#6 v=100
9240 On ch=1 n=c#6 v=0
9240 On ch=1 n=c7 v=100
9300 On ch=1 n=c7 v=0
9300 On ch=1 n=a#6 v=100
9360 On ch=1 n=a#6 v=0
9360 On ch=1 n=c#6 v=100
9420 On ch=1 n=c#6 v=0
9420 On ch=1 n=c6 v=100
9480 On ch=1 n=c6 v=0
9480 On ch=1 n=d#6 v=100
9540 On ch=1 n=d#6 v=0
9540 On ch=1 n=c#6 v=100
9600 On ch=1 n=c#6 v=0
9600 On ch=1 n=c7 v=100
9660 On ch=1 n=c7 v=0
9660 On ch=1 n=a#6 v=100
9720 On ch=1 n=a#6 v=0
9720 On ch=1 n=c6 v=100
9780 On ch=1 n=c6 v=0
9780 On ch=1 n=b5 v=100
9840 On ch=1 n=b5 v=0
9840 On ch=1 n=c#6 v=100
9900 On ch=1 n=c#6 v=0
9900 On ch=1 n=c6 v=100
9960 On ch=1 n=c6 v=0
9960 On ch=1 n=a#6 v=100
10020 On ch=1 n=a#6 v=0
10020 On ch=1 n=g#6 v=100
10080 On ch=1 n=g#6 v=0
10080 On ch=1 n=c6 v=100
10140 On ch=1 n=c6 v=0
10140 On ch=1 n=b5 v=100
10200 On ch=1 n=b5 v=0
10200 On ch=1 n=c#6 v=100
10260 On ch=1 n=c#6 v=0
10260 On ch=1 n=c6 v=100
10320 On ch=1 n=c6 v=0
10320 On ch=1 n=a#6 v=100
10380 On ch=1 n=a#6 v=0
10380 On ch=1 n=g#6 v=100
10440 On ch=1 n=g#6 v=0
10440 On ch=1 n=a#5 v=100
10500 On ch=1 n=a#5 v=0
10500 On ch=1 n=c#6 v=101
10560 On ch=1 n=c#6 v=0
10560 On ch=1 n=c6 v=103
10620 On ch=1 n=c6 v=0
10620 On ch=1 n=d#6 v=105
10680 On ch=1 n=d#6 v=0
10680 On ch=1 n=c#6 v=107
10740 On ch=1 n=c#6 v=0
10740 On ch=1 n=f6 v=108
10800 On ch=1 n=f6 v=0
10800 On ch=1 n=e6 v=110
10860 On ch=1 n=e6 v=0
10860 On ch=1 n=g6 v=112
10920 On ch=1 n=g6 v=0
10920 On ch=1 n=f6 v=114
10980 On ch=1 n=f6 v=0
10980 On ch=1 n=a#6 v=115
11040 On ch=1 n=a#6 v=0
11040 On ch=1 n=a6 v=117
11100 On ch=1 n=a6 v=0
11100 On ch=1 n=c7 v=119
11160 On ch=1 n=c7 v=0
11160 On ch=1 n=a#5 v=120
11220 On ch=1 n=a#5 v=0
11220 On ch=1 n=c#6 v=120
11280 On ch=1 n=c#6 v=0
11280 On ch=1 n=c6 v=120
11340 On ch=1 n=c6 v=0
11340 On ch=1 n=d#6 v=120
11400 On ch=1 n=d#6 v=0
11400 On ch=1 n=c#6 v=120
11460 On ch=1 n=c#6 v=0
11460 On ch=1 n=g6 v=120
11520 On ch=1 n=g6 v=0
11520 On ch=1 n=g#6 v=120
11640 On ch=1 n=g#6 v=0
11640 On ch=1 n=c6 v=120
11760 On ch=1 n=c6 v=0
11760 On ch=1 n=c#6 v=80
11820 On ch=1 n=c#6 v=0
11880 On ch=1 n=c#6 v=80
11940 On ch=1 n=c#6 v=0
11940 On ch=1 n=c6 v=80
12000 On ch=1 n=c6 v=0
12000 On ch=1 n=d#6 v=80
12060 On ch=1 n=d#6 v=0
12060 On ch=1 n=c#6 v=80
12120 On ch=1 n=c#6 v=0
12120 On ch=1 n=c7 v=80
12180 On ch=1 n=c7 v=0
12180 On ch=1 n=a#6 v=80
12240 On ch=1 n=a#6 v=0
12240 On ch=1 n=c#6 v=80
12300 On ch=1 n=c#6 v=0
12300 On ch=1 n=c6 v=80
12360 On ch=1 n=c6 v=0
12360 On ch=1 n=d#6 v=80
12420 On ch=1 n=d#6 v=0
12420 On ch=1 n=c#6 v=80
12480 On ch=1 n=c#6 v=0
12480 On ch=1 n=c7 v=80
12540 On ch=1 n=c7 v=0
12540 On ch=1 n=a#6 v=80
12600 On ch=1 n=a#6 v=0
12600 On ch=1 n=c6 v=80
12660 On ch=1 n=c6 v=0
12660 On ch=1 n=b5 v=80
12720 On ch=1 n=b5 v=0
12720 On ch=1 n=c#6 v=80
12780 On ch=1 n=c#6 v=0
12780 On ch=1 n=c6 v=80
12840 On ch=1 n=c6 v=0
12840 On ch=1 n=a#6 v=80
12900 On ch=1 n=a#6 v=0
12900 On ch=1 n=g#6 v=80
12960 On ch=1 n=g#6 v=0
12960 On ch=1 n=c6 v=80
13020 On ch=1 n=c6 v=0
13020 On ch=1 n=b5 v=80
13080 On ch=1 n=b5 v=0
13080 On ch=1 n=c#6 v=80
13140 On ch=1 n=c#6 v=0
13140 On ch=1 n=c6 v=80
13200 On ch=1 n=c6 v=0
13200 On ch=1 n=a#6 v=80
13260 On ch=1 n=a#6 v=0
13260 On ch=1 n=g#6 v=80
13320 On ch=1 n=g#6 v=0
13320 On ch=1 n=a#5 v=80
13380 On ch=1 n=a#5 v=0
13380 On ch=1 n=a5 v=80
13440 On ch=1 n=a5 v=0
13440 On ch=1 n=c6 v=80
13500 On ch=1 n=c6 v=0
13500 On ch=1 n=a#5 v=80
13560 On ch=1 n=a#5 v=0
13560 On ch=1 n=c#6 v=80
13620 On ch=1 n=c#6 v=0
13620 On ch=1 n=c6 v=80
13680 On ch=1 n=c6 v=0
13680 On ch=1 n=d#6 v=80
13740 On ch=1 n=d#6 v=0
13740 On ch=1 n=c#6 v=80
13800 On ch=1 n=c#6 v=0
13800 On ch=1 n=g6 v=80
13860 On ch=1 n=g6 v=0
13860 On ch=1 n=f6 v=80
13920 On ch=1 n=f6 v=0
13920 On ch=1 n=c#6 v=80
13980 On ch=1 n=c#6 v=0
13980 On ch=1 n=g5 v=80
14040 On ch=1 n=g5 v=0
14040 On ch=1 n=g#5 v=80
14100 On ch=1 n=g#5 v=0
14100 On ch=1 n=a5 v=80
14160 On ch=1 n=a5 v=0
14160 On ch=1 n=a#5 v=80
14220 On ch=1 n=a#5 v=0
14220 On ch=1 n=b5 v=80
14280 On ch=1 n=b5 v=0
14280 On ch=1 n=c6 v=80
14340 On ch=1 n=c6 v=0
14340 On ch=1 n=g#5 v=80
14400 On ch=1 n=g#5 v=0
14400 On ch=1 n=d#5 v=80
14520 On ch=1 n=d#5 v=0
14640 On ch=1 n=c6 v=80
14700 On ch=1 n=c6 v=0
14760 On ch=1 n=c#6 v=100
14820 On ch=1 n=c#6 v=0
14820 On ch=1 n=c6 v=100
14880 On ch=1 n=c6 v=0
14880 On ch=1 n=d#6 v=100
14940 On ch=1 n=d#6 v=0
14940 On ch=1 n=c#6 v=100
15000 On ch=1 n=c#6 v=0
15000 On ch=1 n=c7 v=100
15060 On ch=1 n=c7 v=0
15060 On ch=1 n=a#6 v=100
15120 On ch=1 n=a#6 v=0
15120 On ch=1 n=c#6 v=100
15180 On ch=1 n=c#6 v=0
15180 On ch=1 n=c6 v=100
15240 On ch=1 n=c6 v=0
15240 On ch=1 n=d#6 v=100
15300 On ch=1 n=d#6 v=0
15300 On ch=1 n=c#6 v=100
15360 On ch=1 n=c#6 v=0
15360 On ch=1 n=c7 v=100
15420 On ch=1 n=c7 v=0
15420 On ch=1 n=a#6 v=100
15480 On ch=1 n=a#6 v=0
15480 On ch=1 n=c6 v=100
15540 On ch=1 n=c6 v=0
15540 On ch=1 n=b5 v=100
15600 On ch=1 n=b5 v=0
15600 On ch=1 n=c#6 v=100
15660 On ch=1 n=c#6 v=0
15660 On ch=1 n=c6 v=100
15720 On ch=1 n=c6 v=0
15720 On ch=1 n=a#6 v=100
15780 On ch=1 n=a#6 v=0
15780 On ch=1 n=g#6 v=100
15840 On ch=1 n=g#6 v=0
15840 On ch=1 n=c6 v=100
15900 On ch=1 n=c6 v=0
15900 On ch=1 n=b5 v=100
15960 On ch=1 n=b5 v=0
15960 On ch=1 n=c#6 v=100
16020 On ch=1 n=c#6 v=0
16020 On ch=1 n=c6 v=100
16080 On ch=1 n=c6 v=0
16080 On ch=1 n=a#6 v=100
16140 On ch=1 n=a#6 v=0
16140 On ch=1 n=g#6 v=100
16200 On ch=1 n=g#6 v=0
16200 On ch=1 n=d6 v=100
16260 On ch=1 n=d6 v=0
16260 On ch=1 n=d#6 v=103
16320 On ch=1 n=d#6 v=0
16320 On ch=1 n=f6 v=107
16380 On ch=1 n=f6 v=0
16380 On ch=1 n=g6 v=110
16440 On ch=1 n=g6 v=0
16440 On ch=1 n=g#6 v=114
16500 On ch=1 n=g#6 v=0
16500 On ch=1 n=a6 v=117
16560 On ch=1 n=a6 v=0
16560 On ch=1 n=a#6 v=120
16620 On ch=1 n=a#6 v=0
16620 On ch=1 n=b6 v=118
16680 On ch=1 n=b6 v=0
16680 On ch=1 n=d7 v=116
16740 On ch=1 n=d7 v=0
16740 On ch=1 n=c7 v=114
16800 On ch=1 n=c7 v=0
16800 On ch=1 n=a#6 v=111
16860 On ch=1 n=a#6 v=0
16860 On ch=1 n=g#6 v=109
16920 On ch=1 n=g#6 v=0
16920 On ch=1 n=g#6 v=107
16980 On ch=1 n=g#6 v=0
16980 On ch=1 n=g6 v=104
17040 On ch=1 n=g6 v=0
17040 On ch=1 n=g6 v=102
17100 On ch=1 n=g6 v=0
17100 On ch=1 n=f#6 v=100
17160 On ch=1 n=f#6 v=0
17160 On ch=1 n=f#6 v=97
17220 On ch=1 n=f#6 v=0
17220 On ch=1 n=f6 v=95
17280 On ch=1 n=f6 v=0
17280 On ch=1 n=f6 v=93
17340 On ch=1 n=f6 v=0
17340 On ch=1 n=e6 v=91
17400 On ch=1 n=e6 v=0
17400 On ch=1 n=e6 v=88
17460 On ch=1 n=e6 v=0
17460 On ch=1 n=d#6 v=86
17520 On ch=1 n=d#6 v=0
17520 On ch=1 n=d#6 v=84
17580 On ch=1 n=d#6 v=0
17580 On ch=1 n=d6 v=81
17640 On ch=1 n=d6 v=0
17640 On ch=1 n=c#6 v=80
17700 On ch=1 n=c#6 v=0
17700 On ch=1 n=c6 v=80
17760 On ch=1 n=c6 v=0
17760 On ch=1 n=d#6 v=80
17820 On ch=1 n=d#6 v=0
17820 On ch=1 n=c#6 v=80
17880 On ch=1 n=c#6 v=0
17880 On ch=1 n=c7 v=80
17940 On ch=1 n=c7 v=0
17940 On ch=1 n=a#6 v=80
18000 On ch=1 n=a#6 v=0
18000 On ch=1 n=c#6 v=80
18060 On ch=1 n=c#6 v=0
18060 On ch=1 n=c6 v=80
18120 On ch=1 n=c6 v=0
18120 On ch=1 n=d#6 v=80
18180 On ch=1 n=d#6 v=0
18180 On ch=1 n=c#6 v=80
18240 On ch=1 n=c#6 v=0
18240 On ch=1 n=c7 v=80
18300 On ch=1 n=c7 v=0
18300 On ch=1 n=a#6 v=80
18360 On ch=1 n=a#6 v=0
18360 On ch=1 n=c6 v=80
18420 On ch=1 n=c6 v=0
18420 On ch=1 n=b5 v=80
18480 On ch=1 n=b5 v=0
18480 On ch=1 n=c#6 v=80
18540 On ch=1 n=c#6 v=0
18540 On ch=1 n=c6 v=80
18600 On ch=1 n=c6 v=0
18600 On ch=1 n=a#6 v=80
18660 On ch=1 n=a#6 v=0
18660 On ch=1 n=g#6 v=80
18720 On ch=1 n=g#6 v=0
18720 On ch=1 n=c6 v=80
18780 On ch=1 n=c6 v=0
18780 On ch=1 n=b5 v=80
18840 On ch=1 n=b5 v=0
18840 On ch=1 n=c#6 v=80
18900 On ch=1 n=c#6 v=0
18900 On ch=1 n=c6 v=80
18960 On ch=1 n=c6 v=0
18960 On ch=1 n=a#6 v=80
19020 On ch=1 n=a#6 v=0
19020 On ch=1 n=g#6 v=80
19080 On ch=1 n=g#6 v=0
19080 On ch=1 n=a#5 v=80
19140 On ch=1 n=a#5 v=0
19140 On ch=1 n=a5 v=80
19200 On ch=1 n=a5 v=0
19200 On ch=1 n=c6 v=80
19260 On ch=1 n=c6 v=0
19260 On ch=1 n=a#5 v=80
19320 On ch=1 n=a#5 v=0
19320 On ch=1 n=c#6 v=80
19380 On ch=1 n=c#6 v=0
19380 On ch=1 n=c6 v=80
19440 On ch=1 n=c6 v=0
19440 On ch=1 n=d#6 v=80
19500 On ch=1 n=d#6 v=0
19500 On ch=1 n=c#6 v=80
19560 On ch=1 n=c#6 v=0
19560 On ch=1 n=g6 v=80
19620 On ch=1 n=g6 v=0
19620 On ch=1 n=f6 v=80
19680 On ch=1 n=f6 v=0
19680 On ch=1 n=c#6 v=80
19740 On ch=1 n=c#6 v=0
19740 On ch=1 n=g5 v=80
19800 On ch=1 n=g5 v=0
19800 On ch=1 n=g#5 v=80
19860 On ch=1 n=g#5 v=0
19860 On ch=1 n=a5 v=80
19920 On ch=1 n=a5 v=0
19920 On ch=1 n=a#5 v=80
19980 On ch=1 n=a#5 v=0
19980 On ch=1 n=b5 v=80
20040 On ch=1 n=b5 v=0
20040 On ch=1 n=c6 v=80
20100 On ch=1 n=c6 v=0
20100 On ch=1 n=g#5 v=80
20160 On ch=1 n=g#5 v=0
20160 On ch=1 n=d#5 v=80
20280 On ch=1 n=d#5 v=0
20400 On ch=1 n=c6 v=80
20460 On ch=1 n=c6 v=0
20520 On ch=1 n=c#6 v=100
20580 On ch=1 n=c#6 v=0
20580 On ch=1 n=c6 v=100
20640 On ch=1 n=c6 v=0
20640 On ch=1 n=d#6 v=100
20700 On ch=1 n=d#6 v=0
20700 On ch=1 n=c#6 v=100
20760 On ch=1 n=c#6 v=0
20760 On ch=1 n=c7 v=100
20820 On ch=1 n=c7 v=0
20820 On ch=1 n=a#6 v=100
20880 On ch=1 n=a#6 v=0
20880 On ch=1 n=c#6 v=100
20940 On ch=1 n=c#6 v=0
20940 On ch=1 n=c6 v=100
21000 On ch=1 n=c6 v=0
21000 On ch=1 n=d#6 v=100
21060 On ch=1 n=d#6 v=0
21060 On ch=1 n=c#6 v=100
21120 On ch=1 n=c#6 v=0
21120 On ch=1 n=c7 v=100
21180 On ch=1 n=c7 v=0
21180 On ch=1 n=a#6 v=100
21240 On ch=1 n=a#6 v=0
21240 On ch=1 n=c6 v=100
21300 On ch=1 n=c6 v=0
21300 On ch=1 n=b5 v=100
21360 On ch=1 n=b5 v=0
21360 On ch=1 n=c#6 v=100
21420 On ch=1 n=c#6 v=0
21420 On ch=1 n=c6 v=100
21480 On ch=1 n=c6 v=0
21480 On ch=1 n=a#6 v=100
21540 On ch=1 n=a#6 v=0
21540 On ch=1 n=g#6 v=100
21600 On ch=1 n=g#6 v=0
21600 On ch=1 n=c6 v=100
21660 On ch=1 n=c6 v=0
21660 On ch=1 n=b5 v=100
21720 On ch=1 n=b5 v=0
21720 On ch=1 n=c#6 v=100
21780 On ch=1 n=c#6 v=0
21780 On ch=1 n=c6 v=100
21840 On ch=1 n=c6 v=0
21840 On ch=1 n=a#6 v=100
21900 On ch=1 n=a#6 v=0
21900 On ch=1 n=g#6 v=100
21960 On ch=1 n=g#6 v=0
21960 On ch=1 n=a#5 v=100
22020 On ch=1 n=a#5 v=0
22020 On ch=1 n=c#6 v=101
22080 On ch=1 n=c#6 v=0
22080 On ch=1 n=c6 v=103
22140 On ch=1 n=c6 v=0
22140 On ch=1 n=d#6 v=105
22200 On ch=1 n=d#6 v=0
22200 On ch=1 n=c#6 v=107
22260 On ch=1 n=c#6 v=0
22260 On ch=1 n=f6 v=108
22320 On ch=1 n=f6 v=0
22320 On ch=1 n=e6 v=110
22380 On ch=1 n=e6 v=0
22380 On ch=1 n=g6 v=112
22440 On ch=1 n=g6 v=0
22440 On ch=1 n=f6 v=114
22500 On ch=1 n=f6 v=0
22500 On ch=1 n=a#6 v=115
22560 On ch=1 n=a#6 v=0
22560 On ch=1 n=a6 v=117
22620 On ch=1 n=a6 v=0
22620 On ch=1 n=c7 v=119
22680 On ch=1 n=c7 v=0
22680 On ch=1 n=a#5 v=120
22740 On ch=1 n=a#5 v=0
22740 On ch=1 n=c#6 v=120
22800 On ch=1 n=c#6 v=0
22800 On ch=1 n=c6 v=120
22860 On ch=1 n=c6 v=0
22860 On ch=1 n=d#6 v=120
22920 On ch=1 n=d#6 v=0
22920 On ch=1 n=c#6 v=120
22980 On ch=1 n=c#6 v=0
22980 On ch=1 n=g6 v=120
23040 On ch=1 n=g6 v=0
23040 On ch=1 n=g#6 v=120
23160 On ch=1 n=g#6 v=0
23160 On ch=1 n=c6 v=120
23280 On ch=1 n=c6 v=0
23280 On ch=1 n=c7 v=80
23340 On ch=1 n=c7 v=0
23400 On ch=1 n=a#6 v=80
23460 On ch=1 n=a#6 v=0
23460 On ch=1 n=c7 v=80
23520 On ch=1 n=c7 v=0
23520 On ch=1 n=a#6 v=80
23580 On ch=1 n=a#6 v=0
23580 On ch=1 n=g#6 v=80
23640 On ch=1 n=g#6 v=0
23640 On ch=1 n=g6 v=80
23700 On ch=1 n=g6 v=0
23700 On ch=1 n=c7 v=80
23760 On ch=1 n=c7 v=0
23760 On ch=1 n=g#6 v=80
23820 On ch=1 n=g#6 v=0
23820 On ch=1 n=a#6 v=80
23880 On ch=1 n=a#6 v=0
23880 On ch=1 n=g#6 v=80
23940 On ch=1 n=g#6 v=0
23940 On ch=1 n=g6 v=80
24000 On ch=1 n=g6 v=0
24000 On ch=1 n=f6 v=80
24060 On ch=1 n=f6 v=0
24060 On ch=1 n=c7 v=80
24120 On ch=1 n=c7 v=0
24120 On ch=1 n=g6 v=80
24180 On ch=1 n=g6 v=0
24180 On ch=1 n=c6 v=80
24240 On ch=1 n=c6 v=0
24240 On ch=1 n=c#6 v=80
24300 On ch=1 n=c#6 v=0
24300 On ch=1 n=c6 v=80
24360 On ch=1 n=c6 v=0
24360 On ch=1 n=g#6 v=80
24420 On ch=1 n=g#6 v=0
24420 On ch=1 n=g6 v=80
24480 On ch=1 n=g6 v=0
24480 On ch=1 n=f6 v=80
24540 On ch=1 n=f6 v=0
24540 On ch=1 n=c6 v=80
24600 On ch=1 n=c6 v=0
24600 On ch=1 n=c#6 v=80
24660 On ch=1 n=c#6 v=0
24660 On ch=1 n=c6 v=80
24720 On ch=1 n=c6 v=0
24720 On ch=1 n=g#6 v=80
24780 On ch=1 n=g#6 v=0
24780 On ch=1 n=c7 v=80
24840 On ch=1 n=c7 v=0
24840 On ch=1 n=a#6 v=80
24900 On ch=1 n=a#6 v=0
24900 On ch=1 n=c7 v=80
24960 On ch=1 n=c7 v=0
24960 On ch=1 n=a#6 v=80
25020 On ch=1 n=a#6 v=0
25020 On ch=1 n=g#6 v=80
25080 On ch=1 n=g#6 v=0
25080 On ch=1 n=g6 v=80
25140 On ch=1 n=g6 v=0
25140 On ch=1 n=c7 v=80
25200 On ch=1 n=c7 v=0
25200 On ch=1 n=g#6 v=80
25260 On ch=1 n=g#6 v=0
25260 On ch=1 n=a#6 v=80
25320 On ch=1 n=a#6 v=0
25320 On ch=1 n=g#6 v=80
25380 On ch=1 n=g#6 v=0
25380 On ch=1 n=g6 v=80
25440 On ch=1 n=g6 v=0
25440 On ch=1 n=f6 v=80
25500 On ch=1 n=f6 v=0
25500 On ch=1 n=c7 v=80
25560 On ch=1 n=c7 v=0
25560 On ch=1 n=g6 v=80
25620 On ch=1 n=g6 v=0
25620 On ch=1 n=c6 v=80
25680 On ch=1 n=c6 v=0
25680 On ch=1 n=c#6 v=80
25740 On ch=1 n=c#6 v=0
25740 On ch=1 n=c6 v=80
25800 On ch=1 n=c6 v=0
25800 On ch=1 n=g#6 v=80
25860 On ch=1 n=g#6 v=0
25860 On ch=1 n=g6 v=80
25920 On ch=1 n=g6 v=0
25920 On ch=1 n=f6 v=80
25980 On ch=1 n=f6 v=0
25980 On ch=1 n=c6 v=80
26040 On ch=1 n=c6 v=0
26040 On ch=1 n=f6 v=80
26100 On ch=1 n=f6 v=0
26100 On ch=1 n=g#6 v=80
26160 On ch=1 n=g#6 v=0
26160 On ch=1 n=c7 v=80
26280 On ch=1 n=c7 v=0
26280 On ch=1 n=a#6 v=100
26340 On ch=1 n=a#6 v=0
26340 On ch=1 n=c7 v=100
26400 On ch=1 n=c7 v=0
26400 On ch=1 n=a#6 v=100
26460 On ch=1 n=a#6 v=0
26460 On ch=1 n=g#6 v=100
26520 On ch=1 n=g#6 v=0
26520 On ch=1 n=g6 v=100
26580 On ch=1 n=g6 v=0
26580 On ch=1 n=c7 v=100
26640 On ch=1 n=c7 v=0
26640 On ch=1 n=g#6 v=100
26700 On ch=1 n=g#6 v=0
26700 On ch=1 n=a#6 v=100
26760 On ch=1 n=a#6 v=0
26760 On ch=1 n=g#6 v=100
26820 On ch=1 n=g#6 v=0
26820 On ch=1 n=g6 v=100
26880 On ch=1 n=g6 v=0
26880 On ch=1 n=f6 v=100
26940 On ch=1 n=f6 v=0
26940 On ch=1 n=c7 v=100
27000 On ch=1 n=c7 v=0
27000 On ch=1 n=g6 v=100
27060 On ch=1 n=g6 v=0
27060 On ch=1 n=c6 v=100
27120 On ch=1 n=c6 v=0
27120 On ch=1 n=c#6 v=100
27180 On ch=1 n=c#6 v=0
27180 On ch=1 n=c6 v=100
27240 On ch=1 n=c6 v=0
27240 On ch=1 n=g#6 v=100
27300 On ch=1 n=g#6 v=0
27300 On ch=1 n=g6 v=100
27360 On ch=1 n=g6 v=0
27360 On ch=1 n=f6 v=100
27420 On ch=1 n=f6 v=0
27420 On ch=1 n=c6 v=100
27480 On ch=1 n=c6 v=0
27480 On ch=1 n=c#6 v=100
27540 On ch=1 n=c#6 v=0
27540 On ch=1 n=c6 v=100
27600 On ch=1 n=c6 v=0
27600 On ch=1 n=g#6 v=100
27660 On ch=1 n=g#6 v=0
27660 On ch=1 n=c7 v=100
27720 On ch=1 n=c7 v=0
27720 On ch=1 n=a#6 v=100
27780 On ch=1 n=a#6 v=0
27780 On ch=1 n=c7 v=100
27840 On ch=1 n=c7 v=0
27840 On ch=1 n=a#6 v=100
27900 On ch=1 n=a#6 v=0
27900 On ch=1 n=g#6 v=100
27960 On ch=1 n=g#6 v=0
27960 On ch=1 n=g6 v=100
28020 On ch=1 n=g6 v=0
28020 On ch=1 n=c7 v=100
28080 On ch=1 n=c7 v=0
28080 On ch=1 n=g#6 v=100
28140 On ch=1 n=g#6 v=0
28140 On ch=1 n=a#6 v=100
28200 On ch=1 n=a#6 v=0
28200 On ch=1 n=g#6 v=100
28260 On ch=1 n=g#6 v=0
28260 On ch=1 n=g6 v=100
28320 On ch=1 n=g6 v=0
28320 On ch=1 n=f6 v=100
28380 On ch=1 n=f6 v=0
28380 On ch=1 n=c7 v=100
28440 On ch=1 n=c7 v=0
28440 On ch=1 n=g6 v=100
28500 On ch=1 n=g6 v=0
28500 On ch=1 n=c6 v=100
28560 On ch=1 n=c6 v=0
28560 On ch=1 n=c#6 v=100
28620 On ch=1 n=c#6 v=0
28620 On ch=1 n=c6 v=100
28680 On ch=1 n=c6 v=0
28680 On ch=1 n=g#6 v=100
28740 On ch=1 n=g#6 v=0
28740 On ch=1 n=g6 v=100
28800 On ch=1 n=g6 v=0
28800 On ch=1 n=f6 v=100
28860 On ch=1 n=f6 v=0
28860 On ch=1 n=g6 v=100
28920 On ch=1 n=g6 v=0
28920 On ch=1 n=f6 v=100
28980 On ch=1 n=f6 v=0
28980 On ch=1 n=e6 v=100
29040 On ch=1 n=e6 v=0
29040 On ch=1 n=d#6 v=100
29100 On ch=1 n=d#6 v=0
29100 On ch=1 n=d6 v=100
29160 On ch=1 n=d6 v=0
29160 On ch=1 n=c#6 v=80
29220 On ch=1 n=c#6 v=0
29220 On ch=1 n=c6 v=80
29280 On ch=1 n=c6 v=0
29280 On ch=1 n=d#6 v=80
29340 On ch=1 n=d#6 v=0
29340 On ch=1 n=c#6 v=80
29400 On ch=1 n=c#6 v=0
29400 On ch=1 n=c7 v=80
29460 On ch=1 n=c7 v=0
29460 On ch=1 n=a#6 v=80
29520 On ch=1 n=a#6 v=0
29520 On ch=1 n=c#6 v=80
29580 On ch=1 n=c#6 v=0
29580 On ch=1 n=c6 v=80
29640 On ch=1 n=c6 v=0
29640 On ch=1 n=d#6 v=80
29700 On ch=1 n=d#6 v=0
29700 On ch=1 n=c#6 v=80
29760 On ch=1 n=c#6 v=0
29760 On ch=1 n=c7 v=80
29820 On ch=1 n=c7 v=0
29820 On ch=1 n=a#6 v=80
29880 On ch=1 n=a#6 v=0
29880 On ch=1 n=c6 v=80
29940 On ch=1 n=c6 v=0
29940 On ch=1 n=b5 v=80
30000 On ch=1 n=b5 v=0
30000 On ch=1 n=c#6 v=80
30060 On ch=1 n=c#6 v=0
30060 On ch=1 n=c6 v=80
30120 On ch=1 n=c6 v=0
30120 On ch=1 n=a#6 v=80
30180 On ch=1 n=a#6 v=0
30180 On ch=1 n=g#6 v=80
30240 On ch=1 n=g#6 v=0
30240 On ch=1 n=c6 v=80
30300 On ch=1 n=c6 v=0
30300 On ch=1 n=b5 v=80
30360 On ch=1 n=b5 v=0
30360 On ch=1 n=c#6 v=80
30420 On ch=1 n=c#6 v=0
30420 On ch=1 n=c6 v=80
30480 On ch=1 n=c6 v=0
30480 On ch=1 n=a#6 v=80
30540 On ch=1 n=a#6 v=0
30540 On ch=1 n=g#6 v=80
30600 On ch=1 n=g#6 v=0
30600 On ch=1 n=a#5 v=80
30660 On ch=1 n=a#5 v=0
30660 On ch=1 n=a5 v=80
30720 On ch=1 n=a5 v=0
30720 On ch=1 n=c6 v=80
30780 On ch=1 n=c6 v=0
30780 On ch=1 n=a#5 v=80
30840 On ch=1 n=a#5 v=0
30840 On ch=1 n=c#6 v=80
30900 On ch=1 n=c#6 v=0
30900 On ch=1 n=c6 v=80
30960 On ch=1 n=c6 v=0
30960 On ch=1 n=d#6 v=80
31020 On ch=1 n=d#6 v=0
31020 On ch=1 n=c#6 v=80
31080 On ch=1 n=c#6 v=0
31080 On ch=1 n=g6 v=80
31140 On ch=1 n=g6 v=0
31140 On ch=1 n=f6 v=80
31200 On ch=1 n=f6 v=0
31200 On ch=1 n=c#6 v=80
31260 On ch=1 n=c#6 v=0
31260 On ch=1 n=g5 v=80
31320 On ch=1 n=g5 v=0
31320 On ch=1 n=g#5 v=80
31380 On ch=1 n=g#5 v=0
31380 On ch=1 n=a5 v=80
31440 On ch=1 n=a5 v=0
31440 On ch=1 n=a#5 v=80
31500 On ch=1 n=a#5 v=0
31500 On ch=1 n=b5 v=80
31560 On ch=1 n=b5 v=0
31560 On ch=1 n=c6 v=80
31620 On ch=1 n=c6 v=0
31620 On ch=1 n=g#5 v=80
31680 On ch=1 n=g#5 v=0
31680 On ch=1 n=d#5 v=80
31800 On ch=1 n=d#5 v=0
31920 On ch=1 n=c6 v=80
31980 On ch=1 n=c6 v=0
32040 On ch=1 n=c#6 v=100
32100 On ch=1 n=c#6 v=0
32100 On ch=1 n=c6 v=100
32160 On ch=1 n=c6 v=0
32160 On ch=1 n=d#6 v=100
32220 On ch=1 n=d#6 v=0
32220 On ch=1 n=c#6 v=100
32280 On ch=1 n=c#6 v=0
32280 On ch=1 n=c7 v=100
32340 On ch=1 n=c7 v=0
32340 On ch=1 n=a#6 v=100
32400 On ch=1 n=a#6 v=0
32400 On ch=1 n=c#6 v=100
32460 On ch=1 n=c#6 v=0
32460 On ch=1 n=c6 v=100
32520 On ch=1 n=c6 v=0
32520 On ch=1 n=d#6 v=100
32580 On ch=1 n=d#6 v=0
32580 On ch=1 n=c#6 v=100
32640 On ch=1 n=c#6 v=0
32640 On ch=1 n=c7 v=100
32700 On ch=1 n=c7 v=0
32700 On ch=1 n=a#6 v=100
32760 On ch=1 n=a#6 v=0
32760 On ch=1 n=c6 v=100
32820 On ch=1 n=c6 v=0
32820 On ch=1 n=b5 v=100
32880 On ch=1 n=b5 v=0
32880 On ch=1 n=c#6 v=100
32940 On ch=1 n=c#6 v=0
32940 On ch=1 n=c6 v=100
33000 On ch=1 n=c6 v=0
33000 On ch=1 n=a#6 v=100
33060 On ch=1 n=a#6 v=0
33060 On ch=1 n=g#6 v=100
33120 On ch=1 n=g#6 v=0
33120 On ch=1 n=c6 v=100
33180 On ch=1 n=c6 v=0
33180 On ch=1 n=b5 v=100
33240 On ch=1 n=b5 v=0
33240 On ch=1 n=c#6 v=100
33300 On ch=1 n=c#6 v=0
33300 On ch=1 n=c6 v=100
33360 On ch=1 n=c6 v=0
33360 On ch=1 n=a#6 v=100
33420 On ch=1 n=a#6 v=0
33420 On ch=1 n=g#6 v=100
33480 On ch=1 n=g#6 v=0
33480 On ch=1 n=a#5 v=100
33540 On ch=1 n=a#5 v=0
33540 On ch=1 n=c#6 v=100
33600 On ch=1 n=c#6 v=0
33600 On ch=1 n=c6 v=100
33660 On ch=1 n=c6 v=0
33660 On ch=1 n=d#6 v=100
33720 On ch=1 n=d#6 v=0
33720 On ch=1 n=c#6 v=100
33780 On ch=1 n=c#6 v=0
33780 On ch=1 n=f6 v=100
33840 On ch=1 n=f6 v=0
33840 On ch=1 n=e6 v=100
33900 On ch=1 n=e6 v=0
33900 On ch=1 n=g6 v=100
33960 On ch=1 n=g6 v=0
33960 On ch=1 n=f6 v=100
34020 On ch=1 n=f6 v=0
34020 On ch=1 n=a#6 v=100
34080 On ch=1 n=a#6 v=0
34080 On ch=1 n=a6 v=100
34140 On ch=1 n=a6 v=0
34140 On ch=1 n=c7 v=100
34200 On ch=1 n=c7 v=0
34200 On ch=1 n=a#5 v=100
34260 On ch=1 n=a#5 v=0
34260 On ch=1 n=c#6 v=100
34320 On ch=1 n=c#6 v=0
34320 On ch=1 n=c6 v=100
34380 On ch=1 n=c6 v=0
34380 On ch=1 n=d#6 v=100
34440 On ch=1 n=d#6 v=0
34440 On ch=1 n=c#6 v=100
34500 On ch=1 n=c#6 v=0
34500 On ch=1 n=g6 v=100
34560 On ch=1 n=g6 v=0
34560 On ch=1 n=g#6 v=100
34680 On ch=1 n=g#6 v=0
34680 On ch=1 n=c6 v=100
34800 On ch=1 n=c6 v=0
34800 On ch=1 n=g#5 v=100
34860 On ch=1 n=g#5 v=0
34920 On ch=1 n=g#5 v=100
35040 On ch=1 n=g#5 v=0
35040 On ch=1 n=g#5 v=100
35070 On ch=1 n=g#5 v=0
35100 On ch=1 n=g#5 v=100
35130 On ch=1 n=g#5 v=0
35160 On ch=1 n=g#5 v=100
35280 On ch=1 n=g#5 v=0
35280 On ch=1 n=g#5 v=100
35340 On ch=1 n=g#5 v=0
35400 On ch=1 n=c#6 v=100
35460 On ch=1 n=c#6 v=0
35460 On ch=1 n=f6 v=100
35520 On ch=1 n=f6 v=0
35520 On ch=1 n=g#6 v=100
35640 On ch=1 n=g#6 v=0
35640 On ch=1 n=d#6 v=100
35700 On ch=1 n=d#6 v=0
35760 On ch=1 n=g#6 v=100
35820 On ch=1 n=g#6 v=0
35820 On ch=1 n=d#6 v=100
35880 On ch=1 n=d#6 v=0
35880 On ch=1 n=g#5 v=100
36000 On ch=1 n=g#5 v=0
36000 On ch=1 n=c#6 v=100
36060 On ch=1 n=c#6 v=0
36120 On ch=1 n=g#5 v=100
36180 On ch=1 n=g#5 v=0
36180 On ch=1 n=c#6 v=100
36240 On ch=1 n=c#6 v=0
36240 On ch=1 n=f6 v=100
36360 On ch=1 n=f6 v=0
36360 On ch=1 n=g#5 v=100
36390 On ch=1 n=g#5 v=0
36420 On ch=1 n=g#5 v=100
36450 On ch=1 n=g#5 v=0
36480 On ch=1 n=g#5 v=100
36510 On ch=1 n=g#5 v=0
36540 On ch=1 n=g#5 v=100
36570 On ch=1 n=g#5 v=0
36600 On ch=1 n=g#5 v=100
36720 On ch=1 n=g#5 v=0
36720 On ch=1 n=c#6 v=100
36780 On ch=1 n=c#6 v=0
36780 On ch=1 n=g#5 v=100
36840 On ch=1 n=g#5 v=0
36840 On ch=1 n=c#6 v=100
36900 On ch=1 n=c#6 v=0
36900 On ch=1 n=f6 v=100
36960 On ch=1 n=f6 v=0
36960 On ch=1 n=g#6 v=100
37080 On ch=1 n=g#6 v=0
37080 On ch=1 n=d#6 v=100
37140 On ch=1 n=d#6 v=0
37200 On ch=1 n=g#6 v=100
37260 On ch=1 n=g#6 v=0
37260 On ch=1 n=d#6 v=100
37320 On ch=1 n=d#6 v=0
37320 On ch=1 n=g#5 v=100
37440 On ch=1 n=g#5 v=0
37440 On ch=1 n=c#6 v=100
37680 On ch=1 n=c#6 v=0
37680 On ch=1 n=f5 v=100
37740 On ch=1 n=f5 v=0
37740 On ch=1 n=f#5 v=100
37800 On ch=1 n=f#5 v=0
37800 On ch=1 n=g#5 v=100
37920 On ch=1 n=g#5 v=0
37920 On ch=1 n=g#5 v=100
37950 On ch=1 n=g#5 v=0
37980 On ch=1 n=g#5 v=100
38010 On ch=1 n=g#5 v=0
38040 On ch=1 n=g#5 v=100
38160 On ch=1 n=g#5 v=0
38160 On ch=1 n=g#5 v=100
38220 On ch=1 n=g#5 v=0
38280 On ch=1 n=c#6 v=100
38340 On ch=1 n=c#6 v=0
38340 On ch=1 n=f6 v=100
38400 On ch=1 n=f6 v=0
38400 On ch=1 n=g#6 v=100
38520 On ch=1 n=g#6 v=0
38520 On ch=1 n=d#6 v=100
38580 On ch=1 n=d#6 v=0
38640 On ch=1 n=g#6 v=100
38700 On ch=1 n=g#6 v=0
38700 On ch=1 n=d#6 v=100
38760 On ch=1 n=d#6 v=0
38760 On ch=1 n=g#5 v=100
38880 On ch=1 n=g#5 v=0
38880 On ch=1 n=c#6 v=100
38940 On ch=1 n=c#6 v=0
39000 On ch=1 n=g#5 v=100
39060 On ch=1 n=g#5 v=0
39060 On ch=1 n=c#6 v=100
39120 On ch=1 n=c#6 v=0
39120 On ch=1 n=f6 v=100
39240 On ch=1 n=f6 v=0
39240 On ch=1 n=g#5 v=100
39270 On ch=1 n=g#5 v=0
39300 On ch=1 n=g#5 v=100
39330 On ch=1 n=g#5 v=0
39360 On ch=1 n=g#5 v=100
39390 On ch=1 n=g#5 v=0
39420 On ch=1 n=g#5 v=100
39450 On ch=1 n=g#5 v=0
39480 On ch=1 n=g#5 v=100
39600 On ch=1 n=g#5 v=0
39600 On ch=1 n=c#6 v=100
39660 On ch=1 n=c#6 v=0
39660 On ch=1 n=g#5 v=100
39720 On ch=1 n=g#5 v=0
39720 On ch=1 n=c#6 v=100
39780 On ch=1 n=c#6 v=0
39780 On ch=1 n=f6 v=100
39840 On ch=1 n=f6 v=0
39840 On ch=1 n=g#6 v=100
39960 On ch=1 n=g#6 v=0
39960 On ch=1 n=d#6 v=100
40020 On ch=1 n=d#6 v=0
40080 On ch=1 n=g#6 v=100
40140 On ch=1 n=g#6 v=0
40140 On ch=1 n=d#6 v=100
40200 On ch=1 n=d#6 v=0
40200 On ch=1 n=g#5 v=100
40320 On ch=1 n=g#5 v=0
40320 On ch=1 n=c#6 v=100
40560 On ch=1 n=c#6 v=0
40560 On ch=1 n=c#6 v=80
40620 On ch=1 n=c#6 v=0
40680 On ch=1 n=c#6 v=80
40740 On ch=1 n=c#6 v=0
40740 On ch=1 n=c6 v=80
40800 On ch=1 n=c6 v=0
40800 On ch=1 n=d#6 v=80
40860 On ch=1 n=d#6 v=0
40860 On ch=1 n=c#6 v=80
40920 On ch=1 n=c#6 v=0
40920 On ch=1 n=c7 v=80
40980 On ch=1 n=c7 v=0
40980 On ch=1 n=a#6 v=80
41040 On ch=1 n=a#6 v=0
41040 On ch=1 n=c#6 v=80
41100 On ch=1 n=c#6 v=0
41100 On ch=1 n=c6 v=80
41160 On ch=1 n=c6 v=0
41160 On ch=1 n=d#6 v=80
41220 On ch=1 n=d#6 v=0
41220 On ch=1 n=c#6 v=80
41280 On ch=1 n=c#6 v=0
41280 On ch=1 n=c7 v=80
41340 On ch=1 n=c7 v=0
41340 On ch=1 n=a#6 v=80
41400 On ch=1 n=a#6 v=0
41400 On ch=1 n=c6 v=80
41460 On ch=1 n=c6 v=0
41460 On ch=1 n=b5 v=80
41520 On ch=1 n=b5 v=0
41520 On ch=1 n=c#6 v=80
41580 On ch=1 n=c#6 v=0
41580 On ch=1 n=c6 v=80
41640 On ch=1 n=c6 v=0
41640 On ch=1 n=a#6 v=80
41700 On ch=1 n=a#6 v=0
41700 On ch=1 n=g#6 v=80
41760 On ch=1 n=g#6 v=0
41760 On ch=1 n=c6 v=80
41820 On ch=1 n=c6 v=0
41820 On ch=1 n=b5 v=80
41880 On ch=1 n=b5 v=0
41880 On ch=1 n=c#6 v=80
41940 On ch=1 n=c#6 v=0
41940 On ch=1 n=c6 v=80
42000 On ch=1 n=c6 v=0
42000 On ch=1 n=a#6 v=80
42060 On ch=1 n=a#6 v=0
42060 On ch=1 n=g#6 v=80
42120 On ch=1 n=g#6 v=0
42120 On ch=1 n=a#5 v=80
42180 On ch=1 n=a#5 v=0
42180 On ch=1 n=a5 v=80
42240 On ch=1 n=a5 v=0
42240 On ch=1 n=c6 v=80
42300 On ch=1 n=c6 v=0
42300 On ch=1 n=a#5 v=80
42360 On ch=1 n=a#5 v=0
42360 On ch=1 n=c#6 v=80
42420 On ch=1 n=c#6 v=0
42420 On ch=1 n=c6 v=80
42480 On ch=1 n=c6 v=0
42480 On ch=1 n=d#6 v=80
42540 On ch=1 n=d#6 v=0
42540 On ch=1 n=c#6 v=80
42600 On ch=1 n=c#6 v=0
42600 On ch=1 n=g6 v=80
42660 On ch=1 n=g6 v=0
42660 On ch=1 n=f6 v=80
42720 On ch=1 n=f6 v=0
42720 On ch=1 n=c#6 v=80
42780 On ch=1 n=c#6 v=0
42780 On ch=1 n=g5 v=80
42840 On ch=1 n=g5 v=0
42840 On ch=1 n=g#5 v=80
42900 On ch=1 n=g#5 v=0
42900 On ch=1 n=a5 v=80
42960 On ch=1 n=a5 v=0
42960 On ch=1 n=a#5 v=80
43020 On ch=1 n=a#5 v=0
43020 On ch=1 n=b5 v=80
43080 On ch=1 n=b5 v=0
43080 On ch=1 n=c6 v=80
43140 On ch=1 n=c6 v=0
43140 On ch=1 n=g#5 v=80
43200 On ch=1 n=g#5 v=0
43200 On ch=1 n=d#5 v=80
43320 On ch=1 n=d#5 v=0
43440 On ch=1 n=c6 v=80
43500 On ch=1 n=c6 v=0
43560 On ch=1 n=c#6 v=100
43620 On ch=1 n=c#6 v=0
43620 On ch=1 n=c6 v=100
43680 On ch=1 n=c6 v=0
43680 On ch=1 n=d#6 v=100
43740 On ch=1 n=d#6 v=0
43740 On ch=1 n=c#6 v=100
43800 On ch=1 n=c#6 v=0
43800 On ch=1 n=c7 v=100
43860 On ch=1 n=c7 v=0
43860 On ch=1 n=a#6 v=100
43920 On ch=1 n=a#6 v=0
43920 On ch=1 n=c#6 v=100
43980 On ch=1 n=c#6 v=0
43980 On ch=1 n=c6 v=100
44040 On ch=1 n=c6 v=0
44040 On ch=1 n=d#6 v=100
44100 On ch=1 n=d#6 v=0
44100 On ch=1 n=c#6 v=100
44160 On ch=1 n=c#6 v=0
44160 On ch=1 n=c7 v=100
44220 On ch=1 n=c7 v=0
44220 On ch=1 n=a#6 v=100
44280 On ch=1 n=a#6 v=0
44280 On ch=1 n=c6 v=100
44340 On ch=1 n=c6 v=0
44340 On ch=1 n=b5 v=100
44400 On ch=1 n=b5 v=0
44400 On ch=1 n=c#6 v=100
44460 On ch=1 n=c#6 v=0
44460 On ch=1 n=c6 v=100
44520 On ch=1 n=c6 v=0
44520 On ch=1 n=a#6 v=100
44580 On ch=1 n=a#6 v=0
44580 On ch=1 n=g#6 v=100
44640 On ch=1 n=g#6 v=0
44640 On ch=1 n=c6 v=100
44700 On ch=1 n=c6 v=0
44700 On ch=1 n=b5 v=100
44760 On ch=1 n=b5 v=0
44760 On ch=1 n=c#6 v=100
44820 On ch=1 n=c#6 v=0
44820 On ch=1 n=c6 v=100
44880 On ch=1 n=c6 v=0
44880 On ch=1 n=a#6 v=100
44940 On ch=1 n=a#6 v=0
44940 On ch=1 n=g#6 v=100
45000 On ch=1 n=g#6 v=0
45000 On ch=1 n=d6 v=100
45060 On ch=1 n=d6 v=0
45060 On ch=1 n=d#6 v=103
45120 On ch=1 n=d#6 v=0
45120 On ch=1 n=f6 v=107
45180 On ch=1 n=f6 v=0
45180 On ch=1 n=g6 v=110
45240 On ch=1 n=g6 v=0
45240 On ch=1 n=g#6 v=114
45300 On ch=1 n=g#6 v=0
45300 On ch=1 n=a6 v=117
45360 On ch=1 n=a6 v=0
45360 On ch=1 n=a#6 v=120
45420 On ch=1 n=a#6 v=0
45420 On ch=1 n=b6 v=118
45480 On ch=1 n=b6 v=0
45480 On ch=1 n=d7 v=116
45540 On ch=1 n=d7 v=0
45540 On ch=1 n=c7 v=114
45600 On ch=1 n=c7 v=0
45600 On ch=1 n=a#6 v=111
45660 On ch=1 n=a#6 v=0
45660 On ch=1 n=g#6 v=109
45720 On ch=1 n=g#6 v=0
45720 On ch=1 n=g#6 v=107
45780 On ch=1 n=g#6 v=0
45780 On ch=1 n=g6 v=104
45840 On ch=1 n=g6 v=0
45840 On ch=1 n=g6 v=102
45900 On ch=1 n=g6 v=0
45900 On ch=1 n=f#6 v=100
45960 On ch=1 n=f#6 v=0
45960 On ch=1 n=f#6 v=97
46020 On ch=1 n=f#6 v=0
46020 On ch=1 n=f6 v=95
46080 On ch=1 n=f6 v=0
46080 On ch=1 n=f6 v=93
46140 On ch=1 n=f6 v=0
46140 On ch=1 n=e6 v=91
46200 On ch=1 n=e6 v=0
46200 On ch=1 n=e6 v=88
46260 On ch=1 n=e6 v=0
46260 On ch=1 n=d#6 v=86
46320 On ch=1 n=d#6 v=0
46320 On ch=1 n=d#6 v=84
46380 On ch=1 n=d#6 v=0
46380 On ch=1 n=d6 v=81
46440 On ch=1 n=d6 v=0
46440 On ch=1 n=c#6 v=80
46500 On ch=1 n=c#6 v=0
46500 On ch=1 n=c6 v=80
46560 On ch=1 n=c6 v=0
46560 On ch=1 n=d#6 v=80
46620 On ch=1 n=d#6 v=0
46620 On ch=1 n=c#6 v=80
46680 On ch=1 n=c#6 v=0
46680 On ch=1 n=c7 v=80
46740 On ch=1 n=c7 v=0
46740 On ch=1 n=a#6 v=80
46800 On ch=1 n=a#6 v=0
46800 On ch=1 n=c#6 v=80
46860 On ch=1 n=c#6 v=0
46860 On ch=1 n=c6 v=80
46920 On ch=1 n=c6 v=0
46920 On ch=1 n=d#6 v=80
46980 On ch=1 n=d#6 v=0
46980 On ch=1 n=c#6 v=80
47040 On ch=1 n=c#6 v=0
47040 On ch=1 n=c7 v=80
47100 On ch=1 n=c7 v=0
47100 On ch=1 n=a#6 v=80
47160 On ch=1 n=a#6 v=0
47160 On ch=1 n=c6 v=80
47220 On ch=1 n=c6 v=0
47220 On ch=1 n=b5 v=80
47280 On ch=1 n=b5 v=0
47280 On ch=1 n=c#6 v=80
47340 On ch=1 n=c#6 v=0
47340 On ch=1 n=c6 v=80
47400 On ch=1 n=c6 v=0
47400 On ch=1 n=a#6 v=80
47460 On ch=1 n=a#6 v=0
47460 On ch=1 n=g#6 v=80
47520 On ch=1 n=g#6 v=0
47520 On ch=1 n=c6 v=80
47580 On ch=1 n=c6 v=0
47580 On ch=1 n=b5 v=80
47640 On ch=1 n=b5 v=0
47640 On ch=1 n=c#6 v=80
47700 On ch=1 n=c#6 v=0
47700 On ch=1 n=c6 v=80
47760 On ch=1 n=c6 v=0
47760 On ch=1 n=a#6 v=80
47820 On ch=1 n=a#6 v=0
47820 On ch=1 n=g#6 v=80
47880 On ch=1 n=g#6 v=0
47880 On ch=1 n=a#5 v=80
47940 On ch=1 n=a#5 v=0
47940 On ch=1 n=a5 v=80
48000 On ch=1 n=a5 v=0
48000 On ch=1 n=c6 v=80
48060 On ch=1 n=c6 v=0
48060 On ch=1 n=a#5 v=80
48120 On ch=1 n=a#5 v=0
48120 On ch=1 n=c#6 v=80
48180 On ch=1 n=c#6 v=0
48180 On ch=1 n=c6 v=80
48240 On ch=1 n=c6 v=0
48240 On ch=1 n=d#6 v=80
48300 On ch=1 n=d#6 v=0
48300 On ch=1 n=c#6 v=80
48360 On ch=1 n=c#6 v=0
48360 On ch=1 n=g6 v=80
48420 On ch=1 n=g6 v=0
48420 On ch=1 n=f6 v=80
48480 On ch=1 n=f6 v=0
48480 On ch=1 n=c#6 v=80
48540 On ch=1 n=c#6 v=0
48540 On ch=1 n=g5 v=80
48600 On ch=1 n=g5 v=0
48600 On ch=1 n=g#5 v=80
48660 On ch=1 n=g#5 v=0
48660 On ch=1 n=a5 v=80
48720 On ch=1 n=a5 v=0
48720 On ch=1 n=a#5 v=80
48780 On ch=1 n=a#5 v=0
48780 On ch=1 n=b5 v=80
48840 On ch=1 n=b5 v=0
48840 On ch=1 n=c6 v=80
48900 On ch=1 n=c6 v=0
48900 On ch=1 n=g#5 v=80
48960 On ch=1 n=g#5 v=0
48960 On ch=1 n=d#5 v=80
49080 On ch=1 n=d#5 v=0
49200 On ch=1 n=c6 v=80
49260 On ch=1 n=c6 v=0
49320 On ch=1 n=c#6 v=100
49380 On ch=1 n=c#6 v=0
49380 On ch=1 n=c6 v=100
49440 On ch=1 n=c6 v=0
49440 On ch=1 n=d#6 v=100
49500 On ch=1 n=d#6 v=0
49500 On ch=1 n=c#6 v=100
49560 On ch=1 n=c#6 v=0
49560 On ch=1 n=c7 v=100
49620 On ch=1 n=c7 v=0
49620 On ch=1 n=a#6 v=100
49680 On ch=1 n=a#6 v=0
49680 On ch=1 n=c#6 v=100
49740 On ch=1 n=c#6 v=0
49740 On ch=1 n=c6 v=100
49800 On ch=1 n=c6 v=0
49800 On ch=1 n=d#6 v=100
49860 On ch=1 n=d#6 v=0
49860 On ch=1 n=c#6 v=100
49920 On ch=1 n=c#6 v=0
49920 On ch=1 n=c7 v=100
49980 On ch=1 n=c7 v=0
49980 On ch=1 n=a#6 v=100
50040 On ch=1 n=a#6 v=0
50040 On ch=1 n=c6 v=100
50100 On ch=1 n=c6 v=0
50100 On ch=1 n=b5 v=100
50160 On ch=1 n=b5 v=0
50160 On ch=1 n=c#6 v=100
50220 On ch=1 n=c#6 v=0
50220 On ch=1 n=c6 v=100
50280 On ch=1 n=c6 v=0
50280 On ch=1 n=a#6 v=100
50340 On ch=1 n=a#6 v=0
50340 On ch=1 n=g#6 v=100
50400 On ch=1 n=g#6 v=0
50400 On ch=1 n=c6 v=100
50460 On ch=1 n=c6 v=0
50460 On ch=1 n=b5 v=100
50520 On ch=1 n=b5 v=0
50520 On ch=1 n=c#6 v=100
50580 On ch=1 n=c#6 v=0
50580 On ch=1 n=c6 v=100
50640 On ch=1 n=c6 v=0
50640 On ch=1 n=a#6 v=100
50700 On ch=1 n=a#6 v=0
50700 On ch=1 n=g#6 v=100
50760 On ch=1 n=g#6 v=0
50760 On ch=1 n=a#5 v=100
50820 On ch=1 n=a#5 v=0
50820 On ch=1 n=c#6 v=101
50880 On ch=1 n=c#6 v=0
50880 On ch=1 n=c6 v=103
50940 On ch=1 n=c6 v=0
50940 On ch=1 n=d#6 v=105
51000 On ch=1 n=d#6 v=0
51000 On ch=1 n=c#6 v=107
51060 On ch=1 n=c#6 v=0
51060 On ch=1 n=f6 v=108
51120 On ch=1 n=f6 v=0
51120 On ch=1 n=e6 v=110
51180 On ch=1 n=e6 v=0
51180 On ch=1 n=g6 v=112
51240 On ch=1 n=g6 v=0
51240 On ch=1 n=f6 v=114
51300 On ch=1 n=f6 v=0
51300 On ch=1 n=a#6 v=115
51360 On ch=1 n=a#6 v=0
51360 On ch=1 n=a6 v=117
51420 On ch=1 n=a6 v=0
51420 On ch=1 n=c7 v=119
51480 On ch=1 n=c7 v=0
51480 On ch=1 n=a#5 v=120
51540 On ch=1 n=a#5 v=0
51540 On ch=1 n=c#6 v=120
51600 On ch=1 n=c#6 v=0
51600 On ch=1 n=c6 v=120
51660 On ch=1 n=c6 v=0
51660 On ch=1 n=d#6 v=120
51720 On ch=1 n=d#6 v=0
51720 On ch=1 n=c#6 v=120
51780 On ch=1 n=c#6 v=0
51780 On ch=1 n=g6 v=120
51840 On ch=1 n=g6 v=0
51840 On ch=1 n=g#6 v=120
51960 On ch=1 n=g#6 v=0
51960 On ch=1 n=c6 v=120
52080 On ch=1 n=c6 v=0
52080 On ch=1 n=c7 v=80
52140 On ch=1 n=c7 v=0
52200 On ch=1 n=a#6 v=80
52260 On ch=1 n=a#6 v=0
52260 On ch=1 n=c7 v=80
52320 On ch=1 n=c7 v=0
52320 On ch=1 n=a#6 v=80
52380 On ch=1 n=a#6 v=0
52380 On ch=1 n=g#6 v=80
52440 On ch=1 n=g#6 v=0
52440 On ch=1 n=g6 v=80
52500 On ch=1 n=g6 v=0
52500 On ch=1 n=c7 v=80
52560 On ch=1 n=c7 v=0
52560 On ch=1 n=g#6 v=80
52620 On ch=1 n=g#6 v=0
52620 On ch=1 n=a#6 v=80
52680 On ch=1 n=a#6 v=0
52680 On ch=1 n=g#6 v=80
52740 On ch=1 n=g#6 v=0
52740 On ch=1 n=g6 v=80
52800 On ch=1 n=g6 v=0
52800 On ch=1 n=f6 v=80
52860 On ch=1 n=f6 v=0
52860 On ch=1 n=c7 v=80
52920 On ch=1 n=c7 v=0
52920 On ch=1 n=g6 v=80
52980 On ch=1 n=g6 v=0
52980 On ch=1 n=c6 v=80
53040 On ch=1 n=c6 v=0
53040 On ch=1 n=c#6 v=80
53100 On ch=1 n=c#6 v=0
53100 On ch=1 n=c6 v=80
53160 On ch=1 n=c6 v=0
53160 On ch=1 n=g#6 v=80
53220 On ch=1 n=g#6 v=0
53220 On ch=1 n=g6 v=80
53280 On ch=1 n=g6 v=0
53280 On ch=1 n=f6 v=80
53340 On ch=1 n=f6 v=0
53340 On ch=1 n=c6 v=80
53400 On ch=1 n=c6 v=0
53400 On ch=1 n=c#6 v=80
53460 On ch=1 n=c#6 v=0
53460 On ch=1 n=c6 v=80
53520 On ch=1 n=c6 v=0
53520 On ch=1 n=g#6 v=80
53580 On ch=1 n=g#6 v=0
53580 On ch=1 n=c7 v=80
53640 On ch=1 n=c7 v=0
53640 On ch=1 n=a#6 v=80
53700 On ch=1 n=a#6 v=0
53700 On ch=1 n=c7 v=80
53760 On ch=1 n=c7 v=0
53760 On ch=1 n=a#6 v=80
53820 On ch=1 n=a#6 v=0
53820 On ch=1 n=g#6 v=80
53880 On ch=1 n=g#6 v=0
53880 On ch=1 n=g6 v=80
53940 On ch=1 n=g6 v=0
53940 On ch=1 n=c7 v=80
54000 On ch=1 n=c7 v=0
54000 On ch=1 n=g#6 v=80
54060 On ch=1 n=g#6 v=0
54060 On ch=1 n=a#6 v=80
54120 On ch=1 n=a#6 v=0
54120 On ch=1 n=g#6 v=80
54180 On ch=1 n=g#6 v=0
54180 On ch=1 n=g6 v=80
54240 On ch=1 n=g6 v=0
54240 On ch=1 n=f6 v=80
54300 On ch=1 n=f6 v=0
54300 On ch=1 n=c7 v=80
54360 On ch=1 n=c7 v=0
54360 On ch=1 n=g6 v=80
54420 On ch=1 n=g6 v=0
54420 On ch=1 n=c6 v=80
54480 On ch=1 n=c6 v=0
54480 On ch=1 n=c#6 v=80
54540 On ch=1 n=c#6 v=0
54540 On ch=1 n=c6 v=80
54600 On ch=1 n=c6 v=0
54600 On ch=1 n=g#6 v=80
54660 On ch=1 n=g#6 v=0
54660 On ch=1 n=g6 v=80
54720 On ch=1 n=g6 v=0
54720 On ch=1 n=f6 v=80
54780 On ch=1 n=f6 v=0
54780 On ch=1 n=c6 v=80
54840 On ch=1 n=c6 v=0
54840 On ch=1 n=f6 v=80
54900 On ch=1 n=f6 v=0
54900 On ch=1 n=g#6 v=80
54960 On ch=1 n=g#6 v=0
54960 On ch=1 n=c7 v=80
55080 On ch=1 n=c7 v=0
55080 On ch=1 n=a#6 v=100
55140 On ch=1 n=a#6 v=0
55140 On ch=1 n=c7 v=100
55200 On ch=1 n=c7 v=0
55200 On ch=1 n=a#6 v=100
55260 On ch=1 n=a#6 v=0
55260 On ch=1 n=g#6 v=100
55320 On ch=1 n=g#6 v=0
55320 On ch=1 n=g6 v=100
55380 On ch=1 n=g6 v=0
55380 On ch=1 n=c7 v=100
55440 On ch=1 n=c7 v=0
55440 On ch=1 n=g#6 v=100
55500 On ch=1 n=g#6 v=0
55500 On ch=1 n=a#6 v=100
55560 On ch=1 n=a#6 v=0
55560 On ch=1 n=g#6 v=100
55620 On ch=1 n=g#6 v=0
55620 On ch=1 n=g6 v=100
55680 On ch=1 n=g6 v=0
55680 On ch=1 n=f6 v=100
55740 On ch=1 n=f6 v=0
55740 On ch=1 n=c7 v=100
55800 On ch=1 n=c7 v=0
55800 On ch=1 n=g6 v=100
55860 On ch=1 n=g6 v=0
55860 On ch=1 n=c6 v=100
55920 On ch=1 n=c6 v=0
55920 On ch=1 n=c#6 v=100
55980 On ch=1 n=c#6 v=0
55980 On ch=1 n=c6 v=100
56040 On ch=1 n=c6 v=0
56040 On ch=1 n=g#6 v=100
56100 On ch=1 n=g#6 v=0
56100 On ch=1 n=g6 v=100
56160 On ch=1 n=g6 v=0
56160 On ch=1 n=f6 v=100
56220 On ch=1 n=f6 v=0
56220 On ch=1 n=c6 v=100
56280 On ch=1 n=c6 v=0
56280 On ch=1 n=c#6 v=100
56340 On ch=1 n=c#6 v=0
56340 On ch=1 n=c6 v=100
56400 On ch=1 n=c6 v=0
56400 On ch=1 n=g#6 v=100
56460 On ch=1 n=g#6 v=0
56460 On ch=1 n=c7 v=100
56520 On ch=1 n=c7 v=0
56520 On ch=1 n=a#6 v=100
56580 On ch=1 n=a#6 v=0
56580 On ch=1 n=c7 v=100
56640 On ch=1 n=c7 v=0
56640 On ch=1 n=a#6 v=100
56700 On ch=1 n=a#6 v=0
56700 On ch=1 n=g#6 v=100
56760 On ch=1 n=g#6 v=0
56760 On ch=1 n=g6 v=100
56820 On ch=1 n=g6 v=0
56820 On ch=1 n=c7 v=100
56880 On ch=1 n=c7 v=0
56880 On ch=1 n=g#6 v=100
56940 On ch=1 n=g#6 v=0
56940 On ch=1 n=a#6 v=100
57000 On ch=1 n=a#6 v=0
57000 On ch=1 n=g#6 v=100
57060 On ch=1 n=g#6 v=0
57060 On ch=1 n=g6 v=100
57120 On ch=1 n=g6 v=0
57120 On ch=1 n=f6 v=100
57180 On ch=1 n=f6 v=0
57180 On ch=1 n=c7 v=100
57240 On ch=1 n=c7 v=0
57240 On ch=1 n=g6 v=100
57300 On ch=1 n=g6 v=0
57300 On ch=1 n=c6 v=100
57360 On ch=1 n=c6 v=0
57360 On ch=1 n=c#6 v=100
57420 On ch=1 n=c#6 v=0
57420 On ch=1 n=c6 v=100
57480 On ch=1 n=c6 v=0
57480 On ch=1 n=g#6 v=100
57540 On ch=1 n=g#6 v=0
57540 On ch=1 n=g6 v=100
57600 On ch=1 n=g6 v=0
57600 On ch=1 n=f6 v=100
57660 On ch=1 n=f6 v=0
57660 On ch=1 n=g6 v=100
57720 On ch=1 n=g6 v=0
57720 On ch=1 n=f6 v=100
57780 On ch=1 n=f6 v=0
57780 On ch=1 n=e6 v=100
57840 On ch=1 n=e6 v=0
57840 On ch=1 n=d#6 v=100
57900 On ch=1 n=d#6 v=0
57900 On ch=1 n=d6 v=100
57960 On ch=1 n=d6 v=0
57960 On ch=1 n=c#6 v=80
58020 On ch=1 n=c#6 v=0
58020 On ch=1 n=c6 v=80
58080 On ch=1 n=c6 v=0
58080 On ch=1 n=d#6 v=80
58140 On ch=1 n=d#6 v=0
58140 On ch=1 n=c#6 v=80
58200 On ch=1 n=c#6 v=0
58200 On ch=1 n=c7 v=80
58260 On ch=1 n=c7 v=0
58260 On ch=1 n=a#6 v=80
58320 On ch=1 n=a#6 v=0
58320 On ch=1 n=c#6 v=80
58380 On ch=1 n=c#6 v=0
58380 On ch=1 n=c6 v=80
58440 On ch=1 n=c6 v=0
58440 On ch=1 n=d#6 v=80
58500 On ch=1 n=d#6 v=0
58500 On ch=1 n=c#6 v=80
58560 On ch=1 n=c#6 v=0
58560 On ch=1 n=c7 v=80
58620 On ch=1 n=c7 v=0
58620 On ch=1 n=a#6 v=80
58680 On ch=1 n=a#6 v=0
58680 On ch=1 n=c6 v=80
58740 On ch=1 n=c6 v=0
58740 On ch=1 n=b5 v=80
58800 On ch=1 n=b5 v=0
58800 On ch=1 n=c#6 v=80
58860 On ch=1 n=c#6 v=0
58860 On ch=1 n=c6 v=80
58920 On ch=1 n=c6 v=0
58920 On ch=1 n=a#6 v=80
58980 On ch=1 n=a#6 v=0
58980 On ch=1 n=g#6 v=80
59040 On ch=1 n=g#6 v=0
59040 On ch=1 n=c6 v=80
59100 On ch=1 n=c6 v=0
59100 On ch=1 n=b5 v=80
59160 On ch=1 n=b5 v=0
59160 On ch=1 n=c#6 v=80
59220 On ch=1 n=c#6 v=0
59220 On ch=1 n=c6 v=80
59280 On ch=1 n=c6 v=0
59280 On ch=1 n=a#6 v=80
59340 On ch=1 n=a#6 v=0
59340 On ch=1 n=g#6 v=80
59400 On ch=1 n=g#6 v=0
59400 On ch=1 n=a#5 v=80
59460 On ch=1 n=a#5 v=0
59460 On ch=1 n=a5 v=80
59520 On ch=1 n=a5 v=0
59520 On ch=1 n=c6 v=80
59580 On ch=1 n=c6 v=0
59580 On ch=1 n=a#5 v=80
59640 On ch=1 n=a#5 v=0
59640 On ch=1 n=c#6 v=80
59700 On ch=1 n=c#6 v=0
59700 On ch=1 n=c6 v=80
59760 On ch=1 n=c6 v=0
59760 On ch=1 n=d#6 v=80
59820 On ch=1 n=d#6 v=0
59820 On ch=1 n=c#6 v=80
59880 On ch=1 n=c#6 v=0
59880 On ch=1 n=g6 v=80
59940 On ch=1 n=g6 v=0
59940 On ch=1 n=f6 v=80
60000 On ch=1 n=f6 v=0
60000 On ch=1 n=c#6 v=80
60060 On ch=1 n=c#6 v=0
60060 On ch=1 n=g5 v=80
60120 On ch=1 n=g5 v=0
60120 On ch=1 n=g#5 v=80
60180 On ch=1 n=g#5 v=0
60180 On ch=1 n=a5 v=80
60240 On ch=1 n=a5 v=0
60240 On ch=1 n=a#5 v=80
60300 On ch=1 n=a#5 v=0
60300 On ch=1 n=b5 v=80
60360 On ch=1 n=b5 v=0
60360 On ch=1 n=c6 v=80
60420 On ch=1 n=c6 v=0
60420 On ch=1 n=g#5 v=80
60480 On ch=1 n=g#5 v=0
60480 On ch=1 n=d#5 v=80
60600 On ch=1 n=d#5 v=0
60720 On ch=1 n=c6 v=80
60780 On ch=1 n=c6 v=0
60840 On ch=1 n=c#6 v=100
60900 On ch=1 n=c#6 v=0
60900 On ch=1 n=c6 v=100
60960 On ch=1 n=c6 v=0
60960 On ch=1 n=d#6 v=100
61020 On ch=1 n=d#6 v=0
61020 On ch=1 n=c#6 v=100
61080 On ch=1 n=c#6 v=0
61080 On ch=1 n=c7 v=100
61140 On ch=1 n=c7 v=0
61140 On ch=1 n=a#6 v=100
61200 On ch=1 n=a#6 v=0
61200 On ch=1 n=c#6 v=100
61260 On ch=1 n=c#6 v=0
61260 On ch=1 n=c6 v=100
61320 On ch=1 n=c6 v=0
61320 On ch=1 n=d#6 v=100
61380 On ch=1 n=d#6 v=0
61380 On ch=1 n=c#6 v=100
61440 On ch=1 n=c#6 v=0
61440 On ch=1 n=c7 v=100
61500 On ch=1 n=c7 v=0
61500 On ch=1 n=a#6 v=100
61560 On ch=1 n=a#6 v=0
61560 On ch=1 n=c6 v=100
61620 On ch=1 n=c6 v=0
61620 On ch=1 n=b5 v=100
61680 On ch=1 n=b5 v=0
61680 On ch=1 n=c#6 v=100
61740 On ch=1 n=c#6 v=0
61740 On ch=1 n=c6 v=100
61800 On ch=1 n=c6 v=0
61800 On ch=1 n=a#6 v=100
61860 On ch=1 n=a#6 v=0
61860 On ch=1 n=g#6 v=100
61920 On ch=1 n=g#6 v=0
61920 On ch=1 n=c6 v=100
61980 On ch=1 n=c6 v=0
61980 On ch=1 n=b5 v=100
62040 On ch=1 n=b5 v=0
62040 On ch=1 n=c#6 v=100
62100 On ch=1 n=c#6 v=0
62100 On ch=1 n=c6 v=100
62160 On ch=1 n=c6 v=0
62160 On ch=1 n=a#6 v=100
62220 On ch=1 n=a#6 v=0
62220 On ch=1 n=g#6 v=100
62280 On ch=1 n=g#6 v=0
62280 On ch=1 n=a#5 v=100
62340 On ch=1 n=a#5 v=0
62340 On ch=1 n=c#6 v=100
62400 On ch=1 n=c#6 v=0
62400 On ch=1 n=c6 v=100
62460 On ch=1 n=c6 v=0
62460 On ch=1 n=d#6 v=100
62520 On ch=1 n=d#6 v=0
62520 On ch=1 n=c#6 v=100
62580 On ch=1 n=c#6 v=0
62580 On ch=1 n=f6 v=100
62640 On ch=1 n=f6 v=0
62640 On ch=1 n=e6 v=100
62700 On ch=1 n=e6 v=0
62700 On ch=1 n=g6 v=100
62760 On ch=1 n=g6 v=0
62760 On ch=1 n=f6 v=100
62820 On ch=1 n=f6 v=0
62820 On ch=1 n=a#6 v=100
62880 On ch=1 n=a#6 v=0
62880 On ch=1 n=a6 v=100
62940 On ch=1 n=a6 v=0
62940 On ch=1 n=c7 v=100
63000 On ch=1 n=c7 v=0
63000 On ch=1 n=a#5 v=100
63060 On ch=1 n=a#5 v=0
63060 On ch=1 n=c#6 v=100
63120 On ch=1 n=c#6 v=0
63120 On ch=1 n=c6 v=100
63180 On ch=1 n=c6 v=0
63180 On ch=1 n=d#6 v=100
63240 On ch=1 n=d#6 v=0
63240 On ch=1 n=c#6 v=100
63300 On ch=1 n=c#6 v=0
63300 On ch=1 n=g6 v=100
63360 On ch=1 n=g6 v=0
63360 On ch=1 n=g#6 v=100
63480 On ch=1 n=g#6 v=0
63480 On ch=1 n=c6 v=100
63600 On ch=1 n=c6 v=0
63600 Meta TrkEnd
TrkEnd
MTrk
0 Meta 0x21 00
0 Meta TrkName "Lower Bass"
0 PrCh ch=1 p=0
360 On ch=1 n=g3 v=90
480 On ch=1 n=g3 v=0
480 On ch=1 n=c#5 v=80
480 On ch=1 n=a#4 v=80
480 On ch=1 n=d#4 v=80
600 On ch=1 n=d#4 v=0
600 On ch=1 n=a#4 v=0
600 On ch=1 n=c#5 v=0
600 On ch=1 n=d#4 v=80
600 On ch=1 n=a#4 v=80
600 On ch=1 n=c#5 v=80
720 On ch=1 n=c#5 v=0
720 On ch=1 n=a#4 v=0
720 On ch=1 n=d#4 v=0
720 On ch=1 n=g3 v=90
840 On ch=1 n=g3 v=0
840 On ch=1 n=c#5 v=80
840 On ch=1 n=a#4 v=80
840 On ch=1 n=d#4 v=80
960 On ch=1 n=d#4 v=0
960 On ch=1 n=a#4 v=0
960 On ch=1 n=c#5 v=0
960 On ch=1 n=d#4 v=80
960 On ch=1 n=a#4 v=80
960 On ch=1 n=c#5 v=80
1080 On ch=1 n=c#5 v=0
1080 On ch=1 n=a#4 v=0
1080 On ch=1 n=d#4 v=0
1080 On ch=1 n=g#3 v=90
1200 On ch=1 n=g#3 v=0
1200 On ch=1 n=c5 v=80
1200 On ch=1 n=g#4 v=80
1200 On ch=1 n=d#4 v=80
1320 On ch=1 n=d#4 v=0
1320 On ch=1 n=g#4 v=0
1320 On ch=1 n=c5 v=0
1320 On ch=1 n=g#4 v=80
1320 On ch=1 n=c5 v=80
1320 On ch=1 n=d#4 v=80
1440 On ch=1 n=d#4 v=0
1440 On ch=1 n=c5 v=0
1440 On ch=1 n=g#4 v=0
1440 On ch=1 n=g#3 v=90
1560 On ch=1 n=g#3 v=0
1560 On ch=1 n=c5 v=80
1560 On ch=1 n=g#4 v=80
1560 On ch=1 n=d#4 v=80
1680 On ch=1 n=d#4 v=0
1680 On ch=1 n=g#4 v=0
1680 On ch=1 n=c5 v=0
1680 On ch=1 n=g#4 v=80
1680 On ch=1 n=c5 v=80
1680 On ch=1 n=d#4 v=80
1800 On ch=1 n=d#4 v=0
1800 On ch=1 n=c5 v=0
1800 On ch=1 n=g#4 v=0
1800 On ch=1 n=d#3 v=90
1920 On ch=1 n=d#3 v=0
1920 On ch=1 n=c#5 v=80
1920 On ch=1 n=g4 v=80
1920 On ch=1 n=d#4 v=80
2040 On ch=1 n=d#4 v=0
2040 On ch=1 n=g4 v=0
2040 On ch=1 n=c#5 v=0
2040 On ch=1 n=d#4 v=80
2040 On ch=1 n=g4 v=80
2040 On ch=1 n=c#5 v=80
2160 On ch=1 n=c#5 v=0
2160 On ch=1 n=g4 v=0
2160 On ch=1 n=d#4 v=0
2160 On ch=1 n=d#3 v=90
2280 On ch=1 n=d#3 v=0
2280 On ch=1 n=c#5 v=80
2280 On ch=1 n=a#4 v=80
2280 On ch=1 n=d#4 v=80
2400 On ch=1 n=d#4 v=0
2400 On ch=1 n=a#4 v=0
2400 On ch=1 n=c#5 v=0
2400 On ch=1 n=a#4 v=80
2400 On ch=1 n=c#5 v=80
2400 On ch=1 n=d#4 v=80
2520 On ch=1 n=d#4 v=0
2520 On ch=1 n=c#5 v=0
2520 On ch=1 n=a#4 v=0
2520 On ch=1 n=g#3 v=90
2640 On ch=1 n=g#3 v=0
2640 On ch=1 n=c5 v=80
2640 On ch=1 n=g#4 v=80
2640 On ch=1 n=d#4 v=80
2760 On ch=1 n=d#4 v=0
2760 On ch=1 n=g#4 v=0
2760 On ch=1 n=c5 v=0
2760 On ch=1 n=g#4 v=80
2760 On ch=1 n=c5 v=80
2760 On ch=1 n=d#4 v=80
2880 On ch=1 n=d#4 v=0
2880 On ch=1 n=c5 v=0
2880 On ch=1 n=g#4 v=0
2880 On ch=1 n=g#3 v=90
3000 On ch=1 n=g#3 v=0
3000 On ch=1 n=c5 v=80
3000 On ch=1 n=g#4 v=80
3000 On ch=1 n=d#4 v=80
3120 On ch=1 n=d#4 v=0
3120 On ch=1 n=g#4 v=0
3120 On ch=1 n=c5 v=0
3120 On ch=1 n=c5 v=80
3120 On ch=1 n=g#4 v=80
3120 On ch=1 n=d#4 v=80
3240 On ch=1 n=d#4 v=0
3240 On ch=1 n=g#4 v=0
3240 On ch=1 n=c5 v=0
3240 On ch=1 n=g3 v=110
3360 On ch=1 n=g3 v=0
3360 On ch=1 n=c#5 v=100
3360 On ch=1 n=a#4 v=100
3360 On ch=1 n=d#4 v=100
3480 On ch=1 n=d#4 v=0
3480 On ch=1 n=a#4 v=0
3480 On ch=1 n=c#5 v=0
3480 On ch=1 n=c#5 v=100
3480 On ch=1 n=a#4 v=100
3480 On ch=1 n=d#4 v=100
3600 On ch=1 n=d#4 v=0
3600 On ch=1 n=a#4 v=0
3600 On ch=1 n=c#5 v=0
3600 On ch=1 n=g3 v=110
3720 On ch=1 n=g3 v=0
3720 On ch=1 n=c#5 v=100
3720 On ch=1 n=a#4 v=100
3720 On ch=1 n=d#4 v=100
3840 On ch=1 n=d#4 v=0
3840 On ch=1 n=a#4 v=0
3840 On ch=1 n=c#5 v=0
3840 On ch=1 n=a#4 v=100
3840 On ch=1 n=c#5 v=100
3840 On ch=1 n=d#4 v=100
3960 On ch=1 n=d#4 v=0
3960 On ch=1 n=c#5 v=0
3960 On ch=1 n=a#4 v=0
3960 On ch=1 n=g#3 v=110
4080 On ch=1 n=g#3 v=0
4080 On ch=1 n=c5 v=100
4080 On ch=1 n=g#4 v=100
4080 On ch=1 n=d#4 v=100
4200 On ch=1 n=d#4 v=0
4200 On ch=1 n=g#4 v=0
4200 On ch=1 n=c5 v=0
4200 On ch=1 n=c5 v=100
4200 On ch=1 n=g#4 v=100
4200 On ch=1 n=e4 v=100
4320 On ch=1 n=e4 v=0
4320 On ch=1 n=g#4 v=0
4320 On ch=1 n=c5 v=0
4320 On ch=1 n=g#3 v=110
4440 On ch=1 n=g#3 v=0
4440 On ch=1 n=c5 v=100
4440 On ch=1 n=g#4 v=100
4440 On ch=1 n=f4 v=100
4560 On ch=1 n=f4 v=0
4560 On ch=1 n=g#4 v=0
4560 On ch=1 n=c5 v=0
4560 On ch=1 n=c5 v=100
4560 On ch=1 n=g#4 v=100
4560 On ch=1 n=f4 v=100
4680 On ch=1 n=f4 v=0
4680 On ch=1 n=g#4 v=0
4680 On ch=1 n=c5 v=0
4680 On ch=1 n=a#3 v=110
4800 On ch=1 n=a#3 v=0
4800 On ch=1 n=d5 v=107
4800 On ch=1 n=a#4 v=107
4800 On ch=1 n=g#4 v=107
4920 On ch=1 n=g#4 v=0
4920 On ch=1 n=a#4 v=0
4920 On ch=1 n=d5 v=0
4920 On ch=1 n=d5 v=114
4920 On ch=1 n=a#4 v=114
4920 On ch=1 n=g#4 v=114
5040 On ch=1 n=g#4 v=0
5040 On ch=1 n=a#4 v=0
5040 On ch=1 n=d5 v=0
5040 On ch=1 n=a#3 v=127
5160 On ch=1 n=a#3 v=0
5160 On ch=1 n=d5 v=116
5160 On ch=1 n=a#4 v=116
5160 On ch=1 n=g#4 v=116
5280 On ch=1 n=g#4 v=0
5280 On ch=1 n=a#4 v=0
5280 On ch=1 n=d5 v=0
5280 On ch=1 n=d5 v=111
5280 On ch=1 n=a#4 v=111
5280 On ch=1 n=g#4 v=111
5400 On ch=1 n=g#4 v=0
5400 On ch=1 n=a#4 v=0
5400 On ch=1 n=d5 v=0
5400 On ch=1 n=d#4 v=117
5520 On ch=1 n=d#4 v=0
5520 On ch=1 n=d#5 v=102
5520 On ch=1 n=a#4 v=102
5520 On ch=1 n=g4 v=102
5640 On ch=1 n=g4 v=0
5640 On ch=1 n=a#4 v=0
5640 On ch=1 n=d#5 v=0
5640 On ch=1 n=g4 v=97
5640 On ch=1 n=a#4 v=97
5640 On ch=1 n=d#5 v=97
5760 On ch=1 n=d#5 v=0
5760 On ch=1 n=a#4 v=0
5760 On ch=1 n=g4 v=0
5760 On ch=1 n=d#4 v=103
5880 On ch=1 n=d#4 v=0
5880 On ch=1 n=d#5 v=88
5880 On ch=1 n=a#4 v=88
5880 On ch=1 n=g4 v=88
6000 On ch=1 n=g4 v=0
6000 On ch=1 n=a#4 v=0
6000 On ch=1 n=d#5 v=0
6000 On ch=1 n=g4 v=84
6000 On ch=1 n=a#4 v=84
6000 On ch=1 n=d#5 v=84
6120 On ch=1 n=d#5 v=0
6120 On ch=1 n=a#4 v=0
6120 On ch=1 n=g4 v=0
6120 On ch=1 n=g3 v=90
6240 On ch=1 n=g3 v=0
6240 On ch=1 n=c#5 v=80
6240 On ch=1 n=a#4 v=80
6240 On ch=1 n=d#4 v=80
6360 On ch=1 n=d#4 v=0
6360 On ch=1 n=a#4 v=0
6360 On ch=1 n=c#5 v=0
6360 On ch=1 n=a#4 v=80
6360 On ch=1 n=c#5 v=80
6360 On ch=1 n=d#4 v=80
6480 On ch=1 n=d#4 v=0
6480 On ch=1 n=c#5 v=0
6480 On ch=1 n=a#4 v=0
6480 On ch=1 n=g3 v=90
6600 On ch=1 n=g3 v=0
6600 On ch=1 n=c#5 v=80
6600 On ch=1 n=a#4 v=80
6600 On ch=1 n=d#4 v=80
6720 On ch=1 n=d#4 v=0
6720 On ch=1 n=a#4 v=0
6720 On ch=1 n=c#5 v=0
6720 On ch=1 n=a#4 v=80
6720 On ch=1 n=c#5 v=80
6720 On ch=1 n=d#4 v=80
6840 On ch=1 n=d#4 v=0
6840 On ch=1 n=c#5 v=0
6840 On ch=1 n=a#4 v=0
6840 On ch=1 n=g#3 v=90
6960 On ch=1 n=g#3 v=0
6960 On ch=1 n=c5 v=80
6960 On ch=1 n=g#4 v=80
6960 On ch=1 n=d#4 v=80
7080 On ch=1 n=d#4 v=0
7080 On ch=1 n=g#4 v=0
7080 On ch=1 n=c5 v=0
7080 On ch=1 n=g#4 v=80
7080 On ch=1 n=c5 v=80
7080 On ch=1 n=d#4 v=80
7200 On ch=1 n=d#4 v=0
7200 On ch=1 n=c5 v=0
7200 On ch=1 n=g#4 v=0
7200 On ch=1 n=g#3 v=90
7320 On ch=1 n=g#3 v=0
7320 On ch=1 n=c5 v=80
7320 On ch=1 n=g#4 v=80
7320 On ch=1 n=d#4 v=80
7440 On ch=1 n=d#4 v=0
7440 On ch=1 n=g#4 v=0
7440 On ch=1 n=c5 v=0
7440 On ch=1 n=g#4 v=80
7440 On ch=1 n=c5 v=80
7440 On ch=1 n=d#4 v=80
7560 On ch=1 n=d#4 v=0
7560 On ch=1 n=c5 v=0
7560 On ch=1 n=g#4 v=0
7560 On ch=1 n=d#3 v=90
7680 On ch=1 n=d#3 v=0
7680 On ch=1 n=c#5 v=80
7680 On ch=1 n=a#4 v=80
7680 On ch=1 n=d#4 v=80
7800 On ch=1 n=d#4 v=0
7800 On ch=1 n=a#4 v=0
7800 On ch=1 n=c#5 v=0
7800 On ch=1 n=a#4 v=80
7800 On ch=1 n=c#5 v=80
7800 On ch=1 n=d#4 v=80
7920 On ch=1 n=d#4 v=0
7920 On ch=1 n=c#5 v=0
7920 On ch=1 n=a#4 v=0
7920 On ch=1 n=d#3 v=90
8040 On ch=1 n=d#3 v=0
8040 On ch=1 n=c#5 v=80
8040 On ch=1 n=a#4 v=80
8040 On ch=1 n=d#4 v=80
8160 On ch=1 n=d#4 v=0
8160 On ch=1 n=a#4 v=0
8160 On ch=1 n=c#5 v=0
8160 On ch=1 n=a#4 v=80
8160 On ch=1 n=c#5 v=80
8160 On ch=1 n=d#4 v=80
8280 On ch=1 n=d#4 v=0
8280 On ch=1 n=c#5 v=0
8280 On ch=1 n=a#4 v=0
8280 On ch=1 n=g#3 v=90
8400 On ch=1 n=g#3 v=0
8400 On ch=1 n=c5 v=80
8400 On ch=1 n=g#4 v=80
8400 On ch=1 n=d#4 v=80
8520 On ch=1 n=d#4 v=0
8520 On ch=1 n=g#4 v=0
8520 On ch=1 n=c5 v=0
8520 On ch=1 n=g#4 v=80
8520 On ch=1 n=c5 v=80
8520 On ch=1 n=d#4 v=80
8640 On ch=1 n=d#4 v=0
8640 On ch=1 n=c5 v=0
8640 On ch=1 n=g#4 v=0
8640 On ch=1 n=g#3 v=90
8760 On ch=1 n=g#3 v=0
8760 On ch=1 n=c5 v=80
8760 On ch=1 n=g#4 v=80
8760 On ch=1 n=d#4 v=80
8880 On ch=1 n=d#4 v=0
8880 On ch=1 n=g#4 v=0
8880 On ch=1 n=c5 v=0
8880 On ch=1 n=g#4 v=80
8880 On ch=1 n=c5 v=80
8880 On ch=1 n=d#4 v=80
9000 On ch=1 n=d#4 v=0
9000 On ch=1 n=c5 v=0
9000 On ch=1 n=g#4 v=0
9000 On ch=1 n=g3 v=110
9120 On ch=1 n=g3 v=0
9120 On ch=1 n=c#5 v=100
9120 On ch=1 n=a#4 v=100
9120 On ch=1 n=d#4 v=100
9240 On ch=1 n=d#4 v=0
9240 On ch=1 n=a#4 v=0
9240 On ch=1 n=c#5 v=0
9240 On ch=1 n=a#4 v=100
9240 On ch=1 n=c#5 v=100
9240 On ch=1 n=d#4 v=100
9360 On ch=1 n=d#4 v=0
9360 On ch=1 n=c#5 v=0
9360 On ch=1 n=a#4 v=0
9360 On ch=1 n=g3 v=110
9480 On ch=1 n=g3 v=0
9480 On ch=1 n=c#5 v=100
9480 On ch=1 n=a#4 v=100
9480 On ch=1 n=d#4 v=100
9600 On ch=1 n=d#4 v=0
9600 On ch=1 n=a#4 v=0
9600 On ch=1 n=c#5 v=0
9600 On ch=1 n=a#4 v=100
9600 On ch=1 n=c#5 v=100
9600 On ch=1 n=d#4 v=100
9720 On ch=1 n=d#4 v=0
9720 On ch=1 n=c#5 v=0
9720 On ch=1 n=a#4 v=0
9720 On ch=1 n=g#3 v=110
9840 On ch=1 n=g#3 v=0
9840 On ch=1 n=c5 v=100
9840 On ch=1 n=g#4 v=100
9840 On ch=1 n=d#4 v=100
9960 On ch=1 n=d#4 v=0
9960 On ch=1 n=g#4 v=0
9960 On ch=1 n=c5 v=0
9960 On ch=1 n=g#4 v=100
9960 On ch=1 n=c5 v=100
9960 On ch=1 n=d#4 v=100
10080 On ch=1 n=d#4 v=0
10080 On ch=1 n=c5 v=0
10080 On ch=1 n=g#4 v=0
10080 On ch=1 n=g#3 v=110
10200 On ch=1 n=g#3 v=0
10200 On ch=1 n=c5 v=100
10200 On ch=1 n=g#4 v=100
10200 On ch=1 n=d#4 v=100
10320 On ch=1 n=d#4 v=0
10320 On ch=1 n=g#4 v=0
10320 On ch=1 n=c5 v=0
10320 On ch=1 n=g#4 v=100
10320 On ch=1 n=c5 v=100
10320 On ch=1 n=d#4 v=100
10440 On ch=1 n=d#4 v=0
10440 On ch=1 n=c5 v=0
10440 On ch=1 n=g#4 v=0
10440 On ch=1 n=c#4 v=110
10560 On ch=1 n=c#4 v=0
10560 On ch=1 n=c#5 v=103
10560 On ch=1 n=a#4 v=103
10560 On ch=1 n=f4 v=103
10680 On ch=1 n=f4 v=0
10680 On ch=1 n=a#4 v=0
10680 On ch=1 n=c#5 v=0
10680 On ch=1 n=a#4 v=107
10680 On ch=1 n=c#5 v=107
10680 On ch=1 n=f4 v=107
10800 On ch=1 n=f4 v=0
10800 On ch=1 n=c#5 v=0
10800 On ch=1 n=a#4 v=0
10800 On ch=1 n=c#4 v=120
10920 On ch=1 n=c#4 v=0
10920 On ch=1 n=c#5 v=114
10920 On ch=1 n=a#4 v=114
10920 On ch=1 n=f4 v=114
11040 On ch=1 n=f4 v=0
11040 On ch=1 n=a#4 v=0
11040 On ch=1 n=c#5 v=0
11040 On ch=1 n=a#4 v=117
11040 On ch=1 n=c#5 v=117
11040 On ch=1 n=f4 v=117
11160 On ch=1 n=f4 v=0
11160 On ch=1 n=c#5 v=0
11160 On ch=1 n=a#4 v=0
11160 On ch=1 n=d#3 v=127
11160 On ch=1 n=d#4 v=127
11280 On ch=1 n=d#4 v=0
11280 On ch=1 n=d#3 v=0
11280 On ch=1 n=c#5 v=120
11280 On ch=1 n=a#4 v=120
11280 On ch=1 n=d#4 v=120
11400 On ch=1 n=d#4 v=0
11400 On ch=1 n=a#4 v=0
11400 On ch=1 n=c#5 v=0
11400 On ch=1 n=a#4 v=120
11400 On ch=1 n=c#5 v=120
11400 On ch=1 n=d#4 v=120
11520 On ch=1 n=d#4 v=0
11520 On ch=1 n=c#5 v=0
11520 On ch=1 n=a#4 v=0
11520 On ch=1 n=g#3 v=127
11640 On ch=1 n=g#3 v=0
11640 On ch=1 n=c5 v=120
11640 On ch=1 n=g#4 v=120
11640 On ch=1 n=d#4 v=120
11760 On ch=1 n=d#4 v=0
11760 On ch=1 n=g#4 v=0
11760 On ch=1 n=c5 v=0
11880 On ch=1 n=g3 v=90
12000 On ch=1 n=g3 v=0
12000 On ch=1 n=c#5 v=80
12000 On ch=1 n=a#4 v=80
12000 On ch=1 n=d#4 v=80
12120 On ch=1 n=d#4 v=0
12120 On ch=1 n=a#4 v=0
12120 On ch=1 n=c#5 v=0
12120 On ch=1 n=d#4 v=80
12120 On ch=1 n=a#4 v=80
12120 On ch=1 n=c#5 v=80
12240 On ch=1 n=c#5 v=0
12240 On ch=1 n=a#4 v=0
12240 On ch=1 n=d#4 v=0
12240 On ch=1 n=g3 v=90
12360 On ch=1 n=g3 v=0
12360 On ch=1 n=c#5 v=80
12360 On ch=1 n=a#4 v=80
12360 On ch=1 n=d#4 v=80
12480 On ch=1 n=d#4 v=0
12480 On ch=1 n=a#4 v=0
12480 On ch=1 n=c#5 v=0
12480 On ch=1 n=d#4 v=80
12480 On ch=1 n=a#4 v=80
12480 On ch=1 n=c#5 v=80
12600 On ch=1 n=c#5 v=0
12600 On ch=1 n=a#4 v=0
12600 On ch=1 n=d#4 v=0
12600 On ch=1 n=g#3 v=90
12720 On ch=1 n=g#3 v=0
12720 On ch=1 n=c5 v=80
12720 On ch=1 n=g#4 v=80
12720 On ch=1 n=d#4 v=80
12840 On ch=1 n=d#4 v=0
12840 On ch=1 n=g#4 v=0
12840 On ch=1 n=c5 v=0
12840 On ch=1 n=g#4 v=80
12840 On ch=1 n=c5 v=80
12840 On ch=1 n=d#4 v=80
12960 On ch=1 n=d#4 v=0
12960 On ch=1 n=c5 v=0
12960 On ch=1 n=g#4 v=0
12960 On ch=1 n=g#3 v=90
13080 On ch=1 n=g#3 v=0
13080 On ch=1 n=c5 v=80
13080 On ch=1 n=g#4 v=80
13080 On ch=1 n=d#4 v=80
13200 On ch=1 n=d#4 v=0
13200 On ch=1 n=g#4 v=0
13200 On ch=1 n=c5 v=0
13200 On ch=1 n=g#4 v=80
13200 On ch=1 n=c5 v=80
13200 On ch=1 n=d#4 v=80
13320 On ch=1 n=d#4 v=0
13320 On ch=1 n=c5 v=0
13320 On ch=1 n=g#4 v=0
13320 On ch=1 n=d#3 v=90
13440 On ch=1 n=d#3 v=0
13440 On ch=1 n=c#5 v=80
13440 On ch=1 n=g4 v=80
13440 On ch=1 n=d#4 v=80
13560 On ch=1 n=d#4 v=0
13560 On ch=1 n=g4 v=0
13560 On ch=1 n=c#5 v=0
13560 On ch=1 n=d#4 v=80
13560 On ch=1 n=g4 v=80
13560 On ch=1 n=c#5 v=80
13680 On ch=1 n=c#5 v=0
13680 On ch=1 n=g4 v=0
13680 On ch=1 n=d#4 v=0
13680 On ch=1 n=d#3 v=90
13800 On ch=1 n=d#3 v=0
13800 On ch=1 n=c#5 v=80
13800 On ch=1 n=a#4 v=80
13800 On ch=1 n=d#4 v=80
13920 On ch=1 n=d#4 v=0
13920 On ch=1 n=a#4 v=0
13920 On ch=1 n=c#5 v=0
13920 On ch=1 n=a#4 v=80
13920 On ch=1 n=c#5 v=80
13920 On ch=1 n=d#4 v=80
14040 On ch=1 n=d#4 v=0
14040 On ch=1 n=c#5 v=0
14040 On ch=1 n=a#4 v=0
14040 On ch=1 n=g#3 v=90
14160 On ch=1 n=g#3 v=0
14160 On ch=1 n=c5 v=80
14160 On ch=1 n=g#4 v=80
14160 On ch=1 n=d#4 v=80
14280 On ch=1 n=d#4 v=0
14280 On ch=1 n=g#4 v=0
14280 On ch=1 n=c5 v=0
14280 On ch=1 n=g#4 v=80
14280 On ch=1 n=c5 v=80
14280 On ch=1 n=d#4 v=80
14400 On ch=1 n=d#4 v=0
14400 On ch=1 n=c5 v=0
14400 On ch=1 n=g#4 v=0
14400 On ch=1 n=g#3 v=90
14520 On ch=1 n=g#3 v=0
14520 On ch=1 n=c5 v=80
14520 On ch=1 n=g#4 v=80
14520 On ch=1 n=d#4 v=80
14640 On ch=1 n=d#4 v=0
14640 On ch=1 n=g#4 v=0
14640 On ch=1 n=c5 v=0
14640 On ch=1 n=c5 v=80
14640 On ch=1 n=g#4 v=80
14640 On ch=1 n=d#4 v=80
14760 On ch=1 n=d#4 v=0
14760 On ch=1 n=g#4 v=0
14760 On ch=1 n=c5 v=0
14760 On ch=1 n=g3 v=110
14880 On ch=1 n=g3 v=0
14880 On ch=1 n=c#5 v=100
14880 On ch=1 n=a#4 v=100
14880 On ch=1 n=d#4 v=100
15000 On ch=1 n=d#4 v=0
15000 On ch=1 n=a#4 v=0
15000 On ch=1 n=c#5 v=0
15000 On ch=1 n=c#5 v=100
15000 On ch=1 n=a#4 v=100
15000 On ch=1 n=d#4 v=100
15120 On ch=1 n=d#4 v=0
15120 On ch=1 n=a#4 v=0
15120 On ch=1 n=c#5 v=0
15120 On ch=1 n=g3 v=110
15240 On ch=1 n=g3 v=0
15240 On ch=1 n=c#5 v=100
15240 On ch=1 n=a#4 v=100
15240 On ch=1 n=d#4 v=100
15360 On ch=1 n=d#4 v=0
15360 On ch=1 n=a#4 v=0
15360 On ch=1 n=c#5 v=0
15360 On ch=1 n=a#4 v=100
15360 On ch=1 n=c#5 v=100
15360 On ch=1 n=d#4 v=100
15480 On ch=1 n=d#4 v=0
15480 On ch=1 n=c#5 v=0
15480 On ch=1 n=a#4 v=0
15480 On ch=1 n=g#3 v=110
15600 On ch=1 n=g#3 v=0
15600 On ch=1 n=c5 v=100
15600 On ch=1 n=g#4 v=100
15600 On ch=1 n=d#4 v=100
15720 On ch=1 n=d#4 v=0
15720 On ch=1 n=g#4 v=0
15720 On ch=1 n=c5 v=0
15720 On ch=1 n=c5 v=100
15720 On ch=1 n=g#4 v=100
15720 On ch=1 n=e4 v=100
15840 On ch=1 n=e4 v=0
15840 On ch=1 n=g#4 v=0
15840 On ch=1 n=c5 v=0
15840 On ch=1 n=g#3 v=110
15960 On ch=1 n=g#3 v=0
15960 On ch=1 n=c5 v=100
15960 On ch=1 n=g#4 v=100
15960 On ch=1 n=f4 v=100
16080 On ch=1 n=f4 v=0
16080 On ch=1 n=g#4 v=0
16080 On ch=1 n=c5 v=0
16080 On ch=1 n=c5 v=100
16080 On ch=1 n=g#4 v=100
16080 On ch=1 n=f4 v=100
16200 On ch=1 n=f4 v=0
16200 On ch=1 n=g#4 v=0
16200 On ch=1 n=c5 v=0
16200 On ch=1 n=a#3 v=110
16320 On ch=1 n=a#3 v=0
16320 On ch=1 n=d5 v=107
16320 On ch=1 n=a#4 v=107
16320 On ch=1 n=g#4 v=107
16440 On ch=1 n=g#4 v=0
16440 On ch=1 n=a#4 v=0
16440 On ch=1 n=d5 v=0
16440 On ch=1 n=d5 v=114
16440 On ch=1 n=a#4 v=114
16440 On ch=1 n=g#4 v=114
16560 On ch=1 n=g#4 v=0
16560 On ch=1 n=a#4 v=0
16560 On ch=1 n=d5 v=0
16560 On ch=1 n=a#3 v=127
16680 On ch=1 n=a#3 v=0
16680 On ch=1 n=d5 v=116
16680 On ch=1 n=a#4 v=116
16680 On ch=1 n=g#4 v=116
16800 On ch=1 n=g#4 v=0
16800 On ch=1 n=a#4 v=0
16800 On ch=1 n=d5 v=0
16800 On ch=1 n=d5 v=111
16800 On ch=1 n=a#4 v=111
16800 On ch=1 n=g#4 v=111
16920 On ch=1 n=g#4 v=0
16920 On ch=1 n=a#4 v=0
16920 On ch=1 n=d5 v=0
16920 On ch=1 n=d#4 v=117
17040 On ch=1 n=d#4 v=0
17040 On ch=1 n=d#5 v=102
17040 On ch=1 n=a#4 v=102
17040 On ch=1 n=g4 v=102
17160 On ch=1 n=g4 v=0
17160 On ch=1 n=a#4 v=0
17160 On ch=1 n=d#5 v=0
17160 On ch=1 n=g4 v=97
17160 On ch=1 n=a#4 v=97
17160 On ch=1 n=d#5 v=97
17280 On ch=1 n=d#5 v=0
17280 On ch=1 n=a#4 v=0
17280 On ch=1 n=g4 v=0
17280 On ch=1 n=d#4 v=103
17400 On ch=1 n=d#4 v=0
17400 On ch=1 n=d#5 v=88
17400 On ch=1 n=a#4 v=88
17400 On ch=1 n=g4 v=88
17520 On ch=1 n=g4 v=0
17520 On ch=1 n=a#4 v=0
17520 On ch=1 n=d#5 v=0
17520 On ch=1 n=g4 v=84
17520 On ch=1 n=a#4 v=84
17520 On ch=1 n=d#5 v=84
17640 On ch=1 n=d#5 v=0
17640 On ch=1 n=a#4 v=0
17640 On ch=1 n=g4 v=0
17640 On ch=1 n=g3 v=90
17760 On ch=1 n=g3 v=0
17760 On ch=1 n=c#5 v=80
17760 On ch=1 n=a#4 v=80
17760 On ch=1 n=d#4 v=80
17880 On ch=1 n=d#4 v=0
17880 On ch=1 n=a#4 v=0
17880 On ch=1 n=c#5 v=0
17880 On ch=1 n=a#4 v=80
17880 On ch=1 n=c#5 v=80
17880 On ch=1 n=d#4 v=80
18000 On ch=1 n=d#4 v=0
18000 On ch=1 n=c#5 v=0
18000 On ch=1 n=a#4 v=0
18000 On ch=1 n=g3 v=90
18120 On ch=1 n=g3 v=0
18120 On ch=1 n=c#5 v=80
18120 On ch=1 n=a#4 v=80
18120 On ch=1 n=d#4 v=80
18240 On ch=1 n=d#4 v=0
18240 On ch=1 n=a#4 v=0
18240 On ch=1 n=c#5 v=0
18240 On ch=1 n=a#4 v=80
18240 On ch=1 n=c#5 v=80
18240 On ch=1 n=d#4 v=80
18360 On ch=1 n=d#4 v=0
18360 On ch=1 n=c#5 v=0
18360 On ch=1 n=a#4 v=0
18360 On ch=1 n=g#3 v=90
18480 On ch=1 n=g#3 v=0
18480 On ch=1 n=c5 v=80
18480 On ch=1 n=g#4 v=80
18480 On ch=1 n=d#4 v=80
18600 On ch=1 n=d#4 v=0
18600 On ch=1 n=g#4 v=0
18600 On ch=1 n=c5 v=0
18600 On ch=1 n=g#4 v=80
18600 On ch=1 n=c5 v=80
18600 On ch=1 n=d#4 v=80
18720 On ch=1 n=d#4 v=0
18720 On ch=1 n=c5 v=0
18720 On ch=1 n=g#4 v=0
18720 On ch=1 n=g#3 v=90
18840 On ch=1 n=g#3 v=0
18840 On ch=1 n=c5 v=80
18840 On ch=1 n=g#4 v=80
18840 On ch=1 n=d#4 v=80
18960 On ch=1 n=d#4 v=0
18960 On ch=1 n=g#4 v=0
18960 On ch=1 n=c5 v=0
18960 On ch=1 n=g#4 v=80
18960 On ch=1 n=c5 v=80
18960 On ch=1 n=d#4 v=80
19080 On ch=1 n=d#4 v=0
19080 On ch=1 n=c5 v=0
19080 On ch=1 n=g#4 v=0
19080 On ch=1 n=d#3 v=90
19200 On ch=1 n=d#3 v=0
19200 On ch=1 n=c#5 v=80
19200 On ch=1 n=a#4 v=80
19200 On ch=1 n=d#4 v=80
19320 On ch=1 n=d#4 v=0
19320 On ch=1 n=a#4 v=0
19320 On ch=1 n=c#5 v=0
19320 On ch=1 n=a#4 v=80
19320 On ch=1 n=c#5 v=80
19320 On ch=1 n=d#4 v=80
19440 On ch=1 n=d#4 v=0
19440 On ch=1 n=c#5 v=0
19440 On ch=1 n=a#4 v=0
19440 On ch=1 n=d#3 v=90
19560 On ch=1 n=d#3 v=0
19560 On ch=1 n=c#5 v=80
19560 On ch=1 n=a#4 v=80
19560 On ch=1 n=d#4 v=80
19680 On ch=1 n=d#4 v=0
19680 On ch=1 n=a#4 v=0
19680 On ch=1 n=c#5 v=0
19680 On ch=1 n=a#4 v=80
19680 On ch=1 n=c#5 v=80
19680 On ch=1 n=d#4 v=80
19800 On ch=1 n=d#4 v=0
19800 On ch=1 n=c#5 v=0
19800 On ch=1 n=a#4 v=0
19800 On ch=1 n=g#3 v=90
19920 On ch=1 n=g#3 v=0
19920 On ch=1 n=c5 v=80
19920 On ch=1 n=g#4 v=80
19920 On ch=1 n=d#4 v=80
20040 On ch=1 n=d#4 v=0
20040 On ch=1 n=g#4 v=0
20040 On ch=1 n=c5 v=0
20040 On ch=1 n=g#4 v=80
20040 On ch=1 n=c5 v=80
20040 On ch=1 n=d#4 v=80
20160 On ch=1 n=d#4 v=0
20160 On ch=1 n=c5 v=0
20160 On ch=1 n=g#4 v=0
20160 On ch=1 n=g#3 v=90
20280 On ch=1 n=g#3 v=0
20280 On ch=1 n=c5 v=80
20280 On ch=1 n=g#4 v=80
20280 On ch=1 n=d#4 v=80
20400 On ch=1 n=d#4 v=0
20400 On ch=1 n=g#4 v=0
20400 On ch=1 n=c5 v=0
20400 On ch=1 n=g#4 v=80
20400 On ch=1 n=c5 v=80
20400 On ch=1 n=d#4 v=80
20520 On ch=1 n=d#4 v=0
20520 On ch=1 n=c5 v=0
20520 On ch=1 n=g#4 v=0
20520 On ch=1 n=g3 v=110
20640 On ch=1 n=g3 v=0
20640 On ch=1 n=c#5 v=100
20640 On ch=1 n=a#4 v=100
20640 On ch=1 n=d#4 v=100
20760 On ch=1 n=d#4 v=0
20760 On ch=1 n=a#4 v=0
20760 On ch=1 n=c#5 v=0
20760 On ch=1 n=a#4 v=100
20760 On ch=1 n=c#5 v=100
20760 On ch=1 n=d#4 v=100
20880 On ch=1 n=d#4 v=0
20880 On ch=1 n=c#5 v=0
20880 On ch=1 n=a#4 v=0
20880 On ch=1 n=g3 v=110
21000 On ch=1 n=g3 v=0
21000 On ch=1 n=c#5 v=100
21000 On ch=1 n=a#4 v=100
21000 On ch=1 n=d#4 v=100
21120 On ch=1 n=d#4 v=0
21120 On ch=1 n=a#4 v=0
21120 On ch=1 n=c#5 v=0
21120 On ch=1 n=a#4 v=100
21120 On ch=1 n=c#5 v=100
21120 On ch=1 n=d#4 v=100
21240 On ch=1 n=d#4 v=0
21240 On ch=1 n=c#5 v=0
21240 On ch=1 n=a#4 v=0
21240 On ch=1 n=g#3 v=110
21360 On ch=1 n=g#3 v=0
21360 On ch=1 n=c5 v=100
21360 On ch=1 n=g#4 v=100
21360 On ch=1 n=d#4 v=100
21480 On ch=1 n=d#4 v=0
21480 On ch=1 n=g#4 v=0
21480 On ch=1 n=c5 v=0
21480 On ch=1 n=g#4 v=100
21480 On ch=1 n=c5 v=100
21480 On ch=1 n=d#4 v=100
21600 On ch=1 n=d#4 v=0
21600 On ch=1 n=c5 v=0
21600 On ch=1 n=g#4 v=0
21600 On ch=1 n=g#3 v=110
21720 On ch=1 n=g#3 v=0
21720 On ch=1 n=c5 v=100
21720 On ch=1 n=g#4 v=100
21720 On ch=1 n=d#4 v=100
21840 On ch=1 n=d#4 v=0
21840 On ch=1 n=g#4 v=0
21840 On ch=1 n=c5 v=0
21840 On ch=1 n=g#4 v=100
21840 On ch=1 n=c5 v=100
21840 On ch=1 n=d#4 v=100
21960 On ch=1 n=d#4 v=0
21960 On ch=1 n=c5 v=0
21960 On ch=1 n=g#4 v=0
21960 On ch=1 n=c#4 v=110
22080 On ch=1 n=c#4 v=0
22080 On ch=1 n=c#5 v=103
22080 On ch=1 n=a#4 v=103
22080 On ch=1 n=f4 v=103
22200 On ch=1 n=f4 v=0
22200 On ch=1 n=a#4 v=0
22200 On ch=1 n=c#5 v=0
22200 On ch=1 n=a#4 v=107
22200 On ch=1 n=c#5 v=107
22200 On ch=1 n=f4 v=107
22320 On ch=1 n=f4 v=0
22320 On ch=1 n=c#5 v=0
22320 On ch=1 n=a#4 v=0
22320 On ch=1 n=c#4 v=120
22440 On ch=1 n=c#4 v=0
22440 On ch=1 n=c#5 v=114
22440 On ch=1 n=a#4 v=114
22440 On ch=1 n=f4 v=114
22560 On ch=1 n=f4 v=0
22560 On ch=1 n=a#4 v=0
22560 On ch=1 n=c#5 v=0
22560 On ch=1 n=a#4 v=117
22560 On ch=1 n=c#5 v=117
22560 On ch=1 n=f4 v=117
22680 On ch=1 n=f4 v=0
22680 On ch=1 n=c#5 v=0
22680 On ch=1 n=a#4 v=0
22680 On ch=1 n=d#3 v=127
22680 On ch=1 n=d#4 v=127
22800 On ch=1 n=d#4 v=0
22800 On ch=1 n=d#3 v=0
22800 On ch=1 n=c#5 v=120
22800 On ch=1 n=a#4 v=120
22800 On ch=1 n=d#4 v=120
22920 On ch=1 n=d#4 v=0
22920 On ch=1 n=a#4 v=0
22920 On ch=1 n=c#5 v=0
22920 On ch=1 n=a#4 v=120
22920 On ch=1 n=c#5 v=120
22920 On ch=1 n=d#4 v=120
23040 On ch=1 n=d#4 v=0
23040 On ch=1 n=c#5 v=0
23040 On ch=1 n=a#4 v=0
23040 On ch=1 n=g#3 v=127
23160 On ch=1 n=g#3 v=0
23160 On ch=1 n=c5 v=120
23160 On ch=1 n=g#4 v=120
23160 On ch=1 n=d#4 v=120
23280 On ch=1 n=d#4 v=0
23280 On ch=1 n=g#4 v=0
23280 On ch=1 n=c5 v=0
23400 On ch=1 n=c4 v=80
23520 On ch=1 n=c4 v=0
23640 On ch=1 n=e5 v=80
23640 On ch=1 n=c5 v=80
23640 On ch=1 n=a#4 v=80
23640 On ch=1 n=g4 v=80
23760 On ch=1 n=g4 v=0
23760 On ch=1 n=e5 v=0
23760 On ch=1 n=c5 v=0
23760 On ch=1 n=a#4 v=0
23760 On ch=1 n=f5 v=80
23760 On ch=1 n=c5 v=80
23760 On ch=1 n=g#4 v=80
23760 On ch=1 n=f4 v=80
23880 On ch=1 n=f4 v=0
23880 On ch=1 n=f5 v=0
23880 On ch=1 n=c5 v=0
23880 On ch=1 n=g#4 v=0
24000 On ch=1 n=f5 v=80
24000 On ch=1 n=c5 v=80
24000 On ch=1 n=g#4 v=80
24000 On ch=1 n=f4 v=80
24120 On ch=1 n=f4 v=0
24120 On ch=1 n=f5 v=0
24120 On ch=1 n=c5 v=0
24120 On ch=1 n=g#4 v=0
24120 On ch=1 n=e5 v=80
24120 On ch=1 n=c5 v=80
24120 On ch=1 n=a#4 v=80
24120 On ch=1 n=f4 v=80
24240 On ch=1 n=f4 v=0
24240 On ch=1 n=e5 v=0
24240 On ch=1 n=c5 v=0
24240 On ch=1 n=a#4 v=0
24360 On ch=1 n=f4 v=80
24360 On ch=1 n=a#4 v=80
24360 On ch=1 n=c5 v=80
24360 On ch=1 n=e5 v=80
24480 On ch=1 n=e5 v=0
24480 On ch=1 n=f4 v=0
24480 On ch=1 n=a#4 v=0
24480 On ch=1 n=c5 v=0
24480 On ch=1 n=f5 v=80
24480 On ch=1 n=c5 v=80
24480 On ch=1 n=g#4 v=80
24480 On ch=1 n=f4 v=80
24600 On ch=1 n=f4 v=0
24600 On ch=1 n=f5 v=0
24600 On ch=1 n=c5 v=0
24600 On ch=1 n=g#4 v=0
24720 On ch=1 n=f5 v=80
24720 On ch=1 n=c5 v=80
24720 On ch=1 n=g#4 v=80
24720 On ch=1 n=f4 v=80
24840 On ch=1 n=f4 v=0
24840 On ch=1 n=f5 v=0
24840 On ch=1 n=c5 v=0
24840 On ch=1 n=g#4 v=0
24840 On ch=1 n=e5 v=80
24840 On ch=1 n=c5 v=80
24840 On ch=1 n=a#4 v=80
24840 On ch=1 n=f4 v=80
24960 On ch=1 n=f4 v=0
24960 On ch=1 n=e5 v=0
24960 On ch=1 n=c5 v=0
24960 On ch=1 n=a#4 v=0
25080 On ch=1 n=f4 v=80
25080 On ch=1 n=a#4 v=80
25080 On ch=1 n=c5 v=80
25080 On ch=1 n=e5 v=80
25200 On ch=1 n=e5 v=0
25200 On ch=1 n=f4 v=0
25200 On ch=1 n=a#4 v=0
25200 On ch=1 n=c5 v=0
25200 On ch=1 n=f5 v=80
25200 On ch=1 n=c5 v=80
25200 On ch=1 n=g#4 v=80
25200 On ch=1 n=f4 v=80
25320 On ch=1 n=f4 v=0
25320 On ch=1 n=f5 v=0
25320 On ch=1 n=c5 v=0
25320 On ch=1 n=g#4 v=0
25440 On ch=1 n=f5 v=80
25440 On ch=1 n=c5 v=80
25440 On ch=1 n=g#4 v=80
25440 On ch=1 n=f4 v=80
25560 On ch=1 n=f4 v=0
25560 On ch=1 n=f5 v=0
25560 On ch=1 n=c5 v=0
25560 On ch=1 n=g#4 v=0
25560 On ch=1 n=e5 v=80
25560 On ch=1 n=c5 v=80
25560 On ch=1 n=a#4 v=80
25560 On ch=1 n=f4 v=80
25680 On ch=1 n=f4 v=0
25680 On ch=1 n=e5 v=0
25680 On ch=1 n=c5 v=0
25680 On ch=1 n=a#4 v=0
25800 On ch=1 n=f4 v=80
25800 On ch=1 n=a#4 v=80
25800 On ch=1 n=c5 v=80
25800 On ch=1 n=e5 v=80
25920 On ch=1 n=e5 v=0
25920 On ch=1 n=f4 v=0
25920 On ch=1 n=a#4 v=0
25920 On ch=1 n=c5 v=0
25920 On ch=1 n=f5 v=80
25920 On ch=1 n=c5 v=80
25920 On ch=1 n=g#4 v=80
25920 On ch=1 n=f4 v=80
26040 On ch=1 n=f4 v=0
26040 On ch=1 n=f5 v=0
26040 On ch=1 n=c5 v=0
26040 On ch=1 n=g#4 v=0
26280 On ch=1 n=c4 v=110
26400 On ch=1 n=c4 v=0
26400 On ch=1 n=e5 v=100
26400 On ch=1 n=c5 v=100
26400 On ch=1 n=a#4 v=100
26520 On ch=1 n=a#4 v=0
26520 On ch=1 n=c5 v=0
26520 On ch=1 n=e5 v=0
26520 On ch=1 n=a#4 v=100
26520 On ch=1 n=c5 v=100
26520 On ch=1 n=e5 v=100
26640 On ch=1 n=e5 v=0
26640 On ch=1 n=c5 v=0
26640 On ch=1 n=a#4 v=0
26640 On ch=1 n=f4 v=110
26760 On ch=1 n=f4 v=0
26760 On ch=1 n=f5 v=100
26760 On ch=1 n=c5 v=100
26760 On ch=1 n=g#4 v=100
26880 On ch=1 n=g#4 v=0
26880 On ch=1 n=c5 v=0
26880 On ch=1 n=f5 v=0
26880 On ch=1 n=g#4 v=100
26880 On ch=1 n=c5 v=100
26880 On ch=1 n=f5 v=100
27000 On ch=1 n=f5 v=0
27000 On ch=1 n=c5 v=0
27000 On ch=1 n=g#4 v=0
27000 On ch=1 n=c4 v=110
27120 On ch=1 n=c4 v=0
27120 On ch=1 n=e5 v=100
27120 On ch=1 n=c5 v=100
27120 On ch=1 n=a#4 v=100
27240 On ch=1 n=a#4 v=0
27240 On ch=1 n=c5 v=0
27240 On ch=1 n=e5 v=0
27240 On ch=1 n=a#4 v=100
27240 On ch=1 n=c5 v=100
27240 On ch=1 n=e5 v=100
27360 On ch=1 n=e5 v=0
27360 On ch=1 n=c5 v=0
27360 On ch=1 n=a#4 v=0
27360 On ch=1 n=f4 v=110
27480 On ch=1 n=f4 v=0
27480 On ch=1 n=f5 v=100
27480 On ch=1 n=c5 v=100
27480 On ch=1 n=g#4 v=100
27600 On ch=1 n=g#4 v=0
27600 On ch=1 n=c5 v=0
27600 On ch=1 n=f5 v=0
27600 On ch=1 n=g#4 v=100
27600 On ch=1 n=c5 v=100
27600 On ch=1 n=f5 v=100
27720 On ch=1 n=f5 v=0
27720 On ch=1 n=c5 v=0
27720 On ch=1 n=g#4 v=0
27720 On ch=1 n=c4 v=110
27840 On ch=1 n=c4 v=0
27840 On ch=1 n=e5 v=100
27840 On ch=1 n=c5 v=100
27840 On ch=1 n=a#4 v=100
27960 On ch=1 n=a#4 v=0
27960 On ch=1 n=c5 v=0
27960 On ch=1 n=e5 v=0
27960 On ch=1 n=a#4 v=100
27960 On ch=1 n=c5 v=100
27960 On ch=1 n=e5 v=100
28080 On ch=1 n=e5 v=0
28080 On ch=1 n=c5 v=0
28080 On ch=1 n=a#4 v=0
28080 On ch=1 n=f4 v=110
28200 On ch=1 n=f4 v=0
28200 On ch=1 n=f5 v=100
28200 On ch=1 n=c5 v=100
28200 On ch=1 n=g#4 v=100
28320 On ch=1 n=g#4 v=0
28320 On ch=1 n=c5 v=0
28320 On ch=1 n=f5 v=0
28320 On ch=1 n=g#4 v=100
28320 On ch=1 n=c5 v=100
28320 On ch=1 n=f5 v=100
28440 On ch=1 n=f5 v=0
28440 On ch=1 n=c5 v=0
28440 On ch=1 n=g#4 v=0
28440 On ch=1 n=c4 v=110
28560 On ch=1 n=c4 v=0
28560 On ch=1 n=e5 v=100
28560 On ch=1 n=c5 v=100
28560 On ch=1 n=a#4 v=100
28680 On ch=1 n=a#4 v=0
28680 On ch=1 n=c5 v=0
28680 On ch=1 n=e5 v=0
28680 On ch=1 n=a#4 v=100
28680 On ch=1 n=c5 v=100
28680 On ch=1 n=e5 v=100
28800 On ch=1 n=e5 v=0
28800 On ch=1 n=c5 v=0
28800 On ch=1 n=a#4 v=0
28800 On ch=1 n=f4 v=110
28920 On ch=1 n=f4 v=0
28920 On ch=1 n=f5 v=100
28920 On ch=1 n=g#4 v=100
29040 On ch=1 n=g#4 v=0
29040 On ch=1 n=f5 v=0
29160 On ch=1 n=g3 v=90
29280 On ch=1 n=g3 v=0
29280 On ch=1 n=c#5 v=80
29280 On ch=1 n=a#4 v=80
29280 On ch=1 n=d#4 v=80
29400 On ch=1 n=d#4 v=0
29400 On ch=1 n=a#4 v=0
29400 On ch=1 n=c#5 v=0
29400 On ch=1 n=d#4 v=80
29400 On ch=1 n=a#4 v=80
29400 On ch=1 n=c#5 v=80
29520 On ch=1 n=c#5 v=0
29520 On ch=1 n=a#4 v=0
29520 On ch=1 n=d#4 v=0
29520 On ch=1 n=g3 v=90
29640 On ch=1 n=g3 v=0
29640 On ch=1 n=c#5 v=80
29640 On ch=1 n=a#4 v=80
29640 On ch=1 n=d#4 v=80
29760 On ch=1 n=d#4 v=0
29760 On ch=1 n=a#4 v=0
29760 On ch=1 n=c#5 v=0
29760 On ch=1 n=a#4 v=80
29760 On ch=1 n=c#5 v=80
29760 On ch=1 n=d#4 v=80
29880 On ch=1 n=d#4 v=0
29880 On ch=1 n=c#5 v=0
29880 On ch=1 n=a#4 v=0
29880 On ch=1 n=g#3 v=90
30000 On ch=1 n=g#3 v=0
30000 On ch=1 n=c5 v=80
30000 On ch=1 n=g#4 v=80
30000 On ch=1 n=d#4 v=80
30120 On ch=1 n=d#4 v=0
30120 On ch=1 n=g#4 v=0
30120 On ch=1 n=c5 v=0
30120 On ch=1 n=d#4 v=80
30120 On ch=1 n=g#4 v=80
30120 On ch=1 n=c5 v=80
30240 On ch=1 n=c5 v=0
30240 On ch=1 n=g#4 v=0
30240 On ch=1 n=d#4 v=0
30240 On ch=1 n=g#3 v=90
30360 On ch=1 n=g#3 v=0
30360 On ch=1 n=c5 v=80
30360 On ch=1 n=g#4 v=80
30360 On ch=1 n=d#4 v=80
30480 On ch=1 n=d#4 v=0
30480 On ch=1 n=g#4 v=0
30480 On ch=1 n=c5 v=0
30480 On ch=1 n=d#4 v=80
30480 On ch=1 n=g#4 v=80
30480 On ch=1 n=c5 v=80
30600 On ch=1 n=c5 v=0
30600 On ch=1 n=g#4 v=0
30600 On ch=1 n=d#4 v=0
30600 On ch=1 n=d#3 v=90
30720 On ch=1 n=d#3 v=0
30720 On ch=1 n=c#5 v=80
30720 On ch=1 n=a#4 v=80
30720 On ch=1 n=d#4 v=80
30840 On ch=1 n=d#4 v=0
30840 On ch=1 n=a#4 v=0
30840 On ch=1 n=c#5 v=0
30840 On ch=1 n=a#4 v=80
30840 On ch=1 n=c#5 v=80
30840 On ch=1 n=d#4 v=80
30960 On ch=1 n=d#4 v=0
30960 On ch=1 n=c#5 v=0
30960 On ch=1 n=a#4 v=0
30960 On ch=1 n=d#3 v=90
31080 On ch=1 n=d#3 v=0
31080 On ch=1 n=c#5 v=80
31080 On ch=1 n=a#4 v=80
31080 On ch=1 n=d#4 v=80
31200 On ch=1 n=d#4 v=0
31200 On ch=1 n=a#4 v=0
31200 On ch=1 n=c#5 v=0
31200 On ch=1 n=a#4 v=80
31200 On ch=1 n=c#5 v=80
31200 On ch=1 n=d#4 v=80
31320 On ch=1 n=d#4 v=0
31320 On ch=1 n=c#5 v=0
31320 On ch=1 n=a#4 v=0
31320 On ch=1 n=g#3 v=90
31440 On ch=1 n=g#3 v=0
31440 On ch=1 n=c5 v=80
31440 On ch=1 n=g#4 v=80
31440 On ch=1 n=d#4 v=80
31560 On ch=1 n=d#4 v=0
31560 On ch=1 n=g#4 v=0
31560 On ch=1 n=c5 v=0
31560 On ch=1 n=d#4 v=80
31560 On ch=1 n=g#4 v=80
31560 On ch=1 n=c5 v=80
31680 On ch=1 n=c5 v=0
31680 On ch=1 n=g#4 v=0
31680 On ch=1 n=d#4 v=0
31680 On ch=1 n=g#3 v=90
31800 On ch=1 n=g#3 v=0
31800 On ch=1 n=c5 v=80
31800 On ch=1 n=g#4 v=80
31800 On ch=1 n=d#4 v=80
31920 On ch=1 n=d#4 v=0
31920 On ch=1 n=g#4 v=0
31920 On ch=1 n=c5 v=0
31920 On ch=1 n=d#4 v=80
31920 On ch=1 n=g#4 v=80
31920 On ch=1 n=c5 v=80
32040 On ch=1 n=c5 v=0
32040 On ch=1 n=g#4 v=0
32040 On ch=1 n=d#4 v=0
32040 On ch=1 n=g3 v=110
32160 On ch=1 n=g3 v=0
32160 On ch=1 n=c#5 v=100
32160 On ch=1 n=a#4 v=100
32160 On ch=1 n=d#4 v=100
32280 On ch=1 n=d#4 v=0
32280 On ch=1 n=a#4 v=0
32280 On ch=1 n=c#5 v=0
32280 On ch=1 n=d#4 v=100
32280 On ch=1 n=a#4 v=100
32280 On ch=1 n=c#5 v=100
32400 On ch=1 n=c#5 v=0
32400 On ch=1 n=a#4 v=0
32400 On ch=1 n=d#4 v=0
32400 On ch=1 n=g3 v=110
32520 On ch=1 n=g3 v=0
32520 On ch=1 n=c#5 v=100
32520 On ch=1 n=a#4 v=100
32520 On ch=1 n=d#4 v=100
32640 On ch=1 n=d#4 v=0
32640 On ch=1 n=a#4 v=0
32640 On ch=1 n=c#5 v=0
32640 On ch=1 n=a#4 v=100
32640 On ch=1 n=c#5 v=100
32640 On ch=1 n=d#4 v=100
32760 On ch=1 n=d#4 v=0
32760 On ch=1 n=c#5 v=0
32760 On ch=1 n=a#4 v=0
32760 On ch=1 n=g#3 v=110
32880 On ch=1 n=g#3 v=0
32880 On ch=1 n=c5 v=100
32880 On ch=1 n=g#4 v=100
32880 On ch=1 n=d#4 v=100
33000 On ch=1 n=d#4 v=0
33000 On ch=1 n=g#4 v=0
33000 On ch=1 n=c5 v=0
33000 On ch=1 n=d#4 v=100
33000 On ch=1 n=g#4 v=100
33000 On ch=1 n=c5 v=100
33120 On ch=1 n=c5 v=0
33120 On ch=1 n=g#4 v=0
33120 On ch=1 n=d#4 v=0
33120 On ch=1 n=g#3 v=110
33240 On ch=1 n=g#3 v=0
33240 On ch=1 n=c5 v=100
33240 On ch=1 n=g#4 v=100
33240 On ch=1 n=d#4 v=100
33360 On ch=1 n=d#4 v=0
33360 On ch=1 n=g#4 v=0
33360 On ch=1 n=c5 v=0
33360 On ch=1 n=d#4 v=100
33360 On ch=1 n=g#4 v=100
33360 On ch=1 n=c5 v=100
33480 On ch=1 n=c5 v=0
33480 On ch=1 n=g#4 v=0
33480 On ch=1 n=d#4 v=0
33480 On ch=1 n=c#4 v=110
33600 On ch=1 n=c#4 v=0
33600 On ch=1 n=c#5 v=100
33600 On ch=1 n=a#4 v=100
33600 On ch=1 n=f4 v=100
33720 On ch=1 n=f4 v=0
33720 On ch=1 n=a#4 v=0
33720 On ch=1 n=c#5 v=0
33720 On ch=1 n=a#4 v=100
33720 On ch=1 n=c#5 v=100
33720 On ch=1 n=f4 v=100
33840 On ch=1 n=f4 v=0
33840 On ch=1 n=c#5 v=0
33840 On ch=1 n=a#4 v=0
33840 On ch=1 n=c#4 v=110
33960 On ch=1 n=c#4 v=0
33960 On ch=1 n=c#5 v=100
33960 On ch=1 n=a#4 v=100
33960 On ch=1 n=f4 v=100
34080 On ch=1 n=f4 v=0
34080 On ch=1 n=a#4 v=0
34080 On ch=1 n=c#5 v=0
34080 On ch=1 n=a#4 v=100
34080 On ch=1 n=c#5 v=100
34080 On ch=1 n=f4 v=100
34200 On ch=1 n=f4 v=0
34200 On ch=1 n=c#5 v=0
34200 On ch=1 n=a#4 v=0
34200 On ch=1 n=d#3 v=110
34200 On ch=1 n=d#4 v=110
34320 On ch=1 n=d#4 v=0
34320 On ch=1 n=d#3 v=0
34320 On ch=1 n=c#5 v=100
34320 On ch=1 n=a#4 v=100
34320 On ch=1 n=d#4 v=100
34440 On ch=1 n=d#4 v=0
34440 On ch=1 n=a#4 v=0
34440 On ch=1 n=c#5 v=0
34440 On ch=1 n=a#4 v=100
34440 On ch=1 n=c#5 v=100
34440 On ch=1 n=d#4 v=100
34560 On ch=1 n=d#4 v=0
34560 On ch=1 n=c#5 v=0
34560 On ch=1 n=a#4 v=0
34560 On ch=1 n=g#3 v=110
34680 On ch=1 n=g#3 v=0
34680 On ch=1 n=c5 v=100
34680 On ch=1 n=g#4 v=100
34680 On ch=1 n=d#4 v=100
34800 On ch=1 n=d#4 v=0
34800 On ch=1 n=g#4 v=0
34800 On ch=1 n=c5 v=0
34920 On ch=1 n=g#4 v=110
35040 On ch=1 n=g#4 v=0
35040 On ch=1 n=f#5 v=100
35040 On ch=1 n=d#5 v=100
35040 On ch=1 n=c5 v=100
35040 On ch=1 n=g#4 v=100
35160 On ch=1 n=g#4 v=0
35160 On ch=1 n=f#5 v=0
35160 On ch=1 n=d#5 v=0
35160 On ch=1 n=c5 v=0
35160 On ch=1 n=c5 v=100
35160 On ch=1 n=d#5 v=100
35160 On ch=1 n=f#5 v=100
35160 On ch=1 n=g#4 v=100
35280 On ch=1 n=g#4 v=0
35280 On ch=1 n=c5 v=0
35280 On ch=1 n=d#5 v=0
35280 On ch=1 n=f#5 v=0
35280 On ch=1 n=c#4 v=110
35400 On ch=1 n=c#4 v=0
35400 On ch=1 n=f5 v=100
35400 On ch=1 n=c#5 v=100
35520 On ch=1 n=c#5 v=0
35520 On ch=1 n=f5 v=0
35520 On ch=1 n=g#4 v=100
35640 On ch=1 n=g#4 v=0
35640 On ch=1 n=g#3 v=110
35760 On ch=1 n=g#3 v=0
35760 On ch=1 n=f#5 v=100
35760 On ch=1 n=c5 v=100
35880 On ch=1 n=c5 v=0
35880 On ch=1 n=f#5 v=0
35880 On ch=1 n=g#4 v=100
36000 On ch=1 n=g#4 v=0
36000 On ch=1 n=c#4 v=110
36120 On ch=1 n=c#4 v=0
36120 On ch=1 n=f5 v=100
36120 On ch=1 n=c#5 v=100
36240 On ch=1 n=c#5 v=0
36240 On ch=1 n=f5 v=0
36240 On ch=1 n=g#4 v=100
36360 On ch=1 n=g#4 v=0
36360 On ch=1 n=g#4 v=110
36480 On ch=1 n=g#4 v=0
36480 On ch=1 n=f#5 v=100
36480 On ch=1 n=c5 v=100
36480 On ch=1 n=g#4 v=100
36600 On ch=1 n=g#4 v=0
36600 On ch=1 n=c5 v=0
36600 On ch=1 n=f#5 v=0
36600 On ch=1 n=g#4 v=100
36600 On ch=1 n=c5 v=100
36600 On ch=1 n=f#5 v=100
36720 On ch=1 n=f#5 v=0
36720 On ch=1 n=c5 v=0
36720 On ch=1 n=g#4 v=0
36720 On ch=1 n=c#4 v=110
36840 On ch=1 n=c#4 v=0
36840 On ch=1 n=f5 v=100
36840 On ch=1 n=c#5 v=100
36960 On ch=1 n=c#5 v=0
36960 On ch=1 n=f5 v=0
36960 On ch=1 n=g#4 v=100
37080 On ch=1 n=g#4 v=0
37080 On ch=1 n=g#3 v=110
37200 On ch=1 n=g#3 v=0
37200 On ch=1 n=f#5 v=100
37200 On ch=1 n=c5 v=100
37320 On ch=1 n=c5 v=0
37320 On ch=1 n=f#5 v=0
37320 On ch=1 n=g#4 v=100
37440 On ch=1 n=g#4 v=0
37440 On ch=1 n=c#4 v=110
37560 On ch=1 n=c#4 v=0
37560 On ch=1 n=f5 v=100
37560 On ch=1 n=c#5 v=100
37680 On ch=1 n=c#5 v=0
37680 On ch=1 n=f5 v=0
37800 On ch=1 n=g#4 v=110
37920 On ch=1 n=g#4 v=0
37920 On ch=1 n=f#5 v=100
37920 On ch=1 n=d#5 v=100
37920 On ch=1 n=c5 v=100
37920 On ch=1 n=g#4 v=100
38040 On ch=1 n=g#4 v=0
38040 On ch=1 n=f#5 v=0
38040 On ch=1 n=d#5 v=0
38040 On ch=1 n=c5 v=0
38040 On ch=1 n=c5 v=100
38040 On ch=1 n=d#5 v=100
38040 On ch=1 n=f#5 v=100
38040 On ch=1 n=g#4 v=100
38160 On ch=1 n=g#4 v=0
38160 On ch=1 n=c5 v=0
38160 On ch=1 n=d#5 v=0
38160 On ch=1 n=f#5 v=0
38160 On ch=1 n=c#4 v=110
38280 On ch=1 n=c#4 v=0
38280 On ch=1 n=f5 v=100
38280 On ch=1 n=c#5 v=100
38400 On ch=1 n=c#5 v=0
38400 On ch=1 n=f5 v=0
38400 On ch=1 n=g#4 v=100
38520 On ch=1 n=g#4 v=0
38520 On ch=1 n=g#3 v=110
38640 On ch=1 n=g#3 v=0
38640 On ch=1 n=f#5 v=100
38640 On ch=1 n=c5 v=100
38760 On ch=1 n=c5 v=0
38760 On ch=1 n=f#5 v=0
38760 On ch=1 n=g#4 v=100
38880 On ch=1 n=g#4 v=0
38880 On ch=1 n=c#4 v=110
39000 On ch=1 n=c#4 v=0
39000 On ch=1 n=f5 v=100
39000 On ch=1 n=c#5 v=100
39120 On ch=1 n=c#5 v=0
39120 On ch=1 n=f5 v=0
39120 On ch=1 n=g#4 v=100
39240 On ch=1 n=g#4 v=0
39240 On ch=1 n=g#4 v=110
39360 On ch=1 n=g#4 v=0
39360 On ch=1 n=f#5 v=100
39360 On ch=1 n=c5 v=100
39360 On ch=1 n=g#4 v=100
39480 On ch=1 n=g#4 v=0
39480 On ch=1 n=c5 v=0
39480 On ch=1 n=f#5 v=0
39480 On ch=1 n=g#4 v=100
39480 On ch=1 n=c5 v=100
39480 On ch=1 n=f#5 v=100
39600 On ch=1 n=f#5 v=0
39600 On ch=1 n=c5 v=0
39600 On ch=1 n=g#4 v=0
39600 On ch=1 n=c#4 v=110
39720 On ch=1 n=c#4 v=0
39720 On ch=1 n=f5 v=100
39720 On ch=1 n=c#5 v=100
39840 On ch=1 n=c#5 v=0
39840 On ch=1 n=f5 v=0
39840 On ch=1 n=g#4 v=100
39960 On ch=1 n=g#4 v=0
39960 On ch=1 n=g#3 v=110
40080 On ch=1 n=g#3 v=0
40080 On ch=1 n=f#5 v=100
40080 On ch=1 n=c5 v=100
40200 On ch=1 n=c5 v=0
40200 On ch=1 n=f#5 v=0
40200 On ch=1 n=g#4 v=100
40320 On ch=1 n=g#4 v=0
40320 On ch=1 n=f5 v=110
40320 On ch=1 n=c#5 v=110
40440 On ch=1 n=c#5 v=0
40440 On ch=1 n=f5 v=0
40440 On ch=1 n=c#4 v=110
40560 On ch=1 n=c#4 v=0
40680 On ch=1 n=g3 v=90
40800 On ch=1 n=g3 v=0
40800 On ch=1 n=c#5 v=80
40800 On ch=1 n=a#4 v=80
40800 On ch=1 n=d#4 v=80
40920 On ch=1 n=d#4 v=0
40920 On ch=1 n=a#4 v=0
40920 On ch=1 n=c#5 v=0
40920 On ch=1 n=d#4 v=80
40920 On ch=1 n=a#4 v=80
40920 On ch=1 n=c#5 v=80
41040 On ch=1 n=c#5 v=0
41040 On ch=1 n=a#4 v=0
41040 On ch=1 n=d#4 v=0
41040 On ch=1 n=g3 v=90
41160 On ch=1 n=g3 v=0
41160 On ch=1 n=c#5 v=80
41160 On ch=1 n=a#4 v=80
41160 On ch=1 n=d#4 v=80
41280 On ch=1 n=d#4 v=0
41280 On ch=1 n=a#4 v=0
41280 On ch=1 n=c#5 v=0
41280 On ch=1 n=d#4 v=80
41280 On ch=1 n=a#4 v=80
41280 On ch=1 n=c#5 v=80
41400 On ch=1 n=c#5 v=0
41400 On ch=1 n=a#4 v=0
41400 On ch=1 n=d#4 v=0
41400 On ch=1 n=g#3 v=90
41520 On ch=1 n=g#3 v=0
41520 On ch=1 n=c5 v=80
41520 On ch=1 n=g#4 v=80
41520 On ch=1 n=d#4 v=80
41640 On ch=1 n=d#4 v=0
41640 On ch=1 n=g#4 v=0
41640 On ch=1 n=c5 v=0
41640 On ch=1 n=g#4 v=80
41640 On ch=1 n=c5 v=80
41640 On ch=1 n=d#4 v=80
41760 On ch=1 n=d#4 v=0
41760 On ch=1 n=c5 v=0
41760 On ch=1 n=g#4 v=0
41760 On ch=1 n=g#3 v=90
41880 On ch=1 n=g#3 v=0
41880 On ch=1 n=c5 v=80
41880 On ch=1 n=g#4 v=80
41880 On ch=1 n=d#4 v=80
42000 On ch=1 n=d#4 v=0
42000 On ch=1 n=g#4 v=0
42000 On ch=1 n=c5 v=0
42000 On ch=1 n=g#4 v=80
42000 On ch=1 n=c5 v=80
42000 On ch=1 n=d#4 v=80
42120 On ch=1 n=d#4 v=0
42120 On ch=1 n=c5 v=0
42120 On ch=1 n=g#4 v=0
42120 On ch=1 n=d#3 v=90
42240 On ch=1 n=d#3 v=0
42240 On ch=1 n=c#5 v=80
42240 On ch=1 n=g4 v=80
42240 On ch=1 n=d#4 v=80
42360 On ch=1 n=d#4 v=0
42360 On ch=1 n=g4 v=0
42360 On ch=1 n=c#5 v=0
42360 On ch=1 n=d#4 v=80
42360 On ch=1 n=g4 v=80
42360 On ch=1 n=c#5 v=80
42480 On ch=1 n=c#5 v=0
42480 On ch=1 n=g4 v=0
42480 On ch=1 n=d#4 v=0
42480 On ch=1 n=d#3 v=90
42600 On ch=1 n=d#3 v=0
42600 On ch=1 n=c#5 v=80
42600 On ch=1 n=a#4 v=80
42600 On ch=1 n=d#4 v=80
42720 On ch=1 n=d#4 v=0
42720 On ch=1 n=a#4 v=0
42720 On ch=1 n=c#5 v=0
42720 On ch=1 n=a#4 v=80
42720 On ch=1 n=c#5 v=80
42720 On ch=1 n=d#4 v=80
42840 On ch=1 n=d#4 v=0
42840 On ch=1 n=c#5 v=0
42840 On ch=1 n=a#4 v=0
42840 On ch=1 n=g#3 v=90
42960 On ch=1 n=g#3 v=0
42960 On ch=1 n=c5 v=80
42960 On ch=1 n=g#4 v=80
42960 On ch=1 n=d#4 v=80
43080 On ch=1 n=d#4 v=0
43080 On ch=1 n=g#4 v=0
43080 On ch=1 n=c5 v=0
43080 On ch=1 n=g#4 v=80
43080 On ch=1 n=c5 v=80
43080 On ch=1 n=d#4 v=80
43200 On ch=1 n=d#4 v=0
43200 On ch=1 n=c5 v=0
43200 On ch=1 n=g#4 v=0
43200 On ch=1 n=g#3 v=90
43320 On ch=1 n=g#3 v=0
43320 On ch=1 n=c5 v=80
43320 On ch=1 n=g#4 v=80
43320 On ch=1 n=d#4 v=80
43440 On ch=1 n=d#4 v=0
43440 On ch=1 n=g#4 v=0
43440 On ch=1 n=c5 v=0
43440 On ch=1 n=c5 v=80
43440 On ch=1 n=g#4 v=80
43440 On ch=1 n=d#4 v=80
43560 On ch=1 n=d#4 v=0
43560 On ch=1 n=g#4 v=0
43560 On ch=1 n=c5 v=0
43560 On ch=1 n=g3 v=110
43680 On ch=1 n=g3 v=0
43680 On ch=1 n=c#5 v=100
43680 On ch=1 n=a#4 v=100
43680 On ch=1 n=d#4 v=100
43800 On ch=1 n=d#4 v=0
43800 On ch=1 n=a#4 v=0
43800 On ch=1 n=c#5 v=0
43800 On ch=1 n=c#5 v=100
43800 On ch=1 n=a#4 v=100
43800 On ch=1 n=d#4 v=100
43920 On ch=1 n=d#4 v=0
43920 On ch=1 n=a#4 v=0
43920 On ch=1 n=c#5 v=0
43920 On ch=1 n=g3 v=110
44040 On ch=1 n=g3 v=0
44040 On ch=1 n=c#5 v=100
44040 On ch=1 n=a#4 v=100
44040 On ch=1 n=d#4 v=100
44160 On ch=1 n=d#4 v=0
44160 On ch=1 n=a#4 v=0
44160 On ch=1 n=c#5 v=0
44160 On ch=1 n=a#4 v=100
44160 On ch=1 n=c#5 v=100
44160 On ch=1 n=d#4 v=100
44280 On ch=1 n=d#4 v=0
44280 On ch=1 n=c#5 v=0
44280 On ch=1 n=a#4 v=0
44280 On ch=1 n=g#3 v=110
44400 On ch=1 n=g#3 v=0
44400 On ch=1 n=c5 v=100
44400 On ch=1 n=g#4 v=100
44400 On ch=1 n=d#4 v=100
44520 On ch=1 n=d#4 v=0
44520 On ch=1 n=g#4 v=0
44520 On ch=1 n=c5 v=0
44520 On ch=1 n=c5 v=100
44520 On ch=1 n=g#4 v=100
44520 On ch=1 n=e4 v=100
44640 On ch=1 n=e4 v=0
44640 On ch=1 n=g#4 v=0
44640 On ch=1 n=c5 v=0
44640 On ch=1 n=g#3 v=110
44760 On ch=1 n=g#3 v=0
44760 On ch=1 n=c5 v=100
44760 On ch=1 n=g#4 v=100
44760 On ch=1 n=f4 v=100
44880 On ch=1 n=f4 v=0
44880 On ch=1 n=g#4 v=0
44880 On ch=1 n=c5 v=0
44880 On ch=1 n=c5 v=100
44880 On ch=1 n=g#4 v=100
44880 On ch=1 n=f4 v=100
45000 On ch=1 n=f4 v=0
45000 On ch=1 n=g#4 v=0
45000 On ch=1 n=c5 v=0
45000 On ch=1 n=a#3 v=110
45120 On ch=1 n=a#3 v=0
45120 On ch=1 n=d5 v=107
45120 On ch=1 n=a#4 v=107
45120 On ch=1 n=g#4 v=107
45240 On ch=1 n=g#4 v=0
45240 On ch=1 n=a#4 v=0
45240 On ch=1 n=d5 v=0
45240 On ch=1 n=d5 v=114
45240 On ch=1 n=a#4 v=114
45240 On ch=1 n=g#4 v=114
45360 On ch=1 n=g#4 v=0
45360 On ch=1 n=a#4 v=0
45360 On ch=1 n=d5 v=0
45360 On ch=1 n=a#3 v=127
45480 On ch=1 n=a#3 v=0
45480 On ch=1 n=d5 v=116
45480 On ch=1 n=a#4 v=116
45480 On ch=1 n=g#4 v=116
45600 On ch=1 n=g#4 v=0
45600 On ch=1 n=a#4 v=0
45600 On ch=1 n=d5 v=0
45600 On ch=1 n=d5 v=111
45600 On ch=1 n=a#4 v=111
45600 On ch=1 n=g#4 v=111
45720 On ch=1 n=g#4 v=0
45720 On ch=1 n=a#4 v=0
45720 On ch=1 n=d5 v=0
45720 On ch=1 n=d#4 v=117
45840 On ch=1 n=d#4 v=0
45840 On ch=1 n=d#5 v=102
45840 On ch=1 n=a#4 v=102
45840 On ch=1 n=g4 v=102
45960 On ch=1 n=g4 v=0
45960 On ch=1 n=a#4 v=0
45960 On ch=1 n=d#5 v=0
45960 On ch=1 n=g4 v=97
45960 On ch=1 n=a#4 v=97
45960 On ch=1 n=d#5 v=97
46080 On ch=1 n=d#5 v=0
46080 On ch=1 n=a#4 v=0
46080 On ch=1 n=g4 v=0
46080 On ch=1 n=d#4 v=103
46200 On ch=1 n=d#4 v=0
46200 On ch=1 n=d#5 v=88
46200 On ch=1 n=a#4 v=88
46200 On ch=1 n=g4 v=88
46320 On ch=1 n=g4 v=0
46320 On ch=1 n=a#4 v=0
46320 On ch=1 n=d#5 v=0
46320 On ch=1 n=g4 v=84
46320 On ch=1 n=a#4 v=84
46320 On ch=1 n=d#5 v=84
46440 On ch=1 n=d#5 v=0
46440 On ch=1 n=a#4 v=0
46440 On ch=1 n=g4 v=0
46440 On ch=1 n=g3 v=90
46560 On ch=1 n=g3 v=0
46560 On ch=1 n=c#5 v=80
46560 On ch=1 n=a#4 v=80
46560 On ch=1 n=d#4 v=80
46680 On ch=1 n=d#4 v=0
46680 On ch=1 n=a#4 v=0
46680 On ch=1 n=c#5 v=0
46680 On ch=1 n=a#4 v=80
46680 On ch=1 n=c#5 v=80
46680 On ch=1 n=d#4 v=80
46800 On ch=1 n=d#4 v=0
46800 On ch=1 n=c#5 v=0
46800 On ch=1 n=a#4 v=0
46800 On ch=1 n=g3 v=90
46920 On ch=1 n=g3 v=0
46920 On ch=1 n=c#5 v=80
46920 On ch=1 n=a#4 v=80
46920 On ch=1 n=d#4 v=80
47040 On ch=1 n=d#4 v=0
47040 On ch=1 n=a#4 v=0
47040 On ch=1 n=c#5 v=0
47040 On ch=1 n=a#4 v=80
47040 On ch=1 n=c#5 v=80
47040 On ch=1 n=d#4 v=80
47160 On ch=1 n=d#4 v=0
47160 On ch=1 n=c#5 v=0
47160 On ch=1 n=a#4 v=0
47160 On ch=1 n=g#3 v=90
47280 On ch=1 n=g#3 v=0
47280 On ch=1 n=c5 v=80
47280 On ch=1 n=g#4 v=80
47280 On ch=1 n=d#4 v=80
47400 On ch=1 n=d#4 v=0
47400 On ch=1 n=g#4 v=0
47400 On ch=1 n=c5 v=0
47400 On ch=1 n=g#4 v=80
47400 On ch=1 n=c5 v=80
47400 On ch=1 n=d#4 v=80
47520 On ch=1 n=d#4 v=0
47520 On ch=1 n=c5 v=0
47520 On ch=1 n=g#4 v=0
47520 On ch=1 n=g#3 v=90
47640 On ch=1 n=g#3 v=0
47640 On ch=1 n=c5 v=80
47640 On ch=1 n=g#4 v=80
47640 On ch=1 n=d#4 v=80
47760 On ch=1 n=d#4 v=0
47760 On ch=1 n=g#4 v=0
47760 On ch=1 n=c5 v=0
47760 On ch=1 n=g#4 v=80
47760 On ch=1 n=c5 v=80
47760 On ch=1 n=d#4 v=80
47880 On ch=1 n=d#4 v=0
47880 On ch=1 n=c5 v=0
47880 On ch=1 n=g#4 v=0
47880 On ch=1 n=d#3 v=90
48000 On ch=1 n=d#3 v=0
48000 On ch=1 n=c#5 v=80
48000 On ch=1 n=a#4 v=80
48000 On ch=1 n=d#4 v=80
48120 On ch=1 n=d#4 v=0
48120 On ch=1 n=a#4 v=0
48120 On ch=1 n=c#5 v=0
48120 On ch=1 n=a#4 v=80
48120 On ch=1 n=c#5 v=80
48120 On ch=1 n=d#4 v=80
48240 On ch=1 n=d#4 v=0
48240 On ch=1 n=c#5 v=0
48240 On ch=1 n=a#4 v=0
48240 On ch=1 n=d#3 v=90
48360 On ch=1 n=d#3 v=0
48360 On ch=1 n=c#5 v=80
48360 On ch=1 n=a#4 v=80
48360 On ch=1 n=d#4 v=80
48480 On ch=1 n=d#4 v=0
48480 On ch=1 n=a#4 v=0
48480 On ch=1 n=c#5 v=0
48480 On ch=1 n=a#4 v=80
48480 On ch=1 n=c#5 v=80
48480 On ch=1 n=d#4 v=80
48600 On ch=1 n=d#4 v=0
48600 On ch=1 n=c#5 v=0
48600 On ch=1 n=a#4 v=0
48600 On ch=1 n=g#3 v=90
48720 On ch=1 n=g#3 v=0
48720 On ch=1 n=c5 v=80
48720 On ch=1 n=g#4 v=80
48720 On ch=1 n=d#4 v=80
48840 On ch=1 n=d#4 v=0
48840 On ch=1 n=g#4 v=0
48840 On ch=1 n=c5 v=0
48840 On ch=1 n=g#4 v=80
48840 On ch=1 n=c5 v=80
48840 On ch=1 n=d#4 v=80
48960 On ch=1 n=d#4 v=0
48960 On ch=1 n=c5 v=0
48960 On ch=1 n=g#4 v=0
48960 On ch=1 n=g#3 v=90
49080 On ch=1 n=g#3 v=0
49080 On ch=1 n=c5 v=80
49080 On ch=1 n=g#4 v=80
49080 On ch=1 n=d#4 v=80
49200 On ch=1 n=d#4 v=0
49200 On ch=1 n=g#4 v=0
49200 On ch=1 n=c5 v=0
49200 On ch=1 n=g#4 v=80
49200 On ch=1 n=c5 v=80
49200 On ch=1 n=d#4 v=80
49320 On ch=1 n=d#4 v=0
49320 On ch=1 n=c5 v=0
49320 On ch=1 n=g#4 v=0
49320 On ch=1 n=g3 v=110
49440 On ch=1 n=g3 v=0
49440 On ch=1 n=c#5 v=100
49440 On ch=1 n=a#4 v=100
49440 On ch=1 n=d#4 v=100
49560 On ch=1 n=d#4 v=0
49560 On ch=1 n=a#4 v=0
49560 On ch=1 n=c#5 v=0
49560 On ch=1 n=a#4 v=100
49560 On ch=1 n=c#5 v=100
49560 On ch=1 n=d#4 v=100
49680 On ch=1 n=d#4 v=0
49680 On ch=1 n=c#5 v=0
49680 On ch=1 n=a#4 v=0
49680 On ch=1 n=g3 v=110
49800 On ch=1 n=g3 v=0
49800 On ch=1 n=c#5 v=100
49800 On ch=1 n=a#4 v=100
49800 On ch=1 n=d#4 v=100
49920 On ch=1 n=d#4 v=0
49920 On ch=1 n=a#4 v=0
49920 On ch=1 n=c#5 v=0
49920 On ch=1 n=a#4 v=100
49920 On ch=1 n=c#5 v=100
49920 On ch=1 n=d#4 v=100
50040 On ch=1 n=d#4 v=0
50040 On ch=1 n=c#5 v=0
50040 On ch=1 n=a#4 v=0
50040 On ch=1 n=g#3 v=110
50160 On ch=1 n=g#3 v=0
50160 On ch=1 n=c5 v=100
50160 On ch=1 n=g#4 v=100
50160 On ch=1 n=d#4 v=100
50280 On ch=1 n=d#4 v=0
50280 On ch=1 n=g#4 v=0
50280 On ch=1 n=c5 v=0
50280 On ch=1 n=g#4 v=100
50280 On ch=1 n=c5 v=100
50280 On ch=1 n=d#4 v=100
50400 On ch=1 n=d#4 v=0
50400 On ch=1 n=c5 v=0
50400 On ch=1 n=g#4 v=0
50400 On ch=1 n=g#3 v=110
50520 On ch=1 n=g#3 v=0
50520 On ch=1 n=c5 v=100
50520 On ch=1 n=g#4 v=100
50520 On ch=1 n=d#4 v=100
50640 On ch=1 n=d#4 v=0
50640 On ch=1 n=g#4 v=0
50640 On ch=1 n=c5 v=0
50640 On ch=1 n=g#4 v=100
50640 On ch=1 n=c5 v=100
50640 On ch=1 n=d#4 v=100
50760 On ch=1 n=d#4 v=0
50760 On ch=1 n=c5 v=0
50760 On ch=1 n=g#4 v=0
50760 On ch=1 n=c#4 v=110
50880 On ch=1 n=c#4 v=0
50880 On ch=1 n=c#5 v=103
50880 On ch=1 n=a#4 v=103
50880 On ch=1 n=f4 v=103
51000 On ch=1 n=f4 v=0
51000 On ch=1 n=a#4 v=0
51000 On ch=1 n=c#5 v=0
51000 On ch=1 n=a#4 v=107
51000 On ch=1 n=c#5 v=107
51000 On ch=1 n=f4 v=107
51120 On ch=1 n=f4 v=0
51120 On ch=1 n=c#5 v=0
51120 On ch=1 n=a#4 v=0
51120 On ch=1 n=c#4 v=120
51240 On ch=1 n=c#4 v=0
51240 On ch=1 n=c#5 v=114
51240 On ch=1 n=a#4 v=114
51240 On ch=1 n=f4 v=114
51360 On ch=1 n=f4 v=0
51360 On ch=1 n=a#4 v=0
51360 On ch=1 n=c#5 v=0
51360 On ch=1 n=a#4 v=117
51360 On ch=1 n=c#5 v=117
51360 On ch=1 n=f4 v=117
51480 On ch=1 n=f4 v=0
51480 On ch=1 n=c#5 v=0
51480 On ch=1 n=a#4 v=0
51480 On ch=1 n=d#3 v=127
51480 On ch=1 n=d#4 v=127
51600 On ch=1 n=d#4 v=0
51600 On ch=1 n=d#3 v=0
51600 On ch=1 n=c#5 v=120
51600 On ch=1 n=a#4 v=120
51600 On ch=1 n=d#4 v=120
51720 On ch=1 n=d#4 v=0
51720 On ch=1 n=a#4 v=0
51720 On ch=1 n=c#5 v=0
51720 On ch=1 n=a#4 v=120
51720 On ch=1 n=c#5 v=120
51720 On ch=1 n=d#4 v=120
51840 On ch=1 n=d#4 v=0
51840 On ch=1 n=c#5 v=0
51840 On ch=1 n=a#4 v=0
51840 On ch=1 n=g#3 v=127
51960 On ch=1 n=g#3 v=0
51960 On ch=1 n=c5 v=120
51960 On ch=1 n=g#4 v=120
51960 On ch=1 n=d#4 v=120
52080 On ch=1 n=d#4 v=0
52080 On ch=1 n=g#4 v=0
52080 On ch=1 n=c5 v=0
52200 On ch=1 n=c4 v=80
52320 On ch=1 n=c4 v=0
52440 On ch=1 n=e5 v=80
52440 On ch=1 n=c5 v=80
52440 On ch=1 n=a#4 v=80
52440 On ch=1 n=g4 v=80
52560 On ch=1 n=g4 v=0
52560 On ch=1 n=e5 v=0
52560 On ch=1 n=c5 v=0
52560 On ch=1 n=a#4 v=0
52560 On ch=1 n=f5 v=80
52560 On ch=1 n=c5 v=80
52560 On ch=1 n=g#4 v=80
52560 On ch=1 n=f4 v=80
52680 On ch=1 n=f4 v=0
52680 On ch=1 n=f5 v=0
52680 On ch=1 n=c5 v=0
52680 On ch=1 n=g#4 v=0
52800 On ch=1 n=f5 v=80
52800 On ch=1 n=c5 v=80
52800 On ch=1 n=g#4 v=80
52800 On ch=1 n=f4 v=80
52920 On ch=1 n=f4 v=0
52920 On ch=1 n=f5 v=0
52920 On ch=1 n=c5 v=0
52920 On ch=1 n=g#4 v=0
52920 On ch=1 n=e5 v=80
52920 On ch=1 n=c5 v=80
52920 On ch=1 n=a#4 v=80
52920 On ch=1 n=f4 v=80
53040 On ch=1 n=f4 v=0
53040 On ch=1 n=e5 v=0
53040 On ch=1 n=c5 v=0
53040 On ch=1 n=a#4 v=0
53160 On ch=1 n=f4 v=80
53160 On ch=1 n=a#4 v=80
53160 On ch=1 n=c5 v=80
53160 On ch=1 n=e5 v=80
53280 On ch=1 n=e5 v=0
53280 On ch=1 n=f4 v=0
53280 On ch=1 n=a#4 v=0
53280 On ch=1 n=c5 v=0
53280 On ch=1 n=f5 v=80
53280 On ch=1 n=c5 v=80
53280 On ch=1 n=g#4 v=80
53280 On ch=1 n=f4 v=80
53400 On ch=1 n=f4 v=0
53400 On ch=1 n=f5 v=0
53400 On ch=1 n=c5 v=0
53400 On ch=1 n=g#4 v=0
53520 On ch=1 n=f5 v=80
53520 On ch=1 n=c5 v=80
53520 On ch=1 n=g#4 v=80
53520 On ch=1 n=f4 v=80
53640 On ch=1 n=f4 v=0
53640 On ch=1 n=f5 v=0
53640 On ch=1 n=c5 v=0
53640 On ch=1 n=g#4 v=0
53640 On ch=1 n=e5 v=80
53640 On ch=1 n=c5 v=80
53640 On ch=1 n=a#4 v=80
53640 On ch=1 n=f4 v=80
53760 On ch=1 n=f4 v=0
53760 On ch=1 n=e5 v=0
53760 On ch=1 n=c5 v=0
53760 On ch=1 n=a#4 v=0
53880 On ch=1 n=f4 v=80
53880 On ch=1 n=a#4 v=80
53880 On ch=1 n=c5 v=80
53880 On ch=1 n=e5 v=80
54000 On ch=1 n=e5 v=0
54000 On ch=1 n=f4 v=0
54000 On ch=1 n=a#4 v=0
54000 On ch=1 n=c5 v=0
54000 On ch=1 n=f5 v=80
54000 On ch=1 n=c5 v=80
54000 On ch=1 n=g#4 v=80
54000 On ch=1 n=f4 v=80
54120 On ch=1 n=f4 v=0
54120 On ch=1 n=f5 v=0
54120 On ch=1 n=c5 v=0
54120 On ch=1 n=g#4 v=0
54240 On ch=1 n=f5 v=80
54240 On ch=1 n=c5 v=80
54240 On ch=1 n=g#4 v=80
54240 On ch=1 n=f4 v=80
54360 On ch=1 n=f4 v=0
54360 On ch=1 n=f5 v=0
54360 On ch=1 n=c5 v=0
54360 On ch=1 n=g#4 v=0
54360 On ch=1 n=e5 v=80
54360 On ch=1 n=c5 v=80
54360 On ch=1 n=a#4 v=80
54360 On ch=1 n=f4 v=80
54480 On ch=1 n=f4 v=0
54480 On ch=1 n=e5 v=0
54480 On ch=1 n=c5 v=0
54480 On ch=1 n=a#4 v=0
54600 On ch=1 n=f4 v=80
54600 On ch=1 n=a#4 v=80
54600 On ch=1 n=c5 v=80
54600 On ch=1 n=e5 v=80
54720 On ch=1 n=e5 v=0
54720 On ch=1 n=f4 v=0
54720 On ch=1 n=a#4 v=0
54720 On ch=1 n=c5 v=0
54720 On ch=1 n=f5 v=80
54720 On ch=1 n=c5 v=80
54720 On ch=1 n=g#4 v=80
54720 On ch=1 n=f4 v=80
54840 On ch=1 n=f4 v=0
54840 On ch=1 n=f5 v=0
54840 On ch=1 n=c5 v=0
54840 On ch=1 n=g#4 v=0
55080 On ch=1 n=c4 v=110
55200 On ch=1 n=c4 v=0
55200 On ch=1 n=e5 v=100
55200 On ch=1 n=c5 v=100
55200 On ch=1 n=a#4 v=100
55320 On ch=1 n=a#4 v=0
55320 On ch=1 n=c5 v=0
55320 On ch=1 n=e5 v=0
55320 On ch=1 n=a#4 v=100
55320 On ch=1 n=c5 v=100
55320 On ch=1 n=e5 v=100
55440 On ch=1 n=e5 v=0
55440 On ch=1 n=c5 v=0
55440 On ch=1 n=a#4 v=0
55440 On ch=1 n=f4 v=110
55560 On ch=1 n=f4 v=0
55560 On ch=1 n=f5 v=100
55560 On ch=1 n=c5 v=100
55560 On ch=1 n=g#4 v=100
55680 On ch=1 n=g#4 v=0
55680 On ch=1 n=c5 v=0
55680 On ch=1 n=f5 v=0
55680 On ch=1 n=g#4 v=100
55680 On ch=1 n=c5 v=100
55680 On ch=1 n=f5 v=100
55800 On ch=1 n=f5 v=0
55800 On ch=1 n=c5 v=0
55800 On ch=1 n=g#4 v=0
55800 On ch=1 n=c4 v=110
55920 On ch=1 n=c4 v=0
55920 On ch=1 n=e5 v=100
55920 On ch=1 n=c5 v=100
55920 On ch=1 n=a#4 v=100
56040 On ch=1 n=a#4 v=0
56040 On ch=1 n=c5 v=0
56040 On ch=1 n=e5 v=0
56040 On ch=1 n=a#4 v=100
56040 On ch=1 n=c5 v=100
56040 On ch=1 n=e5 v=100
56160 On ch=1 n=e5 v=0
56160 On ch=1 n=c5 v=0
56160 On ch=1 n=a#4 v=0
56160 On ch=1 n=f4 v=110
56280 On ch=1 n=f4 v=0
56280 On ch=1 n=f5 v=100
56280 On ch=1 n=c5 v=100
56280 On ch=1 n=g#4 v=100
56400 On ch=1 n=g#4 v=0
56400 On ch=1 n=c5 v=0
56400 On ch=1 n=f5 v=0
56400 On ch=1 n=g#4 v=100
56400 On ch=1 n=c5 v=100
56400 On ch=1 n=f5 v=100
56520 On ch=1 n=f5 v=0
56520 On ch=1 n=c5 v=0
56520 On ch=1 n=g#4 v=0
56520 On ch=1 n=c4 v=110
56640 On ch=1 n=c4 v=0
56640 On ch=1 n=e5 v=100
56640 On ch=1 n=c5 v=100
56640 On ch=1 n=a#4 v=100
56760 On ch=1 n=a#4 v=0
56760 On ch=1 n=c5 v=0
56760 On ch=1 n=e5 v=0
56760 On ch=1 n=a#4 v=100
56760 On ch=1 n=c5 v=100
56760 On ch=1 n=e5 v=100
56880 On ch=1 n=e5 v=0
56880 On ch=1 n=c5 v=0
56880 On ch=1 n=a#4 v=0
56880 On ch=1 n=f4 v=110
57000 On ch=1 n=f4 v=0
57000 On ch=1 n=f5 v=100
57000 On ch=1 n=c5 v=100
57000 On ch=1 n=g#4 v=100
57120 On ch=1 n=g#4 v=0
57120 On ch=1 n=c5 v=0
57120 On ch=1 n=f5 v=0
57120 On ch=1 n=g#4 v=100
57120 On ch=1 n=c5 v=100
57120 On ch=1 n=f5 v=100
57240 On ch=1 n=f5 v=0
57240 On ch=1 n=c5 v=0
57240 On ch=1 n=g#4 v=0
57240 On ch=1 n=c4 v=110
57360 On ch=1 n=c4 v=0
57360 On ch=1 n=e5 v=100
57360 On ch=1 n=c5 v=100
57360 On ch=1 n=a#4 v=100
57480 On ch=1 n=a#4 v=0
57480 On ch=1 n=c5 v=0
57480 On ch=1 n=e5 v=0
57480 On ch=1 n=a#4 v=100
57480 On ch=1 n=c5 v=100
57480 On ch=1 n=e5 v=100
57600 On ch=1 n=e5 v=0
57600 On ch=1 n=c5 v=0
57600 On ch=1 n=a#4 v=0
57600 On ch=1 n=f4 v=110
57720 On ch=1 n=f4 v=0
57720 On ch=1 n=f5 v=100
57720 On ch=1 n=g#4 v=100
57840 On ch=1 n=g#4 v=0
57840 On ch=1 n=f5 v=0
57960 On ch=1 n=g3 v=90
58080 On ch=1 n=g3 v=0
58080 On ch=1 n=c#5 v=80
58080 On ch=1 n=a#4 v=80
58080 On ch=1 n=d#4 v=80
58200 On ch=1 n=d#4 v=0
58200 On ch=1 n=a#4 v=0
58200 On ch=1 n=c#5 v=0
58200 On ch=1 n=d#4 v=80
58200 On ch=1 n=a#4 v=80
58200 On ch=1 n=c#5 v=80
58320 On ch=1 n=c#5 v=0
58320 On ch=1 n=a#4 v=0
58320 On ch=1 n=d#4 v=0
58320 On ch=1 n=g3 v=90
58440 On ch=1 n=g3 v=0
58440 On ch=1 n=c#5 v=80
58440 On ch=1 n=a#4 v=80
58440 On ch=1 n=d#4 v=80
58560 On ch=1 n=d#4 v=0
58560 On ch=1 n=a#4 v=0
58560 On ch=1 n=c#5 v=0
58560 On ch=1 n=a#4 v=80
58560 On ch=1 n=c#5 v=80
58560 On ch=1 n=d#4 v=80
58680 On ch=1 n=d#4 v=0
58680 On ch=1 n=c#5 v=0
58680 On ch=1 n=a#4 v=0
58680 On ch=1 n=g#3 v=90
58800 On ch=1 n=g#3 v=0
58800 On ch=1 n=c5 v=80
58800 On ch=1 n=g#4 v=80
58800 On ch=1 n=d#4 v=80
58920 On ch=1 n=d#4 v=0
58920 On ch=1 n=g#4 v=0
58920 On ch=1 n=c5 v=0
58920 On ch=1 n=d#4 v=80
58920 On ch=1 n=g#4 v=80
58920 On ch=1 n=c5 v=80
59040 On ch=1 n=c5 v=0
59040 On ch=1 n=g#4 v=0
59040 On ch=1 n=d#4 v=0
59040 On ch=1 n=g#3 v=90
59160 On ch=1 n=g#3 v=0
59160 On ch=1 n=c5 v=80
59160 On ch=1 n=g#4 v=80
59160 On ch=1 n=d#4 v=80
59280 On ch=1 n=d#4 v=0
59280 On ch=1 n=g#4 v=0
59280 On ch=1 n=c5 v=0
59280 On ch=1 n=d#4 v=80
59280 On ch=1 n=g#4 v=80
59280 On ch=1 n=c5 v=80
59400 On ch=1 n=c5 v=0
59400 On ch=1 n=g#4 v=0
59400 On ch=1 n=d#4 v=0
59400 On ch=1 n=d#3 v=90
59520 On ch=1 n=d#3 v=0
59520 On ch=1 n=c#5 v=80
59520 On ch=1 n=a#4 v=80
59520 On ch=1 n=d#4 v=80
59640 On ch=1 n=d#4 v=0
59640 On ch=1 n=a#4 v=0
59640 On ch=1 n=c#5 v=0
59640 On ch=1 n=a#4 v=80
59640 On ch=1 n=c#5 v=80
59640 On ch=1 n=d#4 v=80
59760 On ch=1 n=d#4 v=0
59760 On ch=1 n=c#5 v=0
59760 On ch=1 n=a#4 v=0
59760 On ch=1 n=d#3 v=90
59880 On ch=1 n=d#3 v=0
59880 On ch=1 n=c#5 v=80
59880 On ch=1 n=a#4 v=80
59880 On ch=1 n=d#4 v=80
60000 On ch=1 n=d#4 v=0
60000 On ch=1 n=a#4 v=0
60000 On ch=1 n=c#5 v=0
60000 On ch=1 n=a#4 v=80
60000 On ch=1 n=c#5 v=80
60000 On ch=1 n=d#4 v=80
60120 On ch=1 n=d#4 v=0
60120 On ch=1 n=c#5 v=0
60120 On ch=1 n=a#4 v=0
60120 On ch=1 n=g#3 v=90
60240 On ch=1 n=g#3 v=0
60240 On ch=1 n=c5 v=80
60240 On ch=1 n=g#4 v=80
60240 On ch=1 n=d#4 v=80
60360 On ch=1 n=d#4 v=0
60360 On ch=1 n=g#4 v=0
60360 On ch=1 n=c5 v=0
60360 On ch=1 n=d#4 v=80
60360 On ch=1 n=g#4 v=80
60360 On ch=1 n=c5 v=80
60480 On ch=1 n=c5 v=0
60480 On ch=1 n=g#4 v=0
60480 On ch=1 n=d#4 v=0
60480 On ch=1 n=g#3 v=90
60600 On ch=1 n=g#3 v=0
60600 On ch=1 n=c5 v=80
60600 On ch=1 n=g#4 v=80
60600 On ch=1 n=d#4 v=80
60720 On ch=1 n=d#4 v=0
60720 On ch=1 n=g#4 v=0
60720 On ch=1 n=c5 v=0
60720 On ch=1 n=d#4 v=80
60720 On ch=1 n=g#4 v=80
60720 On ch=1 n=c5 v=80
60840 On ch=1 n=c5 v=0
60840 On ch=1 n=g#4 v=0
60840 On ch=1 n=d#4 v=0
60840 On ch=1 n=g3 v=110
60960 On ch=1 n=g3 v=0
60960 On ch=1 n=c#5 v=100
60960 On ch=1 n=a#4 v=100
60960 On ch=1 n=d#4 v=100
61080 On ch=1 n=d#4 v=0
61080 On ch=1 n=a#4 v=0
61080 On ch=1 n=c#5 v=0
61080 On ch=1 n=d#4 v=100
61080 On ch=1 n=a#4 v=100
61080 On ch=1 n=c#5 v=100
61200 On ch=1 n=c#5 v=0
61200 On ch=1 n=a#4 v=0
61200 On ch=1 n=d#4 v=0
61200 On ch=1 n=g3 v=110
61320 On ch=1 n=g3 v=0
61320 On ch=1 n=c#5 v=100
61320 On ch=1 n=a#4 v=100
61320 On ch=1 n=d#4 v=100
61440 On ch=1 n=d#4 v=0
61440 On ch=1 n=a#4 v=0
61440 On ch=1 n=c#5 v=0
61440 On ch=1 n=a#4 v=100
61440 On ch=1 n=c#5 v=100
61440 On ch=1 n=d#4 v=100
61560 On ch=1 n=d#4 v=0
61560 On ch=1 n=c#5 v=0
61560 On ch=1 n=a#4 v=0
61560 On ch=1 n=g#3 v=110
61680 On ch=1 n=g#3 v=0
61680 On ch=1 n=c5 v=100
61680 On ch=1 n=g#4 v=100
61680 On ch=1 n=d#4 v=100
61800 On ch=1 n=d#4 v=0
61800 On ch=1 n=g#4 v=0
61800 On ch=1 n=c5 v=0
61800 On ch=1 n=d#4 v=100
61800 On ch=1 n=g#4 v=100
61800 On ch=1 n=c5 v=100
61920 On ch=1 n=c5 v=0
61920 On ch=1 n=g#4 v=0
61920 On ch=1 n=d#4 v=0
61920 On ch=1 n=g#3 v=110
62040 On ch=1 n=g#3 v=0
62040 On ch=1 n=c5 v=100
62040 On ch=1 n=g#4 v=100
62040 On ch=1 n=d#4 v=100
62160 On ch=1 n=d#4 v=0
62160 On ch=1 n=g#4 v=0
62160 On ch=1 n=c5 v=0
62160 On ch=1 n=d#4 v=100
62160 On ch=1 n=g#4 v=100
62160 On ch=1 n=c5 v=100
62280 On ch=1 n=c5 v=0
62280 On ch=1 n=g#4 v=0
62280 On ch=1 n=d#4 v=0
62280 On ch=1 n=c#4 v=110
62400 On ch=1 n=c#4 v=0
62400 On ch=1 n=c#5 v=100
62400 On ch=1 n=a#4 v=100
62400 On ch=1 n=f4 v=100
62520 On ch=1 n=f4 v=0
62520 On ch=1 n=a#4 v=0
62520 On ch=1 n=c#5 v=0
62520 On ch=1 n=a#4 v=100
62520 On ch=1 n=c#5 v=100
62520 On ch=1 n=f4 v=100
62640 On ch=1 n=f4 v=0
62640 On ch=1 n=c#5 v=0
62640 On ch=1 n=a#4 v=0
62640 On ch=1 n=c#4 v=110
62760 On ch=1 n=c#4 v=0
62760 On ch=1 n=c#5 v=100
62760 On ch=1 n=a#4 v=100
62760 On ch=1 n=f4 v=100
62880 On ch=1 n=f4 v=0
62880 On ch=1 n=a#4 v=0
62880 On ch=1 n=c#5 v=0
62880 On ch=1 n=a#4 v=100
62880 On ch=1 n=c#5 v=100
62880 On ch=1 n=f4 v=100
63000 On ch=1 n=f4 v=0
63000 On ch=1 n=c#5 v=0
63000 On ch=1 n=a#4 v=0
63000 On ch=1 n=d#3 v=110
63000 On ch=1 n=d#4 v=110
63120 On ch=1 n=d#4 v=0
63120 On ch=1 n=d#3 v=0
63120 On ch=1 n=c#5 v=100
63120 On ch=1 n=a#4 v=100
63120 On ch=1 n=d#4 v=100
63240 On ch=1 n=d#4 v=0
63240 On ch=1 n=a#4 v=0
63240 On ch=1 n=c#5 v=0
63240 On ch=1 n=a#4 v=100
63240 On ch=1 n=c#5 v=100
63240 On ch=1 n=d#4 v=100
63360 On ch=1 n=d#4 v=0
63360 On ch=1 n=c#5 v=0
63360 On ch=1 n=a#4 v=0
63360 On ch=1 n=g#3 v=110
63480 On ch=1 n=g#3 v=0
63480 On ch=1 n=c5 v=100
63480 On ch=1 n=g#4 v=100
63480 On ch=1 n=d#4 v=100
63600 On ch=1 n=d#4 v=0
63600 On ch=1 n=g#4 v=0
63600 On ch=1 n=c5 v=0
63600 Meta TrkEnd
TrkEnd
MTrk
0 Meta 0x21 00
0 Meta TrkName "Pedal"
0 PrCh ch=1 p=0
360 Par ch=1 c=64 v=127
480 Par ch=1 c=64 v=0
720 Par ch=1 c=64 v=127
840 Par ch=1 c=64 v=0
1080 Par ch=1 c=64 v=127
1200 Par ch=1 c=64 v=0
1440 Par ch=1 c=64 v=127
1560 Par ch=1 c=64 v=0
1800 Par ch=1 c=64 v=127
1920 Par ch=1 c=64 v=0
2160 Par ch=1 c=64 v=127
2280 Par ch=1 c=64 v=0
2520 Par ch=1 c=64 v=127
2640 Par ch=1 c=64 v=0
2880 Par ch=1 c=64 v=127
3000 Par ch=1 c=64 v=0
3240 Par ch=1 c=64 v=127
3360 Par ch=1 c=64 v=0
3600 Par ch=1 c=64 v=127
3720 Par ch=1 c=64 v=0
3960 Par ch=1 c=64 v=127
4080 Par ch=1 c=64 v=0
4320 Par ch=1 c=64 v=127
4440 Par ch=1 c=64 v=0
4680 Par ch=1 c=64 v=127
4800 Par ch=1 c=64 v=0
5040 Par ch=1 c=64 v=127
5160 Par ch=1 c=64 v=0
5400 Par ch=1 c=64 v=127
5520 Par ch=1 c=64 v=0
5760 Par ch=1 c=64 v=127
5880 Par ch=1 c=64 v=0
6120 Par ch=1 c=64 v=127
6240 Par ch=1 c=64 v=0
6480 Par ch=1 c=64 v=127
6600 Par ch=1 c=64 v=0
6840 Par ch=1 c=64 v=127
6960 Par ch=1 c=64 v=0
7200 Par ch=1 c=64 v=127
7320 Par ch=1 c=64 v=0
7560 Par ch=1 c=64 v=127
7680 Par ch=1 c=64 v=0
7920 Par ch=1 c=64 v=127
8040 Par ch=1 c=64 v=0
8280 Par ch=1 c=64 v=127
8400 Par ch=1 c=64 v=0
8640 Par ch=1 c=64 v=127
8760 Par ch=1 c=64 v=0
9000 Par ch=1 c=64 v=127
9120 Par ch=1 c=64 v=0
9360 Par ch=1 c=64 v=127
9480 Par ch=1 c=64 v=0
9720 Par ch=1 c=64 v=127
9840 Par ch=1 c=64 v=0
10080 Par ch=1 c=64 v=127
10200 Par ch=1 c=64 v=0
10440 Par ch=1 c=64 v=127
10560 Par ch=1 c=64 v=0
10800 Par ch=1 c=64 v=127
10920 Par ch=1 c=64 v=0
11160 Par ch=1 c=64 v=127
11280 Par ch=1 c=64 v=0
11520 Par ch=1 c=64 v=127
11640 Par ch=1 c=64 v=0
11880 Par ch=1 c=64 v=127
12000 Par ch=1 c=64 v=0
12240 Par ch=1 c=64 v=127
12360 Par ch=1 c=64 v=0
12600 Par ch=1 c=64 v=127
12720 Par ch=1 c=64 v=0
12960 Par ch=1 c=64 v=127
13080 Par ch=1 c=64 v=0
13320 Par ch=1 c=64 v=127
13440 Par ch=1 c=64 v=0
13680 Par ch=1 c=64 v=127
13800 Par ch=1 c=64 v=0
14040 Par ch=1 c=64 v=127
14160 Par ch=1 c=64 v=0
14400 Par ch=1 c=64 v=127
14520 Par ch=1 c=64 v=0
14760 Par ch=1 c=64 v=127
14880 Par ch=1 c=64 v=0
15120 Par ch=1 c=64 v=127
15240 Par ch=1 c=64 v=0
15480 Par ch=1 c=64 v=127
15600 Par ch=1 c=64 v=0
15840 Par ch=1 c=64 v=127
15960 Par ch=1 c=64 v=0
16200 Par ch=1 c=64 v=127
16320 Par ch=1 c=64 v=0
16560 Par ch=1 c=64 v=127
16680 Par ch=1 c=64 v=0
16920 Par ch=1 c=64 v=127
17040 Par ch=1 c=64 v=0
17280 Par ch=1 c=64 v=127
17400 Par ch=1 c=64 v=0
17640 Par ch=1 c=64 v=127
17760 Par ch=1 c=64 v=0
18000 Par ch=1 c=64 v=127
18120 Par ch=1 c=64 v=0
18360 Par ch=1 c=64 v=127
18480 Par ch=1 c=64 v=0
18720 Par ch=1 c=64 v=127
18840 Par ch=1 c=64 v=0
19080 Par ch=1 c=64 v=127
19200 Par ch=1 c=64 v=0
19440 Par ch=1 c=64 v=127
19560 Par ch=1 c=64 v=0
19800 Par ch=1 c=64 v=127
19920 Par ch=1 c=64 v=0
20160 Par ch=1 c=64 v=127
20280 Par ch=1 c=64 v=0
20520 Par ch=1 c=64 v=127
20640 Par ch=1 c=64 v=0
20880 Par ch=1 c=64 v=127
21000 Par ch=1 c=64 v=0
21240 Par ch=1 c=64 v=127
21360 Par ch=1 c=64 v=0
21600 Par ch=1 c=64 v=127
21720 Par ch=1 c=64 v=0
21960 Par ch=1 c=64 v=127
22080 Par ch=1 c=64 v=0
22320 Par ch=1 c=64 v=127
22440 Par ch=1 c=64 v=0
22680 Par ch=1 c=64 v=127
22800 Par ch=1 c=64 v=0
23040 Par ch=1 c=64 v=127
23160 Par ch=1 c=64 v=0
23400 Par ch=1 c=64 v=127
23520 Par ch=1 c=64 v=0
23760 Par ch=1 c=64 v=127
23880 Par ch=1 c=64 v=0
24120 Par ch=1 c=64 v=127
24240 Par ch=1 c=64 v=0
24480 Par ch=1 c=64 v=127
24600 Par ch=1 c=64 v=0
24840 Par ch=1 c=64 v=127
24960 Par ch=1 c=64 v=0
25200 Par ch=1 c=64 v=127
25320 Par ch=1 c=64 v=0
25560 Par ch=1 c=64 v=127
25680 Par ch=1 c=64 v=0
25920 Par ch=1 c=64 v=127
26040 Par ch=1 c=64 v=0
26280 Par ch=1 c=64 v=127
26400 Par ch=1 c=64 v=0
26640 Par ch=1 c=64 v=127
26760 Par ch=1 c=64 v=0
27000 Par ch=1 c=64 v=127
27120 Par ch=1 c=64 v=0
27360 Par ch=1 c=64 v=127
27480 Par ch=1 c=64 v=0
27720 Par ch=1 c=64 v=127
27840 Par ch=1 c=64 v=0
28080 Par ch=1 c=64 v=127
28200 Par ch=1 c=64 v=0
28440 Par ch=1 c=64 v=127
28560 Par ch=1 c=64 v=0
28800 Par ch=1 c=64 v=127
28920 Par ch=1 c=64 v=0
29160 Par ch=1 c=64 v=127
29280 Par ch=1 c=64 v=0
29520 Par ch=1 c=64 v=127
29640 Par ch=1 c=64 v=0
29880 Par ch=1 c=64 v=127
30000 Par ch=1 c=64 v=0
30240 Par ch=1 c=64 v=127
30360 Par ch=1 c=64 v=0
30600 Par ch=1 c=64 v=127
30720 Par ch=1 c=64 v=0
30960 Par ch=1 c=64 v=127
31080 Par ch=1 c=64 v=0
31320 Par ch=1 c=64 v=127
31440 Par ch=1 c=64 v=0
31680 Par ch=1 c=64 v=127
31800 Par ch=1 c=64 v=0
32040 Par ch=1 c=64 v=127
32160 Par ch=1 c=64 v=0
32400 Par ch=1 c=64 v=127
32520 Par ch=1 c=64 v=0
32760 Par ch=1 c=64 v=127
32880 Par ch=1 c=64 v=0
33120 Par ch=1 c=64 v=127
33240 Par ch=1 c=64 v=0
33480 Par ch=1 c=64 v=127
33600 Par ch=1 c=64 v=0
33840 Par ch=1 c=64 v=127
33960 Par ch=1 c=64 v=0
34200 Par ch=1 c=64 v=127
34320 Par ch=1 c=64 v=0
34560 Par ch=1 c=64 v=127
34680 Par ch=1 c=64 v=0
34920 Par ch=1 c=64 v=127
35160 Par ch=1 c=64 v=0
35280 Par ch=1 c=64 v=127
35520 Par ch=1 c=64 v=0
35640 Par ch=1 c=64 v=127
35880 Par ch=1 c=64 v=0
36000 Par ch=1 c=64 v=127
36240 Par ch=1 c=64 v=0
36360 Par ch=1 c=64 v=127
36600 Par ch=1 c=64 v=0
36720 Par ch=1 c=64 v=127
36960 Par ch=1 c=64 v=0
37080 Par ch=1 c=64 v=127
37320 Par ch=1 c=64 v=0
37440 Par ch=1 c=64 v=127
37680 Par ch=1 c=64 v=0
37800 Par ch=1 c=64 v=127
38040 Par ch=1 c=64 v=0
38160 Par ch=1 c=64 v=127
38400 Par ch=1 c=64 v=0
38520 Par ch=1 c=64 v=127
38760 Par ch=1 c=64 v=0
38880 Par ch=1 c=64 v=127
39120 Par ch=1 c=64 v=0
39240 Par ch=1 c=64 v=127
39480 Par ch=1 c=64 v=0
39600 Par ch=1 c=64 v=127
39840 Par ch=1 c=64 v=0
39960 Par ch=1 c=64 v=127
40200 Par ch=1 c=64 v=0
40320 Par ch=1 c=64 v=127
40440 Par ch=1 c=64 v=0
40680 Par ch=1 c=64 v=127
40800 Par ch=1 c=64 v=0
41040 Par ch=1 c=64 v=127
41160 Par ch=1 c=64 v=0
41400 Par ch=1 c=64 v=127
41520 Par ch=1 c=64 v=0
41760 Par ch=1 c=64 v=127
41880 Par ch=1 c=64 v=0
42120 Par ch=1 c=64 v=127
42240 Par ch=1 c=64 v=0
42480 Par ch=1 c=64 v=127
42600 Par ch=1 c=64 v=0
42840 Par ch=1 c=64 v=127
42960 Par ch=1 c=64 v=0
43200 Par ch=1 c=64 v=127
43320 Par ch=1 c=64 v=0
43560 Par ch=1 c=64 v=127
43680 Par ch=1 c=64 v=0
43920 Par ch=1 c=64 v=127
44040 Par ch=1 c=64 v=0
44280 Par ch=1 c=64 v=127
44400 Par ch=1 c=64 v=0
44640 Par ch=1 c=64 v=127
44760 Par ch=1 c=64 v=0
45000 Par ch=1 c=64 v=127
45120 Par ch=1 c=64 v=0
45360 Par ch=1 c=64 v=127
45480 Par ch=1 c=64 v=0
45720 Par ch=1 c=64 v=127
45840 Par ch=1 c=64 v=0
46080 Par ch=1 c=64 v=127
46200 Par ch=1 c=64 v=0
46440 Par ch=1 c=64 v=127
46560 Par ch=1 c=64 v=0
46800 Par ch=1 c=64 v=127
46920 Par ch=1 c=64 v=0
47160 Par ch=1 c=64 v=127
47280 Par ch=1 c=64 v=0
47520 Par ch=1 c=64 v=127
47640 Par ch=1 c=64 v=0
47880 Par ch=1 c=64 v=127
48000 Par ch=1 c=64 v=0
48240 Par ch=1 c=64 v=127
48360 Par ch=1 c=64 v=0
48600 Par ch=1 c=64 v=127
48720 Par ch=1 c=64 v=0
48960 Par ch=1 c=64 v=127
49080 Par ch=1 c=64 v=0
49320 Par ch=1 c=64 v=127
49440 Par ch=1 c=64 v=0
49680 Par ch=1 c=64 v=127
49800 Par ch=1 c=64 v=0
50040 Par ch=1 c=64 v=127
50160 Par ch=1 c=64 v=0
50400 Par ch=1 c=64 v=127
50520 Par ch=1 c=64 v=0
50760 Par ch=1 c=64 v=127
50880 Par ch=1 c=64 v=0
51120 Par ch=1 c=64 v=127
51240 Par ch=1 c=64 v=0
51480 Par ch=1 c=64 v=127
51600 Par ch=1 c=64 v=0
51840 Par ch=1 c=64 v=127
51960 Par ch=1 c=64 v=0
52200 Par ch=1 c=64 v=127
52320 Par ch=1 c=64 v=0
52560 Par ch=1 c=64 v=127
52680 Par ch=1 c=64 v=0
52920 Par ch=1 c=64 v=127
53040 Par ch=1 c=64 v=0
53280 Par ch=1 c=64 v=127
53400 Par ch=1 c=64 v=0
53640 Par ch=1 c=64 v=127
53760 Par ch=1 c=64 v=0
54000 Par ch=1 c=64 v=127
54120 Par ch=1 c=64 v=0
54360 Par ch=1 c=64 v=127
54480 Par ch=1 c=64 v=0
54720 Par ch=1 c=64 v=127
54840 Par ch=1 c=64 v=0
55080 Par ch=1 c=64 v=127
55200 Par ch=1 c=64 v=0
55440 Par ch=1 c=64 v=127
55560 Par ch=1 c=64 v=0
55800 Par ch=1 c=64 v=127
55920 Par ch=1 c=64 v=0
56160 Par ch=1 c=64 v=127
56280 Par ch=1 c=64 v=0
56520 Par ch=1 c=64 v=127
56640 Par ch=1 c=64 v=0
56880 Par ch=1 c=64 v=127
57000 Par ch=1 c=64 v=0
57240 Par ch=1 c=64 v=127
57360 Par ch=1 c=64 v=0
57600 Par ch=1 c=64 v=127
57720 Par ch=1 c=64 v=0
57960 Par ch=1 c=64 v=127
58080 Par ch=1 c=64 v=0
58320 Par ch=1 c=64 v=127
58440 Par ch=1 c=64 v=0
58680 Par ch=1 c=64 v=127
58800 Par ch=1 c=64 v=0
59040 Par ch=1 c=64 v=127
59160 Par ch=1 c=64 v=0
59400 Par ch=1 c=64 v=127
59520 Par ch=1 c=64 v=0
59760 Par ch=1 c=64 v=127
59880 Par ch=1 c=64 v=0
60120 Par ch=1 c=64 v=127
60240 Par ch=1 c=64 v=0
60480 Par ch=1 c=64 v=127
60600 Par ch=1 c=64 v=0
60840 Par ch=1 c=64 v=127
60960 Par ch=1 c=64 v=0
61200 Par ch=1 c=64 v=127
61320 Par ch=1 c=64 v=0
61560 Par ch=1 c=64 v=127
61680 Par ch=1 c=64 v=0
61920 Par ch=1 c=64 v=127
62040 Par ch=1 c=64 v=0
62280 Par ch=1 c=64 v=127
62400 Par ch=1 c=64 v=0
62640 Par ch=1 c=64 v=127
62760 Par ch=1 c=64 v=0
63000 Par ch=1 c=64 v=127
63120 Par ch=1 c=64 v=0
63360 Par ch=1 c=64 v=127
63600 Par ch=1 c=64 v=0
63600 Meta TrkEnd
TrkEnd
MTrk
0 Meta 0x21 00
0 Meta TrkName "F. Chopin Valse No. 16 in Ab Op. posth."
0 Meta TrkEnd
TrkEnd
MTrk
0 Meta 0x21 00
0 Meta TrkName "Jeruen E. Dery jawjaw@hotmail.com"
0 Meta TrkEnd
TrkEnd
