MFile 1 6 120
MTrk
0 Meta SeqName ""
0 TimeSig 3/4 24 8
0 KeySig -4 major
0 Tempo 434783
5520 Tempo 476190
6000 Tempo 434783
11280 Tempo 476190
11760 Tempo 434783
11880 Tempo 416667
17280 Tempo 476190
17640 Tempo 434783
22800 Tempo 476190
23280 Tempo 434783
23400 Tempo 416667
28800 Tempo 476190
29160 Tempo 434783
34320 Tempo 476190
34800 Tempo 434783
43200 TimeSig 5/4 24 8
43800 TimeSig 3/4 24 8
49200 TimeSig 5/4 24 8
49800 TimeSig 3/4 24 8
57840 Tempo 476190
57840 Meta TrkEnd
TrkEnd
MTrk
0 Meta 0x21 00
0 Meta TrkName "Upper Treble"
0 PrCh ch=1 p=0
240 On ch=1 n=d#6 v=60
300 On ch=1 n=d#6 v=0
300 On ch=1 n=d6 v=60
360 On ch=1 n=d6 v=0
360 On ch=1 n=c#6 v=60
400 On ch=1 n=c#6 v=0
400 On ch=1 n=d#6 v=60
440 On ch=1 n=d#6 v=0
440 On ch=1 n=c#6 v=60
480 On ch=1 n=c#6 v=0
480 On ch=1 n=c6 v=60
540 On ch=1 n=c6 v=0
540 On ch=1 n=c#6 v=60
600 On ch=1 n=c#6 v=0
600 On ch=1 n=f6 v=60
660 On ch=1 n=f6 v=0
660 On ch=1 n=d#6 v=60
720 On ch=1 n=d#6 v=0
720 On ch=1 n=c#6 v=60
960 On ch=1 n=c#6 v=0
960 On ch=1 n=c6 v=60
1080 On ch=1 n=c6 v=0
1200 On ch=1 n=a5 v=60
1260 On ch=1 n=a5 v=0
1260 On ch=1 n=a#5 v=60
1320 On ch=1 n=a#5 v=0
1320 On ch=1 n=c6 v=60
1360 On ch=1 n=c6 v=0
1360 On ch=1 n=d#6 v=60
1400 On ch=1 n=d#6 v=0
1400 On ch=1 n=c#6 v=60
1440 On ch=1 n=c#6 v=0
1440 On ch=1 n=c6 v=60
1680 On ch=1 n=c6 v=0
1680 On ch=1 n=a#5 v=60
1800 On ch=1 n=a#5 v=0
1800 On ch=1 n=a#5 v=60
1980 On ch=1 n=a#5 v=0
1980 On ch=1 n=g#5 v=70
2040 On ch=1 n=g#5 v=0
2040 On ch=1 n=g#5 v=74
2080 On ch=1 n=g#5 v=0
2080 On ch=1 n=g5 v=76
2120 On ch=1 n=g5 v=0
2120 On ch=1 n=f5 v=78
2160 On ch=1 n=f5 v=0
2160 On ch=1 n=f5 v=81
2400 On ch=1 n=f5 v=0
2400 On ch=1 n=d#5 v=95
2520 On ch=1 n=d#5 v=0
2625 On ch=1 n=d#5 v=94
2640 On ch=1 n=d#5 v=0
2640 On ch=1 n=g6 v=93
2700 On ch=1 n=g6 v=0
2700 On ch=1 n=f6 v=90
2760 On ch=1 n=f6 v=0
2760 On ch=1 n=d#6 v=86
2820 On ch=1 n=d#6 v=0
2820 On ch=1 n=c#6 v=83
2880 On ch=1 n=c#6 v=0
2880 On ch=1 n=b5 v=79
3120 On ch=1 n=b5 v=0
3120 On ch=1 n=c6 v=65
3300 On ch=1 n=c6 v=0
3300 On ch=1 n=c#6 v=60
3360 On ch=1 n=c#6 v=0
3360 On ch=1 n=a#6 v=60
3420 On ch=1 n=a#6 v=0
3420 On ch=1 n=g#6 v=60
3480 On ch=1 n=g#6 v=0
3480 On ch=1 n=f6 v=60
3540 On ch=1 n=f6 v=0
3540 On ch=1 n=c#6 v=60
3600 On ch=1 n=c#6 v=0
3600 On ch=1 n=c#6 v=60
3840 On ch=1 n=c#6 v=0
3840 On ch=1 n=c6 v=60
3960 On ch=1 n=c6 v=0
3960 On ch=1 n=a5 v=60
3984 On ch=1 n=a5 v=0
3984 On ch=1 n=a#5 v=60
4008 On ch=1 n=a#5 v=0
4008 On ch=1 n=a5 v=60
4032 On ch=1 n=a5 v=0
4032 On ch=1 n=g#5 v=60
4056 On ch=1 n=g#5 v=0
4056 On ch=1 n=a5 v=60
4080 On ch=1 n=a5 v=0
4080 On ch=1 n=c6 v=60
4120 On ch=1 n=c6 v=0
4120 On ch=1 n=d#6 v=60
4160 On ch=1 n=d#6 v=0
4160 On ch=1 n=f6 v=60
4200 On ch=1 n=f6 v=0
4200 On ch=1 n=f#6 v=60
4260 On ch=1 n=f#6 v=0
4290 On ch=1 n=a5 v=60
4305 On ch=1 n=a5 v=60
4320 On ch=1 n=a5 v=0
4320 On ch=1 n=a5 v=0
4320 On ch=1 n=c6 v=60
4560 On ch=1 n=c6 v=0
4560 On ch=1 n=a#5 v=60
4680 On ch=1 n=a#5 v=0
4680 On ch=1 n=a#5 v=60
4860 On ch=1 n=a#5 v=0
4860 On ch=1 n=g#5 v=60
4920 On ch=1 n=g#5 v=0
4920 On ch=1 n=g#5 v=60
4960 On ch=1 n=g#5 v=0
4960 On ch=1 n=g5 v=60
5000 On ch=1 n=g5 v=0
5000 On ch=1 n=f5 v=60
5040 On ch=1 n=f5 v=0
5040 On ch=1 n=f5 v=60
5280 On ch=1 n=f5 v=0
5280 On ch=1 n=d#5 v=60
5400 On ch=1 n=d#5 v=0
5400 On ch=1 n=d#5 v=60
5440 On ch=1 n=d#5 v=0
5440 On ch=1 n=f5 v=60
5480 On ch=1 n=f5 v=0
5480 On ch=1 n=d#5 v=60
5520 On ch=1 n=d#5 v=0
5520 On ch=1 n=d5 v=60
5580 On ch=1 n=d5 v=0
5580 On ch=1 n=d#5 v=60
5640 On ch=1 n=d#5 v=0
5640 On ch=1 n=f5 v=60
5640 On ch=1 n=c#6 v=60
5700 On ch=1 n=c#6 v=0
5700 On ch=1 n=f5 v=0
5700 On ch=1 n=g5 v=60
5700 On ch=1 n=c6 v=60
5760 On ch=1 n=c6 v=0
5760 On ch=1 n=g5 v=0
5760 On ch=1 n=g#5 v=60
6000 On ch=1 n=g#5 v=0
6000 On ch=1 n=d#6 v=60
6060 On ch=1 n=d#6 v=0
6060 On ch=1 n=d6 v=60
6120 On ch=1 n=d6 v=0
6120 On ch=1 n=c#6 v=60
6160 On ch=1 n=c#6 v=0
6160 On ch=1 n=d#6 v=60
6200 On ch=1 n=d#6 v=0
6200 On ch=1 n=c#6 v=60
6240 On ch=1 n=c#6 v=0
6240 On ch=1 n=c6 v=60
6300 On ch=1 n=c6 v=0
6300 On ch=1 n=c#6 v=60
6360 On ch=1 n=c#6 v=0
6360 On ch=1 n=f6 v=60
6420 On ch=1 n=f6 v=0
6420 On ch=1 n=d#6 v=60
6480 On ch=1 n=d#6 v=0
6480 On ch=1 n=c#6 v=60
6720 On ch=1 n=c#6 v=0
6720 On ch=1 n=c6 v=60
6840 On ch=1 n=c6 v=0
6960 On ch=1 n=a5 v=60
7020 On ch=1 n=a5 v=0
7020 On ch=1 n=a#5 v=60
7080 On ch=1 n=a#5 v=0
7080 On ch=1 n=c6 v=60
7125 On ch=1 n=d#6 v=60
7140 On ch=1 n=d#6 v=0
7140 On ch=1 n=c6 v=0
7140 On ch=1 n=c#6 v=60
7200 On ch=1 n=c#6 v=0
7200 On ch=1 n=c6 v=60
7440 On ch=1 n=c6 v=0
7440 On ch=1 n=a#5 v=60
7560 On ch=1 n=a#5 v=0
7560 On ch=1 n=a#5 v=60
7740 On ch=1 n=a#5 v=0
7740 On ch=1 n=g#5 v=70
7800 On ch=1 n=g#5 v=0
7800 On ch=1 n=g#5 v=74
7840 On ch=1 n=g#5 v=0
7840 On ch=1 n=g5 v=76
7880 On ch=1 n=g5 v=0
7880 On ch=1 n=f5 v=78
7920 On ch=1 n=f5 v=0
7920 On ch=1 n=f5 v=81
8160 On ch=1 n=f5 v=0
8160 On ch=1 n=d#5 v=95
8280 On ch=1 n=d#5 v=0
8385 On ch=1 n=d#5 v=94
8400 On ch=1 n=d#5 v=0
8400 On ch=1 n=g6 v=93
8460 On ch=1 n=g6 v=0
8460 On ch=1 n=f6 v=90
8520 On ch=1 n=f6 v=0
8520 On ch=1 n=d#6 v=86
8580 On ch=1 n=d#6 v=0
8580 On ch=1 n=c#6 v=83
8640 On ch=1 n=c#6 v=0
8640 On ch=1 n=b5 v=79
8880 On ch=1 n=b5 v=0
8880 On ch=1 n=c6 v=65
9060 On ch=1 n=c6 v=0
9060 On ch=1 n=c#6 v=60
9105 On ch=1 n=c#6 v=60
9120 On ch=1 n=c#6 v=0
9120 On ch=1 n=c#6 v=0
9120 On ch=1 n=a#6 v=60
9180 On ch=1 n=a#6 v=0
9180 On ch=1 n=g#6 v=60
9240 On ch=1 n=g#6 v=0
9240 On ch=1 n=f6 v=60
9300 On ch=1 n=f6 v=0
9300 On ch=1 n=c#6 v=60
9360 On ch=1 n=c#6 v=0
9360 On ch=1 n=c#6 v=60
9600 On ch=1 n=c#6 v=0
9600 On ch=1 n=c6 v=60
9720 On ch=1 n=c6 v=0
9720 On ch=1 n=a5 v=60
9736 On ch=1 n=a#5 v=63
9739 On ch=1 n=a5 v=0
9755 On ch=1 n=a#5 v=0
9755 On ch=1 n=a5 v=68
9773 On ch=1 n=g#5 v=73
9774 On ch=1 n=a5 v=0
9792 On ch=1 n=g#5 v=0
9792 On ch=1 n=a5 v=77
9811 On ch=1 n=a5 v=0
9812 On ch=1 n=a#5 v=82
9829 On ch=1 n=b5 v=87
9831 On ch=1 n=a#5 v=0
9848 On ch=1 n=b5 v=0
9848 On ch=1 n=c6 v=91
9866 On ch=1 n=c#6 v=96
9867 On ch=1 n=c6 v=0
9885 On ch=1 n=c#6 v=0
9885 On ch=1 n=d6 v=101
9904 On ch=1 n=d6 v=0
9905 On ch=1 n=d#6 v=106
9922 On ch=1 n=e6 v=110
9924 On ch=1 n=d#6 v=0
9941 On ch=1 n=e6 v=0
9941 On ch=1 n=f6 v=110
9960 On ch=1 n=f6 v=0
9960 On ch=1 n=f#6 v=110
10020 On ch=1 n=f#6 v=0
10050 On ch=1 n=a5 v=107
10065 On ch=1 n=a5 v=106
10080 On ch=1 n=a5 v=0
10080 On ch=1 n=a5 v=0
10080 On ch=1 n=c6 v=105
10320 On ch=1 n=c6 v=0
10320 On ch=1 n=a#5 v=95
10440 On ch=1 n=a#5 v=0
10440 On ch=1 n=a#5 v=90
10620 On ch=1 n=a#5 v=0
10620 On ch=1 n=g#5 v=82
10680 On ch=1 n=g#5 v=0
10680 On ch=1 n=g#5 v=79
10720 On ch=1 n=g#5 v=0
10720 On ch=1 n=g5 v=77
10760 On ch=1 n=g5 v=0
10760 On ch=1 n=f5 v=76
10800 On ch=1 n=f5 v=0
10800 On ch=1 n=f5 v=74
11040 On ch=1 n=f5 v=0
11040 On ch=1 n=d#5 v=64
11160 On ch=1 n=d#5 v=0
11160 On ch=1 n=d#5 v=60
11200 On ch=1 n=d#5 v=0
11200 On ch=1 n=f5 v=60
11240 On ch=1 n=f5 v=0
11240 On ch=1 n=d#5 v=60
11280 On ch=1 n=d#5 v=0
11280 On ch=1 n=d5 v=60
11340 On ch=1 n=d5 v=0
11340 On ch=1 n=d#5 v=60
11400 On ch=1 n=d#5 v=0
11400 On ch=1 n=f5 v=60
11400 On ch=1 n=c#6 v=60
11460 On ch=1 n=c#6 v=0
11460 On ch=1 n=f5 v=0
11460 On ch=1 n=g5 v=60
11460 On ch=1 n=c6 v=60
11520 On ch=1 n=c6 v=0
11520 On ch=1 n=g5 v=0
11520 On ch=1 n=g#5 v=60
11760 On ch=1 n=g#5 v=0
11760 On ch=1 n=c6 v=60
11820 On ch=1 n=c6 v=0
11820 On ch=1 n=b5 v=60
11880 On ch=1 n=b5 v=0
11880 On ch=1 n=a#5 v=80
11920 On ch=1 n=a#5 v=0
11920 On ch=1 n=c6 v=80
11960 On ch=1 n=c6 v=0
11960 On ch=1 n=a#5 v=80
12000 On ch=1 n=a#5 v=0
12000 On ch=1 n=a5 v=80
12060 On ch=1 n=a5 v=0
12060 On ch=1 n=a#5 v=80
12120 On ch=1 n=a#5 v=0
12120 On ch=1 n=a#5 v=80
12180 On ch=1 n=a#5 v=0
12180 On ch=1 n=a#6 v=80
12240 On ch=1 n=a#6 v=0
12240 On ch=1 n=c7 v=80
12330 On ch=1 n=c7 v=0
12330 On ch=1 n=a#6 v=80
12360 On ch=1 n=a#6 v=0
12360 On ch=1 n=g6 v=80
12420 On ch=1 n=g6 v=0
12420 On ch=1 n=d#6 v=80
12480 On ch=1 n=d#6 v=0
12480 On ch=1 n=a#5 v=80
12600 On ch=1 n=a#5 v=0
12600 On ch=1 n=a#5 v=80
12640 On ch=1 n=a#5 v=0
12640 On ch=1 n=c6 v=80
12680 On ch=1 n=c6 v=0
12680 On ch=1 n=a#5 v=80
12720 On ch=1 n=a#5 v=0
12720 On ch=1 n=a5 v=80
12780 On ch=1 n=a5 v=0
12780 On ch=1 n=a#5 v=80
12840 On ch=1 n=a#5 v=0
12840 On ch=1 n=a#5 v=80
12900 On ch=1 n=a#5 v=0
12900 On ch=1 n=a#6 v=80
12960 On ch=1 n=a#6 v=0
12960 On ch=1 n=c7 v=80
13050 On ch=1 n=c7 v=0
13050 On ch=1 n=a#6 v=80
13080 On ch=1 n=a#6 v=0
13080 On ch=1 n=g6 v=80
13140 On ch=1 n=g6 v=0
13140 On ch=1 n=d#6 v=80
13200 On ch=1 n=d#6 v=0
13200 On ch=1 n=a#5 v=80
13320 On ch=1 n=a#5 v=0
13320 On ch=1 n=a#5 v=80
13360 On ch=1 n=a#5 v=0
13360 On ch=1 n=c6 v=80
13400 On ch=1 n=c6 v=0
13400 On ch=1 n=a#5 v=80
13440 On ch=1 n=a#5 v=0
13440 On ch=1 n=a5 v=80
13500 On ch=1 n=a5 v=0
13500 On ch=1 n=a#5 v=80
13560 On ch=1 n=a#5 v=0
13560 On ch=1 n=a#5 v=80
13620 On ch=1 n=a#5 v=0
13620 On ch=1 n=a#6 v=80
13680 On ch=1 n=a#6 v=0
13680 On ch=1 n=c7 v=80
13770 On ch=1 n=c7 v=0
13770 On ch=1 n=a#6 v=80
13800 On ch=1 n=a#6 v=0
13800 On ch=1 n=g6 v=80
13860 On ch=1 n=g6 v=0
13860 On ch=1 n=d#6 v=80
13920 On ch=1 n=d#6 v=0
13920 On ch=1 n=a#5 v=80
14040 On ch=1 n=a#5 v=0
14040 On ch=1 n=a#5 v=80
14080 On ch=1 n=a#5 v=0
14080 On ch=1 n=c6 v=80
14120 On ch=1 n=c6 v=0
14120 On ch=1 n=a#5 v=80
14160 On ch=1 n=a#5 v=0
14160 On ch=1 n=a5 v=80
14220 On ch=1 n=a5 v=0
14220 On ch=1 n=a#5 v=80
14280 On ch=1 n=a#5 v=0
14280 On ch=1 n=g#6 v=80
14340 On ch=1 n=g#6 v=0
14340 On ch=1 n=g6 v=80
14400 On ch=1 n=g6 v=0
14400 On ch=1 n=f6 v=80
14580 On ch=1 n=f6 v=0
14580 On ch=1 n=d#6 v=70
14640 On ch=1 n=d#6 v=0
14640 On ch=1 n=g5 v=66
14700 On ch=1 n=g5 v=0
14700 On ch=1 n=g#5 v=63
14760 On ch=1 n=g#5 v=0
14760 On ch=1 n=a#5 v=60
14800 On ch=1 n=a#5 v=0
14800 On ch=1 n=c6 v=60
14840 On ch=1 n=c6 v=0
14840 On ch=1 n=a#5 v=60
14880 On ch=1 n=a#5 v=0
14880 On ch=1 n=a5 v=60
14940 On ch=1 n=a5 v=0
14940 On ch=1 n=a#5 v=60
15000 On ch=1 n=a#5 v=0
15000 On ch=1 n=a#5 v=60
15030 On ch=1 n=a#5 v=0
15030 On ch=1 n=a#6 v=60
15120 On ch=1 n=a#6 v=0
15120 On ch=1 n=c7 v=60
15180 On ch=1 n=c7 v=0
15210 On ch=1 n=a#6 v=60
15240 On ch=1 n=a#6 v=0
15240 On ch=1 n=g6 v=60
15300 On ch=1 n=g6 v=0
15300 On ch=1 n=d#6 v=60
15360 On ch=1 n=d#6 v=0
15360 On ch=1 n=a#5 v=60
15480 On ch=1 n=a#5 v=0
15480 On ch=1 n=a#5 v=60
15520 On ch=1 n=a#5 v=0
15520 On ch=1 n=c6 v=60
15560 On ch=1 n=c6 v=0
15560 On ch=1 n=a#5 v=60
15600 On ch=1 n=a#5 v=0
15600 On ch=1 n=a5 v=60
15660 On ch=1 n=a5 v=0
15660 On ch=1 n=a#5 v=60
15720 On ch=1 n=a#5 v=0
15720 On ch=1 n=a#5 v=60
15750 On ch=1 n=a#5 v=0
15750 On ch=1 n=a#6 v=60
15840 On ch=1 n=a#6 v=0
15840 On ch=1 n=c7 v=60
15900 On ch=1 n=c7 v=0
15930 On ch=1 n=a#6 v=60
15960 On ch=1 n=a#6 v=0
15960 On ch=1 n=g6 v=60
16020 On ch=1 n=g6 v=0
16020 On ch=1 n=d#6 v=60
16080 On ch=1 n=d#6 v=0
16080 On ch=1 n=a#5 v=60
16200 On ch=1 n=a#5 v=0
16200 On ch=1 n=a#5 v=60
16240 On ch=1 n=a#5 v=0
16240 On ch=1 n=c6 v=60
16280 On ch=1 n=c6 v=0
16280 On ch=1 n=a#5 v=60
16320 On ch=1 n=a#5 v=0
16320 On ch=1 n=a5 v=60
16380 On ch=1 n=a5 v=0
16380 On ch=1 n=a#5 v=60
16440 On ch=1 n=a#5 v=0
16440 On ch=1 n=a#5 v=60
16470 On ch=1 n=a#5 v=0
16470 On ch=1 n=a#6 v=60
16560 On ch=1 n=a#6 v=0
16560 On ch=1 n=c7 v=60
16620 On ch=1 n=c7 v=0
16650 On ch=1 n=a#6 v=60
16680 On ch=1 n=a#6 v=0
16680 On ch=1 n=g6 v=60
16740 On ch=1 n=g6 v=0
16740 On ch=1 n=d#6 v=60
16800 On ch=1 n=d#6 v=0
16800 On ch=1 n=a#5 v=60
16920 On ch=1 n=a#5 v=0
16920 On ch=1 n=a#5 v=60
16960 On ch=1 n=a#5 v=0
16960 On ch=1 n=c6 v=60
17000 On ch=1 n=c6 v=0
17000 On ch=1 n=a#5 v=60
17040 On ch=1 n=a#5 v=0
17040 On ch=1 n=a5 v=60
17100 On ch=1 n=a5 v=0
17100 On ch=1 n=a#5 v=60
17160 On ch=1 n=a#5 v=0
17160 On ch=1 n=g#6 v=60
17220 On ch=1 n=g#6 v=0
17220 On ch=1 n=g6 v=60
17280 On ch=1 n=g6 v=0
17280 On ch=1 n=f6 v=60
17460 On ch=1 n=f6 v=0
17460 On ch=1 n=e6 v=82
17520 On ch=1 n=e6 v=0
17520 On ch=1 n=d#6 v=89
17580 On ch=1 n=d#6 v=0
17580 On ch=1 n=d6 v=97
17640 On ch=1 n=d6 v=0
17640 On ch=1 n=c#6 v=100
17680 On ch=1 n=c#6 v=0
17680 On ch=1 n=d#6 v=98
17720 On ch=1 n=d#6 v=0
17720 On ch=1 n=c#6 v=96
17760 On ch=1 n=c#6 v=0
17760 On ch=1 n=c6 v=93
17820 On ch=1 n=c6 v=0
17820 On ch=1 n=c#6 v=90
17880 On ch=1 n=c#6 v=0
17880 On ch=1 n=f6 v=86
17940 On ch=1 n=f6 v=0
17940 On ch=1 n=d#6 v=83
18000 On ch=1 n=d#6 v=0
18000 On ch=1 n=c#6 v=79
18240 On ch=1 n=c#6 v=0
18240 On ch=1 n=c6 v=65
18360 On ch=1 n=c6 v=0
18480 On ch=1 n=a5 v=60
18540 On ch=1 n=a5 v=0
18540 On ch=1 n=a#5 v=60
18600 On ch=1 n=a#5 v=0
18600 On ch=1 n=c6 v=60
18645 On ch=1 n=d#6 v=60
18660 On ch=1 n=d#6 v=0
18660 On ch=1 n=c6 v=0
18660 On ch=1 n=c#6 v=60
18720 On ch=1 n=c#6 v=0
18720 On ch=1 n=c6 v=60
18960 On ch=1 n=c6 v=0
18960 On ch=1 n=a#5 v=60
19080 On ch=1 n=a#5 v=0
19080 On ch=1 n=a#5 v=60
19260 On ch=1 n=a#5 v=0
19260 On ch=1 n=g#5 v=70
19320 On ch=1 n=g#5 v=0
19320 On ch=1 n=g#5 v=74
19360 On ch=1 n=g#5 v=0
19360 On ch=1 n=g5 v=76
19400 On ch=1 n=g5 v=0
19400 On ch=1 n=f5 v=78
19440 On ch=1 n=f5 v=0
19440 On ch=1 n=f5 v=81
19680 On ch=1 n=f5 v=0
19680 On ch=1 n=d#5 v=95
19800 On ch=1 n=d#5 v=0
19905 On ch=1 n=d#5 v=94
19920 On ch=1 n=d#5 v=0
19920 On ch=1 n=g6 v=93
19980 On ch=1 n=g6 v=0
19980 On ch=1 n=f6 v=90
20040 On ch=1 n=f6 v=0
20040 On ch=1 n=d#6 v=86
20100 On ch=1 n=d#6 v=0
20100 On ch=1 n=c#6 v=83
20160 On ch=1 n=c#6 v=0
20160 On ch=1 n=b5 v=79
20400 On ch=1 n=b5 v=0
20400 On ch=1 n=c6 v=65
20580 On ch=1 n=c6 v=0
20580 On ch=1 n=c#6 v=60
20625 On ch=1 n=c#6 v=60
20640 On ch=1 n=c#6 v=0
20640 On ch=1 n=c#6 v=0
20640 On ch=1 n=a#6 v=60
20700 On ch=1 n=a#6 v=0
20700 On ch=1 n=g#6 v=60
20760 On ch=1 n=g#6 v=0
20760 On ch=1 n=f6 v=60
20820 On ch=1 n=f6 v=0
20820 On ch=1 n=c#6 v=60
20880 On ch=1 n=c#6 v=0
20880 On ch=1 n=c#6 v=60
21120 On ch=1 n=c#6 v=0
21120 On ch=1 n=c6 v=60
21240 On ch=1 n=c6 v=0
21240 On ch=1 n=a5 v=60
21256 On ch=1 n=a#5 v=63
21259 On ch=1 n=a5 v=0
21275 On ch=1 n=a#5 v=0
21275 On ch=1 n=a5 v=68
21293 On ch=1 n=g#5 v=73
21294 On ch=1 n=a5 v=0
21312 On ch=1 n=g#5 v=0
21312 On ch=1 n=a5 v=77
21331 On ch=1 n=a5 v=0
21332 On ch=1 n=a#5 v=82
21349 On ch=1 n=b5 v=87
21351 On ch=1 n=a#5 v=0
21368 On ch=1 n=b5 v=0
21368 On ch=1 n=c6 v=91
21386 On ch=1 n=c#6 v=96
21387 On ch=1 n=c6 v=0
21405 On ch=1 n=c#6 v=0
21405 On ch=1 n=d6 v=101
21424 On ch=1 n=d6 v=0
21425 On ch=1 n=d#6 v=106
21442 On ch=1 n=e6 v=110
21444 On ch=1 n=d#6 v=0
21461 On ch=1 n=e6 v=0
21461 On ch=1 n=f6 v=110
21480 On ch=1 n=f6 v=0
21480 On ch=1 n=f#6 v=110
21540 On ch=1 n=f#6 v=0
21570 On ch=1 n=a5 v=107
21585 On ch=1 n=a5 v=106
21600 On ch=1 n=a5 v=0
21600 On ch=1 n=a5 v=0
21600 On ch=1 n=c6 v=105
21840 On ch=1 n=c6 v=0
21840 On ch=1 n=a#5 v=95
21960 On ch=1 n=a#5 v=0
21960 On ch=1 n=a#5 v=90
22140 On ch=1 n=a#5 v=0
22140 On ch=1 n=g#5 v=82
22200 On ch=1 n=g#5 v=0
22200 On ch=1 n=g#5 v=79
22240 On ch=1 n=g#5 v=0
22240 On ch=1 n=g5 v=77
22280 On ch=1 n=g5 v=0
22280 On ch=1 n=f5 v=76
22320 On ch=1 n=f5 v=0
22320 On ch=1 n=f5 v=74
22560 On ch=1 n=f5 v=0
22560 On ch=1 n=d#5 v=64
22680 On ch=1 n=d#5 v=0
22680 On ch=1 n=d#5 v=60
22720 On ch=1 n=d#5 v=0
22720 On ch=1 n=f5 v=60
22760 On ch=1 n=f5 v=0
22760 On ch=1 n=d#5 v=60
22800 On ch=1 n=d#5 v=0
22800 On ch=1 n=d5 v=60
22860 On ch=1 n=d5 v=0
22860 On ch=1 n=d#5 v=60
22920 On ch=1 n=d#5 v=0
22920 On ch=1 n=f5 v=60
22920 On ch=1 n=c#6 v=60
22980 On ch=1 n=c#6 v=0
22980 On ch=1 n=f5 v=0
22980 On ch=1 n=g5 v=60
22980 On ch=1 n=c6 v=60
23040 On ch=1 n=c6 v=0
23040 On ch=1 n=g5 v=0
23040 On ch=1 n=g#5 v=60
23280 On ch=1 n=g#5 v=0
23280 On ch=1 n=c6 v=60
23340 On ch=1 n=c6 v=0
23340 On ch=1 n=b5 v=60
23400 On ch=1 n=b5 v=0
23400 On ch=1 n=a#5 v=80
23440 On ch=1 n=a#5 v=0
23440 On ch=1 n=c6 v=80
23480 On ch=1 n=c6 v=0
23480 On ch=1 n=a#5 v=80
23520 On ch=1 n=a#5 v=0
23520 On ch=1 n=a5 v=80
23580 On ch=1 n=a5 v=0
23580 On ch=1 n=a#5 v=80
23640 On ch=1 n=a#5 v=0
23640 On ch=1 n=a#5 v=80
23700 On ch=1 n=a#5 v=0
23700 On ch=1 n=a#6 v=80
23760 On ch=1 n=a#6 v=0
23760 On ch=1 n=c7 v=80
23850 On ch=1 n=c7 v=0
23850 On ch=1 n=a#6 v=80
23880 On ch=1 n=a#6 v=0
23880 On ch=1 n=g6 v=80
23940 On ch=1 n=g6 v=0
23940 On ch=1 n=d#6 v=80
24000 On ch=1 n=d#6 v=0
24000 On ch=1 n=a#5 v=80
24120 On ch=1 n=a#5 v=0
24120 On ch=1 n=a#5 v=80
24160 On ch=1 n=a#5 v=0
24160 On ch=1 n=c6 v=80
24200 On ch=1 n=c6 v=0
24200 On ch=1 n=a#5 v=80
24240 On ch=1 n=a#5 v=0
24240 On ch=1 n=a5 v=80
24300 On ch=1 n=a5 v=0
24300 On ch=1 n=a#5 v=80
24360 On ch=1 n=a#5 v=0
24360 On ch=1 n=a#5 v=80
24420 On ch=1 n=a#5 v=0
24420 On ch=1 n=a#6 v=80
24480 On ch=1 n=a#6 v=0
24480 On ch=1 n=c7 v=80
24570 On ch=1 n=c7 v=0
24570 On ch=1 n=a#6 v=80
24600 On ch=1 n=a#6 v=0
24600 On ch=1 n=g6 v=80
24660 On ch=1 n=g6 v=0
24660 On ch=1 n=d#6 v=80
24720 On ch=1 n=d#6 v=0
24720 On ch=1 n=a#5 v=80
24840 On ch=1 n=a#5 v=0
24840 On ch=1 n=a#5 v=80
24880 On ch=1 n=a#5 v=0
24880 On ch=1 n=c6 v=80
24920 On ch=1 n=c6 v=0
24920 On ch=1 n=a#5 v=80
24960 On ch=1 n=a#5 v=0
24960 On ch=1 n=a5 v=80
25020 On ch=1 n=a5 v=0
25020 On ch=1 n=a#5 v=80
25080 On ch=1 n=a#5 v=0
25080 On ch=1 n=a#5 v=80
25140 On ch=1 n=a#5 v=0
25140 On ch=1 n=a#6 v=80
25200 On ch=1 n=a#6 v=0
25200 On ch=1 n=c7 v=80
25290 On ch=1 n=c7 v=0
25290 On ch=1 n=a#6 v=80
25320 On ch=1 n=a#6 v=0
25320 On ch=1 n=g6 v=80
25380 On ch=1 n=g6 v=0
25380 On ch=1 n=d#6 v=80
25440 On ch=1 n=d#6 v=0
25440 On ch=1 n=a#5 v=80
25560 On ch=1 n=a#5 v=0
25560 On ch=1 n=a#5 v=80
25600 On ch=1 n=a#5 v=0
25600 On ch=1 n=c6 v=80
25640 On ch=1 n=c6 v=0
25640 On ch=1 n=a#5 v=80
25680 On ch=1 n=a#5 v=0
25680 On ch=1 n=a5 v=80
25740 On ch=1 n=a5 v=0
25740 On ch=1 n=a#5 v=80
25800 On ch=1 n=a#5 v=0
25800 On ch=1 n=g#6 v=80
25860 On ch=1 n=g#6 v=0
25860 On ch=1 n=g6 v=80
25920 On ch=1 n=g6 v=0
25920 On ch=1 n=f6 v=80
26100 On ch=1 n=f6 v=0
26100 On ch=1 n=d#6 v=70
26160 On ch=1 n=d#6 v=0
26160 On ch=1 n=g5 v=66
26220 On ch=1 n=g5 v=0
26220 On ch=1 n=g#5 v=63
26280 On ch=1 n=g#5 v=0
26280 On ch=1 n=a#5 v=60
26320 On ch=1 n=a#5 v=0
26320 On ch=1 n=c6 v=60
26360 On ch=1 n=c6 v=0
26360 On ch=1 n=a#5 v=60
26400 On ch=1 n=a#5 v=0
26400 On ch=1 n=a5 v=60
26460 On ch=1 n=a5 v=0
26460 On ch=1 n=a#5 v=60
26520 On ch=1 n=a#5 v=0
26520 On ch=1 n=a#5 v=60
26550 On ch=1 n=a#5 v=0
26550 On ch=1 n=a#6 v=60
26640 On ch=1 n=a#6 v=0
26640 On ch=1 n=c7 v=60
26700 On ch=1 n=c7 v=0
26730 On ch=1 n=a#6 v=60
26760 On ch=1 n=a#6 v=0
26760 On ch=1 n=g6 v=60
26820 On ch=1 n=g6 v=0
26820 On ch=1 n=d#6 v=60
26880 On ch=1 n=d#6 v=0
26880 On ch=1 n=a#5 v=60
27000 On ch=1 n=a#5 v=0
27000 On ch=1 n=a#5 v=60
27040 On ch=1 n=a#5 v=0
27040 On ch=1 n=c6 v=60
27080 On ch=1 n=c6 v=0
27080 On ch=1 n=a#5 v=60
27120 On ch=1 n=a#5 v=0
27120 On ch=1 n=a5 v=60
27180 On ch=1 n=a5 v=0
27180 On ch=1 n=a#5 v=60
27240 On ch=1 n=a#5 v=0
27240 On ch=1 n=a#5 v=60
27270 On ch=1 n=a#5 v=0
27270 On ch=1 n=a#6 v=60
27360 On ch=1 n=a#6 v=0
27360 On ch=1 n=c7 v=60
27420 On ch=1 n=c7 v=0
27450 On ch=1 n=a#6 v=60
27480 On ch=1 n=a#6 v=0
27480 On ch=1 n=g6 v=60
27540 On ch=1 n=g6 v=0
27540 On ch=1 n=d#6 v=60
27600 On ch=1 n=d#6 v=0
27600 On ch=1 n=a#5 v=60
27720 On ch=1 n=a#5 v=0
27720 On ch=1 n=a#5 v=60
27760 On ch=1 n=a#5 v=0
27760 On ch=1 n=c6 v=60
27800 On ch=1 n=c6 v=0
27800 On ch=1 n=a#5 v=60
27840 On ch=1 n=a#5 v=0
27840 On ch=1 n=a5 v=60
27900 On ch=1 n=a5 v=0
27900 On ch=1 n=a#5 v=60
27960 On ch=1 n=a#5 v=0
27960 On ch=1 n=a#5 v=60
27990 On ch=1 n=a#5 v=0
27990 On ch=1 n=a#6 v=60
28080 On ch=1 n=a#6 v=0
28080 On ch=1 n=c7 v=60
28140 On ch=1 n=c7 v=0
28170 On ch=1 n=a#6 v=60
28200 On ch=1 n=a#6 v=0
28200 On ch=1 n=g6 v=60
28260 On ch=1 n=g6 v=0
28260 On ch=1 n=d#6 v=60
28320 On ch=1 n=d#6 v=0
28320 On ch=1 n=a#5 v=60
28440 On ch=1 n=a#5 v=0
28440 On ch=1 n=a#5 v=60
28480 On ch=1 n=a#5 v=0
28480 On ch=1 n=c6 v=60
28520 On ch=1 n=c6 v=0
28520 On ch=1 n=a#5 v=60
28560 On ch=1 n=a#5 v=0
28560 On ch=1 n=a5 v=60
28620 On ch=1 n=a5 v=0
28620 On ch=1 n=a#5 v=60
28680 On ch=1 n=a#5 v=0
28680 On ch=1 n=g#6 v=60
28740 On ch=1 n=g#6 v=0
28740 On ch=1 n=g6 v=60
28800 On ch=1 n=g6 v=0
28800 On ch=1 n=f6 v=60
28980 On ch=1 n=f6 v=0
28980 On ch=1 n=e6 v=82
29040 On ch=1 n=e6 v=0
29040 On ch=1 n=d#6 v=89
29100 On ch=1 n=d#6 v=0
29100 On ch=1 n=d6 v=97
29160 On ch=1 n=d6 v=0
29160 On ch=1 n=c#6 v=100
29200 On ch=1 n=c#6 v=0
29200 On ch=1 n=d#6 v=98
29240 On ch=1 n=d#6 v=0
29240 On ch=1 n=c#6 v=96
29280 On ch=1 n=c#6 v=0
29280 On ch=1 n=c6 v=93
29340 On ch=1 n=c6 v=0
29340 On ch=1 n=c#6 v=90
29400 On ch=1 n=c#6 v=0
29400 On ch=1 n=f6 v=86
29460 On ch=1 n=f6 v=0
29460 On ch=1 n=d#6 v=83
29520 On ch=1 n=d#6 v=0
29520 On ch=1 n=c#6 v=79
29760 On ch=1 n=c#6 v=0
29760 On ch=1 n=c6 v=65
29880 On ch=1 n=c6 v=0
30000 On ch=1 n=a5 v=60
30060 On ch=1 n=a5 v=0
30060 On ch=1 n=a#5 v=60
30120 On ch=1 n=a#5 v=0
30120 On ch=1 n=c6 v=60
30165 On ch=1 n=d#6 v=60
30180 On ch=1 n=d#6 v=0
30180 On ch=1 n=c6 v=0
30180 On ch=1 n=c#6 v=60
30240 On ch=1 n=c#6 v=0
30240 On ch=1 n=c6 v=60
30480 On ch=1 n=c6 v=0
30480 On ch=1 n=a#5 v=60
30600 On ch=1 n=a#5 v=0
30600 On ch=1 n=a#5 v=60
30780 On ch=1 n=a#5 v=0
30780 On ch=1 n=g#5 v=70
30840 On ch=1 n=g#5 v=0
30840 On ch=1 n=g#5 v=74
30880 On ch=1 n=g#5 v=0
30880 On ch=1 n=g5 v=76
30920 On ch=1 n=g5 v=0
30920 On ch=1 n=f5 v=78
30960 On ch=1 n=f5 v=0
30960 On ch=1 n=f5 v=81
31200 On ch=1 n=f5 v=0
31200 On ch=1 n=d#5 v=95
31320 On ch=1 n=d#5 v=0
31425 On ch=1 n=d#5 v=94
31440 On ch=1 n=d#5 v=0
31440 On ch=1 n=g6 v=93
31500 On ch=1 n=g6 v=0
31500 On ch=1 n=f6 v=90
31560 On ch=1 n=f6 v=0
31560 On ch=1 n=d#6 v=86
31620 On ch=1 n=d#6 v=0
31620 On ch=1 n=c#6 v=83
31680 On ch=1 n=c#6 v=0
31680 On ch=1 n=b5 v=79
31920 On ch=1 n=b5 v=0
31920 On ch=1 n=c6 v=65
32100 On ch=1 n=c6 v=0
32100 On ch=1 n=c#6 v=60
32145 On ch=1 n=c#6 v=60
32160 On ch=1 n=c#6 v=0
32160 On ch=1 n=c#6 v=0
32160 On ch=1 n=a#6 v=60
32220 On ch=1 n=a#6 v=0
32220 On ch=1 n=g#6 v=60
32280 On ch=1 n=g#6 v=0
32280 On ch=1 n=f6 v=60
32340 On ch=1 n=f6 v=0
32340 On ch=1 n=c#6 v=60
32400 On ch=1 n=c#6 v=0
32400 On ch=1 n=c#6 v=60
32640 On ch=1 n=c#6 v=0
32640 On ch=1 n=c6 v=60
32760 On ch=1 n=c6 v=0
32760 On ch=1 n=a5 v=60
32776 On ch=1 n=a#5 v=63
32779 On ch=1 n=a5 v=0
32795 On ch=1 n=a#5 v=0
32795 On ch=1 n=a5 v=68
32813 On ch=1 n=g#5 v=73
32814 On ch=1 n=a5 v=0
32832 On ch=1 n=g#5 v=0
32832 On ch=1 n=a5 v=77
32851 On ch=1 n=a5 v=0
32852 On ch=1 n=a#5 v=82
32869 On ch=1 n=b5 v=87
32871 On ch=1 n=a#5 v=0
32888 On ch=1 n=b5 v=0
32888 On ch=1 n=c6 v=91
32906 On ch=1 n=c#6 v=96
32907 On ch=1 n=c6 v=0
32925 On ch=1 n=c#6 v=0
32925 On ch=1 n=d6 v=101
32944 On ch=1 n=d6 v=0
32945 On ch=1 n=d#6 v=106
32962 On ch=1 n=e6 v=110
32964 On ch=1 n=d#6 v=0
32981 On ch=1 n=e6 v=0
32981 On ch=1 n=f6 v=110
33000 On ch=1 n=f6 v=0
33000 On ch=1 n=f#6 v=110
33060 On ch=1 n=f#6 v=0
33090 On ch=1 n=a5 v=107
33105 On ch=1 n=a5 v=106
33120 On ch=1 n=a5 v=0
33120 On ch=1 n=a5 v=0
33120 On ch=1 n=c6 v=105
33360 On ch=1 n=c6 v=0
33360 On ch=1 n=a#5 v=95
33480 On ch=1 n=a#5 v=0
33480 On ch=1 n=a#5 v=90
33660 On ch=1 n=a#5 v=0
33660 On ch=1 n=g#5 v=82
33720 On ch=1 n=g#5 v=0
33720 On ch=1 n=g#5 v=79
33760 On ch=1 n=g#5 v=0
33760 On ch=1 n=g5 v=77
33800 On ch=1 n=g5 v=0
33800 On ch=1 n=f5 v=76
33840 On ch=1 n=f5 v=0
33840 On ch=1 n=f5 v=74
34080 On ch=1 n=f5 v=0
34080 On ch=1 n=d#5 v=64
34200 On ch=1 n=d#5 v=0
34200 On ch=1 n=d#5 v=60
34240 On ch=1 n=d#5 v=0
34240 On ch=1 n=f5 v=60
34280 On ch=1 n=f5 v=0
34280 On ch=1 n=d#5 v=60
34320 On ch=1 n=d#5 v=0
34320 On ch=1 n=d5 v=60
34380 On ch=1 n=d5 v=0
34380 On ch=1 n=d#5 v=60
34440 On ch=1 n=d#5 v=0
34440 On ch=1 n=f5 v=60
34440 On ch=1 n=c#6 v=60
34500 On ch=1 n=c#6 v=0
34500 On ch=1 n=f5 v=0
34500 On ch=1 n=g5 v=60
34500 On ch=1 n=c6 v=60
34560 On ch=1 n=c6 v=0
34560 On ch=1 n=g5 v=0
34560 On ch=1 n=g#5 v=60
34800 On ch=1 n=g#5 v=0
34800 On ch=1 n=c#6 v=60
34800 On ch=1 n=f6 v=60
34920 On ch=1 n=f6 v=0
34920 On ch=1 n=c#6 v=0
34920 On ch=1 n=a#5 v=60
34920 On ch=1 n=c#6 v=60
35040 On ch=1 n=c#5 v=60
35160 On ch=1 n=c#6 v=0
35160 On ch=1 n=a#5 v=0
35160 On ch=1 n=f5 v=60
35200 On ch=1 n=f5 v=0
35200 On ch=1 n=g5 v=60
35240 On ch=1 n=g5 v=0
35240 On ch=1 n=f5 v=60
35280 On ch=1 n=f5 v=0
35280 On ch=1 n=c#5 v=0
35280 On ch=1 n=c5 v=60
35280 On ch=1 n=d#5 v=60
35310 On ch=1 n=d#5 v=0
35310 On ch=1 n=c5 v=0
35400 On ch=1 n=c6 v=60
35400 On ch=1 n=g#5 v=60
35430 On ch=1 n=g#5 v=0
35430 On ch=1 n=c6 v=0
35520 On ch=1 n=c#6 v=60
35520 On ch=1 n=a#5 v=60
35640 On ch=1 n=a#5 v=0
35640 On ch=1 n=c#6 v=0
35640 On ch=1 n=g5 v=60
35640 On ch=1 n=a#5 v=60
35760 On ch=1 n=c#5 v=60
35880 On ch=1 n=a#5 v=0
35880 On ch=1 n=g5 v=0
35880 On ch=1 n=f5 v=60
35920 On ch=1 n=f5 v=0
35920 On ch=1 n=g5 v=60
35960 On ch=1 n=g5 v=0
35960 On ch=1 n=f5 v=60
36000 On ch=1 n=f5 v=0
36000 On ch=1 n=c#5 v=0
36000 On ch=1 n=c5 v=60
36000 On ch=1 n=d#5 v=60
36030 On ch=1 n=d#5 v=0
36030 On ch=1 n=c5 v=0
36120 On ch=1 n=c6 v=60
36120 On ch=1 n=g#5 v=60
36150 On ch=1 n=g#5 v=0
36150 On ch=1 n=c6 v=0
36240 On ch=1 n=f6 v=60
36240 On ch=1 n=c#6 v=60
36360 On ch=1 n=c#6 v=0
36360 On ch=1 n=f6 v=0
36360 On ch=1 n=a#5 v=60
36360 On ch=1 n=c#6 v=60
36480 On ch=1 n=c#5 v=60
36600 On ch=1 n=c#6 v=0
36600 On ch=1 n=a#5 v=0
36600 On ch=1 n=f5 v=60
36640 On ch=1 n=f5 v=0
36640 On ch=1 n=g5 v=60
36680 On ch=1 n=g5 v=0
36680 On ch=1 n=f5 v=60
36720 On ch=1 n=f5 v=0
36720 On ch=1 n=c#5 v=0
36720 On ch=1 n=c5 v=60
36720 On ch=1 n=d#5 v=60
36750 On ch=1 n=d#5 v=0
36750 On ch=1 n=c5 v=0
36840 On ch=1 n=c6 v=60
36840 On ch=1 n=g#5 v=60
36870 On ch=1 n=g#5 v=0
36870 On ch=1 n=c6 v=0
36960 On ch=1 n=a#5 v=60
36960 On ch=1 n=c#6 v=60
37080 On ch=1 n=c#6 v=0
37080 On ch=1 n=a#5 v=0
37080 On ch=1 n=g5 v=60
37080 On ch=1 n=a#5 v=60
37200 On ch=1 n=c#5 v=60
37320 On ch=1 n=a#5 v=0
37320 On ch=1 n=g5 v=0
37320 On ch=1 n=f5 v=60
37360 On ch=1 n=f5 v=0
37360 On ch=1 n=g5 v=60
37400 On ch=1 n=g5 v=0
37400 On ch=1 n=f5 v=60
37440 On ch=1 n=f5 v=0
37440 On ch=1 n=c#5 v=0
37440 On ch=1 n=c5 v=60
37440 On ch=1 n=d#5 v=60
37680 On ch=1 n=d#5 v=0
37680 On ch=1 n=c5 v=0
37680 On ch=1 n=c#6 v=60
37680 On ch=1 n=f6 v=60
37800 On ch=1 n=f6 v=0
37800 On ch=1 n=c#6 v=0
37800 On ch=1 n=a#5 v=60
37800 On ch=1 n=c#6 v=60
37920 On ch=1 n=c#5 v=60
38040 On ch=1 n=c#6 v=0
38040 On ch=1 n=a#5 v=0
38040 On ch=1 n=f5 v=60
38080 On ch=1 n=f5 v=0
38080 On ch=1 n=g5 v=60
38120 On ch=1 n=g5 v=0
38120 On ch=1 n=f5 v=60
38160 On ch=1 n=f5 v=0
38160 On ch=1 n=c#5 v=0
38160 On ch=1 n=c5 v=60
38160 On ch=1 n=d#5 v=60
38190 On ch=1 n=d#5 v=0
38190 On ch=1 n=c5 v=0
38280 On ch=1 n=c6 v=60
38280 On ch=1 n=g#5 v=60
38310 On ch=1 n=g#5 v=0
38310 On ch=1 n=c6 v=0
38400 On ch=1 n=c#6 v=60
38400 On ch=1 n=a#5 v=60
38520 On ch=1 n=a#5 v=0
38520 On ch=1 n=c#6 v=0
38520 On ch=1 n=g5 v=60
38520 On ch=1 n=a#5 v=60
38640 On ch=1 n=c#5 v=60
38760 On ch=1 n=a#5 v=0
38760 On ch=1 n=g5 v=0
38760 On ch=1 n=f5 v=60
38800 On ch=1 n=f5 v=0
38800 On ch=1 n=g5 v=60
38840 On ch=1 n=g5 v=0
38840 On ch=1 n=f5 v=60
38880 On ch=1 n=f5 v=0
38880 On ch=1 n=c#5 v=0
38880 On ch=1 n=c5 v=60
38880 On ch=1 n=d#5 v=60
38910 On ch=1 n=d#5 v=0
38910 On ch=1 n=c5 v=0
39000 On ch=1 n=c6 v=60
39000 On ch=1 n=g#5 v=60
39030 On ch=1 n=g#5 v=0
39030 On ch=1 n=c6 v=0
39120 On ch=1 n=f6 v=60
39120 On ch=1 n=c#6 v=60
39240 On ch=1 n=c#6 v=0
39240 On ch=1 n=f6 v=0
39240 On ch=1 n=a#5 v=60
39240 On ch=1 n=c#6 v=60
39360 On ch=1 n=c#5 v=60
39480 On ch=1 n=c#6 v=0
39480 On ch=1 n=a#5 v=0
39480 On ch=1 n=f5 v=60
39520 On ch=1 n=f5 v=0
39520 On ch=1 n=g5 v=60
39560 On ch=1 n=g5 v=0
39560 On ch=1 n=f5 v=60
39600 On ch=1 n=f5 v=0
39600 On ch=1 n=c#5 v=0
39600 On ch=1 n=c5 v=60
39600 On ch=1 n=d#5 v=60
39630 On ch=1 n=d#5 v=0
39630 On ch=1 n=c5 v=0
39720 On ch=1 n=c6 v=60
39720 On ch=1 n=g#5 v=60
39750 On ch=1 n=g#5 v=0
39750 On ch=1 n=c6 v=0
39840 On ch=1 n=a#5 v=60
39840 On ch=1 n=c#6 v=60
39960 On ch=1 n=c#6 v=0
39960 On ch=1 n=a#5 v=0
39960 On ch=1 n=g5 v=60
39960 On ch=1 n=a#5 v=60
40080 On ch=1 n=c#5 v=60
40200 On ch=1 n=a#5 v=0
40200 On ch=1 n=g5 v=0
40200 On ch=1 n=f5 v=60
40240 On ch=1 n=f5 v=0
40240 On ch=1 n=g5 v=60
40280 On ch=1 n=g5 v=0
40280 On ch=1 n=f5 v=60
40320 On ch=1 n=f5 v=0
40320 On ch=1 n=c#5 v=0
40320 On ch=1 n=c5 v=60
40320 On ch=1 n=d#5 v=60
40560 On ch=1 n=d#5 v=0
40560 On ch=1 n=c5 v=0
40560 On ch=1 n=c6 v=60
40680 On ch=1 n=c6 v=0
40680 On ch=1 n=e5 v=60
40680 On ch=1 n=c6 v=60
40710 On ch=1 n=c6 v=0
40710 On ch=1 n=e5 v=0
40800 On ch=1 n=e5 v=60
40800 On ch=1 n=c6 v=60
40920 On ch=1 n=c6 v=0
40920 On ch=1 n=e5 v=0
40920 On ch=1 n=b5 v=60
40980 On ch=1 n=b5 v=0
40980 On ch=1 n=c6 v=60
41040 On ch=1 n=c6 v=0
41040 On ch=1 n=f5 v=60
41040 On ch=1 n=c#6 v=60
41070 On ch=1 n=c#6 v=0
41070 On ch=1 n=f5 v=0
41160 On ch=1 n=f5 v=63
41160 On ch=1 n=c#6 v=63
41280 On ch=1 n=c#6 v=0
41280 On ch=1 n=f5 v=0
41280 On ch=1 n=c6 v=66
41340 On ch=1 n=c6 v=0
41340 On ch=1 n=c#6 v=68
41400 On ch=1 n=c#6 v=0
41400 On ch=1 n=f5 v=69
41400 On ch=1 n=d6 v=69
41430 On ch=1 n=d6 v=0
41430 On ch=1 n=f5 v=0
41520 On ch=1 n=f5 v=72
41520 On ch=1 n=d6 v=72
41640 On ch=1 n=d6 v=0
41640 On ch=1 n=f5 v=0
41640 On ch=1 n=c6 v=76
41700 On ch=1 n=c6 v=0
41700 On ch=1 n=d6 v=77
41760 On ch=1 n=d6 v=0
41760 On ch=1 n=g5 v=79
41760 On ch=1 n=d#6 v=79
41790 On ch=1 n=d#6 v=0
41790 On ch=1 n=g5 v=0
41880 On ch=1 n=g5 v=82
41880 On ch=1 n=d#6 v=82
42000 On ch=1 n=d#6 v=0
42000 On ch=1 n=g5 v=0
42000 On ch=1 n=d6 v=85
42060 On ch=1 n=d6 v=0
42060 On ch=1 n=d#6 v=87
42120 On ch=1 n=d#6 v=0
42120 On ch=1 n=g5 v=89
42120 On ch=1 n=e6 v=89
42150 On ch=1 n=e6 v=0
42150 On ch=1 n=g5 v=0
42240 On ch=1 n=g5 v=92
42240 On ch=1 n=e6 v=92
42360 On ch=1 n=e6 v=0
42360 On ch=1 n=g5 v=0
42360 On ch=1 n=d6 v=95
42420 On ch=1 n=d6 v=0
42420 On ch=1 n=e6 v=97
42480 On ch=1 n=e6 v=0
42480 On ch=1 n=g#5 v=98
42480 On ch=1 n=f6 v=98
42510 On ch=1 n=f6 v=0
42510 On ch=1 n=g#5 v=0
42600 On ch=1 n=g#5 v=102
42600 On ch=1 n=f6 v=102
42720 On ch=1 n=f6 v=0
42720 On ch=1 n=g#5 v=0
42720 On ch=1 n=e6 v=105
42780 On ch=1 n=e6 v=0
42780 On ch=1 n=f6 v=107
42840 On ch=1 n=f6 v=0
42840 On ch=1 n=a#5 v=108
42840 On ch=1 n=g6 v=108
42870 On ch=1 n=g6 v=0
42870 On ch=1 n=a#5 v=0
42960 On ch=1 n=a#5 v=111
42960 On ch=1 n=g6 v=111
43080 On ch=1 n=g6 v=0
43080 On ch=1 n=a#5 v=0
43080 On ch=1 n=f6 v=115
43140 On ch=1 n=f6 v=0
43140 On ch=1 n=g6 v=116
43200 On ch=1 n=g6 v=0
43200 On ch=1 n=c6 v=118
43200 On ch=1 n=g#6 v=118
43320 On ch=1 n=g#6 v=0
43320 On ch=1 n=c6 v=0
43320 On ch=1 n=a#6 v=120
43320 On ch=1 n=c#6 v=120
43380 On ch=1 n=c#6 v=0
43380 On ch=1 n=a#6 v=0
43680 On ch=1 n=c#6 v=60
43680 On ch=1 n=f6 v=60
43800 On ch=1 n=f6 v=0
43800 On ch=1 n=c#6 v=0
43800 On ch=1 n=a#5 v=60
43800 On ch=1 n=c#6 v=60
43920 On ch=1 n=c#5 v=60
44040 On ch=1 n=c#6 v=0
44040 On ch=1 n=a#5 v=0
44040 On ch=1 n=f5 v=60
44080 On ch=1 n=f5 v=0
44080 On ch=1 n=g5 v=60
44120 On ch=1 n=g5 v=0
44120 On ch=1 n=f5 v=60
44160 On ch=1 n=f5 v=0
44160 On ch=1 n=c#5 v=0
44160 On ch=1 n=c5 v=60
44160 On ch=1 n=d#5 v=60
44190 On ch=1 n=d#5 v=0
44190 On ch=1 n=c5 v=0
44280 On ch=1 n=c6 v=60
44280 On ch=1 n=g#5 v=60
44310 On ch=1 n=g#5 v=0
44310 On ch=1 n=c6 v=0
44400 On ch=1 n=c#6 v=60
44400 On ch=1 n=a#5 v=60
44520 On ch=1 n=a#5 v=0
44520 On ch=1 n=c#6 v=0
44520 On ch=1 n=g5 v=60
44520 On ch=1 n=a#5 v=60
44640 On ch=1 n=c#5 v=60
44760 On ch=1 n=a#5 v=0
44760 On ch=1 n=g5 v=0
44760 On ch=1 n=f5 v=60
44800 On ch=1 n=f5 v=0
44800 On ch=1 n=g5 v=60
44840 On ch=1 n=g5 v=0
44840 On ch=1 n=f5 v=60
44880 On ch=1 n=f5 v=0
44880 On ch=1 n=c#5 v=0
44880 On ch=1 n=c5 v=60
44880 On ch=1 n=d#5 v=60
44910 On ch=1 n=d#5 v=0
44910 On ch=1 n=c5 v=0
45000 On ch=1 n=c6 v=60
45000 On ch=1 n=g#5 v=60
45030 On ch=1 n=g#5 v=0
45030 On ch=1 n=c6 v=0
45120 On ch=1 n=f6 v=60
45120 On ch=1 n=c#6 v=60
45240 On ch=1 n=c#6 v=0
45240 On ch=1 n=f6 v=0
45240 On ch=1 n=a#5 v=60
45240 On ch=1 n=c#6 v=60
45360 On ch=1 n=c#5 v=60
45480 On ch=1 n=c#6 v=0
45480 On ch=1 n=a#5 v=0
45480 On ch=1 n=f5 v=60
45520 On ch=1 n=f5 v=0
45520 On ch=1 n=g5 v=60
45560 On ch=1 n=g5 v=0
45560 On ch=1 n=f5 v=60
45600 On ch=1 n=f5 v=0
45600 On ch=1 n=c#5 v=0
45600 On ch=1 n=c5 v=60
45600 On ch=1 n=d#5 v=60
45630 On ch=1 n=d#5 v=0
45630 On ch=1 n=c5 v=0
45720 On ch=1 n=c6 v=60
45720 On ch=1 n=g#5 v=60
45750 On ch=1 n=g#5 v=0
45750 On ch=1 n=c6 v=0
45840 On ch=1 n=a#5 v=60
45840 On ch=1 n=c#6 v=60
45960 On ch=1 n=c#6 v=0
45960 On ch=1 n=a#5 v=0
45960 On ch=1 n=g5 v=60
45960 On ch=1 n=a#5 v=60
46080 On ch=1 n=c#5 v=60
46200 On ch=1 n=a#5 v=0
46200 On ch=1 n=g5 v=0
46200 On ch=1 n=f5 v=60
46240 On ch=1 n=f5 v=0
46240 On ch=1 n=g5 v=60
46280 On ch=1 n=g5 v=0
46280 On ch=1 n=f5 v=60
46320 On ch=1 n=f5 v=0
46320 On ch=1 n=c#5 v=0
46320 On ch=1 n=c5 v=60
46320 On ch=1 n=d#5 v=60
46560 On ch=1 n=d#5 v=0
46560 On ch=1 n=c5 v=0
46560 On ch=1 n=c6 v=60
46680 On ch=1 n=c6 v=0
46680 On ch=1 n=e5 v=60
46680 On ch=1 n=c6 v=60
46710 On ch=1 n=c6 v=0
46710 On ch=1 n=e5 v=0
46800 On ch=1 n=e5 v=60
46800 On ch=1 n=c6 v=60
46920 On ch=1 n=c6 v=0
46920 On ch=1 n=e5 v=0
46920 On ch=1 n=b5 v=60
46980 On ch=1 n=b5 v=0
46980 On ch=1 n=c6 v=60
47040 On ch=1 n=c6 v=0
47040 On ch=1 n=f5 v=60
47040 On ch=1 n=c#6 v=60
47070 On ch=1 n=c#6 v=0
47070 On ch=1 n=f5 v=0
47160 On ch=1 n=f5 v=63
47160 On ch=1 n=c#6 v=63
47280 On ch=1 n=c#6 v=0
47280 On ch=1 n=f5 v=0
47280 On ch=1 n=c6 v=66
47340 On ch=1 n=c6 v=0
47340 On ch=1 n=c#6 v=68
47400 On ch=1 n=c#6 v=0
47400 On ch=1 n=f5 v=69
47400 On ch=1 n=d6 v=69
47430 On ch=1 n=d6 v=0
47430 On ch=1 n=f5 v=0
47520 On ch=1 n=f5 v=72
47520 On ch=1 n=d6 v=72
47640 On ch=1 n=d6 v=0
47640 On ch=1 n=f5 v=0
47640 On ch=1 n=c6 v=76
47700 On ch=1 n=c6 v=0
47700 On ch=1 n=d6 v=77
47760 On ch=1 n=d6 v=0
47760 On ch=1 n=g5 v=79
47760 On ch=1 n=d#6 v=79
47790 On ch=1 n=d#6 v=0
47790 On ch=1 n=g5 v=0
47880 On ch=1 n=g5 v=82
47880 On ch=1 n=d#6 v=82
48000 On ch=1 n=d#6 v=0
48000 On ch=1 n=g5 v=0
48000 On ch=1 n=d6 v=85
48060 On ch=1 n=d6 v=0
48060 On ch=1 n=d#6 v=87
48120 On ch=1 n=d#6 v=0
48120 On ch=1 n=g5 v=89
48120 On ch=1 n=e6 v=89
48150 On ch=1 n=e6 v=0
48150 On ch=1 n=g5 v=0
48240 On ch=1 n=g5 v=92
48240 On ch=1 n=e6 v=92
48360 On ch=1 n=e6 v=0
48360 On ch=1 n=g5 v=0
48360 On ch=1 n=d6 v=95
48420 On ch=1 n=d6 v=0
48420 On ch=1 n=e6 v=97
48480 On ch=1 n=e6 v=0
48480 On ch=1 n=g#5 v=98
48480 On ch=1 n=f6 v=98
48510 On ch=1 n=f6 v=0
48510 On ch=1 n=g#5 v=0
48600 On ch=1 n=g#5 v=102
48600 On ch=1 n=f6 v=102
48720 On ch=1 n=f6 v=0
48720 On ch=1 n=g#5 v=0
48720 On ch=1 n=e6 v=105
48780 On ch=1 n=e6 v=0
48780 On ch=1 n=f6 v=107
48840 On ch=1 n=f6 v=0
48840 On ch=1 n=a#5 v=108
48840 On ch=1 n=g6 v=108
48870 On ch=1 n=g6 v=0
48870 On ch=1 n=a#5 v=0
48960 On ch=1 n=a#5 v=111
48960 On ch=1 n=g6 v=111
49080 On ch=1 n=g6 v=0
49080 On ch=1 n=a#5 v=0
49080 On ch=1 n=f6 v=115
49140 On ch=1 n=f6 v=0
49140 On ch=1 n=g6 v=116
49200 On ch=1 n=g6 v=0
49200 On ch=1 n=c6 v=118
49200 On ch=1 n=g#6 v=118
49320 On ch=1 n=g#6 v=0
49320 On ch=1 n=c6 v=0
49320 On ch=1 n=a#6 v=120
49320 On ch=1 n=c#6 v=120
49380 On ch=1 n=c#6 v=0
49380 On ch=1 n=a#6 v=0
49680 On ch=1 n=c#6 v=60
49680 On ch=1 n=f6 v=60
49800 On ch=1 n=f6 v=0
49800 On ch=1 n=c#6 v=0
49800 On ch=1 n=a#5 v=60
49800 On ch=1 n=c#6 v=60
49920 On ch=1 n=c#5 v=61
50040 On ch=1 n=c#6 v=0
50040 On ch=1 n=a#5 v=0
50040 On ch=1 n=f5 v=62
50080 On ch=1 n=f5 v=0
50080 On ch=1 n=g5 v=62
50120 On ch=1 n=g5 v=0
50120 On ch=1 n=f5 v=63
50160 On ch=1 n=f5 v=0
50160 On ch=1 n=c#5 v=0
50160 On ch=1 n=c5 v=63
50160 On ch=1 n=d#5 v=63
50190 On ch=1 n=d#5 v=0
50190 On ch=1 n=c5 v=0
50280 On ch=1 n=c6 v=64
50280 On ch=1 n=g#5 v=64
50310 On ch=1 n=g#5 v=0
50310 On ch=1 n=c6 v=0
50400 On ch=1 n=c#6 v=65
50400 On ch=1 n=a#5 v=65
50520 On ch=1 n=a#5 v=0
50520 On ch=1 n=c#6 v=0
50520 On ch=1 n=g5 v=65
50520 On ch=1 n=a#5 v=65
50640 On ch=1 n=c#5 v=66
50760 On ch=1 n=a#5 v=0
50760 On ch=1 n=g5 v=0
50760 On ch=1 n=f5 v=67
50800 On ch=1 n=f5 v=0
50800 On ch=1 n=g5 v=67
50840 On ch=1 n=g5 v=0
50840 On ch=1 n=f5 v=68
50880 On ch=1 n=f5 v=0
50880 On ch=1 n=c#5 v=0
50880 On ch=1 n=c5 v=68
50880 On ch=1 n=d#5 v=68
50910 On ch=1 n=d#5 v=0
50910 On ch=1 n=c5 v=0
51000 On ch=1 n=c6 v=69
51000 On ch=1 n=g#5 v=69
51030 On ch=1 n=g#5 v=0
51030 On ch=1 n=c6 v=0
51120 On ch=1 n=f6 v=70
51120 On ch=1 n=c#6 v=70
51240 On ch=1 n=c#6 v=0
51240 On ch=1 n=f6 v=0
51240 On ch=1 n=a#5 v=70
51240 On ch=1 n=c#6 v=70
51360 On ch=1 n=c#5 v=71
51480 On ch=1 n=c#6 v=0
51480 On ch=1 n=a#5 v=0
51480 On ch=1 n=f5 v=72
51520 On ch=1 n=f5 v=0
51520 On ch=1 n=g5 v=72
51560 On ch=1 n=g5 v=0
51560 On ch=1 n=f5 v=73
51600 On ch=1 n=f5 v=0
51600 On ch=1 n=c#5 v=0
51600 On ch=1 n=c5 v=73
51600 On ch=1 n=d#5 v=73
51630 On ch=1 n=d#5 v=0
51630 On ch=1 n=c5 v=0
51720 On ch=1 n=c6 v=74
51720 On ch=1 n=g#5 v=74
51750 On ch=1 n=g#5 v=0
51750 On ch=1 n=c6 v=0
51840 On ch=1 n=a#5 v=75
51840 On ch=1 n=c#6 v=75
51960 On ch=1 n=c#6 v=0
51960 On ch=1 n=a#5 v=0
51960 On ch=1 n=g5 v=76
51960 On ch=1 n=a#5 v=76
52080 On ch=1 n=c#5 v=76
52200 On ch=1 n=a#5 v=0
52200 On ch=1 n=g5 v=0
52200 On ch=1 n=f5 v=77
52240 On ch=1 n=f5 v=0
52240 On ch=1 n=g5 v=78
52280 On ch=1 n=g5 v=0
52280 On ch=1 n=f5 v=78
52320 On ch=1 n=f5 v=0
52320 On ch=1 n=c#5 v=0
52320 On ch=1 n=c5 v=78
52320 On ch=1 n=d#5 v=78
52560 On ch=1 n=d#5 v=0
52560 On ch=1 n=c5 v=0
52560 On ch=1 n=d#6 v=80
52620 On ch=1 n=d#6 v=0
52620 On ch=1 n=d6 v=80
52680 On ch=1 n=d6 v=0
52680 On ch=1 n=c#6 v=80
52720 On ch=1 n=c#6 v=0
52720 On ch=1 n=d#6 v=80
52760 On ch=1 n=d#6 v=0
52760 On ch=1 n=c#6 v=80
52800 On ch=1 n=c#6 v=0
52800 On ch=1 n=c6 v=81
52860 On ch=1 n=c6 v=0
52860 On ch=1 n=c#6 v=81
52920 On ch=1 n=c#6 v=0
52920 On ch=1 n=f6 v=82
52980 On ch=1 n=f6 v=0
52980 On ch=1 n=d#6 v=82
53040 On ch=1 n=d#6 v=0
53040 On ch=1 n=c#6 v=83
53280 On ch=1 n=c#6 v=0
53280 On ch=1 n=c6 v=85
53400 On ch=1 n=c6 v=0
53520 On ch=1 n=a5 v=88
53580 On ch=1 n=a5 v=0
53580 On ch=1 n=a#5 v=88
53640 On ch=1 n=a#5 v=0
53640 On ch=1 n=c6 v=89
53685 On ch=1 n=d#6 v=89
53700 On ch=1 n=d#6 v=0
53700 On ch=1 n=c6 v=0
53700 On ch=1 n=c#6 v=89
53760 On ch=1 n=c#6 v=0
53760 On ch=1 n=c6 v=90
54000 On ch=1 n=c6 v=0
54000 On ch=1 n=a#5 v=92
54120 On ch=1 n=a#5 v=0
54120 On ch=1 n=a#5 v=94
54300 On ch=1 n=a#5 v=0
54300 On ch=1 n=g#5 v=95
54360 On ch=1 n=g#5 v=0
54360 On ch=1 n=g#5 v=96
54400 On ch=1 n=g#5 v=0
54400 On ch=1 n=g5 v=96
54440 On ch=1 n=g5 v=0
54440 On ch=1 n=f5 v=97
54480 On ch=1 n=f5 v=0
54480 On ch=1 n=f5 v=97
54720 On ch=1 n=f5 v=0
54720 On ch=1 n=d#5 v=99
54840 On ch=1 n=d#5 v=0
54945 On ch=1 n=d#5 v=100
54960 On ch=1 n=d#5 v=0
54960 On ch=1 n=g6 v=100
55020 On ch=1 n=g6 v=0
55020 On ch=1 n=f6 v=100
55080 On ch=1 n=f6 v=0
55080 On ch=1 n=d#6 v=100
55140 On ch=1 n=d#6 v=0
55140 On ch=1 n=c#6 v=100
55200 On ch=1 n=c#6 v=0
55200 On ch=1 n=b5 v=100
55440 On ch=1 n=b5 v=0
55440 On ch=1 n=c6 v=71
55620 On ch=1 n=c6 v=0
55620 On ch=1 n=c#6 v=60
55665 On ch=1 n=c#6 v=60
55680 On ch=1 n=c#6 v=0
55680 On ch=1 n=c#6 v=0
55680 On ch=1 n=a#6 v=60
55740 On ch=1 n=a#6 v=0
55740 On ch=1 n=g#6 v=60
55800 On ch=1 n=g#6 v=0
55800 On ch=1 n=f6 v=60
55860 On ch=1 n=f6 v=0
55860 On ch=1 n=c#6 v=60
55920 On ch=1 n=c#6 v=0
55920 On ch=1 n=c#6 v=60
56160 On ch=1 n=c#6 v=0
56160 On ch=1 n=c6 v=60
56280 On ch=1 n=c6 v=0
56280 On ch=1 n=a5 v=60
56300 On ch=1 n=a5 v=0
56300 On ch=1 n=a#5 v=64
56320 On ch=1 n=a#5 v=0
56320 On ch=1 n=a5 v=69
56340 On ch=1 n=a5 v=0
56340 On ch=1 n=g#5 v=74
56360 On ch=1 n=g#5 v=0
56360 On ch=1 n=a5 v=79
56380 On ch=1 n=a5 v=0
56380 On ch=1 n=c6 v=84
56400 On ch=1 n=c6 v=0
56400 On ch=1 n=d#6 v=89
56420 On ch=1 n=d#6 v=0
56420 On ch=1 n=f#6 v=94
56440 On ch=1 n=f#6 v=0
56440 On ch=1 n=g#6 v=99
56460 On ch=1 n=g#6 v=0
56460 On ch=1 n=c7 v=104
56480 On ch=1 n=c7 v=0
56480 On ch=1 n=d#7 v=109
56500 On ch=1 n=d#7 v=0
56500 On ch=1 n=f7 v=110
56520 On ch=1 n=f7 v=0
56520 On ch=1 n=f#7 v=110
56580 On ch=1 n=f#7 v=0
56610 On ch=1 n=a5 v=108
56625 On ch=1 n=a5 v=107
56640 On ch=1 n=a5 v=0
56640 On ch=1 n=a5 v=0
56640 On ch=1 n=c6 v=107
56880 On ch=1 n=c6 v=0
56880 On ch=1 n=a#5 v=99
57000 On ch=1 n=a#5 v=0
57000 On ch=1 n=a#5 v=96
57180 On ch=1 n=a#5 v=0
57180 On ch=1 n=g#5 v=90
57240 On ch=1 n=g#5 v=0
57240 On ch=1 n=g#5 v=88
57280 On ch=1 n=g#5 v=0
57280 On ch=1 n=g5 v=87
57320 On ch=1 n=g5 v=0
57320 On ch=1 n=f5 v=86
57360 On ch=1 n=f5 v=0
57360 On ch=1 n=f5 v=84
57600 On ch=1 n=f5 v=0
57600 On ch=1 n=d#5 v=77
57720 On ch=1 n=d#5 v=0
57720 On ch=1 n=d#5 v=73
57760 On ch=1 n=d#5 v=0
57760 On ch=1 n=f5 v=72
57800 On ch=1 n=f5 v=0
57800 On ch=1 n=d#5 v=71
57840 On ch=1 n=d#5 v=0
57840 On ch=1 n=d5 v=69
57900 On ch=1 n=d5 v=0
57900 On ch=1 n=d#5 v=67
57960 On ch=1 n=d#5 v=0
57960 On ch=1 n=f5 v=66
57960 On ch=1 n=c#6 v=66
58020 On ch=1 n=c#6 v=0
58020 On ch=1 n=f5 v=0
58020 On ch=1 n=g5 v=64
58020 On ch=1 n=c6 v=64
58080 On ch=1 n=c6 v=0
58080 On ch=1 n=g5 v=0
58080 On ch=1 n=g#5 v=62
58320 On ch=1 n=g#5 v=0
58320 Meta TrkEnd
TrkEnd
MTrk
0 Meta 0x21 00
0 Meta TrkName "Lower Bass"
0 PrCh ch=1 p=0
360 On ch=1 n=f4 v=70
480 On ch=1 n=c#5 v=60
480 On ch=1 n=g#4 v=60
600 On ch=1 n=g#4 v=0
600 On ch=1 n=c#5 v=0
600 On ch=1 n=c#5 v=60
600 On ch=1 n=g#4 v=60
720 On ch=1 n=g#4 v=0
720 On ch=1 n=c#5 v=0
720 On ch=1 n=f4 v=0
720 On ch=1 n=e4 v=70
840 On ch=1 n=c5 v=60
840 On ch=1 n=g4 v=60
960 On ch=1 n=g4 v=0
960 On ch=1 n=c5 v=0
960 On ch=1 n=c5 v=60
960 On ch=1 n=g4 v=60
1080 On ch=1 n=g4 v=0
1080 On ch=1 n=c5 v=0
1080 On ch=1 n=e4 v=0
1080 On ch=1 n=d#4 v=70
1200 On ch=1 n=c5 v=60
1200 On ch=1 n=f#4 v=60
1320 On ch=1 n=f#4 v=0
1320 On ch=1 n=c5 v=0
1320 On ch=1 n=c5 v=60
1320 On ch=1 n=f#4 v=60
1440 On ch=1 n=f#4 v=0
1440 On ch=1 n=c5 v=0
1440 On ch=1 n=d#4 v=0
1440 On ch=1 n=c#4 v=70
1560 On ch=1 n=f4 v=60
1560 On ch=1 n=a#4 v=60
1680 On ch=1 n=a#4 v=0
1680 On ch=1 n=f4 v=0
1680 On ch=1 n=f4 v=60
1680 On ch=1 n=a#4 v=60
1800 On ch=1 n=a#4 v=0
1800 On ch=1 n=f4 v=0
1800 On ch=1 n=c#4 v=0
1800 On ch=1 n=d4 v=70
1920 On ch=1 n=a#4 v=67
1920 On ch=1 n=f4 v=67
2040 On ch=1 n=f4 v=0
2040 On ch=1 n=a#4 v=0
2040 On ch=1 n=f4 v=74
2040 On ch=1 n=b4 v=74
2160 On ch=1 n=b4 v=0
2160 On ch=1 n=f4 v=0
2160 On ch=1 n=d4 v=0
2160 On ch=1 n=d#4 v=91
2280 On ch=1 n=g#4 v=88
2280 On ch=1 n=c5 v=88
2400 On ch=1 n=c5 v=0
2400 On ch=1 n=g#4 v=0
2400 On ch=1 n=g#4 v=95
2400 On ch=1 n=c5 v=95
2520 On ch=1 n=c5 v=0
2520 On ch=1 n=g#4 v=0
2520 On ch=1 n=d#4 v=0
2520 On ch=1 n=d#3 v=110
2640 On ch=1 n=d#3 v=0
2640 On ch=1 n=c#5 v=93
2640 On ch=1 n=a#4 v=93
2640 On ch=1 n=d#4 v=93
2760 On ch=1 n=d#4 v=0
2760 On ch=1 n=a#4 v=0
2760 On ch=1 n=c#5 v=0
2760 On ch=1 n=d#4 v=86
2760 On ch=1 n=g4 v=86
2760 On ch=1 n=c#5 v=86
2880 On ch=1 n=c#5 v=0
2880 On ch=1 n=g4 v=0
2880 On ch=1 n=d#4 v=0
2880 On ch=1 n=g#3 v=89
3000 On ch=1 n=g#3 v=0
3000 On ch=1 n=c5 v=72
3000 On ch=1 n=g#4 v=72
3000 On ch=1 n=d#4 v=72
3120 On ch=1 n=d#4 v=0
3120 On ch=1 n=g#4 v=0
3120 On ch=1 n=c5 v=0
3120 On ch=1 n=d#4 v=65
3120 On ch=1 n=g#4 v=65
3120 On ch=1 n=c5 v=65
3240 On ch=1 n=c5 v=0
3240 On ch=1 n=g#4 v=0
3240 On ch=1 n=d#4 v=0
3240 On ch=1 n=f4 v=70
3360 On ch=1 n=c#5 v=60
3360 On ch=1 n=g#4 v=60
3480 On ch=1 n=g#4 v=0
3480 On ch=1 n=c#5 v=0
3480 On ch=1 n=c#5 v=60
3480 On ch=1 n=g#4 v=60
3600 On ch=1 n=g#4 v=0
3600 On ch=1 n=c#5 v=0
3600 On ch=1 n=f4 v=0
3600 On ch=1 n=e4 v=70
3720 On ch=1 n=c#5 v=60
3720 On ch=1 n=g4 v=60
3840 On ch=1 n=g4 v=0
3840 On ch=1 n=c#5 v=0
3840 On ch=1 n=c5 v=60
3840 On ch=1 n=g4 v=60
3960 On ch=1 n=g4 v=0
3960 On ch=1 n=c5 v=0
3960 On ch=1 n=e4 v=0
3960 On ch=1 n=d#4 v=70
4080 On ch=1 n=c5 v=60
4080 On ch=1 n=f#4 v=60
4200 On ch=1 n=f#4 v=0
4200 On ch=1 n=c5 v=0
4200 On ch=1 n=c5 v=60
4200 On ch=1 n=f#4 v=60
4320 On ch=1 n=f#4 v=0
4320 On ch=1 n=c5 v=0
4320 On ch=1 n=d#4 v=0
4320 On ch=1 n=c#4 v=70
4440 On ch=1 n=f4 v=60
4440 On ch=1 n=c5 v=60
4560 On ch=1 n=c5 v=0
4560 On ch=1 n=f4 v=0
4560 On ch=1 n=f4 v=60
4560 On ch=1 n=a#4 v=60
4680 On ch=1 n=a#4 v=0
4680 On ch=1 n=f4 v=0
4680 On ch=1 n=c#4 v=0
4680 On ch=1 n=d4 v=70
4800 On ch=1 n=a#4 v=60
4800 On ch=1 n=f4 v=60
4920 On ch=1 n=f4 v=0
4920 On ch=1 n=a#4 v=0
4920 On ch=1 n=f4 v=60
4920 On ch=1 n=b4 v=60
5040 On ch=1 n=b4 v=0
5040 On ch=1 n=f4 v=0
5040 On ch=1 n=d4 v=0
5040 On ch=1 n=d#3 v=70
5160 On ch=1 n=d#3 v=0
5160 On ch=1 n=c5 v=60
5160 On ch=1 n=g#4 v=60
5160 On ch=1 n=d#4 v=60
5280 On ch=1 n=d#4 v=0
5280 On ch=1 n=g#4 v=0
5280 On ch=1 n=c5 v=0
5280 On ch=1 n=d#4 v=60
5280 On ch=1 n=g#4 v=60
5280 On ch=1 n=c5 v=60
5400 On ch=1 n=c5 v=0
5400 On ch=1 n=g#4 v=0
5400 On ch=1 n=d#4 v=0
5400 On ch=1 n=d#3 v=70
5520 On ch=1 n=d#3 v=0
5520 On ch=1 n=c#5 v=60
5520 On ch=1 n=g4 v=60
5520 On ch=1 n=d#4 v=60
5640 On ch=1 n=d#4 v=0
5640 On ch=1 n=g4 v=0
5640 On ch=1 n=c#5 v=0
5640 On ch=1 n=d#4 v=60
5640 On ch=1 n=a#4 v=60
5640 On ch=1 n=c#5 v=60
5760 On ch=1 n=c#5 v=0
5760 On ch=1 n=a#4 v=0
5760 On ch=1 n=d#4 v=0
5760 On ch=1 n=g#3 v=70
5880 On ch=1 n=g#3 v=0
5880 On ch=1 n=c5 v=60
5880 On ch=1 n=d#4 v=60
6000 On ch=1 n=d#4 v=0
6000 On ch=1 n=c5 v=0
6120 On ch=1 n=f4 v=70
6240 On ch=1 n=c#5 v=60
6240 On ch=1 n=g#4 v=60
6360 On ch=1 n=g#4 v=0
6360 On ch=1 n=c#5 v=0
6360 On ch=1 n=c#5 v=60
6360 On ch=1 n=g#4 v=60
6480 On ch=1 n=g#4 v=0
6480 On ch=1 n=c#5 v=0
6480 On ch=1 n=f4 v=0
6480 On ch=1 n=e4 v=70
6600 On ch=1 n=c#5 v=60
6600 On ch=1 n=g4 v=60
6720 On ch=1 n=g4 v=0
6720 On ch=1 n=c#5 v=0
6720 On ch=1 n=c5 v=60
6720 On ch=1 n=g4 v=60
6840 On ch=1 n=g4 v=0
6840 On ch=1 n=c5 v=0
6840 On ch=1 n=e4 v=0
6840 On ch=1 n=d#4 v=70
6960 On ch=1 n=c5 v=60
6960 On ch=1 n=f#4 v=60
7080 On ch=1 n=f#4 v=0
7080 On ch=1 n=c5 v=0
7080 On ch=1 n=c5 v=60
7080 On ch=1 n=f#4 v=60
7200 On ch=1 n=f#4 v=0
7200 On ch=1 n=c5 v=0
7200 On ch=1 n=d#4 v=0
7200 On ch=1 n=c#4 v=70
7320 On ch=1 n=f4 v=60
7320 On ch=1 n=c5 v=60
7440 On ch=1 n=c5 v=0
7440 On ch=1 n=f4 v=0
7440 On ch=1 n=f4 v=60
7440 On ch=1 n=a#4 v=60
7560 On ch=1 n=a#4 v=0
7560 On ch=1 n=f4 v=0
7560 On ch=1 n=c#4 v=0
7560 On ch=1 n=d4 v=70
7680 On ch=1 n=a#4 v=67
7680 On ch=1 n=f4 v=67
7800 On ch=1 n=f4 v=0
7800 On ch=1 n=a#4 v=0
7800 On ch=1 n=f4 v=74
7800 On ch=1 n=b4 v=74
7920 On ch=1 n=b4 v=0
7920 On ch=1 n=f4 v=0
7920 On ch=1 n=d4 v=0
7920 On ch=1 n=d#4 v=91
8040 On ch=1 n=g#4 v=88
8040 On ch=1 n=c5 v=88
8160 On ch=1 n=c5 v=0
8160 On ch=1 n=g#4 v=0
8160 On ch=1 n=g#4 v=95
8160 On ch=1 n=c5 v=95
8280 On ch=1 n=c5 v=0
8280 On ch=1 n=g#4 v=0
8280 On ch=1 n=d#4 v=0
8280 On ch=1 n=d#3 v=110
8400 On ch=1 n=d#3 v=0
8400 On ch=1 n=c#5 v=93
8400 On ch=1 n=a#4 v=93
8400 On ch=1 n=d#4 v=93
8520 On ch=1 n=d#4 v=0
8520 On ch=1 n=a#4 v=0
8520 On ch=1 n=c#5 v=0
8520 On ch=1 n=d#4 v=86
8520 On ch=1 n=g4 v=86
8520 On ch=1 n=c#5 v=86
8640 On ch=1 n=c#5 v=0
8640 On ch=1 n=g4 v=0
8640 On ch=1 n=d#4 v=0
8640 On ch=1 n=g#3 v=89
8760 On ch=1 n=g#3 v=0
8760 On ch=1 n=c5 v=72
8760 On ch=1 n=g#4 v=72
8760 On ch=1 n=d#4 v=72
8880 On ch=1 n=d#4 v=0
8880 On ch=1 n=g#4 v=0
8880 On ch=1 n=c5 v=0
8880 On ch=1 n=d#4 v=65
8880 On ch=1 n=g#4 v=65
8880 On ch=1 n=c5 v=65
9000 On ch=1 n=c5 v=0
9000 On ch=1 n=g#4 v=0
9000 On ch=1 n=d#4 v=0
9000 On ch=1 n=f4 v=70
9120 On ch=1 n=c#5 v=60
9120 On ch=1 n=g#4 v=60
9240 On ch=1 n=g#4 v=0
9240 On ch=1 n=c#5 v=0
9240 On ch=1 n=c#5 v=60
9240 On ch=1 n=g#4 v=60
9360 On ch=1 n=g#4 v=0
9360 On ch=1 n=c#5 v=0
9360 On ch=1 n=f4 v=0
9360 On ch=1 n=e4 v=70
9480 On ch=1 n=c#5 v=60
9480 On ch=1 n=g4 v=60
9600 On ch=1 n=g4 v=0
9600 On ch=1 n=c#5 v=0
9600 On ch=1 n=c5 v=60
9600 On ch=1 n=g4 v=60
9720 On ch=1 n=g4 v=0
9720 On ch=1 n=c5 v=0
9720 On ch=1 n=e4 v=0
9720 On ch=1 n=d#4 v=70
9840 On ch=1 n=c5 v=89
9840 On ch=1 n=f#4 v=89
9960 On ch=1 n=f#4 v=0
9960 On ch=1 n=c5 v=0
9960 On ch=1 n=c5 v=110
9960 On ch=1 n=f#4 v=110
10080 On ch=1 n=f#4 v=0
10080 On ch=1 n=c5 v=0
10080 On ch=1 n=d#4 v=0
10080 On ch=1 n=c#4 v=115
10200 On ch=1 n=f4 v=100
10200 On ch=1 n=c5 v=100
10320 On ch=1 n=c5 v=0
10320 On ch=1 n=f4 v=0
10320 On ch=1 n=f4 v=95
10320 On ch=1 n=a#4 v=95
10440 On ch=1 n=a#4 v=0
10440 On ch=1 n=f4 v=0
10440 On ch=1 n=c#4 v=0
10440 On ch=1 n=d4 v=100
10560 On ch=1 n=a#4 v=84
10560 On ch=1 n=f4 v=84
10680 On ch=1 n=f4 v=0
10680 On ch=1 n=a#4 v=0
10680 On ch=1 n=f4 v=79
10680 On ch=1 n=b4 v=79
10800 On ch=1 n=b4 v=0
10800 On ch=1 n=f4 v=0
10800 On ch=1 n=d4 v=0
10800 On ch=1 n=d#3 v=84
10920 On ch=1 n=d#3 v=0
10920 On ch=1 n=c5 v=69
10920 On ch=1 n=g#4 v=69
10920 On ch=1 n=d#4 v=69
11040 On ch=1 n=d#4 v=0
11040 On ch=1 n=g#4 v=0
11040 On ch=1 n=c5 v=0
11040 On ch=1 n=d#4 v=64
11040 On ch=1 n=g#4 v=64
11040 On ch=1 n=c5 v=64
11160 On ch=1 n=c5 v=0
11160 On ch=1 n=g#4 v=0
11160 On ch=1 n=d#4 v=0
11160 On ch=1 n=d#3 v=70
11280 On ch=1 n=d#3 v=0
11280 On ch=1 n=c#5 v=60
11280 On ch=1 n=g4 v=60
11280 On ch=1 n=d#4 v=60
11400 On ch=1 n=d#4 v=0
11400 On ch=1 n=g4 v=0
11400 On ch=1 n=c#5 v=0
11400 On ch=1 n=d#4 v=60
11400 On ch=1 n=a#4 v=60
11400 On ch=1 n=c#5 v=60
11520 On ch=1 n=c#5 v=0
11520 On ch=1 n=a#4 v=0
11520 On ch=1 n=d#4 v=0
11520 On ch=1 n=g#3 v=70
11640 On ch=1 n=g#3 v=0
11640 On ch=1 n=c5 v=60
11640 On ch=1 n=d#4 v=60
11760 On ch=1 n=d#4 v=0
11760 On ch=1 n=c5 v=0
11880 On ch=1 n=a#4 v=80
11880 On ch=1 n=f5 v=80
11880 On ch=1 n=g#4 v=80
12060 On ch=1 n=a#4 v=0
12060 On ch=1 n=d5 v=80
12120 On ch=1 n=d5 v=0
12120 On ch=1 n=d5 v=80
12240 On ch=1 n=d5 v=0
12240 On ch=1 n=g#4 v=0
12240 On ch=1 n=f5 v=0
12240 On ch=1 n=d#5 v=80
12240 On ch=1 n=g4 v=80
12420 On ch=1 n=a#4 v=80
12480 On ch=1 n=a#4 v=0
12480 On ch=1 n=a#4 v=80
12600 On ch=1 n=a#4 v=0
12600 On ch=1 n=g4 v=0
12600 On ch=1 n=d#5 v=0
12600 On ch=1 n=a#3 v=80
12610 On ch=1 n=g#4 v=80
12620 On ch=1 n=d5 v=80
12780 On ch=1 n=g#4 v=0
12780 On ch=1 n=a#4 v=80
12840 On ch=1 n=a#4 v=0
12840 On ch=1 n=a#4 v=80
12960 On ch=1 n=a#4 v=0
12960 On ch=1 n=d5 v=0
12960 On ch=1 n=a#3 v=0
12960 On ch=1 n=d#5 v=80
12960 On ch=1 n=g4 v=80
12960 On ch=1 n=d#4 v=80
13140 On ch=1 n=a#4 v=80
13200 On ch=1 n=a#4 v=0
13200 On ch=1 n=a#4 v=80
13320 On ch=1 n=a#4 v=0
13320 On ch=1 n=d#4 v=0
13320 On ch=1 n=g4 v=0
13320 On ch=1 n=d#5 v=0
13320 On ch=1 n=a#4 v=80
13320 On ch=1 n=f5 v=80
13320 On ch=1 n=g#4 v=80
13500 On ch=1 n=a#4 v=0
13500 On ch=1 n=d5 v=80
13560 On ch=1 n=d5 v=0
13560 On ch=1 n=d5 v=80
13680 On ch=1 n=d5 v=0
13680 On ch=1 n=g#4 v=0
13680 On ch=1 n=f5 v=0
13680 On ch=1 n=d#5 v=80
13680 On ch=1 n=g4 v=80
13860 On ch=1 n=a#4 v=80
13920 On ch=1 n=a#4 v=0
13920 On ch=1 n=a#4 v=80
14040 On ch=1 n=a#4 v=0
14040 On ch=1 n=g4 v=0
14040 On ch=1 n=d#5 v=0
14040 On ch=1 n=a#3 v=90
14160 On ch=1 n=a#3 v=0
14160 On ch=1 n=d5 v=80
14160 On ch=1 n=g#4 v=80
14280 On ch=1 n=g#4 v=0
14280 On ch=1 n=d5 v=0
14280 On ch=1 n=a#4 v=80
14280 On ch=1 n=d5 v=80
14400 On ch=1 n=d5 v=0
14400 On ch=1 n=a#4 v=0
14400 On ch=1 n=d#4 v=90
14520 On ch=1 n=d#4 v=0
14520 On ch=1 n=d#5 v=73
14520 On ch=1 n=g4 v=73
14640 On ch=1 n=g4 v=0
14640 On ch=1 n=d#5 v=0
14640 On ch=1 n=a#4 v=66
14640 On ch=1 n=d#5 v=66
14760 On ch=1 n=d#5 v=0
14760 On ch=1 n=a#4 v=0
14760 On ch=1 n=a#4 v=60
14760 On ch=1 n=f5 v=60
14760 On ch=1 n=g#4 v=60
14940 On ch=1 n=a#4 v=0
14940 On ch=1 n=d5 v=60
15000 On ch=1 n=d5 v=0
15000 On ch=1 n=d5 v=60
15120 On ch=1 n=d5 v=0
15120 On ch=1 n=g#4 v=0
15120 On ch=1 n=f5 v=0
15120 On ch=1 n=d#5 v=60
15120 On ch=1 n=g4 v=60
15300 On ch=1 n=a#4 v=60
15360 On ch=1 n=a#4 v=0
15360 On ch=1 n=a#4 v=60
15480 On ch=1 n=a#4 v=0
15480 On ch=1 n=g4 v=0
15480 On ch=1 n=d#5 v=0
15480 On ch=1 n=a#3 v=60
15490 On ch=1 n=g#4 v=60
15500 On ch=1 n=d5 v=60
15660 On ch=1 n=g#4 v=0
15660 On ch=1 n=a#4 v=60
15720 On ch=1 n=a#4 v=0
15720 On ch=1 n=a#4 v=60
15840 On ch=1 n=a#4 v=0
15840 On ch=1 n=d5 v=0
15840 On ch=1 n=a#3 v=0
15840 On ch=1 n=d#5 v=60
15840 On ch=1 n=g4 v=60
15840 On ch=1 n=d#4 v=60
16020 On ch=1 n=a#4 v=60
16080 On ch=1 n=a#4 v=0
16080 On ch=1 n=a#4 v=60
16200 On ch=1 n=a#4 v=0
16200 On ch=1 n=d#4 v=0
16200 On ch=1 n=g4 v=0
16200 On ch=1 n=d#5 v=0
16200 On ch=1 n=a#4 v=60
16200 On ch=1 n=f5 v=60
16200 On ch=1 n=g#4 v=60
16380 On ch=1 n=a#4 v=0
16380 On ch=1 n=d5 v=60
16440 On ch=1 n=d5 v=0
16440 On ch=1 n=d5 v=60
16560 On ch=1 n=d5 v=0
16560 On ch=1 n=g#4 v=0
16560 On ch=1 n=f5 v=0
16560 On ch=1 n=d#5 v=60
16560 On ch=1 n=g4 v=60
16740 On ch=1 n=a#4 v=60
16800 On ch=1 n=a#4 v=0
16800 On ch=1 n=a#4 v=60
16920 On ch=1 n=a#4 v=0
16920 On ch=1 n=g4 v=0
16920 On ch=1 n=d#5 v=0
16920 On ch=1 n=a#3 v=70
17040 On ch=1 n=a#3 v=0
17040 On ch=1 n=d5 v=60
17040 On ch=1 n=g#4 v=60
17160 On ch=1 n=g#4 v=0
17160 On ch=1 n=d5 v=0
17160 On ch=1 n=a#4 v=60
17160 On ch=1 n=d5 v=60
17280 On ch=1 n=d5 v=0
17280 On ch=1 n=a#4 v=0
17280 On ch=1 n=d#4 v=70
17400 On ch=1 n=d#4 v=0
17400 On ch=1 n=d#5 v=74
17400 On ch=1 n=g4 v=74
17520 On ch=1 n=g4 v=0
17520 On ch=1 n=d#5 v=0
17520 On ch=1 n=a#4 v=89
17520 On ch=1 n=d#5 v=89
17640 On ch=1 n=d#5 v=0
17640 On ch=1 n=a#4 v=0
17640 On ch=1 n=f4 v=110
17760 On ch=1 n=c#5 v=93
17760 On ch=1 n=g#4 v=93
17880 On ch=1 n=g#4 v=0
17880 On ch=1 n=c#5 v=0
17880 On ch=1 n=c#5 v=86
17880 On ch=1 n=g#4 v=86
18000 On ch=1 n=g#4 v=0
18000 On ch=1 n=c#5 v=0
18000 On ch=1 n=f4 v=0
18000 On ch=1 n=e4 v=89
18120 On ch=1 n=c#5 v=72
18120 On ch=1 n=g4 v=72
18240 On ch=1 n=g4 v=0
18240 On ch=1 n=c#5 v=0
18240 On ch=1 n=c5 v=65
18240 On ch=1 n=g4 v=65
18360 On ch=1 n=g4 v=0
18360 On ch=1 n=c5 v=0
18360 On ch=1 n=e4 v=0
18360 On ch=1 n=d#4 v=70
18480 On ch=1 n=c5 v=60
18480 On ch=1 n=f#4 v=60
18600 On ch=1 n=f#4 v=0
18600 On ch=1 n=c5 v=0
18600 On ch=1 n=c5 v=60
18600 On ch=1 n=f#4 v=60
18720 On ch=1 n=f#4 v=0
18720 On ch=1 n=c5 v=0
18720 On ch=1 n=d#4 v=0
18720 On ch=1 n=c#4 v=70
18840 On ch=1 n=f4 v=60
18840 On ch=1 n=c5 v=60
18960 On ch=1 n=c5 v=0
18960 On ch=1 n=f4 v=0
18960 On ch=1 n=f4 v=60
18960 On ch=1 n=a#4 v=60
19080 On ch=1 n=a#4 v=0
19080 On ch=1 n=f4 v=0
19080 On ch=1 n=c#4 v=0
19080 On ch=1 n=d4 v=70
19200 On ch=1 n=a#4 v=67
19200 On ch=1 n=f4 v=67
19320 On ch=1 n=f4 v=0
19320 On ch=1 n=a#4 v=0
19320 On ch=1 n=f4 v=74
19320 On ch=1 n=b4 v=74
19440 On ch=1 n=b4 v=0
19440 On ch=1 n=f4 v=0
19440 On ch=1 n=d4 v=0
19440 On ch=1 n=d#4 v=91
19560 On ch=1 n=g#4 v=88
19560 On ch=1 n=c5 v=88
19680 On ch=1 n=c5 v=0
19680 On ch=1 n=g#4 v=0
19680 On ch=1 n=g#4 v=95
19680 On ch=1 n=c5 v=95
19800 On ch=1 n=c5 v=0
19800 On ch=1 n=g#4 v=0
19800 On ch=1 n=d#4 v=0
19800 On ch=1 n=d#3 v=110
19920 On ch=1 n=d#3 v=0
19920 On ch=1 n=c#5 v=93
19920 On ch=1 n=a#4 v=93
19920 On ch=1 n=d#4 v=93
20040 On ch=1 n=d#4 v=0
20040 On ch=1 n=a#4 v=0
20040 On ch=1 n=c#5 v=0
20040 On ch=1 n=d#4 v=86
20040 On ch=1 n=g4 v=86
20040 On ch=1 n=c#5 v=86
20160 On ch=1 n=c#5 v=0
20160 On ch=1 n=g4 v=0
20160 On ch=1 n=d#4 v=0
20160 On ch=1 n=g#3 v=89
20280 On ch=1 n=g#3 v=0
20280 On ch=1 n=c5 v=72
20280 On ch=1 n=g#4 v=72
20280 On ch=1 n=d#4 v=72
20400 On ch=1 n=d#4 v=0
20400 On ch=1 n=g#4 v=0
20400 On ch=1 n=c5 v=0
20400 On ch=1 n=d#4 v=65
20400 On ch=1 n=g#4 v=65
20400 On ch=1 n=c5 v=65
20520 On ch=1 n=c5 v=0
20520 On ch=1 n=g#4 v=0
20520 On ch=1 n=d#4 v=0
20520 On ch=1 n=f4 v=70
20640 On ch=1 n=c#5 v=60
20640 On ch=1 n=g#4 v=60
20760 On ch=1 n=g#4 v=0
20760 On ch=1 n=c#5 v=0
20760 On ch=1 n=c#5 v=60
20760 On ch=1 n=g#4 v=60
20880 On ch=1 n=g#4 v=0
20880 On ch=1 n=c#5 v=0
20880 On ch=1 n=f4 v=0
20880 On ch=1 n=e4 v=70
21000 On ch=1 n=c#5 v=60
21000 On ch=1 n=g4 v=60
21120 On ch=1 n=g4 v=0
21120 On ch=1 n=c#5 v=0
21120 On ch=1 n=c5 v=60
21120 On ch=1 n=g4 v=60
21240 On ch=1 n=g4 v=0
21240 On ch=1 n=c5 v=0
21240 On ch=1 n=e4 v=0
21240 On ch=1 n=d#4 v=70
21360 On ch=1 n=c5 v=89
21360 On ch=1 n=f#4 v=89
21480 On ch=1 n=f#4 v=0
21480 On ch=1 n=c5 v=0
21480 On ch=1 n=c5 v=110
21480 On ch=1 n=f#4 v=110
21600 On ch=1 n=f#4 v=0
21600 On ch=1 n=c5 v=0
21600 On ch=1 n=d#4 v=0
21600 On ch=1 n=c#4 v=115
21720 On ch=1 n=f4 v=100
21720 On ch=1 n=c5 v=100
21840 On ch=1 n=c5 v=0
21840 On ch=1 n=f4 v=0
21840 On ch=1 n=f4 v=95
21840 On ch=1 n=a#4 v=95
21960 On ch=1 n=a#4 v=0
21960 On ch=1 n=f4 v=0
21960 On ch=1 n=c#4 v=0
21960 On ch=1 n=d4 v=100
22080 On ch=1 n=a#4 v=84
22080 On ch=1 n=f4 v=84
22200 On ch=1 n=f4 v=0
22200 On ch=1 n=a#4 v=0
22200 On ch=1 n=f4 v=79
22200 On ch=1 n=b4 v=79
22320 On ch=1 n=b4 v=0
22320 On ch=1 n=f4 v=0
22320 On ch=1 n=d4 v=0
22320 On ch=1 n=d#3 v=84
22440 On ch=1 n=d#3 v=0
22440 On ch=1 n=c5 v=69
22440 On ch=1 n=g#4 v=69
22440 On ch=1 n=d#4 v=69
22560 On ch=1 n=d#4 v=0
22560 On ch=1 n=g#4 v=0
22560 On ch=1 n=c5 v=0
22560 On ch=1 n=d#4 v=64
22560 On ch=1 n=g#4 v=64
22560 On ch=1 n=c5 v=64
22680 On ch=1 n=c5 v=0
22680 On ch=1 n=g#4 v=0
22680 On ch=1 n=d#4 v=0
22680 On ch=1 n=d#3 v=70
22800 On ch=1 n=d#3 v=0
22800 On ch=1 n=c#5 v=60
22800 On ch=1 n=g4 v=60
22800 On ch=1 n=d#4 v=60
22920 On ch=1 n=d#4 v=0
22920 On ch=1 n=g4 v=0
22920 On ch=1 n=c#5 v=0
22920 On ch=1 n=d#4 v=60
22920 On ch=1 n=a#4 v=60
22920 On ch=1 n=c#5 v=60
23040 On ch=1 n=c#5 v=0
23040 On ch=1 n=a#4 v=0
23040 On ch=1 n=d#4 v=0
23040 On ch=1 n=g#3 v=70
23160 On ch=1 n=g#3 v=0
23160 On ch=1 n=c5 v=60
23160 On ch=1 n=d#4 v=60
23280 On ch=1 n=d#4 v=0
23280 On ch=1 n=c5 v=0
23400 On ch=1 n=a#4 v=80
23400 On ch=1 n=f5 v=80
23400 On ch=1 n=g#4 v=80
23580 On ch=1 n=a#4 v=0
23580 On ch=1 n=d5 v=80
23640 On ch=1 n=d5 v=0
23640 On ch=1 n=d5 v=80
23760 On ch=1 n=d5 v=0
23760 On ch=1 n=g#4 v=0
23760 On ch=1 n=f5 v=0
23760 On ch=1 n=d#5 v=80
23760 On ch=1 n=g4 v=80
23940 On ch=1 n=a#4 v=80
24000 On ch=1 n=a#4 v=0
24000 On ch=1 n=a#4 v=80
24120 On ch=1 n=a#4 v=0
24120 On ch=1 n=g4 v=0
24120 On ch=1 n=d#5 v=0
24120 On ch=1 n=a#3 v=80
24130 On ch=1 n=g#4 v=80
24140 On ch=1 n=d5 v=80
24300 On ch=1 n=g#4 v=0
24300 On ch=1 n=a#4 v=80
24360 On ch=1 n=a#4 v=0
24360 On ch=1 n=a#4 v=80
24480 On ch=1 n=a#4 v=0
24480 On ch=1 n=d5 v=0
24480 On ch=1 n=a#3 v=0
24480 On ch=1 n=d#5 v=80
24480 On ch=1 n=g4 v=80
24480 On ch=1 n=d#4 v=80
24660 On ch=1 n=a#4 v=80
24720 On ch=1 n=a#4 v=0
24720 On ch=1 n=a#4 v=80
24840 On ch=1 n=a#4 v=0
24840 On ch=1 n=d#4 v=0
24840 On ch=1 n=g4 v=0
24840 On ch=1 n=d#5 v=0
24840 On ch=1 n=a#4 v=80
24840 On ch=1 n=f5 v=80
24840 On ch=1 n=g#4 v=80
25020 On ch=1 n=a#4 v=0
25020 On ch=1 n=d5 v=80
25080 On ch=1 n=d5 v=0
25080 On ch=1 n=d5 v=80
25200 On ch=1 n=d5 v=0
25200 On ch=1 n=g#4 v=0
25200 On ch=1 n=f5 v=0
25200 On ch=1 n=d#5 v=80
25200 On ch=1 n=g4 v=80
25380 On ch=1 n=a#4 v=80
25440 On ch=1 n=a#4 v=0
25440 On ch=1 n=a#4 v=80
25560 On ch=1 n=a#4 v=0
25560 On ch=1 n=g4 v=0
25560 On ch=1 n=d#5 v=0
25560 On ch=1 n=a#3 v=90
25680 On ch=1 n=a#3 v=0
25680 On ch=1 n=d5 v=80
25680 On ch=1 n=g#4 v=80
25800 On ch=1 n=g#4 v=0
25800 On ch=1 n=d5 v=0
25800 On ch=1 n=a#4 v=80
25800 On ch=1 n=d5 v=80
25920 On ch=1 n=d5 v=0
25920 On ch=1 n=a#4 v=0
25920 On ch=1 n=d#4 v=90
26040 On ch=1 n=d#4 v=0
26040 On ch=1 n=d#5 v=73
26040 On ch=1 n=g4 v=73
26160 On ch=1 n=g4 v=0
26160 On ch=1 n=d#5 v=0
26160 On ch=1 n=a#4 v=66
26160 On ch=1 n=d#5 v=66
26280 On ch=1 n=d#5 v=0
26280 On ch=1 n=a#4 v=0
26280 On ch=1 n=a#4 v=60
26280 On ch=1 n=f5 v=60
26280 On ch=1 n=g#4 v=60
26460 On ch=1 n=a#4 v=0
26460 On ch=1 n=d5 v=60
26520 On ch=1 n=d5 v=0
26520 On ch=1 n=d5 v=60
26640 On ch=1 n=d5 v=0
26640 On ch=1 n=g#4 v=0
26640 On ch=1 n=f5 v=0
26640 On ch=1 n=d#5 v=60
26640 On ch=1 n=g4 v=60
26820 On ch=1 n=a#4 v=60
26880 On ch=1 n=a#4 v=0
26880 On ch=1 n=a#4 v=60
27000 On ch=1 n=a#4 v=0
27000 On ch=1 n=g4 v=0
27000 On ch=1 n=d#5 v=0
27000 On ch=1 n=a#3 v=60
27010 On ch=1 n=g#4 v=60
27020 On ch=1 n=d5 v=60
27180 On ch=1 n=g#4 v=0
27180 On ch=1 n=a#4 v=60
27240 On ch=1 n=a#4 v=0
27240 On ch=1 n=a#4 v=60
27360 On ch=1 n=a#4 v=0
27360 On ch=1 n=d5 v=0
27360 On ch=1 n=a#3 v=0
27360 On ch=1 n=d#5 v=60
27360 On ch=1 n=g4 v=60
27360 On ch=1 n=d#4 v=60
27540 On ch=1 n=a#4 v=60
27600 On ch=1 n=a#4 v=0
27600 On ch=1 n=a#4 v=60
27720 On ch=1 n=a#4 v=0
27720 On ch=1 n=d#4 v=0
27720 On ch=1 n=g4 v=0
27720 On ch=1 n=d#5 v=0
27720 On ch=1 n=a#4 v=60
27720 On ch=1 n=f5 v=60
27720 On ch=1 n=g#4 v=60
27900 On ch=1 n=a#4 v=0
27900 On ch=1 n=d5 v=60
27960 On ch=1 n=d5 v=0
27960 On ch=1 n=d5 v=60
28080 On ch=1 n=d5 v=0
28080 On ch=1 n=g#4 v=0
28080 On ch=1 n=f5 v=0
28080 On ch=1 n=d#5 v=60
28080 On ch=1 n=g4 v=60
28260 On ch=1 n=a#4 v=60
28320 On ch=1 n=a#4 v=0
28320 On ch=1 n=a#4 v=60
28440 On ch=1 n=a#4 v=0
28440 On ch=1 n=g4 v=0
28440 On ch=1 n=d#5 v=0
28440 On ch=1 n=a#3 v=70
28560 On ch=1 n=a#3 v=0
28560 On ch=1 n=d5 v=60
28560 On ch=1 n=g#4 v=60
28680 On ch=1 n=g#4 v=0
28680 On ch=1 n=d5 v=0
28680 On ch=1 n=a#4 v=60
28680 On ch=1 n=d5 v=60
28800 On ch=1 n=d5 v=0
28800 On ch=1 n=a#4 v=0
28800 On ch=1 n=d#4 v=70
28920 On ch=1 n=d#4 v=0
28920 On ch=1 n=d#5 v=74
28920 On ch=1 n=g4 v=74
29040 On ch=1 n=g4 v=0
29040 On ch=1 n=d#5 v=0
29040 On ch=1 n=a#4 v=89
29040 On ch=1 n=d#5 v=89
29160 On ch=1 n=d#5 v=0
29160 On ch=1 n=a#4 v=0
29160 On ch=1 n=f4 v=110
29280 On ch=1 n=c#5 v=93
29280 On ch=1 n=g#4 v=93
29400 On ch=1 n=g#4 v=0
29400 On ch=1 n=c#5 v=0
29400 On ch=1 n=c#5 v=86
29400 On ch=1 n=g#4 v=86
29520 On ch=1 n=g#4 v=0
29520 On ch=1 n=c#5 v=0
29520 On ch=1 n=f4 v=0
29520 On ch=1 n=e4 v=89
29640 On ch=1 n=c#5 v=72
29640 On ch=1 n=g4 v=72
29760 On ch=1 n=g4 v=0
29760 On ch=1 n=c#5 v=0
29760 On ch=1 n=c5 v=65
29760 On ch=1 n=g4 v=65
29880 On ch=1 n=g4 v=0
29880 On ch=1 n=c5 v=0
29880 On ch=1 n=e4 v=0
29880 On ch=1 n=d#4 v=70
30000 On ch=1 n=c5 v=60
30000 On ch=1 n=f#4 v=60
30120 On ch=1 n=f#4 v=0
30120 On ch=1 n=c5 v=0
30120 On ch=1 n=c5 v=60
30120 On ch=1 n=f#4 v=60
30240 On ch=1 n=f#4 v=0
30240 On ch=1 n=c5 v=0
30240 On ch=1 n=d#4 v=0
30240 On ch=1 n=c#4 v=70
30360 On ch=1 n=f4 v=60
30360 On ch=1 n=c5 v=60
30480 On ch=1 n=c5 v=0
30480 On ch=1 n=f4 v=0
30480 On ch=1 n=f4 v=60
30480 On ch=1 n=a#4 v=60
30600 On ch=1 n=a#4 v=0
30600 On ch=1 n=f4 v=0
30600 On ch=1 n=c#4 v=0
30600 On ch=1 n=d4 v=70
30720 On ch=1 n=a#4 v=67
30720 On ch=1 n=f4 v=67
30840 On ch=1 n=f4 v=0
30840 On ch=1 n=a#4 v=0
30840 On ch=1 n=f4 v=74
30840 On ch=1 n=b4 v=74
30960 On ch=1 n=b4 v=0
30960 On ch=1 n=f4 v=0
30960 On ch=1 n=d4 v=0
30960 On ch=1 n=d#4 v=91
31080 On ch=1 n=g#4 v=88
31080 On ch=1 n=c5 v=88
31200 On ch=1 n=c5 v=0
31200 On ch=1 n=g#4 v=0
31200 On ch=1 n=g#4 v=95
31200 On ch=1 n=c5 v=95
31320 On ch=1 n=c5 v=0
31320 On ch=1 n=g#4 v=0
31320 On ch=1 n=d#4 v=0
31320 On ch=1 n=d#3 v=110
31440 On ch=1 n=d#3 v=0
31440 On ch=1 n=c#5 v=93
31440 On ch=1 n=a#4 v=93
31440 On ch=1 n=d#4 v=93
31560 On ch=1 n=d#4 v=0
31560 On ch=1 n=a#4 v=0
31560 On ch=1 n=c#5 v=0
31560 On ch=1 n=d#4 v=86
31560 On ch=1 n=g4 v=86
31560 On ch=1 n=c#5 v=86
31680 On ch=1 n=c#5 v=0
31680 On ch=1 n=g4 v=0
31680 On ch=1 n=d#4 v=0
31680 On ch=1 n=g#3 v=89
31800 On ch=1 n=g#3 v=0
31800 On ch=1 n=c5 v=72
31800 On ch=1 n=g#4 v=72
31800 On ch=1 n=d#4 v=72
31920 On ch=1 n=d#4 v=0
31920 On ch=1 n=g#4 v=0
31920 On ch=1 n=c5 v=0
31920 On ch=1 n=d#4 v=65
31920 On ch=1 n=g#4 v=65
31920 On ch=1 n=c5 v=65
32040 On ch=1 n=c5 v=0
32040 On ch=1 n=g#4 v=0
32040 On ch=1 n=d#4 v=0
32040 On ch=1 n=f4 v=70
32160 On ch=1 n=c#5 v=60
32160 On ch=1 n=g#4 v=60
32280 On ch=1 n=g#4 v=0
32280 On ch=1 n=c#5 v=0
32280 On ch=1 n=c#5 v=60
32280 On ch=1 n=g#4 v=60
32400 On ch=1 n=g#4 v=0
32400 On ch=1 n=c#5 v=0
32400 On ch=1 n=f4 v=0
32400 On ch=1 n=e4 v=70
32520 On ch=1 n=c#5 v=60
32520 On ch=1 n=g4 v=60
32640 On ch=1 n=g4 v=0
32640 On ch=1 n=c#5 v=0
32640 On ch=1 n=c5 v=60
32640 On ch=1 n=g4 v=60
32760 On ch=1 n=g4 v=0
32760 On ch=1 n=c5 v=0
32760 On ch=1 n=e4 v=0
32760 On ch=1 n=d#4 v=70
32880 On ch=1 n=c5 v=89
32880 On ch=1 n=f#4 v=89
33000 On ch=1 n=f#4 v=0
33000 On ch=1 n=c5 v=0
33000 On ch=1 n=c5 v=110
33000 On ch=1 n=f#4 v=110
33120 On ch=1 n=f#4 v=0
33120 On ch=1 n=c5 v=0
33120 On ch=1 n=d#4 v=0
33120 On ch=1 n=c#4 v=115
33240 On ch=1 n=f4 v=100
33240 On ch=1 n=c5 v=100
33360 On ch=1 n=c5 v=0
33360 On ch=1 n=f4 v=0
33360 On ch=1 n=f4 v=95
33360 On ch=1 n=a#4 v=95
33480 On ch=1 n=a#4 v=0
33480 On ch=1 n=f4 v=0
33480 On ch=1 n=c#4 v=0
33480 On ch=1 n=d4 v=100
33600 On ch=1 n=a#4 v=84
33600 On ch=1 n=f4 v=84
33720 On ch=1 n=f4 v=0
33720 On ch=1 n=a#4 v=0
33720 On ch=1 n=f4 v=79
33720 On ch=1 n=b4 v=79
33840 On ch=1 n=b4 v=0
33840 On ch=1 n=f4 v=0
33840 On ch=1 n=d4 v=0
33840 On ch=1 n=d#3 v=84
33960 On ch=1 n=d#3 v=0
33960 On ch=1 n=c5 v=69
33960 On ch=1 n=g#4 v=69
33960 On ch=1 n=d#4 v=69
34080 On ch=1 n=d#4 v=0
34080 On ch=1 n=g#4 v=0
34080 On ch=1 n=c5 v=0
34080 On ch=1 n=d#4 v=64
34080 On ch=1 n=g#4 v=64
34080 On ch=1 n=c5 v=64
34200 On ch=1 n=c5 v=0
34200 On ch=1 n=g#4 v=0
34200 On ch=1 n=d#4 v=0
34200 On ch=1 n=d#3 v=70
34320 On ch=1 n=d#3 v=0
34320 On ch=1 n=c#5 v=60
34320 On ch=1 n=g4 v=60
34320 On ch=1 n=d#4 v=60
34440 On ch=1 n=d#4 v=0
34440 On ch=1 n=g4 v=0
34440 On ch=1 n=c#5 v=0
34440 On ch=1 n=d#4 v=60
34440 On ch=1 n=a#4 v=60
34440 On ch=1 n=c#5 v=60
34560 On ch=1 n=c#5 v=0
34560 On ch=1 n=a#4 v=0
34560 On ch=1 n=d#4 v=0
34560 On ch=1 n=g#3 v=70
34680 On ch=1 n=g#3 v=0
34680 On ch=1 n=c5 v=60
34680 On ch=1 n=d#4 v=60
34800 On ch=1 n=d#4 v=0
34800 On ch=1 n=c5 v=0
34920 On ch=1 n=d#3 v=60
34950 On ch=1 n=d#3 v=0
35040 On ch=1 n=g4 v=60
35160 On ch=1 n=d#4 v=60
35280 On ch=1 n=d#4 v=0
35280 On ch=1 n=g4 v=0
35280 On ch=1 n=g#3 v=60
35310 On ch=1 n=g#3 v=0
35400 On ch=1 n=g#4 v=60
35430 On ch=1 n=g#4 v=0
35520 On ch=1 n=d#4 v=60
35550 On ch=1 n=d#4 v=0
35640 On ch=1 n=d#3 v=60
35670 On ch=1 n=d#3 v=0
35760 On ch=1 n=a#4 v=60
35880 On ch=1 n=d#4 v=60
36000 On ch=1 n=d#4 v=0
36000 On ch=1 n=a#4 v=0
36000 On ch=1 n=g#3 v=60
36030 On ch=1 n=g#3 v=0
36120 On ch=1 n=g#4 v=60
36150 On ch=1 n=g#4 v=0
36240 On ch=1 n=d#4 v=60
36270 On ch=1 n=d#4 v=0
36360 On ch=1 n=d#3 v=60
36390 On ch=1 n=d#3 v=0
36480 On ch=1 n=g4 v=60
36600 On ch=1 n=d#4 v=60
36720 On ch=1 n=d#4 v=0
36720 On ch=1 n=g4 v=0
36720 On ch=1 n=g#3 v=60
36750 On ch=1 n=g#3 v=0
36840 On ch=1 n=g#4 v=60
36870 On ch=1 n=g#4 v=0
36960 On ch=1 n=d#4 v=60
36990 On ch=1 n=d#4 v=0
37080 On ch=1 n=d#3 v=60
37110 On ch=1 n=d#3 v=0
37200 On ch=1 n=a#4 v=60
37320 On ch=1 n=d#4 v=60
37440 On ch=1 n=d#4 v=0
37440 On ch=1 n=a#4 v=0
37440 On ch=1 n=g#3 v=60
37470 On ch=1 n=g#3 v=0
37560 On ch=1 n=g#4 v=60
37590 On ch=1 n=g#4 v=0
37680 On ch=1 n=d#4 v=60
37710 On ch=1 n=d#4 v=0
37800 On ch=1 n=d#3 v=60
37830 On ch=1 n=d#3 v=0
37920 On ch=1 n=g4 v=60
38040 On ch=1 n=d#4 v=60
38160 On ch=1 n=d#4 v=0
38160 On ch=1 n=g4 v=0
38160 On ch=1 n=g#3 v=60
38190 On ch=1 n=g#3 v=0
38280 On ch=1 n=g#4 v=60
38310 On ch=1 n=g#4 v=0
38400 On ch=1 n=d#4 v=60
38430 On ch=1 n=d#4 v=0
38520 On ch=1 n=d#3 v=60
38550 On ch=1 n=d#3 v=0
38640 On ch=1 n=a#4 v=60
38760 On ch=1 n=d#4 v=60
38880 On ch=1 n=d#4 v=0
38880 On ch=1 n=a#4 v=0
38880 On ch=1 n=g#3 v=60
38910 On ch=1 n=g#3 v=0
39000 On ch=1 n=g#4 v=60
39030 On ch=1 n=g#4 v=0
39120 On ch=1 n=d#4 v=60
39150 On ch=1 n=d#4 v=0
39240 On ch=1 n=d#3 v=60
39270 On ch=1 n=d#3 v=0
39360 On ch=1 n=g4 v=60
39480 On ch=1 n=d#4 v=60
39600 On ch=1 n=d#4 v=0
39600 On ch=1 n=g4 v=0
39600 On ch=1 n=g#3 v=60
39630 On ch=1 n=g#3 v=0
39720 On ch=1 n=g#4 v=60
39750 On ch=1 n=g#4 v=0
39840 On ch=1 n=d#4 v=60
39870 On ch=1 n=d#4 v=0
39960 On ch=1 n=d#3 v=60
39990 On ch=1 n=d#3 v=0
40080 On ch=1 n=a#4 v=60
40200 On ch=1 n=d#4 v=60
40320 On ch=1 n=d#4 v=0
40320 On ch=1 n=a#4 v=0
40320 On ch=1 n=g#3 v=60
40560 On ch=1 n=g#3 v=0
40680 On ch=1 n=c4 v=60
40680 On ch=1 n=g4 v=60
40710 On ch=1 n=g4 v=0
40710 On ch=1 n=c4 v=0
40800 On ch=1 n=c4 v=60
40800 On ch=1 n=g4 v=60
41040 On ch=1 n=g4 v=0
41040 On ch=1 n=c4 v=0
41040 On ch=1 n=b3 v=60
41040 On ch=1 n=g#4 v=60
41070 On ch=1 n=g#4 v=0
41070 On ch=1 n=b3 v=0
41160 On ch=1 n=b3 v=63
41160 On ch=1 n=g#4 v=63
41400 On ch=1 n=g#4 v=0
41400 On ch=1 n=b3 v=0
41400 On ch=1 n=a#3 v=69
41400 On ch=1 n=a#4 v=69
41430 On ch=1 n=a#4 v=0
41430 On ch=1 n=a#3 v=0
41520 On ch=1 n=a#3 v=72
41520 On ch=1 n=a#4 v=72
41760 On ch=1 n=a#4 v=0
41760 On ch=1 n=a#3 v=0
41760 On ch=1 n=d#4 v=79
41760 On ch=1 n=a#4 v=79
41790 On ch=1 n=a#4 v=0
41790 On ch=1 n=d#4 v=0
41880 On ch=1 n=a#4 v=82
41880 On ch=1 n=d#4 v=82
42120 On ch=1 n=d#4 v=0
42120 On ch=1 n=a#4 v=0
42120 On ch=1 n=c4 v=89
42120 On ch=1 n=c5 v=89
42150 On ch=1 n=c5 v=0
42150 On ch=1 n=c4 v=0
42240 On ch=1 n=c4 v=92
42240 On ch=1 n=c5 v=92
42480 On ch=1 n=c5 v=0
42480 On ch=1 n=c4 v=0
42480 On ch=1 n=f4 v=98
42480 On ch=1 n=c5 v=98
42510 On ch=1 n=c5 v=0
42510 On ch=1 n=f4 v=0
42600 On ch=1 n=f4 v=102
42600 On ch=1 n=c5 v=102
42840 On ch=1 n=c5 v=0
42840 On ch=1 n=f4 v=0
42840 On ch=1 n=d#4 v=108
42840 On ch=1 n=d#5 v=108
42870 On ch=1 n=d#5 v=0
42870 On ch=1 n=d#4 v=0
42960 On ch=1 n=d#4 v=111
42960 On ch=1 n=d#5 v=111
43200 On ch=1 n=d#5 v=0
43200 On ch=1 n=d#4 v=0
43200 On ch=1 n=d#5 v=118
43200 On ch=1 n=g#4 v=118
43320 On ch=1 n=g#4 v=0
43320 On ch=1 n=d#5 v=0
43320 On ch=1 n=g4 v=120
43320 On ch=1 n=d#5 v=120
43380 On ch=1 n=d#5 v=0
43380 On ch=1 n=g4 v=0
43800 On ch=1 n=d#3 v=60
43830 On ch=1 n=d#3 v=0
43920 On ch=1 n=g4 v=60
44040 On ch=1 n=d#4 v=60
44160 On ch=1 n=d#4 v=0
44160 On ch=1 n=g4 v=0
44160 On ch=1 n=g#3 v=60
44190 On ch=1 n=g#3 v=0
44280 On ch=1 n=g#4 v=60
44310 On ch=1 n=g#4 v=0
44400 On ch=1 n=d#4 v=60
44430 On ch=1 n=d#4 v=0
44520 On ch=1 n=d#3 v=60
44550 On ch=1 n=d#3 v=0
44640 On ch=1 n=a#4 v=60
44760 On ch=1 n=d#4 v=60
44880 On ch=1 n=d#4 v=0
44880 On ch=1 n=a#4 v=0
44880 On ch=1 n=g#3 v=60
44910 On ch=1 n=g#3 v=0
45000 On ch=1 n=g#4 v=60
45030 On ch=1 n=g#4 v=0
45120 On ch=1 n=d#4 v=60
45150 On ch=1 n=d#4 v=0
45240 On ch=1 n=d#3 v=60
45270 On ch=1 n=d#3 v=0
45360 On ch=1 n=g4 v=60
45480 On ch=1 n=d#4 v=60
45600 On ch=1 n=d#4 v=0
45600 On ch=1 n=g4 v=0
45600 On ch=1 n=g#3 v=60
45630 On ch=1 n=g#3 v=0
45720 On ch=1 n=g#4 v=60
45750 On ch=1 n=g#4 v=0
45840 On ch=1 n=d#4 v=60
45870 On ch=1 n=d#4 v=0
45960 On ch=1 n=d#3 v=60
45990 On ch=1 n=d#3 v=0
46080 On ch=1 n=a#4 v=60
46200 On ch=1 n=d#4 v=60
46320 On ch=1 n=d#4 v=0
46320 On ch=1 n=a#4 v=0
46320 On ch=1 n=g#3 v=60
46560 On ch=1 n=g#3 v=0
46680 On ch=1 n=c4 v=60
46680 On ch=1 n=g4 v=60
46710 On ch=1 n=g4 v=0
46710 On ch=1 n=c4 v=0
46800 On ch=1 n=c4 v=60
46800 On ch=1 n=g4 v=60
47040 On ch=1 n=g4 v=0
47040 On ch=1 n=c4 v=0
47040 On ch=1 n=b3 v=60
47040 On ch=1 n=g#4 v=60
47070 On ch=1 n=g#4 v=0
47070 On ch=1 n=b3 v=0
47160 On ch=1 n=b3 v=63
47160 On ch=1 n=g#4 v=63
47400 On ch=1 n=g#4 v=0
47400 On ch=1 n=b3 v=0
47400 On ch=1 n=a#3 v=69
47400 On ch=1 n=a#4 v=69
47430 On ch=1 n=a#4 v=0
47430 On ch=1 n=a#3 v=0
47520 On ch=1 n=a#3 v=72
47520 On ch=1 n=a#4 v=72
47760 On ch=1 n=a#4 v=0
47760 On ch=1 n=a#3 v=0
47760 On ch=1 n=d#4 v=79
47760 On ch=1 n=a#4 v=79
47790 On ch=1 n=a#4 v=0
47790 On ch=1 n=d#4 v=0
47880 On ch=1 n=a#4 v=82
47880 On ch=1 n=d#4 v=82
48120 On ch=1 n=d#4 v=0
48120 On ch=1 n=a#4 v=0
48120 On ch=1 n=c4 v=89
48120 On ch=1 n=c5 v=89
48150 On ch=1 n=c5 v=0
48150 On ch=1 n=c4 v=0
48240 On ch=1 n=c4 v=92
48240 On ch=1 n=c5 v=92
48480 On ch=1 n=c5 v=0
48480 On ch=1 n=c4 v=0
48480 On ch=1 n=f4 v=98
48480 On ch=1 n=c5 v=98
48510 On ch=1 n=c5 v=0
48510 On ch=1 n=f4 v=0
48600 On ch=1 n=f4 v=102
48600 On ch=1 n=c5 v=102
48840 On ch=1 n=c5 v=0
48840 On ch=1 n=f4 v=0
48840 On ch=1 n=d#4 v=108
48840 On ch=1 n=d#5 v=108
48870 On ch=1 n=d#5 v=0
48870 On ch=1 n=d#4 v=0
48960 On ch=1 n=d#4 v=111
48960 On ch=1 n=d#5 v=111
49200 On ch=1 n=d#5 v=0
49200 On ch=1 n=d#4 v=0
49200 On ch=1 n=d#5 v=118
49200 On ch=1 n=g#4 v=118
49320 On ch=1 n=g#4 v=0
49320 On ch=1 n=d#5 v=0
49320 On ch=1 n=g4 v=120
49320 On ch=1 n=d#5 v=120
49380 On ch=1 n=d#5 v=0
49380 On ch=1 n=g4 v=0
49800 On ch=1 n=d#3 v=60
49830 On ch=1 n=d#3 v=0
49920 On ch=1 n=g4 v=61
50040 On ch=1 n=d#4 v=62
50160 On ch=1 n=d#4 v=0
50160 On ch=1 n=g4 v=0
50160 On ch=1 n=g#3 v=63
50190 On ch=1 n=g#3 v=0
50280 On ch=1 n=g#4 v=64
50310 On ch=1 n=g#4 v=0
50400 On ch=1 n=d#4 v=65
50430 On ch=1 n=d#4 v=0
50520 On ch=1 n=d#3 v=65
50550 On ch=1 n=d#3 v=0
50640 On ch=1 n=a#4 v=66
50760 On ch=1 n=d#4 v=67
50880 On ch=1 n=d#4 v=0
50880 On ch=1 n=a#4 v=0
50880 On ch=1 n=g#3 v=68
50910 On ch=1 n=g#3 v=0
51000 On ch=1 n=g#4 v=69
51030 On ch=1 n=g#4 v=0
51120 On ch=1 n=d#4 v=70
51150 On ch=1 n=d#4 v=0
51240 On ch=1 n=d#3 v=70
51270 On ch=1 n=d#3 v=0
51360 On ch=1 n=g4 v=71
51480 On ch=1 n=d#4 v=72
51600 On ch=1 n=d#4 v=0
51600 On ch=1 n=g4 v=0
51600 On ch=1 n=g#3 v=73
51630 On ch=1 n=g#3 v=0
51720 On ch=1 n=g#4 v=74
51750 On ch=1 n=g#4 v=0
51840 On ch=1 n=d#4 v=75
51870 On ch=1 n=d#4 v=0
51960 On ch=1 n=d#3 v=76
51990 On ch=1 n=d#3 v=0
52080 On ch=1 n=a#4 v=76
52200 On ch=1 n=d#4 v=77
52320 On ch=1 n=d#4 v=0
52320 On ch=1 n=a#4 v=0
52320 On ch=1 n=g#3 v=78
52560 On ch=1 n=g#3 v=0
52680 On ch=1 n=f4 v=90
52800 On ch=1 n=c#5 v=81
52800 On ch=1 n=g#4 v=81
52920 On ch=1 n=g#4 v=0
52920 On ch=1 n=c#5 v=0
52920 On ch=1 n=c#5 v=82
52920 On ch=1 n=g#4 v=82
53040 On ch=1 n=g#4 v=0
53040 On ch=1 n=c#5 v=0
53040 On ch=1 n=f4 v=0
53040 On ch=1 n=e4 v=93
53160 On ch=1 n=c#5 v=84
53160 On ch=1 n=g4 v=84
53280 On ch=1 n=g4 v=0
53280 On ch=1 n=c#5 v=0
53280 On ch=1 n=c5 v=85
53280 On ch=1 n=g4 v=85
53400 On ch=1 n=g4 v=0
53400 On ch=1 n=c5 v=0
53400 On ch=1 n=e4 v=0
53400 On ch=1 n=d#4 v=97
53520 On ch=1 n=c5 v=88
53520 On ch=1 n=f#4 v=88
53640 On ch=1 n=f#4 v=0
53640 On ch=1 n=c5 v=0
53640 On ch=1 n=c5 v=89
53640 On ch=1 n=f#4 v=89
53760 On ch=1 n=f#4 v=0
53760 On ch=1 n=c5 v=0
53760 On ch=1 n=d#4 v=0
53760 On ch=1 n=c#4 v=100
53880 On ch=1 n=f4 v=91
53880 On ch=1 n=c5 v=91
54000 On ch=1 n=c5 v=0
54000 On ch=1 n=f4 v=0
54000 On ch=1 n=f4 v=92
54000 On ch=1 n=a#4 v=92
54120 On ch=1 n=a#4 v=0
54120 On ch=1 n=f4 v=0
54120 On ch=1 n=c#4 v=0
54120 On ch=1 n=d4 v=104
54240 On ch=1 n=a#4 v=95
54240 On ch=1 n=f4 v=95
54360 On ch=1 n=f4 v=0
54360 On ch=1 n=a#4 v=0
54360 On ch=1 n=f4 v=96
54360 On ch=1 n=b4 v=96
54480 On ch=1 n=b4 v=0
54480 On ch=1 n=f4 v=0
54480 On ch=1 n=d4 v=0
54480 On ch=1 n=d#4 v=107
54600 On ch=1 n=g#4 v=98
54600 On ch=1 n=c5 v=98
54720 On ch=1 n=c5 v=0
54720 On ch=1 n=g#4 v=0
54720 On ch=1 n=g#4 v=99
54720 On ch=1 n=c5 v=99
54840 On ch=1 n=c5 v=0
54840 On ch=1 n=g#4 v=0
54840 On ch=1 n=d#4 v=0
54840 On ch=1 n=d#3 v=110
54960 On ch=1 n=d#3 v=0
54960 On ch=1 n=c#5 v=100
54960 On ch=1 n=a#4 v=100
54960 On ch=1 n=d#4 v=100
55080 On ch=1 n=d#4 v=0
55080 On ch=1 n=a#4 v=0
55080 On ch=1 n=c#5 v=0
55080 On ch=1 n=d#4 v=100
55080 On ch=1 n=g4 v=100
55080 On ch=1 n=c#5 v=100
55200 On ch=1 n=c#5 v=0
55200 On ch=1 n=g4 v=0
55200 On ch=1 n=d#4 v=0
55200 On ch=1 n=g#3 v=110
55320 On ch=1 n=g#3 v=0
55320 On ch=1 n=c5 v=86
55320 On ch=1 n=g#4 v=86
55320 On ch=1 n=d#4 v=86
55440 On ch=1 n=d#4 v=0
55440 On ch=1 n=g#4 v=0
55440 On ch=1 n=c5 v=0
55440 On ch=1 n=d#4 v=71
55440 On ch=1 n=g#4 v=71
55440 On ch=1 n=c5 v=71
55560 On ch=1 n=c5 v=0
55560 On ch=1 n=g#4 v=0
55560 On ch=1 n=d#4 v=0
55560 On ch=1 n=f4 v=70
55680 On ch=1 n=c#5 v=60
55680 On ch=1 n=g#4 v=60
55800 On ch=1 n=g#4 v=0
55800 On ch=1 n=c#5 v=0
55800 On ch=1 n=c#5 v=60
55800 On ch=1 n=g#4 v=60
55920 On ch=1 n=g#4 v=0
55920 On ch=1 n=c#5 v=0
55920 On ch=1 n=f4 v=0
55920 On ch=1 n=e4 v=70
56040 On ch=1 n=c#5 v=60
56040 On ch=1 n=g4 v=60
56160 On ch=1 n=g4 v=0
56160 On ch=1 n=c#5 v=0
56160 On ch=1 n=c5 v=60
56160 On ch=1 n=g4 v=60
56280 On ch=1 n=g4 v=0
56280 On ch=1 n=c5 v=0
56280 On ch=1 n=e4 v=0
56280 On ch=1 n=d#4 v=70
56400 On ch=1 n=c5 v=89
56400 On ch=1 n=f#4 v=89
56520 On ch=1 n=f#4 v=0
56520 On ch=1 n=c5 v=0
56520 On ch=1 n=c5 v=110
56520 On ch=1 n=f#4 v=110
56640 On ch=1 n=f#4 v=0
56640 On ch=1 n=c5 v=0
56640 On ch=1 n=d#4 v=0
56640 On ch=1 n=c#4 v=117
56760 On ch=1 n=f4 v=103
56760 On ch=1 n=c5 v=103
56880 On ch=1 n=c5 v=0
56880 On ch=1 n=f4 v=0
56880 On ch=1 n=f4 v=99
56880 On ch=1 n=a#4 v=99
57000 On ch=1 n=a#4 v=0
57000 On ch=1 n=f4 v=0
57000 On ch=1 n=c#4 v=0
57000 On ch=1 n=d4 v=106
57120 On ch=1 n=a#4 v=92
57120 On ch=1 n=f4 v=92
57240 On ch=1 n=f4 v=0
57240 On ch=1 n=a#4 v=0
57240 On ch=1 n=f4 v=88
57240 On ch=1 n=b4 v=88
57360 On ch=1 n=b4 v=0
57360 On ch=1 n=f4 v=0
57360 On ch=1 n=d4 v=0
57360 On ch=1 n=d#3 v=94
57480 On ch=1 n=d#3 v=0
57480 On ch=1 n=c5 v=81
57480 On ch=1 n=g#4 v=81
57480 On ch=1 n=d#4 v=81
57600 On ch=1 n=d#4 v=0
57600 On ch=1 n=g#4 v=0
57600 On ch=1 n=c5 v=0
57600 On ch=1 n=d#4 v=77
57600 On ch=1 n=g#4 v=77
57600 On ch=1 n=c5 v=77
57720 On ch=1 n=c5 v=0
57720 On ch=1 n=g#4 v=0
57720 On ch=1 n=d#4 v=0
57720 On ch=1 n=d#3 v=83
57840 On ch=1 n=d#3 v=0
57840 On ch=1 n=c#5 v=69
57840 On ch=1 n=g4 v=69
57840 On ch=1 n=d#4 v=69
57960 On ch=1 n=d#4 v=0
57960 On ch=1 n=g4 v=0
57960 On ch=1 n=c#5 v=0
57960 On ch=1 n=d#4 v=66
57960 On ch=1 n=a#4 v=66
57960 On ch=1 n=c#5 v=66
58080 On ch=1 n=c#5 v=0
58080 On ch=1 n=a#4 v=0
58080 On ch=1 n=d#4 v=0
58080 On ch=1 n=g#3 v=72
58200 On ch=1 n=g#3 v=0
58200 On ch=1 n=c5 v=60
58200 On ch=1 n=d#4 v=60
58320 On ch=1 n=d#4 v=0
58320 On ch=1 n=c5 v=0
58320 Meta TrkEnd
TrkEnd
MTrk
0 Meta 0x21 00
0 Meta TrkName "Pedal"
0 PrCh ch=1 p=0
360 Par ch=1 c=64 v=127
600 Par ch=1 c=64 v=0
720 Par ch=1 c=64 v=127
960 Par ch=1 c=64 v=0
1080 Par ch=1 c=64 v=127
1320 Par ch=1 c=64 v=0
1440 Par ch=1 c=64 v=127
1680 Par ch=1 c=64 v=0
1800 Par ch=1 c=64 v=127
1980 Par ch=1 c=64 v=0
2160 Par ch=1 c=64 v=127
2400 Par ch=1 c=64 v=0
2520 Par ch=1 c=64 v=127
2760 Par ch=1 c=64 v=0
2880 Par ch=1 c=64 v=127
3120 Par ch=1 c=64 v=0
3240 Par ch=1 c=64 v=127
3480 Par ch=1 c=64 v=0
3600 Par ch=1 c=64 v=127
3780 Par ch=1 c=64 v=0
3960 Par ch=1 c=64 v=127
4200 Par ch=1 c=64 v=0
4320 Par ch=1 c=64 v=127
4500 Par ch=1 c=64 v=0
4680 Par ch=1 c=64 v=127
4860 Par ch=1 c=64 v=0
5040 Par ch=1 c=64 v=127
5280 Par ch=1 c=64 v=0
5400 Par ch=1 c=64 v=127
5640 Par ch=1 c=64 v=0
5760 Par ch=1 c=64 v=127
5880 Par ch=1 c=64 v=0
6120 Par ch=1 c=64 v=127
6360 Par ch=1 c=64 v=0
6480 Par ch=1 c=64 v=127
6660 Par ch=1 c=64 v=0
6840 Par ch=1 c=64 v=127
7080 Par ch=1 c=64 v=0
7200 Par ch=1 c=64 v=127
7380 Par ch=1 c=64 v=0
7560 Par ch=1 c=64 v=127
7740 Par ch=1 c=64 v=0
7920 Par ch=1 c=64 v=127
8100 Par ch=1 c=64 v=0
8280 Par ch=1 c=64 v=127
8520 Par ch=1 c=64 v=0
8640 Par ch=1 c=64 v=127
8820 Par ch=1 c=64 v=0
9000 Par ch=1 c=64 v=127
9240 Par ch=1 c=64 v=0
9360 Par ch=1 c=64 v=127
9540 Par ch=1 c=64 v=0
9720 Par ch=1 c=64 v=127
9960 Par ch=1 c=64 v=0
10080 Par ch=1 c=64 v=127
10260 Par ch=1 c=64 v=0
10440 Par ch=1 c=64 v=127
10620 Par ch=1 c=64 v=0
10800 Par ch=1 c=64 v=127
11040 Par ch=1 c=64 v=0
11160 Par ch=1 c=64 v=127
11400 Par ch=1 c=64 v=0
11520 Par ch=1 c=64 v=127
11640 Par ch=1 c=64 v=0
11880 Par ch=1 c=64 v=127
12060 Par ch=1 c=64 v=0
12240 Par ch=1 c=64 v=127
12420 Par ch=1 c=64 v=0
12600 Par ch=1 c=64 v=127
12780 Par ch=1 c=64 v=0
12960 Par ch=1 c=64 v=127
13140 Par ch=1 c=64 v=0
13320 Par ch=1 c=64 v=127
13500 Par ch=1 c=64 v=0
13680 Par ch=1 c=64 v=127
13860 Par ch=1 c=64 v=0
14040 Par ch=1 c=64 v=127
14220 Par ch=1 c=64 v=0
14400 Par ch=1 c=64 v=127
14580 Par ch=1 c=64 v=0
14760 Par ch=1 c=64 v=127
14940 Par ch=1 c=64 v=0
15120 Par ch=1 c=64 v=127
15300 Par ch=1 c=64 v=0
15480 Par ch=1 c=64 v=127
15660 Par ch=1 c=64 v=0
15840 Par ch=1 c=64 v=127
16020 Par ch=1 c=64 v=0
16200 Par ch=1 c=64 v=127
16380 Par ch=1 c=64 v=0
16560 Par ch=1 c=64 v=127
16740 Par ch=1 c=64 v=0
16920 Par ch=1 c=64 v=127
17100 Par ch=1 c=64 v=0
17280 Par ch=1 c=64 v=127
17520 Par ch=1 c=64 v=0
17640 Par ch=1 c=64 v=127
17880 Par ch=1 c=64 v=0
18000 Par ch=1 c=64 v=127
18180 Par ch=1 c=64 v=0
18360 Par ch=1 c=64 v=127
18600 Par ch=1 c=64 v=0
18720 Par ch=1 c=64 v=127
18900 Par ch=1 c=64 v=0
19080 Par ch=1 c=64 v=127
19260 Par ch=1 c=64 v=0
19440 Par ch=1 c=64 v=127
19680 Par ch=1 c=64 v=0
19800 Par ch=1 c=64 v=127
20040 Par ch=1 c=64 v=0
20160 Par ch=1 c=64 v=127
20400 Par ch=1 c=64 v=0
20520 Par ch=1 c=64 v=127
20760 Par ch=1 c=64 v=0
20880 Par ch=1 c=64 v=127
21060 Par ch=1 c=64 v=0
21240 Par ch=1 c=64 v=127
21480 Par ch=1 c=64 v=0
21600 Par ch=1 c=64 v=127
21780 Par ch=1 c=64 v=0
21960 Par ch=1 c=64 v=127
22140 Par ch=1 c=64 v=0
22320 Par ch=1 c=64 v=127
22560 Par ch=1 c=64 v=0
22680 Par ch=1 c=64 v=127
22920 Par ch=1 c=64 v=0
23040 Par ch=1 c=64 v=127
23160 Par ch=1 c=64 v=0
23400 Par ch=1 c=64 v=127
23580 Par ch=1 c=64 v=0
23760 Par ch=1 c=64 v=127
23940 Par ch=1 c=64 v=0
24120 Par ch=1 c=64 v=127
24300 Par ch=1 c=64 v=0
24480 Par ch=1 c=64 v=127
24660 Par ch=1 c=64 v=0
24840 Par ch=1 c=64 v=127
25020 Par ch=1 c=64 v=0
25200 Par ch=1 c=64 v=127
25380 Par ch=1 c=64 v=0
25560 Par ch=1 c=64 v=127
25740 Par ch=1 c=64 v=0
25920 Par ch=1 c=64 v=127
26100 Par ch=1 c=64 v=0
26280 Par ch=1 c=64 v=127
26460 Par ch=1 c=64 v=0
26640 Par ch=1 c=64 v=127
26820 Par ch=1 c=64 v=0
27000 Par ch=1 c=64 v=127
27180 Par ch=1 c=64 v=0
27360 Par ch=1 c=64 v=127
27540 Par ch=1 c=64 v=0
27720 Par ch=1 c=64 v=127
27900 Par ch=1 c=64 v=0
28080 Par ch=1 c=64 v=127
28260 Par ch=1 c=64 v=0
28440 Par ch=1 c=64 v=127
28620 Par ch=1 c=64 v=0
28800 Par ch=1 c=64 v=127
29040 Par ch=1 c=64 v=0
29160 Par ch=1 c=64 v=127
29400 Par ch=1 c=64 v=0
29520 Par ch=1 c=64 v=127
29700 Par ch=1 c=64 v=0
29880 Par ch=1 c=64 v=127
30120 Par ch=1 c=64 v=0
30240 Par ch=1 c=64 v=127
30420 Par ch=1 c=64 v=0
30600 Par ch=1 c=64 v=127
30780 Par ch=1 c=64 v=0
30960 Par ch=1 c=64 v=127
31200 Par ch=1 c=64 v=0
31320 Par ch=1 c=64 v=127
31560 Par ch=1 c=64 v=0
31680 Par ch=1 c=64 v=127
31920 Par ch=1 c=64 v=0
32040 Par ch=1 c=64 v=127
32280 Par ch=1 c=64 v=0
32400 Par ch=1 c=64 v=127
32580 Par ch=1 c=64 v=0
32760 Par ch=1 c=64 v=127
33000 Par ch=1 c=64 v=0
33120 Par ch=1 c=64 v=127
33300 Par ch=1 c=64 v=0
33480 Par ch=1 c=64 v=127
33660 Par ch=1 c=64 v=0
33840 Par ch=1 c=64 v=127
34080 Par ch=1 c=64 v=0
34200 Par ch=1 c=64 v=127
34440 Par ch=1 c=64 v=0
34560 Par ch=1 c=64 v=127
34680 Par ch=1 c=64 v=0
34920 Par ch=1 c=64 v=127
35160 Par ch=1 c=64 v=0
35280 Par ch=1 c=64 v=127
35520 Par ch=1 c=64 v=0
35640 Par ch=1 c=64 v=127
35880 Par ch=1 c=64 v=0
36000 Par ch=1 c=64 v=127
36240 Par ch=1 c=64 v=0
36360 Par ch=1 c=64 v=127
36600 Par ch=1 c=64 v=0
36720 Par ch=1 c=64 v=127
36960 Par ch=1 c=64 v=0
37080 Par ch=1 c=64 v=127
37320 Par ch=1 c=64 v=0
37440 Par ch=1 c=64 v=127
37680 Par ch=1 c=64 v=0
37800 Par ch=1 c=64 v=127
38040 Par ch=1 c=64 v=0
38160 Par ch=1 c=64 v=127
38400 Par ch=1 c=64 v=0
38520 Par ch=1 c=64 v=127
38760 Par ch=1 c=64 v=0
38880 Par ch=1 c=64 v=127
39120 Par ch=1 c=64 v=0
39240 Par ch=1 c=64 v=127
39480 Par ch=1 c=64 v=0
39600 Par ch=1 c=64 v=127
39840 Par ch=1 c=64 v=0
39960 Par ch=1 c=64 v=127
40200 Par ch=1 c=64 v=0
43320 Par ch=1 c=64 v=127
43560 Par ch=1 c=64 v=0
43800 Par ch=1 c=64 v=127
44040 Par ch=1 c=64 v=0
44160 Par ch=1 c=64 v=127
44400 Par ch=1 c=64 v=0
44520 Par ch=1 c=64 v=127
44760 Par ch=1 c=64 v=0
44880 Par ch=1 c=64 v=127
45120 Par ch=1 c=64 v=0
45240 Par ch=1 c=64 v=127
45480 Par ch=1 c=64 v=0
45600 Par ch=1 c=64 v=127
45840 Par ch=1 c=64 v=0
45960 Par ch=1 c=64 v=127
46200 Par ch=1 c=64 v=0
49320 Par ch=1 c=64 v=127
49560 Par ch=1 c=64 v=0
49800 Par ch=1 c=64 v=127
50040 Par ch=1 c=64 v=0
50160 Par ch=1 c=64 v=127
50400 Par ch=1 c=64 v=0
50520 Par ch=1 c=64 v=127
50760 Par ch=1 c=64 v=0
50880 Par ch=1 c=64 v=127
51120 Par ch=1 c=64 v=0
51240 Par ch=1 c=64 v=127
51480 Par ch=1 c=64 v=0
51600 Par ch=1 c=64 v=127
51840 Par ch=1 c=64 v=0
51960 Par ch=1 c=64 v=127
52200 Par ch=1 c=64 v=0
52680 Par ch=1 c=64 v=127
52920 Par ch=1 c=64 v=0
53040 Par ch=1 c=64 v=127
53160 Par ch=1 c=64 v=0
53400 Par ch=1 c=64 v=127
53640 Par ch=1 c=64 v=0
53760 Par ch=1 c=64 v=127
53880 Par ch=1 c=64 v=0
54120 Par ch=1 c=64 v=127
54240 Par ch=1 c=64 v=0
54480 Par ch=1 c=64 v=127
54720 Par ch=1 c=64 v=0
54840 Par ch=1 c=64 v=127
55080 Par ch=1 c=64 v=0
55200 Par ch=1 c=64 v=127
55440 Par ch=1 c=64 v=0
55560 Par ch=1 c=64 v=127
55800 Par ch=1 c=64 v=0
55920 Par ch=1 c=64 v=127
56040 Par ch=1 c=64 v=0
56280 Par ch=1 c=64 v=127
56520 Par ch=1 c=64 v=0
56640 Par ch=1 c=64 v=127
56760 Par ch=1 c=64 v=0
57000 Par ch=1 c=64 v=127
57120 Par ch=1 c=64 v=0
57360 Par ch=1 c=64 v=127
57600 Par ch=1 c=64 v=0
57720 Par ch=1 c=64 v=127
57960 Par ch=1 c=64 v=0
58080 Par ch=1 c=64 v=127
58380 Par ch=1 c=64 v=0
58380 Meta TrkEnd
TrkEnd
MTrk
0 Meta 0x21 00
0 Meta TrkName "F. Chopin Valse No. 09 in Ab Op. 69-1"
0 Meta TrkEnd
TrkEnd
MTrk
0 Meta 0x21 00
0 Meta TrkName "Jeruen E. Dery jawjaw@hotmail.com"
0 Meta TrkEnd
TrkEnd
