MFile 1 7 120
MTrk
0 Meta SeqName ""
0 Meta Text "\n"
0 TimeSig 3/4 24 8
0 KeySig -6 major
0 Tempo 240000
11525 Tempo 240925
11528 Tempo 241857
11530 Tempo 243270
11533 Tempo 244220
11536 Tempo 245660
11539 Tempo 246629
11541 Tempo 248098
11544 Tempo 249087
11547 Tempo 250083
11550 Tempo 251593
11552 Tempo 252610
11555 Tempo 254151
11558 Tempo 255189
11560 Tempo 256761
11563 Tempo 257821
11566 Tempo 259426
11569 Tempo 260507
11571 Tempo 261597
11574 Tempo 263250
11577 Tempo 264364
11580 Tempo 266052
11582 Tempo 267189
11585 Tempo 268914
11588 Tempo 270076
11590 Tempo 271838
11593 Tempo 273025
11596 Tempo 274223
11599 Tempo 276040
11601 Tempo 277264
11604 Tempo 279122
11607 Tempo 280374
11610 Tempo 282273
11612 Tempo 283554
11615 Tempo 285497
11618 Tempo 286807
11620 Tempo 288129
11623 Tempo 290135
11626 Tempo 291489
11629 Tempo 293542
11631 Tempo 294927
11634 Tempo 297030
11637 Tempo 298448
11640 Tempo 300601
11642 Tempo 302054
11645 Tempo 303521
11648 Tempo 305748
11650 Tempo 307251
11653 Tempo 309534
11656 Tempo 311074
11659 Tempo 313414
11661 Tempo 314994
11664 Tempo 317393
11667 Tempo 319013
11670 Tempo 320650
11672 Tempo 323137
11675 Tempo 324816
11678 Tempo 327368
11680 Tempo 329092
11683 Tempo 331712
11686 Tempo 333482
11689 Tempo 336172
11691 Tempo 337990
11694 Tempo 339828
11697 Tempo 342622
11700 Tempo 344511
11702 Tempo 347383
11705 Tempo 349325
11708 Tempo 352278
11710 Tempo 354275
11713 Tempo 356295
11716 Tempo 359368
11719 Tempo 361446
11721 Tempo 364609
11724 Tempo 366748
11727 Tempo 370005
11730 Tempo 372208
11732 Tempo 375563
11735 Tempo 377834
11738 Tempo 380132
11740 Tempo 383632
11743 Tempo 386001
11746 Tempo 389610
11749 Tempo 392054
11751 Tempo 395778
11754 Tempo 398301
11757 Tempo 402145
11760 Tempo 404746
11762 Tempo 407387
11765 Tempo 411410
11768 Tempo 414136
11770 Tempo 418293
11773 Tempo 421112
11776 Tempo 425411
11779 Tempo 428327
11781 Tempo 432776
11784 Tempo 435793
11787 Tempo 438853
11790 Tempo 443525
11792 Tempo 446694
11795 Tempo 451535
11798 Tempo 454821
11800 Tempo 459841
11803 Tempo 463249
11806 Tempo 468457
11809 Tempo 471995
11811 Tempo 475587
11814 Tempo 481078
11817 Tempo 484809
11820 Tempo 490517
11822 Tempo 494397
11825 Tempo 500334
11828 Tempo 504371
11830 Tempo 510551
11833 Tempo 514756
11836 Tempo 519031
11839 Tempo 525578
11841 Tempo 530035
11844 Tempo 536865
11847 Tempo 541516
11850 Tempo 548647
11852 Tempo 553506
11855 Tempo 560957
11858 Tempo 566038
11860 Tempo 571211
11863 Tempo 579151
11866 Tempo 584567
11869 Tempo 592885
11871 Tempo 598563
11874 Tempo 607287
11877 Tempo 613246
11880 Tempo 625000
28980 Tempo 240000
34202 Tempo 240925
34205 Tempo 241857
34208 Tempo 243270
34210 Tempo 244220
34213 Tempo 245660
34216 Tempo 246629
34219 Tempo 247606
34221 Tempo 249087
34224 Tempo 250083
34227 Tempo 251593
34230 Tempo 252610
34232 Tempo 254151
34235 Tempo 255189
34238 Tempo 256235
34240 Tempo 257821
34243 Tempo 258889
34246 Tempo 260507
34249 Tempo 261597
34251 Tempo 262697
34254 Tempo 264364
34257 Tempo 264719
34260 Tempo 267189
34262 Tempo 268336
34265 Tempo 270076
34268 Tempo 271248
34270 Tempo 272430
34273 Tempo 274223
34276 Tempo 275432
34279 Tempo 277264
34281 Tempo 278500
34284 Tempo 279746
34287 Tempo 281637
34290 Tempo 282912
34292 Tempo 284846
34295 Tempo 286150
34298 Tempo 288129
34300 Tempo 289464
34303 Tempo 290810
34306 Tempo 292854
34309 Tempo 294233
34311 Tempo 296326
34314 Tempo 297737
34317 Tempo 299162
34320 Tempo 301326
34322 Tempo 302786
34325 Tempo 305002
34328 Tempo 306498
34330 Tempo 308769
34333 Tempo 310302
34336 Tempo 311850
34339 Tempo 314202
34341 Tempo 315789
34344 Tempo 318201
34347 Tempo 319829
34350 Tempo 321474
34352 Tempo 323974
34355 Tempo 325662
34358 Tempo 328228
34360 Tempo 329960
34363 Tempo 332594
34366 Tempo 334374
34369 Tempo 336172
34371 Tempo 338906
34374 Tempo 340754
34377 Tempo 343564
34380 Tempo 345463
34382 Tempo 347383
34385 Tempo 350304
34388 Tempo 352278
34390 Tempo 355282
34393 Tempo 357313
34396 Tempo 360404
34399 Tempo 362494
34401 Tempo 364609
34404 Tempo 367827
34407 Tempo 370005
34410 Tempo 373320
34412 Tempo 375563
34415 Tempo 377834
34418 Tempo 381291
34420 Tempo 383632
34423 Tempo 387197
34426 Tempo 389610
34429 Tempo 393288
34431 Tempo 395778
34434 Tempo 398301
34437 Tempo 402145
34440 Tempo 404746
34442 Tempo 408719
34445 Tempo 411410
34448 Tempo 414136
34450 Tempo 418293
34453 Tempo 421112
34456 Tempo 425411
34459 Tempo 428327
34461 Tempo 432776
34464 Tempo 435793
34467 Tempo 438853
34470 Tempo 443525
34472 Tempo 446694
34475 Tempo 451535
34478 Tempo 454821
34480 Tempo 458155
34483 Tempo 463249
34486 Tempo 466708
34489 Tempo 471995
34491 Tempo 475587
34494 Tempo 481078
34497 Tempo 484809
34500 Tempo 488599
34502 Tempo 494397
34505 Tempo 498339
34508 Tempo 504371
34510 Tempo 508475
34513 Tempo 512645
34516 Tempo 519031
34519 Tempo 523378
34521 Tempo 530035
34524 Tempo 534569
34527 Tempo 541516
34530 Tempo 546249
34532 Tempo 551065
34535 Tempo 558451
34538 Tempo 563486
34540 Tempo 571211
34543 Tempo 576480
34546 Tempo 581846
34549 Tempo 590087
34551 Tempo 595711
34554 Tempo 604351
34557 Tempo 610252
34560 Tempo 625000
34560 Meta TrkEnd
TrkEnd
MTrk
0 Meta 0x21 00
0 Meta TrkName "Right Treble"
0 PrCh ch=1 p=0
150 On ch=1 n=f#6 v=100
165 On ch=1 n=f#6 v=0
165 On ch=1 n=g#6 v=100
180 On ch=1 n=g#6 v=0
180 On ch=1 n=f#6 v=100
240 On ch=1 n=f#6 v=0
240 On ch=1 n=f6 v=100
300 On ch=1 n=f6 v=0
300 On ch=1 n=d#6 v=100
360 On ch=1 n=d#6 v=0
360 On ch=1 n=c#6 v=100
380 On ch=1 n=c#6 v=0
380 On ch=1 n=d#6 v=100
400 On ch=1 n=d#6 v=0
400 On ch=1 n=c#6 v=100
420 On ch=1 n=c#6 v=0
420 On ch=1 n=c6 v=100
480 On ch=1 n=c6 v=0
480 On ch=1 n=c#6 v=100
540 On ch=1 n=c#6 v=0
540 On ch=1 n=f6 v=100
600 On ch=1 n=f6 v=0
600 On ch=1 n=g#6 v=100
660 On ch=1 n=g#6 v=0
660 On ch=1 n=b6 v=100
720 On ch=1 n=b6 v=0
720 On ch=1 n=d#7 v=100
760 On ch=1 n=d#7 v=0
760 On ch=1 n=f7 v=100
800 On ch=1 n=f7 v=0
800 On ch=1 n=d#7 v=100
840 On ch=1 n=d#7 v=0
840 On ch=1 n=c#7 v=100
900 On ch=1 n=c#7 v=0
900 On ch=1 n=f#6 v=100
960 On ch=1 n=f#6 v=0
960 On ch=1 n=a#7 v=100
1080 On ch=1 n=a#7 v=0
1080 On ch=1 n=c#7 v=100
1120 On ch=1 n=c#7 v=0
1120 On ch=1 n=d#7 v=100
1160 On ch=1 n=d#7 v=0
1160 On ch=1 n=c#7 v=100
1200 On ch=1 n=c#7 v=0
1200 On ch=1 n=b6 v=100
1260 On ch=1 n=b6 v=0
1260 On ch=1 n=f6 v=100
1320 On ch=1 n=f6 v=0
1320 On ch=1 n=g#7 v=100
1440 On ch=1 n=g#7 v=0
1440 On ch=1 n=g#6 v=100
1480 On ch=1 n=g#6 v=0
1480 On ch=1 n=a#6 v=100
1520 On ch=1 n=a#6 v=0
1520 On ch=1 n=g#6 v=100
1560 On ch=1 n=g#6 v=0
1560 On ch=1 n=f#6 v=100
1620 On ch=1 n=f#6 v=0
1620 On ch=1 n=c#6 v=100
1680 On ch=1 n=c#6 v=0
1680 On ch=1 n=f#7 v=100
1800 On ch=1 n=f#7 v=0
1800 On ch=1 n=c#6 v=100
1820 On ch=1 n=c#6 v=0
1820 On ch=1 n=d#6 v=100
1840 On ch=1 n=d#6 v=0
1840 On ch=1 n=c#6 v=100
1860 On ch=1 n=c#6 v=0
1860 On ch=1 n=c6 v=100
1920 On ch=1 n=c6 v=0
1920 On ch=1 n=c#6 v=100
1980 On ch=1 n=c#6 v=0
1980 On ch=1 n=f6 v=100
2040 On ch=1 n=f6 v=0
2040 On ch=1 n=g#6 v=100
2100 On ch=1 n=g#6 v=0
2100 On ch=1 n=b6 v=100
2160 On ch=1 n=b6 v=0
2160 On ch=1 n=d#7 v=100
2200 On ch=1 n=d#7 v=0
2200 On ch=1 n=f7 v=100
2240 On ch=1 n=f7 v=0
2240 On ch=1 n=d#7 v=100
2280 On ch=1 n=d#7 v=0
2280 On ch=1 n=c#7 v=100
2340 On ch=1 n=c#7 v=0
2340 On ch=1 n=f#6 v=100
2400 On ch=1 n=f#6 v=0
2400 On ch=1 n=a#7 v=100
2520 On ch=1 n=a#7 v=0
2520 On ch=1 n=c#7 v=100
2560 On ch=1 n=c#7 v=0
2560 On ch=1 n=d#7 v=100
2600 On ch=1 n=d#7 v=0
2600 On ch=1 n=c#7 v=100
2640 On ch=1 n=c#7 v=0
2640 On ch=1 n=b6 v=100
2700 On ch=1 n=b6 v=0
2700 On ch=1 n=f6 v=100
2760 On ch=1 n=f6 v=0
2760 On ch=1 n=g#7 v=100
2820 On ch=1 n=g#7 v=0
2820 On ch=1 n=f6 v=100
2880 On ch=1 n=f6 v=0
2880 On ch=1 n=f#6 v=100
3030 On ch=1 n=f#6 v=82
3045 On ch=1 n=f#6 v=0
3045 On ch=1 n=g#6 v=80
3060 On ch=1 n=g#6 v=0
3060 On ch=1 n=f#6 v=0
3060 On ch=1 n=f#6 v=78
3120 On ch=1 n=f#6 v=0
3120 On ch=1 n=f6 v=71
3180 On ch=1 n=f6 v=0
3180 On ch=1 n=d#6 v=63
3240 On ch=1 n=d#6 v=0
3240 On ch=1 n=c#6 v=60
3260 On ch=1 n=c#6 v=0
3260 On ch=1 n=d#6 v=60
3280 On ch=1 n=d#6 v=0
3280 On ch=1 n=c#6 v=60
3300 On ch=1 n=c#6 v=0
3300 On ch=1 n=c6 v=60
3360 On ch=1 n=c6 v=0
3360 On ch=1 n=c#6 v=60
3420 On ch=1 n=c#6 v=0
3420 On ch=1 n=f6 v=60
3480 On ch=1 n=f6 v=0
3480 On ch=1 n=g#6 v=60
3540 On ch=1 n=g#6 v=0
3540 On ch=1 n=b6 v=60
3600 On ch=1 n=b6 v=0
3600 On ch=1 n=d#7 v=60
3640 On ch=1 n=d#7 v=0
3640 On ch=1 n=f7 v=60
3680 On ch=1 n=f7 v=0
3680 On ch=1 n=d#7 v=60
3720 On ch=1 n=d#7 v=0
3720 On ch=1 n=c#7 v=60
3780 On ch=1 n=c#7 v=0
3780 On ch=1 n=f#6 v=60
3840 On ch=1 n=f#6 v=0
3840 On ch=1 n=a#7 v=60
3960 On ch=1 n=a#7 v=0
3960 On ch=1 n=c#7 v=60
4000 On ch=1 n=c#7 v=0
4000 On ch=1 n=d#7 v=60
4040 On ch=1 n=d#7 v=0
4040 On ch=1 n=c#7 v=60
4080 On ch=1 n=c#7 v=0
4080 On ch=1 n=b6 v=60
4140 On ch=1 n=b6 v=0
4140 On ch=1 n=f6 v=60
4200 On ch=1 n=f6 v=0
4200 On ch=1 n=g#7 v=60
4320 On ch=1 n=g#7 v=0
4320 On ch=1 n=g#6 v=60
4360 On ch=1 n=g#6 v=0
4360 On ch=1 n=a#6 v=60
4400 On ch=1 n=a#6 v=0
4400 On ch=1 n=g#6 v=60
4440 On ch=1 n=g#6 v=0
4440 On ch=1 n=f#6 v=60
4500 On ch=1 n=f#6 v=0
4500 On ch=1 n=c#6 v=60
4560 On ch=1 n=c#6 v=0
4560 On ch=1 n=f#7 v=60
4680 On ch=1 n=f#7 v=0
4680 On ch=1 n=c#6 v=60
4700 On ch=1 n=c#6 v=0
4700 On ch=1 n=d#6 v=60
4720 On ch=1 n=d#6 v=0
4720 On ch=1 n=c#6 v=60
4740 On ch=1 n=c#6 v=0
4740 On ch=1 n=c6 v=60
4800 On ch=1 n=c6 v=0
4800 On ch=1 n=c#6 v=60
4860 On ch=1 n=c#6 v=0
4860 On ch=1 n=f6 v=60
4920 On ch=1 n=f6 v=0
4920 On ch=1 n=g#6 v=60
4980 On ch=1 n=g#6 v=0
4980 On ch=1 n=b6 v=60
5040 On ch=1 n=b6 v=0
5040 On ch=1 n=d#7 v=60
5080 On ch=1 n=d#7 v=0
5080 On ch=1 n=f7 v=60
5120 On ch=1 n=f7 v=0
5120 On ch=1 n=d#7 v=60
5160 On ch=1 n=d#7 v=0
5160 On ch=1 n=c#7 v=60
5220 On ch=1 n=c#7 v=0
5220 On ch=1 n=f#6 v=60
5280 On ch=1 n=f#6 v=0
5280 On ch=1 n=a#7 v=60
5400 On ch=1 n=a#7 v=0
5400 On ch=1 n=c#7 v=60
5440 On ch=1 n=c#7 v=0
5440 On ch=1 n=d#7 v=60
5480 On ch=1 n=d#7 v=0
5480 On ch=1 n=c#7 v=60
5520 On ch=1 n=c#7 v=0
5520 On ch=1 n=b6 v=60
5580 On ch=1 n=b6 v=0
5580 On ch=1 n=f6 v=60
5640 On ch=1 n=f6 v=0
5640 On ch=1 n=g#7 v=60
5700 On ch=1 n=g#7 v=0
5700 On ch=1 n=f6 v=60
5760 On ch=1 n=f6 v=0
5760 On ch=1 n=f#6 v=60
5940 On ch=1 n=f#6 v=0
5940 On ch=1 n=f6 v=82
5985 On ch=1 n=g#6 v=88
6000 On ch=1 n=g#6 v=0
6000 On ch=1 n=f6 v=0
6000 On ch=1 n=f#6 v=89
6060 On ch=1 n=f#6 v=0
6060 On ch=1 n=d#6 v=97
6120 On ch=1 n=d#6 v=0
6120 On ch=1 n=c6 v=100
6180 On ch=1 n=c6 v=0
6180 On ch=1 n=d#6 v=100
6240 On ch=1 n=d#6 v=0
6240 On ch=1 n=g#6 v=100
6300 On ch=1 n=g#6 v=0
6300 On ch=1 n=c7 v=100
6360 On ch=1 n=c7 v=0
6360 On ch=1 n=d#7 v=100
6420 On ch=1 n=d#7 v=0
6420 On ch=1 n=d#8 v=100
6480 On ch=1 n=d#8 v=0
6480 On ch=1 n=f8 v=100
6540 On ch=1 n=f8 v=0
6540 On ch=1 n=c#8 v=100
6600 On ch=1 n=c#8 v=0
6600 On ch=1 n=g#7 v=100
6660 On ch=1 n=g#7 v=0
6660 On ch=1 n=f7 v=100
6720 On ch=1 n=f7 v=0
6720 On ch=1 n=c#7 v=100
6780 On ch=1 n=c#7 v=0
6780 On ch=1 n=g#6 v=100
6810 On ch=1 n=d#7 v=100
6825 On ch=1 n=d#7 v=0
6825 On ch=1 n=f7 v=100
6840 On ch=1 n=f7 v=0
6840 On ch=1 n=g#6 v=0
6840 On ch=1 n=d#7 v=100
6900 On ch=1 n=d#7 v=0
6900 On ch=1 n=g6 v=100
6960 On ch=1 n=g6 v=0
6960 On ch=1 n=g#6 v=100
7020 On ch=1 n=g#6 v=0
7020 On ch=1 n=c6 v=100
7080 On ch=1 n=c6 v=0
7080 On ch=1 n=g#7 v=100
7170 On ch=1 n=c#7 v=100
7185 On ch=1 n=c#7 v=0
7185 On ch=1 n=f7 v=100
7200 On ch=1 n=f7 v=0
7200 On ch=1 n=g#7 v=0
7200 On ch=1 n=c#7 v=100
7260 On ch=1 n=c#7 v=0
7260 On ch=1 n=g6 v=100
7320 On ch=1 n=g6 v=0
7320 On ch=1 n=g#6 v=100
7380 On ch=1 n=g#6 v=0
7380 On ch=1 n=c#6 v=100
7440 On ch=1 n=c#6 v=0
7440 On ch=1 n=g#7 v=100
7560 On ch=1 n=g#7 v=0
7560 On ch=1 n=c6 v=100
7620 On ch=1 n=c6 v=0
7620 On ch=1 n=d#6 v=100
7680 On ch=1 n=d#6 v=0
7680 On ch=1 n=g#6 v=100
7740 On ch=1 n=g#6 v=0
7740 On ch=1 n=c7 v=100
7800 On ch=1 n=c7 v=0
7800 On ch=1 n=d#7 v=100
7860 On ch=1 n=d#7 v=0
7860 On ch=1 n=d#8 v=100
7920 On ch=1 n=d#8 v=0
7920 On ch=1 n=f8 v=100
7980 On ch=1 n=f8 v=0
7980 On ch=1 n=c#8 v=100
8040 On ch=1 n=c#8 v=0
8040 On ch=1 n=g#7 v=100
8100 On ch=1 n=g#7 v=0
8100 On ch=1 n=f7 v=100
8160 On ch=1 n=f7 v=0
8160 On ch=1 n=c#7 v=100
8220 On ch=1 n=c#7 v=0
8220 On ch=1 n=g#6 v=100
8250 On ch=1 n=d#7 v=100
8265 On ch=1 n=d#7 v=0
8265 On ch=1 n=f7 v=100
8280 On ch=1 n=f7 v=0
8280 On ch=1 n=g#6 v=0
8280 On ch=1 n=d#7 v=100
8340 On ch=1 n=d#7 v=0
8340 On ch=1 n=g6 v=100
8400 On ch=1 n=g6 v=0
8400 On ch=1 n=g#6 v=100
8460 On ch=1 n=g#6 v=0
8460 On ch=1 n=c6 v=100
8520 On ch=1 n=c6 v=0
8520 On ch=1 n=g#7 v=100
8580 On ch=1 n=g#7 v=0
8580 On ch=1 n=c6 v=100
8640 On ch=1 n=c6 v=0
8640 On ch=1 n=c#6 v=100
8820 On ch=1 n=c#6 v=0
8820 On ch=1 n=c#6 v=78
8840 On ch=1 n=c#6 v=0
8840 On ch=1 n=d#6 v=76
8860 On ch=1 n=d#6 v=0
8860 On ch=1 n=c#6 v=73
8880 On ch=1 n=c#6 v=0
8880 On ch=1 n=c6 v=71
8940 On ch=1 n=c6 v=0
8940 On ch=1 n=a#5 v=63
9000 On ch=1 n=a#5 v=0
9000 On ch=1 n=c6 v=60
9060 On ch=1 n=c6 v=0
9060 On ch=1 n=d#6 v=60
9120 On ch=1 n=d#6 v=0
9120 On ch=1 n=g#6 v=60
9180 On ch=1 n=g#6 v=0
9180 On ch=1 n=c7 v=60
9240 On ch=1 n=c7 v=0
9240 On ch=1 n=d#7 v=60
9300 On ch=1 n=d#7 v=0
9300 On ch=1 n=d#8 v=60
9360 On ch=1 n=d#8 v=0
9360 On ch=1 n=f8 v=60
9420 On ch=1 n=f8 v=0
9420 On ch=1 n=c#8 v=60
9480 On ch=1 n=c#8 v=0
9480 On ch=1 n=g#7 v=60
9540 On ch=1 n=g#7 v=0
9540 On ch=1 n=f7 v=60
9600 On ch=1 n=f7 v=0
9600 On ch=1 n=c#7 v=60
9660 On ch=1 n=c#7 v=0
9660 On ch=1 n=g#6 v=60
9690 On ch=1 n=d#7 v=60
9705 On ch=1 n=d#7 v=0
9705 On ch=1 n=f7 v=60
9720 On ch=1 n=f7 v=0
9720 On ch=1 n=g#6 v=0
9720 On ch=1 n=d#7 v=60
9780 On ch=1 n=d#7 v=0
9780 On ch=1 n=g6 v=60
9840 On ch=1 n=g6 v=0
9840 On ch=1 n=g#6 v=60
9900 On ch=1 n=g#6 v=0
9900 On ch=1 n=c6 v=60
9960 On ch=1 n=c6 v=0
9960 On ch=1 n=g#7 v=60
10050 On ch=1 n=c#7 v=60
10065 On ch=1 n=c#7 v=0
10065 On ch=1 n=f7 v=60
10080 On ch=1 n=f7 v=0
10080 On ch=1 n=g#7 v=0
10080 On ch=1 n=c#7 v=60
10140 On ch=1 n=c#7 v=0
10140 On ch=1 n=g6 v=60
10200 On ch=1 n=g6 v=0
10200 On ch=1 n=g#6 v=60
10260 On ch=1 n=g#6 v=0
10260 On ch=1 n=c#6 v=60
10320 On ch=1 n=c#6 v=0
10320 On ch=1 n=g#7 v=60
10440 On ch=1 n=g#7 v=0
10440 On ch=1 n=c6 v=60
10500 On ch=1 n=c6 v=0
10500 On ch=1 n=d#6 v=60
10560 On ch=1 n=d#6 v=0
10560 On ch=1 n=g#6 v=60
10620 On ch=1 n=g#6 v=0
10620 On ch=1 n=c7 v=60
10680 On ch=1 n=c7 v=0
10680 On ch=1 n=d#7 v=60
10740 On ch=1 n=d#7 v=0
10740 On ch=1 n=d#8 v=60
10800 On ch=1 n=d#8 v=0
10800 On ch=1 n=f8 v=60
10860 On ch=1 n=f8 v=0
10860 On ch=1 n=c#8 v=60
10920 On ch=1 n=c#8 v=0
10920 On ch=1 n=g#7 v=60
10980 On ch=1 n=g#7 v=0
10980 On ch=1 n=f7 v=60
11040 On ch=1 n=f7 v=0
11040 On ch=1 n=c#7 v=60
11100 On ch=1 n=c#7 v=0
11100 On ch=1 n=g#6 v=60
11130 On ch=1 n=d#7 v=60
11145 On ch=1 n=d#7 v=0
11145 On ch=1 n=f7 v=60
11160 On ch=1 n=f7 v=0
11160 On ch=1 n=g#6 v=0
11160 On ch=1 n=d#7 v=60
11220 On ch=1 n=d#7 v=0
11220 On ch=1 n=g6 v=60
11280 On ch=1 n=g6 v=0
11280 On ch=1 n=g#6 v=60
11340 On ch=1 n=g#6 v=0
11340 On ch=1 n=c6 v=60
11400 On ch=1 n=c6 v=0
11400 On ch=1 n=g#7 v=60
11460 On ch=1 n=g#7 v=0
11460 On ch=1 n=c6 v=60
11520 On ch=1 n=c6 v=0
11520 On ch=1 n=c#6 v=60
11640 On ch=1 n=c#6 v=0
11640 On ch=1 n=g#6 v=60
11700 On ch=1 n=g#6 v=0
11700 On ch=1 n=c#6 v=60
11760 On ch=1 n=c#6 v=0
11760 On ch=1 n=g#6 v=60
11820 On ch=1 n=g#6 v=0
11820 On ch=1 n=c#6 v=60
11865 On ch=1 n=a#5 v=60
11865 On ch=1 n=c#6 v=60
11880 On ch=1 n=c#6 v=0
11880 On ch=1 n=a#5 v=0
11880 On ch=1 n=c#6 v=0
11880 On ch=1 n=a#6 v=60
11880 On ch=1 n=f#6 v=60
11970 On ch=1 n=f#6 v=0
11970 On ch=1 n=a#6 v=0
11970 On ch=1 n=g#6 v=60
11970 On ch=1 n=f6 v=60
12000 On ch=1 n=f6 v=0
12000 On ch=1 n=g#6 v=0
12000 On ch=1 n=g#6 v=60
12000 On ch=1 n=f6 v=60
12090 On ch=1 n=f6 v=0
12090 On ch=1 n=g#6 v=0
12090 On ch=1 n=d#6 v=60
12090 On ch=1 n=f#6 v=60
12120 On ch=1 n=f#6 v=0
12120 On ch=1 n=d#6 v=0
12120 On ch=1 n=f#6 v=60
12120 On ch=1 n=d#6 v=60
12210 On ch=1 n=d#6 v=0
12210 On ch=1 n=f#6 v=0
12210 On ch=1 n=c#6 v=60
12210 On ch=1 n=f6 v=60
12240 On ch=1 n=f6 v=0
12240 On ch=1 n=c#6 v=0
12240 On ch=1 n=c#6 v=60
12240 On ch=1 n=f6 v=60
12420 On ch=1 n=f6 v=0
12420 On ch=1 n=c#6 v=0
12420 On ch=1 n=b5 v=60
12420 On ch=1 n=d#6 v=60
12480 On ch=1 n=d#6 v=0
12480 On ch=1 n=b5 v=0
12480 On ch=1 n=d#6 v=60
12480 On ch=1 n=b5 v=60
12570 On ch=1 n=b5 v=0
12570 On ch=1 n=d#6 v=0
12570 On ch=1 n=b5 v=60
12570 On ch=1 n=d#6 v=60
12600 On ch=1 n=d#6 v=0
12600 On ch=1 n=b5 v=0
12600 On ch=1 n=b5 v=60
12600 On ch=1 n=d#6 v=60
12780 On ch=1 n=d#6 v=0
12780 On ch=1 n=b5 v=0
12780 On ch=1 n=f5 v=60
12780 On ch=1 n=b5 v=60
12780 On ch=1 n=c#6 v=60
12840 On ch=1 n=c#6 v=0
12840 On ch=1 n=b5 v=0
12840 On ch=1 n=f5 v=0
12840 On ch=1 n=c#6 v=60
12840 On ch=1 n=b5 v=60
12840 On ch=1 n=f5 v=60
12930 On ch=1 n=f5 v=0
12930 On ch=1 n=b5 v=0
12930 On ch=1 n=c#6 v=0
12930 On ch=1 n=f5 v=60
12930 On ch=1 n=b5 v=60
12930 On ch=1 n=c#6 v=60
12960 On ch=1 n=c#6 v=0
12960 On ch=1 n=b5 v=0
12960 On ch=1 n=f5 v=0
12960 On ch=1 n=f#5 v=60
12960 On ch=1 n=a#5 v=60
12960 On ch=1 n=d#6 v=60
13140 On ch=1 n=d#6 v=0
13140 On ch=1 n=a#5 v=0
13140 On ch=1 n=f#5 v=0
13140 On ch=1 n=f#5 v=60
13140 On ch=1 n=a#5 v=60
13140 On ch=1 n=c#6 v=60
13200 On ch=1 n=c#6 v=0
13200 On ch=1 n=a#5 v=0
13200 On ch=1 n=f#5 v=0
13200 On ch=1 n=f#5 v=60
13200 On ch=1 n=a#5 v=60
13200 On ch=1 n=c#6 v=60
13290 On ch=1 n=c#6 v=0
13290 On ch=1 n=a#5 v=0
13290 On ch=1 n=f#5 v=0
13290 On ch=1 n=a#5 v=60
13290 On ch=1 n=c#6 v=60
13320 On ch=1 n=c#6 v=0
13320 On ch=1 n=a#5 v=0
13320 On ch=1 n=a#6 v=60
13320 On ch=1 n=f#6 v=60
13410 On ch=1 n=f#6 v=0
13410 On ch=1 n=a#6 v=0
13410 On ch=1 n=g#6 v=60
13410 On ch=1 n=f6 v=60
13440 On ch=1 n=f6 v=0
13440 On ch=1 n=g#6 v=0
13440 On ch=1 n=g#6 v=60
13440 On ch=1 n=f6 v=60
13530 On ch=1 n=f6 v=0
13530 On ch=1 n=g#6 v=0
13530 On ch=1 n=d#6 v=60
13530 On ch=1 n=f#6 v=60
13560 On ch=1 n=f#6 v=0
13560 On ch=1 n=d#6 v=0
13560 On ch=1 n=f#6 v=60
13560 On ch=1 n=d#6 v=60
13650 On ch=1 n=d#6 v=0
13650 On ch=1 n=f#6 v=0
13650 On ch=1 n=c#6 v=60
13650 On ch=1 n=f6 v=60
13680 On ch=1 n=f6 v=0
13680 On ch=1 n=c#6 v=0
13680 On ch=1 n=c#6 v=60
13680 On ch=1 n=f6 v=60
13860 On ch=1 n=f6 v=0
13860 On ch=1 n=c#6 v=0
13860 On ch=1 n=b5 v=60
13860 On ch=1 n=d#6 v=60
13920 On ch=1 n=d#6 v=0
13920 On ch=1 n=b5 v=0
13920 On ch=1 n=d#6 v=60
13920 On ch=1 n=b5 v=60
14010 On ch=1 n=b5 v=0
14010 On ch=1 n=d#6 v=0
14010 On ch=1 n=b5 v=60
14010 On ch=1 n=d#6 v=60
14040 On ch=1 n=d#6 v=0
14040 On ch=1 n=b5 v=0
14040 On ch=1 n=b5 v=60
14040 On ch=1 n=d#6 v=60
14220 On ch=1 n=d#6 v=0
14220 On ch=1 n=b5 v=0
14220 On ch=1 n=f5 v=60
14220 On ch=1 n=b5 v=60
14220 On ch=1 n=c#6 v=60
14280 On ch=1 n=c#6 v=0
14280 On ch=1 n=b5 v=0
14280 On ch=1 n=f5 v=0
14280 On ch=1 n=c#6 v=60
14280 On ch=1 n=b5 v=60
14280 On ch=1 n=f5 v=60
14370 On ch=1 n=f5 v=0
14370 On ch=1 n=b5 v=0
14370 On ch=1 n=c#6 v=0
14370 On ch=1 n=f5 v=60
14370 On ch=1 n=b5 v=60
14370 On ch=1 n=c#6 v=60
14400 On ch=1 n=c#6 v=0
14400 On ch=1 n=b5 v=0
14400 On ch=1 n=f5 v=0
14400 On ch=1 n=f#6 v=60
14400 On ch=1 n=a#5 v=60
14400 On ch=1 n=f#5 v=60
14580 On ch=1 n=f#5 v=0
14580 On ch=1 n=a#5 v=0
14580 On ch=1 n=f#6 v=0
14580 On ch=1 n=c#6 v=60
14580 On ch=1 n=a#5 v=60
14640 On ch=1 n=a#5 v=0
14640 On ch=1 n=c#6 v=0
14640 On ch=1 n=c#6 v=60
14640 On ch=1 n=a#5 v=60
14730 On ch=1 n=a#5 v=0
14730 On ch=1 n=c#6 v=0
14730 On ch=1 n=a#6 v=60
14730 On ch=1 n=f#6 v=60
14760 On ch=1 n=f#6 v=0
14760 On ch=1 n=a#6 v=0
14760 On ch=1 n=a#6 v=60
14760 On ch=1 n=f#6 v=60
14850 On ch=1 n=f#6 v=0
14850 On ch=1 n=a#6 v=0
14850 On ch=1 n=g#6 v=60
14850 On ch=1 n=f6 v=60
14880 On ch=1 n=f6 v=0
14880 On ch=1 n=g#6 v=0
14880 On ch=1 n=g#6 v=60
14880 On ch=1 n=f6 v=60
14970 On ch=1 n=f6 v=0
14970 On ch=1 n=g#6 v=0
14970 On ch=1 n=d#6 v=60
14970 On ch=1 n=f#6 v=60
15000 On ch=1 n=f#6 v=0
15000 On ch=1 n=d#6 v=0
15000 On ch=1 n=f#6 v=60
15000 On ch=1 n=d#6 v=60
15090 On ch=1 n=d#6 v=0
15090 On ch=1 n=f#6 v=0
15090 On ch=1 n=c#6 v=60
15090 On ch=1 n=f6 v=60
15120 On ch=1 n=f6 v=0
15120 On ch=1 n=c#6 v=0
15120 On ch=1 n=c#6 v=60
15120 On ch=1 n=f6 v=60
15300 On ch=1 n=f6 v=0
15300 On ch=1 n=c#6 v=0
15300 On ch=1 n=b5 v=60
15300 On ch=1 n=d#6 v=60
15360 On ch=1 n=d#6 v=0
15360 On ch=1 n=b5 v=0
15360 On ch=1 n=d#6 v=60
15360 On ch=1 n=b5 v=60
15450 On ch=1 n=b5 v=0
15450 On ch=1 n=d#6 v=0
15450 On ch=1 n=b5 v=60
15450 On ch=1 n=d#6 v=60
15480 On ch=1 n=d#6 v=0
15480 On ch=1 n=b5 v=0
15480 On ch=1 n=b5 v=60
15480 On ch=1 n=d#6 v=60
15660 On ch=1 n=d#6 v=0
15660 On ch=1 n=b5 v=0
15660 On ch=1 n=f5 v=60
15660 On ch=1 n=b5 v=60
15660 On ch=1 n=c#6 v=60
15720 On ch=1 n=c#6 v=0
15720 On ch=1 n=b5 v=0
15720 On ch=1 n=f5 v=0
15720 On ch=1 n=c#6 v=60
15720 On ch=1 n=b5 v=60
15720 On ch=1 n=f5 v=60
15810 On ch=1 n=f5 v=0
15810 On ch=1 n=b5 v=0
15810 On ch=1 n=c#6 v=0
15810 On ch=1 n=f5 v=60
15810 On ch=1 n=b5 v=60
15810 On ch=1 n=c#6 v=60
15840 On ch=1 n=c#6 v=0
15840 On ch=1 n=b5 v=0
15840 On ch=1 n=f5 v=0
15840 On ch=1 n=f#5 v=60
15840 On ch=1 n=a#5 v=60
15840 On ch=1 n=d#6 v=60
16020 On ch=1 n=d#6 v=0
16020 On ch=1 n=a#5 v=0
16020 On ch=1 n=f#5 v=0
16020 On ch=1 n=f#5 v=60
16020 On ch=1 n=a#5 v=60
16020 On ch=1 n=c#6 v=60
16080 On ch=1 n=c#6 v=0
16080 On ch=1 n=a#5 v=0
16080 On ch=1 n=f#5 v=0
16080 On ch=1 n=f#5 v=60
16080 On ch=1 n=a#5 v=60
16080 On ch=1 n=c#6 v=60
16170 On ch=1 n=c#6 v=0
16170 On ch=1 n=a#5 v=0
16170 On ch=1 n=f#5 v=0
16170 On ch=1 n=a#5 v=60
16170 On ch=1 n=c#6 v=60
16200 On ch=1 n=c#6 v=0
16200 On ch=1 n=a#5 v=0
16200 On ch=1 n=a#6 v=60
16200 On ch=1 n=f#6 v=60
16290 On ch=1 n=f#6 v=0
16290 On ch=1 n=a#6 v=0
16290 On ch=1 n=g#6 v=60
16290 On ch=1 n=f6 v=60
16320 On ch=1 n=f6 v=0
16320 On ch=1 n=g#6 v=0
16320 On ch=1 n=g#6 v=60
16320 On ch=1 n=f6 v=60
16410 On ch=1 n=f6 v=0
16410 On ch=1 n=g#6 v=0
16410 On ch=1 n=d#6 v=60
16410 On ch=1 n=f#6 v=60
16440 On ch=1 n=f#6 v=0
16440 On ch=1 n=d#6 v=0
16440 On ch=1 n=f#6 v=60
16440 On ch=1 n=d#6 v=60
16530 On ch=1 n=d#6 v=0
16530 On ch=1 n=f#6 v=0
16530 On ch=1 n=c#6 v=60
16530 On ch=1 n=f6 v=60
16560 On ch=1 n=f6 v=0
16560 On ch=1 n=c#6 v=0
16560 On ch=1 n=c#6 v=60
16560 On ch=1 n=f6 v=60
16740 On ch=1 n=f6 v=0
16740 On ch=1 n=c#6 v=0
16740 On ch=1 n=b5 v=60
16740 On ch=1 n=d#6 v=60
16800 On ch=1 n=d#6 v=0
16800 On ch=1 n=b5 v=0
16800 On ch=1 n=d#6 v=60
16800 On ch=1 n=b5 v=60
16890 On ch=1 n=b5 v=0
16890 On ch=1 n=d#6 v=0
16890 On ch=1 n=b5 v=60
16890 On ch=1 n=d#6 v=60
16920 On ch=1 n=d#6 v=0
16920 On ch=1 n=b5 v=0
16920 On ch=1 n=b5 v=60
16920 On ch=1 n=d#6 v=60
17100 On ch=1 n=d#6 v=0
17100 On ch=1 n=b5 v=0
17100 On ch=1 n=f5 v=60
17100 On ch=1 n=b5 v=60
17100 On ch=1 n=c#6 v=60
17160 On ch=1 n=c#6 v=0
17160 On ch=1 n=b5 v=0
17160 On ch=1 n=f5 v=0
17160 On ch=1 n=c#6 v=60
17160 On ch=1 n=b5 v=60
17160 On ch=1 n=f5 v=60
17250 On ch=1 n=f5 v=0
17250 On ch=1 n=b5 v=0
17250 On ch=1 n=c#6 v=0
17250 On ch=1 n=f5 v=60
17250 On ch=1 n=b5 v=60
17250 On ch=1 n=c#6 v=60
17280 On ch=1 n=c#6 v=0
17280 On ch=1 n=b5 v=0
17280 On ch=1 n=f5 v=0
17280 On ch=1 n=f#6 v=60
17280 On ch=1 n=a#5 v=60
17280 On ch=1 n=f#5 v=60
17460 On ch=1 n=f#5 v=0
17460 On ch=1 n=a#5 v=0
17460 On ch=1 n=f#6 v=0
17460 On ch=1 n=f#6 v=60
17520 On ch=1 n=f#6 v=0
17520 On ch=1 n=f#6 v=60
17610 On ch=1 n=f#6 v=0
17610 On ch=1 n=f#6 v=60
17640 On ch=1 n=f#6 v=0
17640 On ch=1 n=d6 v=60
17640 On ch=1 n=f6 v=60
17640 On ch=1 n=a#6 v=60
17820 On ch=1 n=a#6 v=0
17820 On ch=1 n=f6 v=0
17820 On ch=1 n=d6 v=0
17820 On ch=1 n=a#6 v=66
17820 On ch=1 n=f6 v=66
17820 On ch=1 n=d6 v=66
17880 On ch=1 n=d6 v=0
17880 On ch=1 n=f6 v=0
17880 On ch=1 n=a#6 v=0
17880 On ch=1 n=a#6 v=69
17880 On ch=1 n=f6 v=69
17880 On ch=1 n=d6 v=69
17970 On ch=1 n=d6 v=0
17970 On ch=1 n=f6 v=0
17970 On ch=1 n=a#6 v=0
17970 On ch=1 n=a#6 v=72
17970 On ch=1 n=f6 v=72
17970 On ch=1 n=d6 v=72
18000 On ch=1 n=d6 v=0
18000 On ch=1 n=f6 v=0
18000 On ch=1 n=a#6 v=0
18000 On ch=1 n=a#6 v=73
18000 On ch=1 n=f#6 v=73
18000 On ch=1 n=d#6 v=73
18180 On ch=1 n=d#6 v=0
18180 On ch=1 n=f#6 v=0
18180 On ch=1 n=a#6 v=0
18180 On ch=1 n=a#6 v=80
18180 On ch=1 n=f#6 v=80
18180 On ch=1 n=d#6 v=80
18240 On ch=1 n=d#6 v=0
18240 On ch=1 n=f#6 v=0
18240 On ch=1 n=a#6 v=0
18240 On ch=1 n=a#6 v=83
18240 On ch=1 n=f#6 v=83
18240 On ch=1 n=d#6 v=83
18330 On ch=1 n=d#6 v=0
18330 On ch=1 n=f#6 v=0
18330 On ch=1 n=a#6 v=0
18330 On ch=1 n=a#6 v=86
18330 On ch=1 n=f#6 v=86
18330 On ch=1 n=d#6 v=86
18360 On ch=1 n=d#6 v=0
18360 On ch=1 n=f#6 v=0
18360 On ch=1 n=a#6 v=0
18360 On ch=1 n=a#6 v=87
18360 On ch=1 n=c#6 v=87
18360 On ch=1 n=e6 v=87
18540 On ch=1 n=e6 v=0
18540 On ch=1 n=c#6 v=0
18540 On ch=1 n=a#6 v=0
18540 On ch=1 n=a#6 v=94
18540 On ch=1 n=e6 v=94
18540 On ch=1 n=c#6 v=94
18600 On ch=1 n=c#6 v=0
18600 On ch=1 n=e6 v=0
18600 On ch=1 n=a#6 v=0
18600 On ch=1 n=a#6 v=96
18600 On ch=1 n=e6 v=96
18600 On ch=1 n=c#6 v=96
18690 On ch=1 n=c#6 v=0
18690 On ch=1 n=e6 v=0
18690 On ch=1 n=a#6 v=0
18690 On ch=1 n=a#6 v=100
18690 On ch=1 n=e6 v=100
18690 On ch=1 n=c#6 v=100
18720 On ch=1 n=c#6 v=0
18720 On ch=1 n=e6 v=0
18720 On ch=1 n=a#6 v=0
18720 On ch=1 n=c#7 v=100
18720 On ch=1 n=e6 v=100
18720 On ch=1 n=c#6 v=100
18960 On ch=1 n=c#6 v=0
18960 On ch=1 n=e6 v=0
18960 On ch=1 n=c#7 v=0
18960 On ch=1 n=b5 v=71
18960 On ch=1 n=d#6 v=71
18960 On ch=1 n=b6 v=71
19080 On ch=1 n=b6 v=0
19080 On ch=1 n=d#6 v=0
19080 On ch=1 n=b5 v=0
19080 On ch=1 n=a#5 v=60
19080 On ch=1 n=c#6 v=60
19080 On ch=1 n=g6 v=60
19260 On ch=1 n=g6 v=0
19260 On ch=1 n=c#6 v=0
19260 On ch=1 n=a#5 v=0
19260 On ch=1 n=g6 v=60
19260 On ch=1 n=c#6 v=60
19260 On ch=1 n=a#5 v=60
19320 On ch=1 n=a#5 v=0
19320 On ch=1 n=c#6 v=0
19320 On ch=1 n=g6 v=0
19320 On ch=1 n=g6 v=60
19320 On ch=1 n=c#6 v=60
19320 On ch=1 n=a#5 v=60
19410 On ch=1 n=a#5 v=0
19410 On ch=1 n=c#6 v=0
19410 On ch=1 n=g6 v=0
19410 On ch=1 n=g6 v=60
19410 On ch=1 n=c#6 v=60
19410 On ch=1 n=a#5 v=60
19440 On ch=1 n=a#5 v=0
19440 On ch=1 n=c#6 v=0
19440 On ch=1 n=g6 v=0
19440 On ch=1 n=a#6 v=60
19440 On ch=1 n=c#6 v=60
19440 On ch=1 n=a#5 v=60
19680 On ch=1 n=a#5 v=0
19680 On ch=1 n=c#6 v=0
19680 On ch=1 n=a#6 v=0
19680 On ch=1 n=g#5 v=60
19680 On ch=1 n=c6 v=60
19680 On ch=1 n=g#6 v=60
19800 On ch=1 n=g#6 v=0
19800 On ch=1 n=c6 v=0
19800 On ch=1 n=g#5 v=0
19800 On ch=1 n=f#5 v=60
19810 On ch=1 n=c6 v=60
19820 On ch=1 n=g#6 v=60
19830 On ch=1 n=f#6 v=60
19920 On ch=1 n=f#6 v=0
19920 On ch=1 n=f#5 v=0
19920 On ch=1 n=c6 v=0
19920 On ch=1 n=g#6 v=0
19920 On ch=1 n=f6 v=60
19920 On ch=1 n=c6 v=60
19920 On ch=1 n=f#5 v=60
20040 On ch=1 n=f#5 v=0
20040 On ch=1 n=c6 v=0
20040 On ch=1 n=f6 v=0
20040 On ch=1 n=f#6 v=60
20040 On ch=1 n=c6 v=60
20040 On ch=1 n=f#5 v=60
20160 On ch=1 n=f#5 v=0
20160 On ch=1 n=c6 v=0
20160 On ch=1 n=f#6 v=0
20160 On ch=1 n=f5 v=60
20170 On ch=1 n=c#6 v=60
20180 On ch=1 n=g#6 v=60
20280 On ch=1 n=c#6 v=0
20280 On ch=1 n=f5 v=0
20280 On ch=1 n=c6 v=60
20400 On ch=1 n=c6 v=0
20400 On ch=1 n=g#6 v=0
20400 On ch=1 n=b5 v=60
20400 On ch=1 n=a6 v=60
20505 On ch=1 n=c#6 v=60
20505 On ch=1 n=a#5 v=60
20520 On ch=1 n=a#5 v=0
20520 On ch=1 n=b5 v=0
20520 On ch=1 n=a6 v=0
20520 On ch=1 n=c#6 v=0
20520 On ch=1 n=a#6 v=60
20520 On ch=1 n=f#6 v=60
20610 On ch=1 n=f#6 v=0
20610 On ch=1 n=a#6 v=0
20610 On ch=1 n=g#6 v=60
20610 On ch=1 n=f6 v=60
20640 On ch=1 n=f6 v=0
20640 On ch=1 n=g#6 v=0
20640 On ch=1 n=g#6 v=60
20640 On ch=1 n=f6 v=60
20730 On ch=1 n=f6 v=0
20730 On ch=1 n=g#6 v=0
20730 On ch=1 n=d#6 v=60
20730 On ch=1 n=f#6 v=60
20760 On ch=1 n=f#6 v=0
20760 On ch=1 n=d#6 v=0
20760 On ch=1 n=f#6 v=60
20760 On ch=1 n=d#6 v=60
20850 On ch=1 n=d#6 v=0
20850 On ch=1 n=f#6 v=0
20850 On ch=1 n=c#6 v=60
20850 On ch=1 n=f6 v=60
20880 On ch=1 n=f6 v=0
20880 On ch=1 n=c#6 v=0
20880 On ch=1 n=c#6 v=60
20880 On ch=1 n=f6 v=60
21060 On ch=1 n=f6 v=0
21060 On ch=1 n=c#6 v=0
21060 On ch=1 n=b5 v=60
21060 On ch=1 n=d#6 v=60
21120 On ch=1 n=d#6 v=0
21120 On ch=1 n=b5 v=0
21120 On ch=1 n=d#6 v=60
21120 On ch=1 n=b5 v=60
21210 On ch=1 n=b5 v=0
21210 On ch=1 n=d#6 v=0
21210 On ch=1 n=b5 v=60
21210 On ch=1 n=d#6 v=60
21240 On ch=1 n=d#6 v=0
21240 On ch=1 n=b5 v=0
21240 On ch=1 n=b5 v=60
21240 On ch=1 n=d#6 v=60
21420 On ch=1 n=d#6 v=0
21420 On ch=1 n=b5 v=0
21420 On ch=1 n=f5 v=60
21420 On ch=1 n=b5 v=60
21420 On ch=1 n=c#6 v=60
21480 On ch=1 n=c#6 v=0
21480 On ch=1 n=b5 v=0
21480 On ch=1 n=f5 v=0
21480 On ch=1 n=c#6 v=60
21480 On ch=1 n=b5 v=60
21480 On ch=1 n=f5 v=60
21570 On ch=1 n=f5 v=0
21570 On ch=1 n=b5 v=0
21570 On ch=1 n=c#6 v=0
21570 On ch=1 n=f5 v=60
21570 On ch=1 n=b5 v=60
21570 On ch=1 n=c#6 v=60
21600 On ch=1 n=c#6 v=0
21600 On ch=1 n=b5 v=0
21600 On ch=1 n=f5 v=0
21600 On ch=1 n=f#5 v=60
21600 On ch=1 n=a#5 v=60
21600 On ch=1 n=d#6 v=60
21780 On ch=1 n=d#6 v=0
21780 On ch=1 n=a#5 v=0
21780 On ch=1 n=f#5 v=0
21780 On ch=1 n=f#5 v=60
21780 On ch=1 n=a#5 v=60
21780 On ch=1 n=c#6 v=60
21840 On ch=1 n=c#6 v=0
21840 On ch=1 n=a#5 v=0
21840 On ch=1 n=f#5 v=0
21840 On ch=1 n=f#5 v=60
21840 On ch=1 n=a#5 v=60
21840 On ch=1 n=c#6 v=60
21930 On ch=1 n=c#6 v=0
21930 On ch=1 n=a#5 v=0
21930 On ch=1 n=f#5 v=0
21930 On ch=1 n=a#5 v=60
21930 On ch=1 n=c#6 v=60
21960 On ch=1 n=c#6 v=0
21960 On ch=1 n=a#5 v=0
21960 On ch=1 n=a#6 v=60
21960 On ch=1 n=f#6 v=60
22050 On ch=1 n=f#6 v=0
22050 On ch=1 n=a#6 v=0
22050 On ch=1 n=g#6 v=60
22050 On ch=1 n=f6 v=60
22080 On ch=1 n=f6 v=0
22080 On ch=1 n=g#6 v=0
22080 On ch=1 n=g#6 v=60
22080 On ch=1 n=f6 v=60
22170 On ch=1 n=f6 v=0
22170 On ch=1 n=g#6 v=0
22170 On ch=1 n=d#6 v=60
22170 On ch=1 n=f#6 v=60
22200 On ch=1 n=f#6 v=0
22200 On ch=1 n=d#6 v=0
22200 On ch=1 n=f#6 v=60
22200 On ch=1 n=d#6 v=60
22290 On ch=1 n=d#6 v=0
22290 On ch=1 n=f#6 v=0
22290 On ch=1 n=c#6 v=60
22290 On ch=1 n=f6 v=60
22320 On ch=1 n=f6 v=0
22320 On ch=1 n=c#6 v=0
22320 On ch=1 n=c#6 v=60
22320 On ch=1 n=f6 v=60
22500 On ch=1 n=f6 v=0
22500 On ch=1 n=c#6 v=0
22500 On ch=1 n=b5 v=60
22500 On ch=1 n=d#6 v=60
22560 On ch=1 n=d#6 v=0
22560 On ch=1 n=b5 v=0
22560 On ch=1 n=d#6 v=60
22560 On ch=1 n=b5 v=60
22650 On ch=1 n=b5 v=0
22650 On ch=1 n=d#6 v=0
22650 On ch=1 n=b5 v=60
22650 On ch=1 n=d#6 v=60
22680 On ch=1 n=d#6 v=0
22680 On ch=1 n=b5 v=0
22680 On ch=1 n=b5 v=60
22680 On ch=1 n=d#6 v=60
22860 On ch=1 n=d#6 v=0
22860 On ch=1 n=b5 v=0
22860 On ch=1 n=f5 v=60
22860 On ch=1 n=b5 v=60
22860 On ch=1 n=c#6 v=60
22920 On ch=1 n=c#6 v=0
22920 On ch=1 n=b5 v=0
22920 On ch=1 n=f5 v=0
22920 On ch=1 n=c#6 v=60
22920 On ch=1 n=b5 v=60
22920 On ch=1 n=f5 v=60
23010 On ch=1 n=f5 v=0
23010 On ch=1 n=b5 v=0
23010 On ch=1 n=c#6 v=0
23010 On ch=1 n=f5 v=60
23010 On ch=1 n=b5 v=60
23010 On ch=1 n=c#6 v=60
23040 On ch=1 n=c#6 v=0
23040 On ch=1 n=b5 v=0
23040 On ch=1 n=f5 v=0
23040 On ch=1 n=f#6 v=60
23040 On ch=1 n=a#5 v=60
23040 On ch=1 n=f#5 v=60
23220 On ch=1 n=f#5 v=0
23220 On ch=1 n=a#5 v=0
23220 On ch=1 n=f#6 v=0
23220 On ch=1 n=f#6 v=60
23280 On ch=1 n=f#6 v=0
23280 On ch=1 n=f#6 v=60
23370 On ch=1 n=f#6 v=0
23370 On ch=1 n=f#6 v=60
23400 On ch=1 n=f#6 v=0
23400 On ch=1 n=d6 v=60
23400 On ch=1 n=f6 v=60
23400 On ch=1 n=a#6 v=60
23580 On ch=1 n=a#6 v=0
23580 On ch=1 n=f6 v=0
23580 On ch=1 n=d6 v=0
23580 On ch=1 n=a#6 v=66
23580 On ch=1 n=f6 v=66
23580 On ch=1 n=d6 v=66
23640 On ch=1 n=d6 v=0
23640 On ch=1 n=f6 v=0
23640 On ch=1 n=a#6 v=0
23640 On ch=1 n=a#6 v=69
23640 On ch=1 n=f6 v=69
23640 On ch=1 n=d6 v=69
23730 On ch=1 n=d6 v=0
23730 On ch=1 n=f6 v=0
23730 On ch=1 n=a#6 v=0
23730 On ch=1 n=a#6 v=72
23730 On ch=1 n=f6 v=72
23730 On ch=1 n=d6 v=72
23760 On ch=1 n=d6 v=0
23760 On ch=1 n=f6 v=0
23760 On ch=1 n=a#6 v=0
23760 On ch=1 n=a#6 v=73
23760 On ch=1 n=f#6 v=73
23760 On ch=1 n=d#6 v=73
23940 On ch=1 n=d#6 v=0
23940 On ch=1 n=f#6 v=0
23940 On ch=1 n=a#6 v=0
23940 On ch=1 n=a#6 v=80
23940 On ch=1 n=f#6 v=80
23940 On ch=1 n=d#6 v=80
24000 On ch=1 n=d#6 v=0
24000 On ch=1 n=f#6 v=0
24000 On ch=1 n=a#6 v=0
24000 On ch=1 n=a#6 v=83
24000 On ch=1 n=f#6 v=83
24000 On ch=1 n=d#6 v=83
24090 On ch=1 n=d#6 v=0
24090 On ch=1 n=f#6 v=0
24090 On ch=1 n=a#6 v=0
24090 On ch=1 n=a#6 v=86
24090 On ch=1 n=f#6 v=86
24090 On ch=1 n=d#6 v=86
24120 On ch=1 n=d#6 v=0
24120 On ch=1 n=f#6 v=0
24120 On ch=1 n=a#6 v=0
24120 On ch=1 n=a#6 v=87
24120 On ch=1 n=c#6 v=87
24120 On ch=1 n=e6 v=87
24300 On ch=1 n=e6 v=0
24300 On ch=1 n=c#6 v=0
24300 On ch=1 n=a#6 v=0
24300 On ch=1 n=a#6 v=94
24300 On ch=1 n=e6 v=94
24300 On ch=1 n=c#6 v=94
24360 On ch=1 n=c#6 v=0
24360 On ch=1 n=e6 v=0
24360 On ch=1 n=a#6 v=0
24360 On ch=1 n=a#6 v=96
24360 On ch=1 n=e6 v=96
24360 On ch=1 n=c#6 v=96
24450 On ch=1 n=c#6 v=0
24450 On ch=1 n=e6 v=0
24450 On ch=1 n=a#6 v=0
24450 On ch=1 n=a#6 v=100
24450 On ch=1 n=e6 v=100
24450 On ch=1 n=c#6 v=100
24480 On ch=1 n=c#6 v=0
24480 On ch=1 n=e6 v=0
24480 On ch=1 n=a#6 v=0
24480 On ch=1 n=c#7 v=100
24480 On ch=1 n=e6 v=100
24480 On ch=1 n=c#6 v=100
24720 On ch=1 n=c#6 v=0
24720 On ch=1 n=e6 v=0
24720 On ch=1 n=c#7 v=0
24720 On ch=1 n=b5 v=71
24720 On ch=1 n=d#6 v=71
24720 On ch=1 n=b6 v=71
24840 On ch=1 n=b6 v=0
24840 On ch=1 n=d#6 v=0
24840 On ch=1 n=b5 v=0
24840 On ch=1 n=a#5 v=60
24840 On ch=1 n=c#6 v=60
24840 On ch=1 n=g6 v=60
25020 On ch=1 n=g6 v=0
25020 On ch=1 n=c#6 v=0
25020 On ch=1 n=a#5 v=0
25020 On ch=1 n=g6 v=60
25020 On ch=1 n=c#6 v=60
25020 On ch=1 n=a#5 v=60
25080 On ch=1 n=a#5 v=0
25080 On ch=1 n=c#6 v=0
25080 On ch=1 n=g6 v=0
25080 On ch=1 n=g6 v=60
25080 On ch=1 n=c#6 v=60
25080 On ch=1 n=a#5 v=60
25170 On ch=1 n=a#5 v=0
25170 On ch=1 n=c#6 v=0
25170 On ch=1 n=g6 v=0
25170 On ch=1 n=g6 v=60
25170 On ch=1 n=c#6 v=60
25170 On ch=1 n=a#5 v=60
25200 On ch=1 n=a#5 v=0
25200 On ch=1 n=c#6 v=0
25200 On ch=1 n=g6 v=0
25200 On ch=1 n=a#6 v=60
25200 On ch=1 n=c#6 v=60
25200 On ch=1 n=a#5 v=60
25440 On ch=1 n=a#5 v=0
25440 On ch=1 n=c#6 v=0
25440 On ch=1 n=a#6 v=0
25440 On ch=1 n=g#5 v=60
25440 On ch=1 n=c6 v=60
25440 On ch=1 n=g#6 v=60
25560 On ch=1 n=g#6 v=0
25560 On ch=1 n=c6 v=0
25560 On ch=1 n=g#5 v=0
25560 On ch=1 n=f#5 v=60
25570 On ch=1 n=c6 v=60
25580 On ch=1 n=g#6 v=60
25590 On ch=1 n=f#6 v=60
25680 On ch=1 n=f#6 v=0
25680 On ch=1 n=f#5 v=0
25680 On ch=1 n=c6 v=0
25680 On ch=1 n=g#6 v=0
25680 On ch=1 n=f6 v=60
25680 On ch=1 n=c6 v=60
25680 On ch=1 n=f#5 v=60
25800 On ch=1 n=f#5 v=0
25800 On ch=1 n=c6 v=0
25800 On ch=1 n=f6 v=0
25800 On ch=1 n=f#6 v=60
25800 On ch=1 n=c6 v=60
25800 On ch=1 n=f#5 v=60
25920 On ch=1 n=f#5 v=0
25920 On ch=1 n=c6 v=0
25920 On ch=1 n=f#6 v=0
25920 On ch=1 n=f5 v=60
25930 On ch=1 n=c#6 v=60
25940 On ch=1 n=g#6 v=60
26040 On ch=1 n=c#6 v=0
26040 On ch=1 n=f5 v=0
26040 On ch=1 n=c6 v=60
26160 On ch=1 n=c6 v=0
26160 On ch=1 n=g#6 v=0
26160 On ch=1 n=b5 v=60
26160 On ch=1 n=a6 v=60
26265 On ch=1 n=c#6 v=60
26265 On ch=1 n=a#5 v=60
26280 On ch=1 n=a#5 v=0
26280 On ch=1 n=b5 v=0
26280 On ch=1 n=a6 v=0
26280 On ch=1 n=c#6 v=0
26280 On ch=1 n=a#6 v=60
26280 On ch=1 n=f#6 v=60
26370 On ch=1 n=f#6 v=0
26370 On ch=1 n=a#6 v=0
26370 On ch=1 n=g#6 v=60
26370 On ch=1 n=f6 v=60
26400 On ch=1 n=f6 v=0
26400 On ch=1 n=g#6 v=0
26400 On ch=1 n=g#6 v=60
26400 On ch=1 n=f6 v=60
26490 On ch=1 n=f6 v=0
26490 On ch=1 n=g#6 v=0
26490 On ch=1 n=d#6 v=60
26490 On ch=1 n=f#6 v=60
26520 On ch=1 n=f#6 v=0
26520 On ch=1 n=d#6 v=0
26520 On ch=1 n=f#6 v=60
26520 On ch=1 n=d#6 v=60
26610 On ch=1 n=d#6 v=0
26610 On ch=1 n=f#6 v=0
26610 On ch=1 n=c#6 v=60
26610 On ch=1 n=f6 v=60
26640 On ch=1 n=f6 v=0
26640 On ch=1 n=c#6 v=0
26640 On ch=1 n=c#6 v=60
26640 On ch=1 n=f6 v=60
26820 On ch=1 n=f6 v=0
26820 On ch=1 n=c#6 v=0
26820 On ch=1 n=b5 v=60
26820 On ch=1 n=d#6 v=60
26880 On ch=1 n=d#6 v=0
26880 On ch=1 n=b5 v=0
26880 On ch=1 n=d#6 v=60
26880 On ch=1 n=b5 v=60
26970 On ch=1 n=b5 v=0
26970 On ch=1 n=d#6 v=0
26970 On ch=1 n=b5 v=60
26970 On ch=1 n=d#6 v=60
27000 On ch=1 n=d#6 v=0
27000 On ch=1 n=b5 v=0
27000 On ch=1 n=b5 v=60
27000 On ch=1 n=d#6 v=60
27180 On ch=1 n=d#6 v=0
27180 On ch=1 n=b5 v=0
27180 On ch=1 n=f5 v=60
27180 On ch=1 n=b5 v=60
27180 On ch=1 n=c#6 v=60
27240 On ch=1 n=c#6 v=0
27240 On ch=1 n=b5 v=0
27240 On ch=1 n=f5 v=0
27240 On ch=1 n=c#6 v=60
27240 On ch=1 n=b5 v=60
27240 On ch=1 n=f5 v=60
27330 On ch=1 n=f5 v=0
27330 On ch=1 n=b5 v=0
27330 On ch=1 n=c#6 v=0
27330 On ch=1 n=f5 v=60
27330 On ch=1 n=b5 v=60
27330 On ch=1 n=c#6 v=60
27360 On ch=1 n=c#6 v=0
27360 On ch=1 n=b5 v=0
27360 On ch=1 n=f5 v=0
27360 On ch=1 n=f#5 v=60
27360 On ch=1 n=a#5 v=60
27360 On ch=1 n=d#6 v=60
27540 On ch=1 n=d#6 v=0
27540 On ch=1 n=a#5 v=0
27540 On ch=1 n=f#5 v=0
27540 On ch=1 n=f#5 v=60
27540 On ch=1 n=a#5 v=60
27540 On ch=1 n=c#6 v=60
27600 On ch=1 n=c#6 v=0
27600 On ch=1 n=a#5 v=0
27600 On ch=1 n=f#5 v=0
27600 On ch=1 n=f#5 v=60
27600 On ch=1 n=a#5 v=60
27600 On ch=1 n=c#6 v=60
27690 On ch=1 n=c#6 v=0
27690 On ch=1 n=a#5 v=0
27690 On ch=1 n=f#5 v=0
27690 On ch=1 n=a#5 v=60
27690 On ch=1 n=c#6 v=60
27720 On ch=1 n=c#6 v=0
27720 On ch=1 n=a#5 v=0
27720 On ch=1 n=a#6 v=60
27720 On ch=1 n=f#6 v=60
27810 On ch=1 n=f#6 v=0
27810 On ch=1 n=a#6 v=0
27810 On ch=1 n=g#6 v=60
27810 On ch=1 n=f6 v=60
27840 On ch=1 n=f6 v=0
27840 On ch=1 n=g#6 v=0
27840 On ch=1 n=g#6 v=60
27840 On ch=1 n=f6 v=60
27930 On ch=1 n=f6 v=0
27930 On ch=1 n=g#6 v=0
27930 On ch=1 n=d#6 v=60
27930 On ch=1 n=f#6 v=60
27960 On ch=1 n=f#6 v=0
27960 On ch=1 n=d#6 v=0
27960 On ch=1 n=f#6 v=60
27960 On ch=1 n=d#6 v=60
28050 On ch=1 n=d#6 v=0
28050 On ch=1 n=f#6 v=0
28050 On ch=1 n=c#6 v=60
28050 On ch=1 n=f6 v=60
28080 On ch=1 n=f6 v=0
28080 On ch=1 n=c#6 v=0
28080 On ch=1 n=c#6 v=60
28080 On ch=1 n=f6 v=60
28260 On ch=1 n=f6 v=0
28260 On ch=1 n=c#6 v=0
28260 On ch=1 n=b5 v=60
28260 On ch=1 n=d#6 v=60
28320 On ch=1 n=d#6 v=0
28320 On ch=1 n=b5 v=0
28320 On ch=1 n=d#6 v=60
28320 On ch=1 n=b5 v=60
28410 On ch=1 n=b5 v=0
28410 On ch=1 n=d#6 v=0
28410 On ch=1 n=b5 v=60
28410 On ch=1 n=d#6 v=60
28440 On ch=1 n=d#6 v=0
28440 On ch=1 n=b5 v=0
28440 On ch=1 n=b5 v=60
28440 On ch=1 n=d#6 v=60
28620 On ch=1 n=d#6 v=0
28620 On ch=1 n=b5 v=0
28620 On ch=1 n=f5 v=60
28620 On ch=1 n=b5 v=60
28620 On ch=1 n=c#6 v=60
28680 On ch=1 n=c#6 v=0
28680 On ch=1 n=b5 v=0
28680 On ch=1 n=f5 v=0
28680 On ch=1 n=c#6 v=60
28680 On ch=1 n=b5 v=60
28680 On ch=1 n=f5 v=60
28770 On ch=1 n=f5 v=0
28770 On ch=1 n=b5 v=0
28770 On ch=1 n=c#6 v=0
28770 On ch=1 n=f5 v=60
28770 On ch=1 n=b5 v=60
28770 On ch=1 n=c#6 v=60
28800 On ch=1 n=c#6 v=0
28800 On ch=1 n=b5 v=0
28800 On ch=1 n=f5 v=0
28800 On ch=1 n=f#6 v=60
28800 On ch=1 n=a#5 v=60
28800 On ch=1 n=f#5 v=60
28950 On ch=1 n=f#6 v=100
28965 On ch=1 n=f#6 v=0
28965 On ch=1 n=g#6 v=100
28980 On ch=1 n=g#6 v=0
28980 On ch=1 n=f#6 v=0
28980 On ch=1 n=f#5 v=0
28980 On ch=1 n=a#5 v=0
28980 On ch=1 n=f#6 v=100
29040 On ch=1 n=f#6 v=0
29040 On ch=1 n=f6 v=100
29100 On ch=1 n=f6 v=0
29100 On ch=1 n=d#6 v=100
29160 On ch=1 n=d#6 v=0
29160 On ch=1 n=c#6 v=100
29180 On ch=1 n=c#6 v=0
29180 On ch=1 n=d#6 v=100
29200 On ch=1 n=d#6 v=0
29200 On ch=1 n=c#6 v=100
29220 On ch=1 n=c#6 v=0
29220 On ch=1 n=c6 v=100
29280 On ch=1 n=c6 v=0
29280 On ch=1 n=c#6 v=100
29340 On ch=1 n=c#6 v=0
29340 On ch=1 n=f6 v=100
29400 On ch=1 n=f6 v=0
29400 On ch=1 n=g#6 v=100
29460 On ch=1 n=g#6 v=0
29460 On ch=1 n=b6 v=100
29520 On ch=1 n=b6 v=0
29520 On ch=1 n=d#7 v=100
29560 On ch=1 n=d#7 v=0
29560 On ch=1 n=f7 v=100
29600 On ch=1 n=f7 v=0
29600 On ch=1 n=d#7 v=100
29640 On ch=1 n=d#7 v=0
29640 On ch=1 n=c#7 v=100
29700 On ch=1 n=c#7 v=0
29700 On ch=1 n=f#6 v=100
29760 On ch=1 n=f#6 v=0
29760 On ch=1 n=a#7 v=100
29880 On ch=1 n=a#7 v=0
29880 On ch=1 n=c#7 v=100
29920 On ch=1 n=c#7 v=0
29920 On ch=1 n=d#7 v=100
29960 On ch=1 n=d#7 v=0
29960 On ch=1 n=c#7 v=100
30000 On ch=1 n=c#7 v=0
30000 On ch=1 n=b6 v=100
30060 On ch=1 n=b6 v=0
30060 On ch=1 n=f6 v=100
30120 On ch=1 n=f6 v=0
30120 On ch=1 n=g#7 v=100
30240 On ch=1 n=g#7 v=0
30240 On ch=1 n=g#6 v=100
30280 On ch=1 n=g#6 v=0
30280 On ch=1 n=a#6 v=100
30320 On ch=1 n=a#6 v=0
30320 On ch=1 n=g#6 v=100
30360 On ch=1 n=g#6 v=0
30360 On ch=1 n=f#6 v=100
30420 On ch=1 n=f#6 v=0
30420 On ch=1 n=c#6 v=100
30480 On ch=1 n=c#6 v=0
30480 On ch=1 n=f#7 v=100
30600 On ch=1 n=f#7 v=0
30600 On ch=1 n=c#6 v=100
30620 On ch=1 n=c#6 v=0
30620 On ch=1 n=d#6 v=100
30640 On ch=1 n=d#6 v=0
30640 On ch=1 n=c#6 v=100
30660 On ch=1 n=c#6 v=0
30660 On ch=1 n=c6 v=100
30720 On ch=1 n=c6 v=0
30720 On ch=1 n=c#6 v=100
30780 On ch=1 n=c#6 v=0
30780 On ch=1 n=f6 v=100
30840 On ch=1 n=f6 v=0
30840 On ch=1 n=g#6 v=100
30900 On ch=1 n=g#6 v=0
30900 On ch=1 n=b6 v=100
30960 On ch=1 n=b6 v=0
30960 On ch=1 n=d#7 v=100
31000 On ch=1 n=d#7 v=0
31000 On ch=1 n=f7 v=100
31040 On ch=1 n=f7 v=0
31040 On ch=1 n=d#7 v=100
31080 On ch=1 n=d#7 v=0
31080 On ch=1 n=c#7 v=100
31140 On ch=1 n=c#7 v=0
31140 On ch=1 n=f#6 v=100
31200 On ch=1 n=f#6 v=0
31200 On ch=1 n=a#7 v=100
31320 On ch=1 n=a#7 v=0
31320 On ch=1 n=c#7 v=100
31360 On ch=1 n=c#7 v=0
31360 On ch=1 n=d#7 v=100
31400 On ch=1 n=d#7 v=0
31400 On ch=1 n=c#7 v=100
31440 On ch=1 n=c#7 v=0
31440 On ch=1 n=b6 v=100
31500 On ch=1 n=b6 v=0
31500 On ch=1 n=f6 v=100
31560 On ch=1 n=f6 v=0
31560 On ch=1 n=g#7 v=100
31620 On ch=1 n=g#7 v=0
31620 On ch=1 n=f6 v=100
31680 On ch=1 n=f6 v=0
31680 On ch=1 n=f#6 v=100
31830 On ch=1 n=f#6 v=82
31845 On ch=1 n=f#6 v=0
31845 On ch=1 n=g#6 v=80
31860 On ch=1 n=g#6 v=0
31860 On ch=1 n=f#6 v=0
31860 On ch=1 n=f#6 v=78
31920 On ch=1 n=f#6 v=0
31920 On ch=1 n=f6 v=71
31980 On ch=1 n=f6 v=0
31980 On ch=1 n=d#6 v=63
32040 On ch=1 n=d#6 v=0
32040 On ch=1 n=c#6 v=60
32060 On ch=1 n=c#6 v=0
32060 On ch=1 n=d#6 v=60
32080 On ch=1 n=d#6 v=0
32080 On ch=1 n=c#6 v=60
32100 On ch=1 n=c#6 v=0
32100 On ch=1 n=c6 v=60
32160 On ch=1 n=c6 v=0
32160 On ch=1 n=c#6 v=60
32220 On ch=1 n=c#6 v=0
32220 On ch=1 n=f6 v=60
32280 On ch=1 n=f6 v=0
32280 On ch=1 n=g#6 v=60
32340 On ch=1 n=g#6 v=0
32340 On ch=1 n=b6 v=60
32400 On ch=1 n=b6 v=0
32400 On ch=1 n=d#7 v=60
32440 On ch=1 n=d#7 v=0
32440 On ch=1 n=f7 v=60
32480 On ch=1 n=f7 v=0
32480 On ch=1 n=d#7 v=60
32520 On ch=1 n=d#7 v=0
32520 On ch=1 n=c#7 v=60
32580 On ch=1 n=c#7 v=0
32580 On ch=1 n=f#6 v=60
32640 On ch=1 n=f#6 v=0
32640 On ch=1 n=a#7 v=60
32760 On ch=1 n=a#7 v=0
32760 On ch=1 n=c#7 v=60
32800 On ch=1 n=c#7 v=0
32800 On ch=1 n=d#7 v=60
32840 On ch=1 n=d#7 v=0
32840 On ch=1 n=c#7 v=60
32880 On ch=1 n=c#7 v=0
32880 On ch=1 n=b6 v=60
32940 On ch=1 n=b6 v=0
32940 On ch=1 n=f6 v=60
33000 On ch=1 n=f6 v=0
33000 On ch=1 n=g#7 v=60
33120 On ch=1 n=g#7 v=0
33120 On ch=1 n=g#6 v=60
33160 On ch=1 n=g#6 v=0
33160 On ch=1 n=a#6 v=60
33200 On ch=1 n=a#6 v=0
33200 On ch=1 n=g#6 v=60
33240 On ch=1 n=g#6 v=0
33240 On ch=1 n=f#6 v=60
33300 On ch=1 n=f#6 v=0
33300 On ch=1 n=c#6 v=60
33360 On ch=1 n=c#6 v=0
33360 On ch=1 n=f#7 v=60
33480 On ch=1 n=f#7 v=0
33480 On ch=1 n=c#6 v=60
33500 On ch=1 n=c#6 v=0
33500 On ch=1 n=d#6 v=60
33520 On ch=1 n=d#6 v=0
33520 On ch=1 n=c#6 v=60
33540 On ch=1 n=c#6 v=0
33540 On ch=1 n=c6 v=60
33600 On ch=1 n=c6 v=0
33600 On ch=1 n=c#6 v=60
33660 On ch=1 n=c#6 v=0
33660 On ch=1 n=f6 v=60
33720 On ch=1 n=f6 v=0
33720 On ch=1 n=g#6 v=60
33780 On ch=1 n=g#6 v=0
33780 On ch=1 n=b6 v=60
33840 On ch=1 n=b6 v=0
33840 On ch=1 n=d#7 v=60
33880 On ch=1 n=d#7 v=0
33880 On ch=1 n=f7 v=60
33920 On ch=1 n=f7 v=0
33920 On ch=1 n=d#7 v=60
33960 On ch=1 n=d#7 v=0
33960 On ch=1 n=c#7 v=60
34020 On ch=1 n=c#7 v=0
34020 On ch=1 n=f#6 v=60
34080 On ch=1 n=f#6 v=0
34080 On ch=1 n=a#7 v=60
34200 On ch=1 n=a#7 v=0
34200 On ch=1 n=c#7 v=60
34240 On ch=1 n=c#7 v=0
34240 On ch=1 n=d#7 v=60
34280 On ch=1 n=d#7 v=0
34280 On ch=1 n=c#7 v=60
34320 On ch=1 n=c#7 v=0
34320 On ch=1 n=b6 v=60
34380 On ch=1 n=b6 v=0
34380 On ch=1 n=f6 v=60
34440 On ch=1 n=f6 v=0
34440 On ch=1 n=g#7 v=60
34500 On ch=1 n=g#7 v=0
34500 On ch=1 n=f6 v=60
34560 On ch=1 n=f6 v=0
34560 On ch=1 n=f#6 v=60
34740 On ch=1 n=f#6 v=0
34740 Meta TrkEnd
TrkEnd
MTrk
0 Meta 0x21 00
0 Meta TrkName "Left Treble"
0 PrCh ch=1 p=0
480 On ch=1 n=c#5 v=100
480 On ch=1 n=f5 v=100
480 On ch=1 n=b5 v=100
600 On ch=1 n=b5 v=0
600 On ch=1 n=f5 v=0
600 On ch=1 n=c#5 v=0
600 On ch=1 n=c#5 v=100
600 On ch=1 n=f5 v=100
600 On ch=1 n=b5 v=100
720 On ch=1 n=b5 v=0
720 On ch=1 n=f5 v=0
720 On ch=1 n=c#5 v=0
840 On ch=1 n=c#5 v=100
840 On ch=1 n=f#5 v=100
840 On ch=1 n=a#5 v=100
960 On ch=1 n=a#5 v=0
960 On ch=1 n=f#5 v=0
960 On ch=1 n=c#5 v=0
960 On ch=1 n=c#5 v=100
960 On ch=1 n=f#5 v=100
960 On ch=1 n=a#5 v=100
1080 On ch=1 n=a#5 v=0
1080 On ch=1 n=f#5 v=0
1080 On ch=1 n=c#5 v=0
1200 On ch=1 n=c#5 v=100
1200 On ch=1 n=f5 v=100
1200 On ch=1 n=b5 v=100
1320 On ch=1 n=b5 v=0
1320 On ch=1 n=f5 v=0
1320 On ch=1 n=c#5 v=0
1320 On ch=1 n=c#5 v=100
1320 On ch=1 n=f5 v=100
1320 On ch=1 n=b5 v=100
1440 On ch=1 n=b5 v=0
1440 On ch=1 n=f5 v=0
1440 On ch=1 n=c#5 v=0
1560 On ch=1 n=c#5 v=100
1560 On ch=1 n=f#5 v=100
1560 On ch=1 n=a#5 v=100
1680 On ch=1 n=a#5 v=0
1680 On ch=1 n=f#5 v=0
1680 On ch=1 n=c#5 v=0
1680 On ch=1 n=c#5 v=100
1680 On ch=1 n=f#5 v=100
1680 On ch=1 n=a#5 v=100
1800 On ch=1 n=a#5 v=0
1800 On ch=1 n=f#5 v=0
1800 On ch=1 n=c#5 v=0
1920 On ch=1 n=c#5 v=100
1920 On ch=1 n=f5 v=100
1920 On ch=1 n=b5 v=100
2040 On ch=1 n=b5 v=0
2040 On ch=1 n=f5 v=0
2040 On ch=1 n=c#5 v=0
2040 On ch=1 n=c#5 v=100
2040 On ch=1 n=f5 v=100
2040 On ch=1 n=b5 v=100
2160 On ch=1 n=b5 v=0
2160 On ch=1 n=f5 v=0
2160 On ch=1 n=c#5 v=0
2280 On ch=1 n=c#5 v=100
2280 On ch=1 n=f#5 v=100
2280 On ch=1 n=a#5 v=100
2400 On ch=1 n=a#5 v=0
2400 On ch=1 n=f#5 v=0
2400 On ch=1 n=c#5 v=0
2400 On ch=1 n=c#5 v=100
2400 On ch=1 n=f#5 v=100
2400 On ch=1 n=a#5 v=100
2520 On ch=1 n=a#5 v=0
2520 On ch=1 n=f#5 v=0
2520 On ch=1 n=c#5 v=0
2640 On ch=1 n=c#5 v=100
2640 On ch=1 n=f5 v=100
2640 On ch=1 n=b5 v=100
2760 On ch=1 n=b5 v=0
2760 On ch=1 n=f5 v=0
2760 On ch=1 n=c#5 v=0
2760 On ch=1 n=c#5 v=100
2760 On ch=1 n=f5 v=100
2760 On ch=1 n=b5 v=100
2880 On ch=1 n=b5 v=0
2880 On ch=1 n=f5 v=0
2880 On ch=1 n=c#5 v=0
2880 On ch=1 n=f#4 v=100
3000 On ch=1 n=f#4 v=0
3000 On ch=1 n=a#5 v=86
3000 On ch=1 n=c#5 v=86
3120 On ch=1 n=c#5 v=0
3120 On ch=1 n=a#5 v=0
3360 On ch=1 n=c#5 v=60
3360 On ch=1 n=f5 v=60
3360 On ch=1 n=b5 v=60
3480 On ch=1 n=b5 v=0
3480 On ch=1 n=f5 v=0
3480 On ch=1 n=c#5 v=0
3480 On ch=1 n=c#5 v=60
3480 On ch=1 n=f5 v=60
3480 On ch=1 n=b5 v=60
3600 On ch=1 n=b5 v=0
3600 On ch=1 n=f5 v=0
3600 On ch=1 n=c#5 v=0
3720 On ch=1 n=c#5 v=60
3720 On ch=1 n=f#5 v=60
3720 On ch=1 n=a#5 v=60
3840 On ch=1 n=a#5 v=0
3840 On ch=1 n=f#5 v=0
3840 On ch=1 n=c#5 v=0
3840 On ch=1 n=c#5 v=60
3840 On ch=1 n=f#5 v=60
3840 On ch=1 n=a#5 v=60
3960 On ch=1 n=a#5 v=0
3960 On ch=1 n=f#5 v=0
3960 On ch=1 n=c#5 v=0
4080 On ch=1 n=c#5 v=60
4080 On ch=1 n=f5 v=60
4080 On ch=1 n=b5 v=60
4200 On ch=1 n=b5 v=0
4200 On ch=1 n=f5 v=0
4200 On ch=1 n=c#5 v=0
4200 On ch=1 n=c#5 v=60
4200 On ch=1 n=f5 v=60
4200 On ch=1 n=b5 v=60
4320 On ch=1 n=b5 v=0
4320 On ch=1 n=f5 v=0
4320 On ch=1 n=c#5 v=0
4440 On ch=1 n=c#5 v=60
4440 On ch=1 n=f#5 v=60
4440 On ch=1 n=a#5 v=60
4560 On ch=1 n=a#5 v=0
4560 On ch=1 n=f#5 v=0
4560 On ch=1 n=c#5 v=0
4560 On ch=1 n=c#5 v=60
4560 On ch=1 n=f#5 v=60
4560 On ch=1 n=a#5 v=60
4680 On ch=1 n=a#5 v=0
4680 On ch=1 n=f#5 v=0
4680 On ch=1 n=c#5 v=0
4800 On ch=1 n=c#5 v=60
4800 On ch=1 n=f5 v=60
4800 On ch=1 n=b5 v=60
4920 On ch=1 n=b5 v=0
4920 On ch=1 n=f5 v=0
4920 On ch=1 n=c#5 v=0
4920 On ch=1 n=c#5 v=60
4920 On ch=1 n=f5 v=60
4920 On ch=1 n=b5 v=60
5040 On ch=1 n=b5 v=0
5040 On ch=1 n=f5 v=0
5040 On ch=1 n=c#5 v=0
5160 On ch=1 n=c#5 v=60
5160 On ch=1 n=f#5 v=60
5160 On ch=1 n=a#5 v=60
5280 On ch=1 n=a#5 v=0
5280 On ch=1 n=f#5 v=0
5280 On ch=1 n=c#5 v=0
5280 On ch=1 n=c#5 v=60
5280 On ch=1 n=f#5 v=60
5280 On ch=1 n=a#5 v=60
5400 On ch=1 n=a#5 v=0
5400 On ch=1 n=f#5 v=0
5400 On ch=1 n=c#5 v=0
5520 On ch=1 n=c#5 v=60
5520 On ch=1 n=f5 v=60
5520 On ch=1 n=b5 v=60
5640 On ch=1 n=b5 v=0
5640 On ch=1 n=f5 v=0
5640 On ch=1 n=c#5 v=0
5640 On ch=1 n=c#5 v=60
5640 On ch=1 n=f5 v=60
5640 On ch=1 n=b5 v=60
5760 On ch=1 n=b5 v=0
5760 On ch=1 n=f5 v=0
5760 On ch=1 n=c#5 v=0
5760 On ch=1 n=f#4 v=60
5880 On ch=1 n=f#4 v=0
5880 On ch=1 n=a#5 v=74
5880 On ch=1 n=c#5 v=74
6000 On ch=1 n=c#5 v=0
6000 On ch=1 n=a#5 v=0
12360 On ch=1 n=b4 v=60
12360 On ch=1 n=d#5 v=60
12360 On ch=1 n=g#5 v=60
12480 On ch=1 n=g#5 v=0
12480 On ch=1 n=d#5 v=0
12480 On ch=1 n=b4 v=0
12480 On ch=1 n=b4 v=60
12480 On ch=1 n=d#5 v=60
12480 On ch=1 n=g#5 v=60
12600 On ch=1 n=g#5 v=0
12600 On ch=1 n=d#5 v=0
12600 On ch=1 n=b4 v=0
13440 On ch=1 n=f#5 v=60
13440 On ch=1 n=a#4 v=60
13440 On ch=1 n=c#5 v=60
13560 On ch=1 n=c#5 v=0
13560 On ch=1 n=a#4 v=0
13560 On ch=1 n=f#5 v=0
13560 On ch=1 n=f#5 v=60
13560 On ch=1 n=a#4 v=60
13560 On ch=1 n=c#5 v=60
13680 On ch=1 n=c#5 v=0
13680 On ch=1 n=a#4 v=0
13680 On ch=1 n=f#5 v=0
13800 On ch=1 n=b4 v=60
13800 On ch=1 n=d#5 v=60
13800 On ch=1 n=g#5 v=60
13920 On ch=1 n=g#5 v=0
13920 On ch=1 n=d#5 v=0
13920 On ch=1 n=b4 v=0
13920 On ch=1 n=b4 v=60
13920 On ch=1 n=d#5 v=60
13920 On ch=1 n=g#5 v=60
14040 On ch=1 n=g#5 v=0
14040 On ch=1 n=d#5 v=0
14040 On ch=1 n=b4 v=0
15240 On ch=1 n=b4 v=60
15240 On ch=1 n=d#5 v=60
15240 On ch=1 n=g#5 v=60
15360 On ch=1 n=g#5 v=0
15360 On ch=1 n=d#5 v=0
15360 On ch=1 n=b4 v=0
15360 On ch=1 n=b4 v=60
15360 On ch=1 n=d#5 v=60
15360 On ch=1 n=g#5 v=60
15480 On ch=1 n=g#5 v=0
15480 On ch=1 n=d#5 v=0
15480 On ch=1 n=b4 v=0
16320 On ch=1 n=f#5 v=60
16320 On ch=1 n=a#4 v=60
16320 On ch=1 n=c#5 v=60
16440 On ch=1 n=c#5 v=0
16440 On ch=1 n=a#4 v=0
16440 On ch=1 n=f#5 v=0
16440 On ch=1 n=f#5 v=60
16440 On ch=1 n=a#4 v=60
16440 On ch=1 n=c#5 v=60
16560 On ch=1 n=c#5 v=0
16560 On ch=1 n=a#4 v=0
16560 On ch=1 n=f#5 v=0
16680 On ch=1 n=b4 v=60
16680 On ch=1 n=d#5 v=60
16680 On ch=1 n=g#5 v=60
16800 On ch=1 n=g#5 v=0
16800 On ch=1 n=d#5 v=0
16800 On ch=1 n=b4 v=0
16800 On ch=1 n=b4 v=60
16800 On ch=1 n=d#5 v=60
16800 On ch=1 n=g#5 v=60
16920 On ch=1 n=g#5 v=0
16920 On ch=1 n=d#5 v=0
16920 On ch=1 n=b4 v=0
17760 On ch=1 n=a#4 v=64
17760 On ch=1 n=d5 v=64
17760 On ch=1 n=g#5 v=64
17880 On ch=1 n=g#5 v=0
17880 On ch=1 n=d5 v=0
17880 On ch=1 n=a#4 v=0
17880 On ch=1 n=a#4 v=69
17880 On ch=1 n=d5 v=69
17880 On ch=1 n=g#5 v=69
18000 On ch=1 n=g#5 v=0
18000 On ch=1 n=d5 v=0
18000 On ch=1 n=a#4 v=0
18840 On ch=1 n=g5 v=86
18960 On ch=1 n=g5 v=0
18960 On ch=1 n=g#5 v=71
19080 On ch=1 n=g#5 v=0
21000 On ch=1 n=b4 v=60
21000 On ch=1 n=d#5 v=60
21000 On ch=1 n=g#5 v=60
21120 On ch=1 n=g#5 v=0
21120 On ch=1 n=d#5 v=0
21120 On ch=1 n=b4 v=0
21120 On ch=1 n=b4 v=60
21120 On ch=1 n=d#5 v=60
21120 On ch=1 n=g#5 v=60
21240 On ch=1 n=g#5 v=0
21240 On ch=1 n=d#5 v=0
21240 On ch=1 n=b4 v=0
22080 On ch=1 n=f#5 v=60
22080 On ch=1 n=a#4 v=60
22080 On ch=1 n=c#5 v=60
22200 On ch=1 n=c#5 v=0
22200 On ch=1 n=a#4 v=0
22200 On ch=1 n=f#5 v=0
22200 On ch=1 n=f#5 v=60
22200 On ch=1 n=a#4 v=60
22200 On ch=1 n=c#5 v=60
22320 On ch=1 n=c#5 v=0
22320 On ch=1 n=a#4 v=0
22320 On ch=1 n=f#5 v=0
22440 On ch=1 n=b4 v=60
22440 On ch=1 n=d#5 v=60
22440 On ch=1 n=g#5 v=60
22560 On ch=1 n=g#5 v=0
22560 On ch=1 n=d#5 v=0
22560 On ch=1 n=b4 v=0
22560 On ch=1 n=b4 v=60
22560 On ch=1 n=d#5 v=60
22560 On ch=1 n=g#5 v=60
22680 On ch=1 n=g#5 v=0
22680 On ch=1 n=d#5 v=0
22680 On ch=1 n=b4 v=0
23520 On ch=1 n=a#4 v=64
23520 On ch=1 n=d5 v=64
23520 On ch=1 n=g#5 v=64
23640 On ch=1 n=g#5 v=0
23640 On ch=1 n=d5 v=0
23640 On ch=1 n=a#4 v=0
23640 On ch=1 n=a#4 v=69
23640 On ch=1 n=d5 v=69
23640 On ch=1 n=g#5 v=69
23760 On ch=1 n=g#5 v=0
23760 On ch=1 n=d5 v=0
23760 On ch=1 n=a#4 v=0
24600 On ch=1 n=g5 v=86
24720 On ch=1 n=g5 v=0
24720 On ch=1 n=g#5 v=71
24840 On ch=1 n=g#5 v=0
26760 On ch=1 n=b4 v=60
26760 On ch=1 n=d#5 v=60
26760 On ch=1 n=g#5 v=60
26880 On ch=1 n=g#5 v=0
26880 On ch=1 n=d#5 v=0
26880 On ch=1 n=b4 v=0
26880 On ch=1 n=b4 v=60
26880 On ch=1 n=d#5 v=60
26880 On ch=1 n=g#5 v=60
27000 On ch=1 n=g#5 v=0
27000 On ch=1 n=d#5 v=0
27000 On ch=1 n=b4 v=0
27840 On ch=1 n=f#5 v=60
27840 On ch=1 n=a#4 v=60
27840 On ch=1 n=c#5 v=60
27960 On ch=1 n=c#5 v=0
27960 On ch=1 n=a#4 v=0
27960 On ch=1 n=f#5 v=0
27960 On ch=1 n=f#5 v=60
27960 On ch=1 n=a#4 v=60
27960 On ch=1 n=c#5 v=60
28080 On ch=1 n=c#5 v=0
28080 On ch=1 n=a#4 v=0
28080 On ch=1 n=f#5 v=0
28200 On ch=1 n=b4 v=60
28200 On ch=1 n=d#5 v=60
28200 On ch=1 n=g#5 v=60
28320 On ch=1 n=g#5 v=0
28320 On ch=1 n=d#5 v=0
28320 On ch=1 n=b4 v=0
28320 On ch=1 n=b4 v=60
28320 On ch=1 n=d#5 v=60
28320 On ch=1 n=g#5 v=60
28440 On ch=1 n=g#5 v=0
28440 On ch=1 n=d#5 v=0
28440 On ch=1 n=b4 v=0
29280 On ch=1 n=c#5 v=100
29280 On ch=1 n=f5 v=100
29280 On ch=1 n=b5 v=100
29400 On ch=1 n=b5 v=0
29400 On ch=1 n=f5 v=0
29400 On ch=1 n=c#5 v=0
29400 On ch=1 n=c#5 v=100
29400 On ch=1 n=f5 v=100
29400 On ch=1 n=b5 v=100
29520 On ch=1 n=b5 v=0
29520 On ch=1 n=f5 v=0
29520 On ch=1 n=c#5 v=0
29640 On ch=1 n=c#5 v=100
29640 On ch=1 n=f#5 v=100
29640 On ch=1 n=a#5 v=100
29760 On ch=1 n=a#5 v=0
29760 On ch=1 n=f#5 v=0
29760 On ch=1 n=c#5 v=0
29760 On ch=1 n=c#5 v=100
29760 On ch=1 n=f#5 v=100
29760 On ch=1 n=a#5 v=100
29880 On ch=1 n=a#5 v=0
29880 On ch=1 n=f#5 v=0
29880 On ch=1 n=c#5 v=0
30000 On ch=1 n=c#5 v=100
30000 On ch=1 n=f5 v=100
30000 On ch=1 n=b5 v=100
30120 On ch=1 n=b5 v=0
30120 On ch=1 n=f5 v=0
30120 On ch=1 n=c#5 v=0
30120 On ch=1 n=c#5 v=100
30120 On ch=1 n=f5 v=100
30120 On ch=1 n=b5 v=100
30240 On ch=1 n=b5 v=0
30240 On ch=1 n=f5 v=0
30240 On ch=1 n=c#5 v=0
30360 On ch=1 n=c#5 v=100
30360 On ch=1 n=f#5 v=100
30360 On ch=1 n=a#5 v=100
30480 On ch=1 n=a#5 v=0
30480 On ch=1 n=f#5 v=0
30480 On ch=1 n=c#5 v=0
30480 On ch=1 n=c#5 v=100
30480 On ch=1 n=f#5 v=100
30480 On ch=1 n=a#5 v=100
30600 On ch=1 n=a#5 v=0
30600 On ch=1 n=f#5 v=0
30600 On ch=1 n=c#5 v=0
30720 On ch=1 n=c#5 v=100
30720 On ch=1 n=f5 v=100
30720 On ch=1 n=b5 v=100
30840 On ch=1 n=b5 v=0
30840 On ch=1 n=f5 v=0
30840 On ch=1 n=c#5 v=0
30840 On ch=1 n=c#5 v=100
30840 On ch=1 n=f5 v=100
30840 On ch=1 n=b5 v=100
30960 On ch=1 n=b5 v=0
30960 On ch=1 n=f5 v=0
30960 On ch=1 n=c#5 v=0
31080 On ch=1 n=c#5 v=100
31080 On ch=1 n=f#5 v=100
31080 On ch=1 n=a#5 v=100
31200 On ch=1 n=a#5 v=0
31200 On ch=1 n=f#5 v=0
31200 On ch=1 n=c#5 v=0
31200 On ch=1 n=c#5 v=100
31200 On ch=1 n=f#5 v=100
31200 On ch=1 n=a#5 v=100
31320 On ch=1 n=a#5 v=0
31320 On ch=1 n=f#5 v=0
31320 On ch=1 n=c#5 v=0
31440 On ch=1 n=c#5 v=100
31440 On ch=1 n=f5 v=100
31440 On ch=1 n=b5 v=100
31560 On ch=1 n=b5 v=0
31560 On ch=1 n=f5 v=0
31560 On ch=1 n=c#5 v=0
31560 On ch=1 n=c#5 v=100
31560 On ch=1 n=f5 v=100
31560 On ch=1 n=b5 v=100
31680 On ch=1 n=b5 v=0
31680 On ch=1 n=f5 v=0
31680 On ch=1 n=c#5 v=0
31680 On ch=1 n=f#4 v=100
31800 On ch=1 n=f#4 v=0
31800 On ch=1 n=a#5 v=86
31800 On ch=1 n=c#5 v=86
31920 On ch=1 n=c#5 v=0
31920 On ch=1 n=a#5 v=0
32160 On ch=1 n=c#5 v=60
32160 On ch=1 n=f5 v=60
32160 On ch=1 n=b5 v=60
32280 On ch=1 n=b5 v=0
32280 On ch=1 n=f5 v=0
32280 On ch=1 n=c#5 v=0
32280 On ch=1 n=c#5 v=60
32280 On ch=1 n=f5 v=60
32280 On ch=1 n=b5 v=60
32400 On ch=1 n=b5 v=0
32400 On ch=1 n=f5 v=0
32400 On ch=1 n=c#5 v=0
32520 On ch=1 n=c#5 v=60
32520 On ch=1 n=f#5 v=60
32520 On ch=1 n=a#5 v=60
32640 On ch=1 n=a#5 v=0
32640 On ch=1 n=f#5 v=0
32640 On ch=1 n=c#5 v=0
32640 On ch=1 n=c#5 v=60
32640 On ch=1 n=f#5 v=60
32640 On ch=1 n=a#5 v=60
32760 On ch=1 n=a#5 v=0
32760 On ch=1 n=f#5 v=0
32760 On ch=1 n=c#5 v=0
32880 On ch=1 n=c#5 v=60
32880 On ch=1 n=f5 v=60
32880 On ch=1 n=b5 v=60
33000 On ch=1 n=b5 v=0
33000 On ch=1 n=f5 v=0
33000 On ch=1 n=c#5 v=0
33000 On ch=1 n=c#5 v=60
33000 On ch=1 n=f5 v=60
33000 On ch=1 n=b5 v=60
33120 On ch=1 n=b5 v=0
33120 On ch=1 n=f5 v=0
33120 On ch=1 n=c#5 v=0
33240 On ch=1 n=c#5 v=60
33240 On ch=1 n=f#5 v=60
33240 On ch=1 n=a#5 v=60
33360 On ch=1 n=a#5 v=0
33360 On ch=1 n=f#5 v=0
33360 On ch=1 n=c#5 v=0
33360 On ch=1 n=c#5 v=60
33360 On ch=1 n=f#5 v=60
33360 On ch=1 n=a#5 v=60
33480 On ch=1 n=a#5 v=0
33480 On ch=1 n=f#5 v=0
33480 On ch=1 n=c#5 v=0
33600 On ch=1 n=c#5 v=60
33600 On ch=1 n=f5 v=60
33600 On ch=1 n=b5 v=60
33720 On ch=1 n=b5 v=0
33720 On ch=1 n=f5 v=0
33720 On ch=1 n=c#5 v=0
33720 On ch=1 n=c#5 v=60
33720 On ch=1 n=f5 v=60
33720 On ch=1 n=b5 v=60
33840 On ch=1 n=b5 v=0
33840 On ch=1 n=f5 v=0
33840 On ch=1 n=c#5 v=0
33960 On ch=1 n=c#5 v=60
33960 On ch=1 n=f#5 v=60
33960 On ch=1 n=a#5 v=60
34080 On ch=1 n=a#5 v=0
34080 On ch=1 n=f#5 v=0
34080 On ch=1 n=c#5 v=0
34080 On ch=1 n=c#5 v=60
34080 On ch=1 n=f#5 v=60
34080 On ch=1 n=a#5 v=60
34200 On ch=1 n=a#5 v=0
34200 On ch=1 n=f#5 v=0
34200 On ch=1 n=c#5 v=0
34320 On ch=1 n=c#5 v=60
34320 On ch=1 n=f5 v=60
34320 On ch=1 n=b5 v=60
34440 On ch=1 n=b5 v=0
34440 On ch=1 n=f5 v=0
34440 On ch=1 n=c#5 v=0
34440 On ch=1 n=c#5 v=60
34440 On ch=1 n=f5 v=60
34440 On ch=1 n=b5 v=60
34560 On ch=1 n=b5 v=0
34560 On ch=1 n=f5 v=0
34560 On ch=1 n=c#5 v=0
34560 On ch=1 n=f#4 v=60
34680 On ch=1 n=f#4 v=0
34680 On ch=1 n=a#5 v=60
34680 On ch=1 n=c#5 v=60
34800 On ch=1 n=c#5 v=0
34800 On ch=1 n=a#5 v=0
34800 Meta TrkEnd
TrkEnd
MTrk
0 Meta 0x21 00
0 Meta TrkName "Left Bass"
0 PrCh ch=1 p=0
360 On ch=1 n=c#4 v=100
480 On ch=1 n=c#4 v=0
720 On ch=1 n=f#4 v=100
840 On ch=1 n=f#4 v=0
1080 On ch=1 n=c#4 v=100
1200 On ch=1 n=c#4 v=0
1440 On ch=1 n=f#4 v=100
1560 On ch=1 n=f#4 v=0
1800 On ch=1 n=c#4 v=100
1920 On ch=1 n=c#4 v=0
2160 On ch=1 n=f#4 v=100
2280 On ch=1 n=f#4 v=0
2520 On ch=1 n=c#4 v=100
2640 On ch=1 n=c#4 v=0
3240 On ch=1 n=c#4 v=60
3360 On ch=1 n=c#4 v=0
3600 On ch=1 n=f#4 v=60
3720 On ch=1 n=f#4 v=0
3960 On ch=1 n=c#4 v=60
4080 On ch=1 n=c#4 v=0
4320 On ch=1 n=f#4 v=60
4440 On ch=1 n=f#4 v=0
4680 On ch=1 n=c#4 v=60
4800 On ch=1 n=c#4 v=0
5040 On ch=1 n=f#4 v=60
5160 On ch=1 n=f#4 v=0
5400 On ch=1 n=c#4 v=60
5520 On ch=1 n=c#4 v=0
6120 On ch=1 n=g#3 v=100
6240 On ch=1 n=g#3 v=0
6240 On ch=1 n=f#5 v=100
6240 On ch=1 n=d#5 v=100
6240 On ch=1 n=g#4 v=100
6360 On ch=1 n=g#4 v=0
6360 On ch=1 n=d#5 v=0
6360 On ch=1 n=f#5 v=0
6360 On ch=1 n=c5 v=100
6360 On ch=1 n=f#5 v=100
6360 On ch=1 n=g#4 v=100
6480 On ch=1 n=g#4 v=0
6480 On ch=1 n=f#5 v=0
6480 On ch=1 n=c5 v=0
6480 On ch=1 n=c#3 v=100
6600 On ch=1 n=c#3 v=0
6600 On ch=1 n=f5 v=100
6600 On ch=1 n=c#5 v=100
6600 On ch=1 n=g#4 v=100
6720 On ch=1 n=g#4 v=0
6720 On ch=1 n=c#5 v=0
6720 On ch=1 n=f5 v=0
6720 On ch=1 n=c#5 v=100
6720 On ch=1 n=f5 v=100
6720 On ch=1 n=g#4 v=100
6840 On ch=1 n=g#4 v=0
6840 On ch=1 n=f5 v=0
6840 On ch=1 n=c#5 v=0
6840 On ch=1 n=g#3 v=100
6960 On ch=1 n=g#3 v=0
6960 On ch=1 n=f#5 v=100
6960 On ch=1 n=d#5 v=100
6960 On ch=1 n=g#4 v=100
7080 On ch=1 n=g#4 v=0
7080 On ch=1 n=d#5 v=0
7080 On ch=1 n=f#5 v=0
7080 On ch=1 n=d#5 v=100
7080 On ch=1 n=f#5 v=100
7080 On ch=1 n=g#4 v=100
7200 On ch=1 n=g#4 v=0
7200 On ch=1 n=f#5 v=0
7200 On ch=1 n=d#5 v=0
7200 On ch=1 n=c#4 v=100
7320 On ch=1 n=c#4 v=0
7320 On ch=1 n=f5 v=100
7320 On ch=1 n=c#5 v=100
7320 On ch=1 n=g#4 v=100
7440 On ch=1 n=g#4 v=0
7440 On ch=1 n=c#5 v=0
7440 On ch=1 n=f5 v=0
7440 On ch=1 n=c#5 v=100
7440 On ch=1 n=f5 v=100
7440 On ch=1 n=g#4 v=100
7560 On ch=1 n=g#4 v=0
7560 On ch=1 n=f5 v=0
7560 On ch=1 n=c#5 v=0
7560 On ch=1 n=g#3 v=100
7680 On ch=1 n=g#3 v=0
7680 On ch=1 n=f#5 v=100
7680 On ch=1 n=d#5 v=100
7680 On ch=1 n=g#4 v=100
7800 On ch=1 n=g#4 v=0
7800 On ch=1 n=d#5 v=0
7800 On ch=1 n=f#5 v=0
7800 On ch=1 n=c5 v=100
7800 On ch=1 n=f#5 v=100
7800 On ch=1 n=g#4 v=100
7920 On ch=1 n=g#4 v=0
7920 On ch=1 n=f#5 v=0
7920 On ch=1 n=c5 v=0
7920 On ch=1 n=c#3 v=100
8040 On ch=1 n=c#3 v=0
8040 On ch=1 n=f5 v=100
8040 On ch=1 n=c#5 v=100
8040 On ch=1 n=g#4 v=100
8160 On ch=1 n=g#4 v=0
8160 On ch=1 n=c#5 v=0
8160 On ch=1 n=f5 v=0
8160 On ch=1 n=c#5 v=100
8160 On ch=1 n=f5 v=100
8160 On ch=1 n=g#4 v=100
8280 On ch=1 n=g#4 v=0
8280 On ch=1 n=f5 v=0
8280 On ch=1 n=c#5 v=0
8280 On ch=1 n=g#3 v=100
8400 On ch=1 n=g#3 v=0
8400 On ch=1 n=f#5 v=100
8400 On ch=1 n=d#5 v=100
8400 On ch=1 n=g#4 v=100
8520 On ch=1 n=g#4 v=0
8520 On ch=1 n=d#5 v=0
8520 On ch=1 n=f#5 v=0
8520 On ch=1 n=d#5 v=100
8520 On ch=1 n=f#5 v=100
8520 On ch=1 n=g#4 v=100
8640 On ch=1 n=g#4 v=0
8640 On ch=1 n=f#5 v=0
8640 On ch=1 n=d#5 v=0
8640 On ch=1 n=c#3 v=100
8760 On ch=1 n=c#3 v=0
8760 On ch=1 n=f5 v=86
8760 On ch=1 n=c#5 v=86
8760 On ch=1 n=g#4 v=86
8880 On ch=1 n=g#4 v=0
8880 On ch=1 n=c#5 v=0
8880 On ch=1 n=f5 v=0
9000 On ch=1 n=g#3 v=60
9120 On ch=1 n=g#3 v=0
9120 On ch=1 n=f#5 v=60
9120 On ch=1 n=d#5 v=60
9120 On ch=1 n=g#4 v=60
9240 On ch=1 n=g#4 v=0
9240 On ch=1 n=d#5 v=0
9240 On ch=1 n=f#5 v=0
9240 On ch=1 n=c5 v=60
9240 On ch=1 n=f#5 v=60
9240 On ch=1 n=g#4 v=60
9360 On ch=1 n=g#4 v=0
9360 On ch=1 n=f#5 v=0
9360 On ch=1 n=c5 v=0
9360 On ch=1 n=c#3 v=60
9480 On ch=1 n=c#3 v=0
9480 On ch=1 n=f5 v=60
9480 On ch=1 n=c#5 v=60
9480 On ch=1 n=g#4 v=60
9600 On ch=1 n=g#4 v=0
9600 On ch=1 n=c#5 v=0
9600 On ch=1 n=f5 v=0
9600 On ch=1 n=c#5 v=60
9600 On ch=1 n=f5 v=60
9600 On ch=1 n=g#4 v=60
9720 On ch=1 n=g#4 v=0
9720 On ch=1 n=f5 v=0
9720 On ch=1 n=c#5 v=0
9720 On ch=1 n=g#3 v=60
9840 On ch=1 n=g#3 v=0
9840 On ch=1 n=f#5 v=60
9840 On ch=1 n=d#5 v=60
9840 On ch=1 n=g#4 v=60
9960 On ch=1 n=g#4 v=0
9960 On ch=1 n=d#5 v=0
9960 On ch=1 n=f#5 v=0
9960 On ch=1 n=d#5 v=60
9960 On ch=1 n=f#5 v=60
9960 On ch=1 n=g#4 v=60
10080 On ch=1 n=g#4 v=0
10080 On ch=1 n=f#5 v=0
10080 On ch=1 n=d#5 v=0
10080 On ch=1 n=c#4 v=60
10200 On ch=1 n=c#4 v=0
10200 On ch=1 n=f5 v=60
10200 On ch=1 n=c#5 v=60
10200 On ch=1 n=g#4 v=60
10320 On ch=1 n=g#4 v=0
10320 On ch=1 n=c#5 v=0
10320 On ch=1 n=f5 v=0
10320 On ch=1 n=c#5 v=60
10320 On ch=1 n=f5 v=60
10320 On ch=1 n=g#4 v=60
10440 On ch=1 n=g#4 v=0
10440 On ch=1 n=f5 v=0
10440 On ch=1 n=c#5 v=0
10440 On ch=1 n=g#3 v=60
10560 On ch=1 n=g#3 v=0
10560 On ch=1 n=f#5 v=60
10560 On ch=1 n=d#5 v=60
10560 On ch=1 n=g#4 v=60
10680 On ch=1 n=g#4 v=0
10680 On ch=1 n=d#5 v=0
10680 On ch=1 n=f#5 v=0
10680 On ch=1 n=c5 v=60
10680 On ch=1 n=f#5 v=60
10680 On ch=1 n=g#4 v=60
10800 On ch=1 n=g#4 v=0
10800 On ch=1 n=f#5 v=0
10800 On ch=1 n=c5 v=0
10800 On ch=1 n=c#3 v=60
10920 On ch=1 n=c#3 v=0
10920 On ch=1 n=f5 v=60
10920 On ch=1 n=c#5 v=60
10920 On ch=1 n=g#4 v=60
11040 On ch=1 n=g#4 v=0
11040 On ch=1 n=c#5 v=0
11040 On ch=1 n=f5 v=0
11040 On ch=1 n=c#5 v=60
11040 On ch=1 n=f5 v=60
11040 On ch=1 n=g#4 v=60
11160 On ch=1 n=g#4 v=0
11160 On ch=1 n=f5 v=0
11160 On ch=1 n=c#5 v=0
11160 On ch=1 n=g#3 v=60
11280 On ch=1 n=g#3 v=0
11280 On ch=1 n=f#5 v=60
11280 On ch=1 n=d#5 v=60
11280 On ch=1 n=g#4 v=60
11400 On ch=1 n=g#4 v=0
11400 On ch=1 n=d#5 v=0
11400 On ch=1 n=f#5 v=0
11400 On ch=1 n=d#5 v=60
11400 On ch=1 n=f#5 v=60
11400 On ch=1 n=g#4 v=60
11520 On ch=1 n=g#4 v=0
11520 On ch=1 n=f#5 v=0
11520 On ch=1 n=d#5 v=0
11520 On ch=1 n=c#3 v=60
11640 On ch=1 n=c#3 v=0
11640 On ch=1 n=f5 v=60
11640 On ch=1 n=c#5 v=60
11640 On ch=1 n=g#4 v=60
11760 On ch=1 n=g#4 v=0
11760 On ch=1 n=c#5 v=0
11760 On ch=1 n=f5 v=0
11760 On ch=1 n=f5 v=60
11760 On ch=1 n=b4 v=60
11760 On ch=1 n=g#4 v=60
11880 On ch=1 n=g#4 v=0
11880 On ch=1 n=b4 v=0
11880 On ch=1 n=f5 v=0
11880 On ch=1 n=f#2 v=60
12000 On ch=1 n=f#2 v=0
12000 On ch=1 n=f#5 v=60
12000 On ch=1 n=c#5 v=60
12000 On ch=1 n=a#4 v=60
12120 On ch=1 n=a#4 v=0
12120 On ch=1 n=c#5 v=0
12120 On ch=1 n=f#5 v=0
12120 On ch=1 n=a#4 v=60
12120 On ch=1 n=c#5 v=60
12120 On ch=1 n=f#5 v=60
12240 On ch=1 n=f#5 v=0
12240 On ch=1 n=c#5 v=0
12240 On ch=1 n=a#4 v=0
12240 On ch=1 n=b2 v=60
12360 On ch=1 n=b2 v=0
12600 On ch=1 n=c#3 v=60
12720 On ch=1 n=c#3 v=0
12720 On ch=1 n=c#5 v=60
12720 On ch=1 n=c#4 v=60
12840 On ch=1 n=c#4 v=0
12840 On ch=1 n=c#5 v=0
12840 On ch=1 n=c#5 v=60
12840 On ch=1 n=c#4 v=60
12960 On ch=1 n=c#4 v=0
12960 On ch=1 n=c#5 v=0
12960 On ch=1 n=f#3 v=60
13080 On ch=1 n=f#3 v=0
13080 On ch=1 n=c#5 v=60
13080 On ch=1 n=a#4 v=60
13080 On ch=1 n=f#4 v=60
13200 On ch=1 n=f#4 v=0
13200 On ch=1 n=a#4 v=0
13200 On ch=1 n=c#5 v=0
13200 On ch=1 n=c#5 v=60
13200 On ch=1 n=a#4 v=60
13200 On ch=1 n=f#4 v=60
13320 On ch=1 n=f#4 v=0
13320 On ch=1 n=a#4 v=0
13320 On ch=1 n=c#5 v=0
13320 On ch=1 n=f#2 v=60
13440 On ch=1 n=f#2 v=0
13680 On ch=1 n=b2 v=60
13800 On ch=1 n=b2 v=0
14040 On ch=1 n=c#3 v=60
14160 On ch=1 n=c#3 v=0
14160 On ch=1 n=c#5 v=60
14160 On ch=1 n=c#4 v=60
14280 On ch=1 n=c#4 v=0
14280 On ch=1 n=c#5 v=0
14280 On ch=1 n=c#5 v=60
14280 On ch=1 n=c#4 v=60
14400 On ch=1 n=c#4 v=0
14400 On ch=1 n=c#5 v=0
14400 On ch=1 n=c#5 v=60
14400 On ch=1 n=f#4 v=60
14520 On ch=1 n=f#4 v=0
14520 On ch=1 n=c#5 v=0
14520 On ch=1 n=f#3 v=60
14640 On ch=1 n=f#3 v=0
14760 On ch=1 n=f#2 v=60
14880 On ch=1 n=f#2 v=0
14880 On ch=1 n=f#5 v=60
14880 On ch=1 n=c#5 v=60
14880 On ch=1 n=a#4 v=60
15000 On ch=1 n=a#4 v=0
15000 On ch=1 n=c#5 v=0
15000 On ch=1 n=f#5 v=0
15000 On ch=1 n=a#4 v=60
15000 On ch=1 n=c#5 v=60
15000 On ch=1 n=f#5 v=60
15120 On ch=1 n=f#5 v=0
15120 On ch=1 n=c#5 v=0
15120 On ch=1 n=a#4 v=0
15120 On ch=1 n=b2 v=60
15240 On ch=1 n=b2 v=0
15480 On ch=1 n=c#3 v=60
15600 On ch=1 n=c#3 v=0
15600 On ch=1 n=c#5 v=60
15600 On ch=1 n=c#4 v=60
15720 On ch=1 n=c#4 v=0
15720 On ch=1 n=c#5 v=0
15720 On ch=1 n=c#5 v=60
15720 On ch=1 n=c#4 v=60
15840 On ch=1 n=c#4 v=0
15840 On ch=1 n=c#5 v=0
15840 On ch=1 n=f#3 v=60
15960 On ch=1 n=f#3 v=0
15960 On ch=1 n=c#5 v=60
15960 On ch=1 n=a#4 v=60
15960 On ch=1 n=f#4 v=60
16080 On ch=1 n=f#4 v=0
16080 On ch=1 n=a#4 v=0
16080 On ch=1 n=c#5 v=0
16080 On ch=1 n=c#5 v=60
16080 On ch=1 n=a#4 v=60
16080 On ch=1 n=f#4 v=60
16200 On ch=1 n=f#4 v=0
16200 On ch=1 n=a#4 v=0
16200 On ch=1 n=c#5 v=0
16200 On ch=1 n=f#2 v=60
16320 On ch=1 n=f#2 v=0
16560 On ch=1 n=b2 v=60
16680 On ch=1 n=b2 v=0
16920 On ch=1 n=c#3 v=60
17040 On ch=1 n=c#3 v=0
17040 On ch=1 n=c#5 v=60
17040 On ch=1 n=c#4 v=60
17160 On ch=1 n=c#4 v=0
17160 On ch=1 n=c#5 v=0
17160 On ch=1 n=c#5 v=60
17160 On ch=1 n=c#4 v=60
17280 On ch=1 n=c#4 v=0
17280 On ch=1 n=c#5 v=0
17280 On ch=1 n=c#5 v=60
17280 On ch=1 n=f#4 v=60
17400 On ch=1 n=f#4 v=0
17400 On ch=1 n=c#5 v=0
17400 On ch=1 n=f#3 v=60
17520 On ch=1 n=f#3 v=0
17640 On ch=1 n=a#3 v=60
17760 On ch=1 n=a#3 v=0
18000 On ch=1 n=d#3 v=73
18000 On ch=1 n=d#4 v=73
18120 On ch=1 n=d#4 v=0
18120 On ch=1 n=d#3 v=0
18120 On ch=1 n=d#5 v=78
18120 On ch=1 n=d#4 v=78
18240 On ch=1 n=d#4 v=0
18240 On ch=1 n=d#5 v=0
18240 On ch=1 n=d#5 v=83
18240 On ch=1 n=d#4 v=83
18360 On ch=1 n=d#4 v=0
18360 On ch=1 n=d#5 v=0
18360 On ch=1 n=f#3 v=87
18360 On ch=1 n=f#4 v=87
18480 On ch=1 n=f#4 v=0
18480 On ch=1 n=f#3 v=0
18480 On ch=1 n=f#5 v=92
18480 On ch=1 n=f#4 v=92
18600 On ch=1 n=f#4 v=0
18600 On ch=1 n=f#5 v=0
18600 On ch=1 n=f#5 v=96
18600 On ch=1 n=f#4 v=96
18720 On ch=1 n=f#4 v=0
18720 On ch=1 n=f#5 v=0
18720 On ch=1 n=b2 v=100
18720 On ch=1 n=b3 v=100
18840 On ch=1 n=b3 v=0
18840 On ch=1 n=b2 v=0
19080 On ch=1 n=d#3 v=60
19080 On ch=1 n=d#4 v=60
19200 On ch=1 n=d#4 v=0
19200 On ch=1 n=d#3 v=0
19200 On ch=1 n=d#5 v=60
19320 On ch=1 n=d#5 v=0
19320 On ch=1 n=d#5 v=60
19440 On ch=1 n=d#5 v=0
19440 On ch=1 n=g#3 v=60
19440 On ch=1 n=g#4 v=60
19560 On ch=1 n=g#4 v=0
19560 On ch=1 n=g#3 v=0
19560 On ch=1 n=d#5 v=60
19680 On ch=1 n=d#5 v=0
19680 On ch=1 n=d#5 v=60
19800 On ch=1 n=d#5 v=0
19800 On ch=1 n=g#3 v=60
19800 On ch=1 n=g#4 v=60
19920 On ch=1 n=g#4 v=0
19920 On ch=1 n=g#3 v=0
19920 On ch=1 n=d#5 v=60
20040 On ch=1 n=d#5 v=0
20040 On ch=1 n=d#5 v=60
20160 On ch=1 n=d#5 v=0
20160 On ch=1 n=c#3 v=60
20160 On ch=1 n=c#4 v=60
20280 On ch=1 n=c#4 v=0
20280 On ch=1 n=c#3 v=0
20280 On ch=1 n=f5 v=60
20280 On ch=1 n=c#5 v=60
20280 On ch=1 n=g#4 v=60
20400 On ch=1 n=g#4 v=0
20400 On ch=1 n=c#5 v=0
20400 On ch=1 n=f5 v=0
20400 On ch=1 n=c#5 v=60
20400 On ch=1 n=f5 v=60
20400 On ch=1 n=g#4 v=60
20520 On ch=1 n=g#4 v=0
20520 On ch=1 n=f5 v=0
20520 On ch=1 n=c#5 v=0
20520 On ch=1 n=f#2 v=60
20640 On ch=1 n=f#2 v=0
20640 On ch=1 n=f#5 v=60
20640 On ch=1 n=c#5 v=60
20640 On ch=1 n=a#4 v=60
20760 On ch=1 n=a#4 v=0
20760 On ch=1 n=c#5 v=0
20760 On ch=1 n=f#5 v=0
20760 On ch=1 n=a#4 v=60
20760 On ch=1 n=c#5 v=60
20760 On ch=1 n=f#5 v=60
20880 On ch=1 n=f#5 v=0
20880 On ch=1 n=c#5 v=0
20880 On ch=1 n=a#4 v=0
20880 On ch=1 n=b2 v=60
21000 On ch=1 n=b2 v=0
21240 On ch=1 n=c#3 v=60
21360 On ch=1 n=c#3 v=0
21360 On ch=1 n=c#5 v=60
21360 On ch=1 n=c#4 v=60
21480 On ch=1 n=c#4 v=0
21480 On ch=1 n=c#5 v=0
21480 On ch=1 n=c#5 v=60
21480 On ch=1 n=c#4 v=60
21600 On ch=1 n=c#4 v=0
21600 On ch=1 n=c#5 v=0
21600 On ch=1 n=f#3 v=60
21720 On ch=1 n=f#3 v=0
21720 On ch=1 n=c#5 v=60
21720 On ch=1 n=a#4 v=60
21720 On ch=1 n=f#4 v=60
21840 On ch=1 n=f#4 v=0
21840 On ch=1 n=a#4 v=0
21840 On ch=1 n=c#5 v=0
21840 On ch=1 n=c#5 v=60
21840 On ch=1 n=a#4 v=60
21840 On ch=1 n=f#4 v=60
21960 On ch=1 n=f#4 v=0
21960 On ch=1 n=a#4 v=0
21960 On ch=1 n=c#5 v=0
21960 On ch=1 n=f#2 v=60
22080 On ch=1 n=f#2 v=0
22320 On ch=1 n=b2 v=60
22440 On ch=1 n=b2 v=0
22680 On ch=1 n=c#3 v=60
22800 On ch=1 n=c#3 v=0
22800 On ch=1 n=c#5 v=60
22800 On ch=1 n=c#4 v=60
22920 On ch=1 n=c#4 v=0
22920 On ch=1 n=c#5 v=0
22920 On ch=1 n=c#5 v=60
22920 On ch=1 n=c#4 v=60
23040 On ch=1 n=c#4 v=0
23040 On ch=1 n=c#5 v=0
23040 On ch=1 n=c#5 v=60
23040 On ch=1 n=f#4 v=60
23160 On ch=1 n=f#4 v=0
23160 On ch=1 n=c#5 v=0
23160 On ch=1 n=f#3 v=60
23280 On ch=1 n=f#3 v=0
23400 On ch=1 n=a#3 v=60
23520 On ch=1 n=a#3 v=0
23760 On ch=1 n=d#3 v=73
23760 On ch=1 n=d#4 v=73
23880 On ch=1 n=d#4 v=0
23880 On ch=1 n=d#3 v=0
23880 On ch=1 n=d#5 v=78
23880 On ch=1 n=d#4 v=78
24000 On ch=1 n=d#4 v=0
24000 On ch=1 n=d#5 v=0
24000 On ch=1 n=d#5 v=83
24000 On ch=1 n=d#4 v=83
24120 On ch=1 n=d#4 v=0
24120 On ch=1 n=d#5 v=0
24120 On ch=1 n=f#3 v=87
24120 On ch=1 n=f#4 v=87
24240 On ch=1 n=f#4 v=0
24240 On ch=1 n=f#3 v=0
24240 On ch=1 n=f#5 v=92
24240 On ch=1 n=f#4 v=92
24360 On ch=1 n=f#4 v=0
24360 On ch=1 n=f#5 v=0
24360 On ch=1 n=f#5 v=96
24360 On ch=1 n=f#4 v=96
24480 On ch=1 n=f#4 v=0
24480 On ch=1 n=f#5 v=0
24480 On ch=1 n=b2 v=100
24480 On ch=1 n=b3 v=100
24600 On ch=1 n=b3 v=0
24600 On ch=1 n=b2 v=0
24840 On ch=1 n=d#3 v=60
24840 On ch=1 n=d#4 v=60
24960 On ch=1 n=d#4 v=0
24960 On ch=1 n=d#3 v=0
24960 On ch=1 n=d#5 v=60
25080 On ch=1 n=d#5 v=0
25080 On ch=1 n=d#5 v=60
25200 On ch=1 n=d#5 v=0
25200 On ch=1 n=g#3 v=60
25200 On ch=1 n=g#4 v=60
25320 On ch=1 n=g#4 v=0
25320 On ch=1 n=g#3 v=0
25320 On ch=1 n=d#5 v=60
25440 On ch=1 n=d#5 v=0
25440 On ch=1 n=d#5 v=60
25560 On ch=1 n=d#5 v=0
25560 On ch=1 n=g#3 v=60
25560 On ch=1 n=g#4 v=60
25680 On ch=1 n=g#4 v=0
25680 On ch=1 n=g#3 v=0
25680 On ch=1 n=d#5 v=60
25800 On ch=1 n=d#5 v=0
25800 On ch=1 n=d#5 v=60
25920 On ch=1 n=d#5 v=0
25920 On ch=1 n=c#3 v=60
25920 On ch=1 n=c#4 v=60
26040 On ch=1 n=c#4 v=0
26040 On ch=1 n=c#3 v=0
26040 On ch=1 n=f5 v=60
26040 On ch=1 n=c#5 v=60
26040 On ch=1 n=g#4 v=60
26160 On ch=1 n=g#4 v=0
26160 On ch=1 n=c#5 v=0
26160 On ch=1 n=f5 v=0
26160 On ch=1 n=c#5 v=60
26160 On ch=1 n=f5 v=60
26160 On ch=1 n=g#4 v=60
26280 On ch=1 n=g#4 v=0
26280 On ch=1 n=f5 v=0
26280 On ch=1 n=c#5 v=0
26280 On ch=1 n=f#2 v=60
26400 On ch=1 n=f#2 v=0
26400 On ch=1 n=f#5 v=60
26400 On ch=1 n=c#5 v=60
26400 On ch=1 n=a#4 v=60
26520 On ch=1 n=a#4 v=0
26520 On ch=1 n=c#5 v=0
26520 On ch=1 n=f#5 v=0
26520 On ch=1 n=a#4 v=60
26520 On ch=1 n=c#5 v=60
26520 On ch=1 n=f#5 v=60
26640 On ch=1 n=f#5 v=0
26640 On ch=1 n=c#5 v=0
26640 On ch=1 n=a#4 v=0
26640 On ch=1 n=b2 v=60
26760 On ch=1 n=b2 v=0
27000 On ch=1 n=c#3 v=60
27120 On ch=1 n=c#3 v=0
27120 On ch=1 n=c#5 v=60
27120 On ch=1 n=c#4 v=60
27240 On ch=1 n=c#4 v=0
27240 On ch=1 n=c#5 v=0
27240 On ch=1 n=c#5 v=60
27240 On ch=1 n=c#4 v=60
27360 On ch=1 n=c#4 v=0
27360 On ch=1 n=c#5 v=0
27360 On ch=1 n=f#3 v=60
27480 On ch=1 n=f#3 v=0
27480 On ch=1 n=c#5 v=60
27480 On ch=1 n=a#4 v=60
27480 On ch=1 n=f#4 v=60
27600 On ch=1 n=f#4 v=0
27600 On ch=1 n=a#4 v=0
27600 On ch=1 n=c#5 v=0
27600 On ch=1 n=c#5 v=60
27600 On ch=1 n=a#4 v=60
27600 On ch=1 n=f#4 v=60
27720 On ch=1 n=f#4 v=0
27720 On ch=1 n=a#4 v=0
27720 On ch=1 n=c#5 v=0
27720 On ch=1 n=f#2 v=60
27840 On ch=1 n=f#2 v=0
28080 On ch=1 n=b2 v=60
28200 On ch=1 n=b2 v=0
28440 On ch=1 n=c#3 v=60
28560 On ch=1 n=c#3 v=0
28560 On ch=1 n=c#5 v=60
28560 On ch=1 n=c#4 v=60
28680 On ch=1 n=c#4 v=0
28680 On ch=1 n=c#5 v=0
28680 On ch=1 n=c#5 v=60
28680 On ch=1 n=c#4 v=60
28800 On ch=1 n=c#4 v=0
28800 On ch=1 n=c#5 v=0
28800 On ch=1 n=c#5 v=60
28800 On ch=1 n=f#4 v=60
28920 On ch=1 n=f#4 v=0
28920 On ch=1 n=c#5 v=0
28920 On ch=1 n=f#3 v=60
29040 On ch=1 n=f#3 v=0
29160 On ch=1 n=c#4 v=100
29280 On ch=1 n=c#4 v=0
29520 On ch=1 n=f#4 v=100
29640 On ch=1 n=f#4 v=0
29880 On ch=1 n=c#4 v=100
30000 On ch=1 n=c#4 v=0
30240 On ch=1 n=f#4 v=100
30360 On ch=1 n=f#4 v=0
30600 On ch=1 n=c#4 v=100
30720 On ch=1 n=c#4 v=0
30960 On ch=1 n=f#4 v=100
31080 On ch=1 n=f#4 v=0
31320 On ch=1 n=c#4 v=100
31440 On ch=1 n=c#4 v=0
32040 On ch=1 n=c#4 v=60
32160 On ch=1 n=c#4 v=0
32400 On ch=1 n=f#4 v=60
32520 On ch=1 n=f#4 v=0
32760 On ch=1 n=c#4 v=60
32880 On ch=1 n=c#4 v=0
33120 On ch=1 n=f#4 v=60
33240 On ch=1 n=f#4 v=0
33480 On ch=1 n=c#4 v=60
33600 On ch=1 n=c#4 v=0
33840 On ch=1 n=f#4 v=60
33960 On ch=1 n=f#4 v=0
34200 On ch=1 n=c#4 v=60
34320 On ch=1 n=c#4 v=0
34320 Meta TrkEnd
TrkEnd
MTrk
0 Meta 0x21 00
0 Meta TrkName "Pedal"
0 PrCh ch=1 p=0
360 Par ch=1 c=64 v=127
600 Par ch=1 c=64 v=0
750 Par ch=1 c=64 v=127
990 Par ch=1 c=64 v=0
1080 Par ch=1 c=64 v=127
1320 Par ch=1 c=64 v=0
1440 Par ch=1 c=64 v=127
1680 Par ch=1 c=64 v=0
1800 Par ch=1 c=64 v=127
2040 Par ch=1 c=64 v=0
2160 Par ch=1 c=64 v=127
2400 Par ch=1 c=64 v=0
2520 Par ch=1 c=64 v=127
2760 Par ch=1 c=64 v=0
2880 Par ch=1 c=64 v=127
3060 Par ch=1 c=64 v=0
3240 Par ch=1 c=64 v=127
3480 Par ch=1 c=64 v=0
3630 Par ch=1 c=64 v=127
3870 Par ch=1 c=64 v=0
3960 Par ch=1 c=64 v=127
4200 Par ch=1 c=64 v=0
4320 Par ch=1 c=64 v=127
4560 Par ch=1 c=64 v=0
4680 Par ch=1 c=64 v=127
4920 Par ch=1 c=64 v=0
5040 Par ch=1 c=64 v=127
5280 Par ch=1 c=64 v=0
5400 Par ch=1 c=64 v=127
5640 Par ch=1 c=64 v=0
5760 Par ch=1 c=64 v=127
5940 Par ch=1 c=64 v=0
6120 Par ch=1 c=64 v=127
6360 Par ch=1 c=64 v=0
6510 Par ch=1 c=64 v=127
6750 Par ch=1 c=64 v=0
6840 Par ch=1 c=64 v=127
7080 Par ch=1 c=64 v=0
7200 Par ch=1 c=64 v=127
7440 Par ch=1 c=64 v=0
7560 Par ch=1 c=64 v=127
7800 Par ch=1 c=64 v=0
7920 Par ch=1 c=64 v=127
8160 Par ch=1 c=64 v=0
8280 Par ch=1 c=64 v=127
8520 Par ch=1 c=64 v=0
8640 Par ch=1 c=64 v=127
8820 Par ch=1 c=64 v=0
9000 Par ch=1 c=64 v=127
9240 Par ch=1 c=64 v=0
9390 Par ch=1 c=64 v=127
9630 Par ch=1 c=64 v=0
9720 Par ch=1 c=64 v=127
9960 Par ch=1 c=64 v=0
10080 Par ch=1 c=64 v=127
10320 Par ch=1 c=64 v=0
10440 Par ch=1 c=64 v=127
10680 Par ch=1 c=64 v=0
10800 Par ch=1 c=64 v=127
11040 Par ch=1 c=64 v=0
11160 Par ch=1 c=64 v=127
11400 Par ch=1 c=64 v=0
11520 Par ch=1 c=64 v=127
11760 Par ch=1 c=64 v=0
11880 Par ch=1 c=64 v=127
12120 Par ch=1 c=64 v=0
12240 Par ch=1 c=64 v=127
12480 Par ch=1 c=64 v=0
12600 Par ch=1 c=64 v=127
12840 Par ch=1 c=64 v=0
12960 Par ch=1 c=64 v=127
13200 Par ch=1 c=64 v=0
13320 Par ch=1 c=64 v=127
13560 Par ch=1 c=64 v=0
13680 Par ch=1 c=64 v=127
13920 Par ch=1 c=64 v=0
14040 Par ch=1 c=64 v=127
14280 Par ch=1 c=64 v=0
14400 Par ch=1 c=64 v=127
14640 Par ch=1 c=64 v=0
14760 Par ch=1 c=64 v=127
15000 Par ch=1 c=64 v=0
15120 Par ch=1 c=64 v=127
15360 Par ch=1 c=64 v=0
15480 Par ch=1 c=64 v=127
15720 Par ch=1 c=64 v=0
15840 Par ch=1 c=64 v=127
16080 Par ch=1 c=64 v=0
16200 Par ch=1 c=64 v=127
16440 Par ch=1 c=64 v=0
16560 Par ch=1 c=64 v=127
16800 Par ch=1 c=64 v=0
16920 Par ch=1 c=64 v=127
17160 Par ch=1 c=64 v=0
17280 Par ch=1 c=64 v=127
17520 Par ch=1 c=64 v=0
17640 Par ch=1 c=64 v=127
17880 Par ch=1 c=64 v=0
18000 Par ch=1 c=64 v=127
18240 Par ch=1 c=64 v=0
18360 Par ch=1 c=64 v=127
18600 Par ch=1 c=64 v=0
18720 Par ch=1 c=64 v=127
18840 Par ch=1 c=64 v=0
19080 Par ch=1 c=64 v=127
19320 Par ch=1 c=64 v=0
19440 Par ch=1 c=64 v=127
19680 Par ch=1 c=64 v=0
19800 Par ch=1 c=64 v=127
20040 Par ch=1 c=64 v=0
20160 Par ch=1 c=64 v=127
20400 Par ch=1 c=64 v=0
20520 Par ch=1 c=64 v=127
20760 Par ch=1 c=64 v=0
20880 Par ch=1 c=64 v=127
21120 Par ch=1 c=64 v=0
21240 Par ch=1 c=64 v=127
21480 Par ch=1 c=64 v=0
21600 Par ch=1 c=64 v=127
21840 Par ch=1 c=64 v=0
21960 Par ch=1 c=64 v=127
22200 Par ch=1 c=64 v=0
22320 Par ch=1 c=64 v=127
22560 Par ch=1 c=64 v=0
22680 Par ch=1 c=64 v=127
22920 Par ch=1 c=64 v=0
23040 Par ch=1 c=64 v=127
23280 Par ch=1 c=64 v=0
23400 Par ch=1 c=64 v=127
23640 Par ch=1 c=64 v=0
23760 Par ch=1 c=64 v=127
24000 Par ch=1 c=64 v=0
24120 Par ch=1 c=64 v=127
24360 Par ch=1 c=64 v=0
24480 Par ch=1 c=64 v=127
24600 Par ch=1 c=64 v=0
24840 Par ch=1 c=64 v=127
25080 Par ch=1 c=64 v=0
25200 Par ch=1 c=64 v=127
25440 Par ch=1 c=64 v=0
25560 Par ch=1 c=64 v=127
25800 Par ch=1 c=64 v=0
25920 Par ch=1 c=64 v=127
26160 Par ch=1 c=64 v=0
26280 Par ch=1 c=64 v=127
26520 Par ch=1 c=64 v=0
26640 Par ch=1 c=64 v=127
26880 Par ch=1 c=64 v=0
27000 Par ch=1 c=64 v=127
27240 Par ch=1 c=64 v=0
27360 Par ch=1 c=64 v=127
27600 Par ch=1 c=64 v=0
27720 Par ch=1 c=64 v=127
27960 Par ch=1 c=64 v=0
28080 Par ch=1 c=64 v=127
28320 Par ch=1 c=64 v=0
28440 Par ch=1 c=64 v=127
28680 Par ch=1 c=64 v=0
28800 Par ch=1 c=64 v=127
28920 Par ch=1 c=64 v=0
29160 Par ch=1 c=64 v=127
29400 Par ch=1 c=64 v=0
29550 Par ch=1 c=64 v=127
29790 Par ch=1 c=64 v=0
29880 Par ch=1 c=64 v=127
30120 Par ch=1 c=64 v=0
30240 Par ch=1 c=64 v=127
30480 Par ch=1 c=64 v=0
30600 Par ch=1 c=64 v=127
30840 Par ch=1 c=64 v=0
30960 Par ch=1 c=64 v=127
31200 Par ch=1 c=64 v=0
31320 Par ch=1 c=64 v=127
31560 Par ch=1 c=64 v=0
31680 Par ch=1 c=64 v=127
31860 Par ch=1 c=64 v=0
32040 Par ch=1 c=64 v=127
32280 Par ch=1 c=64 v=0
32430 Par ch=1 c=64 v=127
32670 Par ch=1 c=64 v=0
32760 Par ch=1 c=64 v=127
33000 Par ch=1 c=64 v=0
33120 Par ch=1 c=64 v=127
33360 Par ch=1 c=64 v=0
33480 Par ch=1 c=64 v=127
33720 Par ch=1 c=64 v=0
33840 Par ch=1 c=64 v=127
34080 Par ch=1 c=64 v=0
34200 Par ch=1 c=64 v=127
34440 Par ch=1 c=64 v=0
34560 Par ch=1 c=64 v=127
35040 Par ch=1 c=64 v=0
35040 Meta TrkEnd
TrkEnd
MTrk
0 Meta 0x21 00
0 Meta TrkName "F. Chopin Valse No. 11 in Gb Op. 70-1"
0 Meta TrkEnd
TrkEnd
MTrk
0 Meta 0x21 00
0 Meta TrkName "Jeruen E. Dery jawjaw@hotmail.com"
0 Meta TrkEnd
TrkEnd
