MFile 1 3 240
MTrk
0 TimeSig 3/4 24 8
0 KeySig 0 major
0 Tempo 416667
0 Meta TrkEnd
TrkEnd
MTrk
0 Meta 0x21 00
0 Meta TrkName "Piano"
0 PrCh ch=1 p=0
0 Par ch=1 c=7 v=127
0 Par ch=1 c=10 v=72
0 On ch=1 n=c#6 v=73
0 On ch=1 n=e6 v=73
30 On ch=1 n=e6 v=0
30 On ch=1 n=c#6 v=0
30 On ch=1 n=b5 v=73
30 On ch=1 n=d6 v=73
156 On ch=1 n=d6 v=0
160 On ch=1 n=b5 v=0
240 On ch=1 n=b5 v=73
240 On ch=1 n=d6 v=73
360 On ch=1 n=d6 v=0
360 On ch=1 n=b5 v=0
360 On ch=1 n=c#6 v=73
360 On ch=1 n=e6 v=73
480 On ch=1 n=e6 v=0
480 On ch=1 n=c#6 v=0
480 On ch=1 n=b5 v=73
480 On ch=1 n=d6 v=73
720 On ch=1 n=d6 v=0
720 On ch=1 n=b5 v=0
720 On ch=1 n=a#5 v=73
720 On ch=1 n=c#6 v=73
960 On ch=1 n=c#6 v=0
960 On ch=1 n=a#5 v=0
960 On ch=1 n=b5 v=73
960 On ch=1 n=d6 v=73
1200 On ch=1 n=d6 v=0
1200 On ch=1 n=b5 v=0
1200 On ch=1 n=c#6 v=73
1200 On ch=1 n=e6 v=73
1440 On ch=1 n=e6 v=0
1440 On ch=1 n=c#6 v=0
1440 On ch=1 n=e6 v=73
1440 On ch=1 n=g6 v=73
1470 On ch=1 n=g6 v=0
1470 On ch=1 n=e6 v=0
1470 On ch=1 n=f#6 v=73
1470 On ch=1 n=d6 v=73
1596 On ch=1 n=d6 v=0
1596 On ch=1 n=f#6 v=0
1680 On ch=1 n=d6 v=73
1680 On ch=1 n=f#6 v=73
1800 On ch=1 n=f#6 v=0
1800 On ch=1 n=d6 v=0
1800 On ch=1 n=e6 v=73
1800 On ch=1 n=g6 v=73
1920 On ch=1 n=g6 v=0
1920 On ch=1 n=e6 v=0
1920 On ch=1 n=f#6 v=73
1920 On ch=1 n=d6 v=73
2160 On ch=1 n=d6 v=0
2160 On ch=1 n=c#6 v=73
2880 On ch=1 n=c#6 v=0
2880 On ch=1 n=f#6 v=0
2880 On ch=1 n=c#6 v=73
2880 On ch=1 n=g#6 v=73
2910 On ch=1 n=g#6 v=0
2910 On ch=1 n=f#6 v=73
3024 On ch=1 n=c#6 v=0
3036 On ch=1 n=f#6 v=0
3120 On ch=1 n=c#6 v=73
3120 On ch=1 n=f#6 v=73
3240 On ch=1 n=f#6 v=0
3240 On ch=1 n=g#6 v=73
3360 On ch=1 n=g#6 v=0
3360 On ch=1 n=f#6 v=73
3600 On ch=1 n=f#6 v=0
3600 On ch=1 n=c#6 v=0
3600 On ch=1 n=f6 v=73
3600 On ch=1 n=g#6 v=73
3840 On ch=1 n=g#6 v=0
3840 On ch=1 n=f6 v=0
3840 On ch=1 n=f#6 v=73
3840 On ch=1 n=a6 v=73
4080 On ch=1 n=a6 v=0
4080 On ch=1 n=f#6 v=0
4080 On ch=1 n=g#6 v=73
4080 On ch=1 n=b6 v=73
4320 On ch=1 n=b6 v=0
4320 On ch=1 n=g#6 v=0
4320 On ch=1 n=b6 v=73
4320 On ch=1 n=d7 v=73
4350 On ch=1 n=d7 v=0
4350 On ch=1 n=b6 v=0
4350 On ch=1 n=c#7 v=73
4350 On ch=1 n=a6 v=73
4476 On ch=1 n=a6 v=0
4476 On ch=1 n=c#7 v=0
4560 On ch=1 n=a6 v=73
4560 On ch=1 n=c#7 v=73
4680 On ch=1 n=c#7 v=0
4680 On ch=1 n=a6 v=0
4680 On ch=1 n=b6 v=73
4680 On ch=1 n=d7 v=73
4800 On ch=1 n=d7 v=0
4800 On ch=1 n=b6 v=0
4800 On ch=1 n=c#7 v=73
4800 On ch=1 n=a6 v=73
5040 On ch=1 n=a6 v=0
5040 On ch=1 n=g#6 v=73
5760 On ch=1 n=g#6 v=0
5760 On ch=1 n=c#7 v=0
5760 On ch=1 n=g6 v=73
5760 On ch=1 n=d7 v=73
5790 On ch=1 n=d7 v=0
5790 On ch=1 n=c#7 v=73
5916 On ch=1 n=c#7 v=0
6000 On ch=1 n=g6 v=0
6000 On ch=1 n=c#7 v=73
6000 On ch=1 n=g6 v=73
6072 On ch=1 n=c#7 v=0
6120 On ch=1 n=d7 v=73
6240 On ch=1 n=d7 v=0
6240 On ch=1 n=c#7 v=73
6288 On ch=1 n=g6 v=0
6480 On ch=1 n=f#6 v=73
6960 On ch=1 n=c#7 v=0
6960 On ch=1 n=b6 v=73
7200 On ch=1 n=b6 v=0
7200 On ch=1 n=f#6 v=0
7200 On ch=1 n=e6 v=73
7200 On ch=1 n=c#7 v=73
7230 On ch=1 n=c#7 v=0
7230 On ch=1 n=b6 v=73
7356 On ch=1 n=b6 v=0
7440 On ch=1 n=b6 v=73
7519 On ch=1 n=b6 v=0
7519 On ch=1 n=c#7 v=73
7599 On ch=1 n=c#7 v=0
7599 On ch=1 n=b6 v=73
7632 On ch=1 n=e6 v=0
7679 On ch=1 n=b6 v=0
7680 On ch=1 n=a6 v=73
7920 On ch=1 n=d6 v=73
8400 On ch=1 n=a6 v=0
8400 On ch=1 n=g6 v=73
8640 On ch=1 n=g6 v=0
8640 On ch=1 n=d6 v=0
8640 On ch=1 n=c#6 v=73
8640 On ch=1 n=a6 v=73
8670 On ch=1 n=a6 v=0
8670 On ch=1 n=g6 v=73
8796 On ch=1 n=g6 v=0
8880 On ch=1 n=g6 v=73
8959 On ch=1 n=g6 v=0
8959 On ch=1 n=a6 v=73
9039 On ch=1 n=a6 v=0
9039 On ch=1 n=g6 v=73
9119 On ch=1 n=g6 v=0
9120 On ch=1 n=f#6 v=73
9360 On ch=1 n=f#6 v=0
9360 On ch=1 n=c#6 v=0
9360 On ch=1 n=b5 v=73
9360 On ch=1 n=a6 v=73
9840 On ch=1 n=a6 v=0
9840 On ch=1 n=b5 v=0
9840 On ch=1 n=f6 v=73
10080 On ch=1 n=f6 v=0
10080 On ch=1 n=a5 v=73
10080 On ch=1 n=c#6 v=73
10080 On ch=1 n=g#6 v=73
10200 On ch=1 n=g#6 v=0
10200 On ch=1 n=f#6 v=73
10320 On ch=1 n=f#6 v=0
10320 On ch=1 n=c#6 v=0
10320 On ch=1 n=a5 v=0
10440 On ch=1 n=f6 v=73
10560 On ch=1 n=f6 v=0
10560 On ch=1 n=a5 v=73
10560 On ch=1 n=c#6 v=73
10560 On ch=1 n=g#6 v=73
10590 On ch=1 n=g#6 v=0
10590 On ch=1 n=f#6 v=73
10680 On ch=1 n=f#6 v=0
10740 On ch=1 n=f6 v=73
10800 On ch=1 n=f6 v=0
10800 On ch=1 n=c#6 v=0
10800 On ch=1 n=a5 v=0
10800 On ch=1 n=a5 v=73
10800 On ch=1 n=c#6 v=73
10800 On ch=1 n=f#6 v=73
11280 On ch=1 n=f#6 v=0
11280 On ch=1 n=c#6 v=0
11280 On ch=1 n=a5 v=0
11520 On ch=1 n=c#6 v=73
11520 On ch=1 n=e6 v=73
11550 On ch=1 n=e6 v=0
11550 On ch=1 n=c#6 v=0
11550 On ch=1 n=b5 v=73
11550 On ch=1 n=d6 v=73
11676 On ch=1 n=d6 v=0
11680 On ch=1 n=b5 v=0
11760 On ch=1 n=b5 v=73
11760 On ch=1 n=d6 v=73
11880 On ch=1 n=d6 v=0
11880 On ch=1 n=b5 v=0
11880 On ch=1 n=c#6 v=73
11880 On ch=1 n=e6 v=73
12000 On ch=1 n=e6 v=0
12000 On ch=1 n=c#6 v=0
12000 On ch=1 n=b5 v=73
12000 On ch=1 n=d6 v=73
12240 On ch=1 n=d6 v=0
12240 On ch=1 n=b5 v=0
12240 On ch=1 n=a#5 v=73
12240 On ch=1 n=c#6 v=73
12480 On ch=1 n=c#6 v=0
12480 On ch=1 n=a#5 v=0
12480 On ch=1 n=b5 v=73
12480 On ch=1 n=d6 v=73
12720 On ch=1 n=d6 v=0
12720 On ch=1 n=b5 v=0
12720 On ch=1 n=c#6 v=73
12720 On ch=1 n=e6 v=73
12960 On ch=1 n=e6 v=0
12960 On ch=1 n=c#6 v=0
12960 On ch=1 n=e6 v=73
12960 On ch=1 n=g6 v=73
12990 On ch=1 n=g6 v=0
12990 On ch=1 n=e6 v=0
12990 On ch=1 n=f#6 v=73
12990 On ch=1 n=d6 v=73
13116 On ch=1 n=d6 v=0
13116 On ch=1 n=f#6 v=0
13200 On ch=1 n=d6 v=73
13200 On ch=1 n=f#6 v=73
13320 On ch=1 n=f#6 v=0
13320 On ch=1 n=d6 v=0
13320 On ch=1 n=e6 v=73
13320 On ch=1 n=g6 v=73
13440 On ch=1 n=g6 v=0
13440 On ch=1 n=e6 v=0
13440 On ch=1 n=f#6 v=73
13440 On ch=1 n=d6 v=73
13680 On ch=1 n=d6 v=0
13680 On ch=1 n=c#6 v=73
14400 On ch=1 n=c#6 v=0
14400 On ch=1 n=f#6 v=0
14400 On ch=1 n=c#6 v=73
14400 On ch=1 n=g#6 v=73
14430 On ch=1 n=g#6 v=0
14430 On ch=1 n=f#6 v=73
14544 On ch=1 n=c#6 v=0
14556 On ch=1 n=f#6 v=0
14640 On ch=1 n=c#6 v=73
14640 On ch=1 n=f#6 v=73
14760 On ch=1 n=f#6 v=0
14760 On ch=1 n=g#6 v=73
14880 On ch=1 n=g#6 v=0
14880 On ch=1 n=f#6 v=73
15120 On ch=1 n=f#6 v=0
15120 On ch=1 n=c#6 v=0
15120 On ch=1 n=f6 v=73
15120 On ch=1 n=g#6 v=73
15360 On ch=1 n=g#6 v=0
15360 On ch=1 n=f6 v=0
15360 On ch=1 n=f#6 v=73
15360 On ch=1 n=a6 v=73
15600 On ch=1 n=a6 v=0
15600 On ch=1 n=f#6 v=0
15600 On ch=1 n=g#6 v=73
15600 On ch=1 n=b6 v=73
15840 On ch=1 n=b6 v=0
15840 On ch=1 n=g#6 v=0
15840 On ch=1 n=b6 v=73
15840 On ch=1 n=d7 v=73
15870 On ch=1 n=d7 v=0
15870 On ch=1 n=b6 v=0
15870 On ch=1 n=c#7 v=73
15870 On ch=1 n=a6 v=73
15996 On ch=1 n=a6 v=0
15996 On ch=1 n=c#7 v=0
16080 On ch=1 n=a6 v=73
16080 On ch=1 n=c#7 v=73
16200 On ch=1 n=c#7 v=0
16200 On ch=1 n=a6 v=0
16200 On ch=1 n=b6 v=73
16200 On ch=1 n=d7 v=73
16320 On ch=1 n=d7 v=0
16320 On ch=1 n=b6 v=0
16320 On ch=1 n=c#7 v=73
16320 On ch=1 n=a6 v=73
16560 On ch=1 n=a6 v=0
16560 On ch=1 n=g#6 v=73
17280 On ch=1 n=g#6 v=0
17280 On ch=1 n=c#7 v=0
17280 On ch=1 n=g6 v=73
17280 On ch=1 n=d7 v=73
17310 On ch=1 n=d7 v=0
17310 On ch=1 n=c#7 v=73
17436 On ch=1 n=c#7 v=0
17520 On ch=1 n=g6 v=0
17520 On ch=1 n=c#7 v=73
17520 On ch=1 n=g6 v=73
17592 On ch=1 n=c#7 v=0
17640 On ch=1 n=d7 v=73
17760 On ch=1 n=d7 v=0
17760 On ch=1 n=c#7 v=73
17808 On ch=1 n=g6 v=0
18000 On ch=1 n=f#6 v=73
18480 On ch=1 n=c#7 v=0
18480 On ch=1 n=b6 v=73
18720 On ch=1 n=b6 v=0
18720 On ch=1 n=f#6 v=0
18720 On ch=1 n=e6 v=73
18720 On ch=1 n=c#7 v=73
18750 On ch=1 n=c#7 v=0
18750 On ch=1 n=b6 v=73
18876 On ch=1 n=b6 v=0
18960 On ch=1 n=b6 v=73
19039 On ch=1 n=b6 v=0
19039 On ch=1 n=c#7 v=73
19119 On ch=1 n=c#7 v=0
19119 On ch=1 n=b6 v=73
19152 On ch=1 n=e6 v=0
19199 On ch=1 n=b6 v=0
19200 On ch=1 n=a6 v=73
19440 On ch=1 n=d6 v=73
19920 On ch=1 n=a6 v=0
19920 On ch=1 n=g6 v=73
20160 On ch=1 n=g6 v=0
20160 On ch=1 n=d6 v=0
20160 On ch=1 n=c#6 v=73
20160 On ch=1 n=a6 v=73
20190 On ch=1 n=a6 v=0
20190 On ch=1 n=g6 v=73
20316 On ch=1 n=g6 v=0
20400 On ch=1 n=g6 v=73
20479 On ch=1 n=g6 v=0
20479 On ch=1 n=a6 v=73
20559 On ch=1 n=a6 v=0
20559 On ch=1 n=g6 v=73
20639 On ch=1 n=g6 v=0
20640 On ch=1 n=f#6 v=73
20880 On ch=1 n=f#6 v=0
20880 On ch=1 n=c#6 v=0
20880 On ch=1 n=b5 v=73
20880 On ch=1 n=a6 v=73
21360 On ch=1 n=a6 v=0
21360 On ch=1 n=b5 v=0
21360 On ch=1 n=f6 v=73
21600 On ch=1 n=f6 v=0
21600 On ch=1 n=a5 v=73
21600 On ch=1 n=c#6 v=73
21600 On ch=1 n=g#6 v=73
21720 On ch=1 n=g#6 v=0
21720 On ch=1 n=f#6 v=73
21840 On ch=1 n=f#6 v=0
21840 On ch=1 n=c#6 v=0
21840 On ch=1 n=a5 v=0
21960 On ch=1 n=f6 v=73
22080 On ch=1 n=f6 v=0
22080 On ch=1 n=a5 v=73
22080 On ch=1 n=c#6 v=73
22080 On ch=1 n=g#6 v=73
22110 On ch=1 n=g#6 v=0
22110 On ch=1 n=f#6 v=73
22200 On ch=1 n=f#6 v=0
22260 On ch=1 n=f6 v=73
22320 On ch=1 n=f6 v=0
22320 On ch=1 n=c#6 v=0
22320 On ch=1 n=a5 v=0
22320 On ch=1 n=a5 v=73
22320 On ch=1 n=c#6 v=73
22320 On ch=1 n=f#6 v=73
22800 On ch=1 n=f#6 v=0
22800 On ch=1 n=c#6 v=0
22800 On ch=1 n=a5 v=0
23040 On ch=1 n=b5 v=73
23040 On ch=1 n=d6 v=73
23070 On ch=1 n=d6 v=0
23070 On ch=1 n=b5 v=0
23070 On ch=1 n=c#6 v=73
23070 On ch=1 n=a5 v=73
23196 On ch=1 n=a5 v=0
23196 On ch=1 n=c#6 v=0
23280 On ch=1 n=c#6 v=73
23280 On ch=1 n=a5 v=73
23352 On ch=1 n=a5 v=0
23352 On ch=1 n=c#6 v=0
23400 On ch=1 n=b5 v=73
23400 On ch=1 n=d6 v=73
23520 On ch=1 n=d6 v=0
23520 On ch=1 n=b5 v=0
23520 On ch=1 n=a5 v=73
23520 On ch=1 n=c#6 v=73
23760 On ch=1 n=c#6 v=0
23760 On ch=1 n=a5 v=0
23760 On ch=1 n=g#5 v=73
23760 On ch=1 n=b5 v=73
24000 On ch=1 n=b5 v=0
24000 On ch=1 n=g#5 v=0
24000 On ch=1 n=a5 v=73
24000 On ch=1 n=c#6 v=73
24240 On ch=1 n=c#6 v=0
24240 On ch=1 n=a5 v=0
24240 On ch=1 n=b5 v=73
24240 On ch=1 n=d6 v=73
24480 On ch=1 n=d6 v=0
24480 On ch=1 n=b5 v=0
24480 On ch=1 n=b5 v=73
24480 On ch=1 n=d6 v=73
24510 On ch=1 n=d6 v=0
24510 On ch=1 n=b5 v=0
24510 On ch=1 n=c#6 v=73
24510 On ch=1 n=a#5 v=73
24636 On ch=1 n=a#5 v=0
24636 On ch=1 n=c#6 v=0
24720 On ch=1 n=a#5 v=73
24720 On ch=1 n=c#6 v=73
24840 On ch=1 n=c#6 v=0
24840 On ch=1 n=a#5 v=0
24840 On ch=1 n=b5 v=73
24840 On ch=1 n=d#6 v=73
24960 On ch=1 n=d#6 v=0
24960 On ch=1 n=b5 v=0
24960 On ch=1 n=a#5 v=73
24960 On ch=1 n=c#6 v=73
25200 On ch=1 n=c#6 v=0
25200 On ch=1 n=a#5 v=0
25200 On ch=1 n=g#5 v=73
25200 On ch=1 n=b5 v=73
25440 On ch=1 n=b5 v=0
25440 On ch=1 n=g#5 v=0
25440 On ch=1 n=c#6 v=73
25440 On ch=1 n=f6 v=73
25680 On ch=1 n=f6 v=0
25680 On ch=1 n=c#6 v=0
25680 On ch=1 n=b5 v=73
25680 On ch=1 n=d#6 v=73
25920 On ch=1 n=d#6 v=0
25920 On ch=1 n=b5 v=0
25920 On ch=1 n=a#5 v=73
25920 On ch=1 n=c#6 v=73
26160 On ch=1 n=c#6 v=0
26160 On ch=1 n=f#6 v=73
26400 On ch=1 n=f#6 v=0
26400 On ch=1 n=a#5 v=0
26400 On ch=1 n=a5 v=73
26400 On ch=1 n=c6 v=73
26640 On ch=1 n=c6 v=0
26640 On ch=1 n=a5 v=0
26640 On ch=1 n=g#5 v=73
26640 On ch=1 n=b5 v=73
26880 On ch=1 n=b5 v=0
26880 On ch=1 n=f#6 v=73
27120 On ch=1 n=f#6 v=0
27120 On ch=1 n=g#5 v=0
27120 On ch=1 n=f#5 v=73
27120 On ch=1 n=a#5 v=73
27360 On ch=1 n=a#5 v=0
27360 On ch=1 n=f#5 v=0
27360 On ch=1 n=g#5 v=73
27600 On ch=1 n=f#6 v=73
27840 On ch=1 n=f#6 v=0
27840 On ch=1 n=g#5 v=0
27840 On ch=1 n=g5 v=73
28080 On ch=1 n=g5 v=0
28080 On ch=1 n=f#5 v=73
28320 On ch=1 n=f#6 v=73
28560 On ch=1 n=f#6 v=0
28560 On ch=1 n=f#5 v=0
28560 On ch=1 n=e5 v=73
28704 On ch=1 n=e5 v=0
28800 On ch=1 n=d#5 v=73
28830 On ch=1 n=d#5 v=0
28830 On ch=1 n=b5 v=73
28860 On ch=1 n=b5 v=0
28860 On ch=1 n=e6 v=73
28890 On ch=1 n=e6 v=0
28890 On ch=1 n=d#6 v=73
29040 On ch=1 n=d#6 v=0
29040 On ch=1 n=b5 v=73
29040 On ch=1 n=d#6 v=73
29160 On ch=1 n=d#6 v=0
29160 On ch=1 n=b5 v=0
29160 On ch=1 n=c#6 v=73
29160 On ch=1 n=e6 v=73
29280 On ch=1 n=e6 v=0
29280 On ch=1 n=c#6 v=0
29280 On ch=1 n=b5 v=73
29280 On ch=1 n=d#6 v=73
29520 On ch=1 n=d#6 v=0
29520 On ch=1 n=b5 v=0
29520 On ch=1 n=a#5 v=73
29520 On ch=1 n=c#6 v=73
29760 On ch=1 n=c#6 v=0
29760 On ch=1 n=a#5 v=0
29760 On ch=1 n=b5 v=73
29760 On ch=1 n=d#6 v=73
30000 On ch=1 n=d#6 v=0
30000 On ch=1 n=b5 v=0
30000 On ch=1 n=c#6 v=73
30000 On ch=1 n=e6 v=73
30240 On ch=1 n=e6 v=0
30240 On ch=1 n=c#6 v=0
30240 On ch=1 n=e6 v=73
30240 On ch=1 n=g#6 v=73
30270 On ch=1 n=g#6 v=0
30270 On ch=1 n=e6 v=0
30270 On ch=1 n=f#6 v=73
30270 On ch=1 n=d#6 v=73
30396 On ch=1 n=d#6 v=0
30396 On ch=1 n=f#6 v=0
30480 On ch=1 n=f#6 v=73
30480 On ch=1 n=d#6 v=73
30552 On ch=1 n=d#6 v=0
30552 On ch=1 n=f#6 v=0
30600 On ch=1 n=e6 v=73
30600 On ch=1 n=g#6 v=73
30720 On ch=1 n=g#6 v=0
30720 On ch=1 n=e6 v=0
30720 On ch=1 n=f#6 v=73
30720 On ch=1 n=d#6 v=73
30960 On ch=1 n=d#6 v=0
30960 On ch=1 n=c#6 v=73
31680 On ch=1 n=c#6 v=0
31680 On ch=1 n=f#6 v=0
31680 On ch=1 n=c6 v=73
31680 On ch=1 n=g#6 v=73
31710 On ch=1 n=g#6 v=0
31710 On ch=1 n=f#6 v=73
31836 On ch=1 n=f#6 v=0
31840 On ch=1 n=c6 v=0
31920 On ch=1 n=c6 v=73
31920 On ch=1 n=f#6 v=73
32040 On ch=1 n=f#6 v=0
32040 On ch=1 n=g#6 v=73
32160 On ch=1 n=g#6 v=0
32160 On ch=1 n=f#6 v=73
32400 On ch=1 n=f#6 v=0
32400 On ch=1 n=c6 v=0
32400 On ch=1 n=c6 v=73
32400 On ch=1 n=d#6 v=73
32640 On ch=1 n=d#6 v=0
32640 On ch=1 n=c6 v=0
32640 On ch=1 n=c#6 v=73
32640 On ch=1 n=e6 v=73
32880 On ch=1 n=e6 v=0
32880 On ch=1 n=c#6 v=0
32880 On ch=1 n=d#6 v=73
32880 On ch=1 n=f#6 v=73
33120 On ch=1 n=f#6 v=0
33120 On ch=1 n=d#6 v=0
33120 On ch=1 n=f#6 v=73
33120 On ch=1 n=a6 v=73
33150 On ch=1 n=a6 v=0
33150 On ch=1 n=f#6 v=0
33150 On ch=1 n=g#6 v=73
33150 On ch=1 n=e6 v=73
33276 On ch=1 n=e6 v=0
33276 On ch=1 n=g#6 v=0
33360 On ch=1 n=e6 v=73
33360 On ch=1 n=g#6 v=73
33480 On ch=1 n=g#6 v=0
33480 On ch=1 n=e6 v=0
33480 On ch=1 n=f#6 v=73
33480 On ch=1 n=a6 v=73
33600 On ch=1 n=a6 v=0
33600 On ch=1 n=f#6 v=0
33600 On ch=1 n=g#6 v=73
33600 On ch=1 n=e6 v=73
33840 On ch=1 n=e6 v=0
33840 On ch=1 n=d#6 v=73
34560 On ch=1 n=d#6 v=0
34560 On ch=1 n=g#6 v=0
34560 On ch=1 n=d6 v=73
34560 On ch=1 n=a#6 v=73
34590 On ch=1 n=a#6 v=0
34590 On ch=1 n=g#6 v=73
34716 On ch=1 n=g#6 v=0
34800 On ch=1 n=g#6 v=73
34920 On ch=1 n=g#6 v=0
34920 On ch=1 n=a#6 v=73
35040 On ch=1 n=a#6 v=0
35040 On ch=1 n=g#6 v=73
35280 On ch=1 n=d6 v=0
35280 On ch=1 n=d#6 v=73
35520 On ch=1 n=g#6 v=0
35520 On ch=1 n=f#6 v=73
35640 On ch=1 n=f#6 v=0
35640 On ch=1 n=g#6 v=73
35760 On ch=1 n=g#6 v=0
35760 On ch=1 n=f#6 v=73
36000 On ch=1 n=d#6 v=0
36000 On ch=1 n=a#5 v=73
36240 On ch=1 n=f#6 v=0
36240 On ch=1 n=e6 v=73
36360 On ch=1 n=e6 v=0
36360 On ch=1 n=f#6 v=73
36480 On ch=1 n=f#6 v=0
36480 On ch=1 n=e6 v=73
36720 On ch=1 n=a#5 v=0
36720 On ch=1 n=a5 v=73
36960 On ch=1 n=e6 v=0
36960 On ch=1 n=d#6 v=73
37080 On ch=1 n=d#6 v=0
37080 On ch=1 n=e6 v=73
37200 On ch=1 n=e6 v=0
37200 On ch=1 n=d#6 v=73
37440 On ch=1 n=a5 v=0
37440 On ch=1 n=g#5 v=73
37680 On ch=1 n=d#6 v=0
37680 On ch=1 n=c#6 v=73
37800 On ch=1 n=c#6 v=0
37800 On ch=1 n=d#6 v=73
37920 On ch=1 n=d#6 v=0
37920 On ch=1 n=c#6 v=73
38160 On ch=1 n=g#5 v=0
38160 On ch=1 n=c#5 v=73
38400 On ch=1 n=c#6 v=0
38400 On ch=1 n=g#5 v=73
38640 On ch=1 n=g#5 v=0
38640 On ch=1 n=b5 v=73
38880 On ch=1 n=b5 v=0
38880 On ch=1 n=c#5 v=0
38880 On ch=1 n=d#5 v=73
38880 On ch=1 n=b5 v=73
39360 On ch=1 n=b5 v=0
39360 On ch=1 n=d#5 v=0
39360 On ch=1 n=e5 v=73
39360 On ch=1 n=a#5 v=73
39600 On ch=1 n=a#5 v=0
39600 On ch=1 n=e5 v=0
39600 On ch=1 n=d#5 v=73
39600 On ch=1 n=b5 v=73
40080 On ch=1 n=b5 v=0
40080 On ch=1 n=d#5 v=0
40320 On ch=1 n=b5 v=73
40320 On ch=1 n=d6 v=73
40350 On ch=1 n=d6 v=0
40350 On ch=1 n=b5 v=0
40350 On ch=1 n=c#6 v=73
40350 On ch=1 n=a5 v=73
40476 On ch=1 n=a5 v=0
40476 On ch=1 n=c#6 v=0
40560 On ch=1 n=c#6 v=73
40560 On ch=1 n=a5 v=73
40632 On ch=1 n=a5 v=0
40632 On ch=1 n=c#6 v=0
40680 On ch=1 n=b5 v=73
40680 On ch=1 n=d6 v=73
40800 On ch=1 n=d6 v=0
40800 On ch=1 n=b5 v=0
40800 On ch=1 n=a5 v=73
40800 On ch=1 n=c#6 v=73
41040 On ch=1 n=c#6 v=0
41040 On ch=1 n=a5 v=0
41040 On ch=1 n=g#5 v=73
41040 On ch=1 n=b5 v=73
41280 On ch=1 n=b5 v=0
41280 On ch=1 n=g#5 v=0
41280 On ch=1 n=a5 v=73
41280 On ch=1 n=c#6 v=73
41520 On ch=1 n=c#6 v=0
41520 On ch=1 n=a5 v=0
41520 On ch=1 n=b5 v=73
41520 On ch=1 n=d6 v=73
41760 On ch=1 n=d6 v=0
41760 On ch=1 n=b5 v=0
41760 On ch=1 n=b5 v=73
41760 On ch=1 n=d6 v=73
41790 On ch=1 n=d6 v=0
41790 On ch=1 n=b5 v=0
41790 On ch=1 n=c#6 v=73
41790 On ch=1 n=a#5 v=73
41916 On ch=1 n=a#5 v=0
41916 On ch=1 n=c#6 v=0
42000 On ch=1 n=a#5 v=73
42000 On ch=1 n=c#6 v=73
42120 On ch=1 n=c#6 v=0
42120 On ch=1 n=a#5 v=0
42120 On ch=1 n=b5 v=73
42120 On ch=1 n=d#6 v=73
42240 On ch=1 n=d#6 v=0
42240 On ch=1 n=b5 v=0
42240 On ch=1 n=a#5 v=73
42240 On ch=1 n=c#6 v=73
42480 On ch=1 n=c#6 v=0
42480 On ch=1 n=a#5 v=0
42480 On ch=1 n=g#5 v=73
42480 On ch=1 n=b5 v=73
42720 On ch=1 n=b5 v=0
42720 On ch=1 n=g#5 v=0
42720 On ch=1 n=c#6 v=73
42720 On ch=1 n=f6 v=73
42960 On ch=1 n=f6 v=0
42960 On ch=1 n=c#6 v=0
42960 On ch=1 n=b5 v=73
42960 On ch=1 n=d#6 v=73
43200 On ch=1 n=d#6 v=0
43200 On ch=1 n=b5 v=0
43200 On ch=1 n=a#5 v=73
43200 On ch=1 n=c#6 v=73
43440 On ch=1 n=c#6 v=0
43440 On ch=1 n=f#6 v=73
43680 On ch=1 n=f#6 v=0
43680 On ch=1 n=a#5 v=0
43680 On ch=1 n=a5 v=73
43680 On ch=1 n=c6 v=73
43920 On ch=1 n=c6 v=0
43920 On ch=1 n=a5 v=0
43920 On ch=1 n=g#5 v=73
43920 On ch=1 n=b5 v=73
44160 On ch=1 n=b5 v=0
44160 On ch=1 n=f#6 v=73
44400 On ch=1 n=f#6 v=0
44400 On ch=1 n=g#5 v=0
44400 On ch=1 n=f#5 v=73
44400 On ch=1 n=a#5 v=73
44640 On ch=1 n=a#5 v=0
44640 On ch=1 n=f#5 v=0
44640 On ch=1 n=g#5 v=73
44880 On ch=1 n=f#6 v=73
45120 On ch=1 n=f#6 v=0
45120 On ch=1 n=g#5 v=0
45120 On ch=1 n=g5 v=73
45360 On ch=1 n=g5 v=0
45360 On ch=1 n=f#5 v=73
45600 On ch=1 n=f#6 v=73
45840 On ch=1 n=f#6 v=0
45840 On ch=1 n=f#5 v=0
45840 On ch=1 n=e5 v=73
45984 On ch=1 n=e5 v=0
46080 On ch=1 n=d#5 v=73
46110 On ch=1 n=d#5 v=0
46110 On ch=1 n=b5 v=73
46140 On ch=1 n=b5 v=0
46140 On ch=1 n=e6 v=73
46170 On ch=1 n=e6 v=0
46170 On ch=1 n=d#6 v=73
46320 On ch=1 n=d#6 v=0
46320 On ch=1 n=b5 v=73
46320 On ch=1 n=d#6 v=73
46440 On ch=1 n=d#6 v=0
46440 On ch=1 n=b5 v=0
46440 On ch=1 n=c#6 v=73
46440 On ch=1 n=e6 v=73
46560 On ch=1 n=e6 v=0
46560 On ch=1 n=c#6 v=0
46560 On ch=1 n=b5 v=73
46560 On ch=1 n=d#6 v=73
46800 On ch=1 n=d#6 v=0
46800 On ch=1 n=b5 v=0
46800 On ch=1 n=a#5 v=73
46800 On ch=1 n=c#6 v=73
47040 On ch=1 n=c#6 v=0
47040 On ch=1 n=a#5 v=0
47040 On ch=1 n=b5 v=73
47040 On ch=1 n=d#6 v=73
47280 On ch=1 n=d#6 v=0
47280 On ch=1 n=b5 v=0
47280 On ch=1 n=c#6 v=73
47280 On ch=1 n=e6 v=73
47520 On ch=1 n=e6 v=0
47520 On ch=1 n=c#6 v=0
47520 On ch=1 n=e6 v=73
47520 On ch=1 n=g#6 v=73
47550 On ch=1 n=g#6 v=0
47550 On ch=1 n=e6 v=0
47550 On ch=1 n=f#6 v=73
47550 On ch=1 n=d#6 v=73
47676 On ch=1 n=d#6 v=0
47676 On ch=1 n=f#6 v=0
47760 On ch=1 n=f#6 v=73
47760 On ch=1 n=d#6 v=73
47832 On ch=1 n=d#6 v=0
47832 On ch=1 n=f#6 v=0
47880 On ch=1 n=e6 v=73
47880 On ch=1 n=g#6 v=73
48000 On ch=1 n=g#6 v=0
48000 On ch=1 n=e6 v=0
48000 On ch=1 n=f#6 v=73
48000 On ch=1 n=d#6 v=73
48240 On ch=1 n=d#6 v=0
48240 On ch=1 n=c#6 v=73
48960 On ch=1 n=c#6 v=0
48960 On ch=1 n=f#6 v=0
48960 On ch=1 n=c6 v=73
48960 On ch=1 n=g#6 v=73
48990 On ch=1 n=g#6 v=0
48990 On ch=1 n=f#6 v=73
49116 On ch=1 n=f#6 v=0
49120 On ch=1 n=c6 v=0
49200 On ch=1 n=c6 v=73
49200 On ch=1 n=f#6 v=73
49320 On ch=1 n=f#6 v=0
49320 On ch=1 n=g#6 v=73
49440 On ch=1 n=g#6 v=0
49440 On ch=1 n=f#6 v=73
49680 On ch=1 n=f#6 v=0
49680 On ch=1 n=c6 v=0
49680 On ch=1 n=c6 v=73
49680 On ch=1 n=d#6 v=73
49920 On ch=1 n=d#6 v=0
49920 On ch=1 n=c6 v=0
49920 On ch=1 n=c#6 v=73
49920 On ch=1 n=e6 v=73
50160 On ch=1 n=e6 v=0
50160 On ch=1 n=c#6 v=0
50160 On ch=1 n=d#6 v=73
50160 On ch=1 n=f#6 v=73
50400 On ch=1 n=f#6 v=0
50400 On ch=1 n=d#6 v=0
50400 On ch=1 n=f#6 v=73
50400 On ch=1 n=a6 v=73
50430 On ch=1 n=a6 v=0
50430 On ch=1 n=f#6 v=0
50430 On ch=1 n=g#6 v=73
50430 On ch=1 n=e6 v=73
50556 On ch=1 n=e6 v=0
50556 On ch=1 n=g#6 v=0
50640 On ch=1 n=e6 v=73
50640 On ch=1 n=g#6 v=73
50760 On ch=1 n=g#6 v=0
50760 On ch=1 n=e6 v=0
50760 On ch=1 n=f#6 v=73
50760 On ch=1 n=a6 v=73
50880 On ch=1 n=a6 v=0
50880 On ch=1 n=f#6 v=0
50880 On ch=1 n=g#6 v=73
50880 On ch=1 n=e6 v=73
51120 On ch=1 n=e6 v=0
51120 On ch=1 n=d#6 v=73
51840 On ch=1 n=d#6 v=0
51840 On ch=1 n=g#6 v=0
51840 On ch=1 n=d6 v=73
51840 On ch=1 n=a#6 v=73
51870 On ch=1 n=a#6 v=0
51870 On ch=1 n=g#6 v=73
51996 On ch=1 n=g#6 v=0
52080 On ch=1 n=g#6 v=73
52200 On ch=1 n=g#6 v=0
52200 On ch=1 n=a#6 v=73
52320 On ch=1 n=a#6 v=0
52320 On ch=1 n=g#6 v=73
52560 On ch=1 n=d6 v=0
52560 On ch=1 n=d#6 v=73
52800 On ch=1 n=g#6 v=0
52800 On ch=1 n=f#6 v=73
52920 On ch=1 n=f#6 v=0
52920 On ch=1 n=g#6 v=73
53040 On ch=1 n=g#6 v=0
53040 On ch=1 n=f#6 v=73
53280 On ch=1 n=d#6 v=0
53280 On ch=1 n=a#5 v=73
53520 On ch=1 n=f#6 v=0
53520 On ch=1 n=e6 v=73
53640 On ch=1 n=e6 v=0
53640 On ch=1 n=f#6 v=73
53760 On ch=1 n=f#6 v=0
53760 On ch=1 n=e6 v=73
54000 On ch=1 n=a#5 v=0
54000 On ch=1 n=a5 v=73
54240 On ch=1 n=e6 v=0
54240 On ch=1 n=d#6 v=73
54360 On ch=1 n=d#6 v=0
54360 On ch=1 n=e6 v=73
54480 On ch=1 n=e6 v=0
54480 On ch=1 n=d#6 v=73
54720 On ch=1 n=a5 v=0
54720 On ch=1 n=g#5 v=73
54960 On ch=1 n=d#6 v=0
54960 On ch=1 n=c#6 v=73
55080 On ch=1 n=c#6 v=0
55080 On ch=1 n=d#6 v=73
55200 On ch=1 n=d#6 v=0
55200 On ch=1 n=c#6 v=73
55440 On ch=1 n=g#5 v=0
55440 On ch=1 n=c#5 v=73
55680 On ch=1 n=c#6 v=0
55680 On ch=1 n=g#5 v=73
55920 On ch=1 n=g#5 v=0
55920 On ch=1 n=b5 v=73
56160 On ch=1 n=b5 v=0
56160 On ch=1 n=c#5 v=0
56160 On ch=1 n=d#5 v=73
56160 On ch=1 n=b5 v=73
56640 On ch=1 n=b5 v=0
56640 On ch=1 n=d#5 v=0
56640 On ch=1 n=e5 v=73
56640 On ch=1 n=a#5 v=73
56880 On ch=1 n=a#5 v=0
56880 On ch=1 n=e5 v=0
56880 On ch=1 n=d#5 v=73
56880 On ch=1 n=b5 v=73
57360 On ch=1 n=b5 v=0
57360 On ch=1 n=d#5 v=0
57382 Par ch=1 c=64 v=0
57382 Meta TrkEnd
TrkEnd
MTrk
0 Meta 0x21 00
0 Meta TrkName "Piano"
0 PrCh ch=2 p=0
0 Par ch=2 c=7 v=120
0 Par ch=2 c=10 v=52
0 On ch=2 n=b3 v=67
73 Par ch=2 c=64 v=127
240 On ch=2 n=b3 v=0
240 On ch=2 n=f#4 v=67
240 On ch=2 n=b4 v=67
240 On ch=2 n=d5 v=67
480 On ch=2 n=d5 v=0
480 On ch=2 n=b4 v=0
480 On ch=2 n=f#4 v=0
480 On ch=2 n=f#4 v=67
480 On ch=2 n=b4 v=67
480 On ch=2 n=d5 v=67
720 On ch=2 n=d5 v=0
720 On ch=2 n=b4 v=0
720 On ch=2 n=f#4 v=0
720 On ch=2 n=b3 v=67
960 On ch=2 n=b3 v=0
960 On ch=2 n=f#4 v=67
960 On ch=2 n=b4 v=67
960 On ch=2 n=f#5 v=67
1200 On ch=2 n=f#5 v=0
1200 On ch=2 n=b4 v=0
1200 On ch=2 n=f#4 v=0
1200 On ch=2 n=f#4 v=67
1200 On ch=2 n=b4 v=67
1200 On ch=2 n=e5 v=67
1336 Par ch=2 c=64 v=0
1345 Par ch=2 c=64 v=0
1440 On ch=2 n=e5 v=0
1440 On ch=2 n=b4 v=0
1440 On ch=2 n=f#4 v=0
1440 On ch=2 n=b3 v=67
1444 Par ch=2 c=64 v=0
1452 Par ch=2 c=64 v=127
1680 On ch=2 n=b3 v=0
1680 On ch=2 n=f#4 v=67
1680 On ch=2 n=b4 v=67
1680 On ch=2 n=d5 v=67
1920 On ch=2 n=d5 v=0
1920 On ch=2 n=b4 v=0
1920 On ch=2 n=f#4 v=0
1920 On ch=2 n=f#4 v=67
1920 On ch=2 n=b4 v=67
1920 On ch=2 n=d5 v=67
1922 Par ch=2 c=64 v=0
2160 On ch=2 n=d5 v=0
2160 On ch=2 n=b4 v=0
2160 On ch=2 n=f#4 v=0
2160 On ch=2 n=a3 v=67
2269 Par ch=2 c=64 v=0
2277 Par ch=2 c=64 v=127
2400 On ch=2 n=a3 v=0
2400 On ch=2 n=f#4 v=67
2400 On ch=2 n=c#5 v=67
2624 Par ch=2 c=64 v=0
2632 Par ch=2 c=64 v=0
2640 On ch=2 n=c#5 v=0
2640 On ch=2 n=f#4 v=0
2640 On ch=2 n=f#4 v=67
2640 On ch=2 n=c#5 v=67
2880 On ch=2 n=c#5 v=0
2880 On ch=2 n=f#4 v=0
2880 On ch=2 n=a3 v=67
2892 Par ch=2 c=64 v=127
3120 On ch=2 n=a3 v=0
3120 On ch=2 n=f#4 v=67
3120 On ch=2 n=a4 v=67
3120 On ch=2 n=d5 v=67
3360 On ch=2 n=d5 v=0
3360 On ch=2 n=a4 v=0
3360 On ch=2 n=f#4 v=0
3360 On ch=2 n=f#4 v=67
3360 On ch=2 n=a4 v=67
3360 On ch=2 n=d5 v=67
3600 On ch=2 n=d5 v=0
3600 On ch=2 n=a4 v=0
3600 On ch=2 n=f#4 v=0
3600 On ch=2 n=g#3 v=67
3623 Par ch=2 c=64 v=0
3689 Par ch=2 c=64 v=0
3697 Par ch=2 c=64 v=127
3840 On ch=2 n=g#3 v=0
3840 On ch=2 n=g#4 v=67
3840 On ch=2 n=b4 v=67
3840 On ch=2 n=f5 v=67
4080 On ch=2 n=f5 v=0
4080 On ch=2 n=b4 v=0
4080 On ch=2 n=g#4 v=0
4080 On ch=2 n=g#4 v=67
4080 On ch=2 n=b4 v=67
4080 On ch=2 n=f5 v=67
4316 Par ch=2 c=64 v=0
4320 On ch=2 n=f5 v=0
4320 On ch=2 n=b4 v=0
4320 On ch=2 n=g#4 v=0
4320 On ch=2 n=f#3 v=67
4324 Par ch=2 c=64 v=0
4390 Par ch=2 c=64 v=127
4560 On ch=2 n=f#3 v=0
4560 On ch=2 n=a4 v=67
4560 On ch=2 n=c#5 v=67
4560 On ch=2 n=f#5 v=67
4800 On ch=2 n=f#5 v=0
4800 On ch=2 n=c#5 v=0
4800 On ch=2 n=a4 v=0
4800 On ch=2 n=a4 v=67
4800 On ch=2 n=c#5 v=67
4800 On ch=2 n=f#5 v=67
5009 Par ch=2 c=64 v=0
5018 Par ch=2 c=64 v=0
5040 On ch=2 n=f#5 v=0
5040 On ch=2 n=c#5 v=0
5040 On ch=2 n=a4 v=0
5040 On ch=2 n=e3 v=67
5084 Par ch=2 c=64 v=0
5092 Par ch=2 c=64 v=127
5280 On ch=2 n=e3 v=0
5280 On ch=2 n=g#4 v=67
5280 On ch=2 n=c#5 v=67
5520 On ch=2 n=c#5 v=0
5520 On ch=2 n=g#4 v=0
5520 On ch=2 n=g#4 v=67
5520 On ch=2 n=c#5 v=67
5744 Par ch=2 c=64 v=0
5760 On ch=2 n=c#5 v=0
5760 On ch=2 n=g#4 v=0
5760 On ch=2 n=e3 v=67
6000 On ch=2 n=e3 v=0
6000 On ch=2 n=g4 v=67
6000 On ch=2 n=c#5 v=67
6016 Par ch=2 c=64 v=127
6240 On ch=2 n=c#5 v=0
6240 On ch=2 n=g4 v=0
6240 On ch=2 n=g4 v=67
6240 On ch=2 n=c#5 v=67
6470 Par ch=2 c=64 v=0
6480 On ch=2 n=c#5 v=0
6480 On ch=2 n=g4 v=0
6480 On ch=2 n=d3 v=67
6553 Par ch=2 c=64 v=127
6720 On ch=2 n=d3 v=0
6720 On ch=2 n=f#4 v=67
6720 On ch=2 n=c#5 v=67
6960 On ch=2 n=c#5 v=0
6960 On ch=2 n=f#4 v=0
6960 On ch=2 n=f#4 v=67
6960 On ch=2 n=b4 v=67
6966 Par ch=2 c=64 v=0
7200 On ch=2 n=b4 v=0
7200 On ch=2 n=f#4 v=0
7200 On ch=2 n=c#3 v=67
7288 Par ch=2 c=64 v=127
7440 On ch=2 n=c#3 v=0
7440 On ch=2 n=e4 v=67
7440 On ch=2 n=b4 v=67
7680 On ch=2 n=b4 v=0
7680 On ch=2 n=e4 v=0
7680 On ch=2 n=e4 v=67
7680 On ch=2 n=a4 v=67
7692 Par ch=2 c=64 v=0
7920 On ch=2 n=a4 v=0
7920 On ch=2 n=e4 v=0
7920 On ch=2 n=b2 v=67
7944 Par ch=2 c=64 v=127
8160 On ch=2 n=b2 v=0
8160 On ch=2 n=d4 v=67
8160 On ch=2 n=a4 v=67
8400 On ch=2 n=a4 v=0
8400 On ch=2 n=d4 v=0
8400 On ch=2 n=d4 v=67
8400 On ch=2 n=g4 v=67
8402 Par ch=2 c=64 v=0
8640 On ch=2 n=g4 v=0
8640 On ch=2 n=d4 v=0
8640 On ch=2 n=a2 v=67
8699 Par ch=2 c=64 v=127
8880 On ch=2 n=a2 v=0
8880 On ch=2 n=c#4 v=67
8880 On ch=2 n=g4 v=67
9120 On ch=2 n=g4 v=0
9120 On ch=2 n=c#4 v=0
9120 On ch=2 n=c#4 v=67
9120 On ch=2 n=f#4 v=67
9128 Par ch=2 c=64 v=0
9136 Par ch=2 c=64 v=0
9360 On ch=2 n=f#4 v=0
9360 On ch=2 n=c#4 v=0
9360 On ch=2 n=c#3 v=67
9384 Par ch=2 c=64 v=127
9600 On ch=2 n=c#3 v=0
9600 On ch=2 n=c#4 v=67
9600 On ch=2 n=f4 v=67
9838 Par ch=2 c=64 v=0
9840 On ch=2 n=f4 v=0
9840 On ch=2 n=c#4 v=0
9840 On ch=2 n=c#4 v=67
9840 On ch=2 n=c#5 v=67
9846 Par ch=2 c=64 v=0
10080 On ch=2 n=c#5 v=0
10080 On ch=2 n=c#4 v=0
10080 On ch=2 n=f#3 v=67
10320 On ch=2 n=f#3 v=0
10320 On ch=2 n=f#4 v=67
10320 On ch=2 n=a4 v=67
10320 On ch=2 n=c#5 v=67
10560 On ch=2 n=c#5 v=0
10560 On ch=2 n=a4 v=0
10560 On ch=2 n=f#4 v=0
10560 On ch=2 n=f#4 v=67
10560 On ch=2 n=a4 v=67
10560 On ch=2 n=c#5 v=67
10800 On ch=2 n=c#5 v=0
10800 On ch=2 n=a4 v=0
10800 On ch=2 n=f#4 v=0
10800 On ch=2 n=f#3 v=67
10862 Par ch=2 c=64 v=127
11040 On ch=2 n=f#3 v=0
11040 On ch=2 n=f#4 v=67
11040 On ch=2 n=a4 v=67
11040 On ch=2 n=c#5 v=67
11280 On ch=2 n=c#5 v=0
11280 On ch=2 n=a4 v=0
11280 On ch=2 n=f#4 v=0
11280 On ch=2 n=f#4 v=67
11280 On ch=2 n=f#5 v=67
11283 Par ch=2 c=64 v=0
11291 Par ch=2 c=64 v=0
11520 On ch=2 n=f#5 v=0
11520 On ch=2 n=f#4 v=0
11520 On ch=2 n=b3 v=67
11593 Par ch=2 c=64 v=127
11760 On ch=2 n=b3 v=0
11760 On ch=2 n=f#4 v=67
11760 On ch=2 n=b4 v=67
11760 On ch=2 n=d5 v=67
12000 On ch=2 n=d5 v=0
12000 On ch=2 n=b4 v=0
12000 On ch=2 n=f#4 v=0
12000 On ch=2 n=f#4 v=67
12000 On ch=2 n=b4 v=67
12000 On ch=2 n=d5 v=67
12240 On ch=2 n=d5 v=0
12240 On ch=2 n=b4 v=0
12240 On ch=2 n=f#4 v=0
12240 On ch=2 n=b3 v=67
12480 On ch=2 n=b3 v=0
12480 On ch=2 n=f#4 v=67
12480 On ch=2 n=b4 v=67
12480 On ch=2 n=f#5 v=67
12720 On ch=2 n=f#5 v=0
12720 On ch=2 n=b4 v=0
12720 On ch=2 n=f#4 v=0
12720 On ch=2 n=f#4 v=67
12720 On ch=2 n=b4 v=67
12720 On ch=2 n=e5 v=67
12856 Par ch=2 c=64 v=0
12865 Par ch=2 c=64 v=0
12960 On ch=2 n=e5 v=0
12960 On ch=2 n=b4 v=0
12960 On ch=2 n=f#4 v=0
12960 On ch=2 n=b3 v=67
12964 Par ch=2 c=64 v=0
12972 Par ch=2 c=64 v=127
13200 On ch=2 n=b3 v=0
13200 On ch=2 n=f#4 v=67
13200 On ch=2 n=b4 v=67
13200 On ch=2 n=d5 v=67
13440 On ch=2 n=d5 v=0
13440 On ch=2 n=b4 v=0
13440 On ch=2 n=f#4 v=0
13440 On ch=2 n=f#4 v=67
13440 On ch=2 n=b4 v=67
13440 On ch=2 n=d5 v=67
13442 Par ch=2 c=64 v=0
13680 On ch=2 n=d5 v=0
13680 On ch=2 n=b4 v=0
13680 On ch=2 n=f#4 v=0
13680 On ch=2 n=a3 v=67
13789 Par ch=2 c=64 v=0
13797 Par ch=2 c=64 v=127
13920 On ch=2 n=a3 v=0
13920 On ch=2 n=f#4 v=67
13920 On ch=2 n=c#5 v=67
14144 Par ch=2 c=64 v=0
14152 Par ch=2 c=64 v=0
14160 On ch=2 n=c#5 v=0
14160 On ch=2 n=f#4 v=0
14160 On ch=2 n=f#4 v=67
14160 On ch=2 n=c#5 v=67
14400 On ch=2 n=c#5 v=0
14400 On ch=2 n=f#4 v=0
14400 On ch=2 n=a3 v=67
14412 Par ch=2 c=64 v=127
14640 On ch=2 n=a3 v=0
14640 On ch=2 n=f#4 v=67
14640 On ch=2 n=a4 v=67
14640 On ch=2 n=d5 v=67
14880 On ch=2 n=d5 v=0
14880 On ch=2 n=a4 v=0
14880 On ch=2 n=f#4 v=0
14880 On ch=2 n=f#4 v=67
14880 On ch=2 n=a4 v=67
14880 On ch=2 n=d5 v=67
15120 On ch=2 n=d5 v=0
15120 On ch=2 n=a4 v=0
15120 On ch=2 n=f#4 v=0
15120 On ch=2 n=g#3 v=67
15143 Par ch=2 c=64 v=0
15209 Par ch=2 c=64 v=0
15217 Par ch=2 c=64 v=127
15360 On ch=2 n=g#3 v=0
15360 On ch=2 n=g#4 v=67
15360 On ch=2 n=b4 v=67
15360 On ch=2 n=f5 v=67
15366 Pb ch=2 v=8030
15368 Pb ch=2 v=8111
15600 On ch=2 n=f5 v=0
15600 On ch=2 n=b4 v=0
15600 On ch=2 n=g#4 v=0
15600 On ch=2 n=g#4 v=67
15600 On ch=2 n=b4 v=67
15600 On ch=2 n=f5 v=67
15836 Par ch=2 c=64 v=0
15840 On ch=2 n=f5 v=0
15840 On ch=2 n=b4 v=0
15840 On ch=2 n=g#4 v=0
15840 On ch=2 n=f#3 v=67
15844 Par ch=2 c=64 v=0
15910 Par ch=2 c=64 v=127
16080 On ch=2 n=f#3 v=0
16080 On ch=2 n=a4 v=67
16080 On ch=2 n=c#5 v=67
16080 On ch=2 n=f#5 v=67
16320 On ch=2 n=f#5 v=0
16320 On ch=2 n=c#5 v=0
16320 On ch=2 n=a4 v=0
16320 On ch=2 n=a4 v=67
16320 On ch=2 n=c#5 v=67
16320 On ch=2 n=f#5 v=67
16529 Par ch=2 c=64 v=0
16538 Par ch=2 c=64 v=0
16560 On ch=2 n=f#5 v=0
16560 On ch=2 n=c#5 v=0
16560 On ch=2 n=a4 v=0
16560 On ch=2 n=e3 v=67
16604 Par ch=2 c=64 v=0
16612 Par ch=2 c=64 v=127
16800 On ch=2 n=e3 v=0
16800 On ch=2 n=g#4 v=67
16800 On ch=2 n=c#5 v=67
17040 On ch=2 n=c#5 v=0
17040 On ch=2 n=g#4 v=0
17040 On ch=2 n=g#4 v=67
17040 On ch=2 n=c#5 v=67
17264 Par ch=2 c=64 v=0
17280 On ch=2 n=c#5 v=0
17280 On ch=2 n=g#4 v=0
17280 On ch=2 n=e3 v=67
17520 On ch=2 n=e3 v=0
17520 On ch=2 n=g4 v=67
17520 On ch=2 n=c#5 v=67
17536 Par ch=2 c=64 v=127
17760 On ch=2 n=c#5 v=0
17760 On ch=2 n=g4 v=0
17760 On ch=2 n=g4 v=67
17760 On ch=2 n=c#5 v=67
17990 Par ch=2 c=64 v=0
18000 On ch=2 n=c#5 v=0
18000 On ch=2 n=g4 v=0
18000 On ch=2 n=d3 v=67
18073 Par ch=2 c=64 v=127
18240 On ch=2 n=d3 v=0
18240 On ch=2 n=f#4 v=67
18240 On ch=2 n=c#5 v=67
18480 On ch=2 n=c#5 v=0
18480 On ch=2 n=f#4 v=0
18480 On ch=2 n=f#4 v=67
18480 On ch=2 n=b4 v=67
18486 Par ch=2 c=64 v=0
18720 On ch=2 n=b4 v=0
18720 On ch=2 n=f#4 v=0
18720 On ch=2 n=c#3 v=67
18808 Par ch=2 c=64 v=127
18960 On ch=2 n=c#3 v=0
18960 On ch=2 n=e4 v=67
18960 On ch=2 n=b4 v=67
19200 On ch=2 n=b4 v=0
19200 On ch=2 n=e4 v=0
19200 On ch=2 n=e4 v=67
19200 On ch=2 n=a4 v=67
19212 Par ch=2 c=64 v=0
19440 On ch=2 n=a4 v=0
19440 On ch=2 n=e4 v=0
19440 On ch=2 n=b2 v=67
19464 Par ch=2 c=64 v=127
19680 On ch=2 n=b2 v=0
19680 On ch=2 n=d4 v=67
19680 On ch=2 n=a4 v=67
19920 On ch=2 n=a4 v=0
19920 On ch=2 n=d4 v=0
19920 On ch=2 n=d4 v=67
19920 On ch=2 n=g4 v=67
19922 Par ch=2 c=64 v=0
20160 On ch=2 n=g4 v=0
20160 On ch=2 n=d4 v=0
20160 On ch=2 n=a2 v=67
20219 Par ch=2 c=64 v=127
20400 On ch=2 n=a2 v=0
20400 On ch=2 n=c#4 v=67
20400 On ch=2 n=g4 v=67
20640 On ch=2 n=g4 v=0
20640 On ch=2 n=c#4 v=0
20640 On ch=2 n=c#4 v=67
20640 On ch=2 n=f#4 v=67
20648 Par ch=2 c=64 v=0
20656 Par ch=2 c=64 v=0
20880 On ch=2 n=f#4 v=0
20880 On ch=2 n=c#4 v=0
20880 On ch=2 n=c#3 v=67
20904 Par ch=2 c=64 v=127
21120 On ch=2 n=c#3 v=0
21120 On ch=2 n=c#4 v=67
21120 On ch=2 n=f4 v=67
21358 Par ch=2 c=64 v=0
21360 On ch=2 n=f4 v=0
21360 On ch=2 n=c#4 v=0
21360 On ch=2 n=c#4 v=67
21360 On ch=2 n=c#5 v=67
21366 Par ch=2 c=64 v=0
21600 On ch=2 n=c#5 v=0
21600 On ch=2 n=c#4 v=0
21600 On ch=2 n=f#3 v=67
21840 On ch=2 n=f#3 v=0
21840 On ch=2 n=f#4 v=67
21840 On ch=2 n=a4 v=67
21840 On ch=2 n=c#5 v=67
22080 On ch=2 n=c#5 v=0
22080 On ch=2 n=a4 v=0
22080 On ch=2 n=f#4 v=0
22080 On ch=2 n=f#4 v=67
22080 On ch=2 n=a4 v=67
22080 On ch=2 n=c#5 v=67
22320 On ch=2 n=c#5 v=0
22320 On ch=2 n=a4 v=0
22320 On ch=2 n=f#4 v=0
22320 On ch=2 n=f#3 v=67
22382 Par ch=2 c=64 v=127
22560 On ch=2 n=f#3 v=0
22560 On ch=2 n=f#4 v=67
22560 On ch=2 n=a4 v=67
22560 On ch=2 n=c#5 v=67
22800 On ch=2 n=c#5 v=0
22800 On ch=2 n=a4 v=0
22800 On ch=2 n=f#4 v=0
22800 On ch=2 n=f#4 v=67
22800 On ch=2 n=f#5 v=67
22803 Par ch=2 c=64 v=0
22811 Par ch=2 c=64 v=0
23040 On ch=2 n=f#5 v=0
23040 On ch=2 n=f#4 v=0
23040 On ch=2 n=f#3 v=67
23052 Par ch=2 c=64 v=127
23280 On ch=2 n=f#3 v=0
23280 On ch=2 n=f#4 v=67
23280 On ch=2 n=f#5 v=67
23520 On ch=2 n=f#5 v=0
23520 On ch=2 n=f#4 v=0
23520 On ch=2 n=f#4 v=67
23520 On ch=2 n=f#5 v=67
23760 On ch=2 n=f#5 v=0
23760 On ch=2 n=f#4 v=0
23760 On ch=2 n=f#3 v=67
24000 On ch=2 n=f#3 v=0
24000 On ch=2 n=f#4 v=67
24000 On ch=2 n=f#5 v=67
24240 On ch=2 n=f#5 v=0
24240 On ch=2 n=f#4 v=0
24240 On ch=2 n=f#4 v=67
24240 On ch=2 n=f5 v=67
24415 Par ch=2 c=64 v=0
24480 On ch=2 n=f5 v=0
24480 On ch=2 n=f#4 v=0
24480 On ch=2 n=f#3 v=67
24489 Par ch=2 c=64 v=127
24720 On ch=2 n=f#3 v=0
24720 On ch=2 n=f#4 v=67
24720 On ch=2 n=f#5 v=67
24960 On ch=2 n=f#5 v=0
24960 On ch=2 n=f#4 v=0
24960 On ch=2 n=f#4 v=67
24960 On ch=2 n=f#5 v=67
25200 On ch=2 n=f#5 v=0
25200 On ch=2 n=f#4 v=0
25200 On ch=2 n=f#3 v=67
25405 Par ch=2 c=64 v=0
25438 Par ch=2 c=64 v=0
25440 On ch=2 n=f#3 v=0
25440 On ch=2 n=f#4 v=67
25440 On ch=2 n=f#5 v=67
25447 Par ch=2 c=64 v=127
25680 On ch=2 n=f#5 v=0
25680 On ch=2 n=f#4 v=0
25680 On ch=2 n=f#4 v=67
25680 On ch=2 n=f5 v=67
25892 Par ch=2 c=64 v=0
25901 Par ch=2 c=64 v=0
25920 On ch=2 n=f5 v=0
25920 On ch=2 n=f#4 v=0
25920 On ch=2 n=f#3 v=67
25950 Par ch=2 c=64 v=127
26160 On ch=2 n=f#3 v=0
26160 On ch=2 n=f#4 v=67
26160 On ch=2 n=e5 v=67
26400 On ch=2 n=e5 v=0
26400 On ch=2 n=f#4 v=0
26400 On ch=2 n=f#4 v=67
26400 On ch=2 n=d#5 v=67
26412 Par ch=2 c=64 v=0
26421 Par ch=2 c=64 v=0
26640 On ch=2 n=d#5 v=0
26640 On ch=2 n=f#4 v=0
26640 On ch=2 n=f#3 v=67
26718 Par ch=2 c=64 v=127
26880 On ch=2 n=f#3 v=0
26880 On ch=2 n=f#4 v=67
26880 On ch=2 n=d5 v=67
27120 On ch=2 n=d5 v=0
27120 On ch=2 n=f#4 v=0
27120 On ch=2 n=f#4 v=67
27120 On ch=2 n=c#5 v=67
27139 Par ch=2 c=64 v=0
27360 On ch=2 n=c#5 v=0
27360 On ch=2 n=f#4 v=0
27360 On ch=2 n=f#3 v=67
27370 Par ch=2 c=64 v=127
27600 On ch=2 n=f#3 v=0
27600 On ch=2 n=f#4 v=67
27600 On ch=2 n=c5 v=67
27840 On ch=2 n=c5 v=0
27840 On ch=2 n=f#4 v=0
27840 On ch=2 n=f#4 v=67
27840 On ch=2 n=b4 v=67
27964 Par ch=2 c=64 v=0
28080 On ch=2 n=b4 v=0
28080 On ch=2 n=f#4 v=0
28080 On ch=2 n=f#3 v=67
28096 Par ch=2 c=64 v=0
28113 Par ch=2 c=64 v=0
28179 Par ch=2 c=64 v=127
28317 On ch=2 n=f#3 v=0
28317 On ch=2 n=f#4 v=67
28317 On ch=2 n=a#4 v=67
28557 On ch=2 n=a#4 v=0
28557 On ch=2 n=f#4 v=0
28557 On ch=2 n=f#4 v=67
28557 On ch=2 n=g#4 v=67
28572 Par ch=2 c=64 v=0
28580 Par ch=2 c=64 v=0
28701 On ch=2 n=g#4 v=0
28701 On ch=2 n=f#4 v=0
28797 On ch=2 n=b2 v=67
28807 On ch=2 n=f#3 v=67
28817 On ch=2 n=b3 v=67
28827 On ch=2 n=f#4 v=67
28853 Par ch=2 c=64 v=0
28861 Par ch=2 c=64 v=127
29037 On ch=2 n=f#4 v=0
29037 On ch=2 n=b2 v=0
29037 On ch=2 n=f#3 v=0
29037 On ch=2 n=b3 v=0
29037 On ch=2 n=f#4 v=67
29037 On ch=2 n=b4 v=67
29037 On ch=2 n=f#5 v=67
29277 On ch=2 n=f#5 v=0
29277 On ch=2 n=b4 v=0
29277 On ch=2 n=f#4 v=0
29277 On ch=2 n=f#4 v=67
29277 On ch=2 n=b4 v=67
29277 On ch=2 n=f#5 v=67
29517 On ch=2 n=f#5 v=0
29517 On ch=2 n=b4 v=0
29517 On ch=2 n=f#4 v=0
29517 On ch=2 n=b3 v=67
29757 On ch=2 n=b3 v=0
29757 On ch=2 n=f#4 v=67
29757 On ch=2 n=b4 v=67
29757 On ch=2 n=f#5 v=67
29997 On ch=2 n=f#5 v=0
29997 On ch=2 n=b4 v=0
29997 On ch=2 n=f#4 v=0
29997 On ch=2 n=f#4 v=67
29997 On ch=2 n=b4 v=67
29997 On ch=2 n=e5 v=67
30237 On ch=2 n=e5 v=0
30237 On ch=2 n=b4 v=0
30237 On ch=2 n=f#4 v=0
30237 On ch=2 n=b3 v=67
30256 Par ch=2 c=64 v=0
30264 Par ch=2 c=64 v=0
30330 Par ch=2 c=64 v=127
30477 On ch=2 n=b3 v=0
30477 On ch=2 n=f#4 v=67
30477 On ch=2 n=b4 v=67
30477 On ch=2 n=d#5 v=67
30717 On ch=2 n=d#5 v=0
30717 On ch=2 n=b4 v=0
30717 On ch=2 n=f#4 v=0
30717 On ch=2 n=f#4 v=67
30717 On ch=2 n=b4 v=67
30717 On ch=2 n=d#5 v=67
30718 Par ch=2 c=64 v=0
30957 On ch=2 n=d#5 v=0
30957 On ch=2 n=b4 v=0
30957 On ch=2 n=f#4 v=0
30957 On ch=2 n=a#3 v=67
31015 Par ch=2 c=64 v=127
31197 On ch=2 n=a#3 v=0
31197 On ch=2 n=f#4 v=67
31197 On ch=2 n=c#5 v=67
31428 Par ch=2 c=64 v=0
31436 Par ch=2 c=64 v=0
31437 On ch=2 n=c#5 v=0
31437 On ch=2 n=f#4 v=0
31437 On ch=2 n=f#4 v=67
31437 On ch=2 n=c#5 v=67
31677 On ch=2 n=c#5 v=0
31677 On ch=2 n=f#4 v=0
31677 On ch=2 n=g#3 v=67
31758 Par ch=2 c=64 v=127
31917 On ch=2 n=g#3 v=0
31917 On ch=2 n=g#4 v=67
31917 On ch=2 n=c5 v=67
31917 On ch=2 n=f#5 v=67
32157 On ch=2 n=f#5 v=0
32157 On ch=2 n=c5 v=0
32157 On ch=2 n=g#4 v=0
32157 On ch=2 n=g#4 v=67
32157 On ch=2 n=c5 v=67
32157 On ch=2 n=f#5 v=67
32397 On ch=2 n=f#5 v=0
32397 On ch=2 n=c5 v=0
32397 On ch=2 n=g#4 v=0
32397 On ch=2 n=g#3 v=67
32637 On ch=2 n=g#3 v=0
32637 On ch=2 n=g#4 v=67
32637 On ch=2 n=c5 v=67
32637 On ch=2 n=f#5 v=67
32877 On ch=2 n=f#5 v=0
32877 On ch=2 n=c5 v=0
32877 On ch=2 n=g#4 v=0
32877 On ch=2 n=g#4 v=67
32877 On ch=2 n=c5 v=67
32877 On ch=2 n=f#5 v=67
33117 On ch=2 n=f#5 v=0
33117 On ch=2 n=c5 v=0
33117 On ch=2 n=g#4 v=0
33117 On ch=2 n=c#3 v=67
33117 On ch=2 n=c#4 v=67
33120 Par ch=2 c=64 v=0
33186 Par ch=2 c=64 v=0
33194 Par ch=2 c=64 v=127
33357 On ch=2 n=c#4 v=0
33357 On ch=2 n=c#3 v=0
33357 On ch=2 n=g#4 v=67
33357 On ch=2 n=c#5 v=67
33357 On ch=2 n=e5 v=67
33597 On ch=2 n=e5 v=0
33597 On ch=2 n=c#5 v=0
33597 On ch=2 n=g#4 v=0
33597 On ch=2 n=g#4 v=67
33597 On ch=2 n=c#5 v=67
33597 On ch=2 n=e5 v=67
33822 Par ch=2 c=64 v=0
33837 On ch=2 n=e5 v=0
33837 On ch=2 n=c#5 v=0
33837 On ch=2 n=g#4 v=0
33837 On ch=2 n=b2 v=67
33837 On ch=2 n=b3 v=67
34077 On ch=2 n=b3 v=0
34077 On ch=2 n=b2 v=0
34077 On ch=2 n=g#4 v=67
34077 On ch=2 n=d#5 v=67
34317 On ch=2 n=d#5 v=0
34317 On ch=2 n=g#4 v=0
34317 On ch=2 n=g#4 v=67
34317 On ch=2 n=d#5 v=67
34557 On ch=2 n=d#5 v=0
34557 On ch=2 n=g#4 v=0
34557 On ch=2 n=a#2 v=67
34614 Par ch=2 c=64 v=127
34797 On ch=2 n=a#2 v=0
34797 On ch=2 n=a#4 v=67
34797 On ch=2 n=f5 v=67
34797 On ch=2 n=a#5 v=67
34812 Par ch=2 c=64 v=0
34820 Par ch=2 c=64 v=0
35037 On ch=2 n=a#5 v=0
35037 On ch=2 n=f5 v=0
35037 On ch=2 n=a#4 v=0
35037 On ch=2 n=a#4 v=67
35037 On ch=2 n=f5 v=67
35037 On ch=2 n=a#5 v=67
35277 On ch=2 n=a#5 v=0
35277 On ch=2 n=f5 v=0
35277 On ch=2 n=a#4 v=0
35277 On ch=2 n=d#3 v=67
35332 Par ch=2 c=64 v=0
35340 Par ch=2 c=64 v=127
35517 On ch=2 n=d#3 v=0
35517 On ch=2 n=a#4 v=67
35517 On ch=2 n=d#5 v=67
35517 On ch=2 n=f#5 v=67
35527 Par ch=2 c=64 v=0
35754 On ch=2 n=f#5 v=0
35754 On ch=2 n=d#5 v=0
35754 On ch=2 n=a#4 v=0
35754 On ch=2 n=a#4 v=67
35754 On ch=2 n=d#5 v=67
35754 On ch=2 n=f#5 v=67
35994 On ch=2 n=f#5 v=0
35994 On ch=2 n=d#5 v=0
35994 On ch=2 n=a#4 v=0
35994 On ch=2 n=f#3 v=67
36064 Par ch=2 c=64 v=127
36234 On ch=2 n=f#3 v=0
36234 On ch=2 n=f#4 v=67
36234 On ch=2 n=c#5 v=67
36234 On ch=2 n=f#5 v=67
36245 Par ch=2 c=64 v=0
36474 On ch=2 n=f#5 v=0
36474 On ch=2 n=c#5 v=0
36474 On ch=2 n=f#4 v=0
36474 On ch=2 n=f#4 v=67
36474 On ch=2 n=c#5 v=67
36474 On ch=2 n=f#5 v=67
36714 On ch=2 n=f#5 v=0
36714 On ch=2 n=c#5 v=0
36714 On ch=2 n=f#4 v=0
36714 On ch=2 n=b3 v=67
36782 Par ch=2 c=64 v=0
36790 Par ch=2 c=64 v=127
36954 On ch=2 n=b3 v=0
36954 On ch=2 n=f#4 v=67
36954 On ch=2 n=b4 v=67
36980 Par ch=2 c=64 v=0
36988 Par ch=2 c=64 v=0
37194 On ch=2 n=b4 v=0
37194 On ch=2 n=f#4 v=0
37194 On ch=2 n=f#4 v=67
37194 On ch=2 n=b4 v=67
37434 On ch=2 n=b4 v=0
37434 On ch=2 n=f#4 v=0
37434 On ch=2 n=e3 v=67
37442 Par ch=2 c=64 v=0
37450 Par ch=2 c=64 v=127
37673 Par ch=2 c=64 v=0
37674 On ch=2 n=e3 v=0
37674 On ch=2 n=e4 v=67
37674 On ch=2 n=b4 v=67
37914 On ch=2 n=b4 v=0
37914 On ch=2 n=e4 v=0
37914 On ch=2 n=e4 v=67
37914 On ch=2 n=b4 v=67
38152 Par ch=2 c=64 v=0
38154 On ch=2 n=b4 v=0
38154 On ch=2 n=e4 v=0
38154 On ch=2 n=f3 v=67
38178 Par ch=2 c=64 v=127
38394 On ch=2 n=f3 v=0
38394 On ch=2 n=f4 v=67
38394 On ch=2 n=b4 v=67
38400 Par ch=2 c=64 v=0
38634 On ch=2 n=b4 v=0
38634 On ch=2 n=f4 v=0
38634 On ch=2 n=f4 v=67
38634 On ch=2 n=g#4 v=67
38874 On ch=2 n=g#4 v=0
38874 On ch=2 n=f4 v=0
38874 On ch=2 n=f#3 v=67
38898 Par ch=2 c=64 v=127
39114 On ch=2 n=f#3 v=0
39114 On ch=2 n=f#4 v=67
39114 On ch=2 n=b4 v=67
39332 Par ch=2 c=64 v=0
39354 On ch=2 n=b4 v=0
39354 On ch=2 n=f#4 v=0
39354 On ch=2 n=f#4 v=67
39354 On ch=2 n=c#5 v=67
39594 On ch=2 n=c#5 v=0
39594 On ch=2 n=f#4 v=0
39594 On ch=2 n=b2 v=67
39654 Par ch=2 c=64 v=0
39663 Par ch=2 c=64 v=127
39834 On ch=2 n=b2 v=0
39834 On ch=2 n=f#4 v=67
39834 On ch=2 n=b4 v=67
40074 On ch=2 n=b4 v=0
40074 On ch=2 n=f#4 v=0
40074 On ch=2 n=f#4 v=67
40074 On ch=2 n=b4 v=67
40075 Par ch=2 c=64 v=0
40092 Pb ch=2 v=8030
40094 Pb ch=2 v=8111
40314 On ch=2 n=b4 v=0
40314 On ch=2 n=f#4 v=0
40314 On ch=2 n=f#3 v=67
40326 Par ch=2 c=64 v=127
40554 On ch=2 n=f#3 v=0
40554 On ch=2 n=f#4 v=67
40554 On ch=2 n=f#5 v=67
40794 On ch=2 n=f#5 v=0
40794 On ch=2 n=f#4 v=0
40794 On ch=2 n=f#4 v=67
40794 On ch=2 n=f#5 v=67
41034 On ch=2 n=f#5 v=0
41034 On ch=2 n=f#4 v=0
41034 On ch=2 n=f#3 v=67
41274 On ch=2 n=f#3 v=0
41274 On ch=2 n=f#4 v=67
41274 On ch=2 n=f#5 v=67
41514 On ch=2 n=f#5 v=0
41514 On ch=2 n=f#4 v=0
41514 On ch=2 n=f#4 v=67
41514 On ch=2 n=f5 v=67
41689 Par ch=2 c=64 v=0
41754 On ch=2 n=f5 v=0
41754 On ch=2 n=f#4 v=0
41754 On ch=2 n=f#3 v=67
41763 Par ch=2 c=64 v=127
41994 On ch=2 n=f#3 v=0
41994 On ch=2 n=f#4 v=67
41994 On ch=2 n=f#5 v=67
42234 On ch=2 n=f#5 v=0
42234 On ch=2 n=f#4 v=0
42234 On ch=2 n=f#4 v=67
42234 On ch=2 n=f#5 v=67
42474 On ch=2 n=f#5 v=0
42474 On ch=2 n=f#4 v=0
42474 On ch=2 n=f#3 v=67
42679 Par ch=2 c=64 v=0
42712 Par ch=2 c=64 v=0
42714 On ch=2 n=f#3 v=0
42714 On ch=2 n=f#4 v=67
42714 On ch=2 n=f#5 v=67
42721 Par ch=2 c=64 v=127
42954 On ch=2 n=f#5 v=0
42954 On ch=2 n=f#4 v=0
42954 On ch=2 n=f#4 v=67
42954 On ch=2 n=f5 v=67
43166 Par ch=2 c=64 v=0
43175 Par ch=2 c=64 v=0
43194 On ch=2 n=f5 v=0
43194 On ch=2 n=f#4 v=0
43194 On ch=2 n=f#3 v=67
43224 Par ch=2 c=64 v=127
43434 On ch=2 n=f#3 v=0
43434 On ch=2 n=f#4 v=67
43434 On ch=2 n=e5 v=67
43674 On ch=2 n=e5 v=0
43674 On ch=2 n=f#4 v=0
43674 On ch=2 n=f#4 v=67
43674 On ch=2 n=d#5 v=67
43686 Par ch=2 c=64 v=0
43695 Par ch=2 c=64 v=0
43914 On ch=2 n=d#5 v=0
43914 On ch=2 n=f#4 v=0
43914 On ch=2 n=f#3 v=67
43992 Par ch=2 c=64 v=127
44154 On ch=2 n=f#3 v=0
44154 On ch=2 n=f#4 v=67
44154 On ch=2 n=d5 v=67
44394 On ch=2 n=d5 v=0
44394 On ch=2 n=f#4 v=0
44394 On ch=2 n=f#4 v=67
44394 On ch=2 n=c#5 v=67
44413 Par ch=2 c=64 v=0
44634 On ch=2 n=c#5 v=0
44634 On ch=2 n=f#4 v=0
44634 On ch=2 n=f#3 v=67
44644 Par ch=2 c=64 v=127
44874 On ch=2 n=f#3 v=0
44874 On ch=2 n=f#4 v=67
44874 On ch=2 n=c5 v=67
45114 On ch=2 n=c5 v=0
45114 On ch=2 n=f#4 v=0
45114 On ch=2 n=f#4 v=67
45114 On ch=2 n=b4 v=67
45238 Par ch=2 c=64 v=0
45354 On ch=2 n=b4 v=0
45354 On ch=2 n=f#4 v=0
45354 On ch=2 n=f#3 v=67
45370 Par ch=2 c=64 v=0
45387 Par ch=2 c=64 v=0
45453 Par ch=2 c=64 v=127
45591 On ch=2 n=f#3 v=0
45591 On ch=2 n=f#4 v=67
45591 On ch=2 n=a#4 v=67
45831 On ch=2 n=a#4 v=0
45831 On ch=2 n=f#4 v=0
45831 On ch=2 n=f#4 v=67
45831 On ch=2 n=g#4 v=67
45846 Par ch=2 c=64 v=0
45854 Par ch=2 c=64 v=0
45975 On ch=2 n=g#4 v=0
45975 On ch=2 n=f#4 v=0
46071 On ch=2 n=b2 v=67
46081 On ch=2 n=f#3 v=67
46091 On ch=2 n=b3 v=67
46101 On ch=2 n=f#4 v=67
46127 Par ch=2 c=64 v=0
46135 Par ch=2 c=64 v=127
46311 On ch=2 n=f#4 v=0
46311 On ch=2 n=b2 v=0
46311 On ch=2 n=f#3 v=0
46311 On ch=2 n=b3 v=0
46311 On ch=2 n=f#4 v=67
46311 On ch=2 n=b4 v=67
46311 On ch=2 n=f#5 v=67
46551 On ch=2 n=f#5 v=0
46551 On ch=2 n=b4 v=0
46551 On ch=2 n=f#4 v=0
46551 On ch=2 n=f#4 v=67
46551 On ch=2 n=b4 v=67
46551 On ch=2 n=f#5 v=67
46791 On ch=2 n=f#5 v=0
46791 On ch=2 n=b4 v=0
46791 On ch=2 n=f#4 v=0
46791 On ch=2 n=b3 v=67
47031 On ch=2 n=b3 v=0
47031 On ch=2 n=f#4 v=67
47031 On ch=2 n=b4 v=67
47031 On ch=2 n=f#5 v=67
47271 On ch=2 n=f#5 v=0
47271 On ch=2 n=b4 v=0
47271 On ch=2 n=f#4 v=0
47271 On ch=2 n=f#4 v=67
47271 On ch=2 n=b4 v=67
47271 On ch=2 n=e5 v=67
47511 On ch=2 n=e5 v=0
47511 On ch=2 n=b4 v=0
47511 On ch=2 n=f#4 v=0
47511 On ch=2 n=b3 v=67
47530 Par ch=2 c=64 v=0
47538 Par ch=2 c=64 v=0
47604 Par ch=2 c=64 v=127
47751 On ch=2 n=b3 v=0
47751 On ch=2 n=f#4 v=67
47751 On ch=2 n=b4 v=67
47751 On ch=2 n=d#5 v=67
47991 On ch=2 n=d#5 v=0
47991 On ch=2 n=b4 v=0
47991 On ch=2 n=f#4 v=0
47991 On ch=2 n=f#4 v=67
47991 On ch=2 n=b4 v=67
47991 On ch=2 n=d#5 v=67
47992 Par ch=2 c=64 v=0
48231 On ch=2 n=d#5 v=0
48231 On ch=2 n=b4 v=0
48231 On ch=2 n=f#4 v=0
48231 On ch=2 n=a#3 v=67
48289 Par ch=2 c=64 v=127
48471 On ch=2 n=a#3 v=0
48471 On ch=2 n=f#4 v=67
48471 On ch=2 n=c#5 v=67
48702 Par ch=2 c=64 v=0
48710 Par ch=2 c=64 v=0
48711 On ch=2 n=c#5 v=0
48711 On ch=2 n=f#4 v=0
48711 On ch=2 n=f#4 v=67
48711 On ch=2 n=c#5 v=67
48951 On ch=2 n=c#5 v=0
48951 On ch=2 n=f#4 v=0
48951 On ch=2 n=g#3 v=67
49032 Par ch=2 c=64 v=127
49191 On ch=2 n=g#3 v=0
49191 On ch=2 n=g#4 v=67
49191 On ch=2 n=c5 v=67
49191 On ch=2 n=f#5 v=67
49431 On ch=2 n=f#5 v=0
49431 On ch=2 n=c5 v=0
49431 On ch=2 n=g#4 v=0
49431 On ch=2 n=g#4 v=67
49431 On ch=2 n=c5 v=67
49431 On ch=2 n=f#5 v=67
49671 On ch=2 n=f#5 v=0
49671 On ch=2 n=c5 v=0
49671 On ch=2 n=g#4 v=0
49671 On ch=2 n=g#3 v=67
49911 On ch=2 n=g#3 v=0
49911 On ch=2 n=g#4 v=67
49911 On ch=2 n=c5 v=67
49911 On ch=2 n=f#5 v=67
50151 On ch=2 n=f#5 v=0
50151 On ch=2 n=c5 v=0
50151 On ch=2 n=g#4 v=0
50151 On ch=2 n=g#4 v=67
50151 On ch=2 n=c5 v=67
50151 On ch=2 n=f#5 v=67
50391 On ch=2 n=f#5 v=0
50391 On ch=2 n=c5 v=0
50391 On ch=2 n=g#4 v=0
50391 On ch=2 n=c#3 v=67
50391 On ch=2 n=c#4 v=67
50394 Par ch=2 c=64 v=0
50460 Par ch=2 c=64 v=0
50468 Par ch=2 c=64 v=127
50631 On ch=2 n=c#4 v=0
50631 On ch=2 n=c#3 v=0
50631 On ch=2 n=g#4 v=67
50631 On ch=2 n=c#5 v=67
50631 On ch=2 n=e5 v=67
50871 On ch=2 n=e5 v=0
50871 On ch=2 n=c#5 v=0
50871 On ch=2 n=g#4 v=0
50871 On ch=2 n=g#4 v=67
50871 On ch=2 n=c#5 v=67
50871 On ch=2 n=e5 v=67
51096 Par ch=2 c=64 v=0
51111 On ch=2 n=e5 v=0
51111 On ch=2 n=c#5 v=0
51111 On ch=2 n=g#4 v=0
51111 On ch=2 n=b2 v=67
51111 On ch=2 n=b3 v=67
51351 On ch=2 n=b3 v=0
51351 On ch=2 n=b2 v=0
51351 On ch=2 n=g#4 v=67
51351 On ch=2 n=d#5 v=67
51591 On ch=2 n=d#5 v=0
51591 On ch=2 n=g#4 v=0
51591 On ch=2 n=g#4 v=67
51591 On ch=2 n=d#5 v=67
51831 On ch=2 n=d#5 v=0
51831 On ch=2 n=g#4 v=0
51831 On ch=2 n=a#2 v=67
51888 Par ch=2 c=64 v=127
52071 On ch=2 n=a#2 v=0
52071 On ch=2 n=a#4 v=67
52071 On ch=2 n=f5 v=67
52071 On ch=2 n=a#5 v=67
52086 Par ch=2 c=64 v=0
52094 Par ch=2 c=64 v=0
52311 On ch=2 n=a#5 v=0
52311 On ch=2 n=f5 v=0
52311 On ch=2 n=a#4 v=0
52311 On ch=2 n=a#4 v=67
52311 On ch=2 n=f5 v=67
52311 On ch=2 n=a#5 v=67
52551 On ch=2 n=a#5 v=0
52551 On ch=2 n=f5 v=0
52551 On ch=2 n=a#4 v=0
52551 On ch=2 n=d#3 v=67
52606 Par ch=2 c=64 v=0
52614 Par ch=2 c=64 v=127
52791 On ch=2 n=d#3 v=0
52791 On ch=2 n=a#4 v=67
52791 On ch=2 n=d#5 v=67
52791 On ch=2 n=f#5 v=67
52801 Par ch=2 c=64 v=0
53028 On ch=2 n=f#5 v=0
53028 On ch=2 n=d#5 v=0
53028 On ch=2 n=a#4 v=0
53028 On ch=2 n=a#4 v=67
53028 On ch=2 n=d#5 v=67
53028 On ch=2 n=f#5 v=67
53268 On ch=2 n=f#5 v=0
53268 On ch=2 n=d#5 v=0
53268 On ch=2 n=a#4 v=0
53268 On ch=2 n=f#3 v=67
53338 Par ch=2 c=64 v=127
53508 On ch=2 n=f#3 v=0
53508 On ch=2 n=f#4 v=67
53508 On ch=2 n=c#5 v=67
53508 On ch=2 n=f#5 v=67
53519 Par ch=2 c=64 v=0
53748 On ch=2 n=f#5 v=0
53748 On ch=2 n=c#5 v=0
53748 On ch=2 n=f#4 v=0
53748 On ch=2 n=f#4 v=67
53748 On ch=2 n=c#5 v=67
53748 On ch=2 n=f#5 v=67
53988 On ch=2 n=f#5 v=0
53988 On ch=2 n=c#5 v=0
53988 On ch=2 n=f#4 v=0
53988 On ch=2 n=b3 v=67
54056 Par ch=2 c=64 v=0
54064 Par ch=2 c=64 v=127
54228 On ch=2 n=b3 v=0
54228 On ch=2 n=f#4 v=67
54228 On ch=2 n=b4 v=67
54254 Par ch=2 c=64 v=0
54262 Par ch=2 c=64 v=0
54468 On ch=2 n=b4 v=0
54468 On ch=2 n=f#4 v=0
54468 On ch=2 n=f#4 v=67
54468 On ch=2 n=b4 v=67
54708 On ch=2 n=b4 v=0
54708 On ch=2 n=f#4 v=0
54708 On ch=2 n=e3 v=67
54716 Par ch=2 c=64 v=0
54724 Par ch=2 c=64 v=127
54947 Par ch=2 c=64 v=0
54948 On ch=2 n=e3 v=0
54948 On ch=2 n=e4 v=67
54948 On ch=2 n=b4 v=67
55188 On ch=2 n=b4 v=0
55188 On ch=2 n=e4 v=0
55188 On ch=2 n=e4 v=67
55188 On ch=2 n=b4 v=67
55426 Par ch=2 c=64 v=0
55428 On ch=2 n=b4 v=0
55428 On ch=2 n=e4 v=0
55428 On ch=2 n=f3 v=67
55452 Par ch=2 c=64 v=127
55668 On ch=2 n=f3 v=0
55668 On ch=2 n=f4 v=67
55668 On ch=2 n=b4 v=67
55674 Par ch=2 c=64 v=0
55908 On ch=2 n=b4 v=0
55908 On ch=2 n=f4 v=0
55908 On ch=2 n=f4 v=67
55908 On ch=2 n=g#4 v=67
56148 On ch=2 n=g#4 v=0
56148 On ch=2 n=f4 v=0
56148 On ch=2 n=f#3 v=67
56172 Par ch=2 c=64 v=127
56388 On ch=2 n=f#3 v=0
56388 On ch=2 n=f#4 v=67
56388 On ch=2 n=b4 v=67
56606 Par ch=2 c=64 v=0
56628 On ch=2 n=b4 v=0
56628 On ch=2 n=f#4 v=0
56628 On ch=2 n=f#4 v=67
56628 On ch=2 n=c#5 v=67
56868 On ch=2 n=c#5 v=0
56868 On ch=2 n=f#4 v=0
56868 On ch=2 n=b2 v=67
56932 Par ch=2 c=64 v=127
57108 On ch=2 n=b2 v=0
57108 On ch=2 n=f#4 v=67
57108 On ch=2 n=b4 v=67
57348 On ch=2 n=b4 v=0
57348 On ch=2 n=f#4 v=0
57378 Par ch=2 c=64 v=0
57378 Meta TrkEnd
TrkEnd
