MFile 1 3 240
MTrk
0 TimeSig 3/4 24 8
0 KeySig 0 major
0 Tempo 476190
0 Meta TrkEnd
TrkEnd
MTrk
0 Meta 0x21 00
0 Meta TrkName "Piano"
0 PrCh ch=1 p=0
0 Par ch=1 c=7 v=127
0 Par ch=1 c=10 v=72
0 On ch=1 n=d#5 v=78
0 On ch=1 n=c6 v=78
360 On ch=1 n=c6 v=0
360 On ch=1 n=d#5 v=0
360 On ch=1 n=c5 v=78
360 On ch=1 n=g#5 v=78
480 On ch=1 n=g#5 v=0
480 On ch=1 n=c5 v=0
480 On ch=1 n=c5 v=78
480 On ch=1 n=g#5 v=78
600 On ch=1 n=g#5 v=0
600 On ch=1 n=c5 v=0
600 On ch=1 n=d#5 v=78
600 On ch=1 n=c6 v=78
720 On ch=1 n=c6 v=0
720 On ch=1 n=d#5 v=0
720 On ch=1 n=d#5 v=78
720 On ch=1 n=c6 v=78
1080 On ch=1 n=c6 v=0
1080 On ch=1 n=d#5 v=0
1080 On ch=1 n=c5 v=78
1080 On ch=1 n=g#5 v=78
1200 On ch=1 n=g#5 v=0
1200 On ch=1 n=c5 v=0
1200 On ch=1 n=c5 v=78
1200 On ch=1 n=g#5 v=78
1320 On ch=1 n=g#5 v=0
1320 On ch=1 n=c5 v=0
1320 On ch=1 n=d#5 v=78
1320 On ch=1 n=c6 v=78
1440 On ch=1 n=c6 v=0
1440 On ch=1 n=d#5 v=0
1440 On ch=1 n=f5 v=78
1440 On ch=1 n=g#5 v=78
1440 On ch=1 n=c#6 v=78
1620 On ch=1 n=c#6 v=0
1620 On ch=1 n=d#6 v=78
1650 On ch=1 n=d#6 v=0
1650 On ch=1 n=c#6 v=78
1680 On ch=1 n=c#6 v=0
1680 On ch=1 n=g#5 v=0
1680 On ch=1 n=f5 v=0
1680 On ch=1 n=d#5 v=78
1680 On ch=1 n=g#5 v=78
1680 On ch=1 n=c6 v=78
1920 On ch=1 n=c6 v=0
1920 On ch=1 n=g#5 v=0
1920 On ch=1 n=d#5 v=0
1920 On ch=1 n=c#5 v=78
1920 On ch=1 n=g#5 v=78
1920 On ch=1 n=a#5 v=78
2160 On ch=1 n=a#5 v=0
2160 On ch=1 n=g#5 v=0
2160 On ch=1 n=c#5 v=0
2160 On ch=1 n=d#5 v=78
2160 On ch=1 n=g#5 v=78
2160 On ch=1 n=c6 v=78
2520 On ch=1 n=c6 v=0
2520 On ch=1 n=g#5 v=0
2520 On ch=1 n=d#5 v=0
2520 On ch=1 n=g#5 v=78
2640 On ch=1 n=g#5 v=0
2640 On ch=1 n=g#5 v=78
2760 On ch=1 n=g#5 v=0
2760 On ch=1 n=c6 v=78
2760 On ch=1 n=d#6 v=78
2880 On ch=1 n=d#6 v=0
2880 On ch=1 n=c6 v=0
2880 On ch=1 n=g#5 v=78
2880 On ch=1 n=c6 v=78
2880 On ch=1 n=f6 v=78
3240 On ch=1 n=f6 v=0
3240 On ch=1 n=c6 v=0
3240 On ch=1 n=g#5 v=0
3240 On ch=1 n=g#5 v=78
3240 On ch=1 n=c6 v=78
3360 On ch=1 n=c6 v=0
3360 On ch=1 n=g#5 v=0
3360 On ch=1 n=g#5 v=78
3360 On ch=1 n=c6 v=78
3480 On ch=1 n=c6 v=0
3480 On ch=1 n=g#5 v=0
3480 On ch=1 n=d#6 v=78
3600 On ch=1 n=d#6 v=0
3600 On ch=1 n=g#5 v=78
3600 On ch=1 n=c6 v=78
3600 On ch=1 n=f6 v=78
3960 On ch=1 n=f6 v=0
3960 On ch=1 n=c6 v=0
3960 On ch=1 n=g#5 v=0
3960 On ch=1 n=g#5 v=78
3960 On ch=1 n=c6 v=78
4080 On ch=1 n=c6 v=0
4080 On ch=1 n=g#5 v=0
4080 On ch=1 n=g#5 v=78
4080 On ch=1 n=c6 v=78
4200 On ch=1 n=c6 v=0
4200 On ch=1 n=g#5 v=0
4200 On ch=1 n=d#6 v=78
4320 On ch=1 n=d#6 v=0
4320 On ch=1 n=g5 v=78
4320 On ch=1 n=c6 v=78
4320 On ch=1 n=g6 v=78
4440 On ch=1 n=g6 v=0
4440 On ch=1 n=f6 v=78
4560 On ch=1 n=f6 v=0
4560 On ch=1 n=c6 v=0
4560 On ch=1 n=g5 v=0
4560 On ch=1 n=g5 v=78
4560 On ch=1 n=c6 v=78
4560 On ch=1 n=d#6 v=78
4800 On ch=1 n=d#6 v=0
4800 On ch=1 n=c6 v=0
4800 On ch=1 n=g5 v=0
4800 On ch=1 n=f5 v=78
4800 On ch=1 n=b5 v=78
4800 On ch=1 n=d6 v=78
5040 On ch=1 n=d6 v=0
5040 On ch=1 n=b5 v=0
5040 On ch=1 n=f5 v=0
5040 On ch=1 n=g5 v=78
5040 On ch=1 n=c6 v=78
5040 On ch=1 n=d#6 v=78
5400 On ch=1 n=d#6 v=0
5400 On ch=1 n=c6 v=0
5400 On ch=1 n=g5 v=0
5400 On ch=1 n=d#5 v=78
5400 On ch=1 n=g5 v=78
5520 On ch=1 n=g5 v=0
5520 On ch=1 n=d#5 v=0
5520 On ch=1 n=d#5 v=78
5520 On ch=1 n=g5 v=78
5640 On ch=1 n=g5 v=0
5640 On ch=1 n=d#5 v=0
5640 On ch=1 n=c6 v=78
5760 On ch=1 n=c6 v=0
5760 On ch=1 n=d#5 v=78
5760 On ch=1 n=c6 v=78
6120 On ch=1 n=c6 v=0
6120 On ch=1 n=d#5 v=0
6120 On ch=1 n=c5 v=78
6120 On ch=1 n=g#5 v=78
6240 On ch=1 n=g#5 v=0
6240 On ch=1 n=c5 v=0
6240 On ch=1 n=c5 v=78
6240 On ch=1 n=g#5 v=78
6360 On ch=1 n=g#5 v=0
6360 On ch=1 n=c5 v=0
6360 On ch=1 n=d#5 v=78
6360 On ch=1 n=c6 v=78
6480 On ch=1 n=c6 v=0
6480 On ch=1 n=d#5 v=0
6480 On ch=1 n=d#5 v=78
6480 On ch=1 n=c6 v=78
6840 On ch=1 n=c6 v=0
6840 On ch=1 n=d#5 v=0
6840 On ch=1 n=c5 v=78
6840 On ch=1 n=g#5 v=78
6960 On ch=1 n=g#5 v=0
6960 On ch=1 n=c5 v=0
6960 On ch=1 n=c5 v=78
6960 On ch=1 n=g#5 v=78
7080 On ch=1 n=g#5 v=0
7080 On ch=1 n=c5 v=0
7080 On ch=1 n=d#5 v=78
7080 On ch=1 n=c6 v=78
7200 On ch=1 n=c6 v=0
7200 On ch=1 n=d#5 v=0
7200 On ch=1 n=f5 v=78
7200 On ch=1 n=g#5 v=78
7200 On ch=1 n=c#6 v=78
7380 On ch=1 n=c#6 v=0
7380 On ch=1 n=d#6 v=78
7410 On ch=1 n=d#6 v=0
7410 On ch=1 n=c#6 v=78
7440 On ch=1 n=c#6 v=0
7440 On ch=1 n=g#5 v=0
7440 On ch=1 n=f5 v=0
7440 On ch=1 n=d#5 v=78
7440 On ch=1 n=g#5 v=78
7440 On ch=1 n=c6 v=78
7680 On ch=1 n=c6 v=0
7680 On ch=1 n=g#5 v=0
7680 On ch=1 n=d#5 v=0
7680 On ch=1 n=c#5 v=78
7680 On ch=1 n=g#5 v=78
7680 On ch=1 n=a#5 v=78
7920 On ch=1 n=a#5 v=0
7920 On ch=1 n=g#5 v=0
7920 On ch=1 n=c#5 v=0
7920 On ch=1 n=d#5 v=78
7920 On ch=1 n=g#5 v=78
7920 On ch=1 n=c6 v=78
8280 On ch=1 n=c6 v=0
8280 On ch=1 n=g#5 v=0
8280 On ch=1 n=d#5 v=0
8280 On ch=1 n=g#5 v=78
8400 On ch=1 n=g#5 v=0
8400 On ch=1 n=g#5 v=78
8520 On ch=1 n=g#5 v=0
8520 On ch=1 n=c6 v=78
8520 On ch=1 n=d#6 v=78
8640 On ch=1 n=d#6 v=0
8640 On ch=1 n=c6 v=0
8640 On ch=1 n=g#5 v=78
8640 On ch=1 n=c6 v=78
8640 On ch=1 n=f6 v=78
9000 On ch=1 n=f6 v=0
9000 On ch=1 n=c6 v=0
9000 On ch=1 n=g#5 v=0
9000 On ch=1 n=g#5 v=78
9000 On ch=1 n=c6 v=78
9120 On ch=1 n=c6 v=0
9120 On ch=1 n=g#5 v=0
9120 On ch=1 n=g#5 v=78
9120 On ch=1 n=c6 v=78
9240 On ch=1 n=c6 v=0
9240 On ch=1 n=g#5 v=0
9240 On ch=1 n=d#6 v=78
9360 On ch=1 n=d#6 v=0
9360 On ch=1 n=g#5 v=78
9360 On ch=1 n=c6 v=78
9360 On ch=1 n=f6 v=78
9720 On ch=1 n=f6 v=0
9720 On ch=1 n=c6 v=0
9720 On ch=1 n=g#5 v=0
9720 On ch=1 n=g#5 v=78
9720 On ch=1 n=c6 v=78
9840 On ch=1 n=c6 v=0
9840 On ch=1 n=g#5 v=0
9840 On ch=1 n=g#5 v=78
9840 On ch=1 n=c6 v=78
9960 On ch=1 n=c6 v=0
9960 On ch=1 n=g#5 v=0
9960 On ch=1 n=d#6 v=78
10080 On ch=1 n=d#6 v=0
10080 On ch=1 n=g5 v=78
10080 On ch=1 n=c6 v=78
10080 On ch=1 n=g6 v=78
10200 On ch=1 n=g6 v=0
10200 On ch=1 n=f6 v=78
10320 On ch=1 n=f6 v=0
10320 On ch=1 n=c6 v=0
10320 On ch=1 n=g5 v=0
10320 On ch=1 n=g5 v=78
10320 On ch=1 n=c6 v=78
10320 On ch=1 n=d#6 v=78
10560 On ch=1 n=d#6 v=0
10560 On ch=1 n=c6 v=0
10560 On ch=1 n=g5 v=0
10560 On ch=1 n=f5 v=78
10560 On ch=1 n=b5 v=78
10560 On ch=1 n=d6 v=78
10800 On ch=1 n=d6 v=0
10800 On ch=1 n=b5 v=0
10800 On ch=1 n=f5 v=0
10800 On ch=1 n=g5 v=78
10800 On ch=1 n=c6 v=78
10800 On ch=1 n=d#6 v=78
11160 On ch=1 n=d#6 v=0
11160 On ch=1 n=c6 v=0
11160 On ch=1 n=g5 v=0
11160 On ch=1 n=d#5 v=78
11160 On ch=1 n=g5 v=78
11160 On ch=1 n=c6 v=78
11280 On ch=1 n=c6 v=0
11280 On ch=1 n=g5 v=0
11280 On ch=1 n=d#5 v=0
11280 On ch=1 n=d#5 v=78
11280 On ch=1 n=g5 v=78
11280 On ch=1 n=c6 v=78
11400 On ch=1 n=c6 v=0
11400 On ch=1 n=g5 v=0
11400 On ch=1 n=d#5 v=0
11400 On ch=1 n=d#6 v=78
11520 On ch=1 n=d#6 v=0
11520 On ch=1 n=d#5 v=78
11520 On ch=1 n=g5 v=78
11520 On ch=1 n=a#5 v=78
11520 On ch=1 n=c#6 v=78
11520 On ch=1 n=d#6 v=78
11880 On ch=1 n=d#6 v=0
11880 On ch=1 n=a#5 v=0
11880 On ch=1 n=d#5 v=0
11880 On ch=1 n=g5 v=0
11880 On ch=1 n=c#6 v=0
11880 On ch=1 n=d#5 v=78
11880 On ch=1 n=g5 v=78
11880 On ch=1 n=a#5 v=78
12000 On ch=1 n=a#5 v=0
12000 On ch=1 n=g5 v=0
12000 On ch=1 n=d#5 v=0
12000 On ch=1 n=d#5 v=78
12000 On ch=1 n=g5 v=78
12000 On ch=1 n=a#5 v=78
12120 On ch=1 n=a#5 v=0
12120 On ch=1 n=g5 v=0
12120 On ch=1 n=d#5 v=0
12120 On ch=1 n=c#6 v=78
12120 On ch=1 n=d#6 v=78
12240 On ch=1 n=d#6 v=0
12240 On ch=1 n=c#6 v=0
12240 On ch=1 n=d#5 v=78
12240 On ch=1 n=g#5 v=78
12240 On ch=1 n=c6 v=78
12240 On ch=1 n=d#6 v=78
12600 On ch=1 n=d#6 v=0
12600 On ch=1 n=d#5 v=0
12600 On ch=1 n=g#5 v=0
12600 On ch=1 n=c6 v=0
12600 On ch=1 n=g#5 v=78
12600 On ch=1 n=c6 v=78
12720 On ch=1 n=c6 v=0
12720 On ch=1 n=g#5 v=0
12720 On ch=1 n=g#5 v=78
12720 On ch=1 n=c6 v=78
12840 On ch=1 n=c6 v=0
12840 On ch=1 n=g#5 v=0
12840 On ch=1 n=d#6 v=78
12960 On ch=1 n=d#6 v=0
12960 On ch=1 n=g#5 v=78
12960 On ch=1 n=c6 v=78
12960 On ch=1 n=d#6 v=78
12960 On ch=1 n=f#6 v=78
12960 On ch=1 n=g#6 v=78
13320 On ch=1 n=g#6 v=0
13320 On ch=1 n=d#6 v=0
13320 On ch=1 n=g#5 v=0
13320 On ch=1 n=c6 v=0
13320 On ch=1 n=f#6 v=0
13320 On ch=1 n=g#5 v=78
13320 On ch=1 n=c6 v=78
13320 On ch=1 n=d#6 v=78
13440 On ch=1 n=d#6 v=0
13440 On ch=1 n=c6 v=0
13440 On ch=1 n=g#5 v=0
13440 On ch=1 n=g#5 v=78
13440 On ch=1 n=c6 v=78
13440 On ch=1 n=d#6 v=78
13560 On ch=1 n=d#6 v=0
13560 On ch=1 n=c6 v=0
13560 On ch=1 n=g#5 v=0
13560 On ch=1 n=f#6 v=78
13560 On ch=1 n=g#6 v=78
13680 On ch=1 n=g#6 v=0
13680 On ch=1 n=f#6 v=0
13680 On ch=1 n=g#5 v=78
13680 On ch=1 n=c#6 v=78
13680 On ch=1 n=f6 v=78
13680 On ch=1 n=g#6 v=78
14040 On ch=1 n=g#6 v=0
14040 On ch=1 n=g#5 v=0
14040 On ch=1 n=c#6 v=0
14040 On ch=1 n=f6 v=0
14040 On ch=1 n=g#5 v=78
14040 On ch=1 n=c#6 v=78
14040 On ch=1 n=f6 v=78
14160 On ch=1 n=f6 v=0
14160 On ch=1 n=c#6 v=0
14160 On ch=1 n=g#5 v=0
14160 On ch=1 n=g#5 v=78
14160 On ch=1 n=c#6 v=78
14160 On ch=1 n=f6 v=78
14280 On ch=1 n=f6 v=0
14280 On ch=1 n=c#6 v=0
14280 On ch=1 n=g#5 v=0
14280 On ch=1 n=g#6 v=78
14400 On ch=1 n=g#6 v=0
14400 On ch=1 n=g#5 v=78
14400 On ch=1 n=a#5 v=78
14400 On ch=1 n=d6 v=78
14400 On ch=1 n=f6 v=78
14400 On ch=1 n=a#6 v=78
14760 On ch=1 n=a#6 v=0
14760 On ch=1 n=d6 v=0
14760 On ch=1 n=g#5 v=0
14760 On ch=1 n=a#5 v=0
14760 On ch=1 n=f6 v=0
14760 On ch=1 n=a#5 v=78
14760 On ch=1 n=d6 v=78
14760 On ch=1 n=f6 v=78
14880 On ch=1 n=f6 v=0
14880 On ch=1 n=d6 v=0
14880 On ch=1 n=a#5 v=0
14880 On ch=1 n=a#5 v=78
14880 On ch=1 n=d6 v=78
14880 On ch=1 n=f6 v=78
15000 On ch=1 n=f6 v=0
15000 On ch=1 n=d6 v=0
15000 On ch=1 n=a#5 v=0
15000 On ch=1 n=g#6 v=78
15120 On ch=1 n=g#6 v=0
15120 On ch=1 n=a#5 v=78
15120 On ch=1 n=c#6 v=78
15120 On ch=1 n=g#6 v=78
15240 On ch=1 n=g#6 v=0
15240 On ch=1 n=g6 v=78
15360 On ch=1 n=g6 v=0
15360 On ch=1 n=c#6 v=0
15360 On ch=1 n=a#5 v=0
15360 On ch=1 n=g#5 v=78
15360 On ch=1 n=c#6 v=78
15360 On ch=1 n=f6 v=78
15600 On ch=1 n=f6 v=0
15600 On ch=1 n=c#6 v=0
15600 On ch=1 n=g#5 v=0
15600 On ch=1 n=g5 v=78
15600 On ch=1 n=c#6 v=78
15600 On ch=1 n=d#6 v=78
15840 On ch=1 n=d#6 v=0
15840 On ch=1 n=c#6 v=0
15840 On ch=1 n=g5 v=0
15840 On ch=1 n=d#5 v=78
15840 On ch=1 n=c6 v=78
16200 On ch=1 n=c6 v=0
16200 On ch=1 n=d#5 v=0
16200 On ch=1 n=c5 v=78
16200 On ch=1 n=g#5 v=78
16320 On ch=1 n=g#5 v=0
16320 On ch=1 n=c5 v=0
16320 On ch=1 n=c5 v=78
16320 On ch=1 n=g#5 v=78
16440 On ch=1 n=g#5 v=0
16440 On ch=1 n=c5 v=0
16440 On ch=1 n=d#5 v=78
16440 On ch=1 n=c6 v=78
16560 On ch=1 n=c6 v=0
16560 On ch=1 n=d#5 v=0
16560 On ch=1 n=d#5 v=78
16560 On ch=1 n=c6 v=78
16920 On ch=1 n=c6 v=0
16920 On ch=1 n=d#5 v=0
16920 On ch=1 n=c5 v=78
16920 On ch=1 n=g#5 v=78
17040 On ch=1 n=g#5 v=0
17040 On ch=1 n=c5 v=0
17040 On ch=1 n=c5 v=78
17040 On ch=1 n=g#5 v=78
17160 On ch=1 n=g#5 v=0
17160 On ch=1 n=c5 v=0
17160 On ch=1 n=d#5 v=78
17160 On ch=1 n=c6 v=78
17280 On ch=1 n=c6 v=0
17280 On ch=1 n=d#5 v=0
17280 On ch=1 n=c#6 v=78
17280 On ch=1 n=f5 v=78
17280 On ch=1 n=g#5 v=78
17460 On ch=1 n=c#6 v=0
17460 On ch=1 n=d#6 v=44
17490 On ch=1 n=d#6 v=0
17490 On ch=1 n=c#6 v=105
17520 On ch=1 n=c#6 v=0
17520 On ch=1 n=g#5 v=0
17520 On ch=1 n=f5 v=0
17520 On ch=1 n=d#5 v=78
17520 On ch=1 n=g#5 v=78
17520 On ch=1 n=c6 v=78
17760 On ch=1 n=c6 v=0
17760 On ch=1 n=g#5 v=0
17760 On ch=1 n=d#5 v=0
17760 On ch=1 n=c#5 v=78
17760 On ch=1 n=g#5 v=78
17760 On ch=1 n=a#5 v=78
18000 On ch=1 n=a#5 v=0
18000 On ch=1 n=g#5 v=0
18000 On ch=1 n=c#5 v=0
18000 On ch=1 n=d#5 v=78
18000 On ch=1 n=g#5 v=78
18000 On ch=1 n=c6 v=78
18360 On ch=1 n=c6 v=0
18360 On ch=1 n=g#5 v=0
18360 On ch=1 n=d#5 v=0
18360 On ch=1 n=g#5 v=78
18480 On ch=1 n=g#5 v=0
18480 On ch=1 n=g#5 v=78
18600 On ch=1 n=g#5 v=0
18600 On ch=1 n=c6 v=78
18600 On ch=1 n=d#6 v=78
18720 On ch=1 n=d#6 v=0
18720 On ch=1 n=c6 v=0
18720 On ch=1 n=g#5 v=78
18720 On ch=1 n=c6 v=78
18720 On ch=1 n=f6 v=78
19080 On ch=1 n=f6 v=0
19080 On ch=1 n=c6 v=0
19080 On ch=1 n=g#5 v=0
19080 On ch=1 n=g#5 v=78
19080 On ch=1 n=c6 v=78
19200 On ch=1 n=c6 v=0
19200 On ch=1 n=g#5 v=0
19200 On ch=1 n=g#5 v=78
19200 On ch=1 n=c6 v=78
19320 On ch=1 n=c6 v=0
19320 On ch=1 n=g#5 v=0
19320 On ch=1 n=d#6 v=78
19440 On ch=1 n=d#6 v=0
19440 On ch=1 n=g#5 v=78
19440 On ch=1 n=c6 v=78
19440 On ch=1 n=f6 v=78
19800 On ch=1 n=f6 v=0
19800 On ch=1 n=c6 v=0
19800 On ch=1 n=g#5 v=0
19800 On ch=1 n=g#5 v=78
19800 On ch=1 n=c6 v=78
19920 On ch=1 n=c6 v=0
19920 On ch=1 n=g#5 v=0
19920 On ch=1 n=g#5 v=78
19920 On ch=1 n=c6 v=78
20040 On ch=1 n=c6 v=0
20040 On ch=1 n=g#5 v=0
20040 On ch=1 n=d#6 v=78
20160 On ch=1 n=d#6 v=0
20160 On ch=1 n=g#5 v=78
20160 On ch=1 n=g#6 v=78
20280 On ch=1 n=g#6 v=0
20280 On ch=1 n=d#6 v=78
20400 On ch=1 n=d#6 v=0
20400 On ch=1 n=g#5 v=0
20400 On ch=1 n=g5 v=78
20400 On ch=1 n=c#6 v=78
20640 On ch=1 n=c#6 v=0
20640 On ch=1 n=g5 v=0
20640 On ch=1 n=c#5 v=78
20640 On ch=1 n=d#5 v=78
20640 On ch=1 n=a#5 v=78
20880 On ch=1 n=a#5 v=0
20880 On ch=1 n=d#5 v=0
20880 On ch=1 n=c#5 v=0
20880 On ch=1 n=c5 v=78
20880 On ch=1 n=d#5 v=78
20880 On ch=1 n=g#5 v=78
21120 On ch=1 n=g#5 v=0
21120 On ch=1 n=d#5 v=0
21120 On ch=1 n=c5 v=0
21240 On ch=1 n=d#5 v=78
21240 On ch=1 n=g#5 v=78
21240 On ch=1 n=c6 v=78
21360 On ch=1 n=c6 v=0
21360 On ch=1 n=g#5 v=0
21360 On ch=1 n=d#5 v=0
21360 On ch=1 n=d#5 v=78
21360 On ch=1 n=g#5 v=78
21360 On ch=1 n=c6 v=78
21480 On ch=1 n=c6 v=0
21480 On ch=1 n=g#5 v=0
21480 On ch=1 n=d#5 v=0
21480 On ch=1 n=d#6 v=78
21600 On ch=1 n=d#6 v=0
21600 On ch=1 n=d#5 v=78
21600 On ch=1 n=g5 v=78
21600 On ch=1 n=a#5 v=78
21600 On ch=1 n=c#6 v=78
21600 On ch=1 n=d#6 v=78
21960 On ch=1 n=d#6 v=0
21960 On ch=1 n=a#5 v=0
21960 On ch=1 n=d#5 v=0
21960 On ch=1 n=g5 v=0
21960 On ch=1 n=c#6 v=0
21960 On ch=1 n=d#5 v=78
21960 On ch=1 n=g5 v=78
21960 On ch=1 n=a#5 v=78
22080 On ch=1 n=a#5 v=0
22080 On ch=1 n=g5 v=0
22080 On ch=1 n=d#5 v=0
22080 On ch=1 n=d#5 v=78
22080 On ch=1 n=g5 v=78
22080 On ch=1 n=a#5 v=78
22200 On ch=1 n=a#5 v=0
22200 On ch=1 n=g5 v=0
22200 On ch=1 n=d#5 v=0
22200 On ch=1 n=c#6 v=78
22200 On ch=1 n=d#6 v=78
22320 On ch=1 n=d#6 v=0
22320 On ch=1 n=c#6 v=0
22320 On ch=1 n=d#5 v=78
22320 On ch=1 n=g#5 v=78
22320 On ch=1 n=c6 v=78
22320 On ch=1 n=d#6 v=78
22680 On ch=1 n=d#6 v=0
22680 On ch=1 n=d#5 v=0
22680 On ch=1 n=g#5 v=0
22680 On ch=1 n=c6 v=0
22680 On ch=1 n=g#5 v=78
22680 On ch=1 n=c6 v=78
22800 On ch=1 n=c6 v=0
22800 On ch=1 n=g#5 v=0
22800 On ch=1 n=g#5 v=78
22800 On ch=1 n=c6 v=78
22920 On ch=1 n=c6 v=0
22920 On ch=1 n=g#5 v=0
22920 On ch=1 n=d#6 v=78
23040 On ch=1 n=d#6 v=0
23040 On ch=1 n=g#5 v=78
23040 On ch=1 n=c6 v=78
23040 On ch=1 n=d#6 v=78
23040 On ch=1 n=f#6 v=78
23040 On ch=1 n=g#6 v=78
23400 On ch=1 n=g#6 v=0
23400 On ch=1 n=d#6 v=0
23400 On ch=1 n=g#5 v=0
23400 On ch=1 n=c6 v=0
23400 On ch=1 n=f#6 v=0
23400 On ch=1 n=g#5 v=78
23400 On ch=1 n=c6 v=78
23400 On ch=1 n=d#6 v=78
23520 On ch=1 n=d#6 v=0
23520 On ch=1 n=c6 v=0
23520 On ch=1 n=g#5 v=0
23520 On ch=1 n=g#5 v=78
23520 On ch=1 n=c6 v=78
23520 On ch=1 n=d#6 v=78
23640 On ch=1 n=d#6 v=0
23640 On ch=1 n=c6 v=0
23640 On ch=1 n=g#5 v=0
23640 On ch=1 n=f#6 v=78
23640 On ch=1 n=g#6 v=78
23760 On ch=1 n=g#6 v=0
23760 On ch=1 n=f#6 v=0
23760 On ch=1 n=g#5 v=78
23760 On ch=1 n=c#6 v=78
23760 On ch=1 n=f6 v=78
23760 On ch=1 n=g#6 v=78
24120 On ch=1 n=g#6 v=0
24120 On ch=1 n=g#5 v=0
24120 On ch=1 n=c#6 v=0
24120 On ch=1 n=f6 v=0
24120 On ch=1 n=g#5 v=78
24120 On ch=1 n=c#6 v=78
24120 On ch=1 n=f6 v=78
24240 On ch=1 n=f6 v=0
24240 On ch=1 n=c#6 v=0
24240 On ch=1 n=g#5 v=0
24240 On ch=1 n=g#5 v=78
24240 On ch=1 n=c#6 v=78
24240 On ch=1 n=f6 v=78
24360 On ch=1 n=f6 v=0
24360 On ch=1 n=c#6 v=0
24360 On ch=1 n=g#5 v=0
24360 On ch=1 n=g#6 v=78
24480 On ch=1 n=g#6 v=0
24480 On ch=1 n=g#5 v=78
24480 On ch=1 n=a#5 v=78
24480 On ch=1 n=d6 v=78
24480 On ch=1 n=f6 v=78
24480 On ch=1 n=a#6 v=78
24840 On ch=1 n=a#6 v=0
24840 On ch=1 n=d6 v=0
24840 On ch=1 n=g#5 v=0
24840 On ch=1 n=a#5 v=0
24840 On ch=1 n=f6 v=0
24840 On ch=1 n=a#5 v=78
24840 On ch=1 n=d6 v=78
24840 On ch=1 n=f6 v=78
24960 On ch=1 n=f6 v=0
24960 On ch=1 n=d6 v=0
24960 On ch=1 n=a#5 v=0
24960 On ch=1 n=a#5 v=78
24960 On ch=1 n=d6 v=78
24960 On ch=1 n=f6 v=78
25080 On ch=1 n=f6 v=0
25080 On ch=1 n=d6 v=0
25080 On ch=1 n=a#5 v=0
25080 On ch=1 n=g#6 v=78
25200 On ch=1 n=g#6 v=0
25200 On ch=1 n=a#5 v=78
25200 On ch=1 n=c#6 v=78
25200 On ch=1 n=g#6 v=78
25320 On ch=1 n=g#6 v=0
25320 On ch=1 n=g6 v=78
25440 On ch=1 n=g6 v=0
25440 On ch=1 n=c#6 v=0
25440 On ch=1 n=a#5 v=0
25440 On ch=1 n=g#5 v=78
25440 On ch=1 n=c#6 v=78
25440 On ch=1 n=f6 v=78
25680 On ch=1 n=f6 v=0
25680 On ch=1 n=c#6 v=0
25680 On ch=1 n=g#5 v=0
25680 On ch=1 n=g5 v=78
25680 On ch=1 n=c#6 v=78
25680 On ch=1 n=d#6 v=78
25920 On ch=1 n=d#6 v=0
25920 On ch=1 n=c#6 v=0
25920 On ch=1 n=g5 v=0
25920 On ch=1 n=d#6 v=78
25920 On ch=1 n=c7 v=78
26160 On ch=1 n=c7 v=0
26160 On ch=1 n=d#6 v=0
26239 On ch=1 n=c5 v=78
26239 On ch=1 n=g#5 v=78
26319 On ch=1 n=g#5 v=0
26319 On ch=1 n=c5 v=0
26319 On ch=1 n=d#5 v=78
26319 On ch=1 n=c6 v=78
26399 On ch=1 n=c6 v=0
26399 On ch=1 n=d#5 v=0
26400 On ch=1 n=c6 v=78
26400 On ch=1 n=g#6 v=78
26479 On ch=1 n=g#6 v=0
26479 On ch=1 n=c6 v=0
26479 On ch=1 n=d#6 v=78
26479 On ch=1 n=c7 v=78
26559 On ch=1 n=c7 v=0
26559 On ch=1 n=d#6 v=0
26559 On ch=1 n=c6 v=78
26559 On ch=1 n=g#6 v=78
26639 On ch=1 n=g#6 v=0
26639 On ch=1 n=c6 v=0
26640 On ch=1 n=d#6 v=78
26640 On ch=1 n=c7 v=78
26880 On ch=1 n=c7 v=0
26880 On ch=1 n=d#6 v=0
26959 On ch=1 n=c5 v=78
26959 On ch=1 n=g#5 v=78
27039 On ch=1 n=g#5 v=0
27039 On ch=1 n=c5 v=0
27039 On ch=1 n=d#5 v=78
27039 On ch=1 n=c6 v=78
27119 On ch=1 n=c6 v=0
27119 On ch=1 n=d#5 v=0
27120 On ch=1 n=c6 v=78
27120 On ch=1 n=g#6 v=78
27199 On ch=1 n=g#6 v=0
27199 On ch=1 n=c6 v=0
27199 On ch=1 n=d#6 v=78
27199 On ch=1 n=c7 v=78
27279 On ch=1 n=c7 v=0
27279 On ch=1 n=d#6 v=0
27279 On ch=1 n=c6 v=78
27279 On ch=1 n=g#6 v=78
27359 On ch=1 n=g#6 v=0
27359 On ch=1 n=c6 v=0
27360 On ch=1 n=f6 v=78
27360 On ch=1 n=g#6 v=78
27360 On ch=1 n=c#7 v=78
27540 On ch=1 n=c#7 v=0
27540 On ch=1 n=d#7 v=78
27570 On ch=1 n=d#7 v=0
27570 On ch=1 n=c#7 v=78
27600 On ch=1 n=c#7 v=0
27600 On ch=1 n=g#6 v=0
27600 On ch=1 n=f6 v=0
27600 On ch=1 n=d#6 v=78
27600 On ch=1 n=g#6 v=78
27600 On ch=1 n=c7 v=78
27840 On ch=1 n=c7 v=0
27840 On ch=1 n=g#6 v=0
27840 On ch=1 n=d#6 v=0
27840 On ch=1 n=c#6 v=78
27840 On ch=1 n=g#6 v=78
27840 On ch=1 n=a#6 v=78
28080 On ch=1 n=a#6 v=0
28080 On ch=1 n=g#6 v=0
28080 On ch=1 n=c#6 v=0
28080 On ch=1 n=d#6 v=78
28080 On ch=1 n=g#6 v=78
28080 On ch=1 n=c7 v=78
28320 On ch=1 n=c7 v=0
28320 On ch=1 n=g#6 v=0
28320 On ch=1 n=d#6 v=0
28399 On ch=1 n=c5 v=78
28399 On ch=1 n=g#5 v=78
28479 On ch=1 n=g#5 v=0
28479 On ch=1 n=c5 v=0
28479 On ch=1 n=d#5 v=78
28479 On ch=1 n=c6 v=78
28559 On ch=1 n=c6 v=0
28559 On ch=1 n=d#5 v=0
28560 On ch=1 n=c6 v=78
28560 On ch=1 n=g#6 v=78
28639 On ch=1 n=g#6 v=0
28639 On ch=1 n=c6 v=0
28639 On ch=1 n=d#6 v=78
28639 On ch=1 n=c7 v=78
28719 On ch=1 n=c7 v=0
28719 On ch=1 n=d#6 v=0
28719 On ch=1 n=f6 v=78
28719 On ch=1 n=c7 v=78
28800 On ch=1 n=g#6 v=78
28800 On ch=1 n=f7 v=78
29040 On ch=1 n=f7 v=0
29040 On ch=1 n=f6 v=0
29040 On ch=1 n=c7 v=0
29040 On ch=1 n=g#6 v=0
29119 On ch=1 n=c5 v=78
29119 On ch=1 n=g#5 v=78
29199 On ch=1 n=g#5 v=0
29199 On ch=1 n=c5 v=0
29199 On ch=1 n=d#5 v=78
29199 On ch=1 n=c6 v=78
29279 On ch=1 n=c6 v=0
29279 On ch=1 n=d#5 v=0
29280 On ch=1 n=c6 v=78
29280 On ch=1 n=g#6 v=78
29359 On ch=1 n=g#6 v=0
29359 On ch=1 n=c6 v=0
29359 On ch=1 n=d#6 v=78
29359 On ch=1 n=c7 v=78
29439 On ch=1 n=c7 v=0
29439 On ch=1 n=d#6 v=0
29439 On ch=1 n=f6 v=78
29439 On ch=1 n=c7 v=78
29520 On ch=1 n=g#6 v=78
29520 On ch=1 n=f7 v=78
29760 On ch=1 n=f7 v=0
29760 On ch=1 n=f6 v=0
29760 On ch=1 n=c7 v=0
29760 On ch=1 n=g#6 v=0
29839 On ch=1 n=c5 v=78
29839 On ch=1 n=g#5 v=78
29919 On ch=1 n=g#5 v=0
29919 On ch=1 n=c5 v=0
29919 On ch=1 n=d#5 v=78
29919 On ch=1 n=c6 v=78
29999 On ch=1 n=c6 v=0
29999 On ch=1 n=d#5 v=0
30000 On ch=1 n=c6 v=78
30000 On ch=1 n=g#6 v=78
30079 On ch=1 n=g#6 v=0
30079 On ch=1 n=c6 v=0
30079 On ch=1 n=d#6 v=78
30079 On ch=1 n=c7 v=78
30159 On ch=1 n=c7 v=0
30159 On ch=1 n=d#6 v=0
30159 On ch=1 n=g#6 v=78
30159 On ch=1 n=c7 v=78
30240 On ch=1 n=g#7 v=78
30360 On ch=1 n=g#7 v=0
30360 On ch=1 n=d#7 v=78
30480 On ch=1 n=d#7 v=0
30480 On ch=1 n=c7 v=0
30480 On ch=1 n=g#6 v=0
30480 On ch=1 n=c#6 v=78
30480 On ch=1 n=g6 v=78
30480 On ch=1 n=c#7 v=78
30720 On ch=1 n=c#7 v=0
30720 On ch=1 n=g6 v=0
30720 On ch=1 n=c#6 v=0
30720 On ch=1 n=a#5 v=78
30720 On ch=1 n=c#6 v=78
30720 On ch=1 n=a#6 v=78
30960 On ch=1 n=a#6 v=0
30960 On ch=1 n=c#6 v=0
30960 On ch=1 n=a#5 v=0
30960 On ch=1 n=g#5 v=78
30960 On ch=1 n=c6 v=78
30960 On ch=1 n=g#6 v=78
31200 On ch=1 n=g#6 v=0
31200 On ch=1 n=c6 v=0
31200 On ch=1 n=g#5 v=0
31448 Par ch=1 c=64 v=0
31448 Meta TrkEnd
TrkEnd
MTrk
0 Meta 0x21 00
0 Meta TrkName "Piano"
0 PrCh ch=2 p=0
0 Par ch=2 c=7 v=122
0 Par ch=2 c=10 v=52
0 Par ch=2 c=64 v=0
0 On ch=2 n=g#3 v=65
0 Par ch=2 c=64 v=127
240 On ch=2 n=g#3 v=0
240 On ch=2 n=d#4 v=65
240 On ch=2 n=g#4 v=65
240 On ch=2 n=c5 v=65
356 Par ch=2 c=64 v=0
365 Par ch=2 c=64 v=0
480 On ch=2 n=c5 v=0
480 On ch=2 n=g#4 v=0
480 On ch=2 n=d#4 v=0
480 On ch=2 n=c4 v=65
480 On ch=2 n=d#4 v=65
480 On ch=2 n=g#4 v=65
720 On ch=2 n=g#4 v=0
720 On ch=2 n=d#4 v=0
720 On ch=2 n=c4 v=0
720 On ch=2 n=g#2 v=65
731 Par ch=2 c=64 v=0
741 Par ch=2 c=64 v=127
960 On ch=2 n=g#2 v=0
960 On ch=2 n=d#4 v=65
960 On ch=2 n=g#4 v=65
960 On ch=2 n=c5 v=65
1106 Par ch=2 c=64 v=0
1116 Par ch=2 c=64 v=0
1200 On ch=2 n=c5 v=0
1200 On ch=2 n=g#4 v=0
1200 On ch=2 n=d#4 v=0
1200 On ch=2 n=c4 v=65
1200 On ch=2 n=d#4 v=65
1200 On ch=2 n=g#4 v=65
1440 On ch=2 n=g#4 v=0
1440 On ch=2 n=d#4 v=0
1440 On ch=2 n=c4 v=0
1440 On ch=2 n=g#3 v=65
1450 Par ch=2 c=64 v=127
1677 On ch=2 n=g#3 v=0
1677 On ch=2 n=c#4 v=65
1677 On ch=2 n=f4 v=65
1677 On ch=2 n=c#5 v=65
1917 On ch=2 n=c#5 v=0
1917 On ch=2 n=f4 v=0
1917 On ch=2 n=c#4 v=0
1917 On ch=2 n=f4 v=65
1917 On ch=2 n=g#4 v=65
1922 Par ch=2 c=64 v=0
2157 On ch=2 n=g#4 v=0
2157 On ch=2 n=f4 v=0
2157 On ch=2 n=g#2 v=65
2181 Par ch=2 c=64 v=127
2397 On ch=2 n=g#2 v=0
2397 On ch=2 n=d#4 v=65
2397 On ch=2 n=g#4 v=65
2397 On ch=2 n=c5 v=65
2518 Par ch=2 c=64 v=0
2527 Par ch=2 c=64 v=0
2637 On ch=2 n=c5 v=0
2637 On ch=2 n=g#4 v=0
2637 On ch=2 n=d#4 v=0
2637 On ch=2 n=c4 v=65
2637 On ch=2 n=d#4 v=65
2637 On ch=2 n=g#4 v=65
2877 On ch=2 n=g#4 v=0
2877 On ch=2 n=d#4 v=0
2877 On ch=2 n=c4 v=0
2877 On ch=2 n=f3 v=65
2901 Par ch=2 c=64 v=127
3117 On ch=2 n=f3 v=0
3117 On ch=2 n=f4 v=65
3117 On ch=2 n=g#4 v=65
3117 On ch=2 n=c5 v=65
3117 On ch=2 n=f5 v=65
3240 Par ch=2 c=64 v=0
3249 Par ch=2 c=64 v=0
3357 On ch=2 n=f5 v=0
3357 On ch=2 n=f4 v=0
3357 On ch=2 n=g#4 v=0
3357 On ch=2 n=c5 v=0
3357 On ch=2 n=g#3 v=65
3357 On ch=2 n=d#4 v=65
3597 On ch=2 n=d#4 v=0
3597 On ch=2 n=g#3 v=0
3597 On ch=2 n=f3 v=65
3621 Par ch=2 c=64 v=127
3837 On ch=2 n=f3 v=0
3837 On ch=2 n=f4 v=65
3837 On ch=2 n=g#4 v=65
3837 On ch=2 n=c5 v=65
3837 On ch=2 n=f5 v=65
3961 Par ch=2 c=64 v=0
4077 On ch=2 n=f5 v=0
4077 On ch=2 n=f4 v=0
4077 On ch=2 n=g#4 v=0
4077 On ch=2 n=c5 v=0
4077 On ch=2 n=g#3 v=65
4077 On ch=2 n=d#4 v=65
4317 On ch=2 n=d#4 v=0
4317 On ch=2 n=g#3 v=0
4317 On ch=2 n=d#3 v=65
4329 Par ch=2 c=64 v=127
4557 On ch=2 n=d#3 v=0
4557 On ch=2 n=d#4 v=65
4557 On ch=2 n=g4 v=65
4557 On ch=2 n=c5 v=65
4797 On ch=2 n=c5 v=0
4797 On ch=2 n=g4 v=0
4797 On ch=2 n=d#4 v=0
4797 On ch=2 n=g3 v=65
4797 On ch=2 n=f4 v=65
4797 On ch=2 n=b4 v=65
4799 Par ch=2 c=64 v=0
4808 Par ch=2 c=64 v=0
5037 On ch=2 n=b4 v=0
5037 On ch=2 n=f4 v=0
5037 On ch=2 n=g3 v=0
5037 On ch=2 n=c3 v=65
5049 Par ch=2 c=64 v=0
5058 Par ch=2 c=64 v=127
5277 On ch=2 n=c3 v=0
5277 On ch=2 n=d#4 v=65
5277 On ch=2 n=g4 v=65
5277 On ch=2 n=c5 v=65
5511 Par ch=2 c=64 v=0
5517 On ch=2 n=c5 v=0
5517 On ch=2 n=g4 v=0
5517 On ch=2 n=d#4 v=0
5517 On ch=2 n=c4 v=65
5517 On ch=2 n=d#4 v=65
5520 Par ch=2 c=64 v=0
5757 On ch=2 n=d#4 v=0
5757 On ch=2 n=c4 v=0
5757 On ch=2 n=g#3 v=65
5761 Par ch=2 c=64 v=127
5997 On ch=2 n=g#3 v=0
5997 On ch=2 n=d#4 v=65
5997 On ch=2 n=g#4 v=65
5997 On ch=2 n=c5 v=65
6098 Par ch=2 c=64 v=0
6107 Par ch=2 c=64 v=0
6237 On ch=2 n=c5 v=0
6237 On ch=2 n=g#4 v=0
6237 On ch=2 n=d#4 v=0
6237 On ch=2 n=c4 v=65
6237 On ch=2 n=d#4 v=65
6237 On ch=2 n=g#4 v=65
6477 On ch=2 n=g#4 v=0
6477 On ch=2 n=d#4 v=0
6477 On ch=2 n=c4 v=0
6477 On ch=2 n=g#2 v=65
6492 Par ch=2 c=64 v=127
6717 On ch=2 n=g#2 v=0
6717 On ch=2 n=d#4 v=65
6717 On ch=2 n=g#4 v=65
6717 On ch=2 n=c5 v=65
6877 Par ch=2 c=64 v=0
6957 On ch=2 n=c5 v=0
6957 On ch=2 n=g#4 v=0
6957 On ch=2 n=d#4 v=0
6957 On ch=2 n=c4 v=65
6957 On ch=2 n=d#4 v=65
6957 On ch=2 n=g#4 v=65
7185 Par ch=2 c=64 v=0
7195 Par ch=2 c=64 v=127
7197 On ch=2 n=g#4 v=0
7197 On ch=2 n=d#4 v=0
7197 On ch=2 n=c4 v=0
7197 On ch=2 n=g#3 v=65
7437 On ch=2 n=g#3 v=0
7437 On ch=2 n=c#4 v=65
7437 On ch=2 n=f4 v=65
7437 On ch=2 n=c#5 v=65
7666 Par ch=2 c=64 v=0
7676 Par ch=2 c=64 v=0
7677 On ch=2 n=c#5 v=0
7677 On ch=2 n=f4 v=0
7677 On ch=2 n=c#4 v=0
7677 On ch=2 n=f4 v=65
7677 On ch=2 n=g#4 v=65
7907 Par ch=2 c=64 v=0
7916 Par ch=2 c=64 v=127
7917 On ch=2 n=g#4 v=0
7917 On ch=2 n=f4 v=0
7917 On ch=2 n=g#2 v=65
8157 On ch=2 n=g#2 v=0
8157 On ch=2 n=d#4 v=65
8157 On ch=2 n=g#4 v=65
8157 On ch=2 n=c5 v=65
8263 Par ch=2 c=64 v=0
8272 Par ch=2 c=64 v=0
8397 On ch=2 n=c5 v=0
8397 On ch=2 n=g#4 v=0
8397 On ch=2 n=d#4 v=0
8397 On ch=2 n=c4 v=65
8397 On ch=2 n=d#4 v=65
8397 On ch=2 n=g#4 v=65
8637 On ch=2 n=g#4 v=0
8637 On ch=2 n=d#4 v=0
8637 On ch=2 n=c4 v=0
8637 On ch=2 n=f3 v=65
8638 Par ch=2 c=64 v=127
8877 On ch=2 n=f3 v=0
8877 On ch=2 n=f4 v=65
8877 On ch=2 n=g#4 v=65
8877 On ch=2 n=c5 v=65
8877 On ch=2 n=f5 v=65
8994 Par ch=2 c=64 v=0
9004 Par ch=2 c=64 v=0
9117 On ch=2 n=f5 v=0
9117 On ch=2 n=f4 v=0
9117 On ch=2 n=g#4 v=0
9117 On ch=2 n=c5 v=0
9117 On ch=2 n=g#3 v=65
9117 On ch=2 n=d#4 v=65
9357 On ch=2 n=d#4 v=0
9357 On ch=2 n=g#3 v=0
9357 On ch=2 n=f3 v=65
9367 Par ch=2 c=64 v=127
9594 On ch=2 n=f3 v=0
9594 On ch=2 n=f4 v=65
9594 On ch=2 n=g#4 v=65
9594 On ch=2 n=c5 v=65
9594 On ch=2 n=f5 v=65
9694 Par ch=2 c=64 v=0
9703 Par ch=2 c=64 v=0
9834 On ch=2 n=f5 v=0
9834 On ch=2 n=f4 v=0
9834 On ch=2 n=g#4 v=0
9834 On ch=2 n=c5 v=0
9834 On ch=2 n=g#3 v=65
9834 On ch=2 n=d#4 v=65
10069 Par ch=2 c=64 v=0
10074 On ch=2 n=d#4 v=0
10074 On ch=2 n=g#3 v=0
10074 On ch=2 n=d#3 v=65
10079 Par ch=2 c=64 v=127
10314 On ch=2 n=d#3 v=0
10314 On ch=2 n=d#4 v=65
10314 On ch=2 n=g4 v=65
10314 On ch=2 n=c5 v=65
10531 Par ch=2 c=64 v=0
10541 Par ch=2 c=64 v=0
10551 On ch=2 n=c5 v=0
10551 On ch=2 n=g4 v=0
10551 On ch=2 n=d#4 v=0
10551 On ch=2 n=g3 v=65
10551 On ch=2 n=f4 v=65
10551 On ch=2 n=b4 v=65
10791 On ch=2 n=b4 v=0
10791 On ch=2 n=f4 v=0
10791 On ch=2 n=g3 v=0
10791 On ch=2 n=c3 v=65
10817 Par ch=2 c=64 v=0
10826 Par ch=2 c=64 v=127
11031 On ch=2 n=c3 v=0
11031 On ch=2 n=d#4 v=65
11031 On ch=2 n=g4 v=65
11031 On ch=2 n=c5 v=65
11250 Par ch=2 c=64 v=0
11259 Par ch=2 c=64 v=0
11271 On ch=2 n=c5 v=0
11271 On ch=2 n=g4 v=0
11271 On ch=2 n=d#4 v=0
11271 On ch=2 n=c4 v=65
11271 On ch=2 n=d#4 v=65
11271 On ch=2 n=g4 v=65
11511 On ch=2 n=g4 v=0
11511 On ch=2 n=d#4 v=0
11511 On ch=2 n=c4 v=0
11511 On ch=2 n=d#3 v=65
11529 Par ch=2 c=64 v=0
11538 Par ch=2 c=64 v=127
11751 On ch=2 n=d#3 v=0
11751 On ch=2 n=d#4 v=65
11751 On ch=2 n=g4 v=65
11751 On ch=2 n=c#5 v=65
11991 On ch=2 n=c#5 v=0
11991 On ch=2 n=g4 v=0
11991 On ch=2 n=d#4 v=0
11991 On ch=2 n=d#4 v=65
11991 On ch=2 n=g4 v=65
12183 Par ch=2 c=64 v=0
12193 Par ch=2 c=64 v=0
12231 On ch=2 n=g4 v=0
12231 On ch=2 n=d#4 v=0
12231 On ch=2 n=g#3 v=65
12260 Par ch=2 c=64 v=127
12471 On ch=2 n=g#3 v=0
12471 On ch=2 n=d#4 v=65
12471 On ch=2 n=g#4 v=65
12471 On ch=2 n=c5 v=65
12711 On ch=2 n=c5 v=0
12711 On ch=2 n=g#4 v=0
12711 On ch=2 n=d#4 v=0
12711 On ch=2 n=d#4 v=65
12711 On ch=2 n=g#4 v=65
12876 Par ch=2 c=64 v=0
12951 On ch=2 n=g#4 v=0
12951 On ch=2 n=d#4 v=0
12951 On ch=2 n=g#2 v=65
12953 Par ch=2 c=64 v=0
12963 Par ch=2 c=64 v=127
13191 On ch=2 n=g#2 v=0
13191 On ch=2 n=g#4 v=65
13191 On ch=2 n=c5 v=65
13191 On ch=2 n=f#5 v=65
13431 On ch=2 n=f#5 v=0
13431 On ch=2 n=c5 v=0
13431 On ch=2 n=g#4 v=0
13431 On ch=2 n=g#4 v=65
13431 On ch=2 n=c5 v=65
13598 Par ch=2 c=64 v=0
13607 Par ch=2 c=64 v=0
13671 On ch=2 n=c5 v=0
13671 On ch=2 n=g#4 v=0
13671 On ch=2 n=c#3 v=65
13681 Par ch=2 c=64 v=0
13691 Par ch=2 c=64 v=127
13908 On ch=2 n=c#3 v=0
13908 On ch=2 n=g#4 v=65
13908 On ch=2 n=c#5 v=65
13908 On ch=2 n=f5 v=65
14148 On ch=2 n=f5 v=0
14148 On ch=2 n=c#5 v=0
14148 On ch=2 n=g#4 v=0
14148 On ch=2 n=g#4 v=65
14148 On ch=2 n=c#5 v=65
14288 Par ch=2 c=64 v=0
14297 Par ch=2 c=64 v=0
14374 Par ch=2 c=64 v=0
14384 Par ch=2 c=64 v=127
14388 On ch=2 n=c#5 v=0
14388 On ch=2 n=g#4 v=0
14388 On ch=2 n=a#2 v=65
14388 On ch=2 n=a#3 v=65
14628 On ch=2 n=a#3 v=0
14628 On ch=2 n=a#2 v=0
14628 On ch=2 n=g#4 v=65
14628 On ch=2 n=a#4 v=65
14628 On ch=2 n=d5 v=65
14628 On ch=2 n=f5 v=65
14868 On ch=2 n=f5 v=0
14868 On ch=2 n=g#4 v=0
14868 On ch=2 n=a#4 v=0
14868 On ch=2 n=d5 v=0
14868 On ch=2 n=f4 v=65
14868 On ch=2 n=a#4 v=65
14868 On ch=2 n=d5 v=65
15108 On ch=2 n=d5 v=0
15108 On ch=2 n=a#4 v=0
15108 On ch=2 n=f4 v=0
15108 On ch=2 n=d#3 v=65
15202 Par ch=2 c=64 v=0
15211 Par ch=2 c=64 v=0
15279 Par ch=2 c=64 v=127
15348 On ch=2 n=d#3 v=0
15348 On ch=2 n=d#4 v=65
15348 On ch=2 n=a#4 v=65
15348 On ch=2 n=c#5 v=65
15588 On ch=2 n=c#5 v=0
15588 On ch=2 n=a#4 v=0
15588 On ch=2 n=d#4 v=0
15588 On ch=2 n=d#4 v=65
15588 On ch=2 n=a#4 v=65
15588 On ch=2 n=d#5 v=65
15616 Par ch=2 c=64 v=0
15625 Par ch=2 c=64 v=0
15828 On ch=2 n=d#5 v=0
15828 On ch=2 n=a#4 v=0
15828 On ch=2 n=d#4 v=0
15828 On ch=2 n=g#3 v=65
15837 Par ch=2 c=64 v=0
15846 Par ch=2 c=64 v=127
16068 On ch=2 n=g#3 v=0
16068 On ch=2 n=d#4 v=65
16068 On ch=2 n=g#4 v=65
16068 On ch=2 n=c5 v=65
16193 Par ch=2 c=64 v=0
16203 Par ch=2 c=64 v=0
16308 On ch=2 n=c5 v=0
16308 On ch=2 n=g#4 v=0
16308 On ch=2 n=d#4 v=0
16308 On ch=2 n=c4 v=65
16308 On ch=2 n=d#4 v=65
16308 On ch=2 n=g#4 v=65
16548 On ch=2 n=g#4 v=0
16548 On ch=2 n=d#4 v=0
16548 On ch=2 n=c4 v=0
16548 On ch=2 n=g#2 v=65
16560 Par ch=2 c=64 v=127
16788 On ch=2 n=g#2 v=0
16788 On ch=2 n=d#4 v=65
16788 On ch=2 n=g#4 v=65
16788 On ch=2 n=c5 v=65
16905 Par ch=2 c=64 v=0
16915 Par ch=2 c=64 v=0
17028 On ch=2 n=c5 v=0
17028 On ch=2 n=g#4 v=0
17028 On ch=2 n=d#4 v=0
17028 On ch=2 n=c4 v=65
17028 On ch=2 n=d#4 v=65
17028 On ch=2 n=g#4 v=65
17268 On ch=2 n=g#4 v=0
17268 On ch=2 n=d#4 v=0
17268 On ch=2 n=c4 v=0
17268 On ch=2 n=g#3 v=65
17280 Par ch=2 c=64 v=127
17508 On ch=2 n=g#3 v=0
17508 On ch=2 n=c#4 v=65
17508 On ch=2 n=f4 v=65
17508 On ch=2 n=c#5 v=65
17694 Par ch=2 c=64 v=0
17748 On ch=2 n=c#5 v=0
17748 On ch=2 n=f4 v=0
17748 On ch=2 n=c#4 v=0
17748 On ch=2 n=f4 v=65
17748 On ch=2 n=g#4 v=65
17973 Par ch=2 c=64 v=0
17988 On ch=2 n=g#4 v=0
17988 On ch=2 n=f4 v=0
17988 On ch=2 n=g#2 v=65
18012 Par ch=2 c=64 v=127
18228 On ch=2 n=g#2 v=0
18228 On ch=2 n=d#4 v=65
18228 On ch=2 n=g#4 v=65
18228 On ch=2 n=c5 v=65
18339 Par ch=2 c=64 v=0
18348 Par ch=2 c=64 v=0
18468 On ch=2 n=c5 v=0
18468 On ch=2 n=g#4 v=0
18468 On ch=2 n=d#4 v=0
18468 On ch=2 n=c4 v=65
18468 On ch=2 n=d#4 v=65
18468 On ch=2 n=g#4 v=65
18708 On ch=2 n=g#4 v=0
18708 On ch=2 n=d#4 v=0
18708 On ch=2 n=c4 v=0
18708 On ch=2 n=f3 v=65
18724 Par ch=2 c=64 v=127
18948 On ch=2 n=f3 v=0
18948 On ch=2 n=f4 v=65
18948 On ch=2 n=g#4 v=65
18948 On ch=2 n=c5 v=65
18948 On ch=2 n=f5 v=65
19061 Par ch=2 c=64 v=0
19070 Par ch=2 c=64 v=0
19188 On ch=2 n=f5 v=0
19188 On ch=2 n=f4 v=0
19188 On ch=2 n=g#4 v=0
19188 On ch=2 n=c5 v=0
19188 On ch=2 n=g#3 v=65
19188 On ch=2 n=d#4 v=65
19428 On ch=2 n=d#4 v=0
19428 On ch=2 n=g#3 v=0
19428 On ch=2 n=f3 v=65
19440 Par ch=2 c=64 v=127
19668 On ch=2 n=f3 v=0
19668 On ch=2 n=f4 v=65
19668 On ch=2 n=g#4 v=65
19668 On ch=2 n=c5 v=65
19668 On ch=2 n=f5 v=65
19763 Par ch=2 c=64 v=0
19773 Par ch=2 c=64 v=0
19908 On ch=2 n=f5 v=0
19908 On ch=2 n=f4 v=0
19908 On ch=2 n=g#4 v=0
19908 On ch=2 n=c5 v=0
19908 On ch=2 n=g#3 v=65
19908 On ch=2 n=d#4 v=65
20148 On ch=2 n=d#4 v=0
20148 On ch=2 n=g#3 v=0
20148 On ch=2 n=c3 v=65
20158 Par ch=2 c=64 v=0
20167 Par ch=2 c=64 v=127
20379 Par ch=2 c=64 v=0
20388 On ch=2 n=c3 v=0
20388 Par ch=2 c=64 v=0
20388 On ch=2 n=d#3 v=65
20628 On ch=2 n=d#3 v=0
20628 On ch=2 n=d#4 v=65
20628 On ch=2 n=g4 v=65
20850 Par ch=2 c=64 v=0
20868 On ch=2 n=g4 v=0
20868 On ch=2 n=d#4 v=0
20868 On ch=2 n=g#3 v=65
20880 Par ch=2 c=64 v=127
21108 On ch=2 n=g#3 v=0
21108 On ch=2 n=d#4 v=65
21108 On ch=2 n=g#4 v=65
21348 On ch=2 n=g#4 v=0
21348 On ch=2 n=d#4 v=0
21348 On ch=2 n=d#4 v=65
21348 On ch=2 n=g#4 v=65
21348 On ch=2 n=c5 v=65
21514 Par ch=2 c=64 v=0
21524 Par ch=2 c=64 v=0
21588 On ch=2 n=c5 v=0
21588 On ch=2 n=g#4 v=0
21588 On ch=2 n=d#4 v=0
21588 On ch=2 n=d#3 v=65
21598 Par ch=2 c=64 v=127
21825 On ch=2 n=d#3 v=0
21825 On ch=2 n=d#4 v=65
21825 On ch=2 n=g4 v=65
21825 On ch=2 n=c#5 v=65
22065 On ch=2 n=c#5 v=0
22065 On ch=2 n=g4 v=0
22065 On ch=2 n=d#4 v=0
22065 On ch=2 n=d#4 v=65
22065 On ch=2 n=g4 v=65
22137 Par ch=2 c=64 v=0
22243 Par ch=2 c=64 v=0
22305 On ch=2 n=g4 v=0
22305 On ch=2 n=d#4 v=0
22305 On ch=2 n=g#3 v=65
22320 Par ch=2 c=64 v=127
22545 On ch=2 n=g#3 v=0
22545 On ch=2 n=d#4 v=65
22545 On ch=2 n=g#4 v=65
22545 On ch=2 n=c5 v=65
22785 On ch=2 n=c5 v=0
22785 On ch=2 n=g#4 v=0
22785 On ch=2 n=d#4 v=0
22785 On ch=2 n=d#4 v=65
22785 On ch=2 n=g#4 v=65
22811 Par ch=2 c=64 v=0
22820 Par ch=2 c=64 v=0
23025 On ch=2 n=g#4 v=0
23025 On ch=2 n=d#4 v=0
23025 On ch=2 n=g#2 v=65
23037 Par ch=2 c=64 v=127
23265 On ch=2 n=g#2 v=0
23265 On ch=2 n=g#4 v=65
23265 On ch=2 n=c5 v=65
23265 On ch=2 n=f#5 v=65
23494 Par ch=2 c=64 v=0
23505 On ch=2 n=f#5 v=0
23505 On ch=2 n=c5 v=0
23505 On ch=2 n=g#4 v=0
23505 On ch=2 n=g#4 v=65
23505 On ch=2 n=c5 v=65
23542 Par ch=2 c=64 v=0
23745 On ch=2 n=c5 v=0
23745 On ch=2 n=g#4 v=0
23745 On ch=2 n=c#3 v=65
23757 Par ch=2 c=64 v=127
23985 On ch=2 n=c#3 v=0
23985 On ch=2 n=g#4 v=65
23985 On ch=2 n=c#5 v=65
23985 On ch=2 n=f5 v=65
24225 On ch=2 n=f5 v=0
24225 On ch=2 n=c#5 v=0
24225 On ch=2 n=g#4 v=0
24225 On ch=2 n=g#4 v=65
24225 On ch=2 n=c#5 v=65
24244 Par ch=2 c=64 v=0
24254 Par ch=2 c=64 v=0
24465 On ch=2 n=c#5 v=0
24465 On ch=2 n=g#4 v=0
24465 On ch=2 n=a#2 v=65
24465 On ch=2 n=a#3 v=65
24477 Par ch=2 c=64 v=127
24705 On ch=2 n=a#3 v=0
24705 On ch=2 n=a#2 v=0
24705 On ch=2 n=g#4 v=65
24705 On ch=2 n=a#4 v=65
24705 On ch=2 n=d5 v=65
24705 On ch=2 n=f5 v=65
24945 On ch=2 n=f5 v=0
24945 On ch=2 n=g#4 v=0
24945 On ch=2 n=a#4 v=0
24945 On ch=2 n=d5 v=0
24945 On ch=2 n=f4 v=65
24945 On ch=2 n=a#4 v=65
24945 On ch=2 n=d5 v=65
25185 On ch=2 n=d5 v=0
25185 On ch=2 n=a#4 v=0
25185 On ch=2 n=f4 v=0
25185 On ch=2 n=d#3 v=65
25187 Par ch=2 c=64 v=0
25197 Par ch=2 c=64 v=0
25255 Par ch=2 c=64 v=0
25264 Par ch=2 c=64 v=127
25425 On ch=2 n=d#3 v=0
25425 On ch=2 n=d#4 v=65
25425 On ch=2 n=a#4 v=65
25425 On ch=2 n=c#5 v=65
25665 On ch=2 n=c#5 v=0
25665 On ch=2 n=a#4 v=0
25665 On ch=2 n=d#4 v=0
25665 On ch=2 n=d#4 v=65
25665 On ch=2 n=a#4 v=65
25665 On ch=2 n=d#5 v=65
25669 Par ch=2 c=64 v=0
25688 Par ch=2 c=64 v=0
25880 Par ch=2 c=64 v=0
25905 On ch=2 n=d#5 v=0
25905 On ch=2 n=a#4 v=0
25905 On ch=2 n=d#4 v=0
25905 On ch=2 n=g#2 v=65
25917 Par ch=2 c=64 v=127
26145 On ch=2 n=g#2 v=0
26145 On ch=2 n=d#4 v=65
26145 On ch=2 n=g#4 v=65
26145 On ch=2 n=c5 v=65
26385 On ch=2 n=c5 v=0
26385 On ch=2 n=g#4 v=0
26385 On ch=2 n=d#4 v=0
26385 On ch=2 n=c4 v=65
26385 On ch=2 n=d#4 v=65
26385 On ch=2 n=g#4 v=65
26625 On ch=2 n=g#4 v=0
26625 On ch=2 n=d#4 v=0
26625 On ch=2 n=c4 v=0
26625 On ch=2 n=g#2 v=65
26865 On ch=2 n=g#2 v=0
26865 On ch=2 n=d#4 v=65
26865 On ch=2 n=g#4 v=65
26865 On ch=2 n=c5 v=65
27105 On ch=2 n=c5 v=0
27105 On ch=2 n=g#4 v=0
27105 On ch=2 n=d#4 v=0
27105 On ch=2 n=c4 v=65
27105 On ch=2 n=d#4 v=65
27105 On ch=2 n=g#4 v=65
27343 Par ch=2 c=64 v=0
27345 On ch=2 n=g#4 v=0
27345 On ch=2 n=d#4 v=0
27345 On ch=2 n=c4 v=0
27345 On ch=2 n=c#3 v=65
27353 Par ch=2 c=64 v=0
27410 Par ch=2 c=64 v=0
27420 Par ch=2 c=64 v=127
27585 On ch=2 n=c#3 v=0
27585 On ch=2 n=c#4 v=65
27585 On ch=2 n=g#4 v=65
27825 On ch=2 n=g#4 v=0
27825 On ch=2 n=c#4 v=0
27825 On ch=2 n=f4 v=65
27825 On ch=2 n=g#4 v=65
28065 On ch=2 n=g#4 v=0
28065 On ch=2 n=f4 v=0
28065 On ch=2 n=g#2 v=65
28132 Par ch=2 c=64 v=0
28190 Par ch=2 c=64 v=127
28305 On ch=2 n=g#2 v=0
28305 On ch=2 n=d#4 v=65
28305 On ch=2 n=g#4 v=65
28305 On ch=2 n=c5 v=65
28545 On ch=2 n=c5 v=0
28545 On ch=2 n=g#4 v=0
28545 On ch=2 n=d#4 v=0
28545 On ch=2 n=c4 v=65
28545 On ch=2 n=d#4 v=65
28545 On ch=2 n=g#4 v=65
28575 Par ch=2 c=64 v=0
28584 Par ch=2 c=64 v=0
28785 On ch=2 n=g#4 v=0
28785 On ch=2 n=d#4 v=0
28785 On ch=2 n=c4 v=0
28785 On ch=2 n=f3 v=65
28809 Par ch=2 c=64 v=127
29025 On ch=2 n=f3 v=0
29025 On ch=2 n=f4 v=65
29025 On ch=2 n=g#4 v=65
29025 On ch=2 n=c5 v=65
29239 Par ch=2 c=64 v=0
29248 Par ch=2 c=64 v=0
29265 On ch=2 n=c5 v=0
29265 On ch=2 n=g#4 v=0
29265 On ch=2 n=f4 v=0
29265 On ch=2 n=g#3 v=65
29265 On ch=2 n=d#4 v=65
29265 On ch=2 n=g#4 v=65
29489 Par ch=2 c=64 v=0
29505 On ch=2 n=g#4 v=0
29505 On ch=2 n=d#4 v=0
29505 On ch=2 n=g#3 v=0
29505 On ch=2 n=f3 v=65
29529 Par ch=2 c=64 v=127
29745 On ch=2 n=f3 v=0
29745 On ch=2 n=f4 v=65
29745 On ch=2 n=g#4 v=65
29745 On ch=2 n=c5 v=65
29951 Par ch=2 c=64 v=0
29970 Par ch=2 c=64 v=0
29985 On ch=2 n=c5 v=0
29985 On ch=2 n=g#4 v=0
29985 On ch=2 n=f4 v=0
29985 On ch=2 n=g#3 v=65
29985 On ch=2 n=d#4 v=65
29985 On ch=2 n=g#4 v=65
30225 On ch=2 n=g#4 v=0
30225 On ch=2 n=d#4 v=0
30225 On ch=2 n=g#3 v=0
30225 On ch=2 n=c3 v=65
30249 Par ch=2 c=64 v=127
30461 Par ch=2 c=64 v=0
30465 On ch=2 n=c3 v=0
30465 On ch=2 n=d#3 v=65
30489 Par ch=2 c=64 v=127
30705 On ch=2 n=d#3 v=0
30705 On ch=2 n=d#4 v=65
30705 On ch=2 n=g4 v=65
30705 On ch=2 n=c#5 v=65
30945 On ch=2 n=c#5 v=0
30945 On ch=2 n=g4 v=0
30945 On ch=2 n=d#4 v=0
30945 On ch=2 n=g#2 v=65
31000 Par ch=2 c=64 v=0
31009 Par ch=2 c=64 v=0
31067 Par ch=2 c=64 v=0
31077 Par ch=2 c=64 v=127
31185 On ch=2 n=g#2 v=0
31185 On ch=2 n=d#4 v=65
31185 On ch=2 n=g#4 v=65
31185 On ch=2 n=c5 v=65
31425 On ch=2 n=c5 v=0
31425 On ch=2 n=g#4 v=0
31425 On ch=2 n=d#4 v=0
31442 Par ch=2 c=64 v=0
31442 Meta TrkEnd
TrkEnd
