MFile 1 3 240
MTrk
0 TimeSig 3/4 24 8
0 KeySig 0 major
0 Tempo 333333
0 Meta TrkEnd
TrkEnd
MTrk
0 Meta 0x21 00
0 Meta TrkName "Piano"
0 PrCh ch=1 p=0
0 Par ch=1 c=7 v=127
0 Par ch=1 c=10 v=72
0 On ch=1 n=g#7 v=70
84 On ch=1 n=g#7 v=0
120 On ch=1 n=f6 v=70
204 On ch=1 n=f6 v=0
240 On ch=1 n=g#6 v=70
324 On ch=1 n=g#6 v=0
360 On ch=1 n=f7 v=70
444 On ch=1 n=f7 v=0
480 On ch=1 n=c#7 v=70
564 On ch=1 n=c#7 v=0
600 On ch=1 n=g#5 v=70
684 On ch=1 n=g#5 v=0
720 On ch=1 n=c#6 v=70
804 On ch=1 n=c#6 v=0
840 On ch=1 n=g#6 v=70
924 On ch=1 n=g#6 v=0
960 On ch=1 n=a#6 v=70
1044 On ch=1 n=a#6 v=0
1080 On ch=1 n=f#5 v=70
1164 On ch=1 n=f#5 v=0
1200 On ch=1 n=a#5 v=70
1284 On ch=1 n=a#5 v=0
1320 On ch=1 n=f#6 v=70
1404 On ch=1 n=f#6 v=0
1440 On ch=1 n=d#6 v=70
1560 On ch=1 n=c6 v=70
1608 On ch=1 n=d#6 v=0
1644 On ch=1 n=c6 v=0
1680 On ch=1 n=g#6 v=70
1680 On ch=1 n=g#5 v=70
1764 On ch=1 n=g#5 v=0
1800 On ch=1 n=a#5 v=70
1848 On ch=1 n=g#6 v=0
1884 On ch=1 n=a#5 v=0
1920 On ch=1 n=c6 v=70
1920 On ch=1 n=f#6 v=70
2004 On ch=1 n=c6 v=0
2040 On ch=1 n=d#6 v=70
2088 On ch=1 n=f#6 v=0
2124 On ch=1 n=d#6 v=0
2160 On ch=1 n=f6 v=70
2160 On ch=1 n=c#6 v=70
2244 On ch=1 n=c#6 v=0
2280 On ch=1 n=d#6 v=70
2364 On ch=1 n=d#6 v=0
2400 On ch=1 n=b6 v=70
2400 On ch=1 n=f6 v=70
2401 On ch=1 n=f6 v=0
2412 On ch=1 n=f6 v=0
2520 On ch=1 n=g#6 v=70
2568 On ch=1 n=b6 v=0
2604 On ch=1 n=g#6 v=0
2640 On ch=1 n=f#6 v=70
2640 On ch=1 n=a#6 v=70
2724 On ch=1 n=f#6 v=0
2760 On ch=1 n=c#6 v=70
2808 On ch=1 n=a#6 v=0
2844 On ch=1 n=c#6 v=0
2880 On ch=1 n=g#7 v=70
2964 On ch=1 n=g#7 v=0
3000 On ch=1 n=f6 v=70
3084 On ch=1 n=f6 v=0
3120 On ch=1 n=g#6 v=70
3204 On ch=1 n=g#6 v=0
3240 On ch=1 n=f7 v=70
3324 On ch=1 n=f7 v=0
3360 On ch=1 n=c#7 v=70
3444 On ch=1 n=c#7 v=0
3480 On ch=1 n=g#5 v=70
3564 On ch=1 n=g#5 v=0
3600 On ch=1 n=c#6 v=70
3684 On ch=1 n=c#6 v=0
3720 On ch=1 n=g#6 v=70
3804 On ch=1 n=g#6 v=0
3840 On ch=1 n=a#6 v=70
3924 On ch=1 n=a#6 v=0
3960 On ch=1 n=f5 v=70
4044 On ch=1 n=f5 v=0
4080 On ch=1 n=g#5 v=70
4164 On ch=1 n=g#5 v=0
4200 On ch=1 n=f6 v=70
4284 On ch=1 n=f6 v=0
4320 On ch=1 n=f#6 v=70
4440 On ch=1 n=a#5 v=70
4488 On ch=1 n=f#6 v=0
4524 On ch=1 n=a#5 v=0
4560 On ch=1 n=d#7 v=70
4560 On ch=1 n=d#6 v=70
4644 On ch=1 n=d#6 v=0
4680 On ch=1 n=f6 v=70
4728 On ch=1 n=d#7 v=0
4764 On ch=1 n=f6 v=0
4800 On ch=1 n=f#6 v=70
4800 On ch=1 n=c7 v=70
4884 On ch=1 n=f#6 v=0
4920 On ch=1 n=d#6 v=70
4968 On ch=1 n=c7 v=0
5004 On ch=1 n=d#6 v=0
5040 On ch=1 n=a#6 v=70
5124 On ch=1 n=a#6 v=0
5160 On ch=1 n=c#6 v=70
5244 On ch=1 n=c#6 v=0
5280 On ch=1 n=a#5 v=70
5364 On ch=1 n=a#5 v=0
5400 On ch=1 n=c#5 v=70
5484 On ch=1 n=c#5 v=0
5520 On ch=1 n=a#4 v=70
5604 On ch=1 n=a#4 v=0
5640 On ch=1 n=c#4 v=70
5724 On ch=1 n=c#4 v=0
5760 On ch=1 n=g#7 v=70
5844 On ch=1 n=g#7 v=0
5880 On ch=1 n=f6 v=70
5964 On ch=1 n=f6 v=0
6000 On ch=1 n=g#6 v=70
6084 On ch=1 n=g#6 v=0
6120 On ch=1 n=f7 v=70
6204 On ch=1 n=f7 v=0
6240 On ch=1 n=c#7 v=70
6324 On ch=1 n=c#7 v=0
6360 On ch=1 n=g#5 v=70
6444 On ch=1 n=g#5 v=0
6480 On ch=1 n=c#6 v=70
6564 On ch=1 n=c#6 v=0
6600 On ch=1 n=g#6 v=70
6684 On ch=1 n=g#6 v=0
6720 On ch=1 n=a#6 v=70
6804 On ch=1 n=a#6 v=0
6840 On ch=1 n=f#5 v=70
6924 On ch=1 n=f#5 v=0
6960 On ch=1 n=a#5 v=70
7044 On ch=1 n=a#5 v=0
7080 On ch=1 n=f#6 v=70
7164 On ch=1 n=f#6 v=0
7200 On ch=1 n=d#6 v=70
7320 On ch=1 n=c6 v=70
7368 On ch=1 n=d#6 v=0
7404 On ch=1 n=c6 v=0
7440 On ch=1 n=g#6 v=70
7440 On ch=1 n=g#5 v=70
7524 On ch=1 n=g#5 v=0
7560 On ch=1 n=a#5 v=70
7608 On ch=1 n=g#6 v=0
7644 On ch=1 n=a#5 v=0
7680 On ch=1 n=c6 v=70
7680 On ch=1 n=f#6 v=70
7764 On ch=1 n=c6 v=0
7800 On ch=1 n=d#6 v=70
7848 On ch=1 n=f#6 v=0
7884 On ch=1 n=d#6 v=0
7920 On ch=1 n=f6 v=70
7920 On ch=1 n=c#6 v=70
8004 On ch=1 n=c#6 v=0
8040 On ch=1 n=d#6 v=70
8124 On ch=1 n=d#6 v=0
8160 On ch=1 n=b6 v=70
8160 On ch=1 n=f6 v=70
8161 On ch=1 n=f6 v=0
8172 On ch=1 n=f6 v=0
8280 On ch=1 n=g#6 v=70
8328 On ch=1 n=b6 v=0
8364 On ch=1 n=g#6 v=0
8400 On ch=1 n=f#6 v=70
8400 On ch=1 n=a#6 v=70
8484 On ch=1 n=f#6 v=0
8520 On ch=1 n=c#6 v=70
8568 On ch=1 n=a#6 v=0
8604 On ch=1 n=c#6 v=0
8640 On ch=1 n=g#7 v=70
8724 On ch=1 n=g#7 v=0
8760 On ch=1 n=f6 v=70
8844 On ch=1 n=f6 v=0
8880 On ch=1 n=g#6 v=70
8964 On ch=1 n=g#6 v=0
9000 On ch=1 n=f7 v=70
9084 On ch=1 n=f7 v=0
9120 On ch=1 n=c#7 v=70
9204 On ch=1 n=c#7 v=0
9240 On ch=1 n=g#5 v=70
9324 On ch=1 n=g#5 v=0
9360 On ch=1 n=c#6 v=70
9444 On ch=1 n=c#6 v=0
9480 On ch=1 n=g#6 v=70
9564 On ch=1 n=g#6 v=0
9600 On ch=1 n=a#6 v=70
9684 On ch=1 n=a#6 v=0
9720 On ch=1 n=f5 v=70
9804 On ch=1 n=f5 v=0
9840 On ch=1 n=g#5 v=70
9924 On ch=1 n=g#5 v=0
9960 On ch=1 n=f6 v=70
10044 On ch=1 n=f6 v=0
10080 On ch=1 n=f#6 v=70
10200 On ch=1 n=a#5 v=70
10248 On ch=1 n=f#6 v=0
10284 On ch=1 n=a#5 v=0
10320 On ch=1 n=d#7 v=70
10320 On ch=1 n=d#6 v=70
10404 On ch=1 n=d#6 v=0
10440 On ch=1 n=f6 v=70
10488 On ch=1 n=d#7 v=0
10524 On ch=1 n=f6 v=0
10560 On ch=1 n=f#6 v=70
10560 On ch=1 n=c7 v=70
10644 On ch=1 n=f#6 v=0
10680 On ch=1 n=d#6 v=70
10728 On ch=1 n=c7 v=0
10764 On ch=1 n=d#6 v=0
10800 On ch=1 n=a#6 v=70
10884 On ch=1 n=a#6 v=0
10920 On ch=1 n=c#6 v=70
11004 On ch=1 n=c#6 v=0
11040 On ch=1 n=a#5 v=70
11124 On ch=1 n=a#5 v=0
11160 On ch=1 n=c#5 v=70
11244 On ch=1 n=c#5 v=0
11280 On ch=1 n=a#4 v=70
11364 On ch=1 n=a#4 v=0
11400 On ch=1 n=c#4 v=70
11484 On ch=1 n=c#4 v=0
11520 On ch=1 n=f4 v=70
11640 On ch=1 n=f4 v=0
11640 On ch=1 n=d4 v=70
11760 On ch=1 n=d4 v=0
11760 On ch=1 n=d4 v=70
11880 On ch=1 n=d4 v=0
11880 On ch=1 n=f4 v=70
12000 On ch=1 n=f4 v=0
12000 On ch=1 n=f4 v=70
12120 On ch=1 n=f4 v=0
12120 On ch=1 n=d4 v=70
12240 On ch=1 n=d4 v=0
12240 On ch=1 n=f#4 v=70
12360 On ch=1 n=f#4 v=0
12360 On ch=1 n=d#4 v=70
12480 On ch=1 n=d#4 v=0
12480 On ch=1 n=d#4 v=70
12600 On ch=1 n=d#4 v=0
12600 On ch=1 n=f#4 v=70
12720 On ch=1 n=f#4 v=0
12720 On ch=1 n=f#4 v=70
12840 On ch=1 n=f#4 v=0
12840 On ch=1 n=d#4 v=70
12960 On ch=1 n=d#4 v=0
12960 On ch=1 n=f#4 v=70
13080 On ch=1 n=f#4 v=0
13080 On ch=1 n=e4 v=70
13200 On ch=1 n=e4 v=0
13200 On ch=1 n=e4 v=70
13320 On ch=1 n=e4 v=0
13320 On ch=1 n=f#4 v=70
13440 On ch=1 n=f#4 v=0
13440 On ch=1 n=f#4 v=70
13560 On ch=1 n=f#4 v=0
13560 On ch=1 n=e4 v=70
13680 On ch=1 n=e4 v=0
13680 On ch=1 n=f#4 v=70
13800 On ch=1 n=f#4 v=0
13800 On ch=1 n=d#4 v=70
13920 On ch=1 n=d#4 v=0
13920 On ch=1 n=d#4 v=70
14040 On ch=1 n=d#4 v=0
14040 On ch=1 n=f#4 v=70
14160 On ch=1 n=f#4 v=0
14160 On ch=1 n=f#4 v=70
14280 On ch=1 n=f#4 v=0
14280 On ch=1 n=d#4 v=70
14400 On ch=1 n=d#4 v=0
14400 On ch=1 n=c5 v=70
14520 On ch=1 n=c5 v=0
14520 On ch=1 n=a4 v=70
14640 On ch=1 n=a4 v=0
14640 On ch=1 n=g#4 v=70
14760 On ch=1 n=g#4 v=0
14760 On ch=1 n=b4 v=70
14880 On ch=1 n=b4 v=0
14880 On ch=1 n=a4 v=70
15000 On ch=1 n=a4 v=0
15000 On ch=1 n=f#4 v=70
15120 On ch=1 n=f#4 v=0
15120 On ch=1 n=a4 v=70
15240 On ch=1 n=a4 v=0
15240 On ch=1 n=f#4 v=70
15360 On ch=1 n=f#4 v=0
15360 On ch=1 n=e4 v=70
15480 On ch=1 n=e4 v=0
15480 On ch=1 n=g#4 v=70
15600 On ch=1 n=g#4 v=0
15600 On ch=1 n=g#4 v=70
15720 On ch=1 n=g#4 v=0
15720 On ch=1 n=e4 v=70
15840 On ch=1 n=e4 v=0
15840 On ch=1 n=c5 v=70
15960 On ch=1 n=c5 v=0
15960 On ch=1 n=a4 v=70
16080 On ch=1 n=a4 v=0
16080 On ch=1 n=g#4 v=70
16200 On ch=1 n=g#4 v=0
16200 On ch=1 n=b4 v=70
16320 On ch=1 n=b4 v=0
16320 On ch=1 n=a4 v=70
16440 On ch=1 n=a4 v=0
16440 On ch=1 n=f#4 v=70
16560 On ch=1 n=f#4 v=0
16560 On ch=1 n=a4 v=70
16680 On ch=1 n=a4 v=0
16680 On ch=1 n=f#4 v=70
16800 On ch=1 n=f#4 v=0
16800 On ch=1 n=e4 v=70
16920 On ch=1 n=e4 v=0
16920 On ch=1 n=g#4 v=70
17040 On ch=1 n=g#4 v=0
17040 On ch=1 n=e5 v=70
17160 On ch=1 n=e5 v=0
17160 On ch=1 n=g#5 v=70
17280 On ch=1 n=g#5 v=0
17280 On ch=1 n=c#6 v=70
17400 On ch=1 n=c#6 v=0
17400 On ch=1 n=a5 v=70
17520 On ch=1 n=a5 v=0
17520 On ch=1 n=g#5 v=70
17640 On ch=1 n=g#5 v=0
17640 On ch=1 n=b5 v=70
17760 On ch=1 n=b5 v=0
17760 On ch=1 n=a5 v=70
17880 On ch=1 n=a5 v=0
17880 On ch=1 n=f#5 v=70
18000 On ch=1 n=f#5 v=0
18000 On ch=1 n=a5 v=70
18120 On ch=1 n=a5 v=0
18120 On ch=1 n=f#5 v=70
18240 On ch=1 n=f#5 v=0
18240 On ch=1 n=e5 v=70
18360 On ch=1 n=e5 v=0
18360 On ch=1 n=g#5 v=70
18480 On ch=1 n=g#5 v=0
18480 On ch=1 n=b5 v=70
18600 On ch=1 n=b5 v=0
18600 On ch=1 n=e6 v=70
18720 On ch=1 n=e6 v=0
18720 On ch=1 n=g#6 v=70
18840 On ch=1 n=g#6 v=0
18840 On ch=1 n=b6 v=70
18960 On ch=1 n=b6 v=0
18960 On ch=1 n=e7 v=70
19080 On ch=1 n=e7 v=0
19080 On ch=1 n=g#7 v=70
19200 On ch=1 n=g#7 v=0
19200 On ch=1 n=e7 v=70
19320 On ch=1 n=e7 v=0
19320 On ch=1 n=g#7 v=70
19440 On ch=1 n=g#7 v=0
19440 On ch=1 n=e7 v=70
19560 On ch=1 n=e7 v=0
19560 On ch=1 n=g#7 v=70
19680 On ch=1 n=g#7 v=0
19680 On ch=1 n=e7 v=70
19800 On ch=1 n=e7 v=0
19800 On ch=1 n=g#7 v=70
19920 On ch=1 n=g#7 v=0
19920 On ch=1 n=e7 v=70
20040 On ch=1 n=e7 v=0
20040 On ch=1 n=g#7 v=70
20120 On ch=1 n=g#7 v=0
20136 On ch=1 n=f7 v=74
20160 On ch=1 n=g#7 v=70
20166 On ch=1 n=f7 v=0
20244 On ch=1 n=g#7 v=0
20280 On ch=1 n=f6 v=70
20364 On ch=1 n=f6 v=0
20400 On ch=1 n=g#6 v=70
20484 On ch=1 n=g#6 v=0
20520 On ch=1 n=f7 v=70
20604 On ch=1 n=f7 v=0
20640 On ch=1 n=c#7 v=70
20724 On ch=1 n=c#7 v=0
20760 On ch=1 n=g#5 v=70
20844 On ch=1 n=g#5 v=0
20880 On ch=1 n=c#6 v=70
20964 On ch=1 n=c#6 v=0
21000 On ch=1 n=g#6 v=70
21084 On ch=1 n=g#6 v=0
21120 On ch=1 n=a#6 v=70
21204 On ch=1 n=a#6 v=0
21240 On ch=1 n=f#5 v=70
21324 On ch=1 n=f#5 v=0
21360 On ch=1 n=a#5 v=70
21444 On ch=1 n=a#5 v=0
21480 On ch=1 n=f#6 v=70
21564 On ch=1 n=f#6 v=0
21600 On ch=1 n=d#6 v=70
21720 On ch=1 n=c6 v=70
21768 On ch=1 n=d#6 v=0
21804 On ch=1 n=c6 v=0
21840 On ch=1 n=g#6 v=70
21840 On ch=1 n=g#5 v=70
21924 On ch=1 n=g#5 v=0
21960 On ch=1 n=a#5 v=70
22008 On ch=1 n=g#6 v=0
22044 On ch=1 n=a#5 v=0
22080 On ch=1 n=c6 v=70
22080 On ch=1 n=f#6 v=70
22164 On ch=1 n=c6 v=0
22200 On ch=1 n=d#6 v=70
22248 On ch=1 n=f#6 v=0
22284 On ch=1 n=d#6 v=0
22320 On ch=1 n=f6 v=70
22320 On ch=1 n=c#6 v=70
22404 On ch=1 n=c#6 v=0
22440 On ch=1 n=d#6 v=70
22524 On ch=1 n=d#6 v=0
22560 On ch=1 n=b6 v=70
22560 On ch=1 n=f6 v=70
22561 On ch=1 n=f6 v=0
22572 On ch=1 n=f6 v=0
22680 On ch=1 n=g#6 v=70
22728 On ch=1 n=b6 v=0
22764 On ch=1 n=g#6 v=0
22800 On ch=1 n=f#6 v=70
22800 On ch=1 n=a#6 v=70
22884 On ch=1 n=f#6 v=0
22920 On ch=1 n=c#6 v=70
22968 On ch=1 n=a#6 v=0
23004 On ch=1 n=c#6 v=0
23040 On ch=1 n=g#7 v=70
23124 On ch=1 n=g#7 v=0
23160 On ch=1 n=f6 v=70
23244 On ch=1 n=f6 v=0
23280 On ch=1 n=g#6 v=70
23364 On ch=1 n=g#6 v=0
23400 On ch=1 n=g#7 v=70
23484 On ch=1 n=g#7 v=0
23520 On ch=1 n=g7 v=70
23604 On ch=1 n=g7 v=0
23640 On ch=1 n=c#6 v=70
23724 On ch=1 n=c#6 v=0
23760 On ch=1 n=e6 v=70
23844 On ch=1 n=e6 v=0
23880 On ch=1 n=c#7 v=70
23964 On ch=1 n=c#7 v=0
24000 On ch=1 n=a6 v=70
24084 On ch=1 n=a6 v=0
24120 On ch=1 n=a5 v=70
24204 On ch=1 n=a5 v=0
24240 On ch=1 n=c#6 v=70
24324 On ch=1 n=c#6 v=0
24360 On ch=1 n=f#6 v=70
24444 On ch=1 n=f#6 v=0
24480 On ch=1 n=d#6 v=70
24600 On ch=1 n=c#6 v=70
24648 On ch=1 n=d#6 v=0
24684 On ch=1 n=c#6 v=0
24720 On ch=1 n=a6 v=70
24720 On ch=1 n=b5 v=70
24804 On ch=1 n=b5 v=0
24840 On ch=1 n=d#6 v=70
24888 On ch=1 n=a6 v=0
24924 On ch=1 n=d#6 v=0
24960 On ch=1 n=e6 v=70
24960 On ch=1 n=g#6 v=70
25044 On ch=1 n=e6 v=0
25080 On ch=1 n=b5 v=70
25128 On ch=1 n=g#6 v=0
25164 On ch=1 n=b5 v=0
25200 On ch=1 n=c6 v=70
25320 On ch=1 n=a#5 v=70
25368 On ch=1 n=c6 v=0
25404 On ch=1 n=a#5 v=0
25440 On ch=1 n=f#6 v=70
25440 On ch=1 n=g#5 v=70
25524 On ch=1 n=g#5 v=0
25560 On ch=1 n=c6 v=70
25608 On ch=1 n=f#6 v=0
25644 On ch=1 n=c6 v=0
25680 On ch=1 n=c#6 v=70
25680 On ch=1 n=f6 v=70
25764 On ch=1 n=c#6 v=0
25800 On ch=1 n=g#5 v=70
25848 On ch=1 n=f6 v=0
25884 On ch=1 n=g#5 v=0
25920 On ch=1 n=a#5 v=70
26040 On ch=1 n=g#5 v=70
26088 On ch=1 n=a#5 v=0
26124 On ch=1 n=g#5 v=0
26160 On ch=1 n=d#6 v=70
26160 On ch=1 n=f#5 v=70
26244 On ch=1 n=f#5 v=0
26280 On ch=1 n=a#5 v=70
26328 On ch=1 n=d#6 v=0
26364 On ch=1 n=a#5 v=0
26400 On ch=1 n=g#5 v=70
26400 On ch=1 n=c6 v=70
26484 On ch=1 n=g#5 v=0
26520 On ch=1 n=f#5 v=70
26568 On ch=1 n=c6 v=0
26604 On ch=1 n=f#5 v=0
26640 On ch=1 n=f5 v=70
26640 On ch=1 n=g#5 v=70
26640 On ch=1 n=c#6 v=70
26760 On ch=1 n=c#6 v=0
26760 On ch=1 n=g#5 v=0
26760 On ch=1 n=f5 v=0
26760 On ch=1 n=c#6 v=70
26880 On ch=1 n=c#6 v=0
26880 On ch=1 n=f6 v=70
27000 On ch=1 n=f6 v=0
27000 On ch=1 n=c#7 v=70
27120 On ch=1 n=c#7 v=0
27120 On ch=1 n=f#6 v=70
27120 On ch=1 n=a#6 v=70
27240 On ch=1 n=a#6 v=0
27240 On ch=1 n=f#6 v=0
27240 On ch=1 n=c#6 v=70
27360 On ch=1 n=c#6 v=0
27360 On ch=1 n=f5 v=70
27360 On ch=1 n=g#5 v=70
27360 On ch=1 n=c#6 v=70
27480 On ch=1 n=c#6 v=0
27480 On ch=1 n=g#5 v=0
27480 On ch=1 n=f5 v=0
27480 On ch=1 n=c#6 v=70
27600 On ch=1 n=c#6 v=0
27600 On ch=1 n=f6 v=70
27720 On ch=1 n=f6 v=0
27720 On ch=1 n=c#7 v=70
27840 On ch=1 n=c#7 v=0
27840 On ch=1 n=f#6 v=70
27840 On ch=1 n=a#6 v=70
27960 On ch=1 n=a#6 v=0
27960 On ch=1 n=f#6 v=0
27960 On ch=1 n=c#6 v=70
28080 On ch=1 n=c#6 v=0
28080 On ch=1 n=f5 v=70
28080 On ch=1 n=g#5 v=70
28080 On ch=1 n=c#6 v=70
28200 On ch=1 n=c#6 v=0
28200 On ch=1 n=g#5 v=0
28200 On ch=1 n=f5 v=0
28200 On ch=1 n=c#6 v=70
28320 On ch=1 n=c#6 v=0
28320 On ch=1 n=f6 v=70
28440 On ch=1 n=f6 v=0
28440 On ch=1 n=c#7 v=70
28560 On ch=1 n=c#7 v=0
28560 On ch=1 n=f#6 v=70
28560 On ch=1 n=a#6 v=70
28680 On ch=1 n=a#6 v=0
28680 On ch=1 n=f#6 v=0
28680 On ch=1 n=c#6 v=70
28800 On ch=1 n=c#6 v=0
28800 On ch=1 n=f5 v=70
28800 On ch=1 n=g#5 v=70
28800 On ch=1 n=c#6 v=70
28920 On ch=1 n=c#6 v=0
28920 On ch=1 n=g#5 v=0
28920 On ch=1 n=f5 v=0
28920 On ch=1 n=c#6 v=70
29040 On ch=1 n=c#6 v=0
29040 On ch=1 n=f6 v=70
29160 On ch=1 n=f6 v=0
29160 On ch=1 n=c#6 v=70
29280 On ch=1 n=c#6 v=0
29520 On ch=1 n=f6 v=70
29604 On ch=1 n=f6 v=0
29640 On ch=1 n=c#6 v=70
29724 On ch=1 n=c#6 v=0
30000 On ch=1 n=f4 v=70
30084 On ch=1 n=f4 v=0
30120 On ch=1 n=c#4 v=70
30204 On ch=1 n=c#4 v=0
30240 On ch=1 n=f4 v=70
30360 On ch=1 n=f4 v=0
30360 On ch=1 n=d4 v=70
30480 On ch=1 n=d4 v=0
30480 On ch=1 n=d4 v=70
30600 On ch=1 n=d4 v=0
30600 On ch=1 n=f4 v=70
30720 On ch=1 n=f4 v=0
30720 On ch=1 n=f4 v=70
30840 On ch=1 n=f4 v=0
30840 On ch=1 n=d4 v=70
30960 On ch=1 n=d4 v=0
30960 On ch=1 n=f#4 v=70
31080 On ch=1 n=f#4 v=0
31080 On ch=1 n=d#4 v=70
31200 On ch=1 n=d#4 v=0
31200 On ch=1 n=d#4 v=70
31320 On ch=1 n=d#4 v=0
31320 On ch=1 n=f#4 v=70
31440 On ch=1 n=f#4 v=0
31440 On ch=1 n=f#4 v=70
31560 On ch=1 n=f#4 v=0
31560 On ch=1 n=d#4 v=70
31680 On ch=1 n=d#4 v=0
31680 On ch=1 n=f#4 v=70
31800 On ch=1 n=f#4 v=0
31800 On ch=1 n=e4 v=70
31920 On ch=1 n=e4 v=0
31920 On ch=1 n=e4 v=70
32040 On ch=1 n=e4 v=0
32040 On ch=1 n=f#4 v=70
32160 On ch=1 n=f#4 v=0
32160 On ch=1 n=f#4 v=70
32280 On ch=1 n=f#4 v=0
32280 On ch=1 n=e4 v=70
32400 On ch=1 n=e4 v=0
32400 On ch=1 n=f#4 v=70
32520 On ch=1 n=f#4 v=0
32520 On ch=1 n=d#4 v=70
32640 On ch=1 n=d#4 v=0
32640 On ch=1 n=d#4 v=70
32760 On ch=1 n=d#4 v=0
32760 On ch=1 n=f#4 v=70
32880 On ch=1 n=f#4 v=0
32880 On ch=1 n=f#4 v=70
33000 On ch=1 n=f#4 v=0
33000 On ch=1 n=d#4 v=70
33120 On ch=1 n=d#4 v=0
33120 On ch=1 n=c5 v=70
33240 On ch=1 n=c5 v=0
33240 On ch=1 n=a4 v=70
33360 On ch=1 n=a4 v=0
33360 On ch=1 n=g#4 v=70
33480 On ch=1 n=g#4 v=0
33480 On ch=1 n=b4 v=70
33600 On ch=1 n=b4 v=0
33600 On ch=1 n=a4 v=70
33720 On ch=1 n=a4 v=0
33720 On ch=1 n=f#4 v=70
33840 On ch=1 n=f#4 v=0
33840 On ch=1 n=a4 v=70
33960 On ch=1 n=a4 v=0
33960 On ch=1 n=f#4 v=70
34080 On ch=1 n=f#4 v=0
34080 On ch=1 n=e4 v=70
34200 On ch=1 n=e4 v=0
34200 On ch=1 n=g#4 v=70
34320 On ch=1 n=g#4 v=0
34320 On ch=1 n=g#4 v=70
34440 On ch=1 n=g#4 v=0
34440 On ch=1 n=e4 v=70
34560 On ch=1 n=e4 v=0
34560 On ch=1 n=c5 v=70
34680 On ch=1 n=c5 v=0
34680 On ch=1 n=a4 v=70
34800 On ch=1 n=a4 v=0
34800 On ch=1 n=g#4 v=70
34920 On ch=1 n=g#4 v=0
34920 On ch=1 n=b4 v=70
35040 On ch=1 n=b4 v=0
35040 On ch=1 n=a4 v=70
35160 On ch=1 n=a4 v=0
35160 On ch=1 n=f#4 v=70
35280 On ch=1 n=f#4 v=0
35280 On ch=1 n=a4 v=70
35400 On ch=1 n=a4 v=0
35400 On ch=1 n=f#4 v=70
35520 On ch=1 n=f#4 v=0
35520 On ch=1 n=e4 v=70
35640 On ch=1 n=e4 v=0
35640 On ch=1 n=g#4 v=70
35760 On ch=1 n=g#4 v=0
35760 On ch=1 n=e5 v=70
35880 On ch=1 n=e5 v=0
35880 On ch=1 n=g#5 v=70
36000 On ch=1 n=g#5 v=0
36000 On ch=1 n=c#6 v=70
36120 On ch=1 n=c#6 v=0
36120 On ch=1 n=a5 v=70
36240 On ch=1 n=a5 v=0
36240 On ch=1 n=g#5 v=70
36360 On ch=1 n=g#5 v=0
36360 On ch=1 n=b5 v=70
36480 On ch=1 n=b5 v=0
36480 On ch=1 n=a5 v=70
36600 On ch=1 n=a5 v=0
36600 On ch=1 n=f#5 v=70
36720 On ch=1 n=f#5 v=0
36720 On ch=1 n=a5 v=70
36840 On ch=1 n=a5 v=0
36840 On ch=1 n=f#5 v=70
36960 On ch=1 n=f#5 v=0
36960 On ch=1 n=e5 v=70
37080 On ch=1 n=e5 v=0
37080 On ch=1 n=g#5 v=70
37200 On ch=1 n=g#5 v=0
37200 On ch=1 n=b5 v=70
37320 On ch=1 n=b5 v=0
37320 On ch=1 n=e6 v=70
37440 On ch=1 n=e6 v=0
37440 On ch=1 n=g#6 v=70
37560 On ch=1 n=g#6 v=0
37560 On ch=1 n=b6 v=70
37680 On ch=1 n=b6 v=0
37680 On ch=1 n=e7 v=70
37800 On ch=1 n=e7 v=0
37800 On ch=1 n=g#7 v=70
37920 On ch=1 n=g#7 v=0
37920 On ch=1 n=e7 v=70
38040 On ch=1 n=e7 v=0
38040 On ch=1 n=g#7 v=70
38160 On ch=1 n=g#7 v=0
38160 On ch=1 n=e7 v=70
38280 On ch=1 n=e7 v=0
38280 On ch=1 n=g#7 v=70
38400 On ch=1 n=g#7 v=0
38400 On ch=1 n=e7 v=70
38520 On ch=1 n=e7 v=0
38520 On ch=1 n=g#7 v=70
38640 On ch=1 n=g#7 v=0
38640 On ch=1 n=e7 v=70
38760 On ch=1 n=e7 v=0
38760 On ch=1 n=g#7 v=70
38840 On ch=1 n=g#7 v=0
38856 On ch=1 n=f7 v=74
38880 On ch=1 n=g#7 v=70
38886 On ch=1 n=f7 v=0
38964 On ch=1 n=g#7 v=0
39000 On ch=1 n=f6 v=70
39084 On ch=1 n=f6 v=0
39120 On ch=1 n=g#6 v=70
39204 On ch=1 n=g#6 v=0
39240 On ch=1 n=f7 v=70
39324 On ch=1 n=f7 v=0
39360 On ch=1 n=c#7 v=70
39444 On ch=1 n=c#7 v=0
39480 On ch=1 n=g#5 v=70
39564 On ch=1 n=g#5 v=0
39600 On ch=1 n=c#6 v=70
39684 On ch=1 n=c#6 v=0
39720 On ch=1 n=g#6 v=70
39804 On ch=1 n=g#6 v=0
39840 On ch=1 n=a#6 v=70
39924 On ch=1 n=a#6 v=0
39960 On ch=1 n=f#5 v=70
40044 On ch=1 n=f#5 v=0
40080 On ch=1 n=a#5 v=70
40164 On ch=1 n=a#5 v=0
40200 On ch=1 n=f#6 v=70
40284 On ch=1 n=f#6 v=0
40320 On ch=1 n=d#6 v=70
40440 On ch=1 n=c6 v=70
40488 On ch=1 n=d#6 v=0
40524 On ch=1 n=c6 v=0
40560 On ch=1 n=g#6 v=70
40560 On ch=1 n=g#5 v=70
40644 On ch=1 n=g#5 v=0
40680 On ch=1 n=a#5 v=70
40728 On ch=1 n=g#6 v=0
40764 On ch=1 n=a#5 v=0
40800 On ch=1 n=c6 v=70
40800 On ch=1 n=f#6 v=70
40884 On ch=1 n=c6 v=0
40920 On ch=1 n=d#6 v=70
40968 On ch=1 n=f#6 v=0
41004 On ch=1 n=d#6 v=0
41040 On ch=1 n=f6 v=70
41040 On ch=1 n=c#6 v=70
41124 On ch=1 n=c#6 v=0
41160 On ch=1 n=d#6 v=70
41244 On ch=1 n=d#6 v=0
41280 On ch=1 n=b6 v=70
41280 On ch=1 n=f6 v=70
41281 On ch=1 n=f6 v=0
41292 On ch=1 n=f6 v=0
41400 On ch=1 n=g#6 v=70
41448 On ch=1 n=b6 v=0
41484 On ch=1 n=g#6 v=0
41520 On ch=1 n=f#6 v=70
41520 On ch=1 n=a#6 v=70
41604 On ch=1 n=f#6 v=0
41640 On ch=1 n=c#6 v=70
41688 On ch=1 n=a#6 v=0
41724 On ch=1 n=c#6 v=0
41760 On ch=1 n=g#7 v=70
41844 On ch=1 n=g#7 v=0
41880 On ch=1 n=f6 v=70
41964 On ch=1 n=f6 v=0
42000 On ch=1 n=g#6 v=70
42084 On ch=1 n=g#6 v=0
42120 On ch=1 n=g#7 v=70
42204 On ch=1 n=g#7 v=0
42240 On ch=1 n=g7 v=70
42324 On ch=1 n=g7 v=0
42360 On ch=1 n=c#6 v=70
42444 On ch=1 n=c#6 v=0
42480 On ch=1 n=e6 v=70
42564 On ch=1 n=e6 v=0
42600 On ch=1 n=c#7 v=70
42684 On ch=1 n=c#7 v=0
42720 On ch=1 n=a6 v=70
42804 On ch=1 n=a6 v=0
42840 On ch=1 n=a5 v=70
42924 On ch=1 n=a5 v=0
42960 On ch=1 n=c#6 v=70
43044 On ch=1 n=c#6 v=0
43080 On ch=1 n=f#6 v=70
43164 On ch=1 n=f#6 v=0
43200 On ch=1 n=d#6 v=70
43320 On ch=1 n=c#6 v=70
43368 On ch=1 n=d#6 v=0
43404 On ch=1 n=c#6 v=0
43440 On ch=1 n=a6 v=70
43440 On ch=1 n=b5 v=70
43524 On ch=1 n=b5 v=0
43560 On ch=1 n=d#6 v=70
43608 On ch=1 n=a6 v=0
43644 On ch=1 n=d#6 v=0
43680 On ch=1 n=e6 v=70
43680 On ch=1 n=g#6 v=70
43764 On ch=1 n=e6 v=0
43800 On ch=1 n=b5 v=70
43848 On ch=1 n=g#6 v=0
43884 On ch=1 n=b5 v=0
43920 On ch=1 n=c6 v=70
44040 On ch=1 n=a#5 v=70
44088 On ch=1 n=c6 v=0
44124 On ch=1 n=a#5 v=0
44160 On ch=1 n=f#6 v=70
44160 On ch=1 n=g#5 v=70
44244 On ch=1 n=g#5 v=0
44280 On ch=1 n=c6 v=70
44328 On ch=1 n=f#6 v=0
44364 On ch=1 n=c6 v=0
44400 On ch=1 n=c#6 v=70
44400 On ch=1 n=f6 v=70
44484 On ch=1 n=c#6 v=0
44520 On ch=1 n=g#5 v=70
44568 On ch=1 n=f6 v=0
44604 On ch=1 n=g#5 v=0
44640 On ch=1 n=a#5 v=70
44760 On ch=1 n=g#5 v=70
44808 On ch=1 n=a#5 v=0
44844 On ch=1 n=g#5 v=0
44880 On ch=1 n=d#6 v=70
44880 On ch=1 n=f#5 v=70
44964 On ch=1 n=f#5 v=0
45000 On ch=1 n=a#5 v=70
45048 On ch=1 n=d#6 v=0
45084 On ch=1 n=a#5 v=0
45120 On ch=1 n=g#5 v=70
45120 On ch=1 n=c6 v=70
45204 On ch=1 n=g#5 v=0
45240 On ch=1 n=f#5 v=70
45288 On ch=1 n=c6 v=0
45324 On ch=1 n=f#5 v=0
45360 On ch=1 n=f5 v=70
45360 On ch=1 n=g#5 v=70
45360 On ch=1 n=c#6 v=70
45480 On ch=1 n=c#6 v=0
45480 On ch=1 n=g#5 v=0
45480 On ch=1 n=f5 v=0
45480 On ch=1 n=c#6 v=70
45600 On ch=1 n=c#6 v=0
45600 On ch=1 n=f6 v=70
45720 On ch=1 n=f6 v=0
45720 On ch=1 n=c#7 v=70
45840 On ch=1 n=c#7 v=0
45840 On ch=1 n=f#6 v=70
45840 On ch=1 n=a#6 v=70
45960 On ch=1 n=a#6 v=0
45960 On ch=1 n=f#6 v=0
45960 On ch=1 n=c#6 v=70
46080 On ch=1 n=c#6 v=0
46080 On ch=1 n=f5 v=70
46080 On ch=1 n=g#5 v=70
46080 On ch=1 n=c#6 v=70
46200 On ch=1 n=c#6 v=0
46200 On ch=1 n=g#5 v=0
46200 On ch=1 n=f5 v=0
46200 On ch=1 n=c#6 v=70
46320 On ch=1 n=c#6 v=0
46320 On ch=1 n=f6 v=70
46440 On ch=1 n=f6 v=0
46440 On ch=1 n=c#7 v=70
46560 On ch=1 n=c#7 v=0
46560 On ch=1 n=f#6 v=70
46560 On ch=1 n=a#6 v=70
46680 On ch=1 n=a#6 v=0
46680 On ch=1 n=f#6 v=0
46680 On ch=1 n=c#6 v=70
46800 On ch=1 n=c#6 v=0
46800 On ch=1 n=f5 v=70
46800 On ch=1 n=g#5 v=70
46800 On ch=1 n=c#6 v=70
46920 On ch=1 n=c#6 v=0
46920 On ch=1 n=g#5 v=0
46920 On ch=1 n=f5 v=0
46920 On ch=1 n=c#6 v=70
47040 On ch=1 n=c#6 v=0
47040 On ch=1 n=f6 v=70
47160 On ch=1 n=f6 v=0
47160 On ch=1 n=c#7 v=70
47280 On ch=1 n=c#7 v=0
47280 On ch=1 n=f#6 v=70
47280 On ch=1 n=a#6 v=70
47400 On ch=1 n=a#6 v=0
47400 On ch=1 n=f#6 v=0
47400 On ch=1 n=c#6 v=70
47520 On ch=1 n=c#6 v=0
47520 On ch=1 n=c#6 v=70
47520 On ch=1 n=g#5 v=70
47520 On ch=1 n=f5 v=70
47604 On ch=1 n=f5 v=0
47604 On ch=1 n=g#5 v=0
47604 On ch=1 n=c#6 v=0
47640 On ch=1 n=c#6 v=70
47724 On ch=1 n=c#6 v=0
47760 On ch=1 n=f6 v=70
47844 On ch=1 n=f6 v=0
47880 On ch=1 n=c#6 v=70
47964 On ch=1 n=c#6 v=0
48240 On ch=1 n=f6 v=70
48324 On ch=1 n=f6 v=0
48360 On ch=1 n=c#6 v=70
48444 On ch=1 n=c#6 v=0
48720 On ch=1 n=f4 v=70
48804 On ch=1 n=f4 v=0
48840 On ch=1 n=c#4 v=70
48924 On ch=1 n=c#4 v=0
48924 Meta TrkEnd
TrkEnd
MTrk
0 Meta 0x21 00
0 Meta TrkName "Piano"
0 PrCh ch=2 p=0
0 Par ch=2 c=7 v=120
0 Par ch=2 c=10 v=53
0 On ch=2 n=c#3 v=70
5 Par ch=2 c=64 v=127
168 On ch=2 n=c#3 v=0
169 Par ch=2 c=64 v=0
240 On ch=2 n=g#5 v=70
240 On ch=2 n=c#5 v=70
240 On ch=2 n=g#4 v=70
408 On ch=2 n=g#4 v=0
408 On ch=2 n=c#5 v=0
408 On ch=2 n=g#5 v=0
480 On ch=2 n=f3 v=70
648 On ch=2 n=f3 v=0
720 On ch=2 n=f5 v=70
720 On ch=2 n=c#5 v=70
720 On ch=2 n=g#4 v=70
888 On ch=2 n=g#4 v=0
888 On ch=2 n=c#5 v=0
888 On ch=2 n=f5 v=0
960 On ch=2 n=f#3 v=70
1128 On ch=2 n=f#3 v=0
1200 On ch=2 n=f#4 v=70
1200 On ch=2 n=a#4 v=70
1200 On ch=2 n=d#5 v=70
1368 On ch=2 n=d#5 v=0
1368 On ch=2 n=a#4 v=0
1368 On ch=2 n=f#4 v=0
1440 On ch=2 n=g#3 v=70
1461 Par ch=2 c=64 v=127
1608 On ch=2 n=g#3 v=0
1680 On ch=2 n=f#5 v=70
1680 On ch=2 n=g#4 v=70
1848 On ch=2 n=g#4 v=0
1848 On ch=2 n=f#5 v=0
1885 Par ch=2 c=64 v=0
1920 On ch=2 n=g#4 v=70
1920 On ch=2 n=d#5 v=70
2088 On ch=2 n=d#5 v=0
2088 On ch=2 n=g#4 v=0
2160 On ch=2 n=c#4 v=70
2328 On ch=2 n=c#4 v=0
2378 Par ch=2 c=64 v=127
2400 On ch=2 n=f5 v=70
2400 On ch=2 n=c#5 v=70
2400 On ch=2 n=g#4 v=70
2566 Par ch=2 c=64 v=0
2568 On ch=2 n=g#4 v=0
2568 On ch=2 n=c#5 v=0
2568 On ch=2 n=f5 v=0
2640 On ch=2 n=f#4 v=70
2640 On ch=2 n=a#4 v=70
2640 On ch=2 n=c#5 v=70
2640 On ch=2 n=f#5 v=70
2808 On ch=2 n=f#5 v=0
2808 On ch=2 n=f#4 v=0
2808 On ch=2 n=a#4 v=0
2808 On ch=2 n=c#5 v=0
2880 On ch=2 n=c#3 v=70
2896 Par ch=2 c=64 v=127
3048 On ch=2 n=c#3 v=0
3083 Par ch=2 c=64 v=0
3120 On ch=2 n=g#5 v=70
3120 On ch=2 n=c#5 v=70
3120 On ch=2 n=g#4 v=70
3288 On ch=2 n=g#4 v=0
3288 On ch=2 n=c#5 v=0
3288 On ch=2 n=g#5 v=0
3360 On ch=2 n=f3 v=70
3528 On ch=2 n=f3 v=0
3600 On ch=2 n=f5 v=70
3600 On ch=2 n=c#5 v=70
3600 On ch=2 n=g#4 v=70
3768 On ch=2 n=g#4 v=0
3768 On ch=2 n=c#5 v=0
3768 On ch=2 n=f5 v=0
3840 On ch=2 n=a#3 v=70
4008 On ch=2 n=a#3 v=0
4080 On ch=2 n=f4 v=70
4080 On ch=2 n=a#4 v=70
4080 On ch=2 n=d5 v=70
4248 On ch=2 n=d5 v=0
4248 On ch=2 n=a#4 v=0
4248 On ch=2 n=f4 v=0
4320 On ch=2 n=d#3 v=70
4329 Par ch=2 c=64 v=127
4488 On ch=2 n=d#3 v=0
4560 On ch=2 n=f#5 v=70
4560 On ch=2 n=a#4 v=70
4560 On ch=2 n=f#4 v=70
4728 On ch=2 n=f#4 v=0
4728 On ch=2 n=a#4 v=0
4728 On ch=2 n=f#5 v=0
4776 Par ch=2 c=64 v=0
4800 On ch=2 n=f4 v=70
4800 On ch=2 n=a4 v=70
4800 On ch=2 n=d#5 v=70
4968 On ch=2 n=d#5 v=0
4968 On ch=2 n=a4 v=0
4968 On ch=2 n=f4 v=0
5040 On ch=2 n=c#5 v=70
5040 On ch=2 n=f4 v=70
5040 On ch=2 n=a#3 v=70
5208 On ch=2 n=a#3 v=0
5208 On ch=2 n=f4 v=0
5208 On ch=2 n=c#5 v=0
5760 On ch=2 n=c#3 v=70
5762 Par ch=2 c=64 v=127
5928 On ch=2 n=c#3 v=0
5950 Par ch=2 c=64 v=0
6000 On ch=2 n=g#5 v=70
6000 On ch=2 n=c#5 v=70
6000 On ch=2 n=g#4 v=70
6168 On ch=2 n=g#4 v=0
6168 On ch=2 n=c#5 v=0
6168 On ch=2 n=g#5 v=0
6240 On ch=2 n=f3 v=70
6408 On ch=2 n=f3 v=0
6480 On ch=2 n=f5 v=70
6480 On ch=2 n=c#5 v=70
6480 On ch=2 n=g#4 v=70
6648 On ch=2 n=g#4 v=0
6648 On ch=2 n=c#5 v=0
6648 On ch=2 n=f5 v=0
6720 On ch=2 n=f#3 v=70
6888 On ch=2 n=f#3 v=0
6960 On ch=2 n=f#4 v=70
6960 On ch=2 n=a#4 v=70
6960 On ch=2 n=d#5 v=70
7128 On ch=2 n=d#5 v=0
7128 On ch=2 n=a#4 v=0
7128 On ch=2 n=f#4 v=0
7196 Par ch=2 c=64 v=127
7200 On ch=2 n=g#3 v=70
7368 On ch=2 n=g#3 v=0
7440 On ch=2 n=f#5 v=70
7440 On ch=2 n=g#4 v=70
7608 On ch=2 n=g#4 v=0
7608 On ch=2 n=f#5 v=0
7642 Par ch=2 c=64 v=0
7680 On ch=2 n=g#4 v=70
7680 On ch=2 n=d#5 v=70
7848 On ch=2 n=d#5 v=0
7848 On ch=2 n=g#4 v=0
7920 On ch=2 n=c#4 v=70
8088 On ch=2 n=c#4 v=0
8160 On ch=2 n=f5 v=70
8160 On ch=2 n=c#5 v=70
8160 On ch=2 n=g#4 v=70
8183 Par ch=2 c=64 v=127
8328 On ch=2 n=g#4 v=0
8328 On ch=2 n=c#5 v=0
8328 On ch=2 n=f5 v=0
8393 Par ch=2 c=64 v=0
8400 On ch=2 n=f#4 v=70
8400 On ch=2 n=a#4 v=70
8400 On ch=2 n=c#5 v=70
8400 On ch=2 n=f#5 v=70
8568 On ch=2 n=f#5 v=0
8568 On ch=2 n=f#4 v=0
8568 On ch=2 n=a#4 v=0
8568 On ch=2 n=c#5 v=0
8640 On ch=2 n=c#3 v=70
8676 Par ch=2 c=64 v=127
8808 On ch=2 n=c#3 v=0
8880 On ch=2 n=g#5 v=70
8880 On ch=2 n=c#5 v=70
8880 On ch=2 n=g#4 v=70
8887 Par ch=2 c=64 v=0
9048 On ch=2 n=g#4 v=0
9048 On ch=2 n=c#5 v=0
9048 On ch=2 n=g#5 v=0
9120 On ch=2 n=f3 v=70
9288 On ch=2 n=f3 v=0
9360 On ch=2 n=f5 v=70
9360 On ch=2 n=c#5 v=70
9360 On ch=2 n=g#4 v=70
9528 On ch=2 n=g#4 v=0
9528 On ch=2 n=c#5 v=0
9528 On ch=2 n=f5 v=0
9600 On ch=2 n=a#3 v=70
9768 On ch=2 n=a#3 v=0
9840 On ch=2 n=f4 v=70
9840 On ch=2 n=a#4 v=70
9840 On ch=2 n=d5 v=70
10008 On ch=2 n=d5 v=0
10008 On ch=2 n=a#4 v=0
10008 On ch=2 n=f4 v=0
10080 On ch=2 n=d#3 v=70
10085 Par ch=2 c=64 v=127
10248 On ch=2 n=d#3 v=0
10320 On ch=2 n=f#5 v=70
10320 On ch=2 n=a#4 v=70
10320 On ch=2 n=f#4 v=70
10488 On ch=2 n=f#4 v=0
10488 On ch=2 n=a#4 v=0
10488 On ch=2 n=f#5 v=0
10532 Par ch=2 c=64 v=0
10560 On ch=2 n=f4 v=70
10560 On ch=2 n=a4 v=70
10560 On ch=2 n=d#5 v=70
10728 On ch=2 n=d#5 v=0
10728 On ch=2 n=a4 v=0
10728 On ch=2 n=f4 v=0
10800 On ch=2 n=c#5 v=70
10800 On ch=2 n=f4 v=70
10800 On ch=2 n=a#3 v=70
10968 On ch=2 n=a#3 v=0
10968 On ch=2 n=f4 v=0
10968 On ch=2 n=c#5 v=0
11520 On ch=2 n=a#2 v=70
11544 Par ch=2 c=64 v=127
11684 Par ch=2 c=64 v=0
11688 On ch=2 n=a#2 v=0
11760 On ch=2 n=f5 v=70
11760 On ch=2 n=d5 v=70
11928 On ch=2 n=d5 v=0
11928 On ch=2 n=f5 v=0
12000 On ch=2 n=a#2 v=70
12168 On ch=2 n=a#2 v=0
12240 On ch=2 n=d#3 v=70
12272 Par ch=2 c=64 v=127
12388 Par ch=2 c=64 v=0
12408 On ch=2 n=d#3 v=0
12480 On ch=2 n=f#5 v=70
12480 On ch=2 n=d#5 v=70
12648 On ch=2 n=d#5 v=0
12648 On ch=2 n=f#5 v=0
12720 On ch=2 n=d#3 v=70
12888 On ch=2 n=d#3 v=0
12960 On ch=2 n=c#3 v=70
12976 Par ch=2 c=64 v=127
13114 Par ch=2 c=64 v=0
13125 On ch=2 n=c#3 v=0
13197 On ch=2 n=f#5 v=70
13197 On ch=2 n=e5 v=70
13365 On ch=2 n=e5 v=0
13365 On ch=2 n=f#5 v=0
13437 On ch=2 n=c#3 v=70
13605 On ch=2 n=c#3 v=0
13677 On ch=2 n=b2 v=70
13701 Par ch=2 c=64 v=127
13796 Par ch=2 c=64 v=0
13845 On ch=2 n=b2 v=0
13917 On ch=2 n=f#5 v=70
13917 On ch=2 n=d#5 v=70
14085 On ch=2 n=d#5 v=0
14085 On ch=2 n=f#5 v=0
14157 On ch=2 n=b2 v=70
14325 On ch=2 n=b2 v=0
14397 On ch=2 n=b2 v=70
14409 Par ch=2 c=64 v=127
14565 On ch=2 n=b2 v=0
14637 On ch=2 n=f#5 v=70
14637 On ch=2 n=d#5 v=70
14805 On ch=2 n=d#5 v=0
14805 On ch=2 n=f#5 v=0
14830 Par ch=2 c=64 v=0
14877 On ch=2 n=b2 v=70
15045 On ch=2 n=b2 v=0
15117 On ch=2 n=e3 v=70
15285 On ch=2 n=e3 v=0
15357 On ch=2 n=e5 v=70
15525 On ch=2 n=e5 v=0
15597 On ch=2 n=e3 v=70
15765 On ch=2 n=e3 v=0
15837 On ch=2 n=b2 v=70
15849 Par ch=2 c=64 v=127
16005 On ch=2 n=b2 v=0
16077 On ch=2 n=f#5 v=70
16077 On ch=2 n=d#5 v=70
16245 On ch=2 n=d#5 v=0
16245 On ch=2 n=f#5 v=0
16317 On ch=2 n=b2 v=70
16334 Par ch=2 c=64 v=0
16485 On ch=2 n=b2 v=0
16557 On ch=2 n=e3 v=70
16725 On ch=2 n=e3 v=0
16797 On ch=2 n=e5 v=70
16965 On ch=2 n=e5 v=0
17037 On ch=2 n=e3 v=70
17205 On ch=2 n=e3 v=0
17277 On ch=2 n=b2 v=70
17289 Par ch=2 c=64 v=127
17445 On ch=2 n=b2 v=0
17517 On ch=2 n=d#5 v=70
17517 On ch=2 n=b4 v=70
17685 On ch=2 n=b4 v=0
17685 On ch=2 n=d#5 v=0
17721 Par ch=2 c=64 v=0
17757 On ch=2 n=b2 v=70
17925 On ch=2 n=b2 v=0
17997 On ch=2 n=e3 v=70
18165 On ch=2 n=e3 v=0
18237 Par ch=2 c=64 v=127
18237 On ch=2 n=b4 v=70
18405 On ch=2 n=b4 v=0
18477 On ch=2 n=e4 v=70
18645 On ch=2 n=e4 v=0
18717 On ch=2 n=b3 v=70
18885 On ch=2 n=b3 v=0
18957 On ch=2 n=e3 v=70
19125 On ch=2 n=e3 v=0
20141 Par ch=2 c=64 v=0
20157 On ch=2 n=c#3 v=70
20325 On ch=2 n=c#3 v=0
20397 On ch=2 n=g#5 v=70
20397 On ch=2 n=c#5 v=70
20397 On ch=2 n=g#4 v=70
20565 On ch=2 n=g#4 v=0
20565 On ch=2 n=c#5 v=0
20565 On ch=2 n=g#5 v=0
20637 On ch=2 n=f3 v=70
20805 On ch=2 n=f3 v=0
20877 On ch=2 n=f5 v=70
20877 On ch=2 n=c#5 v=70
20877 On ch=2 n=g#4 v=70
21045 On ch=2 n=g#4 v=0
21045 On ch=2 n=c#5 v=0
21045 On ch=2 n=f5 v=0
21117 On ch=2 n=f#3 v=70
21285 On ch=2 n=f#3 v=0
21357 On ch=2 n=f#4 v=70
21357 On ch=2 n=a#4 v=70
21357 On ch=2 n=d#5 v=70
21525 On ch=2 n=d#5 v=0
21525 On ch=2 n=a#4 v=0
21525 On ch=2 n=f#4 v=0
21597 Par ch=2 c=64 v=127
21597 On ch=2 n=g#3 v=70
21765 On ch=2 n=g#3 v=0
21837 On ch=2 n=f#5 v=70
21837 On ch=2 n=g#4 v=70
22005 On ch=2 n=g#4 v=0
22005 On ch=2 n=f#5 v=0
22068 Par ch=2 c=64 v=0
22077 On ch=2 n=g#4 v=70
22077 On ch=2 n=d#5 v=70
22245 On ch=2 n=d#5 v=0
22245 On ch=2 n=g#4 v=0
22317 On ch=2 n=c#4 v=70
22485 On ch=2 n=c#4 v=0
22557 On ch=2 n=f5 v=70
22557 On ch=2 n=c#5 v=70
22557 On ch=2 n=g#4 v=70
22581 Par ch=2 c=64 v=127
22725 On ch=2 n=g#4 v=0
22725 On ch=2 n=c#5 v=0
22725 On ch=2 n=f5 v=0
22773 Par ch=2 c=64 v=0
22797 On ch=2 n=f#4 v=70
22797 On ch=2 n=a#4 v=70
22797 On ch=2 n=c#5 v=70
22797 On ch=2 n=f#5 v=70
22965 On ch=2 n=f#5 v=0
22965 On ch=2 n=f#4 v=0
22965 On ch=2 n=a#4 v=0
22965 On ch=2 n=c#5 v=0
23037 On ch=2 n=c#3 v=70
23054 Par ch=2 c=64 v=127
23205 On ch=2 n=c#3 v=0
23277 On ch=2 n=g#5 v=70
23277 On ch=2 n=c#5 v=70
23277 On ch=2 n=g#4 v=70
23445 On ch=2 n=g#4 v=0
23445 On ch=2 n=c#5 v=0
23445 On ch=2 n=g#5 v=0
23517 On ch=2 n=c#4 v=70
23548 Par ch=2 c=64 v=0
23685 On ch=2 n=c#4 v=0
23757 On ch=2 n=e5 v=70
23757 On ch=2 n=c#5 v=70
23757 On ch=2 n=g#4 v=70
23925 On ch=2 n=g#4 v=0
23925 On ch=2 n=c#5 v=0
23925 On ch=2 n=e5 v=0
23997 On ch=2 n=f#3 v=70
24165 On ch=2 n=f#3 v=0
24237 On ch=2 n=f#4 v=70
24237 On ch=2 n=a4 v=70
24237 On ch=2 n=c#5 v=70
24405 On ch=2 n=c#5 v=0
24405 On ch=2 n=a4 v=0
24405 On ch=2 n=f#4 v=0
24477 On ch=2 n=b3 v=70
24489 Par ch=2 c=64 v=127
24645 On ch=2 n=b3 v=0
24700 Par ch=2 c=64 v=0
24717 On ch=2 n=d#5 v=70
24717 On ch=2 n=b4 v=70
24717 On ch=2 n=f#4 v=70
24885 On ch=2 n=f#4 v=0
24885 On ch=2 n=b4 v=0
24885 On ch=2 n=d#5 v=0
24957 On ch=2 n=g#4 v=70
24957 On ch=2 n=b4 v=70
24957 On ch=2 n=e5 v=70
25125 On ch=2 n=e5 v=0
25125 On ch=2 n=b4 v=0
25125 On ch=2 n=g#4 v=0
25197 On ch=2 n=g#3 v=70
25218 Par ch=2 c=64 v=127
25365 On ch=2 n=g#3 v=0
25405 Par ch=2 c=64 v=0
25437 On ch=2 n=d#5 v=70
25437 On ch=2 n=c5 v=70
25437 On ch=2 n=g#4 v=70
25605 On ch=2 n=g#4 v=0
25605 On ch=2 n=c5 v=0
25605 On ch=2 n=d#5 v=0
25677 On ch=2 n=c#4 v=70
25677 On ch=2 n=g#4 v=70
25677 On ch=2 n=c#5 v=70
25845 On ch=2 n=c#5 v=0
25845 On ch=2 n=g#4 v=0
25845 On ch=2 n=c#4 v=0
25917 On ch=2 n=f#3 v=70
25923 Par ch=2 c=64 v=127
26085 On ch=2 n=f#3 v=0
26111 Par ch=2 c=64 v=0
26157 On ch=2 n=d#5 v=70
26157 On ch=2 n=a#4 v=70
26157 On ch=2 n=f#4 v=70
26325 On ch=2 n=f#4 v=0
26325 On ch=2 n=a#4 v=0
26325 On ch=2 n=d#5 v=0
26397 On ch=2 n=g#4 v=70
26397 On ch=2 n=d#5 v=70
26565 On ch=2 n=d#5 v=0
26565 On ch=2 n=g#4 v=0
26637 On ch=2 n=c#3 v=70
26651 Par ch=2 c=64 v=127
26805 On ch=2 n=c#3 v=0
26877 On ch=2 n=f5 v=70
26877 On ch=2 n=c#5 v=70
26877 On ch=2 n=g#4 v=70
27045 On ch=2 n=g#4 v=0
27045 On ch=2 n=c#5 v=0
27045 On ch=2 n=f5 v=0
27074 Par ch=2 c=64 v=0
27117 On ch=2 n=f#4 v=70
27117 On ch=2 n=a#4 v=70
27117 On ch=2 n=c#5 v=70
27117 On ch=2 n=f#5 v=70
27285 On ch=2 n=f#5 v=0
27285 On ch=2 n=f#4 v=0
27285 On ch=2 n=a#4 v=0
27285 On ch=2 n=c#5 v=0
27357 On ch=2 n=c#3 v=70
27381 Par ch=2 c=64 v=127
27525 On ch=2 n=c#3 v=0
27597 On ch=2 n=f5 v=70
27597 On ch=2 n=c#5 v=70
27597 On ch=2 n=g#4 v=70
27765 On ch=2 n=g#4 v=0
27765 On ch=2 n=c#5 v=0
27765 On ch=2 n=f5 v=0
27803 Par ch=2 c=64 v=0
27837 On ch=2 n=f#4 v=70
27837 On ch=2 n=a#4 v=70
27837 On ch=2 n=c#5 v=70
27837 On ch=2 n=f#5 v=70
28005 On ch=2 n=f#5 v=0
28005 On ch=2 n=f#4 v=0
28005 On ch=2 n=a#4 v=0
28005 On ch=2 n=c#5 v=0
28077 On ch=2 n=c#3 v=70
28084 Par ch=2 c=64 v=127
28245 On ch=2 n=c#3 v=0
28317 On ch=2 n=f5 v=70
28317 On ch=2 n=c#5 v=70
28317 On ch=2 n=g#4 v=70
28485 On ch=2 n=g#4 v=0
28485 On ch=2 n=c#5 v=0
28485 On ch=2 n=f5 v=0
28557 On ch=2 n=f#4 v=70
28557 On ch=2 n=a#4 v=70
28557 On ch=2 n=c#5 v=70
28557 On ch=2 n=f#5 v=70
28578 Par ch=2 c=64 v=0
28725 On ch=2 n=f#5 v=0
28725 On ch=2 n=f#4 v=0
28725 On ch=2 n=a#4 v=0
28725 On ch=2 n=c#5 v=0
28797 On ch=2 n=c#3 v=70
28837 Par ch=2 c=64 v=127
28965 On ch=2 n=c#3 v=0
29277 On ch=2 n=f5 v=70
29361 On ch=2 n=f5 v=0
29397 On ch=2 n=c#5 v=70
29481 On ch=2 n=c#5 v=0
29517 Par ch=2 c=64 v=0
29542 Par ch=2 c=64 v=127
29564 Par ch=2 c=64 v=0
29757 On ch=2 n=f5 v=70
29841 On ch=2 n=f5 v=0
29877 On ch=2 n=c#5 v=70
29961 On ch=2 n=c#5 v=0
30237 On ch=2 n=a#2 v=70
30246 Par ch=2 c=64 v=127
30405 On ch=2 n=a#2 v=0
30435 Par ch=2 c=64 v=0
30477 On ch=2 n=f5 v=70
30477 On ch=2 n=d5 v=70
30645 On ch=2 n=d5 v=0
30645 On ch=2 n=f5 v=0
30717 On ch=2 n=a#2 v=70
30885 On ch=2 n=a#2 v=0
30957 On ch=2 n=d#3 v=70
30975 Par ch=2 c=64 v=127
31125 On ch=2 n=d#3 v=0
31140 Par ch=2 c=64 v=0
31197 On ch=2 n=f#5 v=70
31197 On ch=2 n=d#5 v=70
31365 On ch=2 n=d#5 v=0
31365 On ch=2 n=f#5 v=0
31437 On ch=2 n=d#3 v=70
31605 On ch=2 n=d#3 v=0
31677 On ch=2 n=c#3 v=70
31703 Par ch=2 c=64 v=127
31845 On ch=2 n=c#3 v=0
31868 Par ch=2 c=64 v=0
31917 On ch=2 n=f#5 v=70
31917 On ch=2 n=e5 v=70
32085 On ch=2 n=e5 v=0
32085 On ch=2 n=f#5 v=0
32157 On ch=2 n=c#3 v=70
32325 On ch=2 n=c#3 v=0
32397 On ch=2 n=b2 v=70
32408 Par ch=2 c=64 v=127
32565 On ch=2 n=b2 v=0
32573 Par ch=2 c=64 v=0
32637 On ch=2 n=f#5 v=70
32637 On ch=2 n=d#5 v=70
32805 On ch=2 n=d#5 v=0
32805 On ch=2 n=f#5 v=0
32877 On ch=2 n=b2 v=70
33045 On ch=2 n=b2 v=0
33117 On ch=2 n=b2 v=70
33141 Par ch=2 c=64 v=127
33285 On ch=2 n=b2 v=0
33357 On ch=2 n=f#5 v=70
33357 On ch=2 n=d#5 v=70
33525 On ch=2 n=d#5 v=0
33525 On ch=2 n=f#5 v=0
33559 Par ch=2 c=64 v=0
33597 On ch=2 n=b2 v=70
33765 On ch=2 n=b2 v=0
33837 On ch=2 n=e3 v=70
34005 On ch=2 n=e3 v=0
34077 On ch=2 n=e5 v=70
34245 On ch=2 n=e5 v=0
34317 On ch=2 n=e3 v=70
34485 On ch=2 n=e3 v=0
34557 On ch=2 n=b2 v=70
34567 Par ch=2 c=64 v=127
34722 On ch=2 n=b2 v=0
34794 On ch=2 n=f#5 v=70
34794 On ch=2 n=d#5 v=70
34962 On ch=2 n=d#5 v=0
34962 On ch=2 n=f#5 v=0
34966 Par ch=2 c=64 v=0
35034 On ch=2 n=b2 v=70
35202 On ch=2 n=b2 v=0
35274 On ch=2 n=e3 v=70
35442 On ch=2 n=e3 v=0
35514 On ch=2 n=e5 v=70
35682 On ch=2 n=e5 v=0
35754 On ch=2 n=e3 v=70
35922 On ch=2 n=e3 v=0
35994 On ch=2 n=b2 v=70
36000 Par ch=2 c=64 v=127
36162 On ch=2 n=b2 v=0
36234 On ch=2 n=d#5 v=70
36234 On ch=2 n=b4 v=70
36402 On ch=2 n=b4 v=0
36402 On ch=2 n=d#5 v=0
36447 Par ch=2 c=64 v=0
36474 On ch=2 n=b2 v=70
36642 On ch=2 n=b2 v=0
36714 On ch=2 n=e3 v=70
36882 On ch=2 n=e3 v=0
36954 On ch=2 n=b4 v=70
36964 Par ch=2 c=64 v=127
37122 On ch=2 n=b4 v=0
37194 On ch=2 n=e4 v=70
37362 On ch=2 n=e4 v=0
37434 On ch=2 n=b3 v=70
37602 On ch=2 n=b3 v=0
37674 On ch=2 n=e3 v=70
37842 On ch=2 n=e3 v=0
38867 Par ch=2 c=64 v=0
38874 On ch=2 n=c#3 v=70
39042 On ch=2 n=c#3 v=0
39114 On ch=2 n=g#5 v=70
39114 On ch=2 n=c#5 v=70
39114 On ch=2 n=g#4 v=70
39282 On ch=2 n=g#4 v=0
39282 On ch=2 n=c#5 v=0
39282 On ch=2 n=g#5 v=0
39354 On ch=2 n=f3 v=70
39522 On ch=2 n=f3 v=0
39594 On ch=2 n=f5 v=70
39594 On ch=2 n=c#5 v=70
39594 On ch=2 n=g#4 v=70
39762 On ch=2 n=g#4 v=0
39762 On ch=2 n=c#5 v=0
39762 On ch=2 n=f5 v=0
39834 On ch=2 n=f#3 v=70
40002 On ch=2 n=f#3 v=0
40074 On ch=2 n=f#4 v=70
40074 On ch=2 n=a#4 v=70
40074 On ch=2 n=d#5 v=70
40242 On ch=2 n=d#5 v=0
40242 On ch=2 n=a#4 v=0
40242 On ch=2 n=f#4 v=0
40314 On ch=2 n=g#3 v=70
40482 On ch=2 n=g#3 v=0
40554 On ch=2 n=f#5 v=70
40554 On ch=2 n=g#4 v=70
40559 Par ch=2 c=64 v=127
40722 On ch=2 n=g#4 v=0
40722 On ch=2 n=f#5 v=0
40794 On ch=2 n=g#4 v=70
40794 On ch=2 n=d#5 v=70
40818 Par ch=2 c=64 v=0
40962 On ch=2 n=d#5 v=0
40962 On ch=2 n=g#4 v=0
41034 On ch=2 n=c#4 v=70
41202 On ch=2 n=c#4 v=0
41274 On ch=2 n=f5 v=70
41274 On ch=2 n=c#5 v=70
41274 On ch=2 n=g#4 v=70
41289 Par ch=2 c=64 v=127
41442 On ch=2 n=g#4 v=0
41442 On ch=2 n=c#5 v=0
41442 On ch=2 n=f5 v=0
41499 Par ch=2 c=64 v=0
41514 On ch=2 n=f#4 v=70
41514 On ch=2 n=a#4 v=70
41514 On ch=2 n=c#5 v=70
41514 On ch=2 n=f#5 v=70
41682 On ch=2 n=f#5 v=0
41682 On ch=2 n=f#4 v=0
41682 On ch=2 n=a#4 v=0
41682 On ch=2 n=c#5 v=0
41754 On ch=2 n=c#3 v=70
41778 Par ch=2 c=64 v=127
41922 On ch=2 n=c#3 v=0
41994 On ch=2 n=g#5 v=70
41994 On ch=2 n=c#5 v=70
41994 On ch=2 n=g#4 v=70
42162 On ch=2 n=g#4 v=0
42162 On ch=2 n=c#5 v=0
42162 On ch=2 n=g#5 v=0
42181 Par ch=2 c=64 v=0
42234 On ch=2 n=c#4 v=70
42402 On ch=2 n=c#4 v=0
42474 On ch=2 n=e5 v=70
42474 On ch=2 n=c#5 v=70
42474 On ch=2 n=g#4 v=70
42642 On ch=2 n=g#4 v=0
42642 On ch=2 n=c#5 v=0
42642 On ch=2 n=e5 v=0
42714 On ch=2 n=f#3 v=70
42882 On ch=2 n=f#3 v=0
42954 On ch=2 n=f#4 v=70
42954 On ch=2 n=a4 v=70
42954 On ch=2 n=c#5 v=70
43122 On ch=2 n=c#5 v=0
43122 On ch=2 n=a4 v=0
43122 On ch=2 n=f#4 v=0
43194 On ch=2 n=b3 v=70
43206 Par ch=2 c=64 v=127
43362 On ch=2 n=b3 v=0
43404 Par ch=2 c=64 v=0
43434 On ch=2 n=d#5 v=70
43434 On ch=2 n=b4 v=70
43434 On ch=2 n=f#4 v=70
43602 On ch=2 n=f#4 v=0
43602 On ch=2 n=b4 v=0
43602 On ch=2 n=d#5 v=0
43674 On ch=2 n=g#4 v=70
43674 On ch=2 n=b4 v=70
43674 On ch=2 n=e5 v=70
43842 On ch=2 n=e5 v=0
43842 On ch=2 n=b4 v=0
43842 On ch=2 n=g#4 v=0
43914 On ch=2 n=g#3 v=70
43920 Par ch=2 c=64 v=127
44082 On ch=2 n=g#3 v=0
44109 Par ch=2 c=64 v=0
44154 On ch=2 n=d#5 v=70
44154 On ch=2 n=c5 v=70
44154 On ch=2 n=g#4 v=70
44322 On ch=2 n=g#4 v=0
44322 On ch=2 n=c5 v=0
44322 On ch=2 n=d#5 v=0
44394 On ch=2 n=c#4 v=70
44394 On ch=2 n=g#4 v=70
44394 On ch=2 n=c#5 v=70
44562 On ch=2 n=c#5 v=0
44562 On ch=2 n=g#4 v=0
44562 On ch=2 n=c#4 v=0
44634 On ch=2 n=f#3 v=70
44646 Par ch=2 c=64 v=127
44802 On ch=2 n=f#3 v=0
44837 Par ch=2 c=64 v=0
44874 On ch=2 n=d#5 v=70
44874 On ch=2 n=a#4 v=70
44874 On ch=2 n=f#4 v=70
45042 On ch=2 n=f#4 v=0
45042 On ch=2 n=a#4 v=0
45042 On ch=2 n=d#5 v=0
45114 On ch=2 n=g#4 v=70
45114 On ch=2 n=d#5 v=70
45282 On ch=2 n=d#5 v=0
45282 On ch=2 n=g#4 v=0
45354 Par ch=2 c=64 v=127
45354 On ch=2 n=c#3 v=70
45522 On ch=2 n=c#3 v=0
45594 On ch=2 n=f5 v=70
45594 On ch=2 n=c#5 v=70
45594 On ch=2 n=g#4 v=70
45762 On ch=2 n=g#4 v=0
45762 On ch=2 n=c#5 v=0
45762 On ch=2 n=f5 v=0
45776 Par ch=2 c=64 v=0
45834 On ch=2 n=f#4 v=70
45834 On ch=2 n=a#4 v=70
45834 On ch=2 n=c#5 v=70
45834 On ch=2 n=f#5 v=70
46002 On ch=2 n=f#5 v=0
46002 On ch=2 n=f#4 v=0
46002 On ch=2 n=a#4 v=0
46002 On ch=2 n=c#5 v=0
46074 On ch=2 n=c#3 v=70
46083 Par ch=2 c=64 v=127
46242 On ch=2 n=c#3 v=0
46314 On ch=2 n=f5 v=70
46314 On ch=2 n=c#5 v=70
46314 On ch=2 n=g#4 v=70
46482 On ch=2 n=g#4 v=0
46482 On ch=2 n=c#5 v=0
46482 On ch=2 n=f5 v=0
46551 Par ch=2 c=64 v=0
46554 On ch=2 n=f#4 v=70
46554 On ch=2 n=a#4 v=70
46554 On ch=2 n=c#5 v=70
46554 On ch=2 n=f#5 v=70
46722 On ch=2 n=f#5 v=0
46722 On ch=2 n=f#4 v=0
46722 On ch=2 n=a#4 v=0
46722 On ch=2 n=c#5 v=0
46794 On ch=2 n=c#3 v=70
46811 Par ch=2 c=64 v=127
46962 On ch=2 n=c#3 v=0
47034 On ch=2 n=f5 v=70
47034 On ch=2 n=c#5 v=70
47034 On ch=2 n=g#4 v=70
47202 On ch=2 n=g#4 v=0
47202 On ch=2 n=c#5 v=0
47202 On ch=2 n=f5 v=0
47274 On ch=2 n=f#4 v=70
47274 On ch=2 n=a#4 v=70
47274 On ch=2 n=c#5 v=70
47274 On ch=2 n=f#5 v=70
47280 Par ch=2 c=64 v=0
47442 On ch=2 n=f#5 v=0
47442 On ch=2 n=f#4 v=0
47442 On ch=2 n=a#4 v=0
47442 On ch=2 n=c#5 v=0
47514 On ch=2 n=c#3 v=70
47539 Par ch=2 c=64 v=127
47682 On ch=2 n=c#3 v=0
47994 On ch=2 n=f5 v=70
48078 On ch=2 n=f5 v=0
48114 On ch=2 n=c#5 v=70
48198 On ch=2 n=c#5 v=0
48221 Par ch=2 c=64 v=0
48244 Par ch=2 c=64 v=127
48268 Par ch=2 c=64 v=0
48474 On ch=2 n=f5 v=70
48558 On ch=2 n=f5 v=0
48594 On ch=2 n=c#5 v=70
48678 On ch=2 n=c#5 v=0
48954 On ch=2 n=c#3 v=70
48954 On ch=2 n=c#2 v=70
49122 On ch=2 n=c#3 v=0
49139 On ch=2 n=c#2 v=0
49139 Meta TrkEnd
TrkEnd
