MFile 1 3 240
MTrk
0 TimeSig 3/4 24 8
0 KeySig 0 major
0 Tempo 454545
0 Meta TrkEnd
TrkEnd
MTrk
0 Meta 0x21 00
0 Meta TrkName "Piano"
0 PrCh ch=1 p=0
0 Par ch=1 c=7 v=127
0 Par ch=1 c=10 v=72
0 On ch=1 n=g#5 v=67
0 On ch=1 n=e6 v=67
0 On ch=1 n=g#6 v=67
360 On ch=1 n=g#6 v=0
360 On ch=1 n=e6 v=0
360 On ch=1 n=g#5 v=0
360 On ch=1 n=a5 v=67
360 On ch=1 n=f#6 v=67
360 On ch=1 n=a6 v=67
480 On ch=1 n=a6 v=0
480 On ch=1 n=f#6 v=0
480 On ch=1 n=a5 v=0
480 On ch=1 n=g#5 v=67
480 On ch=1 n=e6 v=67
480 On ch=1 n=g#6 v=67
720 On ch=1 n=g#6 v=0
720 On ch=1 n=e6 v=0
720 On ch=1 n=g#5 v=0
720 On ch=1 n=e5 v=67
720 On ch=1 n=e6 v=67
840 On ch=1 n=e6 v=0
840 On ch=1 n=e5 v=0
840 On ch=1 n=f#5 v=67
840 On ch=1 n=f#6 v=67
960 On ch=1 n=f#6 v=0
960 On ch=1 n=f#5 v=0
960 On ch=1 n=g#5 v=67
960 On ch=1 n=g#6 v=67
960 On ch=1 n=d#6 v=67
1200 On ch=1 n=d#6 v=0
1200 On ch=1 n=e6 v=67
1440 On ch=1 n=e6 v=0
1440 On ch=1 n=g#6 v=0
1440 On ch=1 n=g#5 v=0
1440 On ch=1 n=g#5 v=67
1440 On ch=1 n=e6 v=67
1440 On ch=1 n=g#6 v=67
1800 On ch=1 n=g#6 v=0
1800 On ch=1 n=e6 v=0
1800 On ch=1 n=g#5 v=0
1800 On ch=1 n=a5 v=67
1800 On ch=1 n=f#6 v=67
1800 On ch=1 n=a6 v=67
1920 On ch=1 n=a6 v=0
1920 On ch=1 n=f#6 v=0
1920 On ch=1 n=a5 v=0
1920 On ch=1 n=g#5 v=67
1920 On ch=1 n=e6 v=67
1920 On ch=1 n=g#6 v=67
2160 On ch=1 n=g#6 v=0
2160 On ch=1 n=e6 v=0
2160 On ch=1 n=g#5 v=0
2160 On ch=1 n=a5 v=67
2160 On ch=1 n=a6 v=67
2280 On ch=1 n=a6 v=0
2280 On ch=1 n=a5 v=0
2280 On ch=1 n=a#5 v=67
2280 On ch=1 n=a#6 v=67
2400 On ch=1 n=a#6 v=0
2400 On ch=1 n=a#5 v=0
2400 On ch=1 n=b5 v=67
2400 On ch=1 n=b6 v=67
2400 On ch=1 n=f#6 v=67
2640 On ch=1 n=f#6 v=0
2640 On ch=1 n=e6 v=67
2880 On ch=1 n=e6 v=0
2880 On ch=1 n=b6 v=0
2880 On ch=1 n=b5 v=0
2880 On ch=1 n=b5 v=67
2880 On ch=1 n=g#6 v=67
2880 On ch=1 n=b6 v=67
3000 On ch=1 n=b6 v=0
3000 On ch=1 n=g#6 v=0
3000 On ch=1 n=b5 v=0
3000 On ch=1 n=c#6 v=67
3000 On ch=1 n=a6 v=67
3000 On ch=1 n=c#7 v=67
3120 On ch=1 n=c#7 v=0
3120 On ch=1 n=a6 v=0
3120 On ch=1 n=c#6 v=0
3120 On ch=1 n=d6 v=67
3120 On ch=1 n=b6 v=67
3120 On ch=1 n=d7 v=67
3480 On ch=1 n=d7 v=0
3480 On ch=1 n=b6 v=0
3480 On ch=1 n=d6 v=0
3480 On ch=1 n=c#6 v=67
3480 On ch=1 n=g#6 v=67
3480 On ch=1 n=c#7 v=67
3600 On ch=1 n=c#7 v=0
3600 On ch=1 n=g#6 v=0
3600 On ch=1 n=c#6 v=0
3600 On ch=1 n=c#6 v=67
3600 On ch=1 n=f#6 v=67
3600 On ch=1 n=c#7 v=67
3960 On ch=1 n=c#7 v=0
3960 On ch=1 n=f#6 v=0
3960 On ch=1 n=c#6 v=0
3960 On ch=1 n=d6 v=67
3960 On ch=1 n=b6 v=67
3960 On ch=1 n=d7 v=67
4080 On ch=1 n=d7 v=0
4080 On ch=1 n=b6 v=0
4080 On ch=1 n=d6 v=0
4080 On ch=1 n=c#6 v=67
4080 On ch=1 n=a6 v=67
4080 On ch=1 n=c#7 v=67
4320 On ch=1 n=c#7 v=0
4320 On ch=1 n=a6 v=0
4320 On ch=1 n=c#6 v=0
4320 On ch=1 n=c#6 v=67
4320 On ch=1 n=a6 v=67
4320 On ch=1 n=c#7 v=67
4440 On ch=1 n=c#7 v=0
4440 On ch=1 n=a6 v=0
4440 On ch=1 n=c#6 v=0
4440 On ch=1 n=d#6 v=67
4440 On ch=1 n=d#7 v=67
4560 On ch=1 n=d#7 v=0
4560 On ch=1 n=d#6 v=0
4560 On ch=1 n=e6 v=67
4560 On ch=1 n=c#7 v=67
4560 On ch=1 n=e7 v=67
4920 On ch=1 n=e7 v=0
4920 On ch=1 n=c#7 v=0
4920 On ch=1 n=e6 v=0
4920 On ch=1 n=d#6 v=67
4920 On ch=1 n=a6 v=67
4920 On ch=1 n=d#7 v=67
5040 On ch=1 n=d#7 v=0
5040 On ch=1 n=a6 v=0
5040 On ch=1 n=d#6 v=0
5040 On ch=1 n=d#6 v=67
5040 On ch=1 n=a6 v=67
5040 On ch=1 n=d#7 v=67
5280 On ch=1 n=d#7 v=0
5280 On ch=1 n=a6 v=0
5280 On ch=1 n=d#6 v=0
5280 On ch=1 n=c6 v=67
5280 On ch=1 n=g#6 v=67
5280 On ch=1 n=c7 v=67
5520 On ch=1 n=c7 v=0
5520 On ch=1 n=g#6 v=0
5520 On ch=1 n=c6 v=0
5520 On ch=1 n=a5 v=67
5520 On ch=1 n=f#6 v=67
5520 On ch=1 n=a6 v=67
5760 On ch=1 n=a6 v=0
5760 On ch=1 n=f#6 v=0
5760 On ch=1 n=a5 v=0
5760 On ch=1 n=g#5 v=67
5760 On ch=1 n=e6 v=67
5760 On ch=1 n=g#6 v=67
6120 On ch=1 n=g#6 v=0
6120 On ch=1 n=e6 v=0
6120 On ch=1 n=g#5 v=0
6120 On ch=1 n=a5 v=67
6120 On ch=1 n=f#6 v=67
6120 On ch=1 n=a6 v=67
6240 On ch=1 n=a6 v=0
6240 On ch=1 n=f#6 v=0
6240 On ch=1 n=a5 v=0
6240 On ch=1 n=g#5 v=67
6240 On ch=1 n=e6 v=67
6240 On ch=1 n=g#6 v=67
6480 On ch=1 n=g#6 v=0
6480 On ch=1 n=e6 v=0
6480 On ch=1 n=g#5 v=0
6480 On ch=1 n=e5 v=67
6480 On ch=1 n=e6 v=67
6600 On ch=1 n=e6 v=0
6600 On ch=1 n=e5 v=0
6600 On ch=1 n=f#5 v=67
6600 On ch=1 n=f#6 v=67
6720 On ch=1 n=f#6 v=0
6720 On ch=1 n=f#5 v=0
6720 On ch=1 n=g#5 v=67
6720 On ch=1 n=g#6 v=67
6720 On ch=1 n=d#6 v=67
6960 On ch=1 n=d#6 v=0
6960 On ch=1 n=e6 v=67
7200 On ch=1 n=e6 v=0
7200 On ch=1 n=g#6 v=0
7200 On ch=1 n=g#5 v=0
7200 On ch=1 n=g#5 v=67
7200 On ch=1 n=e6 v=67
7200 On ch=1 n=g#6 v=67
7560 On ch=1 n=g#6 v=0
7560 On ch=1 n=e6 v=0
7560 On ch=1 n=g#5 v=0
7560 On ch=1 n=a5 v=67
7560 On ch=1 n=f#6 v=67
7560 On ch=1 n=a6 v=67
7680 On ch=1 n=a6 v=0
7680 On ch=1 n=f#6 v=0
7680 On ch=1 n=a5 v=0
7680 On ch=1 n=g#5 v=67
7680 On ch=1 n=e6 v=67
7680 On ch=1 n=g#6 v=67
7920 On ch=1 n=g#6 v=0
7920 On ch=1 n=e6 v=0
7920 On ch=1 n=g#5 v=0
7920 On ch=1 n=a5 v=67
7920 On ch=1 n=a6 v=67
8040 On ch=1 n=a6 v=0
8040 On ch=1 n=a5 v=0
8040 On ch=1 n=a#5 v=67
8040 On ch=1 n=a#6 v=67
8160 On ch=1 n=a#6 v=0
8160 On ch=1 n=a#5 v=0
8160 On ch=1 n=b5 v=67
8160 On ch=1 n=b6 v=67
8160 On ch=1 n=f#6 v=67
8400 On ch=1 n=f#6 v=0
8400 On ch=1 n=e6 v=67
8640 On ch=1 n=e6 v=0
8640 On ch=1 n=b5 v=0
8640 On ch=1 n=b5 v=67
8640 On ch=1 n=g#6 v=67
8760 On ch=1 n=g#6 v=0
8760 On ch=1 n=b5 v=0
8760 On ch=1 n=b6 v=0
8760 On ch=1 n=c#6 v=67
8760 On ch=1 n=a6 v=67
8760 On ch=1 n=c#7 v=67
8880 On ch=1 n=c#7 v=0
8880 On ch=1 n=a6 v=0
8880 On ch=1 n=c#6 v=0
8880 On ch=1 n=d6 v=67
8880 On ch=1 n=b6 v=67
8880 On ch=1 n=d7 v=67
9240 On ch=1 n=d7 v=0
9240 On ch=1 n=b6 v=0
9240 On ch=1 n=d6 v=0
9240 On ch=1 n=c#6 v=67
9240 On ch=1 n=g#6 v=67
9240 On ch=1 n=c#7 v=67
9360 On ch=1 n=c#7 v=0
9360 On ch=1 n=g#6 v=0
9360 On ch=1 n=c#6 v=0
9360 On ch=1 n=c#6 v=67
9360 On ch=1 n=f#6 v=67
9360 On ch=1 n=c#7 v=67
9720 On ch=1 n=c#7 v=0
9720 On ch=1 n=f#6 v=0
9720 On ch=1 n=c#6 v=0
9720 On ch=1 n=d6 v=67
9720 On ch=1 n=b6 v=67
9720 On ch=1 n=d7 v=67
9840 On ch=1 n=d7 v=0
9840 On ch=1 n=b6 v=0
9840 On ch=1 n=d6 v=0
9840 On ch=1 n=c#6 v=67
9840 On ch=1 n=a6 v=67
9840 On ch=1 n=c#7 v=67
10080 On ch=1 n=c#7 v=0
10080 On ch=1 n=a6 v=0
10080 On ch=1 n=c#6 v=0
10080 On ch=1 n=c#6 v=67
10080 On ch=1 n=a6 v=67
10080 On ch=1 n=c#7 v=67
10200 On ch=1 n=c#7 v=0
10200 On ch=1 n=a6 v=0
10200 On ch=1 n=c#6 v=0
10200 On ch=1 n=d#6 v=67
10200 On ch=1 n=d#7 v=67
10320 On ch=1 n=d#7 v=0
10320 On ch=1 n=d#6 v=0
10320 On ch=1 n=e6 v=67
10320 On ch=1 n=c#7 v=67
10320 On ch=1 n=e7 v=67
10680 On ch=1 n=e7 v=0
10680 On ch=1 n=c#7 v=0
10680 On ch=1 n=e6 v=0
10680 On ch=1 n=d#6 v=67
10680 On ch=1 n=a6 v=67
10680 On ch=1 n=d#7 v=67
10800 On ch=1 n=d#7 v=0
10800 On ch=1 n=a6 v=0
10800 On ch=1 n=d#6 v=0
10800 On ch=1 n=d#6 v=67
10800 On ch=1 n=a6 v=67
10800 On ch=1 n=d#7 v=67
11040 On ch=1 n=d#7 v=0
11040 On ch=1 n=a6 v=0
11040 On ch=1 n=d#6 v=0
11040 On ch=1 n=c#6 v=67
11040 On ch=1 n=a6 v=67
11040 On ch=1 n=c#7 v=67
11280 On ch=1 n=c#7 v=0
11280 On ch=1 n=a6 v=0
11280 On ch=1 n=c#6 v=0
11280 On ch=1 n=b5 v=67
11280 On ch=1 n=f#6 v=67
11280 On ch=1 n=b6 v=67
11520 On ch=1 n=b6 v=0
11520 On ch=1 n=f#6 v=0
11520 On ch=1 n=b5 v=0
11520 On ch=1 n=b5 v=57
11520 On ch=1 n=g#6 v=57
11520 On ch=1 n=b6 v=57
11880 On ch=1 n=b6 v=0
11880 On ch=1 n=g#6 v=0
11880 On ch=1 n=b5 v=0
11880 On ch=1 n=c#6 v=57
11880 On ch=1 n=a6 v=57
11880 On ch=1 n=c#7 v=57
12000 On ch=1 n=c#7 v=0
12000 On ch=1 n=a6 v=0
12000 On ch=1 n=c#6 v=0
12000 On ch=1 n=b5 v=57
12000 On ch=1 n=g#6 v=57
12000 On ch=1 n=b6 v=57
12240 On ch=1 n=b6 v=0
12240 On ch=1 n=g#6 v=0
12240 On ch=1 n=b5 v=0
12240 On ch=1 n=a5 v=57
12240 On ch=1 n=f#6 v=57
12240 On ch=1 n=a6 v=57
12360 On ch=1 n=a6 v=0
12360 On ch=1 n=f#6 v=0
12360 On ch=1 n=a5 v=0
12360 On ch=1 n=g#5 v=57
12360 On ch=1 n=e6 v=57
12360 On ch=1 n=g#6 v=57
12480 On ch=1 n=g#6 v=0
12480 On ch=1 n=e6 v=0
12480 On ch=1 n=g#5 v=0
12480 On ch=1 n=a5 v=57
12480 On ch=1 n=f#6 v=57
12480 On ch=1 n=a6 v=57
12840 On ch=1 n=a6 v=0
12840 On ch=1 n=f#6 v=0
12840 On ch=1 n=a5 v=0
12840 On ch=1 n=g#5 v=57
12840 On ch=1 n=e6 v=57
12840 On ch=1 n=g#6 v=57
12960 On ch=1 n=g#6 v=0
12960 On ch=1 n=e6 v=0
12960 On ch=1 n=g#5 v=0
12960 On ch=1 n=f#5 v=57
12960 On ch=1 n=d#6 v=57
12960 On ch=1 n=f#6 v=57
13080 On ch=1 n=f#6 v=0
13080 On ch=1 n=d#6 v=0
13080 On ch=1 n=f#5 v=0
13080 On ch=1 n=g#5 v=57
13080 On ch=1 n=e6 v=57
13080 On ch=1 n=g#6 v=57
13200 On ch=1 n=g#6 v=0
13200 On ch=1 n=e6 v=0
13200 On ch=1 n=g#5 v=0
13200 On ch=1 n=f#5 v=57
13200 On ch=1 n=d#6 v=57
13200 On ch=1 n=f#6 v=57
13560 On ch=1 n=f#6 v=0
13560 On ch=1 n=d#6 v=0
13560 On ch=1 n=f#5 v=0
13560 On ch=1 n=e5 v=57
13560 On ch=1 n=c#6 v=57
13560 On ch=1 n=e6 v=57
13680 On ch=1 n=e6 v=0
13680 On ch=1 n=c#6 v=0
13680 On ch=1 n=e5 v=0
13680 On ch=1 n=e5 v=57
13680 On ch=1 n=c#6 v=57
13680 On ch=1 n=e6 v=57
13920 On ch=1 n=e6 v=0
13920 On ch=1 n=c#6 v=0
13920 On ch=1 n=e5 v=0
13920 On ch=1 n=c#5 v=57
13920 On ch=1 n=a#5 v=57
13920 On ch=1 n=c#6 v=57
14280 On ch=1 n=c#6 v=0
14280 On ch=1 n=a#5 v=0
14280 On ch=1 n=c#5 v=0
14280 On ch=1 n=f#5 v=57
14280 On ch=1 n=f#6 v=57
14400 On ch=1 n=f#6 v=0
14400 On ch=1 n=f#5 v=0
14400 On ch=1 n=d#5 v=57
14400 On ch=1 n=b5 v=57
14400 On ch=1 n=d#6 v=57
14520 On ch=1 n=d#6 v=0
14520 On ch=1 n=b5 v=0
14520 On ch=1 n=d#5 v=0
14520 On ch=1 n=e5 v=57
14520 On ch=1 n=c#6 v=57
14520 On ch=1 n=e6 v=57
14640 On ch=1 n=e6 v=0
14640 On ch=1 n=c#6 v=0
14640 On ch=1 n=e5 v=0
14640 On ch=1 n=c#5 v=57
14640 On ch=1 n=a#5 v=57
14640 On ch=1 n=c#6 v=57
15000 On ch=1 n=c#6 v=0
15000 On ch=1 n=a#5 v=0
15000 On ch=1 n=c#5 v=0
15000 On ch=1 n=f#5 v=57
15000 On ch=1 n=f#6 v=57
15120 On ch=1 n=f#6 v=0
15120 On ch=1 n=f#5 v=0
15120 On ch=1 n=f#5 v=57
15120 On ch=1 n=b5 v=57
15120 On ch=1 n=f#6 v=57
15240 On ch=1 n=f#6 v=0
15240 On ch=1 n=b5 v=0
15240 On ch=1 n=f#5 v=0
15240 On ch=1 n=d#5 v=57
15240 On ch=1 n=d#6 v=57
15360 On ch=1 n=d#6 v=0
15360 On ch=1 n=d#5 v=0
15360 On ch=1 n=b4 v=57
15360 On ch=1 n=f#5 v=57
15360 On ch=1 n=b5 v=57
15720 On ch=1 n=b5 v=0
15720 On ch=1 n=f#5 v=0
15720 On ch=1 n=b4 v=0
15720 On ch=1 n=b5 v=57
15720 On ch=1 n=f#6 v=57
15720 On ch=1 n=b6 v=57
15840 On ch=1 n=b6 v=0
15840 On ch=1 n=f#6 v=0
15840 On ch=1 n=b5 v=0
15840 On ch=1 n=b5 v=57
15840 On ch=1 n=g#6 v=57
15840 On ch=1 n=b6 v=57
15960 On ch=1 n=b6 v=0
15960 On ch=1 n=g#6 v=0
15960 On ch=1 n=b5 v=0
15960 On ch=1 n=c#6 v=57
15960 On ch=1 n=a6 v=57
15960 On ch=1 n=c#7 v=57
16080 On ch=1 n=c#7 v=0
16080 On ch=1 n=a6 v=0
16080 On ch=1 n=c#6 v=0
16080 On ch=1 n=b5 v=57
16080 On ch=1 n=g#6 v=57
16080 On ch=1 n=b6 v=57
16440 On ch=1 n=b6 v=0
16440 On ch=1 n=g#6 v=0
16440 On ch=1 n=b5 v=0
16440 On ch=1 n=a5 v=57
16440 On ch=1 n=f#6 v=57
16440 On ch=1 n=a6 v=57
16560 On ch=1 n=a6 v=0
16560 On ch=1 n=f#6 v=0
16560 On ch=1 n=a5 v=0
16560 On ch=1 n=g#5 v=57
16560 On ch=1 n=f6 v=57
16560 On ch=1 n=g#6 v=57
16680 On ch=1 n=g#6 v=0
16680 On ch=1 n=f6 v=0
16680 On ch=1 n=g#5 v=0
16680 On ch=1 n=f#5 v=57
16680 On ch=1 n=d#6 v=57
16680 On ch=1 n=f#6 v=57
16800 On ch=1 n=f#6 v=0
16800 On ch=1 n=d#6 v=0
16800 On ch=1 n=f#5 v=0
16800 On ch=1 n=g#5 v=57
16800 On ch=1 n=f6 v=57
16800 On ch=1 n=g#6 v=57
17160 On ch=1 n=g#6 v=0
17160 On ch=1 n=f6 v=0
17160 On ch=1 n=g#5 v=0
17160 On ch=1 n=f#5 v=57
17160 On ch=1 n=d6 v=57
17160 On ch=1 n=f#6 v=57
17280 On ch=1 n=f#6 v=0
17280 On ch=1 n=d6 v=0
17280 On ch=1 n=f#5 v=0
17280 On ch=1 n=f5 v=57
17280 On ch=1 n=c#6 v=57
17280 On ch=1 n=f6 v=57
17400 On ch=1 n=f6 v=0
17400 On ch=1 n=c#6 v=0
17400 On ch=1 n=f5 v=0
17400 On ch=1 n=f#5 v=57
17400 On ch=1 n=d6 v=57
17400 On ch=1 n=f#6 v=57
17520 On ch=1 n=f#6 v=0
17520 On ch=1 n=d6 v=0
17520 On ch=1 n=f#5 v=0
17520 On ch=1 n=f5 v=57
17520 On ch=1 n=c#6 v=57
17520 On ch=1 n=f6 v=57
17880 On ch=1 n=f6 v=0
17880 On ch=1 n=c#6 v=0
17880 On ch=1 n=f5 v=0
17880 On ch=1 n=d5 v=57
17880 On ch=1 n=b5 v=57
17880 On ch=1 n=d6 v=57
18000 On ch=1 n=d6 v=0
18000 On ch=1 n=b5 v=0
18000 On ch=1 n=d5 v=0
18000 On ch=1 n=c#5 v=57
18000 On ch=1 n=a5 v=57
18000 On ch=1 n=c#6 v=57
18120 On ch=1 n=c#6 v=0
18120 On ch=1 n=a5 v=0
18120 On ch=1 n=c#5 v=0
18120 On ch=1 n=d5 v=57
18120 On ch=1 n=b5 v=57
18120 On ch=1 n=d6 v=57
18240 On ch=1 n=d6 v=0
18240 On ch=1 n=b5 v=0
18240 On ch=1 n=d5 v=0
18240 On ch=1 n=b4 v=57
18240 On ch=1 n=g#5 v=57
18240 On ch=1 n=b5 v=57
18600 On ch=1 n=b5 v=0
18600 On ch=1 n=g#5 v=0
18600 On ch=1 n=b4 v=0
18600 On ch=1 n=c#5 v=57
18600 On ch=1 n=a5 v=57
18600 On ch=1 n=c#6 v=57
18720 On ch=1 n=c#6 v=0
18720 On ch=1 n=a5 v=0
18720 On ch=1 n=c#5 v=0
18720 On ch=1 n=b4 v=57
18720 On ch=1 n=g#5 v=57
18720 On ch=1 n=b5 v=57
18840 On ch=1 n=b5 v=0
18840 On ch=1 n=g#5 v=0
18840 On ch=1 n=b4 v=0
18840 On ch=1 n=c#5 v=57
18840 On ch=1 n=a5 v=57
18840 On ch=1 n=c#6 v=57
18960 On ch=1 n=c#6 v=0
18960 On ch=1 n=a5 v=0
18960 On ch=1 n=c#5 v=0
18960 On ch=1 n=a4 v=57
18960 On ch=1 n=f#5 v=57
18960 On ch=1 n=a5 v=57
19320 On ch=1 n=a5 v=0
19320 On ch=1 n=f#5 v=0
19320 On ch=1 n=a4 v=0
19320 On ch=1 n=b4 v=57
19320 On ch=1 n=g#5 v=57
19320 On ch=1 n=b5 v=57
19440 On ch=1 n=b5 v=0
19440 On ch=1 n=g#5 v=0
19440 On ch=1 n=b4 v=0
19440 On ch=1 n=a4 v=57
19440 On ch=1 n=f#5 v=57
19440 On ch=1 n=a5 v=57
19560 On ch=1 n=a5 v=0
19560 On ch=1 n=f#5 v=0
19560 On ch=1 n=a4 v=0
19560 On ch=1 n=b4 v=57
19560 On ch=1 n=g#5 v=57
19560 On ch=1 n=b5 v=57
19680 On ch=1 n=b5 v=0
19680 On ch=1 n=g#5 v=0
19680 On ch=1 n=b4 v=0
19680 On ch=1 n=g#4 v=57
19680 On ch=1 n=e5 v=57
19680 On ch=1 n=g#5 v=57
20040 On ch=1 n=g#5 v=0
20040 On ch=1 n=e5 v=0
20040 On ch=1 n=d5 v=57
20040 On ch=1 n=f#5 v=57
20160 On ch=1 n=f#5 v=0
20160 On ch=1 n=d5 v=0
20160 On ch=1 n=g#4 v=0
20160 On ch=1 n=a5 v=57
20160 On ch=1 n=c#6 v=57
20160 On ch=1 n=e6 v=57
20520 On ch=1 n=e6 v=0
20520 On ch=1 n=c#6 v=0
20520 On ch=1 n=d6 v=58
20520 On ch=1 n=f#6 v=58
20640 On ch=1 n=f#6 v=0
20640 On ch=1 n=d6 v=0
20640 On ch=1 n=c#6 v=58
20640 On ch=1 n=e6 v=58
21000 On ch=1 n=e6 v=0
21000 On ch=1 n=c#6 v=0
21000 On ch=1 n=f#6 v=61
21120 On ch=1 n=f#6 v=0
21120 On ch=1 n=a5 v=0
21120 On ch=1 n=c#6 v=61
21120 On ch=1 n=a5 v=61
21120 On ch=1 n=g6 v=61
21600 On ch=1 n=g6 v=0
21600 On ch=1 n=a5 v=0
21600 On ch=1 n=c#6 v=0
21600 On ch=1 n=c#6 v=63
21600 On ch=1 n=f6 v=63
21600 On ch=1 n=g#6 v=63
21960 On ch=1 n=g#6 v=0
21960 On ch=1 n=f6 v=0
21960 On ch=1 n=f#6 v=66
21960 On ch=1 n=a#6 v=66
22080 On ch=1 n=a#6 v=0
22080 On ch=1 n=f#6 v=0
22080 On ch=1 n=c#6 v=0
22080 On ch=1 n=c#6 v=66
22080 On ch=1 n=f6 v=66
22080 On ch=1 n=g#6 v=66
22440 On ch=1 n=g#6 v=0
22440 On ch=1 n=f6 v=0
22440 On ch=1 n=f#6 v=68
22440 On ch=1 n=a#6 v=68
22560 On ch=1 n=a#6 v=0
22560 On ch=1 n=f#6 v=0
22560 On ch=1 n=c#6 v=0
22560 On ch=1 n=b5 v=68
22560 On ch=1 n=g#6 v=68
22560 On ch=1 n=b6 v=68
22920 On ch=1 n=b6 v=0
22920 On ch=1 n=g#6 v=0
22920 On ch=1 n=b5 v=0
22920 On ch=1 n=c#6 v=69
22920 On ch=1 n=a6 v=69
22920 On ch=1 n=c#7 v=69
23040 On ch=1 n=c#7 v=0
23040 On ch=1 n=a6 v=0
23040 On ch=1 n=c#6 v=0
23040 On ch=1 n=d#6 v=70
23040 On ch=1 n=b6 v=70
23040 On ch=1 n=d#7 v=70
23400 On ch=1 n=d#7 v=0
23400 On ch=1 n=b6 v=0
23400 On ch=1 n=d#6 v=0
23400 On ch=1 n=f6 v=72
23400 On ch=1 n=c#7 v=72
23400 On ch=1 n=f7 v=72
23520 On ch=1 n=f7 v=0
23520 On ch=1 n=c#7 v=0
23520 On ch=1 n=f6 v=0
23520 On ch=1 n=f#6 v=73
23520 On ch=1 n=d#7 v=73
23520 On ch=1 n=f#7 v=73
23640 On ch=1 n=f#7 v=0
23640 On ch=1 n=d#7 v=0
23640 On ch=1 n=f#6 v=0
23640 On ch=1 n=g#6 v=73
23640 On ch=1 n=f7 v=73
23640 On ch=1 n=g#7 v=73
23760 On ch=1 n=g#7 v=0
23760 On ch=1 n=f7 v=0
23760 On ch=1 n=g#6 v=0
23760 On ch=1 n=a#6 v=74
23760 On ch=1 n=c#7 v=74
23760 On ch=1 n=f#7 v=74
23760 On ch=1 n=a#7 v=74
24240 On ch=1 n=a#7 v=0
24240 On ch=1 n=a#6 v=0
24240 On ch=1 n=c#7 v=0
24240 On ch=1 n=f#7 v=0
24240 On ch=1 n=a6 v=76
24240 On ch=1 n=c#7 v=76
24240 On ch=1 n=e7 v=76
24240 On ch=1 n=a7 v=76
24720 On ch=1 n=a7 v=0
24720 On ch=1 n=a6 v=0
24720 On ch=1 n=c#7 v=0
24720 On ch=1 n=e7 v=0
24720 On ch=1 n=g#6 v=79
24720 On ch=1 n=c7 v=79
24720 On ch=1 n=d#7 v=79
24720 On ch=1 n=f#7 v=79
24720 On ch=1 n=g#7 v=79
25560 On ch=1 n=g#7 v=0
25560 On ch=1 n=d#7 v=0
25560 On ch=1 n=g#6 v=0
25560 On ch=1 n=c7 v=0
25560 On ch=1 n=f#7 v=0
25560 On ch=1 n=f#6 v=60
25560 On ch=1 n=f#7 v=60
25680 On ch=1 n=f#7 v=0
25680 On ch=1 n=f#6 v=0
25680 On ch=1 n=d#6 v=60
25680 On ch=1 n=d#7 v=60
25800 On ch=1 n=d#7 v=0
25800 On ch=1 n=d#6 v=0
25800 On ch=1 n=c6 v=61
25800 On ch=1 n=c7 v=61
25920 On ch=1 n=c7 v=0
25920 On ch=1 n=c6 v=0
25920 On ch=1 n=g#6 v=62
25920 On ch=1 n=c#6 v=62
25920 On ch=1 n=c#7 v=62
26160 On ch=1 n=c#7 v=0
26160 On ch=1 n=c#6 v=0
26280 On ch=1 n=g#6 v=0
26280 On ch=1 n=a#6 v=64
26400 On ch=1 n=a#6 v=0
26400 On ch=1 n=g#6 v=64
26640 On ch=1 n=g#6 v=0
26640 On ch=1 n=f6 v=67
26760 On ch=1 n=f6 v=0
26760 On ch=1 n=f#6 v=67
26880 On ch=1 n=f#6 v=0
26880 On ch=1 n=c6 v=67
26880 On ch=1 n=g#6 v=67
27240 On ch=1 n=g#6 v=0
27240 On ch=1 n=c6 v=0
27240 On ch=1 n=c#6 v=67
27360 On ch=1 n=c#6 v=0
27360 On ch=1 n=g#5 v=67
27360 On ch=1 n=c#6 v=67
27600 On ch=1 n=c#6 v=0
27720 On ch=1 n=g#5 v=0
27720 On ch=1 n=a#5 v=67
27840 On ch=1 n=a#5 v=0
27840 On ch=1 n=g#5 v=67
28080 On ch=1 n=g#5 v=0
28080 On ch=1 n=f5 v=67
28200 On ch=1 n=f5 v=0
28200 On ch=1 n=f#5 v=67
28320 On ch=1 n=f#5 v=0
28320 On ch=1 n=g#5 v=67
28320 On ch=1 n=g#6 v=67
28800 On ch=1 n=g#6 v=0
28800 On ch=1 n=g#5 v=0
28800 On ch=1 n=f5 v=67
28920 On ch=1 n=f5 v=0
28920 On ch=1 n=f#5 v=67
29040 On ch=1 n=f#5 v=0
29040 On ch=1 n=g#5 v=67
29040 On ch=1 n=g#6 v=67
29520 On ch=1 n=g#6 v=0
29520 On ch=1 n=g#5 v=0
29520 On ch=1 n=f5 v=67
29640 On ch=1 n=f5 v=0
29640 On ch=1 n=f#5 v=67
29760 On ch=1 n=f#5 v=0
29760 On ch=1 n=g#4 v=67
29760 On ch=1 n=c5 v=67
29760 On ch=1 n=g#5 v=67
30120 On ch=1 n=g#5 v=0
30120 On ch=1 n=c5 v=0
30120 On ch=1 n=g#4 v=0
30120 On ch=1 n=c#5 v=67
30240 On ch=1 n=c#5 v=0
30240 On ch=1 n=b5 v=57
30240 On ch=1 n=g#6 v=57
30240 On ch=1 n=b6 v=57
30600 On ch=1 n=b6 v=0
30600 On ch=1 n=g#6 v=0
30600 On ch=1 n=b5 v=0
30600 On ch=1 n=c#6 v=57
30600 On ch=1 n=a6 v=57
30600 On ch=1 n=c#7 v=57
30720 On ch=1 n=c#7 v=0
30720 On ch=1 n=a6 v=0
30720 On ch=1 n=c#6 v=0
30720 On ch=1 n=b5 v=57
30720 On ch=1 n=g#6 v=57
30720 On ch=1 n=b6 v=57
30960 On ch=1 n=b6 v=0
30960 On ch=1 n=g#6 v=0
30960 On ch=1 n=b5 v=0
30960 On ch=1 n=a5 v=57
30960 On ch=1 n=f#6 v=57
30960 On ch=1 n=a6 v=57
31080 On ch=1 n=a6 v=0
31080 On ch=1 n=f#6 v=0
31080 On ch=1 n=a5 v=0
31080 On ch=1 n=g#5 v=57
31080 On ch=1 n=e6 v=57
31080 On ch=1 n=g#6 v=57
31200 On ch=1 n=g#6 v=0
31200 On ch=1 n=e6 v=0
31200 On ch=1 n=g#5 v=0
31200 On ch=1 n=a5 v=57
31200 On ch=1 n=f#6 v=57
31200 On ch=1 n=a6 v=57
31560 On ch=1 n=a6 v=0
31560 On ch=1 n=f#6 v=0
31560 On ch=1 n=a5 v=0
31560 On ch=1 n=g#5 v=57
31560 On ch=1 n=e6 v=57
31560 On ch=1 n=g#6 v=57
31680 On ch=1 n=g#6 v=0
31680 On ch=1 n=e6 v=0
31680 On ch=1 n=g#5 v=0
31680 On ch=1 n=f#5 v=57
31680 On ch=1 n=d#6 v=57
31680 On ch=1 n=f#6 v=57
31800 On ch=1 n=f#6 v=0
31800 On ch=1 n=d#6 v=0
31800 On ch=1 n=f#5 v=0
31800 On ch=1 n=g#5 v=57
31800 On ch=1 n=e6 v=57
31800 On ch=1 n=g#6 v=57
31920 On ch=1 n=g#6 v=0
31920 On ch=1 n=e6 v=0
31920 On ch=1 n=g#5 v=0
31920 On ch=1 n=f#5 v=57
31920 On ch=1 n=d#6 v=57
31920 On ch=1 n=f#6 v=57
32280 On ch=1 n=f#6 v=0
32280 On ch=1 n=d#6 v=0
32280 On ch=1 n=f#5 v=0
32280 On ch=1 n=e5 v=57
32280 On ch=1 n=c#6 v=57
32280 On ch=1 n=e6 v=57
32400 On ch=1 n=e6 v=0
32400 On ch=1 n=c#6 v=0
32400 On ch=1 n=e5 v=0
32400 On ch=1 n=e5 v=57
32400 On ch=1 n=c#6 v=57
32400 On ch=1 n=e6 v=57
32640 On ch=1 n=e6 v=0
32640 On ch=1 n=c#6 v=0
32640 On ch=1 n=e5 v=0
32640 On ch=1 n=c#5 v=57
32640 On ch=1 n=a#5 v=57
32640 On ch=1 n=c#6 v=57
33000 On ch=1 n=c#6 v=0
33000 On ch=1 n=a#5 v=0
33000 On ch=1 n=c#5 v=0
33000 On ch=1 n=f#5 v=57
33000 On ch=1 n=f#6 v=57
33120 On ch=1 n=f#6 v=0
33120 On ch=1 n=f#5 v=0
33120 On ch=1 n=d#5 v=57
33120 On ch=1 n=b5 v=57
33120 On ch=1 n=d#6 v=57
33240 On ch=1 n=d#6 v=0
33240 On ch=1 n=b5 v=0
33240 On ch=1 n=d#5 v=0
33240 On ch=1 n=e5 v=57
33240 On ch=1 n=c#6 v=57
33240 On ch=1 n=e6 v=57
33360 On ch=1 n=e6 v=0
33360 On ch=1 n=c#6 v=0
33360 On ch=1 n=e5 v=0
33360 On ch=1 n=c#5 v=57
33360 On ch=1 n=a#5 v=57
33360 On ch=1 n=c#6 v=57
33720 On ch=1 n=c#6 v=0
33720 On ch=1 n=a#5 v=0
33720 On ch=1 n=c#5 v=0
33720 On ch=1 n=f#5 v=57
33720 On ch=1 n=f#6 v=57
33840 On ch=1 n=f#6 v=0
33840 On ch=1 n=b5 v=57
33840 On ch=1 n=f#6 v=57
33960 On ch=1 n=f#6 v=0
33960 On ch=1 n=b5 v=0
33960 On ch=1 n=f#5 v=0
33960 On ch=1 n=d#5 v=57
33960 On ch=1 n=d#6 v=57
34080 On ch=1 n=d#6 v=0
34080 On ch=1 n=d#5 v=0
34080 On ch=1 n=b4 v=57
34080 On ch=1 n=f#5 v=57
34080 On ch=1 n=b5 v=57
34440 On ch=1 n=b5 v=0
34440 On ch=1 n=f#5 v=0
34440 On ch=1 n=b4 v=0
34440 On ch=1 n=b5 v=57
34440 On ch=1 n=f#6 v=57
34440 On ch=1 n=b6 v=57
34560 On ch=1 n=f#6 v=0
34560 On ch=1 n=g#6 v=57
34680 On ch=1 n=g#6 v=0
34680 On ch=1 n=b6 v=0
34680 On ch=1 n=b5 v=0
34680 On ch=1 n=c#6 v=57
34680 On ch=1 n=a6 v=57
34680 On ch=1 n=c#7 v=57
34800 On ch=1 n=c#7 v=0
34800 On ch=1 n=a6 v=0
34800 On ch=1 n=c#6 v=0
34800 On ch=1 n=b5 v=57
34800 On ch=1 n=g#6 v=57
34800 On ch=1 n=b6 v=57
35160 On ch=1 n=b6 v=0
35160 On ch=1 n=g#6 v=0
35160 On ch=1 n=b5 v=0
35160 On ch=1 n=a5 v=57
35160 On ch=1 n=f#6 v=57
35160 On ch=1 n=a6 v=57
35280 On ch=1 n=a6 v=0
35280 On ch=1 n=f#6 v=0
35280 On ch=1 n=a5 v=0
35280 On ch=1 n=g#5 v=57
35280 On ch=1 n=f6 v=57
35280 On ch=1 n=g#6 v=57
35400 On ch=1 n=g#6 v=0
35400 On ch=1 n=f6 v=0
35400 On ch=1 n=g#5 v=0
35400 On ch=1 n=f#5 v=57
35400 On ch=1 n=d#6 v=57
35400 On ch=1 n=f#6 v=57
35520 On ch=1 n=f#6 v=0
35520 On ch=1 n=d#6 v=0
35520 On ch=1 n=f#5 v=0
35520 On ch=1 n=g#5 v=57
35520 On ch=1 n=f6 v=57
35520 On ch=1 n=g#6 v=57
35880 On ch=1 n=g#6 v=0
35880 On ch=1 n=f6 v=0
35880 On ch=1 n=g#5 v=0
35880 On ch=1 n=f#5 v=57
35880 On ch=1 n=d6 v=57
35880 On ch=1 n=f#6 v=57
36000 On ch=1 n=f#6 v=0
36000 On ch=1 n=d6 v=0
36000 On ch=1 n=f#5 v=0
36000 On ch=1 n=f5 v=57
36000 On ch=1 n=c#6 v=57
36000 On ch=1 n=f6 v=57
36120 On ch=1 n=f6 v=0
36120 On ch=1 n=c#6 v=0
36120 On ch=1 n=f5 v=0
36120 On ch=1 n=f#5 v=57
36120 On ch=1 n=d6 v=57
36120 On ch=1 n=f#6 v=57
36240 On ch=1 n=f#6 v=0
36240 On ch=1 n=d6 v=0
36240 On ch=1 n=f#5 v=0
36240 On ch=1 n=f5 v=57
36240 On ch=1 n=c#6 v=57
36240 On ch=1 n=f6 v=57
36600 On ch=1 n=f6 v=0
36600 On ch=1 n=c#6 v=0
36600 On ch=1 n=f5 v=0
36600 On ch=1 n=d5 v=57
36600 On ch=1 n=b5 v=57
36600 On ch=1 n=d6 v=57
36720 On ch=1 n=d6 v=0
36720 On ch=1 n=b5 v=0
36720 On ch=1 n=d5 v=0
36720 On ch=1 n=c#5 v=57
36720 On ch=1 n=a5 v=57
36720 On ch=1 n=c#6 v=57
36840 On ch=1 n=c#6 v=0
36840 On ch=1 n=a5 v=0
36840 On ch=1 n=c#5 v=0
36840 On ch=1 n=d5 v=57
36840 On ch=1 n=b5 v=57
36840 On ch=1 n=d6 v=57
36960 On ch=1 n=d6 v=0
36960 On ch=1 n=b5 v=0
36960 On ch=1 n=d5 v=0
36960 On ch=1 n=b4 v=57
36960 On ch=1 n=g#5 v=57
36960 On ch=1 n=b5 v=57
37320 On ch=1 n=b5 v=0
37320 On ch=1 n=g#5 v=0
37320 On ch=1 n=b4 v=0
37320 On ch=1 n=c#5 v=57
37320 On ch=1 n=a5 v=57
37320 On ch=1 n=c#6 v=57
37440 On ch=1 n=c#6 v=0
37440 On ch=1 n=a5 v=0
37440 On ch=1 n=c#5 v=0
37440 On ch=1 n=b4 v=57
37440 On ch=1 n=g#5 v=57
37440 On ch=1 n=b5 v=57
37560 On ch=1 n=b5 v=0
37560 On ch=1 n=g#5 v=0
37560 On ch=1 n=b4 v=0
37560 On ch=1 n=c#5 v=57
37560 On ch=1 n=a5 v=57
37560 On ch=1 n=c#6 v=57
37680 On ch=1 n=c#6 v=0
37680 On ch=1 n=a5 v=0
37680 On ch=1 n=c#5 v=0
37680 On ch=1 n=a4 v=57
37680 On ch=1 n=f#5 v=57
37680 On ch=1 n=a5 v=57
38040 On ch=1 n=a5 v=0
38040 On ch=1 n=f#5 v=0
38040 On ch=1 n=a4 v=0
38040 On ch=1 n=b4 v=57
38040 On ch=1 n=g#5 v=57
38040 On ch=1 n=b5 v=57
38160 On ch=1 n=b5 v=0
38160 On ch=1 n=g#5 v=0
38160 On ch=1 n=b4 v=0
38160 On ch=1 n=a4 v=57
38160 On ch=1 n=f#5 v=57
38160 On ch=1 n=a5 v=57
38280 On ch=1 n=a5 v=0
38280 On ch=1 n=f#5 v=0
38280 On ch=1 n=a4 v=0
38280 On ch=1 n=b4 v=57
38280 On ch=1 n=g#5 v=57
38280 On ch=1 n=b5 v=57
38400 On ch=1 n=b5 v=0
38400 On ch=1 n=g#5 v=0
38400 On ch=1 n=b4 v=0
38400 On ch=1 n=g#4 v=57
38400 On ch=1 n=e5 v=57
38400 On ch=1 n=g#5 v=57
38760 On ch=1 n=g#5 v=0
38760 On ch=1 n=e5 v=0
38760 On ch=1 n=d5 v=57
38760 On ch=1 n=f#5 v=57
38880 On ch=1 n=f#5 v=0
38880 On ch=1 n=d5 v=0
38880 On ch=1 n=g#4 v=0
38880 On ch=1 n=a5 v=57
38880 On ch=1 n=c#6 v=57
38880 On ch=1 n=e6 v=57
39240 On ch=1 n=e6 v=0
39240 On ch=1 n=c#6 v=0
39240 On ch=1 n=d6 v=58
39240 On ch=1 n=f#6 v=58
39360 On ch=1 n=f#6 v=0
39360 On ch=1 n=d6 v=0
39360 On ch=1 n=c#6 v=58
39360 On ch=1 n=e6 v=58
39720 On ch=1 n=e6 v=0
39720 On ch=1 n=c#6 v=0
39720 On ch=1 n=f#6 v=61
39840 On ch=1 n=f#6 v=0
39840 On ch=1 n=a5 v=0
39840 On ch=1 n=c#6 v=61
39840 On ch=1 n=a5 v=61
39840 On ch=1 n=g6 v=61
40320 On ch=1 n=g6 v=0
40320 On ch=1 n=a5 v=0
40320 On ch=1 n=f6 v=63
40320 On ch=1 n=g#6 v=63
40680 On ch=1 n=g#6 v=0
40680 On ch=1 n=f6 v=0
40680 On ch=1 n=f#6 v=66
40680 On ch=1 n=a#6 v=66
40800 On ch=1 n=a#6 v=0
40800 On ch=1 n=f#6 v=0
40800 On ch=1 n=c#6 v=0
40800 On ch=1 n=f6 v=66
40800 On ch=1 n=g#6 v=66
40800 On ch=1 n=c#6 v=66
41160 On ch=1 n=g#6 v=0
41160 On ch=1 n=f6 v=0
41160 On ch=1 n=f#6 v=68
41160 On ch=1 n=a#6 v=68
41280 On ch=1 n=a#6 v=0
41280 On ch=1 n=f#6 v=0
41280 On ch=1 n=c#6 v=0
41280 On ch=1 n=b5 v=68
41280 On ch=1 n=g#6 v=68
41280 On ch=1 n=b6 v=68
41640 On ch=1 n=b6 v=0
41640 On ch=1 n=g#6 v=0
41640 On ch=1 n=b5 v=0
41640 On ch=1 n=c#6 v=69
41640 On ch=1 n=a6 v=69
41640 On ch=1 n=c#7 v=69
41760 On ch=1 n=c#7 v=0
41760 On ch=1 n=a6 v=0
41760 On ch=1 n=c#6 v=0
41760 On ch=1 n=d#6 v=70
41760 On ch=1 n=b6 v=70
41760 On ch=1 n=d#7 v=70
42120 On ch=1 n=d#7 v=0
42120 On ch=1 n=b6 v=0
42120 On ch=1 n=d#6 v=0
42120 On ch=1 n=f6 v=72
42120 On ch=1 n=c#7 v=72
42120 On ch=1 n=f7 v=72
42240 On ch=1 n=f7 v=0
42240 On ch=1 n=c#7 v=0
42240 On ch=1 n=f6 v=0
42240 On ch=1 n=f#6 v=73
42240 On ch=1 n=d#7 v=73
42240 On ch=1 n=f#7 v=73
42360 On ch=1 n=f#7 v=0
42360 On ch=1 n=d#7 v=0
42360 On ch=1 n=f#6 v=0
42360 On ch=1 n=g#6 v=73
42360 On ch=1 n=f7 v=73
42360 On ch=1 n=g#7 v=73
42480 On ch=1 n=g#7 v=0
42480 On ch=1 n=f7 v=0
42480 On ch=1 n=g#6 v=0
42480 On ch=1 n=a#6 v=74
42480 On ch=1 n=c#7 v=74
42480 On ch=1 n=f#7 v=74
42480 On ch=1 n=a#7 v=74
42960 On ch=1 n=a#7 v=0
42960 On ch=1 n=a#6 v=0
42960 On ch=1 n=c#7 v=0
42960 On ch=1 n=f#7 v=0
42960 On ch=1 n=a6 v=76
42960 On ch=1 n=c#7 v=76
42960 On ch=1 n=e7 v=76
42960 On ch=1 n=a7 v=76
43440 On ch=1 n=a7 v=0
43440 On ch=1 n=a6 v=0
43440 On ch=1 n=c#7 v=0
43440 On ch=1 n=e7 v=0
43440 On ch=1 n=g#6 v=79
43440 On ch=1 n=c7 v=79
43440 On ch=1 n=d#7 v=79
43440 On ch=1 n=f#7 v=79
43440 On ch=1 n=g#7 v=79
44280 On ch=1 n=g#7 v=0
44280 On ch=1 n=d#7 v=0
44280 On ch=1 n=g#6 v=0
44280 On ch=1 n=c7 v=0
44280 On ch=1 n=f#7 v=0
44280 On ch=1 n=f#6 v=67
44280 On ch=1 n=f#7 v=67
44400 On ch=1 n=f#7 v=0
44400 On ch=1 n=f#6 v=0
44400 On ch=1 n=d#6 v=67
44400 On ch=1 n=d#7 v=67
44520 On ch=1 n=d#7 v=0
44520 On ch=1 n=d#6 v=0
44520 On ch=1 n=c6 v=67
44520 On ch=1 n=c7 v=67
44640 On ch=1 n=c7 v=0
44640 On ch=1 n=c6 v=0
44640 On ch=1 n=g#6 v=67
44640 On ch=1 n=c#6 v=67
44640 On ch=1 n=c#7 v=67
44880 On ch=1 n=c#7 v=0
44880 On ch=1 n=c#6 v=0
45000 On ch=1 n=g#6 v=0
45000 On ch=1 n=a#6 v=67
45120 On ch=1 n=a#6 v=0
45120 On ch=1 n=g#6 v=67
45360 On ch=1 n=g#6 v=0
45360 On ch=1 n=f6 v=67
45480 On ch=1 n=f6 v=0
45480 On ch=1 n=f#6 v=67
45600 On ch=1 n=f#6 v=0
45600 On ch=1 n=c6 v=67
45600 On ch=1 n=g#6 v=67
45960 On ch=1 n=g#6 v=0
45960 On ch=1 n=c6 v=0
45960 On ch=1 n=c#6 v=67
46080 On ch=1 n=c#6 v=0
46080 On ch=1 n=g#5 v=67
46080 On ch=1 n=c#6 v=67
46320 On ch=1 n=c#6 v=0
46440 On ch=1 n=g#5 v=0
46440 On ch=1 n=a#5 v=67
46560 On ch=1 n=a#5 v=0
46560 On ch=1 n=g#5 v=67
46800 On ch=1 n=g#5 v=0
46800 On ch=1 n=f5 v=67
46920 On ch=1 n=f5 v=0
46920 On ch=1 n=f#5 v=67
47040 On ch=1 n=f#5 v=0
47040 On ch=1 n=g#5 v=67
47040 On ch=1 n=g#6 v=67
47520 On ch=1 n=g#6 v=0
47520 On ch=1 n=g#5 v=0
47520 On ch=1 n=f5 v=67
47640 On ch=1 n=f5 v=0
47640 On ch=1 n=f#5 v=67
47760 On ch=1 n=f#5 v=0
47760 On ch=1 n=g#5 v=67
47760 On ch=1 n=g#6 v=67
48240 On ch=1 n=g#6 v=0
48240 On ch=1 n=g#5 v=0
48240 On ch=1 n=f5 v=67
48360 On ch=1 n=f5 v=0
48360 On ch=1 n=f#5 v=67
48480 On ch=1 n=f#5 v=0
48480 On ch=1 n=g#4 v=67
48480 On ch=1 n=c5 v=67
48480 On ch=1 n=g#5 v=67
48840 On ch=1 n=g#5 v=0
48840 On ch=1 n=c5 v=0
48840 On ch=1 n=g#4 v=0
48840 On ch=1 n=c#5 v=67
48960 On ch=1 n=c#5 v=0
48960 On ch=1 n=f4 v=57
48960 On ch=1 n=g#4 v=57
48960 On ch=1 n=c#5 v=57
49680 On ch=1 n=c#5 v=0
49680 On ch=1 n=g#4 v=0
49680 On ch=1 n=f4 v=0
49680 On ch=1 n=f4 v=43
49680 On ch=1 n=g#4 v=43
49680 On ch=1 n=c#5 v=43
49920 On ch=1 n=c#5 v=0
49920 On ch=1 n=g#4 v=0
49920 On ch=1 n=f4 v=0
49920 Meta TrkEnd
TrkEnd
MTrk
0 Meta 0x21 00
0 Meta TrkName "Piano"
0 PrCh ch=2 p=0
0 Par ch=2 c=7 v=118
0 Par ch=2 c=10 v=52
0 On ch=2 n=c#3 v=67
35 Par ch=2 c=64 v=127
240 On ch=2 n=c#3 v=0
240 On ch=2 n=a4 v=67
240 On ch=2 n=c#5 v=67
240 On ch=2 n=f#5 v=67
480 On ch=2 n=f#5 v=0
480 On ch=2 n=c#5 v=0
480 On ch=2 n=a4 v=0
480 On ch=2 n=g#4 v=67
480 On ch=2 n=c#5 v=67
480 On ch=2 n=e5 v=67
720 On ch=2 n=e5 v=0
720 On ch=2 n=c#5 v=0
720 On ch=2 n=g#4 v=0
720 On ch=2 n=c#3 v=67
960 On ch=2 n=c#3 v=0
960 On ch=2 n=g#4 v=67
960 On ch=2 n=c5 v=67
960 On ch=2 n=f#5 v=67
1175 Par ch=2 c=64 v=0
1200 On ch=2 n=f#5 v=0
1200 On ch=2 n=c5 v=0
1200 On ch=2 n=g#4 v=0
1200 On ch=2 n=g#4 v=67
1200 On ch=2 n=c#5 v=67
1200 On ch=2 n=e5 v=67
1440 On ch=2 n=e5 v=0
1440 On ch=2 n=c#5 v=0
1440 On ch=2 n=g#4 v=0
1440 On ch=2 n=c#3 v=67
1519 Par ch=2 c=64 v=127
1680 On ch=2 n=c#3 v=0
1680 On ch=2 n=a4 v=67
1680 On ch=2 n=c#5 v=67
1680 On ch=2 n=f#5 v=67
1908 Par ch=2 c=64 v=0
1920 On ch=2 n=f#5 v=0
1920 On ch=2 n=c#5 v=0
1920 On ch=2 n=a4 v=0
1920 On ch=2 n=g#4 v=67
1920 On ch=2 n=c#5 v=67
1920 On ch=2 n=e5 v=67
1951 Par ch=2 c=64 v=0
2160 On ch=2 n=e5 v=0
2160 On ch=2 n=c#5 v=0
2160 On ch=2 n=g#4 v=0
2160 On ch=2 n=b2 v=67
2160 On ch=2 n=b3 v=67
2227 Par ch=2 c=64 v=127
2400 On ch=2 n=b3 v=0
2400 On ch=2 n=b2 v=0
2400 On ch=2 n=a4 v=67
2400 On ch=2 n=b4 v=67
2400 On ch=2 n=f#5 v=67
2640 On ch=2 n=f#5 v=0
2640 On ch=2 n=b4 v=0
2640 On ch=2 n=a4 v=0
2640 On ch=2 n=g#4 v=67
2640 On ch=2 n=b4 v=67
2640 On ch=2 n=e5 v=67
2659 Par ch=2 c=64 v=0
2880 On ch=2 n=e5 v=0
2880 On ch=2 n=b4 v=0
2880 On ch=2 n=g#4 v=0
2880 On ch=2 n=b2 v=67
2880 On ch=2 n=b3 v=67
2935 Par ch=2 c=64 v=127
3120 On ch=2 n=b3 v=0
3120 On ch=2 n=b2 v=0
3120 On ch=2 n=a4 v=67
3120 On ch=2 n=b4 v=67
3120 On ch=2 n=f#5 v=67
3360 On ch=2 n=f#5 v=0
3360 On ch=2 n=b4 v=0
3360 On ch=2 n=a4 v=0
3360 On ch=2 n=g#4 v=67
3360 On ch=2 n=b4 v=67
3360 On ch=2 n=f5 v=67
3573 Par ch=2 c=64 v=0
3600 On ch=2 n=f5 v=0
3600 On ch=2 n=b4 v=0
3600 On ch=2 n=g#4 v=0
3600 On ch=2 n=a2 v=67
3600 On ch=2 n=a3 v=67
3677 Par ch=2 c=64 v=127
3840 On ch=2 n=a3 v=0
3840 On ch=2 n=a2 v=0
3840 On ch=2 n=a4 v=67
3840 On ch=2 n=c#5 v=67
3840 On ch=2 n=g#5 v=67
4074 Par ch=2 c=64 v=0
4080 On ch=2 n=g#5 v=0
4080 On ch=2 n=f#5 v=67
4320 On ch=2 n=f#5 v=0
4320 On ch=2 n=c#5 v=0
4320 On ch=2 n=a4 v=0
4320 On ch=2 n=f#2 v=67
4320 On ch=2 n=f#3 v=67
4332 Par ch=2 c=64 v=127
4560 On ch=2 n=f#3 v=0
4560 On ch=2 n=f#2 v=0
4560 On ch=2 n=c#5 v=67
4560 On ch=2 n=e5 v=67
4560 On ch=2 n=g#5 v=67
4800 On ch=2 n=g#5 v=0
4800 On ch=2 n=f#5 v=67
5040 On ch=2 n=f#5 v=0
5040 On ch=2 n=e5 v=0
5040 On ch=2 n=c#5 v=0
5040 Par ch=2 c=64 v=0
5040 On ch=2 n=g#2 v=67
5040 On ch=2 n=g#3 v=67
5144 Par ch=2 c=64 v=127
5280 On ch=2 n=g#3 v=0
5280 On ch=2 n=g#2 v=0
5280 On ch=2 n=g#4 v=67
5280 On ch=2 n=c5 v=67
5280 On ch=2 n=g#5 v=67
5520 On ch=2 n=g#5 v=0
5520 On ch=2 n=f#5 v=67
5524 Par ch=2 c=64 v=0
5760 On ch=2 n=f#5 v=0
5760 On ch=2 n=c5 v=0
5760 On ch=2 n=g#4 v=0
5760 On ch=2 n=c#3 v=67
5818 Par ch=2 c=64 v=127
6000 On ch=2 n=c#3 v=0
6000 On ch=2 n=a4 v=67
6000 On ch=2 n=c#5 v=67
6000 On ch=2 n=f#5 v=67
6240 On ch=2 n=f#5 v=0
6240 On ch=2 n=c#5 v=0
6240 On ch=2 n=a4 v=0
6240 On ch=2 n=g#4 v=67
6240 On ch=2 n=c#5 v=67
6240 On ch=2 n=e5 v=67
6480 On ch=2 n=e5 v=0
6480 On ch=2 n=c#5 v=0
6480 On ch=2 n=g#4 v=0
6480 On ch=2 n=c#3 v=67
6720 On ch=2 n=c#3 v=0
6720 On ch=2 n=g#4 v=67
6720 On ch=2 n=c5 v=67
6720 On ch=2 n=f#5 v=67
6870 Par ch=2 c=64 v=0
6960 On ch=2 n=f#5 v=0
6960 On ch=2 n=c5 v=0
6960 On ch=2 n=g#4 v=0
6960 On ch=2 n=g#4 v=67
6960 On ch=2 n=c#5 v=67
6960 On ch=2 n=e5 v=67
7200 On ch=2 n=e5 v=0
7200 On ch=2 n=c#5 v=0
7200 On ch=2 n=g#4 v=0
7200 On ch=2 n=c#3 v=67
7267 Par ch=2 c=64 v=127
7440 On ch=2 n=c#3 v=0
7440 On ch=2 n=a4 v=67
7440 On ch=2 n=c#5 v=67
7440 On ch=2 n=f#5 v=67
7680 On ch=2 n=f#5 v=0
7680 On ch=2 n=c#5 v=0
7680 On ch=2 n=a4 v=0
7680 On ch=2 n=g#4 v=67
7680 On ch=2 n=c#5 v=67
7680 On ch=2 n=e5 v=67
7768 Par ch=2 c=64 v=0
7920 On ch=2 n=e5 v=0
7920 On ch=2 n=c#5 v=0
7920 On ch=2 n=g#4 v=0
7920 On ch=2 n=b2 v=67
7920 On ch=2 n=b3 v=67
7940 Par ch=2 c=64 v=127
8160 On ch=2 n=b3 v=0
8160 On ch=2 n=b2 v=0
8160 On ch=2 n=a4 v=67
8160 On ch=2 n=b4 v=67
8160 On ch=2 n=f#5 v=67
8400 On ch=2 n=f#5 v=0
8400 On ch=2 n=b4 v=0
8400 On ch=2 n=a4 v=0
8400 On ch=2 n=g#4 v=67
8400 On ch=2 n=b4 v=67
8400 On ch=2 n=e5 v=67
8440 Par ch=2 c=64 v=0
8640 On ch=2 n=e5 v=0
8640 On ch=2 n=b4 v=0
8640 On ch=2 n=g#4 v=0
8640 On ch=2 n=b2 v=67
8640 On ch=2 n=b3 v=67
8665 Par ch=2 c=64 v=127
8880 On ch=2 n=b3 v=0
8880 On ch=2 n=b2 v=0
8880 On ch=2 n=a4 v=67
8880 On ch=2 n=b4 v=67
8880 On ch=2 n=f#5 v=67
9120 On ch=2 n=f#5 v=0
9120 On ch=2 n=b4 v=0
9120 On ch=2 n=a4 v=0
9120 On ch=2 n=g#4 v=67
9120 On ch=2 n=b4 v=67
9120 On ch=2 n=f5 v=67
9234 Par ch=2 c=64 v=0
9360 On ch=2 n=f5 v=0
9360 On ch=2 n=b4 v=0
9360 On ch=2 n=g#4 v=0
9360 On ch=2 n=a2 v=67
9360 On ch=2 n=a3 v=67
9372 Par ch=2 c=64 v=127
9600 On ch=2 n=a3 v=0
9600 On ch=2 n=a2 v=0
9600 On ch=2 n=a4 v=67
9600 On ch=2 n=c#5 v=67
9600 On ch=2 n=g#5 v=67
9828 Par ch=2 c=64 v=0
9840 On ch=2 n=g#5 v=0
9840 On ch=2 n=f#5 v=67
9855 Par ch=2 c=64 v=0
10080 On ch=2 n=f#5 v=0
10080 On ch=2 n=c#5 v=0
10080 On ch=2 n=a4 v=0
10080 Par ch=2 c=64 v=127
10080 On ch=2 n=f#2 v=67
10080 On ch=2 n=f#3 v=67
10320 On ch=2 n=f#3 v=0
10320 On ch=2 n=f#2 v=0
10320 On ch=2 n=c#5 v=67
10320 On ch=2 n=e5 v=67
10320 On ch=2 n=g#5 v=67
10560 On ch=2 n=g#5 v=0
10560 On ch=2 n=f#5 v=67
10754 Par ch=2 c=64 v=0
10800 On ch=2 n=f#5 v=0
10800 On ch=2 n=e5 v=0
10800 On ch=2 n=c#5 v=0
10800 On ch=2 n=b2 v=67
10800 On ch=2 n=b3 v=67
10891 Par ch=2 c=64 v=127
11040 On ch=2 n=b3 v=0
11040 On ch=2 n=b2 v=0
11040 On ch=2 n=a4 v=67
11040 On ch=2 n=b4 v=67
11040 On ch=2 n=f#5 v=67
11280 On ch=2 n=f#5 v=0
11280 On ch=2 n=d#5 v=67
11409 Par ch=2 c=64 v=0
11520 On ch=2 n=d#5 v=0
11520 On ch=2 n=b4 v=0
11520 On ch=2 n=a4 v=0
11520 On ch=2 n=e2 v=57
11520 On ch=2 n=e3 v=57
11581 Par ch=2 c=64 v=127
11760 On ch=2 n=e3 v=0
11760 On ch=2 n=e2 v=0
11760 On ch=2 n=c#5 v=57
11760 On ch=2 n=e5 v=57
11760 On ch=2 n=a5 v=57
12000 On ch=2 n=a5 v=0
12000 On ch=2 n=e5 v=0
12000 On ch=2 n=c#5 v=0
12000 On ch=2 n=b4 v=57
12000 On ch=2 n=d#5 v=57
12000 On ch=2 n=g#5 v=57
12240 On ch=2 n=g#5 v=0
12240 On ch=2 n=d#5 v=0
12240 On ch=2 n=b4 v=0
12240 On ch=2 n=e3 v=57
12480 On ch=2 n=e3 v=0
12480 On ch=2 n=a4 v=57
12480 On ch=2 n=c#5 v=57
12480 On ch=2 n=f#5 v=57
12720 On ch=2 n=f#5 v=0
12720 On ch=2 n=c#5 v=0
12720 On ch=2 n=a4 v=0
12720 On ch=2 n=g#4 v=57
12720 On ch=2 n=b4 v=57
12720 On ch=2 n=e5 v=57
12960 On ch=2 n=e5 v=0
12960 On ch=2 n=b4 v=0
12960 On ch=2 n=g#4 v=0
12960 On ch=2 n=e3 v=57
13200 On ch=2 n=e3 v=0
13200 On ch=2 n=f#4 v=57
13200 On ch=2 n=a4 v=57
13200 On ch=2 n=d#5 v=57
13440 On ch=2 n=d#5 v=0
13440 On ch=2 n=a4 v=0
13440 On ch=2 n=f#4 v=0
13440 On ch=2 n=e4 v=57
13440 On ch=2 n=g#4 v=57
13440 On ch=2 n=c#5 v=57
13680 On ch=2 n=c#5 v=0
13680 On ch=2 n=g#4 v=0
13680 On ch=2 n=e4 v=0
13680 On ch=2 n=e3 v=57
13843 Par ch=2 c=64 v=0
13920 On ch=2 n=e3 v=0
13920 On ch=2 n=c#4 v=57
13920 On ch=2 n=f#4 v=57
13920 On ch=2 n=a#4 v=57
14101 Par ch=2 c=64 v=127
14160 On ch=2 n=e3 v=57
14400 On ch=2 n=e3 v=0
14400 On ch=2 n=c#4 v=0
14400 On ch=2 n=f#4 v=0
14400 On ch=2 n=a#4 v=0
14400 On ch=2 n=e2 v=57
14640 On ch=2 n=e2 v=0
14640 On ch=2 n=c#4 v=57
14640 On ch=2 n=f#4 v=57
14640 On ch=2 n=a#4 v=57
14880 On ch=2 n=e2 v=57
14880 On ch=2 n=e3 v=57
15120 On ch=2 n=e3 v=0
15120 On ch=2 n=a#4 v=0
15120 On ch=2 n=c#4 v=0
15120 On ch=2 n=f#4 v=0
15120 On ch=2 n=e2 v=0
15120 Par ch=2 c=64 v=0
15120 On ch=2 n=d#2 v=57
15120 On ch=2 n=d#3 v=57
15241 Par ch=2 c=64 v=127
15360 On ch=2 n=d#3 v=0
15360 On ch=2 n=d#2 v=0
15360 On ch=2 n=d#4 v=57
15360 On ch=2 n=f#4 v=57
15600 On ch=2 n=f#4 v=0
15600 On ch=2 n=d#4 v=0
15600 On ch=2 n=d2 v=57
15600 On ch=2 n=d3 v=57
15620 Par ch=2 c=64 v=0
15840 On ch=2 n=d3 v=0
15840 On ch=2 n=d2 v=0
15840 On ch=2 n=c#2 v=57
15840 On ch=2 n=c#3 v=57
15898 Par ch=2 c=64 v=127
16080 On ch=2 n=c#3 v=0
16080 On ch=2 n=c#2 v=0
16080 On ch=2 n=b4 v=57
16080 On ch=2 n=d5 v=57
16080 On ch=2 n=g#5 v=57
16320 On ch=2 n=g#5 v=0
16320 On ch=2 n=d5 v=0
16320 On ch=2 n=b4 v=0
16320 On ch=2 n=a4 v=57
16320 On ch=2 n=c#5 v=57
16320 On ch=2 n=f#5 v=57
16560 On ch=2 n=f#5 v=0
16560 On ch=2 n=c#5 v=0
16560 On ch=2 n=a4 v=0
16560 On ch=2 n=c#3 v=57
16800 On ch=2 n=c#3 v=0
16800 On ch=2 n=g#4 v=57
16800 On ch=2 n=b4 v=57
16800 On ch=2 n=f5 v=57
17040 On ch=2 n=f5 v=0
17040 On ch=2 n=b4 v=0
17040 On ch=2 n=g#4 v=0
17040 On ch=2 n=f#4 v=57
17040 On ch=2 n=a4 v=57
17040 On ch=2 n=d5 v=57
17280 On ch=2 n=d5 v=0
17280 On ch=2 n=a4 v=0
17280 On ch=2 n=f#4 v=0
17280 On ch=2 n=c#3 v=57
17520 On ch=2 n=c#3 v=0
17520 On ch=2 n=f4 v=57
17520 On ch=2 n=g#4 v=57
17520 On ch=2 n=c#5 v=57
17760 On ch=2 n=c#5 v=0
17760 On ch=2 n=g#4 v=0
17760 On ch=2 n=f4 v=0
17760 On ch=2 n=d4 v=57
17760 On ch=2 n=f#4 v=57
17760 On ch=2 n=b4 v=57
17986 Par ch=2 c=64 v=0
18000 On ch=2 n=b4 v=0
18000 On ch=2 n=f#4 v=0
18000 On ch=2 n=d4 v=0
18000 On ch=2 n=c#3 v=57
18107 Par ch=2 c=64 v=127
18240 On ch=2 n=c#3 v=0
18240 On ch=2 n=b3 v=57
18240 On ch=2 n=f4 v=57
18240 On ch=2 n=g#4 v=57
18480 On ch=2 n=g#4 v=0
18480 On ch=2 n=f4 v=0
18480 On ch=2 n=b3 v=0
18480 On ch=2 n=c#3 v=57
18720 On ch=2 n=c#3 v=0
18720 On ch=2 n=d2 v=57
18720 On ch=2 n=d3 v=57
18729 Par ch=2 c=64 v=0
18816 Par ch=2 c=64 v=127
18960 On ch=2 n=d3 v=0
18960 On ch=2 n=d2 v=0
18960 On ch=2 n=a3 v=57
18960 On ch=2 n=f#4 v=57
19200 On ch=2 n=f#4 v=0
19200 On ch=2 n=a3 v=0
19200 On ch=2 n=d3 v=57
19437 Par ch=2 c=64 v=0
19440 On ch=2 n=d3 v=0
19440 On ch=2 n=e2 v=57
19440 On ch=2 n=e3 v=57
19540 Par ch=2 c=64 v=127
19680 On ch=2 n=e3 v=0
19680 On ch=2 n=e2 v=0
19680 On ch=2 n=g#3 v=57
19680 On ch=2 n=e4 v=57
19920 On ch=2 n=e4 v=0
19920 On ch=2 n=g#3 v=0
19920 On ch=2 n=e3 v=57
20093 Par ch=2 c=64 v=0
20160 On ch=2 n=e3 v=0
20160 On ch=2 n=a2 v=67
20196 Par ch=2 c=64 v=127
20400 On ch=2 n=a2 v=0
20400 On ch=2 n=a4 v=67
20400 On ch=2 n=d5 v=67
20400 On ch=2 n=f#5 v=67
20640 On ch=2 n=f#5 v=0
20640 On ch=2 n=d5 v=0
20640 On ch=2 n=c#5 v=67
20640 On ch=2 n=e5 v=67
20880 On ch=2 n=e5 v=0
20880 On ch=2 n=c#5 v=0
20880 On ch=2 n=a4 v=0
20880 On ch=2 n=a3 v=67
21120 On ch=2 n=a3 v=0
21120 On ch=2 n=a4 v=67
21120 On ch=2 n=c#5 v=67
21120 On ch=2 n=f#5 v=67
21318 Par ch=2 c=64 v=0
21360 On ch=2 n=f#5 v=0
21360 On ch=2 n=e5 v=67
21600 On ch=2 n=e5 v=0
21600 On ch=2 n=c#5 v=0
21600 On ch=2 n=a4 v=0
21600 On ch=2 n=g#3 v=67
21624 Par ch=2 c=64 v=127
21840 On ch=2 n=g#3 v=0
21840 On ch=2 n=a#4 v=67
21840 On ch=2 n=c#5 v=67
21840 On ch=2 n=f#5 v=67
22080 On ch=2 n=f#5 v=0
22080 On ch=2 n=c#5 v=0
22080 On ch=2 n=a#4 v=0
22080 On ch=2 n=g#4 v=67
22080 On ch=2 n=c#5 v=67
22080 On ch=2 n=f5 v=67
22320 On ch=2 n=f5 v=0
22320 On ch=2 n=c#5 v=0
22320 On ch=2 n=g#4 v=0
22320 On ch=2 n=c#3 v=67
22320 On ch=2 n=c#4 v=67
22560 On ch=2 n=c#4 v=0
22560 On ch=2 n=c#3 v=0
22560 On ch=2 n=g#4 v=67
22560 On ch=2 n=b4 v=67
22560 On ch=2 n=f#5 v=67
22800 On ch=2 n=f#5 v=0
22800 On ch=2 n=f5 v=67
22803 Par ch=2 c=64 v=0
23040 On ch=2 n=f5 v=0
23040 On ch=2 n=b4 v=0
23040 On ch=2 n=g#4 v=0
23040 On ch=2 n=c#3 v=67
23044 Par ch=2 c=64 v=127
23280 On ch=2 n=c#3 v=0
23280 On ch=2 n=b4 v=67
23280 On ch=2 n=f5 v=67
23280 On ch=2 n=a#5 v=67
23520 On ch=2 n=a#5 v=0
23520 On ch=2 n=g#5 v=67
23596 Par ch=2 c=64 v=0
23760 On ch=2 n=g#5 v=0
23760 On ch=2 n=f5 v=0
23760 On ch=2 n=b4 v=0
23760 On ch=2 n=f#2 v=67
23760 On ch=2 n=f#3 v=67
23873 Par ch=2 c=64 v=127
24000 On ch=2 n=f#3 v=0
24000 On ch=2 n=f#2 v=0
24000 On ch=2 n=c#5 v=67
24000 On ch=2 n=f#5 v=67
24000 On ch=2 n=c#6 v=67
24200 Par ch=2 c=64 v=0
24240 On ch=2 n=c#6 v=0
24240 On ch=2 n=f#5 v=0
24240 On ch=2 n=c#5 v=0
24240 On ch=2 n=g2 v=67
24240 On ch=2 n=g3 v=67
24356 Par ch=2 c=64 v=127
24480 On ch=2 n=g3 v=0
24480 On ch=2 n=g2 v=0
24480 On ch=2 n=c#5 v=67
24480 On ch=2 n=e5 v=67
24480 On ch=2 n=c#6 v=67
24649 Par ch=2 c=64 v=0
24720 On ch=2 n=c#6 v=0
24720 On ch=2 n=e5 v=0
24720 On ch=2 n=c#5 v=0
24720 On ch=2 n=g#2 v=67
24720 On ch=2 n=g#3 v=67
24822 Par ch=2 c=64 v=127
24960 On ch=2 n=g#3 v=0
24960 On ch=2 n=g#2 v=0
24960 On ch=2 n=c5 v=67
24960 On ch=2 n=d#5 v=67
24960 On ch=2 n=f#5 v=67
24960 On ch=2 n=g#5 v=67
24960 On ch=2 n=c6 v=67
25200 On ch=2 n=c6 v=0
25200 On ch=2 n=f#5 v=0
25200 On ch=2 n=c5 v=0
25200 On ch=2 n=d#5 v=0
25200 On ch=2 n=g#5 v=0
25200 On ch=2 n=g#2 v=67
25200 On ch=2 n=g#3 v=67
25680 On ch=2 n=g#3 v=0
25680 On ch=2 n=g#2 v=0
25680 On ch=2 n=g#4 v=67
25680 On ch=2 n=d#5 v=67
25680 On ch=2 n=f#5 v=67
25840 Par ch=2 c=64 v=0
25920 On ch=2 n=f#5 v=0
25920 On ch=2 n=d#5 v=0
25920 On ch=2 n=g#4 v=0
25920 On ch=2 n=c#3 v=67
25920 On ch=2 n=c#4 v=67
25943 Par ch=2 c=64 v=127
26160 On ch=2 n=c#4 v=0
26160 On ch=2 n=c#3 v=0
26160 On ch=2 n=a#4 v=67
26160 On ch=2 n=c#5 v=67
26160 On ch=2 n=f#5 v=67
26400 On ch=2 n=f#5 v=0
26400 On ch=2 n=c#5 v=0
26400 On ch=2 n=a#4 v=0
26400 On ch=2 n=g#4 v=67
26400 On ch=2 n=c#5 v=67
26400 On ch=2 n=f5 v=67
26640 On ch=2 n=f5 v=0
26640 On ch=2 n=c#5 v=0
26640 On ch=2 n=g#4 v=0
26640 On ch=2 n=c#3 v=67
26880 On ch=2 n=c#3 v=0
26880 On ch=2 n=g#4 v=67
26880 On ch=2 n=d#5 v=67
26880 On ch=2 n=f#5 v=67
27120 On ch=2 n=f#5 v=0
27120 On ch=2 n=d#5 v=0
27120 On ch=2 n=g#4 v=0
27120 On ch=2 n=c#5 v=67
27120 On ch=2 n=f5 v=67
27186 Par ch=2 c=64 v=0
27360 On ch=2 n=f5 v=0
27360 On ch=2 n=c#5 v=0
27360 On ch=2 n=c#3 v=67
27376 Par ch=2 c=64 v=127
27600 On ch=2 n=c#3 v=0
27600 On ch=2 n=a#4 v=67
27600 On ch=2 n=c#5 v=67
27600 On ch=2 n=f#5 v=67
27840 On ch=2 n=f#5 v=0
27840 On ch=2 n=c#5 v=0
27840 On ch=2 n=a#4 v=0
27840 On ch=2 n=g#4 v=67
27840 On ch=2 n=c#5 v=67
27840 On ch=2 n=f5 v=67
28080 On ch=2 n=f5 v=0
28080 On ch=2 n=c#5 v=0
28080 On ch=2 n=g#4 v=0
28080 On ch=2 n=c#3 v=67
28320 On ch=2 n=c#3 v=0
28320 On ch=2 n=g#4 v=67
28320 On ch=2 n=c5 v=67
28320 On ch=2 n=f#5 v=67
28560 On ch=2 n=f#5 v=0
28560 On ch=2 n=c5 v=0
28560 On ch=2 n=g#4 v=0
28560 On ch=2 n=g#4 v=67
28560 On ch=2 n=c#5 v=67
28560 On ch=2 n=f5 v=67
28654 Par ch=2 c=64 v=0
28800 On ch=2 n=f5 v=0
28800 On ch=2 n=c#5 v=0
28800 On ch=2 n=g#4 v=0
28800 On ch=2 n=c#3 v=67
28912 Par ch=2 c=64 v=127
29040 On ch=2 n=c#3 v=0
29040 On ch=2 n=f#4 v=67
29040 On ch=2 n=g#4 v=67
29040 On ch=2 n=c5 v=67
29280 On ch=2 n=c5 v=0
29280 On ch=2 n=g#4 v=0
29280 On ch=2 n=f#4 v=0
29280 On ch=2 n=f4 v=67
29280 On ch=2 n=g#4 v=67
29280 On ch=2 n=c#5 v=67
29499 Par ch=2 c=64 v=0
29520 On ch=2 n=c#5 v=0
29520 On ch=2 n=g#4 v=0
29520 On ch=2 n=f4 v=0
29520 On ch=2 n=c#3 v=67
29671 Par ch=2 c=64 v=127
29760 On ch=2 n=c#3 v=0
29760 On ch=2 n=g#3 v=67
29760 On ch=2 n=f#4 v=67
30000 On ch=2 n=f#4 v=0
30000 On ch=2 n=g#3 v=0
30000 On ch=2 n=c#4 v=67
30000 On ch=2 n=f4 v=67
30086 Par ch=2 c=64 v=0
30240 On ch=2 n=f4 v=0
30240 On ch=2 n=c#4 v=0
30240 On ch=2 n=e2 v=57
30240 On ch=2 n=e3 v=57
30293 Par ch=2 c=64 v=127
30480 On ch=2 n=e3 v=0
30480 On ch=2 n=e2 v=0
30480 On ch=2 n=c#5 v=57
30480 On ch=2 n=e5 v=57
30480 On ch=2 n=a5 v=57
30720 On ch=2 n=a5 v=0
30720 On ch=2 n=e5 v=0
30720 On ch=2 n=c#5 v=0
30720 On ch=2 n=b4 v=57
30720 On ch=2 n=d#5 v=57
30720 On ch=2 n=g#5 v=57
30960 On ch=2 n=g#5 v=0
30960 On ch=2 n=d#5 v=0
30960 On ch=2 n=b4 v=0
30960 On ch=2 n=e3 v=57
31200 On ch=2 n=e3 v=0
31200 On ch=2 n=a4 v=57
31200 On ch=2 n=c#5 v=57
31200 On ch=2 n=f#5 v=57
31440 On ch=2 n=f#5 v=0
31440 On ch=2 n=c#5 v=0
31440 On ch=2 n=a4 v=0
31440 On ch=2 n=g#4 v=57
31440 On ch=2 n=b4 v=57
31440 On ch=2 n=e5 v=57
31680 On ch=2 n=e5 v=0
31680 On ch=2 n=b4 v=0
31680 On ch=2 n=g#4 v=0
31680 On ch=2 n=e3 v=57
31920 On ch=2 n=e3 v=0
31920 On ch=2 n=f#4 v=57
31920 On ch=2 n=a4 v=57
31920 On ch=2 n=d#5 v=57
32160 On ch=2 n=d#5 v=0
32160 On ch=2 n=a4 v=0
32160 On ch=2 n=f#4 v=0
32160 On ch=2 n=e4 v=57
32160 On ch=2 n=g#4 v=57
32160 On ch=2 n=c#5 v=57
32400 On ch=2 n=c#5 v=0
32400 On ch=2 n=g#4 v=0
32400 On ch=2 n=e4 v=0
32400 On ch=2 n=e3 v=57
32589 Par ch=2 c=64 v=0
32640 On ch=2 n=e3 v=0
32640 On ch=2 n=c#4 v=57
32640 On ch=2 n=f#4 v=57
32640 On ch=2 n=a#4 v=57
32796 Par ch=2 c=64 v=127
32880 On ch=2 n=e3 v=57
33120 On ch=2 n=e3 v=0
33120 On ch=2 n=c#4 v=0
33120 On ch=2 n=f#4 v=0
33120 On ch=2 n=a#4 v=0
33120 On ch=2 n=e2 v=57
33360 On ch=2 n=e2 v=0
33360 On ch=2 n=c#4 v=57
33360 On ch=2 n=f#4 v=57
33360 On ch=2 n=a#4 v=57
33600 On ch=2 n=e2 v=57
33600 On ch=2 n=e3 v=57
33840 On ch=2 n=e3 v=0
33840 On ch=2 n=a#4 v=0
33840 On ch=2 n=c#4 v=0
33840 On ch=2 n=f#4 v=0
33840 On ch=2 n=e2 v=0
33840 On ch=2 n=d#2 v=57
33840 On ch=2 n=d#3 v=57
33848 Par ch=2 c=64 v=0
33952 Par ch=2 c=64 v=127
34080 On ch=2 n=d#3 v=0
34080 On ch=2 n=d#2 v=0
34080 On ch=2 n=d#4 v=57
34080 On ch=2 n=f#4 v=57
34280 Par ch=2 c=64 v=0
34320 On ch=2 n=f#4 v=0
34320 On ch=2 n=d#4 v=0
34320 On ch=2 n=d2 v=57
34320 On ch=2 n=d3 v=57
34560 On ch=2 n=d3 v=0
34560 On ch=2 n=d2 v=0
34560 On ch=2 n=c#2 v=57
34560 On ch=2 n=c#3 v=57
34625 Par ch=2 c=64 v=127
34800 On ch=2 n=c#3 v=0
34800 On ch=2 n=c#2 v=0
34800 On ch=2 n=b4 v=57
34800 On ch=2 n=d5 v=57
34800 On ch=2 n=g#5 v=57
35040 On ch=2 n=g#5 v=0
35040 On ch=2 n=d5 v=0
35040 On ch=2 n=b4 v=0
35040 On ch=2 n=a4 v=57
35040 On ch=2 n=c#5 v=57
35040 On ch=2 n=f#5 v=57
35280 On ch=2 n=f#5 v=0
35280 On ch=2 n=c#5 v=0
35280 On ch=2 n=a4 v=0
35280 On ch=2 n=c#3 v=57
35520 On ch=2 n=c#3 v=0
35520 On ch=2 n=g#4 v=57
35520 On ch=2 n=b4 v=57
35520 On ch=2 n=f5 v=57
35760 On ch=2 n=f5 v=0
35760 On ch=2 n=b4 v=0
35760 On ch=2 n=g#4 v=0
35760 On ch=2 n=f#4 v=57
35760 On ch=2 n=a4 v=57
35760 On ch=2 n=d5 v=57
36000 On ch=2 n=d5 v=0
36000 On ch=2 n=a4 v=0
36000 On ch=2 n=f#4 v=0
36000 On ch=2 n=c#3 v=57
36240 On ch=2 n=c#3 v=0
36240 On ch=2 n=f4 v=57
36240 On ch=2 n=g#4 v=57
36240 On ch=2 n=c#5 v=57
36480 On ch=2 n=c#5 v=0
36480 On ch=2 n=g#4 v=0
36480 On ch=2 n=f4 v=0
36480 On ch=2 n=d4 v=57
36480 On ch=2 n=f#4 v=57
36480 On ch=2 n=b4 v=57
36713 Par ch=2 c=64 v=0
36720 On ch=2 n=b4 v=0
36720 On ch=2 n=f#4 v=0
36720 On ch=2 n=d4 v=0
36720 On ch=2 n=c#3 v=57
36834 Par ch=2 c=64 v=127
36960 On ch=2 n=c#3 v=0
36960 On ch=2 n=b3 v=57
36960 On ch=2 n=f4 v=57
36960 On ch=2 n=g#4 v=57
37200 On ch=2 n=g#4 v=0
37200 On ch=2 n=f4 v=0
37200 On ch=2 n=b3 v=0
37200 On ch=2 n=c#3 v=57
37440 On ch=2 n=c#3 v=0
37440 On ch=2 n=d2 v=57
37440 On ch=2 n=d3 v=57
37508 Par ch=2 c=64 v=0
37593 Par ch=2 c=64 v=127
37680 On ch=2 n=d3 v=0
37680 On ch=2 n=d2 v=0
37680 On ch=2 n=a3 v=57
37680 On ch=2 n=f#4 v=57
37920 On ch=2 n=f#4 v=0
37920 On ch=2 n=a3 v=0
37920 On ch=2 n=d3 v=57
38160 On ch=2 n=d3 v=0
38160 On ch=2 n=e2 v=57
38160 On ch=2 n=e3 v=57
38232 Par ch=2 c=64 v=0
38335 Par ch=2 c=64 v=127
TrkEnd
