MFile 1 3 240
MTrk
0 TimeSig 3/4 24 8
0 KeySig 0 major
0 Tempo 375000
33840 Tempo 389610
34080 Tempo 397351
34320 Tempo 410959
34560 Tempo 422535
35280 Tempo 375000
68400 Tempo 389610
68640 Tempo 397351
68880 Tempo 410959
69120 Tempo 422535
69120 Meta TrkEnd
TrkEnd
MTrk
0 Meta 0x21 00
0 Meta TrkName "Piano"
0 PrCh ch=1 p=0
0 Par ch=1 c=7 v=127
0 Par ch=1 c=10 v=72
480 On ch=1 n=d6 v=71
720 On ch=1 n=d6 v=0
720 On ch=1 n=a5 v=71
960 On ch=1 n=a5 v=0
1200 On ch=1 n=f6 v=71
1440 On ch=1 n=f6 v=0
1440 On ch=1 n=c#6 v=71
1680 On ch=1 n=c#6 v=0
1920 On ch=1 n=e6 v=71
2160 On ch=1 n=e6 v=0
2160 On ch=1 n=a5 v=71
2400 On ch=1 n=a5 v=0
2640 On ch=1 n=a6 v=71
2880 On ch=1 n=a6 v=0
2880 On ch=1 n=d6 v=71
3360 On ch=1 n=d6 v=0
3360 On ch=1 n=a#6 v=71
3600 On ch=1 n=a#6 v=0
3600 On ch=1 n=c#6 v=71
4080 On ch=1 n=c#6 v=0
4080 On ch=1 n=a6 v=71
4320 On ch=1 n=a6 v=0
4320 On ch=1 n=c6 v=71
4560 On ch=1 n=c6 v=0
4800 On ch=1 n=g6 v=71
5040 On ch=1 n=g6 v=0
5040 On ch=1 n=a#5 v=71
5280 On ch=1 n=a#5 v=0
5280 On ch=1 n=g5 v=71
5280 On ch=1 n=d#6 v=71
5520 On ch=1 n=d#6 v=0
5520 On ch=1 n=a5 v=71
5760 On ch=1 n=a5 v=0
5760 On ch=1 n=g5 v=0
5760 On ch=1 n=f#5 v=71
5760 On ch=1 n=a5 v=71
6240 On ch=1 n=a5 v=0
6240 On ch=1 n=f#5 v=0
6240 On ch=1 n=d6 v=71
6480 On ch=1 n=d6 v=0
6480 On ch=1 n=a5 v=71
6720 On ch=1 n=a5 v=0
6960 On ch=1 n=f6 v=71
7200 On ch=1 n=f6 v=0
7200 On ch=1 n=c#6 v=71
7440 On ch=1 n=c#6 v=0
7680 On ch=1 n=e6 v=71
7920 On ch=1 n=e6 v=0
7920 On ch=1 n=a5 v=71
8160 On ch=1 n=a5 v=0
8400 On ch=1 n=a6 v=71
8640 On ch=1 n=a6 v=0
8640 On ch=1 n=d6 v=71
8880 On ch=1 n=d6 v=0
9120 On ch=1 n=a#6 v=71
9360 On ch=1 n=a#6 v=0
9360 On ch=1 n=c#6 v=71
9600 On ch=1 n=c#6 v=0
9840 On ch=1 n=a6 v=71
10080 On ch=1 n=a6 v=0
10080 On ch=1 n=c6 v=71
10320 On ch=1 n=c6 v=0
10560 On ch=1 n=g6 v=71
10800 On ch=1 n=g6 v=0
10800 On ch=1 n=a#5 v=71
11040 On ch=1 n=a#5 v=0
11040 On ch=1 n=g5 v=71
11040 On ch=1 n=d#6 v=71
11280 On ch=1 n=d#6 v=0
11280 On ch=1 n=a5 v=71
11520 On ch=1 n=a5 v=0
11520 On ch=1 n=g5 v=0
11520 On ch=1 n=f#5 v=71
11520 On ch=1 n=a5 v=71
12000 On ch=1 n=a5 v=0
12000 On ch=1 n=f#5 v=0
12000 On ch=1 n=d6 v=71
12240 On ch=1 n=d6 v=0
12240 On ch=1 n=a#5 v=71
12480 On ch=1 n=a#5 v=0
12720 On ch=1 n=f6 v=71
12960 On ch=1 n=f6 v=0
12960 On ch=1 n=a#5 v=71
13200 On ch=1 n=a#5 v=0
13440 On ch=1 n=d#6 v=71
13680 On ch=1 n=d#6 v=0
13680 On ch=1 n=g#5 v=71
13920 On ch=1 n=g#5 v=0
14160 On ch=1 n=g#6 v=71
14400 On ch=1 n=g#6 v=0
14400 On ch=1 n=g6 v=71
14640 On ch=1 n=g6 v=0
14880 On ch=1 n=g6 v=71
15360 On ch=1 n=g6 v=0
15360 On ch=1 n=a5 v=71
15600 On ch=1 n=a5 v=0
15600 On ch=1 n=g6 v=71
16080 On ch=1 n=g6 v=0
16080 On ch=1 n=a5 v=71
16320 On ch=1 n=a5 v=0
16320 On ch=1 n=g6 v=71
16800 On ch=1 n=g6 v=0
16800 On ch=1 n=c#6 v=71
17040 On ch=1 n=c#6 v=0
17040 On ch=1 n=a6 v=71
17520 On ch=1 n=a6 v=0
17520 On ch=1 n=d6 v=71
17760 On ch=1 n=d6 v=0
17760 On ch=1 n=d7 v=71
18000 On ch=1 n=d7 v=0
18000 On ch=1 n=a#6 v=71
18000 On ch=1 n=d6 v=71
18240 On ch=1 n=d6 v=0
18240 On ch=1 n=a#6 v=0
18240 On ch=1 n=a#5 v=71
18480 On ch=1 n=a#5 v=0
18480 On ch=1 n=g6 v=71
18720 On ch=1 n=g6 v=0
18720 On ch=1 n=e6 v=71
18720 On ch=1 n=g5 v=71
18960 On ch=1 n=g5 v=0
18960 On ch=1 n=e6 v=0
18960 On ch=1 n=e5 v=71
19200 On ch=1 n=e5 v=0
19200 On ch=1 n=c7 v=71
19440 On ch=1 n=c7 v=0
19440 On ch=1 n=a6 v=71
19440 On ch=1 n=c6 v=71
19680 On ch=1 n=c6 v=0
19680 On ch=1 n=a6 v=0
19680 On ch=1 n=a5 v=71
19920 On ch=1 n=a5 v=0
19920 On ch=1 n=f6 v=71
20160 On ch=1 n=f6 v=0
20160 On ch=1 n=d6 v=71
20160 On ch=1 n=f5 v=71
20400 On ch=1 n=f5 v=0
20400 On ch=1 n=d6 v=0
20400 On ch=1 n=d5 v=71
20640 On ch=1 n=d5 v=0
20640 On ch=1 n=a#6 v=71
20880 On ch=1 n=a#6 v=0
20880 On ch=1 n=g#6 v=71
20880 On ch=1 n=d6 v=71
21120 On ch=1 n=d6 v=0
21120 On ch=1 n=g#6 v=0
21120 On ch=1 n=f5 v=71
21360 On ch=1 n=f5 v=0
21360 On ch=1 n=a6 v=71
21600 On ch=1 n=a6 v=0
21600 On ch=1 n=f#6 v=71
21600 On ch=1 n=a5 v=71
21840 On ch=1 n=a5 v=0
21840 On ch=1 n=f#6 v=0
21840 On ch=1 n=e5 v=71
22080 On ch=1 n=e5 v=0
22080 On ch=1 n=g6 v=71
22320 On ch=1 n=g6 v=0
22320 On ch=1 n=e6 v=71
22320 On ch=1 n=a5 v=71
22560 On ch=1 n=a5 v=0
22560 On ch=1 n=e6 v=0
22560 On ch=1 n=g#5 v=71
22560 On ch=1 n=f6 v=71
22800 On ch=1 n=f6 v=0
22800 On ch=1 n=d6 v=71
23040 On ch=1 n=d6 v=0
23040 On ch=1 n=g#5 v=0
23040 On ch=1 n=a5 v=71
23040 On ch=1 n=c#6 v=71
23520 On ch=1 n=c#6 v=0
23520 On ch=1 n=a5 v=0
23520 On ch=1 n=d6 v=71
23760 On ch=1 n=d6 v=0
23760 On ch=1 n=a#5 v=71
24000 On ch=1 n=a#5 v=0
24240 On ch=1 n=f6 v=71
24480 On ch=1 n=f6 v=0
24480 On ch=1 n=a#5 v=71
24720 On ch=1 n=a#5 v=0
24960 On ch=1 n=d#6 v=71
25200 On ch=1 n=d#6 v=0
25200 On ch=1 n=g#5 v=71
25440 On ch=1 n=g#5 v=0
25680 On ch=1 n=g#6 v=71
25920 On ch=1 n=g#6 v=0
25920 On ch=1 n=g6 v=71
26160 On ch=1 n=g6 v=0
26400 On ch=1 n=g6 v=71
26880 On ch=1 n=g6 v=0
26880 On ch=1 n=a5 v=71
27120 On ch=1 n=a5 v=0
27120 On ch=1 n=g6 v=71
27600 On ch=1 n=g6 v=0
27600 On ch=1 n=a5 v=71
27840 On ch=1 n=a5 v=0
27840 On ch=1 n=g6 v=71
28320 On ch=1 n=g6 v=0
28320 On ch=1 n=c#6 v=71
28560 On ch=1 n=c#6 v=0
28560 On ch=1 n=a6 v=71
29040 On ch=1 n=a6 v=0
29040 On ch=1 n=d6 v=71
29280 On ch=1 n=d6 v=0
29280 On ch=1 n=d7 v=71
29520 On ch=1 n=d7 v=0
29520 On ch=1 n=a#6 v=71
29520 On ch=1 n=d6 v=71
29760 On ch=1 n=d6 v=0
29760 On ch=1 n=a#6 v=0
29760 On ch=1 n=a#5 v=71
30000 On ch=1 n=a#5 v=0
30000 On ch=1 n=g6 v=71
30240 On ch=1 n=g6 v=0
30240 On ch=1 n=e6 v=71
30240 On ch=1 n=g5 v=71
30480 On ch=1 n=g5 v=0
30480 On ch=1 n=e6 v=0
30480 On ch=1 n=e5 v=71
30720 On ch=1 n=e5 v=0
30720 On ch=1 n=c7 v=71
30960 On ch=1 n=c7 v=0
30960 On ch=1 n=a6 v=71
30960 On ch=1 n=c6 v=71
31200 On ch=1 n=c6 v=0
31200 On ch=1 n=a6 v=0
31200 On ch=1 n=a5 v=71
31440 On ch=1 n=a5 v=0
31440 On ch=1 n=f6 v=71
31680 On ch=1 n=f6 v=0
31680 On ch=1 n=d6 v=71
31680 On ch=1 n=f5 v=71
31920 On ch=1 n=f5 v=0
31920 On ch=1 n=d6 v=0
31920 On ch=1 n=a#4 v=71
31920 On ch=1 n=d5 v=71
32160 On ch=1 n=d5 v=0
32160 On ch=1 n=a#4 v=0
32160 On ch=1 n=f6 v=71
32400 On ch=1 n=f6 v=0
32400 On ch=1 n=g#5 v=71
32400 On ch=1 n=f5 v=71
32640 On ch=1 n=f5 v=0
32640 On ch=1 n=g#5 v=0
32640 On ch=1 n=d5 v=71
32880 On ch=1 n=d5 v=0
32880 On ch=1 n=e6 v=71
33120 On ch=1 n=e6 v=0
33120 On ch=1 n=g5 v=71
33120 On ch=1 n=e5 v=71
33360 On ch=1 n=e5 v=0
33360 On ch=1 n=g5 v=0
33360 On ch=1 n=a4 v=71
33600 On ch=1 n=a4 v=0
33600 On ch=1 n=d6 v=71
33840 On ch=1 n=d6 v=0
33840 On ch=1 n=f5 v=71
33840 On ch=1 n=d5 v=71
34080 On ch=1 n=d5 v=0
34080 On ch=1 n=f5 v=0
34080 On ch=1 n=d5 v=71
34080 On ch=1 n=a#5 v=71
34320 On ch=1 n=a#5 v=0
34320 On ch=1 n=e5 v=71
34560 On ch=1 n=e5 v=0
34560 On ch=1 n=d5 v=0
34560 On ch=1 n=c#5 v=71
34560 On ch=1 n=e5 v=71
35040 On ch=1 n=e5 v=0
35040 On ch=1 n=c#5 v=0
35040 On ch=1 n=c6 v=100
35072 Par ch=1 c=64 v=0
35280 On ch=1 n=c6 v=0
35280 On ch=1 n=a5 v=71
35520 On ch=1 n=a5 v=0
35760 On ch=1 n=f6 v=71
36000 On ch=1 n=f6 v=0
36000 On ch=1 n=c#6 v=71
36240 On ch=1 n=c#6 v=0
36480 On ch=1 n=e6 v=71
36720 On ch=1 n=e6 v=0
36720 On ch=1 n=a5 v=71
36960 On ch=1 n=a5 v=0
37200 On ch=1 n=a6 v=71
37440 On ch=1 n=a6 v=0
37440 On ch=1 n=d6 v=71
37920 On ch=1 n=d6 v=0
37920 On ch=1 n=a#6 v=71
38160 On ch=1 n=a#6 v=0
38160 On ch=1 n=c#6 v=71
38640 On ch=1 n=c#6 v=0
38640 On ch=1 n=a6 v=71
38880 On ch=1 n=a6 v=0
38880 On ch=1 n=c6 v=71
39120 On ch=1 n=c6 v=0
39360 On ch=1 n=g6 v=71
39600 On ch=1 n=g6 v=0
39600 On ch=1 n=a#5 v=71
39840 On ch=1 n=a#5 v=0
39840 On ch=1 n=g5 v=71
39840 On ch=1 n=d#6 v=71
40080 On ch=1 n=d#6 v=0
40080 On ch=1 n=a5 v=71
40320 On ch=1 n=a5 v=0
40320 On ch=1 n=g5 v=0
40320 On ch=1 n=f#5 v=71
40320 On ch=1 n=a5 v=71
40800 On ch=1 n=a5 v=0
40800 On ch=1 n=f#5 v=0
40800 On ch=1 n=d6 v=71
41040 On ch=1 n=d6 v=0
41040 On ch=1 n=a5 v=71
41280 On ch=1 n=a5 v=0
41520 On ch=1 n=f6 v=71
41760 On ch=1 n=f6 v=0
41760 On ch=1 n=c#6 v=71
42000 On ch=1 n=c#6 v=0
42240 On ch=1 n=e6 v=71
42480 On ch=1 n=e6 v=0
42480 On ch=1 n=a5 v=71
42720 On ch=1 n=a5 v=0
42960 On ch=1 n=a6 v=71
43200 On ch=1 n=a6 v=0
43200 On ch=1 n=d6 v=71
43440 On ch=1 n=d6 v=0
43680 On ch=1 n=a#6 v=71
43920 On ch=1 n=a#6 v=0
43920 On ch=1 n=c#6 v=71
44160 On ch=1 n=c#6 v=0
44400 On ch=1 n=a6 v=71
44640 On ch=1 n=a6 v=0
44640 On ch=1 n=c6 v=71
44880 On ch=1 n=c6 v=0
45120 On ch=1 n=g6 v=71
45360 On ch=1 n=g6 v=0
45360 On ch=1 n=a#5 v=71
45600 On ch=1 n=a#5 v=0
45600 On ch=1 n=g5 v=71
45600 On ch=1 n=d#6 v=71
45840 On ch=1 n=d#6 v=0
45840 On ch=1 n=a5 v=71
46080 On ch=1 n=a5 v=0
46080 On ch=1 n=g5 v=0
46080 On ch=1 n=f#5 v=71
46080 On ch=1 n=a5 v=71
46560 On ch=1 n=a5 v=0
46560 On ch=1 n=f#5 v=0
46560 On ch=1 n=d6 v=71
46800 On ch=1 n=d6 v=0
46800 On ch=1 n=a#5 v=71
47040 On ch=1 n=a#5 v=0
47280 On ch=1 n=f6 v=71
47520 On ch=1 n=f6 v=0
47520 On ch=1 n=a#5 v=71
47760 On ch=1 n=a#5 v=0
48000 On ch=1 n=d#6 v=71
48240 On ch=1 n=d#6 v=0
48240 On ch=1 n=g#5 v=71
48480 On ch=1 n=g#5 v=0
48720 On ch=1 n=g#6 v=71
48960 On ch=1 n=g#6 v=0
48960 On ch=1 n=g6 v=71
49200 On ch=1 n=g6 v=0
49440 On ch=1 n=g6 v=71
49920 On ch=1 n=g6 v=0
49920 On ch=1 n=a5 v=71
50160 On ch=1 n=a5 v=0
50160 On ch=1 n=g6 v=71
50640 On ch=1 n=g6 v=0
50640 On ch=1 n=a5 v=71
50880 On ch=1 n=a5 v=0
50880 On ch=1 n=g6 v=71
51360 On ch=1 n=g6 v=0
51360 On ch=1 n=c#6 v=71
51600 On ch=1 n=c#6 v=0
51600 On ch=1 n=a6 v=71
52080 On ch=1 n=a6 v=0
52080 On ch=1 n=d6 v=71
52320 On ch=1 n=d6 v=0
52320 On ch=1 n=d7 v=71
52560 On ch=1 n=d7 v=0
52560 On ch=1 n=a#6 v=71
52560 On ch=1 n=d6 v=71
52800 On ch=1 n=d6 v=0
52800 On ch=1 n=a#6 v=0
52800 On ch=1 n=a#5 v=71
53040 On ch=1 n=a#5 v=0
53040 On ch=1 n=g6 v=71
53280 On ch=1 n=g6 v=0
53280 On ch=1 n=e6 v=71
53280 On ch=1 n=g5 v=71
53520 On ch=1 n=g5 v=0
53520 On ch=1 n=e6 v=0
53520 On ch=1 n=e5 v=71
53760 On ch=1 n=e5 v=0
53760 On ch=1 n=c7 v=71
54000 On ch=1 n=c7 v=0
54000 On ch=1 n=a6 v=71
54000 On ch=1 n=c6 v=71
54240 On ch=1 n=c6 v=0
54240 On ch=1 n=a6 v=0
54240 On ch=1 n=a5 v=71
54480 On ch=1 n=a5 v=0
54480 On ch=1 n=f6 v=71
54720 On ch=1 n=f6 v=0
54720 On ch=1 n=d6 v=71
54720 On ch=1 n=f5 v=71
54960 On ch=1 n=f5 v=0
54960 On ch=1 n=d6 v=0
54960 On ch=1 n=d5 v=71
55200 On ch=1 n=d5 v=0
55200 On ch=1 n=a#6 v=71
55440 On ch=1 n=a#6 v=0
55440 On ch=1 n=g#6 v=71
55440 On ch=1 n=d6 v=71
55680 On ch=1 n=d6 v=0
55680 On ch=1 n=g#6 v=0
55680 On ch=1 n=f5 v=71
55920 On ch=1 n=f5 v=0
55920 On ch=1 n=a6 v=71
56160 On ch=1 n=a6 v=0
56160 On ch=1 n=f#6 v=71
56160 On ch=1 n=a5 v=71
56400 On ch=1 n=a5 v=0
56400 On ch=1 n=f#6 v=0
56400 On ch=1 n=e5 v=71
56640 On ch=1 n=e5 v=0
56640 On ch=1 n=g6 v=71
56880 On ch=1 n=g6 v=0
56880 On ch=1 n=e6 v=71
56880 On ch=1 n=a5 v=71
57120 On ch=1 n=a5 v=0
57120 On ch=1 n=e6 v=0
57120 On ch=1 n=g#5 v=71
57120 On ch=1 n=f6 v=71
57360 On ch=1 n=f6 v=0
57360 On ch=1 n=d6 v=71
57600 On ch=1 n=d6 v=0
57600 On ch=1 n=g#5 v=0
57600 On ch=1 n=a5 v=71
57600 On ch=1 n=c#6 v=71
58080 On ch=1 n=c#6 v=0
58080 On ch=1 n=a5 v=0
58080 On ch=1 n=d6 v=71
58320 On ch=1 n=d6 v=0
58320 On ch=1 n=a#5 v=71
58560 On ch=1 n=a#5 v=0
58800 On ch=1 n=f6 v=71
59040 On ch=1 n=f6 v=0
59040 On ch=1 n=a#5 v=71
59280 On ch=1 n=a#5 v=0
59520 On ch=1 n=d#6 v=71
59760 On ch=1 n=d#6 v=0
59760 On ch=1 n=g#5 v=71
60000 On ch=1 n=g#5 v=0
60240 On ch=1 n=g#6 v=71
60480 On ch=1 n=g#6 v=0
60480 On ch=1 n=g6 v=71
60720 On ch=1 n=g6 v=0
60960 On ch=1 n=g6 v=71
61440 On ch=1 n=g6 v=0
61440 On ch=1 n=a5 v=71
61680 On ch=1 n=a5 v=0
61680 On ch=1 n=g6 v=71
62160 On ch=1 n=g6 v=0
62160 On ch=1 n=a5 v=71
62400 On ch=1 n=a5 v=0
62400 On ch=1 n=g6 v=71
62880 On ch=1 n=g6 v=0
62880 On ch=1 n=c#6 v=71
63120 On ch=1 n=c#6 v=0
63120 On ch=1 n=a6 v=71
63600 On ch=1 n=a6 v=0
63600 On ch=1 n=d6 v=71
63840 On ch=1 n=d6 v=0
63840 On ch=1 n=d7 v=71
64080 On ch=1 n=d7 v=0
64080 On ch=1 n=a#6 v=71
64080 On ch=1 n=d6 v=71
64320 On ch=1 n=d6 v=0
64320 On ch=1 n=a#6 v=0
64320 On ch=1 n=a#5 v=71
64560 On ch=1 n=a#5 v=0
64560 On ch=1 n=g6 v=71
64800 On ch=1 n=g6 v=0
64800 On ch=1 n=e6 v=71
64800 On ch=1 n=g5 v=71
65040 On ch=1 n=g5 v=0
65040 On ch=1 n=e6 v=0
65040 On ch=1 n=e5 v=71
65280 On ch=1 n=e5 v=0
65280 On ch=1 n=c7 v=71
65520 On ch=1 n=c7 v=0
65520 On ch=1 n=a6 v=71
65520 On ch=1 n=c6 v=71
65760 On ch=1 n=c6 v=0
65760 On ch=1 n=a6 v=0
65760 On ch=1 n=a5 v=71
66000 On ch=1 n=a5 v=0
66000 On ch=1 n=f6 v=71
66240 On ch=1 n=f6 v=0
66240 On ch=1 n=d6 v=71
66240 On ch=1 n=f5 v=71
66480 On ch=1 n=f5 v=0
66480 On ch=1 n=d6 v=0
66480 On ch=1 n=a#4 v=71
66480 On ch=1 n=d5 v=71
66720 On ch=1 n=d5 v=0
66720 On ch=1 n=a#4 v=0
66720 On ch=1 n=f6 v=71
66960 On ch=1 n=f6 v=0
66960 On ch=1 n=g#5 v=71
66960 On ch=1 n=f5 v=71
67200 On ch=1 n=f5 v=0
67200 On ch=1 n=g#5 v=0
67200 On ch=1 n=d5 v=71
67440 On ch=1 n=d5 v=0
67440 On ch=1 n=e6 v=71
67680 On ch=1 n=e6 v=0
67680 On ch=1 n=g5 v=71
67680 On ch=1 n=e5 v=71
67920 On ch=1 n=e5 v=0
67920 On ch=1 n=g5 v=0
67920 On ch=1 n=a4 v=71
68160 On ch=1 n=a4 v=0
68160 On ch=1 n=d6 v=71
68400 On ch=1 n=d6 v=0
68400 On ch=1 n=f5 v=71
68400 On ch=1 n=d5 v=71
68640 On ch=1 n=d5 v=0
68640 On ch=1 n=f5 v=0
68640 On ch=1 n=d5 v=71
68640 On ch=1 n=a#5 v=71
68880 On ch=1 n=a#5 v=0
68880 On ch=1 n=e5 v=71
69120 On ch=1 n=e5 v=0
69120 On ch=1 n=d5 v=0
69120 On ch=1 n=d5 v=71
69120 On ch=1 n=d4 v=71
69600 On ch=1 n=d4 v=0
69632 Par ch=1 c=64 v=0
69840 On ch=1 n=d5 v=0
69840 Meta TrkEnd
TrkEnd
MTrk
0 Meta 0x21 00
0 Meta TrkName "Piano"
0 PrCh ch=2 p=0
0 Par ch=2 c=7 v=118
0 Par ch=2 c=10 v=52
720 On ch=2 n=d3 v=65
844 Par ch=2 c=64 v=127
960 On ch=2 n=d3 v=0
960 On ch=2 n=f4 v=65
960 On ch=2 n=a4 v=65
960 On ch=2 n=d5 v=65
972 Par ch=2 c=64 v=0
981 Par ch=2 c=64 v=0
1200 On ch=2 n=d5 v=0
1200 On ch=2 n=a4 v=0
1200 On ch=2 n=f4 v=0
1440 On ch=2 n=e3 v=65
1529 Par ch=2 c=64 v=127
1680 On ch=2 n=e3 v=0
1680 On ch=2 n=g4 v=65
1680 On ch=2 n=a#4 v=65
1680 On ch=2 n=c#5 v=65
1684 Par ch=2 c=64 v=0
1694 Par ch=2 c=64 v=0
1920 On ch=2 n=c#5 v=0
1920 On ch=2 n=a#4 v=0
1920 On ch=2 n=g4 v=0
2160 On ch=2 n=f3 v=65
2287 Par ch=2 c=64 v=127
2400 On ch=2 n=f3 v=0
2400 On ch=2 n=f4 v=65
2400 On ch=2 n=a4 v=65
2400 On ch=2 n=d5 v=65
2415 Par ch=2 c=64 v=0
2424 Par ch=2 c=64 v=0
2640 On ch=2 n=d5 v=0
2640 On ch=2 n=a4 v=0
2640 On ch=2 n=f4 v=0
2880 On ch=2 n=a#3 v=65
3009 Par ch=2 c=64 v=127
3120 On ch=2 n=a#3 v=0
3120 On ch=2 n=g4 v=65
3120 On ch=2 n=a#4 v=65
3120 On ch=2 n=d5 v=65
3164 Par ch=2 c=64 v=0
3173 Par ch=2 c=64 v=0
3360 On ch=2 n=d5 v=0
3360 On ch=2 n=a#4 v=0
3360 On ch=2 n=g4 v=0
3600 On ch=2 n=g3 v=65
3721 Par ch=2 c=64 v=127
3840 On ch=2 n=g3 v=0
3840 On ch=2 n=g4 v=65
3840 On ch=2 n=a#4 v=65
3840 On ch=2 n=e5 v=65
3877 Par ch=2 c=64 v=0
3886 Par ch=2 c=64 v=0
4080 On ch=2 n=e5 v=0
4080 On ch=2 n=a#4 v=0
4080 On ch=2 n=g4 v=0
4320 On ch=2 n=f#3 v=65
4425 Par ch=2 c=64 v=127
4560 On ch=2 n=f#3 v=0
4560 On ch=2 n=f#4 v=65
4560 On ch=2 n=a4 v=65
4560 On ch=2 n=d#5 v=65
4598 Par ch=2 c=64 v=0
4800 On ch=2 n=d#5 v=0
4800 On ch=2 n=a4 v=0
4800 On ch=2 n=f#4 v=0
5040 On ch=2 n=g4 v=65
5040 On ch=2 n=a#4 v=65
5040 On ch=2 n=d5 v=65
5274 Par ch=2 c=64 v=127
5280 On ch=2 n=d5 v=0
5280 On ch=2 n=a#4 v=0
5280 On ch=2 n=g4 v=0
5280 On ch=2 n=c4 v=65
5494 Par ch=2 c=64 v=0
5503 Par ch=2 c=64 v=0
5520 On ch=2 n=c4 v=0
5520 On ch=2 n=a4 v=65
5520 On ch=2 n=d#5 v=65
5759 Par ch=2 c=64 v=0
5760 On ch=2 n=d#5 v=0
5760 On ch=2 n=a4 v=0
5760 On ch=2 n=d3 v=65
5768 Par ch=2 c=64 v=127
6000 On ch=2 n=d3 v=0
6000 On ch=2 n=d4 v=65
6000 On ch=2 n=d5 v=65
6240 On ch=2 n=d5 v=0
6240 On ch=2 n=d4 v=0
6243 Par ch=2 c=64 v=0
6278 Pb ch=2 v=8030
6280 Pb ch=2 v=8111
6318 Pb ch=2 v=8030
6320 Pb ch=2 v=8111
6480 On ch=2 n=d3 v=65
6572 Par ch=2 c=64 v=0
6581 Par ch=2 c=64 v=127
6720 On ch=2 n=d3 v=0
6720 On ch=2 n=f4 v=65
6720 On ch=2 n=a4 v=65
6720 On ch=2 n=d5 v=65
6745 Par ch=2 c=64 v=0
6754 Par ch=2 c=64 v=0
6960 On ch=2 n=d5 v=0
6960 On ch=2 n=a4 v=0
6960 On ch=2 n=f4 v=0
7200 On ch=2 n=e3 v=65
7257 Par ch=2 c=64 v=127
7440 On ch=2 n=e3 v=0
7440 On ch=2 n=g4 v=65
7440 On ch=2 n=a#4 v=65
7440 On ch=2 n=c#5 v=65
7476 Par ch=2 c=64 v=0
7680 On ch=2 n=c#5 v=0
7680 On ch=2 n=a#4 v=0
7680 On ch=2 n=g4 v=0
7920 On ch=2 n=f3 v=65
8006 Par ch=2 c=64 v=127
8160 On ch=2 n=f3 v=0
8160 On ch=2 n=f4 v=65
8160 On ch=2 n=a4 v=65
8160 On ch=2 n=d5 v=65
8207 Par ch=2 c=64 v=0
8216 Par ch=2 c=64 v=0
8400 On ch=2 n=d5 v=0
8400 On ch=2 n=a4 v=0
8400 On ch=2 n=f4 v=0
8640 On ch=2 n=a#3 v=65
8718 Par ch=2 c=64 v=0
8727 Par ch=2 c=64 v=127
8880 On ch=2 n=a#3 v=0
8880 On ch=2 n=g4 v=65
8880 On ch=2 n=a#4 v=65
8880 On ch=2 n=d5 v=65
8928 Par ch=2 c=64 v=0
8937 Par ch=2 c=64 v=0
9120 On ch=2 n=d5 v=0
9120 On ch=2 n=a#4 v=0
9120 On ch=2 n=g4 v=0
9360 On ch=2 n=g3 v=65
9458 Par ch=2 c=64 v=0
9467 Par ch=2 c=64 v=127
9600 On ch=2 n=g3 v=0
9600 On ch=2 n=g4 v=65
9600 On ch=2 n=a#4 v=65
9600 On ch=2 n=e5 v=65
9668 Par ch=2 c=64 v=0
9840 On ch=2 n=e5 v=0
9840 On ch=2 n=a#4 v=0
9840 On ch=2 n=g4 v=0
10080 On ch=2 n=f#3 v=65
10180 Par ch=2 c=64 v=127
10320 On ch=2 n=f#3 v=0
10320 On ch=2 n=f#4 v=65
10320 On ch=2 n=a4 v=65
10320 On ch=2 n=d#5 v=65
10372 Par ch=2 c=64 v=0
10560 On ch=2 n=d#5 v=0
10560 On ch=2 n=a4 v=0
10560 On ch=2 n=f#4 v=0
10800 On ch=2 n=g4 v=65
10800 On ch=2 n=a#4 v=65
10800 On ch=2 n=d5 v=65
11040 On ch=2 n=d5 v=0
11040 On ch=2 n=a#4 v=0
11040 On ch=2 n=g4 v=0
11040 On ch=2 n=c4 v=65
11048 Par ch=2 c=64 v=127
11276 Par ch=2 c=64 v=0
11280 On ch=2 n=c4 v=0
11280 On ch=2 n=a4 v=65
11280 On ch=2 n=d#5 v=65
11285 Par ch=2 c=64 v=0
11520 On ch=2 n=d#5 v=0
11520 On ch=2 n=a4 v=0
11520 On ch=2 n=d3 v=65
11532 Par ch=2 c=64 v=127
11760 On ch=2 n=d3 v=0
11760 On ch=2 n=d4 v=65
11760 On ch=2 n=d5 v=65
11989 Par ch=2 c=64 v=0
12000 On ch=2 n=d5 v=0
12000 On ch=2 n=d4 v=0
12240 On ch=2 n=g#3 v=65
12345 Par ch=2 c=64 v=0
12354 Par ch=2 c=64 v=127
12480 On ch=2 n=g#3 v=0
12480 On ch=2 n=f4 v=65
12480 On ch=2 n=a#4 v=65
12480 On ch=2 n=d5 v=65
12518 Par ch=2 c=64 v=0
12528 Par ch=2 c=64 v=0
12720 On ch=2 n=d5 v=0
12720 On ch=2 n=a#4 v=0
12720 On ch=2 n=f4 v=0
12960 On ch=2 n=g3 v=65
13066 Par ch=2 c=64 v=127
13200 On ch=2 n=g3 v=0
13200 On ch=2 n=d#4 v=65
13200 On ch=2 n=a#4 v=65
13200 On ch=2 n=d#5 v=65
13240 Par ch=2 c=64 v=0
13249 Par ch=2 c=64 v=0
13440 On ch=2 n=d#5 v=0
13440 On ch=2 n=a#4 v=0
13440 On ch=2 n=d#4 v=0
13680 On ch=2 n=f3 v=65
13788 Par ch=2 c=64 v=127
13920 On ch=2 n=f3 v=0
13920 On ch=2 n=f4 v=65
13920 On ch=2 n=a#4 v=65
13920 On ch=2 n=d5 v=65
13962 Par ch=2 c=64 v=0
13971 Par ch=2 c=64 v=0
14160 On ch=2 n=d5 v=0
14160 On ch=2 n=a#4 v=0
14160 On ch=2 n=f4 v=0
14400 On ch=2 n=d#3 v=65
14519 Par ch=2 c=64 v=127
14640 On ch=2 n=d#3 v=0
14640 On ch=2 n=d#4 v=65
14640 On ch=2 n=a#4 v=65
14640 On ch=2 n=d#5 v=65
14674 Par ch=2 c=64 v=0
14683 Par ch=2 c=64 v=0
14880 On ch=2 n=d#5 v=0
14880 On ch=2 n=a#4 v=0
14880 On ch=2 n=d#4 v=0
15120 On ch=2 n=c#3 v=65
15241 Par ch=2 c=64 v=127
15360 On ch=2 n=c#3 v=0
15360 On ch=2 n=a4 v=65
15360 On ch=2 n=e5 v=65
15360 On ch=2 n=g5 v=65
15414 Par ch=2 c=64 v=0
15423 Par ch=2 c=64 v=0
15600 On ch=2 n=g5 v=0
15600 On ch=2 n=e5 v=0
15600 On ch=2 n=a4 v=0
15840 On ch=2 n=d3 v=65
15962 Par ch=2 c=64 v=127
16080 On ch=2 n=d3 v=0
16080 On ch=2 n=a4 v=65
16080 On ch=2 n=d5 v=65
16080 On ch=2 n=g5 v=65
16127 Par ch=2 c=64 v=0
16320 On ch=2 n=g5 v=0
16320 On ch=2 n=d5 v=0
16320 On ch=2 n=a4 v=0
16560 On ch=2 n=e3 v=65
16647 Par ch=2 c=64 v=127
16800 On ch=2 n=e3 v=0
16800 On ch=2 n=a4 v=65
16800 On ch=2 n=g5 v=65
16821 Par ch=2 c=64 v=0
16830 Par ch=2 c=64 v=0
17040 On ch=2 n=g5 v=0
17040 On ch=2 n=a4 v=0
17280 On ch=2 n=f#3 v=65
17387 Par ch=2 c=64 v=127
17520 On ch=2 n=f#3 v=0
17520 On ch=2 n=a4 v=65
17520 On ch=2 n=d5 v=65
17520 On ch=2 n=a5 v=65
17552 Par ch=2 c=64 v=0
17561 Par ch=2 c=64 v=0
17760 On ch=2 n=a5 v=0
17760 On ch=2 n=d5 v=0
17760 On ch=2 n=a4 v=0
17999 Par ch=2 c=64 v=0
18000 On ch=2 n=g3 v=65
18008 Par ch=2 c=64 v=127
18240 On ch=2 n=g3 v=0
18240 On ch=2 n=d5 v=65
18240 On ch=2 n=f5 v=65
18480 On ch=2 n=f5 v=0
18480 On ch=2 n=d5 v=0
18720 On ch=2 n=c4 v=65
18794 Par ch=2 c=64 v=0
18876 Par ch=2 c=64 v=0
18885 Par ch=2 c=64 v=127
18960 On ch=2 n=c4 v=0
18960 On ch=2 n=a#4 v=65
18960 On ch=2 n=c5 v=65
19022 Par ch=2 c=64 v=0
19200 On ch=2 n=c5 v=0
19200 On ch=2 n=a#4 v=0
19440 On ch=2 n=f3 v=65
19443 Par ch=2 c=64 v=0
19452 Par ch=2 c=64 v=127
19680 On ch=2 n=f3 v=0
19680 On ch=2 n=c5 v=65
19680 On ch=2 n=e5 v=65
19920 On ch=2 n=e5 v=0
19920 On ch=2 n=c5 v=0
20146 Par ch=2 c=64 v=0
20155 Par ch=2 c=64 v=0
20160 On ch=2 n=a#3 v=65
20228 Par ch=2 c=64 v=0
20237 Par ch=2 c=64 v=127
20374 Par ch=2 c=64 v=0
20384 Par ch=2 c=64 v=0
20400 On ch=2 n=a#3 v=0
20400 On ch=2 n=a4 v=65
20400 On ch=2 n=a#4 v=65
20640 On ch=2 n=a#4 v=0
20640 On ch=2 n=a4 v=0
20880 On ch=2 n=b3 v=65
20959 Par ch=2 c=64 v=127
21114 Par ch=2 c=64 v=0
21120 On ch=2 n=b3 v=0
21120 On ch=2 n=d5 v=65
21123 Par ch=2 c=64 v=0
21360 On ch=2 n=d5 v=0
21600 On ch=2 n=c#4 v=65
21690 Par ch=2 c=64 v=0
21699 Par ch=2 c=64 v=127
21837 On ch=2 n=c#4 v=0
21837 On ch=2 n=a4 v=65
21842 Par ch=2 c=64 v=0
22077 On ch=2 n=a4 v=0
22317 On ch=2 n=d4 v=65
22557 On ch=2 n=d4 v=0
22557 On ch=2 n=a#3 v=65
22582 Par ch=2 c=64 v=127
22797 On ch=2 n=a#3 v=0
22797 On ch=2 n=d4 v=65
22797 On ch=2 n=d5 v=65
22935 Par ch=2 c=64 v=0
22944 Par ch=2 c=64 v=0
23034 On ch=2 n=d5 v=0
23034 On ch=2 n=d4 v=0
23034 On ch=2 n=a3 v=65
23118 Par ch=2 c=64 v=127
23274 On ch=2 n=a3 v=0
23274 On ch=2 n=a4 v=65
23274 On ch=2 n=e5 v=65
23514 On ch=2 n=e5 v=0
23514 On ch=2 n=a4 v=0
23538 Par ch=2 c=64 v=0
23547 Par ch=2 c=64 v=0
23754 On ch=2 n=g#3 v=65
23840 Par ch=2 c=64 v=0
23849 Par ch=2 c=64 v=127
23994 On ch=2 n=g#3 v=0
23994 On ch=2 n=f4 v=65
23994 On ch=2 n=a#4 v=65
23994 On ch=2 n=d5 v=65
23995 Par ch=2 c=64 v=0
24004 Par ch=2 c=64 v=0
24234 On ch=2 n=d5 v=0
24234 On ch=2 n=a#4 v=0
24234 On ch=2 n=f4 v=0
24474 On ch=2 n=g3 v=65
24580 Par ch=2 c=64 v=127
24714 On ch=2 n=g3 v=0
24714 On ch=2 n=d#4 v=65
24714 On ch=2 n=a#4 v=65
24714 On ch=2 n=d#5 v=65
24726 Par ch=2 c=64 v=0
24735 Par ch=2 c=64 v=0
24954 On ch=2 n=d#5 v=0
24954 On ch=2 n=a#4 v=0
24954 On ch=2 n=d#4 v=0
25194 On ch=2 n=f3 v=65
25301 Par ch=2 c=64 v=127
25434 On ch=2 n=f3 v=0
25434 On ch=2 n=f4 v=65
25434 On ch=2 n=a#4 v=65
25434 On ch=2 n=d5 v=65
25457 Par ch=2 c=64 v=0
25466 Par ch=2 c=64 v=0
25674 On ch=2 n=d5 v=0
25674 On ch=2 n=a#4 v=0
25674 On ch=2 n=f4 v=0
25914 On ch=2 n=d#3 v=65
26032 Par ch=2 c=64 v=127
26154 On ch=2 n=d#3 v=0
26154 On ch=2 n=d#4 v=65
26154 On ch=2 n=a#4 v=65
26154 On ch=2 n=d#5 v=65
26178 Par ch=2 c=64 v=0
26187 Par ch=2 c=64 v=0
26394 On ch=2 n=d#5 v=0
26394 On ch=2 n=a#4 v=0
26394 On ch=2 n=d#4 v=0
26634 On ch=2 n=c#3 v=65
26745 Par ch=2 c=64 v=0
26754 Par ch=2 c=64 v=127
26874 On ch=2 n=c#3 v=0
26874 On ch=2 n=a4 v=65
26874 On ch=2 n=e5 v=65
26874 On ch=2 n=g5 v=65
26909 Par ch=2 c=64 v=0
27114 On ch=2 n=g5 v=0
27114 On ch=2 n=e5 v=0
27114 On ch=2 n=a4 v=0
27354 On ch=2 n=d3 v=65
27466 Par ch=2 c=64 v=127
27594 On ch=2 n=d3 v=0
27594 On ch=2 n=a4 v=65
27594 On ch=2 n=d5 v=65
27594 On ch=2 n=g5 v=65
27612 Par ch=2 c=64 v=0
27621 Par ch=2 c=64 v=0
27834 On ch=2 n=g5 v=0
27834 On ch=2 n=d5 v=0
27834 On ch=2 n=a4 v=0
28074 On ch=2 n=e3 v=65
28188 Par ch=2 c=64 v=0
28197 Par ch=2 c=64 v=127
28314 On ch=2 n=e3 v=0
28314 On ch=2 n=a4 v=65
28314 On ch=2 n=g5 v=65
28334 Par ch=2 c=64 v=0
28343 Par ch=2 c=64 v=0
28554 On ch=2 n=g5 v=0
28554 On ch=2 n=a4 v=0
28794 On ch=2 n=f#3 v=65
28910 Par ch=2 c=64 v=127
29034 On ch=2 n=f#3 v=0
29034 On ch=2 n=a4 v=65
29034 On ch=2 n=d5 v=65
29034 On ch=2 n=a5 v=65
29074 Par ch=2 c=64 v=0
29083 Par ch=2 c=64 v=0
29274 On ch=2 n=a5 v=0
29274 On ch=2 n=d5 v=0
29274 On ch=2 n=a4 v=0
29512 Par ch=2 c=64 v=0
29514 On ch=2 n=g3 v=65
29522 Par ch=2 c=64 v=127
29754 On ch=2 n=g3 v=0
29754 On ch=2 n=d5 v=65
29754 On ch=2 n=f5 v=65
29994 On ch=2 n=f5 v=0
29994 On ch=2 n=d5 v=0
30234 On ch=2 n=c4 v=65
30289 Par ch=2 c=64 v=0
30298 Par ch=2 c=64 v=0
30362 Par ch=2 c=64 v=0
30371 Par ch=2 c=64 v=127
30474 On ch=2 n=c4 v=0
30474 On ch=2 n=a#4 v=65
30474 On ch=2 n=c5 v=65
30481 Par ch=2 c=64 v=0
30714 On ch=2 n=c5 v=0
30714 On ch=2 n=a#4 v=0
30928 Par ch=2 c=64 v=0
30954 On ch=2 n=f3 v=65
30978 Par ch=2 c=64 v=127
31194 On ch=2 n=f3 v=0
31194 On ch=2 n=c5 v=65
31194 On ch=2 n=e5 v=65
31434 On ch=2 n=e5 v=0
31434 On ch=2 n=c5 v=0
31674 On ch=2 n=a#3 v=65
31714 Par ch=2 c=64 v=0
31778 Par ch=2 c=64 v=0
31787 Par ch=2 c=64 v=127
31914 On ch=2 n=a#3 v=0
31914 On ch=2 n=a4 v=65
31924 Par ch=2 c=64 v=0
31933 Par ch=2 c=64 v=0
32154 On ch=2 n=a4 v=0
32394 On ch=2 n=b3 v=65
32417 Par ch=2 c=64 v=0
32426 Par ch=2 c=64 v=127
32627 Par ch=2 c=64 v=0
32634 On ch=2 n=b3 v=0
32634 On ch=2 n=f4 v=65
32874 On ch=2 n=f4 v=0
33114 On ch=2 n=c#4 v=65
33176 Par ch=2 c=64 v=127
33354 On ch=2 n=c#4 v=0
33354 On ch=2 n=e4 v=65
33376 Par ch=2 c=64 v=0
33386 Par ch=2 c=64 v=0
33594 On ch=2 n=e4 v=0
33834 On ch=2 n=d4 v=65
34074 On ch=2 n=d4 v=0
34074 On ch=2 n=g3 v=65
34089 Par ch=2 c=64 v=0
34098 Par ch=2 c=64 v=127
34314 On ch=2 n=e4 v=65
34314 On ch=2 n=a#4 v=65
34473 Par ch=2 c=64 v=0
34530 Par ch=2 c=64 v=0
34554 On ch=2 n=a#4 v=0
34554 On ch=2 n=e4 v=0
34554 On ch=2 n=g3 v=0
34554 On ch=2 n=a2 v=65
34578 Par ch=2 c=64 v=127
34794 On ch=2 n=a2 v=0
34794 On ch=2 n=a3 v=65
34794 On ch=2 n=a4 v=65
35076 Par ch=2 c=64 v=0
35274 On ch=2 n=a4 v=0
35274 On ch=2 n=a3 v=0
35274 On ch=2 n=d3 v=65
35398 Par ch=2 c=64 v=127
35514 On ch=2 n=d3 v=0
35514 On ch=2 n=f4 v=65
35514 On ch=2 n=a4 v=65
35514 On ch=2 n=d5 v=65
35526 Par ch=2 c=64 v=0
35535 Par ch=2 c=64 v=0
35754 On ch=2 n=d5 v=0
35754 On ch=2 n=a4 v=0
35754 On ch=2 n=f4 v=0
35994 On ch=2 n=e3 v=65
36083 Par ch=2 c=64 v=127
36234 On ch=2 n=e3 v=0
36234 On ch=2 n=g4 v=65
36234 On ch=2 n=a#4 v=65
36234 On ch=2 n=c#5 v=65
36238 Par ch=2 c=64 v=0
36248 Par ch=2 c=64 v=0
36474 On ch=2 n=c#5 v=0
36474 On ch=2 n=a#4 v=0
36474 On ch=2 n=g4 v=0
36714 On ch=2 n=f3 v=65
36841 Par ch=2 c=64 v=127
36954 On ch=2 n=f3 v=0
36954 On ch=2 n=f4 v=65
36954 On ch=2 n=a4 v=65
36954 On ch=2 n=d5 v=65
36969 Par ch=2 c=64 v=0
36978 Par ch=2 c=64 v=0
37194 On ch=2 n=d5 v=0
37194 On ch=2 n=a4 v=0
37194 On ch=2 n=f4 v=0
37434 On ch=2 n=a#3 v=65
37563 Par ch=2 c=64 v=127
37674 On ch=2 n=a#3 v=0
37674 On ch=2 n=g4 v=65
37674 On ch=2 n=a#4 v=65
37674 On ch=2 n=d5 v=65
37718 Par ch=2 c=64 v=0
37727 Par ch=2 c=64 v=0
37914 On ch=2 n=d5 v=0
37914 On ch=2 n=a#4 v=0
37914 On ch=2 n=g4 v=0
38154 On ch=2 n=g3 v=65
38275 Par ch=2 c=64 v=127
38394 On ch=2 n=g3 v=0
38394 On ch=2 n=g4 v=65
38394 On ch=2 n=a#4 v=65
38394 On ch=2 n=e5 v=65
38431 Par ch=2 c=64 v=0
38440 Par ch=2 c=64 v=0
38634 On ch=2 n=e5 v=0
38634 On ch=2 n=a#4 v=0
38634 On ch=2 n=g4 v=0
38874 On ch=2 n=f#3 v=65
38979 Par ch=2 c=64 v=127
39114 On ch=2 n=f#3 v=0
39114 On ch=2 n=f#4 v=65
39114 On ch=2 n=a4 v=65
39114 On ch=2 n=d#5 v=65
39152 Par ch=2 c=64 v=0
39354 On ch=2 n=d#5 v=0
39354 On ch=2 n=a4 v=0
39354 On ch=2 n=f#4 v=0
39594 On ch=2 n=g4 v=65
39594 On ch=2 n=a#4 v=65
39594 On ch=2 n=d5 v=65
39828 Par ch=2 c=64 v=127
39834 On ch=2 n=d5 v=0
39834 On ch=2 n=a#4 v=0
39834 On ch=2 n=g4 v=0
39834 On ch=2 n=c4 v=65
40048 Par ch=2 c=64 v=0
40057 Par ch=2 c=64 v=0
40074 On ch=2 n=c4 v=0
40074 On ch=2 n=a4 v=65
40074 On ch=2 n=d#5 v=65
40313 Par ch=2 c=64 v=0
40314 On ch=2 n=d#5 v=0
40314 On ch=2 n=a4 v=0
40314 On ch=2 n=d3 v=65
40322 Par ch=2 c=64 v=127
40554 On ch=2 n=d3 v=0
40554 On ch=2 n=d4 v=65
40554 On ch=2 n=d5 v=65
40794 On ch=2 n=d5 v=0
40794 On ch=2 n=d4 v=0
40797 Par ch=2 c=64 v=0
40832 Pb ch=2 v=8030
40834 Pb ch=2 v=8111
40872 Pb ch=2 v=8030
40874 Pb ch=2 v=8111
41034 On ch=2 n=d3 v=65
41126 Par ch=2 c=64 v=0
41135 Par ch=2 c=64 v=127
41274 On ch=2 n=d3 v=0
41274 On ch=2 n=f4 v=65
41274 On ch=2 n=a4 v=65
41274 On ch=2 n=d5 v=65
41299 Par ch=2 c=64 v=0
41308 Par ch=2 c=64 v=0
41514 On ch=2 n=d5 v=0
41514 On ch=2 n=a4 v=0
41514 On ch=2 n=f4 v=0
41754 On ch=2 n=e3 v=65
41811 Par ch=2 c=64 v=127
41994 On ch=2 n=e3 v=0
41994 On ch=2 n=g4 v=65
41994 On ch=2 n=a#4 v=65
41994 On ch=2 n=c#5 v=65
42030 Par ch=2 c=64 v=0
42234 On ch=2 n=c#5 v=0
42234 On ch=2 n=a#4 v=0
42234 On ch=2 n=g4 v=0
42474 On ch=2 n=f3 v=65
42560 Par ch=2 c=64 v=127
42714 On ch=2 n=f3 v=0
42714 On ch=2 n=f4 v=65
42714 On ch=2 n=a4 v=65
42714 On ch=2 n=d5 v=65
42761 Par ch=2 c=64 v=0
42770 Par ch=2 c=64 v=0
42954 On ch=2 n=d5 v=0
42954 On ch=2 n=a4 v=0
42954 On ch=2 n=f4 v=0
43194 On ch=2 n=a#3 v=65
43272 Par ch=2 c=64 v=0
43281 Par ch=2 c=64 v=127
43434 On ch=2 n=a#3 v=0
43434 On ch=2 n=g4 v=65
43434 On ch=2 n=a#4 v=65
43434 On ch=2 n=d5 v=65
43482 Par ch=2 c=64 v=0
43491 Par ch=2 c=64 v=0
43674 On ch=2 n=d5 v=0
43674 On ch=2 n=a#4 v=0
43674 On ch=2 n=g4 v=0
43914 On ch=2 n=g3 v=65
44012 Par ch=2 c=64 v=0
44021 Par ch=2 c=64 v=127
44154 On ch=2 n=g3 v=0
44154 On ch=2 n=g4 v=65
44154 On ch=2 n=a#4 v=65
44154 On ch=2 n=e5 v=65
44222 Par ch=2 c=64 v=0
44394 On ch=2 n=e5 v=0
44394 On ch=2 n=a#4 v=0
44394 On ch=2 n=g4 v=0
44634 On ch=2 n=f#3 v=65
44734 Par ch=2 c=64 v=127
44874 On ch=2 n=f#3 v=0
44874 On ch=2 n=f#4 v=65
44874 On ch=2 n=a4 v=65
44874 On ch=2 n=d#5 v=65
44926 Par ch=2 c=64 v=0
45114 On ch=2 n=d#5 v=0
45114 On ch=2 n=a4 v=0
45114 On ch=2 n=f#4 v=0
45354 On ch=2 n=g4 v=65
45354 On ch=2 n=a#4 v=65
45354 On ch=2 n=d5 v=65
45594 On ch=2 n=d5 v=0
45594 On ch=2 n=a#4 v=0
45594 On ch=2 n=g4 v=0
45594 On ch=2 n=c4 v=65
45602 Par ch=2 c=64 v=127
45830 Par ch=2 c=64 v=0
45834 On ch=2 n=c4 v=0
45834 On ch=2 n=a4 v=65
45834 On ch=2 n=d#5 v=65
45839 Par ch=2 c=64 v=0
46074 On ch=2 n=d#5 v=0
46074 On ch=2 n=a4 v=0
46074 On ch=2 n=d3 v=65
46086 Par ch=2 c=64 v=127
46314 On ch=2 n=d3 v=0
46314 On ch=2 n=d4 v=65
46314 On ch=2 n=d5 v=65
46543 Par ch=2 c=64 v=0
46554 On ch=2 n=d5 v=0
46554 On ch=2 n=d4 v=0
46794 On ch=2 n=g#3 v=65
46899 Par ch=2 c=64 v=0
46908 Par ch=2 c=64 v=127
47034 On ch=2 n=g#3 v=0
47034 On ch=2 n=f4 v=65
47034 On ch=2 n=a#4 v=65
47034 On ch=2 n=d5 v=65
47072 Par ch=2 c=64 v=0
47082 Par ch=2 c=64 v=0
47274 On ch=2 n=d5 v=0
47274 On ch=2 n=a#4 v=0
47274 On ch=2 n=f4 v=0
47514 On ch=2 n=g3 v=65
47620 Par ch=2 c=64 v=127
47754 On ch=2 n=g3 v=0
47754 On ch=2 n=d#4 v=65
47754 On ch=2 n=a#4 v=65
47754 On ch=2 n=d#5 v=65
47794 Par ch=2 c=64 v=0
47803 Par ch=2 c=64 v=0
47994 On ch=2 n=d#5 v=0
47994 On ch=2 n=a#4 v=0
47994 On ch=2 n=d#4 v=0
48234 On ch=2 n=f3 v=65
48342 Par ch=2 c=64 v=127
48474 On ch=2 n=f3 v=0
48474 On ch=2 n=f4 v=65
48474 On ch=2 n=a#4 v=65
48474 On ch=2 n=d5 v=65
48516 Par ch=2 c=64 v=0
48525 Par ch=2 c=64 v=0
48714 On ch=2 n=d5 v=0
48714 On ch=2 n=a#4 v=0
48714 On ch=2 n=f4 v=0
48954 On ch=2 n=d#3 v=65
49073 Par ch=2 c=64 v=127
49194 On ch=2 n=d#3 v=0
49194 On ch=2 n=d#4 v=65
49194 On ch=2 n=a#4 v=65
49194 On ch=2 n=d#5 v=65
49228 Par ch=2 c=64 v=0
49237 Par ch=2 c=64 v=0
49434 On ch=2 n=d#5 v=0
49434 On ch=2 n=a#4 v=0
49434 On ch=2 n=d#4 v=0
49674 On ch=2 n=c#3 v=65
49795 Par ch=2 c=64 v=127
49914 On ch=2 n=c#3 v=0
49914 On ch=2 n=a4 v=65
49914 On ch=2 n=e5 v=65
49914 On ch=2 n=g5 v=65
49968 Par ch=2 c=64 v=0
49977 Par ch=2 c=64 v=0
50154 On ch=2 n=g5 v=0
50154 On ch=2 n=e5 v=0
50154 On ch=2 n=a4 v=0
50394 On ch=2 n=d3 v=65
50516 Par ch=2 c=64 v=127
50634 On ch=2 n=d3 v=0
50634 On ch=2 n=a4 v=65
50634 On ch=2 n=d5 v=65
50634 On ch=2 n=g5 v=65
50681 Par ch=2 c=64 v=0
50874 On ch=2 n=g5 v=0
50874 On ch=2 n=d5 v=0
50874 On ch=2 n=a4 v=0
51114 On ch=2 n=e3 v=65
51201 Par ch=2 c=64 v=127
51354 On ch=2 n=e3 v=0
51354 On ch=2 n=a4 v=65
51354 On ch=2 n=g5 v=65
51375 Par ch=2 c=64 v=0
51384 Par ch=2 c=64 v=0
51594 On ch=2 n=g5 v=0
51594 On ch=2 n=a4 v=0
51834 On ch=2 n=f#3 v=65
51941 Par ch=2 c=64 v=127
52074 On ch=2 n=f#3 v=0
52074 On ch=2 n=a4 v=65
52074 On ch=2 n=d5 v=65
52074 On ch=2 n=a5 v=65
52106 Par ch=2 c=64 v=0
52115 Par ch=2 c=64 v=0
52314 On ch=2 n=a5 v=0
52314 On ch=2 n=d5 v=0
52314 On ch=2 n=a4 v=0
52553 Par ch=2 c=64 v=0
52554 On ch=2 n=g3 v=65
52562 Par ch=2 c=64 v=127
52794 On ch=2 n=g3 v=0
52794 On ch=2 n=d5 v=65
52794 On ch=2 n=f5 v=65
53034 On ch=2 n=f5 v=0
53034 On ch=2 n=d5 v=0
53274 On ch=2 n=c4 v=65
53348 Par ch=2 c=64 v=0
53430 Par ch=2 c=64 v=0
53439 Par ch=2 c=64 v=127
53514 On ch=2 n=c4 v=0
53514 On ch=2 n=a#4 v=65
53514 On ch=2 n=c5 v=65
53576 Par ch=2 c=64 v=0
53754 On ch=2 n=c5 v=0
53754 On ch=2 n=a#4 v=0
53994 On ch=2 n=f3 v=65
53997 Par ch=2 c=64 v=0
54006 Par ch=2 c=64 v=127
54234 On ch=2 n=f3 v=0
54234 On ch=2 n=c5 v=65
54234 On ch=2 n=e5 v=65
54474 On ch=2 n=e5 v=0
54474 On ch=2 n=c5 v=0
54700 Par ch=2 c=64 v=0
54709 Par ch=2 c=64 v=0
54714 On ch=2 n=a#3 v=65
54782 Par ch=2 c=64 v=0
54791 Par ch=2 c=64 v=127
54928 Par ch=2 c=64 v=0
54938 Par ch=2 c=64 v=0
54954 On ch=2 n=a#3 v=0
54954 On ch=2 n=a4 v=65
54954 On ch=2 n=a#4 v=65
55194 On ch=2 n=a#4 v=0
55194 On ch=2 n=a4 v=0
55434 On ch=2 n=b3 v=65
55513 Par ch=2 c=64 v=127
55668 Par ch=2 c=64 v=0
55674 On ch=2 n=b3 v=0
55674 On ch=2 n=d5 v=65
55677 Par ch=2 c=64 v=0
55914 On ch=2 n=d5 v=0
56154 On ch=2 n=c#4 v=65
56244 Par ch=2 c=64 v=0
56253 Par ch=2 c=64 v=127
56391 On ch=2 n=c#4 v=0
56391 On ch=2 n=a4 v=65
56396 Par ch=2 c=64 v=0
56631 On ch=2 n=a4 v=0
56871 On ch=2 n=d4 v=65
57111 On ch=2 n=d4 v=0
57111 On ch=2 n=a#3 v=65
57136 Par ch=2 c=64 v=127
57351 On ch=2 n=a#3 v=0
57351 On ch=2 n=d4 v=65
57351 On ch=2 n=d5 v=65
57489 Par ch=2 c=64 v=0
57498 Par ch=2 c=64 v=0
57588 On ch=2 n=d5 v=0
57588 On ch=2 n=d4 v=0
57588 On ch=2 n=a3 v=65
57672 Par ch=2 c=64 v=127
57828 On ch=2 n=a3 v=0
57828 On ch=2 n=a4 v=65
57828 On ch=2 n=e5 v=65
58068 On ch=2 n=e5 v=0
58068 On ch=2 n=a4 v=0
58092 Par ch=2 c=64 v=0
58101 Par ch=2 c=64 v=0
58308 On ch=2 n=g#3 v=65
58394 Par ch=2 c=64 v=0
58403 Par ch=2 c=64 v=127
58548 On ch=2 n=g#3 v=0
58548 On ch=2 n=f4 v=65
58548 On ch=2 n=a#4 v=65
58548 On ch=2 n=d5 v=65
58549 Par ch=2 c=64 v=0
58558 Par ch=2 c=64 v=0
58788 On ch=2 n=d5 v=0
58788 On ch=2 n=a#4 v=0
58788 On ch=2 n=f4 v=0
59028 On ch=2 n=g3 v=65
59134 Par ch=2 c=64 v=127
59268 On ch=2 n=g3 v=0
59268 On ch=2 n=d#4 v=65
59268 On ch=2 n=a#4 v=65
59268 On ch=2 n=d#5 v=65
59280 Par ch=2 c=64 v=0
59289 Par ch=2 c=64 v=0
59508 On ch=2 n=d#5 v=0
59508 On ch=2 n=a#4 v=0
59508 On ch=2 n=d#4 v=0
59748 On ch=2 n=f3 v=65
59855 Par ch=2 c=64 v=127
59988 On ch=2 n=f3 v=0
59988 On ch=2 n=f4 v=65
59988 On ch=2 n=a#4 v=65
59988 On ch=2 n=d5 v=65
60011 Par ch=2 c=64 v=0
60020 Par ch=2 c=64 v=0
60228 On ch=2 n=d5 v=0
60228 On ch=2 n=a#4 v=0
60228 On ch=2 n=f4 v=0
60468 On ch=2 n=d#3 v=65
60586 Par ch=2 c=64 v=127
60708 On ch=2 n=d#3 v=0
60708 On ch=2 n=d#4 v=65
60708 On ch=2 n=a#4 v=65
60708 On ch=2 n=d#5 v=65
60732 Par ch=2 c=64 v=0
60741 Par ch=2 c=64 v=0
60948 On ch=2 n=d#5 v=0
60948 On ch=2 n=a#4 v=0
60948 On ch=2 n=d#4 v=0
61188 On ch=2 n=c#3 v=65
61299 Par ch=2 c=64 v=0
61308 Par ch=2 c=64 v=127
61428 On ch=2 n=c#3 v=0
61428 On ch=2 n=a4 v=65
61428 On ch=2 n=e5 v=65
61428 On ch=2 n=g5 v=65
61463 Par ch=2 c=64 v=0
61668 On ch=2 n=g5 v=0
61668 On ch=2 n=e5 v=0
61668 On ch=2 n=a4 v=0
61908 On ch=2 n=d3 v=65
62020 Par ch=2 c=64 v=127
62148 On ch=2 n=d3 v=0
62148 On ch=2 n=a4 v=65
62148 On ch=2 n=d5 v=65
62148 On ch=2 n=g5 v=65
62166 Par ch=2 c=64 v=0
62175 Par ch=2 c=64 v=0
62388 On ch=2 n=g5 v=0
62388 On ch=2 n=d5 v=0
62388 On ch=2 n=a4 v=0
62628 On ch=2 n=e3 v=65
62742 Par ch=2 c=64 v=0
62751 Par ch=2 c=64 v=127
62868 On ch=2 n=e3 v=0
62868 On ch=2 n=a4 v=65
62868 On ch=2 n=g5 v=65
62888 Par ch=2 c=64 v=0
62897 Par ch=2 c=64 v=0
63108 On ch=2 n=g5 v=0
63108 On ch=2 n=a4 v=0
63348 On ch=2 n=f#3 v=65
63464 Par ch=2 c=64 v=127
63588 On ch=2 n=f#3 v=0
63588 On ch=2 n=a4 v=65
63588 On ch=2 n=d5 v=65
63588 On ch=2 n=a5 v=65
63628 Par ch=2 c=64 v=0
63637 Par ch=2 c=64 v=0
63828 On ch=2 n=a5 v=0
63828 On ch=2 n=d5 v=0
63828 On ch=2 n=a4 v=0
64066 Par ch=2 c=64 v=0
64068 On ch=2 n=g3 v=65
64076 Par ch=2 c=64 v=127
64308 On ch=2 n=g3 v=0
64308 On ch=2 n=d5 v=65
64308 On ch=2 n=f5 v=65
64548 On ch=2 n=f5 v=0
64548 On ch=2 n=d5 v=0
64788 On ch=2 n=c4 v=65
64843 Par ch=2 c=64 v=0
64852 Par ch=2 c=64 v=0
64916 Par ch=2 c=64 v=0
64925 Par ch=2 c=64 v=127
65028 On ch=2 n=c4 v=0
65028 On ch=2 n=a#4 v=65
65028 On ch=2 n=c5 v=65
65035 Par ch=2 c=64 v=0
65268 On ch=2 n=c5 v=0
65268 On ch=2 n=a#4 v=0
65482 Par ch=2 c=64 v=0
65508 On ch=2 n=f3 v=65
65532 Par ch=2 c=64 v=127
65748 On ch=2 n=f3 v=0
65748 On ch=2 n=c5 v=65
65748 On ch=2 n=e5 v=65
65988 On ch=2 n=e5 v=0
65988 On ch=2 n=c5 v=0
66228 On ch=2 n=a#3 v=65
66268 Par ch=2 c=64 v=0
66332 Par ch=2 c=64 v=0
66341 Par ch=2 c=64 v=127
66468 On ch=2 n=a#3 v=0
66468 On ch=2 n=a4 v=65
66478 Par ch=2 c=64 v=0
66487 Par ch=2 c=64 v=0
66708 On ch=2 n=a4 v=0
66948 On ch=2 n=b3 v=65
66971 Par ch=2 c=64 v=0
66980 Par ch=2 c=64 v=127
67181 Par ch=2 c=64 v=0
67188 On ch=2 n=b3 v=0
67188 On ch=2 n=f4 v=65
67428 On ch=2 n=f4 v=0
67668 On ch=2 n=c#4 v=65
67730 Par ch=2 c=64 v=127
67908 On ch=2 n=c#4 v=0
67908 On ch=2 n=e4 v=65
67930 Par ch=2 c=64 v=0
67940 Par ch=2 c=64 v=0
68148 On ch=2 n=e4 v=0
68388 On ch=2 n=d4 v=65
68628 On ch=2 n=d4 v=0
68628 On ch=2 n=g3 v=65
68643 Par ch=2 c=64 v=0
68652 Par ch=2 c=64 v=127
68868 On ch=2 n=e4 v=65
68868 On ch=2 n=a#4 v=65
69027 Par ch=2 c=64 v=0
69084 Par ch=2 c=64 v=0
69108 On ch=2 n=a#4 v=0
69108 On ch=2 n=e4 v=0
69108 On ch=2 n=g3 v=0
69108 On ch=2 n=d4 v=65
69132 Par ch=2 c=64 v=127
69348 On ch=2 n=d4 v=0
69348 On ch=2 n=f4 v=65
69348 On ch=2 n=a3 v=65
69588 On ch=2 n=a3 v=0
69588 On ch=2 n=d3 v=60
69630 Par ch=2 c=64 v=0
69828 On ch=2 n=d3 v=0
69828 On ch=2 n=f4 v=0
69828 Meta TrkEnd
TrkEnd
