MFile 1 3 240
MTrk
0 TimeSig 3/4 24 8
0 KeySig 0 major
0 Tempo 333333
50400 Tempo 340909
50640 Tempo 350877
50880 Tempo 359281
51120 Tempo 382166
51120 Meta TrkEnd
TrkEnd
MTrk
0 Meta 0x21 00
0 Meta TrkName "Piano"
0 PrCh ch=1 p=0
0 Par ch=1 c=7 v=127
0 Par ch=1 c=10 v=72
1 On ch=1 n=a#5 v=76
3 On ch=1 n=c#6 v=76
25 On ch=1 n=a#5 v=0
27 On ch=1 n=c#6 v=0
27 On ch=1 n=b5 v=76
32 On ch=1 n=g#5 v=76
99 On ch=1 n=b5 v=0
104 On ch=1 n=g#5 v=0
118 On ch=1 n=a#5 v=76
120 On ch=1 n=g5 v=76
214 On ch=1 n=a#5 v=0
216 On ch=1 n=g5 v=0
240 On ch=1 n=b5 v=76
242 On ch=1 n=g#5 v=76
432 On ch=1 n=b5 v=0
434 On ch=1 n=g#5 v=0
483 On ch=1 n=c#6 v=76
507 On ch=1 n=c#6 v=0
510 On ch=1 n=g#5 v=76
511 On ch=1 n=b5 v=76
582 On ch=1 n=g#5 v=0
583 On ch=1 n=b5 v=0
600 On ch=1 n=a#5 v=76
601 On ch=1 n=g5 v=76
696 On ch=1 n=a#5 v=0
697 On ch=1 n=g5 v=0
718 On ch=1 n=b5 v=76
719 On ch=1 n=g#5 v=76
814 On ch=1 n=b5 v=0
815 On ch=1 n=g#5 v=0
843 On ch=1 n=a#5 v=76
843 On ch=1 n=c#6 v=76
939 On ch=1 n=c#6 v=0
939 On ch=1 n=a#5 v=0
960 On ch=1 n=b5 v=76
961 On ch=1 n=d#6 v=76
1248 On ch=1 n=b5 v=0
1249 On ch=1 n=d#6 v=0
1320 On ch=1 n=g5 v=76
1323 On ch=1 n=a#5 v=76
1416 On ch=1 n=g5 v=0
1419 On ch=1 n=a#5 v=0
1441 On ch=1 n=c#6 v=76
1465 On ch=1 n=c#6 v=0
1467 On ch=1 n=g#5 v=76
1467 On ch=1 n=b5 v=76
1539 On ch=1 n=b5 v=0
1539 On ch=1 n=g#5 v=0
1560 On ch=1 n=a#5 v=76
1561 On ch=1 n=g5 v=76
1656 On ch=1 n=a#5 v=0
1657 On ch=1 n=g5 v=0
1678 On ch=1 n=g#5 v=76
1679 On ch=1 n=b5 v=76
1870 On ch=1 n=g#5 v=0
1871 On ch=1 n=b5 v=0
1920 On ch=1 n=c#6 v=76
1944 On ch=1 n=c#6 v=0
1949 On ch=1 n=b5 v=76
1951 On ch=1 n=g#5 v=76
2021 On ch=1 n=b5 v=0
2023 On ch=1 n=g#5 v=0
2038 On ch=1 n=g5 v=76
2040 On ch=1 n=a#5 v=76
2134 On ch=1 n=g5 v=0
2136 On ch=1 n=a#5 v=0
2158 On ch=1 n=g#5 v=76
2163 On ch=1 n=b5 v=76
2254 On ch=1 n=g#5 v=0
2259 On ch=1 n=b5 v=0
2277 On ch=1 n=c#6 v=76
2283 On ch=1 n=a#5 v=76
2373 On ch=1 n=c#6 v=0
2379 On ch=1 n=a#5 v=0
2401 On ch=1 n=d#6 v=76
2403 On ch=1 n=b5 v=76
2497 On ch=1 n=d#6 v=0
2499 On ch=1 n=b5 v=0
2519 On ch=1 n=g#5 v=76
2521 On ch=1 n=f6 v=76
2615 On ch=1 n=g#5 v=0
2617 On ch=1 n=f6 v=0
2640 On ch=1 n=a#5 v=76
2641 On ch=1 n=f#6 v=76
2832 On ch=1 n=a#5 v=0
2833 On ch=1 n=f#6 v=0
2880 On ch=1 n=g#6 v=76
2904 On ch=1 n=g#6 v=0
2907 On ch=1 n=c#6 v=76
2907 On ch=1 n=f#6 v=76
2910 On ch=1 n=a5 v=76
2979 On ch=1 n=f#6 v=0
2979 On ch=1 n=c#6 v=0
2982 On ch=1 n=a5 v=0
3001 On ch=1 n=g#5 v=76
3002 On ch=1 n=c#6 v=76
3003 On ch=1 n=f6 v=76
3097 On ch=1 n=g#5 v=0
3098 On ch=1 n=c#6 v=0
3099 On ch=1 n=f6 v=0
3117 On ch=1 n=f#6 v=76
3120 On ch=1 n=a5 v=76
3121 On ch=1 n=c#6 v=76
3309 On ch=1 n=f#6 v=0
3312 On ch=1 n=a5 v=0
3313 On ch=1 n=c#6 v=0
3360 On ch=1 n=g#6 v=76
3384 On ch=1 n=g#6 v=0
3390 On ch=1 n=a5 v=76
3390 On ch=1 n=f#6 v=76
3392 On ch=1 n=c#6 v=76
3462 On ch=1 n=f#6 v=0
3462 On ch=1 n=a5 v=0
3464 On ch=1 n=c#6 v=0
3478 On ch=1 n=c#6 v=76
3479 On ch=1 n=f6 v=76
3480 On ch=1 n=g#5 v=76
3574 On ch=1 n=c#6 v=0
3575 On ch=1 n=f6 v=0
3576 On ch=1 n=g#5 v=0
3597 On ch=1 n=a5 v=76
3598 On ch=1 n=f#6 v=76
3602 On ch=1 n=c#6 v=76
3693 On ch=1 n=a5 v=0
3694 On ch=1 n=f#6 v=0
3698 On ch=1 n=c#6 v=0
3720 On ch=1 n=g#6 v=76
3721 On ch=1 n=b5 v=76
3816 On ch=1 n=g#6 v=0
3817 On ch=1 n=b5 v=0
3837 On ch=1 n=a6 v=76
3841 On ch=1 n=c#6 v=76
4125 On ch=1 n=a6 v=0
4129 On ch=1 n=c#6 v=0
4200 On ch=1 n=f6 v=76
4200 On ch=1 n=g#5 v=76
4296 On ch=1 n=g#5 v=0
4296 On ch=1 n=f6 v=0
4317 On ch=1 n=g#6 v=76
4341 On ch=1 n=g#6 v=0
4347 On ch=1 n=c#6 v=76
4352 On ch=1 n=f#6 v=76
4353 On ch=1 n=a5 v=76
4419 On ch=1 n=c#6 v=0
4424 On ch=1 n=f#6 v=0
4425 On ch=1 n=a5 v=0
4437 On ch=1 n=c#6 v=76
4437 On ch=1 n=f6 v=76
4438 On ch=1 n=g#5 v=76
4533 On ch=1 n=f6 v=0
4533 On ch=1 n=c#6 v=0
4534 On ch=1 n=g#5 v=0
4560 On ch=1 n=c#6 v=76
4561 On ch=1 n=a5 v=76
4563 On ch=1 n=f#6 v=76
4752 On ch=1 n=c#6 v=0
4753 On ch=1 n=a5 v=0
4755 On ch=1 n=f#6 v=0
4798 On ch=1 n=a5 v=76
4799 On ch=1 n=d6 v=76
4801 On ch=1 n=f#6 v=76
4894 On ch=1 n=a5 v=0
4895 On ch=1 n=d6 v=0
4897 On ch=1 n=f#6 v=0
4917 On ch=1 n=f#6 v=76
4917 On ch=1 n=a5 v=76
4921 On ch=1 n=d6 v=76
5013 On ch=1 n=a5 v=0
5013 On ch=1 n=f#6 v=0
5017 On ch=1 n=d6 v=0
5037 On ch=1 n=d6 v=76
5039 On ch=1 n=g6 v=76
5040 On ch=1 n=b5 v=76
5133 On ch=1 n=d6 v=0
5135 On ch=1 n=g6 v=0
5136 On ch=1 n=b5 v=0
5158 On ch=1 n=d6 v=76
5160 On ch=1 n=c6 v=76
5163 On ch=1 n=a6 v=76
5254 On ch=1 n=d6 v=0
5256 On ch=1 n=c6 v=0
5259 On ch=1 n=a6 v=0
5279 On ch=1 n=b6 v=76
5281 On ch=1 n=d6 v=76
5567 On ch=1 n=b6 v=0
5569 On ch=1 n=d6 v=0
5638 On ch=1 n=a5 v=76
5640 On ch=1 n=f#6 v=76
5734 On ch=1 n=a5 v=0
5736 On ch=1 n=f#6 v=0
5760 On ch=1 n=b5 v=70
5762 On ch=1 n=g6 v=70
6048 On ch=1 n=b5 v=0
6050 On ch=1 n=g6 v=0
6117 On ch=1 n=g6 v=68
6118 On ch=1 n=b5 v=68
6213 On ch=1 n=g6 v=0
6214 On ch=1 n=b5 v=0
6240 On ch=1 n=c6 v=67
6241 On ch=1 n=f#6 v=67
6432 On ch=1 n=c6 v=0
6433 On ch=1 n=f#6 v=0
6477 On ch=1 n=d#6 v=65
6483 On ch=1 n=a5 v=65
6765 On ch=1 n=d#6 v=0
6771 On ch=1 n=a5 v=0
6840 On ch=1 n=d#6 v=63
6841 On ch=1 n=a5 v=63
6936 On ch=1 n=d#6 v=0
6937 On ch=1 n=a5 v=0
6958 On ch=1 n=f#5 v=62
6961 On ch=1 n=b5 v=62
7150 On ch=1 n=f#5 v=0
7153 On ch=1 n=b5 v=0
7198 On ch=1 n=e6 v=60
7200 On ch=1 n=b5 v=60
7201 On ch=1 n=g#6 v=60
7486 On ch=1 n=e6 v=0
7488 On ch=1 n=b5 v=0
7489 On ch=1 n=g#6 v=0
7557 On ch=1 n=b5 v=58
7561 On ch=1 n=g#6 v=58
7563 On ch=1 n=e6 v=58
7653 On ch=1 n=b5 v=0
7657 On ch=1 n=g#6 v=0
7659 On ch=1 n=e6 v=0
7678 On ch=1 n=f#6 v=57
7679 On ch=1 n=a5 v=57
7683 On ch=1 n=c#6 v=57
7870 On ch=1 n=f#6 v=0
7871 On ch=1 n=a5 v=0
7875 On ch=1 n=c#6 v=0
7922 On ch=1 n=d#6 v=55
7923 On ch=1 n=a5 v=55
8210 On ch=1 n=d#6 v=0
8211 On ch=1 n=a5 v=0
8280 On ch=1 n=a5 v=53
8280 On ch=1 n=d#6 v=53
8376 On ch=1 n=d#6 v=0
8376 On ch=1 n=a5 v=0
8397 On ch=1 n=b5 v=52
8400 On ch=1 n=g#5 v=52
8589 On ch=1 n=b5 v=0
8592 On ch=1 n=g#5 v=0
8640 On ch=1 n=a#5 v=76
8642 On ch=1 n=c#6 v=76
8664 On ch=1 n=a#5 v=0
8666 On ch=1 n=c#6 v=0
8669 On ch=1 n=b5 v=76
8670 On ch=1 n=g#5 v=76
8741 On ch=1 n=b5 v=0
8742 On ch=1 n=g#5 v=0
8761 On ch=1 n=a#5 v=76
8762 On ch=1 n=g5 v=76
8857 On ch=1 n=a#5 v=0
8858 On ch=1 n=g5 v=0
8878 On ch=1 n=b5 v=76
8882 On ch=1 n=g#5 v=76
9070 On ch=1 n=b5 v=0
9074 On ch=1 n=g#5 v=0
9118 On ch=1 n=c#6 v=76
9142 On ch=1 n=c#6 v=0
9147 On ch=1 n=b5 v=76
9152 On ch=1 n=g#5 v=76
9219 On ch=1 n=b5 v=0
9224 On ch=1 n=g#5 v=0
9240 On ch=1 n=g5 v=76
9243 On ch=1 n=a#5 v=76
9336 On ch=1 n=g5 v=0
9339 On ch=1 n=a#5 v=0
9357 On ch=1 n=b5 v=76
9359 On ch=1 n=g#5 v=76
9453 On ch=1 n=b5 v=0
9455 On ch=1 n=g#5 v=0
9479 On ch=1 n=a#5 v=76
9480 On ch=1 n=c#6 v=76
9575 On ch=1 n=a#5 v=0
9576 On ch=1 n=c#6 v=0
9597 On ch=1 n=d#6 v=76
9598 On ch=1 n=b5 v=76
9885 On ch=1 n=d#6 v=0
9886 On ch=1 n=b5 v=0
9958 On ch=1 n=a#5 v=76
9959 On ch=1 n=g5 v=76
10054 On ch=1 n=a#5 v=0
10055 On ch=1 n=g5 v=0
10077 On ch=1 n=c#6 v=76
10101 On ch=1 n=c#6 v=0
10110 On ch=1 n=b5 v=76
10112 On ch=1 n=g#5 v=76
10182 On ch=1 n=b5 v=0
10184 On ch=1 n=g#5 v=0
10199 On ch=1 n=g5 v=76
10200 On ch=1 n=a#5 v=76
10295 On ch=1 n=g5 v=0
10296 On ch=1 n=a#5 v=0
10318 On ch=1 n=g#5 v=76
10319 On ch=1 n=b5 v=76
10510 On ch=1 n=g#5 v=0
10511 On ch=1 n=b5 v=0
10560 On ch=1 n=c#6 v=76
10584 On ch=1 n=c#6 v=0
10589 On ch=1 n=g#5 v=76
10592 On ch=1 n=b5 v=76
10661 On ch=1 n=g#5 v=0
10664 On ch=1 n=b5 v=0
10679 On ch=1 n=g5 v=76
10682 On ch=1 n=a#5 v=76
10775 On ch=1 n=g5 v=0
10778 On ch=1 n=a#5 v=0
10799 On ch=1 n=b5 v=76
10801 On ch=1 n=g#5 v=76
10895 On ch=1 n=b5 v=0
10897 On ch=1 n=g#5 v=0
10917 On ch=1 n=a#5 v=76
10920 On ch=1 n=c#6 v=76
11013 On ch=1 n=a#5 v=0
11016 On ch=1 n=c#6 v=0
11042 On ch=1 n=d#6 v=76
11043 On ch=1 n=b5 v=76
11138 On ch=1 n=d#6 v=0
11139 On ch=1 n=b5 v=0
11158 On ch=1 n=f6 v=76
11161 On ch=1 n=g#5 v=76
11254 On ch=1 n=f6 v=0
11257 On ch=1 n=g#5 v=0
11278 On ch=1 n=f#6 v=76
11282 On ch=1 n=a#5 v=76
11470 On ch=1 n=f#6 v=0
11474 On ch=1 n=a#5 v=0
11522 On ch=1 n=g#6 v=76
11546 On ch=1 n=g#6 v=0
11550 On ch=1 n=c#6 v=76
11550 On ch=1 n=f#6 v=76
11552 On ch=1 n=a5 v=76
11622 On ch=1 n=f#6 v=0
11622 On ch=1 n=c#6 v=0
11624 On ch=1 n=a5 v=0
11638 On ch=1 n=g#5 v=76
11638 On ch=1 n=c#6 v=76
11642 On ch=1 n=f6 v=76
11734 On ch=1 n=c#6 v=0
11734 On ch=1 n=g#5 v=0
11738 On ch=1 n=f6 v=0
11758 On ch=1 n=c#6 v=76
11760 On ch=1 n=a5 v=76
11763 On ch=1 n=f#6 v=76
11950 On ch=1 n=c#6 v=0
11952 On ch=1 n=a5 v=0
11955 On ch=1 n=f#6 v=0
12002 On ch=1 n=g#6 v=76
12026 On ch=1 n=g#6 v=0
12032 On ch=1 n=f#6 v=76
12033 On ch=1 n=a5 v=76
12033 On ch=1 n=c#6 v=76
12104 On ch=1 n=f#6 v=0
12105 On ch=1 n=c#6 v=0
12105 On ch=1 n=a5 v=0
12117 On ch=1 n=f6 v=76
12119 On ch=1 n=g#5 v=76
12121 On ch=1 n=c#6 v=76
12213 On ch=1 n=f6 v=0
12215 On ch=1 n=g#5 v=0
12240 On ch=1 n=f#6 v=76
12243 On ch=1 n=a5 v=76
12313 On ch=1 n=c#6 v=0
12336 On ch=1 n=f#6 v=0
12339 On ch=1 n=a5 v=0
12361 On ch=1 n=b5 v=76
12363 On ch=1 n=g#6 v=76
12457 On ch=1 n=b5 v=0
12459 On ch=1 n=g#6 v=0
12477 On ch=1 n=c#6 v=76
12480 On ch=1 n=a6 v=76
12765 On ch=1 n=c#6 v=0
12768 On ch=1 n=a6 v=0
12840 On ch=1 n=f6 v=76
12843 On ch=1 n=g#5 v=76
12936 On ch=1 n=f6 v=0
12939 On ch=1 n=g#5 v=0
12960 On ch=1 n=g#6 v=76
12984 On ch=1 n=g#6 v=0
12989 On ch=1 n=a5 v=76
12989 On ch=1 n=c#6 v=76
12990 On ch=1 n=f#6 v=76
13061 On ch=1 n=c#6 v=0
13061 On ch=1 n=a5 v=0
13062 On ch=1 n=f#6 v=0
13078 On ch=1 n=c#6 v=76
13081 On ch=1 n=f6 v=76
13082 On ch=1 n=g#5 v=76
13174 On ch=1 n=c#6 v=0
13177 On ch=1 n=f6 v=0
13178 On ch=1 n=g#5 v=0
13199 On ch=1 n=c#6 v=76
13199 On ch=1 n=f#6 v=76
13200 On ch=1 n=a5 v=76
13391 On ch=1 n=f#6 v=0
13391 On ch=1 n=c#6 v=0
13392 On ch=1 n=a5 v=0
13438 On ch=1 n=a5 v=76
13439 On ch=1 n=d6 v=76
13440 On ch=1 n=f#6 v=76
13534 On ch=1 n=a5 v=0
13535 On ch=1 n=d6 v=0
13536 On ch=1 n=f#6 v=0
13560 On ch=1 n=d6 v=76
13560 On ch=1 n=a5 v=76
13563 On ch=1 n=f#6 v=76
13656 On ch=1 n=a5 v=0
13659 On ch=1 n=f#6 v=0
13677 On ch=1 n=b5 v=76
13683 On ch=1 n=g6 v=76
13752 On ch=1 n=d6 v=0
13773 On ch=1 n=b5 v=0
13779 On ch=1 n=g6 v=0
13797 On ch=1 n=c6 v=76
13797 On ch=1 n=d6 v=76
13801 On ch=1 n=a6 v=76
13893 On ch=1 n=d6 v=0
13893 On ch=1 n=c6 v=0
13897 On ch=1 n=a6 v=0
13921 On ch=1 n=d6 v=76
13923 On ch=1 n=b6 v=76
14209 On ch=1 n=d6 v=0
14211 On ch=1 n=b6 v=0
14282 On ch=1 n=f#6 v=76
14282 On ch=1 n=a5 v=76
14378 On ch=1 n=a5 v=0
14378 On ch=1 n=f#6 v=0
14400 On ch=1 n=b5 v=70
14403 On ch=1 n=g6 v=70
14688 On ch=1 n=b5 v=0
14691 On ch=1 n=g6 v=0
14757 On ch=1 n=b5 v=68
14757 On ch=1 n=g6 v=68
14853 On ch=1 n=g6 v=0
14853 On ch=1 n=b5 v=0
14877 On ch=1 n=c6 v=67
14883 On ch=1 n=f#6 v=67
15069 On ch=1 n=c6 v=0
15075 On ch=1 n=f#6 v=0
15120 On ch=1 n=d#6 v=65
15123 On ch=1 n=a5 v=65
15408 On ch=1 n=d#6 v=0
15411 On ch=1 n=a5 v=0
15480 On ch=1 n=d#6 v=63
15483 On ch=1 n=a5 v=63
15576 On ch=1 n=d#6 v=0
15579 On ch=1 n=a5 v=0
15598 On ch=1 n=b5 v=62
15599 On ch=1 n=f#5 v=62
15790 On ch=1 n=b5 v=0
15791 On ch=1 n=f#5 v=0
15840 On ch=1 n=e6 v=60
15841 On ch=1 n=b5 v=60
15843 On ch=1 n=g#6 v=60
16128 On ch=1 n=e6 v=0
16129 On ch=1 n=b5 v=0
16131 On ch=1 n=g#6 v=0
16200 On ch=1 n=e6 v=58
16200 On ch=1 n=g#6 v=58
16202 On ch=1 n=b5 v=58
16296 On ch=1 n=g#6 v=0
16296 On ch=1 n=e6 v=0
16298 On ch=1 n=b5 v=0
16319 On ch=1 n=c#6 v=57
16320 On ch=1 n=a5 v=57
16321 On ch=1 n=f#6 v=57
16511 On ch=1 n=c#6 v=0
16512 On ch=1 n=a5 v=0
16513 On ch=1 n=f#6 v=0
16559 On ch=1 n=d#6 v=55
16563 On ch=1 n=a5 v=55
16847 On ch=1 n=d#6 v=0
16851 On ch=1 n=a5 v=0
16917 On ch=1 n=d#6 v=53
16921 On ch=1 n=a5 v=53
17013 On ch=1 n=d#6 v=0
17017 On ch=1 n=a5 v=0
17039 On ch=1 n=b5 v=52
17040 On ch=1 n=g#5 v=52
17231 On ch=1 n=b5 v=0
17232 On ch=1 n=g#5 v=0
17283 On ch=1 n=c#6 v=50
17307 On ch=1 n=c#6 v=0
17312 On ch=1 n=b5 v=50
17313 On ch=1 n=g5 v=50
17384 On ch=1 n=b5 v=0
17385 On ch=1 n=g5 v=0
17400 On ch=1 n=f#5 v=50
17402 On ch=1 n=a#5 v=50
17496 On ch=1 n=f#5 v=0
17498 On ch=1 n=a#5 v=0
17517 On ch=1 n=g5 v=50
17520 On ch=1 n=b5 v=50
17805 On ch=1 n=g5 v=0
17808 On ch=1 n=b5 v=0
17879 On ch=1 n=e5 v=51
17880 On ch=1 n=g5 v=51
17975 On ch=1 n=e5 v=0
17976 On ch=1 n=g5 v=0
17998 On ch=1 n=f#6 v=52
18022 On ch=1 n=f#6 v=0
18030 On ch=1 n=e6 v=52
18031 On ch=1 n=g5 v=52
18102 On ch=1 n=e6 v=0
18103 On ch=1 n=g5 v=0
18117 On ch=1 n=f#5 v=52
18119 On ch=1 n=d#6 v=52
18213 On ch=1 n=f#5 v=0
18215 On ch=1 n=d#6 v=0
18239 On ch=1 n=g5 v=52
18239 On ch=1 n=e6 v=52
18527 On ch=1 n=e6 v=0
18527 On ch=1 n=g5 v=0
18598 On ch=1 n=b5 v=53
18603 On ch=1 n=g5 v=53
18694 On ch=1 n=b5 v=0
18699 On ch=1 n=g5 v=0
18719 On ch=1 n=d6 v=54
18743 On ch=1 n=d6 v=0
18751 On ch=1 n=g5 v=54
18753 On ch=1 n=c6 v=54
18823 On ch=1 n=g5 v=0
18825 On ch=1 n=c6 v=0
18837 On ch=1 n=g5 v=54
18840 On ch=1 n=b5 v=54
18933 On ch=1 n=g5 v=0
18936 On ch=1 n=b5 v=0
18958 On ch=1 n=g5 v=54
18959 On ch=1 n=c6 v=54
19246 On ch=1 n=g5 v=0
19247 On ch=1 n=c6 v=0
19320 On ch=1 n=g5 v=55
19416 On ch=1 n=g5 v=0
19441 On ch=1 n=a6 v=56
19465 On ch=1 n=a6 v=0
19467 On ch=1 n=g6 v=56
19471 On ch=1 n=e6 v=56
19539 On ch=1 n=g6 v=0
19543 On ch=1 n=e6 v=0
19560 On ch=1 n=d#6 v=56
19561 On ch=1 n=f#6 v=56
19656 On ch=1 n=d#6 v=0
19657 On ch=1 n=f#6 v=0
19680 On ch=1 n=e6 v=56
19680 On ch=1 n=g6 v=56
19968 On ch=1 n=g6 v=0
19968 On ch=1 n=e6 v=0
20040 On ch=1 n=e6 v=57
20041 On ch=1 n=c6 v=57
20136 On ch=1 n=e6 v=0
20137 On ch=1 n=c6 v=0
20160 On ch=1 n=f6 v=58
20162 On ch=1 n=d6 v=58
20352 On ch=1 n=f6 v=0
20354 On ch=1 n=d6 v=0
20518 On ch=1 n=a6 v=59
20520 On ch=1 n=b5 v=59
20614 On ch=1 n=a6 v=0
20616 On ch=1 n=b5 v=0
20638 On ch=1 n=c6 v=59
20640 On ch=1 n=e6 v=59
20734 On ch=1 n=c6 v=0
20736 On ch=1 n=e6 v=0
20757 On ch=1 n=a5 v=60
20760 On ch=1 n=g6 v=60
20853 On ch=1 n=a5 v=0
20856 On ch=1 n=g6 v=0
20877 On ch=1 n=d6 v=60
20880 On ch=1 n=b5 v=60
21165 On ch=1 n=d6 v=0
21168 On ch=1 n=b5 v=0
21238 On ch=1 n=g5 v=61
21241 On ch=1 n=f6 v=61
21334 On ch=1 n=g5 v=0
21337 On ch=1 n=f6 v=0
21357 On ch=1 n=a#5 v=61
21363 On ch=1 n=c#6 v=61
21453 On ch=1 n=a#5 v=0
21459 On ch=1 n=c#6 v=0
21477 On ch=1 n=e6 v=62
21477 On ch=1 n=g5 v=62
21573 On ch=1 n=g5 v=0
21573 On ch=1 n=e6 v=0
21599 On ch=1 n=f6 v=62
21599 On ch=1 n=d6 v=62
21791 On ch=1 n=d6 v=0
21791 On ch=1 n=f6 v=0
21957 On ch=1 n=b5 v=63
21963 On ch=1 n=a6 v=63
22053 On ch=1 n=b5 v=0
22059 On ch=1 n=a6 v=0
22077 On ch=1 n=c6 v=63
22082 On ch=1 n=e6 v=63
22173 On ch=1 n=c6 v=0
22178 On ch=1 n=e6 v=0
22200 On ch=1 n=a5 v=64
22201 On ch=1 n=g6 v=64
22296 On ch=1 n=a5 v=0
22297 On ch=1 n=g6 v=0
22318 On ch=1 n=b5 v=64
22320 On ch=1 n=d6 v=64
22510 On ch=1 n=b5 v=0
22512 On ch=1 n=d6 v=0
22680 On ch=1 n=g5 v=65
22682 On ch=1 n=f6 v=65
22776 On ch=1 n=g5 v=0
22778 On ch=1 n=f6 v=0
22798 On ch=1 n=a#5 v=65
22800 On ch=1 n=c#6 v=65
22894 On ch=1 n=a#5 v=0
22896 On ch=1 n=c#6 v=0
22917 On ch=1 n=g5 v=66
22920 On ch=1 n=e6 v=66
23013 On ch=1 n=g5 v=0
23016 On ch=1 n=e6 v=0
23039 On ch=1 n=a#5 v=66
23042 On ch=1 n=d#6 v=66
23231 On ch=1 n=a#5 v=0
23234 On ch=1 n=d#6 v=0
23397 On ch=1 n=c#6 v=67
23398 On ch=1 n=e5 v=67
23400 On ch=1 n=a#5 v=67
23401 On ch=1 n=e6 v=67
23493 On ch=1 n=c#6 v=0
23494 On ch=1 n=e5 v=0
23496 On ch=1 n=a#5 v=0
23497 On ch=1 n=e6 v=0
23518 On ch=1 n=d#5 v=68
23521 On ch=1 n=a#5 v=68
23522 On ch=1 n=d#6 v=68
23523 On ch=1 n=c#6 v=68
23710 On ch=1 n=d#5 v=0
23713 On ch=1 n=a#5 v=0
23714 On ch=1 n=d#6 v=0
23715 On ch=1 n=c#6 v=0
23878 On ch=1 n=b6 v=69
23881 On ch=1 n=b5 v=69
23883 On ch=1 n=g#6 v=69
23974 On ch=1 n=b6 v=0
23977 On ch=1 n=b5 v=0
23979 On ch=1 n=g#6 v=0
23999 On ch=1 n=g6 v=69
24000 On ch=1 n=a#5 v=69
24001 On ch=1 n=a#6 v=69
24191 On ch=1 n=g6 v=0
24192 On ch=1 n=a#5 v=0
24193 On ch=1 n=a#6 v=0
24361 On ch=1 n=g#7 v=70
24361 On ch=1 n=e7 v=70
24362 On ch=1 n=g#6 v=70
24457 On ch=1 n=e7 v=0
24457 On ch=1 n=g#7 v=0
24458 On ch=1 n=g#6 v=0
24477 On ch=1 n=g6 v=70
24479 On ch=1 n=g7 v=70
24480 On ch=1 n=d#7 v=70
24765 On ch=1 n=g6 v=0
24767 On ch=1 n=g7 v=0
24768 On ch=1 n=d#7 v=0
24837 On ch=1 n=e7 v=71
24861 On ch=1 n=e7 v=0
24871 On ch=1 n=d#7 v=71
24895 On ch=1 n=d#7 v=0
24900 On ch=1 n=c#7 v=72
24924 On ch=1 n=c#7 v=0
24932 On ch=1 n=b6 v=72
24956 On ch=1 n=b6 v=0
24960 On ch=1 n=a#6 v=72
24987 On ch=1 n=a#6 v=0
24992 On ch=1 n=g#6 v=72
25019 On ch=1 n=g#6 v=0
25028 On ch=1 n=g6 v=72
25055 On ch=1 n=g6 v=0
25061 On ch=1 n=e6 v=72
25089 On ch=1 n=e6 v=0
25096 On ch=1 n=d#6 v=72
25123 On ch=1 n=d#6 v=0
25131 On ch=1 n=c#6 v=72
25158 On ch=1 n=c#6 v=0
25163 On ch=1 n=b5 v=72
25190 On ch=1 n=b5 v=0
25199 On ch=1 n=a#5 v=72
25236 On ch=1 n=a#5 v=0
25246 On ch=1 n=g#5 v=73
25284 On ch=1 n=g#5 v=0
25295 On ch=1 n=g5 v=73
25333 On ch=1 n=g5 v=0
25338 On ch=1 n=e5 v=73
25376 On ch=1 n=e5 v=0
25388 On ch=1 n=g5 v=73
25426 On ch=1 n=g5 v=0
25438 On ch=1 n=g#5 v=73
25476 On ch=1 n=g#5 v=0
25483 On ch=1 n=a#5 v=73
25521 On ch=1 n=a#5 v=0
25529 On ch=1 n=b5 v=73
25566 On ch=1 n=b5 v=0
25576 On ch=1 n=c#6 v=74
25614 On ch=1 n=c#6 v=0
25629 On ch=1 n=d#6 v=74
25667 On ch=1 n=d#6 v=0
25676 On ch=1 n=e6 v=74
25714 On ch=1 n=e6 v=0
25723 On ch=1 n=g6 v=74
25761 On ch=1 n=g6 v=0
25769 On ch=1 n=g#6 v=74
25807 On ch=1 n=g#6 v=0
25821 On ch=1 n=a#6 v=74
25859 On ch=1 n=a#6 v=0
25864 On ch=1 n=c#7 v=74
25902 On ch=1 n=c#7 v=0
25914 On ch=1 n=g#6 v=76
25918 On ch=1 n=b6 v=76
25920 On ch=1 n=b5 v=76
26010 On ch=1 n=g#6 v=0
26014 On ch=1 n=b6 v=0
26016 On ch=1 n=b5 v=0
26035 On ch=1 n=g6 v=76
26038 On ch=1 n=a#5 v=76
26040 On ch=1 n=a#6 v=76
26131 On ch=1 n=g6 v=0
26134 On ch=1 n=a#5 v=0
26136 On ch=1 n=a#6 v=0
26156 On ch=1 n=g#6 v=76
26160 On ch=1 n=b5 v=76
26160 On ch=1 n=b6 v=76
26348 On ch=1 n=g#6 v=0
26352 On ch=1 n=b6 v=0
26352 On ch=1 n=b5 v=0
26400 On ch=1 n=c#7 v=76
26424 On ch=1 n=c#7 v=0
26424 On ch=1 n=b6 v=76
26426 On ch=1 n=g#6 v=76
26430 On ch=1 n=b5 v=76
26496 On ch=1 n=b6 v=0
26498 On ch=1 n=g#6 v=0
26502 On ch=1 n=b5 v=0
26514 On ch=1 n=a#5 v=76
26517 On ch=1 n=a#6 v=76
26520 On ch=1 n=g6 v=76
26610 On ch=1 n=a#5 v=0
26613 On ch=1 n=a#6 v=0
26616 On ch=1 n=g6 v=0
26634 On ch=1 n=b6 v=76
26639 On ch=1 n=g#6 v=76
26640 On ch=1 n=b5 v=76
26730 On ch=1 n=b6 v=0
26735 On ch=1 n=g#6 v=0
26736 On ch=1 n=b5 v=0
26755 On ch=1 n=a#6 v=76
26757 On ch=1 n=c#6 v=76
26759 On ch=1 n=c#7 v=76
26851 On ch=1 n=a#6 v=0
26853 On ch=1 n=c#6 v=0
26855 On ch=1 n=c#7 v=0
26874 On ch=1 n=b6 v=76
26877 On ch=1 n=d#7 v=76
26880 On ch=1 n=d#6 v=76
27162 On ch=1 n=b6 v=0
27165 On ch=1 n=d#7 v=0
27168 On ch=1 n=d#6 v=0
27237 On ch=1 n=g6 v=76
27238 On ch=1 n=a#5 v=76
27239 On ch=1 n=a#6 v=76
27333 On ch=1 n=g6 v=0
27334 On ch=1 n=a#5 v=0
27335 On ch=1 n=a#6 v=0
27360 On ch=1 n=c#7 v=76
27384 On ch=1 n=c#7 v=0
27386 On ch=1 n=g#6 v=76
27387 On ch=1 n=b5 v=76
27387 On ch=1 n=b6 v=76
27458 On ch=1 n=g#6 v=0
27459 On ch=1 n=b6 v=0
27459 On ch=1 n=b5 v=0
27477 On ch=1 n=a#6 v=76
27478 On ch=1 n=g6 v=76
27479 On ch=1 n=a#5 v=76
27573 On ch=1 n=a#6 v=0
27574 On ch=1 n=g6 v=0
27575 On ch=1 n=a#5 v=0
27596 On ch=1 n=b6 v=76
27597 On ch=1 n=g#6 v=76
27599 On ch=1 n=b5 v=76
27788 On ch=1 n=b6 v=0
27789 On ch=1 n=g#6 v=0
27791 On ch=1 n=b5 v=0
27835 On ch=1 n=c#7 v=76
27859 On ch=1 n=c#7 v=0
27866 On ch=1 n=g#6 v=76
27867 On ch=1 n=b5 v=76
27867 On ch=1 n=b6 v=76
27938 On ch=1 n=g#6 v=0
27939 On ch=1 n=b6 v=0
27939 On ch=1 n=b5 v=0
27954 On ch=1 n=g6 v=76
27955 On ch=1 n=a#6 v=76
27959 On ch=1 n=a#5 v=76
28050 On ch=1 n=g6 v=0
28051 On ch=1 n=a#6 v=0
28055 On ch=1 n=a#5 v=0
28074 On ch=1 n=b6 v=76
28075 On ch=1 n=b5 v=76
28076 On ch=1 n=g#6 v=76
28170 On ch=1 n=b6 v=0
28171 On ch=1 n=b5 v=0
28172 On ch=1 n=g#6 v=0
28195 On ch=1 n=c#6 v=76
28196 On ch=1 n=c#7 v=76
28200 On ch=1 n=a#6 v=76
28291 On ch=1 n=c#6 v=0
28292 On ch=1 n=c#7 v=0
28296 On ch=1 n=a#6 v=0
28316 On ch=1 n=b6 v=76
28317 On ch=1 n=d#7 v=76
28319 On ch=1 n=d#6 v=76
28412 On ch=1 n=b6 v=0
28413 On ch=1 n=d#7 v=0
28415 On ch=1 n=d#6 v=0
28434 On ch=1 n=g#6 v=76
28439 On ch=1 n=f6 v=76
28440 On ch=1 n=f7 v=76
28530 On ch=1 n=g#6 v=0
28535 On ch=1 n=f6 v=0
28536 On ch=1 n=f7 v=0
28555 On ch=1 n=f#7 v=76
28559 On ch=1 n=f#6 v=76
28560 On ch=1 n=a#6 v=76
28747 On ch=1 n=f#7 v=0
28751 On ch=1 n=f#6 v=0
28752 On ch=1 n=a#6 v=0
28794 On ch=1 n=f#6 v=76
28797 On ch=1 n=a5 v=76
28797 On ch=1 n=c#6 v=76
28890 On ch=1 n=f#6 v=0
28893 On ch=1 n=c#6 v=0
28893 On ch=1 n=a5 v=0
28915 On ch=1 n=c#6 v=76
28917 On ch=1 n=g#5 v=76
28917 On ch=1 n=f6 v=76
29011 On ch=1 n=c#6 v=0
29013 On ch=1 n=f6 v=0
29013 On ch=1 n=g#5 v=0
29036 On ch=1 n=f#6 v=76
29037 On ch=1 n=a5 v=76
29037 On ch=1 n=c#6 v=76
29228 On ch=1 n=f#6 v=0
29229 On ch=1 n=c#6 v=0
29229 On ch=1 n=a5 v=0
29275 On ch=1 n=g#6 v=76
29299 On ch=1 n=g#6 v=0
29306 On ch=1 n=a5 v=76
29307 On ch=1 n=c#6 v=76
29310 On ch=1 n=f#6 v=76
29378 On ch=1 n=a5 v=0
29379 On ch=1 n=c#6 v=0
29382 On ch=1 n=f#6 v=0
29394 On ch=1 n=c#6 v=76
29398 On ch=1 n=f6 v=76
29400 On ch=1 n=g#5 v=76
29490 On ch=1 n=c#6 v=0
29494 On ch=1 n=f6 v=0
29496 On ch=1 n=g#5 v=0
29517 On ch=1 n=f#6 v=76
29519 On ch=1 n=a5 v=76
29519 On ch=1 n=c#6 v=76
29613 On ch=1 n=f#6 v=0
29615 On ch=1 n=c#6 v=0
29615 On ch=1 n=a5 v=0
29634 On ch=1 n=b5 v=76
29634 On ch=1 n=g#6 v=76
29730 On ch=1 n=g#6 v=0
29730 On ch=1 n=b5 v=0
29754 On ch=1 n=c#6 v=76
29757 On ch=1 n=a6 v=76
30042 On ch=1 n=c#6 v=0
30045 On ch=1 n=a6 v=0
30117 On ch=1 n=g#5 v=76
30120 On ch=1 n=f6 v=76
30213 On ch=1 n=g#5 v=0
30216 On ch=1 n=f6 v=0
30237 On ch=1 n=g#6 v=76
30261 On ch=1 n=g#6 v=0
30267 On ch=1 n=c#6 v=76
30268 On ch=1 n=f#6 v=76
30269 On ch=1 n=a5 v=76
30339 On ch=1 n=c#6 v=0
30340 On ch=1 n=f#6 v=0
30341 On ch=1 n=a5 v=0
30357 On ch=1 n=f6 v=76
30358 On ch=1 n=g#5 v=76
30360 On ch=1 n=c#6 v=76
30453 On ch=1 n=f6 v=0
30454 On ch=1 n=g#5 v=0
30456 On ch=1 n=c#6 v=0
30475 On ch=1 n=a5 v=76
30476 On ch=1 n=f#6 v=76
30479 On ch=1 n=c#6 v=76
30667 On ch=1 n=a5 v=0
30668 On ch=1 n=f#6 v=0
30671 On ch=1 n=c#6 v=0
30714 On ch=1 n=a#5 v=76
30714 On ch=1 n=c#6 v=76
30719 On ch=1 n=g6 v=76
30810 On ch=1 n=c#6 v=0
30810 On ch=1 n=a#5 v=0
30815 On ch=1 n=g6 v=0
30834 On ch=1 n=a#5 v=76
30837 On ch=1 n=c#6 v=76
30839 On ch=1 n=g6 v=76
30930 On ch=1 n=a#5 v=0
30933 On ch=1 n=c#6 v=0
30935 On ch=1 n=g6 v=0
30957 On ch=1 n=b5 v=76
30960 On ch=1 n=g#6 v=76
31053 On ch=1 n=b5 v=0
31056 On ch=1 n=g#6 v=0
31074 On ch=1 n=c#6 v=76
31076 On ch=1 n=a#6 v=76
31170 On ch=1 n=c#6 v=0
31172 On ch=1 n=a#6 v=0
31195 On ch=1 n=b6 v=76
31197 On ch=1 n=d#6 v=76
31483 On ch=1 n=b6 v=0
31485 On ch=1 n=d#6 v=0
31560 On ch=1 n=g6 v=76
31560 On ch=1 n=a#5 v=76
31656 On ch=1 n=a#5 v=0
31656 On ch=1 n=g6 v=0
31674 On ch=1 n=b5 v=76
31675 On ch=1 n=d#6 v=76
31680 On ch=1 n=g#6 v=76
31680 On ch=1 n=b6 v=76
31962 On ch=1 n=b5 v=0
31963 On ch=1 n=d#6 v=0
31968 On ch=1 n=g#6 v=0
31968 On ch=1 n=b6 v=0
32034 On ch=1 n=b6 v=76
32037 On ch=1 n=d#6 v=76
32038 On ch=1 n=g#6 v=76
32039 On ch=1 n=b5 v=76
32130 On ch=1 n=b6 v=0
32133 On ch=1 n=d#6 v=0
32134 On ch=1 n=g#6 v=0
32135 On ch=1 n=b5 v=0
32154 On ch=1 n=f#6 v=76
32155 On ch=1 n=d#6 v=76
32156 On ch=1 n=a#5 v=76
32158 On ch=1 n=a#6 v=76
32346 On ch=1 n=f#6 v=0
32347 On ch=1 n=d#6 v=0
32348 On ch=1 n=a#5 v=0
32350 On ch=1 n=a#6 v=0
32396 On ch=1 n=e6 v=76
32397 On ch=1 n=g#6 v=76
32400 On ch=1 n=g#5 v=76
32684 On ch=1 n=e6 v=0
32685 On ch=1 n=g#6 v=0
32688 On ch=1 n=g#5 v=0
32755 On ch=1 n=g#6 v=76
32758 On ch=1 n=g#5 v=76
32758 On ch=1 n=e6 v=76
32851 On ch=1 n=g#6 v=0
32854 On ch=1 n=e6 v=0
32854 On ch=1 n=g#5 v=0
32874 On ch=1 n=a#5 v=76
32877 On ch=1 n=f#6 v=76
32878 On ch=1 n=f#5 v=76
32879 On ch=1 n=c#6 v=76
33066 On ch=1 n=a#5 v=0
33069 On ch=1 n=f#6 v=0
33070 On ch=1 n=f#5 v=0
33071 On ch=1 n=c#6 v=0
33115 On ch=1 n=g#5 v=76
33117 On ch=1 n=d#5 v=76
33117 On ch=1 n=b5 v=76
33117 On ch=1 n=d#6 v=76
33403 On ch=1 n=g#5 v=0
33405 On ch=1 n=d#5 v=0
33405 On ch=1 n=b5 v=0
33405 On ch=1 n=d#6 v=0
33477 On ch=1 n=e5 v=76
33477 On ch=1 n=c#6 v=76
33573 On ch=1 n=c#6 v=0
33573 On ch=1 n=e5 v=0
33596 On ch=1 n=d#5 v=76
33597 On ch=1 n=b5 v=76
33692 On ch=1 n=d#5 v=0
33693 On ch=1 n=b5 v=0
33716 On ch=1 n=a#5 v=76
33717 On ch=1 n=c#5 v=76
33812 On ch=1 n=a#5 v=0
33813 On ch=1 n=c#5 v=0
33838 On ch=1 n=c#5 v=76
33839 On ch=1 n=a#5 v=76
34126 On ch=1 n=c#5 v=0
34127 On ch=1 n=a#5 v=0
34197 On ch=1 n=b4 v=76
34200 On ch=1 n=g#5 v=76
34293 On ch=1 n=b4 v=0
34296 On ch=1 n=g#5 v=0
34316 On ch=1 n=g#5 v=76
34320 On ch=1 n=b4 v=76
34508 On ch=1 n=g#5 v=0
34512 On ch=1 n=b4 v=0
34557 On ch=1 n=c#6 v=50
34581 On ch=1 n=c#6 v=0
34584 On ch=1 n=g5 v=50
34590 On ch=1 n=b5 v=50
34656 On ch=1 n=g5 v=0
34662 On ch=1 n=b5 v=0
34674 On ch=1 n=a#5 v=50
34677 On ch=1 n=f#5 v=50
34770 On ch=1 n=a#5 v=0
34773 On ch=1 n=f#5 v=0
34797 On ch=1 n=b5 v=50
34799 On ch=1 n=g5 v=50
35085 On ch=1 n=b5 v=0
35087 On ch=1 n=g5 v=0
35154 On ch=1 n=e5 v=51
35156 On ch=1 n=g5 v=51
35250 On ch=1 n=e5 v=0
35252 On ch=1 n=g5 v=0
35279 On ch=1 n=f#6 v=52
35303 On ch=1 n=f#6 v=0
35306 On ch=1 n=e6 v=52
35310 On ch=1 n=g5 v=52
35378 On ch=1 n=e6 v=0
35382 On ch=1 n=g5 v=0
35398 On ch=1 n=f#5 v=52
35399 On ch=1 n=d#6 v=52
35494 On ch=1 n=f#5 v=0
35495 On ch=1 n=d#6 v=0
35516 On ch=1 n=e6 v=52
35520 On ch=1 n=g5 v=52
35804 On ch=1 n=e6 v=0
35808 On ch=1 n=g5 v=0
35880 On ch=1 n=b5 v=53
35880 On ch=1 n=g5 v=53
35976 On ch=1 n=g5 v=0
35976 On ch=1 n=b5 v=0
35999 On ch=1 n=d6 v=54
36023 On ch=1 n=d6 v=0
36027 On ch=1 n=c6 v=54
36029 On ch=1 n=g5 v=54
36099 On ch=1 n=c6 v=0
36101 On ch=1 n=g5 v=0
36117 On ch=1 n=g5 v=54
36120 On ch=1 n=b5 v=54
36213 On ch=1 n=g5 v=0
36216 On ch=1 n=b5 v=0
36234 On ch=1 n=c6 v=54
36238 On ch=1 n=g5 v=54
36522 On ch=1 n=c6 v=0
36526 On ch=1 n=g5 v=0
36594 On ch=1 n=g5 v=55
36690 On ch=1 n=g5 v=0
36716 On ch=1 n=a6 v=56
36740 On ch=1 n=a6 v=0
36747 On ch=1 n=e6 v=56
36747 On ch=1 n=g6 v=56
36819 On ch=1 n=g6 v=0
36819 On ch=1 n=e6 v=0
36837 On ch=1 n=f#6 v=56
36838 On ch=1 n=d#6 v=56
36933 On ch=1 n=f#6 v=0
36934 On ch=1 n=d#6 v=0
36955 On ch=1 n=e6 v=56
36960 On ch=1 n=g6 v=56
37243 On ch=1 n=e6 v=0
37248 On ch=1 n=g6 v=0
37317 On ch=1 n=c6 v=57
37318 On ch=1 n=e6 v=57
37413 On ch=1 n=c6 v=0
37414 On ch=1 n=e6 v=0
37434 On ch=1 n=f6 v=58
37438 On ch=1 n=d6 v=58
37626 On ch=1 n=f6 v=0
37630 On ch=1 n=d6 v=0
37796 On ch=1 n=b5 v=59
37797 On ch=1 n=a6 v=59
37892 On ch=1 n=b5 v=0
37893 On ch=1 n=a6 v=0
37918 On ch=1 n=c6 v=59
37918 On ch=1 n=e6 v=59
38014 On ch=1 n=e6 v=0
38014 On ch=1 n=c6 v=0
38036 On ch=1 n=a5 v=60
38037 On ch=1 n=g6 v=60
38132 On ch=1 n=a5 v=0
38133 On ch=1 n=g6 v=0
38154 On ch=1 n=b5 v=60
38157 On ch=1 n=d6 v=60
38442 On ch=1 n=b5 v=0
38445 On ch=1 n=d6 v=0
38516 On ch=1 n=g5 v=61
38517 On ch=1 n=f6 v=61
38612 On ch=1 n=g5 v=0
38613 On ch=1 n=f6 v=0
38634 On ch=1 n=c#6 v=61
38637 On ch=1 n=a#5 v=61
38730 On ch=1 n=c#6 v=0
38733 On ch=1 n=a#5 v=0
38755 On ch=1 n=g5 v=62
38757 On ch=1 n=e6 v=62
38851 On ch=1 n=g5 v=0
38853 On ch=1 n=e6 v=0
38875 On ch=1 n=f6 v=62
38880 On ch=1 n=d6 v=62
39067 On ch=1 n=f6 v=0
39072 On ch=1 n=d6 v=0
39237 On ch=1 n=b5 v=63
39237 On ch=1 n=a6 v=63
39333 On ch=1 n=a6 v=0
39333 On ch=1 n=b5 v=0
39355 On ch=1 n=c6 v=63
39356 On ch=1 n=e6 v=63
39451 On ch=1 n=c6 v=0
39452 On ch=1 n=e6 v=0
39476 On ch=1 n=g6 v=64
39479 On ch=1 n=a5 v=64
39572 On ch=1 n=g6 v=0
39575 On ch=1 n=a5 v=0
39595 On ch=1 n=b5 v=64
39597 On ch=1 n=d6 v=64
39787 On ch=1 n=b5 v=0
39789 On ch=1 n=d6 v=0
39955 On ch=1 n=g5 v=65
39955 On ch=1 n=f6 v=65
40051 On ch=1 n=f6 v=0
40051 On ch=1 n=g5 v=0
40076 On ch=1 n=a#5 v=65
40078 On ch=1 n=c#6 v=65
40172 On ch=1 n=a#5 v=0
40174 On ch=1 n=c#6 v=0
40194 On ch=1 n=g5 v=66
40199 On ch=1 n=e6 v=66
40290 On ch=1 n=g5 v=0
40295 On ch=1 n=e6 v=0
40314 On ch=1 n=a#5 v=66
40315 On ch=1 n=d#6 v=66
40506 On ch=1 n=a#5 v=0
40507 On ch=1 n=d#6 v=0
40674 On ch=1 n=a#5 v=67
40675 On ch=1 n=e5 v=67
40677 On ch=1 n=c#6 v=67
40679 On ch=1 n=e6 v=67
40770 On ch=1 n=a#5 v=0
40771 On ch=1 n=e5 v=0
40773 On ch=1 n=c#6 v=0
40775 On ch=1 n=e6 v=0
40795 On ch=1 n=c#6 v=68
40797 On ch=1 n=d#6 v=68
40797 On ch=1 n=a#5 v=68
40800 On ch=1 n=d#5 v=68
40987 On ch=1 n=c#6 v=0
40989 On ch=1 n=d#6 v=0
40989 On ch=1 n=a#5 v=0
40992 On ch=1 n=d#5 v=0
41156 On ch=1 n=b5 v=69
41156 On ch=1 n=g#6 v=69
41157 On ch=1 n=b6 v=69
41252 On ch=1 n=g#6 v=0
41252 On ch=1 n=b5 v=0
41253 On ch=1 n=b6 v=0
41276 On ch=1 n=a#5 v=69
41277 On ch=1 n=a#6 v=69
41278 On ch=1 n=g6 v=69
41468 On ch=1 n=a#5 v=0
41469 On ch=1 n=a#6 v=0
41470 On ch=1 n=g6 v=0
41637 On ch=1 n=g#7 v=70
41637 On ch=1 n=e7 v=70
41637 On ch=1 n=g#6 v=70
41733 On ch=1 n=g#6 v=0
41733 On ch=1 n=e7 v=0
41733 On ch=1 n=g#7 v=0
41754 On ch=1 n=g7 v=70
41754 On ch=1 n=g6 v=70
41756 On ch=1 n=d#7 v=70
42042 On ch=1 n=g6 v=0
42042 On ch=1 n=g7 v=0
42044 On ch=1 n=d#7 v=0
42119 On ch=1 n=e7 v=71
42143 On ch=1 n=e7 v=0
42150 On ch=1 n=d#7 v=71
42174 On ch=1 n=d#7 v=0
42177 On ch=1 n=c#7 v=72
42201 On ch=1 n=c#7 v=0
42209 On ch=1 n=b6 v=72
42233 On ch=1 n=b6 v=0
42236 On ch=1 n=a#6 v=72
42263 On ch=1 n=a#6 v=0
42268 On ch=1 n=g#6 v=72
42295 On ch=1 n=g#6 v=0
42304 On ch=1 n=g6 v=72
42331 On ch=1 n=g6 v=0
42338 On ch=1 n=e6 v=72
42366 On ch=1 n=e6 v=0
42377 On ch=1 n=d#6 v=72
42404 On ch=1 n=d#6 v=0
42405 On ch=1 n=c#6 v=72
42432 On ch=1 n=c#6 v=0
42442 On ch=1 n=b5 v=72
42469 On ch=1 n=b5 v=0
42471 On ch=1 n=a#5 v=72
42508 On ch=1 n=a#5 v=0
42518 On ch=1 n=g#5 v=73
42556 On ch=1 n=g#5 v=0
42566 On ch=1 n=g5 v=73
42604 On ch=1 n=g5 v=0
42608 On ch=1 n=e5 v=73
42646 On ch=1 n=e5 v=0
42660 On ch=1 n=g5 v=73
42698 On ch=1 n=g5 v=0
42708 On ch=1 n=g#5 v=73
42746 On ch=1 n=g#5 v=0
42757 On ch=1 n=a#5 v=73
42795 On ch=1 n=a#5 v=0
42804 On ch=1 n=b5 v=73
42841 On ch=1 n=b5 v=0
42850 On ch=1 n=c#6 v=74
42888 On ch=1 n=c#6 v=0
42895 On ch=1 n=d#6 v=74
42933 On ch=1 n=d#6 v=0
42944 On ch=1 n=e6 v=74
42982 On ch=1 n=e6 v=0
42992 On ch=1 n=g6 v=74
43030 On ch=1 n=g6 v=0
43037 On ch=1 n=g#6 v=74
43075 On ch=1 n=g#6 v=0
43089 On ch=1 n=a#6 v=74
43127 On ch=1 n=a#6 v=0
43138 On ch=1 n=c#7 v=74
43176 On ch=1 n=c#7 v=0
43183 On ch=1 n=b6 v=76
43185 On ch=1 n=g#6 v=76
43186 On ch=1 n=b5 v=76
43279 On ch=1 n=b6 v=0
43281 On ch=1 n=g#6 v=0
43282 On ch=1 n=b5 v=0
43304 On ch=1 n=a#5 v=76
43305 On ch=1 n=g6 v=76
43308 On ch=1 n=a#6 v=76
43400 On ch=1 n=a#5 v=0
43401 On ch=1 n=g6 v=0
43404 On ch=1 n=a#6 v=0
43424 On ch=1 n=g#6 v=76
43425 On ch=1 n=b6 v=76
43428 On ch=1 n=b5 v=76
43616 On ch=1 n=g#6 v=0
43617 On ch=1 n=b6 v=0
43620 On ch=1 n=b5 v=0
43668 On ch=1 n=c#7 v=76
43692 On ch=1 n=c#7 v=0
43694 On ch=1 n=b6 v=76
43695 On ch=1 n=b5 v=76
43695 On ch=1 n=g#6 v=76
43766 On ch=1 n=b6 v=0
43767 On ch=1 n=g#6 v=0
43767 On ch=1 n=b5 v=0
43782 On ch=1 n=a#5 v=76
43783 On ch=1 n=a#6 v=76
43785 On ch=1 n=g6 v=76
43878 On ch=1 n=a#5 v=0
43879 On ch=1 n=a#6 v=0
43881 On ch=1 n=g6 v=0
43904 On ch=1 n=b6 v=76
43904 On ch=1 n=b5 v=76
43908 On ch=1 n=g#6 v=76
44000 On ch=1 n=b5 v=0
44000 On ch=1 n=b6 v=0
44004 On ch=1 n=g#6 v=0
44022 On ch=1 n=c#7 v=76
44025 On ch=1 n=a#6 v=76
44026 On ch=1 n=c#6 v=76
44118 On ch=1 n=c#7 v=0
44121 On ch=1 n=a#6 v=0
44122 On ch=1 n=c#6 v=0
44142 On ch=1 n=d#7 v=76
44144 On ch=1 n=d#6 v=76
44144 On ch=1 n=b6 v=76
44430 On ch=1 n=d#7 v=0
44432 On ch=1 n=b6 v=0
44432 On ch=1 n=d#6 v=0
44507 On ch=1 n=a#6 v=76
44507 On ch=1 n=g6 v=76
44508 On ch=1 n=a#5 v=76
44603 On ch=1 n=g6 v=0
44603 On ch=1 n=a#6 v=0
44604 On ch=1 n=a#5 v=0
44624 On ch=1 n=c#7 v=76
44648 On ch=1 n=c#7 v=0
44654 On ch=1 n=g#6 v=76
44655 On ch=1 n=b6 v=76
44658 On ch=1 n=b5 v=76
44726 On ch=1 n=g#6 v=0
44727 On ch=1 n=b6 v=0
44730 On ch=1 n=b5 v=0
44742 On ch=1 n=a#6 v=76
44744 On ch=1 n=a#5 v=76
44744 On ch=1 n=g6 v=76
44838 On ch=1 n=a#6 v=0
44840 On ch=1 n=g6 v=0
44840 On ch=1 n=a#5 v=0
44865 On ch=1 n=b6 v=76
44866 On ch=1 n=b5 v=76
44866 On ch=1 n=g#6 v=76
45057 On ch=1 n=b6 v=0
45058 On ch=1 n=g#6 v=0
45058 On ch=1 n=b5 v=0
45107 On ch=1 n=c#7 v=76
45131 On ch=1 n=c#7 v=0
45133 On ch=1 n=b6 v=76
45137 On ch=1 n=g#6 v=76
45138 On ch=1 n=b5 v=76
45205 On ch=1 n=b6 v=0
45209 On ch=1 n=g#6 v=0
45210 On ch=1 n=b5 v=0
45225 On ch=1 n=g6 v=76
45225 On ch=1 n=a#5 v=76
45226 On ch=1 n=a#6 v=76
45321 On ch=1 n=a#5 v=0
45321 On ch=1 n=g6 v=0
45322 On ch=1 n=a#6 v=0
45342 On ch=1 n=g#6 v=76
45346 On ch=1 n=b5 v=76
45347 On ch=1 n=b6 v=76
45438 On ch=1 n=g#6 v=0
45442 On ch=1 n=b5 v=0
45443 On ch=1 n=b6 v=0
45462 On ch=1 n=c#6 v=76
45465 On ch=1 n=c#7 v=76
45466 On ch=1 n=a#6 v=76
45558 On ch=1 n=c#6 v=0
45561 On ch=1 n=c#7 v=0
45562 On ch=1 n=a#6 v=0
45584 On ch=1 n=d#6 v=76
45587 On ch=1 n=b6 v=76
45588 On ch=1 n=d#7 v=76
45680 On ch=1 n=d#6 v=0
45683 On ch=1 n=b6 v=0
45684 On ch=1 n=d#7 v=0
45702 On ch=1 n=f7 v=76
45705 On ch=1 n=f6 v=76
45705 On ch=1 n=g#6 v=76
45798 On ch=1 n=f7 v=0
45801 On ch=1 n=g#6 v=0
45801 On ch=1 n=f6 v=0
45823 On ch=1 n=f#6 v=76
45826 On ch=1 n=a#6 v=76
45828 On ch=1 n=f#7 v=76
46015 On ch=1 n=f#6 v=0
46018 On ch=1 n=a#6 v=0
46020 On ch=1 n=f#7 v=0
46062 On ch=1 n=a5 v=76
46064 On ch=1 n=c#6 v=76
46065 On ch=1 n=f#6 v=76
46158 On ch=1 n=a5 v=0
46160 On ch=1 n=c#6 v=0
46161 On ch=1 n=f#6 v=0
46183 On ch=1 n=g#5 v=76
46185 On ch=1 n=c#6 v=76
46186 On ch=1 n=f6 v=76
46279 On ch=1 n=g#5 v=0
46281 On ch=1 n=c#6 v=0
46282 On ch=1 n=f6 v=0
46302 On ch=1 n=c#6 v=76
46302 On ch=1 n=f#6 v=76
46305 On ch=1 n=a5 v=76
46494 On ch=1 n=f#6 v=0
46494 On ch=1 n=c#6 v=0
46497 On ch=1 n=a5 v=0
46544 On ch=1 n=g#6 v=76
46568 On ch=1 n=g#6 v=0
46573 On ch=1 n=f#6 v=76
46577 On ch=1 n=c#6 v=76
46578 On ch=1 n=a5 v=76
46645 On ch=1 n=f#6 v=0
46649 On ch=1 n=c#6 v=0
46650 On ch=1 n=a5 v=0
46662 On ch=1 n=f6 v=76
46665 On ch=1 n=c#6 v=76
46666 On ch=1 n=g#5 v=76
46758 On ch=1 n=f6 v=0
46762 On ch=1 n=g#5 v=0
46784 On ch=1 n=f#6 v=76
46785 On ch=1 n=a5 v=76
46857 On ch=1 n=c#6 v=0
46880 On ch=1 n=f#6 v=0
46881 On ch=1 n=a5 v=0
46904 On ch=1 n=b5 v=76
46905 On ch=1 n=g#6 v=76
47000 On ch=1 n=b5 v=0
47001 On ch=1 n=g#6 v=0
47023 On ch=1 n=a6 v=76
47025 On ch=1 n=c#6 v=76
47311 On ch=1 n=a6 v=0
47313 On ch=1 n=c#6 v=0
47385 On ch=1 n=g#5 v=76
47387 On ch=1 n=f6 v=76
47481 On ch=1 n=g#5 v=0
47483 On ch=1 n=f6 v=0
47504 On ch=1 n=g#6 v=76
47528 On ch=1 n=g#6 v=0
47533 On ch=1 n=c#6 v=76
47534 On ch=1 n=f#6 v=76
47538 On ch=1 n=a5 v=76
47605 On ch=1 n=c#6 v=0
47606 On ch=1 n=f#6 v=0
47610 On ch=1 n=a5 v=0
47620 On ch=1 n=f6 v=76
47623 On ch=1 n=g#5 v=76
47625 On ch=1 n=c#6 v=76
47716 On ch=1 n=f6 v=0
47719 On ch=1 n=g#5 v=0
47721 On ch=1 n=c#6 v=0
47740 On ch=1 n=a5 v=76
47742 On ch=1 n=c#6 v=76
47745 On ch=1 n=f#6 v=76
47932 On ch=1 n=a5 v=0
47934 On ch=1 n=c#6 v=0
47937 On ch=1 n=f#6 v=0
47980 On ch=1 n=c#6 v=76
47981 On ch=1 n=g6 v=76
47984 On ch=1 n=a#5 v=76
48076 On ch=1 n=c#6 v=0
48077 On ch=1 n=g6 v=0
48080 On ch=1 n=a#5 v=0
48103 On ch=1 n=g6 v=76
48103 On ch=1 n=c#6 v=76
48105 On ch=1 n=a#5 v=76
48199 On ch=1 n=c#6 v=0
48199 On ch=1 n=g6 v=0
48201 On ch=1 n=a#5 v=0
48221 On ch=1 n=g#6 v=76
48225 On ch=1 n=b5 v=76
48317 On ch=1 n=g#6 v=0
48321 On ch=1 n=b5 v=0
48341 On ch=1 n=a#6 v=76
48342 On ch=1 n=c#6 v=76
48437 On ch=1 n=a#6 v=0
48438 On ch=1 n=c#6 v=0
48462 On ch=1 n=b6 v=76
48465 On ch=1 n=d#6 v=76
48750 On ch=1 n=b6 v=0
48753 On ch=1 n=d#6 v=0
48825 On ch=1 n=g6 v=76
48825 On ch=1 n=a#5 v=76
48921 On ch=1 n=a#5 v=0
48921 On ch=1 n=g6 v=0
48939 On ch=1 n=b5 v=76
48942 On ch=1 n=g#6 v=76
48944 On ch=1 n=b6 v=76
48945 On ch=1 n=d#6 v=76
49227 On ch=1 n=b5 v=0
49230 On ch=1 n=g#6 v=0
49232 On ch=1 n=b6 v=0
49233 On ch=1 n=d#6 v=0
49302 On ch=1 n=g#6 v=76
49303 On ch=1 n=d#6 v=76
49303 On ch=1 n=b6 v=76
49304 On ch=1 n=b5 v=76
49398 On ch=1 n=g#6 v=0
49399 On ch=1 n=d#6 v=0
49399 On ch=1 n=b6 v=0
49400 On ch=1 n=b5 v=0
49419 On ch=1 n=f#6 v=76
49422 On ch=1 n=d#6 v=76
49425 On ch=1 n=a#6 v=76
49425 On ch=1 n=a#5 v=76
49611 On ch=1 n=f#6 v=0
49614 On ch=1 n=d#6 v=0
49617 On ch=1 n=a#6 v=0
49617 On ch=1 n=a#5 v=0
49662 On ch=1 n=g#5 v=76
49664 On ch=1 n=g#6 v=76
49665 On ch=1 n=e6 v=76
49950 On ch=1 n=g#5 v=0
49952 On ch=1 n=g#6 v=0
49953 On ch=1 n=e6 v=0
50024 On ch=1 n=g#5 v=76
50024 On ch=1 n=g#6 v=76
50025 On ch=1 n=e6 v=76
50120 On ch=1 n=g#6 v=0
50120 On ch=1 n=g#5 v=0
50121 On ch=1 n=e6 v=0
50140 On ch=1 n=c#6 v=76
50142 On ch=1 n=f#6 v=76
50142 On ch=1 n=a#5 v=76
50144 On ch=1 n=f#5 v=76
50332 On ch=1 n=c#6 v=0
50334 On ch=1 n=f#6 v=0
50334 On ch=1 n=a#5 v=0
50336 On ch=1 n=f#5 v=0
50379 On ch=1 n=d#6 v=76
50379 On ch=1 n=b5 v=76
50381 On ch=1 n=g#5 v=76
50381 On ch=1 n=d#5 v=76
50667 On ch=1 n=b5 v=0
50667 On ch=1 n=d#6 v=0
50669 On ch=1 n=g#5 v=0
50669 On ch=1 n=d#5 v=0
50739 On ch=1 n=e5 v=76
50742 On ch=1 n=c#6 v=76
50835 On ch=1 n=e5 v=0
50838 On ch=1 n=c#6 v=0
50863 On ch=1 n=d#5 v=76
50864 On ch=1 n=b5 v=76
50959 On ch=1 n=d#5 v=0
50960 On ch=1 n=b5 v=0
50979 On ch=1 n=c#5 v=76
50983 On ch=1 n=a#5 v=76
51075 On ch=1 n=c#5 v=0
51079 On ch=1 n=a#5 v=0
51100 On ch=1 n=a#5 v=76
51102 On ch=1 n=c#5 v=76
51388 On ch=1 n=a#5 v=0
51390 On ch=1 n=c#5 v=0
51462 On ch=1 n=g#5 v=76
51464 On ch=1 n=b4 v=76
51558 On ch=1 n=g#5 v=0
51560 On ch=1 n=b4 v=0
51585 On ch=1 n=g#5 v=76
51585 On ch=1 n=b4 v=76
51588 Par ch=1 c=64 v=0
51777 On ch=1 n=b4 v=0
51777 On ch=1 n=g#5 v=0
51777 Meta TrkEnd
TrkEnd
MTrk
0 Meta 0x21 00
0 Meta TrkName "Piano"
0 PrCh ch=2 p=0
0 Par ch=2 c=7 v=120
0 Par ch=2 c=10 v=52
1 On ch=2 n=g#3 v=76
34 Par ch=2 c=64 v=127
97 On ch=2 n=g#3 v=0
122 On ch=2 n=d#4 v=76
218 On ch=2 n=d#4 v=0
236 Par ch=2 c=64 v=0
238 On ch=2 n=d#5 v=76
246 Par ch=2 c=64 v=0
334 On ch=2 n=d#5 v=0
363 On ch=2 n=d#4 v=76
459 On ch=2 n=d#4 v=0
482 On ch=2 n=g#3 v=76
578 On ch=2 n=g#3 v=0
601 On ch=2 n=d#5 v=76
601 On ch=2 n=d#4 v=76
697 On ch=2 n=d#4 v=0
697 On ch=2 n=d#5 v=0
720 On ch=2 n=g#3 v=76
730 Par ch=2 c=64 v=0
741 Par ch=2 c=64 v=127
816 On ch=2 n=g#3 v=0
840 On ch=2 n=d#4 v=76
936 On ch=2 n=d#4 v=0
963 On ch=2 n=d#5 v=76
1059 On ch=2 n=d#5 v=0
1080 On ch=2 n=d#4 v=76
1176 On ch=2 n=d#4 v=0
1199 On ch=2 n=d#3 v=76
1205 Par ch=2 c=64 v=0
1295 On ch=2 n=d#3 v=0
1318 On ch=2 n=d#5 v=76
1320 On ch=2 n=d#4 v=76
1414 On ch=2 n=d#5 v=0
1416 On ch=2 n=d#4 v=0
1440 On ch=2 n=g#3 v=76
1452 Par ch=2 c=64 v=127
1536 On ch=2 n=g#3 v=0
1560 On ch=2 n=d#4 v=76
1656 On ch=2 n=d#4 v=0
1682 On ch=2 n=d#5 v=76
1689 Par ch=2 c=64 v=0
1778 On ch=2 n=d#5 v=0
1800 On ch=2 n=d#4 v=76
1896 On ch=2 n=d#4 v=0
1918 On ch=2 n=g#3 v=76
2014 On ch=2 n=g#3 v=0
2037 On ch=2 n=d#5 v=76
2038 On ch=2 n=d#4 v=76
2133 On ch=2 n=d#5 v=0
2134 On ch=2 n=d#4 v=0
2163 On ch=2 n=c#3 v=76
2174 Par ch=2 c=64 v=127
2259 On ch=2 n=c#3 v=0
2281 On ch=2 n=c#4 v=76
2377 On ch=2 n=c#4 v=0
2399 On ch=2 n=c#5 v=76
2495 On ch=2 n=c#5 v=0
2517 On ch=2 n=c#4 v=76
2580 Par ch=2 c=64 v=0
2613 On ch=2 n=c#4 v=0
2628 Par ch=2 c=64 v=0
2638 Par ch=2 c=64 v=0
2641 On ch=2 n=f#3 v=76
2737 On ch=2 n=f#3 v=0
2757 On ch=2 n=c#5 v=76
2757 On ch=2 n=c#4 v=76
2853 On ch=2 n=c#4 v=0
2853 On ch=2 n=c#5 v=0
2882 On ch=2 n=f#3 v=76
2901 Par ch=2 c=64 v=127
2978 On ch=2 n=f#3 v=0
3000 On ch=2 n=c#4 v=76
3096 On ch=2 n=c#4 v=0
3121 On ch=2 n=c#5 v=76
3123 Par ch=2 c=64 v=0
3133 Par ch=2 c=64 v=0
3217 On ch=2 n=c#5 v=0
3237 On ch=2 n=c#4 v=76
3333 On ch=2 n=c#4 v=0
3357 On ch=2 n=f#3 v=76
3453 On ch=2 n=f#3 v=0
3477 On ch=2 n=c#4 v=76
3480 On ch=2 n=c#5 v=76
3573 On ch=2 n=c#4 v=0
3576 On ch=2 n=c#5 v=0
3603 On ch=2 n=f#3 v=76
3617 Par ch=2 c=64 v=127
3699 On ch=2 n=f#3 v=0
3717 On ch=2 n=c#4 v=76
3813 On ch=2 n=c#4 v=0
3839 On ch=2 n=c#5 v=76
3935 On ch=2 n=c#5 v=0
3962 On ch=2 n=c#4 v=76
4058 On ch=2 n=c#4 v=0
4072 Par ch=2 c=64 v=0
4080 On ch=2 n=c#3 v=76
4176 On ch=2 n=c#3 v=0
4201 On ch=2 n=c#4 v=76
4202 On ch=2 n=c#5 v=76
4297 On ch=2 n=c#4 v=0
4298 On ch=2 n=c#5 v=0
4322 On ch=2 n=f#3 v=76
4334 Par ch=2 c=64 v=127
4418 On ch=2 n=f#3 v=0
4443 On ch=2 n=c#4 v=76
4539 On ch=2 n=c#4 v=0
4559 On ch=2 n=c#5 v=76
4576 Par ch=2 c=64 v=0
4655 On ch=2 n=c#5 v=0
4677 On ch=2 n=c#4 v=76
4773 On ch=2 n=c#4 v=0
4798 On ch=2 n=d3 v=76
4894 On ch=2 n=d3 v=0
4919 On ch=2 n=d5 v=76
4919 On ch=2 n=d4 v=76
5015 On ch=2 n=d4 v=0
5015 On ch=2 n=d5 v=0
5040 On ch=2 n=g3 v=76
5064 Par ch=2 c=64 v=127
5136 On ch=2 n=g3 v=0
5162 On ch=2 n=d4 v=76
5258 On ch=2 n=d4 v=0
5279 On ch=2 n=d5 v=76
5375 On ch=2 n=d5 v=0
5398 On ch=2 n=d4 v=76
5494 On ch=2 n=d4 v=0
5515 Par ch=2 c=64 v=0
5520 On ch=2 n=d3 v=76
5616 On ch=2 n=d3 v=0
5640 On ch=2 n=d5 v=76
5640 On ch=2 n=d4 v=76
5736 On ch=2 n=d4 v=0
5736 On ch=2 n=d5 v=0
5762 On ch=2 n=g3 v=70
5784 Par ch=2 c=64 v=127
5858 On ch=2 n=g3 v=0
5880 On ch=2 n=d4 v=70
5976 On ch=2 n=d4 v=0
6000 On ch=2 n=d5 v=69
6000 Par ch=2 c=64 v=0
6096 On ch=2 n=d5 v=0
6118 On ch=2 n=d4 v=68
6214 On ch=2 n=d4 v=0
6240 On ch=2 n=a3 v=67
6336 On ch=2 n=a3 v=0
6357 On ch=2 n=c4 v=66
6363 On ch=2 n=c5 v=66
6384 Par ch=2 c=64 v=0
6453 On ch=2 n=c4 v=0
6459 On ch=2 n=c5 v=0
6480 On ch=2 n=b3 v=65
6504 Par ch=2 c=64 v=127
6576 On ch=2 n=b3 v=0
6599 On ch=2 n=f#4 v=65
6695 On ch=2 n=f#4 v=0
6716 Par ch=2 c=64 v=0
6717 On ch=2 n=b4 v=64
6726 Par ch=2 c=64 v=0
6813 On ch=2 n=b4 v=0
6842 On ch=2 n=f#4 v=63
6938 On ch=2 n=f#4 v=0
6960 On ch=2 n=d#4 v=62
7056 On ch=2 n=d#4 v=0
7083 On ch=2 n=b4 v=61
7179 On ch=2 n=b4 v=0
7200 On ch=2 n=e3 v=60
7211 Par ch=2 c=64 v=127
7296 On ch=2 n=e3 v=0
7319 On ch=2 n=b3 v=60
7415 On ch=2 n=b3 v=0
7441 On ch=2 n=b4 v=59
7443 Par ch=2 c=64 v=0
7537 On ch=2 n=b4 v=0
7563 On ch=2 n=b3 v=58
7659 On ch=2 n=b3 v=0
7677 On ch=2 n=a3 v=57
7773 On ch=2 n=a3 v=0
7797 On ch=2 n=a4 v=56
7893 On ch=2 n=a4 v=0
7923 On ch=2 n=b3 v=55
7928 Par ch=2 c=64 v=0
7938 Par ch=2 c=64 v=127
8019 On ch=2 n=b3 v=0
8043 On ch=2 n=f#4 v=55
8139 On ch=2 n=f#4 v=0
8160 On ch=2 n=b4 v=54
8160 Par ch=2 c=64 v=0
8256 On ch=2 n=b4 v=0
8280 On ch=2 n=f#4 v=53
8376 On ch=2 n=f#4 v=0
8403 On ch=2 n=e4 v=52
8499 On ch=2 n=e4 v=0
8522 On ch=2 n=b4 v=51
8522 On ch=2 n=g#4 v=51
8618 On ch=2 n=g#4 v=0
8618 On ch=2 n=b4 v=0
8634 Par ch=2 c=64 v=0
8640 On ch=2 n=g#3 v=76
8652 Par ch=2 c=64 v=127
8736 On ch=2 n=g#3 v=0
8761 On ch=2 n=d#4 v=76
8857 On ch=2 n=d#4 v=0
8878 On ch=2 n=d#5 v=76
8887 Par ch=2 c=64 v=0
8974 On ch=2 n=d#5 v=0
8998 On ch=2 n=d#4 v=76
9094 On ch=2 n=d#4 v=0
9122 On ch=2 n=g#3 v=76
9218 On ch=2 n=g#3 v=0
9240 On ch=2 n=d#5 v=76
9240 On ch=2 n=d#4 v=76
9336 On ch=2 n=d#4 v=0
9336 On ch=2 n=d#5 v=0
9361 On ch=2 n=g#3 v=76
9384 Par ch=2 c=64 v=127
9457 On ch=2 n=g#3 v=0
9479 On ch=2 n=d#4 v=76
9575 On ch=2 n=d#4 v=0
9600 On ch=2 n=d#5 v=76
9696 On ch=2 n=d#5 v=0
9720 On ch=2 n=d#4 v=76
9816 On ch=2 n=d#4 v=0
9836 Par ch=2 c=64 v=0
9840 On ch=2 n=d#3 v=76
9846 Par ch=2 c=64 v=0
9936 On ch=2 n=d#3 v=0
9959 On ch=2 n=d#4 v=76
9962 On ch=2 n=d#5 v=76
10055 On ch=2 n=d#4 v=0
10058 On ch=2 n=d#5 v=0
10083 On ch=2 n=g#3 v=76
10092 Par ch=2 c=64 v=127
10179 On ch=2 n=g#3 v=0
10203 On ch=2 n=d#4 v=76
10299 On ch=2 n=d#4 v=0
10317 On ch=2 n=d#5 v=76
10327 Par ch=2 c=64 v=0
10410 On ch=2 n=d#5 v=0
10437 On ch=2 n=d#4 v=76
10533 On ch=2 n=d#4 v=0
10554 On ch=2 n=g#3 v=76
10650 On ch=2 n=g#3 v=0
10677 On ch=2 n=d#5 v=76
10677 On ch=2 n=d#4 v=76
10773 On ch=2 n=d#4 v=0
10773 On ch=2 n=d#5 v=0
10797 On ch=2 n=c#3 v=76
10812 Par ch=2 c=64 v=0
10822 Par ch=2 c=64 v=127
10893 On ch=2 n=c#3 v=0
10915 On ch=2 n=c#4 v=76
11011 On ch=2 n=c#4 v=0
11038 On ch=2 n=c#5 v=76
11134 On ch=2 n=c#5 v=0
11156 On ch=2 n=c#4 v=76
11252 On ch=2 n=c#4 v=0
11275 On ch=2 n=f#3 v=76
11276 Par ch=2 c=64 v=0
11286 Par ch=2 c=64 v=0
11371 On ch=2 n=f#3 v=0
11395 On ch=2 n=c#4 v=76
11398 On ch=2 n=c#5 v=76
11491 On ch=2 n=c#4 v=0
11494 On ch=2 n=c#5 v=0
11515 On ch=2 n=f#3 v=76
11541 Par ch=2 c=64 v=127
11611 On ch=2 n=f#3 v=0
11634 On ch=2 n=c#4 v=76
11730 On ch=2 n=c#4 v=0
11759 On ch=2 n=c#5 v=76
11771 Par ch=2 c=64 v=0
11781 Par ch=2 c=64 v=0
11855 On ch=2 n=c#5 v=0
11874 On ch=2 n=c#4 v=76
11970 On ch=2 n=c#4 v=0
11999 On ch=2 n=f#3 v=76
12095 On ch=2 n=f#3 v=0
12115 On ch=2 n=c#4 v=76
12120 On ch=2 n=c#5 v=76
12211 On ch=2 n=c#4 v=0
12216 On ch=2 n=c#5 v=0
12236 On ch=2 n=f#3 v=76
12246 Par ch=2 c=64 v=127
12329 On ch=2 n=f#3 v=0
12357 On ch=2 n=c#4 v=76
12453 On ch=2 n=c#4 v=0
12475 On ch=2 n=c#5 v=76
12571 On ch=2 n=c#5 v=0
12596 On ch=2 n=c#4 v=76
12692 On ch=2 n=c#4 v=0
12696 Par ch=2 c=64 v=0
12706 Par ch=2 c=64 v=0
12717 On ch=2 n=c#3 v=76
12813 On ch=2 n=c#3 v=0
12831 On ch=2 n=c#4 v=76
12837 On ch=2 n=c#5 v=76
12927 On ch=2 n=c#4 v=0
12933 On ch=2 n=c#5 v=0
12956 On ch=2 n=f#3 v=76
12966 Par ch=2 c=64 v=127
13049 On ch=2 n=f#3 v=0
13070 On ch=2 n=c#4 v=76
13166 On ch=2 n=c#4 v=0
13194 On ch=2 n=c#5 v=76
13208 Par ch=2 c=64 v=0
13218 Par ch=2 c=64 v=0
13290 On ch=2 n=c#5 v=0
13310 On ch=2 n=c#4 v=76
13406 On ch=2 n=c#4 v=0
13433 On ch=2 n=d3 v=76
13529 On ch=2 n=d3 v=0
13548 On ch=2 n=d4 v=76
13554 On ch=2 n=d5 v=76
13644 On ch=2 n=d4 v=0
13650 On ch=2 n=d5 v=0
13672 Par ch=2 c=64 v=0
13673 On ch=2 n=g3 v=76
13683 Par ch=2 c=64 v=127
13769 On ch=2 n=g3 v=0
13791 On ch=2 n=d4 v=76
13887 On ch=2 n=d4 v=0
13912 On ch=2 n=d5 v=76
14008 On ch=2 n=d5 v=0
14032 On ch=2 n=d4 v=76
14128 On ch=2 n=d4 v=0
14137 Par ch=2 c=64 v=0
14147 Par ch=2 c=64 v=0
14153 On ch=2 n=d3 v=76
14249 On ch=2 n=d3 v=0
14269 On ch=2 n=d5 v=76
14271 On ch=2 n=d4 v=76
14365 On ch=2 n=d5 v=0
14367 On ch=2 n=d4 v=0
14390 On ch=2 n=g3 v=70
14399 Par ch=2 c=64 v=0
14409 Par ch=2 c=64 v=127
14486 On ch=2 n=g3 v=0
14511 On ch=2 n=d4 v=70
14583 Par ch=2 c=64 v=0
14607 On ch=2 n=d4 v=0
14630 On ch=2 n=d5 v=69
14641 Par ch=2 c=64 v=0
14726 On ch=2 n=d5 v=0
14751 On ch=2 n=d4 v=68
14847 On ch=2 n=d4 v=0
14874 On ch=2 n=a3 v=67
14970 On ch=2 n=a3 v=0
14991 On ch=2 n=c5 v=66
14993 On ch=2 n=c4 v=66
15087 On ch=2 n=c5 v=0
15087 Par ch=2 c=64 v=0
15089 On ch=2 n=c4 v=0
15113 On ch=2 n=b3 v=65
15135 Par ch=2 c=64 v=127
15209 On ch=2 n=b3 v=0
15230 On ch=2 n=f#4 v=65
15326 On ch=2 n=f#4 v=0
15348 On ch=2 n=b4 v=64
15358 Par ch=2 c=64 v=0
15444 On ch=2 n=b4 v=0
15469 On ch=2 n=f#4 v=63
15565 On ch=2 n=f#4 v=0
15594 On ch=2 n=d#4 v=62
15690 On ch=2 n=d#4 v=0
15713 On ch=2 n=b4 v=61
15809 On ch=2 n=b4 v=0
15832 On ch=2 n=e3 v=60
15855 Par ch=2 c=64 v=127
15928 On ch=2 n=e3 v=0
15948 On ch=2 n=b3 v=60
16044 On ch=2 n=b3 v=0
16073 On ch=2 n=b4 v=59
16075 Par ch=2 c=64 v=0
16085 Par ch=2 c=64 v=0
16169 On ch=2 n=b4 v=0
16191 On ch=2 n=b3 v=58
16287 On ch=2 n=b3 v=0
16309 On ch=2 n=a3 v=57
16405 On ch=2 n=a3 v=0
16431 On ch=2 n=a4 v=56
16527 On ch=2 n=a4 v=0
16549 On ch=2 n=b3 v=55
16575 Par ch=2 c=64 v=127
16645 On ch=2 n=b3 v=0
16670 On ch=2 n=f#4 v=55
16766 On ch=2 n=f#4 v=0
16791 On ch=2 n=b4 v=54
16791 Par ch=2 c=64 v=0
16802 Par ch=2 c=64 v=0
16887 On ch=2 n=b4 v=0
16910 On ch=2 n=f#4 v=53
17006 On ch=2 n=f#4 v=0
17029 On ch=2 n=e4 v=52
17125 On ch=2 n=e4 v=0
17150 On ch=2 n=g#4 v=51
17151 On ch=2 n=b4 v=51
17246 On ch=2 n=g#4 v=0
17247 On ch=2 n=b4 v=0
17270 On ch=2 n=e3 v=50
17295 Par ch=2 c=64 v=127
17366 On ch=2 n=e3 v=0
17391 On ch=2 n=e4 v=50
17487 On ch=2 n=e4 v=0
17511 On ch=2 n=e5 v=50
17518 Par ch=2 c=64 v=0
17528 Par ch=2 c=64 v=0
17607 On ch=2 n=e5 v=0
17631 On ch=2 n=e4 v=51
17727 On ch=2 n=e4 v=0
17751 On ch=2 n=e5 v=51
17847 On ch=2 n=e5 v=0
17873 On ch=2 n=e4 v=51
17969 On ch=2 n=e4 v=0
17989 On ch=2 n=e3 v=52
18003 Par ch=2 c=64 v=127
18085 On ch=2 n=e3 v=0
18114 On ch=2 n=e4 v=52
18210 On ch=2 n=e4 v=0
18225 Par ch=2 c=64 v=0
18231 On ch=2 n=e5 v=52
18235 Par ch=2 c=64 v=0
18327 On ch=2 n=e5 v=0
18350 On ch=2 n=e4 v=53
18446 On ch=2 n=e4 v=0
18469 On ch=2 n=e5 v=53
18565 On ch=2 n=e5 v=0
18590 On ch=2 n=e4 v=53
18686 On ch=2 n=e4 v=0
18710 On ch=2 n=c3 v=54
18730 Par ch=2 c=64 v=127
18806 On ch=2 n=c3 v=0
18831 On ch=2 n=e4 v=54
18927 On ch=2 n=e4 v=0
18951 Par ch=2 c=64 v=0
18954 On ch=2 n=e5 v=54
18962 Par ch=2 c=64 v=0
19050 On ch=2 n=e5 v=0
19073 On ch=2 n=e4 v=55
19169 On ch=2 n=e4 v=0
19191 On ch=2 n=e5 v=55
19287 On ch=2 n=e5 v=0
19312 On ch=2 n=e4 v=55
19408 On ch=2 n=e4 v=0
19431 On ch=2 n=c3 v=56
19443 Par ch=2 c=64 v=127
19527 On ch=2 n=c3 v=0
19551 On ch=2 n=e4 v=56
19647 On ch=2 n=e4 v=0
19658 Par ch=2 c=64 v=0
19674 On ch=2 n=e5 v=56
19770 On ch=2 n=e5 v=0
19790 On ch=2 n=e4 v=57
19886 On ch=2 n=e4 v=0
19910 On ch=2 n=e5 v=57
20006 On ch=2 n=e5 v=0
20030 On ch=2 n=e4 v=57
20126 On ch=2 n=e4 v=0
20151 On ch=2 n=g3 v=58
20173 Par ch=2 c=64 v=127
20247 On ch=2 n=g3 v=0
20268 On ch=2 n=g4 v=58
20364 On ch=2 n=g4 v=0
20388 On ch=2 n=d5 v=59
20394 On ch=2 n=f5 v=59
20484 On ch=2 n=d5 v=0
20490 On ch=2 n=f5 v=0
20514 On ch=2 n=g4 v=59
20610 On ch=2 n=g4 v=0
20617 Par ch=2 c=64 v=0
20627 Par ch=2 c=64 v=0
20631 On ch=2 n=c5 v=59
20631 On ch=2 n=e5 v=59
20727 On ch=2 n=e5 v=0
20727 On ch=2 n=c5 v=0
20751 On ch=2 n=g4 v=60
20847 On ch=2 n=g4 v=0
20869 On ch=2 n=g3 v=60
20950 Par ch=2 c=64 v=127
20965 On ch=2 n=g3 v=0
20990 On ch=2 n=g4 v=60
21086 On ch=2 n=g4 v=0
21111 On ch=2 n=b4 v=61
21113 On ch=2 n=d5 v=61
21207 On ch=2 n=b4 v=0
21209 On ch=2 n=d5 v=0
21228 On ch=2 n=g4 v=61
21324 On ch=2 n=g4 v=0
21349 On ch=2 n=a#4 v=61
21354 On ch=2 n=c#5 v=61
21354 Par ch=2 c=64 v=0
21445 On ch=2 n=a#4 v=0
21450 On ch=2 n=c#5 v=0
21470 On ch=2 n=g4 v=62
21566 On ch=2 n=g4 v=0
21591 On ch=2 n=g3 v=62
21667 Par ch=2 c=64 v=0
21677 Par ch=2 c=64 v=127
21687 On ch=2 n=g3 v=0
21714 On ch=2 n=g4 v=62
21810 On ch=2 n=g4 v=0
21829 On ch=2 n=d5 v=63
21832 On ch=2 n=f5 v=63
21925 On ch=2 n=d5 v=0
21928 On ch=2 n=f5 v=0
21954 On ch=2 n=g4 v=63
22050 On ch=2 n=g4 v=0
22072 On ch=2 n=c5 v=63
22073 On ch=2 n=e5 v=63
22111 Par ch=2 c=64 v=0
22168 On ch=2 n=c5 v=0
22169 On ch=2 n=e5 v=0
22194 On ch=2 n=g4 v=64
22290 On ch=2 n=g4 v=0
22312 On ch=2 n=g3 v=64
22408 On ch=2 n=g3 v=0
22424 Par ch=2 c=64 v=127
22432 On ch=2 n=g4 v=64
22528 On ch=2 n=g4 v=0
22550 On ch=2 n=d5 v=65
22551 On ch=2 n=b4 v=65
22646 On ch=2 n=d5 v=0
22647 On ch=2 n=b4 v=0
22669 On ch=2 n=g4 v=65
22765 On ch=2 n=g4 v=0
22790 On ch=2 n=c#5 v=65
22794 On ch=2 n=a#4 v=65
22828 Par ch=2 c=64 v=0
22838 Par ch=2 c=64 v=0
22886 On ch=2 n=c#5 v=0
22890 On ch=2 n=a#4 v=0
22911 On ch=2 n=g4 v=66
23007 On ch=2 n=g4 v=0
23029 On ch=2 n=a#4 v=66
23031 On ch=2 n=c#5 v=66
23043 Par ch=2 c=64 v=127
23125 On ch=2 n=a#4 v=0
23127 On ch=2 n=c#5 v=0
23149 On ch=2 n=g4 v=67
23245 On ch=2 n=g4 v=0
23271 Par ch=2 c=64 v=0
23274 On ch=2 n=f#3 v=67
23333 Par ch=2 c=64 v=0
23370 On ch=2 n=f#3 v=0
23388 On ch=2 n=f#4 v=67
23484 On ch=2 n=f#4 v=0
23508 On ch=2 n=g3 v=68
23575 Par ch=2 c=64 v=127
23604 On ch=2 n=g3 v=0
23633 On ch=2 n=g4 v=68
23726 Par ch=2 c=64 v=0
23729 On ch=2 n=g4 v=0
23736 Par ch=2 c=64 v=0
23753 On ch=2 n=c#3 v=68
23849 On ch=2 n=c#3 v=0
23874 On ch=2 n=c#4 v=69
23970 On ch=2 n=c#4 v=0
23991 On ch=2 n=d#3 v=69
24015 Par ch=2 c=64 v=127
24087 On ch=2 n=d#3 v=0
24114 On ch=2 n=d#4 v=69
24160 Par ch=2 c=64 v=0
24210 On ch=2 n=d#4 v=0
24231 On ch=2 n=c#2 v=70
24327 On ch=2 n=c#2 v=0
24348 On ch=2 n=c#3 v=70
24362 Par ch=2 c=64 v=0
24444 On ch=2 n=c#3 v=0
24470 On ch=2 n=d#3 v=70
24473 On ch=2 n=d#2 v=70
24483 Par ch=2 c=64 v=127
24662 On ch=2 n=d#3 v=0
24665 On ch=2 n=d#2 v=0
24708 On ch=2 n=g5 v=71
24709 On ch=2 n=d#4 v=71
24711 On ch=2 n=a#4 v=71
24712 On ch=2 n=c#5 v=71
24900 On ch=2 n=g5 v=0
24901 On ch=2 n=d#4 v=0
24903 On ch=2 n=a#4 v=0
24904 On ch=2 n=c#5 v=0
25191 On ch=2 n=d#3 v=72
25200 Par ch=2 c=64 v=0
25210 Par ch=2 c=64 v=0
25383 On ch=2 n=d#3 v=0
25429 On ch=2 n=d#4 v=73
25429 On ch=2 n=a#4 v=73
25431 On ch=2 n=g4 v=73
25434 On ch=2 n=c#5 v=73
25564 Par ch=2 c=64 v=0
25574 Par ch=2 c=64 v=127
25621 On ch=2 n=a#4 v=0
25621 On ch=2 n=d#4 v=0
25623 On ch=2 n=g4 v=0
25626 On ch=2 n=c#5 v=0
25887 Par ch=2 c=64 v=0
25911 On ch=2 n=g#2 v=76
25913 On ch=2 n=g#3 v=76
25935 Par ch=2 c=64 v=127
26007 On ch=2 n=g#2 v=0
26009 On ch=2 n=g#3 v=0
26030 On ch=2 n=d#4 v=76
26126 On ch=2 n=d#4 v=0
26152 On ch=2 n=d#5 v=76
26169 Par ch=2 c=64 v=0
26179 Par ch=2 c=64 v=0
26248 On ch=2 n=d#5 v=0
26274 On ch=2 n=d#4 v=76
26370 On ch=2 n=d#4 v=0
26391 On ch=2 n=g#3 v=76
26487 On ch=2 n=g#3 v=0
26511 On ch=2 n=d#4 v=76
26514 On ch=2 n=d#5 v=76
26607 On ch=2 n=d#4 v=0
26610 On ch=2 n=d#5 v=0
26632 On ch=2 n=g#3 v=76
26644 Par ch=2 c=64 v=0
26654 Par ch=2 c=64 v=127
26728 On ch=2 n=g#3 v=0
26748 On ch=2 n=d#4 v=76
26844 On ch=2 n=d#4 v=0
26869 On ch=2 n=d#5 v=76
26965 On ch=2 n=d#5 v=0
26992 On ch=2 n=d#4 v=76
27088 On ch=2 n=d#4 v=0
27108 Par ch=2 c=64 v=0
27111 On ch=2 n=d#3 v=76
27118 Par ch=2 c=64 v=0
27207 On ch=2 n=d#3 v=0
27233 On ch=2 n=d#4 v=76
27234 On ch=2 n=d#5 v=76
27329 On ch=2 n=d#4 v=0
27330 On ch=2 n=d#5 v=0
27351 On ch=2 n=g#3 v=76
27370 Par ch=2 c=64 v=127
27447 On ch=2 n=g#3 v=0
27471 On ch=2 n=d#4 v=76
27567 On ch=2 n=d#4 v=0
27591 On ch=2 n=d#5 v=76
27603 Par ch=2 c=64 v=0
27613 Par ch=2 c=64 v=0
27687 On ch=2 n=d#5 v=0
27711 On ch=2 n=d#4 v=76
27807 On ch=2 n=d#4 v=0
27830 On ch=2 n=g#3 v=76
27926 On ch=2 n=g#3 v=0
27951 On ch=2 n=d#5 v=76
27952 On ch=2 n=d#4 v=76
28047 On ch=2 n=d#5 v=0
28048 On ch=2 n=d#4 v=0
28070 On ch=2 n=c#3 v=76
28087 Par ch=2 c=64 v=0
28097 Par ch=2 c=64 v=127
28166 On ch=2 n=c#3 v=0
28193 On ch=2 n=c#4 v=76
28289 On ch=2 n=c#4 v=0
28311 On ch=2 n=c#5 v=76
28407 On ch=2 n=c#5 v=0
28430 On ch=2 n=c#4 v=76
28526 On ch=2 n=c#4 v=0
28551 On ch=2 n=f#3 v=76
28562 Par ch=2 c=64 v=0
28572 Par ch=2 c=64 v=0
28647 On ch=2 n=f#3 v=0
28671 On ch=2 n=c#5 v=76
28673 On ch=2 n=c#4 v=76
28767 On ch=2 n=c#5 v=0
28769 On ch=2 n=c#4 v=0
28791 On ch=2 n=f#3 v=76
28814 Par ch=2 c=64 v=127
28887 On ch=2 n=f#3 v=0
28911 On ch=2 n=c#4 v=76
29007 On ch=2 n=c#4 v=0
29031 On ch=2 n=c#5 v=76
29036 Par ch=2 c=64 v=0
29046 Par ch=2 c=64 v=0
29127 On ch=2 n=c#5 v=0
29149 On ch=2 n=c#4 v=76
29245 On ch=2 n=c#4 v=0
29271 On ch=2 n=f#3 v=76
29367 On ch=2 n=f#3 v=0
29392 On ch=2 n=c#5 v=76
29392 On ch=2 n=c#4 v=76
29488 On ch=2 n=c#4 v=0
29488 On ch=2 n=c#5 v=0
29514 On ch=2 n=f#3 v=76
29541 Par ch=2 c=64 v=127
29610 On ch=2 n=f#3 v=0
29634 On ch=2 n=c#4 v=76
29730 On ch=2 n=c#4 v=0
29754 On ch=2 n=c#5 v=76
29850 On ch=2 n=c#5 v=0
29873 On ch=2 n=c#4 v=76
29969 On ch=2 n=c#4 v=0
29990 On ch=2 n=c#3 v=76
29995 Par ch=2 c=64 v=0
30005 Par ch=2 c=64 v=0
30086 On ch=2 n=c#3 v=0
30112 On ch=2 n=c#4 v=76
30113 On ch=2 n=c#5 v=76
30208 On ch=2 n=c#4 v=0
30209 On ch=2 n=c#5 v=0
30231 On ch=2 n=f#3 v=76
30257 Par ch=2 c=64 v=0
30267 Par ch=2 c=64 v=127
30327 On ch=2 n=f#3 v=0
30353 On ch=2 n=c#4 v=76
30449 On ch=2 n=c#4 v=0
30471 On ch=2 n=c#5 v=76
30510 Par ch=2 c=64 v=0
30567 On ch=2 n=c#5 v=0
30592 On ch=2 n=c#4 v=76
30688 On ch=2 n=c#4 v=0
30713 On ch=2 n=d#3 v=76
30809 On ch=2 n=d#3 v=0
30830 On ch=2 n=d#5 v=76
30831 On ch=2 n=d#4 v=76
30926 On ch=2 n=d#5 v=0
30927 On ch=2 n=d#4 v=0
30951 On ch=2 n=g#3 v=76
30984 Par ch=2 c=64 v=127
31047 On ch=2 n=g#3 v=0
31072 On ch=2 n=d#4 v=76
31168 On ch=2 n=d#4 v=0
31194 On ch=2 n=d#5 v=76
31290 On ch=2 n=d#5 v=0
31312 On ch=2 n=d#4 v=76
31408 On ch=2 n=d#4 v=0
31428 Par ch=2 c=64 v=0
31429 On ch=2 n=d#3 v=76
31525 On ch=2 n=d#3 v=0
31550 On ch=2 n=d#5 v=76
31551 On ch=2 n=d#4 v=76
31646 On ch=2 n=d#5 v=0
31647 On ch=2 n=d#4 v=0
31668 On ch=2 n=g#3 v=76
31670 On ch=2 n=g#2 v=76
31681 Par ch=2 c=64 v=0
31691 Par ch=2 c=64 v=127
31764 On ch=2 n=g#3 v=0
31766 On ch=2 n=g#2 v=0
31793 On ch=2 n=d#4 v=76
31889 On ch=2 n=d#4 v=0
31910 On ch=2 n=d#5 v=76
32006 On ch=2 n=d#5 v=0
32030 On ch=2 n=d#4 v=76
32126 On ch=2 n=d#4 v=0
32149 On ch=2 n=a#3 v=76
32152 On ch=2 n=a#2 v=76
32162 Par ch=2 c=64 v=0
32172 Par ch=2 c=64 v=0
32242 On ch=2 n=a#3 v=0
32243 Par ch=2 c=64 v=127
32245 On ch=2 n=a#2 v=0
32266 On ch=2 n=d#5 v=76
32270 On ch=2 n=d#4 v=76
32362 On ch=2 n=d#5 v=0
32366 On ch=2 n=d#4 v=0
32388 On ch=2 n=b2 v=76
32390 On ch=2 n=b3 v=76
32475 Par ch=2 c=64 v=0
32484 On ch=2 n=b2 v=0
32486 On ch=2 n=b3 v=0
32508 On ch=2 n=e4 v=76
32546 Par ch=2 c=64 v=0
32556 Par ch=2 c=64 v=127
32604 On ch=2 n=e4 v=0
32628 On ch=2 n=e5 v=76
32724 On ch=2 n=e5 v=0
32749 On ch=2 n=e4 v=76
32845 On ch=2 n=e4 v=0
32868 On ch=2 n=c#3 v=76
32871 On ch=2 n=c#4 v=76
32929 Par ch=2 c=64 v=0
32964 On ch=2 n=c#3 v=0
32967 On ch=2 n=c#4 v=0
32986 On ch=2 n=c#5 v=76
33010 Par ch=2 c=64 v=127
33082 On ch=2 n=c#5 v=0
33105 On ch=2 n=d#3 v=76
33109 On ch=2 n=d#4 v=76
33131 Par ch=2 c=64 v=0
33141 Par ch=2 c=64 v=0
33201 On ch=2 n=d#3 v=0
33205 On ch=2 n=d#4 v=0
33212 Par ch=2 c=64 v=127
33226 On ch=2 n=d#4 v=76
33322 On ch=2 n=d#4 v=0
33349 On ch=2 n=b4 v=76
33445 On ch=2 n=b4 v=0
33470 On ch=2 n=g#4 v=76
33566 On ch=2 n=g#4 v=0
33590 On ch=2 n=d#3 v=76
33596 Par ch=2 c=64 v=0
33606 Par ch=2 c=64 v=0
33686 On ch=2 n=d#3 v=0
33708 On ch=2 n=d#4 v=76
33709 On ch=2 n=g4 v=76
33804 On ch=2 n=d#4 v=0
33805 On ch=2 n=g4 v=0
33828 On ch=2 n=g#3 v=76
33830 On ch=2 n=g#2 v=76
33852 Par ch=2 c=64 v=127
33924 On ch=2 n=g#3 v=0
33926 On ch=2 n=g#2 v=0
33945 On ch=2 n=d#4 v=76
34041 On ch=2 n=d#4 v=0
34070 On ch=2 n=g4 v=76
34166 On ch=2 n=g4 v=0
34188 On ch=2 n=d#4 v=76
34284 On ch=2 n=d#4 v=0
34306 On ch=2 n=d#4 v=76
34307 On ch=2 n=g#3 v=76
34311 On ch=2 n=g#4 v=76
34343 Par ch=2 c=64 v=0
34353 Par ch=2 c=64 v=0
34423 Par ch=2 c=64 v=127
34498 On ch=2 n=d#4 v=0
34499 On ch=2 n=g#3 v=0
34503 On ch=2 n=g#4 v=0
34545 On ch=2 n=e3 v=50
34585 Par ch=2 c=64 v=0
34595 Par ch=2 c=64 v=0
34641 On ch=2 n=e3 v=0
34665 On ch=2 n=e4 v=50
34761 On ch=2 n=e4 v=0
34788 On ch=2 n=e5 v=50
34827 Par ch=2 c=64 v=127
34884 On ch=2 n=e5 v=0
34910 On ch=2 n=e4 v=51
35006 On ch=2 n=e4 v=0
35028 On ch=2 n=e5 v=51
35100 Par ch=2 c=64 v=0
35120 Par ch=2 c=64 v=0
35124 On ch=2 n=e5 v=0
35151 On ch=2 n=e4 v=51
35247 On ch=2 n=e4 v=0
35261 Par ch=2 c=64 v=0
35269 On ch=2 n=e3 v=52
35280 Par ch=2 c=64 v=127
35365 On ch=2 n=e3 v=0
35387 On ch=2 n=e4 v=52
35483 On ch=2 n=e4 v=0
35483 Par ch=2 c=64 v=0
35493 Par ch=2 c=64 v=0
35508 On ch=2 n=e5 v=52
35604 On ch=2 n=e5 v=0
35625 On ch=2 n=e4 v=53
35721 On ch=2 n=e4 v=0
35748 On ch=2 n=e5 v=53
35844 On ch=2 n=e5 v=0
35868 On ch=2 n=e4 v=53
35964 On ch=2 n=e4 v=0
35986 On ch=2 n=c3 v=54
36012 Par ch=2 c=64 v=127
36082 On ch=2 n=c3 v=0
36108 On ch=2 n=e4 v=54
36204 On ch=2 n=e4 v=0
36228 On ch=2 n=e5 v=54
36230 Par ch=2 c=64 v=0
36240 Par ch=2 c=64 v=0
36324 On ch=2 n=e5 v=0
36351 On ch=2 n=e4 v=55
36447 On ch=2 n=e4 v=0
36466 On ch=2 n=e5 v=55
36562 On ch=2 n=e5 v=0
36587 On ch=2 n=e4 v=55
36683 On ch=2 n=e4 v=0
36708 On ch=2 n=c3 v=56
36732 Par ch=2 c=64 v=127
36804 On ch=2 n=c3 v=0
36827 On ch=2 n=e4 v=56
36923 On ch=2 n=e4 v=0
36947 On ch=2 n=e5 v=56
36947 Par ch=2 c=64 v=0
36957 Par ch=2 c=64 v=0
37043 On ch=2 n=e5 v=0
37068 On ch=2 n=e4 v=57
37164 On ch=2 n=e4 v=0
37185 On ch=2 n=e5 v=57
37281 On ch=2 n=e5 v=0
37307 On ch=2 n=e4 v=57
37403 On ch=2 n=e4 v=0
37425 On ch=2 n=g3 v=58
37432 Par ch=2 c=64 v=0
37442 Par ch=2 c=64 v=127
37521 On ch=2 n=g3 v=0
37546 On ch=2 n=g4 v=58
37642 On ch=2 n=g4 v=0
37668 On ch=2 n=d5 v=59
37669 On ch=2 n=f5 v=59
37764 On ch=2 n=d5 v=0
37765 On ch=2 n=f5 v=0
37785 On ch=2 n=g4 v=59
37881 On ch=2 n=g4 v=0
37886 Par ch=2 c=64 v=0
37896 Par ch=2 c=64 v=0
37905 On ch=2 n=c5 v=59
37908 On ch=2 n=e5 v=59
38001 On ch=2 n=c5 v=0
38004 On ch=2 n=e5 v=0
38025 On ch=2 n=g4 v=60
38121 On ch=2 n=g4 v=0
38149 On ch=2 n=g3 v=60
38188 Par ch=2 c=64 v=0
38199 Par ch=2 c=64 v=127
38245 On ch=2 n=g3 v=0
38271 On ch=2 n=g4 v=60
38367 On ch=2 n=g4 v=0
38387 On ch=2 n=d5 v=61
38391 On ch=2 n=b4 v=61
38483 On ch=2 n=d5 v=0
38487 On ch=2 n=b4 v=0
38510 On ch=2 n=g4 v=61
38606 On ch=2 n=g4 v=0
38623 Par ch=2 c=64 v=0
38628 On ch=2 n=a#4 v=61
38630 On ch=2 n=c#5 v=61
38633 Par ch=2 c=64 v=0
38724 On ch=2 n=a#4 v=0
38726 On ch=2 n=c#5 v=0
38750 On ch=2 n=g4 v=62
38846 On ch=2 n=g4 v=0
38865 On ch=2 n=g3 v=62
38956 Par ch=2 c=64 v=127
38961 On ch=2 n=g3 v=0
38991 On ch=2 n=g4 v=62
39087 On ch=2 n=g4 v=0
39106 On ch=2 n=f5 v=63
39108 On ch=2 n=d5 v=63
39202 On ch=2 n=f5 v=0
39204 On ch=2 n=d5 v=0
39225 On ch=2 n=g4 v=63
39321 On ch=2 n=g4 v=0
39346 On ch=2 n=e5 v=63
39348 On ch=2 n=c5 v=63
39359 Par ch=2 c=64 v=0
39370 Par ch=2 c=64 v=0
39442 On ch=2 n=e5 v=0
39444 On ch=2 n=c5 v=0
39468 On ch=2 n=g4 v=64
39564 On ch=2 n=g4 v=0
39590 On ch=2 n=g3 v=64
39686 On ch=2 n=g3 v=0
39703 Par ch=2 c=64 v=0
39709 On ch=2 n=g4 v=64
39713 Par ch=2 c=64 v=127
39805 On ch=2 n=g4 v=0
39828 On ch=2 n=b4 v=65
39828 On ch=2 n=d5 v=65
39924 On ch=2 n=d5 v=0
39924 On ch=2 n=b4 v=0
39948 On ch=2 n=g4 v=65
40044 On ch=2 n=g4 v=0
40066 Par ch=2 c=64 v=0
40067 On ch=2 n=c#5 v=65
40070 On ch=2 n=a#4 v=65
40076 Par ch=2 c=64 v=0
40163 On ch=2 n=c#5 v=0
40166 On ch=2 n=a#4 v=0
40188 On ch=2 n=g4 v=66
40284 On ch=2 n=g4 v=0
40307 On ch=2 n=c#5 v=66
40310 On ch=2 n=a#4 v=66
40332 Par ch=2 c=64 v=127
40403 On ch=2 n=c#5 v=0
40406 On ch=2 n=a#4 v=0
40429 On ch=2 n=g4 v=67
40525 On ch=2 n=g4 v=0
40530 Par ch=2 c=64 v=0
40540 Par ch=2 c=64 v=0
40548 On ch=2 n=f#3 v=67
40644 On ch=2 n=f#3 v=0
40667 On ch=2 n=f#4 v=67
40763 On ch=2 n=f#4 v=0
40788 On ch=2 n=g3 v=68
40793 Par ch=2 c=64 v=0
40803 Par ch=2 c=64 v=127
40884 On ch=2 n=g3 v=0
40908 On ch=2 n=g4 v=68
41004 On ch=2 n=g4 v=0
41025 Par ch=2 c=64 v=0
41028 On ch=2 n=c#3 v=68
41035 Par ch=2 c=64 v=0
41124 On ch=2 n=c#3 v=0
41146 On ch=2 n=c#4 v=69
41242 On ch=2 n=c#4 v=0
41270 On ch=2 n=d#3 v=69
41287 Par ch=2 c=64 v=127
41366 On ch=2 n=d#3 v=0
41388 On ch=2 n=d#4 v=69
41484 On ch=2 n=d#4 v=0
41489 Par ch=2 c=64 v=0
41499 Par ch=2 c=64 v=0
41505 On ch=2 n=c#2 v=70
41601 On ch=2 n=c#2 v=0
41628 On ch=2 n=c#3 v=70
41724 On ch=2 n=c#3 v=0
41747 On ch=2 n=d#2 v=70
41748 On ch=2 n=d#3 v=70
41772 Par ch=2 c=64 v=127
41939 On ch=2 n=d#2 v=0
41940 On ch=2 n=d#3 v=0
41988 On ch=2 n=d#4 v=71
41988 On ch=2 n=g5 v=71
41991 On ch=2 n=a#4 v=71
41991 On ch=2 n=c#5 v=71
42180 On ch=2 n=g5 v=0
42180 On ch=2 n=d#4 v=0
42183 On ch=2 n=a#4 v=0
42183 On ch=2 n=c#5 v=0
42469 On ch=2 n=d#3 v=72
42479 Par ch=2 c=64 v=0
42489 Par ch=2 c=64 v=0
42661 On ch=2 n=d#3 v=0
42705 On ch=2 n=d#4 v=73
42705 On ch=2 n=a#4 v=73
42705 On ch=2 n=c#5 v=73
42710 On ch=2 n=g4 v=73
42832 Par ch=2 c=64 v=127
42897 On ch=2 n=c#5 v=0
42897 On ch=2 n=d#4 v=0
42897 On ch=2 n=a#4 v=0
42902 On ch=2 n=g4 v=0
43189 On ch=2 n=g#3 v=76
43191 On ch=2 n=g#2 v=76
43285 On ch=2 n=g#3 v=0
43287 On ch=2 n=g#2 v=0
43305 On ch=2 n=d#4 v=76
43401 On ch=2 n=d#4 v=0
43427 On ch=2 n=d#5 v=76
43438 Par ch=2 c=64 v=0
43448 Par ch=2 c=64 v=0
43523 On ch=2 n=d#5 v=0
43546 On ch=2 n=d#4 v=76
43642 On ch=2 n=d#4 v=0
43668 On ch=2 n=g#3 v=76
43764 On ch=2 n=g#3 v=0
43786 On ch=2 n=d#5 v=76
43788 On ch=2 n=d#4 v=76
43882 On ch=2 n=d#5 v=0
43884 On ch=2 n=d#4 v=0
43906 On ch=2 n=g#3 v=76
43942 Par ch=2 c=64 v=0
43952 Par ch=2 c=64 v=127
44002 On ch=2 n=g#3 v=0
44026 On ch=2 n=d#4 v=76
44122 On ch=2 n=d#4 v=0
44147 On ch=2 n=d#5 v=76
44243 On ch=2 n=d#5 v=0
44269 On ch=2 n=d#4 v=76
44365 On ch=2 n=d#4 v=0
44376 Par ch=2 c=64 v=0
44386 On ch=2 n=d#3 v=76
44386 Par ch=2 c=64 v=0
44482 On ch=2 n=d#3 v=0
44505 On ch=2 n=d#5 v=76
44505 On ch=2 n=d#4 v=76
44601 On ch=2 n=d#4 v=0
44601 On ch=2 n=d#5 v=0
44628 On ch=2 n=g#3 v=76
44649 Par ch=2 c=64 v=127
44724 On ch=2 n=g#3 v=0
44748 On ch=2 n=d#4 v=76
44844 On ch=2 n=d#4 v=0
44871 On ch=2 n=d#5 v=76
44967 On ch=2 n=d#5 v=0
44991 On ch=2 n=d#4 v=76
45087 On ch=2 n=d#4 v=0
45093 Par ch=2 c=64 v=0
45103 Par ch=2 c=64 v=0
45106 On ch=2 n=g#3 v=76
45202 On ch=2 n=g#3 v=0
45227 On ch=2 n=d#4 v=76
45229 On ch=2 n=d#5 v=76
45323 On ch=2 n=d#4 v=0
45325 On ch=2 n=d#5 v=0
45348 On ch=2 n=c#3 v=76
45366 Par ch=2 c=64 v=0
45376 Par ch=2 c=64 v=127
45444 On ch=2 n=c#3 v=0
45468 On ch=2 n=c#4 v=76
45564 On ch=2 n=c#4 v=0
45589 On ch=2 n=c#5 v=76
45685 On ch=2 n=c#5 v=0
45710 On ch=2 n=c#4 v=76
45806 On ch=2 n=c#4 v=0
45831 On ch=2 n=f#3 v=76
45840 Par ch=2 c=64 v=0
45927 On ch=2 n=f#3 v=0
45945 On ch=2 n=c#5 v=76
45947 On ch=2 n=c#4 v=76
46041 On ch=2 n=c#5 v=0
46043 On ch=2 n=c#4 v=0
46069 On ch=2 n=f#3 v=76
46143 Par ch=2 c=64 v=127
46165 On ch=2 n=f#3 v=0
46188 On ch=2 n=c#4 v=76
46284 On ch=2 n=c#4 v=0
46308 On ch=2 n=c#5 v=76
46404 On ch=2 n=c#5 v=0
46431 On ch=2 n=c#4 v=76
46527 On ch=2 n=c#4 v=0
46547 Par ch=2 c=64 v=0
46548 On ch=2 n=f#3 v=76
46557 Par ch=2 c=64 v=0
46644 On ch=2 n=f#3 v=0
46666 On ch=2 n=c#5 v=76
46671 On ch=2 n=c#4 v=76
46762 On ch=2 n=c#5 v=0
46767 On ch=2 n=c#4 v=0
46787 On ch=2 n=f#3 v=76
46812 Par ch=2 c=64 v=127
46883 On ch=2 n=f#3 v=0
46907 On ch=2 n=c#4 v=76
47003 On ch=2 n=c#4 v=0
47028 On ch=2 n=c#5 v=76
47124 On ch=2 n=c#5 v=0
47147 On ch=2 n=c#4 v=76
47243 On ch=2 n=c#4 v=0
47266 On ch=2 n=c#3 v=76
47273 Par ch=2 c=64 v=0
47283 Par ch=2 c=64 v=0
47362 On ch=2 n=c#3 v=0
47389 On ch=2 n=c#4 v=76
47391 On ch=2 n=c#5 v=76
47485 On ch=2 n=c#4 v=0
47487 On ch=2 n=c#5 v=0
47505 On ch=2 n=f#3 v=76
47520 Par ch=2 c=64 v=127
47601 On ch=2 n=f#3 v=0
47625 On ch=2 n=c#4 v=76
47721 On ch=2 n=c#4 v=0
47749 On ch=2 n=c#5 v=76
47758 Par ch=2 c=64 v=0
47768 Par ch=2 c=64 v=0
47845 On ch=2 n=c#5 v=0
47865 On ch=2 n=c#4 v=76
47961 On ch=2 n=c#4 v=0
47988 On ch=2 n=d#3 v=76
48084 On ch=2 n=d#3 v=0
48109 On ch=2 n=d#5 v=76
48109 On ch=2 n=d#4 v=76
48205 On ch=2 n=d#4 v=0
48205 On ch=2 n=d#5 v=0
48230 On ch=2 n=g#3 v=76
48233 Par ch=2 c=64 v=0
48242 Par ch=2 c=64 v=127
48326 On ch=2 n=g#3 v=0
48347 On ch=2 n=d#4 v=76
48443 On ch=2 n=d#4 v=0
48471 On ch=2 n=d#5 v=76
48567 On ch=2 n=d#5 v=0
48588 On ch=2 n=d#4 v=76
48684 On ch=2 n=d#4 v=0
48694 Par ch=2 c=64 v=0
48704 Par ch=2 c=64 v=0
48705 On ch=2 n=d#3 v=76
48801 On ch=2 n=d#3 v=0
48827 On ch=2 n=d#5 v=76
48828 On ch=2 n=d#4 v=76
48923 On ch=2 n=d#5 v=0
48924 On ch=2 n=d#4 v=0
48944 On ch=2 n=g#2 v=76
48945 On ch=2 n=g#3 v=76
48956 Par ch=2 c=64 v=0
48966 Par ch=2 c=64 v=127
49040 On ch=2 n=g#2 v=0
49041 On ch=2 n=g#3 v=0
49066 On ch=2 n=d#4 v=76
49162 On ch=2 n=d#4 v=0
49185 On ch=2 n=d#5 v=76
49281 On ch=2 n=d#5 v=0
49304 On ch=2 n=d#4 v=76
49400 On ch=2 n=d#4 v=0
49420 Par ch=2 c=64 v=0
49425 On ch=2 n=a#3 v=76
49426 On ch=2 n=a#2 v=76
49491 Par ch=2 c=64 v=0
49501 Par ch=2 c=64 v=127
49521 On ch=2 n=a#3 v=0
49522 On ch=2 n=a#2 v=0
49543 On ch=2 n=d#4 v=76
49547 On ch=2 n=d#5 v=76
49639 On ch=2 n=d#4 v=0
49643 On ch=2 n=d#5 v=0
49663 On ch=2 n=b3 v=76
49665 On ch=2 n=b2 v=76
49733 Par ch=2 c=64 v=0
49743 Par ch=2 c=64 v=0
49759 On ch=2 n=b3 v=0
49761 On ch=2 n=b2 v=0
49782 On ch=2 n=e4 v=76
49804 Par ch=2 c=64 v=0
49814 Par ch=2 c=64 v=127
49878 On ch=2 n=e4 v=0
49903 On ch=2 n=e5 v=76
49999 On ch=2 n=e5 v=0
50026 On ch=2 n=e4 v=76
50122 On ch=2 n=e4 v=0
50145 On ch=2 n=c#4 v=76
50148 On ch=2 n=c#3 v=76
50167 Par ch=2 c=64 v=0
50178 Par ch=2 c=64 v=0
50241 On ch=2 n=c#4 v=0
50244 On ch=2 n=c#3 v=0
50248 Par ch=2 c=64 v=0
50258 Par ch=2 c=64 v=127
50268 On ch=2 n=c#5 v=76
50364 On ch=2 n=c#5 v=0
50382 On ch=2 n=d#3 v=76
50384 On ch=2 n=d#4 v=76
50390 Par ch=2 c=64 v=0
50470 Par ch=2 c=64 v=127
50478 On ch=2 n=d#3 v=0
50480 On ch=2 n=d#4 v=0
50505 On ch=2 n=d#4 v=76
50601 On ch=2 n=d#4 v=0
50625 On ch=2 n=b4 v=76
50721 On ch=2 n=b4 v=0
50743 On ch=2 n=g#4 v=76
50839 On ch=2 n=g#4 v=0
50854 Par ch=2 c=64 v=0
50862 On ch=2 n=d#3 v=76
50864 Par ch=2 c=64 v=0
50958 On ch=2 n=d#3 v=0
50984 On ch=2 n=d#4 v=76
50987 On ch=2 n=g4 v=76
51080 On ch=2 n=d#4 v=0
51083 On ch=2 n=g4 v=0
51105 On ch=2 n=g#3 v=76
51106 On ch=2 n=g#2 v=76
51106 Par ch=2 c=64 v=0
51116 Par ch=2 c=64 v=127
51201 On ch=2 n=g#3 v=0
51202 On ch=2 n=g#2 v=0
51223 On ch=2 n=d#4 v=76
51319 On ch=2 n=d#4 v=0
51345 On ch=2 n=g4 v=76
51441 On ch=2 n=g4 v=0
51467 On ch=2 n=d#4 v=76
51563 On ch=2 n=d#4 v=0
51582 On ch=2 n=g#4 v=76
51584 On ch=2 n=g#3 v=76
51588 On ch=2 n=d#4 v=76
51671 Par ch=2 c=64 v=0
51774 On ch=2 n=g#4 v=0
51776 On ch=2 n=g#3 v=0
51780 On ch=2 n=d#4 v=0
51780 Meta TrkEnd
TrkEnd
