MFile 1 3 240
MTrk
0 TimeSig 3/4 24 8
0 KeySig 0 major
0 Tempo 555556
0 Meta TrkEnd
TrkEnd
MTrk
0 Meta 0x21 00
0 Meta TrkName "Piano"
0 PrCh ch=1 p=0
0 Par ch=1 c=7 v=127
0 Par ch=1 c=10 v=72
480 On ch=1 n=b5 v=70
600 On ch=1 n=b5 v=0
600 On ch=1 n=c6 v=70
639 On ch=1 n=c6 v=0
639 On ch=1 n=b5 v=70
679 On ch=1 n=b5 v=0
679 On ch=1 n=a#5 v=70
719 On ch=1 n=a#5 v=0
720 On ch=1 n=g5 v=70
720 On ch=1 n=b5 v=70
840 On ch=1 n=b5 v=0
840 On ch=1 n=g5 v=0
840 On ch=1 n=b5 v=70
840 On ch=1 n=g6 v=70
960 On ch=1 n=g6 v=0
960 On ch=1 n=b5 v=0
1080 On ch=1 n=b5 v=70
1080 On ch=1 n=g6 v=70
1200 On ch=1 n=g6 v=0
1200 On ch=1 n=b5 v=0
1200 On ch=1 n=a5 v=70
1200 On ch=1 n=f#6 v=70
1320 On ch=1 n=f#6 v=0
1320 On ch=1 n=a5 v=0
1320 On ch=1 n=b5 v=70
1320 On ch=1 n=g6 v=70
1440 On ch=1 n=g6 v=0
1440 On ch=1 n=b5 v=0
1440 On ch=1 n=a5 v=70
1440 On ch=1 n=f#6 v=70
1680 On ch=1 n=f#6 v=0
1680 On ch=1 n=a5 v=0
1680 On ch=1 n=g5 v=70
1680 On ch=1 n=e6 v=70
1920 On ch=1 n=e6 v=0
1920 On ch=1 n=g5 v=0
2040 On ch=1 n=g5 v=70
2100 On ch=1 n=g5 v=0
2100 On ch=1 n=a5 v=70
2119 On ch=1 n=a5 v=0
2119 On ch=1 n=g5 v=70
2139 On ch=1 n=g5 v=0
2139 On ch=1 n=f#5 v=70
2159 On ch=1 n=f#5 v=0
2160 On ch=1 n=e5 v=70
2160 On ch=1 n=g5 v=70
2280 On ch=1 n=g5 v=0
2280 On ch=1 n=e5 v=0
2280 On ch=1 n=g5 v=70
2280 On ch=1 n=e6 v=70
2400 On ch=1 n=e6 v=0
2400 On ch=1 n=g5 v=0
2520 On ch=1 n=g5 v=70
2520 On ch=1 n=e6 v=70
2640 On ch=1 n=e6 v=0
2640 On ch=1 n=g5 v=0
2640 On ch=1 n=f5 v=70
2640 On ch=1 n=d6 v=70
2760 On ch=1 n=d6 v=0
2760 On ch=1 n=f5 v=0
2760 On ch=1 n=g5 v=70
2760 On ch=1 n=e6 v=70
2880 On ch=1 n=e6 v=0
2880 On ch=1 n=g5 v=0
2880 On ch=1 n=f5 v=70
2880 On ch=1 n=d6 v=70
3120 On ch=1 n=d6 v=0
3120 On ch=1 n=f5 v=0
3120 On ch=1 n=e5 v=70
3120 On ch=1 n=c6 v=70
3360 On ch=1 n=c6 v=0
3360 On ch=1 n=e5 v=0
3480 On ch=1 n=e5 v=70
3540 On ch=1 n=e5 v=0
3540 On ch=1 n=f#5 v=70
3559 On ch=1 n=f#5 v=0
3559 On ch=1 n=e5 v=70
3579 On ch=1 n=e5 v=0
3579 On ch=1 n=d#5 v=70
3599 On ch=1 n=d#5 v=0
3600 On ch=1 n=c#5 v=70
3600 On ch=1 n=e5 v=70
3720 On ch=1 n=e5 v=0
3720 On ch=1 n=c#5 v=0
3720 On ch=1 n=e5 v=70
3720 On ch=1 n=c#6 v=70
3840 On ch=1 n=c#6 v=0
3840 On ch=1 n=e5 v=0
3960 On ch=1 n=f#5 v=70
4080 On ch=1 n=f#5 v=0
4080 On ch=1 n=d5 v=70
4080 On ch=1 n=g5 v=70
4200 On ch=1 n=g5 v=0
4200 On ch=1 n=d5 v=0
4200 On ch=1 n=b5 v=70
4320 On ch=1 n=b5 v=0
4320 On ch=1 n=e5 v=70
4320 On ch=1 n=a#5 v=70
4440 On ch=1 n=a#5 v=0
4440 On ch=1 n=e5 v=0
4440 On ch=1 n=g6 v=70
4560 On ch=1 n=g6 v=0
4680 On ch=1 n=a#5 v=70
4800 On ch=1 n=a#5 v=0
4800 On ch=1 n=f#5 v=70
4800 On ch=1 n=b5 v=70
4920 On ch=1 n=b5 v=0
4920 On ch=1 n=f#5 v=0
4920 On ch=1 n=d6 v=70
5040 On ch=1 n=d6 v=0
5040 On ch=1 n=g5 v=70
5040 On ch=1 n=c#6 v=70
5160 On ch=1 n=c#6 v=0
5160 On ch=1 n=g5 v=0
5160 On ch=1 n=b6 v=70
5280 On ch=1 n=b6 v=0
5400 On ch=1 n=b6 v=70
5520 On ch=1 n=b6 v=0
5520 On ch=1 n=c#6 v=70
5520 On ch=1 n=a#6 v=70
5640 On ch=1 n=a#6 v=0
5640 On ch=1 n=b6 v=70
5760 On ch=1 n=b6 v=0
5760 On ch=1 n=c#6 v=0
5760 On ch=1 n=f#5 v=70
5760 On ch=1 n=f#6 v=70
6120 On ch=1 n=f#6 v=0
6120 On ch=1 n=a#5 v=70
6240 On ch=1 n=a#5 v=0
6240 On ch=1 n=f#5 v=0
6240 On ch=1 n=d#5 v=70
6240 On ch=1 n=b5 v=70
6360 On ch=1 n=b5 v=0
6360 On ch=1 n=c6 v=70
6399 On ch=1 n=c6 v=0
6399 On ch=1 n=b5 v=70
6439 On ch=1 n=b5 v=0
6439 On ch=1 n=a#5 v=70
6479 On ch=1 n=a#5 v=0
6480 On ch=1 n=d#5 v=0
6480 On ch=1 n=g5 v=70
6480 On ch=1 n=b5 v=70
6600 On ch=1 n=b5 v=0
6600 On ch=1 n=g5 v=0
6600 On ch=1 n=b5 v=70
6600 On ch=1 n=g6 v=70
6720 On ch=1 n=g6 v=0
6720 On ch=1 n=b5 v=0
6840 On ch=1 n=b5 v=70
6840 On ch=1 n=g6 v=70
6960 On ch=1 n=g6 v=0
6960 On ch=1 n=b5 v=0
6960 On ch=1 n=a5 v=70
6960 On ch=1 n=f#6 v=70
7080 On ch=1 n=f#6 v=0
7080 On ch=1 n=a5 v=0
7080 On ch=1 n=b5 v=70
7080 On ch=1 n=g6 v=70
7200 On ch=1 n=g6 v=0
7200 On ch=1 n=b5 v=0
7200 On ch=1 n=a5 v=70
7200 On ch=1 n=f#6 v=70
7440 On ch=1 n=f#6 v=0
7440 On ch=1 n=a5 v=0
7440 On ch=1 n=g5 v=70
7440 On ch=1 n=e6 v=70
7680 On ch=1 n=e6 v=0
7680 On ch=1 n=g5 v=0
7800 On ch=1 n=g5 v=70
7860 On ch=1 n=g5 v=0
7860 On ch=1 n=a5 v=70
7879 On ch=1 n=a5 v=0
7879 On ch=1 n=g5 v=70
7899 On ch=1 n=g5 v=0
7899 On ch=1 n=f#5 v=70
7919 On ch=1 n=f#5 v=0
7920 On ch=1 n=e5 v=70
7920 On ch=1 n=g5 v=70
8040 On ch=1 n=g5 v=0
8040 On ch=1 n=e5 v=0
8040 On ch=1 n=g5 v=70
8040 On ch=1 n=e6 v=70
8160 On ch=1 n=e6 v=0
8160 On ch=1 n=g5 v=0
8280 On ch=1 n=g5 v=70
8280 On ch=1 n=e6 v=70
8400 On ch=1 n=e6 v=0
8400 On ch=1 n=g5 v=0
8400 On ch=1 n=f5 v=70
8400 On ch=1 n=d6 v=70
8520 On ch=1 n=d6 v=0
8520 On ch=1 n=f5 v=0
8520 On ch=1 n=g5 v=70
8520 On ch=1 n=e6 v=70
8640 On ch=1 n=e6 v=0
8640 On ch=1 n=g5 v=0
8640 On ch=1 n=f5 v=70
8640 On ch=1 n=d6 v=70
8880 On ch=1 n=d6 v=0
8880 On ch=1 n=f5 v=0
8880 On ch=1 n=e5 v=70
8880 On ch=1 n=c6 v=70
9120 On ch=1 n=c6 v=0
9120 On ch=1 n=e5 v=0
9240 On ch=1 n=e5 v=70
9300 On ch=1 n=e5 v=0
9300 On ch=1 n=f#5 v=70
9319 On ch=1 n=f#5 v=0
9319 On ch=1 n=e5 v=70
9339 On ch=1 n=e5 v=0
9339 On ch=1 n=d#5 v=70
9359 On ch=1 n=d#5 v=0
9360 On ch=1 n=c#5 v=70
9360 On ch=1 n=e5 v=70
9480 On ch=1 n=e5 v=0
9480 On ch=1 n=c#5 v=0
9480 On ch=1 n=e5 v=70
9480 On ch=1 n=c#6 v=70
9600 On ch=1 n=c#6 v=0
9600 On ch=1 n=e5 v=0
9720 On ch=1 n=f#5 v=70
9840 On ch=1 n=f#5 v=0
9840 On ch=1 n=d5 v=70
9840 On ch=1 n=g5 v=70
9960 On ch=1 n=g5 v=0
9960 On ch=1 n=d5 v=0
9960 On ch=1 n=b5 v=70
10080 On ch=1 n=b5 v=0
10080 On ch=1 n=e5 v=70
10080 On ch=1 n=a#5 v=70
10200 On ch=1 n=a#5 v=0
10200 On ch=1 n=e5 v=0
10200 On ch=1 n=g6 v=70
10320 On ch=1 n=g6 v=0
10440 On ch=1 n=a#5 v=70
10560 On ch=1 n=a#5 v=0
10560 On ch=1 n=f#5 v=70
10560 On ch=1 n=b5 v=70
10680 On ch=1 n=b5 v=0
10680 On ch=1 n=f#5 v=0
10680 On ch=1 n=d6 v=70
10800 On ch=1 n=d6 v=0
10800 On ch=1 n=g5 v=70
10800 On ch=1 n=c#6 v=70
10920 On ch=1 n=c#6 v=0
10920 On ch=1 n=g5 v=0
10920 On ch=1 n=b6 v=70
11040 On ch=1 n=b6 v=0
11160 On ch=1 n=b6 v=70
11280 On ch=1 n=b6 v=0
11280 On ch=1 n=c#6 v=70
11280 On ch=1 n=a#6 v=70
11400 On ch=1 n=a#6 v=0
11400 On ch=1 n=b6 v=70
11520 On ch=1 n=b6 v=0
11520 On ch=1 n=c#6 v=0
11520 On ch=1 n=f#5 v=70
11520 On ch=1 n=f#6 v=70
11880 On ch=1 n=f#6 v=0
11880 On ch=1 n=a#5 v=70
12000 On ch=1 n=a#5 v=0
12000 On ch=1 n=f#5 v=0
12000 On ch=1 n=d#5 v=70
12000 On ch=1 n=b5 v=70
12120 On ch=1 n=b5 v=0
12120 On ch=1 n=c6 v=70
12159 On ch=1 n=c6 v=0
12159 On ch=1 n=b5 v=70
12199 On ch=1 n=b5 v=0
12199 On ch=1 n=a#5 v=70
12239 On ch=1 n=a#5 v=0
12240 On ch=1 n=d#5 v=0
12240 On ch=1 n=b5 v=70
12360 On ch=1 n=b5 v=0
12360 On ch=1 n=b4 v=70
12480 On ch=1 n=b4 v=0
12600 On ch=1 n=b5 v=70
12720 On ch=1 n=b5 v=0
12720 On ch=1 n=a4 v=70
12840 On ch=1 n=a4 v=0
12840 On ch=1 n=a5 v=70
12960 On ch=1 n=a5 v=0
12960 On ch=1 n=g5 v=70
13080 On ch=1 n=g5 v=0
13080 On ch=1 n=g4 v=70
13200 On ch=1 n=g4 v=0
13320 On ch=1 n=g5 v=70
13320 On ch=1 n=b5 v=70
13440 On ch=1 n=b5 v=0
13440 On ch=1 n=g5 v=0
13440 On ch=1 n=d5 v=70
13560 On ch=1 n=d5 v=0
13560 On ch=1 n=g5 v=70
13560 On ch=1 n=b5 v=70
13680 On ch=1 n=b5 v=0
13680 On ch=1 n=g5 v=0
13680 On ch=1 n=c6 v=70
13680 On ch=1 n=e6 v=70
13800 On ch=1 n=e6 v=0
13800 On ch=1 n=c6 v=0
13800 On ch=1 n=e5 v=70
13920 On ch=1 n=e5 v=0
14040 On ch=1 n=c6 v=70
14040 On ch=1 n=e6 v=70
14160 On ch=1 n=e6 v=0
14160 On ch=1 n=c6 v=0
14160 On ch=1 n=d5 v=70
14280 On ch=1 n=d5 v=0
14280 On ch=1 n=d6 v=70
14400 On ch=1 n=d6 v=0
14400 On ch=1 n=c6 v=70
14520 On ch=1 n=c6 v=0
14520 On ch=1 n=c5 v=70
14640 On ch=1 n=c5 v=0
14760 On ch=1 n=e6 v=70
14880 On ch=1 n=e6 v=0
14880 On ch=1 n=e5 v=70
15000 On ch=1 n=e5 v=0
15000 On ch=1 n=e6 v=70
15120 On ch=1 n=e6 v=0
15120 On ch=1 n=f6 v=70
15240 On ch=1 n=f5 v=70
15360 On ch=1 n=f5 v=0
15360 On ch=1 n=f6 v=0
15360 On ch=1 n=d5 v=70
15480 On ch=1 n=f5 v=70
15600 On ch=1 n=f5 v=0
15600 On ch=1 n=d5 v=0
15600 On ch=1 n=b4 v=70
15720 On ch=1 n=f5 v=70
15840 On ch=1 n=f5 v=0
15840 On ch=1 n=b4 v=0
15840 On ch=1 n=f6 v=70
15960 On ch=1 n=f5 v=70
16080 On ch=1 n=f5 v=0
16080 On ch=1 n=f6 v=0
16080 On ch=1 n=d5 v=70
16200 On ch=1 n=f5 v=70
16320 On ch=1 n=f5 v=0
16320 On ch=1 n=d5 v=0
16320 On ch=1 n=b4 v=70
16440 On ch=1 n=f5 v=70
16560 On ch=1 n=f5 v=0
16560 On ch=1 n=b4 v=0
16560 On ch=1 n=f#6 v=70
16680 On ch=1 n=f#5 v=70
16800 On ch=1 n=f#5 v=0
16800 On ch=1 n=f#6 v=0
16800 On ch=1 n=d5 v=70
16920 On ch=1 n=f#5 v=70
17040 On ch=1 n=f#5 v=0
17040 On ch=1 n=d5 v=0
17040 On ch=1 n=c5 v=70
17160 On ch=1 n=f#5 v=70
17280 On ch=1 n=f#5 v=0
17280 On ch=1 n=c5 v=0
17280 On ch=1 n=f#6 v=70
17400 On ch=1 n=f#5 v=70
17520 On ch=1 n=f#5 v=0
17520 On ch=1 n=f#6 v=0
17520 On ch=1 n=d#5 v=70
17640 On ch=1 n=f#5 v=70
17760 On ch=1 n=f#5 v=0
17760 On ch=1 n=d#5 v=0
17760 On ch=1 n=b4 v=70
17880 On ch=1 n=f#5 v=70
18000 On ch=1 n=f#5 v=0
18000 On ch=1 n=b4 v=0
18000 On ch=1 n=b4 v=70
18000 On ch=1 n=e5 v=70
18000 On ch=1 n=b5 v=70
18120 On ch=1 n=b5 v=0
18120 On ch=1 n=e5 v=0
18120 On ch=1 n=b4 v=0
18120 On ch=1 n=b5 v=70
18120 On ch=1 n=g6 v=70
18240 On ch=1 n=g6 v=0
18240 On ch=1 n=b5 v=0
18360 On ch=1 n=b5 v=70
18360 On ch=1 n=g6 v=70
18480 On ch=1 n=g6 v=0
18480 On ch=1 n=b5 v=0
18480 On ch=1 n=a5 v=70
18480 On ch=1 n=f#6 v=70
18600 On ch=1 n=f#6 v=0
18600 On ch=1 n=a5 v=0
18600 On ch=1 n=b5 v=70
18600 On ch=1 n=g6 v=70
18720 On ch=1 n=g6 v=0
18720 On ch=1 n=b5 v=0
18720 On ch=1 n=a5 v=70
18720 On ch=1 n=f#6 v=70
18960 On ch=1 n=f#6 v=0
18960 On ch=1 n=a5 v=0
18960 On ch=1 n=g5 v=70
18960 On ch=1 n=e6 v=70
19200 On ch=1 n=e6 v=0
19200 On ch=1 n=g5 v=0
19200 On ch=1 n=a5 v=70
19320 On ch=1 n=d6 v=70
19350 On ch=1 n=d6 v=0
19350 On ch=1 n=e6 v=70
19380 On ch=1 n=e6 v=0
19380 On ch=1 n=d6 v=70
19410 On ch=1 n=d6 v=0
19410 On ch=1 n=c#6 v=70
19440 On ch=1 n=c#6 v=0
19440 On ch=1 n=a5 v=0
19440 On ch=1 n=b5 v=70
19440 On ch=1 n=d6 v=70
19560 On ch=1 n=d6 v=0
19560 On ch=1 n=b5 v=0
19560 On ch=1 n=d6 v=70
19560 On ch=1 n=b6 v=70
19680 On ch=1 n=b6 v=0
19680 On ch=1 n=d6 v=0
19800 On ch=1 n=d6 v=70
19800 On ch=1 n=b6 v=70
19920 On ch=1 n=b6 v=0
19920 On ch=1 n=d6 v=0
19920 On ch=1 n=c6 v=70
19920 On ch=1 n=a6 v=70
20040 On ch=1 n=a6 v=0
20040 On ch=1 n=c6 v=0
20040 On ch=1 n=d6 v=70
20040 On ch=1 n=b6 v=70
20160 On ch=1 n=b6 v=0
20160 On ch=1 n=d6 v=0
20160 On ch=1 n=c6 v=70
20160 On ch=1 n=a6 v=70
20400 On ch=1 n=a6 v=0
20400 On ch=1 n=c6 v=0
20400 On ch=1 n=b5 v=70
20400 On ch=1 n=g6 v=70
20640 On ch=1 n=g6 v=0
20640 On ch=1 n=b5 v=0
20640 On ch=1 n=c#6 v=70
20760 On ch=1 n=e6 v=70
20799 On ch=1 n=e6 v=0
20799 On ch=1 n=f#6 v=70
20839 On ch=1 n=f#6 v=0
20839 On ch=1 n=g6 v=70
20879 On ch=1 n=g6 v=0
20880 On ch=1 n=c#6 v=0
20880 On ch=1 n=b5 v=70
20880 On ch=1 n=d#6 v=70
21000 On ch=1 n=d#6 v=0
21000 On ch=1 n=b5 v=0
21000 On ch=1 n=f#6 v=70
21000 On ch=1 n=d#7 v=70
21120 On ch=1 n=d#7 v=0
21120 On ch=1 n=f#6 v=0
21240 On ch=1 n=f#6 v=70
21240 On ch=1 n=d#7 v=70
21360 On ch=1 n=d#7 v=0
21360 On ch=1 n=f#6 v=0
21360 On ch=1 n=e6 v=70
21360 On ch=1 n=e7 v=70
21480 On ch=1 n=e7 v=0
21480 On ch=1 n=e6 v=0
21480 On ch=1 n=g6 v=70
21600 On ch=1 n=g6 v=0
21600 On ch=1 n=d#6 v=70
21600 On ch=1 n=f#6 v=70
21720 On ch=1 n=f#6 v=0
21720 On ch=1 n=d#6 v=0
21720 On ch=1 n=f#6 v=70
21720 On ch=1 n=d#7 v=70
21840 On ch=1 n=d#7 v=0
21840 On ch=1 n=f#6 v=0
21960 On ch=1 n=f#6 v=70
21960 On ch=1 n=d#7 v=70
22080 On ch=1 n=d#7 v=0
22080 On ch=1 n=f#6 v=0
22080 On ch=1 n=e6 v=70
22080 On ch=1 n=e7 v=70
22200 On ch=1 n=e7 v=0
22200 On ch=1 n=e6 v=0
22200 On ch=1 n=g6 v=70
22320 On ch=1 n=g6 v=0
22320 On ch=1 n=f#6 v=70
22320 On ch=1 n=d#6 v=70
22440 On ch=1 n=f#6 v=0
22440 On ch=1 n=d#7 v=70
22560 On ch=1 n=d#7 v=0
22560 On ch=1 n=d#6 v=0
22560 On ch=1 n=d7 v=70
22560 On ch=1 n=d6 v=70
22680 On ch=1 n=d7 v=0
22680 On ch=1 n=f6 v=70
22800 On ch=1 n=f6 v=0
22800 On ch=1 n=d6 v=0
22800 On ch=1 n=c6 v=70
22800 On ch=1 n=e6 v=70
22920 On ch=1 n=e6 v=0
22920 On ch=1 n=c7 v=70
23040 On ch=1 n=c7 v=0
23040 On ch=1 n=c6 v=0
23040 On ch=1 n=d#6 v=70
23040 On ch=1 n=c6 v=70
23160 On ch=1 n=d#6 v=0
23160 On ch=1 n=c7 v=70
23280 On ch=1 n=c7 v=0
23280 On ch=1 n=c6 v=0
23280 On ch=1 n=b6 v=70
23280 On ch=1 n=b5 v=70
23400 On ch=1 n=b6 v=0
23400 On ch=1 n=d6 v=70
23520 On ch=1 n=d6 v=0
23520 On ch=1 n=b5 v=0
23520 On ch=1 n=a5 v=70
23520 On ch=1 n=c6 v=70
23640 On ch=1 n=c6 v=0
23640 On ch=1 n=a6 v=70
23760 On ch=1 n=a6 v=0
23760 On ch=1 n=a5 v=0
23760 On ch=1 n=b5 v=70
23856 On ch=1 n=b5 v=0
23880 On ch=1 n=g6 v=70
23976 On ch=1 n=g6 v=0
24000 On ch=1 n=c6 v=70
24000 On ch=1 n=a5 v=70
24096 On ch=1 n=a5 v=0
24096 On ch=1 n=c6 v=0
24120 On ch=1 n=f#6 v=70
24216 On ch=1 n=f#6 v=0
24240 On ch=1 n=b5 v=70
24240 On ch=1 n=a5 v=70
24336 On ch=1 n=a5 v=0
24336 On ch=1 n=b5 v=0
24360 On ch=1 n=d#6 v=70
24456 On ch=1 n=d#6 v=0
24480 On ch=1 n=g5 v=70
24480 On ch=1 n=b5 v=70
24480 On ch=1 n=e6 v=70
24960 On ch=1 n=e6 v=0
24960 On ch=1 n=b5 v=0
24960 On ch=1 n=g5 v=0
24960 On ch=1 n=b5 v=70
25080 On ch=1 n=b5 v=0
25080 On ch=1 n=c6 v=70
25119 On ch=1 n=c6 v=0
25119 On ch=1 n=b5 v=70
25159 On ch=1 n=b5 v=0
25159 On ch=1 n=a#5 v=70
25199 On ch=1 n=a#5 v=0
25200 On ch=1 n=b5 v=70
25320 On ch=1 n=b5 v=0
25320 On ch=1 n=b4 v=70
25440 On ch=1 n=b4 v=0
25560 On ch=1 n=b5 v=70
25680 On ch=1 n=b5 v=0
25680 On ch=1 n=a4 v=70
25800 On ch=1 n=a4 v=0
25800 On ch=1 n=a5 v=70
25920 On ch=1 n=a5 v=0
25920 On ch=1 n=g5 v=70
26040 On ch=1 n=g5 v=0
26040 On ch=1 n=g4 v=70
26160 On ch=1 n=g4 v=0
26280 On ch=1 n=g5 v=70
26280 On ch=1 n=b5 v=70
26400 On ch=1 n=b5 v=0
26400 On ch=1 n=g5 v=0
26400 On ch=1 n=d5 v=70
26520 On ch=1 n=d5 v=0
26520 On ch=1 n=g5 v=70
26520 On ch=1 n=b5 v=70
26640 On ch=1 n=b5 v=0
26640 On ch=1 n=g5 v=0
26640 On ch=1 n=c6 v=70
26640 On ch=1 n=e6 v=70
26760 On ch=1 n=e6 v=0
26760 On ch=1 n=c6 v=0
26760 On ch=1 n=e5 v=70
26880 On ch=1 n=e5 v=0
27000 On ch=1 n=c6 v=70
27000 On ch=1 n=e6 v=70
27120 On ch=1 n=e6 v=0
27120 On ch=1 n=c6 v=0
27120 On ch=1 n=d5 v=70
27240 On ch=1 n=d5 v=0
27240 On ch=1 n=d6 v=70
27360 On ch=1 n=d6 v=0
27360 On ch=1 n=c6 v=70
27480 On ch=1 n=c6 v=0
27480 On ch=1 n=c5 v=70
27600 On ch=1 n=c5 v=0
27720 On ch=1 n=e6 v=70
27840 On ch=1 n=e6 v=0
27840 On ch=1 n=e5 v=70
27960 On ch=1 n=e5 v=0
27960 On ch=1 n=e6 v=70
28080 On ch=1 n=e6 v=0
28080 On ch=1 n=f6 v=70
28200 On ch=1 n=f5 v=70
28320 On ch=1 n=f5 v=0
28320 On ch=1 n=f6 v=0
28320 On ch=1 n=d5 v=70
28440 On ch=1 n=f5 v=70
28560 On ch=1 n=f5 v=0
28560 On ch=1 n=d5 v=0
28560 On ch=1 n=b4 v=70
28680 On ch=1 n=f5 v=70
28800 On ch=1 n=f5 v=0
28800 On ch=1 n=b4 v=0
28800 On ch=1 n=f6 v=70
28920 On ch=1 n=f5 v=70
29040 On ch=1 n=f5 v=0
29040 On ch=1 n=f6 v=0
29040 On ch=1 n=d5 v=70
29160 On ch=1 n=f5 v=70
29280 On ch=1 n=f5 v=0
29280 On ch=1 n=d5 v=0
29280 On ch=1 n=b4 v=70
29400 On ch=1 n=f5 v=70
29520 On ch=1 n=f5 v=0
29520 On ch=1 n=b4 v=0
29520 On ch=1 n=f#6 v=70
29640 On ch=1 n=f#5 v=70
29760 On ch=1 n=f#5 v=0
29760 On ch=1 n=f#6 v=0
29760 On ch=1 n=d5 v=70
29880 On ch=1 n=f#5 v=70
30000 On ch=1 n=f#5 v=0
30000 On ch=1 n=d5 v=0
30000 On ch=1 n=c5 v=70
30120 On ch=1 n=f#5 v=70
30240 On ch=1 n=f#5 v=0
30240 On ch=1 n=c5 v=0
30240 On ch=1 n=f#6 v=70
30360 On ch=1 n=f#5 v=70
30480 On ch=1 n=f#5 v=0
30480 On ch=1 n=f#6 v=0
30480 On ch=1 n=d#5 v=70
30600 On ch=1 n=f#5 v=70
30720 On ch=1 n=f#5 v=0
30720 On ch=1 n=d#5 v=0
30720 On ch=1 n=b4 v=70
30840 On ch=1 n=f#5 v=70
30960 On ch=1 n=f#5 v=0
30960 On ch=1 n=b4 v=0
30960 On ch=1 n=b4 v=70
30960 On ch=1 n=e5 v=70
30960 On ch=1 n=b5 v=70
31080 On ch=1 n=b5 v=0
31080 On ch=1 n=e5 v=0
31080 On ch=1 n=b4 v=0
31080 On ch=1 n=b5 v=70
31080 On ch=1 n=g6 v=70
31200 On ch=1 n=g6 v=0
31200 On ch=1 n=b5 v=0
31320 On ch=1 n=b5 v=70
31320 On ch=1 n=g6 v=70
31440 On ch=1 n=g6 v=0
31440 On ch=1 n=b5 v=0
31440 On ch=1 n=a5 v=70
31440 On ch=1 n=f#6 v=70
31560 On ch=1 n=f#6 v=0
31560 On ch=1 n=a5 v=0
31560 On ch=1 n=b5 v=70
31560 On ch=1 n=g6 v=70
31680 On ch=1 n=g6 v=0
31680 On ch=1 n=b5 v=0
31680 On ch=1 n=a5 v=70
31680 On ch=1 n=f#6 v=70
31920 On ch=1 n=f#6 v=0
31920 On ch=1 n=a5 v=0
31920 On ch=1 n=g5 v=70
31920 On ch=1 n=e6 v=70
32160 On ch=1 n=e6 v=0
32160 On ch=1 n=g5 v=0
32160 On ch=1 n=a5 v=70
32280 On ch=1 n=d6 v=70
32310 On ch=1 n=d6 v=0
32310 On ch=1 n=e6 v=70
32340 On ch=1 n=e6 v=0
32340 On ch=1 n=d6 v=70
32370 On ch=1 n=d6 v=0
32370 On ch=1 n=c#6 v=70
32400 On ch=1 n=c#6 v=0
32400 On ch=1 n=a5 v=0
32400 On ch=1 n=b5 v=70
32400 On ch=1 n=d6 v=70
32520 On ch=1 n=d6 v=0
32520 On ch=1 n=b5 v=0
32520 On ch=1 n=d6 v=70
32520 On ch=1 n=b6 v=70
32640 On ch=1 n=b6 v=0
32640 On ch=1 n=d6 v=0
32760 On ch=1 n=d6 v=70
32760 On ch=1 n=b6 v=70
32880 On ch=1 n=b6 v=0
32880 On ch=1 n=d6 v=0
32880 On ch=1 n=c6 v=70
32880 On ch=1 n=a6 v=70
33000 On ch=1 n=a6 v=0
33000 On ch=1 n=c6 v=0
33000 On ch=1 n=d6 v=70
33000 On ch=1 n=b6 v=70
33120 On ch=1 n=b6 v=0
33120 On ch=1 n=d6 v=0
33120 On ch=1 n=c6 v=70
33120 On ch=1 n=a6 v=70
33360 On ch=1 n=a6 v=0
33360 On ch=1 n=c6 v=0
33360 On ch=1 n=b5 v=70
33360 On ch=1 n=g6 v=70
33600 On ch=1 n=g6 v=0
33600 On ch=1 n=b5 v=0
33600 On ch=1 n=c#6 v=70
33720 On ch=1 n=e6 v=70
33759 On ch=1 n=e6 v=0
33759 On ch=1 n=f#6 v=70
33799 On ch=1 n=f#6 v=0
33799 On ch=1 n=g6 v=70
33839 On ch=1 n=g6 v=0
33840 On ch=1 n=c#6 v=0
33840 On ch=1 n=b5 v=70
33840 On ch=1 n=d#6 v=70
33960 On ch=1 n=d#6 v=0
33960 On ch=1 n=b5 v=0
33960 On ch=1 n=f#6 v=70
33960 On ch=1 n=d#7 v=70
34080 On ch=1 n=d#7 v=0
34080 On ch=1 n=f#6 v=0
34200 On ch=1 n=f#6 v=70
34200 On ch=1 n=d#7 v=70
34320 On ch=1 n=d#7 v=0
34320 On ch=1 n=f#6 v=0
34320 On ch=1 n=e6 v=70
34320 On ch=1 n=e7 v=70
34440 On ch=1 n=e7 v=0
34440 On ch=1 n=e6 v=0
34440 On ch=1 n=g6 v=70
34560 On ch=1 n=g6 v=0
34560 On ch=1 n=d#6 v=70
34560 On ch=1 n=f#6 v=70
34680 On ch=1 n=f#6 v=0
34680 On ch=1 n=d#6 v=0
34680 On ch=1 n=f#6 v=70
34680 On ch=1 n=d#7 v=70
34800 On ch=1 n=d#7 v=0
34800 On ch=1 n=f#6 v=0
34920 On ch=1 n=f#6 v=70
34920 On ch=1 n=d#7 v=70
35040 On ch=1 n=d#7 v=0
35040 On ch=1 n=f#6 v=0
35040 On ch=1 n=e6 v=70
35040 On ch=1 n=e7 v=70
35160 On ch=1 n=e7 v=0
35160 On ch=1 n=e6 v=0
35160 On ch=1 n=g6 v=70
35280 On ch=1 n=g6 v=0
35280 On ch=1 n=f#6 v=70
35280 On ch=1 n=d#6 v=70
35400 On ch=1 n=f#6 v=0
35400 On ch=1 n=d#7 v=70
35520 On ch=1 n=d#7 v=0
35520 On ch=1 n=d#6 v=0
35520 On ch=1 n=d7 v=70
35520 On ch=1 n=d6 v=70
35640 On ch=1 n=d7 v=0
35640 On ch=1 n=f6 v=70
35760 On ch=1 n=f6 v=0
35760 On ch=1 n=d6 v=0
35760 On ch=1 n=c6 v=70
35760 On ch=1 n=e6 v=70
35880 On ch=1 n=e6 v=0
35880 On ch=1 n=c7 v=70
36000 On ch=1 n=c7 v=0
36000 On ch=1 n=c6 v=0
36000 On ch=1 n=d#6 v=70
36000 On ch=1 n=c6 v=70
36120 On ch=1 n=d#6 v=0
36120 On ch=1 n=c7 v=70
36240 On ch=1 n=c7 v=0
36240 On ch=1 n=c6 v=0
36240 On ch=1 n=b6 v=70
36240 On ch=1 n=b5 v=70
36360 On ch=1 n=b6 v=0
36360 On ch=1 n=d6 v=70
36480 On ch=1 n=d6 v=0
36480 On ch=1 n=b5 v=0
36480 On ch=1 n=a5 v=70
36480 On ch=1 n=c6 v=70
36600 On ch=1 n=c6 v=0
36600 On ch=1 n=a6 v=70
36720 On ch=1 n=a6 v=0
36720 On ch=1 n=a5 v=0
36720 On ch=1 n=b5 v=70
36816 On ch=1 n=b5 v=0
36840 On ch=1 n=g6 v=70
36936 On ch=1 n=g6 v=0
36960 On ch=1 n=c6 v=70
36960 On ch=1 n=a5 v=70
37056 On ch=1 n=a5 v=0
37056 On ch=1 n=c6 v=0
37080 On ch=1 n=f#6 v=70
37176 On ch=1 n=f#6 v=0
37200 On ch=1 n=b5 v=70
37200 On ch=1 n=a5 v=70
37296 On ch=1 n=a5 v=0
37296 On ch=1 n=b5 v=0
37320 On ch=1 n=d#6 v=70
37416 On ch=1 n=d#6 v=0
37440 On ch=1 n=g5 v=70
37440 On ch=1 n=b5 v=70
37440 On ch=1 n=e6 v=70
37920 On ch=1 n=e6 v=0
37920 On ch=1 n=b5 v=0
37920 On ch=1 n=g5 v=0
37920 Meta TrkEnd
TrkEnd
MTrk
0 Meta 0x21 00
0 Meta TrkName "Piano"
0 PrCh ch=2 p=0
0 Par ch=2 c=7 v=120
0 Par ch=2 c=10 v=52
720 On ch=2 n=e3 v=70
796 Par ch=2 c=64 v=127
960 On ch=2 n=e3 v=0
960 On ch=2 n=e4 v=70
960 On ch=2 n=b4 v=70
960 On ch=2 n=e5 v=70
1192 Par ch=2 c=64 v=0
1200 On ch=2 n=e5 v=0
1200 On ch=2 n=b4 v=0
1200 On ch=2 n=e4 v=0
1200 On ch=2 n=e4 v=70
1200 On ch=2 n=b4 v=70
1200 On ch=2 n=d#5 v=70
1440 On ch=2 n=d#5 v=0
1440 On ch=2 n=b4 v=0
1440 On ch=2 n=e4 v=0
1440 On ch=2 n=e3 v=70
1445 Par ch=2 c=64 v=127
1680 On ch=2 n=e3 v=0
1680 On ch=2 n=e4 v=70
1680 On ch=2 n=b4 v=70
1680 On ch=2 n=e5 v=70
1911 Par ch=2 c=64 v=0
1920 On ch=2 n=e5 v=0
1920 On ch=2 n=b4 v=0
1920 On ch=2 n=e4 v=0
1920 On ch=2 n=d3 v=70
2160 On ch=2 n=d3 v=0
2160 On ch=2 n=c3 v=70
2221 Par ch=2 c=64 v=127
2400 On ch=2 n=c3 v=0
2400 On ch=2 n=c4 v=70
2400 On ch=2 n=g4 v=70
2400 On ch=2 n=c5 v=70
2630 Par ch=2 c=64 v=0
2640 On ch=2 n=c5 v=0
2640 On ch=2 n=g4 v=0
2640 On ch=2 n=c4 v=0
2640 On ch=2 n=c4 v=70
2640 On ch=2 n=g4 v=70
2640 On ch=2 n=b4 v=70
2880 On ch=2 n=b4 v=0
2880 On ch=2 n=g4 v=0
2880 On ch=2 n=c4 v=0
2880 On ch=2 n=c3 v=70
2885 Par ch=2 c=64 v=127
3120 On ch=2 n=c3 v=0
3120 On ch=2 n=c4 v=70
3120 On ch=2 n=g4 v=70
3120 On ch=2 n=c5 v=70
3350 Par ch=2 c=64 v=0
3360 On ch=2 n=c5 v=0
3360 On ch=2 n=g4 v=0
3360 On ch=2 n=c4 v=0
3360 On ch=2 n=b2 v=70
3600 On ch=2 n=b2 v=0
3600 On ch=2 n=a#2 v=70
3661 Par ch=2 c=64 v=127
3830 Par ch=2 c=64 v=0
3840 On ch=2 n=a#2 v=0
3840 On ch=2 n=e4 v=70
3840 On ch=2 n=f#4 v=70
3840 On ch=2 n=c#5 v=70
4080 On ch=2 n=c#5 v=0
4080 On ch=2 n=f#4 v=0
4080 On ch=2 n=e4 v=0
4080 On ch=2 n=b2 v=70
4080 On ch=2 n=d4 v=70
4084 Par ch=2 c=64 v=127
4222 Par ch=2 c=64 v=0
4317 On ch=2 n=d4 v=0
4317 On ch=2 n=b2 v=0
4317 On ch=2 n=c#3 v=70
4317 On ch=2 n=c#4 v=70
4391 Par ch=2 c=64 v=127
4557 On ch=2 n=c#4 v=0
4557 On ch=2 n=c#3 v=0
4557 On ch=2 n=f#4 v=70
4557 On ch=2 n=a#4 v=70
4557 On ch=2 n=e5 v=70
4589 Par ch=2 c=64 v=0
4797 On ch=2 n=e5 v=0
4797 On ch=2 n=a#4 v=0
4797 On ch=2 n=f#4 v=0
4797 On ch=2 n=d3 v=70
4797 On ch=2 n=f#4 v=70
4809 Par ch=2 c=64 v=127
4942 Par ch=2 c=64 v=0
5037 On ch=2 n=f#4 v=0
5037 On ch=2 n=d3 v=0
5037 On ch=2 n=e3 v=70
5037 On ch=2 n=e4 v=70
5112 Par ch=2 c=64 v=127
5252 Par ch=2 c=64 v=0
5277 On ch=2 n=e4 v=0
5277 On ch=2 n=e3 v=0
5277 On ch=2 n=b4 v=70
5277 On ch=2 n=c#5 v=70
5277 On ch=2 n=g5 v=70
5517 On ch=2 n=g5 v=0
5517 On ch=2 n=c#5 v=0
5517 On ch=2 n=b4 v=0
5517 On ch=2 n=f3 v=70
5517 On ch=2 n=f4 v=70
5757 On ch=2 n=f4 v=0
5757 On ch=2 n=f3 v=0
5757 On ch=2 n=f#3 v=70
5757 On ch=2 n=f#4 v=70
5781 Par ch=2 c=64 v=127
5997 On ch=2 n=f#4 v=0
5997 On ch=2 n=f#3 v=0
5997 On ch=2 n=f#4 v=70
5997 On ch=2 n=c#5 v=70
5997 On ch=2 n=e5 v=70
6201 Par ch=2 c=64 v=0
6237 On ch=2 n=e5 v=0
6237 On ch=2 n=c#5 v=0
6237 On ch=2 n=f#4 v=0
6237 On ch=2 n=b3 v=70
6237 On ch=2 n=f#4 v=70
6237 On ch=2 n=b4 v=70
6477 On ch=2 n=b4 v=0
6477 On ch=2 n=f#4 v=0
6477 On ch=2 n=b3 v=0
6477 On ch=2 n=e3 v=70
6494 Par ch=2 c=64 v=127
6717 On ch=2 n=e3 v=0
6717 On ch=2 n=e4 v=70
6717 On ch=2 n=b4 v=70
6717 On ch=2 n=e5 v=70
6933 Par ch=2 c=64 v=0
6957 On ch=2 n=e5 v=0
6957 On ch=2 n=b4 v=0
6957 On ch=2 n=e4 v=0
6957 On ch=2 n=e4 v=70
6957 On ch=2 n=b4 v=70
6957 On ch=2 n=d#5 v=70
7197 On ch=2 n=d#5 v=0
7197 On ch=2 n=b4 v=0
7197 On ch=2 n=e4 v=0
7197 On ch=2 n=e3 v=70
7209 Par ch=2 c=64 v=127
7437 On ch=2 n=e3 v=0
7437 On ch=2 n=e4 v=70
7437 On ch=2 n=b4 v=70
7437 On ch=2 n=e5 v=70
7651 Par ch=2 c=64 v=0
7677 On ch=2 n=e5 v=0
7677 On ch=2 n=b4 v=0
7677 On ch=2 n=e4 v=0
7677 On ch=2 n=d3 v=70
7917 On ch=2 n=d3 v=0
7917 On ch=2 n=c3 v=70
7990 Par ch=2 c=64 v=127
8157 On ch=2 n=c3 v=0
8157 On ch=2 n=c4 v=70
8157 On ch=2 n=g4 v=70
8157 On ch=2 n=c5 v=70
8397 On ch=2 n=c5 v=0
8397 On ch=2 n=g4 v=0
8397 On ch=2 n=c4 v=0
8397 On ch=2 n=c4 v=70
8397 On ch=2 n=g4 v=70
8397 On ch=2 n=b4 v=70
8442 Par ch=2 c=64 v=0
8637 On ch=2 n=b4 v=0
8637 On ch=2 n=g4 v=0
8637 On ch=2 n=c4 v=0
8637 On ch=2 n=c3 v=70
8654 Par ch=2 c=64 v=127
8877 On ch=2 n=c3 v=0
8877 On ch=2 n=c4 v=70
8877 On ch=2 n=g4 v=70
8877 On ch=2 n=c5 v=70
9092 Par ch=2 c=64 v=0
9117 On ch=2 n=c5 v=0
9117 On ch=2 n=g4 v=0
9117 On ch=2 n=c4 v=0
9117 On ch=2 n=b2 v=70
9357 On ch=2 n=b2 v=0
9357 On ch=2 n=a#2 v=70
9430 Par ch=2 c=64 v=127
9597 On ch=2 n=a#2 v=0
9597 On ch=2 n=e4 v=70
9597 On ch=2 n=f#4 v=70
9597 On ch=2 n=c#5 v=70
9614 Par ch=2 c=64 v=0
9837 On ch=2 n=c#5 v=0
9837 On ch=2 n=f#4 v=0
9837 On ch=2 n=e4 v=0
9837 On ch=2 n=b2 v=70
9837 On ch=2 n=d4 v=70
9839 Par ch=2 c=64 v=127
9910 Par ch=2 c=64 v=0
10077 On ch=2 n=d4 v=0
10077 On ch=2 n=b2 v=0
10077 On ch=2 n=c#3 v=70
10077 On ch=2 n=c#4 v=70
10151 Par ch=2 c=64 v=127
10317 On ch=2 n=c#4 v=0
10317 On ch=2 n=c#3 v=0
10317 On ch=2 n=f#4 v=70
10317 On ch=2 n=a#4 v=70
10317 On ch=2 n=e5 v=70
10319 Par ch=2 c=64 v=0
10557 On ch=2 n=e5 v=0
10557 On ch=2 n=a#4 v=0
10557 On ch=2 n=f#4 v=0
10557 On ch=2 n=d3 v=70
10557 On ch=2 n=f#4 v=70
10560 Par ch=2 c=64 v=127
10672 Par ch=2 c=64 v=0
10797 On ch=2 n=f#4 v=0
10797 On ch=2 n=d3 v=0
10797 On ch=2 n=e3 v=70
10797 On ch=2 n=e4 v=70
10884 Par ch=2 c=64 v=127
11037 On ch=2 n=e4 v=0
11037 On ch=2 n=e3 v=0
11037 On ch=2 n=b4 v=70
11037 On ch=2 n=c#5 v=70
11037 On ch=2 n=g5 v=70
11053 Par ch=2 c=64 v=0
11277 On ch=2 n=g5 v=0
11277 On ch=2 n=c#5 v=0
11277 On ch=2 n=b4 v=0
11277 On ch=2 n=f3 v=70
11277 On ch=2 n=f4 v=70
11517 On ch=2 n=f4 v=0
11517 On ch=2 n=f3 v=0
11517 On ch=2 n=f#3 v=70
11517 On ch=2 n=f#4 v=70
11529 Par ch=2 c=64 v=127
11757 On ch=2 n=f#4 v=0
11757 On ch=2 n=f#3 v=0
11757 On ch=2 n=f#4 v=70
11757 On ch=2 n=c#5 v=70
11757 On ch=2 n=e5 v=70
11971 Par ch=2 c=64 v=0
11997 On ch=2 n=e5 v=0
11997 On ch=2 n=c#5 v=0
11997 On ch=2 n=f#4 v=0
11997 On ch=2 n=b3 v=70
11997 On ch=2 n=f#4 v=70
11997 On ch=2 n=b4 v=70
12237 On ch=2 n=b4 v=0
12237 On ch=2 n=f#4 v=0
12237 On ch=2 n=b3 v=0
12237 On ch=2 n=b2 v=70
12323 Par ch=2 c=64 v=127
12477 On ch=2 n=b3 v=70
12704 Par ch=2 c=64 v=0
12714 On ch=2 n=b3 v=0
12714 On ch=2 n=b2 v=0
12714 On ch=2 n=a2 v=70
12714 On ch=2 n=a3 v=70
12954 On ch=2 n=a3 v=0
12954 On ch=2 n=a2 v=0
12954 On ch=2 n=g2 v=70
12990 Par ch=2 c=64 v=127
13194 On ch=2 n=g2 v=0
13194 On ch=2 n=g3 v=70
13374 Par ch=2 c=64 v=0
13407 Par ch=2 c=64 v=0
13434 On ch=2 n=g3 v=0
13434 On ch=2 n=g3 v=70
13434 On ch=2 n=g2 v=70
13674 On ch=2 n=g2 v=0
13674 On ch=2 n=g3 v=0
13674 On ch=2 n=c3 v=70
13698 Par ch=2 c=64 v=127
13914 On ch=2 n=c4 v=70
14094 Par ch=2 c=64 v=0
14127 Par ch=2 c=64 v=0
14154 On ch=2 n=c4 v=0
14154 On ch=2 n=c3 v=0
14154 On ch=2 n=b2 v=70
14154 On ch=2 n=b3 v=70
14394 On ch=2 n=b3 v=0
14394 On ch=2 n=b2 v=0
14394 Par ch=2 c=64 v=127
14394 On ch=2 n=a2 v=70
14634 On ch=2 n=a3 v=70
14802 Par ch=2 c=64 v=0
14818 Par ch=2 c=64 v=0
14874 On ch=2 n=a3 v=0
14874 On ch=2 n=a2 v=0
14874 On ch=2 n=c3 v=70
14874 On ch=2 n=c4 v=70
15114 On ch=2 n=c4 v=0
15114 On ch=2 n=c3 v=0
15114 On ch=2 n=d3 v=70
15114 On ch=2 n=d4 v=70
15115 Par ch=2 c=64 v=127
15354 On ch=2 n=d4 v=0
15354 On ch=2 n=d3 v=0
15354 On ch=2 n=b2 v=70
15354 On ch=2 n=b3 v=70
15594 On ch=2 n=b3 v=0
15594 On ch=2 n=b2 v=0
15594 On ch=2 n=g#2 v=70
15594 On ch=2 n=g#3 v=70
15594 Par ch=2 c=64 v=0
15834 On ch=2 n=g#3 v=0
15834 On ch=2 n=g#2 v=0
15834 On ch=2 n=d3 v=70
15834 On ch=2 n=d4 v=70
15849 Par ch=2 c=64 v=127
16074 On ch=2 n=d4 v=0
16074 On ch=2 n=d3 v=0
16074 On ch=2 n=b2 v=70
16074 On ch=2 n=b3 v=70
16286 Par ch=2 c=64 v=0
16314 On ch=2 n=b3 v=0
16314 On ch=2 n=b2 v=0
16314 On ch=2 n=g#2 v=70
16314 On ch=2 n=g#3 v=70
16554 On ch=2 n=g#3 v=0
16554 On ch=2 n=g#2 v=0
16554 Par ch=2 c=64 v=127
16554 On ch=2 n=d3 v=70
16554 On ch=2 n=d4 v=70
16794 On ch=2 n=d4 v=0
16794 On ch=2 n=d3 v=0
16794 On ch=2 n=c3 v=70
16794 On ch=2 n=c4 v=70
17034 On ch=2 n=c4 v=0
17034 On ch=2 n=c3 v=0
17034 On ch=2 n=a2 v=70
17034 On ch=2 n=a3 v=70
17034 Par ch=2 c=64 v=0
17274 On ch=2 n=a3 v=0
17274 On ch=2 n=a2 v=0
17274 On ch=2 n=c3 v=70
17274 On ch=2 n=c4 v=70
17288 Par ch=2 c=64 v=127
17514 On ch=2 n=c4 v=0
17514 On ch=2 n=c3 v=0
17514 On ch=2 n=b2 v=70
17514 On ch=2 n=b3 v=70
17730 Par ch=2 c=64 v=0
17754 On ch=2 n=b3 v=0
17754 On ch=2 n=b2 v=0
17754 On ch=2 n=a2 v=70
17754 On ch=2 n=a3 v=70
17768 Par ch=2 c=64 v=0
17994 On ch=2 n=a3 v=0
17994 On ch=2 n=a2 v=0
17994 On ch=2 n=g2 v=70
17994 On ch=2 n=g3 v=70
18008 Par ch=2 c=64 v=127
18234 On ch=2 n=g3 v=0
18234 On ch=2 n=g2 v=0
18234 On ch=2 n=e4 v=70
18234 On ch=2 n=b4 v=70
18234 On ch=2 n=e5 v=70
18426 Par ch=2 c=64 v=0
18459 Par ch=2 c=64 v=0
18474 On ch=2 n=e5 v=0
18474 On ch=2 n=b4 v=0
18474 On ch=2 n=e4 v=0
18474 On ch=2 n=b2 v=70
18474 On ch=2 n=b3 v=70
18714 On ch=2 n=b3 v=0
18714 On ch=2 n=b2 v=0
18714 On ch=2 n=e3 v=70
18770 Par ch=2 c=64 v=127
18954 On ch=2 n=e3 v=0
18954 On ch=2 n=g4 v=70
18954 On ch=2 n=b4 v=70
18954 On ch=2 n=e5 v=70
19122 Par ch=2 c=64 v=0
19165 Par ch=2 c=64 v=0
19194 On ch=2 n=e5 v=0
19194 On ch=2 n=b4 v=0
19194 On ch=2 n=g4 v=0
19194 On ch=2 n=f#3 v=70
19434 On ch=2 n=f#3 v=0
19434 On ch=2 n=g3 v=70
19532 Par ch=2 c=64 v=127
19674 On ch=2 n=g3 v=0
19674 On ch=2 n=g4 v=70
19674 On ch=2 n=b4 v=70
19674 On ch=2 n=d5 v=70
19674 On ch=2 n=g5 v=70
19899 Par ch=2 c=64 v=0
19914 On ch=2 n=g5 v=0
19914 On ch=2 n=g4 v=0
19914 On ch=2 n=b4 v=0
19914 On ch=2 n=d5 v=0
19914 On ch=2 n=g4 v=70
19914 On ch=2 n=c5 v=70
19914 On ch=2 n=d#5 v=70
19914 On ch=2 n=f#5 v=70
20154 On ch=2 n=f#5 v=0
20154 On ch=2 n=g4 v=0
20154 On ch=2 n=c5 v=0
20154 On ch=2 n=d#5 v=0
20154 On ch=2 n=g3 v=70
20238 Par ch=2 c=64 v=127
20394 On ch=2 n=g3 v=0
20394 On ch=2 n=g4 v=70
20394 On ch=2 n=b4 v=70
20394 On ch=2 n=d5 v=70
20394 On ch=2 n=g5 v=70
20604 Par ch=2 c=64 v=0
20634 On ch=2 n=g5 v=0
20634 On ch=2 n=g4 v=0
20634 On ch=2 n=b4 v=0
20634 On ch=2 n=d5 v=0
20634 On ch=2 n=a3 v=70
20874 On ch=2 n=a3 v=0
20874 On ch=2 n=b3 v=70
21114 On ch=2 n=b3 v=0
21114 On ch=2 n=b4 v=70
21114 On ch=2 n=d#5 v=70
21114 On ch=2 n=f#5 v=70
21114 On ch=2 n=b5 v=70
21354 On ch=2 n=b5 v=0
21354 On ch=2 n=b4 v=0
21354 On ch=2 n=d#5 v=0
21354 On ch=2 n=f#5 v=0
21354 On ch=2 n=a#4 v=70
21354 On ch=2 n=e5 v=70
21354 On ch=2 n=g5 v=70
21354 On ch=2 n=c#6 v=70
21366 Par ch=2 c=64 v=127
21592 Par ch=2 c=64 v=0
21594 On ch=2 n=c#6 v=0
21594 On ch=2 n=a#4 v=0
21594 On ch=2 n=e5 v=0
21594 On ch=2 n=g5 v=0
21594 On ch=2 n=b3 v=70
21834 On ch=2 n=b3 v=0
21834 On ch=2 n=b4 v=70
21834 On ch=2 n=d#5 v=70
21834 On ch=2 n=f#5 v=70
21834 On ch=2 n=b5 v=70
22074 On ch=2 n=b5 v=0
22074 On ch=2 n=b4 v=0
22074 On ch=2 n=d#5 v=0
22074 On ch=2 n=f#5 v=0
22074 On ch=2 n=a#4 v=70
22074 On ch=2 n=e5 v=70
22074 On ch=2 n=g5 v=70
22074 On ch=2 n=c#6 v=70
22086 Par ch=2 c=64 v=127
22312 Par ch=2 c=64 v=0
22314 On ch=2 n=c#6 v=0
22314 On ch=2 n=a#4 v=0
22314 On ch=2 n=e5 v=0
22314 On ch=2 n=g5 v=0
22314 On ch=2 n=b4 v=70
22314 On ch=2 n=d#5 v=70
22314 On ch=2 n=f#5 v=70
22314 On ch=2 n=b5 v=70
22554 On ch=2 n=b5 v=0
22554 On ch=2 n=b4 v=0
22554 On ch=2 n=d#5 v=0
22554 On ch=2 n=f#5 v=0
22554 On ch=2 n=g#4 v=70
22554 On ch=2 n=d5 v=70
22554 On ch=2 n=f5 v=70
22554 On ch=2 n=b5 v=70
22566 Par ch=2 c=64 v=127
22794 On ch=2 n=b5 v=0
22794 On ch=2 n=g#4 v=0
22794 On ch=2 n=d5 v=0
22794 On ch=2 n=f5 v=0
22794 On ch=2 n=a4 v=70
22794 On ch=2 n=c5 v=70
22794 On ch=2 n=e5 v=70
22794 On ch=2 n=a5 v=70
23034 On ch=2 n=a5 v=0
23034 On ch=2 n=a4 v=0
23034 On ch=2 n=c5 v=0
23034 On ch=2 n=e5 v=0
23034 On ch=2 n=f#4 v=70
23034 On ch=2 n=c5 v=70
23034 On ch=2 n=d#5 v=70
23034 On ch=2 n=a5 v=70
23045 Par ch=2 c=64 v=0
23274 On ch=2 n=a5 v=0
23274 On ch=2 n=f#4 v=0
23274 On ch=2 n=c5 v=0
23274 On ch=2 n=d#5 v=0
23274 On ch=2 n=g4 v=70
23274 On ch=2 n=b4 v=70
23274 On ch=2 n=d5 v=70
23274 On ch=2 n=g5 v=70
23298 Par ch=2 c=64 v=127
23514 On ch=2 n=g5 v=0
23514 On ch=2 n=g4 v=0
23514 On ch=2 n=b4 v=0
23514 On ch=2 n=d5 v=0
23514 On ch=2 n=d#4 v=70
23514 On ch=2 n=a4 v=70
23514 On ch=2 n=c5 v=70
23514 On ch=2 n=f#5 v=70
23752 Par ch=2 c=64 v=0
23754 On ch=2 n=f#5 v=0
23754 On ch=2 n=d#4 v=0
23754 On ch=2 n=a4 v=0
23754 On ch=2 n=c5 v=0
23754 On ch=2 n=e5 v=70
23754 On ch=2 n=b4 v=70
23754 On ch=2 n=g4 v=70
23754 On ch=2 n=e4 v=70
23946 On ch=2 n=e4 v=0
23946 On ch=2 n=e5 v=0
23946 On ch=2 n=b4 v=0
23946 On ch=2 n=g4 v=0
23994 On ch=2 n=c5 v=70
23994 On ch=2 n=f#4 v=70
23994 On ch=2 n=c4 v=70
23994 On ch=2 n=a3 v=70
24186 On ch=2 n=a3 v=0
24186 On ch=2 n=c5 v=0
24186 On ch=2 n=f#4 v=0
24186 On ch=2 n=c4 v=0
24234 On ch=2 n=b3 v=70
24234 On ch=2 n=f#4 v=70
24234 On ch=2 n=b4 v=70
24426 On ch=2 n=b4 v=0
24426 On ch=2 n=f#4 v=0
24426 On ch=2 n=b3 v=0
24474 On ch=2 n=e3 v=70
24556 Par ch=2 c=64 v=127
24666 On ch=2 n=e3 v=0
24714 On ch=2 n=e5 v=70
24714 On ch=2 n=b4 v=70
24714 On ch=2 n=g4 v=70
24906 On ch=2 n=g4 v=0
24906 On ch=2 n=b4 v=0
24906 On ch=2 n=e5 v=0
24951 Par ch=2 c=64 v=0
24954 On ch=2 n=b3 v=70
25146 On ch=2 n=b3 v=0
25194 On ch=2 n=b2 v=70
25261 Par ch=2 c=64 v=127
25434 On ch=2 n=b3 v=70
25656 Par ch=2 c=64 v=0
25674 On ch=2 n=b3 v=0
25674 On ch=2 n=b2 v=0
25674 On ch=2 n=a2 v=70
25674 On ch=2 n=a3 v=70
25914 On ch=2 n=a3 v=0
25914 On ch=2 n=a2 v=0
25914 On ch=2 n=g2 v=70
25939 Par ch=2 c=64 v=127
26154 On ch=2 n=g2 v=0
26154 On ch=2 n=g3 v=70
26391 Par ch=2 c=64 v=0
26394 On ch=2 n=g3 v=0
26394 On ch=2 n=g3 v=70
26394 On ch=2 n=g2 v=70
26634 On ch=2 n=g2 v=0
26634 On ch=2 n=g3 v=0
26634 On ch=2 n=c3 v=70
26658 Par ch=2 c=64 v=127
26874 On ch=2 n=c4 v=70
27066 Par ch=2 c=64 v=0
27110 Par ch=2 c=64 v=0
27114 On ch=2 n=c4 v=0
27114 On ch=2 n=c3 v=0
27114 On ch=2 n=b2 v=70
27114 On ch=2 n=b3 v=70
27354 On ch=2 n=b3 v=0
27354 On ch=2 n=b2 v=0
27354 On ch=2 n=a2 v=70
27378 Par ch=2 c=64 v=127
27594 On ch=2 n=a3 v=70
27810 Par ch=2 c=64 v=0
27834 On ch=2 n=a3 v=0
27834 On ch=2 n=a2 v=0
27834 On ch=2 n=c3 v=70
27834 On ch=2 n=c4 v=70
27843 Par ch=2 c=64 v=0
28074 On ch=2 n=c4 v=0
28074 On ch=2 n=c3 v=0
28074 On ch=2 n=d3 v=70
28074 On ch=2 n=d4 v=70
28086 Par ch=2 c=64 v=127
28314 On ch=2 n=d4 v=0
28314 On ch=2 n=d3 v=0
28314 On ch=2 n=b2 v=70
28314 On ch=2 n=b3 v=70
28530 Par ch=2 c=64 v=0
28554 On ch=2 n=b3 v=0
28554 On ch=2 n=b2 v=0
28554 On ch=2 n=g#2 v=70
28554 On ch=2 n=g#3 v=70
28564 Par ch=2 c=64 v=0
28794 On ch=2 n=g#3 v=0
28794 On ch=2 n=g#2 v=0
28794 On ch=2 n=d3 v=70
28794 On ch=2 n=d4 v=70
28818 Par ch=2 c=64 v=127
29034 On ch=2 n=d4 v=0
29034 On ch=2 n=d3 v=0
29034 On ch=2 n=b2 v=70
29034 On ch=2 n=b3 v=70
29269 Par ch=2 c=64 v=0
29274 On ch=2 n=b3 v=0
29274 On ch=2 n=b2 v=0
29274 On ch=2 n=g#2 v=70
29274 On ch=2 n=g#3 v=70
29514 On ch=2 n=g#3 v=0
29514 On ch=2 n=g#2 v=0
29514 On ch=2 n=d3 v=70
29514 On ch=2 n=d4 v=70
29538 Par ch=2 c=64 v=127
29754 On ch=2 n=d4 v=0
29754 On ch=2 n=d3 v=0
29754 On ch=2 n=c3 v=70
29754 On ch=2 n=c4 v=70
29975 Par ch=2 c=64 v=0
29994 On ch=2 n=c4 v=0
29994 On ch=2 n=c3 v=0
29994 On ch=2 n=a2 v=70
29994 On ch=2 n=a3 v=70
30234 On ch=2 n=a3 v=0
30234 On ch=2 n=a2 v=0
30234 On ch=2 n=c3 v=70
30234 On ch=2 n=c4 v=70
30258 Par ch=2 c=64 v=127
30474 On ch=2 n=c4 v=0
30474 On ch=2 n=c3 v=0
30474 On ch=2 n=b2 v=70
30474 On ch=2 n=b3 v=70
30695 Par ch=2 c=64 v=0
30714 On ch=2 n=b3 v=0
30714 On ch=2 n=b2 v=0
30714 On ch=2 n=a2 v=70
30714 On ch=2 n=a3 v=70
30954 On ch=2 n=a3 v=0
30954 On ch=2 n=a2 v=0
30954 On ch=2 n=g2 v=70
30954 On ch=2 n=g3 v=70
30978 Par ch=2 c=64 v=127
31194 On ch=2 n=g3 v=0
31194 On ch=2 n=g2 v=0
31194 On ch=2 n=e4 v=70
31194 On ch=2 n=b4 v=70
31194 On ch=2 n=e5 v=70
31428 Par ch=2 c=64 v=0
31434 On ch=2 n=e5 v=0
31434 On ch=2 n=b4 v=0
31434 On ch=2 n=e4 v=0
31434 On ch=2 n=b2 v=70
31434 On ch=2 n=b3 v=70
31674 On ch=2 n=b3 v=0
31674 On ch=2 n=b2 v=0
31674 On ch=2 n=e3 v=70
31738 Par ch=2 c=64 v=127
31914 On ch=2 n=e3 v=0
31914 On ch=2 n=g4 v=70
31914 On ch=2 n=b4 v=70
31914 On ch=2 n=e5 v=70
32134 Par ch=2 c=64 v=0
32154 On ch=2 n=e5 v=0
32154 On ch=2 n=b4 v=0
32154 On ch=2 n=g4 v=0
32154 On ch=2 n=f#3 v=70
32394 On ch=2 n=f#3 v=0
32394 On ch=2 n=g3 v=70
32459 Par ch=2 c=64 v=127
32634 On ch=2 n=g3 v=0
32634 On ch=2 n=g4 v=70
32634 On ch=2 n=b4 v=70
32634 On ch=2 n=d5 v=70
32634 On ch=2 n=g5 v=70
32867 Par ch=2 c=64 v=0
32874 On ch=2 n=g5 v=0
32874 On ch=2 n=g4 v=0
32874 On ch=2 n=b4 v=0
32874 On ch=2 n=d5 v=0
32874 On ch=2 n=g4 v=70
32874 On ch=2 n=c5 v=70
32874 On ch=2 n=d#5 v=70
32874 On ch=2 n=f#5 v=70
33114 On ch=2 n=f#5 v=0
33114 On ch=2 n=g4 v=0
33114 On ch=2 n=c5 v=0
33114 On ch=2 n=d#5 v=0
33114 On ch=2 n=g3 v=70
33192 Par ch=2 c=64 v=127
33354 On ch=2 n=g3 v=0
33354 On ch=2 n=g4 v=70
33354 On ch=2 n=b4 v=70
33354 On ch=2 n=d5 v=70
33354 On ch=2 n=g5 v=70
33594 On ch=2 n=g5 v=0
33594 On ch=2 n=g4 v=0
33594 On ch=2 n=b4 v=0
33594 On ch=2 n=d5 v=0
33594 On ch=2 n=a3 v=70
33602 Par ch=2 c=64 v=0
33834 On ch=2 n=a3 v=0
33834 On ch=2 n=b3 v=70
34074 On ch=2 n=b3 v=0
34074 On ch=2 n=b4 v=70
34074 On ch=2 n=d#5 v=70
34074 On ch=2 n=f#5 v=70
34074 On ch=2 n=b5 v=70
34314 On ch=2 n=b5 v=0
34314 On ch=2 n=b4 v=0
34314 On ch=2 n=d#5 v=0
34314 On ch=2 n=f#5 v=0
34314 On ch=2 n=a#4 v=70
34314 On ch=2 n=e5 v=70
34314 On ch=2 n=g5 v=70
34314 On ch=2 n=c#6 v=70
34326 Par ch=2 c=64 v=127
34542 Par ch=2 c=64 v=0
34554 On ch=2 n=c#6 v=0
34554 On ch=2 n=a#4 v=0
34554 On ch=2 n=e5 v=0
34554 On ch=2 n=g5 v=0
34554 On ch=2 n=b3 v=70
34561 Par ch=2 c=64 v=0
34794 On ch=2 n=b3 v=0
34794 On ch=2 n=b4 v=70
34794 On ch=2 n=d#5 v=70
34794 On ch=2 n=f#5 v=70
34794 On ch=2 n=b5 v=70
35034 On ch=2 n=b5 v=0
35034 On ch=2 n=b4 v=0
35034 On ch=2 n=d#5 v=0
35034 On ch=2 n=f#5 v=0
35034 On ch=2 n=a#4 v=70
35034 On ch=2 n=e5 v=70
35034 On ch=2 n=g5 v=70
35034 On ch=2 n=c#6 v=70
35046 Par ch=2 c=64 v=127
35250 Par ch=2 c=64 v=0
35274 On ch=2 n=c#6 v=0
35274 On ch=2 n=a#4 v=0
35274 On ch=2 n=e5 v=0
35274 On ch=2 n=g5 v=0
35274 On ch=2 n=b4 v=70
35274 On ch=2 n=d#5 v=70
35274 On ch=2 n=f#5 v=70
35274 On ch=2 n=b5 v=70
35281 Par ch=2 c=64 v=0
35514 On ch=2 n=b5 v=0
35514 On ch=2 n=b4 v=0
35514 On ch=2 n=d#5 v=0
35514 On ch=2 n=f#5 v=0
35514 On ch=2 n=g#4 v=70
35514 On ch=2 n=d5 v=70
35514 On ch=2 n=f5 v=70
35514 On ch=2 n=b5 v=70
35526 Par ch=2 c=64 v=127
35754 On ch=2 n=b5 v=0
35754 On ch=2 n=g#4 v=0
35754 On ch=2 n=d5 v=0
35754 On ch=2 n=f5 v=0
35754 On ch=2 n=a4 v=70
35754 On ch=2 n=c5 v=70
35754 On ch=2 n=e5 v=70
35754 On ch=2 n=a5 v=70
35973 Par ch=2 c=64 v=0
35994 On ch=2 n=a5 v=0
35994 On ch=2 n=a4 v=0
35994 On ch=2 n=c5 v=0
35994 On ch=2 n=e5 v=0
35994 On ch=2 n=f#4 v=70
35994 On ch=2 n=c5 v=70
35994 On ch=2 n=d#5 v=70
35994 On ch=2 n=a5 v=70
36234 On ch=2 n=a5 v=0
36234 On ch=2 n=f#4 v=0
36234 On ch=2 n=c5 v=0
36234 On ch=2 n=d#5 v=0
36234 On ch=2 n=g4 v=70
36234 On ch=2 n=b4 v=70
36234 On ch=2 n=d5 v=70
36234 On ch=2 n=g5 v=70
36258 Par ch=2 c=64 v=127
36474 On ch=2 n=g5 v=0
36474 On ch=2 n=g4 v=0
36474 On ch=2 n=b4 v=0
36474 On ch=2 n=d5 v=0
36474 On ch=2 n=d#4 v=70
36474 On ch=2 n=a4 v=70
36474 On ch=2 n=c5 v=70
36474 On ch=2 n=f#5 v=70
36690 Par ch=2 c=64 v=0
36706 Par ch=2 c=64 v=0
36714 On ch=2 n=f#5 v=0
36714 On ch=2 n=d#4 v=0
36714 On ch=2 n=a4 v=0
36714 On ch=2 n=c5 v=0
36714 On ch=2 n=e5 v=70
36714 On ch=2 n=b4 v=70
36714 On ch=2 n=g4 v=70
36714 On ch=2 n=e4 v=70
36906 On ch=2 n=e4 v=0
36906 On ch=2 n=e5 v=0
36906 On ch=2 n=b4 v=0
36906 On ch=2 n=g4 v=0
36954 On ch=2 n=c5 v=70
36954 On ch=2 n=f#4 v=70
36954 On ch=2 n=c4 v=70
36954 On ch=2 n=a3 v=70
37146 On ch=2 n=a3 v=0
37146 On ch=2 n=c5 v=0
37146 On ch=2 n=f#4 v=0
37146 On ch=2 n=c4 v=0
37194 On ch=2 n=b3 v=70
37194 On ch=2 n=f#4 v=70
37194 On ch=2 n=b4 v=70
37386 On ch=2 n=b4 v=0
37386 On ch=2 n=f#4 v=0
37386 On ch=2 n=b3 v=0
37434 On ch=2 n=e3 v=70
37511 Par ch=2 c=64 v=127
37674 On ch=2 n=e3 v=0
37674 On ch=2 n=g4 v=70
37674 On ch=2 n=b4 v=70
37674 On ch=2 n=e5 v=70
37914 On ch=2 n=e5 v=0
37914 On ch=2 n=b4 v=0
37914 On ch=2 n=g4 v=0
38160 Par ch=2 c=64 v=0
38160 Meta TrkEnd
TrkEnd
