MFile 1 4 480
MTrk
0 TimeSig 4/4 24 8
0 Tempo 500000
1440 Tempo 857142
1920 Tempo 1000000
1920 Meta TrkEnd
TrkEnd
MTrk
0 SeqSpec 43 00 01 00
0 SysEx f0 7e 7f 09 01 f7
480 Par ch=1 c=121 v=0
500 Meta Text "# Pitch Bend Sensitivity (0-2-24) #"
500 Par ch=1 c=101 v=0
505 Par ch=1 c=100 v=0
510 Par ch=1 c=6 v=2
515 Pb ch=1 v=8192
520 Par ch=1 c=0 v=0
525 Par ch=1 c=32 v=0
530 PrCh ch=1 p=0
535 Par ch=1 c=7 v=100
540 Par ch=1 c=11 v=127
545 Par ch=1 c=10 v=64
550 Par ch=1 c=91 v=50
555 Par ch=1 c=93 v=0
560 Par ch=1 c=1 v=0
2160 On ch=1 n=72 v=80
2268 On ch=1 n=72 v=0
2280 On ch=1 n=71 v=82
2388 On ch=1 n=71 v=0
2400 On ch=1 n=72 v=85
2508 On ch=1 n=72 v=0
2520 On ch=1 n=74 v=87
2628 On ch=1 n=74 v=0
2640 On ch=1 n=75 v=90
2748 On ch=1 n=75 v=0
2760 On ch=1 n=67 v=80
2868 On ch=1 n=67 v=0
2880 On ch=1 n=68 v=80
2988 On ch=1 n=68 v=0
3000 On ch=1 n=70 v=80
3108 On ch=1 n=70 v=0
3120 On ch=1 n=68 v=80
3228 On ch=1 n=68 v=0
3240 On ch=1 n=65 v=80
3348 On ch=1 n=65 v=0
3360 On ch=1 n=77 v=83
3468 On ch=1 n=77 v=0
3480 On ch=1 n=75 v=87
3588 On ch=1 n=75 v=0
3600 On ch=1 n=74 v=80
3708 On ch=1 n=74 v=0
3720 On ch=1 n=72 v=80
3828 On ch=1 n=72 v=0
3840 On ch=1 n=71 v=80
3948 On ch=1 n=71 v=0
3960 On ch=1 n=80 v=83
4068 On ch=1 n=80 v=0
4080 On ch=1 n=79 v=86
4188 On ch=1 n=79 v=0
4200 On ch=1 n=77 v=89
4308 On ch=1 n=77 v=0
4320 On ch=1 n=75 v=80
4428 On ch=1 n=75 v=0
4440 On ch=1 n=74 v=80
4548 On ch=1 n=74 v=0
4560 On ch=1 n=72 v=80
4668 On ch=1 n=72 v=0
4680 On ch=1 n=71 v=80
4788 On ch=1 n=71 v=0
4800 On ch=1 n=72 v=80
4908 On ch=1 n=72 v=0
4920 On ch=1 n=74 v=80
5028 On ch=1 n=74 v=0
5040 On ch=1 n=72 v=80
5148 On ch=1 n=72 v=0
5160 On ch=1 n=74 v=80
5268 On ch=1 n=74 v=0
5280 On ch=1 n=75 v=80
5334 On ch=1 n=75 v=0
5340 On ch=1 n=74 v=80
5394 On ch=1 n=74 v=0
5400 On ch=1 n=75 v=80
5454 On ch=1 n=75 v=0
5460 On ch=1 n=74 v=80
5514 On ch=1 n=74 v=0
5520 On ch=1 n=75 v=80
5574 On ch=1 n=75 v=0
5580 On ch=1 n=74 v=80
5634 On ch=1 n=74 v=0
5640 On ch=1 n=72 v=80
5694 On ch=1 n=72 v=0
5700 On ch=1 n=74 v=80
5754 On ch=1 n=74 v=0
5760 On ch=1 n=75 v=80
5868 On ch=1 n=75 v=0
5880 On ch=1 n=74 v=80
5988 On ch=1 n=74 v=0
6000 On ch=1 n=72 v=82
6108 On ch=1 n=72 v=0
6120 On ch=1 n=74 v=84
6228 On ch=1 n=74 v=0
6240 On ch=1 n=75 v=86
6348 On ch=1 n=75 v=0
6360 On ch=1 n=77 v=88
6468 On ch=1 n=77 v=0
6480 On ch=1 n=79 v=90
6600 On ch=1 n=79 v=0
6720 On ch=1 n=80 v=80
6774 On ch=1 n=80 v=0
6780 On ch=1 n=79 v=80
6834 On ch=1 n=79 v=0
6840 On ch=1 n=80 v=80
6894 On ch=1 n=80 v=0
6900 On ch=1 n=79 v=80
6954 On ch=1 n=79 v=0
6960 On ch=1 n=77 v=80
7176 On ch=1 n=77 v=0
7440 On ch=1 n=77 v=80
7656 On ch=1 n=77 v=0
7680 On ch=1 n=79 v=80
7734 On ch=1 n=79 v=0
7740 On ch=1 n=77 v=80
7794 On ch=1 n=77 v=0
7800 On ch=1 n=79 v=80
7854 On ch=1 n=79 v=0
7860 On ch=1 n=77 v=80
7914 On ch=1 n=77 v=0
7920 On ch=1 n=75 v=80
8136 On ch=1 n=75 v=0
8400 On ch=1 n=74 v=80
8637 On ch=1 n=74 v=0
8640 On ch=1 n=75 v=80
8856 On ch=1 n=75 v=0
8880 On ch=1 n=68 v=80
9117 On ch=1 n=68 v=0
9120 On ch=1 n=68 v=80
9228 On ch=1 n=68 v=0
9240 On ch=1 n=65 v=80
9348 On ch=1 n=65 v=0
9360 On ch=1 n=70 v=80
9468 On ch=1 n=70 v=0
9480 On ch=1 n=65 v=80
9588 On ch=1 n=65 v=0
9600 On ch=1 n=67 v=70
9720 On ch=1 n=67 v=0
9840 On ch=1 n=75 v=70
10077 On ch=1 n=75 v=0
10080 On ch=1 n=75 v=70
10188 On ch=1 n=75 v=0
10200 On ch=1 n=74 v=70
10308 On ch=1 n=74 v=0
10320 On ch=1 n=75 v=70
10428 On ch=1 n=75 v=0
10440 On ch=1 n=70 v=70
10548 On ch=1 n=70 v=0
10560 On ch=1 n=72 v=70
10668 On ch=1 n=72 v=0
10680 On ch=1 n=75 v=74
10788 On ch=1 n=75 v=0
10800 On ch=1 n=80 v=77
10908 On ch=1 n=80 v=0
10920 On ch=1 n=79 v=70
11028 On ch=1 n=79 v=0
11040 On ch=1 n=77 v=70
11148 On ch=1 n=77 v=0
11160 On ch=1 n=75 v=70
11268 On ch=1 n=75 v=0
11280 On ch=1 n=74 v=70
11388 On ch=1 n=74 v=0
11400 On ch=1 n=72 v=70
11508 On ch=1 n=72 v=0
11520 On ch=1 n=70 v=70
11628 On ch=1 n=70 v=0
11640 On ch=1 n=74 v=74
11748 On ch=1 n=74 v=0
11760 On ch=1 n=79 v=79
11868 On ch=1 n=79 v=0
11880 On ch=1 n=77 v=70
11988 On ch=1 n=77 v=0
12000 On ch=1 n=75 v=70
12108 On ch=1 n=75 v=0
12120 On ch=1 n=74 v=70
12228 On ch=1 n=74 v=0
12240 On ch=1 n=72 v=70
12348 On ch=1 n=72 v=0
12360 On ch=1 n=70 v=70
12468 On ch=1 n=70 v=0
12480 On ch=1 n=68 v=70
12588 On ch=1 n=68 v=0
12600 On ch=1 n=72 v=70
12708 On ch=1 n=72 v=0
12720 On ch=1 n=77 v=70
12828 On ch=1 n=77 v=0
12840 On ch=1 n=72 v=70
12948 On ch=1 n=72 v=0
12960 On ch=1 n=74 v=70
13284 On ch=1 n=74 v=0
13320 On ch=1 n=74 v=70
13428 On ch=1 n=74 v=0
13440 On ch=1 n=75 v=70
13548 On ch=1 n=75 v=0
13560 On ch=1 n=70 v=70
13668 On ch=1 n=70 v=0
13680 On ch=1 n=72 v=70
13788 On ch=1 n=72 v=0
13800 On ch=1 n=70 v=70
13908 On ch=1 n=70 v=0
13920 On ch=1 n=79 v=70
14395 On ch=1 n=79 v=0
14400 On ch=1 n=79 v=70
14508 On ch=1 n=79 v=0
14520 On ch=1 n=70 v=70
14628 On ch=1 n=70 v=0
14640 On ch=1 n=72 v=72
14748 On ch=1 n=72 v=0
14760 On ch=1 n=70 v=75
14868 On ch=1 n=70 v=0
14880 On ch=1 n=80 v=77
15355 On ch=1 n=80 v=0
15360 On ch=1 n=80 v=70
15468 On ch=1 n=80 v=0
15480 On ch=1 n=70 v=70
15588 On ch=1 n=70 v=0
15600 On ch=1 n=75 v=70
15708 On ch=1 n=75 v=0
15720 On ch=1 n=74 v=70
15828 On ch=1 n=74 v=0
15840 On ch=1 n=79 v=72
15948 On ch=1 n=79 v=0
15960 On ch=1 n=77 v=74
16068 On ch=1 n=77 v=0
16080 On ch=1 n=80 v=76
16188 On ch=1 n=80 v=0
16200 On ch=1 n=79 v=78
16308 On ch=1 n=79 v=0
16320 On ch=1 n=84 v=80
16428 On ch=1 n=84 v=0
16440 On ch=1 n=82 v=82
16548 On ch=1 n=82 v=0
16560 On ch=1 n=80 v=84
16668 On ch=1 n=80 v=0
16680 On ch=1 n=79 v=86
16788 On ch=1 n=79 v=0
16800 On ch=1 n=77 v=88
16908 On ch=1 n=77 v=0
16920 On ch=1 n=82 v=90
17028 On ch=1 n=82 v=0
17040 On ch=1 n=80 v=92
17148 On ch=1 n=80 v=0
17160 On ch=1 n=82 v=94
17268 On ch=1 n=82 v=0
17280 On ch=1 n=79 v=100
17388 On ch=1 n=79 v=0
17400 On ch=1 n=82 v=100
17508 On ch=1 n=82 v=0
17520 On ch=1 n=80 v=100
17628 On ch=1 n=80 v=0
17640 On ch=1 n=82 v=100
17748 On ch=1 n=82 v=0
17760 On ch=1 n=75 v=100
17868 On ch=1 n=75 v=0
17880 On ch=1 n=79 v=100
17988 On ch=1 n=79 v=0
18000 On ch=1 n=77 v=100
18108 On ch=1 n=77 v=0
18120 On ch=1 n=79 v=100
18228 On ch=1 n=79 v=0
18240 On ch=1 n=72 v=100
18348 On ch=1 n=72 v=0
18360 On ch=1 n=74 v=100
18468 On ch=1 n=74 v=0
18480 On ch=1 n=75 v=100
18588 On ch=1 n=75 v=0
18600 On ch=1 n=77 v=100
18708 On ch=1 n=77 v=0
18720 On ch=1 n=74 v=100
18828 On ch=1 n=74 v=0
18840 On ch=1 n=75 v=100
18948 On ch=1 n=75 v=0
18960 On ch=1 n=77 v=100
19068 On ch=1 n=77 v=0
19080 On ch=1 n=79 v=100
19188 On ch=1 n=79 v=0
19200 On ch=1 n=75 v=100
19308 On ch=1 n=75 v=0
19320 On ch=1 n=77 v=100
19428 On ch=1 n=77 v=0
19440 On ch=1 n=79 v=100
19548 On ch=1 n=79 v=0
19560 On ch=1 n=80 v=100
19668 On ch=1 n=80 v=0
19680 On ch=1 n=82 v=100
19788 On ch=1 n=82 v=0
19800 On ch=1 n=80 v=100
19908 On ch=1 n=80 v=0
19920 On ch=1 n=84 v=100
20028 On ch=1 n=84 v=0
20040 On ch=1 n=82 v=100
20148 On ch=1 n=82 v=0
20160 On ch=1 n=80 v=100
20268 On ch=1 n=80 v=0
20280 On ch=1 n=79 v=98
20388 On ch=1 n=79 v=0
20400 On ch=1 n=77 v=96
20508 On ch=1 n=77 v=0
20520 On ch=1 n=80 v=94
20628 On ch=1 n=80 v=0
20640 On ch=1 n=74 v=91
21115 On ch=1 n=74 v=0
21120 On ch=1 n=74 v=80
21228 On ch=1 n=74 v=0
21240 On ch=1 n=74 v=80
21348 On ch=1 n=74 v=0
21360 On ch=1 n=79 v=80
21468 On ch=1 n=79 v=0
21480 On ch=1 n=74 v=80
21588 On ch=1 n=74 v=0
21600 On ch=1 n=75 v=82
21708 On ch=1 n=75 v=0
21720 On ch=1 n=72 v=85
21828 On ch=1 n=72 v=0
21840 On ch=1 n=74 v=88
21948 On ch=1 n=74 v=0
21960 On ch=1 n=70 v=90
22068 On ch=1 n=70 v=0
22080 On ch=1 n=72 v=80
22555 On ch=1 n=72 v=0
22560 On ch=1 n=72 v=80
22668 On ch=1 n=72 v=0
22680 On ch=1 n=79 v=80
22788 On ch=1 n=79 v=0
22800 On ch=1 n=78 v=80
22908 On ch=1 n=78 v=0
22920 On ch=1 n=81 v=80
23028 On ch=1 n=81 v=0
23040 On ch=1 n=72 v=80
23148 On ch=1 n=72 v=0
23160 On ch=1 n=70 v=80
23268 On ch=1 n=70 v=0
23280 On ch=1 n=72 v=80
23517 On ch=1 n=72 v=0
23520 On ch=1 n=72 v=80
23628 On ch=1 n=72 v=0
23640 On ch=1 n=78 v=80
23748 On ch=1 n=78 v=0
23760 On ch=1 n=76 v=80
23868 On ch=1 n=76 v=0
23880 On ch=1 n=74 v=80
23988 On ch=1 n=74 v=0
24000 On ch=1 n=82 v=80
24324 On ch=1 n=82 v=0
24360 On ch=1 n=76 v=80
24468 On ch=1 n=76 v=0
24480 On ch=1 n=78 v=80
24804 On ch=1 n=78 v=0
24840 On ch=1 n=79 v=80
24948 On ch=1 n=79 v=0
24960 On ch=1 n=79 v=80
25176 On ch=1 n=79 v=0
25200 On ch=1 n=67 v=80
25308 On ch=1 n=67 v=0
25320 On ch=1 n=66 v=83
25428 On ch=1 n=66 v=0
25440 On ch=1 n=67 v=86
25548 On ch=1 n=67 v=0
25560 On ch=1 n=69 v=89
25668 On ch=1 n=69 v=0
25680 On ch=1 n=70 v=92
25788 On ch=1 n=70 v=0
25800 On ch=1 n=62 v=80
25908 On ch=1 n=62 v=0
25920 On ch=1 n=63 v=80
26028 On ch=1 n=63 v=0
26040 On ch=1 n=65 v=80
26148 On ch=1 n=65 v=0
26160 On ch=1 n=63 v=80
26268 On ch=1 n=63 v=0
26280 On ch=1 n=60 v=80
26388 On ch=1 n=60 v=0
26400 On ch=1 n=72 v=80
26508 On ch=1 n=72 v=0
26520 On ch=1 n=70 v=80
26628 On ch=1 n=70 v=0
26640 On ch=1 n=69 v=80
26748 On ch=1 n=69 v=0
26760 On ch=1 n=67 v=80
26868 On ch=1 n=67 v=0
26880 On ch=1 n=66 v=80
26988 On ch=1 n=66 v=0
27000 On ch=1 n=75 v=80
27108 On ch=1 n=75 v=0
27120 On ch=1 n=74 v=80
27228 On ch=1 n=74 v=0
27240 On ch=1 n=72 v=80
27348 On ch=1 n=72 v=0
27360 On ch=1 n=70 v=80
27468 On ch=1 n=70 v=0
27480 On ch=1 n=69 v=80
27588 On ch=1 n=69 v=0
27600 On ch=1 n=67 v=80
27708 On ch=1 n=67 v=0
27720 On ch=1 n=66 v=80
27828 On ch=1 n=66 v=0
27840 On ch=1 n=67 v=80
27948 On ch=1 n=67 v=0
27960 On ch=1 n=69 v=80
28068 On ch=1 n=69 v=0
28080 On ch=1 n=67 v=80
28188 On ch=1 n=67 v=0
28200 On ch=1 n=69 v=80
28308 On ch=1 n=69 v=0
28320 On ch=1 n=70 v=80
28374 On ch=1 n=70 v=0
28380 On ch=1 n=69 v=79
28434 On ch=1 n=69 v=0
28440 On ch=1 n=70 v=77
28494 On ch=1 n=70 v=0
28500 On ch=1 n=69 v=76
28554 On ch=1 n=69 v=0
28560 On ch=1 n=70 v=75
28614 On ch=1 n=70 v=0
28620 On ch=1 n=69 v=73
28674 On ch=1 n=69 v=0
28680 On ch=1 n=67 v=72
28734 On ch=1 n=67 v=0
28740 On ch=1 n=69 v=71
28794 On ch=1 n=69 v=0
28800 On ch=1 n=70 v=80
28908 On ch=1 n=70 v=0
28920 On ch=1 n=69 v=80
29028 On ch=1 n=69 v=0
29040 On ch=1 n=67 v=80
29148 On ch=1 n=67 v=0
29160 On ch=1 n=69 v=83
29268 On ch=1 n=69 v=0
29280 On ch=1 n=70 v=87
29388 On ch=1 n=70 v=0
29400 On ch=1 n=72 v=90
29508 On ch=1 n=72 v=0
29520 On ch=1 n=74 v=80
29640 On ch=1 n=74 v=0
29760 On ch=1 n=75 v=80
29814 On ch=1 n=75 v=0
29820 On ch=1 n=74 v=80
29874 On ch=1 n=74 v=0
29880 On ch=1 n=75 v=80
29934 On ch=1 n=75 v=0
29940 On ch=1 n=74 v=80
29994 On ch=1 n=74 v=0
30000 On ch=1 n=72 v=80
30216 On ch=1 n=72 v=0
30480 On ch=1 n=72 v=80
30600 On ch=1 n=72 v=0
30720 On ch=1 n=74 v=80
30774 On ch=1 n=74 v=0
30780 On ch=1 n=72 v=80
30834 On ch=1 n=72 v=0
30840 On ch=1 n=74 v=80
30894 On ch=1 n=74 v=0
30900 On ch=1 n=72 v=80
30954 On ch=1 n=72 v=0
30960 On ch=1 n=70 v=80
31176 On ch=1 n=70 v=0
31440 On ch=1 n=69 v=80
31677 On ch=1 n=69 v=0
31680 On ch=1 n=70 v=80
31896 On ch=1 n=70 v=0
31920 On ch=1 n=63 v=80
32157 On ch=1 n=63 v=0
32160 On ch=1 n=63 v=80
32278 On ch=1 n=63 v=0
32280 On ch=1 n=60 v=80
32398 On ch=1 n=60 v=0
32400 On ch=1 n=65 v=80
32518 On ch=1 n=65 v=0
32520 On ch=1 n=60 v=80
32638 On ch=1 n=60 v=0
32640 On ch=1 n=62 v=70
32760 On ch=1 n=62 v=0
32880 On ch=1 n=70 v=70
33117 On ch=1 n=70 v=0
33120 On ch=1 n=70 v=70
33228 On ch=1 n=70 v=0
33240 On ch=1 n=69 v=70
33348 On ch=1 n=69 v=0
33360 On ch=1 n=70 v=70
33468 On ch=1 n=70 v=0
33480 On ch=1 n=65 v=70
33588 On ch=1 n=65 v=0
33600 On ch=1 n=67 v=70
33708 On ch=1 n=67 v=0
33720 On ch=1 n=70 v=74
33828 On ch=1 n=70 v=0
33840 On ch=1 n=75 v=78
33948 On ch=1 n=75 v=0
33960 On ch=1 n=74 v=70
34068 On ch=1 n=74 v=0
34080 On ch=1 n=72 v=70
34188 On ch=1 n=72 v=0
34200 On ch=1 n=70 v=70
34308 On ch=1 n=70 v=0
34320 On ch=1 n=69 v=70
34428 On ch=1 n=69 v=0
34440 On ch=1 n=67 v=70
34548 On ch=1 n=67 v=0
34560 On ch=1 n=65 v=70
34668 On ch=1 n=65 v=0
34680 On ch=1 n=69 v=72
34788 On ch=1 n=69 v=0
34800 On ch=1 n=74 v=75
34908 On ch=1 n=74 v=0
34920 On ch=1 n=72 v=70
35028 On ch=1 n=72 v=0
35040 On ch=1 n=70 v=70
35148 On ch=1 n=70 v=0
35160 On ch=1 n=69 v=70
35268 On ch=1 n=69 v=0
35280 On ch=1 n=67 v=70
35388 On ch=1 n=67 v=0
35400 On ch=1 n=65 v=70
35508 On ch=1 n=65 v=0
35520 On ch=1 n=63 v=70
35628 On ch=1 n=63 v=0
35640 On ch=1 n=67 v=70
35748 On ch=1 n=67 v=0
35760 On ch=1 n=72 v=70
35868 On ch=1 n=72 v=0
35880 On ch=1 n=67 v=70
35988 On ch=1 n=67 v=0
36000 On ch=1 n=69 v=70
36324 On ch=1 n=69 v=0
36360 On ch=1 n=69 v=70
36468 On ch=1 n=69 v=0
36480 On ch=1 n=70 v=70
36588 On ch=1 n=70 v=0
36600 On ch=1 n=65 v=70
36708 On ch=1 n=65 v=0
36720 On ch=1 n=67 v=70
36828 On ch=1 n=67 v=0
36840 On ch=1 n=65 v=70
36948 On ch=1 n=65 v=0
36960 On ch=1 n=74 v=70
37435 On ch=1 n=74 v=0
37440 On ch=1 n=74 v=70
37548 On ch=1 n=74 v=0
37560 On ch=1 n=65 v=70
37668 On ch=1 n=65 v=0
37680 On ch=1 n=67 v=73
37788 On ch=1 n=67 v=0
37800 On ch=1 n=65 v=77
37908 On ch=1 n=65 v=0
37920 On ch=1 n=75 v=80
38395 On ch=1 n=75 v=0
38400 On ch=1 n=75 v=70
38508 On ch=1 n=75 v=0
38520 On ch=1 n=65 v=70
38628 On ch=1 n=65 v=0
38640 On ch=1 n=70 v=71
38748 On ch=1 n=70 v=0
38760 On ch=1 n=69 v=71
38868 On ch=1 n=69 v=0
38880 On ch=1 n=74 v=72
38988 On ch=1 n=74 v=0
39000 On ch=1 n=72 v=72
39108 On ch=1 n=72 v=0
39120 On ch=1 n=75 v=73
39228 On ch=1 n=75 v=0
39240 On ch=1 n=74 v=73
39348 On ch=1 n=74 v=0
39360 On ch=1 n=79 v=74
39468 On ch=1 n=79 v=0
39480 On ch=1 n=77 v=74
39588 On ch=1 n=77 v=0
39600 On ch=1 n=75 v=75
39708 On ch=1 n=75 v=0
39720 On ch=1 n=74 v=75
39828 On ch=1 n=74 v=0
39840 On ch=1 n=72 v=76
39948 On ch=1 n=72 v=0
39960 On ch=1 n=77 v=76
40068 On ch=1 n=77 v=0
40080 On ch=1 n=75 v=77
40188 On ch=1 n=75 v=0
40200 On ch=1 n=77 v=77
40308 On ch=1 n=77 v=0
40320 On ch=1 n=74 v=78
40428 On ch=1 n=74 v=0
40440 On ch=1 n=72 v=78
40548 On ch=1 n=72 v=0
40560 On ch=1 n=70 v=79
40668 On ch=1 n=70 v=0
40680 On ch=1 n=69 v=79
40788 On ch=1 n=69 v=0
40800 On ch=1 n=74 v=80
40908 On ch=1 n=74 v=0
40920 On ch=1 n=72 v=70
41028 On ch=1 n=72 v=0
41040 On ch=1 n=75 v=70
41148 On ch=1 n=75 v=0
41160 On ch=1 n=74 v=70
41268 On ch=1 n=74 v=0
41280 On ch=1 n=72 v=70
41388 On ch=1 n=72 v=0
41400 On ch=1 n=70 v=70
41508 On ch=1 n=70 v=0
41520 On ch=1 n=69 v=70
41628 On ch=1 n=69 v=0
41640 On ch=1 n=72 v=70
41748 On ch=1 n=72 v=0
41760 On ch=1 n=77 v=70
42235 On ch=1 n=77 v=0
42240 On ch=1 n=77 v=69
42348 On ch=1 n=77 v=0
42360 On ch=1 n=67 v=69
42468 On ch=1 n=67 v=0
42480 On ch=1 n=72 v=71
42588 On ch=1 n=72 v=0
42600 On ch=1 n=71 v=73
42708 On ch=1 n=71 v=0
42720 On ch=1 n=75 v=75
42828 On ch=1 n=75 v=0
42840 On ch=1 n=74 v=77
42948 On ch=1 n=74 v=0
42960 On ch=1 n=77 v=80
43068 On ch=1 n=77 v=0
43080 On ch=1 n=75 v=82
43188 On ch=1 n=75 v=0
43200 On ch=1 n=80 v=84
43308 On ch=1 n=80 v=0
43320 On ch=1 n=79 v=86
43428 On ch=1 n=79 v=0
43440 On ch=1 n=77 v=88
43548 On ch=1 n=77 v=0
43560 On ch=1 n=75 v=90
43668 On ch=1 n=75 v=0
43680 On ch=1 n=74 v=78
43788 On ch=1 n=74 v=0
43800 On ch=1 n=79 v=80
43908 On ch=1 n=79 v=0
43920 On ch=1 n=77 v=82
44028 On ch=1 n=77 v=0
44040 On ch=1 n=79 v=84
44148 On ch=1 n=79 v=0
44160 On ch=1 n=75 v=89
44268 On ch=1 n=75 v=0
44280 On ch=1 n=74 v=89
44388 On ch=1 n=74 v=0
44400 On ch=1 n=72 v=89
44508 On ch=1 n=72 v=0
44520 On ch=1 n=71 v=89
44628 On ch=1 n=71 v=0
44640 On ch=1 n=72 v=89
44748 On ch=1 n=72 v=0
44760 On ch=1 n=74 v=89
44868 On ch=1 n=74 v=0
44880 On ch=1 n=75 v=89
44988 On ch=1 n=75 v=0
45000 On ch=1 n=67 v=89
45108 On ch=1 n=67 v=0
45120 On ch=1 n=68 v=89
45228 On ch=1 n=68 v=0
45240 On ch=1 n=70 v=89
45348 On ch=1 n=70 v=0
45360 On ch=1 n=68 v=89
45468 On ch=1 n=68 v=0
45480 On ch=1 n=65 v=89
45588 On ch=1 n=65 v=0
45600 On ch=1 n=77 v=89
45708 On ch=1 n=77 v=0
45720 On ch=1 n=75 v=89
45828 On ch=1 n=75 v=0
45840 On ch=1 n=74 v=89
45948 On ch=1 n=74 v=0
45960 On ch=1 n=72 v=89
46068 On ch=1 n=72 v=0
46080 On ch=1 n=71 v=89
46188 On ch=1 n=71 v=0
46200 On ch=1 n=80 v=89
46308 On ch=1 n=80 v=0
46320 On ch=1 n=79 v=89
46428 On ch=1 n=79 v=0
46440 On ch=1 n=77 v=89
46548 On ch=1 n=77 v=0
46560 On ch=1 n=75 v=89
46668 On ch=1 n=75 v=0
46680 On ch=1 n=74 v=89
46788 On ch=1 n=74 v=0
46800 On ch=1 n=72 v=89
46908 On ch=1 n=72 v=0
46920 On ch=1 n=71 v=89
47028 On ch=1 n=71 v=0
47040 On ch=1 n=72 v=89
47148 On ch=1 n=72 v=0
47160 On ch=1 n=74 v=89
47268 On ch=1 n=74 v=0
47280 On ch=1 n=72 v=89
47388 On ch=1 n=72 v=0
47400 On ch=1 n=74 v=89
47508 On ch=1 n=74 v=0
47520 On ch=1 n=75 v=89
47574 On ch=1 n=75 v=0
47580 On ch=1 n=74 v=98
47634 On ch=1 n=74 v=0
47640 On ch=1 n=75 v=96
47694 On ch=1 n=75 v=0
47700 On ch=1 n=74 v=95
47754 On ch=1 n=74 v=0
47760 On ch=1 n=75 v=93
47814 On ch=1 n=75 v=0
47820 On ch=1 n=74 v=91
47874 On ch=1 n=74 v=0
47880 On ch=1 n=72 v=89
47934 On ch=1 n=72 v=0
47940 On ch=1 n=74 v=87
47994 On ch=1 n=74 v=0
48000 On ch=1 n=75 v=85
48108 On ch=1 n=75 v=0
48120 On ch=1 n=74 v=85
48228 On ch=1 n=74 v=0
48240 On ch=1 n=72 v=86
48348 On ch=1 n=72 v=0
48360 On ch=1 n=74 v=87
48468 On ch=1 n=74 v=0
48480 On ch=1 n=75 v=88
48588 On ch=1 n=75 v=0
48600 On ch=1 n=77 v=89
48708 On ch=1 n=77 v=0
48720 On ch=1 n=79 v=90
48840 On ch=1 n=79 v=0
48960 On ch=1 n=80 v=92
49014 On ch=1 n=80 v=0
49020 On ch=1 n=79 v=93
49074 On ch=1 n=79 v=0
49080 On ch=1 n=80 v=93
49134 On ch=1 n=80 v=0
49140 On ch=1 n=79 v=94
49194 On ch=1 n=79 v=0
49200 On ch=1 n=77 v=85
49416 On ch=1 n=77 v=0
49680 On ch=1 n=77 v=85
49800 On ch=1 n=77 v=0
49920 On ch=1 n=79 v=85
49974 On ch=1 n=79 v=0
49980 On ch=1 n=77 v=85
50034 On ch=1 n=77 v=0
50040 On ch=1 n=79 v=85
50094 On ch=1 n=79 v=0
50100 On ch=1 n=77 v=85
50154 On ch=1 n=77 v=0
50160 On ch=1 n=75 v=85
50268 On ch=1 n=75 v=0
50280 On ch=1 n=74 v=85
50388 On ch=1 n=74 v=0
50400 On ch=1 n=79 v=85
50508 On ch=1 n=79 v=0
50520 On ch=1 n=77 v=85
50628 On ch=1 n=77 v=0
50640 On ch=1 n=80 v=85
50748 On ch=1 n=80 v=0
50760 On ch=1 n=79 v=85
50868 On ch=1 n=79 v=0
50880 On ch=1 n=79 v=85
51236 On ch=1 n=79 v=0
51240 On ch=1 n=80 v=85
51348 On ch=1 n=80 v=0
51360 On ch=1 n=75 v=84
51414 On ch=1 n=75 v=0
51420 On ch=1 n=74 v=82
51474 On ch=1 n=74 v=0
51480 On ch=1 n=75 v=80
51534 On ch=1 n=75 v=0
51540 On ch=1 n=74 v=79
51594 On ch=1 n=74 v=0
51600 On ch=1 n=75 v=77
51654 On ch=1 n=75 v=0
51660 On ch=1 n=74 v=75
51714 On ch=1 n=74 v=0
51720 On ch=1 n=72 v=73
51828 On ch=1 n=72 v=0
51840 On ch=1 n=72 v=85
53740 On ch=1 n=72 v=0
53740 Meta TrkEnd
TrkEnd
MTrk
0 SeqSpec 43 00 01 00
570 Par ch=2 c=121 v=0
590 Meta Text "# Pitch Bend Sensitivity (0-2-24) #"
590 Par ch=2 c=101 v=0
595 Par ch=2 c=100 v=0
600 Par ch=2 c=6 v=2
605 Pb ch=2 v=8192
610 Par ch=2 c=0 v=0
615 Par ch=2 c=32 v=0
620 PrCh ch=2 p=0
625 Par ch=2 c=7 v=100
630 Par ch=2 c=11 v=127
635 Par ch=2 c=10 v=64
640 Par ch=2 c=91 v=50
645 Par ch=2 c=93 v=0
650 Par ch=2 c=1 v=0
6000 On ch=2 n=60 v=80
6108 On ch=2 n=60 v=0
6120 On ch=2 n=59 v=82
6228 On ch=2 n=59 v=0
6240 On ch=2 n=60 v=84
6348 On ch=2 n=60 v=0
6360 On ch=2 n=62 v=86
6468 On ch=2 n=62 v=0
6480 On ch=2 n=63 v=88
6588 On ch=2 n=63 v=0
6600 On ch=2 n=55 v=90
6708 On ch=2 n=55 v=0
6720 On ch=2 n=56 v=80
6828 On ch=2 n=56 v=0
6840 On ch=2 n=58 v=80
6948 On ch=2 n=58 v=0
6960 On ch=2 n=56 v=80
7068 On ch=2 n=56 v=0
7080 On ch=2 n=53 v=80
7188 On ch=2 n=53 v=0
7200 On ch=2 n=65 v=80
7308 On ch=2 n=65 v=0
7320 On ch=2 n=63 v=80
7428 On ch=2 n=63 v=0
7440 On ch=2 n=62 v=80
7548 On ch=2 n=62 v=0
7560 On ch=2 n=60 v=80
7668 On ch=2 n=60 v=0
7680 On ch=2 n=59 v=80
7788 On ch=2 n=59 v=0
7800 On ch=2 n=68 v=80
7908 On ch=2 n=68 v=0
7920 On ch=2 n=67 v=80
8028 On ch=2 n=67 v=0
8040 On ch=2 n=65 v=80
8148 On ch=2 n=65 v=0
8160 On ch=2 n=63 v=80
8268 On ch=2 n=63 v=0
8280 On ch=2 n=62 v=80
8388 On ch=2 n=62 v=0
8400 On ch=2 n=60 v=80
8508 On ch=2 n=60 v=0
8520 On ch=2 n=59 v=80
8628 On ch=2 n=59 v=0
8640 On ch=2 n=60 v=80
8748 On ch=2 n=60 v=0
8760 On ch=2 n=62 v=80
8868 On ch=2 n=62 v=0
8880 On ch=2 n=60 v=80
8988 On ch=2 n=60 v=0
9000 On ch=2 n=62 v=80
9108 On ch=2 n=62 v=0
9120 On ch=2 n=63 v=80
9174 On ch=2 n=63 v=0
9180 On ch=2 n=62 v=79
9234 On ch=2 n=62 v=0
9240 On ch=2 n=63 v=77
9294 On ch=2 n=63 v=0
9300 On ch=2 n=62 v=76
9354 On ch=2 n=62 v=0
9360 On ch=2 n=63 v=74
9414 On ch=2 n=63 v=0
9420 On ch=2 n=62 v=73
9474 On ch=2 n=62 v=0
9480 On ch=2 n=60 v=72
9534 On ch=2 n=60 v=0
9540 On ch=2 n=62 v=70
9594 On ch=2 n=62 v=0
9600 On ch=2 n=63 v=70
9708 On ch=2 n=63 v=0
9720 On ch=2 n=62 v=70
9828 On ch=2 n=62 v=0
9840 On ch=2 n=60 v=70
9948 On ch=2 n=60 v=0
9960 On ch=2 n=62 v=73
10068 On ch=2 n=62 v=0
10080 On ch=2 n=63 v=76
10188 On ch=2 n=63 v=0
10200 On ch=2 n=65 v=79
10308 On ch=2 n=65 v=0
10320 On ch=2 n=67 v=70
10440 On ch=2 n=67 v=0
10560 On ch=2 n=68 v=70
10614 On ch=2 n=68 v=0
10620 On ch=2 n=67 v=70
10674 On ch=2 n=67 v=0
10680 On ch=2 n=68 v=70
10734 On ch=2 n=68 v=0
10740 On ch=2 n=67 v=70
10794 On ch=2 n=67 v=0
10800 On ch=2 n=65 v=70
11016 On ch=2 n=65 v=0
11280 On ch=2 n=65 v=70
11400 On ch=2 n=65 v=0
11520 On ch=2 n=67 v=70
11574 On ch=2 n=67 v=0
11580 On ch=2 n=65 v=70
11634 On ch=2 n=65 v=0
11640 On ch=2 n=67 v=70
11694 On ch=2 n=67 v=0
11700 On ch=2 n=65 v=70
11754 On ch=2 n=65 v=0
11760 On ch=2 n=63 v=70
11976 On ch=2 n=63 v=0
12240 On ch=2 n=62 v=70
12477 On ch=2 n=62 v=0
12480 On ch=2 n=63 v=70
12696 On ch=2 n=63 v=0
12720 On ch=2 n=56 v=70
12957 On ch=2 n=56 v=0
12960 On ch=2 n=56 v=70
13068 On ch=2 n=56 v=0
13080 On ch=2 n=53 v=70
13188 On ch=2 n=53 v=0
13200 On ch=2 n=58 v=70
13308 On ch=2 n=58 v=0
13320 On ch=2 n=53 v=70
13428 On ch=2 n=53 v=0
13440 On ch=2 n=55 v=70
13560 On ch=2 n=55 v=0
13680 On ch=2 n=63 v=70
13917 On ch=2 n=63 v=0
13920 On ch=2 n=63 v=70
14028 On ch=2 n=63 v=0
14040 On ch=2 n=62 v=70
14148 On ch=2 n=62 v=0
14160 On ch=2 n=63 v=70
14268 On ch=2 n=63 v=0
14280 On ch=2 n=58 v=70
14388 On ch=2 n=58 v=0
14400 On ch=2 n=60 v=70
14508 On ch=2 n=60 v=0
14520 On ch=2 n=63 v=72
14628 On ch=2 n=63 v=0
14640 On ch=2 n=68 v=74
14748 On ch=2 n=68 v=0
14760 On ch=2 n=67 v=77
14868 On ch=2 n=67 v=0
14880 On ch=2 n=65 v=79
14988 On ch=2 n=65 v=0
15000 On ch=2 n=63 v=70
15108 On ch=2 n=63 v=0
15120 On ch=2 n=62 v=70
15228 On ch=2 n=62 v=0
15240 On ch=2 n=60 v=70
15348 On ch=2 n=60 v=0
15360 On ch=2 n=58 v=70
15468 On ch=2 n=58 v=0
15480 On ch=2 n=62 v=70
15588 On ch=2 n=62 v=0
15600 On ch=2 n=67 v=70
15708 On ch=2 n=67 v=0
15720 On ch=2 n=65 v=72
15828 On ch=2 n=65 v=0
15840 On ch=2 n=63 v=74
15948 On ch=2 n=63 v=0
15960 On ch=2 n=62 v=76
16068 On ch=2 n=62 v=0
16080 On ch=2 n=60 v=78
16188 On ch=2 n=60 v=0
16200 On ch=2 n=58 v=80
16308 On ch=2 n=58 v=0
16320 On ch=2 n=56 v=81
16428 On ch=2 n=56 v=0
16440 On ch=2 n=60 v=83
16548 On ch=2 n=60 v=0
16560 On ch=2 n=65 v=85
16668 On ch=2 n=65 v=0
16680 On ch=2 n=60 v=87
16788 On ch=2 n=60 v=0
16800 On ch=2 n=62 v=89
17124 On ch=2 n=62 v=0
17160 On ch=2 n=62 v=95
17268 On ch=2 n=62 v=0
17280 On ch=2 n=63 v=100
17388 On ch=2 n=63 v=0
17400 On ch=2 n=58 v=100
17508 On ch=2 n=58 v=0
17520 On ch=2 n=60 v=100
17628 On ch=2 n=60 v=0
17640 On ch=2 n=58 v=100
17748 On ch=2 n=58 v=0
17760 On ch=2 n=67 v=100
18235 On ch=2 n=67 v=0
18240 On ch=2 n=67 v=100
18348 On ch=2 n=67 v=0
18360 On ch=2 n=58 v=100
18468 On ch=2 n=58 v=0
18480 On ch=2 n=60 v=100
18588 On ch=2 n=60 v=0
18600 On ch=2 n=58 v=100
18708 On ch=2 n=58 v=0
18720 On ch=2 n=68 v=100
19195 On ch=2 n=68 v=0
19200 On ch=2 n=68 v=100
19308 On ch=2 n=68 v=0
19320 On ch=2 n=58 v=100
19428 On ch=2 n=58 v=0
19440 On ch=2 n=63 v=100
19548 On ch=2 n=63 v=0
19560 On ch=2 n=62 v=100
19668 On ch=2 n=62 v=0
19680 On ch=2 n=67 v=100
19788 On ch=2 n=67 v=0
19800 On ch=2 n=65 v=100
19908 On ch=2 n=65 v=0
19920 On ch=2 n=68 v=100
20028 On ch=2 n=68 v=0
20040 On ch=2 n=67 v=100
20148 On ch=2 n=67 v=0
20160 On ch=2 n=72 v=100
20268 On ch=2 n=72 v=0
20280 On ch=2 n=70 v=99
20388 On ch=2 n=70 v=0
20400 On ch=2 n=68 v=97
20508 On ch=2 n=68 v=0
20520 On ch=2 n=67 v=96
20628 On ch=2 n=67 v=0
20640 On ch=2 n=65 v=94
20748 On ch=2 n=65 v=0
20760 On ch=2 n=70 v=93
20868 On ch=2 n=70 v=0
20880 On ch=2 n=68 v=91
20988 On ch=2 n=68 v=0
21000 On ch=2 n=70 v=90
21108 On ch=2 n=70 v=0
21120 On ch=2 n=67 v=80
21336 On ch=2 n=67 v=0
21360 On ch=2 n=51 v=80
21468 On ch=2 n=51 v=0
21480 On ch=2 n=53 v=80
21588 On ch=2 n=53 v=0
21600 On ch=2 n=55 v=82
21708 On ch=2 n=55 v=0
21720 On ch=2 n=57 v=85
21828 On ch=2 n=57 v=0
21840 On ch=2 n=58 v=88
21948 On ch=2 n=58 v=0
21960 On ch=2 n=50 v=90
22068 On ch=2 n=50 v=0
22080 On ch=2 n=51 v=80
22188 On ch=2 n=51 v=0
22200 On ch=2 n=53 v=80
22308 On ch=2 n=53 v=0
22320 On ch=2 n=51 v=80
22428 On ch=2 n=51 v=0
22440 On ch=2 n=48 v=80
22548 On ch=2 n=48 v=0
22560 On ch=2 n=60 v=80
22668 On ch=2 n=60 v=0
22680 On ch=2 n=58 v=80
22788 On ch=2 n=58 v=0
22800 On ch=2 n=57 v=80
22908 On ch=2 n=57 v=0
22920 On ch=2 n=55 v=80
23028 On ch=2 n=55 v=0
23040 On ch=2 n=54 v=80
23148 On ch=2 n=54 v=0
23160 On ch=2 n=63 v=80
23268 On ch=2 n=63 v=0
23280 On ch=2 n=62 v=80
23388 On ch=2 n=62 v=0
23400 On ch=2 n=60 v=80
23508 On ch=2 n=60 v=0
23520 On ch=2 n=58 v=80
23628 On ch=2 n=58 v=0
23640 On ch=2 n=57 v=80
23748 On ch=2 n=57 v=0
23760 On ch=2 n=55 v=80
23868 On ch=2 n=55 v=0
23880 On ch=2 n=54 v=80
23988 On ch=2 n=54 v=0
24000 On ch=2 n=55 v=80
24108 On ch=2 n=55 v=0
24120 On ch=2 n=57 v=80
24228 On ch=2 n=57 v=0
24240 On ch=2 n=55 v=80
24348 On ch=2 n=55 v=0
24360 On ch=2 n=57 v=80
24468 On ch=2 n=57 v=0
24480 On ch=2 n=58 v=79
24534 On ch=2 n=58 v=0
24540 On ch=2 n=57 v=78
24594 On ch=2 n=57 v=0
24600 On ch=2 n=58 v=76
24654 On ch=2 n=58 v=0
24660 On ch=2 n=57 v=75
24714 On ch=2 n=57 v=0
24720 On ch=2 n=58 v=74
24774 On ch=2 n=58 v=0
24780 On ch=2 n=57 v=73
24834 On ch=2 n=57 v=0
24840 On ch=2 n=55 v=71
24894 On ch=2 n=55 v=0
24900 On ch=2 n=57 v=70
24954 On ch=2 n=57 v=0
24960 On ch=2 n=58 v=80
25068 On ch=2 n=58 v=0
25080 On ch=2 n=57 v=80
25188 On ch=2 n=57 v=0
25200 On ch=2 n=55 v=80
25308 On ch=2 n=55 v=0
25320 On ch=2 n=57 v=82
25428 On ch=2 n=57 v=0
25440 On ch=2 n=58 v=85
25548 On ch=2 n=58 v=0
25560 On ch=2 n=60 v=87
25668 On ch=2 n=60 v=0
25680 On ch=2 n=62 v=89
25800 On ch=2 n=62 v=0
25920 On ch=2 n=63 v=80
25974 On ch=2 n=63 v=0
25980 On ch=2 n=62 v=80
26034 On ch=2 n=62 v=0
26040 On ch=2 n=63 v=80
26094 On ch=2 n=63 v=0
26100 On ch=2 n=62 v=80
26154 On ch=2 n=62 v=0
26160 On ch=2 n=60 v=80
26280 On ch=2 n=60 v=0
26640 On ch=2 n=60 v=80
26760 On ch=2 n=60 v=0
26880 On ch=2 n=62 v=80
26934 On ch=2 n=62 v=0
26940 On ch=2 n=60 v=80
26994 On ch=2 n=60 v=0
27000 On ch=2 n=62 v=80
27054 On ch=2 n=62 v=0
27060 On ch=2 n=60 v=80
27114 On ch=2 n=60 v=0
27120 On ch=2 n=58 v=80
27336 On ch=2 n=58 v=0
27600 On ch=2 n=57 v=80
27837 On ch=2 n=57 v=0
27840 On ch=2 n=58 v=80
28056 On ch=2 n=58 v=0
28080 On ch=2 n=51 v=80
28317 On ch=2 n=51 v=0
28320 On ch=2 n=51 v=80
28428 On ch=2 n=51 v=0
28440 On ch=2 n=48 v=80
28548 On ch=2 n=48 v=0
28560 On ch=2 n=53 v=80
28668 On ch=2 n=53 v=0
28680 On ch=2 n=48 v=80
28788 On ch=2 n=48 v=0
28800 On ch=2 n=50 v=80
28920 On ch=2 n=50 v=0
29040 On ch=2 n=58 v=80
29277 On ch=2 n=58 v=0
29280 On ch=2 n=58 v=80
29388 On ch=2 n=58 v=0
29400 On ch=2 n=57 v=80
29508 On ch=2 n=57 v=0
29520 On ch=2 n=58 v=80
29628 On ch=2 n=58 v=0
29640 On ch=2 n=53 v=80
29748 On ch=2 n=53 v=0
29760 On ch=2 n=55 v=80
29868 On ch=2 n=55 v=0
29880 On ch=2 n=58 v=83
29988 On ch=2 n=58 v=0
30000 On ch=2 n=63 v=86
30108 On ch=2 n=63 v=0
30120 On ch=2 n=62 v=89
30228 On ch=2 n=62 v=0
30240 On ch=2 n=60 v=80
30348 On ch=2 n=60 v=0
30360 On ch=2 n=58 v=80
30468 On ch=2 n=58 v=0
30480 On ch=2 n=57 v=80
30588 On ch=2 n=57 v=0
30600 On ch=2 n=55 v=80
30708 On ch=2 n=55 v=0
30720 On ch=2 n=53 v=80
30828 On ch=2 n=53 v=0
30840 On ch=2 n=57 v=85
30948 On ch=2 n=57 v=0
30960 On ch=2 n=62 v=90
31068 On ch=2 n=62 v=0
31080 On ch=2 n=60 v=80
31188 On ch=2 n=60 v=0
31200 On ch=2 n=58 v=80
31308 On ch=2 n=58 v=0
31320 On ch=2 n=57 v=80
31428 On ch=2 n=57 v=0
31440 On ch=2 n=55 v=80
31548 On ch=2 n=55 v=0
31560 On ch=2 n=53 v=80
31668 On ch=2 n=53 v=0
31680 On ch=2 n=51 v=80
31788 On ch=2 n=51 v=0
31800 On ch=2 n=55 v=80
31908 On ch=2 n=55 v=0
31920 On ch=2 n=60 v=80
32028 On ch=2 n=60 v=0
32040 On ch=2 n=55 v=80
32148 On ch=2 n=55 v=0
32160 On ch=2 n=57 v=80
32484 On ch=2 n=57 v=0
32520 On ch=2 n=57 v=80
32628 On ch=2 n=57 v=0
32640 On ch=2 n=58 v=70
32748 On ch=2 n=58 v=0
32760 On ch=2 n=53 v=70
32868 On ch=2 n=53 v=0
32880 On ch=2 n=55 v=70
32988 On ch=2 n=55 v=0
33000 On ch=2 n=53 v=70
33108 On ch=2 n=53 v=0
33120 On ch=2 n=62 v=70
33595 On ch=2 n=62 v=0
33600 On ch=2 n=62 v=70
33708 On ch=2 n=62 v=0
33720 On ch=2 n=53 v=74
33828 On ch=2 n=53 v=0
33840 On ch=2 n=55 v=78
33948 On ch=2 n=55 v=0
33960 On ch=2 n=53 v=70
34068 On ch=2 n=53 v=0
34080 On ch=2 n=63 v=70
34555 On ch=2 n=63 v=0
34560 On ch=2 n=63 v=70
34668 On ch=2 n=63 v=0
34680 On ch=2 n=53 v=73
34788 On ch=2 n=53 v=0
34800 On ch=2 n=58 v=75
34908 On ch=2 n=58 v=0
34920 On ch=2 n=57 v=78
35028 On ch=2 n=57 v=0
35040 On ch=2 n=62 v=70
35148 On ch=2 n=62 v=0
35160 On ch=2 n=60 v=70
35268 On ch=2 n=60 v=0
35280 On ch=2 n=63 v=70
35388 On ch=2 n=63 v=0
35400 On ch=2 n=62 v=70
35508 On ch=2 n=62 v=0
35520 On ch=2 n=67 v=70
35628 On ch=2 n=67 v=0
35640 On ch=2 n=65 v=70
35748 On ch=2 n=65 v=0
35760 On ch=2 n=63 v=70
35868 On ch=2 n=63 v=0
35880 On ch=2 n=62 v=70
35988 On ch=2 n=62 v=0
36000 On ch=2 n=60 v=70
36108 On ch=2 n=60 v=0
36120 On ch=2 n=65 v=70
36228 On ch=2 n=65 v=0
36240 On ch=2 n=63 v=70
36348 On ch=2 n=63 v=0
36360 On ch=2 n=65 v=70
36468 On ch=2 n=65 v=0
36480 On ch=2 n=62 v=70
36588 On ch=2 n=62 v=0
36600 On ch=2 n=65 v=70
36708 On ch=2 n=65 v=0
36720 On ch=2 n=63 v=70
36828 On ch=2 n=63 v=0
36840 On ch=2 n=65 v=70
36948 On ch=2 n=65 v=0
36960 On ch=2 n=58 v=70
37068 On ch=2 n=58 v=0
37080 On ch=2 n=62 v=70
37188 On ch=2 n=62 v=0
37200 On ch=2 n=60 v=70
37308 On ch=2 n=60 v=0
37320 On ch=2 n=62 v=70
37428 On ch=2 n=62 v=0
37440 On ch=2 n=55 v=70
37548 On ch=2 n=55 v=0
37560 On ch=2 n=57 v=70
37668 On ch=2 n=57 v=0
37680 On ch=2 n=58 v=70
37788 On ch=2 n=58 v=0
37800 On ch=2 n=60 v=70
37908 On ch=2 n=60 v=0
37920 On ch=2 n=57 v=70
38028 On ch=2 n=57 v=0
38040 On ch=2 n=58 v=70
38148 On ch=2 n=58 v=0
38160 On ch=2 n=60 v=70
38268 On ch=2 n=60 v=0
38280 On ch=2 n=62 v=70
38388 On ch=2 n=62 v=0
38400 On ch=2 n=58 v=71
38508 On ch=2 n=58 v=0
38520 On ch=2 n=60 v=72
38628 On ch=2 n=60 v=0
38640 On ch=2 n=62 v=72
38748 On ch=2 n=62 v=0
38760 On ch=2 n=63 v=73
38868 On ch=2 n=63 v=0
38880 On ch=2 n=65 v=73
38988 On ch=2 n=65 v=0
39000 On ch=2 n=63 v=74
39108 On ch=2 n=63 v=0
39120 On ch=2 n=67 v=74
39228 On ch=2 n=67 v=0
39240 On ch=2 n=65 v=75
39348 On ch=2 n=65 v=0
39360 On ch=2 n=63 v=75
39468 On ch=2 n=63 v=0
39480 On ch=2 n=62 v=76
39588 On ch=2 n=62 v=0
39600 On ch=2 n=60 v=76
39708 On ch=2 n=60 v=0
39720 On ch=2 n=63 v=77
39828 On ch=2 n=63 v=0
39840 On ch=2 n=57 v=77
40315 On ch=2 n=57 v=0
40320 On ch=2 n=56 v=79
40428 On ch=2 n=56 v=0
40440 On ch=2 n=50 v=80
40548 On ch=2 n=50 v=0
40560 On ch=2 n=55 v=80
40668 On ch=2 n=55 v=0
40680 On ch=2 n=54 v=81
40788 On ch=2 n=54 v=0
40800 On ch=2 n=58 v=81
40908 On ch=2 n=58 v=0
40920 On ch=2 n=57 v=82
41028 On ch=2 n=57 v=0
41040 On ch=2 n=60 v=82
41148 On ch=2 n=60 v=0
41160 On ch=2 n=58 v=83
41268 On ch=2 n=58 v=0
41280 On ch=2 n=63 v=70
41388 On ch=2 n=63 v=0
41400 On ch=2 n=62 v=70
41508 On ch=2 n=62 v=0
41520 On ch=2 n=60 v=70
41628 On ch=2 n=60 v=0
41640 On ch=2 n=58 v=70
41748 On ch=2 n=58 v=0
41760 On ch=2 n=57 v=70
41868 On ch=2 n=57 v=0
41880 On ch=2 n=62 v=70
41988 On ch=2 n=62 v=0
42000 On ch=2 n=60 v=70
42108 On ch=2 n=60 v=0
42120 On ch=2 n=62 v=70
42228 On ch=2 n=62 v=0
42240 On ch=2 n=59 v=70
42348 On ch=2 n=59 v=0
42360 On ch=2 n=65 v=70
42468 On ch=2 n=65 v=0
42480 On ch=2 n=63 v=72
42588 On ch=2 n=63 v=0
42600 On ch=2 n=62 v=74
42708 On ch=2 n=62 v=0
42720 On ch=2 n=60 v=77
42828 On ch=2 n=60 v=0
42840 On ch=2 n=58 v=79
42948 On ch=2 n=58 v=0
42960 On ch=2 n=56 v=81
43068 On ch=2 n=56 v=0
43080 On ch=2 n=55 v=83
43188 On ch=2 n=55 v=0
43200 On ch=2 n=53 v=86
43308 On ch=2 n=53 v=0
43320 On ch=2 n=51 v=77
43428 On ch=2 n=51 v=0
43440 On ch=2 n=50 v=79
43548 On ch=2 n=50 v=0
43560 On ch=2 n=48 v=80
43668 On ch=2 n=48 v=0
43680 On ch=2 n=55 v=82
43898 On ch=2 n=55 v=0
43920 On ch=2 n=43 v=85
44040 On ch=2 n=43 v=0
44160 On ch=2 n=48 v=88
44484 On ch=2 n=48 v=0
44520 On ch=2 n=50 v=88
44628 On ch=2 n=50 v=0
44640 On ch=2 n=51 v=88
44748 On ch=2 n=51 v=0
44760 On ch=2 n=53 v=88
44868 On ch=2 n=53 v=0
44880 On ch=2 n=55 v=88
45000 On ch=2 n=55 v=0
45120 On ch=2 n=56 v=89
45174 On ch=2 n=56 v=0
45180 On ch=2 n=55 v=89
45234 On ch=2 n=55 v=0
45240 On ch=2 n=56 v=89
45294 On ch=2 n=56 v=0
45300 On ch=2 n=55 v=89
45354 On ch=2 n=55 v=0
45360 On ch=2 n=53 v=89
45576 On ch=2 n=53 v=0
45840 On ch=2 n=53 v=89
45960 On ch=2 n=53 v=0
46080 On ch=2 n=55 v=89
46134 On ch=2 n=55 v=0
46140 On ch=2 n=53 v=89
46194 On ch=2 n=53 v=0
46200 On ch=2 n=55 v=89
46254 On ch=2 n=55 v=0
46260 On ch=2 n=53 v=89
46314 On ch=2 n=53 v=0
46320 On ch=2 n=51 v=89
46557 On ch=2 n=51 v=0
46560 On ch=2 n=51 v=89
46668 On ch=2 n=51 v=0
46680 On ch=2 n=53 v=90
46788 On ch=2 n=53 v=0
46800 On ch=2 n=51 v=90
46908 On ch=2 n=51 v=0
46920 On ch=2 n=50 v=90
47028 On ch=2 n=50 v=0
47040 On ch=2 n=48 v=90
47148 On ch=2 n=48 v=0
47160 On ch=2 n=46 v=90
47268 On ch=2 n=46 v=0
47280 On ch=2 n=44 v=90
47388 On ch=2 n=44 v=0
47400 On ch=2 n=43 v=90
47508 On ch=2 n=43 v=0
47520 On ch=2 n=41 v=90
47628 On ch=2 n=41 v=0
47640 On ch=2 n=39 v=95
47748 On ch=2 n=39 v=0
47760 On ch=2 n=41 v=89
47868 On ch=2 n=41 v=0
47880 On ch=2 n=43 v=82
47988 On ch=2 n=43 v=0
48000 On ch=2 n=36 v=85
48216 On ch=2 n=36 v=0
48240 On ch=2 n=48 v=85
48348 On ch=2 n=48 v=0
48360 On ch=2 n=47 v=87
48468 On ch=2 n=47 v=0
48480 On ch=2 n=48 v=88
48588 On ch=2 n=48 v=0
48600 On ch=2 n=50 v=90
48708 On ch=2 n=50 v=0
48720 On ch=2 n=51 v=91
48828 On ch=2 n=51 v=0
48840 On ch=2 n=43 v=93
48948 On ch=2 n=43 v=0
48960 On ch=2 n=44 v=94
49068 On ch=2 n=44 v=0
49080 On ch=2 n=46 v=96
49188 On ch=2 n=46 v=0
49200 On ch=2 n=44 v=85
49308 On ch=2 n=44 v=0
49320 On ch=2 n=41 v=85
49428 On ch=2 n=41 v=0
49440 On ch=2 n=53 v=85
49548 On ch=2 n=53 v=0
49560 On ch=2 n=51 v=85
49668 On ch=2 n=51 v=0
49680 On ch=2 n=50 v=85
49788 On ch=2 n=50 v=0
49800 On ch=2 n=48 v=85
49908 On ch=2 n=48 v=0
49920 On ch=2 n=47 v=85
50028 On ch=2 n=47 v=0
50040 On ch=2 n=56 v=85
50148 On ch=2 n=56 v=0
50160 On ch=2 n=55 v=85
50268 On ch=2 n=55 v=0
50280 On ch=2 n=53 v=85
50388 On ch=2 n=53 v=0
50400 On ch=2 n=51 v=85
50508 On ch=2 n=51 v=0
50520 On ch=2 n=50 v=85
50628 On ch=2 n=50 v=0
50640 On ch=2 n=48 v=85
50748 On ch=2 n=48 v=0
50760 On ch=2 n=47 v=85
50868 On ch=2 n=47 v=0
50880 On ch=2 n=48 v=85
50988 On ch=2 n=48 v=0
51000 On ch=2 n=43 v=85
51108 On ch=2 n=43 v=0
51120 On ch=2 n=44 v=83
51228 On ch=2 n=44 v=0
51240 On ch=2 n=41 v=83
51348 On ch=2 n=41 v=0
51360 On ch=2 n=43 v=80
51480 On ch=2 n=43 v=0
51600 On ch=2 n=43 v=72
51816 On ch=2 n=43 v=0
51840 On ch=2 n=48 v=85
51840 On ch=2 n=36 v=85
53740 On ch=2 n=36 v=0
53740 On ch=2 n=48 v=0
53740 Meta TrkEnd
TrkEnd
MTrk
0 SeqSpec 43 00 01 00
660 Par ch=3 c=121 v=0
680 Meta Text "# Pitch Bend Sensitivity (0-2-24) #"
680 Par ch=3 c=101 v=0
685 Par ch=3 c=100 v=0
690 Par ch=3 c=6 v=2
695 Pb ch=3 v=8192
700 Par ch=3 c=0 v=0
705 Par ch=3 c=32 v=0
710 PrCh ch=3 p=0
715 Par ch=3 c=7 v=100
720 Par ch=3 c=11 v=127
725 Par ch=3 c=10 v=64
730 Par ch=3 c=91 v=30
735 Par ch=3 c=93 v=0
740 Par ch=3 c=1 v=0
740 Meta TrkEnd
TrkEnd
