MFile 1 7 480
MTrk
0 TimeSig 2/4 24 8
0 KeySig -1 major
0 Tempo 566037
0 Meta InstrName "\xffffff83C\xffffff83^\xffffff83\xffffff8a\xffffff83A\xffffff91g\xffffff8b\xffffffc8"
480 Tempo 600000
960 Tempo 582524
1440 Tempo 638297
1920 Tempo 618556
2400 Tempo 566037
2880 Tempo 779220
3360 Tempo 731707
3840 Tempo 588235
4320 Tempo 545454
4800 Tempo 618556
5280 Tempo 618556
5760 Tempo 618556
6240 Tempo 582524
6720 Tempo 740740
7200 Tempo 638297
7680 Tempo 566037
8160 Tempo 566037
8640 Tempo 535714
9120 Tempo 566037
9600 Tempo 571428
10080 Tempo 571428
10560 Tempo 512820
11040 Tempo 571428
11520 Tempo 500000
12000 Tempo 576923
12480 Tempo 588235
12960 Tempo 582524
13440 Tempo 545454
13920 Tempo 560747
14400 Tempo 555555
14880 Tempo 582524
15360 Tempo 535714
15840 Tempo 594059
16320 Tempo 512820
16800 Tempo 517241
17280 Tempo 618556
17760 Tempo 535714
18240 Tempo 571428
18720 Tempo 540540
19200 Tempo 560747
19680 Tempo 545454
20160 Tempo 512820
20640 Tempo 582524
21120 Tempo 576923
21600 Tempo 517241
22080 Tempo 571428
22560 Tempo 550458
23040 Tempo 512820
23520 Tempo 560747
24000 Tempo 545454
24480 Tempo 588235
24960 Tempo 789473
25440 Tempo 750000
25920 Tempo 697674
26400 Tempo 697674
26880 Tempo 612244
27360 Tempo 638297
27840 Tempo 606060
28320 Tempo 594059
28800 Tempo 618556
29280 Tempo 600000
29760 Tempo 566037
30240 Tempo 566037
30720 Tempo 555555
31200 Tempo 594059
31680 Tempo 566037
32160 Tempo 594059
32640 Tempo 582524
33120 Tempo 555555
33600 Tempo 550458
34080 Tempo 550458
34560 Tempo 540540
35040 Tempo 540540
35520 Tempo 545454
36000 Tempo 555555
36480 Tempo 566037
36960 Tempo 571428
37440 Tempo 594059
37920 Tempo 582524
38400 Tempo 555555
38880 Tempo 600000
39360 Tempo 540540
39840 Tempo 582524
40320 Tempo 540540
40800 Tempo 588235
41280 Tempo 555555
41760 Tempo 530973
42240 Tempo 582524
42720 Tempo 571428
43200 Tempo 600000
43680 Tempo 600000
44160 Tempo 560747
44640 Tempo 571428
45120 Tempo 555555
45600 Tempo 550458
46080 Tempo 582524
46560 Tempo 576923
47040 Tempo 571428
47520 Tempo 588235
48000 Tempo 555555
48480 Tempo 582524
48960 Tempo 545454
49440 Tempo 600000
49920 Tempo 512820
50400 Tempo 612244
50880 Tempo 652173
51360 Tempo 652173
51840 Tempo 674157
52320 Tempo 576923
52800 Tempo 588235
53280 Tempo 560747
53760 Tempo 508474
54240 Tempo 612244
54720 Tempo 594059
55200 Tempo 600000
55680 Tempo 612244
56160 Tempo 588235
56640 Tempo 600000
57120 Tempo 618556
57600 Tempo 625000
58080 Tempo 582524
58560 Tempo 530973
59040 Tempo 540540
59520 Tempo 560747
60000 Tempo 526315
60480 Tempo 540540
60960 Tempo 555555
61440 Tempo 566037
61920 Tempo 612244
62400 Tempo 582524
62880 Tempo 582524
63360 Tempo 550458
63840 Tempo 600000
64320 Tempo 571428
64800 Tempo 566037
65280 Tempo 571428
65760 Tempo 625000
66240 Tempo 588235
66720 Tempo 555555
67200 Tempo 588235
67680 Tempo 606060
68160 Tempo 582524
68640 Tempo 571428
69120 Tempo 645161
69600 Tempo 560747
70080 Tempo 582524
70560 Tempo 618556
71040 Tempo 588235
71520 Tempo 600000
72000 Tempo 566037
72480 Tempo 612244
72960 Tempo 540540
73440 Tempo 606060
73920 Tempo 588235
74400 Tempo 582524
74880 Tempo 588235
75360 Tempo 571428
75840 Tempo 560747
76320 Tempo 560747
76800 Tempo 550458
77280 Tempo 545454
77760 Tempo 582524
78240 Tempo 588235
78720 Tempo 540540
79200 Tempo 588235
79680 Tempo 566037
80160 Tempo 555555
80640 Tempo 560747
81120 Tempo 582524
81600 Tempo 535714
82080 Tempo 618556
82560 Tempo 750000
83040 Tempo 750000
83520 Tempo 821917
84000 Tempo 571428
84480 Tempo 560747
84960 Tempo 714285
85440 Tempo 697674
85920 Tempo 582524
86400 Tempo 625000
86880 Tempo 645161
87360 Tempo 526315
87840 Tempo 582524
88320 Tempo 625000
88800 Tempo 566037
89280 Tempo 540540
89760 Tempo 582524
90240 Tempo 645161
90720 Tempo 555555
91200 Tempo 550458
91680 Tempo 582524
92160 Tempo 560747
92640 Tempo 545454
93120 Tempo 555555
93600 Tempo 594059
94080 Tempo 600000
94560 Tempo 560747
95040 Tempo 535714
95520 Tempo 540540
96000 Tempo 550458
96480 Tempo 576923
96960 Tempo 612244
97440 Tempo 625000
97920 Tempo 594059
98400 Tempo 600000
98880 Tempo 638297
99360 Tempo 631578
99840 Tempo 674157
100320 Tempo 540540
100800 Tempo 576923
101280 Tempo 600000
101760 Tempo 594059
102240 Tempo 625000
102720 Tempo 625000
103200 Tempo 606060
103680 Tempo 631578
104160 Tempo 600000
104640 Tempo 625000
105120 Tempo 555555
105600 Tempo 576923
106080 Tempo 582524
106560 Tempo 550458
107040 Tempo 582524
107520 Tempo 566037
108000 Tempo 550458
108480 Tempo 560747
108960 Tempo 512820
109440 Tempo 560747
109920 Tempo 600000
110400 Tempo 576923
110880 Tempo 582524
111360 Tempo 571428
111840 Tempo 545454
112320 Tempo 555555
112800 Tempo 530973
113280 Tempo 582524
113760 Tempo 625000
114240 Tempo 594059
114720 Tempo 638297
115200 Tempo 625000
115680 Tempo 566037
116160 Tempo 625000
116640 Tempo 600000
117120 Tempo 588235
117600 Tempo 550458
118080 Tempo 582524
118560 Tempo 576923
119040 Tempo 576923
119520 Tempo 600000
120000 Tempo 618556
120480 Tempo 594059
120960 Tempo 594059
121440 Tempo 582524
121920 Tempo 526315
122400 Tempo 594059
122880 Tempo 600000
123360 Tempo 618556
123840 Tempo 588235
124320 Tempo 600000
124800 Tempo 659340
125280 Tempo 594059
125760 Tempo 545454
126240 Tempo 571428
126720 Tempo 594059
127200 Tempo 638297
127680 Tempo 612244
128160 Tempo 560747
128640 Tempo 437956
129120 Tempo 606060
129600 Tempo 480000
130080 Tempo 600000
130560 Tempo 495867
131040 Tempo 588235
131520 Tempo 588235
132000 Tempo 594059
132480 Tempo 582524
132960 Tempo 545454
133440 Tempo 638297
133920 Tempo 612244
134400 Tempo 606060
134880 Tempo 576923
135360 Tempo 566037
135840 Tempo 582524
136320 Tempo 594059
136800 Tempo 600000
137280 Tempo 582524
137760 Tempo 612244
138240 Tempo 618556
138720 Tempo 582524
139200 Tempo 535714
139680 Tempo 576923
140160 Tempo 659340
140640 Tempo 625000
141120 Tempo 555555
141600 Tempo 588235
142080 Tempo 571428
142560 Tempo 588235
143040 Tempo 545454
143520 Tempo 530973
144000 Tempo 576923
144480 Tempo 638297
144960 Tempo 535714
145440 Tempo 588235
145920 Tempo 535714
146400 Tempo 625000
146880 Tempo 555555
147360 Tempo 600000
147840 Tempo 526315
148320 Tempo 606060
148800 Tempo 560747
149280 Tempo 638297
149760 Tempo 582524
150240 Tempo 588235
150720 Tempo 600000
151200 Tempo 612244
151680 Tempo 618556
152160 Tempo 594059
152640 Tempo 576923
153120 Tempo 571428
153600 Tempo 600000
154080 Tempo 618556
154560 Tempo 652173
155040 Tempo 750000
155280 Tempo 750000
155520 Tempo 606060
156000 Tempo 618556
156480 Tempo 618556
156960 Tempo 638297
157440 Tempo 618556
157920 Tempo 566037
158400 Tempo 779220
158880 Tempo 731707
159360 Tempo 588235
159840 Tempo 545454
160320 Tempo 618556
160800 Tempo 618556
161280 Tempo 618556
161760 Tempo 582524
162240 Tempo 740740
162720 Tempo 638297
163200 Tempo 566037
163680 Tempo 566037
164160 Tempo 535714
164640 Tempo 566037
165120 Tempo 571428
165600 Tempo 571428
166080 Tempo 512820
166560 Tempo 571428
167040 Tempo 500000
167520 Tempo 576923
168000 Tempo 588235
168480 Tempo 582524
168960 Tempo 545454
169440 Tempo 560747
169920 Tempo 555555
170400 Tempo 582524
170880 Tempo 535714
171360 Tempo 594059
171840 Tempo 512820
172320 Tempo 517241
172800 Tempo 618556
173280 Tempo 535714
173760 Tempo 571428
174240 Tempo 540540
174720 Tempo 560747
175200 Tempo 545454
175680 Tempo 512820
176160 Tempo 582524
176640 Tempo 576923
177120 Tempo 566037
177600 Tempo 571428
178080 Tempo 550458
178560 Tempo 560747
179040 Tempo 560747
179520 Tempo 576923
179760 Tempo 618556
180000 Tempo 652173
180480 Tempo 789473
180960 Tempo 750000
181440 Tempo 697674
181920 Tempo 697674
182400 Tempo 740740
182880 Tempo 810810
183120 Tempo 1000000
183360 Tempo 759493
183840 Tempo 845070
183840 Meta TrkEnd
TrkEnd
MTrk
0 SeqSpec 43 00 01 00
0 Meta TrkName "Piano Right Hand"
0 Meta 0x21 00
0 PrCh ch=1 p=0
0 Par ch=1 c=7 v=125
0 Par ch=1 c=10 v=64
0 Par ch=1 c=64 v=0
0 Par ch=1 c=91 v=90
0 Par ch=1 c=93 v=0
0 Pb ch=1 v=8192
38 Par ch=1 c=64 v=127
239 On ch=1 n=77 v=110
304 On ch=1 n=77 v=0
458 Par ch=1 c=64 v=0
481 On ch=1 n=69 v=102
485 On ch=1 n=65 v=96
523 On ch=1 n=65 v=0
523 On ch=1 n=69 v=0
714 On ch=1 n=67 v=90
718 On ch=1 n=70 v=106
745 On ch=1 n=67 v=0
765 On ch=1 n=70 v=0
966 On ch=1 n=72 v=98
968 On ch=1 n=69 v=89
1451 On ch=1 n=74 v=97
1453 On ch=1 n=70 v=102
1486 On ch=1 n=69 v=0
1491 On ch=1 n=72 v=0
1711 On ch=1 n=70 v=0
1714 Par ch=1 c=64 v=127
1893 On ch=1 n=72 v=100
1895 On ch=1 n=69 v=90
1905 On ch=1 n=65 v=74
1907 On ch=1 n=74 v=0
1970 On ch=1 n=69 v=0
2002 On ch=1 n=72 v=0
2036 Par ch=1 c=64 v=0
2145 On ch=1 n=77 v=116
2365 On ch=1 n=70 v=109
2438 Par ch=1 c=64 v=127
2457 On ch=1 n=77 v=0
2590 On ch=1 n=70 v=0
2596 On ch=1 n=75 v=108
2666 On ch=1 n=75 v=0
2726 On ch=1 n=74 v=110
2797 On ch=1 n=74 v=0
2880 On ch=1 n=74 v=109
2886 On ch=1 n=70 v=110
2912 Par ch=1 c=64 v=0
3108 On ch=1 n=70 v=0
3130 On ch=1 n=72 v=92
3138 On ch=1 n=69 v=76
3178 On ch=1 n=74 v=0
3399 Par ch=1 c=64 v=127
3435 On ch=1 n=69 v=0
3450 On ch=1 n=72 v=0
3473 On ch=1 n=65 v=0
3473 Par ch=1 c=64 v=0
4074 On ch=1 n=84 v=107
4079 Par ch=1 c=64 v=127
4133 On ch=1 n=84 v=0
4308 On ch=1 n=76 v=101
4309 On ch=1 n=72 v=91
4332 Par ch=1 c=64 v=0
4336 On ch=1 n=76 v=0
4343 On ch=1 n=72 v=0
4556 On ch=1 n=77 v=100
4558 On ch=1 n=74 v=95
4591 On ch=1 n=74 v=0
4608 On ch=1 n=77 v=0
4829 On ch=1 n=79 v=102
4830 On ch=1 n=76 v=98
5284 On ch=1 n=81 v=95
5289 On ch=1 n=77 v=91
5326 On ch=1 n=76 v=0
5334 On ch=1 n=79 v=0
5553 On ch=1 n=77 v=0
5626 Par ch=1 c=64 v=127
5748 On ch=1 n=79 v=101
5750 On ch=1 n=76 v=102
5755 On ch=1 n=72 v=89
5777 On ch=1 n=81 v=0
5812 On ch=1 n=76 v=0
5847 On ch=1 n=79 v=0
5904 Par ch=1 c=64 v=0
6001 On ch=1 n=84 v=113
6231 On ch=1 n=77 v=98
6348 On ch=1 n=84 v=0
6403 Par ch=1 c=64 v=127
6455 On ch=1 n=82 v=109
6462 On ch=1 n=77 v=0
6518 On ch=1 n=82 v=0
6527 On ch=1 n=72 v=0
6562 On ch=1 n=81 v=107
6638 On ch=1 n=81 v=0
6742 On ch=1 n=81 v=107
6745 On ch=1 n=77 v=96
6749 On ch=1 n=72 v=90
6780 Par ch=1 c=64 v=0
6980 On ch=1 n=79 v=92
6983 On ch=1 n=76 v=92
7005 On ch=1 n=77 v=0
7053 On ch=1 n=81 v=0
7122 Par ch=1 c=64 v=127
7172 On ch=1 n=72 v=0
7176 On ch=1 n=79 v=0
7179 On ch=1 n=76 v=0
7267 Par ch=1 c=64 v=0
7345 On ch=1 n=72 v=79
7442 On ch=1 n=70 v=97
7529 On ch=1 n=72 v=0
7530 On ch=1 n=69 v=86
7542 On ch=1 n=70 v=0
7638 On ch=1 n=70 v=113
7641 On ch=1 n=69 v=0
7675 On ch=1 n=70 v=0
7892 On ch=1 n=79 v=105
8026 Par ch=1 c=64 v=127
8072 On ch=1 n=79 v=0
8256 On ch=1 n=70 v=100
8365 On ch=1 n=69 v=90
8382 Par ch=1 c=64 v=0
8486 On ch=1 n=67 v=90
8493 On ch=1 n=70 v=0
8528 On ch=1 n=69 v=0
8614 On ch=1 n=69 v=96
8629 On ch=1 n=67 v=0
8718 On ch=1 n=67 v=92
8799 On ch=1 n=69 v=0
8847 On ch=1 n=65 v=87
8867 On ch=1 n=67 v=0
8965 On ch=1 n=67 v=96
8986 On ch=1 n=65 v=0
9095 On ch=1 n=69 v=95
9153 On ch=1 n=67 v=0
9207 On ch=1 n=70 v=108
9270 On ch=1 n=69 v=0
9313 On ch=1 n=70 v=0
9319 On ch=1 n=72 v=103
9416 On ch=1 n=72 v=0
9425 On ch=1 n=74 v=110
9505 On ch=1 n=74 v=0
9554 On ch=1 n=75 v=122
9599 On ch=1 n=75 v=0
9806 On ch=1 n=84 v=111
9936 Par ch=1 c=64 v=127
9993 On ch=1 n=84 v=0
10190 On ch=1 n=75 v=111
10303 On ch=1 n=74 v=94
10397 On ch=1 n=72 v=100
10433 Par ch=1 c=64 v=0
10443 On ch=1 n=74 v=0
10445 On ch=1 n=75 v=0
10522 On ch=1 n=74 v=104
10534 On ch=1 n=72 v=0
10630 On ch=1 n=72 v=97
10633 On ch=1 n=74 v=0
10765 On ch=1 n=70 v=106
10777 On ch=1 n=72 v=0
10878 On ch=1 n=72 v=94
10882 On ch=1 n=70 v=0
11011 On ch=1 n=74 v=108
11025 On ch=1 n=72 v=0
11119 On ch=1 n=75 v=116
11172 On ch=1 n=74 v=0
11231 On ch=1 n=77 v=106
11234 On ch=1 n=75 v=0
11328 On ch=1 n=79 v=110
11336 On ch=1 n=77 v=0
11422 On ch=1 n=79 v=0
11462 On ch=1 n=80 v=114
11542 Par ch=1 c=64 v=127
11567 On ch=1 n=79 v=86
11582 On ch=1 n=80 v=0
11644 On ch=1 n=77 v=94
11672 On ch=1 n=79 v=0
11678 Par ch=1 c=64 v=0
11730 On ch=1 n=77 v=0
11736 On ch=1 n=79 v=98
11763 On ch=1 n=77 v=42
11814 On ch=1 n=77 v=0
11987 Par ch=1 c=64 v=127
12085 On ch=1 n=77 v=92
12139 Par ch=1 c=64 v=0
12160 On ch=1 n=76 v=104
12164 On ch=1 n=79 v=0
12181 On ch=1 n=77 v=0
12241 On ch=1 n=77 v=108
12242 On ch=1 n=76 v=0
12498 Par ch=1 c=64 v=127
12570 On ch=1 n=76 v=92
12626 On ch=1 n=77 v=0
12641 On ch=1 n=74 v=100
12655 On ch=1 n=76 v=0
12663 Par ch=1 c=64 v=0
12682 Par ch=1 c=64 v=1
12702 Par ch=1 c=64 v=0
12718 On ch=1 n=74 v=0
12719 On ch=1 n=76 v=111
13059 Par ch=1 c=64 v=127
13059 On ch=1 n=79 v=101
13066 On ch=1 n=76 v=0
13175 On ch=1 n=76 v=94
13222 On ch=1 n=79 v=0
13283 On ch=1 n=72 v=96
13321 On ch=1 n=76 v=0
13400 Par ch=1 c=64 v=0
13417 On ch=1 n=70 v=95
13439 On ch=1 n=72 v=0
13526 On ch=1 n=79 v=76
13528 On ch=1 n=70 v=0
13666 On ch=1 n=76 v=74
13710 On ch=1 n=79 v=0
13772 On ch=1 n=72 v=79
13804 On ch=1 n=76 v=0
13886 On ch=1 n=72 v=0
13896 On ch=1 n=70 v=86
13990 On ch=1 n=70 v=0
14019 On ch=1 n=79 v=72
14166 On ch=1 n=76 v=76
14172 On ch=1 n=79 v=0
14294 On ch=1 n=72 v=63
14350 On ch=1 n=76 v=0
14408 On ch=1 n=70 v=84
14414 On ch=1 n=72 v=0
14491 On ch=1 n=70 v=0
14513 On ch=1 n=79 v=78
14647 On ch=1 n=76 v=68
14690 On ch=1 n=79 v=0
14758 On ch=1 n=72 v=71
14801 On ch=1 n=76 v=0
14882 On ch=1 n=70 v=92
14888 On ch=1 n=72 v=0
14954 Par ch=1 c=64 v=127
14976 On ch=1 n=70 v=0
14987 On ch=1 n=79 v=81
15117 On ch=1 n=76 v=73
15210 On ch=1 n=79 v=0
15216 On ch=1 n=72 v=83
15282 On ch=1 n=76 v=0
15341 On ch=1 n=69 v=75
15357 On ch=1 n=72 v=0
15364 Par ch=1 c=64 v=0
15420 On ch=1 n=69 v=0
15448 On ch=1 n=81 v=92
15580 On ch=1 n=77 v=82
15641 On ch=1 n=81 v=0
15700 On ch=1 n=73 v=98
15747 On ch=1 n=77 v=0
15806 On ch=1 n=73 v=0
15826 On ch=1 n=72 v=76
15916 On ch=1 n=72 v=0
15919 On ch=1 n=81 v=82
16048 On ch=1 n=77 v=78
16086 On ch=1 n=81 v=0
16153 On ch=1 n=73 v=96
16183 On ch=1 n=77 v=0
16238 On ch=1 n=73 v=0
16281 On ch=1 n=72 v=65
16371 On ch=1 n=81 v=80
16374 On ch=1 n=72 v=0
16510 On ch=1 n=77 v=78
16594 On ch=1 n=81 v=0
16635 On ch=1 n=73 v=96
16741 On ch=1 n=77 v=0
16751 On ch=1 n=73 v=0
16794 On ch=1 n=72 v=78
16880 Par ch=1 c=64 v=127
16904 On ch=1 n=72 v=0
16913 On ch=1 n=81 v=82
17057 On ch=1 n=77 v=72
17078 On ch=1 n=81 v=0
17193 On ch=1 n=75 v=93
17239 On ch=1 n=77 v=0
17299 On ch=1 n=75 v=0
17302 Par ch=1 c=64 v=0
17317 On ch=1 n=74 v=80
17403 On ch=1 n=74 v=0
17418 On ch=1 n=83 v=76
17510 On ch=1 n=83 v=0
17527 On ch=1 n=80 v=93
17623 On ch=1 n=77 v=88
17676 On ch=1 n=80 v=0
17720 On ch=1 n=77 v=0
17745 On ch=1 n=74 v=77
17820 On ch=1 n=74 v=0
17848 On ch=1 n=83 v=86
17958 On ch=1 n=83 v=0
17976 On ch=1 n=80 v=95
18083 On ch=1 n=77 v=88
18148 On ch=1 n=80 v=0
18209 On ch=1 n=77 v=0
18221 On ch=1 n=74 v=85
18315 On ch=1 n=74 v=0
18321 On ch=1 n=83 v=89
18434 On ch=1 n=83 v=0
18454 On ch=1 n=80 v=97
18565 On ch=1 n=77 v=91
18629 On ch=1 n=80 v=0
18668 On ch=1 n=77 v=0
18694 On ch=1 n=74 v=91
18799 On ch=1 n=83 v=94
18808 On ch=1 n=74 v=0
18936 On ch=1 n=80 v=104
18964 On ch=1 n=83 v=0
19048 On ch=1 n=77 v=96
19116 On ch=1 n=80 v=0
19143 On ch=1 n=77 v=0
19182 On ch=1 n=76 v=95
19270 Par ch=1 c=64 v=127
19275 On ch=1 n=76 v=0
19298 On ch=1 n=84 v=101
19397 On ch=1 n=84 v=0
19420 On ch=1 n=79 v=92
19476 Par ch=1 c=64 v=0
19526 On ch=1 n=76 v=93
19570 On ch=1 n=79 v=0
19613 On ch=1 n=76 v=0
19644 On ch=1 n=72 v=86
19716 On ch=1 n=72 v=0
19757 On ch=1 n=76 v=85
19832 On ch=1 n=76 v=0
19886 On ch=1 n=74 v=93
19960 On ch=1 n=74 v=0
19996 On ch=1 n=77 v=86
20084 On ch=1 n=77 v=0
20123 On ch=1 n=76 v=96
20206 On ch=1 n=76 v=0
20246 Par ch=1 c=64 v=127
20248 On ch=1 n=79 v=87
20375 On ch=1 n=76 v=90
20399 On ch=1 n=79 v=0
20503 Par ch=1 c=64 v=0
20507 On ch=1 n=72 v=93
20551 On ch=1 n=76 v=0
20601 On ch=1 n=72 v=0
20643 On ch=1 n=67 v=83
20725 On ch=1 n=67 v=0
20758 On ch=1 n=70 v=85
20815 On ch=1 n=70 v=0
20882 On ch=1 n=69 v=80
20973 On ch=1 n=72 v=78
20980 On ch=1 n=69 v=0
21058 On ch=1 n=72 v=0
21099 On ch=1 n=70 v=106
21179 Par ch=1 c=64 v=127
21191 On ch=1 n=70 v=0
21212 On ch=1 n=74 v=91
21329 On ch=1 n=70 v=100
21364 On ch=1 n=74 v=0
21430 On ch=1 n=67 v=87
21440 Par ch=1 c=64 v=0
21483 On ch=1 n=70 v=0
21516 On ch=1 n=67 v=0
21555 On ch=1 n=64 v=83
21652 On ch=1 n=64 v=0
21666 On ch=1 n=67 v=81
21768 On ch=1 n=67 v=0
21815 On ch=1 n=65 v=90
21920 On ch=1 n=69 v=75
21946 On ch=1 n=65 v=0
22070 On ch=1 n=67 v=90
22071 On ch=1 n=69 v=0
22178 Par ch=1 c=64 v=127
22180 On ch=1 n=70 v=103
22209 On ch=1 n=67 v=0
22298 On ch=1 n=67 v=76
22340 On ch=1 n=70 v=0
22351 Par ch=1 c=64 v=0
22430 On ch=1 n=64 v=85
22542 On ch=1 n=67 v=0
22552 On ch=1 n=60 v=98
22600 On ch=1 n=64 v=0
22648 On ch=1 n=60 v=0
22666 On ch=1 n=70 v=98
22748 On ch=1 n=70 v=0
22786 On ch=1 n=69 v=78
22901 On ch=1 n=67 v=81
22929 On ch=1 n=69 v=0
22977 On ch=1 n=67 v=0
23023 On ch=1 n=69 v=105
23138 On ch=1 n=65 v=95
23150 On ch=1 n=69 v=0
23242 On ch=1 n=65 v=0
23272 On ch=1 n=67 v=86
23399 On ch=1 n=69 v=83
23430 On ch=1 n=67 v=0
23536 On ch=1 n=70 v=104
23583 On ch=1 n=69 v=0
23630 On ch=1 n=70 v=0
23649 On ch=1 n=72 v=96
23743 On ch=1 n=72 v=0
23765 On ch=1 n=74 v=94
23877 On ch=1 n=76 v=95
23910 On ch=1 n=74 v=0
23970 On ch=1 n=76 v=0
24012 On ch=1 n=77 v=99
24118 On ch=1 n=76 v=104
24170 On ch=1 n=77 v=0
24228 On ch=1 n=74 v=100
24307 On ch=1 n=76 v=0
24347 On ch=1 n=72 v=97
24373 On ch=1 n=74 v=0
24461 On ch=1 n=84 v=112
24490 On ch=1 n=72 v=0
24518 On ch=1 n=84 v=0
24677 On ch=1 n=69 v=104
24679 On ch=1 n=72 v=104
24679 On ch=1 n=77 v=109
24742 On ch=1 n=69 v=0
24747 On ch=1 n=72 v=0
24782 On ch=1 n=77 v=0
24951 On ch=1 n=77 v=121
24952 On ch=1 n=69 v=114
24955 On ch=1 n=72 v=111
25115 Par ch=1 c=64 v=127
25269 On ch=1 n=72 v=0
25275 On ch=1 n=69 v=0
25428 On ch=1 n=76 v=101
25430 On ch=1 n=67 v=105
25435 On ch=1 n=72 v=100
25472 Par ch=1 c=64 v=0
25592 On ch=1 n=77 v=0
25638 Par ch=1 c=64 v=127
25790 On ch=1 n=67 v=0
25915 On ch=1 n=65 v=106
25925 On ch=1 n=72 v=0
25940 On ch=1 n=76 v=0
25966 Par ch=1 c=64 v=0
26031 On ch=1 n=77 v=110
26260 On ch=1 n=71 v=111
26361 Par ch=1 c=64 v=127
26499 On ch=1 n=65 v=0
26530 On ch=1 n=74 v=97
26565 On ch=1 n=71 v=0
26653 On ch=1 n=72 v=105
26695 On ch=1 n=77 v=0
26696 Par ch=1 c=64 v=0
26753 On ch=1 n=70 v=115
26782 On ch=1 n=74 v=0
26831 On ch=1 n=72 v=0
26871 On ch=1 n=69 v=99
26901 On ch=1 n=70 v=0
26987 On ch=1 n=72 v=99
27020 On ch=1 n=69 v=0
27096 On ch=1 n=77 v=103
27108 On ch=1 n=72 v=0
27212 On ch=1 n=69 v=109
27307 On ch=1 n=69 v=0
27327 On ch=1 n=77 v=0
27337 On ch=1 n=67 v=103
27413 On ch=1 n=67 v=0
27559 On ch=1 n=70 v=114
27561 On ch=1 n=76 v=105
27571 On ch=1 n=72 v=76
27614 On ch=1 n=72 v=0
27622 On ch=1 n=70 v=0
27631 On ch=1 n=76 v=0
27815 On ch=1 n=69 v=107
27815 On ch=1 n=72 v=97
27817 On ch=1 n=77 v=116
27817 On ch=1 n=65 v=117
27851 Par ch=1 c=64 v=127
27885 On ch=1 n=69 v=0
27887 On ch=1 n=65 v=0
27897 On ch=1 n=72 v=0
27930 On ch=1 n=77 v=0
28124 Par ch=1 c=64 v=0
28535 On ch=1 n=72 v=82
28577 On ch=1 n=72 v=0
28790 On ch=1 n=74 v=76
28866 On ch=1 n=74 v=0
28884 On ch=1 n=72 v=75
28949 On ch=1 n=72 v=0
29011 On ch=1 n=74 v=71
29319 On ch=1 n=74 v=0
29362 On ch=1 n=77 v=60
29480 On ch=1 n=75 v=94
29527 On ch=1 n=77 v=0
29577 On ch=1 n=74 v=84
29594 On ch=1 n=75 v=0
29659 On ch=1 n=74 v=0
29692 On ch=1 n=72 v=78
29767 On ch=1 n=72 v=0
29812 On ch=1 n=76 v=80
29876 On ch=1 n=76 v=0
29955 On ch=1 n=77 v=84
30320 On ch=1 n=76 v=59
30395 On ch=1 n=77 v=0
30427 On ch=1 n=74 v=72
30460 On ch=1 n=76 v=0
30529 On ch=1 n=74 v=0
30537 On ch=1 n=72 v=74
30626 On ch=1 n=72 v=0
30672 On ch=1 n=70 v=90
30750 On ch=1 n=70 v=0
30782 On ch=1 n=69 v=70
30877 On ch=1 n=69 v=0
30903 On ch=1 n=70 v=88
30981 On ch=1 n=70 v=0
31033 On ch=1 n=74 v=92
31107 On ch=1 n=74 v=0
31157 On ch=1 n=79 v=88
31235 On ch=1 n=79 v=0
31392 Par ch=1 c=64 v=127
31424 On ch=1 n=70 v=90
31472 On ch=1 n=70 v=0
31586 Par ch=1 c=64 v=0
31635 On ch=1 n=70 v=78
31698 On ch=1 n=70 v=0
31701 On ch=1 n=72 v=75
31780 On ch=1 n=70 v=89
31792 On ch=1 n=72 v=0
31855 On ch=1 n=69 v=82
31880 On ch=1 n=70 v=0
32139 On ch=1 n=69 v=0
32361 On ch=1 n=69 v=81
32367 On ch=1 n=65 v=59
32410 On ch=1 n=69 v=0
32411 On ch=1 n=65 v=0
32591 On ch=1 n=67 v=78
32672 On ch=1 n=67 v=0
32706 On ch=1 n=70 v=92
32744 On ch=1 n=70 v=0
32832 On ch=1 n=70 v=102
32904 On ch=1 n=70 v=0
32918 On ch=1 n=69 v=78
32971 On ch=1 n=69 v=0
33060 On ch=1 n=69 v=74
33114 On ch=1 n=69 v=0
33169 On ch=1 n=77 v=94
33217 On ch=1 n=77 v=0
33301 On ch=1 n=77 v=90
33383 On ch=1 n=77 v=0
33418 On ch=1 n=76 v=83
33461 On ch=1 n=76 v=0
33563 On ch=1 n=76 v=95
33649 On ch=1 n=76 v=0
33683 On ch=1 n=74 v=87
33729 On ch=1 n=74 v=0
33814 On ch=1 n=74 v=92
33893 On ch=1 n=74 v=0
33929 On ch=1 n=72 v=85
33987 On ch=1 n=72 v=0
34065 On ch=1 n=72 v=92
34141 On ch=1 n=72 v=0
34179 On ch=1 n=70 v=90
34208 On ch=1 n=70 v=0
34297 On ch=1 n=70 v=102
34398 On ch=1 n=70 v=0
34418 On ch=1 n=69 v=74
34466 On ch=1 n=69 v=0
34540 On ch=1 n=67 v=80
34610 On ch=1 n=70 v=100
34645 On ch=1 n=67 v=0
34670 On ch=1 n=70 v=0
34763 On ch=1 n=72 v=94
34828 On ch=1 n=70 v=101
34851 On ch=1 n=72 v=0
34876 On ch=1 n=69 v=85
34907 On ch=1 n=70 v=0
34934 On ch=1 n=69 v=0
34992 On ch=1 n=69 v=94
35072 On ch=1 n=69 v=0
35128 On ch=1 n=77 v=91
35196 On ch=1 n=77 v=0
35243 On ch=1 n=79 v=92
35314 On ch=1 n=77 v=93
35363 On ch=1 n=79 v=0
35397 On ch=1 n=76 v=90
35416 On ch=1 n=77 v=0
35472 On ch=1 n=76 v=0
35486 On ch=1 n=77 v=89
35558 On ch=1 n=76 v=89
35603 On ch=1 n=77 v=0
35631 On ch=1 n=74 v=89
35641 On ch=1 n=76 v=0
35692 On ch=1 n=74 v=0
35701 On ch=1 n=76 v=92
35765 On ch=1 n=74 v=91
35808 On ch=1 n=76 v=0
35840 On ch=1 n=72 v=79
35844 On ch=1 n=74 v=0
35899 On ch=1 n=72 v=0
35923 On ch=1 n=74 v=84
36000 On ch=1 n=72 v=86
36031 On ch=1 n=74 v=0
36085 On ch=1 n=70 v=98
36095 On ch=1 n=72 v=0
36156 On ch=1 n=70 v=0
36158 On ch=1 n=72 v=84
36249 On ch=1 n=70 v=102
36272 On ch=1 n=72 v=0
36320 On ch=1 n=69 v=77
36329 On ch=1 n=70 v=0
36395 On ch=1 n=69 v=0
36411 On ch=1 n=70 v=89
36486 On ch=1 n=69 v=75
36529 On ch=1 n=70 v=0
36570 On ch=1 n=67 v=80
36577 On ch=1 n=69 v=0
36655 On ch=1 n=67 v=0
36678 On ch=1 n=69 v=71
37069 On ch=1 n=72 v=72
37074 On ch=1 n=69 v=0
37181 On ch=1 n=70 v=94
37239 On ch=1 n=72 v=0
37294 On ch=1 n=69 v=71
37336 On ch=1 n=70 v=0
37404 On ch=1 n=67 v=82
37412 On ch=1 n=69 v=0
37504 On ch=1 n=67 v=0
37518 On ch=1 n=71 v=82
37600 On ch=1 n=71 v=0
37654 On ch=1 n=72 v=83
38016 On ch=1 n=71 v=65
38031 Par ch=1 c=64 v=127
38107 On ch=1 n=72 v=0
38131 On ch=1 n=69 v=73
38180 On ch=1 n=71 v=0
38249 On ch=1 n=69 v=0
38249 On ch=1 n=67 v=74
38270 Par ch=1 c=64 v=0
38326 On ch=1 n=67 v=0
38364 On ch=1 n=65 v=85
38451 On ch=1 n=65 v=0
38465 On ch=1 n=64 v=79
38568 On ch=1 n=64 v=0
38595 On ch=1 n=65 v=81
38707 On ch=1 n=65 v=0
38709 On ch=1 n=69 v=80
38799 On ch=1 n=69 v=0
38845 On ch=1 n=74 v=81
39097 On ch=1 n=65 v=76
39113 On ch=1 n=74 v=0
39137 On ch=1 n=65 v=0
39238 Par ch=1 c=64 v=127
39327 On ch=1 n=65 v=62
39373 On ch=1 n=65 v=0
39381 On ch=1 n=67 v=73
39439 Par ch=1 c=64 v=0
39461 On ch=1 n=65 v=68
39481 On ch=1 n=67 v=0
39545 On ch=1 n=65 v=0
39568 On ch=1 n=64 v=82
39813 On ch=1 n=64 v=0
39912 On ch=1 n=72 v=77
40021 On ch=1 n=72 v=0
40026 On ch=1 n=74 v=65
40140 On ch=1 n=76 v=74
40150 On ch=1 n=74 v=0
40239 On ch=1 n=76 v=0
40271 On ch=1 n=69 v=76
40275 Par ch=1 c=64 v=127
40352 On ch=1 n=69 v=0
40385 On ch=1 n=64 v=79
40423 Par ch=1 c=64 v=0
40490 On ch=1 n=64 v=0
40519 On ch=1 n=65 v=86
40635 On ch=1 n=69 v=82
40641 On ch=1 n=65 v=0
40735 On ch=1 n=69 v=0
40784 On ch=1 n=74 v=76
40841 On ch=1 n=74 v=0
40899 On ch=1 n=74 v=86
41012 On ch=1 n=76 v=73
41030 On ch=1 n=74 v=0
41037 Par ch=1 c=64 v=127
41113 On ch=1 n=77 v=78
41127 On ch=1 n=76 v=0
41219 On ch=1 n=77 v=0
41238 On ch=1 n=71 v=78
41359 On ch=1 n=71 v=0
41370 On ch=1 n=66 v=101
41373 Par ch=1 c=64 v=0
41435 On ch=1 n=66 v=0
41467 On ch=1 n=67 v=78
41532 Par ch=1 c=64 v=127
41572 On ch=1 n=67 v=0
41573 On ch=1 n=71 v=91
41608 Par ch=1 c=64 v=0
41642 On ch=1 n=71 v=0
41719 On ch=1 n=76 v=96
41785 On ch=1 n=76 v=0
41847 On ch=1 n=76 v=83
41951 Par ch=1 c=64 v=127
41967 On ch=1 n=77 v=86
42021 On ch=1 n=76 v=0
42062 Par ch=1 c=64 v=0
42101 On ch=1 n=79 v=89
42127 On ch=1 n=77 v=0
42229 On ch=1 n=79 v=0
42238 On ch=1 n=72 v=95
42245 Par ch=1 c=64 v=127
42330 On ch=1 n=72 v=0
42358 On ch=1 n=68 v=104
42419 On ch=1 n=68 v=0
42431 Par ch=1 c=64 v=0
42472 On ch=1 n=69 v=95
42554 On ch=1 n=69 v=0
42577 On ch=1 n=72 v=103
42630 On ch=1 n=72 v=0
42705 On ch=1 n=78 v=111
42751 On ch=1 n=78 v=0
42810 On ch=1 n=78 v=112
42918 On ch=1 n=79 v=99
42974 On ch=1 n=78 v=0
43040 On ch=1 n=81 v=107
43091 On ch=1 n=79 v=0
43182 On ch=1 n=79 v=95
43230 On ch=1 n=81 v=0
43298 On ch=1 n=78 v=108
43332 On ch=1 n=79 v=0
43366 On ch=1 n=78 v=0
43412 On ch=1 n=79 v=94
43755 On ch=1 n=67 v=86
43886 On ch=1 n=67 v=0
43888 On ch=1 n=71 v=95
43912 On ch=1 n=79 v=0
43983 On ch=1 n=74 v=96
43990 On ch=1 n=71 v=0
44047 On ch=1 n=74 v=0
44112 On ch=1 n=77 v=109
44217 On ch=1 n=76 v=90
44255 On ch=1 n=77 v=0
44357 On ch=1 n=77 v=110
44367 On ch=1 n=76 v=0
44721 On ch=1 n=67 v=92
44856 On ch=1 n=71 v=95
44863 Par ch=1 c=64 v=127
44864 On ch=1 n=67 v=0
44931 On ch=1 n=77 v=0
44958 On ch=1 n=74 v=91
44979 On ch=1 n=71 v=0
45027 On ch=1 n=74 v=0
45087 Par ch=1 c=64 v=0
45088 On ch=1 n=76 v=108
45198 On ch=1 n=74 v=103
45228 On ch=1 n=76 v=0
45336 On ch=1 n=76 v=101
45370 On ch=1 n=74 v=0
45569 On ch=1 n=60 v=99
45648 On ch=1 n=60 v=0
45695 On ch=1 n=67 v=95
45820 On ch=1 n=67 v=0
45825 On ch=1 n=72 v=92
45884 On ch=1 n=76 v=0
45935 On ch=1 n=74 v=94
45975 On ch=1 n=72 v=0
46078 On ch=1 n=75 v=106
46140 On ch=1 n=74 v=0
46189 On ch=1 n=72 v=91
46209 On ch=1 n=74 v=39
46253 On ch=1 n=74 v=0
46258 On ch=1 n=75 v=0
46288 On ch=1 n=72 v=0
46292 On ch=1 n=71 v=91
46408 On ch=1 n=72 v=97
46422 On ch=1 n=71 v=0
46529 On ch=1 n=78 v=111
46547 On ch=1 n=72 v=0
46636 On ch=1 n=72 v=103
46693 On ch=1 n=78 v=0
46748 On ch=1 n=72 v=0
46765 On ch=1 n=81 v=100
46776 Par ch=1 c=64 v=127
46869 On ch=1 n=72 v=104
46874 On ch=1 n=81 v=0
46936 On ch=1 n=72 v=0
46999 Par ch=1 c=64 v=0
47007 On ch=1 n=71 v=106
47119 On ch=1 n=65 v=101
47150 On ch=1 n=71 v=0
47248 On ch=1 n=64 v=105
47273 On ch=1 n=65 v=0
47369 On ch=1 n=65 v=108
47383 On ch=1 n=64 v=0
47480 On ch=1 n=65 v=0
47497 On ch=1 n=71 v=103
47604 On ch=1 n=65 v=106
47648 On ch=1 n=71 v=0
47710 On ch=1 n=65 v=0
47732 On ch=1 n=74 v=112
47833 On ch=1 n=65 v=103
47842 On ch=1 n=74 v=0
47953 On ch=1 n=65 v=0
47957 On ch=1 n=64 v=105
48025 Par ch=1 c=64 v=127
48032 On ch=1 n=64 v=0
48067 On ch=1 n=67 v=102
48164 On ch=1 n=67 v=0
48171 Par ch=1 c=64 v=0
48199 On ch=1 n=72 v=105
48275 On ch=1 n=72 v=0
48312 On ch=1 n=79 v=99
48447 On ch=1 n=77 v=108
48526 On ch=1 n=79 v=0
48572 On ch=1 n=76 v=108
48692 On ch=1 n=74 v=112
48696 On ch=1 n=77 v=0
48770 On ch=1 n=76 v=0
48786 On ch=1 n=72 v=109
48826 On ch=1 n=74 v=0
48856 On ch=1 n=72 v=0
48918 On ch=1 n=72 v=113
48923 Par ch=1 c=64 v=127
49118 Par ch=1 c=64 v=0
49163 On ch=1 n=72 v=0
49890 Par ch=1 c=64 v=127
49961 Par ch=1 c=64 v=0
50141 On ch=1 n=72 v=115
50399 On ch=1 n=64 v=115
50403 On ch=1 n=60 v=109
50454 On ch=1 n=60 v=0
50463 On ch=1 n=64 v=0
50638 On ch=1 n=62 v=114
50638 On ch=1 n=65 v=112
50685 On ch=1 n=62 v=0
50738 On ch=1 n=65 v=0
50749 On ch=1 n=72 v=0
50887 On ch=1 n=67 v=109
50889 On ch=1 n=64 v=111
51358 On ch=1 n=69 v=100
51362 On ch=1 n=65 v=100
51400 On ch=1 n=64 v=0
51405 On ch=1 n=67 v=0
51709 On ch=1 n=65 v=0
51813 On ch=1 n=67 v=103
51829 On ch=1 n=64 v=85
51845 On ch=1 n=69 v=0
51911 On ch=1 n=69 v=94
51969 On ch=1 n=67 v=0
52055 On ch=1 n=70 v=118
52108 On ch=1 n=69 v=0
52431 Par ch=1 c=64 v=127
52506 On ch=1 n=69 v=86
52522 On ch=1 n=70 v=0
52615 On ch=1 n=64 v=0
52618 Par ch=1 c=64 v=0
52626 On ch=1 n=67 v=98
52688 On ch=1 n=69 v=0
52716 On ch=1 n=67 v=0
52754 On ch=1 n=69 v=107
52865 On ch=1 n=65 v=98
52988 On ch=1 n=64 v=100
53049 On ch=1 n=69 v=0
53103 On ch=1 n=62 v=105
53113 On ch=1 n=65 v=0
53226 On ch=1 n=60 v=111
53278 On ch=1 n=62 v=0
53285 On ch=1 n=64 v=0
53366 On ch=1 n=60 v=0
53961 On ch=1 n=77 v=114
54065 Par ch=1 c=64 v=127
54222 On ch=1 n=69 v=118
54226 On ch=1 n=65 v=113
54242 Par ch=1 c=64 v=0
54304 On ch=1 n=65 v=0
54344 On ch=1 n=69 v=0
54453 On ch=1 n=70 v=120
54453 On ch=1 n=67 v=109
54508 On ch=1 n=67 v=0
54556 On ch=1 n=77 v=0
54575 On ch=1 n=70 v=0
54682 On ch=1 n=72 v=116
54684 On ch=1 n=69 v=113
54757 Par ch=1 c=64 v=127
54882 Par ch=1 c=64 v=0
55177 On ch=1 n=70 v=111
55178 On ch=1 n=74 v=107
55206 On ch=1 n=69 v=0
55221 On ch=1 n=72 v=0
55495 On ch=1 n=70 v=0
55503 Par ch=1 c=64 v=127
55627 On ch=1 n=74 v=0
55653 On ch=1 n=72 v=111
55658 On ch=1 n=69 v=97
55696 Par ch=1 c=64 v=0
55751 On ch=1 n=74 v=100
55816 On ch=1 n=72 v=0
55910 On ch=1 n=75 v=121
55965 On ch=1 n=74 v=0
56384 On ch=1 n=74 v=90
56417 On ch=1 n=75 v=0
56418 Par ch=1 c=64 v=127
56509 On ch=1 n=69 v=0
56510 On ch=1 n=72 v=99
56544 Par ch=1 c=64 v=0
56561 On ch=1 n=74 v=0
56589 On ch=1 n=72 v=0
56630 On ch=1 n=74 v=105
56739 On ch=1 n=70 v=105
56845 Par ch=1 c=64 v=127
56865 On ch=1 n=69 v=92
56910 Par ch=1 c=64 v=0
56984 On ch=1 n=74 v=0
56988 On ch=1 n=67 v=98
57017 On ch=1 n=70 v=0
57124 On ch=1 n=65 v=100
57189 On ch=1 n=67 v=0
57210 On ch=1 n=69 v=0
57232 On ch=1 n=65 v=0
57681 On ch=1 n=74 v=72
57772 On ch=1 n=74 v=0
57805 On ch=1 n=73 v=95
57842 On ch=1 n=73 v=0
57903 On ch=1 n=74 v=83
57963 On ch=1 n=74 v=0
58032 On ch=1 n=82 v=99
58102 On ch=1 n=82 v=0
58258 On ch=1 n=74 v=92
58539 On ch=1 n=74 v=0
58612 On ch=1 n=73 v=98
58706 On ch=1 n=73 v=0
58727 On ch=1 n=71 v=91
58828 On ch=1 n=71 v=0
58849 On ch=1 n=73 v=111
58905 On ch=1 n=73 v=0
58985 On ch=1 n=81 v=101
59056 On ch=1 n=81 v=0
59228 On ch=1 n=72 v=93
59540 On ch=1 n=72 v=0
59596 On ch=1 n=71 v=92
59677 On ch=1 n=71 v=0
59714 On ch=1 n=69 v=90
59812 On ch=1 n=69 v=0
59819 On ch=1 n=71 v=101
59889 On ch=1 n=71 v=0
59948 On ch=1 n=79 v=99
60208 On ch=1 n=70 v=107
60234 On ch=1 n=79 v=0
60292 On ch=1 n=70 v=0
60430 On ch=1 n=70 v=106
60496 On ch=1 n=70 v=0
60496 On ch=1 n=72 v=95
60579 On ch=1 n=70 v=110
60634 On ch=1 n=72 v=0
60665 On ch=1 n=69 v=94
60701 On ch=1 n=70 v=0
61455 On ch=1 n=69 v=0
61524 On ch=1 n=74 v=83
61642 On ch=1 n=74 v=0
61653 On ch=1 n=70 v=96
61752 On ch=1 n=70 v=0
61775 On ch=1 n=67 v=74
61838 On ch=1 n=67 v=0
61895 On ch=1 n=69 v=83
62010 On ch=1 n=74 v=70
62053 On ch=1 n=69 v=0
62138 On ch=1 n=67 v=74
62145 On ch=1 n=74 v=0
62237 On ch=1 n=64 v=78
62244 On ch=1 n=67 v=0
62339 On ch=1 n=64 v=0
62351 On ch=1 n=65 v=94
62453 On ch=1 n=65 v=0
62475 On ch=1 n=74 v=84
62602 On ch=1 n=67 v=78
62714 On ch=1 n=64 v=75
62718 On ch=1 n=74 v=0
62799 On ch=1 n=67 v=0
62826 On ch=1 n=64 v=0
62843 On ch=1 n=65 v=90
62869 On ch=1 n=67 v=21
62920 On ch=1 n=67 v=0
62949 On ch=1 n=74 v=81
62957 On ch=1 n=65 v=0
63057 On ch=1 n=74 v=0
63080 On ch=1 n=64 v=85
63167 On ch=1 n=64 v=0
63196 On ch=1 n=61 v=98
63302 On ch=1 n=62 v=100
63310 On ch=1 n=61 v=0
63399 On ch=1 n=62 v=0
63443 On ch=1 n=74 v=95
63586 On ch=1 n=70 v=97
63638 On ch=1 n=74 v=0
63662 On ch=1 n=69 v=83
63717 On ch=1 n=70 v=0
63733 On ch=1 n=67 v=83
63752 On ch=1 n=69 v=0
63811 On ch=1 n=67 v=0
63821 On ch=1 n=69 v=90
63915 On ch=1 n=69 v=0
63936 On ch=1 n=74 v=93
64044 On ch=1 n=67 v=87
64106 On ch=1 n=74 v=0
64121 On ch=1 n=65 v=78
64178 On ch=1 n=67 v=0
64187 On ch=1 n=64 v=86
64199 On ch=1 n=65 v=0
64279 On ch=1 n=65 v=94
64285 On ch=1 n=64 v=0
64392 On ch=1 n=65 v=0
64401 On ch=1 n=74 v=93
64514 On ch=1 n=67 v=89
64598 On ch=1 n=65 v=83
64672 On ch=1 n=64 v=91
64678 On ch=1 n=65 v=0
64680 On ch=1 n=67 v=0
64689 On ch=1 n=74 v=0
64759 On ch=1 n=65 v=98
64773 On ch=1 n=64 v=0
64867 On ch=1 n=74 v=96
64879 On ch=1 n=65 v=0
64979 On ch=1 n=74 v=0
64995 On ch=1 n=64 v=89
65059 On ch=1 n=64 v=0
65068 On ch=1 n=62 v=102
65100 Par ch=1 c=64 v=127
65138 On ch=1 n=61 v=101
65155 On ch=1 n=62 v=0
65204 On ch=1 n=62 v=97
65218 On ch=1 n=61 v=0
65268 Par ch=1 c=64 v=0
65272 On ch=1 n=62 v=0
65479 On ch=1 n=81 v=98
65486 On ch=1 n=77 v=87
65656 On ch=1 n=77 v=0
65733 On ch=1 n=82 v=92
65737 On ch=1 n=81 v=0
65741 On ch=1 n=79 v=55
65952 On ch=1 n=82 v=0
65973 On ch=1 n=79 v=0
65983 On ch=1 n=77 v=83
65989 On ch=1 n=81 v=74
66082 Par ch=1 c=64 v=127
66217 Par ch=1 c=64 v=0
66247 On ch=1 n=77 v=0
66250 On ch=1 n=81 v=0
66424 On ch=1 n=79 v=76
66431 On ch=1 n=76 v=73
66620 On ch=1 n=76 v=0
66641 On ch=1 n=79 v=0
66666 On ch=1 n=77 v=95
66666 On ch=1 n=81 v=91
66932 On ch=1 n=79 v=90
66939 On ch=1 n=81 v=0
66939 On ch=1 n=77 v=0
66939 On ch=1 n=76 v=85
67295 On ch=1 n=76 v=0
67327 On ch=1 n=79 v=0
67405 On ch=1 n=77 v=109
67407 On ch=1 n=74 v=90
67612 On ch=1 n=74 v=0
67652 On ch=1 n=79 v=98
67654 On ch=1 n=76 v=98
67703 On ch=1 n=77 v=0
67883 On ch=1 n=77 v=103
67885 On ch=1 n=74 v=104
67902 On ch=1 n=79 v=0
67917 On ch=1 n=76 v=0
68206 Par ch=1 c=64 v=127
68232 On ch=1 n=74 v=0
68261 On ch=1 n=77 v=0
68349 On ch=1 n=77 v=109
68349 On ch=1 n=74 v=103
68467 Par ch=1 c=64 v=0
68534 On ch=1 n=74 v=0
68546 On ch=1 n=77 v=0
68590 On ch=1 n=79 v=105
68596 On ch=1 n=76 v=103
68791 On ch=1 n=76 v=0
68834 On ch=1 n=79 v=0
68845 On ch=1 n=77 v=111
68848 On ch=1 n=74 v=107
68872 Par ch=1 c=64 v=127
69084 Par ch=1 c=64 v=0
69113 On ch=1 n=74 v=0
69193 On ch=1 n=76 v=100
69240 Par ch=1 c=64 v=127
69279 On ch=1 n=74 v=105
69280 On ch=1 n=77 v=0
69298 On ch=1 n=76 v=0
69329 On ch=1 n=74 v=0
69348 On ch=1 n=76 v=114
69383 Par ch=1 c=64 v=0
69624 Par ch=1 c=64 v=127
69635 On ch=1 n=74 v=93
69646 On ch=1 n=76 v=0
69717 On ch=1 n=73 v=116
69760 On ch=1 n=74 v=0
69777 On ch=1 n=73 v=0
69803 On ch=1 n=74 v=115
69831 Par ch=1 c=64 v=0
70084 Par ch=1 c=64 v=127
70119 On ch=1 n=73 v=107
70177 On ch=1 n=74 v=0
70203 On ch=1 n=71 v=101
70228 On ch=1 n=73 v=0
70282 Par ch=1 c=64 v=0
70292 On ch=1 n=73 v=123
70335 On ch=1 n=71 v=0
70645 Par ch=1 c=64 v=127
70654 On ch=1 n=76 v=109
70693 On ch=1 n=73 v=0
70761 On ch=1 n=73 v=116
70871 On ch=1 n=76 v=0
70872 On ch=1 n=69 v=101
70984 On ch=1 n=73 v=0
70996 On ch=1 n=67 v=91
71033 Par ch=1 c=64 v=0
71042 On ch=1 n=69 v=0
71115 On ch=1 n=76 v=93
71126 On ch=1 n=67 v=0
71251 On ch=1 n=76 v=0
71251 On ch=1 n=73 v=97
71373 On ch=1 n=69 v=75
71434 On ch=1 n=73 v=0
71477 On ch=1 n=69 v=0
71498 On ch=1 n=67 v=78
71575 On ch=1 n=67 v=0
71599 On ch=1 n=76 v=78
71683 On ch=1 n=76 v=0
71727 On ch=1 n=73 v=98
71840 On ch=1 n=69 v=74
71890 On ch=1 n=73 v=0
71944 On ch=1 n=69 v=0
71973 On ch=1 n=67 v=73
72062 On ch=1 n=67 v=0
72073 On ch=1 n=76 v=75
72199 On ch=1 n=73 v=90
72217 On ch=1 n=76 v=0
72325 On ch=1 n=69 v=70
72423 On ch=1 n=73 v=0
72433 On ch=1 n=69 v=0
72471 On ch=1 n=67 v=78
72550 Par ch=1 c=64 v=127
72570 On ch=1 n=67 v=0
72573 On ch=1 n=76 v=78
72703 On ch=1 n=73 v=80
72799 On ch=1 n=69 v=70
72813 On ch=1 n=76 v=0
72877 On ch=1 n=73 v=0
72917 On ch=1 n=65 v=73
72936 On ch=1 n=69 v=0
72992 On ch=1 n=65 v=0
72999 Par ch=1 c=64 v=0
73032 On ch=1 n=77 v=87
73171 On ch=1 n=74 v=81
73242 On ch=1 n=77 v=0
73303 On ch=1 n=70 v=99
73349 On ch=1 n=74 v=0
73407 On ch=1 n=70 v=0
73433 On ch=1 n=69 v=77
73512 On ch=1 n=69 v=0
73530 On ch=1 n=77 v=83
73657 On ch=1 n=74 v=81
73688 On ch=1 n=77 v=0
73772 On ch=1 n=70 v=87
73803 On ch=1 n=74 v=0
73849 On ch=1 n=70 v=0
73889 On ch=1 n=69 v=71
73988 On ch=1 n=77 v=81
73995 On ch=1 n=69 v=0
74119 On ch=1 n=74 v=76
74195 On ch=1 n=77 v=0
74234 On ch=1 n=70 v=90
74324 On ch=1 n=74 v=0
74346 On ch=1 n=70 v=0
74372 On ch=1 n=69 v=86
74461 Par ch=1 c=64 v=127
74477 On ch=1 n=77 v=83
74481 On ch=1 n=69 v=0
74626 On ch=1 n=74 v=52
74627 On ch=1 n=77 v=0
74724 On ch=1 n=72 v=79
74762 On ch=1 n=74 v=0
74833 On ch=1 n=72 v=0
74833 On ch=1 n=71 v=66
74870 Par ch=1 c=64 v=0
74950 On ch=1 n=80 v=97
74957 On ch=1 n=71 v=0
75083 On ch=1 n=77 v=81
75123 On ch=1 n=80 v=0
75182 On ch=1 n=74 v=84
75300 On ch=1 n=77 v=0
75311 On ch=1 n=71 v=83
75358 On ch=1 n=74 v=0
75416 On ch=1 n=80 v=95
75532 On ch=1 n=71 v=0
75546 On ch=1 n=77 v=78
75602 On ch=1 n=80 v=0
75660 On ch=1 n=74 v=84
75776 On ch=1 n=71 v=87
75794 On ch=1 n=77 v=0
75834 On ch=1 n=74 v=0
75887 On ch=1 n=80 v=93
75977 On ch=1 n=71 v=0
76024 On ch=1 n=77 v=78
76090 On ch=1 n=80 v=0
76152 On ch=1 n=74 v=91
76275 On ch=1 n=71 v=89
76291 On ch=1 n=77 v=0
76332 On ch=1 n=74 v=0
76377 On ch=1 n=80 v=103
76409 On ch=1 n=71 v=0
76506 On ch=1 n=77 v=89
76557 On ch=1 n=80 v=0
76612 On ch=1 n=74 v=96
76680 On ch=1 n=77 v=0
76753 On ch=1 n=73 v=111
76783 On ch=1 n=74 v=0
76860 On ch=1 n=81 v=91
76877 On ch=1 n=73 v=0
76991 On ch=1 n=76 v=89
77031 On ch=1 n=81 v=0
77115 On ch=1 n=73 v=104
77178 On ch=1 n=76 v=0
77219 On ch=1 n=73 v=0
77237 On ch=1 n=69 v=86
77358 On ch=1 n=69 v=0
77363 On ch=1 n=73 v=93
77448 On ch=1 n=73 v=0
77496 On ch=1 n=71 v=81
77593 On ch=1 n=74 v=80
77601 On ch=1 n=71 v=0
77740 On ch=1 n=73 v=106
77814 On ch=1 n=74 v=0
77856 On ch=1 n=76 v=86
77858 On ch=1 n=73 v=0
77870 Par ch=1 c=64 v=127
77982 On ch=1 n=73 v=94
78074 On ch=1 n=76 v=0
78084 Par ch=1 c=64 v=0
78096 On ch=1 n=69 v=84
78162 On ch=1 n=73 v=0
78193 On ch=1 n=69 v=0
78228 On ch=1 n=64 v=90
78323 On ch=1 n=64 v=0
78326 On ch=1 n=67 v=87
78428 On ch=1 n=67 v=0
78456 On ch=1 n=65 v=96
78552 On ch=1 n=69 v=82
78588 On ch=1 n=65 v=0
78673 On ch=1 n=67 v=99
78717 On ch=1 n=69 v=0
78812 On ch=1 n=70 v=106
78844 On ch=1 n=67 v=0
78870 Par ch=1 c=64 v=127
78924 On ch=1 n=67 v=77
78976 On ch=1 n=70 v=0
79057 On ch=1 n=64 v=78
79063 Par ch=1 c=64 v=0
79126 On ch=1 n=67 v=0
79172 On ch=1 n=61 v=102
79188 On ch=1 n=64 v=0
79230 On ch=1 n=61 v=0
79278 On ch=1 n=64 v=94
79401 On ch=1 n=62 v=107
79461 On ch=1 n=64 v=0
79505 On ch=1 n=65 v=99
79535 On ch=1 n=62 v=0
79626 On ch=1 n=64 v=103
79697 On ch=1 n=65 v=0
79742 On ch=1 n=67 v=94
79770 On ch=1 n=64 v=0
79872 On ch=1 n=64 v=99
79935 On ch=1 n=67 v=0
79994 On ch=1 n=61 v=110
80113 On ch=1 n=57 v=95
80123 On ch=1 n=64 v=0
80169 On ch=1 n=61 v=0
80215 On ch=1 n=57 v=0
80216 On ch=1 n=67 v=93
80354 On ch=1 n=65 v=99
80403 On ch=1 n=67 v=0
80480 On ch=1 n=64 v=86
80505 On ch=1 n=65 v=0
80602 On ch=1 n=65 v=98
80628 On ch=1 n=64 v=0
80714 On ch=1 n=62 v=94
80733 On ch=1 n=65 v=0
80836 On ch=1 n=64 v=95
80845 On ch=1 n=62 v=0
80960 On ch=1 n=65 v=101
81009 On ch=1 n=64 v=0
81082 On ch=1 n=67 v=95
81094 On ch=1 n=65 v=0
81179 On ch=1 n=67 v=0
81181 On ch=1 n=69 v=105
81318 On ch=1 n=71 v=73
81350 On ch=1 n=69 v=0
81415 On ch=1 n=73 v=109
81470 On ch=1 n=71 v=0
81525 Par ch=1 c=64 v=127
81537 On ch=1 n=74 v=103
81564 On ch=1 n=73 v=0
81659 On ch=1 n=73 v=108
81706 On ch=1 n=74 v=0
81721 Par ch=1 c=64 v=0
81782 On ch=1 n=71 v=97
81904 On ch=1 n=73 v=0
81908 On ch=1 n=69 v=104
81955 On ch=1 n=71 v=0
82058 On ch=1 n=81 v=105
82222 On ch=1 n=69 v=0
82274 On ch=1 n=74 v=116
82283 On ch=1 n=69 v=103
82321 On ch=1 n=81 v=0
82364 Par ch=1 c=64 v=127
82380 On ch=1 n=69 v=0
82382 On ch=1 n=74 v=0
82487 Par ch=1 c=64 v=0
82507 On ch=1 n=77 v=121
82507 On ch=1 n=69 v=115
82510 On ch=1 n=74 v=113
82686 Par ch=1 c=64 v=127
82972 On ch=1 n=69 v=0
82995 On ch=1 n=76 v=103
82995 On ch=1 n=67 v=110
82998 On ch=1 n=73 v=118
83031 Par ch=1 c=64 v=0
83077 On ch=1 n=74 v=0
83150 On ch=1 n=77 v=0
83194 Par ch=1 c=64 v=127
83256 On ch=1 n=67 v=0
83449 On ch=1 n=76 v=0
83467 On ch=1 n=73 v=0
83481 On ch=1 n=65 v=112
83497 Par ch=1 c=64 v=0
83578 On ch=1 n=74 v=107
83759 On ch=1 n=68 v=116
83910 On ch=1 n=74 v=0
83910 Par ch=1 c=64 v=127
83984 On ch=1 n=70 v=108
84017 On ch=1 n=68 v=0
84076 On ch=1 n=65 v=0
84107 Par ch=1 c=64 v=0
84126 On ch=1 n=69 v=98
84184 On ch=1 n=70 v=0
84249 On ch=1 n=67 v=102
84343 On ch=1 n=69 v=0
84383 On ch=1 n=65 v=106
84420 On ch=1 n=67 v=0
84502 On ch=1 n=69 v=100
84539 On ch=1 n=65 v=0
84605 On ch=1 n=69 v=0
84639 On ch=1 n=74 v=107
84753 On ch=1 n=65 v=111
84861 On ch=1 n=65 v=0
84896 On ch=1 n=74 v=0
84903 On ch=1 n=64 v=107
85041 On ch=1 n=64 v=0
85115 On ch=1 n=67 v=93
85118 On ch=1 n=69 v=83
85118 On ch=1 n=73 v=120
85167 On ch=1 n=67 v=0
85175 On ch=1 n=69 v=0
85187 On ch=1 n=73 v=0
85398 On ch=1 n=69 v=44
85401 On ch=1 n=62 v=114
85401 On ch=1 n=65 v=104
85403 On ch=1 n=74 v=113
85469 Par ch=1 c=64 v=127
85501 On ch=1 n=62 v=0
85531 On ch=1 n=65 v=0
85608 On ch=1 n=69 v=0
85691 On ch=1 n=74 v=0
85705 Par ch=1 c=64 v=0
86129 On ch=1 n=69 v=86
86209 On ch=1 n=69 v=0
86373 On ch=1 n=69 v=71
86388 On ch=1 n=70 v=53
86451 On ch=1 n=69 v=0
86488 On ch=1 n=68 v=78
86526 On ch=1 n=70 v=0
86559 On ch=1 n=68 v=0
86602 On ch=1 n=69 v=72
86657 On ch=1 n=69 v=0
86841 On ch=1 n=69 v=77
86897 On ch=1 n=70 v=46
86921 On ch=1 n=69 v=0
86951 On ch=1 n=68 v=81
86995 On ch=1 n=70 v=0
87025 On ch=1 n=68 v=0
87044 On ch=1 n=69 v=71
87354 On ch=1 n=69 v=0
87372 On ch=1 n=71 v=70
87450 On ch=1 n=71 v=0
87516 On ch=1 n=73 v=93
87622 On ch=1 n=73 v=0
87636 On ch=1 n=74 v=84
87783 On ch=1 n=74 v=0
87795 On ch=1 n=76 v=75
87998 On ch=1 n=76 v=0
88019 On ch=1 n=69 v=74
88101 On ch=1 n=69 v=0
88269 On ch=1 n=69 v=74
88296 On ch=1 n=70 v=55
88355 On ch=1 n=69 v=0
88399 On ch=1 n=68 v=75
88443 On ch=1 n=70 v=0
88469 On ch=1 n=68 v=0
88511 On ch=1 n=69 v=68
88559 On ch=1 n=69 v=0
88725 On ch=1 n=69 v=80
88773 On ch=1 n=70 v=49
88817 On ch=1 n=69 v=0
88858 On ch=1 n=68 v=81
88911 On ch=1 n=70 v=0
88926 On ch=1 n=68 v=0
88958 On ch=1 n=69 v=83
88965 On ch=1 n=61 v=68
89026 On ch=1 n=61 v=0
89076 Par ch=1 c=64 v=127
89260 Par ch=1 c=64 v=0
89301 On ch=1 n=69 v=0
89326 On ch=1 n=73 v=93
89397 On ch=1 n=73 v=0
89450 On ch=1 n=74 v=83
89559 On ch=1 n=76 v=85
89568 On ch=1 n=74 v=0
89669 On ch=1 n=76 v=0
89704 On ch=1 n=77 v=89
89952 On ch=1 n=77 v=0
89957 On ch=1 n=69 v=84
90045 On ch=1 n=69 v=0
90195 On ch=1 n=69 v=81
90237 On ch=1 n=70 v=67
90279 On ch=1 n=69 v=0
90334 On ch=1 n=68 v=74
90373 On ch=1 n=70 v=0
90396 On ch=1 n=68 v=0
90437 On ch=1 n=69 v=68
90491 On ch=1 n=69 v=0
90655 On ch=1 n=69 v=78
90707 On ch=1 n=70 v=46
90746 On ch=1 n=69 v=0
90775 On ch=1 n=68 v=95
90825 On ch=1 n=70 v=0
90854 On ch=1 n=68 v=0
90885 On ch=1 n=69 v=87
91059 Par ch=1 c=64 v=127
91188 Par ch=1 c=64 v=0
91243 On ch=1 n=73 v=95
91253 On ch=1 n=69 v=0
91318 On ch=1 n=73 v=0
91367 On ch=1 n=76 v=80
91472 On ch=1 n=76 v=0
91482 On ch=1 n=77 v=82
91627 On ch=1 n=79 v=89
91646 On ch=1 n=77 v=0
91859 On ch=1 n=69 v=85
91888 On ch=1 n=79 v=0
92148 On ch=1 n=69 v=0
92189 On ch=1 n=79 v=83
92281 On ch=1 n=77 v=83
92296 On ch=1 n=79 v=0
92397 On ch=1 n=77 v=0
92400 On ch=1 n=76 v=82
92452 On ch=1 n=74 v=84
92507 On ch=1 n=76 v=0
92542 On ch=1 n=74 v=0
92552 On ch=1 n=82 v=115
92593 On ch=1 n=82 v=0
92701 Par ch=1 c=64 v=127
92803 On ch=1 n=67 v=90
93024 Par ch=1 c=64 v=0
93134 On ch=1 n=67 v=0
93181 On ch=1 n=77 v=93
93279 On ch=1 n=76 v=90
93325 On ch=1 n=77 v=0
93411 On ch=1 n=74 v=91
93430 On ch=1 n=76 v=0
93453 On ch=1 n=72 v=92
93528 On ch=1 n=74 v=0
93552 On ch=1 n=72 v=0
93554 On ch=1 n=81 v=100
93582 On ch=1 n=81 v=0
93696 Par ch=1 c=64 v=127
93796 On ch=1 n=65 v=99
93859 Par ch=1 c=64 v=0
94048 On ch=1 n=65 v=0
94146 On ch=1 n=75 v=97
94223 On ch=1 n=74 v=90
94258 On ch=1 n=75 v=0
94337 On ch=1 n=72 v=78
94383 On ch=1 n=70 v=97
94400 On ch=1 n=74 v=0
94435 On ch=1 n=70 v=0
94441 On ch=1 n=72 v=0
94463 On ch=1 n=79 v=95
94600 On ch=1 n=74 v=92
94631 On ch=1 n=79 v=0
94701 On ch=1 n=72 v=95
94716 On ch=1 n=74 v=0
94778 On ch=1 n=72 v=0
94819 On ch=1 n=70 v=98
94883 On ch=1 n=69 v=85
94886 On ch=1 n=70 v=0
94946 On ch=1 n=77 v=103
94967 On ch=1 n=69 v=0
95092 On ch=1 n=72 v=88
95143 On ch=1 n=77 v=0
95185 On ch=1 n=70 v=95
95243 On ch=1 n=72 v=0
95288 On ch=1 n=70 v=0
95293 On ch=1 n=69 v=81
95378 On ch=1 n=67 v=86
95388 On ch=1 n=69 v=0
95436 On ch=1 n=75 v=105
95452 On ch=1 n=67 v=0
95588 On ch=1 n=70 v=98
95636 On ch=1 n=75 v=0
95670 On ch=1 n=69 v=83
95727 On ch=1 n=70 v=0
95754 On ch=1 n=69 v=0
95756 On ch=1 n=67 v=87
95836 On ch=1 n=67 v=0
95838 On ch=1 n=65 v=89
95898 On ch=1 n=65 v=0
95914 On ch=1 n=74 v=89
96054 On ch=1 n=69 v=79
96109 On ch=1 n=74 v=0
96170 On ch=1 n=70 v=100
96200 On ch=1 n=69 v=0
96292 On ch=1 n=74 v=91
96346 On ch=1 n=70 v=0
96401 On ch=1 n=74 v=0
96423 On ch=1 n=63 v=111
96529 On ch=1 n=74 v=92
96547 On ch=1 n=63 v=0
96682 On ch=1 n=72 v=70
96797 On ch=1 n=70 v=102
96829 On ch=1 n=74 v=0
96888 On ch=1 n=72 v=0
96924 On ch=1 n=69 v=93
97027 On ch=1 n=67 v=89
97059 On ch=1 n=69 v=0
97059 On ch=1 n=70 v=0
97142 On ch=1 n=69 v=90
97170 Par ch=1 c=64 v=127
97177 On ch=1 n=67 v=0
97245 Par ch=1 c=64 v=0
97250 On ch=1 n=72 v=92
97264 Par ch=1 c=64 v=0
97304 On ch=1 n=69 v=0
97378 On ch=1 n=72 v=0
97387 On ch=1 n=65 v=93
97485 On ch=1 n=75 v=102
97494 On ch=1 n=65 v=0
97610 On ch=1 n=74 v=102
97620 On ch=1 n=75 v=0
97715 On ch=1 n=72 v=95
97749 On ch=1 n=74 v=0
97839 On ch=1 n=74 v=108
97863 On ch=1 n=72 v=0
97894 On ch=1 n=74 v=0
98086 On ch=1 n=82 v=112
98161 Par ch=1 c=64 v=127
98292 Par ch=1 c=64 v=0
98331 On ch=1 n=74 v=87
98341 On ch=1 n=70 v=63
98352 On ch=1 n=82 v=0
98367 On ch=1 n=74 v=0
98374 On ch=1 n=70 v=0
98585 On ch=1 n=75 v=111
98592 On ch=1 n=72 v=74
98627 On ch=1 n=72 v=0
98641 On ch=1 n=75 v=0
98852 On ch=1 n=77 v=97
98856 On ch=1 n=74 v=95
99323 On ch=1 n=75 v=108
99323 On ch=1 n=79 v=99
99350 On ch=1 n=74 v=0
99352 On ch=1 n=77 v=0
99547 On ch=1 n=75 v=0
99794 On ch=1 n=70 v=111
99797 On ch=1 n=79 v=0
99798 On ch=1 n=77 v=95
99800 On ch=1 n=74 v=92
99864 On ch=1 n=74 v=0
99924 On ch=1 n=77 v=0
100020 On ch=1 n=82 v=124
100239 On ch=1 n=75 v=107
100364 On ch=1 n=82 v=0
100444 On ch=1 n=75 v=0
100460 On ch=1 n=70 v=0
100467 On ch=1 n=80 v=97
100511 Par ch=1 c=64 v=127
100521 On ch=1 n=80 v=0
100577 On ch=1 n=79 v=108
100650 On ch=1 n=79 v=0
100715 Par ch=1 c=64 v=0
100721 On ch=1 n=79 v=83
100727 On ch=1 n=75 v=105
100953 On ch=1 n=75 v=0
100983 On ch=1 n=74 v=96
100987 On ch=1 n=77 v=91
101025 On ch=1 n=79 v=0
101171 On ch=1 n=74 v=0
101228 On ch=1 n=67 v=95
101267 On ch=1 n=77 v=0
101482 On ch=1 n=74 v=88
101485 On ch=1 n=77 v=91
101582 On ch=1 n=74 v=0
101615 On ch=1 n=77 v=0
101720 On ch=1 n=77 v=98
101722 On ch=1 n=74 v=86
101954 On ch=1 n=75 v=95
101960 On ch=1 n=72 v=74
101992 On ch=1 n=74 v=0
102000 On ch=1 n=67 v=0
102038 On ch=1 n=77 v=0
102147 On ch=1 n=72 v=0
102203 On ch=1 n=65 v=96
102244 On ch=1 n=75 v=0
102436 On ch=1 n=75 v=110
102452 On ch=1 n=72 v=62
102574 On ch=1 n=72 v=0
102580 On ch=1 n=75 v=0
102676 On ch=1 n=72 v=92
102678 On ch=1 n=75 v=109
102875 On ch=1 n=65 v=0
102901 On ch=1 n=74 v=91
102909 On ch=1 n=70 v=98
102947 On ch=1 n=75 v=0
102951 On ch=1 n=72 v=0
103094 On ch=1 n=74 v=0
103131 On ch=1 n=70 v=0
103141 On ch=1 n=63 v=117
103390 On ch=1 n=74 v=100
103396 On ch=1 n=70 v=94
103513 On ch=1 n=70 v=0
103529 On ch=1 n=74 v=0
103633 On ch=1 n=74 v=101
103636 On ch=1 n=70 v=102
103840 On ch=1 n=70 v=0
103849 Par ch=1 c=64 v=0
103859 On ch=1 n=69 v=87
103860 On ch=1 n=74 v=0
103861 On ch=1 n=72 v=95
103877 On ch=1 n=63 v=0
104002 On ch=1 n=69 v=0
104085 On ch=1 n=62 v=115
104143 On ch=1 n=72 v=0
104333 On ch=1 n=72 v=103
104333 On ch=1 n=69 v=94
104480 On ch=1 n=69 v=0
104500 On ch=1 n=72 v=0
104575 On ch=1 n=69 v=93
104575 On ch=1 n=72 v=107
104713 Par ch=1 c=64 v=127
104813 On ch=1 n=62 v=0
104813 On ch=1 n=67 v=93
104814 On ch=1 n=70 v=105
104861 On ch=1 n=67 v=0
104873 On ch=1 n=72 v=0
104877 On ch=1 n=69 v=0
104881 On ch=1 n=70 v=0
105011 Par ch=1 c=64 v=0
105052 On ch=1 n=82 v=114
105164 On ch=1 n=74 v=94
105287 On ch=1 n=79 v=79
105293 On ch=1 n=74 v=0
105402 On ch=1 n=77 v=91
105479 On ch=1 n=79 v=0
105539 On ch=1 n=75 v=111
105542 On ch=1 n=77 v=0
105667 On ch=1 n=82 v=0
105779 On ch=1 n=81 v=84
105790 On ch=1 n=75 v=0
105845 Par ch=1 c=64 v=0
105888 On ch=1 n=79 v=93
105923 On ch=1 n=81 v=0
106029 On ch=1 n=81 v=86
106089 On ch=1 n=79 v=0
106144 On ch=1 n=78 v=111
106183 On ch=1 n=81 v=0
106257 On ch=1 n=79 v=91
106289 On ch=1 n=78 v=0
106372 On ch=1 n=81 v=99
106409 On ch=1 n=79 v=0
106460 On ch=1 n=81 v=0
106511 On ch=1 n=74 v=101
106589 On ch=1 n=74 v=0
106600 On ch=1 n=75 v=91
106700 On ch=1 n=75 v=0
106707 On ch=1 n=74 v=80
106780 On ch=1 n=74 v=0
106790 On ch=1 n=75 v=94
106827 Par ch=1 c=64 v=127
106844 On ch=1 n=75 v=0
106866 On ch=1 n=74 v=70
106911 On ch=1 n=74 v=0
106916 Par ch=1 c=64 v=0
106947 On ch=1 n=75 v=99
107016 On ch=1 n=74 v=84
107017 On ch=1 n=75 v=0
107092 On ch=1 n=74 v=0
107102 On ch=1 n=75 v=97
107178 On ch=1 n=75 v=0
107178 On ch=1 n=74 v=80
107254 On ch=1 n=74 v=0
107271 On ch=1 n=75 v=100
107347 On ch=1 n=75 v=0
107352 On ch=1 n=74 v=78
107436 On ch=1 n=74 v=0
107442 On ch=1 n=75 v=94
107514 On ch=1 n=75 v=0
107516 On ch=1 n=74 v=79
107593 On ch=1 n=74 v=0
107615 On ch=1 n=75 v=85
107668 On ch=1 n=75 v=0
107678 On ch=1 n=74 v=78
107757 On ch=1 n=74 v=0
107768 On ch=1 n=75 v=86
107829 On ch=1 n=74 v=68
107833 On ch=1 n=75 v=0
107918 On ch=1 n=74 v=0
107934 On ch=1 n=75 v=92
108010 On ch=1 n=75 v=0
108012 On ch=1 n=74 v=80
108086 On ch=1 n=74 v=0
108105 On ch=1 n=75 v=90
108184 On ch=1 n=74 v=84
108192 On ch=1 n=75 v=0
108262 On ch=1 n=74 v=0
108272 On ch=1 n=75 v=88
108355 On ch=1 n=75 v=0
108356 On ch=1 n=74 v=70
108436 On ch=1 n=74 v=0
108447 On ch=1 n=75 v=90
108515 On ch=1 n=75 v=0
108531 On ch=1 n=74 v=78
108601 On ch=1 n=74 v=0
108621 On ch=1 n=75 v=89
108685 On ch=1 n=75 v=0
108700 On ch=1 n=74 v=79
108775 On ch=1 n=74 v=0
108790 On ch=1 n=75 v=94
108841 On ch=1 n=75 v=0
108869 On ch=1 n=74 v=73
108927 On ch=1 n=74 v=0
108957 On ch=1 n=75 v=81
109011 On ch=1 n=75 v=0
109042 On ch=1 n=74 v=74
109086 On ch=1 n=74 v=0
109113 On ch=1 n=75 v=96
109185 On ch=1 n=75 v=0
109195 On ch=1 n=74 v=92
109250 On ch=1 n=74 v=0
109268 On ch=1 n=75 v=92
109279 Par ch=1 c=64 v=0
109338 On ch=1 n=74 v=86
109383 On ch=1 n=75 v=0
109441 On ch=1 n=74 v=0
109608 On ch=1 n=67 v=82
109852 On ch=1 n=70 v=104
109916 On ch=1 n=67 v=0
110093 On ch=1 n=70 v=0
110094 On ch=1 n=74 v=89
110218 Par ch=1 c=64 v=127
110234 On ch=1 n=74 v=0
110302 Par ch=1 c=64 v=0
110326 On ch=1 n=74 v=95
110397 On ch=1 n=72 v=78
110401 On ch=1 n=74 v=0
110460 On ch=1 n=74 v=80
110466 On ch=1 n=72 v=0
110540 On ch=1 n=72 v=78
110546 On ch=1 n=74 v=0
110596 Par ch=1 c=64 v=127
110601 On ch=1 n=72 v=0
110603 On ch=1 n=74 v=72
110691 On ch=1 n=72 v=74
110693 On ch=1 n=74 v=0
110741 On ch=1 n=72 v=0
110748 On ch=1 n=74 v=72
110764 Par ch=1 c=64 v=0
110841 On ch=1 n=72 v=73
110848 On ch=1 n=74 v=0
110902 On ch=1 n=72 v=0
110905 On ch=1 n=74 v=75
110996 On ch=1 n=72 v=73
111002 On ch=1 n=74 v=0
111062 On ch=1 n=74 v=75
111066 On ch=1 n=72 v=0
111156 On ch=1 n=74 v=0
111157 On ch=1 n=72 v=72
111221 On ch=1 n=72 v=0
111239 On ch=1 n=74 v=79
111322 On ch=1 n=72 v=77
111324 On ch=1 n=74 v=0
111395 On ch=1 n=74 v=74
111400 On ch=1 n=72 v=0
111491 On ch=1 n=74 v=0
111491 On ch=1 n=72 v=70
111552 On ch=1 n=72 v=0
111555 On ch=1 n=74 v=68
111654 On ch=1 n=72 v=70
111656 On ch=1 n=74 v=0
111733 On ch=1 n=74 v=78
111734 On ch=1 n=72 v=0
111833 On ch=1 n=72 v=72
111834 On ch=1 n=74 v=0
111904 On ch=1 n=74 v=72
111910 On ch=1 n=72 v=0
112010 On ch=1 n=72 v=67
112014 On ch=1 n=74 v=0
112087 On ch=1 n=72 v=0
112090 On ch=1 n=74 v=78
112207 On ch=1 n=74 v=0
112207 On ch=1 n=72 v=75
112295 On ch=1 n=72 v=0
112299 On ch=1 n=74 v=87
112396 On ch=1 n=74 v=0
112402 On ch=1 n=72 v=70
112479 On ch=1 n=72 v=0
112480 On ch=1 n=74 v=80
112575 On ch=1 n=74 v=0
112581 On ch=1 n=72 v=76
112661 On ch=1 n=72 v=0
112671 On ch=1 n=74 v=80
112785 On ch=1 n=74 v=0
112796 On ch=1 n=72 v=75
112826 Par ch=1 c=64 v=127
112870 On ch=1 n=72 v=0
112880 On ch=1 n=74 v=84
112971 On ch=1 n=74 v=0
112976 On ch=1 n=72 v=74
113054 On ch=1 n=74 v=77
113065 On ch=1 n=72 v=0
113133 On ch=1 n=72 v=72
113142 On ch=1 n=74 v=0
113251 Par ch=1 c=64 v=0
113428 On ch=1 n=72 v=0
113433 On ch=1 n=65 v=99
113689 On ch=1 n=69 v=98
113761 On ch=1 n=65 v=0
113927 On ch=1 n=72 v=106
113989 On ch=1 n=69 v=0
114152 On ch=1 n=77 v=109
114355 On ch=1 n=77 v=0
114358 Par ch=1 c=64 v=127
114384 On ch=1 n=72 v=0
114412 On ch=1 n=65 v=105
114554 Par ch=1 c=64 v=0
114666 On ch=1 n=70 v=114
114718 On ch=1 n=65 v=0
114890 On ch=1 n=62 v=97
115116 On ch=1 n=64 v=98
115142 On ch=1 n=70 v=0
115161 On ch=1 n=62 v=0
115218 On ch=1 n=67 v=94
115261 On ch=1 n=64 v=0
115336 On ch=1 n=64 v=99
115445 On ch=1 n=60 v=107
115519 On ch=1 n=64 v=0
115554 On ch=1 n=67 v=0
115574 On ch=1 n=69 v=103
115611 On ch=1 n=60 v=0
115818 On ch=1 n=60 v=103
116093 On ch=1 n=62 v=100
116138 On ch=1 n=60 v=0
116194 On ch=1 n=65 v=89
116216 On ch=1 n=62 v=0
116263 On ch=1 n=69 v=0
116307 On ch=1 n=62 v=93
116412 On ch=1 n=65 v=0
116426 On ch=1 n=60 v=86
116456 On ch=1 n=60 v=0
116467 On ch=1 n=62 v=0
116548 On ch=1 n=58 v=110
116648 On ch=1 n=58 v=0
116673 On ch=1 n=69 v=69
116783 On ch=1 n=67 v=92
116877 On ch=1 n=69 v=0
116877 On ch=1 n=65 v=95
116893 Par ch=1 c=64 v=127
116931 On ch=1 n=67 v=0
116942 On ch=1 n=65 v=0
117013 On ch=1 n=64 v=105
117047 Par ch=1 c=64 v=0
117119 On ch=1 n=67 v=88
117164 On ch=1 n=64 v=0
117253 On ch=1 n=64 v=99
117366 On ch=1 n=62 v=96
117396 On ch=1 n=67 v=0
117459 On ch=1 n=64 v=0
117491 On ch=1 n=60 v=89
117501 On ch=1 n=62 v=0
117578 On ch=1 n=60 v=0
117600 On ch=1 n=58 v=107
117681 Par ch=1 c=64 v=127
117685 On ch=1 n=58 v=0
117735 On ch=1 n=57 v=74
117783 Par ch=1 c=64 v=0
117844 On ch=1 n=57 v=0
117863 On ch=1 n=55 v=56
117931 On ch=1 n=55 v=0
117975 On ch=1 n=57 v=58
118090 On ch=1 n=60 v=59
118096 On ch=1 n=57 v=0
118236 On ch=1 n=60 v=0
118241 On ch=1 n=65 v=60
118357 On ch=1 n=64 v=58
118443 On ch=1 n=65 v=0
118481 On ch=1 n=62 v=71
118532 On ch=1 n=64 v=0
118588 On ch=1 n=60 v=58
118630 On ch=1 n=62 v=0
118688 On ch=1 n=60 v=0
118722 On ch=1 n=58 v=78
118820 On ch=1 n=58 v=0
118840 On ch=1 n=57 v=75
118969 On ch=1 n=58 v=76
119011 On ch=1 n=57 v=0
119081 On ch=1 n=62 v=69
119086 On ch=1 n=58 v=0
119182 On ch=1 n=62 v=0
119212 On ch=1 n=67 v=65
119333 On ch=1 n=65 v=70
119463 On ch=1 n=64 v=77
119516 On ch=1 n=67 v=0
119574 On ch=1 n=65 v=0
119576 On ch=1 n=62 v=80
119653 On ch=1 n=64 v=0
119689 On ch=1 n=62 v=0
119694 On ch=1 n=60 v=80
119799 On ch=1 n=58 v=92
119802 On ch=1 n=60 v=0
119915 On ch=1 n=58 v=0
119929 On ch=1 n=60 v=84
120032 On ch=1 n=65 v=86
120055 On ch=1 n=60 v=0
120156 On ch=1 n=65 v=0
120162 On ch=1 n=69 v=87
120267 On ch=1 n=67 v=78
120393 On ch=1 n=65 v=97
120443 On ch=1 n=69 v=0
120492 On ch=1 n=64 v=89
120522 On ch=1 n=67 v=0
120590 On ch=1 n=65 v=0
120625 On ch=1 n=62 v=97
120640 On ch=1 n=64 v=0
120726 On ch=1 n=62 v=0
120726 On ch=1 n=60 v=99
120827 On ch=1 n=60 v=0
120853 On ch=1 n=62 v=109
120958 On ch=1 n=65 v=109
120973 On ch=1 n=62 v=0
121085 On ch=1 n=65 v=0
121108 On ch=1 n=70 v=116
121219 On ch=1 n=69 v=104
121340 On ch=1 n=67 v=107
121391 On ch=1 n=70 v=0
121456 On ch=1 n=65 v=112
121468 On ch=1 n=69 v=0
121491 On ch=1 n=67 v=0
121540 On ch=1 n=65 v=0
121570 Par ch=1 c=64 v=127
121578 On ch=1 n=64 v=108
121684 On ch=1 n=62 v=118
121685 On ch=1 n=64 v=0
121721 Par ch=1 c=64 v=0
121778 On ch=1 n=62 v=0
121818 On ch=1 n=64 v=103
121939 On ch=1 n=60 v=117
121970 On ch=1 n=64 v=0
122050 On ch=1 n=60 v=0
122070 On ch=1 n=64 v=119
122192 On ch=1 n=67 v=115
122240 On ch=1 n=64 v=0
122319 On ch=1 n=70 v=123
122364 On ch=1 n=67 v=0
122407 On ch=1 n=70 v=0
122437 On ch=1 n=72 v=127
122511 On ch=1 n=72 v=0
122554 On ch=1 n=76 v=108
122596 On ch=1 n=76 v=0
122653 On ch=1 n=79 v=127
122716 On ch=1 n=79 v=0
122781 On ch=1 n=81 v=98
123041 On ch=1 n=74 v=83
123120 On ch=1 n=81 v=0
123265 On ch=1 n=74 v=0
123286 On ch=1 n=76 v=72
123399 On ch=1 n=74 v=70
123403 On ch=1 n=76 v=0
123477 On ch=1 n=74 v=0
123526 On ch=1 n=73 v=72
123615 On ch=1 n=73 v=0
123640 On ch=1 n=74 v=64
123819 On ch=1 n=74 v=0
123867 On ch=1 n=79 v=69
123993 On ch=1 n=74 v=70
124095 On ch=1 n=71 v=71
124118 On ch=1 n=74 v=0
124206 On ch=1 n=71 v=0
124237 On ch=1 n=79 v=0
124239 On ch=1 n=72 v=68
124338 On ch=1 n=72 v=0
124338 On ch=1 n=71 v=71
124452 On ch=1 n=71 v=0
124464 On ch=1 n=72 v=65
124577 On ch=1 n=76 v=73
124613 On ch=1 n=72 v=0
124707 On ch=1 n=76 v=0
124710 On ch=1 n=77 v=68
124953 On ch=1 n=70 v=67
125165 On ch=1 n=70 v=0
125185 On ch=1 n=72 v=64
125284 On ch=1 n=70 v=85
125327 On ch=1 n=77 v=0
125331 On ch=1 n=72 v=0
125395 On ch=1 n=70 v=0
125400 On ch=1 n=69 v=68
125515 On ch=1 n=69 v=0
125533 On ch=1 n=70 v=77
125762 On ch=1 n=70 v=0
125777 On ch=1 n=75 v=89
125894 On ch=1 n=70 v=92
125981 On ch=1 n=75 v=0
126022 On ch=1 n=67 v=75
126055 On ch=1 n=70 v=0
126150 On ch=1 n=67 v=0
126166 On ch=1 n=69 v=76
126280 On ch=1 n=69 v=0
126280 On ch=1 n=67 v=76
126403 On ch=1 n=69 v=75
126411 On ch=1 n=67 v=0
126525 On ch=1 n=72 v=88
126550 On ch=1 n=69 v=0
126658 On ch=1 n=74 v=87
126666 On ch=1 n=72 v=0
126897 On ch=1 n=67 v=72
126935 On ch=1 n=74 v=0
127135 On ch=1 n=69 v=70
127143 On ch=1 n=67 v=0
127237 On ch=1 n=67 v=70
127263 On ch=1 n=69 v=0
127360 On ch=1 n=67 v=0
127364 On ch=1 n=66 v=83
127473 On ch=1 n=66 v=0
127477 On ch=1 n=67 v=70
127672 On ch=1 n=67 v=0
127690 On ch=1 n=72 v=77
127810 On ch=1 n=67 v=78
127886 On ch=1 n=72 v=0
127908 On ch=1 n=67 v=0
127916 On ch=1 n=64 v=76
128028 On ch=1 n=64 v=0
128038 On ch=1 n=65 v=75
128118 On ch=1 n=65 v=0
128133 On ch=1 n=64 v=72
128254 On ch=1 n=65 v=76
128272 On ch=1 n=64 v=0
128342 Par ch=1 c=64 v=127
128370 On ch=1 n=69 v=80
128389 On ch=1 n=65 v=0
128448 On ch=1 n=69 v=0
128531 On ch=1 n=72 v=75
128595 On ch=1 n=72 v=0
128605 Par ch=1 c=64 v=0
128608 On ch=1 n=70 v=86
128673 On ch=1 n=70 v=0
128710 On ch=1 n=72 v=65
128806 On ch=1 n=72 v=0
128811 On ch=1 n=70 v=87
128879 On ch=1 n=70 v=0
128920 On ch=1 n=72 v=55
129013 On ch=1 n=72 v=0
129034 On ch=1 n=70 v=77
129108 On ch=1 n=70 v=0
129118 On ch=1 n=72 v=53
129177 On ch=1 n=72 v=0
129194 On ch=1 n=70 v=77
129239 On ch=1 n=70 v=0
129272 On ch=1 n=72 v=65
129278 Par ch=1 c=64 v=127
129369 On ch=1 n=70 v=60
129371 On ch=1 n=72 v=0
129451 On ch=1 n=70 v=0
129515 Par ch=1 c=64 v=0
129561 On ch=1 n=79 v=84
129716 On ch=1 n=76 v=82
129739 On ch=1 n=79 v=0
129852 On ch=1 n=72 v=76
129853 On ch=1 n=76 v=0
129996 On ch=1 n=70 v=93
130026 On ch=1 n=72 v=0
130088 On ch=1 n=70 v=0
130121 On ch=1 n=79 v=77
130234 On ch=1 n=76 v=71
130254 Par ch=1 c=64 v=127
130261 On ch=1 n=79 v=0
130321 On ch=1 n=72 v=74
130338 On ch=1 n=76 v=0
130378 On ch=1 n=72 v=0
130443 On ch=1 n=72 v=87
130543 On ch=1 n=72 v=0
130551 On ch=1 n=70 v=86
130623 On ch=1 n=70 v=0
130629 On ch=1 n=72 v=77
130636 Par ch=1 c=64 v=0
130757 On ch=1 n=70 v=79
130762 On ch=1 n=72 v=0
130866 On ch=1 n=70 v=0
130876 On ch=1 n=72 v=68
131005 On ch=1 n=70 v=85
131016 On ch=1 n=72 v=0
131082 On ch=1 n=70 v=0
131092 On ch=1 n=72 v=74
131170 Par ch=1 c=64 v=127
131206 On ch=1 n=70 v=89
131207 On ch=1 n=72 v=0
131281 On ch=1 n=70 v=0
131298 On ch=1 n=72 v=71
131388 On ch=1 n=70 v=73
131427 Par ch=1 c=64 v=0
131429 On ch=1 n=72 v=0
131462 On ch=1 n=70 v=0
131539 On ch=1 n=79 v=96
131662 On ch=1 n=76 v=94
131715 On ch=1 n=79 v=0
131784 On ch=1 n=72 v=87
131824 On ch=1 n=76 v=0
131908 On ch=1 n=70 v=102
131945 On ch=1 n=72 v=0
131994 On ch=1 n=70 v=0
132034 On ch=1 n=79 v=90
132155 On ch=1 n=76 v=83
132160 Par ch=1 c=64 v=127
132190 On ch=1 n=79 v=0
132263 On ch=1 n=72 v=91
132328 Par ch=1 c=64 v=0
132335 On ch=1 n=76 v=0
132390 On ch=1 n=69 v=109
132407 On ch=1 n=72 v=0
132642 On ch=1 n=77 v=101
132649 On ch=1 n=69 v=0
132870 On ch=1 n=69 v=104
132879 On ch=1 n=65 v=99
132987 On ch=1 n=65 v=0
133082 On ch=1 n=69 v=0
133127 On ch=1 n=70 v=108
133129 On ch=1 n=67 v=91
133146 On ch=1 n=77 v=0
133147 Par ch=1 c=64 v=127
133361 On ch=1 n=70 v=0
133371 Par ch=1 c=64 v=0
133381 On ch=1 n=69 v=98
133381 On ch=1 n=72 v=101
133835 On ch=1 n=70 v=112
133835 On ch=1 n=74 v=109
133879 On ch=1 n=69 v=0
133882 On ch=1 n=72 v=0
133946 On ch=1 n=67 v=0
134250 On ch=1 n=70 v=0
134456 On ch=1 n=74 v=0
134544 On ch=1 n=72 v=94
134547 On ch=1 n=69 v=82
134660 On ch=1 n=74 v=98
134679 On ch=1 n=72 v=0
134719 On ch=1 n=69 v=0
134742 On ch=1 n=74 v=0
134779 On ch=1 n=75 v=120
134781 On ch=1 n=69 v=52
135026 Par ch=1 c=64 v=127
135029 On ch=1 n=74 v=92
135040 On ch=1 n=69 v=0
135070 On ch=1 n=75 v=0
135141 On ch=1 n=72 v=103
135197 On ch=1 n=74 v=0
135201 On ch=1 n=72 v=0
135254 Par ch=1 c=64 v=0
135277 On ch=1 n=74 v=105
135280 On ch=1 n=70 v=116
135838 On ch=1 n=70 v=0
135910 Par ch=1 c=64 v=127
135973 On ch=1 n=74 v=0
135995 On ch=1 n=65 v=98
136101 On ch=1 n=69 v=101
136116 On ch=1 n=65 v=0
136160 On ch=1 n=69 v=0
136214 Par ch=1 c=64 v=0
136489 On ch=1 n=79 v=100
136702 On ch=1 n=71 v=105
136710 On ch=1 n=67 v=94
136834 On ch=1 n=67 v=0
136953 On ch=1 n=69 v=97
136958 On ch=1 n=72 v=100
136989 On ch=1 n=71 v=0
137024 On ch=1 n=79 v=0
137175 On ch=1 n=72 v=0
137193 On ch=1 n=74 v=98
137196 On ch=1 n=71 v=99
137199 Par ch=1 c=64 v=0
137656 On ch=1 n=69 v=0
137674 On ch=1 n=76 v=103
137678 On ch=1 n=72 v=104
137724 On ch=1 n=74 v=0
137725 On ch=1 n=71 v=0
138150 On ch=1 n=72 v=0
138384 On ch=1 n=74 v=100
138400 On ch=1 n=71 v=62
138402 On ch=1 n=76 v=0
138490 On ch=1 n=76 v=93
138518 On ch=1 n=74 v=0
138621 On ch=1 n=77 v=111
138656 On ch=1 n=76 v=0
138855 On ch=1 n=76 v=92
138895 On ch=1 n=71 v=0
138914 On ch=1 n=77 v=0
138969 On ch=1 n=74 v=97
139013 On ch=1 n=76 v=0
139041 On ch=1 n=74 v=0
139101 On ch=1 n=76 v=95
139106 On ch=1 n=72 v=89
139404 On ch=1 n=72 v=0
139779 On ch=1 n=76 v=0
139851 Par ch=1 c=64 v=127
139853 On ch=1 n=72 v=90
139932 On ch=1 n=72 v=0
140039 Par ch=1 c=64 v=0
140089 On ch=1 n=72 v=81
140146 On ch=1 n=74 v=49
140147 On ch=1 n=72 v=0
140198 On ch=1 n=72 v=70
140224 On ch=1 n=74 v=0
140243 On ch=1 n=71 v=68
140253 On ch=1 n=72 v=0
140314 On ch=1 n=71 v=0
140317 On ch=1 n=72 v=80
140371 On ch=1 n=72 v=0
140524 On ch=1 n=72 v=71
140598 On ch=1 n=72 v=0
140603 On ch=1 n=74 v=52
140652 On ch=1 n=74 v=0
140659 On ch=1 n=72 v=49
140703 On ch=1 n=71 v=59
140705 Par ch=1 c=64 v=0
140707 On ch=1 n=72 v=0
140760 On ch=1 n=71 v=0
140765 On ch=1 n=72 v=57
141094 On ch=1 n=72 v=0
141095 On ch=1 n=74 v=72
141184 On ch=1 n=74 v=0
141236 On ch=1 n=76 v=75
141344 On ch=1 n=77 v=74
141346 On ch=1 n=76 v=0
141481 On ch=1 n=79 v=72
141482 On ch=1 n=77 v=0
141714 On ch=1 n=79 v=0
141720 On ch=1 n=72 v=72
141806 On ch=1 n=72 v=0
141948 On ch=1 n=72 v=65
142016 On ch=1 n=72 v=0
142025 On ch=1 n=74 v=59
142086 On ch=1 n=72 v=62
142088 On ch=1 n=74 v=0
142145 On ch=1 n=71 v=70
142146 On ch=1 n=72 v=0
142204 On ch=1 n=72 v=76
142223 On ch=1 n=71 v=0
142254 On ch=1 n=72 v=0
142440 On ch=1 n=72 v=62
142511 On ch=1 n=72 v=0
142512 On ch=1 n=74 v=64
142562 On ch=1 n=72 v=78
142582 On ch=1 n=74 v=0
142635 On ch=1 n=71 v=76
142637 On ch=1 n=72 v=0
142691 On ch=1 n=72 v=77
142705 On ch=1 n=71 v=0
142729 Par ch=1 c=64 v=127
142787 On ch=1 n=72 v=0
142811 On ch=1 n=72 v=39
142932 Par ch=1 c=64 v=0
142998 On ch=1 n=72 v=0
143008 On ch=1 n=76 v=81
143078 On ch=1 n=76 v=0
143143 On ch=1 n=77 v=81
143252 On ch=1 n=79 v=78
143253 On ch=1 n=77 v=0
143391 On ch=1 n=79 v=0
143400 On ch=1 n=81 v=80
143614 On ch=1 n=81 v=0
143644 On ch=1 n=72 v=82
143689 Par ch=1 c=64 v=127
143745 On ch=1 n=72 v=0
143818 Par ch=1 c=64 v=0
143894 On ch=1 n=72 v=69
143946 On ch=1 n=74 v=69
143955 On ch=1 n=72 v=0
144012 On ch=1 n=74 v=0
144015 On ch=1 n=72 v=71
144076 On ch=1 n=71 v=78
144081 On ch=1 n=72 v=0
144149 On ch=1 n=72 v=77
144159 On ch=1 n=71 v=0
144201 On ch=1 n=72 v=0
144402 On ch=1 n=72 v=76
144471 On ch=1 n=72 v=0
144471 On ch=1 n=74 v=66
144519 On ch=1 n=72 v=75
144539 On ch=1 n=74 v=0
144593 On ch=1 n=71 v=79
144597 On ch=1 n=72 v=0
144650 On ch=1 n=72 v=82
144660 On ch=1 n=71 v=0
144672 Par ch=1 c=64 v=127
144839 On ch=1 n=67 v=89
144887 Par ch=1 c=64 v=0
144943 On ch=1 n=67 v=0
144944 On ch=1 n=72 v=0
144956 On ch=1 n=76 v=95
145081 On ch=1 n=79 v=87
145103 On ch=1 n=76 v=0
145201 On ch=1 n=81 v=86
145247 On ch=1 n=79 v=0
145359 On ch=1 n=82 v=98
145366 On ch=1 n=81 v=0
145560 On ch=1 n=82 v=0
145583 On ch=1 n=72 v=89
145929 On ch=1 n=72 v=0
145937 On ch=1 n=82 v=94
146035 On ch=1 n=81 v=87
146057 On ch=1 n=82 v=0
146154 On ch=1 n=79 v=89
146236 On ch=1 n=81 v=0
146257 On ch=1 n=77 v=92
146274 On ch=1 n=79 v=0
146322 On ch=1 n=84 v=105
146429 On ch=1 n=84 v=0
146510 Par ch=1 c=64 v=127
146542 On ch=1 n=75 v=115
146624 On ch=1 n=77 v=0
146821 Par ch=1 c=64 v=0
146856 On ch=1 n=74 v=91
146874 On ch=1 n=75 v=0
146912 On ch=1 n=72 v=85
146924 On ch=1 n=74 v=0
146972 On ch=1 n=74 v=94
146983 On ch=1 n=72 v=0
147047 On ch=1 n=74 v=0
147085 On ch=1 n=72 v=99
147169 On ch=1 n=72 v=0
147187 On ch=1 n=70 v=110
147273 On ch=1 n=79 v=102
147275 On ch=1 n=70 v=0
147480 On ch=1 n=70 v=109
147508 On ch=1 n=79 v=0
147806 On ch=1 n=69 v=75
147850 On ch=1 n=70 v=0
147899 On ch=1 n=67 v=91
147910 On ch=1 n=69 v=0
147970 On ch=1 n=67 v=0
147979 On ch=1 n=69 v=94
148119 On ch=1 n=67 v=95
148182 On ch=1 n=69 v=0
148201 On ch=1 n=65 v=103
148223 On ch=1 n=67 v=0
148267 On ch=1 n=74 v=101
148308 On ch=1 n=65 v=0
148476 On ch=1 n=65 v=100
148585 On ch=1 n=65 v=0
148629 On ch=1 n=74 v=0
148687 On ch=1 n=65 v=84
148741 On ch=1 n=67 v=94
148756 On ch=1 n=65 v=0
148825 On ch=1 n=65 v=89
148898 On ch=1 n=67 v=0
148939 On ch=1 n=64 v=95
149009 On ch=1 n=65 v=0
149089 On ch=1 n=64 v=0
149436 On ch=1 n=82 v=110
149510 Par ch=1 c=64 v=127
149658 Par ch=1 c=64 v=0
149660 On ch=1 n=81 v=100
149701 On ch=1 n=82 v=0
149776 On ch=1 n=82 v=105
149878 On ch=1 n=81 v=0
149910 On ch=1 n=84 v=96
149963 On ch=1 n=82 v=0
150019 On ch=1 n=77 v=96
150093 On ch=1 n=84 v=0
150146 On ch=1 n=81 v=95
150154 On ch=1 n=77 v=0
150265 On ch=1 n=79 v=94
150339 On ch=1 n=81 v=0
150384 On ch=1 n=77 v=89
150481 On ch=1 n=79 v=0
150500 On ch=1 n=76 v=89
150522 On ch=1 n=77 v=0
150583 On ch=1 n=76 v=0
150633 On ch=1 n=77 v=92
150772 On ch=1 n=72 v=63
150865 On ch=1 n=77 v=0
150883 On ch=1 n=74 v=78
150917 On ch=1 n=72 v=0
150998 On ch=1 n=77 v=80
151016 On ch=1 n=74 v=0
151100 Par ch=1 c=64 v=1
151110 Par ch=1 c=64 v=0
151124 On ch=1 n=70 v=97
151232 On ch=1 n=69 v=78
151235 On ch=1 n=70 v=0
151354 On ch=1 n=70 v=102
151407 On ch=1 n=69 v=0
151459 On ch=1 n=77 v=0
151467 On ch=1 n=74 v=89
151516 On ch=1 n=70 v=0
151580 On ch=1 n=77 v=90
151703 On ch=1 n=70 v=98
151737 On ch=1 n=74 v=0
151825 On ch=1 n=77 v=0
151825 On ch=1 n=72 v=96
151873 On ch=1 n=70 v=0
151929 On ch=1 n=77 v=90
152042 On ch=1 n=69 v=98
152144 On ch=1 n=72 v=0
152161 On ch=1 n=67 v=92
152179 On ch=1 n=69 v=0
152212 Par ch=1 c=64 v=127
152275 Par ch=1 c=64 v=0
152284 On ch=1 n=69 v=95
152315 On ch=1 n=67 v=0
152397 On ch=1 n=77 v=0
152397 On ch=1 n=72 v=100
152442 On ch=1 n=69 v=0
152518 On ch=1 n=77 v=100
152630 On ch=1 n=69 v=92
152716 On ch=1 n=72 v=0
152768 On ch=1 n=71 v=99
152770 On ch=1 n=77 v=0
152790 On ch=1 n=69 v=0
152873 On ch=1 n=77 v=103
152937 On ch=1 n=71 v=0
152992 Par ch=1 c=64 v=127
153013 On ch=1 n=67 v=95
153042 On ch=1 n=77 v=0
153122 On ch=1 n=67 v=0
153131 On ch=1 n=65 v=88
153148 Par ch=1 c=64 v=0
153248 On ch=1 n=67 v=103
153251 On ch=1 n=65 v=0
153347 On ch=1 n=67 v=0
153366 On ch=1 n=77 v=109
153499 On ch=1 n=76 v=106
153526 On ch=1 n=77 v=0
153605 On ch=1 n=77 v=103
153663 On ch=1 n=76 v=0
153728 On ch=1 n=79 v=101
153742 On ch=1 n=77 v=0
153837 On ch=1 n=77 v=91
153960 On ch=1 n=76 v=103
153971 On ch=1 n=79 v=0
154024 On ch=1 n=77 v=0
154071 On ch=1 n=74 v=101
154151 On ch=1 n=76 v=0
154202 On ch=1 n=72 v=94
154222 On ch=1 n=74 v=0
154312 On ch=1 n=70 v=108
154351 On ch=1 n=72 v=0
154411 On ch=1 n=70 v=0
154443 On ch=1 n=69 v=98
154559 On ch=1 n=70 v=109
154598 On ch=1 n=69 v=0
154669 On ch=1 n=72 v=101
154704 On ch=1 n=70 v=0
154790 On ch=1 n=65 v=98
154863 On ch=1 n=72 v=0
154889 On ch=1 n=65 v=0
154911 On ch=1 n=69 v=101
155018 On ch=1 n=67 v=102
155108 On ch=1 n=69 v=0
155126 On ch=1 n=65 v=107
155216 On ch=1 n=67 v=0
155230 On ch=1 n=64 v=105
155275 On ch=1 n=65 v=0
155418 On ch=1 n=65 v=118
155427 PrCh ch=1 p=0
155427 Pb ch=1 v=8192
155427 Par ch=1 c=93 v=0
155427 Par ch=1 c=64 v=0
155427 Par ch=1 c=7 v=115
155427 Par ch=1 c=91 v=90
155427 Par ch=1 c=10 v=64
155465 Par ch=1 c=64 v=127
155466 On ch=1 n=64 v=0
155567 On ch=1 n=65 v=0
155666 On ch=1 n=77 v=110
155731 On ch=1 n=77 v=0
155885 Par ch=1 c=64 v=0
155908 On ch=1 n=69 v=102
155912 On ch=1 n=65 v=96
155950 On ch=1 n=65 v=0
155950 On ch=1 n=69 v=0
156141 On ch=1 n=67 v=90
156145 On ch=1 n=70 v=106
156172 On ch=1 n=67 v=0
156192 On ch=1 n=70 v=0
156393 On ch=1 n=72 v=98
156395 On ch=1 n=69 v=89
156878 On ch=1 n=74 v=97
156880 On ch=1 n=70 v=102
156913 On ch=1 n=69 v=0
156918 On ch=1 n=72 v=0
157138 On ch=1 n=70 v=0
157141 Par ch=1 c=64 v=127
157320 On ch=1 n=72 v=100
157322 On ch=1 n=69 v=90
157332 On ch=1 n=65 v=74
157334 On ch=1 n=74 v=0
157397 On ch=1 n=69 v=0
157429 On ch=1 n=72 v=0
157463 Par ch=1 c=64 v=0
157572 On ch=1 n=77 v=116
157792 On ch=1 n=70 v=109
157865 Par ch=1 c=64 v=127
157884 On ch=1 n=77 v=0
158017 On ch=1 n=70 v=0
158023 On ch=1 n=75 v=108
158093 On ch=1 n=75 v=0
158153 On ch=1 n=74 v=110
158224 On ch=1 n=74 v=0
158307 On ch=1 n=74 v=109
158313 On ch=1 n=70 v=110
158339 Par ch=1 c=64 v=0
158535 On ch=1 n=70 v=0
158557 On ch=1 n=72 v=92
158565 On ch=1 n=69 v=76
158605 On ch=1 n=74 v=0
158826 Par ch=1 c=64 v=127
158862 On ch=1 n=69 v=0
158877 On ch=1 n=72 v=0
158900 On ch=1 n=65 v=0
158900 Par ch=1 c=64 v=0
159501 On ch=1 n=84 v=107
159506 Par ch=1 c=64 v=127
159560 On ch=1 n=84 v=0
159735 On ch=1 n=76 v=101
159736 On ch=1 n=72 v=91
159759 Par ch=1 c=64 v=0
159763 On ch=1 n=76 v=0
159770 On ch=1 n=72 v=0
159983 On ch=1 n=77 v=100
159985 On ch=1 n=74 v=95
160018 On ch=1 n=74 v=0
160035 On ch=1 n=77 v=0
160256 On ch=1 n=79 v=102
160257 On ch=1 n=76 v=98
160711 On ch=1 n=81 v=95
160716 On ch=1 n=77 v=91
160753 On ch=1 n=76 v=0
160761 On ch=1 n=79 v=0
160980 On ch=1 n=77 v=0
161053 Par ch=1 c=64 v=127
161175 On ch=1 n=79 v=101
161177 On ch=1 n=76 v=102
161182 On ch=1 n=72 v=89
161204 On ch=1 n=81 v=0
161239 On ch=1 n=76 v=0
161274 On ch=1 n=79 v=0
161331 Par ch=1 c=64 v=0
161428 On ch=1 n=84 v=113
161658 On ch=1 n=77 v=98
161775 On ch=1 n=84 v=0
161830 Par ch=1 c=64 v=127
161882 On ch=1 n=82 v=109
161889 On ch=1 n=77 v=0
161945 On ch=1 n=82 v=0
161954 On ch=1 n=72 v=0
161989 On ch=1 n=81 v=107
162065 On ch=1 n=81 v=0
162169 On ch=1 n=81 v=107
162172 On ch=1 n=77 v=96
162176 On ch=1 n=72 v=90
162207 Par ch=1 c=64 v=0
162407 On ch=1 n=79 v=92
162410 On ch=1 n=76 v=92
162432 On ch=1 n=77 v=0
162480 On ch=1 n=81 v=0
162549 Par ch=1 c=64 v=127
162599 On ch=1 n=72 v=0
162603 On ch=1 n=79 v=0
162606 On ch=1 n=76 v=0
162694 Par ch=1 c=64 v=0
162772 On ch=1 n=72 v=79
162869 On ch=1 n=70 v=97
162956 On ch=1 n=72 v=0
162957 On ch=1 n=69 v=86
162969 On ch=1 n=70 v=0
163065 On ch=1 n=70 v=113
163068 On ch=1 n=69 v=0
163102 On ch=1 n=70 v=0
163319 On ch=1 n=79 v=105
163453 Par ch=1 c=64 v=127
163499 On ch=1 n=79 v=0
163683 On ch=1 n=70 v=100
163792 On ch=1 n=69 v=90
163809 Par ch=1 c=64 v=0
163913 On ch=1 n=67 v=90
163920 On ch=1 n=70 v=0
163955 On ch=1 n=69 v=0
164041 On ch=1 n=69 v=96
164056 On ch=1 n=67 v=0
164145 On ch=1 n=67 v=92
164226 On ch=1 n=69 v=0
164274 On ch=1 n=65 v=87
164294 On ch=1 n=67 v=0
164392 On ch=1 n=67 v=96
164413 On ch=1 n=65 v=0
164522 On ch=1 n=69 v=95
164580 On ch=1 n=67 v=0
164634 On ch=1 n=70 v=108
164697 On ch=1 n=69 v=0
164740 On ch=1 n=70 v=0
164746 On ch=1 n=72 v=103
164843 On ch=1 n=72 v=0
164852 On ch=1 n=74 v=110
164932 On ch=1 n=74 v=0
164981 On ch=1 n=75 v=122
165026 On ch=1 n=75 v=0
165233 On ch=1 n=84 v=111
165363 Par ch=1 c=64 v=127
165420 On ch=1 n=84 v=0
165617 On ch=1 n=75 v=111
165730 On ch=1 n=74 v=94
165824 On ch=1 n=72 v=100
165860 Par ch=1 c=64 v=0
165870 On ch=1 n=74 v=0
165872 On ch=1 n=75 v=0
165949 On ch=1 n=74 v=104
165961 On ch=1 n=72 v=0
166057 On ch=1 n=72 v=97
166060 On ch=1 n=74 v=0
166192 On ch=1 n=70 v=106
166204 On ch=1 n=72 v=0
166305 On ch=1 n=72 v=94
166309 On ch=1 n=70 v=0
166438 On ch=1 n=74 v=108
166452 On ch=1 n=72 v=0
166546 On ch=1 n=75 v=116
166599 On ch=1 n=74 v=0
166658 On ch=1 n=77 v=106
166661 On ch=1 n=75 v=0
166755 On ch=1 n=79 v=110
166763 On ch=1 n=77 v=0
166849 On ch=1 n=79 v=0
166889 On ch=1 n=80 v=114
166969 Par ch=1 c=64 v=127
166994 On ch=1 n=79 v=86
167009 On ch=1 n=80 v=0
167071 On ch=1 n=77 v=94
167099 On ch=1 n=79 v=0
167105 Par ch=1 c=64 v=0
167157 On ch=1 n=77 v=0
167163 On ch=1 n=79 v=98
167190 On ch=1 n=77 v=42
167241 On ch=1 n=77 v=0
167414 Par ch=1 c=64 v=127
167512 On ch=1 n=77 v=92
167566 Par ch=1 c=64 v=0
167587 On ch=1 n=76 v=104
167591 On ch=1 n=79 v=0
167608 On ch=1 n=77 v=0
167668 On ch=1 n=77 v=108
167669 On ch=1 n=76 v=0
167925 Par ch=1 c=64 v=127
167997 On ch=1 n=76 v=92
168053 On ch=1 n=77 v=0
168068 On ch=1 n=74 v=100
168082 On ch=1 n=76 v=0
168090 Par ch=1 c=64 v=0
168109 Par ch=1 c=64 v=1
168129 Par ch=1 c=64 v=0
168145 On ch=1 n=74 v=0
168146 On ch=1 n=76 v=111
168486 Par ch=1 c=64 v=127
168486 On ch=1 n=79 v=101
168493 On ch=1 n=76 v=0
168602 On ch=1 n=76 v=94
168649 On ch=1 n=79 v=0
168710 On ch=1 n=72 v=96
168748 On ch=1 n=76 v=0
168827 Par ch=1 c=64 v=0
168844 On ch=1 n=70 v=95
168866 On ch=1 n=72 v=0
168953 On ch=1 n=79 v=76
168955 On ch=1 n=70 v=0
169093 On ch=1 n=76 v=74
169137 On ch=1 n=79 v=0
169199 On ch=1 n=72 v=79
169231 On ch=1 n=76 v=0
169313 On ch=1 n=72 v=0
169323 On ch=1 n=70 v=86
169417 On ch=1 n=70 v=0
169446 On ch=1 n=79 v=72
169593 On ch=1 n=76 v=76
169599 On ch=1 n=79 v=0
169721 On ch=1 n=72 v=63
169777 On ch=1 n=76 v=0
169835 On ch=1 n=70 v=84
169841 On ch=1 n=72 v=0
169918 On ch=1 n=70 v=0
169940 On ch=1 n=79 v=78
170074 On ch=1 n=76 v=68
170117 On ch=1 n=79 v=0
170185 On ch=1 n=72 v=71
170228 On ch=1 n=76 v=0
170309 On ch=1 n=70 v=92
170315 On ch=1 n=72 v=0
170381 Par ch=1 c=64 v=127
170403 On ch=1 n=70 v=0
170414 On ch=1 n=79 v=81
170544 On ch=1 n=76 v=73
170637 On ch=1 n=79 v=0
170643 On ch=1 n=72 v=83
170709 On ch=1 n=76 v=0
170768 On ch=1 n=69 v=75
170784 On ch=1 n=72 v=0
170791 Par ch=1 c=64 v=0
170847 On ch=1 n=69 v=0
170875 On ch=1 n=81 v=92
171007 On ch=1 n=77 v=82
171068 On ch=1 n=81 v=0
171127 On ch=1 n=73 v=98
171174 On ch=1 n=77 v=0
171233 On ch=1 n=73 v=0
171253 On ch=1 n=72 v=76
171343 On ch=1 n=72 v=0
171346 On ch=1 n=81 v=82
171475 On ch=1 n=77 v=78
171513 On ch=1 n=81 v=0
171580 On ch=1 n=73 v=96
171610 On ch=1 n=77 v=0
171665 On ch=1 n=73 v=0
171708 On ch=1 n=72 v=65
171798 On ch=1 n=81 v=80
171801 On ch=1 n=72 v=0
171937 On ch=1 n=77 v=78
172021 On ch=1 n=81 v=0
172062 On ch=1 n=73 v=96
172168 On ch=1 n=77 v=0
172178 On ch=1 n=73 v=0
172221 On ch=1 n=72 v=78
172307 Par ch=1 c=64 v=127
172331 On ch=1 n=72 v=0
172340 On ch=1 n=81 v=82
172484 On ch=1 n=77 v=72
172505 On ch=1 n=81 v=0
172620 On ch=1 n=75 v=93
172666 On ch=1 n=77 v=0
172726 On ch=1 n=75 v=0
172729 Par ch=1 c=64 v=0
172744 On ch=1 n=74 v=80
172830 On ch=1 n=74 v=0
172845 On ch=1 n=83 v=76
172937 On ch=1 n=83 v=0
172954 On ch=1 n=80 v=93
173050 On ch=1 n=77 v=88
173103 On ch=1 n=80 v=0
173147 On ch=1 n=77 v=0
173172 On ch=1 n=74 v=77
173247 On ch=1 n=74 v=0
173275 On ch=1 n=83 v=86
173385 On ch=1 n=83 v=0
173403 On ch=1 n=80 v=95
173510 On ch=1 n=77 v=88
173575 On ch=1 n=80 v=0
173636 On ch=1 n=77 v=0
173648 On ch=1 n=74 v=85
173742 On ch=1 n=74 v=0
173748 On ch=1 n=83 v=89
173861 On ch=1 n=83 v=0
173881 On ch=1 n=80 v=97
173992 On ch=1 n=77 v=91
174056 On ch=1 n=80 v=0
174095 On ch=1 n=77 v=0
174121 On ch=1 n=74 v=91
174226 On ch=1 n=83 v=94
174235 On ch=1 n=74 v=0
174363 On ch=1 n=80 v=104
174391 On ch=1 n=83 v=0
174475 On ch=1 n=77 v=96
174543 On ch=1 n=80 v=0
174570 On ch=1 n=77 v=0
174609 On ch=1 n=76 v=95
174697 Par ch=1 c=64 v=127
174702 On ch=1 n=76 v=0
174725 On ch=1 n=84 v=101
174824 On ch=1 n=84 v=0
174847 On ch=1 n=79 v=92
174903 Par ch=1 c=64 v=0
174953 On ch=1 n=76 v=93
174997 On ch=1 n=79 v=0
175040 On ch=1 n=76 v=0
175071 On ch=1 n=72 v=86
175143 On ch=1 n=72 v=0
175184 On ch=1 n=76 v=85
175259 On ch=1 n=76 v=0
175313 On ch=1 n=74 v=93
175387 On ch=1 n=74 v=0
175423 On ch=1 n=77 v=86
175511 On ch=1 n=77 v=0
175550 On ch=1 n=76 v=96
175633 On ch=1 n=76 v=0
175673 Par ch=1 c=64 v=127
175675 On ch=1 n=79 v=87
175802 On ch=1 n=76 v=90
175826 On ch=1 n=79 v=0
175930 Par ch=1 c=64 v=0
175934 On ch=1 n=72 v=93
175978 On ch=1 n=76 v=0
176028 On ch=1 n=72 v=0
176070 On ch=1 n=67 v=83
176152 On ch=1 n=67 v=0
176185 On ch=1 n=70 v=85
176242 On ch=1 n=70 v=0
176309 On ch=1 n=69 v=80
176400 On ch=1 n=72 v=78
176407 On ch=1 n=69 v=0
176485 On ch=1 n=72 v=0
176526 On ch=1 n=70 v=106
176606 Par ch=1 c=64 v=127
176618 On ch=1 n=70 v=0
176639 On ch=1 n=74 v=91
176756 On ch=1 n=70 v=100
176791 On ch=1 n=74 v=0
176857 On ch=1 n=67 v=87
176867 Par ch=1 c=64 v=0
176910 On ch=1 n=70 v=0
176943 On ch=1 n=67 v=0
176982 On ch=1 n=64 v=83
177079 On ch=1 n=64 v=0
177093 On ch=1 n=67 v=81
177195 On ch=1 n=67 v=0
177242 On ch=1 n=65 v=90
177347 On ch=1 n=69 v=75
177373 On ch=1 n=65 v=0
177497 On ch=1 n=67 v=90
177498 On ch=1 n=69 v=0
177605 Par ch=1 c=64 v=127
177607 On ch=1 n=70 v=103
177636 On ch=1 n=67 v=0
177725 On ch=1 n=67 v=76
177767 On ch=1 n=70 v=0
177778 Par ch=1 c=64 v=0
177857 On ch=1 n=64 v=85
177969 On ch=1 n=67 v=0
177979 On ch=1 n=60 v=98
178027 On ch=1 n=64 v=0
178075 On ch=1 n=60 v=0
178093 On ch=1 n=70 v=98
178175 On ch=1 n=70 v=0
178213 On ch=1 n=69 v=78
178328 On ch=1 n=67 v=81
178356 On ch=1 n=69 v=0
178404 On ch=1 n=67 v=0
178450 On ch=1 n=69 v=105
178565 On ch=1 n=65 v=95
178577 On ch=1 n=69 v=0
178669 On ch=1 n=65 v=0
178699 On ch=1 n=67 v=86
178826 On ch=1 n=69 v=83
178857 On ch=1 n=67 v=0
178963 On ch=1 n=70 v=104
179010 On ch=1 n=69 v=0
179057 On ch=1 n=70 v=0
179076 On ch=1 n=72 v=96
179170 On ch=1 n=72 v=0
179192 On ch=1 n=74 v=94
179304 On ch=1 n=76 v=95
179337 On ch=1 n=74 v=0
179397 On ch=1 n=76 v=0
179439 On ch=1 n=77 v=99
179545 On ch=1 n=76 v=104
179597 On ch=1 n=77 v=0
179655 On ch=1 n=74 v=100
179734 On ch=1 n=76 v=0
179774 On ch=1 n=72 v=97
179800 On ch=1 n=74 v=0
179888 On ch=1 n=84 v=112
179917 On ch=1 n=72 v=0
179945 On ch=1 n=84 v=0
180104 On ch=1 n=69 v=104
180106 On ch=1 n=72 v=104
180106 On ch=1 n=77 v=109
180169 On ch=1 n=69 v=0
180174 On ch=1 n=72 v=0
180209 On ch=1 n=77 v=0
180378 On ch=1 n=77 v=121
180379 On ch=1 n=69 v=114
180382 On ch=1 n=72 v=111
180542 Par ch=1 c=64 v=127
180696 On ch=1 n=72 v=0
180702 On ch=1 n=69 v=0
180855 On ch=1 n=76 v=101
180857 On ch=1 n=67 v=105
180862 On ch=1 n=72 v=100
180899 Par ch=1 c=64 v=0
181019 On ch=1 n=77 v=0
181065 Par ch=1 c=64 v=127
181217 On ch=1 n=67 v=0
181342 On ch=1 n=65 v=106
181352 On ch=1 n=72 v=0
181367 On ch=1 n=76 v=0
181393 Par ch=1 c=64 v=0
181458 On ch=1 n=77 v=110
181687 On ch=1 n=71 v=111
181788 Par ch=1 c=64 v=127
181926 On ch=1 n=65 v=0
181957 On ch=1 n=74 v=97
181992 On ch=1 n=71 v=0
182080 On ch=1 n=72 v=105
182122 On ch=1 n=77 v=0
182123 Par ch=1 c=64 v=0
182180 On ch=1 n=70 v=115
182209 On ch=1 n=74 v=0
182258 On ch=1 n=72 v=0
182298 On ch=1 n=69 v=99
182328 On ch=1 n=70 v=0
182414 On ch=1 n=72 v=99
182447 On ch=1 n=69 v=0
182523 On ch=1 n=77 v=103
182535 On ch=1 n=72 v=0
182639 On ch=1 n=69 v=109
182734 On ch=1 n=69 v=0
182754 On ch=1 n=77 v=0
182764 On ch=1 n=67 v=103
182840 On ch=1 n=67 v=0
182986 On ch=1 n=70 v=114
182988 On ch=1 n=76 v=105
182998 On ch=1 n=72 v=76
183041 On ch=1 n=72 v=0
183049 On ch=1 n=70 v=0
183058 On ch=1 n=76 v=0
183242 On ch=1 n=72 v=97
183242 On ch=1 n=69 v=107
183244 On ch=1 n=77 v=116
183244 On ch=1 n=65 v=117
183278 Par ch=1 c=64 v=127
184107 On ch=1 n=69 v=0
184109 On ch=1 n=65 v=0
184119 On ch=1 n=72 v=0
184152 On ch=1 n=77 v=0
184191 Par ch=1 c=64 v=0
184191 Meta TrkEnd
TrkEnd
MTrk
0 SeqSpec 43 00 01 00
0 Meta TrkName "Piano Left Hand"
0 Meta 0x21 00
20 On ch=1 n=48 v=109
20 On ch=1 n=53 v=110
26 On ch=1 n=41 v=94
32 On ch=1 n=45 v=92
77 On ch=1 n=45 v=0
101 On ch=1 n=53 v=0
106 On ch=1 n=48 v=0
115 On ch=1 n=41 v=0
1199 On ch=1 n=65 v=93
1259 On ch=1 n=65 v=0
1454 On ch=1 n=62 v=94
1486 On ch=1 n=62 v=0
1676 On ch=1 n=58 v=105
1698 On ch=1 n=58 v=0
2130 On ch=1 n=53 v=81
2220 On ch=1 n=53 v=0
2370 On ch=1 n=50 v=78
2467 On ch=1 n=50 v=0
2611 On ch=1 n=46 v=91
2730 On ch=1 n=46 v=0
2890 On ch=1 n=53 v=86
3138 On ch=1 n=41 v=72
3402 On ch=1 n=53 v=0
3405 On ch=1 n=41 v=0
3828 On ch=1 n=60 v=104
3830 On ch=1 n=55 v=99
3833 On ch=1 n=48 v=92
3838 On ch=1 n=52 v=95
4097 On ch=1 n=48 v=0
4101 On ch=1 n=60 v=0
4110 On ch=1 n=55 v=0
4111 On ch=1 n=52 v=0
5053 On ch=1 n=72 v=90
5115 On ch=1 n=72 v=0
5284 On ch=1 n=69 v=86
5313 On ch=1 n=69 v=0
5520 On ch=1 n=65 v=94
5546 On ch=1 n=65 v=0
6005 On ch=1 n=60 v=68
6076 On ch=1 n=60 v=0
6238 On ch=1 n=57 v=52
6276 On ch=1 n=57 v=0
6465 On ch=1 n=53 v=74
6539 On ch=1 n=53 v=0
6753 On ch=1 n=60 v=77
6988 On ch=1 n=48 v=74
7181 On ch=1 n=48 v=0
7197 On ch=1 n=60 v=0
7672 On ch=1 n=60 v=54
7676 On ch=1 n=55 v=54
7686 On ch=1 n=52 v=43
7947 On ch=1 n=55 v=0
7948 On ch=1 n=60 v=0
8006 On ch=1 n=52 v=0
8134 On ch=1 n=55 v=74
8136 On ch=1 n=60 v=82
8141 On ch=1 n=52 v=62
8153 On ch=1 n=48 v=69
8350 On ch=1 n=52 v=0
8353 On ch=1 n=48 v=0
8361 On ch=1 n=55 v=0
8612 On ch=1 n=53 v=89
8622 On ch=1 n=60 v=0
8709 On ch=1 n=53 v=0
8870 On ch=1 n=57 v=82
8964 On ch=1 n=57 v=0
9113 On ch=1 n=60 v=78
9209 On ch=1 n=60 v=0
9345 On ch=1 n=65 v=67
9440 On ch=1 n=65 v=0
9580 On ch=1 n=60 v=73
9580 On ch=1 n=65 v=76
9597 On ch=1 n=57 v=50
9849 On ch=1 n=57 v=0
9866 On ch=1 n=60 v=0
9869 On ch=1 n=65 v=0
10069 On ch=1 n=65 v=90
10073 On ch=1 n=60 v=79
10075 On ch=1 n=57 v=59
10092 On ch=1 n=53 v=51
10153 On ch=1 n=53 v=0
10168 On ch=1 n=57 v=0
10178 On ch=1 n=60 v=0
10269 On ch=1 n=65 v=0
10528 On ch=1 n=58 v=100
10673 On ch=1 n=58 v=0
10789 On ch=1 n=62 v=87
10962 On ch=1 n=62 v=0
11044 On ch=1 n=65 v=72
11134 On ch=1 n=65 v=0
11261 On ch=1 n=70 v=96
11342 On ch=1 n=70 v=0
11462 On ch=1 n=65 v=80
11462 On ch=1 n=71 v=86
11471 On ch=1 n=62 v=82
11529 On ch=1 n=71 v=0
11546 On ch=1 n=65 v=0
11556 On ch=1 n=62 v=0
11994 On ch=1 n=67 v=93
12000 On ch=1 n=62 v=97
12007 On ch=1 n=59 v=87
12066 On ch=1 n=67 v=0
12076 On ch=1 n=62 v=0
12086 On ch=1 n=59 v=0
12475 On ch=1 n=59 v=87
12475 On ch=1 n=62 v=93
12478 On ch=1 n=55 v=82
12536 On ch=1 n=62 v=0
12552 On ch=1 n=59 v=0
12578 On ch=1 n=55 v=0
12942 On ch=1 n=60 v=106
12945 On ch=1 n=55 v=94
12954 On ch=1 n=48 v=97
13205 On ch=1 n=48 v=0
13235 On ch=1 n=55 v=0
13279 On ch=1 n=60 v=0
13662 On ch=1 n=60 v=91
13774 On ch=1 n=62 v=87
13781 On ch=1 n=60 v=0
13855 On ch=1 n=62 v=0
13922 On ch=1 n=64 v=77
13957 On ch=1 n=64 v=0
14158 On ch=1 n=67 v=74
14202 On ch=1 n=67 v=0
14397 On ch=1 n=64 v=86
14431 On ch=1 n=64 v=0
14645 On ch=1 n=60 v=81
14701 On ch=1 n=60 v=0
14884 On ch=1 n=48 v=98
14996 On ch=1 n=48 v=0
15470 On ch=1 n=60 v=94
15578 On ch=1 n=62 v=87
15579 On ch=1 n=60 v=0
15691 On ch=1 n=64 v=82
15706 On ch=1 n=62 v=0
15812 On ch=1 n=64 v=0
15826 On ch=1 n=65 v=88
15859 On ch=1 n=65 v=0
16050 On ch=1 n=69 v=92
16104 On ch=1 n=69 v=0
16275 On ch=1 n=65 v=87
16303 On ch=1 n=65 v=0
16517 On ch=1 n=60 v=89
16591 On ch=1 n=60 v=0
16778 On ch=1 n=48 v=99
16918 On ch=1 n=48 v=0
17533 On ch=1 n=62 v=89
17611 On ch=1 n=62 v=0
17638 On ch=1 n=64 v=82
17716 On ch=1 n=64 v=0
17746 On ch=1 n=65 v=83
17781 On ch=1 n=65 v=0
17985 On ch=1 n=62 v=90
18045 On ch=1 n=62 v=0
18096 On ch=1 n=64 v=89
18174 On ch=1 n=64 v=0
18235 On ch=1 n=65 v=88
18295 On ch=1 n=65 v=0
18465 On ch=1 n=62 v=95
18503 On ch=1 n=62 v=0
18701 On ch=1 n=55 v=96
18737 On ch=1 n=55 v=0
18941 On ch=1 n=59 v=96
18994 On ch=1 n=59 v=0
19196 On ch=1 n=60 v=100
19352 On ch=1 n=60 v=0
19413 On ch=1 n=48 v=98
19483 On ch=1 n=48 v=0
19522 On ch=1 n=50 v=101
19640 On ch=1 n=52 v=90
19647 On ch=1 n=50 v=0
19690 On ch=1 n=52 v=0
19891 On ch=1 n=55 v=88
19925 On ch=1 n=55 v=0
20131 On ch=1 n=60 v=95
20198 On ch=1 n=60 v=0
20378 On ch=1 n=48 v=94
20485 On ch=1 n=48 v=0
20501 On ch=1 n=50 v=96
20631 On ch=1 n=52 v=96
20647 On ch=1 n=50 v=0
20701 On ch=1 n=52 v=0
20876 On ch=1 n=53 v=94
20909 On ch=1 n=53 v=0
21096 On ch=1 n=55 v=101
21166 On ch=1 n=55 v=0
21326 On ch=1 n=48 v=84
21434 On ch=1 n=52 v=90
21445 On ch=1 n=48 v=0
21521 On ch=1 n=52 v=0
21568 On ch=1 n=55 v=98
21630 On ch=1 n=55 v=0
21823 On ch=1 n=57 v=81
21886 On ch=1 n=57 v=0
22084 On ch=1 n=58 v=109
22132 On ch=1 n=58 v=0
22321 On ch=1 n=48 v=110
22424 On ch=1 n=50 v=90
22475 On ch=1 n=48 v=0
22555 On ch=1 n=52 v=100
22585 On ch=1 n=50 v=0
22622 On ch=1 n=52 v=0
22810 On ch=1 n=48 v=79
22880 On ch=1 n=48 v=0
23041 On ch=1 n=53 v=98
23138 On ch=1 n=53 v=0
23146 On ch=1 n=57 v=97
23235 On ch=1 n=57 v=0
23280 On ch=1 n=55 v=89
23402 On ch=1 n=53 v=88
23433 On ch=1 n=55 v=0
23496 On ch=1 n=53 v=0
23541 On ch=1 n=52 v=103
23631 On ch=1 n=52 v=0
23637 On ch=1 n=50 v=102
23741 On ch=1 n=48 v=92
23772 On ch=1 n=50 v=0
23869 On ch=1 n=46 v=106
23920 On ch=1 n=48 v=0
23998 On ch=1 n=45 v=101
24025 On ch=1 n=46 v=0
24105 On ch=1 n=48 v=104
24177 On ch=1 n=45 v=0
24229 On ch=1 n=50 v=111
24276 On ch=1 n=48 v=0
24341 On ch=1 n=52 v=103
24362 On ch=1 n=50 v=0
24429 On ch=1 n=52 v=0
24467 On ch=1 n=53 v=111
24570 On ch=1 n=55 v=96
24614 On ch=1 n=53 v=0
24672 On ch=1 n=57 v=98
24676 On ch=1 n=55 v=0
24780 On ch=1 n=58 v=118
24806 On ch=1 n=57 v=0
24883 On ch=1 n=58 v=0
24954 On ch=1 n=60 v=113
25438 On ch=1 n=48 v=109
25530 On ch=1 n=60 v=0
25901 On ch=1 n=48 v=0
25916 On ch=1 n=50 v=107
26597 On ch=1 n=50 v=0
26664 On ch=1 n=52 v=91
26772 On ch=1 n=52 v=0
26875 On ch=1 n=53 v=103
26994 On ch=1 n=53 v=0
27126 On ch=1 n=45 v=104
27198 On ch=1 n=45 v=0
27349 On ch=1 n=46 v=114
27400 On ch=1 n=46 v=0
27580 On ch=1 n=48 v=113
27633 On ch=1 n=48 v=0
27832 On ch=1 n=41 v=121
27885 On ch=1 n=41 v=0
28075 On ch=1 n=69 v=74
28082 On ch=1 n=65 v=75
28136 On ch=1 n=65 v=0
28139 On ch=1 n=69 v=0
28330 On ch=1 n=69 v=54
28342 On ch=1 n=65 v=66
28386 On ch=1 n=65 v=0
28392 On ch=1 n=69 v=0
28547 On ch=1 n=69 v=52
28565 On ch=1 n=65 v=62
28619 On ch=1 n=69 v=0
28634 On ch=1 n=65 v=0
28818 On ch=1 n=65 v=39
28826 On ch=1 n=70 v=44
28868 On ch=1 n=70 v=0
28873 On ch=1 n=65 v=0
29048 On ch=1 n=65 v=49
29050 On ch=1 n=70 v=55
29108 On ch=1 n=70 v=0
29112 On ch=1 n=65 v=0
29268 On ch=1 n=70 v=67
29274 On ch=1 n=65 v=54
29328 On ch=1 n=65 v=0
29328 On ch=1 n=70 v=0
29498 On ch=1 n=70 v=66
29502 On ch=1 n=65 v=55
29562 On ch=1 n=70 v=0
29563 On ch=1 n=65 v=0
29728 On ch=1 n=65 v=57
29728 On ch=1 n=70 v=74
29799 On ch=1 n=70 v=0
29809 On ch=1 n=65 v=0
29970 On ch=1 n=70 v=69
29987 On ch=1 n=65 v=46
30051 On ch=1 n=65 v=0
30058 On ch=1 n=70 v=0
30215 On ch=1 n=69 v=55
30224 On ch=1 n=65 v=48
30274 On ch=1 n=65 v=0
30283 On ch=1 n=69 v=0
30445 On ch=1 n=69 v=45
30461 On ch=1 n=65 v=54
30507 On ch=1 n=69 v=0
30523 On ch=1 n=65 v=0
30700 On ch=1 n=67 v=56
30715 On ch=1 n=65 v=45
30755 On ch=1 n=67 v=0
30765 On ch=1 n=65 v=0
30922 On ch=1 n=67 v=56
30932 On ch=1 n=65 v=42
30984 On ch=1 n=65 v=0
30984 On ch=1 n=67 v=0
31188 On ch=1 n=67 v=60
31202 On ch=1 n=64 v=51
31253 On ch=1 n=67 v=0
31261 On ch=1 n=64 v=0
31421 On ch=1 n=67 v=50
31427 On ch=1 n=64 v=44
31481 On ch=1 n=67 v=0
31507 On ch=1 n=64 v=0
31645 On ch=1 n=65 v=67
31858 On ch=1 n=53 v=96
31861 On ch=1 n=65 v=0
31982 On ch=1 n=55 v=81
31992 On ch=1 n=53 v=0
32120 On ch=1 n=57 v=78
32134 On ch=1 n=55 v=0
32200 On ch=1 n=57 v=0
32363 On ch=1 n=53 v=76
32407 On ch=1 n=53 v=0
32611 On ch=1 n=65 v=78
32622 On ch=1 n=60 v=62
32667 On ch=1 n=65 v=0
32671 On ch=1 n=60 v=0
32844 On ch=1 n=60 v=71
32846 On ch=1 n=64 v=65
32899 On ch=1 n=64 v=0
32920 On ch=1 n=60 v=0
33072 On ch=1 n=60 v=57
33072 On ch=1 n=65 v=66
33119 On ch=1 n=65 v=0
33129 On ch=1 n=60 v=0
33311 On ch=1 n=69 v=74
33322 On ch=1 n=60 v=64
33367 On ch=1 n=69 v=0
33378 On ch=1 n=60 v=0
33567 On ch=1 n=67 v=70
33576 On ch=1 n=60 v=54
33624 On ch=1 n=67 v=0
33633 On ch=1 n=60 v=0
33823 On ch=1 n=65 v=62
33825 On ch=1 n=60 v=61
33886 On ch=1 n=65 v=0
33896 On ch=1 n=60 v=0
34068 On ch=1 n=60 v=64
34071 On ch=1 n=64 v=54
34126 On ch=1 n=64 v=0
34136 On ch=1 n=60 v=0
34296 On ch=1 n=60 v=64
34296 On ch=1 n=65 v=79
34357 On ch=1 n=65 v=0
34367 On ch=1 n=60 v=0
34547 On ch=1 n=60 v=36
34551 On ch=1 n=65 v=52
34596 On ch=1 n=60 v=0
34626 On ch=1 n=65 v=0
34768 On ch=1 n=64 v=62
34776 On ch=1 n=60 v=54
34853 On ch=1 n=60 v=0
34858 On ch=1 n=64 v=0
35012 On ch=1 n=65 v=70
35019 On ch=1 n=60 v=54
35076 On ch=1 n=60 v=0
35080 On ch=1 n=65 v=0
35241 On ch=1 n=69 v=74
35251 On ch=1 n=60 v=61
35304 On ch=1 n=69 v=0
35311 On ch=1 n=60 v=0
35473 On ch=1 n=67 v=74
35494 On ch=1 n=60 v=48
35537 On ch=1 n=67 v=0
35554 On ch=1 n=60 v=0
35719 On ch=1 n=65 v=74
35730 On ch=1 n=60 v=55
35789 On ch=1 n=60 v=0
35791 On ch=1 n=65 v=0
35950 On ch=1 n=60 v=67
35958 On ch=1 n=64 v=59
36011 On ch=1 n=64 v=0
36020 On ch=1 n=60 v=0
36156 On ch=1 n=67 v=75
36179 On ch=1 n=60 v=48
36231 On ch=1 n=60 v=0
36233 On ch=1 n=67 v=0
36431 On ch=1 n=65 v=64
36437 On ch=1 n=60 v=56
36491 On ch=1 n=65 v=0
36495 On ch=1 n=60 v=0
36674 On ch=1 n=65 v=48
36680 On ch=1 n=60 v=51
36736 On ch=1 n=65 v=0
36742 On ch=1 n=60 v=0
36930 On ch=1 n=65 v=48
36934 On ch=1 n=60 v=47
36994 On ch=1 n=65 v=0
36999 On ch=1 n=60 v=0
37187 On ch=1 n=65 v=50
37196 On ch=1 n=60 v=52
37237 On ch=1 n=65 v=0
37246 On ch=1 n=60 v=0
37429 On ch=1 n=65 v=56
37430 On ch=1 n=60 v=51
37489 On ch=1 n=65 v=0
37495 On ch=1 n=60 v=0
37659 On ch=1 n=60 v=51
37661 On ch=1 n=65 v=60
37724 On ch=1 n=60 v=0
37725 On ch=1 n=65 v=0
37905 On ch=1 n=64 v=50
37906 On ch=1 n=60 v=49
37974 On ch=1 n=60 v=0
37975 On ch=1 n=64 v=0
38131 On ch=1 n=64 v=45
38145 On ch=1 n=60 v=48
38181 On ch=1 n=64 v=0
38195 On ch=1 n=60 v=0
38359 On ch=1 n=60 v=65
38362 On ch=1 n=62 v=64
38407 On ch=1 n=62 v=0
38421 On ch=1 n=60 v=0
38592 On ch=1 n=62 v=54
38596 On ch=1 n=60 v=44
38650 On ch=1 n=62 v=0
38654 On ch=1 n=60 v=0
38859 On ch=1 n=62 v=61
38869 On ch=1 n=59 v=49
38909 On ch=1 n=62 v=0
38919 On ch=1 n=59 v=0
39096 On ch=1 n=62 v=56
39100 On ch=1 n=59 v=46
39143 On ch=1 n=62 v=0
39160 On ch=1 n=59 v=0
39311 On ch=1 n=60 v=73
39515 On ch=1 n=60 v=0
39539 On ch=1 n=48 v=92
39676 On ch=1 n=50 v=80
39684 On ch=1 n=48 v=0
39818 On ch=1 n=50 v=0
39823 On ch=1 n=52 v=72
39920 On ch=1 n=52 v=0
40047 On ch=1 n=48 v=73
40092 On ch=1 n=48 v=0
40269 On ch=1 n=53 v=78
40366 On ch=1 n=53 v=0
40367 On ch=1 n=55 v=72
40484 On ch=1 n=57 v=72
40505 On ch=1 n=55 v=0
40626 On ch=1 n=60 v=78
40629 On ch=1 n=57 v=0
40771 On ch=1 n=60 v=0
40792 On ch=1 n=65 v=75
40857 On ch=1 n=65 v=0
41016 On ch=1 n=50 v=77
41065 On ch=1 n=50 v=0
41251 On ch=1 n=55 v=85
41356 On ch=1 n=57 v=80
41394 On ch=1 n=55 v=0
41474 On ch=1 n=59 v=84
41516 On ch=1 n=57 v=0
41601 On ch=1 n=62 v=91
41615 On ch=1 n=59 v=0
41740 On ch=1 n=67 v=83
41777 On ch=1 n=62 v=0
41823 On ch=1 n=67 v=0
41987 On ch=1 n=52 v=88
42034 On ch=1 n=52 v=0
42235 On ch=1 n=57 v=91
42341 On ch=1 n=59 v=75
42401 On ch=1 n=57 v=0
42455 On ch=1 n=60 v=87
42495 On ch=1 n=59 v=0
42578 On ch=1 n=64 v=85
42597 On ch=1 n=60 v=0
42705 On ch=1 n=69 v=85
42747 On ch=1 n=64 v=0
42785 On ch=1 n=69 v=0
42935 On ch=1 n=60 v=67
42939 On ch=1 n=57 v=67
43013 On ch=1 n=60 v=0
43034 On ch=1 n=57 v=0
43184 On ch=1 n=59 v=73
43194 On ch=1 n=62 v=65
43234 On ch=1 n=62 v=0
43249 On ch=1 n=59 v=0
43420 On ch=1 n=55 v=73
43420 On ch=1 n=59 v=64
43485 On ch=1 n=59 v=0
43527 On ch=1 n=55 v=0
43648 On ch=1 n=59 v=68
43650 On ch=1 n=62 v=80
43717 On ch=1 n=62 v=0
43734 On ch=1 n=59 v=0
43886 On ch=1 n=65 v=79
43888 On ch=1 n=62 v=78
43932 On ch=1 n=65 v=0
43946 On ch=1 n=62 v=0
44107 On ch=1 n=59 v=73
44108 On ch=1 n=62 v=98
44206 On ch=1 n=62 v=0
44215 On ch=1 n=59 v=0
44353 On ch=1 n=59 v=86
44354 On ch=1 n=55 v=91
44456 On ch=1 n=59 v=0
44490 On ch=1 n=55 v=0
44611 On ch=1 n=59 v=90
44617 On ch=1 n=62 v=95
44697 On ch=1 n=62 v=0
44750 On ch=1 n=59 v=0
44852 On ch=1 n=65 v=79
44856 On ch=1 n=62 v=73
44898 On ch=1 n=62 v=0
44900 On ch=1 n=65 v=0
45081 On ch=1 n=67 v=101
45088 On ch=1 n=60 v=96
45148 On ch=1 n=67 v=0
45195 On ch=1 n=65 v=93
45238 On ch=1 n=60 v=0
45327 On ch=1 n=64 v=87
45357 On ch=1 n=65 v=0
45439 On ch=1 n=62 v=92
45489 On ch=1 n=64 v=0
45530 On ch=1 n=62 v=0
45683 On ch=1 n=59 v=100
45802 On ch=1 n=57 v=86
45817 On ch=1 n=59 v=0
45925 On ch=1 n=55 v=78
45980 On ch=1 n=57 v=0
46051 On ch=1 n=54 v=99
46078 On ch=1 n=55 v=0
46137 On ch=1 n=54 v=0
46174 On ch=1 n=52 v=95
46248 On ch=1 n=52 v=0
46288 On ch=1 n=50 v=103
46413 On ch=1 n=48 v=102
46441 On ch=1 n=50 v=0
46485 On ch=1 n=48 v=0
46523 On ch=1 n=47 v=101
46627 On ch=1 n=45 v=107
46645 On ch=1 n=47 v=0
46768 On ch=1 n=43 v=79
46784 On ch=1 n=45 v=0
46864 On ch=1 n=42 v=101
46900 On ch=1 n=43 v=0
46925 On ch=1 n=42 v=0
47011 On ch=1 n=43 v=101
47263 On ch=1 n=50 v=101
47313 On ch=1 n=43 v=0
47501 On ch=1 n=55 v=91
47510 On ch=1 n=50 v=0
47728 On ch=1 n=47 v=91
47970 On ch=1 n=48 v=91
48005 On ch=1 n=55 v=0
48032 On ch=1 n=47 v=0
48038 On ch=1 n=48 v=0
48184 On ch=1 n=40 v=98
48414 On ch=1 n=40 v=0
48434 On ch=1 n=41 v=90
48667 On ch=1 n=43 v=92
48694 On ch=1 n=47 v=85
48744 On ch=1 n=41 v=0
48841 On ch=1 n=43 v=0
48896 On ch=1 n=48 v=107
48926 On ch=1 n=47 v=0
48947 On ch=1 n=48 v=0
49058 On ch=1 n=60 v=111
49158 On ch=1 n=60 v=0
49170 On ch=1 n=59 v=108
49292 On ch=1 n=57 v=107
49333 On ch=1 n=59 v=0
49376 On ch=1 n=57 v=0
49421 On ch=1 n=55 v=110
49501 On ch=1 n=55 v=0
49536 On ch=1 n=53 v=104
49641 On ch=1 n=52 v=89
49650 On ch=1 n=53 v=0
49753 On ch=1 n=50 v=80
49781 On ch=1 n=52 v=0
49861 On ch=1 n=48 v=107
49885 On ch=1 n=50 v=0
49926 On ch=1 n=48 v=0
49977 On ch=1 n=48 v=112
50060 On ch=1 n=48 v=0
50125 On ch=1 n=47 v=113
50249 On ch=1 n=45 v=113
50290 On ch=1 n=47 v=0
50347 On ch=1 n=45 v=0
50399 On ch=1 n=43 v=111
50479 On ch=1 n=43 v=0
50509 On ch=1 n=41 v=111
50589 On ch=1 n=41 v=0
50637 On ch=1 n=40 v=101
50749 On ch=1 n=38 v=104
50764 On ch=1 n=40 v=0
50831 On ch=1 n=38 v=0
50894 On ch=1 n=36 v=121
50937 On ch=1 n=36 v=0
51134 On ch=1 n=60 v=109
51187 On ch=1 n=60 v=0
51363 On ch=1 n=57 v=100
51402 On ch=1 n=57 v=0
51598 On ch=1 n=53 v=100
51631 On ch=1 n=53 v=0
51828 On ch=1 n=48 v=87
52056 On ch=1 n=43 v=93
52191 On ch=1 n=43 v=0
52275 On ch=1 n=40 v=92
52492 On ch=1 n=40 v=0
52502 On ch=1 n=36 v=98
52686 On ch=1 n=48 v=0
52734 On ch=1 n=36 v=0
52754 On ch=1 n=41 v=111
52886 On ch=1 n=41 v=0
53332 On ch=1 n=58 v=97
53431 On ch=1 n=58 v=0
53447 On ch=1 n=57 v=84
53578 On ch=1 n=55 v=92
53613 On ch=1 n=57 v=0
53691 On ch=1 n=53 v=101
53720 On ch=1 n=55 v=0
53776 On ch=1 n=53 v=0
53818 On ch=1 n=53 v=116
53915 On ch=1 n=53 v=0
53958 On ch=1 n=52 v=114
54092 On ch=1 n=50 v=115
54124 On ch=1 n=52 v=0
54172 On ch=1 n=50 v=0
54225 On ch=1 n=48 v=111
54333 On ch=1 n=46 v=106
54366 On ch=1 n=48 v=0
54443 On ch=1 n=46 v=0
54465 On ch=1 n=45 v=71
54471 On ch=1 n=47 v=84
54500 On ch=1 n=47 v=0
54554 On ch=1 n=43 v=103
54581 On ch=1 n=45 v=0
54641 On ch=1 n=43 v=0
54684 On ch=1 n=41 v=121
54743 On ch=1 n=41 v=0
54934 On ch=1 n=65 v=114
54989 On ch=1 n=65 v=0
55177 On ch=1 n=62 v=93
55233 On ch=1 n=62 v=0
55415 On ch=1 n=58 v=115
55449 On ch=1 n=58 v=0
55661 On ch=1 n=53 v=95
55922 On ch=1 n=48 v=82
56066 On ch=1 n=48 v=0
56150 On ch=1 n=45 v=99
56287 On ch=1 n=45 v=0
56381 On ch=1 n=41 v=100
56618 On ch=1 n=41 v=0
56627 On ch=1 n=53 v=0
56644 On ch=1 n=46 v=113
56810 On ch=1 n=46 v=0
57219 On ch=1 n=63 v=71
57322 On ch=1 n=62 v=74
57324 On ch=1 n=63 v=0
57432 On ch=1 n=60 v=59
57452 On ch=1 n=62 v=0
57586 On ch=1 n=58 v=78
57595 On ch=1 n=60 v=0
57796 On ch=1 n=58 v=0
57815 On ch=1 n=67 v=61
58068 On ch=1 n=67 v=0
58115 On ch=1 n=58 v=92
58221 On ch=1 n=58 v=0
58254 On ch=1 n=57 v=76
58360 On ch=1 n=55 v=91
58368 On ch=1 n=57 v=0
58488 On ch=1 n=57 v=88
58512 On ch=1 n=55 v=0
58708 On ch=1 n=57 v=0
58743 On ch=1 n=65 v=79
59055 On ch=1 n=65 v=0
59088 On ch=1 n=57 v=90
59215 On ch=1 n=55 v=90
59279 On ch=1 n=57 v=0
59340 On ch=1 n=53 v=97
59355 On ch=1 n=55 v=0
59480 On ch=1 n=55 v=102
59547 On ch=1 n=53 v=0
59725 On ch=1 n=64 v=85
59800 On ch=1 n=55 v=0
60061 On ch=1 n=62 v=101
60092 On ch=1 n=64 v=0
60178 On ch=1 n=61 v=106
60189 On ch=1 n=62 v=0
60317 On ch=1 n=62 v=96
60362 On ch=1 n=61 v=0
60422 On ch=1 n=55 v=87
60436 On ch=1 n=62 v=0
60542 On ch=1 n=62 v=95
60665 On ch=1 n=61 v=106
60724 On ch=1 n=62 v=0
60807 On ch=1 n=64 v=103
60818 On ch=1 n=61 v=0
60861 On ch=1 n=55 v=0
60883 On ch=1 n=64 v=0
60921 On ch=1 n=57 v=79
60987 On ch=1 n=57 v=0
61041 On ch=1 n=55 v=101
61112 On ch=1 n=55 v=0
61178 On ch=1 n=53 v=101
61240 On ch=1 n=53 v=0
61302 On ch=1 n=52 v=105
61369 On ch=1 n=52 v=0
61419 On ch=1 n=53 v=104
61478 On ch=1 n=53 v=0
61667 On ch=1 n=55 v=78
61736 On ch=1 n=55 v=0
61906 On ch=1 n=53 v=82
61955 On ch=1 n=53 v=0
62141 On ch=1 n=52 v=70
62207 On ch=1 n=52 v=0
62359 On ch=1 n=50 v=87
62438 On ch=1 n=50 v=0
62597 On ch=1 n=58 v=87
62656 On ch=1 n=58 v=0
62838 On ch=1 n=57 v=84
62910 On ch=1 n=57 v=0
63083 On ch=1 n=55 v=85
63143 On ch=1 n=55 v=0
63311 On ch=1 n=53 v=81
63402 On ch=1 n=53 v=0
63571 On ch=1 n=55 v=75
63627 On ch=1 n=55 v=0
63833 On ch=1 n=53 v=87
63913 On ch=1 n=53 v=0
64085 On ch=1 n=52 v=72
64161 On ch=1 n=52 v=0
64286 On ch=1 n=50 v=83
64426 On ch=1 n=50 v=0
64538 On ch=1 n=58 v=96
64587 On ch=1 n=58 v=0
64751 On ch=1 n=57 v=78
64992 On ch=1 n=55 v=89
64997 On ch=1 n=57 v=0
65043 On ch=1 n=55 v=0
65244 On ch=1 n=53 v=101
65349 On ch=1 n=61 v=103
65378 On ch=1 n=53 v=0
65457 On ch=1 n=61 v=0
65481 On ch=1 n=62 v=87
65586 On ch=1 n=62 v=0
65601 On ch=1 n=64 v=67
65693 On ch=1 n=64 v=0
65734 On ch=1 n=62 v=80
65826 On ch=1 n=62 v=0
65857 On ch=1 n=61 v=93
65941 On ch=1 n=61 v=0
65976 On ch=1 n=62 v=66
66066 On ch=1 n=53 v=86
66088 On ch=1 n=62 v=0
66112 On ch=1 n=53 v=0
66201 On ch=1 n=55 v=103
66300 On ch=1 n=61 v=94
66302 On ch=1 n=55 v=0
66409 On ch=1 n=61 v=0
66429 On ch=1 n=62 v=78
66543 On ch=1 n=62 v=0
66550 On ch=1 n=64 v=67
66641 On ch=1 n=64 v=0
66668 On ch=1 n=62 v=93
66764 On ch=1 n=62 v=0
66796 On ch=1 n=61 v=96
66910 On ch=1 n=61 v=0
66926 On ch=1 n=62 v=82
67038 On ch=1 n=62 v=0
67042 On ch=1 n=55 v=90
67135 On ch=1 n=55 v=0
67174 On ch=1 n=57 v=103
67274 On ch=1 n=61 v=105
67331 On ch=1 n=57 v=0
67403 On ch=1 n=62 v=99
67411 On ch=1 n=61 v=0
67515 On ch=1 n=64 v=92
67517 On ch=1 n=62 v=0
67614 On ch=1 n=64 v=0
67635 On ch=1 n=62 v=96
67751 On ch=1 n=61 v=102
67757 On ch=1 n=62 v=0
67874 On ch=1 n=61 v=0
67878 On ch=1 n=62 v=90
68003 On ch=1 n=57 v=97
68007 On ch=1 n=62 v=0
68098 On ch=1 n=57 v=0
68117 On ch=1 n=58 v=116
68230 On ch=1 n=61 v=114
68266 On ch=1 n=58 v=0
68357 On ch=1 n=61 v=0
68361 On ch=1 n=62 v=101
68468 On ch=1 n=62 v=0
68468 On ch=1 n=64 v=102
68546 On ch=1 n=64 v=0
68594 On ch=1 n=62 v=108
68689 On ch=1 n=62 v=0
68695 On ch=1 n=61 v=115
68826 On ch=1 n=62 v=98
68864 On ch=1 n=61 v=0
68934 On ch=1 n=65 v=99
69007 On ch=1 n=65 v=0
69054 On ch=1 n=62 v=0
69107 On ch=1 n=68 v=127
69109 On ch=1 n=62 v=95
69118 On ch=1 n=59 v=91
69200 On ch=1 n=68 v=0
69214 On ch=1 n=62 v=0
69236 On ch=1 n=59 v=0
69533 On ch=1 n=64 v=105
69537 On ch=1 n=59 v=95
69541 On ch=1 n=56 v=103
69620 On ch=1 n=64 v=0
69647 On ch=1 n=59 v=0
69671 On ch=1 n=56 v=0
70022 On ch=1 n=56 v=110
70022 On ch=1 n=59 v=104
70032 On ch=1 n=52 v=92
70088 On ch=1 n=59 v=0
70115 On ch=1 n=56 v=0
70125 On ch=1 n=52 v=0
70534 On ch=1 n=57 v=120
70536 On ch=1 n=52 v=116
70539 On ch=1 n=45 v=112
70834 On ch=1 n=45 v=0
70856 On ch=1 n=52 v=0
70893 On ch=1 n=57 v=0
71237 On ch=1 n=57 v=85
71351 On ch=1 n=59 v=71
71373 On ch=1 n=57 v=0
71442 On ch=1 n=59 v=0
71490 On ch=1 n=61 v=103
71544 On ch=1 n=61 v=0
71739 On ch=1 n=64 v=77
71785 On ch=1 n=64 v=0
71971 On ch=1 n=61 v=95
71998 On ch=1 n=61 v=0
72212 On ch=1 n=57 v=88
72259 On ch=1 n=57 v=0
72462 On ch=1 n=45 v=98
72575 On ch=1 n=45 v=0
73053 On ch=1 n=57 v=72
73167 On ch=1 n=59 v=64
73209 On ch=1 n=57 v=0
73279 On ch=1 n=61 v=92
73313 On ch=1 n=59 v=0
73395 On ch=1 n=61 v=0
73422 On ch=1 n=62 v=98
73453 On ch=1 n=62 v=0
73670 On ch=1 n=65 v=65
73703 On ch=1 n=65 v=0
73898 On ch=1 n=62 v=66
73934 On ch=1 n=62 v=0
74112 On ch=1 n=57 v=81
74368 On ch=1 n=45 v=95
74523 On ch=1 n=45 v=0
74592 On ch=1 n=57 v=0
75089 On ch=1 n=59 v=73
75191 On ch=1 n=61 v=97
75211 On ch=1 n=59 v=0
75297 On ch=1 n=61 v=0
75324 On ch=1 n=62 v=92
75371 On ch=1 n=62 v=0
75539 On ch=1 n=59 v=84
75678 On ch=1 n=59 v=0
75678 On ch=1 n=61 v=96
75778 On ch=1 n=61 v=0
75802 On ch=1 n=62 v=95
75869 On ch=1 n=62 v=0
76030 On ch=1 n=59 v=94
76085 On ch=1 n=59 v=0
76267 On ch=1 n=52 v=94
76337 On ch=1 n=52 v=0
76522 On ch=1 n=56 v=97
76583 On ch=1 n=56 v=0
76751 On ch=1 n=57 v=78
76985 On ch=1 n=57 v=0
76989 On ch=1 n=45 v=92
77098 On ch=1 n=47 v=82
77130 On ch=1 n=45 v=0
77240 On ch=1 n=49 v=105
77261 On ch=1 n=47 v=0
77300 On ch=1 n=49 v=0
77501 On ch=1 n=52 v=83
77543 On ch=1 n=52 v=0
77739 On ch=1 n=57 v=88
77894 On ch=1 n=57 v=0
77976 On ch=1 n=45 v=88
78072 On ch=1 n=47 v=83
78108 On ch=1 n=45 v=0
78211 On ch=1 n=49 v=107
78239 On ch=1 n=47 v=0
78278 On ch=1 n=49 v=0
78453 On ch=1 n=50 v=101
78514 On ch=1 n=50 v=0
78684 On ch=1 n=52 v=95
78747 On ch=1 n=52 v=0
78920 On ch=1 n=45 v=100
79042 On ch=1 n=49 v=106
79075 On ch=1 n=45 v=0
79185 On ch=1 n=52 v=101
79191 On ch=1 n=49 v=0
79360 On ch=1 n=52 v=0
79394 On ch=1 n=53 v=94
79455 On ch=1 n=53 v=0
79626 On ch=1 n=55 v=101
79703 On ch=1 n=55 v=0
79877 On ch=1 n=45 v=108
79969 On ch=1 n=47 v=77
80056 On ch=1 n=45 v=0
80119 On ch=1 n=49 v=113
80169 On ch=1 n=47 v=0
80223 On ch=1 n=49 v=0
80362 On ch=1 n=45 v=97
80459 On ch=1 n=45 v=0
80597 On ch=1 n=50 v=102
80703 On ch=1 n=50 v=0
80720 On ch=1 n=53 v=99
80830 On ch=1 n=52 v=96
80846 On ch=1 n=53 v=0
80938 On ch=1 n=50 v=84
80986 On ch=1 n=52 v=0
81073 On ch=1 n=49 v=105
81121 On ch=1 n=50 v=0
81147 On ch=1 n=49 v=0
81196 On ch=1 n=47 v=93
81286 On ch=1 n=47 v=0
81305 On ch=1 n=45 v=106
81413 On ch=1 n=43 v=106
81455 On ch=1 n=45 v=0
81497 On ch=1 n=43 v=0
81549 On ch=1 n=41 v=116
81658 On ch=1 n=45 v=97
81720 On ch=1 n=41 v=0
81784 On ch=1 n=47 v=86
81846 On ch=1 n=45 v=0
81928 On ch=1 n=49 v=114
81973 On ch=1 n=47 v=0
82052 On ch=1 n=50 v=108
82056 On ch=1 n=49 v=0
82162 On ch=1 n=52 v=109
82186 On ch=1 n=50 v=0
82276 On ch=1 n=53 v=109
82313 On ch=1 n=52 v=0
82384 On ch=1 n=55 v=108
82402 On ch=1 n=53 v=0
82505 On ch=1 n=55 v=0
82516 On ch=1 n=57 v=111
83004 On ch=1 n=45 v=109
83103 On ch=1 n=57 v=0
83441 On ch=1 n=45 v=0
83475 On ch=1 n=46 v=104
84160 On ch=1 n=49 v=110
84217 On ch=1 n=46 v=0
84254 On ch=1 n=49 v=0
84389 On ch=1 n=50 v=100
84501 On ch=1 n=50 v=0
84661 On ch=1 n=41 v=109
84755 On ch=1 n=41 v=0
84915 On ch=1 n=43 v=112
84982 On ch=1 n=43 v=0
85138 On ch=1 n=45 v=121
85186 On ch=1 n=45 v=0
85409 On ch=1 n=38 v=126
85552 On ch=1 n=38 v=0
85674 On ch=1 n=50 v=92
85768 On ch=1 n=52 v=80
85800 On ch=1 n=50 v=0
85883 On ch=1 n=53 v=81
85901 On ch=1 n=52 v=0
85981 On ch=1 n=53 v=0
85997 On ch=1 n=55 v=69
86073 On ch=1 n=55 v=0
86094 On ch=1 n=57 v=67
86169 On ch=1 n=57 v=0
86371 On ch=1 n=64 v=66
86378 On ch=1 n=61 v=79
86491 On ch=1 n=64 v=0
86537 On ch=1 n=61 v=0
86620 On ch=1 n=57 v=47
86773 On ch=1 n=57 v=0
86850 On ch=1 n=65 v=57
86860 On ch=1 n=62 v=39
86982 On ch=1 n=62 v=0
87046 On ch=1 n=65 v=0
87078 On ch=1 n=57 v=49
87280 On ch=1 n=57 v=0
87281 On ch=1 n=64 v=62
87292 On ch=1 n=61 v=63
87374 On ch=1 n=61 v=0
87410 On ch=1 n=64 v=0
87519 On ch=1 n=57 v=65
87650 On ch=1 n=59 v=70
87656 On ch=1 n=57 v=0
87794 On ch=1 n=61 v=79
87812 On ch=1 n=59 v=0
87895 On ch=1 n=62 v=71
87920 On ch=1 n=61 v=0
88014 On ch=1 n=62 v=0
88034 On ch=1 n=64 v=45
88101 On ch=1 n=64 v=0
88137 On ch=1 n=61 v=63
88231 On ch=1 n=61 v=0
88287 On ch=1 n=62 v=49
88287 On ch=1 n=65 v=52
88385 On ch=1 n=62 v=0
88414 On ch=1 n=65 v=0
88521 On ch=1 n=57 v=42
88700 On ch=1 n=57 v=0
88731 On ch=1 n=64 v=59
88743 On ch=1 n=61 v=62
88850 On ch=1 n=61 v=0
88971 On ch=1 n=57 v=69
88991 On ch=1 n=64 v=0
89030 On ch=1 n=57 v=0
89207 On ch=1 n=62 v=79
89231 On ch=1 n=65 v=60
89290 On ch=1 n=62 v=0
89327 On ch=1 n=65 v=0
89334 On ch=1 n=67 v=75
89422 On ch=1 n=67 v=0
89456 On ch=1 n=65 v=72
89578 On ch=1 n=64 v=72
89593 On ch=1 n=65 v=0
89710 On ch=1 n=62 v=79
89718 On ch=1 n=64 v=0
89833 On ch=1 n=64 v=86
89858 On ch=1 n=62 v=0
89944 On ch=1 n=64 v=0
89950 On ch=1 n=65 v=75
90051 On ch=1 n=65 v=0
90066 On ch=1 n=62 v=74
90156 On ch=1 n=62 v=0
90198 On ch=1 n=67 v=69
90216 On ch=1 n=64 v=53
90377 On ch=1 n=64 v=0
90380 On ch=1 n=67 v=0
90441 On ch=1 n=57 v=58
90609 On ch=1 n=57 v=0
90649 On ch=1 n=65 v=63
90659 On ch=1 n=62 v=56
90830 On ch=1 n=62 v=0
90835 On ch=1 n=65 v=0
90907 On ch=1 n=57 v=67
91125 On ch=1 n=61 v=84
91129 On ch=1 n=57 v=0
91134 On ch=1 n=64 v=65
91226 On ch=1 n=61 v=0
91258 On ch=1 n=62 v=81
91265 On ch=1 n=64 v=0
91373 On ch=1 n=61 v=95
91409 On ch=1 n=62 v=0
91498 On ch=1 n=59 v=78
91500 On ch=1 n=61 v=0
91583 On ch=1 n=59 v=0
91636 On ch=1 n=57 v=84
91721 On ch=1 n=57 v=0
91742 On ch=1 n=55 v=88
91868 On ch=1 n=53 v=78
91869 On ch=1 n=55 v=0
91977 On ch=1 n=53 v=0
91983 On ch=1 n=52 v=62
92083 On ch=1 n=50 v=90
92099 On ch=1 n=52 v=0
92155 On ch=1 n=50 v=0
92193 On ch=1 n=62 v=76
92266 On ch=1 n=62 v=0
92308 On ch=1 n=64 v=62
92415 On ch=1 n=64 v=0
92450 On ch=1 n=65 v=70
92508 On ch=1 n=65 v=0
92566 On ch=1 n=55 v=86
92644 On ch=1 n=55 v=0
92678 On ch=1 n=65 v=78
92810 On ch=1 n=65 v=0
92820 On ch=1 n=64 v=79
92922 On ch=1 n=64 v=0
92925 On ch=1 n=62 v=83
92958 On ch=1 n=62 v=0
93082 On ch=1 n=48 v=105
93150 On ch=1 n=48 v=0
93192 On ch=1 n=60 v=80
93241 On ch=1 n=60 v=0
93316 On ch=1 n=62 v=80
93428 On ch=1 n=62 v=0
93457 On ch=1 n=64 v=42
93502 On ch=1 n=64 v=0
93583 On ch=1 n=53 v=92
93677 On ch=1 n=53 v=0
93687 On ch=1 n=63 v=90
93809 On ch=1 n=63 v=0
93814 On ch=1 n=62 v=92
93911 On ch=1 n=60 v=94
93917 On ch=1 n=62 v=0
93941 On ch=1 n=60 v=0
94041 On ch=1 n=46 v=116
94093 On ch=1 n=46 v=0
94134 On ch=1 n=58 v=99
94164 On ch=1 n=58 v=0
94262 On ch=1 n=60 v=80
94340 On ch=1 n=60 v=0
94354 On ch=1 n=62 v=85
94399 On ch=1 n=62 v=0
94482 On ch=1 n=51 v=101
94665 On ch=1 n=51 v=0
94703 On ch=1 n=57 v=80
94885 On ch=1 n=57 v=0
94939 On ch=1 n=50 v=79
95132 On ch=1 n=50 v=0
95178 On ch=1 n=55 v=77
95394 On ch=1 n=55 v=0
95428 On ch=1 n=48 v=68
95640 On ch=1 n=48 v=0
95687 On ch=1 n=53 v=64
95859 On ch=1 n=53 v=0
95920 On ch=1 n=46 v=76
96179 On ch=1 n=50 v=75
96181 On ch=1 n=46 v=0
96423 On ch=1 n=50 v=0
96435 On ch=1 n=55 v=70
96696 On ch=1 n=55 v=0
96715 On ch=1 n=51 v=82
96883 On ch=1 n=51 v=0
96936 On ch=1 n=53 v=84
97164 On ch=1 n=48 v=85
97169 On ch=1 n=53 v=0
97334 On ch=1 n=48 v=0
97401 On ch=1 n=45 v=76
97620 On ch=1 n=41 v=81
97624 On ch=1 n=45 v=0
97817 On ch=1 n=41 v=0
97862 On ch=1 n=46 v=96
98103 On ch=1 n=34 v=114
98123 On ch=1 n=46 v=0
98165 On ch=1 n=34 v=0
99095 On ch=1 n=70 v=86
99153 On ch=1 n=70 v=0
99346 On ch=1 n=67 v=85
99389 On ch=1 n=67 v=0
99576 On ch=1 n=63 v=104
99596 On ch=1 n=63 v=0
100042 On ch=1 n=58 v=96
100252 On ch=1 n=58 v=0
100252 On ch=1 n=55 v=90
100436 On ch=1 n=55 v=0
100484 On ch=1 n=51 v=101
100548 On ch=1 n=51 v=0
100761 On ch=1 n=58 v=105
100864 On ch=1 n=60 v=105
100865 On ch=1 n=58 v=0
100934 On ch=1 n=60 v=0
100994 On ch=1 n=62 v=95
101064 On ch=1 n=62 v=0
101103 On ch=1 n=60 v=96
101165 On ch=1 n=60 v=0
101248 On ch=1 n=58 v=101
101360 On ch=1 n=57 v=69
101372 On ch=1 n=58 v=0
101472 On ch=1 n=57 v=0
101484 On ch=1 n=58 v=95
101590 On ch=1 n=58 v=0
101609 On ch=1 n=55 v=95
101659 On ch=1 n=55 v=0
101741 On ch=1 n=48 v=103
101819 On ch=1 n=48 v=0
101833 On ch=1 n=55 v=94
101900 On ch=1 n=55 v=0
101974 On ch=1 n=60 v=76
102049 On ch=1 n=60 v=0
102086 On ch=1 n=58 v=87
102135 On ch=1 n=58 v=0
102221 On ch=1 n=57 v=94
102292 On ch=1 n=57 v=0
102318 On ch=1 n=55 v=85
102438 On ch=1 n=55 v=0
102441 On ch=1 n=57 v=85
102544 On ch=1 n=57 v=0
102547 On ch=1 n=53 v=95
102595 On ch=1 n=53 v=0
102694 On ch=1 n=46 v=120
102799 On ch=1 n=53 v=80
102806 On ch=1 n=46 v=0
102876 On ch=1 n=53 v=0
102917 On ch=1 n=58 v=90
102988 On ch=1 n=58 v=0
103014 On ch=1 n=57 v=78
103152 On ch=1 n=55 v=91
103190 On ch=1 n=57 v=0
103250 On ch=1 n=53 v=77
103287 On ch=1 n=55 v=0
103390 On ch=1 n=55 v=78
103396 On ch=1 n=53 v=0
103505 On ch=1 n=51 v=104
103512 On ch=1 n=55 v=0
103542 On ch=1 n=51 v=0
103648 On ch=1 n=45 v=113
103744 On ch=1 n=51 v=101
103760 On ch=1 n=45 v=0
103827 On ch=1 n=51 v=0
103871 On ch=1 n=57 v=85
103941 On ch=1 n=57 v=0
103973 On ch=1 n=55 v=86
104056 On ch=1 n=55 v=0
104103 On ch=1 n=54 v=103
104197 On ch=1 n=52 v=85
104242 On ch=1 n=54 v=0
104341 On ch=1 n=54 v=100
104365 On ch=1 n=52 v=0
104435 On ch=1 n=50 v=91
104468 On ch=1 n=54 v=0
104493 On ch=1 n=50 v=0
104591 On ch=1 n=43 v=115
104707 On ch=1 n=50 v=89
104715 On ch=1 n=43 v=0
104774 On ch=1 n=50 v=0
104835 On ch=1 n=55 v=56
104922 On ch=1 n=55 v=0
104955 On ch=1 n=57 v=65
105058 On ch=1 n=55 v=81
105094 On ch=1 n=57 v=0
105154 On ch=1 n=55 v=0
105179 On ch=1 n=53 v=90
105304 On ch=1 n=51 v=93
105328 On ch=1 n=53 v=0
105419 On ch=1 n=50 v=76
105470 On ch=1 n=51 v=0
105554 On ch=1 n=48 v=100
105578 On ch=1 n=50 v=0
105668 On ch=1 n=55 v=94
105689 On ch=1 n=48 v=0
105777 On ch=1 n=55 v=0
105799 On ch=1 n=60 v=90
105885 On ch=1 n=60 v=0
105912 On ch=1 n=62 v=94
106004 On ch=1 n=62 v=0
106032 On ch=1 n=60 v=83
106145 On ch=1 n=58 v=86
106178 On ch=1 n=60 v=0
106283 On ch=1 n=57 v=64
106303 On ch=1 n=58 v=0
106397 On ch=1 n=55 v=70
106433 On ch=1 n=57 v=0
106463 On ch=1 n=55 v=0
106518 On ch=1 n=54 v=107
106608 On ch=1 n=62 v=65
106622 On ch=1 n=54 v=0
106709 On ch=1 n=62 v=0
106735 On ch=1 n=61 v=76
106855 On ch=1 n=61 v=0
106869 On ch=1 n=62 v=81
106923 On ch=1 n=62 v=0
106990 On ch=1 n=50 v=96
107089 On ch=1 n=54 v=93
107099 On ch=1 n=50 v=0
107222 On ch=1 n=54 v=0
107223 On ch=1 n=52 v=86
107317 On ch=1 n=55 v=83
107340 On ch=1 n=52 v=0
107389 On ch=1 n=55 v=0
107451 On ch=1 n=54 v=100
107562 On ch=1 n=54 v=0
107566 On ch=1 n=57 v=70
107623 On ch=1 n=57 v=0
107694 On ch=1 n=50 v=83
107820 On ch=1 n=54 v=71
107864 On ch=1 n=50 v=0
107927 On ch=1 n=55 v=75
107954 On ch=1 n=54 v=0
108047 On ch=1 n=58 v=91
108065 On ch=1 n=55 v=0
108114 On ch=1 n=58 v=0
108167 On ch=1 n=50 v=95
108291 On ch=1 n=55 v=77
108322 On ch=1 n=50 v=0
108421 On ch=1 n=57 v=78
108433 On ch=1 n=55 v=0
108533 On ch=1 n=60 v=84
108535 On ch=1 n=57 v=0
108651 On ch=1 n=57 v=70
108657 On ch=1 n=60 v=0
108758 On ch=1 n=54 v=81
108794 On ch=1 n=57 v=0
108872 On ch=1 n=50 v=81
108923 On ch=1 n=54 v=0
108974 On ch=1 n=50 v=0
108983 On ch=1 n=60 v=82
109114 On ch=1 n=58 v=89
109137 On ch=1 n=60 v=0
109239 On ch=1 n=57 v=78
109248 On ch=1 n=58 v=0
109380 On ch=1 n=58 v=94
109436 On ch=1 n=57 v=0
109490 On ch=1 n=58 v=0
109491 On ch=1 n=62 v=91
109621 On ch=1 n=58 v=87
109636 On ch=1 n=62 v=0
109743 On ch=1 n=58 v=0
109762 On ch=1 n=55 v=82
109807 On ch=1 n=55 v=0
109874 On ch=1 n=50 v=92
109962 On ch=1 n=53 v=87
109989 On ch=1 n=50 v=0
110089 On ch=1 n=53 v=0
110108 On ch=1 n=52 v=78
110224 On ch=1 n=50 v=92
110233 On ch=1 n=52 v=0
110318 On ch=1 n=50 v=0
110358 On ch=1 n=52 v=94
110427 On ch=1 n=52 v=0
110451 On ch=1 n=60 v=86
110551 On ch=1 n=60 v=0
110591 On ch=1 n=59 v=77
110718 On ch=1 n=59 v=0
110725 On ch=1 n=60 v=82
110771 On ch=1 n=60 v=0
110820 On ch=1 n=48 v=100
110935 On ch=1 n=52 v=84
110958 On ch=1 n=48 v=0
111036 On ch=1 n=50 v=87
111087 On ch=1 n=52 v=0
111158 On ch=1 n=53 v=89
111184 On ch=1 n=50 v=0
111225 On ch=1 n=53 v=0
111288 On ch=1 n=52 v=95
111382 On ch=1 n=52 v=0
111397 On ch=1 n=55 v=75
111472 On ch=1 n=55 v=0
111503 On ch=1 n=48 v=81
111636 On ch=1 n=52 v=82
111658 On ch=1 n=48 v=0
111763 On ch=1 n=53 v=97
111781 On ch=1 n=52 v=0
111880 On ch=1 n=57 v=88
111889 On ch=1 n=53 v=0
111955 On ch=1 n=57 v=0
111994 On ch=1 n=48 v=84
112095 On ch=1 n=53 v=83
112146 On ch=1 n=48 v=0
112228 On ch=1 n=55 v=90
112243 On ch=1 n=53 v=0
112365 On ch=1 n=58 v=106
112393 On ch=1 n=55 v=0
112466 On ch=1 n=55 v=64
112473 On ch=1 n=58 v=0
112585 On ch=1 n=52 v=81
112641 On ch=1 n=55 v=0
112715 On ch=1 n=48 v=91
112760 On ch=1 n=52 v=0
112827 On ch=1 n=48 v=0
112865 On ch=1 n=58 v=103
112951 On ch=1 n=58 v=0
112968 On ch=1 n=57 v=80
113100 On ch=1 n=55 v=90
113111 On ch=1 n=57 v=0
113230 On ch=1 n=57 v=96
113254 On ch=1 n=55 v=0
113334 On ch=1 n=60 v=95
113337 On ch=1 n=57 v=0
113446 On ch=1 n=60 v=0
113464 On ch=1 n=57 v=87
113577 On ch=1 n=53 v=80
113592 On ch=1 n=57 v=0
113678 On ch=1 n=53 v=0
113720 On ch=1 n=48 v=67
113828 On ch=1 n=51 v=100
113857 On ch=1 n=48 v=0
113948 On ch=1 n=50 v=89
113958 On ch=1 n=51 v=0
114044 On ch=1 n=48 v=87
114066 On ch=1 n=50 v=0
114187 On ch=1 n=50 v=101
114191 On ch=1 n=48 v=0
114279 On ch=1 n=50 v=0
114299 On ch=1 n=53 v=90
114412 On ch=1 n=53 v=0
114422 On ch=1 n=50 v=82
114530 On ch=1 n=46 v=99
114572 On ch=1 n=50 v=0
114659 On ch=1 n=46 v=0
114673 On ch=1 n=43 v=93
114789 On ch=1 n=46 v=109
114805 On ch=1 n=43 v=0
114920 On ch=1 n=45 v=80
114939 On ch=1 n=46 v=0
115015 On ch=1 n=43 v=82
115054 On ch=1 n=45 v=0
115153 On ch=1 n=48 v=96
115165 On ch=1 n=43 v=0
115248 On ch=1 n=48 v=0
115250 On ch=1 n=52 v=94
115345 On ch=1 n=52 v=0
115359 On ch=1 n=48 v=95
115449 On ch=1 n=45 v=88
115492 On ch=1 n=48 v=0
115594 On ch=1 n=41 v=101
115617 On ch=1 n=45 v=0
115718 On ch=1 n=45 v=101
115729 On ch=1 n=41 v=0
115839 On ch=1 n=43 v=86
115860 On ch=1 n=45 v=0
115965 On ch=1 n=41 v=103
115987 On ch=1 n=43 v=0
116103 On ch=1 n=46 v=105
116109 On ch=1 n=41 v=0
116338 On ch=1 n=46 v=0
116349 On ch=1 n=48 v=86
116567 On ch=1 n=48 v=0
116570 On ch=1 n=50 v=87
116827 On ch=1 n=46 v=92
116887 On ch=1 n=50 v=0
116934 On ch=1 n=46 v=0
117066 On ch=1 n=48 v=84
117254 On ch=1 n=48 v=0
117286 On ch=1 n=50 v=95
117506 On ch=1 n=50 v=0
117529 On ch=1 n=52 v=73
117729 On ch=1 n=52 v=0
117752 On ch=1 n=48 v=82
117806 On ch=1 n=48 v=0
118031 On ch=1 n=36 v=62
118090 On ch=1 n=36 v=0
118275 On ch=1 n=45 v=54
118332 On ch=1 n=45 v=0
118505 On ch=1 n=46 v=68
118608 On ch=1 n=46 v=0
118741 On ch=1 n=50 v=69
118791 On ch=1 n=50 v=0
119004 On ch=1 n=36 v=69
119070 On ch=1 n=36 v=0
119250 On ch=1 n=46 v=74
119302 On ch=1 n=46 v=0
119506 On ch=1 n=48 v=58
119608 On ch=1 n=48 v=0
119728 On ch=1 n=52 v=70
119768 On ch=1 n=52 v=0
119960 On ch=1 n=36 v=89
120027 On ch=1 n=36 v=0
120196 On ch=1 n=48 v=86
120254 On ch=1 n=48 v=0
120423 On ch=1 n=50 v=82
120628 On ch=1 n=50 v=0
120649 On ch=1 n=53 v=85
120698 On ch=1 n=53 v=0
120893 On ch=1 n=36 v=108
120959 On ch=1 n=36 v=0
121138 On ch=1 n=50 v=105
121215 On ch=1 n=50 v=0
121373 On ch=1 n=52 v=82
121587 On ch=1 n=52 v=0
121602 On ch=1 n=55 v=84
121664 On ch=1 n=55 v=0
121860 On ch=1 n=36 v=113
122170 On ch=1 n=36 v=0
123081 On ch=1 n=69 v=49
123091 On ch=1 n=65 v=49
123155 On ch=1 n=65 v=0
123155 On ch=1 n=69 v=0
123317 On ch=1 n=69 v=44
123331 On ch=1 n=65 v=44
123391 On ch=1 n=65 v=0
123391 On ch=1 n=69 v=0
123528 On ch=1 n=69 v=43
123547 On ch=1 n=65 v=47
123600 On ch=1 n=69 v=0
123605 On ch=1 n=65 v=0
123768 On ch=1 n=67 v=50
123774 On ch=1 n=64 v=46
123842 On ch=1 n=67 v=0
123845 On ch=1 n=64 v=0
124017 On ch=1 n=67 v=38
124027 On ch=1 n=64 v=38
124088 On ch=1 n=67 v=0
124096 On ch=1 n=64 v=0
124252 On ch=1 n=67 v=41
124258 On ch=1 n=64 v=47
124325 On ch=1 n=67 v=0
124335 On ch=1 n=64 v=0
124485 On ch=1 n=67 v=45
124494 On ch=1 n=64 v=40
124563 On ch=1 n=67 v=0
124573 On ch=1 n=64 v=0
124975 On ch=1 n=62 v=48
124975 On ch=1 n=65 v=48
125030 On ch=1 n=65 v=0
125032 On ch=1 n=62 v=0
125193 On ch=1 n=65 v=48
125202 On ch=1 n=62 v=54
125257 On ch=1 n=65 v=0
125258 On ch=1 n=62 v=0
125436 On ch=1 n=62 v=35
125438 On ch=1 n=65 v=36
125492 On ch=1 n=65 v=0
125499 On ch=1 n=62 v=0
125667 On ch=1 n=63 v=58
125671 On ch=1 n=60 v=57
125733 On ch=1 n=63 v=0
125747 On ch=1 n=60 v=0
125929 On ch=1 n=60 v=53
125934 On ch=1 n=63 v=46
126001 On ch=1 n=60 v=0
126005 On ch=1 n=63 v=0
126174 On ch=1 n=63 v=68
126184 On ch=1 n=60 v=63
126258 On ch=1 n=63 v=0
126270 On ch=1 n=60 v=0
126410 On ch=1 n=63 v=65
126427 On ch=1 n=60 v=59
126496 On ch=1 n=63 v=0
126520 On ch=1 n=60 v=0
126923 On ch=1 n=62 v=64
126941 On ch=1 n=58 v=70
126982 On ch=1 n=62 v=0
126989 On ch=1 n=58 v=0
127166 On ch=1 n=62 v=50
127171 On ch=1 n=58 v=65
127213 On ch=1 n=62 v=0
127231 On ch=1 n=58 v=0
127377 On ch=1 n=62 v=54
127396 On ch=1 n=58 v=55
127431 On ch=1 n=62 v=0
127447 On ch=1 n=58 v=0
127617 On ch=1 n=60 v=61
127626 On ch=1 n=57 v=45
127673 On ch=1 n=60 v=0
127676 On ch=1 n=57 v=0
127846 On ch=1 n=57 v=57
127848 On ch=1 n=60 v=56
127897 On ch=1 n=60 v=0
127914 On ch=1 n=57 v=0
128074 On ch=1 n=57 v=62
128084 On ch=1 n=60 v=54
128133 On ch=1 n=60 v=0
128144 On ch=1 n=57 v=0
128319 On ch=1 n=60 v=60
128324 On ch=1 n=57 v=48
128485 On ch=1 n=57 v=0
128493 On ch=1 n=60 v=0
128712 On ch=1 n=62 v=84
128818 On ch=1 n=62 v=0
128828 On ch=1 n=64 v=68
128941 On ch=1 n=65 v=76
128951 On ch=1 n=64 v=0
129029 On ch=1 n=65 v=0
129061 On ch=1 n=55 v=71
129152 On ch=1 n=64 v=73
129178 On ch=1 n=55 v=0
129227 On ch=1 n=64 v=0
129271 On ch=1 n=53 v=76
129350 On ch=1 n=53 v=0
129354 On ch=1 n=62 v=78
129420 On ch=1 n=62 v=0
129468 On ch=1 n=52 v=81
129711 On ch=1 n=52 v=0
129761 On ch=1 n=60 v=70
129898 On ch=1 n=60 v=0
130563 On ch=1 n=55 v=82
130716 On ch=1 n=55 v=0
130730 On ch=1 n=53 v=93
130863 On ch=1 n=53 v=0
130870 On ch=1 n=52 v=76
130982 On ch=1 n=60 v=98
130996 On ch=1 n=52 v=0
131098 On ch=1 n=60 v=0
131119 On ch=1 n=52 v=91
131200 On ch=1 n=52 v=0
131261 On ch=1 n=62 v=93
131332 On ch=1 n=62 v=0
131351 On ch=1 n=50 v=81
131443 On ch=1 n=50 v=0
131463 On ch=1 n=64 v=97
131681 On ch=1 n=64 v=0
131693 On ch=1 n=48 v=92
132183 On ch=1 n=48 v=0
132539 On ch=1 n=65 v=90
132615 On ch=1 n=65 v=0
132658 On ch=1 n=64 v=85
132780 On ch=1 n=62 v=95
132799 On ch=1 n=64 v=0
132850 On ch=1 n=62 v=0
132907 On ch=1 n=60 v=98
133003 On ch=1 n=60 v=0
133023 On ch=1 n=58 v=101
133094 On ch=1 n=58 v=0
133153 On ch=1 n=57 v=85
133274 On ch=1 n=55 v=85
133285 On ch=1 n=57 v=0
133353 On ch=1 n=55 v=0
133406 On ch=1 n=53 v=112
133464 On ch=1 n=53 v=0
133516 On ch=1 n=53 v=98
133629 On ch=1 n=51 v=114
133632 On ch=1 n=53 v=0
133692 On ch=1 n=51 v=0
133737 On ch=1 n=50 v=111
133798 On ch=1 n=50 v=0
133857 On ch=1 n=48 v=111
133969 On ch=1 n=46 v=108
133979 On ch=1 n=48 v=0
134049 On ch=1 n=46 v=0
134088 On ch=1 n=45 v=87
134203 On ch=1 n=45 v=0
134203 On ch=1 n=43 v=91
134273 On ch=1 n=43 v=0
134342 On ch=1 n=41 v=122
134406 On ch=1 n=41 v=0
134449 On ch=1 n=53 v=95
134530 On ch=1 n=53 v=0
134576 On ch=1 n=48 v=94
134676 On ch=1 n=48 v=0
134686 On ch=1 n=45 v=85
134761 On ch=1 n=45 v=0
134815 On ch=1 n=41 v=116
134872 On ch=1 n=41 v=0
134925 On ch=1 n=53 v=97
135029 On ch=1 n=53 v=0
135051 On ch=1 n=51 v=85
135165 On ch=1 n=51 v=0
135173 On ch=1 n=53 v=92
135241 On ch=1 n=53 v=0
135301 On ch=1 n=46 v=116
135394 On ch=1 n=46 v=0
135415 On ch=1 n=50 v=100
135537 On ch=1 n=53 v=100
135558 On ch=1 n=50 v=0
135639 On ch=1 n=53 v=0
135656 On ch=1 n=57 v=86
135724 On ch=1 n=57 v=0
135788 On ch=1 n=58 v=106
135893 On ch=1 n=58 v=0
135896 On ch=1 n=62 v=92
136067 On ch=1 n=62 v=0
136265 On ch=1 n=67 v=115
136321 On ch=1 n=67 v=0
136378 On ch=1 n=67 v=91
136449 On ch=1 n=67 v=0
136498 On ch=1 n=65 v=91
136623 On ch=1 n=64 v=85
136657 On ch=1 n=65 v=0
136738 On ch=1 n=62 v=101
136781 On ch=1 n=64 v=0
136826 On ch=1 n=62 v=0
136854 On ch=1 n=60 v=103
136939 On ch=1 n=60 v=0
136983 On ch=1 n=59 v=98
137095 On ch=1 n=57 v=85
137126 On ch=1 n=59 v=0
137218 On ch=1 n=55 v=96
137233 On ch=1 n=57 v=0
137279 On ch=1 n=55 v=0
137341 On ch=1 n=55 v=105
137411 On ch=1 n=55 v=0
137465 On ch=1 n=53 v=107
137550 On ch=1 n=53 v=0
137581 On ch=1 n=52 v=104
137636 On ch=1 n=52 v=0
137703 On ch=1 n=50 v=114
137774 On ch=1 n=50 v=0
137819 On ch=1 n=48 v=103
137891 On ch=1 n=48 v=0
137935 On ch=1 n=47 v=95
138037 On ch=1 n=47 v=0
138049 On ch=1 n=45 v=92
138116 On ch=1 n=45 v=0
138181 On ch=1 n=43 v=120
138251 On ch=1 n=43 v=0
138287 On ch=1 n=55 v=98
138377 On ch=1 n=55 v=0
138413 On ch=1 n=50 v=103
138501 On ch=1 n=50 v=0
138521 On ch=1 n=47 v=88
138599 On ch=1 n=47 v=0
138659 On ch=1 n=43 v=116
138713 On ch=1 n=43 v=0
138764 On ch=1 n=55 v=95
138847 On ch=1 n=55 v=0
138893 On ch=1 n=53 v=92
139002 On ch=1 n=53 v=0
139011 On ch=1 n=55 v=94
139075 On ch=1 n=55 v=0
139131 On ch=1 n=48 v=105
139253 On ch=1 n=55 v=95
139276 On ch=1 n=48 v=0
139379 On ch=1 n=57 v=99
139430 On ch=1 n=55 v=0
139508 On ch=1 n=59 v=102
139558 On ch=1 n=57 v=0
139634 On ch=1 n=60 v=102
139661 On ch=1 n=59 v=0
139700 On ch=1 n=60 v=0
139744 On ch=1 n=55 v=85
139862 On ch=1 n=60 v=87
139906 On ch=1 n=55 v=0
139980 On ch=1 n=62 v=95
139990 On ch=1 n=60 v=0
140020 On ch=1 n=62 v=0
140132 On ch=1 n=64 v=74
140134 On ch=1 n=67 v=67
140260 On ch=1 n=67 v=0
140282 On ch=1 n=64 v=0
140347 On ch=1 n=60 v=59
140549 On ch=1 n=60 v=0
140573 On ch=1 n=65 v=54
140573 On ch=1 n=69 v=46
140723 On ch=1 n=69 v=0
140733 On ch=1 n=65 v=0
140805 On ch=1 n=60 v=51
140979 On ch=1 n=60 v=0
141012 On ch=1 n=67 v=49
141036 On ch=1 n=64 v=21
141172 On ch=1 n=64 v=0
141179 On ch=1 n=67 v=0
141255 On ch=1 n=60 v=55
141358 On ch=1 n=62 v=69
141406 On ch=1 n=60 v=0
141509 On ch=1 n=64 v=56
141532 On ch=1 n=62 v=0
141605 On ch=1 n=65 v=69
141626 On ch=1 n=64 v=0
141722 On ch=1 n=65 v=0
141731 On ch=1 n=67 v=53
141807 On ch=1 n=67 v=0
141860 On ch=1 n=64 v=45
141952 On ch=1 n=64 v=0
141987 On ch=1 n=69 v=43
142008 On ch=1 n=65 v=32
142163 On ch=1 n=69 v=0
142179 On ch=1 n=65 v=0
142229 On ch=1 n=60 v=51
142458 On ch=1 n=60 v=0
142486 On ch=1 n=67 v=47
142507 On ch=1 n=64 v=36
142636 On ch=1 n=67 v=0
142660 On ch=1 n=64 v=0
142699 On ch=1 n=60 v=61
142924 On ch=1 n=65 v=57
142924 On ch=1 n=69 v=57
142933 On ch=1 n=60 v=0
143004 On ch=1 n=69 v=0
143004 On ch=1 n=65 v=0
143070 On ch=1 n=70 v=85
143116 On ch=1 n=70 v=0
143173 On ch=1 n=69 v=77
143269 On ch=1 n=69 v=0
143279 On ch=1 n=67 v=80
143396 On ch=1 n=67 v=0
143418 On ch=1 n=65 v=74
143541 On ch=1 n=67 v=78
143546 On ch=1 n=65 v=0
143656 On ch=1 n=67 v=0
143672 On ch=1 n=69 v=67
143759 On ch=1 n=65 v=77
143765 On ch=1 n=69 v=0
143862 On ch=1 n=65 v=0
143929 On ch=1 n=67 v=57
143939 On ch=1 n=70 v=80
144104 On ch=1 n=70 v=0
144122 On ch=1 n=67 v=0
144180 On ch=1 n=60 v=54
144428 On ch=1 n=60 v=0
144429 On ch=1 n=69 v=63
144436 On ch=1 n=65 v=68
144584 On ch=1 n=69 v=0
144634 On ch=1 n=65 v=0
144651 On ch=1 n=60 v=74
144871 On ch=1 n=64 v=77
144929 On ch=1 n=60 v=0
144945 On ch=1 n=64 v=0
144971 On ch=1 n=65 v=99
145104 On ch=1 n=64 v=88
145146 On ch=1 n=65 v=0
145218 On ch=1 n=62 v=83
145254 On ch=1 n=64 v=0
145310 On ch=1 n=62 v=0
145366 On ch=1 n=60 v=80
145471 On ch=1 n=60 v=0
145480 On ch=1 n=58 v=88
145547 On ch=1 n=58 v=0
145600 On ch=1 n=57 v=71
145702 On ch=1 n=57 v=0
145703 On ch=1 n=55 v=69
145806 On ch=1 n=53 v=80
145822 On ch=1 n=55 v=0
145892 On ch=1 n=53 v=0
145947 On ch=1 n=55 v=91
146021 On ch=1 n=55 v=0
146079 On ch=1 n=53 v=73
146176 On ch=1 n=51 v=92
146177 On ch=1 n=53 v=0
146272 On ch=1 n=51 v=0
146317 On ch=1 n=50 v=83
146419 On ch=1 n=48 v=76
146436 On ch=1 n=50 v=0
146513 On ch=1 n=48 v=0
146535 On ch=1 n=46 v=83
146637 On ch=1 n=46 v=0
146643 On ch=1 n=45 v=76
146737 On ch=1 n=45 v=0
146765 On ch=1 n=46 v=114
146878 On ch=1 n=46 v=0
146899 On ch=1 n=53 v=77
147000 On ch=1 n=53 v=0
147031 On ch=1 n=58 v=109
147275 On ch=1 n=58 v=0
147391 On ch=1 n=55 v=102
147448 On ch=1 n=55 v=0
147503 On ch=1 n=53 v=102
147599 On ch=1 n=52 v=81
147614 On ch=1 n=53 v=0
147719 On ch=1 n=53 v=92
147754 On ch=1 n=52 v=0
147832 On ch=1 n=57 v=90
147841 On ch=1 n=53 v=0
147942 On ch=1 n=57 v=0
147985 On ch=1 n=60 v=103
148252 On ch=1 n=60 v=0
148382 On ch=1 n=59 v=100
148475 On ch=1 n=59 v=0
148478 On ch=1 n=57 v=79
148586 On ch=1 n=59 v=90
148633 On ch=1 n=57 v=0
148715 On ch=1 n=60 v=96
148719 On ch=1 n=59 v=0
148774 On ch=1 n=60 v=0
148834 On ch=1 n=55 v=89
148977 On ch=1 n=60 v=99
149034 On ch=1 n=55 v=0
149108 On ch=1 n=62 v=107
149160 On ch=1 n=60 v=0
149247 On ch=1 n=64 v=97
149295 On ch=1 n=62 v=0
149352 On ch=1 n=60 v=94
149373 On ch=1 n=64 v=0
149473 On ch=1 n=62 v=100
149536 On ch=1 n=60 v=0
149584 On ch=1 n=64 v=87
149618 On ch=1 n=64 v=0
149619 On ch=1 n=62 v=0
149700 On ch=1 n=65 v=94
149905 On ch=1 n=65 v=0
149942 On ch=1 n=57 v=62
150166 On ch=1 n=57 v=0
150177 On ch=1 n=58 v=77
150409 On ch=1 n=58 v=0
150412 On ch=1 n=60 v=65
150571 On ch=1 n=60 v=0
150634 On ch=1 n=62 v=60
150744 On ch=1 n=62 v=0
150909 On ch=1 n=58 v=69
151134 On ch=1 n=58 v=0
151157 On ch=1 n=53 v=65
151380 On ch=1 n=62 v=69
151474 On ch=1 n=62 v=0
151546 On ch=1 n=53 v=0
151636 On ch=1 n=60 v=70
151837 On ch=1 n=60 v=0
151858 On ch=1 n=57 v=62
152053 On ch=1 n=57 v=0
152083 On ch=1 n=53 v=65
152312 On ch=1 n=53 v=0
152327 On ch=1 n=60 v=78
152561 On ch=1 n=60 v=0
152563 On ch=1 n=59 v=74
152768 On ch=1 n=59 v=0
152795 On ch=1 n=62 v=79
153014 On ch=1 n=62 v=0
153045 On ch=1 n=59 v=78
153218 On ch=1 n=59 v=0
153279 On ch=1 n=55 v=77
153502 On ch=1 n=55 v=0
153520 On ch=1 n=60 v=91
153716 On ch=1 n=60 v=0
153760 On ch=1 n=48 v=95
153986 On ch=1 n=48 v=0
153998 On ch=1 n=50 v=105
154227 On ch=1 n=52 v=105
154274 On ch=1 n=50 v=0
154428 On ch=1 n=52 v=0
154466 On ch=1 n=53 v=95
154630 On ch=1 n=53 v=0
154696 On ch=1 n=45 v=105
154896 On ch=1 n=45 v=0
154944 On ch=1 n=46 v=109
155154 On ch=1 n=48 v=92
155183 On ch=1 n=46 v=0
155319 On ch=1 n=48 v=0
155445 On ch=1 n=53 v=124
155447 On ch=1 n=48 v=117
155450 On ch=1 n=41 v=107
155450 On ch=1 n=45 v=101
155474 On ch=1 n=48 v=109
155474 On ch=1 n=53 v=110
155480 On ch=1 n=41 v=94
155486 On ch=1 n=45 v=92
155531 On ch=1 n=45 v=0
155555 On ch=1 n=53 v=0
155560 On ch=1 n=48 v=0
155569 On ch=1 n=41 v=0
155734 On ch=1 n=48 v=0
155735 On ch=1 n=45 v=0
155752 On ch=1 n=53 v=0
155758 On ch=1 n=41 v=0
156653 On ch=1 n=65 v=93
156713 On ch=1 n=65 v=0
156908 On ch=1 n=62 v=94
156940 On ch=1 n=62 v=0
157130 On ch=1 n=58 v=105
157152 On ch=1 n=58 v=0
157584 On ch=1 n=53 v=81
157674 On ch=1 n=53 v=0
157824 On ch=1 n=50 v=78
157921 On ch=1 n=50 v=0
158065 On ch=1 n=46 v=91
158184 On ch=1 n=46 v=0
158344 On ch=1 n=53 v=86
158592 On ch=1 n=41 v=72
158856 On ch=1 n=53 v=0
158859 On ch=1 n=41 v=0
159282 On ch=1 n=60 v=104
159284 On ch=1 n=55 v=99
159287 On ch=1 n=48 v=92
159292 On ch=1 n=52 v=95
159551 On ch=1 n=48 v=0
159555 On ch=1 n=60 v=0
159564 On ch=1 n=55 v=0
159565 On ch=1 n=52 v=0
160507 On ch=1 n=72 v=90
160569 On ch=1 n=72 v=0
160738 On ch=1 n=69 v=86
160767 On ch=1 n=69 v=0
160974 On ch=1 n=65 v=94
161000 On ch=1 n=65 v=0
161459 On ch=1 n=60 v=68
161530 On ch=1 n=60 v=0
161692 On ch=1 n=57 v=52
161730 On ch=1 n=57 v=0
161919 On ch=1 n=53 v=74
161993 On ch=1 n=53 v=0
162207 On ch=1 n=60 v=77
162442 On ch=1 n=48 v=74
162635 On ch=1 n=48 v=0
162651 On ch=1 n=60 v=0
163126 On ch=1 n=60 v=54
163130 On ch=1 n=55 v=54
163140 On ch=1 n=52 v=43
163401 On ch=1 n=55 v=0
163402 On ch=1 n=60 v=0
163460 On ch=1 n=52 v=0
163588 On ch=1 n=55 v=74
163590 On ch=1 n=60 v=82
163595 On ch=1 n=52 v=62
163607 On ch=1 n=48 v=69
163804 On ch=1 n=52 v=0
163807 On ch=1 n=48 v=0
163815 On ch=1 n=55 v=0
164066 On ch=1 n=53 v=89
164076 On ch=1 n=60 v=0
164163 On ch=1 n=53 v=0
164324 On ch=1 n=57 v=82
164418 On ch=1 n=57 v=0
164567 On ch=1 n=60 v=78
164663 On ch=1 n=60 v=0
164799 On ch=1 n=65 v=67
164894 On ch=1 n=65 v=0
165034 On ch=1 n=60 v=73
165034 On ch=1 n=65 v=76
165051 On ch=1 n=57 v=50
165303 On ch=1 n=57 v=0
165320 On ch=1 n=60 v=0
165323 On ch=1 n=65 v=0
165523 On ch=1 n=65 v=90
165527 On ch=1 n=60 v=79
165529 On ch=1 n=57 v=59
165546 On ch=1 n=53 v=51
165607 On ch=1 n=53 v=0
165622 On ch=1 n=57 v=0
165632 On ch=1 n=60 v=0
165723 On ch=1 n=65 v=0
165982 On ch=1 n=58 v=100
166127 On ch=1 n=58 v=0
166243 On ch=1 n=62 v=87
166416 On ch=1 n=62 v=0
166498 On ch=1 n=65 v=72
166588 On ch=1 n=65 v=0
166715 On ch=1 n=70 v=96
166796 On ch=1 n=70 v=0
166916 On ch=1 n=65 v=80
166916 On ch=1 n=71 v=86
166925 On ch=1 n=62 v=82
166983 On ch=1 n=71 v=0
167000 On ch=1 n=65 v=0
167010 On ch=1 n=62 v=0
167448 On ch=1 n=67 v=93
167454 On ch=1 n=62 v=97
167461 On ch=1 n=59 v=87
167520 On ch=1 n=67 v=0
167530 On ch=1 n=62 v=0
167540 On ch=1 n=59 v=0
167929 On ch=1 n=59 v=87
167929 On ch=1 n=62 v=93
167932 On ch=1 n=55 v=82
167990 On ch=1 n=62 v=0
168006 On ch=1 n=59 v=0
168032 On ch=1 n=55 v=0
168396 On ch=1 n=60 v=106
168399 On ch=1 n=55 v=94
168408 On ch=1 n=48 v=97
168659 On ch=1 n=48 v=0
168689 On ch=1 n=55 v=0
168733 On ch=1 n=60 v=0
169116 On ch=1 n=60 v=91
169228 On ch=1 n=62 v=87
169235 On ch=1 n=60 v=0
169309 On ch=1 n=62 v=0
169376 On ch=1 n=64 v=77
169411 On ch=1 n=64 v=0
169612 On ch=1 n=67 v=74
169656 On ch=1 n=67 v=0
169851 On ch=1 n=64 v=86
169885 On ch=1 n=64 v=0
170099 On ch=1 n=60 v=81
170155 On ch=1 n=60 v=0
170338 On ch=1 n=48 v=98
170450 On ch=1 n=48 v=0
170924 On ch=1 n=60 v=94
171032 On ch=1 n=62 v=87
171033 On ch=1 n=60 v=0
171145 On ch=1 n=64 v=82
171160 On ch=1 n=62 v=0
171266 On ch=1 n=64 v=0
171280 On ch=1 n=65 v=88
171313 On ch=1 n=65 v=0
171504 On ch=1 n=69 v=92
171558 On ch=1 n=69 v=0
171729 On ch=1 n=65 v=87
171757 On ch=1 n=65 v=0
171971 On ch=1 n=60 v=89
172045 On ch=1 n=60 v=0
172232 On ch=1 n=48 v=99
172372 On ch=1 n=48 v=0
172987 On ch=1 n=62 v=89
173065 On ch=1 n=62 v=0
173092 On ch=1 n=64 v=82
173170 On ch=1 n=64 v=0
173200 On ch=1 n=65 v=83
173235 On ch=1 n=65 v=0
173439 On ch=1 n=62 v=90
173499 On ch=1 n=62 v=0
173550 On ch=1 n=64 v=89
173628 On ch=1 n=64 v=0
173689 On ch=1 n=65 v=88
173749 On ch=1 n=65 v=0
173919 On ch=1 n=62 v=95
173957 On ch=1 n=62 v=0
174155 On ch=1 n=55 v=96
174191 On ch=1 n=55 v=0
174395 On ch=1 n=59 v=96
174448 On ch=1 n=59 v=0
174650 On ch=1 n=60 v=100
174806 On ch=1 n=60 v=0
174867 On ch=1 n=48 v=98
174937 On ch=1 n=48 v=0
174976 On ch=1 n=50 v=101
175094 On ch=1 n=52 v=90
175101 On ch=1 n=50 v=0
175144 On ch=1 n=52 v=0
175345 On ch=1 n=55 v=88
175379 On ch=1 n=55 v=0
175585 On ch=1 n=60 v=95
175652 On ch=1 n=60 v=0
175832 On ch=1 n=48 v=94
175939 On ch=1 n=48 v=0
175955 On ch=1 n=50 v=96
176085 On ch=1 n=52 v=96
176101 On ch=1 n=50 v=0
176155 On ch=1 n=52 v=0
176330 On ch=1 n=53 v=94
176363 On ch=1 n=53 v=0
176550 On ch=1 n=55 v=101
176620 On ch=1 n=55 v=0
176780 On ch=1 n=48 v=84
176888 On ch=1 n=52 v=90
176899 On ch=1 n=48 v=0
176975 On ch=1 n=52 v=0
177022 On ch=1 n=55 v=98
177084 On ch=1 n=55 v=0
177277 On ch=1 n=57 v=81
177340 On ch=1 n=57 v=0
177538 On ch=1 n=58 v=109
177586 On ch=1 n=58 v=0
177775 On ch=1 n=48 v=110
177878 On ch=1 n=50 v=90
177929 On ch=1 n=48 v=0
178009 On ch=1 n=52 v=100
178039 On ch=1 n=50 v=0
178076 On ch=1 n=52 v=0
178264 On ch=1 n=48 v=79
178334 On ch=1 n=48 v=0
178495 On ch=1 n=53 v=98
178592 On ch=1 n=53 v=0
178600 On ch=1 n=57 v=97
178689 On ch=1 n=57 v=0
178734 On ch=1 n=55 v=89
178856 On ch=1 n=53 v=88
178887 On ch=1 n=55 v=0
178950 On ch=1 n=53 v=0
178995 On ch=1 n=52 v=103
179085 On ch=1 n=52 v=0
179091 On ch=1 n=50 v=102
179195 On ch=1 n=48 v=92
179226 On ch=1 n=50 v=0
179323 On ch=1 n=46 v=106
179374 On ch=1 n=48 v=0
179452 On ch=1 n=45 v=101
179479 On ch=1 n=46 v=0
179559 On ch=1 n=48 v=104
179631 On ch=1 n=45 v=0
179683 On ch=1 n=50 v=111
179730 On ch=1 n=48 v=0
179795 On ch=1 n=52 v=103
179816 On ch=1 n=50 v=0
179883 On ch=1 n=52 v=0
179921 On ch=1 n=53 v=111
180024 On ch=1 n=55 v=96
180068 On ch=1 n=53 v=0
180126 On ch=1 n=57 v=98
180130 On ch=1 n=55 v=0
180234 On ch=1 n=58 v=118
180260 On ch=1 n=57 v=0
180337 On ch=1 n=58 v=0
180408 On ch=1 n=60 v=113
180892 On ch=1 n=48 v=109
180984 On ch=1 n=60 v=0
181355 On ch=1 n=48 v=0
181370 On ch=1 n=50 v=107
182051 On ch=1 n=50 v=0
182118 On ch=1 n=52 v=91
182226 On ch=1 n=52 v=0
182329 On ch=1 n=53 v=103
182448 On ch=1 n=53 v=0
182580 On ch=1 n=45 v=104
182652 On ch=1 n=45 v=0
182803 On ch=1 n=46 v=114
182854 On ch=1 n=46 v=0
183034 On ch=1 n=48 v=113
183087 On ch=1 n=48 v=0
183286 On ch=1 n=41 v=121
183294 PoPr ch=1 n=21 v=77
183304 PoPr ch=1 n=21 v=84
183314 PoPr ch=1 n=21 v=65
184134 On ch=1 n=41 v=0
184134 Meta TrkEnd
TrkEnd
MTrk
0 SeqSpec 43 00 01 00
0 Meta TrkName "Piano Right Hand"
0 Meta 0x21 00
0 PrCh ch=13 p=0
0 Par ch=13 c=7 v=125
0 Par ch=13 c=10 v=64
0 Par ch=13 c=64 v=0
0 Par ch=13 c=91 v=90
0 Par ch=13 c=93 v=0
0 Pb ch=13 v=8192
38 Par ch=13 c=64 v=127
239 On ch=13 n=77 v=110
304 On ch=13 n=77 v=0
458 Par ch=13 c=64 v=0
481 On ch=13 n=69 v=102
485 On ch=13 n=65 v=96
523 On ch=13 n=65 v=0
523 On ch=13 n=69 v=0
714 On ch=13 n=67 v=90
718 On ch=13 n=70 v=106
745 On ch=13 n=67 v=0
765 On ch=13 n=70 v=0
966 On ch=13 n=72 v=98
968 On ch=13 n=69 v=89
1451 On ch=13 n=74 v=97
1453 On ch=13 n=70 v=102
1486 On ch=13 n=69 v=0
1491 On ch=13 n=72 v=0
1711 On ch=13 n=70 v=0
1714 Par ch=13 c=64 v=127
1893 On ch=13 n=72 v=100
1895 On ch=13 n=69 v=90
1905 On ch=13 n=65 v=74
1907 On ch=13 n=74 v=0
1970 On ch=13 n=69 v=0
2002 On ch=13 n=72 v=0
2036 Par ch=13 c=64 v=0
2145 On ch=13 n=77 v=116
2365 On ch=13 n=70 v=109
2438 Par ch=13 c=64 v=127
2457 On ch=13 n=77 v=0
2590 On ch=13 n=70 v=0
2596 On ch=13 n=75 v=108
2666 On ch=13 n=75 v=0
2726 On ch=13 n=74 v=110
2797 On ch=13 n=74 v=0
2880 On ch=13 n=74 v=109
2886 On ch=13 n=70 v=110
2912 Par ch=13 c=64 v=0
3108 On ch=13 n=70 v=0
3130 On ch=13 n=72 v=92
3138 On ch=13 n=69 v=76
3178 On ch=13 n=74 v=0
3399 Par ch=13 c=64 v=127
3435 On ch=13 n=69 v=0
3450 On ch=13 n=72 v=0
3473 On ch=13 n=65 v=0
3473 Par ch=13 c=64 v=0
4074 On ch=13 n=84 v=107
4079 Par ch=13 c=64 v=127
4133 On ch=13 n=84 v=0
4308 On ch=13 n=76 v=101
4309 On ch=13 n=72 v=91
4332 Par ch=13 c=64 v=0
4336 On ch=13 n=76 v=0
4343 On ch=13 n=72 v=0
4556 On ch=13 n=77 v=100
4558 On ch=13 n=74 v=95
4591 On ch=13 n=74 v=0
4608 On ch=13 n=77 v=0
4829 On ch=13 n=79 v=102
4830 On ch=13 n=76 v=98
5284 On ch=13 n=81 v=95
5289 On ch=13 n=77 v=91
5326 On ch=13 n=76 v=0
5334 On ch=13 n=79 v=0
5553 On ch=13 n=77 v=0
5626 Par ch=13 c=64 v=127
5748 On ch=13 n=79 v=101
5750 On ch=13 n=76 v=102
5755 On ch=13 n=72 v=89
5777 On ch=13 n=81 v=0
5812 On ch=13 n=76 v=0
5847 On ch=13 n=79 v=0
5904 Par ch=13 c=64 v=0
6001 On ch=13 n=84 v=113
6231 On ch=13 n=77 v=98
6348 On ch=13 n=84 v=0
6403 Par ch=13 c=64 v=127
6455 On ch=13 n=82 v=109
6462 On ch=13 n=77 v=0
6518 On ch=13 n=82 v=0
6527 On ch=13 n=72 v=0
6562 On ch=13 n=81 v=107
6638 On ch=13 n=81 v=0
6742 On ch=13 n=81 v=107
6745 On ch=13 n=77 v=96
6749 On ch=13 n=72 v=90
6780 Par ch=13 c=64 v=0
6980 On ch=13 n=79 v=92
6983 On ch=13 n=76 v=92
7005 On ch=13 n=77 v=0
7053 On ch=13 n=81 v=0
7122 Par ch=13 c=64 v=127
7172 On ch=13 n=72 v=0
7176 On ch=13 n=79 v=0
7179 On ch=13 n=76 v=0
7267 Par ch=13 c=64 v=0
7345 On ch=13 n=72 v=79
7442 On ch=13 n=70 v=97
7529 On ch=13 n=72 v=0
7530 On ch=13 n=69 v=86
7542 On ch=13 n=70 v=0
7638 On ch=13 n=70 v=113
7641 On ch=13 n=69 v=0
7675 On ch=13 n=70 v=0
7892 On ch=13 n=79 v=105
8026 Par ch=13 c=64 v=127
8072 On ch=13 n=79 v=0
8256 On ch=13 n=70 v=100
8365 On ch=13 n=69 v=90
8382 Par ch=13 c=64 v=0
8486 On ch=13 n=67 v=90
8493 On ch=13 n=70 v=0
8528 On ch=13 n=69 v=0
8614 On ch=13 n=69 v=96
8629 On ch=13 n=67 v=0
8718 On ch=13 n=67 v=92
8799 On ch=13 n=69 v=0
8847 On ch=13 n=65 v=87
8867 On ch=13 n=67 v=0
8965 On ch=13 n=67 v=96
8986 On ch=13 n=65 v=0
9095 On ch=13 n=69 v=95
9153 On ch=13 n=67 v=0
9207 On ch=13 n=70 v=108
9270 On ch=13 n=69 v=0
9313 On ch=13 n=70 v=0
9319 On ch=13 n=72 v=103
9416 On ch=13 n=72 v=0
9425 On ch=13 n=74 v=110
9505 On ch=13 n=74 v=0
9554 On ch=13 n=75 v=122
9599 On ch=13 n=75 v=0
9806 On ch=13 n=84 v=111
9936 Par ch=13 c=64 v=127
9993 On ch=13 n=84 v=0
10190 On ch=13 n=75 v=111
10303 On ch=13 n=74 v=94
10397 On ch=13 n=72 v=100
10433 Par ch=13 c=64 v=0
10443 On ch=13 n=74 v=0
10445 On ch=13 n=75 v=0
10522 On ch=13 n=74 v=104
10534 On ch=13 n=72 v=0
10630 On ch=13 n=72 v=97
10633 On ch=13 n=74 v=0
10765 On ch=13 n=70 v=106
10777 On ch=13 n=72 v=0
10878 On ch=13 n=72 v=94
10882 On ch=13 n=70 v=0
11011 On ch=13 n=74 v=108
11025 On ch=13 n=72 v=0
11119 On ch=13 n=75 v=116
11172 On ch=13 n=74 v=0
11231 On ch=13 n=77 v=106
11234 On ch=13 n=75 v=0
11328 On ch=13 n=79 v=110
11336 On ch=13 n=77 v=0
11422 On ch=13 n=79 v=0
11462 On ch=13 n=80 v=114
11542 Par ch=13 c=64 v=127
11567 On ch=13 n=79 v=86
11582 On ch=13 n=80 v=0
11644 On ch=13 n=77 v=94
11672 On ch=13 n=79 v=0
11678 Par ch=13 c=64 v=0
11730 On ch=13 n=77 v=0
11736 On ch=13 n=79 v=98
11763 On ch=13 n=77 v=42
11814 On ch=13 n=77 v=0
11987 Par ch=13 c=64 v=127
12085 On ch=13 n=77 v=92
12139 Par ch=13 c=64 v=0
12160 On ch=13 n=76 v=104
12164 On ch=13 n=79 v=0
12181 On ch=13 n=77 v=0
12241 On ch=13 n=77 v=108
12242 On ch=13 n=76 v=0
12498 Par ch=13 c=64 v=127
12570 On ch=13 n=76 v=92
12626 On ch=13 n=77 v=0
12641 On ch=13 n=74 v=100
12655 On ch=13 n=76 v=0
12663 Par ch=13 c=64 v=0
12682 Par ch=13 c=64 v=1
12702 Par ch=13 c=64 v=0
12718 On ch=13 n=74 v=0
12719 On ch=13 n=76 v=111
13059 Par ch=13 c=64 v=127
13059 On ch=13 n=79 v=101
13066 On ch=13 n=76 v=0
13175 On ch=13 n=76 v=94
13222 On ch=13 n=79 v=0
13283 On ch=13 n=72 v=96
13321 On ch=13 n=76 v=0
13400 Par ch=13 c=64 v=0
13417 On ch=13 n=70 v=95
13439 On ch=13 n=72 v=0
13526 On ch=13 n=79 v=76
13528 On ch=13 n=70 v=0
13666 On ch=13 n=76 v=74
13710 On ch=13 n=79 v=0
13772 On ch=13 n=72 v=79
13804 On ch=13 n=76 v=0
13886 On ch=13 n=72 v=0
13896 On ch=13 n=70 v=86
13990 On ch=13 n=70 v=0
14019 On ch=13 n=79 v=72
14166 On ch=13 n=76 v=76
14172 On ch=13 n=79 v=0
14294 On ch=13 n=72 v=63
14350 On ch=13 n=76 v=0
14408 On ch=13 n=70 v=84
14414 On ch=13 n=72 v=0
14491 On ch=13 n=70 v=0
14513 On ch=13 n=79 v=78
14647 On ch=13 n=76 v=68
14690 On ch=13 n=79 v=0
14758 On ch=13 n=72 v=71
14801 On ch=13 n=76 v=0
14882 On ch=13 n=70 v=92
14888 On ch=13 n=72 v=0
14954 Par ch=13 c=64 v=127
14976 On ch=13 n=70 v=0
14987 On ch=13 n=79 v=81
15117 On ch=13 n=76 v=73
15210 On ch=13 n=79 v=0
15216 On ch=13 n=72 v=83
15282 On ch=13 n=76 v=0
15341 On ch=13 n=69 v=75
15357 On ch=13 n=72 v=0
15364 Par ch=13 c=64 v=0
15420 On ch=13 n=69 v=0
15448 On ch=13 n=81 v=92
15580 On ch=13 n=77 v=82
15641 On ch=13 n=81 v=0
15700 On ch=13 n=73 v=98
15747 On ch=13 n=77 v=0
15806 On ch=13 n=73 v=0
15826 On ch=13 n=72 v=76
15916 On ch=13 n=72 v=0
15919 On ch=13 n=81 v=82
16048 On ch=13 n=77 v=78
16086 On ch=13 n=81 v=0
16153 On ch=13 n=73 v=96
16183 On ch=13 n=77 v=0
16238 On ch=13 n=73 v=0
16281 On ch=13 n=72 v=65
16371 On ch=13 n=81 v=80
16374 On ch=13 n=72 v=0
16510 On ch=13 n=77 v=78
16594 On ch=13 n=81 v=0
16635 On ch=13 n=73 v=96
16741 On ch=13 n=77 v=0
16751 On ch=13 n=73 v=0
16794 On ch=13 n=72 v=78
16880 Par ch=13 c=64 v=127
16904 On ch=13 n=72 v=0
16913 On ch=13 n=81 v=82
17057 On ch=13 n=77 v=72
17078 On ch=13 n=81 v=0
17193 On ch=13 n=75 v=93
17239 On ch=13 n=77 v=0
17299 On ch=13 n=75 v=0
17302 Par ch=13 c=64 v=0
17317 On ch=13 n=74 v=80
17403 On ch=13 n=74 v=0
17418 On ch=13 n=83 v=76
17510 On ch=13 n=83 v=0
17527 On ch=13 n=80 v=93
17623 On ch=13 n=77 v=88
17676 On ch=13 n=80 v=0
17720 On ch=13 n=77 v=0
17745 On ch=13 n=74 v=77
17820 On ch=13 n=74 v=0
17848 On ch=13 n=83 v=86
17958 On ch=13 n=83 v=0
17976 On ch=13 n=80 v=95
18083 On ch=13 n=77 v=88
18148 On ch=13 n=80 v=0
18209 On ch=13 n=77 v=0
18221 On ch=13 n=74 v=85
18315 On ch=13 n=74 v=0
18321 On ch=13 n=83 v=89
18434 On ch=13 n=83 v=0
18454 On ch=13 n=80 v=97
18565 On ch=13 n=77 v=91
18629 On ch=13 n=80 v=0
18668 On ch=13 n=77 v=0
18694 On ch=13 n=74 v=91
18799 On ch=13 n=83 v=94
18808 On ch=13 n=74 v=0
18936 On ch=13 n=80 v=104
18964 On ch=13 n=83 v=0
19048 On ch=13 n=77 v=96
19116 On ch=13 n=80 v=0
19143 On ch=13 n=77 v=0
19182 On ch=13 n=76 v=95
19270 Par ch=13 c=64 v=127
19275 On ch=13 n=76 v=0
19298 On ch=13 n=84 v=101
19397 On ch=13 n=84 v=0
19420 On ch=13 n=79 v=92
19476 Par ch=13 c=64 v=0
19526 On ch=13 n=76 v=93
19570 On ch=13 n=79 v=0
19613 On ch=13 n=76 v=0
19644 On ch=13 n=72 v=86
19716 On ch=13 n=72 v=0
19757 On ch=13 n=76 v=85
19832 On ch=13 n=76 v=0
19886 On ch=13 n=74 v=93
19960 On ch=13 n=74 v=0
19996 On ch=13 n=77 v=86
20084 On ch=13 n=77 v=0
20123 On ch=13 n=76 v=96
20206 On ch=13 n=76 v=0
20246 Par ch=13 c=64 v=127
20248 On ch=13 n=79 v=87
20375 On ch=13 n=76 v=90
20399 On ch=13 n=79 v=0
20503 Par ch=13 c=64 v=0
20507 On ch=13 n=72 v=93
20551 On ch=13 n=76 v=0
20601 On ch=13 n=72 v=0
20643 On ch=13 n=67 v=83
20725 On ch=13 n=67 v=0
20758 On ch=13 n=70 v=85
20815 On ch=13 n=70 v=0
20882 On ch=13 n=69 v=80
20973 On ch=13 n=72 v=78
20980 On ch=13 n=69 v=0
21058 On ch=13 n=72 v=0
21099 On ch=13 n=70 v=106
21179 Par ch=13 c=64 v=127
21191 On ch=13 n=70 v=0
21212 On ch=13 n=74 v=91
21329 On ch=13 n=70 v=100
21364 On ch=13 n=74 v=0
21430 On ch=13 n=67 v=87
21440 Par ch=13 c=64 v=0
21483 On ch=13 n=70 v=0
21516 On ch=13 n=67 v=0
21555 On ch=13 n=64 v=83
21652 On ch=13 n=64 v=0
21666 On ch=13 n=67 v=81
21768 On ch=13 n=67 v=0
21815 On ch=13 n=65 v=90
21920 On ch=13 n=69 v=75
21946 On ch=13 n=65 v=0
22070 On ch=13 n=67 v=90
22071 On ch=13 n=69 v=0
22178 Par ch=13 c=64 v=127
22180 On ch=13 n=70 v=103
22209 On ch=13 n=67 v=0
22298 On ch=13 n=67 v=76
22340 On ch=13 n=70 v=0
22351 Par ch=13 c=64 v=0
22430 On ch=13 n=64 v=85
22542 On ch=13 n=67 v=0
22552 On ch=13 n=60 v=98
22600 On ch=13 n=64 v=0
22648 On ch=13 n=60 v=0
22666 On ch=13 n=70 v=98
22748 On ch=13 n=70 v=0
22786 On ch=13 n=69 v=78
22901 On ch=13 n=67 v=81
22929 On ch=13 n=69 v=0
22977 On ch=13 n=67 v=0
23023 On ch=13 n=69 v=105
23138 On ch=13 n=65 v=95
23150 On ch=13 n=69 v=0
23242 On ch=13 n=65 v=0
23272 On ch=13 n=67 v=86
23399 On ch=13 n=69 v=83
23430 On ch=13 n=67 v=0
23536 On ch=13 n=70 v=104
23583 On ch=13 n=69 v=0
23630 On ch=13 n=70 v=0
23649 On ch=13 n=72 v=96
23743 On ch=13 n=72 v=0
23765 On ch=13 n=74 v=94
23877 On ch=13 n=76 v=95
23910 On ch=13 n=74 v=0
23970 On ch=13 n=76 v=0
24012 On ch=13 n=77 v=99
24118 On ch=13 n=76 v=104
24170 On ch=13 n=77 v=0
24228 On ch=13 n=74 v=100
24307 On ch=13 n=76 v=0
24347 On ch=13 n=72 v=97
24373 On ch=13 n=74 v=0
24461 On ch=13 n=84 v=112
24490 On ch=13 n=72 v=0
24518 On ch=13 n=84 v=0
24677 On ch=13 n=69 v=104
24679 On ch=13 n=72 v=104
24679 On ch=13 n=77 v=109
24742 On ch=13 n=69 v=0
24747 On ch=13 n=72 v=0
24782 On ch=13 n=77 v=0
24951 On ch=13 n=77 v=121
24952 On ch=13 n=69 v=114
24955 On ch=13 n=72 v=111
25115 Par ch=13 c=64 v=127
25269 On ch=13 n=72 v=0
25275 On ch=13 n=69 v=0
25428 On ch=13 n=76 v=101
25430 On ch=13 n=67 v=105
25435 On ch=13 n=72 v=100
25472 Par ch=13 c=64 v=0
25592 On ch=13 n=77 v=0
25638 Par ch=13 c=64 v=127
25790 On ch=13 n=67 v=0
25915 On ch=13 n=65 v=106
25925 On ch=13 n=72 v=0
25940 On ch=13 n=76 v=0
25966 Par ch=13 c=64 v=0
26031 On ch=13 n=77 v=110
26260 On ch=13 n=71 v=111
26361 Par ch=13 c=64 v=127
26499 On ch=13 n=65 v=0
26530 On ch=13 n=74 v=97
26565 On ch=13 n=71 v=0
26653 On ch=13 n=72 v=105
26695 On ch=13 n=77 v=0
26696 Par ch=13 c=64 v=0
26753 On ch=13 n=70 v=115
26782 On ch=13 n=74 v=0
26831 On ch=13 n=72 v=0
26871 On ch=13 n=69 v=99
26901 On ch=13 n=70 v=0
26987 On ch=13 n=72 v=99
27020 On ch=13 n=69 v=0
27096 On ch=13 n=77 v=103
27108 On ch=13 n=72 v=0
27212 On ch=13 n=69 v=109
27307 On ch=13 n=69 v=0
27327 On ch=13 n=77 v=0
27337 On ch=13 n=67 v=103
27413 On ch=13 n=67 v=0
27559 On ch=13 n=70 v=114
27561 On ch=13 n=76 v=105
27571 On ch=13 n=72 v=76
27614 On ch=13 n=72 v=0
27622 On ch=13 n=70 v=0
27631 On ch=13 n=76 v=0
27815 On ch=13 n=69 v=107
27815 On ch=13 n=72 v=97
27817 On ch=13 n=77 v=116
27817 On ch=13 n=65 v=117
27851 Par ch=13 c=64 v=127
27885 On ch=13 n=69 v=0
27887 On ch=13 n=65 v=0
27897 On ch=13 n=72 v=0
27930 On ch=13 n=77 v=0
28124 Par ch=13 c=64 v=0
28535 On ch=13 n=72 v=82
28577 On ch=13 n=72 v=0
28790 On ch=13 n=74 v=76
28866 On ch=13 n=74 v=0
28884 On ch=13 n=72 v=75
28949 On ch=13 n=72 v=0
29011 On ch=13 n=74 v=71
29319 On ch=13 n=74 v=0
29362 On ch=13 n=77 v=60
29480 On ch=13 n=75 v=94
29527 On ch=13 n=77 v=0
29577 On ch=13 n=74 v=84
29594 On ch=13 n=75 v=0
29659 On ch=13 n=74 v=0
29692 On ch=13 n=72 v=78
29767 On ch=13 n=72 v=0
29812 On ch=13 n=76 v=80
29876 On ch=13 n=76 v=0
29955 On ch=13 n=77 v=84
30320 On ch=13 n=76 v=59
30395 On ch=13 n=77 v=0
30427 On ch=13 n=74 v=72
30460 On ch=13 n=76 v=0
30529 On ch=13 n=74 v=0
30537 On ch=13 n=72 v=74
30626 On ch=13 n=72 v=0
30672 On ch=13 n=70 v=90
30750 On ch=13 n=70 v=0
30782 On ch=13 n=69 v=70
30877 On ch=13 n=69 v=0
30903 On ch=13 n=70 v=88
30981 On ch=13 n=70 v=0
31033 On ch=13 n=74 v=92
31107 On ch=13 n=74 v=0
31157 On ch=13 n=79 v=88
31235 On ch=13 n=79 v=0
31392 Par ch=13 c=64 v=127
31424 On ch=13 n=70 v=90
31472 On ch=13 n=70 v=0
31586 Par ch=13 c=64 v=0
31635 On ch=13 n=70 v=78
31698 On ch=13 n=70 v=0
31701 On ch=13 n=72 v=75
31780 On ch=13 n=70 v=89
31792 On ch=13 n=72 v=0
31855 On ch=13 n=69 v=82
31880 On ch=13 n=70 v=0
32139 On ch=13 n=69 v=0
32361 On ch=13 n=69 v=81
32367 On ch=13 n=65 v=59
32410 On ch=13 n=69 v=0
32411 On ch=13 n=65 v=0
32591 On ch=13 n=67 v=78
32672 On ch=13 n=67 v=0
32706 On ch=13 n=70 v=92
32744 On ch=13 n=70 v=0
32832 On ch=13 n=70 v=102
32904 On ch=13 n=70 v=0
32918 On ch=13 n=69 v=78
32971 On ch=13 n=69 v=0
33060 On ch=13 n=69 v=74
33114 On ch=13 n=69 v=0
33169 On ch=13 n=77 v=94
33217 On ch=13 n=77 v=0
33301 On ch=13 n=77 v=90
33383 On ch=13 n=77 v=0
33418 On ch=13 n=76 v=83
33461 On ch=13 n=76 v=0
33563 On ch=13 n=76 v=95
33649 On ch=13 n=76 v=0
33683 On ch=13 n=74 v=87
33729 On ch=13 n=74 v=0
33814 On ch=13 n=74 v=92
33893 On ch=13 n=74 v=0
33929 On ch=13 n=72 v=85
33987 On ch=13 n=72 v=0
34065 On ch=13 n=72 v=92
34141 On ch=13 n=72 v=0
34179 On ch=13 n=70 v=90
34208 On ch=13 n=70 v=0
34297 On ch=13 n=70 v=102
34398 On ch=13 n=70 v=0
34418 On ch=13 n=69 v=74
34466 On ch=13 n=69 v=0
34540 On ch=13 n=67 v=80
34610 On ch=13 n=70 v=100
34645 On ch=13 n=67 v=0
34670 On ch=13 n=70 v=0
34763 On ch=13 n=72 v=94
34828 On ch=13 n=70 v=101
34851 On ch=13 n=72 v=0
34876 On ch=13 n=69 v=85
34907 On ch=13 n=70 v=0
34934 On ch=13 n=69 v=0
34992 On ch=13 n=69 v=94
35072 On ch=13 n=69 v=0
35128 On ch=13 n=77 v=91
35196 On ch=13 n=77 v=0
35243 On ch=13 n=79 v=92
35314 On ch=13 n=77 v=93
35363 On ch=13 n=79 v=0
35397 On ch=13 n=76 v=90
35416 On ch=13 n=77 v=0
35472 On ch=13 n=76 v=0
35486 On ch=13 n=77 v=89
35558 On ch=13 n=76 v=89
35603 On ch=13 n=77 v=0
35631 On ch=13 n=74 v=89
35641 On ch=13 n=76 v=0
35692 On ch=13 n=74 v=0
35701 On ch=13 n=76 v=92
35765 On ch=13 n=74 v=91
35808 On ch=13 n=76 v=0
35840 On ch=13 n=72 v=79
35844 On ch=13 n=74 v=0
35899 On ch=13 n=72 v=0
35923 On ch=13 n=74 v=84
36000 On ch=13 n=72 v=86
36031 On ch=13 n=74 v=0
36085 On ch=13 n=70 v=98
36095 On ch=13 n=72 v=0
36156 On ch=13 n=70 v=0
36158 On ch=13 n=72 v=84
36249 On ch=13 n=70 v=102
36272 On ch=13 n=72 v=0
36320 On ch=13 n=69 v=77
36329 On ch=13 n=70 v=0
36395 On ch=13 n=69 v=0
36411 On ch=13 n=70 v=89
36486 On ch=13 n=69 v=75
36529 On ch=13 n=70 v=0
36570 On ch=13 n=67 v=80
36577 On ch=13 n=69 v=0
36655 On ch=13 n=67 v=0
36678 On ch=13 n=69 v=71
37069 On ch=13 n=72 v=72
37074 On ch=13 n=69 v=0
37181 On ch=13 n=70 v=94
37239 On ch=13 n=72 v=0
37294 On ch=13 n=69 v=71
37336 On ch=13 n=70 v=0
37404 On ch=13 n=67 v=82
37412 On ch=13 n=69 v=0
37504 On ch=13 n=67 v=0
37518 On ch=13 n=71 v=82
37600 On ch=13 n=71 v=0
37654 On ch=13 n=72 v=83
38016 On ch=13 n=71 v=65
38031 Par ch=13 c=64 v=127
38107 On ch=13 n=72 v=0
38131 On ch=13 n=69 v=73
38180 On ch=13 n=71 v=0
38249 On ch=13 n=69 v=0
38249 On ch=13 n=67 v=74
38270 Par ch=13 c=64 v=0
38326 On ch=13 n=67 v=0
38364 On ch=13 n=65 v=85
38451 On ch=13 n=65 v=0
38465 On ch=13 n=64 v=79
38568 On ch=13 n=64 v=0
38595 On ch=13 n=65 v=81
38707 On ch=13 n=65 v=0
38709 On ch=13 n=69 v=80
38799 On ch=13 n=69 v=0
38845 On ch=13 n=74 v=81
39097 On ch=13 n=65 v=76
39113 On ch=13 n=74 v=0
39137 On ch=13 n=65 v=0
39238 Par ch=13 c=64 v=127
39327 On ch=13 n=65 v=62
39373 On ch=13 n=65 v=0
39381 On ch=13 n=67 v=73
39439 Par ch=13 c=64 v=0
39461 On ch=13 n=65 v=68
39481 On ch=13 n=67 v=0
39545 On ch=13 n=65 v=0
39568 On ch=13 n=64 v=82
39813 On ch=13 n=64 v=0
39912 On ch=13 n=72 v=77
40021 On ch=13 n=72 v=0
40026 On ch=13 n=74 v=65
40140 On ch=13 n=76 v=74
40150 On ch=13 n=74 v=0
40239 On ch=13 n=76 v=0
40271 On ch=13 n=69 v=76
40275 Par ch=13 c=64 v=127
40352 On ch=13 n=69 v=0
40385 On ch=13 n=64 v=79
40423 Par ch=13 c=64 v=0
40490 On ch=13 n=64 v=0
40519 On ch=13 n=65 v=86
40635 On ch=13 n=69 v=82
40641 On ch=13 n=65 v=0
40735 On ch=13 n=69 v=0
40784 On ch=13 n=74 v=76
40841 On ch=13 n=74 v=0
40899 On ch=13 n=74 v=86
41012 On ch=13 n=76 v=73
41030 On ch=13 n=74 v=0
41037 Par ch=13 c=64 v=127
41113 On ch=13 n=77 v=78
41127 On ch=13 n=76 v=0
41219 On ch=13 n=77 v=0
41238 On ch=13 n=71 v=78
41359 On ch=13 n=71 v=0
41370 On ch=13 n=66 v=101
41373 Par ch=13 c=64 v=0
41435 On ch=13 n=66 v=0
41467 On ch=13 n=67 v=78
41532 Par ch=13 c=64 v=127
41572 On ch=13 n=67 v=0
41573 On ch=13 n=71 v=91
41608 Par ch=13 c=64 v=0
41642 On ch=13 n=71 v=0
41719 On ch=13 n=76 v=96
41785 On ch=13 n=76 v=0
41847 On ch=13 n=76 v=83
41951 Par ch=13 c=64 v=127
41967 On ch=13 n=77 v=86
42021 On ch=13 n=76 v=0
42062 Par ch=13 c=64 v=0
42101 On ch=13 n=79 v=89
42127 On ch=13 n=77 v=0
42229 On ch=13 n=79 v=0
42238 On ch=13 n=72 v=95
42245 Par ch=13 c=64 v=127
42330 On ch=13 n=72 v=0
42358 On ch=13 n=68 v=104
42419 On ch=13 n=68 v=0
42431 Par ch=13 c=64 v=0
42472 On ch=13 n=69 v=95
42554 On ch=13 n=69 v=0
42577 On ch=13 n=72 v=103
42630 On ch=13 n=72 v=0
42705 On ch=13 n=78 v=111
42751 On ch=13 n=78 v=0
42810 On ch=13 n=78 v=112
42918 On ch=13 n=79 v=99
42974 On ch=13 n=78 v=0
43040 On ch=13 n=81 v=107
43091 On ch=13 n=79 v=0
43182 On ch=13 n=79 v=95
43230 On ch=13 n=81 v=0
43298 On ch=13 n=78 v=108
43332 On ch=13 n=79 v=0
43366 On ch=13 n=78 v=0
43412 On ch=13 n=79 v=94
43755 On ch=13 n=67 v=86
43886 On ch=13 n=67 v=0
43888 On ch=13 n=71 v=95
43912 On ch=13 n=79 v=0
43983 On ch=13 n=74 v=96
43990 On ch=13 n=71 v=0
44047 On ch=13 n=74 v=0
44112 On ch=13 n=77 v=109
44217 On ch=13 n=76 v=90
44255 On ch=13 n=77 v=0
44357 On ch=13 n=77 v=110
44367 On ch=13 n=76 v=0
44721 On ch=13 n=67 v=92
44856 On ch=13 n=71 v=95
44863 Par ch=13 c=64 v=127
44864 On ch=13 n=67 v=0
44931 On ch=13 n=77 v=0
44958 On ch=13 n=74 v=91
44979 On ch=13 n=71 v=0
45027 On ch=13 n=74 v=0
45087 Par ch=13 c=64 v=0
45088 On ch=13 n=76 v=108
45198 On ch=13 n=74 v=103
45228 On ch=13 n=76 v=0
45336 On ch=13 n=76 v=101
45370 On ch=13 n=74 v=0
45569 On ch=13 n=60 v=99
45648 On ch=13 n=60 v=0
45695 On ch=13 n=67 v=95
45820 On ch=13 n=67 v=0
45825 On ch=13 n=72 v=92
45884 On ch=13 n=76 v=0
45935 On ch=13 n=74 v=94
45975 On ch=13 n=72 v=0
46078 On ch=13 n=75 v=106
46140 On ch=13 n=74 v=0
46189 On ch=13 n=72 v=91
46209 On ch=13 n=74 v=39
46253 On ch=13 n=74 v=0
46258 On ch=13 n=75 v=0
46288 On ch=13 n=72 v=0
46292 On ch=13 n=71 v=91
46408 On ch=13 n=72 v=97
46422 On ch=13 n=71 v=0
46529 On ch=13 n=78 v=111
46547 On ch=13 n=72 v=0
46636 On ch=13 n=72 v=103
46693 On ch=13 n=78 v=0
46748 On ch=13 n=72 v=0
46765 On ch=13 n=81 v=100
46776 Par ch=13 c=64 v=127
46869 On ch=13 n=72 v=104
46874 On ch=13 n=81 v=0
46936 On ch=13 n=72 v=0
46999 Par ch=13 c=64 v=0
47007 On ch=13 n=71 v=106
47119 On ch=13 n=65 v=101
47150 On ch=13 n=71 v=0
47248 On ch=13 n=64 v=105
47273 On ch=13 n=65 v=0
47369 On ch=13 n=65 v=108
47383 On ch=13 n=64 v=0
47480 On ch=13 n=65 v=0
47497 On ch=13 n=71 v=103
47604 On ch=13 n=65 v=106
47648 On ch=13 n=71 v=0
47710 On ch=13 n=65 v=0
47732 On ch=13 n=74 v=112
47833 On ch=13 n=65 v=103
47842 On ch=13 n=74 v=0
47953 On ch=13 n=65 v=0
47957 On ch=13 n=64 v=105
48025 Par ch=13 c=64 v=127
48032 On ch=13 n=64 v=0
48067 On ch=13 n=67 v=102
48164 On ch=13 n=67 v=0
48171 Par ch=13 c=64 v=0
48199 On ch=13 n=72 v=105
48275 On ch=13 n=72 v=0
48312 On ch=13 n=79 v=99
48447 On ch=13 n=77 v=108
48526 On ch=13 n=79 v=0
48572 On ch=13 n=76 v=108
48692 On ch=13 n=74 v=112
48696 On ch=13 n=77 v=0
48770 On ch=13 n=76 v=0
48786 On ch=13 n=72 v=109
48826 On ch=13 n=74 v=0
48856 On ch=13 n=72 v=0
48918 On ch=13 n=72 v=113
48923 Par ch=13 c=64 v=127
49118 Par ch=13 c=64 v=0
49163 On ch=13 n=72 v=0
49890 Par ch=13 c=64 v=127
49961 Par ch=13 c=64 v=0
50141 On ch=13 n=72 v=115
50399 On ch=13 n=64 v=115
50403 On ch=13 n=60 v=109
50454 On ch=13 n=60 v=0
50463 On ch=13 n=64 v=0
50638 On ch=13 n=62 v=114
50638 On ch=13 n=65 v=112
50685 On ch=13 n=62 v=0
50738 On ch=13 n=65 v=0
50749 On ch=13 n=72 v=0
50887 On ch=13 n=67 v=109
50889 On ch=13 n=64 v=111
51358 On ch=13 n=69 v=100
51362 On ch=13 n=65 v=100
51400 On ch=13 n=64 v=0
51405 On ch=13 n=67 v=0
51709 On ch=13 n=65 v=0
51813 On ch=13 n=67 v=103
51829 On ch=13 n=64 v=85
51845 On ch=13 n=69 v=0
51911 On ch=13 n=69 v=94
51969 On ch=13 n=67 v=0
52055 On ch=13 n=70 v=118
52108 On ch=13 n=69 v=0
52431 Par ch=13 c=64 v=127
52506 On ch=13 n=69 v=86
52522 On ch=13 n=70 v=0
52615 On ch=13 n=64 v=0
52618 Par ch=13 c=64 v=0
52626 On ch=13 n=67 v=98
52688 On ch=13 n=69 v=0
52716 On ch=13 n=67 v=0
52754 On ch=13 n=69 v=107
52865 On ch=13 n=65 v=98
52988 On ch=13 n=64 v=100
53049 On ch=13 n=69 v=0
53103 On ch=13 n=62 v=105
53113 On ch=13 n=65 v=0
53226 On ch=13 n=60 v=111
53278 On ch=13 n=62 v=0
53285 On ch=13 n=64 v=0
53366 On ch=13 n=60 v=0
53961 On ch=13 n=77 v=114
54065 Par ch=13 c=64 v=127
54222 On ch=13 n=69 v=118
54226 On ch=13 n=65 v=113
54242 Par ch=13 c=64 v=0
54304 On ch=13 n=65 v=0
54344 On ch=13 n=69 v=0
54453 On ch=13 n=70 v=120
54453 On ch=13 n=67 v=109
54508 On ch=13 n=67 v=0
54556 On ch=13 n=77 v=0
54575 On ch=13 n=70 v=0
54682 On ch=13 n=72 v=116
54684 On ch=13 n=69 v=113
54757 Par ch=13 c=64 v=127
54882 Par ch=13 c=64 v=0
55177 On ch=13 n=70 v=111
55178 On ch=13 n=74 v=107
55206 On ch=13 n=69 v=0
55221 On ch=13 n=72 v=0
55495 On ch=13 n=70 v=0
55503 Par ch=13 c=64 v=127
55627 On ch=13 n=74 v=0
55653 On ch=13 n=72 v=111
55658 On ch=13 n=69 v=97
55696 Par ch=13 c=64 v=0
55751 On ch=13 n=74 v=100
55816 On ch=13 n=72 v=0
55910 On ch=13 n=75 v=121
55965 On ch=13 n=74 v=0
56384 On ch=13 n=74 v=90
56417 On ch=13 n=75 v=0
56418 Par ch=13 c=64 v=127
56509 On ch=13 n=69 v=0
56510 On ch=13 n=72 v=99
56544 Par ch=13 c=64 v=0
56561 On ch=13 n=74 v=0
56589 On ch=13 n=72 v=0
56630 On ch=13 n=74 v=105
56739 On ch=13 n=70 v=105
56845 Par ch=13 c=64 v=127
56865 On ch=13 n=69 v=92
56910 Par ch=13 c=64 v=0
56984 On ch=13 n=74 v=0
56988 On ch=13 n=67 v=98
57017 On ch=13 n=70 v=0
57124 On ch=13 n=65 v=100
57189 On ch=13 n=67 v=0
57210 On ch=13 n=69 v=0
57232 On ch=13 n=65 v=0
57681 On ch=13 n=74 v=72
57772 On ch=13 n=74 v=0
57805 On ch=13 n=73 v=95
57842 On ch=13 n=73 v=0
57903 On ch=13 n=74 v=83
57963 On ch=13 n=74 v=0
58032 On ch=13 n=82 v=99
58102 On ch=13 n=82 v=0
58258 On ch=13 n=74 v=92
58539 On ch=13 n=74 v=0
58612 On ch=13 n=73 v=98
58706 On ch=13 n=73 v=0
58727 On ch=13 n=71 v=91
58828 On ch=13 n=71 v=0
58849 On ch=13 n=73 v=111
58905 On ch=13 n=73 v=0
58985 On ch=13 n=81 v=101
59056 On ch=13 n=81 v=0
59228 On ch=13 n=72 v=93
59540 On ch=13 n=72 v=0
59596 On ch=13 n=71 v=92
59677 On ch=13 n=71 v=0
59714 On ch=13 n=69 v=90
59812 On ch=13 n=69 v=0
59819 On ch=13 n=71 v=101
59889 On ch=13 n=71 v=0
59948 On ch=13 n=79 v=99
60208 On ch=13 n=70 v=107
60234 On ch=13 n=79 v=0
60292 On ch=13 n=70 v=0
60430 On ch=13 n=70 v=106
60496 On ch=13 n=70 v=0
60496 On ch=13 n=72 v=95
60579 On ch=13 n=70 v=110
60634 On ch=13 n=72 v=0
60665 On ch=13 n=69 v=94
60701 On ch=13 n=70 v=0
61455 On ch=13 n=69 v=0
61524 On ch=13 n=74 v=83
61642 On ch=13 n=74 v=0
61653 On ch=13 n=70 v=96
61752 On ch=13 n=70 v=0
61775 On ch=13 n=67 v=74
61838 On ch=13 n=67 v=0
61895 On ch=13 n=69 v=83
62010 On ch=13 n=74 v=70
62053 On ch=13 n=69 v=0
62138 On ch=13 n=67 v=74
62145 On ch=13 n=74 v=0
62237 On ch=13 n=64 v=78
62244 On ch=13 n=67 v=0
62339 On ch=13 n=64 v=0
62351 On ch=13 n=65 v=94
62453 On ch=13 n=65 v=0
62475 On ch=13 n=74 v=84
62602 On ch=13 n=67 v=78
62714 On ch=13 n=64 v=75
62718 On ch=13 n=74 v=0
62799 On ch=13 n=67 v=0
62826 On ch=13 n=64 v=0
62843 On ch=13 n=65 v=90
62869 On ch=13 n=67 v=21
62920 On ch=13 n=67 v=0
62949 On ch=13 n=74 v=81
62957 On ch=13 n=65 v=0
63057 On ch=13 n=74 v=0
63080 On ch=13 n=64 v=85
63167 On ch=13 n=64 v=0
63196 On ch=13 n=61 v=98
63302 On ch=13 n=62 v=100
63310 On ch=13 n=61 v=0
63399 On ch=13 n=62 v=0
63443 On ch=13 n=74 v=95
63586 On ch=13 n=70 v=97
63638 On ch=13 n=74 v=0
63662 On ch=13 n=69 v=83
63717 On ch=13 n=70 v=0
63733 On ch=13 n=67 v=83
63752 On ch=13 n=69 v=0
63811 On ch=13 n=67 v=0
63821 On ch=13 n=69 v=90
63915 On ch=13 n=69 v=0
63936 On ch=13 n=74 v=93
64044 On ch=13 n=67 v=87
64106 On ch=13 n=74 v=0
64121 On ch=13 n=65 v=78
64178 On ch=13 n=67 v=0
64187 On ch=13 n=64 v=86
64199 On ch=13 n=65 v=0
64279 On ch=13 n=65 v=94
64285 On ch=13 n=64 v=0
64392 On ch=13 n=65 v=0
64401 On ch=13 n=74 v=93
64514 On ch=13 n=67 v=89
64598 On ch=13 n=65 v=83
64672 On ch=13 n=64 v=91
64678 On ch=13 n=65 v=0
64680 On ch=13 n=67 v=0
64689 On ch=13 n=74 v=0
64759 On ch=13 n=65 v=98
64773 On ch=13 n=64 v=0
64867 On ch=13 n=74 v=96
64879 On ch=13 n=65 v=0
64979 On ch=13 n=74 v=0
64995 On ch=13 n=64 v=89
65059 On ch=13 n=64 v=0
65068 On ch=13 n=62 v=102
65100 Par ch=13 c=64 v=127
65138 On ch=13 n=61 v=101
65155 On ch=13 n=62 v=0
65204 On ch=13 n=62 v=97
65218 On ch=13 n=61 v=0
65268 Par ch=13 c=64 v=0
65272 On ch=13 n=62 v=0
65479 On ch=13 n=81 v=98
65486 On ch=13 n=77 v=87
65656 On ch=13 n=77 v=0
65733 On ch=13 n=82 v=92
65737 On ch=13 n=81 v=0
65741 On ch=13 n=79 v=55
65952 On ch=13 n=82 v=0
65973 On ch=13 n=79 v=0
65983 On ch=13 n=77 v=83
65989 On ch=13 n=81 v=74
66082 Par ch=13 c=64 v=127
66217 Par ch=13 c=64 v=0
66247 On ch=13 n=77 v=0
66250 On ch=13 n=81 v=0
66424 On ch=13 n=79 v=76
66431 On ch=13 n=76 v=73
66620 On ch=13 n=76 v=0
66641 On ch=13 n=79 v=0
66666 On ch=13 n=77 v=95
66666 On ch=13 n=81 v=91
66932 On ch=13 n=79 v=90
66939 On ch=13 n=81 v=0
66939 On ch=13 n=77 v=0
66939 On ch=13 n=76 v=85
67295 On ch=13 n=76 v=0
67327 On ch=13 n=79 v=0
67405 On ch=13 n=77 v=109
67407 On ch=13 n=74 v=90
67612 On ch=13 n=74 v=0
67652 On ch=13 n=79 v=98
67654 On ch=13 n=76 v=98
67703 On ch=13 n=77 v=0
67883 On ch=13 n=77 v=103
67885 On ch=13 n=74 v=104
67902 On ch=13 n=79 v=0
67917 On ch=13 n=76 v=0
68206 Par ch=13 c=64 v=127
68232 On ch=13 n=74 v=0
68261 On ch=13 n=77 v=0
68349 On ch=13 n=77 v=109
68349 On ch=13 n=74 v=103
68467 Par ch=13 c=64 v=0
68534 On ch=13 n=74 v=0
68546 On ch=13 n=77 v=0
68590 On ch=13 n=79 v=105
68596 On ch=13 n=76 v=103
68791 On ch=13 n=76 v=0
68834 On ch=13 n=79 v=0
68845 On ch=13 n=77 v=111
68848 On ch=13 n=74 v=107
68872 Par ch=13 c=64 v=127
69084 Par ch=13 c=64 v=0
69113 On ch=13 n=74 v=0
69193 On ch=13 n=76 v=100
69240 Par ch=13 c=64 v=127
69279 On ch=13 n=74 v=105
69280 On ch=13 n=77 v=0
69298 On ch=13 n=76 v=0
69329 On ch=13 n=74 v=0
69348 On ch=13 n=76 v=114
69383 Par ch=13 c=64 v=0
69624 Par ch=13 c=64 v=127
69635 On ch=13 n=74 v=93
69646 On ch=13 n=76 v=0
69717 On ch=13 n=73 v=116
69760 On ch=13 n=74 v=0
69777 On ch=13 n=73 v=0
69803 On ch=13 n=74 v=115
69831 Par ch=13 c=64 v=0
70084 Par ch=13 c=64 v=127
70119 On ch=13 n=73 v=107
70177 On ch=13 n=74 v=0
70203 On ch=13 n=71 v=101
70228 On ch=13 n=73 v=0
70282 Par ch=13 c=64 v=0
70292 On ch=13 n=73 v=123
70335 On ch=13 n=71 v=0
70645 Par ch=13 c=64 v=127
70654 On ch=13 n=76 v=109
70693 On ch=13 n=73 v=0
70761 On ch=13 n=73 v=116
70871 On ch=13 n=76 v=0
70872 On ch=13 n=69 v=101
70984 On ch=13 n=73 v=0
70996 On ch=13 n=67 v=91
71033 Par ch=13 c=64 v=0
71042 On ch=13 n=69 v=0
71115 On ch=13 n=76 v=93
71126 On ch=13 n=67 v=0
71251 On ch=13 n=76 v=0
71251 On ch=13 n=73 v=97
71373 On ch=13 n=69 v=75
71434 On ch=13 n=73 v=0
71477 On ch=13 n=69 v=0
71498 On ch=13 n=67 v=78
71575 On ch=13 n=67 v=0
71599 On ch=13 n=76 v=78
71683 On ch=13 n=76 v=0
71727 On ch=13 n=73 v=98
71840 On ch=13 n=69 v=74
71890 On ch=13 n=73 v=0
71944 On ch=13 n=69 v=0
71973 On ch=13 n=67 v=73
72062 On ch=13 n=67 v=0
72073 On ch=13 n=76 v=75
72199 On ch=13 n=73 v=90
72217 On ch=13 n=76 v=0
72325 On ch=13 n=69 v=70
72423 On ch=13 n=73 v=0
72433 On ch=13 n=69 v=0
72471 On ch=13 n=67 v=78
72550 Par ch=13 c=64 v=127
72570 On ch=13 n=67 v=0
72573 On ch=13 n=76 v=78
72703 On ch=13 n=73 v=80
72799 On ch=13 n=69 v=70
72813 On ch=13 n=76 v=0
72877 On ch=13 n=73 v=0
72917 On ch=13 n=65 v=73
72936 On ch=13 n=69 v=0
72992 On ch=13 n=65 v=0
72999 Par ch=13 c=64 v=0
73032 On ch=13 n=77 v=87
73171 On ch=13 n=74 v=81
73242 On ch=13 n=77 v=0
73303 On ch=13 n=70 v=99
73349 On ch=13 n=74 v=0
73407 On ch=13 n=70 v=0
73433 On ch=13 n=69 v=77
73512 On ch=13 n=69 v=0
73530 On ch=13 n=77 v=83
73657 On ch=13 n=74 v=81
73688 On ch=13 n=77 v=0
73772 On ch=13 n=70 v=87
73803 On ch=13 n=74 v=0
73849 On ch=13 n=70 v=0
73889 On ch=13 n=69 v=71
73988 On ch=13 n=77 v=81
73995 On ch=13 n=69 v=0
74119 On ch=13 n=74 v=76
74195 On ch=13 n=77 v=0
74234 On ch=13 n=70 v=90
74324 On ch=13 n=74 v=0
74346 On ch=13 n=70 v=0
74372 On ch=13 n=69 v=86
74461 Par ch=13 c=64 v=127
74477 On ch=13 n=77 v=83
74481 On ch=13 n=69 v=0
74626 On ch=13 n=74 v=52
74627 On ch=13 n=77 v=0
74724 On ch=13 n=72 v=79
74762 On ch=13 n=74 v=0
74833 On ch=13 n=72 v=0
74833 On ch=13 n=71 v=66
74870 Par ch=13 c=64 v=0
74950 On ch=13 n=80 v=97
74957 On ch=13 n=71 v=0
75083 On ch=13 n=77 v=81
75123 On ch=13 n=80 v=0
75182 On ch=13 n=74 v=84
75300 On ch=13 n=77 v=0
75311 On ch=13 n=71 v=83
75358 On ch=13 n=74 v=0
75416 On ch=13 n=80 v=95
75532 On ch=13 n=71 v=0
75546 On ch=13 n=77 v=78
75602 On ch=13 n=80 v=0
75660 On ch=13 n=74 v=84
75776 On ch=13 n=71 v=87
75794 On ch=13 n=77 v=0
75834 On ch=13 n=74 v=0
75887 On ch=13 n=80 v=93
75977 On ch=13 n=71 v=0
76024 On ch=13 n=77 v=78
76090 On ch=13 n=80 v=0
76152 On ch=13 n=74 v=91
76275 On ch=13 n=71 v=89
76291 On ch=13 n=77 v=0
76332 On ch=13 n=74 v=0
76377 On ch=13 n=80 v=103
76409 On ch=13 n=71 v=0
76506 On ch=13 n=77 v=89
76557 On ch=13 n=80 v=0
76612 On ch=13 n=74 v=96
76680 On ch=13 n=77 v=0
76753 On ch=13 n=73 v=111
76783 On ch=13 n=74 v=0
76860 On ch=13 n=81 v=91
76877 On ch=13 n=73 v=0
76991 On ch=13 n=76 v=89
77031 On ch=13 n=81 v=0
77115 On ch=13 n=73 v=104
77178 On ch=13 n=76 v=0
77219 On ch=13 n=73 v=0
77237 On ch=13 n=69 v=86
77358 On ch=13 n=69 v=0
77363 On ch=13 n=73 v=93
77448 On ch=13 n=73 v=0
77496 On ch=13 n=71 v=81
77593 On ch=13 n=74 v=80
77601 On ch=13 n=71 v=0
77740 On ch=13 n=73 v=106
77814 On ch=13 n=74 v=0
77856 On ch=13 n=76 v=86
77858 On ch=13 n=73 v=0
77870 Par ch=13 c=64 v=127
77982 On ch=13 n=73 v=94
78074 On ch=13 n=76 v=0
78084 Par ch=13 c=64 v=0
78096 On ch=13 n=69 v=84
78162 On ch=13 n=73 v=0
78193 On ch=13 n=69 v=0
78228 On ch=13 n=64 v=90
78323 On ch=13 n=64 v=0
78326 On ch=13 n=67 v=87
78428 On ch=13 n=67 v=0
78456 On ch=13 n=65 v=96
78552 On ch=13 n=69 v=82
78588 On ch=13 n=65 v=0
78673 On ch=13 n=67 v=99
78717 On ch=13 n=69 v=0
78812 On ch=13 n=70 v=106
78844 On ch=13 n=67 v=0
78870 Par ch=13 c=64 v=127
78924 On ch=13 n=67 v=77
78976 On ch=13 n=70 v=0
79057 On ch=13 n=64 v=78
79063 Par ch=13 c=64 v=0
79126 On ch=13 n=67 v=0
79172 On ch=13 n=61 v=102
79188 On ch=13 n=64 v=0
79230 On ch=13 n=61 v=0
79278 On ch=13 n=64 v=94
79401 On ch=13 n=62 v=107
79461 On ch=13 n=64 v=0
79505 On ch=13 n=65 v=99
79535 On ch=13 n=62 v=0
79626 On ch=13 n=64 v=103
79697 On ch=13 n=65 v=0
79742 On ch=13 n=67 v=94
79770 On ch=13 n=64 v=0
79872 On ch=13 n=64 v=99
79935 On ch=13 n=67 v=0
79994 On ch=13 n=61 v=110
80113 On ch=13 n=57 v=95
80123 On ch=13 n=64 v=0
80169 On ch=13 n=61 v=0
80215 On ch=13 n=57 v=0
80216 On ch=13 n=67 v=93
80354 On ch=13 n=65 v=99
80403 On ch=13 n=67 v=0
80480 On ch=13 n=64 v=86
80505 On ch=13 n=65 v=0
80602 On ch=13 n=65 v=98
80628 On ch=13 n=64 v=0
80714 On ch=13 n=62 v=94
80733 On ch=13 n=65 v=0
80836 On ch=13 n=64 v=95
80845 On ch=13 n=62 v=0
80960 On ch=13 n=65 v=101
81009 On ch=13 n=64 v=0
81082 On ch=13 n=67 v=95
81094 On ch=13 n=65 v=0
81179 On ch=13 n=67 v=0
81181 On ch=13 n=69 v=105
81318 On ch=13 n=71 v=73
81350 On ch=13 n=69 v=0
81415 On ch=13 n=73 v=109
81470 On ch=13 n=71 v=0
81525 Par ch=13 c=64 v=127
81537 On ch=13 n=74 v=103
81564 On ch=13 n=73 v=0
81659 On ch=13 n=73 v=108
81706 On ch=13 n=74 v=0
81721 Par ch=13 c=64 v=0
81782 On ch=13 n=71 v=97
81904 On ch=13 n=73 v=0
81908 On ch=13 n=69 v=104
81955 On ch=13 n=71 v=0
82058 On ch=13 n=81 v=105
82222 On ch=13 n=69 v=0
82274 On ch=13 n=74 v=116
82283 On ch=13 n=69 v=103
82321 On ch=13 n=81 v=0
82364 Par ch=13 c=64 v=127
82380 On ch=13 n=69 v=0
82382 On ch=13 n=74 v=0
82487 Par ch=13 c=64 v=0
82507 On ch=13 n=77 v=121
82507 On ch=13 n=69 v=115
82510 On ch=13 n=74 v=113
82686 Par ch=13 c=64 v=127
82972 On ch=13 n=69 v=0
82995 On ch=13 n=76 v=103
82995 On ch=13 n=67 v=110
82998 On ch=13 n=73 v=118
83031 Par ch=13 c=64 v=0
83077 On ch=13 n=74 v=0
83150 On ch=13 n=77 v=0
83194 Par ch=13 c=64 v=127
83256 On ch=13 n=67 v=0
83449 On ch=13 n=76 v=0
83467 On ch=13 n=73 v=0
83481 On ch=13 n=65 v=112
83497 Par ch=13 c=64 v=0
83578 On ch=13 n=74 v=107
83759 On ch=13 n=68 v=116
83910 On ch=13 n=74 v=0
83910 Par ch=13 c=64 v=127
83984 On ch=13 n=70 v=108
84017 On ch=13 n=68 v=0
84076 On ch=13 n=65 v=0
84107 Par ch=13 c=64 v=0
84126 On ch=13 n=69 v=98
84184 On ch=13 n=70 v=0
84249 On ch=13 n=67 v=102
84343 On ch=13 n=69 v=0
84383 On ch=13 n=65 v=106
84420 On ch=13 n=67 v=0
84502 On ch=13 n=69 v=100
84539 On ch=13 n=65 v=0
84605 On ch=13 n=69 v=0
84639 On ch=13 n=74 v=107
84753 On ch=13 n=65 v=111
84861 On ch=13 n=65 v=0
84896 On ch=13 n=74 v=0
84903 On ch=13 n=64 v=107
85041 On ch=13 n=64 v=0
85115 On ch=13 n=67 v=93
85118 On ch=13 n=69 v=83
85118 On ch=13 n=73 v=120
85167 On ch=13 n=67 v=0
85175 On ch=13 n=69 v=0
85187 On ch=13 n=73 v=0
85398 On ch=13 n=69 v=44
85401 On ch=13 n=62 v=114
85401 On ch=13 n=65 v=104
85403 On ch=13 n=74 v=113
85469 Par ch=13 c=64 v=127
85501 On ch=13 n=62 v=0
85531 On ch=13 n=65 v=0
85608 On ch=13 n=69 v=0
85691 On ch=13 n=74 v=0
85705 Par ch=13 c=64 v=0
86129 On ch=13 n=69 v=86
86209 On ch=13 n=69 v=0
86373 On ch=13 n=69 v=71
86388 On ch=13 n=70 v=53
86451 On ch=13 n=69 v=0
86488 On ch=13 n=68 v=78
86526 On ch=13 n=70 v=0
86559 On ch=13 n=68 v=0
86602 On ch=13 n=69 v=72
86657 On ch=13 n=69 v=0
86841 On ch=13 n=69 v=77
86897 On ch=13 n=70 v=46
86921 On ch=13 n=69 v=0
86951 On ch=13 n=68 v=81
86995 On ch=13 n=70 v=0
87025 On ch=13 n=68 v=0
87044 On ch=13 n=69 v=71
87354 On ch=13 n=69 v=0
87372 On ch=13 n=71 v=70
87450 On ch=13 n=71 v=0
87516 On ch=13 n=73 v=93
87622 On ch=13 n=73 v=0
87636 On ch=13 n=74 v=84
87783 On ch=13 n=74 v=0
87795 On ch=13 n=76 v=75
87998 On ch=13 n=76 v=0
88019 On ch=13 n=69 v=74
88101 On ch=13 n=69 v=0
88269 On ch=13 n=69 v=74
88296 On ch=13 n=70 v=55
88355 On ch=13 n=69 v=0
88399 On ch=13 n=68 v=75
88443 On ch=13 n=70 v=0
88469 On ch=13 n=68 v=0
88511 On ch=13 n=69 v=68
88559 On ch=13 n=69 v=0
88725 On ch=13 n=69 v=80
88773 On ch=13 n=70 v=49
88817 On ch=13 n=69 v=0
88858 On ch=13 n=68 v=81
88911 On ch=13 n=70 v=0
88926 On ch=13 n=68 v=0
88958 On ch=13 n=69 v=83
88965 On ch=13 n=61 v=68
89026 On ch=13 n=61 v=0
89076 Par ch=13 c=64 v=127
89260 Par ch=13 c=64 v=0
89301 On ch=13 n=69 v=0
89326 On ch=13 n=73 v=93
89397 On ch=13 n=73 v=0
89450 On ch=13 n=74 v=83
89559 On ch=13 n=76 v=85
89568 On ch=13 n=74 v=0
89669 On ch=13 n=76 v=0
89704 On ch=13 n=77 v=89
89952 On ch=13 n=77 v=0
89957 On ch=13 n=69 v=84
90045 On ch=13 n=69 v=0
90195 On ch=13 n=69 v=81
90237 On ch=13 n=70 v=67
90279 On ch=13 n=69 v=0
90334 On ch=13 n=68 v=74
90373 On ch=13 n=70 v=0
90396 On ch=13 n=68 v=0
90437 On ch=13 n=69 v=68
90491 On ch=13 n=69 v=0
90655 On ch=13 n=69 v=78
90707 On ch=13 n=70 v=46
90746 On ch=13 n=69 v=0
90775 On ch=13 n=68 v=95
90825 On ch=13 n=70 v=0
90854 On ch=13 n=68 v=0
90885 On ch=13 n=69 v=87
91059 Par ch=13 c=64 v=127
91188 Par ch=13 c=64 v=0
91243 On ch=13 n=73 v=95
91253 On ch=13 n=69 v=0
91318 On ch=13 n=73 v=0
91367 On ch=13 n=76 v=80
91472 On ch=13 n=76 v=0
91482 On ch=13 n=77 v=82
91627 On ch=13 n=79 v=89
91646 On ch=13 n=77 v=0
91859 On ch=13 n=69 v=85
91888 On ch=13 n=79 v=0
92148 On ch=13 n=69 v=0
92189 On ch=13 n=79 v=83
92281 On ch=13 n=77 v=83
92296 On ch=13 n=79 v=0
92397 On ch=13 n=77 v=0
92400 On ch=13 n=76 v=82
92452 On ch=13 n=74 v=84
92507 On ch=13 n=76 v=0
92542 On ch=13 n=74 v=0
92552 On ch=13 n=82 v=115
92593 On ch=13 n=82 v=0
92701 Par ch=13 c=64 v=127
92803 On ch=13 n=67 v=90
93024 Par ch=13 c=64 v=0
93134 On ch=13 n=67 v=0
93181 On ch=13 n=77 v=93
93279 On ch=13 n=76 v=90
93325 On ch=13 n=77 v=0
93411 On ch=13 n=74 v=91
93430 On ch=13 n=76 v=0
93453 On ch=13 n=72 v=92
93528 On ch=13 n=74 v=0
93552 On ch=13 n=72 v=0
93554 On ch=13 n=81 v=100
93582 On ch=13 n=81 v=0
93696 Par ch=13 c=64 v=127
93796 On ch=13 n=65 v=99
93859 Par ch=13 c=64 v=0
94048 On ch=13 n=65 v=0
94146 On ch=13 n=75 v=97
94223 On ch=13 n=74 v=90
94258 On ch=13 n=75 v=0
94337 On ch=13 n=72 v=78
94383 On ch=13 n=70 v=97
94400 On ch=13 n=74 v=0
94435 On ch=13 n=70 v=0
94441 On ch=13 n=72 v=0
94463 On ch=13 n=79 v=95
94600 On ch=13 n=74 v=92
94631 On ch=13 n=79 v=0
94701 On ch=13 n=72 v=95
94716 On ch=13 n=74 v=0
94778 On ch=13 n=72 v=0
94819 On ch=13 n=70 v=98
94883 On ch=13 n=69 v=85
94886 On ch=13 n=70 v=0
94946 On ch=13 n=77 v=103
94967 On ch=13 n=69 v=0
95092 On ch=13 n=72 v=88
95143 On ch=13 n=77 v=0
95185 On ch=13 n=70 v=95
95243 On ch=13 n=72 v=0
95288 On ch=13 n=70 v=0
95293 On ch=13 n=69 v=81
95378 On ch=13 n=67 v=86
95388 On ch=13 n=69 v=0
95436 On ch=13 n=75 v=105
95452 On ch=13 n=67 v=0
95588 On ch=13 n=70 v=98
95636 On ch=13 n=75 v=0
95670 On ch=13 n=69 v=83
95727 On ch=13 n=70 v=0
95754 On ch=13 n=69 v=0
95756 On ch=13 n=67 v=87
95836 On ch=13 n=67 v=0
95838 On ch=13 n=65 v=89
95898 On ch=13 n=65 v=0
95914 On ch=13 n=74 v=89
96054 On ch=13 n=69 v=79
96109 On ch=13 n=74 v=0
96170 On ch=13 n=70 v=100
96200 On ch=13 n=69 v=0
96292 On ch=13 n=74 v=91
96346 On ch=13 n=70 v=0
96401 On ch=13 n=74 v=0
96423 On ch=13 n=63 v=111
96529 On ch=13 n=74 v=92
96547 On ch=13 n=63 v=0
96682 On ch=13 n=72 v=70
96797 On ch=13 n=70 v=102
96829 On ch=13 n=74 v=0
96888 On ch=13 n=72 v=0
96924 On ch=13 n=69 v=93
97027 On ch=13 n=67 v=89
97059 On ch=13 n=69 v=0
97059 On ch=13 n=70 v=0
97142 On ch=13 n=69 v=90
97170 Par ch=13 c=64 v=127
97177 On ch=13 n=67 v=0
97245 Par ch=13 c=64 v=0
97250 On ch=13 n=72 v=92
97264 Par ch=13 c=64 v=0
97304 On ch=13 n=69 v=0
97378 On ch=13 n=72 v=0
97387 On ch=13 n=65 v=93
97485 On ch=13 n=75 v=102
97494 On ch=13 n=65 v=0
97610 On ch=13 n=74 v=102
97620 On ch=13 n=75 v=0
97715 On ch=13 n=72 v=95
97749 On ch=13 n=74 v=0
97839 On ch=13 n=74 v=108
97863 On ch=13 n=72 v=0
97894 On ch=13 n=74 v=0
98086 On ch=13 n=82 v=112
98161 Par ch=13 c=64 v=127
98292 Par ch=13 c=64 v=0
98331 On ch=13 n=74 v=87
98341 On ch=13 n=70 v=63
98352 On ch=13 n=82 v=0
98367 On ch=13 n=74 v=0
98374 On ch=13 n=70 v=0
98585 On ch=13 n=75 v=111
98592 On ch=13 n=72 v=74
98627 On ch=13 n=72 v=0
98641 On ch=13 n=75 v=0
98852 On ch=13 n=77 v=97
98856 On ch=13 n=74 v=95
99323 On ch=13 n=75 v=108
99323 On ch=13 n=79 v=99
99350 On ch=13 n=74 v=0
99352 On ch=13 n=77 v=0
99547 On ch=13 n=75 v=0
99794 On ch=13 n=70 v=111
99797 On ch=13 n=79 v=0
99798 On ch=13 n=77 v=95
99800 On ch=13 n=74 v=92
99864 On ch=13 n=74 v=0
99924 On ch=13 n=77 v=0
100020 On ch=13 n=82 v=124
100239 On ch=13 n=75 v=107
100364 On ch=13 n=82 v=0
100444 On ch=13 n=75 v=0
100460 On ch=13 n=70 v=0
100467 On ch=13 n=80 v=97
100511 Par ch=13 c=64 v=127
100521 On ch=13 n=80 v=0
100577 On ch=13 n=79 v=108
100650 On ch=13 n=79 v=0
100715 Par ch=13 c=64 v=0
100721 On ch=13 n=79 v=83
100727 On ch=13 n=75 v=105
100953 On ch=13 n=75 v=0
100983 On ch=13 n=74 v=96
100987 On ch=13 n=77 v=91
101025 On ch=13 n=79 v=0
101171 On ch=13 n=74 v=0
101228 On ch=13 n=67 v=95
101267 On ch=13 n=77 v=0
101482 On ch=13 n=74 v=88
101485 On ch=13 n=77 v=91
101582 On ch=13 n=74 v=0
101615 On ch=13 n=77 v=0
101720 On ch=13 n=77 v=98
101722 On ch=13 n=74 v=86
101954 On ch=13 n=75 v=95
101960 On ch=13 n=72 v=74
101992 On ch=13 n=74 v=0
102000 On ch=13 n=67 v=0
102038 On ch=13 n=77 v=0
102147 On ch=13 n=72 v=0
102203 On ch=13 n=65 v=96
102244 On ch=13 n=75 v=0
102436 On ch=13 n=75 v=110
102452 On ch=13 n=72 v=62
102574 On ch=13 n=72 v=0
102580 On ch=13 n=75 v=0
102676 On ch=13 n=72 v=92
102678 On ch=13 n=75 v=109
102875 On ch=13 n=65 v=0
102901 On ch=13 n=74 v=91
102909 On ch=13 n=70 v=98
102947 On ch=13 n=75 v=0
102951 On ch=13 n=72 v=0
103094 On ch=13 n=74 v=0
103131 On ch=13 n=70 v=0
103141 On ch=13 n=63 v=117
103390 On ch=13 n=74 v=100
103396 On ch=13 n=70 v=94
103513 On ch=13 n=70 v=0
103529 On ch=13 n=74 v=0
103633 On ch=13 n=74 v=101
103636 On ch=13 n=70 v=102
103840 On ch=13 n=70 v=0
103849 Par ch=13 c=64 v=0
103859 On ch=13 n=69 v=87
103860 On ch=13 n=74 v=0
103861 On ch=13 n=72 v=95
103877 On ch=13 n=63 v=0
104002 On ch=13 n=69 v=0
104085 On ch=13 n=62 v=115
104143 On ch=13 n=72 v=0
104333 On ch=13 n=72 v=103
104333 On ch=13 n=69 v=94
104480 On ch=13 n=69 v=0
104500 On ch=13 n=72 v=0
104575 On ch=13 n=69 v=93
104575 On ch=13 n=72 v=107
104713 Par ch=13 c=64 v=127
104813 On ch=13 n=62 v=0
104813 On ch=13 n=67 v=93
104814 On ch=13 n=70 v=105
104861 On ch=13 n=67 v=0
104873 On ch=13 n=72 v=0
104877 On ch=13 n=69 v=0
104881 On ch=13 n=70 v=0
105011 Par ch=13 c=64 v=0
105052 On ch=13 n=82 v=114
105164 On ch=13 n=74 v=94
105287 On ch=13 n=79 v=79
105293 On ch=13 n=74 v=0
105402 On ch=13 n=77 v=91
105479 On ch=13 n=79 v=0
105539 On ch=13 n=75 v=111
105542 On ch=13 n=77 v=0
105667 On ch=13 n=82 v=0
105779 On ch=13 n=81 v=84
105790 On ch=13 n=75 v=0
105845 Par ch=13 c=64 v=0
105888 On ch=13 n=79 v=93
105923 On ch=13 n=81 v=0
106029 On ch=13 n=81 v=86
106089 On ch=13 n=79 v=0
106144 On ch=13 n=78 v=111
106183 On ch=13 n=81 v=0
106257 On ch=13 n=79 v=91
106289 On ch=13 n=78 v=0
106372 On ch=13 n=81 v=99
106409 On ch=13 n=79 v=0
106460 On ch=13 n=81 v=0
106511 On ch=13 n=74 v=101
106589 On ch=13 n=74 v=0
106600 On ch=13 n=75 v=91
106700 On ch=13 n=75 v=0
106707 On ch=13 n=74 v=80
106780 On ch=13 n=74 v=0
106790 On ch=13 n=75 v=94
106827 Par ch=13 c=64 v=127
106844 On ch=13 n=75 v=0
106866 On ch=13 n=74 v=70
106911 On ch=13 n=74 v=0
106916 Par ch=13 c=64 v=0
106947 On ch=13 n=75 v=99
107016 On ch=13 n=74 v=84
107017 On ch=13 n=75 v=0
107092 On ch=13 n=74 v=0
107102 On ch=13 n=75 v=97
107178 On ch=13 n=75 v=0
107178 On ch=13 n=74 v=80
107254 On ch=13 n=74 v=0
107271 On ch=13 n=75 v=100
107347 On ch=13 n=75 v=0
107352 On ch=13 n=74 v=78
107436 On ch=13 n=74 v=0
107442 On ch=13 n=75 v=94
107514 On ch=13 n=75 v=0
107516 On ch=13 n=74 v=79
107593 On ch=13 n=74 v=0
107615 On ch=13 n=75 v=85
107668 On ch=13 n=75 v=0
107678 On ch=13 n=74 v=78
107757 On ch=13 n=74 v=0
107768 On ch=13 n=75 v=86
107829 On ch=13 n=74 v=68
107833 On ch=13 n=75 v=0
107918 On ch=13 n=74 v=0
107934 On ch=13 n=75 v=92
108010 On ch=13 n=75 v=0
108012 On ch=13 n=74 v=80
108086 On ch=13 n=74 v=0
108105 On ch=13 n=75 v=90
108184 On ch=13 n=74 v=84
108192 On ch=13 n=75 v=0
108262 On ch=13 n=74 v=0
108272 On ch=13 n=75 v=88
108355 On ch=13 n=75 v=0
108356 On ch=13 n=74 v=70
108436 On ch=13 n=74 v=0
108447 On ch=13 n=75 v=90
108515 On ch=13 n=75 v=0
108531 On ch=13 n=74 v=78
108601 On ch=13 n=74 v=0
108621 On ch=13 n=75 v=89
108685 On ch=13 n=75 v=0
108700 On ch=13 n=74 v=79
108775 On ch=13 n=74 v=0
108790 On ch=13 n=75 v=94
108841 On ch=13 n=75 v=0
108869 On ch=13 n=74 v=73
108927 On ch=13 n=74 v=0
108957 On ch=13 n=75 v=81
109011 On ch=13 n=75 v=0
109042 On ch=13 n=74 v=74
109086 On ch=13 n=74 v=0
109113 On ch=13 n=75 v=96
109185 On ch=13 n=75 v=0
109195 On ch=13 n=74 v=92
109250 On ch=13 n=74 v=0
109268 On ch=13 n=75 v=92
109279 Par ch=13 c=64 v=0
109338 On ch=13 n=74 v=86
109383 On ch=13 n=75 v=0
109441 On ch=13 n=74 v=0
109608 On ch=13 n=67 v=82
109852 On ch=13 n=70 v=104
109916 On ch=13 n=67 v=0
110093 On ch=13 n=70 v=0
110094 On ch=13 n=74 v=89
110218 Par ch=13 c=64 v=127
110234 On ch=13 n=74 v=0
110302 Par ch=13 c=64 v=0
110326 On ch=13 n=74 v=95
110397 On ch=13 n=72 v=78
110401 On ch=13 n=74 v=0
110460 On ch=13 n=74 v=80
110466 On ch=13 n=72 v=0
110540 On ch=13 n=72 v=78
110546 On ch=13 n=74 v=0
110596 Par ch=13 c=64 v=127
110601 On ch=13 n=72 v=0
110603 On ch=13 n=74 v=72
110691 On ch=13 n=72 v=74
110693 On ch=13 n=74 v=0
110741 On ch=13 n=72 v=0
110748 On ch=13 n=74 v=72
110764 Par ch=13 c=64 v=0
110841 On ch=13 n=72 v=73
110848 On ch=13 n=74 v=0
110902 On ch=13 n=72 v=0
110905 On ch=13 n=74 v=75
110996 On ch=13 n=72 v=73
111002 On ch=13 n=74 v=0
111062 On ch=13 n=74 v=75
111066 On ch=13 n=72 v=0
111156 On ch=13 n=74 v=0
111157 On ch=13 n=72 v=72
111221 On ch=13 n=72 v=0
111239 On ch=13 n=74 v=79
111322 On ch=13 n=72 v=77
111324 On ch=13 n=74 v=0
111395 On ch=13 n=74 v=74
111400 On ch=13 n=72 v=0
111491 On ch=13 n=74 v=0
111491 On ch=13 n=72 v=70
111552 On ch=13 n=72 v=0
111555 On ch=13 n=74 v=68
111654 On ch=13 n=72 v=70
111656 On ch=13 n=74 v=0
111733 On ch=13 n=74 v=78
111734 On ch=13 n=72 v=0
111833 On ch=13 n=72 v=72
111834 On ch=13 n=74 v=0
111904 On ch=13 n=74 v=72
111910 On ch=13 n=72 v=0
112010 On ch=13 n=72 v=67
112014 On ch=13 n=74 v=0
112087 On ch=13 n=72 v=0
112090 On ch=13 n=74 v=78
112207 On ch=13 n=74 v=0
112207 On ch=13 n=72 v=75
112295 On ch=13 n=72 v=0
112299 On ch=13 n=74 v=87
112396 On ch=13 n=74 v=0
112402 On ch=13 n=72 v=70
112479 On ch=13 n=72 v=0
112480 On ch=13 n=74 v=80
112575 On ch=13 n=74 v=0
112581 On ch=13 n=72 v=76
112661 On ch=13 n=72 v=0
112671 On ch=13 n=74 v=80
112785 On ch=13 n=74 v=0
112796 On ch=13 n=72 v=75
112826 Par ch=13 c=64 v=127
112870 On ch=13 n=72 v=0
112880 On ch=13 n=74 v=84
112971 On ch=13 n=74 v=0
112976 On ch=13 n=72 v=74
113054 On ch=13 n=74 v=77
113065 On ch=13 n=72 v=0
113133 On ch=13 n=72 v=72
113142 On ch=13 n=74 v=0
113251 Par ch=13 c=64 v=0
113428 On ch=13 n=72 v=0
113433 On ch=13 n=65 v=99
113689 On ch=13 n=69 v=98
113761 On ch=13 n=65 v=0
113927 On ch=13 n=72 v=106
113989 On ch=13 n=69 v=0
114152 On ch=13 n=77 v=109
114355 On ch=13 n=77 v=0
114358 Par ch=13 c=64 v=127
114384 On ch=13 n=72 v=0
114412 On ch=13 n=65 v=105
114554 Par ch=13 c=64 v=0
114666 On ch=13 n=70 v=114
114718 On ch=13 n=65 v=0
114890 On ch=13 n=62 v=97
115116 On ch=13 n=64 v=98
115142 On ch=13 n=70 v=0
115161 On ch=13 n=62 v=0
115218 On ch=13 n=67 v=94
115261 On ch=13 n=64 v=0
115336 On ch=13 n=64 v=99
115445 On ch=13 n=60 v=107
115519 On ch=13 n=64 v=0
115554 On ch=13 n=67 v=0
115574 On ch=13 n=69 v=103
115611 On ch=13 n=60 v=0
115818 On ch=13 n=60 v=103
116093 On ch=13 n=62 v=100
116138 On ch=13 n=60 v=0
116194 On ch=13 n=65 v=89
116216 On ch=13 n=62 v=0
116263 On ch=13 n=69 v=0
116307 On ch=13 n=62 v=93
116412 On ch=13 n=65 v=0
116426 On ch=13 n=60 v=86
116456 On ch=13 n=60 v=0
116467 On ch=13 n=62 v=0
116548 On ch=13 n=58 v=110
116648 On ch=13 n=58 v=0
116673 On ch=13 n=69 v=69
116783 On ch=13 n=67 v=92
116877 On ch=13 n=69 v=0
116877 On ch=13 n=65 v=95
116893 Par ch=13 c=64 v=127
116931 On ch=13 n=67 v=0
116942 On ch=13 n=65 v=0
117013 On ch=13 n=64 v=105
117047 Par ch=13 c=64 v=0
117119 On ch=13 n=67 v=88
117164 On ch=13 n=64 v=0
117253 On ch=13 n=64 v=99
117366 On ch=13 n=62 v=96
117396 On ch=13 n=67 v=0
117459 On ch=13 n=64 v=0
117491 On ch=13 n=60 v=89
117501 On ch=13 n=62 v=0
117578 On ch=13 n=60 v=0
117600 On ch=13 n=58 v=107
117681 Par ch=13 c=64 v=127
117685 On ch=13 n=58 v=0
117735 On ch=13 n=57 v=74
117783 Par ch=13 c=64 v=0
117844 On ch=13 n=57 v=0
117863 On ch=13 n=55 v=56
117931 On ch=13 n=55 v=0
117975 On ch=13 n=57 v=58
118090 On ch=13 n=60 v=59
118096 On ch=13 n=57 v=0
118236 On ch=13 n=60 v=0
118241 On ch=13 n=65 v=60
118357 On ch=13 n=64 v=58
118443 On ch=13 n=65 v=0
118481 On ch=13 n=62 v=71
118532 On ch=13 n=64 v=0
118588 On ch=13 n=60 v=58
118630 On ch=13 n=62 v=0
118688 On ch=13 n=60 v=0
118722 On ch=13 n=58 v=78
118820 On ch=13 n=58 v=0
118840 On ch=13 n=57 v=75
118969 On ch=13 n=58 v=76
119011 On ch=13 n=57 v=0
119081 On ch=13 n=62 v=69
119086 On ch=13 n=58 v=0
119182 On ch=13 n=62 v=0
119212 On ch=13 n=67 v=65
119333 On ch=13 n=65 v=70
119463 On ch=13 n=64 v=77
119516 On ch=13 n=67 v=0
119574 On ch=13 n=65 v=0
119576 On ch=13 n=62 v=80
119653 On ch=13 n=64 v=0
119689 On ch=13 n=62 v=0
119694 On ch=13 n=60 v=80
119799 On ch=13 n=58 v=92
119802 On ch=13 n=60 v=0
119915 On ch=13 n=58 v=0
119929 On ch=13 n=60 v=84
120032 On ch=13 n=65 v=86
120055 On ch=13 n=60 v=0
120156 On ch=13 n=65 v=0
120162 On ch=13 n=69 v=87
120267 On ch=13 n=67 v=78
120393 On ch=13 n=65 v=97
120443 On ch=13 n=69 v=0
120492 On ch=13 n=64 v=89
120522 On ch=13 n=67 v=0
120590 On ch=13 n=65 v=0
120625 On ch=13 n=62 v=97
120640 On ch=13 n=64 v=0
120726 On ch=13 n=62 v=0
120726 On ch=13 n=60 v=99
120827 On ch=13 n=60 v=0
120853 On ch=13 n=62 v=109
120958 On ch=13 n=65 v=109
120973 On ch=13 n=62 v=0
121085 On ch=13 n=65 v=0
121108 On ch=13 n=70 v=116
121219 On ch=13 n=69 v=104
121340 On ch=13 n=67 v=107
121391 On ch=13 n=70 v=0
121456 On ch=13 n=65 v=112
121468 On ch=13 n=69 v=0
121491 On ch=13 n=67 v=0
121540 On ch=13 n=65 v=0
121570 Par ch=13 c=64 v=127
121578 On ch=13 n=64 v=108
121684 On ch=13 n=62 v=118
121685 On ch=13 n=64 v=0
121721 Par ch=13 c=64 v=0
121778 On ch=13 n=62 v=0
121818 On ch=13 n=64 v=103
121939 On ch=13 n=60 v=117
121970 On ch=13 n=64 v=0
122050 On ch=13 n=60 v=0
122070 On ch=13 n=64 v=119
122192 On ch=13 n=67 v=115
122240 On ch=13 n=64 v=0
122319 On ch=13 n=70 v=123
122364 On ch=13 n=67 v=0
122407 On ch=13 n=70 v=0
122437 On ch=13 n=72 v=127
122511 On ch=13 n=72 v=0
122554 On ch=13 n=76 v=108
122596 On ch=13 n=76 v=0
122653 On ch=13 n=79 v=127
122716 On ch=13 n=79 v=0
122781 On ch=13 n=81 v=98
123041 On ch=13 n=74 v=83
123120 On ch=13 n=81 v=0
123265 On ch=13 n=74 v=0
123286 On ch=13 n=76 v=72
123399 On ch=13 n=74 v=70
123403 On ch=13 n=76 v=0
123477 On ch=13 n=74 v=0
123526 On ch=13 n=73 v=72
123615 On ch=13 n=73 v=0
123640 On ch=13 n=74 v=64
123819 On ch=13 n=74 v=0
123867 On ch=13 n=79 v=69
123993 On ch=13 n=74 v=70
124095 On ch=13 n=71 v=71
124118 On ch=13 n=74 v=0
124206 On ch=13 n=71 v=0
124237 On ch=13 n=79 v=0
124239 On ch=13 n=72 v=68
124338 On ch=13 n=72 v=0
124338 On ch=13 n=71 v=71
124452 On ch=13 n=71 v=0
124464 On ch=13 n=72 v=65
124577 On ch=13 n=76 v=73
124613 On ch=13 n=72 v=0
124707 On ch=13 n=76 v=0
124710 On ch=13 n=77 v=68
124953 On ch=13 n=70 v=67
125165 On ch=13 n=70 v=0
125185 On ch=13 n=72 v=64
125284 On ch=13 n=70 v=85
125327 On ch=13 n=77 v=0
125331 On ch=13 n=72 v=0
125395 On ch=13 n=70 v=0
125400 On ch=13 n=69 v=68
125515 On ch=13 n=69 v=0
125533 On ch=13 n=70 v=77
125762 On ch=13 n=70 v=0
125777 On ch=13 n=75 v=89
125894 On ch=13 n=70 v=92
125981 On ch=13 n=75 v=0
126022 On ch=13 n=67 v=75
126055 On ch=13 n=70 v=0
126150 On ch=13 n=67 v=0
126166 On ch=13 n=69 v=76
126280 On ch=13 n=69 v=0
126280 On ch=13 n=67 v=76
126403 On ch=13 n=69 v=75
126411 On ch=13 n=67 v=0
126525 On ch=13 n=72 v=88
126550 On ch=13 n=69 v=0
126658 On ch=13 n=74 v=87
126666 On ch=13 n=72 v=0
126897 On ch=13 n=67 v=72
126935 On ch=13 n=74 v=0
127135 On ch=13 n=69 v=70
127143 On ch=13 n=67 v=0
127237 On ch=13 n=67 v=70
127263 On ch=13 n=69 v=0
127360 On ch=13 n=67 v=0
127364 On ch=13 n=66 v=83
127473 On ch=13 n=66 v=0
127477 On ch=13 n=67 v=70
127672 On ch=13 n=67 v=0
127690 On ch=13 n=72 v=77
127810 On ch=13 n=67 v=78
127886 On ch=13 n=72 v=0
127908 On ch=13 n=67 v=0
127916 On ch=13 n=64 v=76
128028 On ch=13 n=64 v=0
128038 On ch=13 n=65 v=75
128118 On ch=13 n=65 v=0
128133 On ch=13 n=64 v=72
128254 On ch=13 n=65 v=76
128272 On ch=13 n=64 v=0
128342 Par ch=13 c=64 v=127
128370 On ch=13 n=69 v=80
128389 On ch=13 n=65 v=0
128448 On ch=13 n=69 v=0
128531 On ch=13 n=72 v=75
128595 On ch=13 n=72 v=0
128605 Par ch=13 c=64 v=0
128608 On ch=13 n=70 v=86
128673 On ch=13 n=70 v=0
128710 On ch=13 n=72 v=65
128806 On ch=13 n=72 v=0
128811 On ch=13 n=70 v=87
128879 On ch=13 n=70 v=0
128920 On ch=13 n=72 v=55
129013 On ch=13 n=72 v=0
129034 On ch=13 n=70 v=77
129108 On ch=13 n=70 v=0
129118 On ch=13 n=72 v=53
129177 On ch=13 n=72 v=0
129194 On ch=13 n=70 v=77
129239 On ch=13 n=70 v=0
129272 On ch=13 n=72 v=65
129278 Par ch=13 c=64 v=127
129369 On ch=13 n=70 v=60
129371 On ch=13 n=72 v=0
129451 On ch=13 n=70 v=0
129515 Par ch=13 c=64 v=0
129561 On ch=13 n=79 v=84
129716 On ch=13 n=76 v=82
129739 On ch=13 n=79 v=0
129852 On ch=13 n=72 v=76
129853 On ch=13 n=76 v=0
129996 On ch=13 n=70 v=93
130026 On ch=13 n=72 v=0
130088 On ch=13 n=70 v=0
130121 On ch=13 n=79 v=77
130234 On ch=13 n=76 v=71
130254 Par ch=13 c=64 v=127
130261 On ch=13 n=79 v=0
130321 On ch=13 n=72 v=74
130338 On ch=13 n=76 v=0
130378 On ch=13 n=72 v=0
130443 On ch=13 n=72 v=87
130543 On ch=13 n=72 v=0
130551 On ch=13 n=70 v=86
130623 On ch=13 n=70 v=0
130629 On ch=13 n=72 v=77
130636 Par ch=13 c=64 v=0
130757 On ch=13 n=70 v=79
130762 On ch=13 n=72 v=0
130866 On ch=13 n=70 v=0
130876 On ch=13 n=72 v=68
131005 On ch=13 n=70 v=85
131016 On ch=13 n=72 v=0
131082 On ch=13 n=70 v=0
131092 On ch=13 n=72 v=74
131170 Par ch=13 c=64 v=127
131206 On ch=13 n=70 v=89
131207 On ch=13 n=72 v=0
131281 On ch=13 n=70 v=0
131298 On ch=13 n=72 v=71
131388 On ch=13 n=70 v=73
131427 Par ch=13 c=64 v=0
131429 On ch=13 n=72 v=0
131462 On ch=13 n=70 v=0
131539 On ch=13 n=79 v=96
131662 On ch=13 n=76 v=94
131715 On ch=13 n=79 v=0
131784 On ch=13 n=72 v=87
131824 On ch=13 n=76 v=0
131908 On ch=13 n=70 v=102
131945 On ch=13 n=72 v=0
131994 On ch=13 n=70 v=0
132034 On ch=13 n=79 v=90
132155 On ch=13 n=76 v=83
132160 Par ch=13 c=64 v=127
132190 On ch=13 n=79 v=0
132263 On ch=13 n=72 v=91
132328 Par ch=13 c=64 v=0
132335 On ch=13 n=76 v=0
132390 On ch=13 n=69 v=109
132407 On ch=13 n=72 v=0
132642 On ch=13 n=77 v=101
132649 On ch=13 n=69 v=0
132870 On ch=13 n=69 v=104
132879 On ch=13 n=65 v=99
132987 On ch=13 n=65 v=0
133082 On ch=13 n=69 v=0
133127 On ch=13 n=70 v=108
133129 On ch=13 n=67 v=91
133146 On ch=13 n=77 v=0
133147 Par ch=13 c=64 v=127
133361 On ch=13 n=70 v=0
133371 Par ch=13 c=64 v=0
133381 On ch=13 n=69 v=98
133381 On ch=13 n=72 v=101
133835 On ch=13 n=70 v=112
133835 On ch=13 n=74 v=109
133879 On ch=13 n=69 v=0
133882 On ch=13 n=72 v=0
133946 On ch=13 n=67 v=0
134250 On ch=13 n=70 v=0
134456 On ch=13 n=74 v=0
134544 On ch=13 n=72 v=94
134547 On ch=13 n=69 v=82
134660 On ch=13 n=74 v=98
134679 On ch=13 n=72 v=0
134719 On ch=13 n=69 v=0
134742 On ch=13 n=74 v=0
134779 On ch=13 n=75 v=120
134781 On ch=13 n=69 v=52
135026 Par ch=13 c=64 v=127
135029 On ch=13 n=74 v=92
135040 On ch=13 n=69 v=0
135070 On ch=13 n=75 v=0
135141 On ch=13 n=72 v=103
135197 On ch=13 n=74 v=0
135201 On ch=13 n=72 v=0
135254 Par ch=13 c=64 v=0
135277 On ch=13 n=74 v=105
135280 On ch=13 n=70 v=116
135838 On ch=13 n=70 v=0
135910 Par ch=13 c=64 v=127
135973 On ch=13 n=74 v=0
135995 On ch=13 n=65 v=98
136101 On ch=13 n=69 v=101
136116 On ch=13 n=65 v=0
136160 On ch=13 n=69 v=0
136214 Par ch=13 c=64 v=0
136489 On ch=13 n=79 v=100
136702 On ch=13 n=71 v=105
136710 On ch=13 n=67 v=94
136834 On ch=13 n=67 v=0
136953 On ch=13 n=69 v=97
136958 On ch=13 n=72 v=100
136989 On ch=13 n=71 v=0
137024 On ch=13 n=79 v=0
137175 On ch=13 n=72 v=0
137193 On ch=13 n=74 v=98
137196 On ch=13 n=71 v=99
137199 Par ch=13 c=64 v=0
137656 On ch=13 n=69 v=0
137674 On ch=13 n=76 v=103
137678 On ch=13 n=72 v=104
137724 On ch=13 n=74 v=0
137725 On ch=13 n=71 v=0
138150 On ch=13 n=72 v=0
138384 On ch=13 n=74 v=100
138400 On ch=13 n=71 v=62
138402 On ch=13 n=76 v=0
138490 On ch=13 n=76 v=93
138518 On ch=13 n=74 v=0
138621 On ch=13 n=77 v=111
138656 On ch=13 n=76 v=0
138855 On ch=13 n=76 v=92
138895 On ch=13 n=71 v=0
138914 On ch=13 n=77 v=0
138969 On ch=13 n=74 v=97
139013 On ch=13 n=76 v=0
139041 On ch=13 n=74 v=0
139101 On ch=13 n=76 v=95
139106 On ch=13 n=72 v=89
139404 On ch=13 n=72 v=0
139779 On ch=13 n=76 v=0
139851 Par ch=13 c=64 v=127
139853 On ch=13 n=72 v=90
139932 On ch=13 n=72 v=0
140039 Par ch=13 c=64 v=0
140089 On ch=13 n=72 v=81
140146 On ch=13 n=74 v=49
140147 On ch=13 n=72 v=0
140198 On ch=13 n=72 v=70
140224 On ch=13 n=74 v=0
140243 On ch=13 n=71 v=68
140253 On ch=13 n=72 v=0
140314 On ch=13 n=71 v=0
140317 On ch=13 n=72 v=80
140371 On ch=13 n=72 v=0
140524 On ch=13 n=72 v=71
140598 On ch=13 n=72 v=0
140603 On ch=13 n=74 v=52
140652 On ch=13 n=74 v=0
140659 On ch=13 n=72 v=49
140703 On ch=13 n=71 v=59
140705 Par ch=13 c=64 v=0
140707 On ch=13 n=72 v=0
140760 On ch=13 n=71 v=0
140765 On ch=13 n=72 v=57
141094 On ch=13 n=72 v=0
141095 On ch=13 n=74 v=72
141184 On ch=13 n=74 v=0
141236 On ch=13 n=76 v=75
141344 On ch=13 n=77 v=74
141346 On ch=13 n=76 v=0
141481 On ch=13 n=79 v=72
141482 On ch=13 n=77 v=0
141714 On ch=13 n=79 v=0
141720 On ch=13 n=72 v=72
141806 On ch=13 n=72 v=0
141948 On ch=13 n=72 v=65
142016 On ch=13 n=72 v=0
142025 On ch=13 n=74 v=59
142086 On ch=13 n=72 v=62
142088 On ch=13 n=74 v=0
142145 On ch=13 n=71 v=70
142146 On ch=13 n=72 v=0
142204 On ch=13 n=72 v=76
142223 On ch=13 n=71 v=0
142254 On ch=13 n=72 v=0
142440 On ch=13 n=72 v=62
142511 On ch=13 n=72 v=0
142512 On ch=13 n=74 v=64
142562 On ch=13 n=72 v=78
142582 On ch=13 n=74 v=0
142635 On ch=13 n=71 v=76
142637 On ch=13 n=72 v=0
142691 On ch=13 n=72 v=77
142705 On ch=13 n=71 v=0
142729 Par ch=13 c=64 v=127
142787 On ch=13 n=72 v=0
142811 On ch=13 n=72 v=39
142932 Par ch=13 c=64 v=0
142998 On ch=13 n=72 v=0
143008 On ch=13 n=76 v=81
143078 On ch=13 n=76 v=0
143143 On ch=13 n=77 v=81
143252 On ch=13 n=79 v=78
143253 On ch=13 n=77 v=0
143391 On ch=13 n=79 v=0
143400 On ch=13 n=81 v=80
143614 On ch=13 n=81 v=0
143644 On ch=13 n=72 v=82
143689 Par ch=13 c=64 v=127
143745 On ch=13 n=72 v=0
143818 Par ch=13 c=64 v=0
143894 On ch=13 n=72 v=69
143946 On ch=13 n=74 v=69
143955 On ch=13 n=72 v=0
144012 On ch=13 n=74 v=0
144015 On ch=13 n=72 v=71
144076 On ch=13 n=71 v=78
144081 On ch=13 n=72 v=0
144149 On ch=13 n=72 v=77
144159 On ch=13 n=71 v=0
144201 On ch=13 n=72 v=0
144402 On ch=13 n=72 v=76
144471 On ch=13 n=72 v=0
144471 On ch=13 n=74 v=66
144519 On ch=13 n=72 v=75
144539 On ch=13 n=74 v=0
144593 On ch=13 n=71 v=79
144597 On ch=13 n=72 v=0
144650 On ch=13 n=72 v=82
144660 On ch=13 n=71 v=0
144672 Par ch=13 c=64 v=127
144839 On ch=13 n=67 v=89
144887 Par ch=13 c=64 v=0
144943 On ch=13 n=67 v=0
144944 On ch=13 n=72 v=0
144956 On ch=13 n=76 v=95
145081 On ch=13 n=79 v=87
145103 On ch=13 n=76 v=0
145201 On ch=13 n=81 v=86
145247 On ch=13 n=79 v=0
145359 On ch=13 n=82 v=98
145366 On ch=13 n=81 v=0
145560 On ch=13 n=82 v=0
145583 On ch=13 n=72 v=89
145929 On ch=13 n=72 v=0
145937 On ch=13 n=82 v=94
146035 On ch=13 n=81 v=87
146057 On ch=13 n=82 v=0
146154 On ch=13 n=79 v=89
146236 On ch=13 n=81 v=0
146257 On ch=13 n=77 v=92
146274 On ch=13 n=79 v=0
146322 On ch=13 n=84 v=105
146429 On ch=13 n=84 v=0
146510 Par ch=13 c=64 v=127
146542 On ch=13 n=75 v=115
146624 On ch=13 n=77 v=0
146821 Par ch=13 c=64 v=0
146856 On ch=13 n=74 v=91
146874 On ch=13 n=75 v=0
146912 On ch=13 n=72 v=85
146924 On ch=13 n=74 v=0
146972 On ch=13 n=74 v=94
146983 On ch=13 n=72 v=0
147047 On ch=13 n=74 v=0
147085 On ch=13 n=72 v=99
147169 On ch=13 n=72 v=0
147187 On ch=13 n=70 v=110
147273 On ch=13 n=79 v=102
147275 On ch=13 n=70 v=0
147480 On ch=13 n=70 v=109
147508 On ch=13 n=79 v=0
147806 On ch=13 n=69 v=75
147850 On ch=13 n=70 v=0
147899 On ch=13 n=67 v=91
147910 On ch=13 n=69 v=0
147970 On ch=13 n=67 v=0
147979 On ch=13 n=69 v=94
148119 On ch=13 n=67 v=95
148182 On ch=13 n=69 v=0
148201 On ch=13 n=65 v=103
148223 On ch=13 n=67 v=0
148267 On ch=13 n=74 v=101
148308 On ch=13 n=65 v=0
148476 On ch=13 n=65 v=100
148585 On ch=13 n=65 v=0
148629 On ch=13 n=74 v=0
148687 On ch=13 n=65 v=84
148741 On ch=13 n=67 v=94
148756 On ch=13 n=65 v=0
148825 On ch=13 n=65 v=89
148898 On ch=13 n=67 v=0
148939 On ch=13 n=64 v=95
149009 On ch=13 n=65 v=0
149089 On ch=13 n=64 v=0
149436 On ch=13 n=82 v=110
149510 Par ch=13 c=64 v=127
149658 Par ch=13 c=64 v=0
149660 On ch=13 n=81 v=100
149701 On ch=13 n=82 v=0
149776 On ch=13 n=82 v=105
149878 On ch=13 n=81 v=0
149910 On ch=13 n=84 v=96
149963 On ch=13 n=82 v=0
150019 On ch=13 n=77 v=96
150093 On ch=13 n=84 v=0
150146 On ch=13 n=81 v=95
150154 On ch=13 n=77 v=0
150265 On ch=13 n=79 v=94
150339 On ch=13 n=81 v=0
150384 On ch=13 n=77 v=89
150481 On ch=13 n=79 v=0
150500 On ch=13 n=76 v=89
150522 On ch=13 n=77 v=0
150583 On ch=13 n=76 v=0
150633 On ch=13 n=77 v=92
150772 On ch=13 n=72 v=63
150865 On ch=13 n=77 v=0
150883 On ch=13 n=74 v=78
150917 On ch=13 n=72 v=0
150998 On ch=13 n=77 v=80
151016 On ch=13 n=74 v=0
151100 Par ch=13 c=64 v=1
151110 Par ch=13 c=64 v=0
151124 On ch=13 n=70 v=97
151232 On ch=13 n=69 v=78
151235 On ch=13 n=70 v=0
151354 On ch=13 n=70 v=102
151407 On ch=13 n=69 v=0
151459 On ch=13 n=77 v=0
151467 On ch=13 n=74 v=89
151516 On ch=13 n=70 v=0
151580 On ch=13 n=77 v=90
151703 On ch=13 n=70 v=98
151737 On ch=13 n=74 v=0
151825 On ch=13 n=77 v=0
151825 On ch=13 n=72 v=96
151873 On ch=13 n=70 v=0
151929 On ch=13 n=77 v=90
152042 On ch=13 n=69 v=98
152144 On ch=13 n=72 v=0
152161 On ch=13 n=67 v=92
152179 On ch=13 n=69 v=0
152212 Par ch=13 c=64 v=127
152275 Par ch=13 c=64 v=0
152284 On ch=13 n=69 v=95
152315 On ch=13 n=67 v=0
152397 On ch=13 n=77 v=0
152397 On ch=13 n=72 v=100
152442 On ch=13 n=69 v=0
152518 On ch=13 n=77 v=100
152630 On ch=13 n=69 v=92
152716 On ch=13 n=72 v=0
152768 On ch=13 n=71 v=99
152770 On ch=13 n=77 v=0
152790 On ch=13 n=69 v=0
152873 On ch=13 n=77 v=103
152937 On ch=13 n=71 v=0
152992 Par ch=13 c=64 v=127
153013 On ch=13 n=67 v=95
153042 On ch=13 n=77 v=0
153122 On ch=13 n=67 v=0
153131 On ch=13 n=65 v=88
153148 Par ch=13 c=64 v=0
153248 On ch=13 n=67 v=103
153251 On ch=13 n=65 v=0
153347 On ch=13 n=67 v=0
153366 On ch=13 n=77 v=109
153499 On ch=13 n=76 v=106
153526 On ch=13 n=77 v=0
153605 On ch=13 n=77 v=103
153663 On ch=13 n=76 v=0
153728 On ch=13 n=79 v=101
153742 On ch=13 n=77 v=0
153837 On ch=13 n=77 v=91
153960 On ch=13 n=76 v=103
153971 On ch=13 n=79 v=0
154024 On ch=13 n=77 v=0
154071 On ch=13 n=74 v=101
154151 On ch=13 n=76 v=0
154202 On ch=13 n=72 v=94
154222 On ch=13 n=74 v=0
154312 On ch=13 n=70 v=108
154351 On ch=13 n=72 v=0
154411 On ch=13 n=70 v=0
154443 On ch=13 n=69 v=98
154559 On ch=13 n=70 v=109
154598 On ch=13 n=69 v=0
154669 On ch=13 n=72 v=101
154704 On ch=13 n=70 v=0
154790 On ch=13 n=65 v=98
154863 On ch=13 n=72 v=0
154889 On ch=13 n=65 v=0
154911 On ch=13 n=69 v=101
155018 On ch=13 n=67 v=102
155108 On ch=13 n=69 v=0
155126 On ch=13 n=65 v=107
155216 On ch=13 n=67 v=0
155230 On ch=13 n=64 v=105
155275 On ch=13 n=65 v=0
155418 On ch=13 n=65 v=118
155427 PrCh ch=13 p=0
155427 Pb ch=13 v=8192
155427 Par ch=13 c=93 v=0
155427 Par ch=13 c=64 v=0
155427 Par ch=13 c=7 v=115
155427 Par ch=13 c=91 v=90
155427 Par ch=13 c=10 v=64
155465 Par ch=13 c=64 v=127
155466 On ch=13 n=64 v=0
155567 On ch=13 n=65 v=0
155666 On ch=13 n=77 v=110
155731 On ch=13 n=77 v=0
155885 Par ch=13 c=64 v=0
155908 On ch=13 n=69 v=102
155912 On ch=13 n=65 v=96
155950 On ch=13 n=65 v=0
155950 On ch=13 n=69 v=0
156141 On ch=13 n=67 v=90
156145 On ch=13 n=70 v=106
156172 On ch=13 n=67 v=0
156192 On ch=13 n=70 v=0
156393 On ch=13 n=72 v=98
156395 On ch=13 n=69 v=89
156878 On ch=13 n=74 v=97
156880 On ch=13 n=70 v=102
156913 On ch=13 n=69 v=0
156918 On ch=13 n=72 v=0
157138 On ch=13 n=70 v=0
157141 Par ch=13 c=64 v=127
157320 On ch=13 n=72 v=100
157322 On ch=13 n=69 v=90
157332 On ch=13 n=65 v=74
157334 On ch=13 n=74 v=0
157397 On ch=13 n=69 v=0
157429 On ch=13 n=72 v=0
157463 Par ch=13 c=64 v=0
157572 On ch=13 n=77 v=116
157792 On ch=13 n=70 v=109
157865 Par ch=13 c=64 v=127
157884 On ch=13 n=77 v=0
158017 On ch=13 n=70 v=0
158023 On ch=13 n=75 v=108
158093 On ch=13 n=75 v=0
158153 On ch=13 n=74 v=110
158224 On ch=13 n=74 v=0
158307 On ch=13 n=74 v=109
158313 On ch=13 n=70 v=110
158339 Par ch=13 c=64 v=0
158535 On ch=13 n=70 v=0
158557 On ch=13 n=72 v=92
158565 On ch=13 n=69 v=76
158605 On ch=13 n=74 v=0
158826 Par ch=13 c=64 v=127
158862 On ch=13 n=69 v=0
158877 On ch=13 n=72 v=0
158900 On ch=13 n=65 v=0
158900 Par ch=13 c=64 v=0
159501 On ch=13 n=84 v=107
159506 Par ch=13 c=64 v=127
159560 On ch=13 n=84 v=0
159735 On ch=13 n=76 v=101
159736 On ch=13 n=72 v=91
159759 Par ch=13 c=64 v=0
159763 On ch=13 n=76 v=0
159770 On ch=13 n=72 v=0
159983 On ch=13 n=77 v=100
159985 On ch=13 n=74 v=95
160018 On ch=13 n=74 v=0
160035 On ch=13 n=77 v=0
160256 On ch=13 n=79 v=102
160257 On ch=13 n=76 v=98
160711 On ch=13 n=81 v=95
160716 On ch=13 n=77 v=91
160753 On ch=13 n=76 v=0
160761 On ch=13 n=79 v=0
160980 On ch=13 n=77 v=0
161053 Par ch=13 c=64 v=127
161175 On ch=13 n=79 v=101
161177 On ch=13 n=76 v=102
161182 On ch=13 n=72 v=89
161204 On ch=13 n=81 v=0
161239 On ch=13 n=76 v=0
161274 On ch=13 n=79 v=0
161331 Par ch=13 c=64 v=0
161428 On ch=13 n=84 v=113
161658 On ch=13 n=77 v=98
161775 On ch=13 n=84 v=0
161830 Par ch=13 c=64 v=127
161882 On ch=13 n=82 v=109
161889 On ch=13 n=77 v=0
161945 On ch=13 n=82 v=0
161954 On ch=13 n=72 v=0
161989 On ch=13 n=81 v=107
162065 On ch=13 n=81 v=0
162169 On ch=13 n=81 v=107
162172 On ch=13 n=77 v=96
162176 On ch=13 n=72 v=90
162207 Par ch=13 c=64 v=0
162407 On ch=13 n=79 v=92
162410 On ch=13 n=76 v=92
162432 On ch=13 n=77 v=0
162480 On ch=13 n=81 v=0
162549 Par ch=13 c=64 v=127
162599 On ch=13 n=72 v=0
162603 On ch=13 n=79 v=0
162606 On ch=13 n=76 v=0
162694 Par ch=13 c=64 v=0
162772 On ch=13 n=72 v=79
162869 On ch=13 n=70 v=97
162956 On ch=13 n=72 v=0
162957 On ch=13 n=69 v=86
162969 On ch=13 n=70 v=0
163065 On ch=13 n=70 v=113
163068 On ch=13 n=69 v=0
163102 On ch=13 n=70 v=0
163319 On ch=13 n=79 v=105
163453 Par ch=13 c=64 v=127
163499 On ch=13 n=79 v=0
163683 On ch=13 n=70 v=100
163792 On ch=13 n=69 v=90
163809 Par ch=13 c=64 v=0
163913 On ch=13 n=67 v=90
163920 On ch=13 n=70 v=0
163955 On ch=13 n=69 v=0
164041 On ch=13 n=69 v=96
164056 On ch=13 n=67 v=0
164145 On ch=13 n=67 v=92
164226 On ch=13 n=69 v=0
164274 On ch=13 n=65 v=87
164294 On ch=13 n=67 v=0
164392 On ch=13 n=67 v=96
164413 On ch=13 n=65 v=0
164522 On ch=13 n=69 v=95
164580 On ch=13 n=67 v=0
164634 On ch=13 n=70 v=108
164697 On ch=13 n=69 v=0
164740 On ch=13 n=70 v=0
164746 On ch=13 n=72 v=103
164843 On ch=13 n=72 v=0
164852 On ch=13 n=74 v=110
164932 On ch=13 n=74 v=0
164981 On ch=13 n=75 v=122
165026 On ch=13 n=75 v=0
165233 On ch=13 n=84 v=111
165363 Par ch=13 c=64 v=127
165420 On ch=13 n=84 v=0
165617 On ch=13 n=75 v=111
165730 On ch=13 n=74 v=94
165824 On ch=13 n=72 v=100
165860 Par ch=13 c=64 v=0
165870 On ch=13 n=74 v=0
165872 On ch=13 n=75 v=0
165949 On ch=13 n=74 v=104
165961 On ch=13 n=72 v=0
166057 On ch=13 n=72 v=97
166060 On ch=13 n=74 v=0
166192 On ch=13 n=70 v=106
166204 On ch=13 n=72 v=0
166305 On ch=13 n=72 v=94
166309 On ch=13 n=70 v=0
166438 On ch=13 n=74 v=108
166452 On ch=13 n=72 v=0
166546 On ch=13 n=75 v=116
166599 On ch=13 n=74 v=0
166658 On ch=13 n=77 v=106
166661 On ch=13 n=75 v=0
166755 On ch=13 n=79 v=110
166763 On ch=13 n=77 v=0
166849 On ch=13 n=79 v=0
166889 On ch=13 n=80 v=114
166969 Par ch=13 c=64 v=127
166994 On ch=13 n=79 v=86
167009 On ch=13 n=80 v=0
167071 On ch=13 n=77 v=94
167099 On ch=13 n=79 v=0
167105 Par ch=13 c=64 v=0
167157 On ch=13 n=77 v=0
167163 On ch=13 n=79 v=98
167190 On ch=13 n=77 v=42
167241 On ch=13 n=77 v=0
167414 Par ch=13 c=64 v=127
167512 On ch=13 n=77 v=92
167566 Par ch=13 c=64 v=0
167587 On ch=13 n=76 v=104
167591 On ch=13 n=79 v=0
167608 On ch=13 n=77 v=0
167668 On ch=13 n=77 v=108
167669 On ch=13 n=76 v=0
167925 Par ch=13 c=64 v=127
167997 On ch=13 n=76 v=92
168053 On ch=13 n=77 v=0
168068 On ch=13 n=74 v=100
168082 On ch=13 n=76 v=0
168090 Par ch=13 c=64 v=0
168109 Par ch=13 c=64 v=1
168129 Par ch=13 c=64 v=0
168145 On ch=13 n=74 v=0
168146 On ch=13 n=76 v=111
168486 Par ch=13 c=64 v=127
168486 On ch=13 n=79 v=101
168493 On ch=13 n=76 v=0
168602 On ch=13 n=76 v=94
168649 On ch=13 n=79 v=0
168710 On ch=13 n=72 v=96
168748 On ch=13 n=76 v=0
168827 Par ch=13 c=64 v=0
168844 On ch=13 n=70 v=95
168866 On ch=13 n=72 v=0
168953 On ch=13 n=79 v=76
168955 On ch=13 n=70 v=0
169093 On ch=13 n=76 v=74
169137 On ch=13 n=79 v=0
169199 On ch=13 n=72 v=79
169231 On ch=13 n=76 v=0
169313 On ch=13 n=72 v=0
169323 On ch=13 n=70 v=86
169417 On ch=13 n=70 v=0
169446 On ch=13 n=79 v=72
169593 On ch=13 n=76 v=76
169599 On ch=13 n=79 v=0
169721 On ch=13 n=72 v=63
169777 On ch=13 n=76 v=0
169835 On ch=13 n=70 v=84
169841 On ch=13 n=72 v=0
169918 On ch=13 n=70 v=0
169940 On ch=13 n=79 v=78
170074 On ch=13 n=76 v=68
170117 On ch=13 n=79 v=0
170185 On ch=13 n=72 v=71
170228 On ch=13 n=76 v=0
170309 On ch=13 n=70 v=92
170315 On ch=13 n=72 v=0
170381 Par ch=13 c=64 v=127
170403 On ch=13 n=70 v=0
170414 On ch=13 n=79 v=81
170544 On ch=13 n=76 v=73
170637 On ch=13 n=79 v=0
170643 On ch=13 n=72 v=83
170709 On ch=13 n=76 v=0
170768 On ch=13 n=69 v=75
170784 On ch=13 n=72 v=0
170791 Par ch=13 c=64 v=0
170847 On ch=13 n=69 v=0
170875 On ch=13 n=81 v=92
171007 On ch=13 n=77 v=82
171068 On ch=13 n=81 v=0
171127 On ch=13 n=73 v=98
171174 On ch=13 n=77 v=0
171233 On ch=13 n=73 v=0
171253 On ch=13 n=72 v=76
171343 On ch=13 n=72 v=0
171346 On ch=13 n=81 v=82
171475 On ch=13 n=77 v=78
171513 On ch=13 n=81 v=0
171580 On ch=13 n=73 v=96
171610 On ch=13 n=77 v=0
171665 On ch=13 n=73 v=0
171708 On ch=13 n=72 v=65
171798 On ch=13 n=81 v=80
171801 On ch=13 n=72 v=0
171937 On ch=13 n=77 v=78
172021 On ch=13 n=81 v=0
172062 On ch=13 n=73 v=96
172168 On ch=13 n=77 v=0
172178 On ch=13 n=73 v=0
172221 On ch=13 n=72 v=78
172307 Par ch=13 c=64 v=127
172331 On ch=13 n=72 v=0
172340 On ch=13 n=81 v=82
172484 On ch=13 n=77 v=72
172505 On ch=13 n=81 v=0
172620 On ch=13 n=75 v=93
172666 On ch=13 n=77 v=0
172726 On ch=13 n=75 v=0
172729 Par ch=13 c=64 v=0
172744 On ch=13 n=74 v=80
172830 On ch=13 n=74 v=0
172845 On ch=13 n=83 v=76
172937 On ch=13 n=83 v=0
172954 On ch=13 n=80 v=93
173050 On ch=13 n=77 v=88
173103 On ch=13 n=80 v=0
173147 On ch=13 n=77 v=0
173172 On ch=13 n=74 v=77
173247 On ch=13 n=74 v=0
173275 On ch=13 n=83 v=86
173385 On ch=13 n=83 v=0
173403 On ch=13 n=80 v=95
173510 On ch=13 n=77 v=88
173575 On ch=13 n=80 v=0
173636 On ch=13 n=77 v=0
173648 On ch=13 n=74 v=85
173742 On ch=13 n=74 v=0
173748 On ch=13 n=83 v=89
173861 On ch=13 n=83 v=0
173881 On ch=13 n=80 v=97
173992 On ch=13 n=77 v=91
174056 On ch=13 n=80 v=0
174095 On ch=13 n=77 v=0
174121 On ch=13 n=74 v=91
174226 On ch=13 n=83 v=94
174235 On ch=13 n=74 v=0
174363 On ch=13 n=80 v=104
174391 On ch=13 n=83 v=0
174475 On ch=13 n=77 v=96
174543 On ch=13 n=80 v=0
174570 On ch=13 n=77 v=0
174609 On ch=13 n=76 v=95
174697 Par ch=13 c=64 v=127
174702 On ch=13 n=76 v=0
174725 On ch=13 n=84 v=101
174824 On ch=13 n=84 v=0
174847 On ch=13 n=79 v=92
174903 Par ch=13 c=64 v=0
174953 On ch=13 n=76 v=93
174997 On ch=13 n=79 v=0
175040 On ch=13 n=76 v=0
175071 On ch=13 n=72 v=86
175143 On ch=13 n=72 v=0
175184 On ch=13 n=76 v=85
175259 On ch=13 n=76 v=0
175313 On ch=13 n=74 v=93
175387 On ch=13 n=74 v=0
175423 On ch=13 n=77 v=86
175511 On ch=13 n=77 v=0
175550 On ch=13 n=76 v=96
175633 On ch=13 n=76 v=0
175673 Par ch=13 c=64 v=127
175675 On ch=13 n=79 v=87
175802 On ch=13 n=76 v=90
175826 On ch=13 n=79 v=0
175930 Par ch=13 c=64 v=0
175934 On ch=13 n=72 v=93
175978 On ch=13 n=76 v=0
176028 On ch=13 n=72 v=0
176070 On ch=13 n=67 v=83
176152 On ch=13 n=67 v=0
176185 On ch=13 n=70 v=85
176242 On ch=13 n=70 v=0
176309 On ch=13 n=69 v=80
176400 On ch=13 n=72 v=78
176407 On ch=13 n=69 v=0
176485 On ch=13 n=72 v=0
176526 On ch=13 n=70 v=106
176606 Par ch=13 c=64 v=127
176618 On ch=13 n=70 v=0
176639 On ch=13 n=74 v=91
176756 On ch=13 n=70 v=100
176791 On ch=13 n=74 v=0
176857 On ch=13 n=67 v=87
176867 Par ch=13 c=64 v=0
176910 On ch=13 n=70 v=0
176943 On ch=13 n=67 v=0
176982 On ch=13 n=64 v=83
177079 On ch=13 n=64 v=0
177093 On ch=13 n=67 v=81
177195 On ch=13 n=67 v=0
177242 On ch=13 n=65 v=90
177347 On ch=13 n=69 v=75
177373 On ch=13 n=65 v=0
177497 On ch=13 n=67 v=90
177498 On ch=13 n=69 v=0
177605 Par ch=13 c=64 v=127
177607 On ch=13 n=70 v=103
177636 On ch=13 n=67 v=0
177725 On ch=13 n=67 v=76
177767 On ch=13 n=70 v=0
177778 Par ch=13 c=64 v=0
177857 On ch=13 n=64 v=85
177969 On ch=13 n=67 v=0
177979 On ch=13 n=60 v=98
178027 On ch=13 n=64 v=0
178075 On ch=13 n=60 v=0
178093 On ch=13 n=70 v=98
178175 On ch=13 n=70 v=0
178213 On ch=13 n=69 v=78
178328 On ch=13 n=67 v=81
178356 On ch=13 n=69 v=0
178404 On ch=13 n=67 v=0
178450 On ch=13 n=69 v=105
178565 On ch=13 n=65 v=95
178577 On ch=13 n=69 v=0
178669 On ch=13 n=65 v=0
178699 On ch=13 n=67 v=86
178826 On ch=13 n=69 v=83
178857 On ch=13 n=67 v=0
178963 On ch=13 n=70 v=104
179010 On ch=13 n=69 v=0
179057 On ch=13 n=70 v=0
179076 On ch=13 n=72 v=96
179170 On ch=13 n=72 v=0
179192 On ch=13 n=74 v=94
179304 On ch=13 n=76 v=95
179337 On ch=13 n=74 v=0
179397 On ch=13 n=76 v=0
179439 On ch=13 n=77 v=99
179545 On ch=13 n=76 v=104
179597 On ch=13 n=77 v=0
179655 On ch=13 n=74 v=100
179734 On ch=13 n=76 v=0
179774 On ch=13 n=72 v=97
179800 On ch=13 n=74 v=0
179888 On ch=13 n=84 v=112
179917 On ch=13 n=72 v=0
179945 On ch=13 n=84 v=0
180104 On ch=13 n=69 v=104
180106 On ch=13 n=72 v=104
180106 On ch=13 n=77 v=109
180169 On ch=13 n=69 v=0
180174 On ch=13 n=72 v=0
180209 On ch=13 n=77 v=0
180378 On ch=13 n=77 v=121
180379 On ch=13 n=69 v=114
180382 On ch=13 n=72 v=111
180542 Par ch=13 c=64 v=127
180696 On ch=13 n=72 v=0
180702 On ch=13 n=69 v=0
180855 On ch=13 n=76 v=101
180857 On ch=13 n=67 v=105
180862 On ch=13 n=72 v=100
180899 Par ch=13 c=64 v=0
181019 On ch=13 n=77 v=0
181065 Par ch=13 c=64 v=127
181217 On ch=13 n=67 v=0
181342 On ch=13 n=65 v=106
181352 On ch=13 n=72 v=0
181367 On ch=13 n=76 v=0
181393 Par ch=13 c=64 v=0
181458 On ch=13 n=77 v=110
181687 On ch=13 n=71 v=111
181788 Par ch=13 c=64 v=127
181926 On ch=13 n=65 v=0
181957 On ch=13 n=74 v=97
181992 On ch=13 n=71 v=0
182080 On ch=13 n=72 v=105
182122 On ch=13 n=77 v=0
182123 Par ch=13 c=64 v=0
182180 On ch=13 n=70 v=115
182209 On ch=13 n=74 v=0
182258 On ch=13 n=72 v=0
182298 On ch=13 n=69 v=99
182328 On ch=13 n=70 v=0
182414 On ch=13 n=72 v=99
182447 On ch=13 n=69 v=0
182523 On ch=13 n=77 v=103
182535 On ch=13 n=72 v=0
182639 On ch=13 n=69 v=109
182734 On ch=13 n=69 v=0
182754 On ch=13 n=77 v=0
182764 On ch=13 n=67 v=103
182840 On ch=13 n=67 v=0
182986 On ch=13 n=70 v=114
182988 On ch=13 n=76 v=105
182998 On ch=13 n=72 v=76
183041 On ch=13 n=72 v=0
183049 On ch=13 n=70 v=0
183058 On ch=13 n=76 v=0
183242 On ch=13 n=72 v=97
183242 On ch=13 n=69 v=107
183244 On ch=13 n=77 v=116
183244 On ch=13 n=65 v=117
183278 Par ch=13 c=64 v=127
184107 On ch=13 n=69 v=0
184109 On ch=13 n=65 v=0
184119 On ch=13 n=72 v=0
184152 On ch=13 n=77 v=0
184191 Par ch=13 c=64 v=0
184191 Meta TrkEnd
TrkEnd
MTrk
0 SeqSpec 43 00 01 00
0 Meta TrkName "Piano Left Hand"
0 Meta 0x21 00
20 On ch=13 n=48 v=109
20 On ch=13 n=53 v=110
26 On ch=13 n=41 v=94
32 On ch=13 n=45 v=92
77 On ch=13 n=45 v=0
101 On ch=13 n=53 v=0
106 On ch=13 n=48 v=0
115 On ch=13 n=41 v=0
1199 On ch=13 n=65 v=93
1259 On ch=13 n=65 v=0
1454 On ch=13 n=62 v=94
1486 On ch=13 n=62 v=0
1676 On ch=13 n=58 v=105
1698 On ch=13 n=58 v=0
2130 On ch=13 n=53 v=81
2220 On ch=13 n=53 v=0
2370 On ch=13 n=50 v=78
2467 On ch=13 n=50 v=0
2611 On ch=13 n=46 v=91
2730 On ch=13 n=46 v=0
2890 On ch=13 n=53 v=86
3138 On ch=13 n=41 v=72
3402 On ch=13 n=53 v=0
3405 On ch=13 n=41 v=0
3828 On ch=13 n=60 v=104
3830 On ch=13 n=55 v=99
3833 On ch=13 n=48 v=92
3838 On ch=13 n=52 v=95
4097 On ch=13 n=48 v=0
4101 On ch=13 n=60 v=0
4110 On ch=13 n=55 v=0
4111 On ch=13 n=52 v=0
5053 On ch=13 n=72 v=90
5115 On ch=13 n=72 v=0
5284 On ch=13 n=69 v=86
5313 On ch=13 n=69 v=0
5520 On ch=13 n=65 v=94
5546 On ch=13 n=65 v=0
6005 On ch=13 n=60 v=68
6076 On ch=13 n=60 v=0
6238 On ch=13 n=57 v=52
6276 On ch=13 n=57 v=0
6465 On ch=13 n=53 v=74
6539 On ch=13 n=53 v=0
6753 On ch=13 n=60 v=77
6988 On ch=13 n=48 v=74
7181 On ch=13 n=48 v=0
7197 On ch=13 n=60 v=0
7672 On ch=13 n=60 v=54
7676 On ch=13 n=55 v=54
7686 On ch=13 n=52 v=43
7947 On ch=13 n=55 v=0
7948 On ch=13 n=60 v=0
8006 On ch=13 n=52 v=0
8134 On ch=13 n=55 v=74
8136 On ch=13 n=60 v=82
8141 On ch=13 n=52 v=62
8153 On ch=13 n=48 v=69
8350 On ch=13 n=52 v=0
8353 On ch=13 n=48 v=0
8361 On ch=13 n=55 v=0
8612 On ch=13 n=53 v=89
8622 On ch=13 n=60 v=0
8709 On ch=13 n=53 v=0
8870 On ch=13 n=57 v=82
8964 On ch=13 n=57 v=0
9113 On ch=13 n=60 v=78
9209 On ch=13 n=60 v=0
9345 On ch=13 n=65 v=67
9440 On ch=13 n=65 v=0
9580 On ch=13 n=60 v=73
9580 On ch=13 n=65 v=76
9597 On ch=13 n=57 v=50
9849 On ch=13 n=57 v=0
9866 On ch=13 n=60 v=0
9869 On ch=13 n=65 v=0
10069 On ch=13 n=65 v=90
10073 On ch=13 n=60 v=79
10075 On ch=13 n=57 v=59
10092 On ch=13 n=53 v=51
10153 On ch=13 n=53 v=0
10168 On ch=13 n=57 v=0
10178 On ch=13 n=60 v=0
10269 On ch=13 n=65 v=0
10528 On ch=13 n=58 v=100
10673 On ch=13 n=58 v=0
10789 On ch=13 n=62 v=87
10962 On ch=13 n=62 v=0
11044 On ch=13 n=65 v=72
11134 On ch=13 n=65 v=0
11261 On ch=13 n=70 v=96
11342 On ch=13 n=70 v=0
11462 On ch=13 n=65 v=80
11462 On ch=13 n=71 v=86
11471 On ch=13 n=62 v=82
11529 On ch=13 n=71 v=0
11546 On ch=13 n=65 v=0
11556 On ch=13 n=62 v=0
11994 On ch=13 n=67 v=93
12000 On ch=13 n=62 v=97
12007 On ch=13 n=59 v=87
12066 On ch=13 n=67 v=0
12076 On ch=13 n=62 v=0
12086 On ch=13 n=59 v=0
12475 On ch=13 n=59 v=87
12475 On ch=13 n=62 v=93
12478 On ch=13 n=55 v=82
12536 On ch=13 n=62 v=0
12552 On ch=13 n=59 v=0
12578 On ch=13 n=55 v=0
12942 On ch=13 n=60 v=106
12945 On ch=13 n=55 v=94
12954 On ch=13 n=48 v=97
13205 On ch=13 n=48 v=0
13235 On ch=13 n=55 v=0
13279 On ch=13 n=60 v=0
13662 On ch=13 n=60 v=91
13774 On ch=13 n=62 v=87
13781 On ch=13 n=60 v=0
13855 On ch=13 n=62 v=0
13922 On ch=13 n=64 v=77
13957 On ch=13 n=64 v=0
14158 On ch=13 n=67 v=74
14202 On ch=13 n=67 v=0
14397 On ch=13 n=64 v=86
14431 On ch=13 n=64 v=0
14645 On ch=13 n=60 v=81
14701 On ch=13 n=60 v=0
14884 On ch=13 n=48 v=98
14996 On ch=13 n=48 v=0
15470 On ch=13 n=60 v=94
15578 On ch=13 n=62 v=87
15579 On ch=13 n=60 v=0
15691 On ch=13 n=64 v=82
15706 On ch=13 n=62 v=0
15812 On ch=13 n=64 v=0
15826 On ch=13 n=65 v=88
15859 On ch=13 n=65 v=0
16050 On ch=13 n=69 v=92
16104 On ch=13 n=69 v=0
16275 On ch=13 n=65 v=87
16303 On ch=13 n=65 v=0
16517 On ch=13 n=60 v=89
16591 On ch=13 n=60 v=0
16778 On ch=13 n=48 v=99
16918 On ch=13 n=48 v=0
17533 On ch=13 n=62 v=89
17611 On ch=13 n=62 v=0
17638 On ch=13 n=64 v=82
17716 On ch=13 n=64 v=0
17746 On ch=13 n=65 v=83
17781 On ch=13 n=65 v=0
17985 On ch=13 n=62 v=90
18045 On ch=13 n=62 v=0
18096 On ch=13 n=64 v=89
18174 On ch=13 n=64 v=0
18235 On ch=13 n=65 v=88
18295 On ch=13 n=65 v=0
18465 On ch=13 n=62 v=95
18503 On ch=13 n=62 v=0
18701 On ch=13 n=55 v=96
18737 On ch=13 n=55 v=0
18941 On ch=13 n=59 v=96
18994 On ch=13 n=59 v=0
19196 On ch=13 n=60 v=100
19352 On ch=13 n=60 v=0
19413 On ch=13 n=48 v=98
19483 On ch=13 n=48 v=0
19522 On ch=13 n=50 v=101
19640 On ch=13 n=52 v=90
19647 On ch=13 n=50 v=0
19690 On ch=13 n=52 v=0
19891 On ch=13 n=55 v=88
19925 On ch=13 n=55 v=0
20131 On ch=13 n=60 v=95
20198 On ch=13 n=60 v=0
20378 On ch=13 n=48 v=94
20485 On ch=13 n=48 v=0
20501 On ch=13 n=50 v=96
20631 On ch=13 n=52 v=96
20647 On ch=13 n=50 v=0
20701 On ch=13 n=52 v=0
20876 On ch=13 n=53 v=94
20909 On ch=13 n=53 v=0
21096 On ch=13 n=55 v=101
21166 On ch=13 n=55 v=0
21326 On ch=13 n=48 v=84
21434 On ch=13 n=52 v=90
21445 On ch=13 n=48 v=0
21521 On ch=13 n=52 v=0
21568 On ch=13 n=55 v=98
21630 On ch=13 n=55 v=0
21823 On ch=13 n=57 v=81
21886 On ch=13 n=57 v=0
22084 On ch=13 n=58 v=109
22132 On ch=13 n=58 v=0
22321 On ch=13 n=48 v=110
22424 On ch=13 n=50 v=90
22475 On ch=13 n=48 v=0
22555 On ch=13 n=52 v=100
22585 On ch=13 n=50 v=0
22622 On ch=13 n=52 v=0
22810 On ch=13 n=48 v=79
22880 On ch=13 n=48 v=0
23041 On ch=13 n=53 v=98
23138 On ch=13 n=53 v=0
23146 On ch=13 n=57 v=97
23235 On ch=13 n=57 v=0
23280 On ch=13 n=55 v=89
23402 On ch=13 n=53 v=88
23433 On ch=13 n=55 v=0
23496 On ch=13 n=53 v=0
23541 On ch=13 n=52 v=103
23631 On ch=13 n=52 v=0
23637 On ch=13 n=50 v=102
23741 On ch=13 n=48 v=92
23772 On ch=13 n=50 v=0
23869 On ch=13 n=46 v=106
23920 On ch=13 n=48 v=0
23998 On ch=13 n=45 v=101
24025 On ch=13 n=46 v=0
24105 On ch=13 n=48 v=104
24177 On ch=13 n=45 v=0
24229 On ch=13 n=50 v=111
24276 On ch=13 n=48 v=0
24341 On ch=13 n=52 v=103
24362 On ch=13 n=50 v=0
24429 On ch=13 n=52 v=0
24467 On ch=13 n=53 v=111
24570 On ch=13 n=55 v=96
24614 On ch=13 n=53 v=0
24672 On ch=13 n=57 v=98
24676 On ch=13 n=55 v=0
24780 On ch=13 n=58 v=118
24806 On ch=13 n=57 v=0
24883 On ch=13 n=58 v=0
24954 On ch=13 n=60 v=113
25438 On ch=13 n=48 v=109
25530 On ch=13 n=60 v=0
25901 On ch=13 n=48 v=0
25916 On ch=13 n=50 v=107
26597 On ch=13 n=50 v=0
26664 On ch=13 n=52 v=91
26772 On ch=13 n=52 v=0
26875 On ch=13 n=53 v=103
26994 On ch=13 n=53 v=0
27126 On ch=13 n=45 v=104
27198 On ch=13 n=45 v=0
27349 On ch=13 n=46 v=114
27400 On ch=13 n=46 v=0
27580 On ch=13 n=48 v=113
27633 On ch=13 n=48 v=0
27832 On ch=13 n=41 v=121
27885 On ch=13 n=41 v=0
28075 On ch=13 n=69 v=74
28082 On ch=13 n=65 v=75
28136 On ch=13 n=65 v=0
28139 On ch=13 n=69 v=0
28330 On ch=13 n=69 v=54
28342 On ch=13 n=65 v=66
28386 On ch=13 n=65 v=0
28392 On ch=13 n=69 v=0
28547 On ch=13 n=69 v=52
28565 On ch=13 n=65 v=62
28619 On ch=13 n=69 v=0
28634 On ch=13 n=65 v=0
28818 On ch=13 n=65 v=39
28826 On ch=13 n=70 v=44
28868 On ch=13 n=70 v=0
28873 On ch=13 n=65 v=0
29048 On ch=13 n=65 v=49
29050 On ch=13 n=70 v=55
29108 On ch=13 n=70 v=0
29112 On ch=13 n=65 v=0
29268 On ch=13 n=70 v=67
29274 On ch=13 n=65 v=54
29328 On ch=13 n=65 v=0
29328 On ch=13 n=70 v=0
29498 On ch=13 n=70 v=66
29502 On ch=13 n=65 v=55
29562 On ch=13 n=70 v=0
29563 On ch=13 n=65 v=0
29728 On ch=13 n=65 v=57
29728 On ch=13 n=70 v=74
29799 On ch=13 n=70 v=0
29809 On ch=13 n=65 v=0
29970 On ch=13 n=70 v=69
29987 On ch=13 n=65 v=46
30051 On ch=13 n=65 v=0
30058 On ch=13 n=70 v=0
30215 On ch=13 n=69 v=55
30224 On ch=13 n=65 v=48
30274 On ch=13 n=65 v=0
30283 On ch=13 n=69 v=0
30445 On ch=13 n=69 v=45
30461 On ch=13 n=65 v=54
30507 On ch=13 n=69 v=0
30523 On ch=13 n=65 v=0
30700 On ch=13 n=67 v=56
30715 On ch=13 n=65 v=45
30755 On ch=13 n=67 v=0
30765 On ch=13 n=65 v=0
30922 On ch=13 n=67 v=56
30932 On ch=13 n=65 v=42
30984 On ch=13 n=65 v=0
30984 On ch=13 n=67 v=0
31188 On ch=13 n=67 v=60
31202 On ch=13 n=64 v=51
31253 On ch=13 n=67 v=0
31261 On ch=13 n=64 v=0
31421 On ch=13 n=67 v=50
31427 On ch=13 n=64 v=44
31481 On ch=13 n=67 v=0
31507 On ch=13 n=64 v=0
31645 On ch=13 n=65 v=67
31858 On ch=13 n=53 v=96
31861 On ch=13 n=65 v=0
31982 On ch=13 n=55 v=81
31992 On ch=13 n=53 v=0
32120 On ch=13 n=57 v=78
32134 On ch=13 n=55 v=0
32200 On ch=13 n=57 v=0
32363 On ch=13 n=53 v=76
32407 On ch=13 n=53 v=0
32611 On ch=13 n=65 v=78
32622 On ch=13 n=60 v=62
32667 On ch=13 n=65 v=0
32671 On ch=13 n=60 v=0
32844 On ch=13 n=60 v=71
32846 On ch=13 n=64 v=65
32899 On ch=13 n=64 v=0
32920 On ch=13 n=60 v=0
33072 On ch=13 n=60 v=57
33072 On ch=13 n=65 v=66
33119 On ch=13 n=65 v=0
33129 On ch=13 n=60 v=0
33311 On ch=13 n=69 v=74
33322 On ch=13 n=60 v=64
33367 On ch=13 n=69 v=0
33378 On ch=13 n=60 v=0
33567 On ch=13 n=67 v=70
33576 On ch=13 n=60 v=54
33624 On ch=13 n=67 v=0
33633 On ch=13 n=60 v=0
33823 On ch=13 n=65 v=62
33825 On ch=13 n=60 v=61
33886 On ch=13 n=65 v=0
33896 On ch=13 n=60 v=0
34068 On ch=13 n=60 v=64
34071 On ch=13 n=64 v=54
34126 On ch=13 n=64 v=0
34136 On ch=13 n=60 v=0
34296 On ch=13 n=60 v=64
34296 On ch=13 n=65 v=79
34357 On ch=13 n=65 v=0
34367 On ch=13 n=60 v=0
34547 On ch=13 n=60 v=36
34551 On ch=13 n=65 v=52
34596 On ch=13 n=60 v=0
34626 On ch=13 n=65 v=0
34768 On ch=13 n=64 v=62
34776 On ch=13 n=60 v=54
34853 On ch=13 n=60 v=0
34858 On ch=13 n=64 v=0
35012 On ch=13 n=65 v=70
35019 On ch=13 n=60 v=54
35076 On ch=13 n=60 v=0
35080 On ch=13 n=65 v=0
35241 On ch=13 n=69 v=74
35251 On ch=13 n=60 v=61
35304 On ch=13 n=69 v=0
35311 On ch=13 n=60 v=0
35473 On ch=13 n=67 v=74
35494 On ch=13 n=60 v=48
35537 On ch=13 n=67 v=0
35554 On ch=13 n=60 v=0
35719 On ch=13 n=65 v=74
35730 On ch=13 n=60 v=55
35789 On ch=13 n=60 v=0
35791 On ch=13 n=65 v=0
35950 On ch=13 n=60 v=67
35958 On ch=13 n=64 v=59
36011 On ch=13 n=64 v=0
36020 On ch=13 n=60 v=0
36156 On ch=13 n=67 v=75
36179 On ch=13 n=60 v=48
36231 On ch=13 n=60 v=0
36233 On ch=13 n=67 v=0
36431 On ch=13 n=65 v=64
36437 On ch=13 n=60 v=56
36491 On ch=13 n=65 v=0
36495 On ch=13 n=60 v=0
36674 On ch=13 n=65 v=48
36680 On ch=13 n=60 v=51
36736 On ch=13 n=65 v=0
36742 On ch=13 n=60 v=0
36930 On ch=13 n=65 v=48
36934 On ch=13 n=60 v=47
36994 On ch=13 n=65 v=0
36999 On ch=13 n=60 v=0
37187 On ch=13 n=65 v=50
37196 On ch=13 n=60 v=52
37237 On ch=13 n=65 v=0
37246 On ch=13 n=60 v=0
37429 On ch=13 n=65 v=56
37430 On ch=13 n=60 v=51
37489 On ch=13 n=65 v=0
37495 On ch=13 n=60 v=0
37659 On ch=13 n=60 v=51
37661 On ch=13 n=65 v=60
37724 On ch=13 n=60 v=0
37725 On ch=13 n=65 v=0
37905 On ch=13 n=64 v=50
37906 On ch=13 n=60 v=49
37974 On ch=13 n=60 v=0
37975 On ch=13 n=64 v=0
38131 On ch=13 n=64 v=45
38145 On ch=13 n=60 v=48
38181 On ch=13 n=64 v=0
38195 On ch=13 n=60 v=0
38359 On ch=13 n=60 v=65
38362 On ch=13 n=62 v=64
38407 On ch=13 n=62 v=0
38421 On ch=13 n=60 v=0
38592 On ch=13 n=62 v=54
38596 On ch=13 n=60 v=44
38650 On ch=13 n=62 v=0
38654 On ch=13 n=60 v=0
38859 On ch=13 n=62 v=61
38869 On ch=13 n=59 v=49
38909 On ch=13 n=62 v=0
38919 On ch=13 n=59 v=0
39096 On ch=13 n=62 v=56
39100 On ch=13 n=59 v=46
39143 On ch=13 n=62 v=0
39160 On ch=13 n=59 v=0
39311 On ch=13 n=60 v=73
39515 On ch=13 n=60 v=0
39539 On ch=13 n=48 v=92
39676 On ch=13 n=50 v=80
39684 On ch=13 n=48 v=0
39818 On ch=13 n=50 v=0
39823 On ch=13 n=52 v=72
39920 On ch=13 n=52 v=0
40047 On ch=13 n=48 v=73
40092 On ch=13 n=48 v=0
40269 On ch=13 n=53 v=78
40366 On ch=13 n=53 v=0
40367 On ch=13 n=55 v=72
40484 On ch=13 n=57 v=72
40505 On ch=13 n=55 v=0
40626 On ch=13 n=60 v=78
40629 On ch=13 n=57 v=0
40771 On ch=13 n=60 v=0
40792 On ch=13 n=65 v=75
40857 On ch=13 n=65 v=0
41016 On ch=13 n=50 v=77
41065 On ch=13 n=50 v=0
41251 On ch=13 n=55 v=85
41356 On ch=13 n=57 v=80
41394 On ch=13 n=55 v=0
41474 On ch=13 n=59 v=84
41516 On ch=13 n=57 v=0
41601 On ch=13 n=62 v=91
41615 On ch=13 n=59 v=0
41740 On ch=13 n=67 v=83
41777 On ch=13 n=62 v=0
41823 On ch=13 n=67 v=0
41987 On ch=13 n=52 v=88
42034 On ch=13 n=52 v=0
42235 On ch=13 n=57 v=91
42341 On ch=13 n=59 v=75
42401 On ch=13 n=57 v=0
42455 On ch=13 n=60 v=87
42495 On ch=13 n=59 v=0
42578 On ch=13 n=64 v=85
42597 On ch=13 n=60 v=0
42705 On ch=13 n=69 v=85
42747 On ch=13 n=64 v=0
42785 On ch=13 n=69 v=0
42935 On ch=13 n=60 v=67
42939 On ch=13 n=57 v=67
43013 On ch=13 n=60 v=0
43034 On ch=13 n=57 v=0
43184 On ch=13 n=59 v=73
43194 On ch=13 n=62 v=65
43234 On ch=13 n=62 v=0
43249 On ch=13 n=59 v=0
43420 On ch=13 n=55 v=73
43420 On ch=13 n=59 v=64
43485 On ch=13 n=59 v=0
43527 On ch=13 n=55 v=0
43648 On ch=13 n=59 v=68
43650 On ch=13 n=62 v=80
43717 On ch=13 n=62 v=0
43734 On ch=13 n=59 v=0
43886 On ch=13 n=65 v=79
43888 On ch=13 n=62 v=78
43932 On ch=13 n=65 v=0
43946 On ch=13 n=62 v=0
44107 On ch=13 n=59 v=73
44108 On ch=13 n=62 v=98
44206 On ch=13 n=62 v=0
44215 On ch=13 n=59 v=0
44353 On ch=13 n=59 v=86
44354 On ch=13 n=55 v=91
44456 On ch=13 n=59 v=0
44490 On ch=13 n=55 v=0
44611 On ch=13 n=59 v=90
44617 On ch=13 n=62 v=95
44697 On ch=13 n=62 v=0
44750 On ch=13 n=59 v=0
44852 On ch=13 n=65 v=79
44856 On ch=13 n=62 v=73
44898 On ch=13 n=62 v=0
44900 On ch=13 n=65 v=0
45081 On ch=13 n=67 v=101
45088 On ch=13 n=60 v=96
45148 On ch=13 n=67 v=0
45195 On ch=13 n=65 v=93
45238 On ch=13 n=60 v=0
45327 On ch=13 n=64 v=87
45357 On ch=13 n=65 v=0
45439 On ch=13 n=62 v=92
45489 On ch=13 n=64 v=0
45530 On ch=13 n=62 v=0
45683 On ch=13 n=59 v=100
45802 On ch=13 n=57 v=86
45817 On ch=13 n=59 v=0
45925 On ch=13 n=55 v=78
45980 On ch=13 n=57 v=0
46051 On ch=13 n=54 v=99
46078 On ch=13 n=55 v=0
46137 On ch=13 n=54 v=0
46174 On ch=13 n=52 v=95
46248 On ch=13 n=52 v=0
46288 On ch=13 n=50 v=103
46413 On ch=13 n=48 v=102
46441 On ch=13 n=50 v=0
46485 On ch=13 n=48 v=0
46523 On ch=13 n=47 v=101
46627 On ch=13 n=45 v=107
46645 On ch=13 n=47 v=0
46768 On ch=13 n=43 v=79
46784 On ch=13 n=45 v=0
46864 On ch=13 n=42 v=101
46900 On ch=13 n=43 v=0
46925 On ch=13 n=42 v=0
47011 On ch=13 n=43 v=101
47263 On ch=13 n=50 v=101
47313 On ch=13 n=43 v=0
47501 On ch=13 n=55 v=91
47510 On ch=13 n=50 v=0
47728 On ch=13 n=47 v=91
47970 On ch=13 n=48 v=91
48005 On ch=13 n=55 v=0
48032 On ch=13 n=47 v=0
48038 On ch=13 n=48 v=0
48184 On ch=13 n=40 v=98
48414 On ch=13 n=40 v=0
48434 On ch=13 n=41 v=90
48667 On ch=13 n=43 v=92
48694 On ch=13 n=47 v=85
48744 On ch=13 n=41 v=0
48841 On ch=13 n=43 v=0
48896 On ch=13 n=48 v=107
48926 On ch=13 n=47 v=0
48947 On ch=13 n=48 v=0
49058 On ch=13 n=60 v=111
49158 On ch=13 n=60 v=0
49170 On ch=13 n=59 v=108
49292 On ch=13 n=57 v=107
49333 On ch=13 n=59 v=0
49376 On ch=13 n=57 v=0
49421 On ch=13 n=55 v=110
49501 On ch=13 n=55 v=0
49536 On ch=13 n=53 v=104
49641 On ch=13 n=52 v=89
49650 On ch=13 n=53 v=0
49753 On ch=13 n=50 v=80
49781 On ch=13 n=52 v=0
49861 On ch=13 n=48 v=107
49885 On ch=13 n=50 v=0
49926 On ch=13 n=48 v=0
49977 On ch=13 n=48 v=112
50060 On ch=13 n=48 v=0
50125 On ch=13 n=47 v=113
50249 On ch=13 n=45 v=113
50290 On ch=13 n=47 v=0
50347 On ch=13 n=45 v=0
50399 On ch=13 n=43 v=111
50479 On ch=13 n=43 v=0
50509 On ch=13 n=41 v=111
50589 On ch=13 n=41 v=0
50637 On ch=13 n=40 v=101
50749 On ch=13 n=38 v=104
50764 On ch=13 n=40 v=0
50831 On ch=13 n=38 v=0
50894 On ch=13 n=36 v=121
50937 On ch=13 n=36 v=0
51134 On ch=13 n=60 v=109
51187 On ch=13 n=60 v=0
51363 On ch=13 n=57 v=100
51402 On ch=13 n=57 v=0
51598 On ch=13 n=53 v=100
51631 On ch=13 n=53 v=0
51828 On ch=13 n=48 v=87
52056 On ch=13 n=43 v=93
52191 On ch=13 n=43 v=0
52275 On ch=13 n=40 v=92
52492 On ch=13 n=40 v=0
52502 On ch=13 n=36 v=98
52686 On ch=13 n=48 v=0
52734 On ch=13 n=36 v=0
52754 On ch=13 n=41 v=111
52886 On ch=13 n=41 v=0
53332 On ch=13 n=58 v=97
53431 On ch=13 n=58 v=0
53447 On ch=13 n=57 v=84
53578 On ch=13 n=55 v=92
53613 On ch=13 n=57 v=0
53691 On ch=13 n=53 v=101
53720 On ch=13 n=55 v=0
53776 On ch=13 n=53 v=0
53818 On ch=13 n=53 v=116
53915 On ch=13 n=53 v=0
53958 On ch=13 n=52 v=114
54092 On ch=13 n=50 v=115
54124 On ch=13 n=52 v=0
54172 On ch=13 n=50 v=0
54225 On ch=13 n=48 v=111
54333 On ch=13 n=46 v=106
54366 On ch=13 n=48 v=0
54443 On ch=13 n=46 v=0
54465 On ch=13 n=45 v=71
54471 On ch=13 n=47 v=84
54500 On ch=13 n=47 v=0
54554 On ch=13 n=43 v=103
54581 On ch=13 n=45 v=0
54641 On ch=13 n=43 v=0
54684 On ch=13 n=41 v=121
54743 On ch=13 n=41 v=0
54934 On ch=13 n=65 v=114
54989 On ch=13 n=65 v=0
55177 On ch=13 n=62 v=93
55233 On ch=13 n=62 v=0
55415 On ch=13 n=58 v=115
55449 On ch=13 n=58 v=0
55661 On ch=13 n=53 v=95
55922 On ch=13 n=48 v=82
56066 On ch=13 n=48 v=0
56150 On ch=13 n=45 v=99
56287 On ch=13 n=45 v=0
56381 On ch=13 n=41 v=100
56618 On ch=13 n=41 v=0
56627 On ch=13 n=53 v=0
56644 On ch=13 n=46 v=113
56810 On ch=13 n=46 v=0
57219 On ch=13 n=63 v=71
57322 On ch=13 n=62 v=74
57324 On ch=13 n=63 v=0
57432 On ch=13 n=60 v=59
57452 On ch=13 n=62 v=0
57586 On ch=13 n=58 v=78
57595 On ch=13 n=60 v=0
57796 On ch=13 n=58 v=0
57815 On ch=13 n=67 v=61
58068 On ch=13 n=67 v=0
58115 On ch=13 n=58 v=92
58221 On ch=13 n=58 v=0
58254 On ch=13 n=57 v=76
58360 On ch=13 n=55 v=91
58368 On ch=13 n=57 v=0
58488 On ch=13 n=57 v=88
58512 On ch=13 n=55 v=0
58708 On ch=13 n=57 v=0
58743 On ch=13 n=65 v=79
59055 On ch=13 n=65 v=0
59088 On ch=13 n=57 v=90
59215 On ch=13 n=55 v=90
59279 On ch=13 n=57 v=0
59340 On ch=13 n=53 v=97
59355 On ch=13 n=55 v=0
59480 On ch=13 n=55 v=102
59547 On ch=13 n=53 v=0
59725 On ch=13 n=64 v=85
59800 On ch=13 n=55 v=0
60061 On ch=13 n=62 v=101
60092 On ch=13 n=64 v=0
60178 On ch=13 n=61 v=106
60189 On ch=13 n=62 v=0
60317 On ch=13 n=62 v=96
60362 On ch=13 n=61 v=0
60422 On ch=13 n=55 v=87
60436 On ch=13 n=62 v=0
60542 On ch=13 n=62 v=95
60665 On ch=13 n=61 v=106
60724 On ch=13 n=62 v=0
60807 On ch=13 n=64 v=103
60818 On ch=13 n=61 v=0
60861 On ch=13 n=55 v=0
60883 On ch=13 n=64 v=0
60921 On ch=13 n=57 v=79
60987 On ch=13 n=57 v=0
61041 On ch=13 n=55 v=101
61112 On ch=13 n=55 v=0
61178 On ch=13 n=53 v=101
61240 On ch=13 n=53 v=0
61302 On ch=13 n=52 v=105
61369 On ch=13 n=52 v=0
61419 On ch=13 n=53 v=104
61478 On ch=13 n=53 v=0
61667 On ch=13 n=55 v=78
61736 On ch=13 n=55 v=0
61906 On ch=13 n=53 v=82
61955 On ch=13 n=53 v=0
62141 On ch=13 n=52 v=70
62207 On ch=13 n=52 v=0
62359 On ch=13 n=50 v=87
62438 On ch=13 n=50 v=0
62597 On ch=13 n=58 v=87
62656 On ch=13 n=58 v=0
62838 On ch=13 n=57 v=84
62910 On ch=13 n=57 v=0
63083 On ch=13 n=55 v=85
63143 On ch=13 n=55 v=0
63311 On ch=13 n=53 v=81
63402 On ch=13 n=53 v=0
63571 On ch=13 n=55 v=75
63627 On ch=13 n=55 v=0
63833 On ch=13 n=53 v=87
63913 On ch=13 n=53 v=0
64085 On ch=13 n=52 v=72
64161 On ch=13 n=52 v=0
64286 On ch=13 n=50 v=83
64426 On ch=13 n=50 v=0
64538 On ch=13 n=58 v=96
64587 On ch=13 n=58 v=0
64751 On ch=13 n=57 v=78
64992 On ch=13 n=55 v=89
64997 On ch=13 n=57 v=0
65043 On ch=13 n=55 v=0
65244 On ch=13 n=53 v=101
65349 On ch=13 n=61 v=103
65378 On ch=13 n=53 v=0
65457 On ch=13 n=61 v=0
65481 On ch=13 n=62 v=87
65586 On ch=13 n=62 v=0
65601 On ch=13 n=64 v=67
65693 On ch=13 n=64 v=0
65734 On ch=13 n=62 v=80
65826 On ch=13 n=62 v=0
65857 On ch=13 n=61 v=93
65941 On ch=13 n=61 v=0
65976 On ch=13 n=62 v=66
66066 On ch=13 n=53 v=86
66088 On ch=13 n=62 v=0
66112 On ch=13 n=53 v=0
66201 On ch=13 n=55 v=103
66300 On ch=13 n=61 v=94
66302 On ch=13 n=55 v=0
66409 On ch=13 n=61 v=0
66429 On ch=13 n=62 v=78
66543 On ch=13 n=62 v=0
66550 On ch=13 n=64 v=67
66641 On ch=13 n=64 v=0
66668 On ch=13 n=62 v=93
66764 On ch=13 n=62 v=0
66796 On ch=13 n=61 v=96
66910 On ch=13 n=61 v=0
66926 On ch=13 n=62 v=82
67038 On ch=13 n=62 v=0
67042 On ch=13 n=55 v=90
67135 On ch=13 n=55 v=0
67174 On ch=13 n=57 v=103
67274 On ch=13 n=61 v=105
67331 On ch=13 n=57 v=0
67403 On ch=13 n=62 v=99
67411 On ch=13 n=61 v=0
67515 On ch=13 n=64 v=92
67517 On ch=13 n=62 v=0
67614 On ch=13 n=64 v=0
67635 On ch=13 n=62 v=96
67751 On ch=13 n=61 v=102
67757 On ch=13 n=62 v=0
67874 On ch=13 n=61 v=0
67878 On ch=13 n=62 v=90
68003 On ch=13 n=57 v=97
68007 On ch=13 n=62 v=0
68098 On ch=13 n=57 v=0
68117 On ch=13 n=58 v=116
68230 On ch=13 n=61 v=114
68266 On ch=13 n=58 v=0
68357 On ch=13 n=61 v=0
68361 On ch=13 n=62 v=101
68468 On ch=13 n=62 v=0
68468 On ch=13 n=64 v=102
68546 On ch=13 n=64 v=0
68594 On ch=13 n=62 v=108
68689 On ch=13 n=62 v=0
68695 On ch=13 n=61 v=115
68826 On ch=13 n=62 v=98
68864 On ch=13 n=61 v=0
68934 On ch=13 n=65 v=99
69007 On ch=13 n=65 v=0
69054 On ch=13 n=62 v=0
69107 On ch=13 n=68 v=127
69109 On ch=13 n=62 v=95
69118 On ch=13 n=59 v=91
69200 On ch=13 n=68 v=0
69214 On ch=13 n=62 v=0
69236 On ch=13 n=59 v=0
69533 On ch=13 n=64 v=105
69537 On ch=13 n=59 v=95
69541 On ch=13 n=56 v=103
69620 On ch=13 n=64 v=0
69647 On ch=13 n=59 v=0
69671 On ch=13 n=56 v=0
70022 On ch=13 n=56 v=110
70022 On ch=13 n=59 v=104
70032 On ch=13 n=52 v=92
70088 On ch=13 n=59 v=0
70115 On ch=13 n=56 v=0
70125 On ch=13 n=52 v=0
70534 On ch=13 n=57 v=120
70536 On ch=13 n=52 v=116
70539 On ch=13 n=45 v=112
70834 On ch=13 n=45 v=0
70856 On ch=13 n=52 v=0
70893 On ch=13 n=57 v=0
71237 On ch=13 n=57 v=85
71351 On ch=13 n=59 v=71
71373 On ch=13 n=57 v=0
71442 On ch=13 n=59 v=0
71490 On ch=13 n=61 v=103
71544 On ch=13 n=61 v=0
71739 On ch=13 n=64 v=77
71785 On ch=13 n=64 v=0
71971 On ch=13 n=61 v=95
71998 On ch=13 n=61 v=0
72212 On ch=13 n=57 v=88
72259 On ch=13 n=57 v=0
72462 On ch=13 n=45 v=98
72575 On ch=13 n=45 v=0
73053 On ch=13 n=57 v=72
73167 On ch=13 n=59 v=64
73209 On ch=13 n=57 v=0
73279 On ch=13 n=61 v=92
73313 On ch=13 n=59 v=0
73395 On ch=13 n=61 v=0
73422 On ch=13 n=62 v=98
73453 On ch=13 n=62 v=0
73670 On ch=13 n=65 v=65
73703 On ch=13 n=65 v=0
73898 On ch=13 n=62 v=66
73934 On ch=13 n=62 v=0
74112 On ch=13 n=57 v=81
74368 On ch=13 n=45 v=95
74523 On ch=13 n=45 v=0
74592 On ch=13 n=57 v=0
75089 On ch=13 n=59 v=73
75191 On ch=13 n=61 v=97
75211 On ch=13 n=59 v=0
75297 On ch=13 n=61 v=0
75324 On ch=13 n=62 v=92
75371 On ch=13 n=62 v=0
75539 On ch=13 n=59 v=84
75678 On ch=13 n=59 v=0
75678 On ch=13 n=61 v=96
75778 On ch=13 n=61 v=0
75802 On ch=13 n=62 v=95
75869 On ch=13 n=62 v=0
76030 On ch=13 n=59 v=94
76085 On ch=13 n=59 v=0
76267 On ch=13 n=52 v=94
76337 On ch=13 n=52 v=0
76522 On ch=13 n=56 v=97
76583 On ch=13 n=56 v=0
76751 On ch=13 n=57 v=78
76985 On ch=13 n=57 v=0
76989 On ch=13 n=45 v=92
77098 On ch=13 n=47 v=82
77130 On ch=13 n=45 v=0
77240 On ch=13 n=49 v=105
77261 On ch=13 n=47 v=0
77300 On ch=13 n=49 v=0
77501 On ch=13 n=52 v=83
77543 On ch=13 n=52 v=0
77739 On ch=13 n=57 v=88
77894 On ch=13 n=57 v=0
77976 On ch=13 n=45 v=88
78072 On ch=13 n=47 v=83
78108 On ch=13 n=45 v=0
78211 On ch=13 n=49 v=107
78239 On ch=13 n=47 v=0
78278 On ch=13 n=49 v=0
78453 On ch=13 n=50 v=101
78514 On ch=13 n=50 v=0
78684 On ch=13 n=52 v=95
78747 On ch=13 n=52 v=0
78920 On ch=13 n=45 v=100
79042 On ch=13 n=49 v=106
79075 On ch=13 n=45 v=0
79185 On ch=13 n=52 v=101
79191 On ch=13 n=49 v=0
79360 On ch=13 n=52 v=0
79394 On ch=13 n=53 v=94
79455 On ch=13 n=53 v=0
79626 On ch=13 n=55 v=101
79703 On ch=13 n=55 v=0
79877 On ch=13 n=45 v=108
79969 On ch=13 n=47 v=77
80056 On ch=13 n=45 v=0
80119 On ch=13 n=49 v=113
80169 On ch=13 n=47 v=0
80223 On ch=13 n=49 v=0
80362 On ch=13 n=45 v=97
80459 On ch=13 n=45 v=0
80597 On ch=13 n=50 v=102
80703 On ch=13 n=50 v=0
80720 On ch=13 n=53 v=99
80830 On ch=13 n=52 v=96
80846 On ch=13 n=53 v=0
80938 On ch=13 n=50 v=84
80986 On ch=13 n=52 v=0
81073 On ch=13 n=49 v=105
81121 On ch=13 n=50 v=0
81147 On ch=13 n=49 v=0
81196 On ch=13 n=47 v=93
81286 On ch=13 n=47 v=0
81305 On ch=13 n=45 v=106
81413 On ch=13 n=43 v=106
81455 On ch=13 n=45 v=0
81497 On ch=13 n=43 v=0
81549 On ch=13 n=41 v=116
81658 On ch=13 n=45 v=97
81720 On ch=13 n=41 v=0
81784 On ch=13 n=47 v=86
81846 On ch=13 n=45 v=0
81928 On ch=13 n=49 v=114
81973 On ch=13 n=47 v=0
82052 On ch=13 n=50 v=108
82056 On ch=13 n=49 v=0
82162 On ch=13 n=52 v=109
82186 On ch=13 n=50 v=0
82276 On ch=13 n=53 v=109
82313 On ch=13 n=52 v=0
82384 On ch=13 n=55 v=108
82402 On ch=13 n=53 v=0
82505 On ch=13 n=55 v=0
82516 On ch=13 n=57 v=111
83004 On ch=13 n=45 v=109
83103 On ch=13 n=57 v=0
83441 On ch=13 n=45 v=0
83475 On ch=13 n=46 v=104
84160 On ch=13 n=49 v=110
84217 On ch=13 n=46 v=0
84254 On ch=13 n=49 v=0
84389 On ch=13 n=50 v=100
84501 On ch=13 n=50 v=0
84661 On ch=13 n=41 v=109
84755 On ch=13 n=41 v=0
84915 On ch=13 n=43 v=112
84982 On ch=13 n=43 v=0
85138 On ch=13 n=45 v=121
85186 On ch=13 n=45 v=0
85409 On ch=13 n=38 v=126
85552 On ch=13 n=38 v=0
85674 On ch=13 n=50 v=92
85768 On ch=13 n=52 v=80
85800 On ch=13 n=50 v=0
85883 On ch=13 n=53 v=81
85901 On ch=13 n=52 v=0
85981 On ch=13 n=53 v=0
85997 On ch=13 n=55 v=69
86073 On ch=13 n=55 v=0
86094 On ch=13 n=57 v=67
86169 On ch=13 n=57 v=0
86371 On ch=13 n=64 v=66
86378 On ch=13 n=61 v=79
86491 On ch=13 n=64 v=0
86537 On ch=13 n=61 v=0
86620 On ch=13 n=57 v=47
86773 On ch=13 n=57 v=0
86850 On ch=13 n=65 v=57
86860 On ch=13 n=62 v=39
86982 On ch=13 n=62 v=0
87046 On ch=13 n=65 v=0
87078 On ch=13 n=57 v=49
87280 On ch=13 n=57 v=0
87281 On ch=13 n=64 v=62
87292 On ch=13 n=61 v=63
87374 On ch=13 n=61 v=0
87410 On ch=13 n=64 v=0
87519 On ch=13 n=57 v=65
87650 On ch=13 n=59 v=70
87656 On ch=13 n=57 v=0
87794 On ch=13 n=61 v=79
87812 On ch=13 n=59 v=0
87895 On ch=13 n=62 v=71
87920 On ch=13 n=61 v=0
88014 On ch=13 n=62 v=0
88034 On ch=13 n=64 v=45
88101 On ch=13 n=64 v=0
88137 On ch=13 n=61 v=63
88231 On ch=13 n=61 v=0
88287 On ch=13 n=62 v=49
88287 On ch=13 n=65 v=52
88385 On ch=13 n=62 v=0
88414 On ch=13 n=65 v=0
88521 On ch=13 n=57 v=42
88700 On ch=13 n=57 v=0
88731 On ch=13 n=64 v=59
88743 On ch=13 n=61 v=62
88850 On ch=13 n=61 v=0
88971 On ch=13 n=57 v=69
88991 On ch=13 n=64 v=0
89030 On ch=13 n=57 v=0
89207 On ch=13 n=62 v=79
89231 On ch=13 n=65 v=60
89290 On ch=13 n=62 v=0
89327 On ch=13 n=65 v=0
89334 On ch=13 n=67 v=75
89422 On ch=13 n=67 v=0
89456 On ch=13 n=65 v=72
89578 On ch=13 n=64 v=72
89593 On ch=13 n=65 v=0
89710 On ch=13 n=62 v=79
89718 On ch=13 n=64 v=0
89833 On ch=13 n=64 v=86
89858 On ch=13 n=62 v=0
89944 On ch=13 n=64 v=0
89950 On ch=13 n=65 v=75
90051 On ch=13 n=65 v=0
90066 On ch=13 n=62 v=74
90156 On ch=13 n=62 v=0
90198 On ch=13 n=67 v=69
90216 On ch=13 n=64 v=53
90377 On ch=13 n=64 v=0
90380 On ch=13 n=67 v=0
90441 On ch=13 n=57 v=58
90609 On ch=13 n=57 v=0
90649 On ch=13 n=65 v=63
90659 On ch=13 n=62 v=56
90830 On ch=13 n=62 v=0
90835 On ch=13 n=65 v=0
90907 On ch=13 n=57 v=67
91125 On ch=13 n=61 v=84
91129 On ch=13 n=57 v=0
91134 On ch=13 n=64 v=65
91226 On ch=13 n=61 v=0
91258 On ch=13 n=62 v=81
91265 On ch=13 n=64 v=0
91373 On ch=13 n=61 v=95
91409 On ch=13 n=62 v=0
91498 On ch=13 n=59 v=78
91500 On ch=13 n=61 v=0
91583 On ch=13 n=59 v=0
91636 On ch=13 n=57 v=84
91721 On ch=13 n=57 v=0
91742 On ch=13 n=55 v=88
91868 On ch=13 n=53 v=78
91869 On ch=13 n=55 v=0
91977 On ch=13 n=53 v=0
91983 On ch=13 n=52 v=62
92083 On ch=13 n=50 v=90
92099 On ch=13 n=52 v=0
92155 On ch=13 n=50 v=0
92193 On ch=13 n=62 v=76
92266 On ch=13 n=62 v=0
92308 On ch=13 n=64 v=62
92415 On ch=13 n=64 v=0
92450 On ch=13 n=65 v=70
92508 On ch=13 n=65 v=0
92566 On ch=13 n=55 v=86
92644 On ch=13 n=55 v=0
92678 On ch=13 n=65 v=78
92810 On ch=13 n=65 v=0
92820 On ch=13 n=64 v=79
92922 On ch=13 n=64 v=0
92925 On ch=13 n=62 v=83
92958 On ch=13 n=62 v=0
93082 On ch=13 n=48 v=105
93150 On ch=13 n=48 v=0
93192 On ch=13 n=60 v=80
93241 On ch=13 n=60 v=0
93316 On ch=13 n=62 v=80
93428 On ch=13 n=62 v=0
93457 On ch=13 n=64 v=42
93502 On ch=13 n=64 v=0
93583 On ch=13 n=53 v=92
93677 On ch=13 n=53 v=0
93687 On ch=13 n=63 v=90
93809 On ch=13 n=63 v=0
93814 On ch=13 n=62 v=92
93911 On ch=13 n=60 v=94
93917 On ch=13 n=62 v=0
93941 On ch=13 n=60 v=0
94041 On ch=13 n=46 v=116
94093 On ch=13 n=46 v=0
94134 On ch=13 n=58 v=99
94164 On ch=13 n=58 v=0
94262 On ch=13 n=60 v=80
94340 On ch=13 n=60 v=0
94354 On ch=13 n=62 v=85
94399 On ch=13 n=62 v=0
94482 On ch=13 n=51 v=101
94665 On ch=13 n=51 v=0
94703 On ch=13 n=57 v=80
94885 On ch=13 n=57 v=0
94939 On ch=13 n=50 v=79
95132 On ch=13 n=50 v=0
95178 On ch=13 n=55 v=77
95394 On ch=13 n=55 v=0
95428 On ch=13 n=48 v=68
95640 On ch=13 n=48 v=0
95687 On ch=13 n=53 v=64
95859 On ch=13 n=53 v=0
95920 On ch=13 n=46 v=76
96179 On ch=13 n=50 v=75
96181 On ch=13 n=46 v=0
96423 On ch=13 n=50 v=0
96435 On ch=13 n=55 v=70
96696 On ch=13 n=55 v=0
96715 On ch=13 n=51 v=82
96883 On ch=13 n=51 v=0
96936 On ch=13 n=53 v=84
97164 On ch=13 n=48 v=85
97169 On ch=13 n=53 v=0
97334 On ch=13 n=48 v=0
97401 On ch=13 n=45 v=76
97620 On ch=13 n=41 v=81
97624 On ch=13 n=45 v=0
97817 On ch=13 n=41 v=0
97862 On ch=13 n=46 v=96
98103 On ch=13 n=34 v=114
98123 On ch=13 n=46 v=0
98165 On ch=13 n=34 v=0
99095 On ch=13 n=70 v=86
99153 On ch=13 n=70 v=0
99346 On ch=13 n=67 v=85
99389 On ch=13 n=67 v=0
99576 On ch=13 n=63 v=104
99596 On ch=13 n=63 v=0
100042 On ch=13 n=58 v=96
100252 On ch=13 n=58 v=0
100252 On ch=13 n=55 v=90
100436 On ch=13 n=55 v=0
100484 On ch=13 n=51 v=101
100548 On ch=13 n=51 v=0
100761 On ch=13 n=58 v=105
100864 On ch=13 n=60 v=105
100865 On ch=13 n=58 v=0
100934 On ch=13 n=60 v=0
100994 On ch=13 n=62 v=95
101064 On ch=13 n=62 v=0
101103 On ch=13 n=60 v=96
101165 On ch=13 n=60 v=0
101248 On ch=13 n=58 v=101
101360 On ch=13 n=57 v=69
101372 On ch=13 n=58 v=0
101472 On ch=13 n=57 v=0
101484 On ch=13 n=58 v=95
101590 On ch=13 n=58 v=0
101609 On ch=13 n=55 v=95
101659 On ch=13 n=55 v=0
101741 On ch=13 n=48 v=103
101819 On ch=13 n=48 v=0
101833 On ch=13 n=55 v=94
101900 On ch=13 n=55 v=0
101974 On ch=13 n=60 v=76
102049 On ch=13 n=60 v=0
102086 On ch=13 n=58 v=87
102135 On ch=13 n=58 v=0
102221 On ch=13 n=57 v=94
102292 On ch=13 n=57 v=0
102318 On ch=13 n=55 v=85
102438 On ch=13 n=55 v=0
102441 On ch=13 n=57 v=85
102544 On ch=13 n=57 v=0
102547 On ch=13 n=53 v=95
102595 On ch=13 n=53 v=0
102694 On ch=13 n=46 v=120
102799 On ch=13 n=53 v=80
102806 On ch=13 n=46 v=0
102876 On ch=13 n=53 v=0
102917 On ch=13 n=58 v=90
102988 On ch=13 n=58 v=0
103014 On ch=13 n=57 v=78
103152 On ch=13 n=55 v=91
103190 On ch=13 n=57 v=0
103250 On ch=13 n=53 v=77
103287 On ch=13 n=55 v=0
103390 On ch=13 n=55 v=78
103396 On ch=13 n=53 v=0
103505 On ch=13 n=51 v=104
103512 On ch=13 n=55 v=0
103542 On ch=13 n=51 v=0
103648 On ch=13 n=45 v=113
103744 On ch=13 n=51 v=101
103760 On ch=13 n=45 v=0
103827 On ch=13 n=51 v=0
103871 On ch=13 n=57 v=85
103941 On ch=13 n=57 v=0
103973 On ch=13 n=55 v=86
104056 On ch=13 n=55 v=0
104103 On ch=13 n=54 v=103
104197 On ch=13 n=52 v=85
104242 On ch=13 n=54 v=0
104341 On ch=13 n=54 v=100
104365 On ch=13 n=52 v=0
104435 On ch=13 n=50 v=91
104468 On ch=13 n=54 v=0
104493 On ch=13 n=50 v=0
104591 On ch=13 n=43 v=115
104707 On ch=13 n=50 v=89
104715 On ch=13 n=43 v=0
104774 On ch=13 n=50 v=0
104835 On ch=13 n=55 v=56
104922 On ch=13 n=55 v=0
104955 On ch=13 n=57 v=65
105058 On ch=13 n=55 v=81
105094 On ch=13 n=57 v=0
105154 On ch=13 n=55 v=0
105179 On ch=13 n=53 v=90
105304 On ch=13 n=51 v=93
105328 On ch=13 n=53 v=0
105419 On ch=13 n=50 v=76
105470 On ch=13 n=51 v=0
105554 On ch=13 n=48 v=100
105578 On ch=13 n=50 v=0
105668 On ch=13 n=55 v=94
105689 On ch=13 n=48 v=0
105777 On ch=13 n=55 v=0
105799 On ch=13 n=60 v=90
105885 On ch=13 n=60 v=0
105912 On ch=13 n=62 v=94
106004 On ch=13 n=62 v=0
106032 On ch=13 n=60 v=83
106145 On ch=13 n=58 v=86
106178 On ch=13 n=60 v=0
106283 On ch=13 n=57 v=64
106303 On ch=13 n=58 v=0
106397 On ch=13 n=55 v=70
106433 On ch=13 n=57 v=0
106463 On ch=13 n=55 v=0
106518 On ch=13 n=54 v=107
106608 On ch=13 n=62 v=65
106622 On ch=13 n=54 v=0
106709 On ch=13 n=62 v=0
106735 On ch=13 n=61 v=76
106855 On ch=13 n=61 v=0
106869 On ch=13 n=62 v=81
106923 On ch=13 n=62 v=0
106990 On ch=13 n=50 v=96
107089 On ch=13 n=54 v=93
107099 On ch=13 n=50 v=0
107222 On ch=13 n=54 v=0
107223 On ch=13 n=52 v=86
107317 On ch=13 n=55 v=83
107340 On ch=13 n=52 v=0
107389 On ch=13 n=55 v=0
107451 On ch=13 n=54 v=100
107562 On ch=13 n=54 v=0
107566 On ch=13 n=57 v=70
107623 On ch=13 n=57 v=0
107694 On ch=13 n=50 v=83
107820 On ch=13 n=54 v=71
107864 On ch=13 n=50 v=0
107927 On ch=13 n=55 v=75
107954 On ch=13 n=54 v=0
108047 On ch=13 n=58 v=91
108065 On ch=13 n=55 v=0
108114 On ch=13 n=58 v=0
108167 On ch=13 n=50 v=95
108291 On ch=13 n=55 v=77
108322 On ch=13 n=50 v=0
108421 On ch=13 n=57 v=78
108433 On ch=13 n=55 v=0
108533 On ch=13 n=60 v=84
108535 On ch=13 n=57 v=0
108651 On ch=13 n=57 v=70
108657 On ch=13 n=60 v=0
108758 On ch=13 n=54 v=81
108794 On ch=13 n=57 v=0
108872 On ch=13 n=50 v=81
108923 On ch=13 n=54 v=0
108974 On ch=13 n=50 v=0
108983 On ch=13 n=60 v=82
109114 On ch=13 n=58 v=89
109137 On ch=13 n=60 v=0
109239 On ch=13 n=57 v=78
109248 On ch=13 n=58 v=0
109380 On ch=13 n=58 v=94
109436 On ch=13 n=57 v=0
109490 On ch=13 n=58 v=0
109491 On ch=13 n=62 v=91
109621 On ch=13 n=58 v=87
109636 On ch=13 n=62 v=0
109743 On ch=13 n=58 v=0
109762 On ch=13 n=55 v=82
109807 On ch=13 n=55 v=0
109874 On ch=13 n=50 v=92
109962 On ch=13 n=53 v=87
109989 On ch=13 n=50 v=0
110089 On ch=13 n=53 v=0
110108 On ch=13 n=52 v=78
110224 On ch=13 n=50 v=92
110233 On ch=13 n=52 v=0
110318 On ch=13 n=50 v=0
110358 On ch=13 n=52 v=94
110427 On ch=13 n=52 v=0
110451 On ch=13 n=60 v=86
110551 On ch=13 n=60 v=0
110591 On ch=13 n=59 v=77
110718 On ch=13 n=59 v=0
110725 On ch=13 n=60 v=82
110771 On ch=13 n=60 v=0
110820 On ch=13 n=48 v=100
110935 On ch=13 n=52 v=84
110958 On ch=13 n=48 v=0
111036 On ch=13 n=50 v=87
111087 On ch=13 n=52 v=0
111158 On ch=13 n=53 v=89
111184 On ch=13 n=50 v=0
111225 On ch=13 n=53 v=0
111288 On ch=13 n=52 v=95
111382 On ch=13 n=52 v=0
111397 On ch=13 n=55 v=75
111472 On ch=13 n=55 v=0
111503 On ch=13 n=48 v=81
111636 On ch=13 n=52 v=82
111658 On ch=13 n=48 v=0
111763 On ch=13 n=53 v=97
111781 On ch=13 n=52 v=0
111880 On ch=13 n=57 v=88
111889 On ch=13 n=53 v=0
111955 On ch=13 n=57 v=0
111994 On ch=13 n=48 v=84
112095 On ch=13 n=53 v=83
112146 On ch=13 n=48 v=0
112228 On ch=13 n=55 v=90
112243 On ch=13 n=53 v=0
112365 On ch=13 n=58 v=106
112393 On ch=13 n=55 v=0
112466 On ch=13 n=55 v=64
112473 On ch=13 n=58 v=0
112585 On ch=13 n=52 v=81
112641 On ch=13 n=55 v=0
112715 On ch=13 n=48 v=91
112760 On ch=13 n=52 v=0
112827 On ch=13 n=48 v=0
112865 On ch=13 n=58 v=103
112951 On ch=13 n=58 v=0
112968 On ch=13 n=57 v=80
113100 On ch=13 n=55 v=90
113111 On ch=13 n=57 v=0
113230 On ch=13 n=57 v=96
113254 On ch=13 n=55 v=0
113334 On ch=13 n=60 v=95
113337 On ch=13 n=57 v=0
113446 On ch=13 n=60 v=0
113464 On ch=13 n=57 v=87
113577 On ch=13 n=53 v=80
113592 On ch=13 n=57 v=0
113678 On ch=13 n=53 v=0
113720 On ch=13 n=48 v=67
113828 On ch=13 n=51 v=100
113857 On ch=13 n=48 v=0
113948 On ch=13 n=50 v=89
113958 On ch=13 n=51 v=0
114044 On ch=13 n=48 v=87
114066 On ch=13 n=50 v=0
114187 On ch=13 n=50 v=101
114191 On ch=13 n=48 v=0
114279 On ch=13 n=50 v=0
114299 On ch=13 n=53 v=90
114412 On ch=13 n=53 v=0
114422 On ch=13 n=50 v=82
114530 On ch=13 n=46 v=99
114572 On ch=13 n=50 v=0
114659 On ch=13 n=46 v=0
114673 On ch=13 n=43 v=93
114789 On ch=13 n=46 v=109
114805 On ch=13 n=43 v=0
114920 On ch=13 n=45 v=80
114939 On ch=13 n=46 v=0
115015 On ch=13 n=43 v=82
115054 On ch=13 n=45 v=0
115153 On ch=13 n=48 v=96
115165 On ch=13 n=43 v=0
115248 On ch=13 n=48 v=0
115250 On ch=13 n=52 v=94
115345 On ch=13 n=52 v=0
115359 On ch=13 n=48 v=95
115449 On ch=13 n=45 v=88
115492 On ch=13 n=48 v=0
115594 On ch=13 n=41 v=101
115617 On ch=13 n=45 v=0
115718 On ch=13 n=45 v=101
115729 On ch=13 n=41 v=0
115839 On ch=13 n=43 v=86
115860 On ch=13 n=45 v=0
115965 On ch=13 n=41 v=103
115987 On ch=13 n=43 v=0
116103 On ch=13 n=46 v=105
116109 On ch=13 n=41 v=0
116338 On ch=13 n=46 v=0
116349 On ch=13 n=48 v=86
116567 On ch=13 n=48 v=0
116570 On ch=13 n=50 v=87
116827 On ch=13 n=46 v=92
116887 On ch=13 n=50 v=0
116934 On ch=13 n=46 v=0
117066 On ch=13 n=48 v=84
117254 On ch=13 n=48 v=0
117286 On ch=13 n=50 v=95
117506 On ch=13 n=50 v=0
117529 On ch=13 n=52 v=73
117729 On ch=13 n=52 v=0
117752 On ch=13 n=48 v=82
117806 On ch=13 n=48 v=0
118031 On ch=13 n=36 v=62
118090 On ch=13 n=36 v=0
118275 On ch=13 n=45 v=54
118332 On ch=13 n=45 v=0
118505 On ch=13 n=46 v=68
118608 On ch=13 n=46 v=0
118741 On ch=13 n=50 v=69
118791 On ch=13 n=50 v=0
119004 On ch=13 n=36 v=69
119070 On ch=13 n=36 v=0
119250 On ch=13 n=46 v=74
119302 On ch=13 n=46 v=0
119506 On ch=13 n=48 v=58
119608 On ch=13 n=48 v=0
119728 On ch=13 n=52 v=70
119768 On ch=13 n=52 v=0
119960 On ch=13 n=36 v=89
120027 On ch=13 n=36 v=0
120196 On ch=13 n=48 v=86
120254 On ch=13 n=48 v=0
120423 On ch=13 n=50 v=82
120628 On ch=13 n=50 v=0
120649 On ch=13 n=53 v=85
120698 On ch=13 n=53 v=0
120893 On ch=13 n=36 v=108
120959 On ch=13 n=36 v=0
121138 On ch=13 n=50 v=105
121215 On ch=13 n=50 v=0
121373 On ch=13 n=52 v=82
121587 On ch=13 n=52 v=0
121602 On ch=13 n=55 v=84
121664 On ch=13 n=55 v=0
121860 On ch=13 n=36 v=113
122170 On ch=13 n=36 v=0
123081 On ch=13 n=69 v=49
123091 On ch=13 n=65 v=49
123155 On ch=13 n=65 v=0
123155 On ch=13 n=69 v=0
123317 On ch=13 n=69 v=44
123331 On ch=13 n=65 v=44
123391 On ch=13 n=65 v=0
123391 On ch=13 n=69 v=0
123528 On ch=13 n=69 v=43
123547 On ch=13 n=65 v=47
123600 On ch=13 n=69 v=0
123605 On ch=13 n=65 v=0
123768 On ch=13 n=67 v=50
123774 On ch=13 n=64 v=46
123842 On ch=13 n=67 v=0
123845 On ch=13 n=64 v=0
124017 On ch=13 n=67 v=38
124027 On ch=13 n=64 v=38
124088 On ch=13 n=67 v=0
124096 On ch=13 n=64 v=0
124252 On ch=13 n=67 v=41
124258 On ch=13 n=64 v=47
124325 On ch=13 n=67 v=0
124335 On ch=13 n=64 v=0
124485 On ch=13 n=67 v=45
124494 On ch=13 n=64 v=40
124563 On ch=13 n=67 v=0
124573 On ch=13 n=64 v=0
124975 On ch=13 n=62 v=48
124975 On ch=13 n=65 v=48
125030 On ch=13 n=65 v=0
125032 On ch=13 n=62 v=0
125193 On ch=13 n=65 v=48
125202 On ch=13 n=62 v=54
125257 On ch=13 n=65 v=0
125258 On ch=13 n=62 v=0
125436 On ch=13 n=62 v=35
125438 On ch=13 n=65 v=36
125492 On ch=13 n=65 v=0
125499 On ch=13 n=62 v=0
125667 On ch=13 n=63 v=58
125671 On ch=13 n=60 v=57
125733 On ch=13 n=63 v=0
125747 On ch=13 n=60 v=0
125929 On ch=13 n=60 v=53
125934 On ch=13 n=63 v=46
126001 On ch=13 n=60 v=0
126005 On ch=13 n=63 v=0
126174 On ch=13 n=63 v=68
126184 On ch=13 n=60 v=63
126258 On ch=13 n=63 v=0
126270 On ch=13 n=60 v=0
126410 On ch=13 n=63 v=65
126427 On ch=13 n=60 v=59
126496 On ch=13 n=63 v=0
126520 On ch=13 n=60 v=0
126923 On ch=13 n=62 v=64
126941 On ch=13 n=58 v=70
126982 On ch=13 n=62 v=0
126989 On ch=13 n=58 v=0
127166 On ch=13 n=62 v=50
127171 On ch=13 n=58 v=65
127213 On ch=13 n=62 v=0
127231 On ch=13 n=58 v=0
127377 On ch=13 n=62 v=54
127396 On ch=13 n=58 v=55
127431 On ch=13 n=62 v=0
127447 On ch=13 n=58 v=0
127617 On ch=13 n=60 v=61
127626 On ch=13 n=57 v=45
127673 On ch=13 n=60 v=0
127676 On ch=13 n=57 v=0
127846 On ch=13 n=57 v=57
127848 On ch=13 n=60 v=56
127897 On ch=13 n=60 v=0
127914 On ch=13 n=57 v=0
128074 On ch=13 n=57 v=62
128084 On ch=13 n=60 v=54
128133 On ch=13 n=60 v=0
128144 On ch=13 n=57 v=0
128319 On ch=13 n=60 v=60
128324 On ch=13 n=57 v=48
128485 On ch=13 n=57 v=0
128493 On ch=13 n=60 v=0
128712 On ch=13 n=62 v=84
128818 On ch=13 n=62 v=0
128828 On ch=13 n=64 v=68
128941 On ch=13 n=65 v=76
128951 On ch=13 n=64 v=0
129029 On ch=13 n=65 v=0
129061 On ch=13 n=55 v=71
129152 On ch=13 n=64 v=73
129178 On ch=13 n=55 v=0
129227 On ch=13 n=64 v=0
129271 On ch=13 n=53 v=76
129350 On ch=13 n=53 v=0
129354 On ch=13 n=62 v=78
129420 On ch=13 n=62 v=0
129468 On ch=13 n=52 v=81
129711 On ch=13 n=52 v=0
129761 On ch=13 n=60 v=70
129898 On ch=13 n=60 v=0
130563 On ch=13 n=55 v=82
130716 On ch=13 n=55 v=0
130730 On ch=13 n=53 v=93
130863 On ch=13 n=53 v=0
130870 On ch=13 n=52 v=76
130982 On ch=13 n=60 v=98
130996 On ch=13 n=52 v=0
131098 On ch=13 n=60 v=0
131119 On ch=13 n=52 v=91
131200 On ch=13 n=52 v=0
131261 On ch=13 n=62 v=93
131332 On ch=13 n=62 v=0
131351 On ch=13 n=50 v=81
131443 On ch=13 n=50 v=0
131463 On ch=13 n=64 v=97
131681 On ch=13 n=64 v=0
131693 On ch=13 n=48 v=92
132183 On ch=13 n=48 v=0
132539 On ch=13 n=65 v=90
132615 On ch=13 n=65 v=0
132658 On ch=13 n=64 v=85
132780 On ch=13 n=62 v=95
132799 On ch=13 n=64 v=0
132850 On ch=13 n=62 v=0
132907 On ch=13 n=60 v=98
133003 On ch=13 n=60 v=0
133023 On ch=13 n=58 v=101
133094 On ch=13 n=58 v=0
133153 On ch=13 n=57 v=85
133274 On ch=13 n=55 v=85
133285 On ch=13 n=57 v=0
133353 On ch=13 n=55 v=0
133406 On ch=13 n=53 v=112
133464 On ch=13 n=53 v=0
133516 On ch=13 n=53 v=98
133629 On ch=13 n=51 v=114
133632 On ch=13 n=53 v=0
133692 On ch=13 n=51 v=0
133737 On ch=13 n=50 v=111
133798 On ch=13 n=50 v=0
133857 On ch=13 n=48 v=111
133969 On ch=13 n=46 v=108
133979 On ch=13 n=48 v=0
134049 On ch=13 n=46 v=0
134088 On ch=13 n=45 v=87
134203 On ch=13 n=45 v=0
134203 On ch=13 n=43 v=91
134273 On ch=13 n=43 v=0
134342 On ch=13 n=41 v=122
134406 On ch=13 n=41 v=0
134449 On ch=13 n=53 v=95
134530 On ch=13 n=53 v=0
134576 On ch=13 n=48 v=94
134676 On ch=13 n=48 v=0
134686 On ch=13 n=45 v=85
134761 On ch=13 n=45 v=0
134815 On ch=13 n=41 v=116
134872 On ch=13 n=41 v=0
134925 On ch=13 n=53 v=97
135029 On ch=13 n=53 v=0
135051 On ch=13 n=51 v=85
135165 On ch=13 n=51 v=0
135173 On ch=13 n=53 v=92
135241 On ch=13 n=53 v=0
135301 On ch=13 n=46 v=116
135394 On ch=13 n=46 v=0
135415 On ch=13 n=50 v=100
135537 On ch=13 n=53 v=100
135558 On ch=13 n=50 v=0
135639 On ch=13 n=53 v=0
135656 On ch=13 n=57 v=86
135724 On ch=13 n=57 v=0
135788 On ch=13 n=58 v=106
135893 On ch=13 n=58 v=0
135896 On ch=13 n=62 v=92
136067 On ch=13 n=62 v=0
136265 On ch=13 n=67 v=115
136321 On ch=13 n=67 v=0
136378 On ch=13 n=67 v=91
136449 On ch=13 n=67 v=0
136498 On ch=13 n=65 v=91
136623 On ch=13 n=64 v=85
136657 On ch=13 n=65 v=0
136738 On ch=13 n=62 v=101
136781 On ch=13 n=64 v=0
136826 On ch=13 n=62 v=0
136854 On ch=13 n=60 v=103
136939 On ch=13 n=60 v=0
136983 On ch=13 n=59 v=98
137095 On ch=13 n=57 v=85
137126 On ch=13 n=59 v=0
137218 On ch=13 n=55 v=96
137233 On ch=13 n=57 v=0
137279 On ch=13 n=55 v=0
137341 On ch=13 n=55 v=105
137411 On ch=13 n=55 v=0
137465 On ch=13 n=53 v=107
137550 On ch=13 n=53 v=0
137581 On ch=13 n=52 v=104
137636 On ch=13 n=52 v=0
137703 On ch=13 n=50 v=114
137774 On ch=13 n=50 v=0
137819 On ch=13 n=48 v=103
137891 On ch=13 n=48 v=0
137935 On ch=13 n=47 v=95
138037 On ch=13 n=47 v=0
138049 On ch=13 n=45 v=92
138116 On ch=13 n=45 v=0
138181 On ch=13 n=43 v=120
138251 On ch=13 n=43 v=0
138287 On ch=13 n=55 v=98
138377 On ch=13 n=55 v=0
138413 On ch=13 n=50 v=103
138501 On ch=13 n=50 v=0
138521 On ch=13 n=47 v=88
138599 On ch=13 n=47 v=0
138659 On ch=13 n=43 v=116
138713 On ch=13 n=43 v=0
138764 On ch=13 n=55 v=95
138847 On ch=13 n=55 v=0
138893 On ch=13 n=53 v=92
139002 On ch=13 n=53 v=0
139011 On ch=13 n=55 v=94
139075 On ch=13 n=55 v=0
139131 On ch=13 n=48 v=105
139253 On ch=13 n=55 v=95
139276 On ch=13 n=48 v=0
139379 On ch=13 n=57 v=99
139430 On ch=13 n=55 v=0
139508 On ch=13 n=59 v=102
139558 On ch=13 n=57 v=0
139634 On ch=13 n=60 v=102
139661 On ch=13 n=59 v=0
139700 On ch=13 n=60 v=0
139744 On ch=13 n=55 v=85
139862 On ch=13 n=60 v=87
139906 On ch=13 n=55 v=0
139980 On ch=13 n=62 v=95
139990 On ch=13 n=60 v=0
140020 On ch=13 n=62 v=0
140132 On ch=13 n=64 v=74
140134 On ch=13 n=67 v=67
140260 On ch=13 n=67 v=0
140282 On ch=13 n=64 v=0
140347 On ch=13 n=60 v=59
140549 On ch=13 n=60 v=0
140573 On ch=13 n=65 v=54
140573 On ch=13 n=69 v=46
140723 On ch=13 n=69 v=0
140733 On ch=13 n=65 v=0
140805 On ch=13 n=60 v=51
140979 On ch=13 n=60 v=0
141012 On ch=13 n=67 v=49
141036 On ch=13 n=64 v=21
141172 On ch=13 n=64 v=0
141179 On ch=13 n=67 v=0
141255 On ch=13 n=60 v=55
141358 On ch=13 n=62 v=69
141406 On ch=13 n=60 v=0
141509 On ch=13 n=64 v=56
141532 On ch=13 n=62 v=0
141605 On ch=13 n=65 v=69
141626 On ch=13 n=64 v=0
141722 On ch=13 n=65 v=0
141731 On ch=13 n=67 v=53
141807 On ch=13 n=67 v=0
141860 On ch=13 n=64 v=45
141952 On ch=13 n=64 v=0
141987 On ch=13 n=69 v=43
142008 On ch=13 n=65 v=32
142163 On ch=13 n=69 v=0
142179 On ch=13 n=65 v=0
142229 On ch=13 n=60 v=51
142458 On ch=13 n=60 v=0
142486 On ch=13 n=67 v=47
142507 On ch=13 n=64 v=36
142636 On ch=13 n=67 v=0
142660 On ch=13 n=64 v=0
142699 On ch=13 n=60 v=61
142924 On ch=13 n=65 v=57
142924 On ch=13 n=69 v=57
142933 On ch=13 n=60 v=0
143004 On ch=13 n=69 v=0
143004 On ch=13 n=65 v=0
143070 On ch=13 n=70 v=85
143116 On ch=13 n=70 v=0
143173 On ch=13 n=69 v=77
143269 On ch=13 n=69 v=0
143279 On ch=13 n=67 v=80
143396 On ch=13 n=67 v=0
143418 On ch=13 n=65 v=74
143541 On ch=13 n=67 v=78
143546 On ch=13 n=65 v=0
143656 On ch=13 n=67 v=0
143672 On ch=13 n=69 v=67
143759 On ch=13 n=65 v=77
143765 On ch=13 n=69 v=0
143862 On ch=13 n=65 v=0
143929 On ch=13 n=67 v=57
143939 On ch=13 n=70 v=80
144104 On ch=13 n=70 v=0
144122 On ch=13 n=67 v=0
144180 On ch=13 n=60 v=54
144428 On ch=13 n=60 v=0
144429 On ch=13 n=69 v=63
144436 On ch=13 n=65 v=68
144584 On ch=13 n=69 v=0
144634 On ch=13 n=65 v=0
144651 On ch=13 n=60 v=74
144871 On ch=13 n=64 v=77
144929 On ch=13 n=60 v=0
144945 On ch=13 n=64 v=0
144971 On ch=13 n=65 v=99
145104 On ch=13 n=64 v=88
145146 On ch=13 n=65 v=0
145218 On ch=13 n=62 v=83
145254 On ch=13 n=64 v=0
145310 On ch=13 n=62 v=0
145366 On ch=13 n=60 v=80
145471 On ch=13 n=60 v=0
145480 On ch=13 n=58 v=88
145547 On ch=13 n=58 v=0
145600 On ch=13 n=57 v=71
145702 On ch=13 n=57 v=0
145703 On ch=13 n=55 v=69
145806 On ch=13 n=53 v=80
145822 On ch=13 n=55 v=0
145892 On ch=13 n=53 v=0
145947 On ch=13 n=55 v=91
146021 On ch=13 n=55 v=0
146079 On ch=13 n=53 v=73
146176 On ch=13 n=51 v=92
146177 On ch=13 n=53 v=0
146272 On ch=13 n=51 v=0
146317 On ch=13 n=50 v=83
146419 On ch=13 n=48 v=76
146436 On ch=13 n=50 v=0
146513 On ch=13 n=48 v=0
146535 On ch=13 n=46 v=83
146637 On ch=13 n=46 v=0
146643 On ch=13 n=45 v=76
146737 On ch=13 n=45 v=0
146765 On ch=13 n=46 v=114
146878 On ch=13 n=46 v=0
146899 On ch=13 n=53 v=77
147000 On ch=13 n=53 v=0
147031 On ch=13 n=58 v=109
147275 On ch=13 n=58 v=0
147391 On ch=13 n=55 v=102
147448 On ch=13 n=55 v=0
147503 On ch=13 n=53 v=102
147599 On ch=13 n=52 v=81
147614 On ch=13 n=53 v=0
147719 On ch=13 n=53 v=92
147754 On ch=13 n=52 v=0
147832 On ch=13 n=57 v=90
147841 On ch=13 n=53 v=0
147942 On ch=13 n=57 v=0
147985 On ch=13 n=60 v=103
148252 On ch=13 n=60 v=0
148382 On ch=13 n=59 v=100
148475 On ch=13 n=59 v=0
148478 On ch=13 n=57 v=79
148586 On ch=13 n=59 v=90
148633 On ch=13 n=57 v=0
148715 On ch=13 n=60 v=96
148719 On ch=13 n=59 v=0
148774 On ch=13 n=60 v=0
148834 On ch=13 n=55 v=89
148977 On ch=13 n=60 v=99
149034 On ch=13 n=55 v=0
149108 On ch=13 n=62 v=107
149160 On ch=13 n=60 v=0
149247 On ch=13 n=64 v=97
149295 On ch=13 n=62 v=0
149352 On ch=13 n=60 v=94
149373 On ch=13 n=64 v=0
149473 On ch=13 n=62 v=100
149536 On ch=13 n=60 v=0
149584 On ch=13 n=64 v=87
149618 On ch=13 n=64 v=0
149619 On ch=13 n=62 v=0
149700 On ch=13 n=65 v=94
149905 On ch=13 n=65 v=0
149942 On ch=13 n=57 v=62
150166 On ch=13 n=57 v=0
150177 On ch=13 n=58 v=77
150409 On ch=13 n=58 v=0
150412 On ch=13 n=60 v=65
150571 On ch=13 n=60 v=0
150634 On ch=13 n=62 v=60
150744 On ch=13 n=62 v=0
150909 On ch=13 n=58 v=69
151134 On ch=13 n=58 v=0
151157 On ch=13 n=53 v=65
151380 On ch=13 n=62 v=69
151474 On ch=13 n=62 v=0
151546 On ch=13 n=53 v=0
151636 On ch=13 n=60 v=70
151837 On ch=13 n=60 v=0
151858 On ch=13 n=57 v=62
152053 On ch=13 n=57 v=0
152083 On ch=13 n=53 v=65
152312 On ch=13 n=53 v=0
152327 On ch=13 n=60 v=78
152561 On ch=13 n=60 v=0
152563 On ch=13 n=59 v=74
152768 On ch=13 n=59 v=0
152795 On ch=13 n=62 v=79
153014 On ch=13 n=62 v=0
153045 On ch=13 n=59 v=78
153218 On ch=13 n=59 v=0
153279 On ch=13 n=55 v=77
153502 On ch=13 n=55 v=0
153520 On ch=13 n=60 v=91
153716 On ch=13 n=60 v=0
153760 On ch=13 n=48 v=95
153986 On ch=13 n=48 v=0
153998 On ch=13 n=50 v=105
154227 On ch=13 n=52 v=105
154274 On ch=13 n=50 v=0
154428 On ch=13 n=52 v=0
154466 On ch=13 n=53 v=95
154630 On ch=13 n=53 v=0
154696 On ch=13 n=45 v=105
154896 On ch=13 n=45 v=0
154944 On ch=13 n=46 v=109
155154 On ch=13 n=48 v=92
155183 On ch=13 n=46 v=0
155319 On ch=13 n=48 v=0
155445 On ch=13 n=53 v=124
155447 On ch=13 n=48 v=117
155450 On ch=13 n=41 v=107
155450 On ch=13 n=45 v=101
155474 On ch=13 n=48 v=109
155474 On ch=13 n=53 v=110
155480 On ch=13 n=41 v=94
155486 On ch=13 n=45 v=92
155531 On ch=13 n=45 v=0
155555 On ch=13 n=53 v=0
155560 On ch=13 n=48 v=0
155569 On ch=13 n=41 v=0
155734 On ch=13 n=48 v=0
155735 On ch=13 n=45 v=0
155752 On ch=13 n=53 v=0
155758 On ch=13 n=41 v=0
156653 On ch=13 n=65 v=93
156713 On ch=13 n=65 v=0
156908 On ch=13 n=62 v=94
156940 On ch=13 n=62 v=0
157130 On ch=13 n=58 v=105
157152 On ch=13 n=58 v=0
157584 On ch=13 n=53 v=81
157674 On ch=13 n=53 v=0
157824 On ch=13 n=50 v=78
157921 On ch=13 n=50 v=0
158065 On ch=13 n=46 v=91
158184 On ch=13 n=46 v=0
158344 On ch=13 n=53 v=86
158592 On ch=13 n=41 v=72
158856 On ch=13 n=53 v=0
158859 On ch=13 n=41 v=0
159282 On ch=13 n=60 v=104
159284 On ch=13 n=55 v=99
159287 On ch=13 n=48 v=92
159292 On ch=13 n=52 v=95
159551 On ch=13 n=48 v=0
159555 On ch=13 n=60 v=0
159564 On ch=13 n=55 v=0
159565 On ch=13 n=52 v=0
160507 On ch=13 n=72 v=90
160569 On ch=13 n=72 v=0
160738 On ch=13 n=69 v=86
160767 On ch=13 n=69 v=0
160974 On ch=13 n=65 v=94
161000 On ch=13 n=65 v=0
161459 On ch=13 n=60 v=68
161530 On ch=13 n=60 v=0
161692 On ch=13 n=57 v=52
161730 On ch=13 n=57 v=0
161919 On ch=13 n=53 v=74
161993 On ch=13 n=53 v=0
162207 On ch=13 n=60 v=77
162442 On ch=13 n=48 v=74
162635 On ch=13 n=48 v=0
162651 On ch=13 n=60 v=0
163126 On ch=13 n=60 v=54
163130 On ch=13 n=55 v=54
163140 On ch=13 n=52 v=43
163401 On ch=13 n=55 v=0
163402 On ch=13 n=60 v=0
163460 On ch=13 n=52 v=0
163588 On ch=13 n=55 v=74
163590 On ch=13 n=60 v=82
163595 On ch=13 n=52 v=62
163607 On ch=13 n=48 v=69
163804 On ch=13 n=52 v=0
163807 On ch=13 n=48 v=0
163815 On ch=13 n=55 v=0
164066 On ch=13 n=53 v=89
164076 On ch=13 n=60 v=0
164163 On ch=13 n=53 v=0
164324 On ch=13 n=57 v=82
164418 On ch=13 n=57 v=0
164567 On ch=13 n=60 v=78
164663 On ch=13 n=60 v=0
164799 On ch=13 n=65 v=67
164894 On ch=13 n=65 v=0
165034 On ch=13 n=60 v=73
165034 On ch=13 n=65 v=76
165051 On ch=13 n=57 v=50
165303 On ch=13 n=57 v=0
165320 On ch=13 n=60 v=0
165323 On ch=13 n=65 v=0
165523 On ch=13 n=65 v=90
165527 On ch=13 n=60 v=79
165529 On ch=13 n=57 v=59
165546 On ch=13 n=53 v=51
165607 On ch=13 n=53 v=0
165622 On ch=13 n=57 v=0
165632 On ch=13 n=60 v=0
165723 On ch=13 n=65 v=0
165982 On ch=13 n=58 v=100
166127 On ch=13 n=58 v=0
166243 On ch=13 n=62 v=87
166416 On ch=13 n=62 v=0
166498 On ch=13 n=65 v=72
166588 On ch=13 n=65 v=0
166715 On ch=13 n=70 v=96
166796 On ch=13 n=70 v=0
166916 On ch=13 n=65 v=80
166916 On ch=13 n=71 v=86
166925 On ch=13 n=62 v=82
166983 On ch=13 n=71 v=0
167000 On ch=13 n=65 v=0
167010 On ch=13 n=62 v=0
167448 On ch=13 n=67 v=93
167454 On ch=13 n=62 v=97
167461 On ch=13 n=59 v=87
167520 On ch=13 n=67 v=0
167530 On ch=13 n=62 v=0
167540 On ch=13 n=59 v=0
167929 On ch=13 n=59 v=87
167929 On ch=13 n=62 v=93
167932 On ch=13 n=55 v=82
167990 On ch=13 n=62 v=0
168006 On ch=13 n=59 v=0
168032 On ch=13 n=55 v=0
168396 On ch=13 n=60 v=106
168399 On ch=13 n=55 v=94
168408 On ch=13 n=48 v=97
168659 On ch=13 n=48 v=0
168689 On ch=13 n=55 v=0
168733 On ch=13 n=60 v=0
169116 On ch=13 n=60 v=91
169228 On ch=13 n=62 v=87
169235 On ch=13 n=60 v=0
169309 On ch=13 n=62 v=0
169376 On ch=13 n=64 v=77
169411 On ch=13 n=64 v=0
169612 On ch=13 n=67 v=74
169656 On ch=13 n=67 v=0
169851 On ch=13 n=64 v=86
169885 On ch=13 n=64 v=0
170099 On ch=13 n=60 v=81
170155 On ch=13 n=60 v=0
170338 On ch=13 n=48 v=98
170450 On ch=13 n=48 v=0
170924 On ch=13 n=60 v=94
171032 On ch=13 n=62 v=87
171033 On ch=13 n=60 v=0
171145 On ch=13 n=64 v=82
171160 On ch=13 n=62 v=0
171266 On ch=13 n=64 v=0
171280 On ch=13 n=65 v=88
171313 On ch=13 n=65 v=0
171504 On ch=13 n=69 v=92
171558 On ch=13 n=69 v=0
171729 On ch=13 n=65 v=87
171757 On ch=13 n=65 v=0
171971 On ch=13 n=60 v=89
172045 On ch=13 n=60 v=0
172232 On ch=13 n=48 v=99
172372 On ch=13 n=48 v=0
172987 On ch=13 n=62 v=89
173065 On ch=13 n=62 v=0
173092 On ch=13 n=64 v=82
173170 On ch=13 n=64 v=0
173200 On ch=13 n=65 v=83
173235 On ch=13 n=65 v=0
173439 On ch=13 n=62 v=90
173499 On ch=13 n=62 v=0
173550 On ch=13 n=64 v=89
173628 On ch=13 n=64 v=0
173689 On ch=13 n=65 v=88
173749 On ch=13 n=65 v=0
173919 On ch=13 n=62 v=95
173957 On ch=13 n=62 v=0
174155 On ch=13 n=55 v=96
174191 On ch=13 n=55 v=0
174395 On ch=13 n=59 v=96
174448 On ch=13 n=59 v=0
174650 On ch=13 n=60 v=100
174806 On ch=13 n=60 v=0
174867 On ch=13 n=48 v=98
174937 On ch=13 n=48 v=0
174976 On ch=13 n=50 v=101
175094 On ch=13 n=52 v=90
175101 On ch=13 n=50 v=0
175144 On ch=13 n=52 v=0
175345 On ch=13 n=55 v=88
175379 On ch=13 n=55 v=0
175585 On ch=13 n=60 v=95
175652 On ch=13 n=60 v=0
175832 On ch=13 n=48 v=94
175939 On ch=13 n=48 v=0
175955 On ch=13 n=50 v=96
176085 On ch=13 n=52 v=96
176101 On ch=13 n=50 v=0
176155 On ch=13 n=52 v=0
176330 On ch=13 n=53 v=94
176363 On ch=13 n=53 v=0
176550 On ch=13 n=55 v=101
176620 On ch=13 n=55 v=0
176780 On ch=13 n=48 v=84
176888 On ch=13 n=52 v=90
176899 On ch=13 n=48 v=0
176975 On ch=13 n=52 v=0
177022 On ch=13 n=55 v=98
177084 On ch=13 n=55 v=0
177277 On ch=13 n=57 v=81
177340 On ch=13 n=57 v=0
177538 On ch=13 n=58 v=109
177586 On ch=13 n=58 v=0
177775 On ch=13 n=48 v=110
177878 On ch=13 n=50 v=90
177929 On ch=13 n=48 v=0
178009 On ch=13 n=52 v=100
178039 On ch=13 n=50 v=0
178076 On ch=13 n=52 v=0
178264 On ch=13 n=48 v=79
178334 On ch=13 n=48 v=0
178495 On ch=13 n=53 v=98
178592 On ch=13 n=53 v=0
178600 On ch=13 n=57 v=97
178689 On ch=13 n=57 v=0
178734 On ch=13 n=55 v=89
178856 On ch=13 n=53 v=88
178887 On ch=13 n=55 v=0
178950 On ch=13 n=53 v=0
178995 On ch=13 n=52 v=103
179085 On ch=13 n=52 v=0
179091 On ch=13 n=50 v=102
179195 On ch=13 n=48 v=92
179226 On ch=13 n=50 v=0
179323 On ch=13 n=46 v=106
179374 On ch=13 n=48 v=0
179452 On ch=13 n=45 v=101
179479 On ch=13 n=46 v=0
179559 On ch=13 n=48 v=104
179631 On ch=13 n=45 v=0
179683 On ch=13 n=50 v=111
179730 On ch=13 n=48 v=0
179795 On ch=13 n=52 v=103
179816 On ch=13 n=50 v=0
179883 On ch=13 n=52 v=0
179921 On ch=13 n=53 v=111
180024 On ch=13 n=55 v=96
180068 On ch=13 n=53 v=0
180126 On ch=13 n=57 v=98
180130 On ch=13 n=55 v=0
180234 On ch=13 n=58 v=118
180260 On ch=13 n=57 v=0
180337 On ch=13 n=58 v=0
180408 On ch=13 n=60 v=113
180892 On ch=13 n=48 v=109
180984 On ch=13 n=60 v=0
181355 On ch=13 n=48 v=0
181370 On ch=13 n=50 v=107
182051 On ch=13 n=50 v=0
182118 On ch=13 n=52 v=91
182226 On ch=13 n=52 v=0
182329 On ch=13 n=53 v=103
182448 On ch=13 n=53 v=0
182580 On ch=13 n=45 v=104
182652 On ch=13 n=45 v=0
182803 On ch=13 n=46 v=114
182854 On ch=13 n=46 v=0
183034 On ch=13 n=48 v=113
183087 On ch=13 n=48 v=0
183286 On ch=13 n=41 v=121
183294 PoPr ch=13 n=21 v=77
183304 PoPr ch=13 n=21 v=84
183314 PoPr ch=13 n=21 v=65
184134 On ch=13 n=41 v=0
184134 Meta TrkEnd
TrkEnd
MTrk
0 SeqSpec 43 00 01 00
0 Meta TrkName "Copyright (C) 1992 MTA"
0 Meta 0x21 00
0 Meta TrkEnd
TrkEnd
MTrk
0 SeqSpec 43 00 01 00
0 Meta TrkName "All rights reserved."
0 Meta 0x21 00
0 Meta TrkEnd
TrkEnd
