MFile 1 4 480
MTrk
0 Meta SeqName "\xffffff95\xffffffbd\xffffff8b\xffffffcf\xffffff97\xffffffa5\xffffff83N\xffffff83\xffffff89\xffffff83\xffffff94\xffffff83B\xffffff81[\xffffff83A\xffffff8fW\xffffff91\xffffffe61\xffffff8fW\xffffff91\xffffffe65\xffffff94\xffffffd4\xffffff82\xffffffcc\xffffff83v\xffffff83\xffffff8c\xffffff83\xffffff8a\xffffff83\xffffff85\xffffff81[\xffffff83h"
0 Meta Copyright "(C) 2000 Mappy"
0 Meta Text "Made with OTAMA (C) 1997-2000 MISO"
0 KeySig 2 major
0 TimeSig 4/4 24 8
0 Tempo 500000
63440 Tempo 508474
63552 Tempo 517241
63696 Tempo 526315
63808 Tempo 535714
63952 Tempo 545454
64064 Tempo 555555
64208 Tempo 566037
64320 Tempo 576923
64464 Tempo 588235
64576 Tempo 600000
64720 Tempo 612244
64832 Tempo 625000
64976 Tempo 638297
65088 Tempo 652173
65232 Tempo 666666
65344 Tempo 681818
65488 Tempo 697674
65600 Tempo 714285
65744 Tempo 731707
65856 Tempo 750000
66000 Tempo 769230
66112 Tempo 789473
66256 Tempo 810810
66368 Tempo 833333
66512 Tempo 660534
66624 Tempo 685744
66768 Tempo 712482
66880 Tempo 937500
67024 Tempo 967741
67136 Tempo 1000000
67192 Tempo 500000
67376 Tempo 508474
67696 Tempo 500000
67904 Tempo 491803
68112 Tempo 483870
68239 Meta TrkEnd
TrkEnd
MTrk
0 SysEx f0 7e 7f 09 01 f7
480 Par ch=1 c=121 v=0
500 Meta Text "# Pitch Bend Sensitivity (0-2-24) #"
500 Par ch=1 c=101 v=0
505 Par ch=1 c=100 v=0
510 Par ch=1 c=6 v=2
515 Pb ch=1 v=8192
520 Par ch=1 c=0 v=0
525 Par ch=1 c=32 v=0
530 PrCh ch=1 p=0
535 Par ch=1 c=7 v=100
540 Par ch=1 c=11 v=127
545 Par ch=1 c=10 v=64
550 Par ch=1 c=91 v=60
555 Par ch=1 c=93 v=0
560 Par ch=1 c=1 v=0
2040 On ch=1 n=74 v=90
2148 On ch=1 n=74 v=0
2160 On ch=1 n=76 v=90
2268 On ch=1 n=76 v=0
2280 On ch=1 n=78 v=90
2388 On ch=1 n=78 v=0
2400 On ch=1 n=69 v=90
2508 On ch=1 n=69 v=0
2520 On ch=1 n=78 v=90
2628 On ch=1 n=78 v=0
2640 On ch=1 n=76 v=90
2748 On ch=1 n=76 v=0
2760 On ch=1 n=74 v=90
2868 On ch=1 n=74 v=0
2880 On ch=1 n=81 v=90
2988 On ch=1 n=81 v=0
3000 On ch=1 n=74 v=90
3108 On ch=1 n=74 v=0
3120 On ch=1 n=76 v=90
3228 On ch=1 n=76 v=0
3240 On ch=1 n=78 v=90
3348 On ch=1 n=78 v=0
3360 On ch=1 n=71 v=90
3468 On ch=1 n=71 v=0
3480 On ch=1 n=78 v=90
3588 On ch=1 n=78 v=0
3600 On ch=1 n=76 v=90
3708 On ch=1 n=76 v=0
3720 On ch=1 n=74 v=90
3828 On ch=1 n=74 v=0
3840 On ch=1 n=79 v=90
3948 On ch=1 n=79 v=0
3960 On ch=1 n=76 v=90
4068 On ch=1 n=76 v=0
4080 On ch=1 n=78 v=90
4188 On ch=1 n=78 v=0
4200 On ch=1 n=79 v=90
4308 On ch=1 n=79 v=0
4320 On ch=1 n=71 v=90
4428 On ch=1 n=71 v=0
4440 On ch=1 n=74 v=90
4548 On ch=1 n=74 v=0
4560 On ch=1 n=73 v=90
4668 On ch=1 n=73 v=0
4680 On ch=1 n=71 v=90
4788 On ch=1 n=71 v=0
4800 On ch=1 n=73 v=90
4908 On ch=1 n=73 v=0
4920 On ch=1 n=76 v=90
5028 On ch=1 n=76 v=0
5040 On ch=1 n=78 v=90
5148 On ch=1 n=78 v=0
5160 On ch=1 n=79 v=90
5268 On ch=1 n=79 v=0
5280 On ch=1 n=69 v=90
5388 On ch=1 n=69 v=0
5400 On ch=1 n=79 v=90
5508 On ch=1 n=79 v=0
5520 On ch=1 n=78 v=90
5628 On ch=1 n=78 v=0
5640 On ch=1 n=76 v=90
5748 On ch=1 n=76 v=0
5760 On ch=1 n=78 v=90
5868 On ch=1 n=78 v=0
5880 On ch=1 n=74 v=90
5988 On ch=1 n=74 v=0
6000 On ch=1 n=76 v=90
6108 On ch=1 n=76 v=0
6120 On ch=1 n=78 v=90
6228 On ch=1 n=78 v=0
6240 On ch=1 n=69 v=90
6348 On ch=1 n=69 v=0
6360 On ch=1 n=73 v=90
6468 On ch=1 n=73 v=0
6480 On ch=1 n=71 v=90
6588 On ch=1 n=71 v=0
6600 On ch=1 n=69 v=90
6708 On ch=1 n=69 v=0
6720 On ch=1 n=71 v=90
6828 On ch=1 n=71 v=0
6840 On ch=1 n=74 v=90
6948 On ch=1 n=74 v=0
6960 On ch=1 n=76 v=90
7068 On ch=1 n=76 v=0
7080 On ch=1 n=78 v=90
7188 On ch=1 n=78 v=0
7200 On ch=1 n=71 v=90
7308 On ch=1 n=71 v=0
7320 On ch=1 n=81 v=90
7428 On ch=1 n=81 v=0
7440 On ch=1 n=80 v=90
7548 On ch=1 n=80 v=0
7560 On ch=1 n=78 v=90
7668 On ch=1 n=78 v=0
7680 On ch=1 n=80 v=90
7788 On ch=1 n=80 v=0
7800 On ch=1 n=76 v=90
7908 On ch=1 n=76 v=0
7920 On ch=1 n=78 v=90
8028 On ch=1 n=78 v=0
8040 On ch=1 n=80 v=90
8148 On ch=1 n=80 v=0
8160 On ch=1 n=71 v=90
8268 On ch=1 n=71 v=0
8280 On ch=1 n=74 v=90
8388 On ch=1 n=74 v=0
8400 On ch=1 n=73 v=90
8508 On ch=1 n=73 v=0
8520 On ch=1 n=71 v=90
8628 On ch=1 n=71 v=0
8640 On ch=1 n=69 v=90
8748 On ch=1 n=69 v=0
8760 On ch=1 n=73 v=90
8868 On ch=1 n=73 v=0
8880 On ch=1 n=74 v=90
8988 On ch=1 n=74 v=0
9000 On ch=1 n=76 v=90
9108 On ch=1 n=76 v=0
9120 On ch=1 n=66 v=90
9228 On ch=1 n=66 v=0
9240 On ch=1 n=76 v=90
9348 On ch=1 n=76 v=0
9360 On ch=1 n=74 v=90
9468 On ch=1 n=74 v=0
9480 On ch=1 n=73 v=90
9588 On ch=1 n=73 v=0
9600 On ch=1 n=74 v=90
9708 On ch=1 n=74 v=0
9720 On ch=1 n=71 v=90
9828 On ch=1 n=71 v=0
9840 On ch=1 n=73 v=90
9948 On ch=1 n=73 v=0
9960 On ch=1 n=74 v=90
10068 On ch=1 n=74 v=0
10080 On ch=1 n=66 v=90
10188 On ch=1 n=66 v=0
10200 On ch=1 n=69 v=90
10308 On ch=1 n=69 v=0
10320 On ch=1 n=68 v=90
10428 On ch=1 n=68 v=0
10440 On ch=1 n=66 v=90
10548 On ch=1 n=66 v=0
10560 On ch=1 n=68 v=90
10668 On ch=1 n=68 v=0
10680 On ch=1 n=71 v=90
10788 On ch=1 n=71 v=0
10800 On ch=1 n=73 v=90
10908 On ch=1 n=73 v=0
10920 On ch=1 n=74 v=90
11028 On ch=1 n=74 v=0
11040 On ch=1 n=64 v=90
11148 On ch=1 n=64 v=0
11160 On ch=1 n=74 v=90
11268 On ch=1 n=74 v=0
11280 On ch=1 n=73 v=90
11388 On ch=1 n=73 v=0
11400 On ch=1 n=71 v=90
11508 On ch=1 n=71 v=0
11520 On ch=1 n=73 v=90
11628 On ch=1 n=73 v=0
11640 On ch=1 n=69 v=90
11748 On ch=1 n=69 v=0
11760 On ch=1 n=71 v=90
11868 On ch=1 n=71 v=0
11880 On ch=1 n=73 v=90
11988 On ch=1 n=73 v=0
12000 On ch=1 n=64 v=90
12108 On ch=1 n=64 v=0
12120 On ch=1 n=67 v=90
12228 On ch=1 n=67 v=0
12240 On ch=1 n=66 v=90
12348 On ch=1 n=66 v=0
12360 On ch=1 n=64 v=90
12468 On ch=1 n=64 v=0
12480 On ch=1 n=66 v=90
12588 On ch=1 n=66 v=0
12600 On ch=1 n=69 v=90
12708 On ch=1 n=69 v=0
12720 On ch=1 n=71 v=90
12828 On ch=1 n=71 v=0
12840 On ch=1 n=73 v=90
12948 On ch=1 n=73 v=0
12960 On ch=1 n=66 v=90
13068 On ch=1 n=66 v=0
13080 On ch=1 n=76 v=90
13188 On ch=1 n=76 v=0
13200 On ch=1 n=75 v=90
13308 On ch=1 n=75 v=0
13320 On ch=1 n=73 v=90
13428 On ch=1 n=73 v=0
13440 On ch=1 n=75 v=90
13548 On ch=1 n=75 v=0
13560 On ch=1 n=71 v=90
13668 On ch=1 n=71 v=0
13680 On ch=1 n=73 v=90
13788 On ch=1 n=73 v=0
13800 On ch=1 n=75 v=90
13908 On ch=1 n=75 v=0
13920 On ch=1 n=66 v=90
14028 On ch=1 n=66 v=0
14040 On ch=1 n=69 v=90
14148 On ch=1 n=69 v=0
14160 On ch=1 n=67 v=90
14268 On ch=1 n=67 v=0
14280 On ch=1 n=66 v=90
14388 On ch=1 n=66 v=0
14400 On ch=1 n=64 v=90
14508 On ch=1 n=64 v=0
14520 On ch=1 n=67 v=90
14628 On ch=1 n=67 v=0
14640 On ch=1 n=69 v=90
14748 On ch=1 n=69 v=0
14760 On ch=1 n=71 v=90
14868 On ch=1 n=71 v=0
14880 On ch=1 n=61 v=90
14988 On ch=1 n=61 v=0
15000 On ch=1 n=74 v=90
15108 On ch=1 n=74 v=0
15120 On ch=1 n=73 v=90
15228 On ch=1 n=73 v=0
15240 On ch=1 n=71 v=90
15348 On ch=1 n=71 v=0
15360 On ch=1 n=70 v=90
15468 On ch=1 n=70 v=0
15480 On ch=1 n=64 v=90
15588 On ch=1 n=64 v=0
15600 On ch=1 n=66 v=90
15708 On ch=1 n=66 v=0
15720 On ch=1 n=67 v=90
15828 On ch=1 n=67 v=0
15840 On ch=1 n=61 v=90
15948 On ch=1 n=61 v=0
15960 On ch=1 n=67 v=90
16068 On ch=1 n=67 v=0
16080 On ch=1 n=66 v=90
16188 On ch=1 n=66 v=0
16200 On ch=1 n=64 v=90
16308 On ch=1 n=64 v=0
16320 On ch=1 n=62 v=90
16428 On ch=1 n=62 v=0
16440 On ch=1 n=71 v=90
16548 On ch=1 n=71 v=0
16560 On ch=1 n=73 v=90
16668 On ch=1 n=73 v=0
16680 On ch=1 n=74 v=90
16788 On ch=1 n=74 v=0
16800 On ch=1 n=66 v=90
16908 On ch=1 n=66 v=0
16920 On ch=1 n=69 v=90
17028 On ch=1 n=69 v=0
17040 On ch=1 n=68 v=90
17148 On ch=1 n=68 v=0
17160 On ch=1 n=66 v=90
17268 On ch=1 n=66 v=0
17280 On ch=1 n=65 v=90
17388 On ch=1 n=65 v=0
17400 On ch=1 n=68 v=90
17508 On ch=1 n=68 v=0
17520 On ch=1 n=69 v=90
17628 On ch=1 n=69 v=0
17640 On ch=1 n=71 v=90
17748 On ch=1 n=71 v=0
17760 On ch=1 n=65 v=90
17868 On ch=1 n=65 v=0
17880 On ch=1 n=74 v=90
17988 On ch=1 n=74 v=0
18000 On ch=1 n=73 v=90
18108 On ch=1 n=73 v=0
18120 On ch=1 n=71 v=90
18228 On ch=1 n=71 v=0
18240 On ch=1 n=80 v=90
18348 On ch=1 n=80 v=0
18360 On ch=1 n=77 v=90
18468 On ch=1 n=77 v=0
18480 On ch=1 n=78 v=90
18588 On ch=1 n=78 v=0
18600 On ch=1 n=80 v=90
18708 On ch=1 n=80 v=0
18720 On ch=1 n=73 v=90
18828 On ch=1 n=73 v=0
18840 On ch=1 n=83 v=90
18948 On ch=1 n=83 v=0
18960 On ch=1 n=81 v=90
19068 On ch=1 n=81 v=0
19080 On ch=1 n=80 v=90
19188 On ch=1 n=80 v=0
19200 On ch=1 n=81 v=90
19308 On ch=1 n=81 v=0
19320 On ch=1 n=78 v=90
19428 On ch=1 n=78 v=0
19440 On ch=1 n=80 v=90
19548 On ch=1 n=80 v=0
19560 On ch=1 n=81 v=90
19668 On ch=1 n=81 v=0
19680 On ch=1 n=73 v=90
19788 On ch=1 n=73 v=0
19800 On ch=1 n=76 v=90
19908 On ch=1 n=76 v=0
19920 On ch=1 n=75 v=90
20028 On ch=1 n=75 v=0
20040 On ch=1 n=73 v=90
20148 On ch=1 n=73 v=0
20160 On ch=1 n=75 v=90
20268 On ch=1 n=75 v=0
20280 On ch=1 n=78 v=90
20388 On ch=1 n=78 v=0
20400 On ch=1 n=79 v=90
20508 On ch=1 n=79 v=0
20520 On ch=1 n=81 v=90
20628 On ch=1 n=81 v=0
20640 On ch=1 n=71 v=90
20748 On ch=1 n=71 v=0
20760 On ch=1 n=81 v=90
20868 On ch=1 n=81 v=0
20880 On ch=1 n=79 v=90
20988 On ch=1 n=79 v=0
21000 On ch=1 n=78 v=90
21108 On ch=1 n=78 v=0
21120 On ch=1 n=79 v=90
21228 On ch=1 n=79 v=0
21240 On ch=1 n=76 v=90
21348 On ch=1 n=76 v=0
21360 On ch=1 n=78 v=90
21468 On ch=1 n=78 v=0
21480 On ch=1 n=79 v=90
21588 On ch=1 n=79 v=0
21600 On ch=1 n=71 v=90
21708 On ch=1 n=71 v=0
21720 On ch=1 n=74 v=90
21828 On ch=1 n=74 v=0
21840 On ch=1 n=72 v=90
21948 On ch=1 n=72 v=0
21960 On ch=1 n=71 v=90
22068 On ch=1 n=71 v=0
22080 On ch=1 n=72 v=90
22188 On ch=1 n=72 v=0
22200 On ch=1 n=75 v=90
22308 On ch=1 n=75 v=0
22320 On ch=1 n=76 v=90
22428 On ch=1 n=76 v=0
22440 On ch=1 n=78 v=90
22548 On ch=1 n=78 v=0
22560 On ch=1 n=69 v=90
22668 On ch=1 n=69 v=0
22680 On ch=1 n=72 v=90
22788 On ch=1 n=72 v=0
22800 On ch=1 n=71 v=90
22908 On ch=1 n=71 v=0
22920 On ch=1 n=69 v=90
23028 On ch=1 n=69 v=0
23040 On ch=1 n=67 v=90
23148 On ch=1 n=67 v=0
23160 On ch=1 n=76 v=90
23268 On ch=1 n=76 v=0
23280 On ch=1 n=78 v=90
23388 On ch=1 n=78 v=0
23400 On ch=1 n=79 v=90
23508 On ch=1 n=79 v=0
23520 On ch=1 n=71 v=90
23628 On ch=1 n=71 v=0
23640 On ch=1 n=74 v=90
23748 On ch=1 n=74 v=0
23760 On ch=1 n=73 v=90
23868 On ch=1 n=73 v=0
23880 On ch=1 n=71 v=90
23988 On ch=1 n=71 v=0
24000 On ch=1 n=73 v=90
24108 On ch=1 n=73 v=0
24120 On ch=1 n=76 v=90
24228 On ch=1 n=76 v=0
24240 On ch=1 n=78 v=90
24348 On ch=1 n=78 v=0
24360 On ch=1 n=79 v=90
24468 On ch=1 n=79 v=0
24480 On ch=1 n=69 v=90
24588 On ch=1 n=69 v=0
24600 On ch=1 n=79 v=90
24708 On ch=1 n=79 v=0
24720 On ch=1 n=78 v=90
24828 On ch=1 n=78 v=0
24840 On ch=1 n=76 v=90
24948 On ch=1 n=76 v=0
24960 On ch=1 n=78 v=90
25068 On ch=1 n=78 v=0
25080 On ch=1 n=74 v=90
25188 On ch=1 n=74 v=0
25200 On ch=1 n=76 v=90
25308 On ch=1 n=76 v=0
25320 On ch=1 n=78 v=90
25428 On ch=1 n=78 v=0
25440 On ch=1 n=69 v=90
25548 On ch=1 n=69 v=0
25560 On ch=1 n=72 v=90
25668 On ch=1 n=72 v=0
25680 On ch=1 n=71 v=90
25788 On ch=1 n=71 v=0
25800 On ch=1 n=69 v=90
25908 On ch=1 n=69 v=0
25920 On ch=1 n=71 v=90
26028 On ch=1 n=71 v=0
26040 On ch=1 n=67 v=90
26148 On ch=1 n=67 v=0
26160 On ch=1 n=69 v=90
26268 On ch=1 n=69 v=0
26280 On ch=1 n=71 v=90
26388 On ch=1 n=71 v=0
26400 On ch=1 n=61 v=90
26508 On ch=1 n=61 v=0
26520 On ch=1 n=71 v=90
26628 On ch=1 n=71 v=0
26640 On ch=1 n=69 v=90
26748 On ch=1 n=69 v=0
26760 On ch=1 n=67 v=90
26868 On ch=1 n=67 v=0
26880 On ch=1 n=66 v=90
26988 On ch=1 n=66 v=0
27000 On ch=1 n=62 v=90
27108 On ch=1 n=62 v=0
27120 On ch=1 n=64 v=90
27228 On ch=1 n=64 v=0
27240 On ch=1 n=66 v=90
27348 On ch=1 n=66 v=0
27360 On ch=1 n=57 v=90
27468 On ch=1 n=57 v=0
27480 On ch=1 n=60 v=90
27588 On ch=1 n=60 v=0
27600 On ch=1 n=59 v=90
27708 On ch=1 n=59 v=0
27720 On ch=1 n=57 v=90
27828 On ch=1 n=57 v=0
27840 On ch=1 n=59 v=90
27948 On ch=1 n=59 v=0
27960 On ch=1 n=62 v=90
28068 On ch=1 n=62 v=0
28080 On ch=1 n=64 v=90
28188 On ch=1 n=64 v=0
28200 On ch=1 n=66 v=90
28308 On ch=1 n=66 v=0
28320 On ch=1 n=59 v=90
28428 On ch=1 n=59 v=0
28440 On ch=1 n=69 v=90
28548 On ch=1 n=69 v=0
28560 On ch=1 n=68 v=90
28668 On ch=1 n=68 v=0
28680 On ch=1 n=66 v=90
28788 On ch=1 n=66 v=0
28800 On ch=1 n=68 v=90
28908 On ch=1 n=68 v=0
28920 On ch=1 n=64 v=90
29028 On ch=1 n=64 v=0
29040 On ch=1 n=66 v=90
29148 On ch=1 n=66 v=0
29160 On ch=1 n=68 v=90
29268 On ch=1 n=68 v=0
29280 On ch=1 n=59 v=90
29388 On ch=1 n=59 v=0
29400 On ch=1 n=62 v=90
29508 On ch=1 n=62 v=0
29520 On ch=1 n=60 v=90
29628 On ch=1 n=60 v=0
29640 On ch=1 n=59 v=90
29748 On ch=1 n=59 v=0
29760 On ch=1 n=57 v=90
29868 On ch=1 n=57 v=0
29880 On ch=1 n=60 v=90
29988 On ch=1 n=60 v=0
30000 On ch=1 n=62 v=90
30108 On ch=1 n=62 v=0
30120 On ch=1 n=64 v=90
30228 On ch=1 n=64 v=0
30240 On ch=1 n=57 v=90
30348 On ch=1 n=57 v=0
30360 On ch=1 n=67 v=90
30468 On ch=1 n=67 v=0
30480 On ch=1 n=66 v=90
30588 On ch=1 n=66 v=0
30600 On ch=1 n=64 v=90
30708 On ch=1 n=64 v=0
30720 On ch=1 n=63 v=90
30828 On ch=1 n=63 v=0
30840 On ch=1 n=57 v=90
30948 On ch=1 n=57 v=0
30960 On ch=1 n=59 v=90
31068 On ch=1 n=59 v=0
31080 On ch=1 n=60 v=90
31188 On ch=1 n=60 v=0
31200 On ch=1 n=54 v=90
31308 On ch=1 n=54 v=0
31320 On ch=1 n=60 v=90
31428 On ch=1 n=60 v=0
31440 On ch=1 n=59 v=90
31548 On ch=1 n=59 v=0
31560 On ch=1 n=57 v=90
31668 On ch=1 n=57 v=0
31680 On ch=1 n=55 v=90
31788 On ch=1 n=55 v=0
31800 On ch=1 n=64 v=90
31908 On ch=1 n=64 v=0
31920 On ch=1 n=66 v=90
32028 On ch=1 n=66 v=0
32040 On ch=1 n=67 v=90
32148 On ch=1 n=67 v=0
32160 On ch=1 n=59 v=90
32268 On ch=1 n=59 v=0
32280 On ch=1 n=62 v=90
32388 On ch=1 n=62 v=0
32400 On ch=1 n=61 v=90
32508 On ch=1 n=61 v=0
32520 On ch=1 n=59 v=90
32628 On ch=1 n=59 v=0
32640 On ch=1 n=58 v=90
32748 On ch=1 n=58 v=0
32760 On ch=1 n=61 v=90
32868 On ch=1 n=61 v=0
32880 On ch=1 n=62 v=90
32988 On ch=1 n=62 v=0
33000 On ch=1 n=64 v=90
33108 On ch=1 n=64 v=0
33120 On ch=1 n=58 v=90
33228 On ch=1 n=58 v=0
33240 On ch=1 n=67 v=90
33348 On ch=1 n=67 v=0
33360 On ch=1 n=66 v=90
33468 On ch=1 n=66 v=0
33480 On ch=1 n=64 v=90
33588 On ch=1 n=64 v=0
33600 On ch=1 n=73 v=90
33708 On ch=1 n=73 v=0
33720 On ch=1 n=70 v=90
33828 On ch=1 n=70 v=0
33840 On ch=1 n=71 v=90
33948 On ch=1 n=71 v=0
33960 On ch=1 n=73 v=90
34068 On ch=1 n=73 v=0
34080 On ch=1 n=66 v=90
34188 On ch=1 n=66 v=0
34200 On ch=1 n=76 v=90
34308 On ch=1 n=76 v=0
34320 On ch=1 n=74 v=90
34428 On ch=1 n=74 v=0
34440 On ch=1 n=73 v=90
34548 On ch=1 n=73 v=0
34560 On ch=1 n=74 v=90
34668 On ch=1 n=74 v=0
34680 On ch=1 n=71 v=90
34788 On ch=1 n=71 v=0
34800 On ch=1 n=73 v=90
34908 On ch=1 n=73 v=0
34920 On ch=1 n=74 v=90
35028 On ch=1 n=74 v=0
35040 On ch=1 n=66 v=90
35148 On ch=1 n=66 v=0
35160 On ch=1 n=69 v=90
35268 On ch=1 n=69 v=0
35280 On ch=1 n=68 v=90
35388 On ch=1 n=68 v=0
35400 On ch=1 n=66 v=90
35508 On ch=1 n=66 v=0
35520 On ch=1 n=68 v=90
35628 On ch=1 n=68 v=0
35640 On ch=1 n=71 v=90
35748 On ch=1 n=71 v=0
35760 On ch=1 n=72 v=90
35868 On ch=1 n=72 v=0
35880 On ch=1 n=74 v=90
35988 On ch=1 n=74 v=0
36000 On ch=1 n=64 v=90
36108 On ch=1 n=64 v=0
36120 On ch=1 n=74 v=90
36228 On ch=1 n=74 v=0
36240 On ch=1 n=72 v=90
36348 On ch=1 n=72 v=0
36360 On ch=1 n=71 v=90
36468 On ch=1 n=71 v=0
36480 On ch=1 n=72 v=90
36588 On ch=1 n=72 v=0
36600 On ch=1 n=69 v=90
36708 On ch=1 n=69 v=0
36720 On ch=1 n=71 v=90
36828 On ch=1 n=71 v=0
36840 On ch=1 n=72 v=90
36948 On ch=1 n=72 v=0
36960 On ch=1 n=64 v=90
37068 On ch=1 n=64 v=0
37080 On ch=1 n=67 v=90
37188 On ch=1 n=67 v=0
37200 On ch=1 n=66 v=90
37308 On ch=1 n=66 v=0
37320 On ch=1 n=64 v=90
37428 On ch=1 n=64 v=0
37440 On ch=1 n=66 v=90
37548 On ch=1 n=66 v=0
37560 On ch=1 n=69 v=90
37668 On ch=1 n=69 v=0
37680 On ch=1 n=71 v=90
37788 On ch=1 n=71 v=0
37800 On ch=1 n=72 v=90
37908 On ch=1 n=72 v=0
37920 On ch=1 n=62 v=90
38028 On ch=1 n=62 v=0
38040 On ch=1 n=72 v=90
38148 On ch=1 n=72 v=0
38160 On ch=1 n=71 v=90
38268 On ch=1 n=71 v=0
38280 On ch=1 n=69 v=90
38388 On ch=1 n=69 v=0
38400 On ch=1 n=71 v=90
38508 On ch=1 n=71 v=0
38520 On ch=1 n=67 v=90
38628 On ch=1 n=67 v=0
38640 On ch=1 n=69 v=90
38748 On ch=1 n=69 v=0
38760 On ch=1 n=71 v=90
38868 On ch=1 n=71 v=0
38880 On ch=1 n=62 v=90
38988 On ch=1 n=62 v=0
39000 On ch=1 n=71 v=90
39108 On ch=1 n=71 v=0
39120 On ch=1 n=69 v=90
39228 On ch=1 n=69 v=0
39240 On ch=1 n=67 v=90
39348 On ch=1 n=67 v=0
39360 On ch=1 n=74 v=90
39468 On ch=1 n=74 v=0
39480 On ch=1 n=67 v=90
39588 On ch=1 n=67 v=0
39600 On ch=1 n=69 v=90
39708 On ch=1 n=69 v=0
39720 On ch=1 n=71 v=90
39828 On ch=1 n=71 v=0
39840 On ch=1 n=62 v=90
39948 On ch=1 n=62 v=0
39960 On ch=1 n=71 v=90
40068 On ch=1 n=71 v=0
40080 On ch=1 n=69 v=90
40188 On ch=1 n=69 v=0
40200 On ch=1 n=67 v=90
40308 On ch=1 n=67 v=0
40320 On ch=1 n=72 v=90
40428 On ch=1 n=72 v=0
40440 On ch=1 n=69 v=90
40548 On ch=1 n=69 v=0
40560 On ch=1 n=71 v=90
40668 On ch=1 n=71 v=0
40680 On ch=1 n=72 v=90
40788 On ch=1 n=72 v=0
40800 On ch=1 n=64 v=90
40908 On ch=1 n=64 v=0
40920 On ch=1 n=67 v=90
41028 On ch=1 n=67 v=0
41040 On ch=1 n=66 v=90
41148 On ch=1 n=66 v=0
41160 On ch=1 n=64 v=90
41268 On ch=1 n=64 v=0
41280 On ch=1 n=66 v=90
41388 On ch=1 n=66 v=0
41400 On ch=1 n=69 v=90
41508 On ch=1 n=69 v=0
41520 On ch=1 n=71 v=90
41628 On ch=1 n=71 v=0
41640 On ch=1 n=72 v=90
41748 On ch=1 n=72 v=0
41760 On ch=1 n=62 v=90
41868 On ch=1 n=62 v=0
41880 On ch=1 n=72 v=90
41988 On ch=1 n=72 v=0
42000 On ch=1 n=71 v=90
42108 On ch=1 n=71 v=0
42120 On ch=1 n=69 v=90
42228 On ch=1 n=69 v=0
42240 On ch=1 n=71 v=90
42348 On ch=1 n=71 v=0
42360 On ch=1 n=67 v=90
42468 On ch=1 n=67 v=0
42480 On ch=1 n=69 v=90
42588 On ch=1 n=69 v=0
42600 On ch=1 n=71 v=90
42708 On ch=1 n=71 v=0
42720 On ch=1 n=62 v=90
42828 On ch=1 n=62 v=0
42840 On ch=1 n=66 v=90
42948 On ch=1 n=66 v=0
42960 On ch=1 n=64 v=90
43068 On ch=1 n=64 v=0
43080 On ch=1 n=62 v=90
43188 On ch=1 n=62 v=0
43200 On ch=1 n=64 v=90
43308 On ch=1 n=64 v=0
43320 On ch=1 n=67 v=90
43428 On ch=1 n=67 v=0
43440 On ch=1 n=69 v=90
43548 On ch=1 n=69 v=0
43560 On ch=1 n=71 v=90
43668 On ch=1 n=71 v=0
43680 On ch=1 n=64 v=90
43788 On ch=1 n=64 v=0
43800 On ch=1 n=72 v=90
43908 On ch=1 n=72 v=0
43920 On ch=1 n=71 v=90
44028 On ch=1 n=71 v=0
44040 On ch=1 n=69 v=90
44148 On ch=1 n=69 v=0
44160 On ch=1 n=73 v=90
44268 On ch=1 n=73 v=0
44280 On ch=1 n=69 v=90
44388 On ch=1 n=69 v=0
44400 On ch=1 n=71 v=90
44508 On ch=1 n=71 v=0
44520 On ch=1 n=73 v=90
44628 On ch=1 n=73 v=0
44640 On ch=1 n=64 v=90
44748 On ch=1 n=64 v=0
44760 On ch=1 n=67 v=90
44868 On ch=1 n=67 v=0
44880 On ch=1 n=66 v=90
44988 On ch=1 n=66 v=0
45000 On ch=1 n=64 v=90
45108 On ch=1 n=64 v=0
45120 On ch=1 n=62 v=90
45228 On ch=1 n=62 v=0
45240 On ch=1 n=66 v=90
45348 On ch=1 n=66 v=0
45360 On ch=1 n=67 v=90
45468 On ch=1 n=67 v=0
45480 On ch=1 n=69 v=90
45588 On ch=1 n=69 v=0
45600 On ch=1 n=59 v=90
45708 On ch=1 n=59 v=0
45720 On ch=1 n=69 v=90
45828 On ch=1 n=69 v=0
45840 On ch=1 n=67 v=90
45948 On ch=1 n=67 v=0
45960 On ch=1 n=66 v=90
46068 On ch=1 n=66 v=0
46080 On ch=1 n=67 v=90
46188 On ch=1 n=67 v=0
46200 On ch=1 n=64 v=90
46308 On ch=1 n=64 v=0
46320 On ch=1 n=66 v=90
46428 On ch=1 n=66 v=0
46440 On ch=1 n=67 v=90
46548 On ch=1 n=67 v=0
46560 On ch=1 n=59 v=90
46668 On ch=1 n=59 v=0
46680 On ch=1 n=62 v=90
46788 On ch=1 n=62 v=0
46800 On ch=1 n=61 v=90
46908 On ch=1 n=61 v=0
46920 On ch=1 n=59 v=90
47028 On ch=1 n=59 v=0
47040 On ch=1 n=61 v=90
47148 On ch=1 n=61 v=0
47160 On ch=1 n=64 v=90
47268 On ch=1 n=64 v=0
47280 On ch=1 n=66 v=90
47388 On ch=1 n=66 v=0
47400 On ch=1 n=67 v=90
47508 On ch=1 n=67 v=0
47520 On ch=1 n=57 v=90
47628 On ch=1 n=57 v=0
47640 On ch=1 n=67 v=90
47748 On ch=1 n=67 v=0
47760 On ch=1 n=66 v=90
47868 On ch=1 n=66 v=0
47880 On ch=1 n=64 v=90
47988 On ch=1 n=64 v=0
48000 On ch=1 n=66 v=90
48108 On ch=1 n=66 v=0
48120 On ch=1 n=62 v=90
48228 On ch=1 n=62 v=0
48240 On ch=1 n=64 v=90
48348 On ch=1 n=64 v=0
48360 On ch=1 n=66 v=90
48468 On ch=1 n=66 v=0
48480 On ch=1 n=57 v=90
48588 On ch=1 n=57 v=0
48600 On ch=1 n=66 v=90
48708 On ch=1 n=66 v=0
48720 On ch=1 n=64 v=90
48828 On ch=1 n=64 v=0
48840 On ch=1 n=62 v=90
48948 On ch=1 n=62 v=0
48960 On ch=1 n=69 v=90
49068 On ch=1 n=69 v=0
49080 On ch=1 n=66 v=90
49188 On ch=1 n=66 v=0
49200 On ch=1 n=67 v=90
49308 On ch=1 n=67 v=0
49320 On ch=1 n=69 v=90
49428 On ch=1 n=69 v=0
49440 On ch=1 n=62 v=90
49548 On ch=1 n=62 v=0
49560 On ch=1 n=72 v=90
49668 On ch=1 n=72 v=0
49680 On ch=1 n=71 v=90
49788 On ch=1 n=71 v=0
49800 On ch=1 n=69 v=90
49908 On ch=1 n=69 v=0
49920 On ch=1 n=71 v=90
50028 On ch=1 n=71 v=0
50040 On ch=1 n=67 v=90
50148 On ch=1 n=67 v=0
50160 On ch=1 n=69 v=90
50268 On ch=1 n=69 v=0
50280 On ch=1 n=71 v=90
50388 On ch=1 n=71 v=0
50400 On ch=1 n=62 v=90
50508 On ch=1 n=62 v=0
50520 On ch=1 n=71 v=90
50628 On ch=1 n=71 v=0
50640 On ch=1 n=69 v=90
50748 On ch=1 n=69 v=0
50760 On ch=1 n=67 v=90
50868 On ch=1 n=67 v=0
50880 On ch=1 n=74 v=90
50988 On ch=1 n=74 v=0
51000 On ch=1 n=71 v=90
51108 On ch=1 n=71 v=0
51120 On ch=1 n=73 v=90
51228 On ch=1 n=73 v=0
51240 On ch=1 n=74 v=90
51348 On ch=1 n=74 v=0
51360 On ch=1 n=68 v=90
51468 On ch=1 n=68 v=0
51480 On ch=1 n=77 v=90
51588 On ch=1 n=77 v=0
51600 On ch=1 n=76 v=90
51708 On ch=1 n=76 v=0
51720 On ch=1 n=74 v=90
51828 On ch=1 n=74 v=0
51840 On ch=1 n=73 v=90
51840 On ch=1 n=45 v=90
51948 On ch=1 n=73 v=0
51960 On ch=1 n=69 v=90
52068 On ch=1 n=69 v=0
52080 On ch=1 n=71 v=90
52188 On ch=1 n=71 v=0
52200 On ch=1 n=73 v=90
52308 On ch=1 n=73 v=0
52320 On ch=1 n=64 v=90
52428 On ch=1 n=64 v=0
52440 On ch=1 n=67 v=90
52548 On ch=1 n=67 v=0
52560 On ch=1 n=66 v=90
52668 On ch=1 n=66 v=0
52680 On ch=1 n=64 v=90
52788 On ch=1 n=64 v=0
52800 On ch=1 n=69 v=90
52908 On ch=1 n=69 v=0
52920 On ch=1 n=74 v=90
53028 On ch=1 n=74 v=0
53040 On ch=1 n=76 v=90
53148 On ch=1 n=76 v=0
53160 On ch=1 n=78 v=90
53268 On ch=1 n=78 v=0
53280 On ch=1 n=71 v=90
53388 On ch=1 n=71 v=0
53400 On ch=1 n=81 v=90
53508 On ch=1 n=81 v=0
53520 On ch=1 n=79 v=90
53628 On ch=1 n=79 v=0
53640 On ch=1 n=78 v=90
53740 On ch=1 n=45 v=0
53748 On ch=1 n=78 v=0
TrkEnd
