MFile 1 4 480
MTrk
0 Meta SeqName "\xffffff95\xffffffbd\xffffff8b\xffffffcf\xffffff97\xffffffa5\xffffff83N\xffffff83\xffffff89\xffffff83\xffffff94\xffffff83B\xffffff81[\xffffff83A\xffffff8fW\xffffff91\xffffffe61\xffffff8fW\xffffff91\xffffffe66\xffffff94\xffffffd4\xffffff82\xffffffcc\xffffff83v\xffffff83\xffffff8c\xffffff83\xffffff8a\xffffff83\xffffff85\xffffff81[\xffffff83h"
0 Meta Copyright "(C) 2000 Mappy"
0 Meta Text "Made with OTAMA (C) 1997-2000 MISO"
0 Tempo 750000
0 KeySig -1 major
0 TimeSig 4/4 24 8
127 Meta TrkEnd
TrkEnd
MTrk
0 SysEx f0 7e 7f 09 01 f7
480 Par ch=1 c=121 v=0
500 Meta Text "# Pitch Bend Sensitivity (0-2-24) #"
500 Par ch=1 c=101 v=0
505 Par ch=1 c=100 v=0
510 Par ch=1 c=6 v=2
515 Pb ch=1 v=8192
520 Par ch=1 c=0 v=0
525 Par ch=1 c=32 v=0
530 PrCh ch=1 p=0
535 Par ch=1 c=7 v=100
540 Par ch=1 c=11 v=127
545 Par ch=1 c=10 v=64
550 Par ch=1 c=91 v=60
555 Par ch=1 c=93 v=0
560 Par ch=1 c=1 v=0
2240 On ch=1 n=69 v=90
2312 On ch=1 n=69 v=0
2320 On ch=1 n=65 v=90
2392 On ch=1 n=65 v=0
2400 On ch=1 n=62 v=90
2472 On ch=1 n=62 v=0
2480 On ch=1 n=69 v=90
2552 On ch=1 n=69 v=0
2560 On ch=1 n=65 v=90
2632 On ch=1 n=65 v=0
2640 On ch=1 n=62 v=90
2712 On ch=1 n=62 v=0
2720 On ch=1 n=74 v=90
2792 On ch=1 n=74 v=0
2800 On ch=1 n=70 v=90
2872 On ch=1 n=70 v=0
2880 On ch=1 n=67 v=90
2952 On ch=1 n=67 v=0
2960 On ch=1 n=70 v=90
3032 On ch=1 n=70 v=0
3040 On ch=1 n=67 v=90
3112 On ch=1 n=67 v=0
3120 On ch=1 n=64 v=90
3192 On ch=1 n=64 v=0
3200 On ch=1 n=67 v=90
3272 On ch=1 n=67 v=0
3280 On ch=1 n=64 v=90
3352 On ch=1 n=64 v=0
3360 On ch=1 n=61 v=90
3432 On ch=1 n=61 v=0
3520 On ch=1 n=67 v=90
3592 On ch=1 n=67 v=0
3600 On ch=1 n=64 v=90
3672 On ch=1 n=64 v=0
3680 On ch=1 n=61 v=90
3752 On ch=1 n=61 v=0
3760 On ch=1 n=69 v=90
3832 On ch=1 n=69 v=0
3840 On ch=1 n=65 v=90
3912 On ch=1 n=65 v=0
3920 On ch=1 n=62 v=90
3992 On ch=1 n=62 v=0
4000 On ch=1 n=69 v=90
4072 On ch=1 n=69 v=0
4080 On ch=1 n=65 v=90
4152 On ch=1 n=65 v=0
4160 On ch=1 n=62 v=90
4232 On ch=1 n=62 v=0
4240 On ch=1 n=81 v=90
4312 On ch=1 n=81 v=0
4320 On ch=1 n=77 v=90
4392 On ch=1 n=77 v=0
4400 On ch=1 n=74 v=90
4472 On ch=1 n=74 v=0
4480 On ch=1 n=77 v=90
4552 On ch=1 n=77 v=0
4560 On ch=1 n=74 v=90
4632 On ch=1 n=74 v=0
4640 On ch=1 n=69 v=90
4712 On ch=1 n=69 v=0
4720 On ch=1 n=74 v=90
4792 On ch=1 n=74 v=0
4800 On ch=1 n=70 v=90
4872 On ch=1 n=70 v=0
4880 On ch=1 n=67 v=90
4952 On ch=1 n=67 v=0
4960 On ch=1 n=74 v=90
5032 On ch=1 n=74 v=0
5040 On ch=1 n=70 v=90
5112 On ch=1 n=70 v=0
5120 On ch=1 n=67 v=90
5192 On ch=1 n=67 v=0
5200 On ch=1 n=81 v=90
5272 On ch=1 n=81 v=0
5280 On ch=1 n=76 v=90
5352 On ch=1 n=76 v=0
5360 On ch=1 n=72 v=90
5432 On ch=1 n=72 v=0
5440 On ch=1 n=76 v=90
5512 On ch=1 n=76 v=0
5520 On ch=1 n=72 v=90
5592 On ch=1 n=72 v=0
5600 On ch=1 n=70 v=90
5672 On ch=1 n=70 v=0
5680 On ch=1 n=72 v=90
5752 On ch=1 n=72 v=0
5760 On ch=1 n=69 v=90
5832 On ch=1 n=69 v=0
5840 On ch=1 n=65 v=90
5912 On ch=1 n=65 v=0
5920 On ch=1 n=72 v=90
5992 On ch=1 n=72 v=0
6000 On ch=1 n=69 v=90
6072 On ch=1 n=69 v=0
6080 On ch=1 n=65 v=90
6152 On ch=1 n=65 v=0
6160 On ch=1 n=77 v=90
6232 On ch=1 n=77 v=0
6240 On ch=1 n=74 v=90
6312 On ch=1 n=74 v=0
6320 On ch=1 n=70 v=90
6392 On ch=1 n=70 v=0
6400 On ch=1 n=74 v=90
6472 On ch=1 n=74 v=0
6480 On ch=1 n=70 v=90
6552 On ch=1 n=70 v=0
6560 On ch=1 n=67 v=90
6632 On ch=1 n=67 v=0
6640 On ch=1 n=79 v=90
6712 On ch=1 n=79 v=0
6720 On ch=1 n=76 v=90
6792 On ch=1 n=76 v=0
6800 On ch=1 n=72 v=90
6872 On ch=1 n=72 v=0
6880 On ch=1 n=76 v=90
6952 On ch=1 n=76 v=0
6960 On ch=1 n=72 v=90
7032 On ch=1 n=72 v=0
7040 On ch=1 n=69 v=90
7112 On ch=1 n=69 v=0
7120 On ch=1 n=81 v=90
7192 On ch=1 n=81 v=0
7200 On ch=1 n=77 v=90
7272 On ch=1 n=77 v=0
7280 On ch=1 n=74 v=90
7352 On ch=1 n=74 v=0
7360 On ch=1 n=77 v=90
7432 On ch=1 n=77 v=0
7440 On ch=1 n=74 v=90
7512 On ch=1 n=74 v=0
7520 On ch=1 n=70 v=90
7592 On ch=1 n=70 v=0
7600 On ch=1 n=82 v=90
7672 On ch=1 n=82 v=0
7680 On ch=1 n=79 v=90
7752 On ch=1 n=79 v=0
7760 On ch=1 n=76 v=90
7832 On ch=1 n=76 v=0
7840 On ch=1 n=79 v=90
7912 On ch=1 n=79 v=0
7920 On ch=1 n=76 v=90
7992 On ch=1 n=76 v=0
8000 On ch=1 n=72 v=90
8072 On ch=1 n=72 v=0
8080 On ch=1 n=84 v=90
8152 On ch=1 n=84 v=0
8160 On ch=1 n=81 v=90
8232 On ch=1 n=81 v=0
8240 On ch=1 n=77 v=90
8312 On ch=1 n=77 v=0
8320 On ch=1 n=81 v=90
8392 On ch=1 n=81 v=0
8400 On ch=1 n=77 v=90
8472 On ch=1 n=77 v=0
8480 On ch=1 n=72 v=90
8552 On ch=1 n=72 v=0
8560 On ch=1 n=81 v=90
8632 On ch=1 n=81 v=0
8640 On ch=1 n=77 v=90
8712 On ch=1 n=77 v=0
8720 On ch=1 n=74 v=90
8792 On ch=1 n=74 v=0
8800 On ch=1 n=77 v=90
8872 On ch=1 n=77 v=0
8880 On ch=1 n=74 v=90
8952 On ch=1 n=74 v=0
8960 On ch=1 n=70 v=90
9032 On ch=1 n=70 v=0
9040 On ch=1 n=77 v=90
9112 On ch=1 n=77 v=0
9120 On ch=1 n=74 v=90
9192 On ch=1 n=74 v=0
9200 On ch=1 n=70 v=90
9272 On ch=1 n=70 v=0
9280 On ch=1 n=74 v=90
9352 On ch=1 n=74 v=0
9360 On ch=1 n=70 v=90
9432 On ch=1 n=70 v=0
9440 On ch=1 n=65 v=90
9512 On ch=1 n=65 v=0
9520 On ch=1 n=74 v=90
9592 On ch=1 n=74 v=0
9600 On ch=1 n=70 v=90
9672 On ch=1 n=70 v=0
9680 On ch=1 n=67 v=90
9752 On ch=1 n=67 v=0
9760 On ch=1 n=70 v=90
9832 On ch=1 n=70 v=0
9840 On ch=1 n=67 v=90
9912 On ch=1 n=67 v=0
9920 On ch=1 n=64 v=90
9992 On ch=1 n=64 v=0
10000 On ch=1 n=70 v=90
10072 On ch=1 n=70 v=0
10080 On ch=1 n=67 v=90
10152 On ch=1 n=67 v=0
10160 On ch=1 n=60 v=90
10232 On ch=1 n=60 v=0
10240 On ch=1 n=70 v=90
10312 On ch=1 n=70 v=0
10320 On ch=1 n=67 v=90
10392 On ch=1 n=67 v=0
10400 On ch=1 n=64 v=90
10472 On ch=1 n=64 v=0
10480 On ch=1 n=70 v=90
10552 On ch=1 n=70 v=0
10560 On ch=1 n=69 v=90
10632 On ch=1 n=69 v=0
10640 On ch=1 n=65 v=90
10712 On ch=1 n=65 v=0
10720 On ch=1 n=69 v=90
10792 On ch=1 n=69 v=0
10800 On ch=1 n=65 v=90
10872 On ch=1 n=65 v=0
10880 On ch=1 n=60 v=90
10952 On ch=1 n=60 v=0
10960 On ch=1 n=65 v=90
11032 On ch=1 n=65 v=0
11040 On ch=1 n=62 v=90
11112 On ch=1 n=62 v=0
11120 On ch=1 n=58 v=90
11192 On ch=1 n=58 v=0
11200 On ch=1 n=65 v=90
11272 On ch=1 n=65 v=0
11280 On ch=1 n=60 v=90
11352 On ch=1 n=60 v=0
11360 On ch=1 n=58 v=90
11432 On ch=1 n=58 v=0
11440 On ch=1 n=64 v=90
11512 On ch=1 n=64 v=0
11520 On ch=1 n=60 v=90
11592 On ch=1 n=60 v=0
11600 On ch=1 n=57 v=90
11672 On ch=1 n=57 v=0
11680 On ch=1 n=65 v=90
11752 On ch=1 n=65 v=0
11760 On ch=1 n=60 v=90
11832 On ch=1 n=60 v=0
11840 On ch=1 n=57 v=90
11912 On ch=1 n=57 v=0
11920 On ch=1 n=60 v=90
11992 On ch=1 n=60 v=0
12000 On ch=1 n=57 v=90
12072 On ch=1 n=57 v=0
12080 On ch=1 n=53 v=90
12152 On ch=1 n=53 v=0
12160 On ch=1 n=60 v=90
12232 On ch=1 n=60 v=0
12240 On ch=1 n=57 v=90
12312 On ch=1 n=57 v=0
12320 On ch=1 n=53 v=90
12392 On ch=1 n=53 v=0
12400 On ch=1 n=60 v=90
12472 On ch=1 n=60 v=0
12480 On ch=1 n=57 v=90
12552 On ch=1 n=57 v=0
12560 On ch=1 n=54 v=90
12632 On ch=1 n=54 v=0
12640 On ch=1 n=60 v=90
12712 On ch=1 n=60 v=0
12720 On ch=1 n=57 v=90
12792 On ch=1 n=57 v=0
12800 On ch=1 n=53 v=90
12872 On ch=1 n=53 v=0
12880 On ch=1 n=63 v=90
12952 On ch=1 n=63 v=0
12960 On ch=1 n=57 v=90
13032 On ch=1 n=57 v=0
13040 On ch=1 n=53 v=90
13112 On ch=1 n=53 v=0
13120 On ch=1 n=62 v=90
13192 On ch=1 n=62 v=0
13200 On ch=1 n=57 v=90
13272 On ch=1 n=57 v=0
13280 On ch=1 n=53 v=90
13352 On ch=1 n=53 v=0
13360 On ch=1 n=60 v=90
13432 On ch=1 n=60 v=0
13440 On ch=1 n=58 v=90
13512 On ch=1 n=58 v=0
13520 On ch=1 n=55 v=90
13592 On ch=1 n=55 v=0
13600 On ch=1 n=62 v=90
13672 On ch=1 n=62 v=0
13680 On ch=1 n=58 v=90
13752 On ch=1 n=58 v=0
13760 On ch=1 n=55 v=90
13832 On ch=1 n=55 v=0
13840 On ch=1 n=62 v=90
13912 On ch=1 n=62 v=0
13920 On ch=1 n=58 v=90
13992 On ch=1 n=58 v=0
14000 On ch=1 n=55 v=90
14072 On ch=1 n=55 v=0
14080 On ch=1 n=64 v=90
14152 On ch=1 n=64 v=0
14160 On ch=1 n=58 v=90
14232 On ch=1 n=58 v=0
14240 On ch=1 n=55 v=90
14312 On ch=1 n=55 v=0
14320 On ch=1 n=66 v=90
14392 On ch=1 n=66 v=0
14400 On ch=1 n=60 v=90
14472 On ch=1 n=60 v=0
14480 On ch=1 n=55 v=90
14552 On ch=1 n=55 v=0
14560 On ch=1 n=67 v=90
14632 On ch=1 n=67 v=0
14640 On ch=1 n=62 v=90
14712 On ch=1 n=62 v=0
14720 On ch=1 n=58 v=90
14792 On ch=1 n=58 v=0
14800 On ch=1 n=67 v=90
14872 On ch=1 n=67 v=0
14880 On ch=1 n=63 v=90
14952 On ch=1 n=63 v=0
14960 On ch=1 n=57 v=90
15032 On ch=1 n=57 v=0
15040 On ch=1 n=67 v=90
15112 On ch=1 n=67 v=0
15120 On ch=1 n=62 v=90
15192 On ch=1 n=62 v=0
15200 On ch=1 n=57 v=90
15272 On ch=1 n=57 v=0
15280 On ch=1 n=66 v=90
15352 On ch=1 n=66 v=0
15360 On ch=1 n=62 v=90
15432 On ch=1 n=62 v=0
15440 On ch=1 n=58 v=90
15512 On ch=1 n=58 v=0
15520 On ch=1 n=67 v=90
15592 On ch=1 n=67 v=0
15600 On ch=1 n=62 v=90
15672 On ch=1 n=62 v=0
15680 On ch=1 n=58 v=90
15752 On ch=1 n=58 v=0
15760 On ch=1 n=62 v=90
15832 On ch=1 n=62 v=0
15840 On ch=1 n=58 v=90
15912 On ch=1 n=58 v=0
15920 On ch=1 n=55 v=90
15992 On ch=1 n=55 v=0
16000 On ch=1 n=62 v=90
16072 On ch=1 n=62 v=0
16080 On ch=1 n=58 v=90
16152 On ch=1 n=58 v=0
16160 On ch=1 n=55 v=90
16232 On ch=1 n=55 v=0
16240 On ch=1 n=62 v=90
16312 On ch=1 n=62 v=0
16320 On ch=1 n=59 v=90
16392 On ch=1 n=59 v=0
16400 On ch=1 n=56 v=90
16472 On ch=1 n=56 v=0
16480 On ch=1 n=62 v=90
16552 On ch=1 n=62 v=0
16560 On ch=1 n=59 v=90
16632 On ch=1 n=59 v=0
16640 On ch=1 n=56 v=90
16712 On ch=1 n=56 v=0
16720 On ch=1 n=65 v=90
16792 On ch=1 n=65 v=0
16800 On ch=1 n=59 v=90
16872 On ch=1 n=59 v=0
16880 On ch=1 n=56 v=90
16952 On ch=1 n=56 v=0
16960 On ch=1 n=64 v=90
17032 On ch=1 n=64 v=0
17040 On ch=1 n=59 v=90
17112 On ch=1 n=59 v=0
17120 On ch=1 n=56 v=90
17192 On ch=1 n=56 v=0
17200 On ch=1 n=62 v=90
17272 On ch=1 n=62 v=0
17280 On ch=1 n=60 v=90
17352 On ch=1 n=60 v=0
17360 On ch=1 n=57 v=90
17432 On ch=1 n=57 v=0
17440 On ch=1 n=64 v=90
17512 On ch=1 n=64 v=0
17520 On ch=1 n=60 v=90
17592 On ch=1 n=60 v=0
17600 On ch=1 n=57 v=90
17672 On ch=1 n=57 v=0
17680 On ch=1 n=64 v=90
17752 On ch=1 n=64 v=0
17760 On ch=1 n=60 v=90
17832 On ch=1 n=60 v=0
17840 On ch=1 n=57 v=90
17912 On ch=1 n=57 v=0
17920 On ch=1 n=66 v=90
17992 On ch=1 n=66 v=0
18000 On ch=1 n=60 v=90
18072 On ch=1 n=60 v=0
18080 On ch=1 n=57 v=90
18152 On ch=1 n=57 v=0
18160 On ch=1 n=68 v=90
18232 On ch=1 n=68 v=0
18240 On ch=1 n=60 v=90
18312 On ch=1 n=60 v=0
18320 On ch=1 n=57 v=90
18392 On ch=1 n=57 v=0
18400 On ch=1 n=69 v=90
18472 On ch=1 n=69 v=0
18480 On ch=1 n=64 v=90
18552 On ch=1 n=64 v=0
18560 On ch=1 n=60 v=90
18632 On ch=1 n=60 v=0
18640 On ch=1 n=69 v=90
18712 On ch=1 n=69 v=0
18720 On ch=1 n=65 v=90
18792 On ch=1 n=65 v=0
18800 On ch=1 n=59 v=90
18872 On ch=1 n=59 v=0
18880 On ch=1 n=69 v=90
18952 On ch=1 n=69 v=0
18960 On ch=1 n=64 v=90
19032 On ch=1 n=64 v=0
19040 On ch=1 n=59 v=90
19112 On ch=1 n=59 v=0
19120 On ch=1 n=68 v=90
19192 On ch=1 n=68 v=0
19200 On ch=1 n=64 v=90
19272 On ch=1 n=64 v=0
19280 On ch=1 n=60 v=90
19352 On ch=1 n=60 v=0
19360 On ch=1 n=69 v=90
19432 On ch=1 n=69 v=0
19440 On ch=1 n=64 v=90
19512 On ch=1 n=64 v=0
19520 On ch=1 n=60 v=90
19592 On ch=1 n=60 v=0
19600 On ch=1 n=72 v=90
19672 On ch=1 n=72 v=0
19680 On ch=1 n=65 v=90
19752 On ch=1 n=65 v=0
19760 On ch=1 n=62 v=90
19832 On ch=1 n=62 v=0
19840 On ch=1 n=70 v=90
19912 On ch=1 n=70 v=0
19920 On ch=1 n=67 v=90
19992 On ch=1 n=67 v=0
20000 On ch=1 n=64 v=90
20072 On ch=1 n=64 v=0
20080 On ch=1 n=70 v=90
20152 On ch=1 n=70 v=0
20160 On ch=1 n=69 v=90
20232 On ch=1 n=69 v=0
20240 On ch=1 n=65 v=90
20312 On ch=1 n=65 v=0
20320 On ch=1 n=69 v=90
20392 On ch=1 n=69 v=0
20400 On ch=1 n=60 v=90
20472 On ch=1 n=60 v=0
20480 On ch=1 n=57 v=90
20552 On ch=1 n=57 v=0
20560 On ch=1 n=69 v=90
20632 On ch=1 n=69 v=0
20640 On ch=1 n=62 v=90
20712 On ch=1 n=62 v=0
20720 On ch=1 n=59 v=90
20792 On ch=1 n=59 v=0
20800 On ch=1 n=67 v=90
20872 On ch=1 n=67 v=0
20880 On ch=1 n=64 v=90
20952 On ch=1 n=64 v=0
20960 On ch=1 n=61 v=90
21032 On ch=1 n=61 v=0
21040 On ch=1 n=67 v=90
21112 On ch=1 n=67 v=0
21120 On ch=1 n=65 v=90
21192 On ch=1 n=65 v=0
21200 On ch=1 n=62 v=90
21272 On ch=1 n=62 v=0
21280 On ch=1 n=74 v=90
21352 On ch=1 n=74 v=0
21360 On ch=1 n=69 v=90
21432 On ch=1 n=69 v=0
21440 On ch=1 n=65 v=90
21512 On ch=1 n=65 v=0
21520 On ch=1 n=77 v=90
21592 On ch=1 n=77 v=0
21600 On ch=1 n=70 v=90
21672 On ch=1 n=70 v=0
21680 On ch=1 n=67 v=90
21752 On ch=1 n=67 v=0
21760 On ch=1 n=75 v=90
21832 On ch=1 n=75 v=0
21840 On ch=1 n=72 v=90
21912 On ch=1 n=72 v=0
21920 On ch=1 n=69 v=90
21992 On ch=1 n=69 v=0
22000 On ch=1 n=75 v=90
22072 On ch=1 n=75 v=0
22080 On ch=1 n=74 v=90
22152 On ch=1 n=74 v=0
22160 On ch=1 n=70 v=90
22232 On ch=1 n=70 v=0
22240 On ch=1 n=74 v=90
22312 On ch=1 n=74 v=0
22320 On ch=1 n=65 v=90
22392 On ch=1 n=65 v=0
22400 On ch=1 n=62 v=90
22472 On ch=1 n=62 v=0
22480 On ch=1 n=74 v=90
22552 On ch=1 n=74 v=0
22560 On ch=1 n=67 v=90
22632 On ch=1 n=67 v=0
22640 On ch=1 n=64 v=90
22712 On ch=1 n=64 v=0
22720 On ch=1 n=72 v=90
22792 On ch=1 n=72 v=0
22800 On ch=1 n=69 v=90
22872 On ch=1 n=69 v=0
22880 On ch=1 n=66 v=90
22952 On ch=1 n=66 v=0
22960 On ch=1 n=74 v=90
23032 On ch=1 n=74 v=0
23040 On ch=1 n=70 v=90
23112 On ch=1 n=70 v=0
23120 On ch=1 n=67 v=90
23192 On ch=1 n=67 v=0
23200 On ch=1 n=74 v=90
23272 On ch=1 n=74 v=0
23280 On ch=1 n=70 v=90
23352 On ch=1 n=70 v=0
23360 On ch=1 n=67 v=90
23432 On ch=1 n=67 v=0
23440 On ch=1 n=79 v=90
23512 On ch=1 n=79 v=0
23520 On ch=1 n=75 v=90
23592 On ch=1 n=75 v=0
23600 On ch=1 n=67 v=90
23672 On ch=1 n=67 v=0
23680 On ch=1 n=79 v=90
23752 On ch=1 n=79 v=0
23760 On ch=1 n=74 v=90
23832 On ch=1 n=74 v=0
23840 On ch=1 n=67 v=90
23912 On ch=1 n=67 v=0
23920 On ch=1 n=79 v=90
23992 On ch=1 n=79 v=0
24000 On ch=1 n=73 v=90
24072 On ch=1 n=73 v=0
24080 On ch=1 n=69 v=90
24152 On ch=1 n=69 v=0
24160 On ch=1 n=79 v=90
24232 On ch=1 n=79 v=0
24240 On ch=1 n=76 v=90
24312 On ch=1 n=76 v=0
24320 On ch=1 n=72 v=90
24392 On ch=1 n=72 v=0
24400 On ch=1 n=82 v=90
24472 On ch=1 n=82 v=0
24480 On ch=1 n=76 v=90
24552 On ch=1 n=76 v=0
24560 On ch=1 n=72 v=90
24632 On ch=1 n=72 v=0
24640 On ch=1 n=81 v=90
24712 On ch=1 n=81 v=0
24720 On ch=1 n=76 v=90
24792 On ch=1 n=76 v=0
24800 On ch=1 n=72 v=90
24872 On ch=1 n=72 v=0
24880 On ch=1 n=79 v=90
24952 On ch=1 n=79 v=0
24960 On ch=1 n=77 v=90
25032 On ch=1 n=77 v=0
25040 On ch=1 n=74 v=90
25112 On ch=1 n=74 v=0
25120 On ch=1 n=69 v=90
25192 On ch=1 n=69 v=0
25200 On ch=1 n=65 v=90
25272 On ch=1 n=65 v=0
25280 On ch=1 n=62 v=90
25352 On ch=1 n=62 v=0
25360 On ch=1 n=69 v=90
25432 On ch=1 n=69 v=0
25440 On ch=1 n=65 v=90
25512 On ch=1 n=65 v=0
25520 On ch=1 n=62 v=90
25592 On ch=1 n=62 v=0
25600 On ch=1 n=71 v=90
25672 On ch=1 n=71 v=0
25680 On ch=1 n=65 v=90
25752 On ch=1 n=65 v=0
25760 On ch=1 n=62 v=90
25832 On ch=1 n=62 v=0
25840 On ch=1 n=73 v=90
25912 On ch=1 n=73 v=0
25920 On ch=1 n=65 v=90
25992 On ch=1 n=65 v=0
26000 On ch=1 n=62 v=90
26072 On ch=1 n=62 v=0
26080 On ch=1 n=74 v=90
26152 On ch=1 n=74 v=0
26160 On ch=1 n=65 v=90
26232 On ch=1 n=65 v=0
26240 On ch=1 n=62 v=90
26312 On ch=1 n=62 v=0
26320 On ch=1 n=69 v=90
26392 On ch=1 n=69 v=0
26400 On ch=1 n=65 v=90
26472 On ch=1 n=65 v=0
26480 On ch=1 n=62 v=90
26552 On ch=1 n=62 v=0
26560 On ch=1 n=70 v=90
26632 On ch=1 n=70 v=0
26640 On ch=1 n=64 v=90
26712 On ch=1 n=64 v=0
26720 On ch=1 n=61 v=90
26792 On ch=1 n=61 v=0
26800 On ch=1 n=69 v=90
26872 On ch=1 n=69 v=0
26880 On ch=1 n=64 v=90
26952 On ch=1 n=64 v=0
26960 On ch=1 n=61 v=90
27032 On ch=1 n=61 v=0
27040 On ch=1 n=67 v=90
27112 On ch=1 n=67 v=0
27120 On ch=1 n=62 v=90
27192 On ch=1 n=62 v=0
27200 On ch=1 n=57 v=90
27272 On ch=1 n=57 v=0
27280 On ch=1 n=65 v=90
27352 On ch=1 n=65 v=0
27360 On ch=1 n=62 v=90
27432 On ch=1 n=62 v=0
27440 On ch=1 n=58 v=90
27512 On ch=1 n=58 v=0
27520 On ch=1 n=64 v=90
27592 On ch=1 n=64 v=0
27600 On ch=1 n=60 v=90
27672 On ch=1 n=60 v=0
27680 On ch=1 n=53 v=90
27752 On ch=1 n=53 v=0
27760 On ch=1 n=63 v=90
27832 On ch=1 n=63 v=0
27840 On ch=1 n=58 v=90
27912 On ch=1 n=58 v=0
27920 On ch=1 n=53 v=90
27992 On ch=1 n=53 v=0
28000 On ch=1 n=62 v=90
28072 On ch=1 n=62 v=0
28080 On ch=1 n=57 v=90
28152 On ch=1 n=57 v=0
28160 On ch=1 n=53 v=90
28232 On ch=1 n=53 v=0
28240 On ch=1 n=62 v=90
28312 On ch=1 n=62 v=0
28320 On ch=1 n=58 v=90
28392 On ch=1 n=58 v=0
28400 On ch=1 n=52 v=90
28472 On ch=1 n=52 v=0
28480 On ch=1 n=62 v=90
28552 On ch=1 n=62 v=0
28560 On ch=1 n=57 v=90
28632 On ch=1 n=57 v=0
28640 On ch=1 n=52 v=90
28712 On ch=1 n=52 v=0
28720 On ch=1 n=61 v=90
28792 On ch=1 n=61 v=0
28800 On ch=1 n=57 v=90
28872 On ch=1 n=57 v=0
28880 On ch=1 n=53 v=90
28952 On ch=1 n=53 v=0
28960 On ch=1 n=57 v=90
29032 On ch=1 n=57 v=0
29040 On ch=1 n=60 v=90
29112 On ch=1 n=60 v=0
29120 On ch=1 n=57 v=90
29192 On ch=1 n=57 v=0
29200 On ch=1 n=60 v=90
29272 On ch=1 n=60 v=0
29280 On ch=1 n=63 v=90
29352 On ch=1 n=63 v=0
29360 On ch=1 n=60 v=90
29432 On ch=1 n=60 v=0
29440 On ch=1 n=63 v=90
29512 On ch=1 n=63 v=0
29520 On ch=1 n=66 v=90
29736 On ch=1 n=66 v=0
29760 On ch=1 n=58 v=90
29832 On ch=1 n=58 v=0
29840 On ch=1 n=55 v=90
29912 On ch=1 n=55 v=0
29920 On ch=1 n=58 v=90
29992 On ch=1 n=58 v=0
30000 On ch=1 n=62 v=90
30072 On ch=1 n=62 v=0
30080 On ch=1 n=58 v=90
30152 On ch=1 n=58 v=0
30160 On ch=1 n=62 v=90
30232 On ch=1 n=62 v=0
30240 On ch=1 n=67 v=90
30312 On ch=1 n=67 v=0
30320 On ch=1 n=62 v=90
30392 On ch=1 n=62 v=0
30400 On ch=1 n=67 v=90
30472 On ch=1 n=67 v=0
30480 On ch=1 n=70 v=90
30717 On ch=1 n=70 v=0
30720 On ch=1 n=70 v=90
30792 On ch=1 n=70 v=0
30800 On ch=1 n=67 v=90
30872 On ch=1 n=67 v=0
30880 On ch=1 n=76 v=90
30952 On ch=1 n=76 v=0
30960 On ch=1 n=70 v=90
31032 On ch=1 n=70 v=0
31040 On ch=1 n=67 v=90
31112 On ch=1 n=67 v=0
31120 On ch=1 n=79 v=90
31192 On ch=1 n=79 v=0
31200 On ch=1 n=70 v=90
31272 On ch=1 n=70 v=0
31280 On ch=1 n=67 v=90
31352 On ch=1 n=67 v=0
31360 On ch=1 n=76 v=90
31432 On ch=1 n=76 v=0
31440 On ch=1 n=70 v=90
31512 On ch=1 n=70 v=0
31520 On ch=1 n=67 v=90
31592 On ch=1 n=67 v=0
31600 On ch=1 n=73 v=90
31672 On ch=1 n=73 v=0
31680 On ch=1 n=70 v=90
31752 On ch=1 n=70 v=0
31760 On ch=1 n=67 v=90
31832 On ch=1 n=67 v=0
31840 On ch=1 n=76 v=90
31912 On ch=1 n=76 v=0
31920 On ch=1 n=70 v=90
31992 On ch=1 n=70 v=0
32000 On ch=1 n=67 v=90
32072 On ch=1 n=67 v=0
32080 On ch=1 n=79 v=90
32152 On ch=1 n=79 v=0
32160 On ch=1 n=70 v=90
32232 On ch=1 n=70 v=0
32240 On ch=1 n=67 v=90
32312 On ch=1 n=67 v=0
32320 On ch=1 n=76 v=90
32392 On ch=1 n=76 v=0
32400 On ch=1 n=70 v=90
32472 On ch=1 n=70 v=0
32480 On ch=1 n=67 v=90
32552 On ch=1 n=67 v=0
32560 On ch=1 n=73 v=90
32632 On ch=1 n=73 v=0
32640 On ch=1 n=69 v=90
32712 On ch=1 n=69 v=0
32720 On ch=1 n=66 v=90
32792 On ch=1 n=66 v=0
32800 On ch=1 n=74 v=90
32872 On ch=1 n=74 v=0
32880 On ch=1 n=69 v=90
32952 On ch=1 n=69 v=0
32960 On ch=1 n=66 v=90
33032 On ch=1 n=66 v=0
33040 On ch=1 n=75 v=90
33112 On ch=1 n=75 v=0
33120 On ch=1 n=69 v=90
33192 On ch=1 n=69 v=0
33200 On ch=1 n=66 v=90
33272 On ch=1 n=66 v=0
33280 On ch=1 n=74 v=90
33352 On ch=1 n=74 v=0
33360 On ch=1 n=69 v=90
33432 On ch=1 n=69 v=0
33440 On ch=1 n=66 v=90
33512 On ch=1 n=66 v=0
33520 On ch=1 n=72 v=90
33592 On ch=1 n=72 v=0
33600 On ch=1 n=69 v=90
33672 On ch=1 n=69 v=0
33680 On ch=1 n=66 v=90
33752 On ch=1 n=66 v=0
33760 On ch=1 n=74 v=90
33832 On ch=1 n=74 v=0
33840 On ch=1 n=69 v=90
33912 On ch=1 n=69 v=0
33920 On ch=1 n=66 v=90
33992 On ch=1 n=66 v=0
34000 On ch=1 n=75 v=90
34072 On ch=1 n=75 v=0
34080 On ch=1 n=69 v=90
34152 On ch=1 n=69 v=0
34160 On ch=1 n=66 v=90
34232 On ch=1 n=66 v=0
34240 On ch=1 n=74 v=90
34312 On ch=1 n=74 v=0
34320 On ch=1 n=69 v=90
34392 On ch=1 n=69 v=0
34400 On ch=1 n=66 v=90
34472 On ch=1 n=66 v=0
34480 On ch=1 n=72 v=90
34552 On ch=1 n=72 v=0
34560 On ch=1 n=67 v=90
34632 On ch=1 n=67 v=0
34640 On ch=1 n=62 v=90
34712 On ch=1 n=62 v=0
34720 On ch=1 n=67 v=90
34792 On ch=1 n=67 v=0
34800 On ch=1 n=70 v=90
34872 On ch=1 n=70 v=0
34880 On ch=1 n=67 v=90
34952 On ch=1 n=67 v=0
34960 On ch=1 n=70 v=90
35032 On ch=1 n=70 v=0
35040 On ch=1 n=74 v=90
35112 On ch=1 n=74 v=0
35120 On ch=1 n=70 v=90
35192 On ch=1 n=70 v=0
35200 On ch=1 n=74 v=90
35272 On ch=1 n=74 v=0
35280 On ch=1 n=79 v=90
35352 On ch=1 n=79 v=0
35360 On ch=1 n=74 v=90
35432 On ch=1 n=74 v=0
35440 On ch=1 n=79 v=90
35512 On ch=1 n=79 v=0
35520 On ch=1 n=82 v=90
35592 On ch=1 n=82 v=0
35600 On ch=1 n=81 v=90
35672 On ch=1 n=81 v=0
35680 On ch=1 n=79 v=90
35752 On ch=1 n=79 v=0
35760 On ch=1 n=77 v=90
35832 On ch=1 n=77 v=0
35840 On ch=1 n=76 v=90
35912 On ch=1 n=76 v=0
35920 On ch=1 n=74 v=90
35992 On ch=1 n=74 v=0
36000 On ch=1 n=73 v=90
36072 On ch=1 n=73 v=0
36080 On ch=1 n=69 v=90
36152 On ch=1 n=69 v=0
36160 On ch=1 n=73 v=90
36232 On ch=1 n=73 v=0
36240 On ch=1 n=76 v=90
36312 On ch=1 n=76 v=0
36320 On ch=1 n=73 v=90
36392 On ch=1 n=73 v=0
36400 On ch=1 n=76 v=90
36472 On ch=1 n=76 v=0
36480 On ch=1 n=79 v=90
36552 On ch=1 n=79 v=0
36560 On ch=1 n=76 v=90
36632 On ch=1 n=76 v=0
36640 On ch=1 n=74 v=90
36712 On ch=1 n=74 v=0
36720 On ch=1 n=73 v=90
36792 On ch=1 n=73 v=0
36800 On ch=1 n=71 v=90
36872 On ch=1 n=71 v=0
36880 On ch=1 n=69 v=90
36952 On ch=1 n=69 v=0
36960 On ch=1 n=67 v=90
37032 On ch=1 n=67 v=0
37040 On ch=1 n=64 v=90
37112 On ch=1 n=64 v=0
37120 On ch=1 n=67 v=90
37192 On ch=1 n=67 v=0
37200 On ch=1 n=70 v=90
37272 On ch=1 n=70 v=0
37280 On ch=1 n=67 v=90
37352 On ch=1 n=67 v=0
37360 On ch=1 n=70 v=90
37432 On ch=1 n=70 v=0
37440 On ch=1 n=73 v=90
37512 On ch=1 n=73 v=0
37520 On ch=1 n=67 v=90
37592 On ch=1 n=67 v=0
37600 On ch=1 n=76 v=90
37672 On ch=1 n=76 v=0
37680 On ch=1 n=73 v=90
37752 On ch=1 n=73 v=0
37760 On ch=1 n=70 v=90
37832 On ch=1 n=70 v=0
37840 On ch=1 n=76 v=90
37912 On ch=1 n=76 v=0
37920 On ch=1 n=73 v=90
37992 On ch=1 n=73 v=0
38000 On ch=1 n=69 v=90
38072 On ch=1 n=69 v=0
38080 On ch=1 n=76 v=90
38152 On ch=1 n=76 v=0
38160 On ch=1 n=73 v=90
38232 On ch=1 n=73 v=0
38240 On ch=1 n=67 v=90
38312 On ch=1 n=67 v=0
38320 On ch=1 n=76 v=90
38392 On ch=1 n=76 v=0
38400 On ch=1 n=72 v=90
38472 On ch=1 n=72 v=0
38480 On ch=1 n=69 v=90
38552 On ch=1 n=69 v=0
38560 On ch=1 n=74 v=90
38632 On ch=1 n=74 v=0
38640 On ch=1 n=70 v=90
38712 On ch=1 n=70 v=0
38720 On ch=1 n=67 v=90
38792 On ch=1 n=67 v=0
38800 On ch=1 n=75 v=90
38872 On ch=1 n=75 v=0
38880 On ch=1 n=69 v=90
38952 On ch=1 n=69 v=0
38960 On ch=1 n=66 v=90
39032 On ch=1 n=66 v=0
39040 On ch=1 n=74 v=90
39112 On ch=1 n=74 v=0
39120 On ch=1 n=69 v=90
39192 On ch=1 n=69 v=0
39200 On ch=1 n=66 v=90
39272 On ch=1 n=66 v=0
39280 On ch=1 n=72 v=90
39352 On ch=1 n=72 v=0
39360 On ch=1 n=67 v=90
39432 On ch=1 n=67 v=0
39440 On ch=1 n=62 v=90
39512 On ch=1 n=62 v=0
39520 On ch=1 n=70 v=90
39592 On ch=1 n=70 v=0
39600 On ch=1 n=67 v=90
39672 On ch=1 n=67 v=0
39680 On ch=1 n=65 v=90
39752 On ch=1 n=65 v=0
39760 On ch=1 n=70 v=90
39832 On ch=1 n=70 v=0
39840 On ch=1 n=67 v=90
39912 On ch=1 n=67 v=0
39920 On ch=1 n=63 v=90
39992 On ch=1 n=63 v=0
40000 On ch=1 n=70 v=90
40072 On ch=1 n=70 v=0
40080 On ch=1 n=67 v=90
40152 On ch=1 n=67 v=0
40160 On ch=1 n=62 v=90
40232 On ch=1 n=62 v=0
40240 On ch=1 n=70 v=90
40312 On ch=1 n=70 v=0
40320 On ch=1 n=67 v=90
40392 On ch=1 n=67 v=0
40400 On ch=1 n=61 v=90
40472 On ch=1 n=61 v=0
40480 On ch=1 n=70 v=90
40552 On ch=1 n=70 v=0
40560 On ch=1 n=64 v=90
40632 On ch=1 n=64 v=0
40640 On ch=1 n=61 v=90
40712 On ch=1 n=61 v=0
40720 On ch=1 n=70 v=90
40792 On ch=1 n=70 v=0
40800 On ch=1 n=64 v=90
40872 On ch=1 n=64 v=0
40880 On ch=1 n=61 v=90
40952 On ch=1 n=61 v=0
40960 On ch=1 n=69 v=90
41032 On ch=1 n=69 v=0
41040 On ch=1 n=64 v=90
41112 On ch=1 n=64 v=0
41120 On ch=1 n=61 v=90
41192 On ch=1 n=61 v=0
41200 On ch=1 n=67 v=90
41272 On ch=1 n=67 v=0
41280 On ch=1 n=62 v=90
41352 On ch=1 n=62 v=0
41360 On ch=1 n=59 v=90
41432 On ch=1 n=59 v=0
41440 On ch=1 n=65 v=90
41512 On ch=1 n=65 v=0
41520 On ch=1 n=62 v=90
41592 On ch=1 n=62 v=0
41600 On ch=1 n=61 v=90
41672 On ch=1 n=61 v=0
41680 On ch=1 n=65 v=90
41752 On ch=1 n=65 v=0
41760 On ch=1 n=62 v=90
41832 On ch=1 n=62 v=0
41840 On ch=1 n=59 v=90
41912 On ch=1 n=59 v=0
41920 On ch=1 n=65 v=90
41992 On ch=1 n=65 v=0
42000 On ch=1 n=62 v=90
42072 On ch=1 n=62 v=0
42080 On ch=1 n=57 v=90
42152 On ch=1 n=57 v=0
42160 On ch=1 n=65 v=90
42232 On ch=1 n=65 v=0
42240 On ch=1 n=62 v=90
42312 On ch=1 n=62 v=0
42320 On ch=1 n=55 v=90
42392 On ch=1 n=55 v=0
42400 On ch=1 n=64 v=90
42472 On ch=1 n=64 v=0
42480 On ch=1 n=61 v=90
42552 On ch=1 n=61 v=0
42560 On ch=1 n=58 v=90
42632 On ch=1 n=58 v=0
42640 On ch=1 n=64 v=90
42712 On ch=1 n=64 v=0
42720 On ch=1 n=61 v=90
42792 On ch=1 n=61 v=0
42800 On ch=1 n=57 v=90
42872 On ch=1 n=57 v=0
42880 On ch=1 n=64 v=90
42952 On ch=1 n=64 v=0
42960 On ch=1 n=61 v=90
43032 On ch=1 n=61 v=0
43040 On ch=1 n=55 v=90
43112 On ch=1 n=55 v=0
43120 On ch=1 n=64 v=90
43192 On ch=1 n=64 v=0
43200 On ch=1 n=59 v=90
43272 On ch=1 n=59 v=0
43280 On ch=1 n=56 v=90
43352 On ch=1 n=56 v=0
43360 On ch=1 n=62 v=90
43432 On ch=1 n=62 v=0
43440 On ch=1 n=61 v=90
43512 On ch=1 n=61 v=0
43520 On ch=1 n=56 v=90
43592 On ch=1 n=56 v=0
43600 On ch=1 n=64 v=90
43672 On ch=1 n=64 v=0
43680 On ch=1 n=62 v=90
43752 On ch=1 n=62 v=0
43760 On ch=1 n=56 v=90
43832 On ch=1 n=56 v=0
43840 On ch=1 n=65 v=90
43912 On ch=1 n=65 v=0
43920 On ch=1 n=55 v=90
44157 On ch=1 n=55 v=0
44160 On ch=1 n=55 v=90
44232 On ch=1 n=55 v=0
44240 On ch=1 n=52 v=90
44312 On ch=1 n=52 v=0
44320 On ch=1 n=55 v=90
44392 On ch=1 n=55 v=0
44400 On ch=1 n=61 v=90
44472 On ch=1 n=61 v=0
44480 On ch=1 n=55 v=90
44552 On ch=1 n=55 v=0
44560 On ch=1 n=61 v=90
44632 On ch=1 n=61 v=0
44640 On ch=1 n=64 v=90
44712 On ch=1 n=64 v=0
44720 On ch=1 n=61 v=90
44792 On ch=1 n=61 v=0
44800 On ch=1 n=64 v=90
44872 On ch=1 n=64 v=0
44880 On ch=1 n=67 v=90
45096 On ch=1 n=67 v=0
45120 On ch=1 n=65 v=90
45120 On ch=1 n=57 v=90
45192 On ch=1 n=65 v=0
45200 On ch=1 n=64 v=90
45272 On ch=1 n=64 v=0
45280 On ch=1 n=65 v=90
45352 On ch=1 n=65 v=0
45360 On ch=1 n=69 v=90
45432 On ch=1 n=69 v=0
45440 On ch=1 n=65 v=90
45512 On ch=1 n=65 v=0
45520 On ch=1 n=69 v=90
45592 On ch=1 n=69 v=0
45600 On ch=1 n=74 v=90
45672 On ch=1 n=74 v=0
45680 On ch=1 n=69 v=90
45752 On ch=1 n=69 v=0
45760 On ch=1 n=74 v=90
45832 On ch=1 n=57 v=0
45832 On ch=1 n=74 v=0
45840 On ch=1 n=77 v=90
46077 On ch=1 n=77 v=0
46080 On ch=1 n=77 v=90
46152 On ch=1 n=77 v=0
46160 On ch=1 n=71 v=90
46232 On ch=1 n=71 v=0
46240 On ch=1 n=74 v=90
46312 On ch=1 n=74 v=0
46320 On ch=1 n=77 v=90
46392 On ch=1 n=77 v=0
46400 On ch=1 n=74 v=90
46472 On ch=1 n=74 v=0
46480 On ch=1 n=77 v=90
46552 On ch=1 n=77 v=0
46560 On ch=1 n=80 v=90
46632 On ch=1 n=80 v=0
46640 On ch=1 n=77 v=90
46712 On ch=1 n=77 v=0
46720 On ch=1 n=80 v=90
46792 On ch=1 n=80 v=0
46800 On ch=1 n=83 v=90
46872 On ch=1 n=83 v=0
46880 On ch=1 n=80 v=90
46952 On ch=1 n=80 v=0
46960 On ch=1 n=77 v=90
47032 On ch=1 n=77 v=0
47040 On ch=1 n=82 v=90
47112 On ch=1 n=82 v=0
47120 On ch=1 n=79 v=90
47192 On ch=1 n=79 v=0
47200 On ch=1 n=76 v=90
47272 On ch=1 n=76 v=0
47280 On ch=1 n=81 v=90
47352 On ch=1 n=81 v=0
47360 On ch=1 n=78 v=90
47432 On ch=1 n=78 v=0
47440 On ch=1 n=75 v=90
47512 On ch=1 n=75 v=0
47520 On ch=1 n=80 v=90
47592 On ch=1 n=80 v=0
47600 On ch=1 n=77 v=90
47672 On ch=1 n=77 v=0
47680 On ch=1 n=74 v=90
47752 On ch=1 n=74 v=0
47760 On ch=1 n=79 v=90
47832 On ch=1 n=79 v=0
47840 On ch=1 n=76 v=90
47912 On ch=1 n=76 v=0
47920 On ch=1 n=73 v=90
47992 On ch=1 n=73 v=0
48000 On ch=1 n=78 v=90
48072 On ch=1 n=78 v=0
48080 On ch=1 n=75 v=90
48152 On ch=1 n=75 v=0
48160 On ch=1 n=72 v=90
48232 On ch=1 n=72 v=0
48240 On ch=1 n=77 v=90
48312 On ch=1 n=77 v=0
48320 On ch=1 n=74 v=90
48392 On ch=1 n=74 v=0
48400 On ch=1 n=71 v=90
48472 On ch=1 n=71 v=0
48480 On ch=1 n=76 v=90
48552 On ch=1 n=76 v=0
48560 On ch=1 n=73 v=90
48632 On ch=1 n=73 v=0
48640 On ch=1 n=70 v=90
48712 On ch=1 n=70 v=0
48720 On ch=1 n=75 v=90
48792 On ch=1 n=75 v=0
48800 On ch=1 n=72 v=90
48872 On ch=1 n=72 v=0
48880 On ch=1 n=69 v=90
48952 On ch=1 n=69 v=0
48960 On ch=1 n=74 v=90
49440 On ch=1 n=71 v=90
49440 On ch=1 n=68 v=90
49440 On ch=1 n=65 v=90
49440 On ch=1 n=62 v=90
49824 On ch=1 n=74 v=0
49872 On ch=1 n=71 v=0
49872 On ch=1 n=68 v=0
49872 On ch=1 n=65 v=0
49872 On ch=1 n=62 v=0
49920 On ch=1 n=74 v=90
49920 On ch=1 n=65 v=90
49920 On ch=1 n=62 v=90
49920 On ch=1 n=69 v=90
50352 On ch=1 n=74 v=0
50352 On ch=1 n=65 v=0
50352 On ch=1 n=62 v=0
50400 On ch=1 n=73 v=90
50400 On ch=1 n=67 v=90
50400 On ch=1 n=64 v=90
50784 On ch=1 n=69 v=0
50832 On ch=1 n=73 v=0
50832 On ch=1 n=67 v=0
50832 On ch=1 n=64 v=0
50880 On ch=1 n=74 v=90
50880 On ch=1 n=69 v=90
50880 On ch=1 n=66 v=90
50880 On ch=1 n=62 v=90
51830 On ch=1 n=74 v=0
51830 On ch=1 n=69 v=0
51830 On ch=1 n=66 v=0
51830 On ch=1 n=62 v=0
51957 Meta TrkEnd
TrkEnd
MTrk
570 Par ch=2 c=121 v=0
590 Meta Text "# Pitch Bend Sensitivity (0-2-24) #"
590 Par ch=2 c=101 v=0
595 Par ch=2 c=100 v=0
600 Par ch=2 c=6 v=2
605 Pb ch=2 v=8192
610 Par ch=2 c=0 v=0
615 Par ch=2 c=32 v=0
620 PrCh ch=2 p=0
625 Par ch=2 c=7 v=100
630 Par ch=2 c=11 v=127
635 Par ch=2 c=10 v=64
640 Par ch=2 c=91 v=60
645 Par ch=2 c=93 v=0
650 Par ch=2 c=1 v=0
1920 On ch=2 n=50 v=90
2136 On ch=2 n=50 v=0
2160 On ch=2 n=50 v=90
2376 On ch=2 n=50 v=0
2400 On ch=2 n=50 v=90
2616 On ch=2 n=50 v=0
2640 On ch=2 n=50 v=90
2856 On ch=2 n=50 v=0
2880 On ch=2 n=50 v=90
3096 On ch=2 n=50 v=0
3120 On ch=2 n=50 v=90
3336 On ch=2 n=50 v=0
3360 On ch=2 n=50 v=90
3576 On ch=2 n=50 v=0
3600 On ch=2 n=50 v=90
3816 On ch=2 n=50 v=0
3840 On ch=2 n=50 v=90
4056 On ch=2 n=50 v=0
4080 On ch=2 n=50 v=90
4296 On ch=2 n=50 v=0
4320 On ch=2 n=62 v=90
4536 On ch=2 n=62 v=0
4560 On ch=2 n=62 v=90
4776 On ch=2 n=62 v=0
4800 On ch=2 n=55 v=90
5016 On ch=2 n=55 v=0
5040 On ch=2 n=55 v=90
5256 On ch=2 n=55 v=0
5280 On ch=2 n=60 v=90
5496 On ch=2 n=60 v=0
5520 On ch=2 n=60 v=90
5736 On ch=2 n=60 v=0
5760 On ch=2 n=53 v=90
5976 On ch=2 n=53 v=0
6000 On ch=2 n=53 v=90
6216 On ch=2 n=53 v=0
6240 On ch=2 n=58 v=90
6456 On ch=2 n=58 v=0
6480 On ch=2 n=55 v=90
6696 On ch=2 n=55 v=0
6720 On ch=2 n=60 v=90
6936 On ch=2 n=60 v=0
6960 On ch=2 n=57 v=90
7176 On ch=2 n=57 v=0
7200 On ch=2 n=62 v=90
7416 On ch=2 n=62 v=0
7440 On ch=2 n=50 v=90
7656 On ch=2 n=50 v=0
7680 On ch=2 n=52 v=90
7896 On ch=2 n=52 v=0
7920 On ch=2 n=48 v=90
8136 On ch=2 n=48 v=0
8160 On ch=2 n=53 v=90
8376 On ch=2 n=53 v=0
8400 On ch=2 n=52 v=90
8616 On ch=2 n=52 v=0
8640 On ch=2 n=50 v=90
8856 On ch=2 n=50 v=0
8880 On ch=2 n=48 v=90
9096 On ch=2 n=48 v=0
9120 On ch=2 n=46 v=90
9336 On ch=2 n=46 v=0
9360 On ch=2 n=45 v=90
9576 On ch=2 n=45 v=0
9600 On ch=2 n=43 v=90
9816 On ch=2 n=43 v=0
9840 On ch=2 n=41 v=90
10056 On ch=2 n=41 v=0
10080 On ch=2 n=40 v=90
10296 On ch=2 n=40 v=0
10320 On ch=2 n=36 v=90
10536 On ch=2 n=36 v=0
10560 On ch=2 n=41 v=90
10776 On ch=2 n=41 v=0
10800 On ch=2 n=45 v=90
11016 On ch=2 n=45 v=0
11040 On ch=2 n=46 v=90
11256 On ch=2 n=46 v=0
11280 On ch=2 n=48 v=90
11496 On ch=2 n=48 v=0
11520 On ch=2 n=41 v=90
11952 On ch=2 n=41 v=0
12240 On ch=2 n=51 v=90
12456 On ch=2 n=51 v=0
12480 On ch=2 n=50 v=90
12696 On ch=2 n=50 v=0
12720 On ch=2 n=48 v=90
12936 On ch=2 n=48 v=0
12960 On ch=2 n=46 v=90
13176 On ch=2 n=46 v=0
13200 On ch=2 n=45 v=90
13416 On ch=2 n=45 v=0
13440 On ch=2 n=43 v=90
13656 On ch=2 n=43 v=0
13680 On ch=2 n=46 v=90
13896 On ch=2 n=46 v=0
13920 On ch=2 n=48 v=90
14136 On ch=2 n=48 v=0
14160 On ch=2 n=50 v=90
14376 On ch=2 n=50 v=0
14400 On ch=2 n=51 v=90
14616 On ch=2 n=51 v=0
14640 On ch=2 n=46 v=90
14856 On ch=2 n=46 v=0
14880 On ch=2 n=48 v=90
15096 On ch=2 n=48 v=0
15120 On ch=2 n=50 v=90
15336 On ch=2 n=50 v=0
15360 On ch=2 n=43 v=90
15792 On ch=2 n=43 v=0
16080 On ch=2 n=53 v=90
16296 On ch=2 n=53 v=0
16320 On ch=2 n=52 v=90
16536 On ch=2 n=52 v=0
16560 On ch=2 n=50 v=90
16776 On ch=2 n=50 v=0
16800 On ch=2 n=48 v=90
17016 On ch=2 n=48 v=0
17040 On ch=2 n=47 v=90
17256 On ch=2 n=47 v=0
17280 On ch=2 n=45 v=90
17496 On ch=2 n=45 v=0
17520 On ch=2 n=48 v=90
17736 On ch=2 n=48 v=0
17760 On ch=2 n=50 v=90
17976 On ch=2 n=50 v=0
18000 On ch=2 n=52 v=90
18216 On ch=2 n=52 v=0
18240 On ch=2 n=53 v=90
18456 On ch=2 n=53 v=0
18480 On ch=2 n=48 v=90
18696 On ch=2 n=48 v=0
18720 On ch=2 n=50 v=90
18936 On ch=2 n=50 v=0
18960 On ch=2 n=52 v=90
19176 On ch=2 n=52 v=0
19200 On ch=2 n=45 v=90
19416 On ch=2 n=45 v=0
19440 On ch=2 n=57 v=90
19656 On ch=2 n=57 v=0
19680 On ch=2 n=57 v=90
19896 On ch=2 n=57 v=0
19920 On ch=2 n=55 v=90
20136 On ch=2 n=55 v=0
20160 On ch=2 n=53 v=90
20376 On ch=2 n=53 v=0
20400 On ch=2 n=41 v=90
20616 On ch=2 n=41 v=0
20640 On ch=2 n=41 v=90
20856 On ch=2 n=41 v=0
20880 On ch=2 n=40 v=90
21096 On ch=2 n=40 v=0
21120 On ch=2 n=38 v=90
21336 On ch=2 n=38 v=0
21360 On ch=2 n=50 v=90
21576 On ch=2 n=50 v=0
21600 On ch=2 n=50 v=90
21816 On ch=2 n=50 v=0
21840 On ch=2 n=48 v=90
22056 On ch=2 n=48 v=0
22080 On ch=2 n=46 v=90
22296 On ch=2 n=46 v=0
22320 On ch=2 n=58 v=90
22536 On ch=2 n=58 v=0
22560 On ch=2 n=58 v=90
22776 On ch=2 n=58 v=0
22800 On ch=2 n=57 v=90
23016 On ch=2 n=57 v=0
23040 On ch=2 n=55 v=90
23472 On ch=2 n=55 v=0
23760 On ch=2 n=58 v=90
23976 On ch=2 n=58 v=0
24000 On ch=2 n=57 v=90
24216 On ch=2 n=57 v=0
24240 On ch=2 n=55 v=90
24456 On ch=2 n=55 v=0
24480 On ch=2 n=53 v=90
24696 On ch=2 n=53 v=0
24720 On ch=2 n=52 v=90
24936 On ch=2 n=52 v=0
24960 On ch=2 n=50 v=90
25176 On ch=2 n=50 v=0
25200 On ch=2 n=53 v=90
25416 On ch=2 n=53 v=0
25440 On ch=2 n=55 v=90
25656 On ch=2 n=55 v=0
25680 On ch=2 n=57 v=90
25896 On ch=2 n=57 v=0
25920 On ch=2 n=58 v=90
26136 On ch=2 n=58 v=0
26160 On ch=2 n=53 v=90
26376 On ch=2 n=53 v=0
26400 On ch=2 n=55 v=90
26616 On ch=2 n=55 v=0
26640 On ch=2 n=57 v=90
26856 On ch=2 n=57 v=0
26880 On ch=2 n=46 v=90
27096 On ch=2 n=46 v=0
27120 On ch=2 n=41 v=90
27336 On ch=2 n=41 v=0
27360 On ch=2 n=43 v=90
27576 On ch=2 n=43 v=0
27600 On ch=2 n=45 v=90
27816 On ch=2 n=45 v=0
27840 On ch=2 n=46 v=90
28056 On ch=2 n=46 v=0
28080 On ch=2 n=41 v=90
28296 On ch=2 n=41 v=0
28320 On ch=2 n=43 v=90
28536 On ch=2 n=43 v=0
28560 On ch=2 n=45 v=90
28776 On ch=2 n=45 v=0
28800 On ch=2 n=38 v=90
29512 On ch=2 n=38 v=0
29520 On ch=2 n=38 v=90
29592 On ch=2 n=38 v=0
29600 On ch=2 n=40 v=90
29672 On ch=2 n=40 v=0
29680 On ch=2 n=45 v=90
29752 On ch=2 n=45 v=0
29760 On ch=2 n=50 v=90
30472 On ch=2 n=50 v=0
30480 On ch=2 n=50 v=90
30552 On ch=2 n=50 v=0
30560 On ch=2 n=55 v=90
30632 On ch=2 n=55 v=0
30640 On ch=2 n=58 v=90
30712 On ch=2 n=58 v=0
30720 On ch=2 n=61 v=90
30936 On ch=2 n=61 v=0
30960 On ch=2 n=50 v=90
31176 On ch=2 n=50 v=0
31200 On ch=2 n=61 v=90
31416 On ch=2 n=61 v=0
31440 On ch=2 n=50 v=90
31656 On ch=2 n=50 v=0
31680 On ch=2 n=61 v=90
31896 On ch=2 n=61 v=0
31920 On ch=2 n=50 v=90
32136 On ch=2 n=50 v=0
32160 On ch=2 n=61 v=90
32376 On ch=2 n=61 v=0
32400 On ch=2 n=50 v=90
32616 On ch=2 n=50 v=0
32640 On ch=2 n=60 v=90
32856 On ch=2 n=60 v=0
32880 On ch=2 n=50 v=90
33096 On ch=2 n=50 v=0
33120 On ch=2 n=60 v=90
33336 On ch=2 n=60 v=0
33360 On ch=2 n=50 v=90
33576 On ch=2 n=50 v=0
33600 On ch=2 n=60 v=90
33816 On ch=2 n=60 v=0
33840 On ch=2 n=50 v=90
34056 On ch=2 n=50 v=0
34080 On ch=2 n=60 v=90
34296 On ch=2 n=60 v=0
34320 On ch=2 n=50 v=90
34536 On ch=2 n=50 v=0
34560 On ch=2 n=58 v=90
34776 On ch=2 n=58 v=0
34800 On ch=2 n=50 v=90
35016 On ch=2 n=50 v=0
35040 On ch=2 n=58 v=90
35256 On ch=2 n=58 v=0
35280 On ch=2 n=50 v=90
35496 On ch=2 n=50 v=0
35520 On ch=2 n=55 v=90
35736 On ch=2 n=55 v=0
35760 On ch=2 n=50 v=90
35976 On ch=2 n=50 v=0
36000 On ch=2 n=55 v=90
36216 On ch=2 n=55 v=0
36240 On ch=2 n=50 v=90
36456 On ch=2 n=50 v=0
36480 On ch=2 n=52 v=90
36696 On ch=2 n=52 v=0
36720 On ch=2 n=50 v=90
36936 On ch=2 n=50 v=0
36960 On ch=2 n=52 v=90
37176 On ch=2 n=52 v=0
37200 On ch=2 n=50 v=90
37416 On ch=2 n=50 v=0
37440 On ch=2 n=52 v=90
37656 On ch=2 n=52 v=0
37680 On ch=2 n=50 v=90
37896 On ch=2 n=50 v=0
37920 On ch=2 n=52 v=90
38136 On ch=2 n=52 v=0
38160 On ch=2 n=50 v=90
38376 On ch=2 n=50 v=0
38400 On ch=2 n=54 v=90
38616 On ch=2 n=54 v=0
38640 On ch=2 n=50 v=90
38856 On ch=2 n=50 v=0
38880 On ch=2 n=53 v=90
39096 On ch=2 n=53 v=0
39120 On ch=2 n=50 v=90
39357 On ch=2 n=50 v=0
39360 On ch=2 n=55 v=90
39360 On ch=2 n=50 v=90
39576 On ch=2 n=55 v=0
39600 On ch=2 n=57 v=90
39816 On ch=2 n=57 v=0
39840 On ch=2 n=55 v=90
40056 On ch=2 n=55 v=0
40080 On ch=2 n=53 v=90
40296 On ch=2 n=53 v=0
40310 On ch=2 n=50 v=0
40320 On ch=2 n=50 v=90
40320 On ch=2 n=52 v=90
40536 On ch=2 n=52 v=0
40560 On ch=2 n=55 v=90
40776 On ch=2 n=55 v=0
40800 On ch=2 n=53 v=90
41016 On ch=2 n=53 v=0
41040 On ch=2 n=52 v=90
41184 On ch=2 n=50 v=0
41256 On ch=2 n=52 v=0
41280 On ch=2 n=50 v=90
41280 On ch=2 n=44 v=90
41496 On ch=2 n=50 v=0
41520 On ch=2 n=52 v=90
41736 On ch=2 n=52 v=0
41760 On ch=2 n=53 v=90
41928 On ch=2 n=44 v=0
42000 On ch=2 n=45 v=90
42192 On ch=2 n=53 v=0
42216 On ch=2 n=45 v=0
42240 On ch=2 n=52 v=90
42240 On ch=2 n=46 v=90
42456 On ch=2 n=52 v=0
42480 On ch=2 n=55 v=90
42696 On ch=2 n=55 v=0
42720 On ch=2 n=53 v=90
42936 On ch=2 n=53 v=0
42960 On ch=2 n=52 v=90
43104 On ch=2 n=46 v=0
43176 On ch=2 n=52 v=0
43200 On ch=2 n=53 v=90
43200 On ch=2 n=47 v=90
43416 On ch=2 n=53 v=0
43440 On ch=2 n=52 v=90
43656 On ch=2 n=52 v=0
43680 On ch=2 n=53 v=90
43848 On ch=2 n=47 v=0
43917 On ch=2 n=53 v=0
43920 On ch=2 n=53 v=90
43920 On ch=2 n=46 v=90
43992 On ch=2 n=53 v=0
44000 On ch=2 n=52 v=90
44072 On ch=2 n=52 v=0
44080 On ch=2 n=50 v=90
44136 On ch=2 n=46 v=0
44152 On ch=2 n=50 v=0
44160 On ch=2 n=49 v=90
44160 On ch=2 n=45 v=90
44376 On ch=2 n=49 v=0
44400 On ch=2 n=52 v=90
44616 On ch=2 n=52 v=0
44640 On ch=2 n=55 v=90
44856 On ch=2 n=55 v=0
44872 On ch=2 n=45 v=0
44880 On ch=2 n=58 v=90
44880 On ch=2 n=45 v=90
44952 On ch=2 n=45 v=0
44960 On ch=2 n=49 v=90
45032 On ch=2 n=49 v=0
45040 On ch=2 n=52 v=90
45096 On ch=2 n=58 v=0
45112 On ch=2 n=52 v=0
45120 On ch=2 n=57 v=90
45336 On ch=2 n=57 v=0
45360 On ch=2 n=62 v=90
45576 On ch=2 n=62 v=0
45600 On ch=2 n=65 v=90
45816 On ch=2 n=65 v=0
45840 On ch=2 n=69 v=90
45840 On ch=2 n=57 v=90
45912 On ch=2 n=57 v=0
45920 On ch=2 n=62 v=90
45992 On ch=2 n=62 v=0
46000 On ch=2 n=65 v=90
46056 On ch=2 n=69 v=0
46072 On ch=2 n=65 v=0
46080 On ch=2 n=68 v=90
46296 On ch=2 n=68 v=0
49440 On ch=2 n=56 v=90
49440 On ch=2 n=53 v=90
49440 On ch=2 n=50 v=90
49440 On ch=2 n=46 v=90
49872 On ch=2 n=56 v=0
49872 On ch=2 n=53 v=0
49872 On ch=2 n=50 v=0
49872 On ch=2 n=46 v=0
49920 On ch=2 n=53 v=90
49920 On ch=2 n=50 v=90
49920 On ch=2 n=57 v=90
49920 On ch=2 n=45 v=90
50352 On ch=2 n=53 v=0
50352 On ch=2 n=50 v=0
50400 On ch=2 n=52 v=90
50784 On ch=2 n=57 v=0
50784 On ch=2 n=45 v=0
50832 On ch=2 n=52 v=0
50880 On ch=2 n=50 v=90
50880 On ch=2 n=38 v=90
51830 On ch=2 n=50 v=0
51830 On ch=2 n=38 v=0
51957 Meta TrkEnd
TrkEnd
MTrk
660 Par ch=3 c=121 v=0
680 Meta Text "# Pitch Bend Sensitivity (0-2-24) #"
680 Par ch=3 c=101 v=0
685 Par ch=3 c=100 v=0
690 Par ch=3 c=6 v=2
695 Pb ch=3 v=8192
700 Par ch=3 c=0 v=0
705 Par ch=3 c=32 v=0
710 PrCh ch=3 p=0
715 Par ch=3 c=7 v=100
720 Par ch=3 c=11 v=127
725 Par ch=3 c=10 v=64
730 Par ch=3 c=91 v=30
735 Par ch=3 c=93 v=0
740 Par ch=3 c=1 v=0
867 Meta TrkEnd
TrkEnd
