MFile 0 1 480
MTrk
0 Meta SeqName "\xffffff95\xffffffbd\xffffff8b\xffffffcf\xffffff97\xffffffa5\xffffff83N\xffffff83\xffffff89\xffffff83\xffffff94\xffffff83B\xffffff81[\xffffff83A\xffffff8fW\xffffff91\xffffffe61\xffffff8fW\xffffff91\xffffffe6\xffffff82Q\xffffff94\xffffffd4\xffffff82\xffffffcc\xffffff83v\xffffff83\xffffff8c\xffffff83\xffffff8a\xffffff83\xffffff85\xffffff81[\xffffff83h"
0 Meta Copyright "(C) 2000 Mappy"
0 Meta Text "Made with OTAMA (C) 1997-2000 MISO"
0 KeySig -3 major
0 TimeSig 4/4 24 8
0 Tempo 500000
0 SysEx f0 7e 7f 09 01 f7
480 Par ch=1 c=121 v=0
500 Meta Text "# Pitch Bend Sensitivity (0-2-24) #"
500 Par ch=1 c=101 v=0
505 Par ch=1 c=100 v=0
510 Par ch=1 c=6 v=2
515 Pb ch=1 v=8192
520 Par ch=1 c=0 v=0
525 Par ch=1 c=32 v=0
530 PrCh ch=1 p=0
535 Par ch=1 c=7 v=90
540 Par ch=1 c=11 v=127
545 Par ch=1 c=10 v=64
550 Par ch=1 c=91 v=40
555 Par ch=1 c=93 v=0
560 Par ch=1 c=1 v=0
570 Par ch=2 c=121 v=0
590 Meta Text "# Pitch Bend Sensitivity (0-2-24) #"
590 Par ch=2 c=101 v=0
595 Par ch=2 c=100 v=0
600 Par ch=2 c=6 v=2
605 Pb ch=2 v=8192
610 Par ch=2 c=0 v=0
615 Par ch=2 c=32 v=0
620 PrCh ch=2 p=0
625 Par ch=2 c=7 v=90
630 Par ch=2 c=11 v=127
635 Par ch=2 c=10 v=64
640 Par ch=2 c=91 v=40
645 Par ch=2 c=93 v=0
650 Par ch=2 c=1 v=0
660 Par ch=3 c=121 v=0
680 Meta Text "# Pitch Bend Sensitivity (0-2-24) #"
680 Par ch=3 c=101 v=0
685 Par ch=3 c=100 v=0
690 Par ch=3 c=6 v=2
695 Pb ch=3 v=8192
700 Par ch=3 c=0 v=0
705 Par ch=3 c=32 v=0
710 PrCh ch=3 p=0
715 Par ch=3 c=7 v=100
720 Par ch=3 c=11 v=127
725 Par ch=3 c=10 v=64
730 Par ch=3 c=91 v=30
735 Par ch=3 c=93 v=0
740 Par ch=3 c=1 v=0
1440 Tempo 545454
1920 On ch=1 n=c6 v=90
1920 On ch=2 n=c4 v=90
2028 On ch=2 n=c4 v=0
2028 On ch=1 n=c6 v=0
2040 On ch=1 n=d#5 v=90
2040 On ch=2 n=g4 v=90
2148 On ch=2 n=g4 v=0
2148 On ch=1 n=d#5 v=0
2160 On ch=1 n=d5 v=90
2160 On ch=2 n=f4 v=90
2268 On ch=2 n=f4 v=0
2268 On ch=1 n=d5 v=0
2280 On ch=1 n=d#5 v=90
2280 On ch=2 n=g4 v=90
2388 On ch=2 n=g4 v=0
2388 On ch=1 n=d#5 v=0
2400 On ch=1 n=c5 v=90
2400 On ch=2 n=d#4 v=90
2508 On ch=2 n=d#4 v=0
2508 On ch=1 n=c5 v=0
2520 On ch=1 n=d#5 v=90
2520 On ch=2 n=g4 v=90
2628 On ch=2 n=g4 v=0
2628 On ch=1 n=d#5 v=0
2640 On ch=1 n=d5 v=90
2640 On ch=2 n=f4 v=90
2748 On ch=2 n=f4 v=0
2748 On ch=1 n=d5 v=0
2760 On ch=1 n=d#5 v=90
2760 On ch=2 n=g4 v=90
2868 On ch=2 n=g4 v=0
2868 On ch=1 n=d#5 v=0
2880 On ch=1 n=c6 v=90
2880 On ch=2 n=c4 v=90
2988 On ch=2 n=c4 v=0
2988 On ch=1 n=c6 v=0
3000 On ch=1 n=d#5 v=90
3000 On ch=2 n=g4 v=90
3108 On ch=2 n=g4 v=0
3108 On ch=1 n=d#5 v=0
3120 On ch=1 n=d5 v=90
3120 On ch=2 n=f4 v=90
3228 On ch=2 n=f4 v=0
3228 On ch=1 n=d5 v=0
3240 On ch=1 n=d#5 v=90
3240 On ch=2 n=g4 v=90
3348 On ch=2 n=g4 v=0
3348 On ch=1 n=d#5 v=0
3360 On ch=1 n=c5 v=90
3360 On ch=2 n=d#4 v=90
3468 On ch=2 n=d#4 v=0
3468 On ch=1 n=c5 v=0
3480 On ch=1 n=d#5 v=90
3480 On ch=2 n=g4 v=90
3588 On ch=2 n=g4 v=0
3588 On ch=1 n=d#5 v=0
3600 On ch=1 n=d5 v=90
3600 On ch=2 n=f4 v=90
3708 On ch=2 n=f4 v=0
3708 On ch=1 n=d5 v=0
3720 On ch=1 n=d#5 v=90
3720 On ch=2 n=g4 v=90
3828 On ch=2 n=g4 v=0
3828 On ch=1 n=d#5 v=0
3840 On ch=1 n=g#5 v=90
3840 On ch=2 n=c4 v=90
3948 On ch=2 n=c4 v=0
3948 On ch=1 n=g#5 v=0
3960 On ch=1 n=f5 v=90
3960 On ch=2 n=g#4 v=90
4068 On ch=2 n=g#4 v=0
4068 On ch=1 n=f5 v=0
4080 On ch=1 n=e5 v=90
4080 On ch=2 n=g4 v=90
4188 On ch=2 n=g4 v=0
4188 On ch=1 n=e5 v=0
4200 On ch=1 n=f5 v=90
4200 On ch=2 n=g#4 v=90
4308 On ch=2 n=g#4 v=0
4308 On ch=1 n=f5 v=0
4320 On ch=1 n=c5 v=90
4320 On ch=2 n=f4 v=90
4428 On ch=2 n=f4 v=0
4428 On ch=1 n=c5 v=0
4440 On ch=1 n=f5 v=90
4440 On ch=2 n=g#4 v=90
4548 On ch=2 n=g#4 v=0
4548 On ch=1 n=f5 v=0
4560 On ch=1 n=e5 v=90
4560 On ch=2 n=g4 v=90
4668 On ch=2 n=g4 v=0
4668 On ch=1 n=e5 v=0
4680 On ch=1 n=f5 v=90
4680 On ch=2 n=g#4 v=90
4788 On ch=2 n=g#4 v=0
4788 On ch=1 n=f5 v=0
4800 On ch=1 n=g#5 v=90
4800 On ch=2 n=c4 v=90
4908 On ch=2 n=c4 v=0
4908 On ch=1 n=g#5 v=0
4920 On ch=1 n=f5 v=90
4920 On ch=2 n=g#4 v=90
5028 On ch=2 n=g#4 v=0
5028 On ch=1 n=f5 v=0
5040 On ch=1 n=e5 v=90
5040 On ch=2 n=g4 v=90
5148 On ch=2 n=g4 v=0
5148 On ch=1 n=e5 v=0
5160 On ch=1 n=f5 v=90
5160 On ch=2 n=g#4 v=90
5268 On ch=2 n=g#4 v=0
5268 On ch=1 n=f5 v=0
5280 On ch=1 n=c5 v=90
5280 On ch=2 n=f4 v=90
5388 On ch=2 n=f4 v=0
5388 On ch=1 n=c5 v=0
5400 On ch=1 n=f5 v=90
5400 On ch=2 n=g#4 v=90
5508 On ch=2 n=g#4 v=0
5508 On ch=1 n=f5 v=0
5520 On ch=1 n=e5 v=90
5520 On ch=2 n=g4 v=90
5628 On ch=2 n=g4 v=0
5628 On ch=1 n=e5 v=0
5640 On ch=1 n=f5 v=90
5640 On ch=2 n=g#4 v=90
5748 On ch=2 n=g#4 v=0
5748 On ch=1 n=f5 v=0
5760 On ch=1 n=b5 v=90
5760 On ch=2 n=c4 v=90
5868 On ch=2 n=c4 v=0
5868 On ch=1 n=b5 v=0
5880 On ch=1 n=f5 v=90
5880 On ch=2 n=g#4 v=90
5988 On ch=2 n=g#4 v=0
5988 On ch=1 n=f5 v=0
6000 On ch=1 n=d#5 v=90
6000 On ch=2 n=g4 v=90
6108 On ch=2 n=g4 v=0
6108 On ch=1 n=d#5 v=0
6120 On ch=1 n=f5 v=90
6120 On ch=2 n=g#4 v=90
6228 On ch=2 n=g#4 v=0
6228 On ch=1 n=f5 v=0
6240 On ch=1 n=d5 v=90
6240 On ch=2 n=f4 v=90
6348 On ch=2 n=f4 v=0
6348 On ch=1 n=d5 v=0
6360 On ch=1 n=f5 v=90
6360 On ch=2 n=g#4 v=90
6468 On ch=2 n=g#4 v=0
6468 On ch=1 n=f5 v=0
6480 On ch=1 n=d#5 v=90
6480 On ch=2 n=g4 v=90
6588 On ch=2 n=g4 v=0
6588 On ch=1 n=d#5 v=0
6600 On ch=1 n=f5 v=90
6600 On ch=2 n=g#4 v=90
6708 On ch=2 n=g#4 v=0
6708 On ch=1 n=f5 v=0
6720 On ch=1 n=b5 v=90
6720 On ch=2 n=c4 v=90
6828 On ch=2 n=c4 v=0
6828 On ch=1 n=b5 v=0
6840 On ch=1 n=f5 v=90
6840 On ch=2 n=g#4 v=90
6948 On ch=2 n=g#4 v=0
6948 On ch=1 n=f5 v=0
6960 On ch=1 n=d#5 v=90
6960 On ch=2 n=g4 v=90
7068 On ch=2 n=g4 v=0
7068 On ch=1 n=d#5 v=0
7080 On ch=1 n=f5 v=90
7080 On ch=2 n=g#4 v=90
7188 On ch=2 n=g#4 v=0
7188 On ch=1 n=f5 v=0
7200 On ch=1 n=d5 v=90
7200 On ch=2 n=f4 v=90
7308 On ch=2 n=f4 v=0
7308 On ch=1 n=d5 v=0
7320 On ch=1 n=f5 v=90
7320 On ch=2 n=g#4 v=90
7428 On ch=2 n=g#4 v=0
7428 On ch=1 n=f5 v=0
7440 On ch=1 n=d#5 v=90
7440 On ch=2 n=g4 v=90
7548 On ch=2 n=g4 v=0
7548 On ch=1 n=d#5 v=0
7560 On ch=1 n=f5 v=90
7560 On ch=2 n=g#4 v=90
7668 On ch=2 n=g#4 v=0
7668 On ch=1 n=f5 v=0
7680 On ch=1 n=c6 v=90
7680 On ch=2 n=c4 v=90
7788 On ch=2 n=c4 v=0
7788 On ch=1 n=c6 v=0
7800 On ch=1 n=g5 v=90
7800 On ch=2 n=d#4 v=90
7908 On ch=2 n=d#4 v=0
7908 On ch=1 n=g5 v=0
7920 On ch=1 n=f5 v=90
7920 On ch=2 n=d4 v=90
8028 On ch=2 n=d4 v=0
8028 On ch=1 n=f5 v=0
8040 On ch=1 n=g5 v=90
8040 On ch=2 n=d#4 v=90
8148 On ch=2 n=d#4 v=0
8148 On ch=1 n=g5 v=0
8160 On ch=1 n=d#5 v=90
8160 On ch=2 n=g4 v=90
8268 On ch=2 n=g4 v=0
8268 On ch=1 n=d#5 v=0
8280 On ch=1 n=g5 v=90
8280 On ch=2 n=d#4 v=90
8388 On ch=2 n=d#4 v=0
8388 On ch=1 n=g5 v=0
8400 On ch=1 n=f5 v=90
8400 On ch=2 n=d4 v=90
8508 On ch=2 n=d4 v=0
8508 On ch=1 n=f5 v=0
8520 On ch=1 n=g5 v=90
8520 On ch=2 n=d#4 v=90
8628 On ch=2 n=d#4 v=0
8628 On ch=1 n=g5 v=0
8640 On ch=1 n=c6 v=90
8640 On ch=2 n=c4 v=90
8748 On ch=2 n=c4 v=0
8748 On ch=1 n=c6 v=0
8760 On ch=1 n=g5 v=90
8760 On ch=2 n=d#4 v=90
8868 On ch=2 n=d#4 v=0
8868 On ch=1 n=g5 v=0
8880 On ch=1 n=f5 v=90
8880 On ch=2 n=d4 v=90
8988 On ch=2 n=d4 v=0
8988 On ch=1 n=f5 v=0
9000 On ch=1 n=g5 v=90
9000 On ch=2 n=d#4 v=90
9108 On ch=2 n=d#4 v=0
9108 On ch=1 n=g5 v=0
9120 On ch=1 n=d#5 v=90
9120 On ch=2 n=g4 v=90
9228 On ch=2 n=g4 v=0
9228 On ch=1 n=d#5 v=0
9240 On ch=1 n=g5 v=90
9240 On ch=2 n=d#4 v=90
9348 On ch=2 n=d#4 v=0
9348 On ch=1 n=g5 v=0
9360 On ch=1 n=f5 v=90
9360 On ch=2 n=d4 v=90
9468 On ch=2 n=d4 v=0
9468 On ch=1 n=f5 v=0
9480 On ch=1 n=g5 v=90
9480 On ch=2 n=d#4 v=90
9588 On ch=2 n=d#4 v=0
9588 On ch=1 n=g5 v=0
9600 On ch=1 n=d#6 v=90
9600 On ch=2 n=c4 v=90
9708 On ch=2 n=c4 v=0
9708 On ch=1 n=d#6 v=0
9720 On ch=1 n=g#5 v=90
9720 On ch=2 n=c5 v=90
9828 On ch=2 n=c5 v=0
9828 On ch=1 n=g#5 v=0
9840 On ch=1 n=g5 v=90
9840 On ch=2 n=a#4 v=90
9948 On ch=2 n=a#4 v=0
9948 On ch=1 n=g5 v=0
9960 On ch=1 n=g#5 v=90
9960 On ch=2 n=c5 v=90
10068 On ch=2 n=c5 v=0
10068 On ch=1 n=g#5 v=0
10080 On ch=1 n=d#5 v=90
10080 On ch=2 n=g#4 v=90
10188 On ch=2 n=g#4 v=0
10188 On ch=1 n=d#5 v=0
10200 On ch=1 n=g#5 v=90
10200 On ch=2 n=c5 v=90
10308 On ch=2 n=c5 v=0
10308 On ch=1 n=g#5 v=0
10320 On ch=1 n=g5 v=90
10320 On ch=2 n=a#4 v=90
10428 On ch=2 n=a#4 v=0
10428 On ch=1 n=g5 v=0
10440 On ch=1 n=g#5 v=90
10440 On ch=2 n=c5 v=90
10548 On ch=2 n=c5 v=0
10548 On ch=1 n=g#5 v=0
10560 On ch=1 n=d#6 v=90
10560 On ch=2 n=c4 v=90
10668 On ch=2 n=c4 v=0
10668 On ch=1 n=d#6 v=0
10680 On ch=1 n=g#5 v=90
10680 On ch=2 n=c5 v=90
10788 On ch=2 n=c5 v=0
10788 On ch=1 n=g#5 v=0
10800 On ch=1 n=g5 v=90
10800 On ch=2 n=a#4 v=90
10908 On ch=2 n=a#4 v=0
10908 On ch=1 n=g5 v=0
10920 On ch=1 n=g#5 v=90
10920 On ch=2 n=c5 v=90
11028 On ch=2 n=c5 v=0
11028 On ch=1 n=g#5 v=0
11040 On ch=1 n=d#5 v=90
11040 On ch=2 n=g#4 v=90
11148 On ch=2 n=g#4 v=0
11148 On ch=1 n=d#5 v=0
11160 On ch=1 n=g#5 v=90
11160 On ch=2 n=c5 v=90
11268 On ch=2 n=c5 v=0
11268 On ch=1 n=g#5 v=0
11280 On ch=1 n=g5 v=90
11280 On ch=2 n=a#4 v=90
11388 On ch=2 n=a#4 v=0
11388 On ch=1 n=g5 v=0
11400 On ch=1 n=g#5 v=90
11400 On ch=2 n=c5 v=90
11508 On ch=2 n=c5 v=0
11508 On ch=1 n=g#5 v=0
11520 On ch=1 n=d6 v=90
11520 On ch=2 n=c4 v=90
11628 On ch=2 n=c4 v=0
11628 On ch=1 n=d6 v=0
11640 On ch=1 n=f#5 v=90
11640 On ch=2 n=a4 v=90
11748 On ch=2 n=a4 v=0
11748 On ch=1 n=f#5 v=0
11760 On ch=1 n=d#5 v=90
11760 On ch=2 n=g4 v=90
11868 On ch=2 n=g4 v=0
11868 On ch=1 n=d#5 v=0
11880 On ch=1 n=f#5 v=90
11880 On ch=2 n=a4 v=90
11988 On ch=2 n=a4 v=0
11988 On ch=1 n=f#5 v=0
12000 On ch=1 n=d5 v=90
12000 On ch=2 n=f#4 v=90
12108 On ch=2 n=f#4 v=0
12108 On ch=1 n=d5 v=0
12120 On ch=1 n=f#5 v=90
12120 On ch=2 n=a4 v=90
12228 On ch=2 n=a4 v=0
12228 On ch=1 n=f#5 v=0
12240 On ch=1 n=d#5 v=90
12240 On ch=2 n=g4 v=90
12348 On ch=2 n=g4 v=0
12348 On ch=1 n=d#5 v=0
12360 On ch=1 n=f#5 v=90
12360 On ch=2 n=a4 v=90
12468 On ch=2 n=a4 v=0
12468 On ch=1 n=f#5 v=0
12480 On ch=1 n=d6 v=90
12480 On ch=2 n=c4 v=90
12588 On ch=2 n=c4 v=0
12588 On ch=1 n=d6 v=0
12600 On ch=1 n=f#5 v=90
12600 On ch=2 n=a4 v=90
12708 On ch=2 n=a4 v=0
12708 On ch=1 n=f#5 v=0
12720 On ch=1 n=d#5 v=90
12720 On ch=2 n=g4 v=90
12828 On ch=2 n=g4 v=0
12828 On ch=1 n=d#5 v=0
12840 On ch=1 n=f#5 v=90
12840 On ch=2 n=a4 v=90
12948 On ch=2 n=a4 v=0
12948 On ch=1 n=f#5 v=0
12960 On ch=1 n=d5 v=90
12960 On ch=2 n=f#4 v=90
13068 On ch=2 n=f#4 v=0
13068 On ch=1 n=d5 v=0
13080 On ch=1 n=f#5 v=90
13080 On ch=2 n=a4 v=90
13188 On ch=2 n=a4 v=0
13188 On ch=1 n=f#5 v=0
13200 On ch=1 n=d#5 v=90
13200 On ch=2 n=g4 v=90
13308 On ch=2 n=g4 v=0
13308 On ch=1 n=d#5 v=0
13320 On ch=1 n=f#5 v=90
13320 On ch=2 n=a4 v=90
13428 On ch=2 n=a4 v=0
13428 On ch=1 n=f#5 v=0
13440 On ch=1 n=d6 v=90
13440 On ch=2 n=a#3 v=90
13548 On ch=2 n=a#3 v=0
13548 On ch=1 n=d6 v=0
13560 On ch=1 n=g5 v=90
13560 On ch=2 n=a#4 v=90
13668 On ch=2 n=a#4 v=0
13668 On ch=1 n=g5 v=0
13680 On ch=1 n=f#5 v=90
13680 On ch=2 n=a4 v=90
13788 On ch=2 n=a4 v=0
13788 On ch=1 n=f#5 v=0
13800 On ch=1 n=g5 v=90
13800 On ch=2 n=a#4 v=90
13908 On ch=2 n=a#4 v=0
13908 On ch=1 n=g5 v=0
13920 On ch=1 n=d5 v=90
13920 On ch=2 n=g4 v=90
14028 On ch=2 n=g4 v=0
14028 On ch=1 n=d5 v=0
14040 On ch=1 n=g5 v=90
14040 On ch=2 n=a#4 v=90
14148 On ch=2 n=a#4 v=0
14148 On ch=1 n=g5 v=0
14160 On ch=1 n=f#5 v=90
14160 On ch=2 n=a4 v=90
14268 On ch=2 n=a4 v=0
14268 On ch=1 n=f#5 v=0
14280 On ch=1 n=g5 v=90
14280 On ch=2 n=a#4 v=90
14388 On ch=2 n=a#4 v=0
14388 On ch=1 n=g5 v=0
14400 On ch=1 n=d6 v=90
14400 On ch=2 n=a#3 v=90
14508 On ch=2 n=a#3 v=0
14508 On ch=1 n=d6 v=0
14520 On ch=1 n=g5 v=90
14520 On ch=2 n=a#4 v=90
14628 On ch=2 n=a#4 v=0
14628 On ch=1 n=g5 v=0
14640 On ch=1 n=f#5 v=90
14640 On ch=2 n=a4 v=90
14748 On ch=2 n=a4 v=0
14748 On ch=1 n=f#5 v=0
14760 On ch=1 n=g5 v=90
14760 On ch=2 n=a#4 v=90
14868 On ch=2 n=a#4 v=0
14868 On ch=1 n=g5 v=0
14880 On ch=1 n=d5 v=90
14880 On ch=2 n=g4 v=90
14988 On ch=2 n=g4 v=0
14988 On ch=1 n=d5 v=0
15000 On ch=1 n=g5 v=90
15000 On ch=2 n=a#4 v=90
15108 On ch=2 n=a#4 v=0
15108 On ch=1 n=g5 v=0
15120 On ch=1 n=f#5 v=90
15120 On ch=2 n=a4 v=90
15228 On ch=2 n=a4 v=0
15228 On ch=1 n=f#5 v=0
15240 On ch=1 n=g5 v=90
15240 On ch=2 n=a#4 v=90
15348 On ch=2 n=a#4 v=0
15348 On ch=1 n=g5 v=0
15360 On ch=1 n=c6 v=90
15360 On ch=2 n=a#3 v=90
15468 On ch=2 n=a#3 v=0
15468 On ch=1 n=c6 v=0
15480 On ch=1 n=e5 v=90
15480 On ch=2 n=g4 v=90
15588 On ch=2 n=g4 v=0
15588 On ch=1 n=e5 v=0
15600 On ch=1 n=d5 v=90
15600 On ch=2 n=f4 v=90
15708 On ch=2 n=f4 v=0
15708 On ch=1 n=d5 v=0
15720 On ch=1 n=e5 v=90
15720 On ch=2 n=g4 v=90
15828 On ch=2 n=g4 v=0
15828 On ch=1 n=e5 v=0
15840 On ch=1 n=c5 v=90
15840 On ch=2 n=e4 v=90
15948 On ch=2 n=e4 v=0
15948 On ch=1 n=c5 v=0
15960 On ch=1 n=e5 v=90
15960 On ch=2 n=g4 v=90
16068 On ch=2 n=g4 v=0
16068 On ch=1 n=e5 v=0
16080 On ch=1 n=d5 v=90
16080 On ch=2 n=f4 v=90
16188 On ch=2 n=f4 v=0
16188 On ch=1 n=d5 v=0
16200 On ch=1 n=e5 v=90
16200 On ch=2 n=g4 v=90
16308 On ch=2 n=g4 v=0
16308 On ch=1 n=e5 v=0
16320 On ch=1 n=c6 v=90
16320 On ch=2 n=a#3 v=90
16428 On ch=2 n=a#3 v=0
16428 On ch=1 n=c6 v=0
16440 On ch=1 n=e5 v=90
16440 On ch=2 n=g4 v=90
16548 On ch=2 n=g4 v=0
16548 On ch=1 n=e5 v=0
16560 On ch=1 n=d5 v=90
16560 On ch=2 n=f4 v=90
16668 On ch=2 n=f4 v=0
16668 On ch=1 n=d5 v=0
16680 On ch=1 n=e5 v=90
16680 On ch=2 n=g4 v=90
16788 On ch=2 n=g4 v=0
16788 On ch=1 n=e5 v=0
16800 On ch=1 n=c5 v=90
16800 On ch=2 n=e4 v=90
16908 On ch=2 n=e4 v=0
16908 On ch=1 n=c5 v=0
16920 On ch=1 n=e5 v=90
16920 On ch=2 n=g4 v=90
17028 On ch=2 n=g4 v=0
17028 On ch=1 n=e5 v=0
17040 On ch=1 n=d5 v=90
17040 On ch=2 n=f4 v=90
17148 On ch=2 n=f4 v=0
17148 On ch=1 n=d5 v=0
17160 On ch=1 n=e5 v=90
17160 On ch=2 n=g4 v=90
17268 On ch=2 n=g4 v=0
17268 On ch=1 n=e5 v=0
17280 On ch=1 n=c6 v=90
17280 On ch=2 n=g#3 v=90
17388 On ch=2 n=g#3 v=0
17388 On ch=1 n=c6 v=0
17400 On ch=1 n=f5 v=90
17400 On ch=2 n=g#4 v=90
17508 On ch=2 n=g#4 v=0
17508 On ch=1 n=f5 v=0
17520 On ch=1 n=e5 v=90
17520 On ch=2 n=g4 v=90
17628 On ch=2 n=g4 v=0
17628 On ch=1 n=e5 v=0
17640 On ch=1 n=f5 v=90
17640 On ch=2 n=g#4 v=90
17748 On ch=2 n=g#4 v=0
17748 On ch=1 n=f5 v=0
17760 On ch=1 n=c5 v=90
17760 On ch=2 n=f4 v=90
17868 On ch=2 n=f4 v=0
17868 On ch=1 n=c5 v=0
17880 On ch=1 n=f5 v=90
17880 On ch=2 n=g#4 v=90
17988 On ch=2 n=g#4 v=0
17988 On ch=1 n=f5 v=0
18000 On ch=1 n=e5 v=90
18000 On ch=2 n=g4 v=90
18108 On ch=2 n=g4 v=0
18108 On ch=1 n=e5 v=0
18120 On ch=1 n=f5 v=90
18120 On ch=2 n=g#4 v=90
18228 On ch=2 n=g#4 v=0
18228 On ch=1 n=f5 v=0
18240 On ch=1 n=c6 v=90
18240 On ch=2 n=g#3 v=90
18348 On ch=2 n=g#3 v=0
18348 On ch=1 n=c6 v=0
18360 On ch=1 n=f5 v=90
18360 On ch=2 n=g#4 v=90
18468 On ch=2 n=g#4 v=0
18468 On ch=1 n=f5 v=0
18480 On ch=1 n=e5 v=90
18480 On ch=2 n=g4 v=90
18588 On ch=2 n=g4 v=0
18588 On ch=1 n=e5 v=0
18600 On ch=1 n=f5 v=90
18600 On ch=2 n=g#4 v=90
18708 On ch=2 n=g#4 v=0
18708 On ch=1 n=f5 v=0
18720 On ch=1 n=c5 v=90
18720 On ch=2 n=f4 v=90
18828 On ch=2 n=f4 v=0
18828 On ch=1 n=c5 v=0
18840 On ch=1 n=f5 v=90
18840 On ch=2 n=g#4 v=90
18948 On ch=2 n=g#4 v=0
18948 On ch=1 n=f5 v=0
18960 On ch=1 n=e5 v=90
18960 On ch=2 n=g4 v=90
19068 On ch=2 n=g4 v=0
19068 On ch=1 n=e5 v=0
19080 On ch=1 n=f5 v=90
19080 On ch=2 n=g#4 v=90
19188 On ch=2 n=g#4 v=0
19188 On ch=1 n=f5 v=0
19200 On ch=1 n=a#5 v=90
19200 On ch=2 n=g#3 v=90
19308 On ch=2 n=g#3 v=0
19308 On ch=1 n=a#5 v=0
19320 On ch=1 n=f5 v=90
19320 On ch=2 n=d4 v=90
19428 On ch=2 n=d4 v=0
19428 On ch=1 n=f5 v=0
19440 On ch=1 n=d#5 v=90
19440 On ch=2 n=c4 v=90
19548 On ch=2 n=c4 v=0
19548 On ch=1 n=d#5 v=0
19560 On ch=1 n=f5 v=90
19560 On ch=2 n=d4 v=90
19668 On ch=2 n=d4 v=0
19668 On ch=1 n=f5 v=0
19680 On ch=1 n=d5 v=90
19680 On ch=2 n=f4 v=90
19788 On ch=2 n=f4 v=0
19788 On ch=1 n=d5 v=0
19800 On ch=1 n=f5 v=90
19800 On ch=2 n=d4 v=90
19908 On ch=2 n=d4 v=0
19908 On ch=1 n=f5 v=0
19920 On ch=1 n=d#5 v=90
19920 On ch=2 n=c4 v=90
20028 On ch=2 n=c4 v=0
20028 On ch=1 n=d#5 v=0
20040 On ch=1 n=f5 v=90
20040 On ch=2 n=d4 v=90
20148 On ch=2 n=d4 v=0
20148 On ch=1 n=f5 v=0
20160 On ch=1 n=a#5 v=90
20160 On ch=2 n=g#3 v=90
20268 On ch=2 n=g#3 v=0
20268 On ch=1 n=a#5 v=0
20280 On ch=1 n=f5 v=90
20280 On ch=2 n=d4 v=90
20388 On ch=2 n=d4 v=0
20388 On ch=1 n=f5 v=0
20400 On ch=1 n=d#5 v=90
20400 On ch=2 n=c4 v=90
20508 On ch=2 n=c4 v=0
20508 On ch=1 n=d#5 v=0
20520 On ch=1 n=f5 v=90
20520 On ch=2 n=d4 v=90
20628 On ch=2 n=d4 v=0
20628 On ch=1 n=f5 v=0
20640 On ch=1 n=d5 v=90
20640 On ch=2 n=f4 v=90
20748 On ch=2 n=f4 v=0
20748 On ch=1 n=d5 v=0
20760 On ch=1 n=f5 v=90
20760 On ch=2 n=d4 v=90
20868 On ch=2 n=d4 v=0
20868 On ch=1 n=f5 v=0
20880 On ch=1 n=d#5 v=90
20880 On ch=2 n=c4 v=90
20988 On ch=2 n=c4 v=0
20988 On ch=1 n=d#5 v=0
21000 On ch=1 n=f5 v=90
21000 On ch=2 n=d4 v=90
21108 On ch=2 n=d4 v=0
21108 On ch=1 n=f5 v=0
21120 On ch=1 n=a#5 v=90
21120 On ch=2 n=g3 v=90
21228 On ch=2 n=g3 v=0
21228 On ch=1 n=a#5 v=0
21240 On ch=1 n=g5 v=90
21240 On ch=2 n=d#4 v=90
21348 On ch=2 n=d#4 v=0
21348 On ch=1 n=g5 v=0
21360 On ch=1 n=f5 v=90
21360 On ch=2 n=d4 v=90
21468 On ch=2 n=d4 v=0
21468 On ch=1 n=f5 v=0
21480 On ch=1 n=g5 v=90
21480 On ch=2 n=d#4 v=90
21588 On ch=2 n=d#4 v=0
21588 On ch=1 n=g5 v=0
21600 On ch=1 n=d#5 v=90
21600 On ch=2 n=g4 v=90
21708 On ch=2 n=g4 v=0
21708 On ch=1 n=d#5 v=0
21720 On ch=1 n=g5 v=90
21720 On ch=2 n=d#4 v=90
21828 On ch=2 n=d#4 v=0
21828 On ch=1 n=g5 v=0
21840 On ch=1 n=f5 v=90
21840 On ch=2 n=d4 v=90
21948 On ch=2 n=d4 v=0
21948 On ch=1 n=f5 v=0
21960 On ch=1 n=g5 v=90
21960 On ch=2 n=d#4 v=90
22068 On ch=2 n=d#4 v=0
22068 On ch=1 n=g5 v=0
22080 On ch=1 n=a#5 v=90
22080 On ch=2 n=g3 v=90
22188 On ch=2 n=g3 v=0
22188 On ch=1 n=a#5 v=0
22200 On ch=1 n=g5 v=90
22200 On ch=2 n=d#4 v=90
22308 On ch=2 n=d#4 v=0
22308 On ch=1 n=g5 v=0
22320 On ch=1 n=f5 v=90
22320 On ch=2 n=d4 v=90
22428 On ch=2 n=d4 v=0
22428 On ch=1 n=f5 v=0
22440 On ch=1 n=g5 v=90
22440 On ch=2 n=d#4 v=90
22548 On ch=2 n=d#4 v=0
22548 On ch=1 n=g5 v=0
22560 On ch=1 n=d#5 v=90
22560 On ch=2 n=g4 v=90
22668 On ch=2 n=g4 v=0
22668 On ch=1 n=d#5 v=0
22680 On ch=1 n=g5 v=90
22680 On ch=2 n=d#4 v=90
22788 On ch=2 n=d#4 v=0
22788 On ch=1 n=g5 v=0
22800 On ch=1 n=f5 v=90
22800 On ch=2 n=d4 v=90
22908 On ch=2 n=d4 v=0
22908 On ch=1 n=f5 v=0
22920 On ch=1 n=g5 v=90
22920 On ch=2 n=d#4 v=90
23028 On ch=2 n=d#4 v=0
23028 On ch=1 n=g5 v=0
23040 On ch=1 n=g#5 v=90
23040 On ch=2 n=c4 v=90
23148 On ch=2 n=c4 v=0
23148 On ch=1 n=g#5 v=0
23160 On ch=1 n=g5 v=90
23160 On ch=2 n=d#4 v=90
23268 On ch=2 n=d#4 v=0
23268 On ch=1 n=g5 v=0
23280 On ch=1 n=f5 v=90
23280 On ch=2 n=d4 v=90
23388 On ch=2 n=d4 v=0
23388 On ch=1 n=f5 v=0
23400 On ch=1 n=g5 v=90
23400 On ch=2 n=d#4 v=90
23508 On ch=2 n=d#4 v=0
23508 On ch=1 n=g5 v=0
23520 On ch=1 n=d#5 v=90
23520 On ch=2 n=g#4 v=90
23628 On ch=2 n=g#4 v=0
23628 On ch=1 n=d#5 v=0
23640 On ch=1 n=g5 v=90
23640 On ch=2 n=d#4 v=90
23748 On ch=2 n=d#4 v=0
23748 On ch=1 n=g5 v=0
23760 On ch=1 n=f5 v=90
23760 On ch=2 n=d4 v=90
23868 On ch=2 n=d4 v=0
23868 On ch=1 n=f5 v=0
23880 On ch=1 n=g5 v=90
23880 On ch=2 n=d#4 v=90
23988 On ch=2 n=d#4 v=0
23988 On ch=1 n=g5 v=0
24000 On ch=1 n=g#5 v=90
24000 On ch=2 n=c4 v=90
24108 On ch=2 n=c4 v=0
24108 On ch=1 n=g#5 v=0
24120 On ch=1 n=g5 v=90
24120 On ch=2 n=d#4 v=90
24228 On ch=2 n=d#4 v=0
24228 On ch=1 n=g5 v=0
24240 On ch=1 n=f5 v=90
24240 On ch=2 n=d4 v=90
24348 On ch=2 n=d4 v=0
24348 On ch=1 n=f5 v=0
24360 On ch=1 n=g5 v=90
24360 On ch=2 n=d#4 v=90
24468 On ch=2 n=d#4 v=0
24468 On ch=1 n=g5 v=0
24480 On ch=1 n=d#5 v=90
24480 On ch=2 n=g#4 v=90
24588 On ch=2 n=g#4 v=0
24588 On ch=1 n=d#5 v=0
24600 On ch=1 n=g5 v=90
24600 On ch=2 n=d#4 v=90
24708 On ch=2 n=d#4 v=0
24708 On ch=1 n=g5 v=0
24720 On ch=1 n=f5 v=90
24720 On ch=2 n=d4 v=90
24828 On ch=2 n=d4 v=0
24828 On ch=1 n=f5 v=0
24840 On ch=1 n=g5 v=90
24840 On ch=2 n=d#4 v=90
24948 On ch=2 n=d#4 v=0
24948 On ch=1 n=g5 v=0
24960 On ch=1 n=g#5 v=90
24960 On ch=2 n=d4 v=90
25068 On ch=2 n=d4 v=0
25068 On ch=1 n=g#5 v=0
25080 On ch=1 n=d5 v=90
25080 On ch=2 n=f4 v=90
25188 On ch=2 n=f4 v=0
25188 On ch=1 n=d5 v=0
25200 On ch=1 n=c5 v=90
25200 On ch=2 n=d#4 v=90
25308 On ch=2 n=d#4 v=0
25308 On ch=1 n=c5 v=0
25320 On ch=1 n=d5 v=90
25320 On ch=2 n=f4 v=90
25428 On ch=2 n=f4 v=0
25428 On ch=1 n=d5 v=0
25440 On ch=1 n=a#4 v=90
25440 On ch=2 n=g#4 v=90
25548 On ch=2 n=g#4 v=0
25548 On ch=1 n=a#4 v=0
25560 On ch=1 n=d5 v=90
25560 On ch=2 n=f4 v=90
25668 On ch=2 n=f4 v=0
25668 On ch=1 n=d5 v=0
25680 On ch=1 n=c5 v=90
25680 On ch=2 n=d#4 v=90
25788 On ch=2 n=d#4 v=0
25788 On ch=1 n=c5 v=0
25800 On ch=1 n=d5 v=90
25800 On ch=2 n=f4 v=90
25908 On ch=2 n=f4 v=0
25908 On ch=1 n=d5 v=0
25920 On ch=1 n=g#5 v=90
25920 On ch=2 n=d4 v=90
26028 On ch=2 n=d4 v=0
26028 On ch=1 n=g#5 v=0
26040 On ch=1 n=d5 v=90
26040 On ch=2 n=f4 v=90
26148 On ch=2 n=f4 v=0
26148 On ch=1 n=d5 v=0
26160 On ch=1 n=c5 v=90
26160 On ch=2 n=d#4 v=90
26268 On ch=2 n=d#4 v=0
26268 On ch=1 n=c5 v=0
26280 On ch=1 n=d5 v=90
26280 On ch=2 n=f4 v=90
26388 On ch=2 n=f4 v=0
26388 On ch=1 n=d5 v=0
26400 On ch=1 n=a#4 v=90
26400 On ch=2 n=g#4 v=90
26508 On ch=2 n=g#4 v=0
26508 On ch=1 n=a#4 v=0
26520 On ch=1 n=d5 v=90
26520 On ch=2 n=f4 v=90
26628 On ch=2 n=f4 v=0
26628 On ch=1 n=d5 v=0
26640 On ch=1 n=c5 v=90
26640 On ch=2 n=d#4 v=90
26748 On ch=2 n=d#4 v=0
26748 On ch=1 n=c5 v=0
26760 On ch=1 n=d5 v=90
26760 On ch=2 n=f4 v=90
26868 On ch=2 n=f4 v=0
26868 On ch=1 n=d5 v=0
26880 On ch=1 n=g5 v=90
26880 On ch=2 n=d#4 v=90
26988 On ch=2 n=d#4 v=0
26988 On ch=1 n=g5 v=0
27000 On ch=1 n=a#4 v=90
27000 On ch=2 n=g4 v=90
27108 On ch=2 n=g4 v=0
27108 On ch=1 n=a#4 v=0
27120 On ch=1 n=g#4 v=90
27120 On ch=2 n=f4 v=90
27228 On ch=2 n=f4 v=0
27228 On ch=1 n=g#4 v=0
27240 On ch=1 n=a#4 v=90
27240 On ch=2 n=g4 v=90
27348 On ch=2 n=g4 v=0
27348 On ch=1 n=a#4 v=0
27360 On ch=1 n=d#5 v=90
27360 On ch=2 n=g#4 v=90
27468 On ch=2 n=g#4 v=0
27468 On ch=1 n=d#5 v=0
27480 On ch=1 n=a#4 v=90
27480 On ch=2 n=g4 v=90
27588 On ch=2 n=g4 v=0
27588 On ch=1 n=a#4 v=0
27600 On ch=1 n=g#4 v=90
27600 On ch=2 n=f4 v=90
27708 On ch=2 n=f4 v=0
27708 On ch=1 n=g#4 v=0
27720 On ch=1 n=a#4 v=90
27720 On ch=2 n=g4 v=90
27828 On ch=2 n=g4 v=0
27828 On ch=1 n=a#4 v=0
27840 On ch=1 n=g5 v=90
27840 On ch=2 n=d#4 v=90
27948 On ch=2 n=d#4 v=0
27948 On ch=1 n=g5 v=0
27960 On ch=1 n=a#4 v=90
27960 On ch=2 n=g4 v=90
28068 On ch=2 n=g4 v=0
28068 On ch=1 n=a#4 v=0
28080 On ch=1 n=g#4 v=90
28080 On ch=2 n=f4 v=90
28188 On ch=2 n=f4 v=0
28188 On ch=1 n=g#4 v=0
28200 On ch=1 n=a#4 v=90
28200 On ch=2 n=g4 v=90
28308 On ch=2 n=g4 v=0
28308 On ch=1 n=a#4 v=0
28320 On ch=1 n=d#5 v=90
28320 On ch=2 n=g#4 v=90
28428 On ch=2 n=g#4 v=0
28428 On ch=1 n=d#5 v=0
28440 On ch=1 n=a#4 v=90
28440 On ch=2 n=g4 v=90
28548 On ch=2 n=g4 v=0
28548 On ch=1 n=a#4 v=0
28560 On ch=1 n=g#4 v=90
28560 On ch=2 n=f4 v=90
28668 On ch=2 n=f4 v=0
28668 On ch=1 n=g#4 v=0
28680 On ch=1 n=a#4 v=90
28680 On ch=2 n=g4 v=90
28788 On ch=2 n=g4 v=0
28788 On ch=1 n=a#4 v=0
28800 On ch=1 n=f5 v=90
28800 On ch=2 n=d#4 v=90
28908 On ch=2 n=d#4 v=0
28908 On ch=1 n=f5 v=0
28920 On ch=1 n=c5 v=90
28920 On ch=2 n=a4 v=90
29028 On ch=2 n=a4 v=0
29028 On ch=1 n=c5 v=0
29040 On ch=1 n=a#4 v=90
29040 On ch=2 n=g4 v=90
29148 On ch=2 n=g4 v=0
29148 On ch=1 n=a#4 v=0
29160 On ch=1 n=c5 v=90
29160 On ch=2 n=a4 v=90
29268 On ch=2 n=a4 v=0
29268 On ch=1 n=c5 v=0
29280 On ch=1 n=a4 v=90
29280 On ch=2 n=f4 v=90
29388 On ch=2 n=f4 v=0
29388 On ch=1 n=a4 v=0
29400 On ch=1 n=c5 v=90
29400 On ch=2 n=a4 v=90
29508 On ch=2 n=a4 v=0
29508 On ch=1 n=c5 v=0
29520 On ch=1 n=a#4 v=90
29520 On ch=2 n=g4 v=90
29628 On ch=2 n=g4 v=0
29628 On ch=1 n=a#4 v=0
29640 On ch=1 n=c5 v=90
29640 On ch=2 n=a4 v=90
29748 On ch=2 n=a4 v=0
29748 On ch=1 n=c5 v=0
29760 On ch=1 n=f5 v=90
29760 On ch=2 n=d#4 v=90
29868 On ch=2 n=d#4 v=0
29868 On ch=1 n=f5 v=0
29880 On ch=1 n=c5 v=90
29880 On ch=2 n=a4 v=90
29988 On ch=2 n=a4 v=0
29988 On ch=1 n=c5 v=0
30000 On ch=1 n=a#4 v=90
30000 On ch=2 n=g4 v=90
30108 On ch=2 n=g4 v=0
30108 On ch=1 n=a#4 v=0
30120 On ch=1 n=c5 v=90
30120 On ch=2 n=a4 v=90
30228 On ch=2 n=a4 v=0
30228 On ch=1 n=c5 v=0
30240 On ch=1 n=a4 v=90
30240 On ch=2 n=f4 v=90
30348 On ch=2 n=f4 v=0
30348 On ch=1 n=a4 v=0
30360 On ch=1 n=c5 v=90
30360 On ch=2 n=a4 v=90
30468 On ch=2 n=a4 v=0
30468 On ch=1 n=c5 v=0
30480 On ch=1 n=a#4 v=90
30480 On ch=2 n=g4 v=90
30588 On ch=2 n=g4 v=0
30588 On ch=1 n=a#4 v=0
30600 On ch=1 n=c5 v=90
30600 On ch=2 n=a4 v=90
30708 On ch=2 n=a4 v=0
30708 On ch=1 n=c5 v=0
30720 On ch=1 n=f5 v=90
30720 On ch=2 n=d4 v=90
30828 On ch=2 n=d4 v=0
30828 On ch=1 n=f5 v=0
30840 On ch=1 n=d5 v=90
30840 On ch=2 n=f4 v=90
30948 On ch=2 n=f4 v=0
30948 On ch=1 n=d5 v=0
30960 On ch=1 n=c5 v=90
30960 On ch=2 n=d#4 v=90
31068 On ch=2 n=d#4 v=0
31068 On ch=1 n=c5 v=0
31080 On ch=1 n=d5 v=90
31080 On ch=2 n=f4 v=90
31188 On ch=2 n=f4 v=0
31188 On ch=1 n=d5 v=0
31200 On ch=1 n=b4 v=90
31200 On ch=2 n=g#4 v=90
31308 On ch=2 n=g#4 v=0
31308 On ch=1 n=b4 v=0
31320 On ch=1 n=d5 v=90
31320 On ch=2 n=f4 v=90
31428 On ch=2 n=f4 v=0
31428 On ch=1 n=d5 v=0
31440 On ch=1 n=c5 v=90
31440 On ch=2 n=d#4 v=90
31548 On ch=2 n=d#4 v=0
31548 On ch=1 n=c5 v=0
31560 On ch=1 n=d5 v=90
31560 On ch=2 n=f4 v=90
31668 On ch=2 n=f4 v=0
31668 On ch=1 n=d5 v=0
31680 On ch=1 n=f5 v=90
31680 On ch=2 n=d4 v=90
31788 On ch=2 n=d4 v=0
31788 On ch=1 n=f5 v=0
31800 On ch=1 n=d5 v=90
31800 On ch=2 n=f4 v=90
31908 On ch=2 n=f4 v=0
31908 On ch=1 n=d5 v=0
31920 On ch=1 n=c5 v=90
31920 On ch=2 n=d#4 v=90
32028 On ch=2 n=d#4 v=0
32028 On ch=1 n=c5 v=0
32040 On ch=1 n=d5 v=90
32040 On ch=2 n=f4 v=90
32148 On ch=2 n=f4 v=0
32148 On ch=1 n=d5 v=0
32160 On ch=1 n=b4 v=90
32160 On ch=2 n=g#4 v=90
32268 On ch=2 n=g#4 v=0
32268 On ch=1 n=b4 v=0
32280 On ch=1 n=d5 v=90
32280 On ch=2 n=f4 v=90
32388 On ch=2 n=f4 v=0
32388 On ch=1 n=d5 v=0
32400 On ch=1 n=c5 v=90
32400 On ch=2 n=d#4 v=90
32508 On ch=2 n=d#4 v=0
32508 On ch=1 n=c5 v=0
32520 On ch=1 n=d5 v=90
32520 On ch=2 n=f4 v=90
32628 On ch=2 n=f4 v=0
32628 On ch=1 n=d5 v=0
32640 On ch=1 n=f5 v=90
32640 On ch=2 n=c4 v=90
32748 On ch=2 n=c4 v=0
32748 On ch=1 n=f5 v=0
32760 On ch=1 n=d5 v=90
32760 On ch=2 n=f4 v=90
32868 On ch=2 n=f4 v=0
32868 On ch=1 n=d5 v=0
32880 On ch=1 n=c5 v=90
32880 On ch=2 n=e4 v=90
32988 On ch=2 n=e4 v=0
32988 On ch=1 n=c5 v=0
33000 On ch=1 n=d5 v=90
33000 On ch=2 n=f4 v=90
33108 On ch=2 n=f4 v=0
33108 On ch=1 n=d5 v=0
33120 On ch=1 n=b4 v=90
33120 On ch=2 n=g#4 v=90
33228 On ch=2 n=g#4 v=0
33228 On ch=1 n=b4 v=0
33240 On ch=1 n=d5 v=90
33240 On ch=2 n=f4 v=90
33348 On ch=2 n=f4 v=0
33348 On ch=1 n=d5 v=0
33360 On ch=1 n=c5 v=90
33360 On ch=2 n=e4 v=90
33468 On ch=2 n=e4 v=0
33468 On ch=1 n=c5 v=0
33480 On ch=1 n=d5 v=90
33480 On ch=2 n=f4 v=90
33588 On ch=2 n=f4 v=0
33588 On ch=1 n=d5 v=0
33600 On ch=1 n=f5 v=90
33600 On ch=2 n=c4 v=90
33708 On ch=2 n=c4 v=0
33708 On ch=1 n=f5 v=0
33720 On ch=1 n=d5 v=90
33720 On ch=2 n=f4 v=90
33828 On ch=2 n=f4 v=0
33828 On ch=1 n=d5 v=0
33840 On ch=1 n=c5 v=90
33840 On ch=2 n=e4 v=90
33948 On ch=2 n=e4 v=0
33948 On ch=1 n=c5 v=0
33960 On ch=1 n=d5 v=90
33960 On ch=2 n=f4 v=90
34068 On ch=2 n=f4 v=0
34068 On ch=1 n=d5 v=0
34080 On ch=1 n=b4 v=90
34080 On ch=2 n=g#4 v=90
34188 On ch=2 n=g#4 v=0
34188 On ch=1 n=b4 v=0
34200 On ch=1 n=d5 v=90
34200 On ch=2 n=f4 v=90
34308 On ch=2 n=f4 v=0
34308 On ch=1 n=d5 v=0
34320 On ch=1 n=c5 v=90
34320 On ch=2 n=e4 v=90
34428 On ch=2 n=e4 v=0
34428 On ch=1 n=c5 v=0
34440 On ch=1 n=d5 v=90
34440 On ch=2 n=f4 v=90
34548 On ch=2 n=f4 v=0
34548 On ch=1 n=d5 v=0
34560 On ch=1 n=d#5 v=90
34560 On ch=2 n=c4 v=90
34668 On ch=2 n=c4 v=0
34668 On ch=1 n=d#5 v=0
34680 On ch=1 n=c5 v=90
34680 On ch=2 n=d#4 v=90
34788 On ch=2 n=d#4 v=0
34788 On ch=1 n=c5 v=0
34800 On ch=1 n=b4 v=90
34800 On ch=2 n=d4 v=90
34908 On ch=2 n=d4 v=0
34908 On ch=1 n=b4 v=0
34920 On ch=1 n=c5 v=90
34920 On ch=2 n=d#4 v=90
35028 On ch=2 n=d#4 v=0
35028 On ch=1 n=c5 v=0
35040 On ch=1 n=g4 v=90
35040 On ch=2 n=f4 v=90
35148 On ch=2 n=f4 v=0
35148 On ch=1 n=g4 v=0
35160 On ch=1 n=c5 v=90
35160 On ch=2 n=d#4 v=90
35268 On ch=2 n=d#4 v=0
35268 On ch=1 n=c5 v=0
35280 On ch=1 n=b4 v=90
35280 On ch=2 n=d4 v=90
35388 On ch=2 n=d4 v=0
35388 On ch=1 n=b4 v=0
35400 On ch=1 n=c5 v=90
35400 On ch=2 n=d#4 v=90
35508 On ch=2 n=d#4 v=0
35508 On ch=1 n=c5 v=0
35520 On ch=1 n=d#5 v=90
35520 On ch=2 n=c4 v=90
35628 On ch=2 n=c4 v=0
35628 On ch=1 n=d#5 v=0
35640 On ch=1 n=c5 v=90
35640 On ch=2 n=d#4 v=90
35748 On ch=2 n=d#4 v=0
35748 On ch=1 n=c5 v=0
35760 On ch=1 n=b4 v=90
35760 On ch=2 n=d4 v=90
35868 On ch=2 n=d4 v=0
35868 On ch=1 n=b4 v=0
35880 On ch=1 n=c5 v=90
35880 On ch=2 n=d#4 v=90
35988 On ch=2 n=d#4 v=0
35988 On ch=1 n=c5 v=0
36000 On ch=1 n=g4 v=90
36000 On ch=2 n=f4 v=90
36108 On ch=2 n=f4 v=0
36108 On ch=1 n=g4 v=0
36120 On ch=1 n=c5 v=90
36120 On ch=2 n=d#4 v=90
36228 On ch=2 n=d#4 v=0
36228 On ch=1 n=c5 v=0
36240 On ch=1 n=b4 v=90
36240 On ch=2 n=d4 v=90
36348 On ch=2 n=d4 v=0
36348 On ch=1 n=b4 v=0
36360 On ch=1 n=c5 v=90
36360 On ch=2 n=d#4 v=90
36468 On ch=2 n=d#4 v=0
36468 On ch=1 n=c5 v=0
36480 On ch=1 n=f4 v=90
36480 On ch=2 n=g#3 v=90
36588 On ch=2 n=g#3 v=0
36588 On ch=1 n=f4 v=0
36600 On ch=1 n=d#5 v=90
36600 On ch=2 n=c4 v=90
36708 On ch=2 n=c4 v=0
36708 On ch=1 n=d#5 v=0
36720 On ch=1 n=d5 v=90
36720 On ch=2 n=b3 v=90
36828 On ch=2 n=b3 v=0
36828 On ch=1 n=d5 v=0
36840 On ch=1 n=d#5 v=90
36840 On ch=2 n=c4 v=90
36948 On ch=2 n=c4 v=0
36948 On ch=1 n=d#5 v=0
36960 On ch=1 n=f5 v=90
36960 On ch=2 n=d4 v=90
37068 On ch=2 n=d4 v=0
37068 On ch=1 n=f5 v=0
37080 On ch=1 n=d#5 v=90
37080 On ch=2 n=c4 v=90
37188 On ch=2 n=c4 v=0
37188 On ch=1 n=d#5 v=0
37200 On ch=1 n=d5 v=90
37200 On ch=2 n=b3 v=90
37308 On ch=2 n=b3 v=0
37308 On ch=1 n=d5 v=0
37320 On ch=1 n=d#5 v=90
37320 On ch=2 n=c4 v=90
37428 On ch=2 n=c4 v=0
37428 On ch=1 n=d#5 v=0
37440 On ch=1 n=f4 v=90
37440 On ch=2 n=g#3 v=90
37548 On ch=2 n=g#3 v=0
37548 On ch=1 n=f4 v=0
37560 On ch=1 n=d#5 v=90
37560 On ch=2 n=c4 v=90
37668 On ch=2 n=c4 v=0
37668 On ch=1 n=d#5 v=0
37680 On ch=1 n=d5 v=90
37680 On ch=2 n=b3 v=90
37788 On ch=2 n=b3 v=0
37788 On ch=1 n=d5 v=0
37800 On ch=1 n=d#5 v=90
37800 On ch=2 n=c4 v=90
37908 On ch=2 n=c4 v=0
37908 On ch=1 n=d#5 v=0
37920 On ch=1 n=f5 v=90
37920 On ch=2 n=d4 v=90
38028 On ch=2 n=d4 v=0
38028 On ch=1 n=f5 v=0
38040 On ch=1 n=d#5 v=90
38040 On ch=2 n=c4 v=90
38148 On ch=2 n=c4 v=0
38148 On ch=1 n=d#5 v=0
38160 On ch=1 n=d5 v=90
38160 On ch=2 n=b3 v=90
38268 On ch=2 n=b3 v=0
38268 On ch=1 n=d5 v=0
38280 On ch=1 n=d#5 v=90
38280 On ch=2 n=c4 v=90
38388 On ch=2 n=c4 v=0
38388 On ch=1 n=d#5 v=0
38400 On ch=1 n=f#4 v=90
38400 On ch=2 n=a3 v=90
38508 On ch=2 n=a3 v=0
38508 On ch=1 n=f#4 v=0
38520 On ch=1 n=c5 v=90
38520 On ch=2 n=d#4 v=90
38628 On ch=2 n=d#4 v=0
38628 On ch=1 n=c5 v=0
38640 On ch=1 n=b4 v=90
38640 On ch=2 n=d4 v=90
38748 On ch=2 n=d4 v=0
38748 On ch=1 n=b4 v=0
38760 On ch=1 n=c5 v=90
38760 On ch=2 n=d#4 v=90
38868 On ch=2 n=d#4 v=0
38868 On ch=1 n=c5 v=0
38880 On ch=1 n=d#5 v=90
38880 On ch=2 n=c4 v=90
38988 On ch=2 n=c4 v=0
38988 On ch=1 n=d#5 v=0
39000 On ch=1 n=c5 v=90
39000 On ch=2 n=d#4 v=90
39108 On ch=2 n=d#4 v=0
39108 On ch=1 n=c5 v=0
39120 On ch=1 n=b4 v=90
39120 On ch=2 n=d4 v=90
39228 On ch=2 n=d4 v=0
39228 On ch=1 n=b4 v=0
39240 On ch=1 n=c5 v=90
39240 On ch=2 n=d#4 v=90
39348 On ch=2 n=d#4 v=0
39348 On ch=1 n=c5 v=0
39360 On ch=1 n=f#4 v=90
39360 On ch=2 n=a3 v=90
39468 On ch=2 n=a3 v=0
39468 On ch=1 n=f#4 v=0
39480 On ch=1 n=c5 v=90
39480 On ch=2 n=d#4 v=90
39588 On ch=2 n=d#4 v=0
39588 On ch=1 n=c5 v=0
39600 On ch=1 n=b4 v=90
39600 On ch=2 n=d4 v=90
39708 On ch=2 n=d4 v=0
39708 On ch=1 n=b4 v=0
39720 On ch=1 n=c5 v=90
39720 On ch=2 n=d#4 v=90
39828 On ch=2 n=d#4 v=0
39828 On ch=1 n=c5 v=0
39840 On ch=1 n=d#5 v=90
39840 On ch=2 n=c4 v=90
39948 On ch=2 n=c4 v=0
39948 On ch=1 n=d#5 v=0
39960 On ch=1 n=c5 v=90
39960 On ch=2 n=d#4 v=90
40068 On ch=2 n=d#4 v=0
40068 On ch=1 n=c5 v=0
40080 On ch=1 n=b4 v=90
40080 On ch=2 n=d4 v=90
40188 On ch=2 n=d4 v=0
40188 On ch=1 n=b4 v=0
40200 On ch=1 n=c5 v=90
40200 On ch=2 n=d#4 v=90
40308 On ch=2 n=d#4 v=0
40308 On ch=1 n=c5 v=0
40320 On ch=1 n=d#5 v=90
40320 On ch=2 n=g3 v=90
40428 On ch=2 n=g3 v=0
40428 On ch=1 n=d#5 v=0
40440 On ch=1 n=c5 v=90
40440 On ch=2 n=d#4 v=90
40548 On ch=2 n=d#4 v=0
40548 On ch=1 n=c5 v=0
40560 On ch=1 n=b4 v=90
40560 On ch=2 n=d4 v=90
40668 On ch=2 n=d4 v=0
40668 On ch=1 n=b4 v=0
40680 On ch=1 n=c5 v=90
40680 On ch=2 n=d#4 v=90
40788 On ch=2 n=d#4 v=0
40788 On ch=1 n=c5 v=0
40800 On ch=1 n=g4 v=90
40800 On ch=2 n=f4 v=90
40908 On ch=2 n=f4 v=0
40908 On ch=1 n=g4 v=0
40920 On ch=1 n=c5 v=90
40920 On ch=2 n=d#4 v=90
41028 On ch=2 n=d#4 v=0
41028 On ch=1 n=c5 v=0
41040 On ch=1 n=b4 v=90
41040 On ch=2 n=d4 v=90
41148 On ch=2 n=d4 v=0
41148 On ch=1 n=b4 v=0
41160 On ch=1 n=c5 v=90
41160 On ch=2 n=d#4 v=90
41268 On ch=2 n=d#4 v=0
41268 On ch=1 n=c5 v=0
41280 On ch=1 n=d#5 v=90
41280 On ch=2 n=g3 v=90
41388 On ch=2 n=g3 v=0
41388 On ch=1 n=d#5 v=0
41400 On ch=1 n=c5 v=90
41400 On ch=2 n=d#4 v=90
41508 On ch=2 n=d#4 v=0
41508 On ch=1 n=c5 v=0
41520 On ch=1 n=b4 v=90
41520 On ch=2 n=d4 v=90
41628 On ch=2 n=d4 v=0
41628 On ch=1 n=b4 v=0
41640 On ch=1 n=c5 v=90
41640 On ch=2 n=d#4 v=90
41748 On ch=2 n=d#4 v=0
41748 On ch=1 n=c5 v=0
41760 On ch=1 n=g4 v=90
41760 On ch=2 n=f4 v=90
41868 On ch=2 n=f4 v=0
41868 On ch=1 n=g4 v=0
41880 On ch=1 n=c5 v=90
41880 On ch=2 n=d#4 v=90
41988 On ch=2 n=d#4 v=0
41988 On ch=1 n=c5 v=0
42000 On ch=1 n=b4 v=90
42000 On ch=2 n=d4 v=90
42108 On ch=2 n=d4 v=0
42108 On ch=1 n=b4 v=0
42120 On ch=1 n=c5 v=90
42120 On ch=2 n=d#4 v=90
42228 On ch=2 n=d#4 v=0
42228 On ch=1 n=c5 v=0
42240 On ch=1 n=f#5 v=90
42240 On ch=2 n=g3 v=90
42348 On ch=2 n=g3 v=0
42348 On ch=1 n=f#5 v=0
42360 On ch=1 n=c5 v=90
42360 On ch=2 n=d#4 v=90
42468 On ch=2 n=d#4 v=0
42468 On ch=1 n=c5 v=0
42480 On ch=1 n=b4 v=90
42480 On ch=2 n=d4 v=90
42588 On ch=2 n=d4 v=0
42588 On ch=1 n=b4 v=0
42600 On ch=1 n=c5 v=90
42600 On ch=2 n=d#4 v=90
42708 On ch=2 n=d#4 v=0
42708 On ch=1 n=c5 v=0
42720 On ch=1 n=a4 v=90
42720 On ch=2 n=c4 v=90
42828 On ch=2 n=c4 v=0
42828 On ch=1 n=a4 v=0
42840 On ch=1 n=c5 v=90
42840 On ch=2 n=d#4 v=90
42948 On ch=2 n=d#4 v=0
42948 On ch=1 n=c5 v=0
42960 On ch=1 n=b4 v=90
42960 On ch=2 n=d4 v=90
43068 On ch=2 n=d4 v=0
43068 On ch=1 n=b4 v=0
43080 On ch=1 n=c5 v=90
43080 On ch=2 n=d#4 v=90
43188 On ch=2 n=d#4 v=0
43188 On ch=1 n=c5 v=0
43200 On ch=1 n=f#5 v=90
43200 On ch=2 n=g3 v=90
43308 On ch=2 n=g3 v=0
43308 On ch=1 n=f#5 v=0
43320 On ch=1 n=c5 v=90
43320 On ch=2 n=d#4 v=90
43428 On ch=2 n=d#4 v=0
43428 On ch=1 n=c5 v=0
43440 On ch=1 n=b4 v=90
43440 On ch=2 n=d4 v=90
43548 On ch=2 n=d4 v=0
43548 On ch=1 n=b4 v=0
43560 On ch=1 n=c5 v=90
43560 On ch=2 n=d#4 v=90
43668 On ch=2 n=d#4 v=0
43668 On ch=1 n=c5 v=0
43680 On ch=1 n=a4 v=90
43680 On ch=2 n=c4 v=90
43788 On ch=2 n=c4 v=0
43788 On ch=1 n=a4 v=0
43800 On ch=1 n=c5 v=90
43800 On ch=2 n=d#4 v=90
43908 On ch=2 n=d#4 v=0
43908 On ch=1 n=c5 v=0
43920 On ch=1 n=b4 v=90
43920 On ch=2 n=d4 v=90
44028 On ch=2 n=d4 v=0
44028 On ch=1 n=b4 v=0
44040 On ch=1 n=c5 v=90
44040 On ch=2 n=d#4 v=90
44148 On ch=2 n=d#4 v=0
44148 On ch=1 n=c5 v=0
44160 On ch=1 n=g5 v=90
44160 On ch=2 n=g3 v=90
44268 On ch=2 n=g3 v=0
44268 On ch=1 n=g5 v=0
44280 On ch=1 n=c5 v=90
44280 On ch=2 n=d#4 v=90
44388 On ch=2 n=d#4 v=0
44388 On ch=1 n=c5 v=0
44400 On ch=1 n=b4 v=90
44400 On ch=2 n=d4 v=90
44508 On ch=2 n=d4 v=0
44508 On ch=1 n=b4 v=0
44520 On ch=1 n=c5 v=90
44520 On ch=2 n=d#4 v=90
44628 On ch=2 n=d#4 v=0
44628 On ch=1 n=c5 v=0
44640 On ch=1 n=d5 v=90
44640 On ch=2 n=f4 v=90
44748 On ch=2 n=f4 v=0
44748 On ch=1 n=d5 v=0
44760 On ch=1 n=c5 v=90
44760 On ch=2 n=d#4 v=90
44868 On ch=2 n=d#4 v=0
44868 On ch=1 n=c5 v=0
44880 On ch=1 n=b4 v=90
44880 On ch=2 n=d4 v=90
44988 On ch=2 n=d4 v=0
44988 On ch=1 n=b4 v=0
45000 On ch=1 n=c5 v=90
45000 On ch=2 n=d#4 v=90
45108 On ch=2 n=d#4 v=0
45108 On ch=1 n=c5 v=0
45120 On ch=1 n=g5 v=90
45120 On ch=2 n=g3 v=90
45228 On ch=2 n=g3 v=0
45228 On ch=1 n=g5 v=0
45240 On ch=1 n=c5 v=90
45240 On ch=2 n=d#4 v=90
45348 On ch=2 n=d#4 v=0
45348 On ch=1 n=c5 v=0
45360 On ch=1 n=b4 v=90
45360 On ch=2 n=d4 v=90
45468 On ch=2 n=d4 v=0
45468 On ch=1 n=b4 v=0
45480 On ch=1 n=c5 v=90
45480 On ch=2 n=d#4 v=90
45588 On ch=2 n=d#4 v=0
45588 On ch=1 n=c5 v=0
45600 On ch=1 n=d5 v=90
45600 On ch=2 n=f4 v=90
45708 On ch=2 n=f4 v=0
45708 On ch=1 n=d5 v=0
45720 On ch=1 n=c5 v=90
45720 On ch=2 n=d#4 v=90
45828 On ch=2 n=d#4 v=0
45828 On ch=1 n=c5 v=0
45840 On ch=1 n=b4 v=90
45840 On ch=2 n=d4 v=90
45948 On ch=2 n=d4 v=0
45948 On ch=1 n=b4 v=0
45960 On ch=1 n=c5 v=90
45960 On ch=2 n=d#4 v=90
46068 On ch=2 n=d#4 v=0
46068 On ch=1 n=c5 v=0
46080 On ch=1 n=g#5 v=90
46080 On ch=2 n=g3 v=90
46188 On ch=2 n=g3 v=0
46188 On ch=1 n=g#5 v=0
46200 On ch=1 n=c5 v=90
46200 On ch=2 n=d#4 v=90
46308 On ch=2 n=d#4 v=0
46308 On ch=1 n=c5 v=0
46320 On ch=1 n=b4 v=90
46320 On ch=2 n=d4 v=90
46428 On ch=2 n=d4 v=0
46428 On ch=1 n=b4 v=0
46440 On ch=1 n=c5 v=90
46440 On ch=2 n=d#4 v=90
46548 On ch=2 n=d#4 v=0
46548 On ch=1 n=c5 v=0
46560 On ch=1 n=d5 v=90
46560 On ch=2 n=f4 v=90
46668 On ch=2 n=f4 v=0
46668 On ch=1 n=d5 v=0
46680 On ch=1 n=c5 v=90
46680 On ch=2 n=d#4 v=90
46788 On ch=2 n=d#4 v=0
46788 On ch=1 n=c5 v=0
46800 On ch=1 n=b4 v=90
46800 On ch=2 n=d4 v=90
46908 On ch=2 n=d4 v=0
46908 On ch=1 n=b4 v=0
46920 On ch=1 n=c5 v=90
46920 On ch=2 n=d#4 v=90
47028 On ch=2 n=d#4 v=0
47028 On ch=1 n=c5 v=0
47040 On ch=1 n=g#5 v=90
47040 On ch=2 n=g3 v=90
47148 On ch=2 n=g3 v=0
47148 On ch=1 n=g#5 v=0
47160 On ch=1 n=c5 v=90
47160 On ch=2 n=d#4 v=90
47268 On ch=2 n=d#4 v=0
47268 On ch=1 n=c5 v=0
47280 On ch=1 n=b4 v=90
47280 On ch=2 n=d4 v=90
47388 On ch=2 n=d4 v=0
47388 On ch=1 n=b4 v=0
47400 On ch=1 n=c5 v=90
47400 On ch=2 n=d#4 v=90
47508 On ch=2 n=d#4 v=0
47508 On ch=1 n=c5 v=0
47520 On ch=1 n=d5 v=90
47520 On ch=2 n=f4 v=90
47628 On ch=2 n=f4 v=0
47628 On ch=1 n=d5 v=0
47640 On ch=1 n=c5 v=90
47640 On ch=2 n=d#4 v=90
47748 On ch=2 n=d#4 v=0
47748 On ch=1 n=c5 v=0
47760 On ch=1 n=b4 v=90
47760 On ch=2 n=d4 v=90
47868 On ch=2 n=d4 v=0
47868 On ch=1 n=b4 v=0
47880 On ch=1 n=c5 v=90
47880 On ch=2 n=d#4 v=90
47988 On ch=2 n=d#4 v=0
47988 On ch=1 n=c5 v=0
48000 On ch=2 n=g3 v=90
48108 On ch=2 n=g3 v=0
48120 On ch=2 n=b3 v=90
48228 On ch=2 n=b3 v=0
48240 On ch=2 n=d4 v=90
48348 On ch=2 n=d4 v=0
48360 On ch=2 n=f4 v=90
48468 On ch=2 n=f4 v=0
48480 On ch=2 n=g#4 v=90
48588 On ch=2 n=g#4 v=0
48600 On ch=2 n=f4 v=90
48708 On ch=2 n=f4 v=0
48720 On ch=2 n=e4 v=90
48828 On ch=2 n=e4 v=0
48840 On ch=2 n=f4 v=90
48948 On ch=2 n=f4 v=0
48960 On ch=2 n=b4 v=90
49068 On ch=2 n=b4 v=0
49080 On ch=2 n=f4 v=90
49188 On ch=2 n=f4 v=0
49200 On ch=2 n=d5 v=90
49308 On ch=2 n=d5 v=0
49320 On ch=2 n=b4 v=90
49428 On ch=2 n=b4 v=0
49440 On ch=2 n=g#4 v=90
49548 On ch=2 n=g#4 v=0
49560 On ch=2 n=f4 v=90
49668 On ch=2 n=f4 v=0
49680 On ch=2 n=e4 v=90
49788 On ch=2 n=e4 v=0
49800 On ch=2 n=f4 v=90
49908 On ch=2 n=f4 v=0
49920 On ch=2 n=g3 v=90
50028 On ch=2 n=g3 v=0
50040 On ch=2 n=c4 v=90
50148 On ch=2 n=c4 v=0
50160 On ch=2 n=d#4 v=90
50268 On ch=2 n=d#4 v=0
50280 On ch=2 n=g4 v=90
50388 On ch=2 n=g4 v=0
50400 On ch=2 n=c5 v=90
50508 On ch=2 n=c5 v=0
50520 On ch=2 n=g4 v=90
50628 On ch=2 n=g4 v=0
50640 On ch=2 n=f#4 v=90
50748 On ch=2 n=f#4 v=0
50760 On ch=2 n=g4 v=90
50868 On ch=2 n=g4 v=0
50880 On ch=2 n=d#5 v=90
50988 On ch=2 n=d#5 v=0
51000 On ch=2 n=c5 v=90
51108 On ch=2 n=c5 v=0
51120 On ch=2 n=g5 v=90
51228 On ch=2 n=g5 v=0
51240 On ch=2 n=d#5 v=90
51348 On ch=2 n=d#5 v=0
51360 On ch=2 n=c5 v=90
51468 On ch=2 n=c5 v=0
51480 On ch=2 n=g#4 v=90
51588 On ch=2 n=g#4 v=0
51600 On ch=2 n=g4 v=90
51708 On ch=2 n=g4 v=0
51720 On ch=2 n=g#4 v=90
51828 On ch=2 n=g#4 v=0
51840 On ch=2 n=g3 v=90
51948 On ch=2 n=g3 v=0
51960 On ch=2 n=a3 v=90
52068 On ch=2 n=a3 v=0
52080 On ch=2 n=f#4 v=90
52188 On ch=2 n=f#4 v=0
52200 On ch=2 n=c5 v=90
52308 On ch=2 n=c5 v=0
52320 On ch=2 n=d#5 v=90
52428 On ch=2 n=d#5 v=0
52440 On ch=2 n=c5 v=90
52548 On ch=2 n=c5 v=0
52560 On ch=2 n=b4 v=90
52668 On ch=2 n=b4 v=0
52680 On ch=2 n=c5 v=90
52788 On ch=2 n=c5 v=0
52800 On ch=2 n=f#5 v=90
52908 On ch=2 n=f#5 v=0
52920 On ch=2 n=c5 v=90
53028 On ch=2 n=c5 v=0
53040 On ch=2 n=a5 v=90
53148 On ch=2 n=a5 v=0
53160 On ch=2 n=f#5 v=90
53268 On ch=2 n=f#5 v=0
53280 On ch=2 n=d#5 v=90
53388 On ch=2 n=d#5 v=0
53400 On ch=2 n=c5 v=90
53508 On ch=2 n=c5 v=0
53520 On ch=2 n=b4 v=90
53628 On ch=2 n=b4 v=0
53640 On ch=2 n=c5 v=90
53748 On ch=2 n=c5 v=0
53760 On ch=2 n=g3 v=90
53767 Tempo 461538
53880 On ch=1 n=d6 v=90
53988 On ch=1 n=d6 v=0
54000 On ch=1 n=c6 v=90
54108 On ch=1 n=c6 v=0
54120 On ch=1 n=d6 v=90
54228 On ch=1 n=d6 v=0
54240 On ch=1 n=d#6 v=90
54348 On ch=1 n=d#6 v=0
54360 On ch=1 n=c6 v=90
54468 On ch=1 n=c6 v=0
54480 On ch=1 n=b5 v=90
54588 On ch=1 n=b5 v=0
54600 On ch=1 n=c6 v=90
54708 On ch=1 n=c6 v=0
54720 On ch=1 n=a5 v=90
54828 On ch=1 n=a5 v=0
54840 On ch=1 n=c6 v=90
54948 On ch=1 n=c6 v=0
54960 On ch=1 n=b5 v=90
55068 On ch=1 n=b5 v=0
55080 On ch=1 n=c6 v=90
55188 On ch=1 n=c6 v=0
55200 On ch=1 n=d6 v=90
55308 On ch=1 n=d6 v=0
55320 On ch=1 n=b5 v=90
55428 On ch=1 n=b5 v=0
55440 On ch=1 n=a5 v=90
55548 On ch=1 n=a5 v=0
55560 On ch=1 n=b5 v=90
55660 On ch=2 n=g3 v=0
55668 On ch=1 n=b5 v=0
55680 On ch=1 n=g5 v=90
55680 On ch=2 n=g3 v=90
55788 On ch=2 n=g3 v=0
55788 On ch=1 n=g5 v=0
55800 On ch=1 n=b5 v=90
55800 On ch=2 n=d5 v=90
55908 On ch=2 n=d5 v=0
55908 On ch=1 n=b5 v=0
55920 On ch=1 n=a5 v=90
55920 On ch=2 n=c5 v=90
56028 On ch=2 n=c5 v=0
56028 On ch=1 n=a5 v=0
56040 On ch=1 n=b5 v=90
56040 On ch=2 n=d5 v=90
56148 On ch=2 n=d5 v=0
56148 On ch=1 n=b5 v=0
56160 On ch=1 n=c6 v=90
56160 On ch=2 n=d#5 v=90
56268 On ch=2 n=d#5 v=0
56268 On ch=1 n=c6 v=0
56280 On ch=1 n=a5 v=90
56280 On ch=2 n=c5 v=90
56388 On ch=2 n=c5 v=0
56388 On ch=1 n=a5 v=0
56400 On ch=1 n=g5 v=90
56400 On ch=2 n=b4 v=90
56508 On ch=2 n=b4 v=0
56508 On ch=1 n=g5 v=0
56520 On ch=1 n=a5 v=90
56520 On ch=2 n=c5 v=90
56628 On ch=2 n=c5 v=0
56628 On ch=1 n=a5 v=0
56640 On ch=1 n=f#5 v=90
56640 On ch=2 n=a4 v=90
56748 On ch=2 n=a4 v=0
56748 On ch=1 n=f#5 v=0
56760 On ch=1 n=a5 v=90
56760 On ch=2 n=c5 v=90
56868 On ch=2 n=c5 v=0
56868 On ch=1 n=a5 v=0
56880 On ch=1 n=g5 v=90
56880 On ch=2 n=b4 v=90
56988 On ch=2 n=b4 v=0
56988 On ch=1 n=g5 v=0
57000 On ch=1 n=a5 v=90
57000 On ch=2 n=c5 v=90
57108 On ch=2 n=c5 v=0
57108 On ch=1 n=a5 v=0
57120 On ch=1 n=b5 v=90
57120 On ch=2 n=d5 v=90
57228 On ch=2 n=d5 v=0
57228 On ch=1 n=b5 v=0
57240 On ch=1 n=g5 v=90
57240 On ch=2 n=b4 v=90
57348 On ch=2 n=b4 v=0
57348 On ch=1 n=g5 v=0
57360 On ch=1 n=f#5 v=90
57360 On ch=2 n=a4 v=90
57468 On ch=2 n=a4 v=0
57468 On ch=1 n=f#5 v=0
57480 On ch=1 n=g5 v=90
57480 On ch=2 n=b4 v=90
57588 On ch=2 n=b4 v=0
57588 On ch=1 n=g5 v=0
57600 On ch=1 n=d#5 v=90
57600 On ch=2 n=g4 v=90
57708 On ch=2 n=g4 v=0
57708 On ch=1 n=d#5 v=0
57720 On ch=1 n=g6 v=90
57720 On ch=2 n=b4 v=90
57828 On ch=2 n=b4 v=0
57828 On ch=1 n=g6 v=0
57840 On ch=1 n=f6 v=90
57840 On ch=2 n=a4 v=90
57948 On ch=2 n=a4 v=0
57948 On ch=1 n=f6 v=0
57960 On ch=1 n=g6 v=90
57960 On ch=2 n=b4 v=90
58068 On ch=2 n=b4 v=0
58068 On ch=1 n=g6 v=0
58080 On ch=1 n=a6 v=90
58080 On ch=2 n=c5 v=90
58188 On ch=2 n=c5 v=0
58188 On ch=1 n=a6 v=0
58200 On ch=1 n=f6 v=90
58200 On ch=2 n=g#4 v=90
58308 On ch=2 n=g#4 v=0
58308 On ch=1 n=f6 v=0
58320 On ch=1 n=d#6 v=90
58320 On ch=2 n=g4 v=90
58428 On ch=2 n=g4 v=0
58428 On ch=1 n=d#6 v=0
58440 On ch=1 n=f6 v=90
58440 On ch=2 n=g#4 v=90
58548 On ch=2 n=g#4 v=0
58548 On ch=1 n=f6 v=0
58560 On ch=1 n=d6 v=90
58560 On ch=2 n=f4 v=90
58668 On ch=2 n=f4 v=0
58668 On ch=1 n=d6 v=0
58680 On ch=1 n=f6 v=90
58680 On ch=2 n=a4 v=90
58788 On ch=2 n=a4 v=0
58788 On ch=1 n=f6 v=0
58800 On ch=1 n=d#6 v=90
58800 On ch=2 n=g4 v=90
58908 On ch=2 n=g4 v=0
58908 On ch=1 n=d#6 v=0
58920 On ch=1 n=f6 v=90
58920 On ch=2 n=a4 v=90
59028 On ch=2 n=a4 v=0
59028 On ch=1 n=f6 v=0
59040 On ch=1 n=g6 v=90
59040 On ch=2 n=b4 v=90
59148 On ch=2 n=b4 v=0
59148 On ch=1 n=g6 v=0
59160 On ch=1 n=d#6 v=90
59160 On ch=2 n=g4 v=90
59268 On ch=2 n=g4 v=0
59268 On ch=1 n=d#6 v=0
59280 On ch=1 n=d6 v=90
59280 On ch=2 n=f4 v=90
59388 On ch=2 n=f4 v=0
59388 On ch=1 n=d6 v=0
59400 On ch=1 n=d#6 v=90
59400 On ch=2 n=g4 v=90
59508 On ch=2 n=g4 v=0
59508 On ch=1 n=d#6 v=0
59520 On ch=1 n=c6 v=90
59520 On ch=2 n=d#4 v=90
59628 On ch=2 n=d#4 v=0
59628 On ch=1 n=c6 v=0
59640 On ch=1 n=d#6 v=90
59640 On ch=2 n=g5 v=90
59748 On ch=2 n=g5 v=0
59748 On ch=1 n=d#6 v=0
59760 On ch=1 n=d6 v=90
59760 On ch=2 n=f5 v=90
59868 On ch=2 n=f5 v=0
59868 On ch=1 n=d6 v=0
59880 On ch=1 n=d#6 v=90
59880 On ch=2 n=g5 v=90
59988 On ch=2 n=g5 v=0
59988 On ch=1 n=d#6 v=0
60000 On ch=1 n=f6 v=90
60000 On ch=2 n=g#5 v=90
60108 On ch=2 n=g#5 v=0
60108 On ch=1 n=f6 v=0
60120 On ch=1 n=d6 v=90
60120 On ch=2 n=f5 v=90
60228 On ch=2 n=f5 v=0
60228 On ch=1 n=d6 v=0
60240 On ch=1 n=c6 v=90
60240 On ch=2 n=d#5 v=90
60348 On ch=2 n=d#5 v=0
60348 On ch=1 n=c6 v=0
60360 On ch=1 n=d6 v=90
60360 On ch=2 n=f5 v=90
60468 On ch=2 n=f5 v=0
60468 On ch=1 n=d6 v=0
60480 On ch=1 n=b5 v=90
60480 On ch=2 n=d5 v=90
60588 On ch=2 n=d5 v=0
60588 On ch=1 n=b5 v=0
60600 On ch=1 n=d6 v=90
60600 On ch=2 n=f5 v=90
60708 On ch=2 n=f5 v=0
60708 On ch=1 n=d6 v=0
60720 On ch=1 n=c6 v=90
60720 On ch=2 n=d#5 v=90
60828 On ch=2 n=d#5 v=0
60828 On ch=1 n=c6 v=0
60840 On ch=1 n=d6 v=90
60840 On ch=2 n=f5 v=90
60948 On ch=2 n=f5 v=0
60948 On ch=1 n=d6 v=0
60960 On ch=1 n=d#6 v=90
60960 On ch=2 n=g5 v=90
61068 On ch=2 n=g5 v=0
61068 On ch=1 n=d#6 v=0
61080 On ch=1 n=c6 v=90
61080 On ch=2 n=d#5 v=90
61188 On ch=2 n=d#5 v=0
61188 On ch=1 n=c6 v=0
61200 On ch=1 n=b5 v=90
61200 On ch=2 n=d5 v=90
61308 On ch=2 n=d5 v=0
61308 On ch=1 n=b5 v=0
61320 On ch=1 n=c6 v=90
61320 On ch=2 n=d#5 v=90
61428 On ch=2 n=d#5 v=0
61428 On ch=1 n=c6 v=0
61440 On ch=1 n=g5 v=90
61440 On ch=2 n=c5 v=90
61548 On ch=2 n=c5 v=0
61548 On ch=1 n=g5 v=0
61560 On ch=1 n=c6 v=90
61560 On ch=2 n=d#5 v=90
61668 On ch=2 n=d#5 v=0
61668 On ch=1 n=c6 v=0
61680 On ch=1 n=b5 v=90
61680 On ch=2 n=d5 v=90
61788 On ch=2 n=d5 v=0
61788 On ch=1 n=b5 v=0
61800 On ch=1 n=c6 v=90
61800 On ch=2 n=d#5 v=90
61908 On ch=2 n=d#5 v=0
61908 On ch=1 n=c6 v=0
61920 On ch=1 n=g#5 v=90
61920 On ch=2 n=f5 v=90
62028 On ch=2 n=f5 v=0
62028 On ch=1 n=g#5 v=0
62040 On ch=1 n=f6 v=90
62040 On ch=2 n=d5 v=90
62148 On ch=2 n=d5 v=0
62148 On ch=1 n=f6 v=0
62160 On ch=1 n=d#6 v=90
62160 On ch=2 n=c5 v=90
62268 On ch=2 n=c5 v=0
62268 On ch=1 n=d#6 v=0
62280 On ch=1 n=f6 v=90
62280 On ch=2 n=d5 v=90
62388 On ch=2 n=d5 v=0
62388 On ch=1 n=f6 v=0
62400 On ch=1 n=g5 v=90
62400 On ch=2 n=d#5 v=90
62508 On ch=2 n=d#5 v=0
62508 On ch=1 n=g5 v=0
62520 On ch=1 n=d#6 v=90
62520 On ch=2 n=c5 v=90
62628 On ch=2 n=c5 v=0
62628 On ch=1 n=d#6 v=0
62640 On ch=1 n=d6 v=90
62640 On ch=2 n=b4 v=90
62748 On ch=2 n=b4 v=0
62748 On ch=1 n=d6 v=0
62760 On ch=1 n=d#6 v=90
62760 On ch=2 n=c5 v=90
62868 On ch=2 n=c5 v=0
62868 On ch=1 n=d#6 v=0
62880 On ch=1 n=f5 v=90
62880 On ch=2 n=d5 v=90
62988 On ch=2 n=d5 v=0
62988 On ch=1 n=f5 v=0
63000 On ch=1 n=d6 v=90
63000 On ch=2 n=b4 v=90
63108 On ch=2 n=b4 v=0
63108 On ch=1 n=d6 v=0
63120 On ch=1 n=c6 v=90
63120 On ch=2 n=a4 v=90
63228 On ch=2 n=a4 v=0
63228 On ch=1 n=c6 v=0
63240 On ch=1 n=d6 v=90
63240 On ch=2 n=b4 v=90
63348 On ch=2 n=b4 v=0
63348 On ch=1 n=d6 v=0
63360 On ch=1 n=d#5 v=90
63360 On ch=2 n=c5 v=90
63468 On ch=2 n=c5 v=0
63468 On ch=1 n=d#5 v=0
63480 On ch=1 n=c6 v=90
63480 On ch=2 n=d#5 v=90
63588 On ch=2 n=d#5 v=0
63588 On ch=1 n=c6 v=0
63600 On ch=1 n=b5 v=90
63600 On ch=2 n=d5 v=90
63708 On ch=2 n=d5 v=0
63708 On ch=1 n=b5 v=0
63720 On ch=1 n=c6 v=90
63720 On ch=2 n=d#5 v=90
63828 On ch=2 n=d#5 v=0
63828 On ch=1 n=c6 v=0
63840 On ch=1 n=g#5 v=90
63840 On ch=2 n=f4 v=90
63948 On ch=2 n=f4 v=0
63948 On ch=1 n=g#5 v=0
63960 On ch=1 n=f5 v=90
63960 On ch=2 n=d5 v=90
64068 On ch=2 n=d5 v=0
64068 On ch=1 n=f5 v=0
64080 On ch=1 n=d#5 v=90
64080 On ch=2 n=c5 v=90
64188 On ch=2 n=c5 v=0
64188 On ch=1 n=d#5 v=0
64200 On ch=1 n=f5 v=90
64200 On ch=2 n=d5 v=90
64308 On ch=2 n=d5 v=0
64308 On ch=1 n=f5 v=0
64320 On ch=1 n=g5 v=90
64320 On ch=2 n=d#4 v=90
64428 On ch=2 n=d#4 v=0
64428 On ch=1 n=g5 v=0
64440 On ch=1 n=d#5 v=90
64440 On ch=2 n=c5 v=90
64548 On ch=2 n=c5 v=0
64548 On ch=1 n=d#5 v=0
64560 On ch=1 n=d5 v=90
64560 On ch=2 n=b4 v=90
64668 On ch=2 n=b4 v=0
64668 On ch=1 n=d5 v=0
64680 On ch=1 n=d#5 v=90
64680 On ch=2 n=c5 v=90
64788 On ch=2 n=c5 v=0
64788 On ch=1 n=d#5 v=0
64800 On ch=1 n=f5 v=90
64800 On ch=2 n=d4 v=90
64908 On ch=2 n=d4 v=0
64908 On ch=1 n=f5 v=0
64920 On ch=1 n=d5 v=90
64920 On ch=2 n=b4 v=90
65028 On ch=2 n=b4 v=0
65028 On ch=1 n=d5 v=0
65040 On ch=1 n=c5 v=90
65040 On ch=2 n=a4 v=90
65148 On ch=2 n=a4 v=0
65148 On ch=1 n=c5 v=0
65160 On ch=1 n=d5 v=90
65160 On ch=2 n=b4 v=90
65268 On ch=2 n=b4 v=0
65268 On ch=1 n=d5 v=0
65280 Tempo 1250000
65280 On ch=1 n=e5 v=90
65280 On ch=1 n=c5 v=90
65280 On ch=2 n=b4 v=90
65280 On ch=2 n=g4 v=90
65280 On ch=2 n=c4 v=90
65517 On ch=1 n=c5 v=0
65517 On ch=1 n=e5 v=0
65520 On ch=1 n=e5 v=90
65579 On ch=1 n=e5 v=0
65580 On ch=1 n=c5 v=90
65639 On ch=1 n=c5 v=0
65640 On ch=1 n=d5 v=90
65699 On ch=1 n=d5 v=0
65700 On ch=1 n=e5 v=90
65712 On ch=2 n=c4 v=0
65712 On ch=2 n=g4 v=0
65712 On ch=2 n=b4 v=0
65759 On ch=1 n=e5 v=0
65760 On ch=1 n=f5 v=90
65789 On ch=1 n=f5 v=0
65800 On ch=1 n=g5 v=90
65829 On ch=1 n=g5 v=0
65840 On ch=1 n=g#5 v=90
65869 On ch=1 n=g#5 v=0
65880 On ch=1 n=a#5 v=90
65909 On ch=1 n=a#5 v=0
65920 On ch=1 n=c6 v=90
65949 On ch=1 n=c6 v=0
65960 On ch=1 n=a#5 v=90
65989 On ch=1 n=a#5 v=0
66000 On ch=1 n=g#5 v=90
66029 On ch=1 n=g#5 v=0
66040 On ch=1 n=g5 v=90
66069 On ch=1 n=g5 v=0
66080 On ch=1 n=f5 v=90
66160 On ch=1 n=g5 v=90
66198 On ch=1 n=f5 v=0
66200 On ch=1 n=e5 v=90
66219 On ch=1 n=g5 v=0
66240 On ch=1 n=f5 v=90
66240 On ch=1 n=c5 v=90
66240 On ch=2 n=g#4 v=90
66240 On ch=2 n=f4 v=90
66240 On ch=2 n=c4 v=90
66259 On ch=1 n=e5 v=0
66477 On ch=1 n=c5 v=0
66477 On ch=1 n=f5 v=0
66480 On ch=1 n=f5 v=90
66520 On ch=1 n=g5 v=90
66539 On ch=1 n=f5 v=0
66560 On ch=1 n=f5 v=90
66579 On ch=1 n=g5 v=0
66600 On ch=1 n=e5 v=90
66619 On ch=1 n=f5 v=0
66640 On ch=1 n=f5 v=90
66659 On ch=1 n=e5 v=0
66669 On ch=2 n=c4 v=0
66669 On ch=2 n=f4 v=0
66669 On ch=2 n=g#4 v=0
66677 On ch=1 n=g5 v=90
66696 On ch=1 n=f5 v=0
66717 On ch=1 n=g#5 v=90
66736 On ch=1 n=g5 v=0
66757 On ch=1 n=g5 v=90
66776 On ch=1 n=g#5 v=0
66797 On ch=1 n=f5 v=90
66816 On ch=1 n=g5 v=0
66826 On ch=1 n=f5 v=0
66837 On ch=1 n=d#5 v=90
66866 On ch=1 n=d#5 v=0
66877 On ch=1 n=d5 v=90
66906 On ch=1 n=d5 v=0
66917 On ch=1 n=d#5 v=90
66946 On ch=1 n=d#5 v=0
66957 On ch=1 n=f5 v=90
66986 On ch=1 n=f5 v=0
66997 On ch=1 n=d5 v=90
67026 On ch=1 n=d5 v=0
67037 On ch=1 n=d#5 v=90
67066 On ch=1 n=d#5 v=0
67077 On ch=1 n=f5 v=90
67106 On ch=1 n=f5 v=0
67197 Tempo 545454
67197 On ch=1 n=a#4 v=90
67197 On ch=2 n=c3 v=90
67197 On ch=2 n=c3 v=90
67309 Tempo 555555
67359 On ch=2 n=c3 v=0
67437 On ch=2 n=b3 v=90
67501 Tempo 566037
67521 On ch=1 n=a#4 v=0
67553 On ch=2 n=c3 v=0
67557 On ch=1 n=d4 v=90
67665 On ch=1 n=d4 v=0
67674 On ch=2 n=b3 v=0
67677 On ch=1 n=f4 v=90
67677 On ch=2 n=b3 v=90
67677 On ch=2 n=c3 v=90
67693 Tempo 576923
67785 On ch=1 n=f4 v=0
67797 On ch=1 n=g#4 v=90
67885 Tempo 588235
67905 On ch=1 n=g#4 v=0
67917 On ch=1 n=g4 v=90
68025 On ch=1 n=g4 v=0
68037 On ch=1 n=f4 v=90
68077 Tempo 600000
68145 On ch=1 n=f4 v=0
68157 On ch=1 n=b4 v=90
68265 On ch=1 n=b4 v=0
68269 Tempo 612244
68277 On ch=1 n=f4 v=90
68385 On ch=1 n=f4 v=0
68397 On ch=1 n=d5 v=90
68461 Tempo 625000
68505 On ch=1 n=d5 v=0
68517 On ch=1 n=f4 v=90
68625 On ch=1 n=f4 v=0
68637 On ch=1 n=b4 v=90
68653 Tempo 638297
68745 On ch=1 n=b4 v=0
68757 On ch=1 n=g#4 v=90
68845 Tempo 652173
68865 On ch=1 n=g#4 v=0
68877 On ch=1 n=g4 v=90
68973 On ch=2 n=c3 v=0
68973 On ch=2 n=b3 v=0
68985 On ch=1 n=g4 v=0
68997 On ch=1 n=f4 v=90
69037 Tempo 666666
69105 On ch=1 n=f4 v=0
69117 On ch=1 n=e4 v=90
69225 On ch=1 n=e4 v=0
69229 Tempo 681818
69237 On ch=1 n=c#5 v=90
69345 On ch=1 n=c#5 v=0
69357 On ch=1 n=a#4 v=90
69421 Tempo 697674
69465 On ch=1 n=a#4 v=0
69477 On ch=1 n=g4 v=90
69585 On ch=1 n=g4 v=0
69597 On ch=1 n=c5 v=90
69613 Tempo 714285
69705 On ch=1 n=c5 v=0
69717 On ch=1 n=g#4 v=90
69805 Tempo 731707
69825 On ch=1 n=g#4 v=0
69837 On ch=1 n=f4 v=90
69945 On ch=1 n=f4 v=0
69957 On ch=1 n=g#4 v=90
69997 Tempo 750000
70065 On ch=1 n=g#4 v=0
70077 On ch=1 n=g4 v=90
70185 On ch=1 n=g4 v=0
70189 Tempo 769230
70197 On ch=1 n=a#4 v=90
70305 On ch=1 n=a#4 v=0
70317 On ch=1 n=g4 v=90
70381 Tempo 789473
70425 On ch=1 n=g4 v=0
70437 On ch=1 n=e4 v=90
70545 On ch=1 n=e4 v=0
70557 On ch=1 n=g#4 v=90
70573 Tempo 810810
70665 On ch=1 n=g#4 v=0
70677 On ch=1 n=f4 v=90
70765 Tempo 833333
70785 On ch=1 n=f4 v=0
70797 On ch=1 n=d4 v=90
70905 On ch=1 n=d4 v=0
70917 On ch=1 n=f4 v=90
70957 Tempo 660534
71025 On ch=1 n=f4 v=0
71037 On ch=1 n=e4 v=90
71145 On ch=1 n=e4 v=0
71149 Tempo 685744
71157 On ch=1 n=g4 v=90
71265 On ch=1 n=g4 v=0
71277 On ch=1 n=e4 v=90
71341 Tempo 712482
71385 On ch=1 n=e4 v=0
71397 On ch=1 n=c4 v=90
71505 On ch=1 n=c4 v=0
71517 On ch=1 n=f4 v=90
71533 Tempo 937500
71625 On ch=1 n=f4 v=0
71637 On ch=1 n=d4 v=90
71725 Tempo 967741
71745 On ch=1 n=d4 v=0
71757 On ch=1 n=b3 v=90
71865 On ch=1 n=b3 v=0
71877 On ch=1 n=d4 v=90
71917 Tempo 1000000
71985 On ch=1 n=d4 v=0
71997 On ch=2 n=c3 v=90
72109 Tempo 1034482
72117 On ch=2 n=g3 v=90
72225 On ch=2 n=g3 v=0
72237 On ch=2 n=c4 v=90
72301 Tempo 1071428
72357 On ch=1 n=d4 v=90
72465 On ch=1 n=d4 v=0
72474 On ch=2 n=c4 v=0
72477 On ch=1 n=e4 v=90
72477 On ch=2 n=c4 v=90
72493 Tempo 1111111
72585 On ch=1 n=e4 v=0
72597 On ch=1 n=g4 v=90
72685 Tempo 1153846
72705 On ch=1 n=g4 v=0
72717 On ch=1 n=a#4 v=90
72825 On ch=1 n=a#4 v=0
72837 On ch=1 n=g4 v=90
72877 Tempo 1200000
72945 On ch=1 n=g4 v=0
72947 On ch=2 n=c3 v=0
72952 On ch=2 n=c4 v=0
72957 On ch=1 n=g#4 v=90
72957 On ch=2 n=c3 v=90
72957 On ch=2 n=c4 v=90
73065 On ch=1 n=g#4 v=0
73069 Tempo 1250000
73077 On ch=1 n=c5 v=90
73185 On ch=1 n=c5 v=0
73197 On ch=1 n=f5 v=90
73261 Tempo 1304347
73305 On ch=1 n=f5 v=0
73317 On ch=1 n=d5 v=90
73425 On ch=1 n=d5 v=0
73437 On ch=1 n=f5 v=90
73453 Tempo 1363636
73545 On ch=1 n=f5 v=0
73557 On ch=1 n=g#5 v=90
73645 Tempo 1428571
73665 On ch=1 n=g#5 v=0
73677 On ch=1 n=c6 v=90
73785 On ch=1 n=c6 v=0
73797 On ch=1 n=b5 v=90
73837 Tempo 1500000
73905 On ch=1 n=b5 v=0
73917 On ch=1 n=c6 v=90
74025 On ch=1 n=c6 v=0
74029 Tempo 1578947
74037 On ch=1 n=g5 v=90
74145 On ch=1 n=g5 v=0
74157 On ch=1 n=f5 v=90
74221 Tempo 1666666
74265 On ch=1 n=f5 v=0
74277 On ch=1 n=d5 v=90
74385 On ch=1 n=d5 v=0
74397 On ch=1 n=e5 v=90
74413 Tempo 1764705
74605 Tempo 1875000
74797 Tempo 2000000
74857 On ch=2 n=c4 v=0
74857 On ch=2 n=c3 v=0
74872 On ch=1 n=e5 v=0
74872 Meta TrkEnd
TrkEnd
