MFile 1 11 480
MTrk
0 TimeSig 4/4 24 8
0 Tempo 500000
0 Meta TrkEnd
TrkEnd
MTrk
0 SeqSpec 43 00 01 00
0 Meta TrkName "Track 1"
0 PrCh ch=1 p=0
0 Pb ch=1 v=8192
1425 On ch=1 n=c5 v=127
1620 On ch=1 n=c5 v=0
2613 On ch=1 n=c6 v=127
2808 On ch=1 n=c6 v=0
9940 On ch=1 n=c6 v=127
10333 On ch=1 n=c6 v=0
10731 On ch=1 n=c4 v=127
11519 On ch=1 n=c4 v=0
11523 On ch=1 n=c6 v=127
11916 On ch=1 n=c6 v=0
13503 On ch=1 n=c6 v=127
13896 On ch=1 n=c6 v=0
14295 On ch=1 n=c6 v=127
14691 On ch=1 n=c4 v=127
15084 On ch=1 n=c4 v=0
15480 On ch=1 n=c6 v=0
17463 On ch=1 n=c6 v=127
17856 On ch=1 n=c6 v=0
17860 On ch=1 n=c6 v=127
18253 On ch=1 n=c6 v=0
21820 On ch=1 n=c6 v=127
22213 On ch=1 n=c6 v=0
22810 On ch=1 n=c6 v=127
23005 On ch=1 n=c6 v=0
32115 On ch=1 n=c4 v=127
32508 On ch=1 n=c4 v=0
47560 On ch=1 n=c6 v=127
48745 On ch=1 n=c6 v=0
49638 On ch=1 n=c4 v=127
49791 On ch=1 n=c4 v=0
50826 On ch=1 n=c4 v=127
50979 On ch=1 n=c4 v=0
64335 On ch=1 n=c6 v=127
64485 On ch=1 n=c6 v=0
64623 On ch=1 n=c6 v=127
64773 On ch=1 n=c6 v=0
103791 On ch=1 n=c6 v=127
104184 On ch=1 n=c6 v=0
128740 On ch=1 n=c6 v=127
129523 On ch=1 n=c6 v=0
133491 On ch=1 n=c6 v=127
134283 On ch=1 n=c4 v=127
134676 On ch=1 n=c6 v=0
135071 On ch=1 n=c4 v=0
136461 On ch=1 n=c5 v=127
136656 On ch=1 n=c5 v=0
138045 On ch=1 n=c6 v=127
138240 On ch=1 n=c6 v=0
140223 On ch=1 n=c6 v=127
141408 On ch=1 n=c6 v=0
146163 On ch=1 n=c4 v=127
146951 On ch=1 n=c4 v=0
146955 On ch=1 n=c6 v=127
147348 On ch=1 n=c6 v=0
148935 On ch=1 n=c6 v=127
149328 On ch=1 n=c6 v=0
149727 On ch=1 n=c6 v=127
150123 On ch=1 n=c4 v=127
150516 On ch=1 n=c4 v=0
150912 On ch=1 n=c6 v=0
152895 On ch=1 n=c6 v=127
153288 On ch=1 n=c6 v=0
153291 On ch=1 n=c6 v=127
153684 On ch=1 n=c6 v=0
157251 On ch=1 n=c6 v=127
157450 On ch=1 n=c4 v=127
157644 On ch=1 n=c6 v=0
157645 On ch=1 n=c4 v=0
161211 On ch=1 n=c4 v=127
161406 On ch=1 n=c4 v=0
162795 On ch=1 n=c6 v=127
163188 On ch=1 n=c6 v=0
164973 On ch=1 n=c4 v=127
165168 On ch=1 n=c4 v=0
166161 On ch=1 n=c4 v=127
166356 On ch=1 n=c4 v=0
166953 On ch=1 n=c6 v=127
167148 On ch=1 n=c6 v=0
169131 On ch=1 n=c6 v=127
169914 On ch=1 n=c6 v=0
174675 On ch=1 n=c5 v=127
175068 On ch=1 n=c5 v=0
175467 On ch=1 n=c6 v=127
175662 On ch=1 n=c6 v=0
180615 On ch=1 n=c4 v=127
180810 On ch=1 n=c4 v=0
182793 On ch=1 n=c6 v=127
182988 On ch=1 n=c6 v=0
183190 On ch=1 n=c5 v=127
183385 On ch=1 n=c5 v=0
196060 On ch=1 n=c4 v=127
196255 On ch=1 n=c4 v=0
200811 On ch=1 n=c6 v=127
201599 On ch=1 n=c6 v=0
205167 On ch=1 n=c5 v=127
205560 On ch=1 n=c5 v=0
205563 On ch=1 n=c5 v=127
205956 On ch=1 n=c5 v=0
209920 On ch=1 n=c6 v=127
210313 On ch=1 n=c6 v=0
210711 On ch=1 n=c6 v=127
211104 On ch=1 n=c6 v=0
211503 On ch=1 n=c6 v=127
212286 On ch=1 n=c6 v=0
213483 On ch=1 n=c6 v=127
213876 On ch=1 n=c6 v=0
216467 On ch=1 n=c6 v=127
216605 On ch=1 n=c6 v=0
216749 On ch=1 n=c6 v=127
217169 On ch=1 n=c6 v=0
221709 On ch=1 n=c4 v=127
221906 On ch=1 n=c4 v=0
223109 On ch=1 n=c4 v=127
223306 On ch=1 n=c4 v=0
231312 On ch=1 n=c5 v=127
231509 On ch=1 n=c5 v=0
231712 On ch=1 n=c4 v=127
232309 On ch=1 n=c4 v=0
232713 On ch=1 n=c5 v=127
232910 On ch=1 n=c5 v=0
234113 On ch=1 n=c5 v=127
234710 On ch=1 n=c5 v=0
238314 On ch=1 n=c5 v=127
240111 On ch=1 n=c5 v=0
241315 On ch=1 n=c5 v=127
241912 On ch=1 n=c5 v=0
256920 On ch=1 n=c6 v=127
257517 On ch=1 n=c6 v=0
257720 On ch=1 n=c6 v=127
257917 On ch=1 n=c6 v=0
259120 On ch=1 n=c6 v=127
259317 On ch=1 n=c6 v=0
260922 On ch=1 n=c5 v=127
261119 On ch=1 n=c5 v=0
280728 On ch=1 n=c5 v=127
280925 On ch=1 n=c5 v=0
281328 On ch=1 n=c5 v=127
281525 On ch=1 n=c5 v=0
287935 On ch=1 n=c6 v=127
288132 On ch=1 n=c6 v=0
290537 On ch=1 n=c6 v=127
290931 On ch=1 n=c6 v=0
291334 On ch=1 n=c5 v=127
291531 On ch=1 n=c5 v=0
292334 On ch=1 n=c6 v=127
292531 On ch=1 n=c6 v=0
292735 On ch=1 n=c5 v=127
292932 On ch=1 n=c5 v=0
294135 On ch=1 n=c6 v=127
294732 On ch=1 n=c6 v=0
298342 On ch=1 n=c5 v=127
298939 On ch=1 n=c5 v=0
299542 On ch=1 n=c4 v=127
300139 On ch=1 n=c4 v=0
300142 On ch=1 n=c5 v=127
300739 On ch=1 n=c5 v=0
307945 On ch=1 n=c4 v=127
308142 On ch=1 n=c4 v=0
311946 On ch=1 n=c6 v=127
312143 On ch=1 n=c6 v=0
317549 On ch=1 n=c6 v=127
317746 On ch=1 n=c6 v=0
328554 On ch=1 n=c6 v=127
328751 On ch=1 n=c6 v=0
328954 On ch=1 n=c5 v=127
329551 On ch=1 n=c5 v=0
334553 On ch=1 n=c6 v=127
334750 On ch=1 n=c6 v=0
334953 On ch=1 n=c5 v=127
335550 On ch=1 n=c5 v=0
335953 On ch=1 n=c6 v=127
336150 On ch=1 n=c6 v=0
337353 On ch=1 n=c5 v=127
337950 On ch=1 n=c5 v=0
345161 On ch=1 n=c5 v=127
345758 On ch=1 n=c5 v=0
351362 On ch=1 n=c4 v=127
351559 On ch=1 n=c4 v=0
352362 On ch=1 n=c6 v=127
352762 On ch=1 n=c4 v=127
352959 On ch=1 n=c4 v=0
352959 On ch=1 n=c6 v=0
354163 On ch=1 n=c5 v=127
354760 On ch=1 n=c5 v=0
356563 On ch=1 n=c6 v=127
357160 On ch=1 n=c6 v=0
360364 On ch=1 n=c5 v=127
360561 On ch=1 n=c5 v=0
360764 On ch=1 n=c5 v=127
361361 On ch=1 n=c5 v=0
362166 On ch=1 n=c6 v=127
362363 On ch=1 n=c6 v=0
362566 On ch=1 n=c6 v=127
362763 On ch=1 n=c6 v=0
364366 On ch=1 n=c6 v=127
364563 On ch=1 n=c6 v=0
366773 On ch=1 n=c4 v=127
367370 On ch=1 n=c4 v=0
369174 On ch=1 n=c5 v=127
369771 On ch=1 n=c5 v=0
377777 On ch=1 n=c5 v=127
377974 On ch=1 n=c5 v=0
379177 On ch=1 n=c5 v=127
379374 On ch=1 n=c5 v=0
382578 On ch=1 n=c6 v=127
382775 On ch=1 n=c6 v=0
382978 On ch=1 n=c6 v=127
383175 On ch=1 n=c6 v=0
383378 On ch=1 n=c5 v=127
383575 On ch=1 n=c5 v=0
383781 On ch=1 n=c5 v=127
383981 On ch=1 n=c5 v=0
384791 On ch=1 n=c5 v=127
384991 On ch=1 n=c5 v=0
385196 On ch=1 n=c5 v=127
385396 On ch=1 n=c5 v=0
386617 On ch=1 n=c4 v=127
386818 On ch=1 n=c4 v=0
387229 On ch=1 n=c6 v=127
387655 On ch=1 n=c6 v=0
389248 On ch=1 n=c6 v=127
390061 On ch=1 n=c6 v=0
390061 Meta TrkEnd
TrkEnd
MTrk
0 SeqSpec 43 00 01 00
0 PrCh ch=2 p=0
0 Pb ch=2 v=8172
40 On ch=2 n=c#4 v=127
433 On ch=2 n=c#4 v=0
1227 On ch=2 n=c#5 v=127
1422 On ch=2 n=c#5 v=0
1623 On ch=2 n=c#5 v=127
2415 On ch=2 n=c#6 v=127
2610 On ch=2 n=c#6 v=0
2811 On ch=2 n=c#6 v=127
3204 On ch=2 n=c#6 v=0
3953 On ch=2 n=c#5 v=0
7167 On ch=2 n=c#5 v=127
7960 On ch=2 n=c#6 v=127
8353 On ch=2 n=c#6 v=0
8940 On ch=2 n=c#5 v=0
9345 On ch=2 n=c#6 v=127
9540 On ch=2 n=c#6 v=0
9543 On ch=2 n=c#6 v=127
9936 On ch=2 n=c#6 v=0
11920 On ch=2 n=c#6 v=127
11920 On ch=2 n=c#4 v=127
13105 On ch=2 n=c#4 v=0
13107 On ch=2 n=c#3 v=127
13501 On ch=2 n=c#6 v=0
13900 On ch=2 n=c#6 v=127
14292 On ch=2 n=c#3 v=0
14293 On ch=2 n=c#6 v=0
18255 On ch=2 n=c#6 v=127
18453 On ch=2 n=c#4 v=127
18648 On ch=2 n=c#4 v=0
19638 On ch=2 n=c#6 v=0
20037 On ch=2 n=c#6 v=127
20232 On ch=2 n=c#6 v=0
20235 On ch=2 n=c#6 v=127
20628 On ch=2 n=c#6 v=0
21027 On ch=2 n=c#6 v=127
21420 On ch=2 n=c#6 v=0
21423 On ch=2 n=c#6 v=127
21816 On ch=2 n=c#6 v=0
22611 On ch=2 n=c#6 v=127
22806 On ch=2 n=c#6 v=0
23007 On ch=2 n=c#6 v=127
23800 On ch=2 n=c#5 v=127
24583 On ch=2 n=c#5 v=0
24591 On ch=2 n=c#4 v=127
24984 On ch=2 n=c#4 v=0
25770 On ch=2 n=c#6 v=0
26175 On ch=2 n=c#6 v=127
26568 On ch=2 n=c#6 v=0
29343 On ch=2 n=c#5 v=127
29736 On ch=2 n=c#5 v=0
31720 On ch=2 n=c#4 v=127
32113 On ch=2 n=c#4 v=0
33303 On ch=2 n=c#4 v=127
33696 On ch=2 n=c#4 v=0
34491 On ch=2 n=c#6 v=127
36471 On ch=2 n=c#6 v=0
36867 On ch=2 n=c#6 v=127
37655 On ch=2 n=c#6 v=0
38451 On ch=2 n=c#4 v=127
38844 On ch=2 n=c#4 v=0
40431 On ch=2 n=c#4 v=127
40824 On ch=2 n=c#4 v=0
41620 On ch=2 n=c#6 v=127
42015 On ch=2 n=c#4 v=127
42408 On ch=2 n=c#4 v=0
43201 On ch=2 n=c#6 v=0
43995 On ch=2 n=c#6 v=127
45975 On ch=2 n=c#6 v=0
45975 On ch=2 n=c#6 v=127
46368 On ch=2 n=c#6 v=0
46570 On ch=2 n=c#6 v=127
46765 On ch=2 n=c#6 v=0
48747 On ch=2 n=c#6 v=127
48896 On ch=2 n=c#4 v=127
49049 On ch=2 n=c#4 v=0
49192 On ch=2 n=c#4 v=127
49345 On ch=2 n=c#4 v=0
49490 On ch=2 n=c#4 v=127
49643 On ch=2 n=c#4 v=0
49787 On ch=2 n=c#4 v=127
49932 On ch=2 n=c#6 v=0
49940 On ch=2 n=c#4 v=0
51520 On ch=2 n=c#6 v=127
51913 On ch=2 n=c#6 v=0
52311 On ch=2 n=c#6 v=127
52506 On ch=2 n=c#6 v=0
53500 On ch=2 n=c#6 v=127
53893 On ch=2 n=c#6 v=0
54291 On ch=2 n=c#6 v=127
54291 On ch=2 n=c#5 v=127
54684 On ch=2 n=c#5 v=0
54684 On ch=2 n=c#6 v=0
60231 On ch=2 n=c#6 v=127
60624 On ch=2 n=c#6 v=0
61221 On ch=2 n=c#4 v=127
61416 On ch=2 n=c#4 v=0
62410 On ch=2 n=c#6 v=127
62605 On ch=2 n=c#6 v=0
64191 On ch=2 n=c#6 v=127
64341 On ch=2 n=c#6 v=0
64478 On ch=2 n=c#6 v=127
64628 On ch=2 n=c#6 v=0
65380 On ch=2 n=c#6 v=127
68535 On ch=2 n=c#6 v=0
71320 On ch=2 n=c#4 v=127
72111 On ch=2 n=c#6 v=127
72504 On ch=2 n=c#6 v=0
72898 On ch=2 n=c#4 v=0
73297 On ch=2 n=c#5 v=127
73690 On ch=2 n=c#5 v=0
73692 On ch=2 n=c#5 v=127
74085 On ch=2 n=c#5 v=0
76860 On ch=2 n=c#6 v=127
77253 On ch=2 n=c#6 v=0
77257 On ch=2 n=c#5 v=127
77650 On ch=2 n=c#5 v=0
78444 On ch=2 n=c#6 v=127
78639 On ch=2 n=c#6 v=0
78840 On ch=2 n=c#6 v=127
79233 On ch=2 n=c#6 v=0
80424 On ch=2 n=c#6 v=127
80817 On ch=2 n=c#6 v=0
81217 On ch=2 n=c#6 v=127
81610 On ch=2 n=c#6 v=0
82008 On ch=2 n=c#6 v=127
82404 On ch=2 n=c#5 v=127
82599 On ch=2 n=c#5 v=0
82800 On ch=2 n=c#5 v=127
83193 On ch=2 n=c#5 v=0
83988 On ch=2 n=c#6 v=0
85177 On ch=2 n=c#6 v=127
85570 On ch=2 n=c#6 v=0
85968 On ch=2 n=c#5 v=127
86361 On ch=2 n=c#5 v=0
87552 On ch=2 n=c#5 v=127
87945 On ch=2 n=c#5 v=0
87948 On ch=2 n=c#6 v=127
88341 On ch=2 n=c#6 v=0
89928 On ch=2 n=c#6 v=127
90321 On ch=2 n=c#6 v=0
95077 On ch=2 n=c#4 v=127
95470 On ch=2 n=c#4 v=0
97254 On ch=2 n=c#6 v=127
97449 On ch=2 n=c#6 v=0
99432 On ch=2 n=c#5 v=127
99825 On ch=2 n=c#5 v=0
100224 On ch=2 n=c#6 v=127
100419 On ch=2 n=c#6 v=0
100620 On ch=2 n=c#5 v=127
101013 On ch=2 n=c#5 v=0
103392 On ch=2 n=c#6 v=127
103785 On ch=2 n=c#6 v=0
105768 On ch=2 n=c#6 v=127
107947 On ch=2 n=c#5 v=127
108139 On ch=2 n=c#6 v=0
108142 On ch=2 n=c#5 v=0
108342 On ch=2 n=c#5 v=127
108537 On ch=2 n=c#5 v=0
109530 On ch=2 n=c#5 v=127
109725 On ch=2 n=c#5 v=0
110520 On ch=2 n=c#5 v=127
111308 On ch=2 n=c#5 v=0
111708 On ch=2 n=c#5 v=127
112500 On ch=2 n=c#6 v=127
112695 On ch=2 n=c#6 v=0
112893 On ch=2 n=c#5 v=0
112897 On ch=2 n=c#4 v=127
113292 On ch=2 n=c#6 v=127
113685 On ch=2 n=c#6 v=0
114079 On ch=2 n=c#4 v=0
114874 On ch=2 n=c#4 v=127
115267 On ch=2 n=c#4 v=0
116061 On ch=2 n=c#5 v=127
116452 On ch=2 n=c#5 v=0
117249 On ch=2 n=c#6 v=127
117642 On ch=2 n=c#6 v=0
117645 On ch=2 n=c#6 v=127
118038 On ch=2 n=c#6 v=0
118437 On ch=2 n=c#6 v=127
118632 On ch=2 n=c#6 v=0
120021 On ch=2 n=c#6 v=127
120809 On ch=2 n=c#6 v=0
120814 On ch=2 n=c#6 v=127
121011 On ch=2 n=c#4 v=127
121206 On ch=2 n=c#4 v=0
121207 On ch=2 n=c#6 v=0
121209 On ch=2 n=c#6 v=127
121992 On ch=2 n=c#6 v=0
122991 On ch=2 n=c#4 v=127
123186 On ch=2 n=c#4 v=0
125169 On ch=2 n=c#6 v=127
125562 On ch=2 n=c#6 v=0
125565 On ch=2 n=c#3 v=127
125958 On ch=2 n=c#3 v=0
126555 On ch=2 n=c#4 v=127
126750 On ch=2 n=c#4 v=0
128337 On ch=2 n=c#6 v=127
128730 On ch=2 n=c#6 v=0
129525 On ch=2 n=c#6 v=127
130515 On ch=2 n=c#4 v=127
130710 On ch=2 n=c#4 v=0
132488 On ch=2 n=c#6 v=0
132891 On ch=2 n=c#6 v=127
133086 On ch=2 n=c#6 v=0
133089 On ch=2 n=c#6 v=127
133482 On ch=2 n=c#6 v=0
135465 On ch=2 n=c#4 v=127
136056 On ch=2 n=c#4 v=0
136654 On ch=2 n=c#5 v=127
137047 On ch=2 n=c#5 v=0
137841 On ch=2 n=c#6 v=127
138036 On ch=2 n=c#6 v=0
138237 On ch=2 n=c#6 v=127
138630 On ch=2 n=c#6 v=0
138634 On ch=2 n=c#6 v=127
139027 On ch=2 n=c#6 v=0
139029 On ch=2 n=c#6 v=127
140214 On ch=2 n=c#6 v=0
143385 On ch=2 n=c#6 v=127
143778 On ch=2 n=c#6 v=0
145761 On ch=2 n=c#4 v=127
146154 On ch=2 n=c#4 v=0
147345 On ch=2 n=c#6 v=127
147345 On ch=2 n=c#4 v=127
148530 On ch=2 n=c#4 v=0
148534 On ch=2 n=c#3 v=127
148926 On ch=2 n=c#6 v=0
149325 On ch=2 n=c#6 v=127
149718 On ch=2 n=c#6 v=0
149719 On ch=2 n=c#3 v=0
153681 On ch=2 n=c#6 v=127
153879 On ch=2 n=c#4 v=127
154074 On ch=2 n=c#4 v=0
155064 On ch=2 n=c#6 v=0
155464 On ch=2 n=c#6 v=127
155659 On ch=2 n=c#6 v=0
155661 On ch=2 n=c#6 v=127
156054 On ch=2 n=c#6 v=0
156454 On ch=2 n=c#6 v=127
156847 On ch=2 n=c#6 v=0
156849 On ch=2 n=c#6 v=127
157242 On ch=2 n=c#6 v=0
157641 On ch=2 n=c#4 v=127
157836 On ch=2 n=c#4 v=0
159225 On ch=2 n=c#6 v=127
159420 On ch=2 n=c#6 v=0
160017 On ch=2 n=c#6 v=127
160410 On ch=2 n=c#6 v=0
161404 On ch=2 n=c#4 v=127
161599 On ch=2 n=c#4 v=0
162195 On ch=2 n=c#6 v=127
162390 On ch=2 n=c#6 v=0
162591 On ch=2 n=c#4 v=127
162786 On ch=2 n=c#4 v=0
163185 On ch=2 n=c#6 v=127
163578 On ch=2 n=c#6 v=0
164769 On ch=2 n=c#6 v=127
164964 On ch=2 n=c#6 v=0
165165 On ch=2 n=c#4 v=127
165756 On ch=2 n=c#4 v=0
165957 On ch=2 n=c#4 v=127
166152 On ch=2 n=c#4 v=0
166354 On ch=2 n=c#4 v=127
166747 On ch=2 n=c#4 v=0
166749 On ch=2 n=c#6 v=127
166944 On ch=2 n=c#6 v=0
167145 On ch=2 n=c#6 v=127
167538 On ch=2 n=c#6 v=0
168334 On ch=2 n=c#6 v=127
168727 On ch=2 n=c#6 v=0
168729 On ch=2 n=c#6 v=127
169122 On ch=2 n=c#6 v=0
171897 On ch=2 n=c#6 v=127
171897 On ch=2 n=c#4 v=127
172290 On ch=2 n=c#4 v=0
172290 On ch=2 n=c#6 v=0
174274 On ch=2 n=c#5 v=127
174667 On ch=2 n=c#5 v=0
179619 On ch=2 n=c#6 v=127
179814 On ch=2 n=c#6 v=0
180411 On ch=2 n=c#4 v=127
180606 On ch=2 n=c#4 v=0
180807 On ch=2 n=c#4 v=127
181002 On ch=2 n=c#4 v=0
181797 On ch=2 n=c#4 v=127
182388 On ch=2 n=c#4 v=0
182589 On ch=2 n=c#6 v=127
182784 On ch=2 n=c#6 v=0
182985 On ch=2 n=c#6 v=127
182985 On ch=2 n=c#5 v=127
183180 On ch=2 n=c#5 v=0
183378 On ch=2 n=c#6 v=0
183381 On ch=2 n=c#5 v=127
183774 On ch=2 n=c#5 v=0
183777 On ch=2 n=c#5 v=127
184170 On ch=2 n=c#5 v=0
184174 On ch=2 n=c#6 v=127
184174 On ch=2 n=c#5 v=127
184567 On ch=2 n=c#6 v=0
184962 On ch=2 n=c#5 v=0
184965 On ch=2 n=c#6 v=127
184965 On ch=2 n=c#5 v=127
185358 On ch=2 n=c#5 v=0
185358 On ch=2 n=c#6 v=0
185361 On ch=2 n=c#5 v=127
185754 On ch=2 n=c#5 v=0
185955 On ch=2 n=c#5 v=127
186150 On ch=2 n=c#5 v=0
186747 On ch=2 n=c#6 v=127
186942 On ch=2 n=c#6 v=0
189321 On ch=2 n=c#5 v=127
189516 On ch=2 n=c#5 v=0
190114 On ch=2 n=c#5 v=127
190505 On ch=2 n=c#5 v=0
191104 On ch=2 n=c#6 v=127
191104 On ch=2 n=c#5 v=127
191299 On ch=2 n=c#5 v=0
191299 On ch=2 n=c#6 v=0
191499 On ch=2 n=c#5 v=127
191694 On ch=2 n=c#5 v=0
193084 On ch=2 n=c#4 v=127
193279 On ch=2 n=c#4 v=0
193281 On ch=2 n=c#6 v=127
193674 On ch=2 n=c#6 v=0
195657 On ch=2 n=c#4 v=127
196050 On ch=2 n=c#4 v=0
196251 On ch=2 n=c#4 v=127
196446 On ch=2 n=c#4 v=0
197241 On ch=2 n=c#4 v=127
197634 On ch=2 n=c#4 v=0
198429 On ch=2 n=c#6 v=127
200800 On ch=2 n=c#6 v=0
201597 On ch=2 n=c#6 v=127
201990 On ch=2 n=c#6 v=0
205954 On ch=2 n=c#5 v=127
207139 On ch=2 n=c#5 v=0
208725 On ch=2 n=c#5 v=127
209118 On ch=2 n=c#5 v=0
209517 On ch=2 n=c#6 v=127
209910 On ch=2 n=c#6 v=0
210309 On ch=2 n=c#6 v=127
210702 On ch=2 n=c#6 v=0
212289 On ch=2 n=c#6 v=127
212682 On ch=2 n=c#6 v=0
213874 On ch=2 n=c#6 v=127
214669 On ch=2 n=c#6 v=0
215080 On ch=2 n=c#6 v=127
216317 On ch=2 n=c#6 v=0
216319 On ch=2 n=c#6 v=127
216457 On ch=2 n=c#6 v=0
216601 On ch=2 n=c#6 v=127
216739 On ch=2 n=c#6 v=0
217165 On ch=2 n=c#6 v=127
217587 On ch=2 n=c#6 v=0
217609 On ch=2 n=c#5 v=127
217609 On ch=2 n=c#3 v=127
217613 On ch=2 n=c#6 v=127
221434 On ch=2 n=c#3 v=0
221434 On ch=2 n=c#5 v=0
221438 On ch=2 n=c#6 v=0
221500 On ch=2 n=c#4 v=127
221697 On ch=2 n=c#4 v=0
221900 On ch=2 n=c#4 v=127
222097 On ch=2 n=c#4 v=0
222300 On ch=2 n=c#4 v=127
222497 On ch=2 n=c#4 v=0
223300 On ch=2 n=c#4 v=127
223497 On ch=2 n=c#4 v=0
225701 On ch=2 n=c#4 v=127
226898 On ch=2 n=c#4 v=0
227501 On ch=2 n=c#6 v=127
227698 On ch=2 n=c#6 v=0
227901 On ch=2 n=c#6 v=127
228098 On ch=2 n=c#6 v=0
228503 On ch=2 n=c#6 v=127
228700 On ch=2 n=c#6 v=0
229503 On ch=2 n=c#6 v=127
229700 On ch=2 n=c#6 v=0
231103 On ch=2 n=c#5 v=127
231300 On ch=2 n=c#5 v=0
231503 On ch=2 n=c#5 v=127
231700 On ch=2 n=c#5 v=0
231903 On ch=2 n=c#5 v=127
232100 On ch=2 n=c#5 v=0
232304 On ch=2 n=c#4 v=127
232901 On ch=2 n=c#4 v=0
232904 On ch=2 n=c#5 v=127
234101 On ch=2 n=c#5 v=0
234704 On ch=2 n=c#5 v=127
235301 On ch=2 n=c#5 v=0
235304 On ch=2 n=c#5 v=127
235501 On ch=2 n=c#5 v=0
236104 On ch=2 n=c#5 v=127
236301 On ch=2 n=c#5 v=0
237105 On ch=2 n=c#5 v=127
237302 On ch=2 n=c#5 v=0
238105 On ch=2 n=c#5 v=127
238302 On ch=2 n=c#5 v=0
240105 On ch=2 n=c#5 v=127
241302 On ch=2 n=c#5 v=0
241906 On ch=2 n=c#5 v=127
242506 On ch=2 n=c#4 v=127
242703 On ch=2 n=c#4 v=0
243703 On ch=2 n=c#5 v=0
244308 On ch=2 n=c#4 v=127
244708 On ch=2 n=c#5 v=127
244905 On ch=2 n=c#5 v=0
245705 On ch=2 n=c#4 v=0
245908 On ch=2 n=c#4 v=127
246105 On ch=2 n=c#4 v=0
246308 On ch=2 n=c#4 v=127
246505 On ch=2 n=c#4 v=0
247508 On ch=2 n=c#5 v=127
247705 On ch=2 n=c#5 v=0
247908 On ch=2 n=c#5 v=127
248509 On ch=2 n=c#4 v=127
248706 On ch=2 n=c#4 v=0
249105 On ch=2 n=c#5 v=0
249309 On ch=2 n=c#4 v=127
249506 On ch=2 n=c#4 v=0
252510 On ch=2 n=c#5 v=127
252707 On ch=2 n=c#5 v=0
254510 On ch=2 n=c#4 v=127
254707 On ch=2 n=c#4 v=0
254910 On ch=2 n=c#4 v=127
255107 On ch=2 n=c#4 v=0
255710 On ch=2 n=c#5 v=127
255907 On ch=2 n=c#5 v=0
257511 On ch=2 n=c#4 v=127
257511 On ch=2 n=c#6 v=127
257708 On ch=2 n=c#6 v=0
257708 On ch=2 n=c#4 v=0
257911 On ch=2 n=c#6 v=127
258108 On ch=2 n=c#6 v=0
258311 On ch=2 n=c#6 v=127
258508 On ch=2 n=c#6 v=0
259311 On ch=2 n=c#6 v=127
259508 On ch=2 n=c#6 v=0
261113 On ch=2 n=c#5 v=127
261713 On ch=2 n=c#6 v=127
261910 On ch=2 n=c#6 v=0
262113 On ch=2 n=c#6 v=127
262310 On ch=2 n=c#6 v=0
262910 On ch=2 n=c#5 v=0
263513 On ch=2 n=c#6 v=127
263710 On ch=2 n=c#6 v=0
263913 On ch=2 n=c#6 v=127
264110 On ch=2 n=c#6 v=0
264514 On ch=2 n=c#6 v=127
264711 On ch=2 n=c#6 v=0
265314 On ch=2 n=c#5 v=127
265514 On ch=2 n=c#6 v=127
265711 On ch=2 n=c#6 v=0
265911 On ch=2 n=c#5 v=0
268515 On ch=2 n=c#4 v=127
268712 On ch=2 n=c#4 v=0
269515 On ch=2 n=c#6 v=127
270112 On ch=2 n=c#6 v=0
271315 On ch=2 n=c#6 v=127
271512 On ch=2 n=c#6 v=0
272716 On ch=2 n=c#6 v=127
272913 On ch=2 n=c#6 v=0
273716 On ch=2 n=c#4 v=127
274152 On ch=2 n=c#4 v=0
275316 On ch=2 n=c#6 v=127
275513 On ch=2 n=c#6 v=0
278718 On ch=2 n=c#5 v=127
278915 On ch=2 n=c#5 v=0
279118 On ch=2 n=c#6 v=127
279315 On ch=2 n=c#6 v=0
279518 On ch=2 n=c#6 v=127
279715 On ch=2 n=c#6 v=0
280118 On ch=2 n=c#6 v=127
280315 On ch=2 n=c#6 v=0
280919 On ch=2 n=c#5 v=127
281119 On ch=2 n=c#6 v=127
281316 On ch=2 n=c#6 v=0
281316 On ch=2 n=c#5 v=0
281519 On ch=2 n=c#5 v=127
281519 On ch=2 n=c#6 v=127
281716 On ch=2 n=c#6 v=0
281716 On ch=2 n=c#5 v=0
281919 On ch=2 n=c#6 v=127
282116 On ch=2 n=c#6 v=0
282321 On ch=2 n=c#6 v=127
282521 On ch=2 n=c#6 v=0
283325 On ch=2 n=c#6 v=127
283522 On ch=2 n=c#6 v=0
285126 On ch=2 n=c#6 v=127
285520 On ch=2 n=c#6 v=0
285723 On ch=2 n=c#6 v=127
285920 On ch=2 n=c#6 v=0
287523 On ch=2 n=c#5 v=127
287720 On ch=2 n=c#5 v=0
288123 On ch=2 n=c#6 v=127
288720 On ch=2 n=c#6 v=0
289525 On ch=2 n=c#4 v=127
289722 On ch=2 n=c#4 v=0
290325 On ch=2 n=c#6 v=127
290522 On ch=2 n=c#6 v=0
291125 On ch=2 n=c#5 v=127
291322 On ch=2 n=c#5 v=0
291525 On ch=2 n=c#5 v=127
291722 On ch=2 n=c#5 v=0
291925 On ch=2 n=c#5 v=127
292122 On ch=2 n=c#5 v=0
292526 On ch=2 n=c#6 v=127
292723 On ch=2 n=c#6 v=0
292926 On ch=2 n=c#5 v=127
293123 On ch=2 n=c#5 v=0
294726 On ch=2 n=c#4 v=127
294726 On ch=2 n=c#6 v=127
295323 On ch=2 n=c#6 v=0
295323 On ch=2 n=c#4 v=0
295326 On ch=2 n=c#5 v=127
295523 On ch=2 n=c#5 v=0
296126 On ch=2 n=c#5 v=127
296323 On ch=2 n=c#5 v=0
297127 On ch=2 n=c#5 v=127
297327 On ch=2 n=c#5 v=0
298133 On ch=2 n=c#5 v=127
298330 On ch=2 n=c#5 v=0
298933 On ch=2 n=c#5 v=127
299530 On ch=2 n=c#5 v=0
300735 On ch=2 n=c#4 v=127
300735 On ch=2 n=c#5 v=127
300932 On ch=2 n=c#5 v=0
301135 On ch=2 n=c#5 v=127
301332 On ch=2 n=c#4 v=0
301532 On ch=2 n=c#5 v=0
302735 On ch=2 n=c#5 v=127
302932 On ch=2 n=c#5 v=0
303535 On ch=2 n=c#5 v=127
303929 On ch=2 n=c#5 v=0
304332 On ch=2 n=c#4 v=127
304929 On ch=2 n=c#4 v=0
306733 On ch=2 n=c#6 v=127
307330 On ch=2 n=c#6 v=0
307733 On ch=2 n=c#4 v=127
307930 On ch=2 n=c#4 v=0
308133 On ch=2 n=c#4 v=127
308330 On ch=2 n=c#4 v=0
308533 On ch=2 n=c#6 v=127
308934 On ch=2 n=c#4 v=127
309131 On ch=2 n=c#4 v=0
309330 On ch=2 n=c#6 v=0
309934 On ch=2 n=c#6 v=127
310131 On ch=2 n=c#6 v=0
310734 On ch=2 n=c#6 v=127
310931 On ch=2 n=c#6 v=0
311134 On ch=2 n=c#6 v=127
311331 On ch=2 n=c#6 v=0
311734 On ch=2 n=c#6 v=127
311931 On ch=2 n=c#6 v=0
312134 On ch=2 n=c#6 v=127
312331 On ch=2 n=c#6 v=0
313135 On ch=2 n=c#6 v=127
313332 On ch=2 n=c#6 v=0
313535 On ch=2 n=c#6 v=127
313732 On ch=2 n=c#6 v=0
313935 On ch=2 n=c#4 v=127
314132 On ch=2 n=c#4 v=0
314335 On ch=2 n=c#4 v=127
314532 On ch=2 n=c#4 v=0
314935 On ch=2 n=c#4 v=127
315132 On ch=2 n=c#4 v=0
315335 On ch=2 n=c#6 v=127
315532 On ch=2 n=c#6 v=0
315935 On ch=2 n=c#4 v=127
316132 On ch=2 n=c#4 v=0
316335 On ch=2 n=c#6 v=127
316532 On ch=2 n=c#6 v=0
316737 On ch=2 n=c#6 v=127
316934 On ch=2 n=c#6 v=0
317337 On ch=2 n=c#6 v=127
317534 On ch=2 n=c#6 v=0
318137 On ch=2 n=c#6 v=127
318537 On ch=2 n=c#5 v=127
318734 On ch=2 n=c#5 v=0
319334 On ch=2 n=c#6 v=0
319937 On ch=2 n=c#5 v=127
320337 On ch=2 n=c#4 v=127
320534 On ch=2 n=c#4 v=0
321134 On ch=2 n=c#5 v=0
321938 On ch=2 n=c#5 v=127
322135 On ch=2 n=c#5 v=0
323138 On ch=2 n=c#4 v=127
323335 On ch=2 n=c#4 v=0
323538 On ch=2 n=c#4 v=127
324135 On ch=2 n=c#4 v=0
324138 On ch=2 n=c#5 v=127
324335 On ch=2 n=c#5 v=0
325339 On ch=2 n=c#5 v=127
325936 On ch=2 n=c#5 v=0
326739 On ch=2 n=c#6 v=127
326936 On ch=2 n=c#6 v=0
327339 On ch=2 n=c#5 v=127
327536 On ch=2 n=c#5 v=0
328342 On ch=2 n=c#5 v=127
328539 On ch=2 n=c#5 v=0
328742 On ch=2 n=c#6 v=127
328939 On ch=2 n=c#6 v=0
329542 On ch=2 n=c#5 v=127
329742 On ch=2 n=c#6 v=127
329939 On ch=2 n=c#6 v=0
330135 On ch=2 n=c#5 v=0
330143 On ch=2 n=c#5 v=127
330543 On ch=2 n=c#4 v=127
330740 On ch=2 n=c#4 v=0
330940 On ch=2 n=c#5 v=0
331143 On ch=2 n=c#5 v=127
331340 On ch=2 n=c#5 v=0
333143 On ch=2 n=c#6 v=127
333943 On ch=2 n=c#5 v=127
334140 On ch=2 n=c#5 v=0
334540 On ch=2 n=c#6 v=0
334744 On ch=2 n=c#5 v=127
334744 On ch=2 n=c#6 v=127
334941 On ch=2 n=c#6 v=0
334941 On ch=2 n=c#5 v=0
335144 On ch=2 n=c#6 v=127
335341 On ch=2 n=c#6 v=0
335544 On ch=2 n=c#5 v=127
336144 On ch=2 n=c#6 v=127
336341 On ch=2 n=c#6 v=0
337341 On ch=2 n=c#5 v=0
337944 On ch=2 n=c#4 v=127
337944 On ch=2 n=c#5 v=127
338141 On ch=2 n=c#5 v=0
338541 On ch=2 n=c#4 v=0
339145 On ch=2 n=c#6 v=127
339942 On ch=2 n=c#6 v=0
339945 On ch=2 n=c#6 v=127
340145 On ch=2 n=c#6 v=0
340948 On ch=2 n=c#6 v=127
341545 On ch=2 n=c#6 v=0
342750 On ch=2 n=c#6 v=127
342947 On ch=2 n=c#6 v=0
343150 On ch=2 n=c#6 v=127
343347 On ch=2 n=c#6 v=0
344550 On ch=2 n=c#5 v=127
345147 On ch=2 n=c#5 v=0
346352 On ch=2 n=c#5 v=127
346549 On ch=2 n=c#5 v=0
346752 On ch=2 n=c#4 v=127
346752 On ch=2 n=c#5 v=127
346949 On ch=2 n=c#5 v=0
346949 On ch=2 n=c#4 v=0
347152 On ch=2 n=c#5 v=127
347349 On ch=2 n=c#5 v=0
347552 On ch=2 n=c#4 v=127
347749 On ch=2 n=c#4 v=0
347952 On ch=2 n=c#5 v=127
348149 On ch=2 n=c#5 v=0
348953 On ch=2 n=c#6 v=127
349150 On ch=2 n=c#6 v=0
349353 On ch=2 n=c#6 v=127
349550 On ch=2 n=c#6 v=0
350553 On ch=2 n=c#4 v=127
351153 On ch=2 n=c#6 v=127
351350 On ch=2 n=c#4 v=0
351553 On ch=2 n=c#4 v=127
351750 On ch=2 n=c#4 v=0
351953 On ch=2 n=c#4 v=127
352150 On ch=2 n=c#4 v=0
352350 On ch=2 n=c#6 v=0
352954 On ch=2 n=c#4 v=127
353151 On ch=2 n=c#4 v=0
353554 On ch=2 n=c#5 v=127
354151 On ch=2 n=c#5 v=0
355354 On ch=2 n=c#4 v=127
355354 On ch=2 n=c#6 v=127
355551 On ch=2 n=c#4 v=0
356551 On ch=2 n=c#6 v=0
357155 On ch=2 n=c#4 v=127
357155 On ch=2 n=c#6 v=127
357752 On ch=2 n=c#6 v=0
357752 On ch=2 n=c#4 v=0
357755 On ch=2 n=c#5 v=127
357952 On ch=2 n=c#5 v=0
358555 On ch=2 n=c#5 v=127
358752 On ch=2 n=c#5 v=0
359555 On ch=2 n=c#5 v=127
360352 On ch=2 n=c#5 v=0
361357 On ch=2 n=c#5 v=127
361757 On ch=2 n=c#6 v=127
361954 On ch=2 n=c#5 v=0
362154 On ch=2 n=c#6 v=0
363557 On ch=2 n=c#5 v=127
363754 On ch=2 n=c#5 v=0
364157 On ch=2 n=c#6 v=127
364354 On ch=2 n=c#6 v=0
364557 On ch=2 n=c#6 v=127
364754 On ch=2 n=c#6 v=0
365558 On ch=2 n=c#4 v=127
366761 On ch=2 n=c#4 v=0
367964 On ch=2 n=c#5 v=127
368161 On ch=2 n=c#5 v=0
368364 On ch=2 n=c#5 v=127
368561 On ch=2 n=c#5 v=0
368964 On ch=2 n=c#5 v=127
369161 On ch=2 n=c#5 v=0
370365 On ch=2 n=c#4 v=127
370801 On ch=2 n=c#4 v=0
370965 On ch=2 n=c#4 v=127
371162 On ch=2 n=c#4 v=0
371165 On ch=2 n=c#5 v=127
371362 On ch=2 n=c#5 v=0
371365 On ch=2 n=c#4 v=127
371562 On ch=2 n=c#4 v=0
372165 On ch=2 n=c#5 v=127
372362 On ch=2 n=c#5 v=0
372965 On ch=2 n=c#5 v=127
373162 On ch=2 n=c#5 v=0
374367 On ch=2 n=c#5 v=127
374564 On ch=2 n=c#5 v=0
374767 On ch=2 n=c#4 v=127
374964 On ch=2 n=c#4 v=0
375367 On ch=2 n=c#5 v=127
375564 On ch=2 n=c#5 v=0
375767 On ch=2 n=c#5 v=127
375964 On ch=2 n=c#5 v=0
377368 On ch=2 n=c#6 v=127
377565 On ch=2 n=c#6 v=0
377568 On ch=2 n=c#5 v=127
377765 On ch=2 n=c#5 v=0
377968 On ch=2 n=c#5 v=127
378165 On ch=2 n=c#5 v=0
378368 On ch=2 n=c#5 v=127
378565 On ch=2 n=c#5 v=0
379368 On ch=2 n=c#5 v=127
379565 On ch=2 n=c#5 v=0
381169 On ch=2 n=c#6 v=127
381769 On ch=2 n=c#5 v=127
381966 On ch=2 n=c#5 v=0
382566 On ch=2 n=c#6 v=0
383569 On ch=2 n=c#5 v=127
383769 On ch=2 n=c#5 v=0
383974 On ch=2 n=c#5 v=127
384174 On ch=2 n=c#5 v=0
384580 On ch=2 n=c#5 v=127
384780 On ch=2 n=c#5 v=0
385590 On ch=2 n=c#5 v=127
385790 On ch=2 n=c#5 v=0
385995 On ch=2 n=c#5 v=127
386605 On ch=2 n=c#5 v=0
386812 On ch=2 n=c#4 v=127
387013 On ch=2 n=c#4 v=0
387015 On ch=2 n=c#6 v=127
387216 On ch=2 n=c#6 v=0
387863 On ch=2 n=c#6 v=127
389235 On ch=2 n=c#6 v=0
390075 On ch=2 n=c#6 v=127
390075 On ch=2 n=c#3 v=127
393328 On ch=2 n=c#3 v=0
393328 On ch=2 n=c#6 v=0
393328 Meta TrkEnd
TrkEnd
MTrk
0 SeqSpec 43 00 01 00
0 PrCh ch=3 p=0
0 Pb ch=3 v=8177
50083 On ch=3 n=d4 v=127
50236 On ch=3 n=d4 v=0
50381 On ch=3 n=d4 v=127
50534 On ch=3 n=d4 v=0
50677 On ch=3 n=d4 v=127
50830 On ch=3 n=d4 v=0
50975 On ch=3 n=d4 v=127
51121 On ch=3 n=d4 v=0
74091 On ch=3 n=d5 v=127
74484 On ch=3 n=d5 v=0
102207 On ch=3 n=d6 v=127
102600 On ch=3 n=d6 v=0
107751 On ch=3 n=d5 v=127
107946 On ch=3 n=d5 v=0
108147 On ch=3 n=d5 v=127
108342 On ch=3 n=d5 v=0
108543 On ch=3 n=d5 v=127
108936 On ch=3 n=d5 v=0
108940 On ch=3 n=d5 v=127
109333 On ch=3 n=d5 v=0
109335 On ch=3 n=d5 v=127
109530 On ch=3 n=d5 v=0
109731 On ch=3 n=d5 v=127
110124 On ch=3 n=d5 v=0
110127 On ch=3 n=d5 v=127
110520 On ch=3 n=d5 v=0
112701 On ch=3 n=d6 v=127
112896 On ch=3 n=d6 v=0
112900 On ch=3 n=d6 v=127
113293 On ch=3 n=d6 v=0
116860 On ch=3 n=d6 v=127
117253 On ch=3 n=d6 v=0
118245 On ch=3 n=d6 v=127
118440 On ch=3 n=d6 v=0
118443 On ch=3 n=d4 v=127
118836 On ch=3 n=d4 v=0
118840 On ch=3 n=d4 v=127
119233 On ch=3 n=d4 v=0
121215 On ch=3 n=d4 v=127
122993 On ch=3 n=d4 v=0
124780 On ch=3 n=d6 v=127
125173 On ch=3 n=d6 v=0
190911 On ch=3 n=d6 v=127
191106 On ch=3 n=d6 v=0
191307 On ch=3 n=d5 v=127
191502 On ch=3 n=d5 v=0
191703 On ch=3 n=d5 v=127
192096 On ch=3 n=d5 v=0
268927 On ch=3 n=d6 v=127
269524 On ch=3 n=d6 v=0
283137 On ch=3 n=d6 v=127
283334 On ch=3 n=d6 v=0
284938 On ch=3 n=d6 v=127
285135 On ch=3 n=d6 v=0
302350 On ch=3 n=d5 v=127
302744 On ch=3 n=d5 v=0
303747 On ch=3 n=d4 v=127
304344 On ch=3 n=d4 v=0
328157 On ch=3 n=d5 v=127
328354 On ch=3 n=d5 v=0
332958 On ch=3 n=d6 v=127
333155 On ch=3 n=d6 v=0
342565 On ch=3 n=d6 v=127
342762 On ch=3 n=d6 v=0
343965 On ch=3 n=d5 v=127
344562 On ch=3 n=d5 v=0
346567 On ch=3 n=d5 v=127
346764 On ch=3 n=d5 v=0
346967 On ch=3 n=d4 v=127
347164 On ch=3 n=d4 v=0
347367 On ch=3 n=d4 v=127
347564 On ch=3 n=d4 v=0
347767 On ch=3 n=d5 v=127
347964 On ch=3 n=d5 v=0
349968 On ch=3 n=d4 v=127
350565 On ch=3 n=d4 v=0
359370 On ch=3 n=d5 v=127
359567 On ch=3 n=d5 v=0
374982 On ch=3 n=d4 v=127
375179 On ch=3 n=d4 v=0
375582 On ch=3 n=d5 v=127
375779 On ch=3 n=d5 v=0
375982 On ch=3 n=d5 v=127
376179 On ch=3 n=d5 v=0
376179 Meta TrkEnd
TrkEnd
MTrk
0 SeqSpec 43 00 01 00
0 PrCh ch=4 p=0
0 Pb ch=4 v=8182
4395 On ch=4 n=d#6 v=127
5385 On ch=4 n=d#6 v=0
5385 On ch=4 n=d#6 v=127
5580 On ch=4 n=d#6 v=0
5980 On ch=4 n=d#5 v=127
7165 On ch=4 n=d#5 v=0
9147 On ch=4 n=d#6 v=127
9342 On ch=4 n=d#6 v=0
9543 On ch=4 n=d#4 v=127
10331 On ch=4 n=d#4 v=0
10335 On ch=4 n=d#6 v=127
10728 On ch=4 n=d#6 v=0
13503 On ch=4 n=d#6 v=127
13896 On ch=4 n=d#6 v=0
15087 On ch=4 n=d#6 v=127
15087 On ch=4 n=d#4 v=127
15480 On ch=4 n=d#4 v=0
15870 On ch=4 n=d#6 v=0
16275 On ch=4 n=d#6 v=127
16668 On ch=4 n=d#6 v=0
16671 On ch=4 n=d#6 v=127
17064 On ch=4 n=d#6 v=0
18651 On ch=4 n=d#4 v=127
18846 On ch=4 n=d#4 v=0
19840 On ch=4 n=d#6 v=127
20035 On ch=4 n=d#6 v=0
22413 On ch=4 n=d#4 v=127
22608 On ch=4 n=d#4 v=0
24195 On ch=4 n=d#4 v=127
24588 On ch=4 n=d#4 v=0
24987 On ch=4 n=d#5 v=127
25780 On ch=4 n=d#6 v=127
25780 On ch=4 n=d#4 v=127
26173 On ch=4 n=d#4 v=0
26173 On ch=4 n=d#6 v=0
26760 On ch=4 n=d#5 v=0
26770 On ch=4 n=d#5 v=127
26965 On ch=4 n=d#5 v=0
30927 On ch=4 n=d#4 v=127
31320 On ch=4 n=d#4 v=0
33501 On ch=4 n=d#5 v=127
33696 On ch=4 n=d#5 v=0
33700 On ch=4 n=d#4 v=127
34093 On ch=4 n=d#4 v=0
34887 On ch=4 n=d#5 v=127
35280 On ch=4 n=d#5 v=0
35680 On ch=4 n=d#5 v=127
36471 On ch=4 n=d#6 v=127
36471 On ch=4 n=d#3 v=127
36864 On ch=4 n=d#3 v=0
36864 On ch=4 n=d#6 v=0
38051 On ch=4 n=d#5 v=0
38847 On ch=4 n=d#4 v=127
39240 On ch=4 n=d#4 v=0
40035 On ch=4 n=d#4 v=127
40428 On ch=4 n=d#4 v=0
40827 On ch=4 n=d#4 v=127
41220 On ch=4 n=d#4 v=0
42807 On ch=4 n=d#3 v=127
43600 On ch=4 n=d#6 v=127
43993 On ch=4 n=d#6 v=0
43995 On ch=4 n=d#6 v=127
44388 On ch=4 n=d#6 v=0
44531 On ch=4 n=d#6 v=127
44622 On ch=4 n=d#3 v=0
44668 On ch=4 n=d#6 v=0
46371 On ch=4 n=d#6 v=127
46566 On ch=4 n=d#6 v=0
46767 On ch=4 n=d#6 v=127
47160 On ch=4 n=d#6 v=0
47560 On ch=4 n=d#4 v=127
48348 On ch=4 n=d#4 v=0
48351 On ch=4 n=d#6 v=127
48744 On ch=4 n=d#6 v=0
48747 On ch=4 n=d#4 v=127
48900 On ch=4 n=d#4 v=0
49045 On ch=4 n=d#4 v=127
49198 On ch=4 n=d#4 v=0
49341 On ch=4 n=d#4 v=127
49494 On ch=4 n=d#4 v=0
49941 On ch=4 n=d#4 v=127
50094 On ch=4 n=d#4 v=0
50232 On ch=4 n=d#4 v=127
50385 On ch=4 n=d#4 v=0
50530 On ch=4 n=d#4 v=127
50683 On ch=4 n=d#4 v=0
51123 On ch=4 n=d#4 v=127
52504 On ch=4 n=d#4 v=0
52510 On ch=4 n=d#6 v=127
52705 On ch=4 n=d#6 v=0
53103 On ch=4 n=d#6 v=127
53103 On ch=4 n=d#5 v=127
53496 On ch=4 n=d#5 v=0
53496 On ch=4 n=d#6 v=0
53895 On ch=4 n=d#5 v=127
54288 On ch=4 n=d#5 v=0
54687 On ch=4 n=d#5 v=127
55872 On ch=4 n=d#5 v=0
55875 On ch=4 n=d#4 v=127
57060 On ch=4 n=d#4 v=0
57855 On ch=4 n=d#4 v=127
58248 On ch=4 n=d#4 v=0
59043 On ch=4 n=d#6 v=127
59436 On ch=4 n=d#6 v=0
59440 On ch=4 n=d#6 v=127
59833 On ch=4 n=d#6 v=0
61420 On ch=4 n=d#4 v=127
61615 On ch=4 n=d#4 v=0
63003 On ch=4 n=d#6 v=127
63396 On ch=4 n=d#6 v=0
66270 On ch=4 n=d#4 v=127
66416 On ch=4 n=d#4 v=0
68151 On ch=4 n=d#6 v=127
68939 On ch=4 n=d#6 v=0
69933 On ch=4 n=d#6 v=127
70128 On ch=4 n=d#6 v=0
71715 On ch=4 n=d#6 v=127
72108 On ch=4 n=d#6 v=0
75675 On ch=4 n=d#6 v=127
76068 On ch=4 n=d#6 v=0
77853 On ch=4 n=d#5 v=127
78048 On ch=4 n=d#5 v=0
80031 On ch=4 n=d#6 v=127
80424 On ch=4 n=d#6 v=0
80823 On ch=4 n=d#6 v=127
81216 On ch=4 n=d#6 v=0
82407 On ch=4 n=d#5 v=127
82800 On ch=4 n=d#5 v=0
84783 On ch=4 n=d#6 v=127
85176 On ch=4 n=d#6 v=0
85575 On ch=4 n=d#5 v=127
85968 On ch=4 n=d#5 v=0
88347 On ch=4 n=d#6 v=127
88740 On ch=4 n=d#6 v=0
91515 On ch=4 n=d#5 v=127
92700 On ch=4 n=d#5 v=0
94090 On ch=4 n=d#6 v=127
94285 On ch=4 n=d#6 v=0
94881 On ch=4 n=d#4 v=127
95076 On ch=4 n=d#4 v=0
95277 On ch=4 n=d#6 v=127
95472 On ch=4 n=d#6 v=0
96663 On ch=4 n=d#5 v=127
97056 On ch=4 n=d#5 v=0
97060 On ch=4 n=d#6 v=127
97255 On ch=4 n=d#6 v=0
97455 On ch=4 n=d#6 v=127
98238 On ch=4 n=d#6 v=0
104187 On ch=4 n=d#6 v=127
104385 On ch=4 n=d#5 v=127
104580 On ch=4 n=d#5 v=0
104580 On ch=4 n=d#6 v=0
104781 On ch=4 n=d#5 v=127
104976 On ch=4 n=d#5 v=0
105970 On ch=4 n=d#5 v=127
106165 On ch=4 n=d#5 v=0
126760 On ch=4 n=d#4 v=127
126955 On ch=4 n=d#4 v=0
127155 On ch=4 n=d#6 v=127
127548 On ch=4 n=d#6 v=0
129333 On ch=4 n=d#4 v=127
129528 On ch=4 n=d#4 v=0
130323 On ch=4 n=d#4 v=127
130518 On ch=4 n=d#4 v=0
131907 On ch=4 n=d#4 v=127
132300 On ch=4 n=d#4 v=0
132700 On ch=4 n=d#6 v=127
132895 On ch=4 n=d#6 v=0
133887 On ch=4 n=d#4 v=127
134280 On ch=4 n=d#4 v=0
134680 On ch=4 n=d#6 v=127
135073 On ch=4 n=d#6 v=0
137055 On ch=4 n=d#5 v=127
137448 On ch=4 n=d#5 v=0
139431 On ch=4 n=d#6 v=127
139630 On ch=4 n=d#4 v=127
139825 On ch=4 n=d#4 v=0
140799 On ch=4 n=d#6 v=0
140817 On ch=4 n=d#6 v=127
141012 On ch=4 n=d#6 v=0
142302 On ch=4 n=d#4 v=127
142448 On ch=4 n=d#4 v=0
144975 On ch=4 n=d#4 v=127
145368 On ch=4 n=d#4 v=0
148935 On ch=4 n=d#6 v=127
149328 On ch=4 n=d#6 v=0
150520 On ch=4 n=d#6 v=127
150520 On ch=4 n=d#4 v=127
150913 On ch=4 n=d#4 v=0
151303 On ch=4 n=d#6 v=0
151707 On ch=4 n=d#6 v=127
152100 On ch=4 n=d#6 v=0
152103 On ch=4 n=d#6 v=127
152496 On ch=4 n=d#6 v=0
154083 On ch=4 n=d#4 v=127
154278 On ch=4 n=d#4 v=0
155271 On ch=4 n=d#6 v=127
155466 On ch=4 n=d#6 v=0
157845 On ch=4 n=d#4 v=127
158040 On ch=4 n=d#4 v=0
159033 On ch=4 n=d#4 v=127
159228 On ch=4 n=d#4 v=0
159430 On ch=4 n=d#6 v=127
159625 On ch=4 n=d#6 v=0
161607 On ch=4 n=d#4 v=127
162198 On ch=4 n=d#4 v=0
162400 On ch=4 n=d#4 v=127
162595 On ch=4 n=d#4 v=0
162795 On ch=4 n=d#4 v=127
163583 On ch=4 n=d#4 v=0
163587 On ch=4 n=d#6 v=127
163587 On ch=4 n=d#4 v=127
163980 On ch=4 n=d#4 v=0
163980 On ch=4 n=d#6 v=0
163983 On ch=4 n=d#4 v=127
164574 On ch=4 n=d#4 v=0
164577 On ch=4 n=d#6 v=127
164772 On ch=4 n=d#6 v=0
164973 On ch=4 n=d#6 v=127
165168 On ch=4 n=d#6 v=0
165171 On ch=4 n=d#6 v=127
165564 On ch=4 n=d#6 v=0
165765 On ch=4 n=d#4 v=127
165960 On ch=4 n=d#4 v=0
166755 On ch=4 n=d#4 v=127
167148 On ch=4 n=d#4 v=0
167943 On ch=4 n=d#6 v=127
168336 On ch=4 n=d#6 v=0
169330 On ch=4 n=d#4 v=127
169525 On ch=4 n=d#4 v=0
170715 On ch=4 n=d#5 v=127
171108 On ch=4 n=d#5 v=0
171111 On ch=4 n=d#5 v=127
171504 On ch=4 n=d#5 v=0
173883 On ch=4 n=d#5 v=127
174276 On ch=4 n=d#5 v=0
175071 On ch=4 n=d#5 v=127
175266 On ch=4 n=d#5 v=0
175665 On ch=4 n=d#6 v=127
175665 On ch=4 n=d#4 v=127
175860 On ch=4 n=d#4 v=0
175860 On ch=4 n=d#6 v=0
177942 On ch=4 n=d#4 v=127
178088 On ch=4 n=d#4 v=0
178240 On ch=4 n=d#4 v=127
178831 On ch=4 n=d#4 v=0
178833 On ch=4 n=d#5 v=127
179028 On ch=4 n=d#5 v=0
179427 On ch=4 n=d#6 v=127
179622 On ch=4 n=d#6 v=0
179823 On ch=4 n=d#6 v=127
180018 On ch=4 n=d#6 v=0
180220 On ch=4 n=d#6 v=127
180220 On ch=4 n=d#4 v=127
180415 On ch=4 n=d#4 v=0
180613 On ch=4 n=d#6 v=0
180615 On ch=4 n=d#6 v=127
181011 On ch=4 n=d#4 v=127
181403 On ch=4 n=d#6 v=0
181404 On ch=4 n=d#4 v=0
181407 On ch=4 n=d#6 v=127
181800 On ch=4 n=d#6 v=0
181803 On ch=4 n=d#6 v=127
182196 On ch=4 n=d#6 v=0
182397 On ch=4 n=d#6 v=127
182397 On ch=4 n=d#4 v=127
182592 On ch=4 n=d#4 v=0
182592 On ch=4 n=d#6 v=0
183387 On ch=4 n=d#6 v=127
183780 On ch=4 n=d#6 v=0
184575 On ch=4 n=d#6 v=127
184968 On ch=4 n=d#6 v=0
185763 On ch=4 n=d#5 v=127
185958 On ch=4 n=d#5 v=0
186160 On ch=4 n=d#5 v=127
186553 On ch=4 n=d#5 v=0
186555 On ch=4 n=d#6 v=127
186750 On ch=4 n=d#6 v=0
186951 On ch=4 n=d#6 v=127
187347 On ch=4 n=d#5 v=127
187740 On ch=4 n=d#5 v=0
188332 On ch=4 n=d#6 v=0
188337 On ch=4 n=d#6 v=127
188532 On ch=4 n=d#6 v=0
189822 On ch=4 n=d#6 v=127
189968 On ch=4 n=d#6 v=0
193287 On ch=4 n=d#4 v=127
193482 On ch=4 n=d#4 v=0
194871 On ch=4 n=d#4 v=127
195264 On ch=4 n=d#4 v=0
196455 On ch=4 n=d#4 v=127
196848 On ch=4 n=d#4 v=0
197445 On ch=4 n=d#5 v=127
197640 On ch=4 n=d#5 v=0
198040 On ch=4 n=d#4 v=127
198433 On ch=4 n=d#4 v=0
198831 On ch=4 n=d#5 v=127
199224 On ch=4 n=d#5 v=0
200811 On ch=4 n=d#5 v=127
201599 On ch=4 n=d#5 v=0
202000 On ch=4 n=d#6 v=127
202000 On ch=4 n=d#4 v=127
202195 On ch=4 n=d#4 v=0
202791 On ch=4 n=d#4 v=127
203184 On ch=4 n=d#4 v=0
203980 On ch=4 n=d#6 v=0
206355 On ch=4 n=d#6 v=127
206748 On ch=4 n=d#6 v=0
211503 On ch=4 n=d#6 v=127
211896 On ch=4 n=d#6 v=0
212691 On ch=4 n=d#6 v=127
213474 On ch=4 n=d#6 v=0
214683 On ch=4 n=d#6 v=127
215083 On ch=4 n=d#6 v=0
216325 On ch=4 n=d#5 v=127
217173 On ch=4 n=d#5 v=0
222112 On ch=4 n=d#4 v=127
222309 On ch=4 n=d#4 v=0
222512 On ch=4 n=d#4 v=127
222709 On ch=4 n=d#4 v=0
223512 On ch=4 n=d#4 v=127
223709 On ch=4 n=d#4 v=0
224513 On ch=4 n=d#4 v=127
224710 On ch=4 n=d#4 v=0
225313 On ch=4 n=d#4 v=127
225510 On ch=4 n=d#4 v=0
226313 On ch=4 n=d#5 v=127
226510 On ch=4 n=d#5 v=0
228312 On ch=4 n=d#6 v=127
228509 On ch=4 n=d#6 v=0
230512 On ch=4 n=d#4 v=127
231109 On ch=4 n=d#4 v=0
231712 On ch=4 n=d#5 v=127
231909 On ch=4 n=d#5 v=0
232112 On ch=4 n=d#5 v=127
232309 On ch=4 n=d#5 v=0
233113 On ch=4 n=d#5 v=127
233310 On ch=4 n=d#5 v=0
233513 On ch=4 n=d#5 v=127
234110 On ch=4 n=d#5 v=0
234113 On ch=4 n=d#5 v=127
234113 On ch=4 n=d#6 v=127
234310 On ch=4 n=d#5 v=0
234710 On ch=4 n=d#6 v=0
234913 On ch=4 n=d#5 v=127
235110 On ch=4 n=d#5 v=0
235913 On ch=4 n=d#5 v=127
236110 On ch=4 n=d#5 v=0
236314 On ch=4 n=d#5 v=127
236511 On ch=4 n=d#5 v=0
236914 On ch=4 n=d#5 v=127
237111 On ch=4 n=d#5 v=0
237314 On ch=4 n=d#5 v=127
237511 On ch=4 n=d#5 v=0
237714 On ch=4 n=d#5 v=127
237911 On ch=4 n=d#5 v=0
240715 On ch=4 n=d#5 v=127
241315 On ch=4 n=d#4 v=127
241512 On ch=4 n=d#4 v=0
241912 On ch=4 n=d#5 v=0
242115 On ch=4 n=d#4 v=127
242312 On ch=4 n=d#4 v=0
243115 On ch=4 n=d#4 v=127
243712 On ch=4 n=d#4 v=0
243715 On ch=4 n=d#5 v=127
243912 On ch=4 n=d#5 v=0
244517 On ch=4 n=d#5 v=127
244714 On ch=4 n=d#5 v=0
247317 On ch=4 n=d#5 v=127
247514 On ch=4 n=d#5 v=0
248117 On ch=4 n=d#4 v=127
248314 On ch=4 n=d#4 v=0
249118 On ch=4 n=d#4 v=127
249315 On ch=4 n=d#4 v=0
250918 On ch=4 n=d#4 v=127
251515 On ch=4 n=d#4 v=0
252319 On ch=4 n=d#5 v=127
252516 On ch=4 n=d#5 v=0
253919 On ch=4 n=d#5 v=127
254516 On ch=4 n=d#5 v=0
255919 On ch=4 n=d#5 v=127
256116 On ch=4 n=d#5 v=0
256320 On ch=4 n=d#3 v=127
256917 On ch=4 n=d#3 v=0
256920 On ch=4 n=d#5 v=127
257117 On ch=4 n=d#5 v=0
257720 On ch=4 n=d#4 v=127
257917 On ch=4 n=d#4 v=0
258120 On ch=4 n=d#6 v=127
258317 On ch=4 n=d#6 v=0
258520 On ch=4 n=d#6 v=127
258717 On ch=4 n=d#6 v=0
259120 On ch=4 n=d#4 v=127
259317 On ch=4 n=d#4 v=0
259520 On ch=4 n=d#6 v=127
259717 On ch=4 n=d#6 v=0
260522 On ch=4 n=d#6 v=127
260719 On ch=4 n=d#6 v=0
261322 On ch=4 n=d#6 v=127
261519 On ch=4 n=d#6 v=0
262322 On ch=4 n=d#5 v=127
262519 On ch=4 n=d#5 v=0
262922 On ch=4 n=d#6 v=127
263519 On ch=4 n=d#6 v=0
264122 On ch=4 n=d#5 v=127
264323 On ch=4 n=d#6 v=127
264520 On ch=4 n=d#6 v=0
264719 On ch=4 n=d#5 v=0
266523 On ch=4 n=d#6 v=127
267120 On ch=4 n=d#6 v=0
267323 On ch=4 n=d#4 v=127
267520 On ch=4 n=d#4 v=0
268324 On ch=4 n=d#6 v=127
268724 On ch=4 n=d#4 v=127
268921 On ch=4 n=d#4 v=0
268921 On ch=4 n=d#6 v=0
270124 On ch=4 n=d#6 v=127
270321 On ch=4 n=d#6 v=0
271524 On ch=4 n=d#6 v=127
271721 On ch=4 n=d#6 v=0
272525 On ch=4 n=d#4 v=127
272722 On ch=4 n=d#4 v=0
272925 On ch=4 n=d#6 v=127
273122 On ch=4 n=d#6 v=0
273325 On ch=4 n=d#4 v=127
273522 On ch=4 n=d#4 v=0
274325 On ch=4 n=d#5 v=127
274922 On ch=4 n=d#5 v=0
275125 On ch=4 n=d#6 v=127
275322 On ch=4 n=d#6 v=0
275525 On ch=4 n=d#6 v=127
276322 On ch=4 n=d#6 v=0
276727 On ch=4 n=d#5 v=127
277324 On ch=4 n=d#5 v=0
278527 On ch=4 n=d#5 v=127
278724 On ch=4 n=d#5 v=0
278927 On ch=4 n=d#6 v=127
279124 On ch=4 n=d#6 v=0
279327 On ch=4 n=d#6 v=127
279524 On ch=4 n=d#6 v=0
280328 On ch=4 n=d#6 v=127
280525 On ch=4 n=d#6 v=0
280728 On ch=4 n=d#6 v=127
280925 On ch=4 n=d#6 v=0
281328 On ch=4 n=d#5 v=127
281328 On ch=4 n=d#6 v=127
281525 On ch=4 n=d#6 v=0
281525 On ch=4 n=d#5 v=0
281728 On ch=4 n=d#6 v=127
281925 On ch=4 n=d#6 v=0
284535 On ch=4 n=d#6 v=127
284929 On ch=4 n=d#6 v=0
286332 On ch=4 n=d#6 v=127
286726 On ch=4 n=d#6 v=0
288731 On ch=4 n=d#4 v=127
288928 On ch=4 n=d#4 v=0
289131 On ch=4 n=d#4 v=127
289328 On ch=4 n=d#4 v=0
289331 On ch=4 n=d#6 v=127
289731 On ch=4 n=d#4 v=127
289928 On ch=4 n=d#4 v=0
290328 On ch=4 n=d#6 v=0
290731 On ch=4 n=d#4 v=127
290928 On ch=4 n=d#4 v=0
291731 On ch=4 n=d#5 v=127
291928 On ch=4 n=d#5 v=0
292131 On ch=4 n=d#5 v=127
292328 On ch=4 n=d#5 v=0
292732 On ch=4 n=d#6 v=127
292929 On ch=4 n=d#6 v=0
293132 On ch=4 n=d#5 v=127
293329 On ch=4 n=d#5 v=0
293532 On ch=4 n=d#4 v=127
294129 On ch=4 n=d#4 v=0
294132 On ch=4 n=d#5 v=127
294329 On ch=4 n=d#5 v=0
294932 On ch=4 n=d#5 v=127
295129 On ch=4 n=d#5 v=0
295932 On ch=4 n=d#5 v=127
296129 On ch=4 n=d#5 v=0
296332 On ch=4 n=d#5 v=127
296529 On ch=4 n=d#5 v=0
296933 On ch=4 n=d#5 v=127
297130 On ch=4 n=d#5 v=0
297334 On ch=4 n=d#5 v=127
297534 On ch=4 n=d#5 v=0
297739 On ch=4 n=d#5 v=127
297936 On ch=4 n=d#5 v=0
298539 On ch=4 n=d#5 v=127
298736 On ch=4 n=d#5 v=0
299539 On ch=4 n=d#5 v=127
300136 On ch=4 n=d#5 v=0
301341 On ch=4 n=d#4 v=127
301938 On ch=4 n=d#4 v=0
305542 On ch=4 n=d#6 v=127
306139 On ch=4 n=d#6 v=0
306342 On ch=4 n=d#4 v=127
306539 On ch=4 n=d#4 v=0
307342 On ch=4 n=d#4 v=127
307539 On ch=4 n=d#4 v=0
308342 On ch=4 n=d#4 v=127
308539 On ch=4 n=d#4 v=0
308743 On ch=4 n=d#4 v=127
308940 On ch=4 n=d#4 v=0
309143 On ch=4 n=d#6 v=127
309543 On ch=4 n=d#4 v=127
309740 On ch=4 n=d#4 v=0
309740 On ch=4 n=d#6 v=0
310943 On ch=4 n=d#6 v=127
311740 On ch=4 n=d#6 v=0
312343 On ch=4 n=d#6 v=127
312540 On ch=4 n=d#6 v=0
312744 On ch=4 n=d#4 v=127
312944 On ch=4 n=d#6 v=127
313141 On ch=4 n=d#6 v=0
313541 On ch=4 n=d#4 v=0
313744 On ch=4 n=d#4 v=127
313941 On ch=4 n=d#4 v=0
314744 On ch=4 n=d#4 v=127
314941 On ch=4 n=d#4 v=0
315144 On ch=4 n=d#6 v=127
315341 On ch=4 n=d#6 v=0
315544 On ch=4 n=d#6 v=127
315741 On ch=4 n=d#6 v=0
316144 On ch=4 n=d#6 v=127
316341 On ch=4 n=d#6 v=0
316946 On ch=4 n=d#4 v=127
317146 On ch=4 n=d#6 v=127
317343 On ch=4 n=d#6 v=0
317543 On ch=4 n=d#4 v=0
318346 On ch=4 n=d#5 v=127
318543 On ch=4 n=d#5 v=0
318746 On ch=4 n=d#5 v=127
319346 On ch=4 n=d#4 v=127
319543 On ch=4 n=d#4 v=0
319943 On ch=4 n=d#5 v=0
320146 On ch=4 n=d#4 v=127
320343 On ch=4 n=d#4 v=0
322947 On ch=4 n=d#4 v=127
323144 On ch=4 n=d#4 v=0
323747 On ch=4 n=d#5 v=127
323944 On ch=4 n=d#5 v=0
324748 On ch=4 n=d#5 v=127
324945 On ch=4 n=d#5 v=0
325948 On ch=4 n=d#5 v=127
326545 On ch=4 n=d#5 v=0
328951 On ch=4 n=d#6 v=127
329748 On ch=4 n=d#6 v=0
329951 On ch=4 n=d#6 v=127
330148 On ch=4 n=d#6 v=0
330752 On ch=4 n=d#4 v=127
330952 On ch=4 n=d#6 v=127
331149 On ch=4 n=d#6 v=0
331149 On ch=4 n=d#4 v=0
331352 On ch=4 n=d#5 v=127
331549 On ch=4 n=d#5 v=0
331752 On ch=4 n=d#5 v=127
331949 On ch=4 n=d#5 v=0
333952 On ch=4 n=d#4 v=127
334149 On ch=4 n=d#4 v=0
334953 On ch=4 n=d#6 v=127
335150 On ch=4 n=d#6 v=0
335353 On ch=4 n=d#6 v=127
335550 On ch=4 n=d#6 v=0
336353 On ch=4 n=d#6 v=127
336550 On ch=4 n=d#6 v=0
336753 On ch=4 n=d#4 v=127
337350 On ch=4 n=d#4 v=0
337353 On ch=4 n=d#6 v=127
337550 On ch=4 n=d#6 v=0
338554 On ch=4 n=d#6 v=127
339151 On ch=4 n=d#6 v=0
340357 On ch=4 n=d#6 v=127
340557 On ch=4 n=d#5 v=127
340754 On ch=4 n=d#5 v=0
340954 On ch=4 n=d#6 v=0
341957 On ch=4 n=d#5 v=127
342154 On ch=4 n=d#5 v=0
343359 On ch=4 n=d#5 v=127
343956 On ch=4 n=d#5 v=0
345161 On ch=4 n=d#4 v=127
345758 On ch=4 n=d#4 v=0
349362 On ch=4 n=d#4 v=127
349959 On ch=4 n=d#4 v=0
351762 On ch=4 n=d#4 v=127
351959 On ch=4 n=d#4 v=0
352162 On ch=4 n=d#4 v=127
352359 On ch=4 n=d#4 v=0
353163 On ch=4 n=d#4 v=127
353360 On ch=4 n=d#4 v=0
354163 On ch=4 n=d#4 v=127
354163 On ch=4 n=d#6 v=127
354360 On ch=4 n=d#4 v=0
354760 On ch=4 n=d#6 v=0
354963 On ch=4 n=d#4 v=127
355160 On ch=4 n=d#4 v=0
355963 On ch=4 n=d#4 v=127
356560 On ch=4 n=d#4 v=0
356563 On ch=4 n=d#5 v=127
356760 On ch=4 n=d#5 v=0
357364 On ch=4 n=d#5 v=127
357561 On ch=4 n=d#5 v=0
358364 On ch=4 n=d#5 v=127
358561 On ch=4 n=d#5 v=0
358764 On ch=4 n=d#5 v=127
358961 On ch=4 n=d#5 v=0
360164 On ch=4 n=d#4 v=127
360761 On ch=4 n=d#4 v=0
361166 On ch=4 n=d#5 v=127
361363 On ch=4 n=d#5 v=0
361966 On ch=4 n=d#5 v=127
362563 On ch=4 n=d#5 v=0
362766 On ch=4 n=d#6 v=127
362963 On ch=4 n=d#6 v=0
363366 On ch=4 n=d#5 v=127
363563 On ch=4 n=d#5 v=0
363766 On ch=4 n=d#6 v=127
363963 On ch=4 n=d#6 v=0
364766 On ch=4 n=d#6 v=127
364963 On ch=4 n=d#6 v=0
365367 On ch=4 n=d#4 v=127
365564 On ch=4 n=d#4 v=0
365767 On ch=4 n=d#6 v=127
365964 On ch=4 n=d#6 v=0
366773 On ch=4 n=d#4 v=127
366970 On ch=4 n=d#4 v=0
368573 On ch=4 n=d#4 v=127
368773 On ch=4 n=d#5 v=127
368970 On ch=4 n=d#5 v=0
369170 On ch=4 n=d#4 v=0
369774 On ch=4 n=d#5 v=127
369971 On ch=4 n=d#5 v=0
371774 On ch=4 n=d#5 v=127
371971 On ch=4 n=d#5 v=0
372774 On ch=4 n=d#5 v=127
372971 On ch=4 n=d#5 v=0
374176 On ch=4 n=d#5 v=127
374373 On ch=4 n=d#5 v=0
374576 On ch=4 n=d#5 v=127
374773 On ch=4 n=d#5 v=0
378177 On ch=4 n=d#5 v=127
378374 On ch=4 n=d#5 v=0
378577 On ch=4 n=d#5 v=127
378774 On ch=4 n=d#5 v=0
379577 On ch=4 n=d#5 v=127
379774 On ch=4 n=d#5 v=0
379977 On ch=4 n=d#6 v=127
380574 On ch=4 n=d#6 v=0
380577 On ch=4 n=d#5 v=127
380774 On ch=4 n=d#5 v=0
381378 On ch=4 n=d#5 v=127
381575 On ch=4 n=d#5 v=0
382378 On ch=4 n=d#4 v=127
382575 On ch=4 n=d#4 v=0
384387 On ch=4 n=d#5 v=127
384587 On ch=4 n=d#5 v=0
384791 On ch=4 n=d#5 v=127
385394 On ch=4 n=d#5 v=0
386617 On ch=4 n=d#6 v=127
387023 On ch=4 n=d#6 v=0
387024 On ch=4 n=d#4 v=127
387225 On ch=4 n=d#4 v=0
387443 On ch=4 n=d#4 v=127
387654 On ch=4 n=d#4 v=0
388312 On ch=4 n=d#5 v=127
388534 On ch=4 n=d#5 v=0
389797 On ch=4 n=d#5 v=127
390067 On ch=4 n=d#5 v=0
390067 Meta TrkEnd
TrkEnd
MTrk
0 SeqSpec 43 00 01 00
0 PrCh ch=5 p=0
0 Pb ch=5 v=8202
435 On ch=5 n=e4 v=127
828 On ch=5 n=e4 v=0
2415 On ch=5 n=e5 v=127
3207 On ch=5 n=e6 v=127
3600 On ch=5 n=e6 v=0
3600 On ch=5 n=e5 v=0
3603 On ch=5 n=e6 v=127
4391 On ch=5 n=e6 v=0
5583 On ch=5 n=e6 v=127
5778 On ch=5 n=e6 v=0
6573 On ch=5 n=e4 v=127
6768 On ch=5 n=e4 v=0
8950 On ch=5 n=e6 v=127
9145 On ch=5 n=e6 v=0
9345 On ch=5 n=e4 v=127
9540 On ch=5 n=e4 v=0
12272 On ch=5 n=e6 v=127
12405 On ch=5 n=e6 v=0
12548 On ch=5 n=e6 v=127
12681 On ch=5 n=e6 v=0
12825 On ch=5 n=e6 v=127
12958 On ch=5 n=e6 v=0
13101 On ch=5 n=e6 v=127
13234 On ch=5 n=e6 v=0
13371 On ch=5 n=e6 v=127
13499 On ch=5 n=e6 v=0
13900 On ch=5 n=e6 v=127
14293 On ch=5 n=e6 v=0
14295 On ch=5 n=e6 v=127
15083 On ch=5 n=e6 v=0
17067 On ch=5 n=e6 v=127
17460 On ch=5 n=e6 v=0
19641 On ch=5 n=e6 v=127
19836 On ch=5 n=e6 v=0
20037 On ch=5 n=e4 v=127
20232 On ch=5 n=e4 v=0
22215 On ch=5 n=e4 v=127
22410 On ch=5 n=e4 v=0
22611 On ch=5 n=e4 v=127
24192 On ch=5 n=e4 v=0
24591 On ch=5 n=e5 v=127
24984 On ch=5 n=e5 v=0
25383 On ch=5 n=e4 v=127
25776 On ch=5 n=e4 v=0
30531 On ch=5 n=e4 v=127
30924 On ch=5 n=e4 v=0
31323 On ch=5 n=e4 v=127
31716 On ch=5 n=e4 v=0
33303 On ch=5 n=e5 v=127
33498 On ch=5 n=e5 v=0
33700 On ch=5 n=e5 v=127
34885 On ch=5 n=e5 v=0
35283 On ch=5 n=e5 v=127
35676 On ch=5 n=e5 v=0
39243 On ch=5 n=e4 v=127
39636 On ch=5 n=e4 v=0
43203 On ch=5 n=e6 v=127
43596 On ch=5 n=e6 v=0
44391 On ch=5 n=e6 v=127
44528 On ch=5 n=e6 v=0
44671 On ch=5 n=e6 v=127
45746 On ch=5 n=e6 v=0
47163 On ch=5 n=e6 v=127
47163 On ch=5 n=e4 v=127
47556 On ch=5 n=e4 v=0
47556 On ch=5 n=e6 v=0
47955 On ch=5 n=e6 v=127
48348 On ch=5 n=e6 v=0
52707 On ch=5 n=e6 v=127
53100 On ch=5 n=e6 v=0
53500 On ch=5 n=e5 v=127
53893 On ch=5 n=e5 v=0
59835 On ch=5 n=e6 v=127
60228 On ch=5 n=e6 v=0
61617 On ch=5 n=e4 v=127
61812 On ch=5 n=e4 v=0
63201 On ch=5 n=e4 v=127
63396 On ch=5 n=e4 v=0
63597 On ch=5 n=e6 v=127
63792 On ch=5 n=e6 v=0
65527 On ch=5 n=e4 v=127
65673 On ch=5 n=e4 v=0
65825 On ch=5 n=e4 v=127
65971 On ch=5 n=e4 v=0
66122 On ch=5 n=e4 v=127
66268 On ch=5 n=e4 v=0
66418 On ch=5 n=e4 v=127
66564 On ch=5 n=e4 v=0
67458 On ch=5 n=e4 v=127
67604 On ch=5 n=e4 v=0
67755 On ch=5 n=e6 v=127
68148 On ch=5 n=e6 v=0
75280 On ch=5 n=e6 v=127
75673 On ch=5 n=e6 v=0
76071 On ch=5 n=e6 v=127
77655 On ch=5 n=e5 v=127
77850 On ch=5 n=e5 v=0
78051 On ch=5 n=e5 v=127
78444 On ch=5 n=e5 v=0
80031 On ch=5 n=e6 v=0
82011 On ch=5 n=e5 v=127
82404 On ch=5 n=e5 v=0
84387 On ch=5 n=e6 v=127
84780 On ch=5 n=e6 v=0
85180 On ch=5 n=e5 v=127
85573 On ch=5 n=e5 v=0
86763 On ch=5 n=e5 v=127
88743 On ch=5 n=e6 v=127
89136 On ch=5 n=e6 v=0
91104 On ch=5 n=e5 v=0
91120 On ch=5 n=e5 v=127
91315 On ch=5 n=e5 v=0
92435 On ch=5 n=e5 v=127
92563 On ch=5 n=e5 v=0
92703 On ch=5 n=e5 v=127
92703 On ch=5 n=e4 v=127
93486 On ch=5 n=e5 v=0
93891 On ch=5 n=e6 v=127
94086 On ch=5 n=e6 v=0
94284 On ch=5 n=e4 v=0
94287 On ch=5 n=e6 v=127
94680 On ch=5 n=e6 v=0
94683 On ch=5 n=e6 v=127
94683 On ch=5 n=e4 v=127
94878 On ch=5 n=e4 v=0
95076 On ch=5 n=e6 v=0
95080 On ch=5 n=e6 v=127
95275 On ch=5 n=e6 v=0
95475 On ch=5 n=e6 v=127
95868 On ch=5 n=e6 v=0
95871 On ch=5 n=e6 v=127
96264 On ch=5 n=e6 v=0
96267 On ch=5 n=e6 v=127
96660 On ch=5 n=e6 v=0
96861 On ch=5 n=e6 v=127
97056 On ch=5 n=e6 v=0
102010 On ch=5 n=e6 v=127
102205 On ch=5 n=e6 v=0
102801 On ch=5 n=e6 v=127
102996 On ch=5 n=e6 v=0
104187 On ch=5 n=e5 v=127
104382 On ch=5 n=e5 v=0
104583 On ch=5 n=e5 v=127
104778 On ch=5 n=e5 v=0
104980 On ch=5 n=e5 v=127
105373 On ch=5 n=e5 v=0
105375 On ch=5 n=e5 v=127
105768 On ch=5 n=e5 v=0
105771 On ch=5 n=e5 v=127
105966 On ch=5 n=e5 v=0
106167 On ch=5 n=e5 v=127
106560 On ch=5 n=e5 v=0
106563 On ch=5 n=e5 v=127
106956 On ch=5 n=e5 v=0
106960 On ch=5 n=e5 v=127
107353 On ch=5 n=e5 v=0
107553 On ch=5 n=e5 v=127
107748 On ch=5 n=e5 v=0
116463 On ch=5 n=e6 v=127
116856 On ch=5 n=e6 v=0
118047 On ch=5 n=e4 v=127
118440 On ch=5 n=e4 v=0
119235 On ch=5 n=e4 v=127
120618 On ch=5 n=e4 v=0
126957 On ch=5 n=e4 v=127
127152 On ch=5 n=e4 v=0
127551 On ch=5 n=e6 v=127
127944 On ch=5 n=e6 v=0
129135 On ch=5 n=e4 v=127
129330 On ch=5 n=e4 v=0
129531 On ch=5 n=e4 v=127
129924 On ch=5 n=e4 v=0
130125 On ch=5 n=e4 v=127
130320 On ch=5 n=e4 v=0
131511 On ch=5 n=e5 v=127
131904 On ch=5 n=e5 v=0
132303 On ch=5 n=e4 v=127
132501 On ch=5 n=e6 v=127
132696 On ch=5 n=e6 v=0
132696 On ch=5 n=e4 v=0
136660 On ch=5 n=e5 v=127
138637 On ch=5 n=e5 v=0
138640 On ch=5 n=e6 v=127
139033 On ch=5 n=e6 v=0
139035 On ch=5 n=e6 v=127
139428 On ch=5 n=e6 v=0
139827 On ch=5 n=e4 v=127
140022 On ch=5 n=e4 v=0
141015 On ch=5 n=e6 v=127
141210 On ch=5 n=e6 v=0
144580 On ch=5 n=e4 v=127
144973 On ch=5 n=e4 v=0
145371 On ch=5 n=e4 v=127
145764 On ch=5 n=e4 v=0
147703 On ch=5 n=e6 v=127
147843 On ch=5 n=e6 v=0
147980 On ch=5 n=e6 v=127
148120 On ch=5 n=e6 v=0
148256 On ch=5 n=e6 v=127
148396 On ch=5 n=e6 v=0
148533 On ch=5 n=e6 v=127
148673 On ch=5 n=e6 v=0
148803 On ch=5 n=e6 v=127
148931 On ch=5 n=e6 v=0
149331 On ch=5 n=e6 v=127
149724 On ch=5 n=e6 v=0
149727 On ch=5 n=e6 v=127
150515 On ch=5 n=e6 v=0
152500 On ch=5 n=e6 v=127
152893 On ch=5 n=e6 v=0
155073 On ch=5 n=e6 v=127
155268 On ch=5 n=e6 v=0
155470 On ch=5 n=e4 v=127
155665 On ch=5 n=e4 v=0
155865 On ch=5 n=e4 v=127
156060 On ch=5 n=e4 v=0
158043 On ch=5 n=e4 v=127
158634 On ch=5 n=e4 v=0
158835 On ch=5 n=e4 v=127
159030 On ch=5 n=e4 v=0
159231 On ch=5 n=e4 v=127
159627 On ch=5 n=e6 v=127
160019 On ch=5 n=e4 v=0
160020 On ch=5 n=e6 v=0
160023 On ch=5 n=e4 v=127
160416 On ch=5 n=e4 v=0
160420 On ch=5 n=e4 v=127
161011 On ch=5 n=e4 v=0
162201 On ch=5 n=e4 v=127
162396 On ch=5 n=e4 v=0
165567 On ch=5 n=e6 v=127
165765 On ch=5 n=e5 v=127
165960 On ch=5 n=e5 v=0
167151 On ch=5 n=e4 v=127
167544 On ch=5 n=e4 v=0
167938 On ch=5 n=e6 v=0
169527 On ch=5 n=e4 v=127
169722 On ch=5 n=e4 v=0
173091 On ch=5 n=e5 v=127
173484 On ch=5 n=e5 v=0
173487 On ch=5 n=e5 v=127
173880 On ch=5 n=e5 v=0
174280 On ch=5 n=e5 v=127
174673 On ch=5 n=e5 v=0
174675 On ch=5 n=e5 v=127
175068 On ch=5 n=e5 v=0
175467 On ch=5 n=e4 v=127
175662 On ch=5 n=e4 v=0
176012 On ch=5 n=e4 v=127
176177 On ch=5 n=e4 v=0
176308 On ch=5 n=e4 v=127
176473 On ch=5 n=e4 v=0
176606 On ch=5 n=e4 v=127
176771 On ch=5 n=e4 v=0
176902 On ch=5 n=e4 v=127
177067 On ch=5 n=e4 v=0
177200 On ch=5 n=e4 v=127
177365 On ch=5 n=e4 v=0
177497 On ch=5 n=e4 v=127
177662 On ch=5 n=e4 v=0
177793 On ch=5 n=e4 v=127
177939 On ch=5 n=e4 v=0
178091 On ch=5 n=e4 v=127
178237 On ch=5 n=e4 v=0
179230 On ch=5 n=e6 v=127
179425 On ch=5 n=e6 v=0
180021 On ch=5 n=e4 v=127
180216 On ch=5 n=e4 v=0
182200 On ch=5 n=e6 v=127
182395 On ch=5 n=e6 v=0
182595 On ch=5 n=e4 v=127
182790 On ch=5 n=e4 v=0
182991 On ch=5 n=e6 v=127
183384 On ch=5 n=e6 v=0
183783 On ch=5 n=e6 v=127
184176 On ch=5 n=e6 v=0
184971 On ch=5 n=e6 v=127
185364 On ch=5 n=e6 v=0
190713 On ch=5 n=e6 v=127
190908 On ch=5 n=e6 v=0
194673 On ch=5 n=e4 v=127
194868 On ch=5 n=e4 v=0
195267 On ch=5 n=e4 v=127
195660 On ch=5 n=e4 v=0
197247 On ch=5 n=e5 v=127
197442 On ch=5 n=e5 v=0
197643 On ch=5 n=e5 v=127
197643 On ch=5 n=e4 v=127
198036 On ch=5 n=e4 v=0
198435 On ch=5 n=e4 v=127
198828 On ch=5 n=e4 v=0
198828 On ch=5 n=e5 v=0
199227 On ch=5 n=e5 v=127
199620 On ch=5 n=e5 v=0
199623 On ch=5 n=e5 v=127
200808 On ch=5 n=e5 v=0
201603 On ch=5 n=e5 v=127
201603 On ch=5 n=e4 v=127
201996 On ch=5 n=e4 v=0
201996 On ch=5 n=e5 v=0
202197 On ch=5 n=e4 v=127
202392 On ch=5 n=e4 v=0
203980 On ch=5 n=e6 v=127
204373 On ch=5 n=e6 v=0
204375 On ch=5 n=e6 v=127
204768 On ch=5 n=e6 v=0
206751 On ch=5 n=e6 v=127
207936 On ch=5 n=e6 v=0
210315 On ch=5 n=e6 v=127
211500 On ch=5 n=e6 v=0
212295 On ch=5 n=e6 v=127
212688 On ch=5 n=e6 v=0
214281 On ch=5 n=e6 v=127
214681 On ch=5 n=e6 v=0
215086 On ch=5 n=e5 v=127
216323 On ch=5 n=e5 v=0
217177 On ch=5 n=e5 v=127
217599 On ch=5 n=e5 v=0
217622 On ch=5 n=e5 v=127
221447 On ch=5 n=e5 v=0
223712 On ch=5 n=e4 v=127
223909 On ch=5 n=e4 v=0
224112 On ch=5 n=e4 v=127
224309 On ch=5 n=e4 v=0
225113 On ch=5 n=e4 v=127
225310 On ch=5 n=e4 v=0
225513 On ch=5 n=e4 v=127
225710 On ch=5 n=e4 v=0
229315 On ch=5 n=e4 v=127
230512 On ch=5 n=e4 v=0
231115 On ch=5 n=e4 v=127
231712 On ch=5 n=e4 v=0
232916 On ch=5 n=e5 v=127
233310 On ch=5 n=e5 v=0
233313 On ch=5 n=e5 v=127
233510 On ch=5 n=e5 v=0
233713 On ch=5 n=e5 v=127
233910 On ch=5 n=e5 v=0
234713 On ch=5 n=e5 v=127
234910 On ch=5 n=e5 v=0
235113 On ch=5 n=e5 v=127
235310 On ch=5 n=e5 v=0
235713 On ch=5 n=e5 v=127
235910 On ch=5 n=e5 v=0
236514 On ch=5 n=e4 v=127
236714 On ch=5 n=e5 v=127
236911 On ch=5 n=e5 v=0
237111 On ch=5 n=e4 v=0
237514 On ch=5 n=e5 v=127
237711 On ch=5 n=e5 v=0
237914 On ch=5 n=e5 v=127
238111 On ch=5 n=e5 v=0
239514 On ch=5 n=e5 v=127
240114 On ch=5 n=e4 v=127
240311 On ch=5 n=e4 v=0
240711 On ch=5 n=e5 v=0
240915 On ch=5 n=e4 v=127
241112 On ch=5 n=e4 v=0
241915 On ch=5 n=e4 v=127
242112 On ch=5 n=e4 v=0
242315 On ch=5 n=e4 v=127
242512 On ch=5 n=e4 v=0
242515 On ch=5 n=e5 v=127
242712 On ch=5 n=e5 v=0
242915 On ch=5 n=e4 v=127
243112 On ch=5 n=e4 v=0
243315 On ch=5 n=e5 v=127
243512 On ch=5 n=e5 v=0
246117 On ch=5 n=e5 v=127
247314 On ch=5 n=e5 v=0
247917 On ch=5 n=e4 v=127
248114 On ch=5 n=e4 v=0
248318 On ch=5 n=e4 v=127
248515 On ch=5 n=e4 v=0
248918 On ch=5 n=e4 v=127
249115 On ch=5 n=e4 v=0
249718 On ch=5 n=e4 v=127
250118 On ch=5 n=e3 v=127
250315 On ch=5 n=e3 v=0
250915 On ch=5 n=e4 v=0
251518 On ch=5 n=e3 v=127
251518 On ch=5 n=e4 v=127
251918 On ch=5 n=e5 v=127
252080 On ch=5 n=e3 v=0
252154 On ch=5 n=e4 v=0
252315 On ch=5 n=e5 v=0
252919 On ch=5 n=e5 v=127
253116 On ch=5 n=e5 v=0
253719 On ch=5 n=e5 v=127
253916 On ch=5 n=e5 v=0
255719 On ch=5 n=e3 v=127
256119 On ch=5 n=e5 v=127
256316 On ch=5 n=e5 v=0
256316 On ch=5 n=e3 v=0
256520 On ch=5 n=e5 v=127
256717 On ch=5 n=e5 v=0
257520 On ch=5 n=e5 v=127
257920 On ch=5 n=e4 v=127
258113 On ch=5 n=e5 v=0
258117 On ch=5 n=e4 v=0
258920 On ch=5 n=e4 v=127
259117 On ch=5 n=e4 v=0
259320 On ch=5 n=e4 v=127
259517 On ch=5 n=e4 v=0
259720 On ch=5 n=e6 v=127
259917 On ch=5 n=e6 v=0
260120 On ch=5 n=e6 v=127
260317 On ch=5 n=e6 v=0
261122 On ch=5 n=e6 v=127
261319 On ch=5 n=e6 v=0
261522 On ch=5 n=e6 v=127
261719 On ch=5 n=e6 v=0
265323 On ch=5 n=e6 v=127
266520 On ch=5 n=e6 v=0
267123 On ch=5 n=e4 v=127
267123 On ch=5 n=e6 v=127
267320 On ch=5 n=e4 v=0
267523 On ch=5 n=e4 v=127
267720 On ch=5 n=e4 v=0
267923 On ch=5 n=e4 v=127
268120 On ch=5 n=e4 v=0
268320 On ch=5 n=e6 v=0
268924 On ch=5 n=e4 v=127
269121 On ch=5 n=e4 v=0
270324 On ch=5 n=e6 v=127
270521 On ch=5 n=e6 v=0
271324 On ch=5 n=e4 v=127
271521 On ch=5 n=e4 v=0
271724 On ch=5 n=e6 v=127
271921 On ch=5 n=e6 v=0
272124 On ch=5 n=e4 v=127
272321 On ch=5 n=e4 v=0
273125 On ch=5 n=e4 v=127
273322 On ch=5 n=e4 v=0
273525 On ch=5 n=e4 v=127
273722 On ch=5 n=e4 v=0
273725 On ch=5 n=e5 v=127
274322 On ch=5 n=e5 v=0
274925 On ch=5 n=e4 v=127
275361 On ch=5 n=e4 v=0
276527 On ch=5 n=e6 v=127
276724 On ch=5 n=e6 v=0
277327 On ch=5 n=e5 v=127
277327 On ch=5 n=e6 v=127
277524 On ch=5 n=e6 v=0
277727 On ch=5 n=e6 v=127
277924 On ch=5 n=e6 v=0
278524 On ch=5 n=e5 v=0
278727 On ch=5 n=e6 v=127
278924 On ch=5 n=e6 v=0
279727 On ch=5 n=e6 v=127
279924 On ch=5 n=e6 v=0
280528 On ch=5 n=e6 v=127
280725 On ch=5 n=e6 v=0
281528 On ch=5 n=e6 v=127
282125 On ch=5 n=e6 v=0
282934 On ch=5 n=e6 v=127
283131 On ch=5 n=e6 v=0
284334 On ch=5 n=e6 v=127
284531 On ch=5 n=e6 v=0
286135 On ch=5 n=e6 v=127
286332 On ch=5 n=e6 v=0
288135 On ch=5 n=e6 v=127
288537 On ch=5 n=e4 v=127
288734 On ch=5 n=e4 v=0
288937 On ch=5 n=e4 v=127
289134 On ch=5 n=e4 v=0
289332 On ch=5 n=e6 v=0
289537 On ch=5 n=e5 v=127
289734 On ch=5 n=e5 v=0
289937 On ch=5 n=e4 v=127
290134 On ch=5 n=e4 v=0
290337 On ch=5 n=e4 v=127
290534 On ch=5 n=e4 v=0
291937 On ch=5 n=e6 v=127
292134 On ch=5 n=e6 v=0
292938 On ch=5 n=e4 v=127
293338 On ch=5 n=e5 v=127
293535 On ch=5 n=e5 v=0
293535 On ch=5 n=e4 v=0
293738 On ch=5 n=e5 v=127
293935 On ch=5 n=e5 v=0
294738 On ch=5 n=e5 v=127
294935 On ch=5 n=e5 v=0
295138 On ch=5 n=e5 v=127
295335 On ch=5 n=e5 v=0
295738 On ch=5 n=e5 v=127
295935 On ch=5 n=e5 v=0
296539 On ch=5 n=e4 v=127
296739 On ch=5 n=e5 v=127
296936 On ch=5 n=e5 v=0
297136 On ch=5 n=e4 v=0
297543 On ch=5 n=e5 v=127
297743 On ch=5 n=e5 v=0
297945 On ch=5 n=e5 v=127
298142 On ch=5 n=e5 v=0
299345 On ch=5 n=e5 v=127
299542 On ch=5 n=e5 v=0
300747 On ch=5 n=e5 v=127
301344 On ch=5 n=e5 v=0
301947 On ch=5 n=e4 v=127
302544 On ch=5 n=e4 v=0
304948 On ch=5 n=e6 v=127
305148 On ch=5 n=e4 v=127
305345 On ch=5 n=e4 v=0
305545 On ch=5 n=e6 v=0
307148 On ch=5 n=e4 v=127
307345 On ch=5 n=e4 v=0
307548 On ch=5 n=e4 v=127
307745 On ch=5 n=e4 v=0
308548 On ch=5 n=e4 v=127
308548 On ch=5 n=e6 v=127
308745 On ch=5 n=e4 v=0
309145 On ch=5 n=e6 v=0
309749 On ch=5 n=e6 v=127
310946 On ch=5 n=e6 v=0
312549 On ch=5 n=e6 v=127
312943 On ch=5 n=e6 v=0
313547 On ch=5 n=e4 v=127
313744 On ch=5 n=e4 v=0
315947 On ch=5 n=e6 v=127
316144 On ch=5 n=e6 v=0
318149 On ch=5 n=e5 v=127
318346 On ch=5 n=e5 v=0
321750 On ch=5 n=e4 v=127
322947 On ch=5 n=e4 v=0
323550 On ch=5 n=e5 v=127
323747 On ch=5 n=e5 v=0
323950 On ch=5 n=e5 v=127
324147 On ch=5 n=e5 v=0
324550 On ch=5 n=e5 v=127
324747 On ch=5 n=e5 v=0
327951 On ch=5 n=e5 v=127
328151 On ch=5 n=e5 v=0
328354 On ch=5 n=e6 v=127
328951 On ch=5 n=e6 v=0
329554 On ch=5 n=e5 v=127
329948 On ch=5 n=e5 v=0
330152 On ch=5 n=e6 v=127
330745 On ch=5 n=e6 v=0
331152 On ch=5 n=e6 v=127
331349 On ch=5 n=e6 v=0
331552 On ch=5 n=e5 v=127
331749 On ch=5 n=e5 v=0
331952 On ch=5 n=e5 v=127
332152 On ch=5 n=e4 v=127
332349 On ch=5 n=e4 v=0
332349 On ch=5 n=e5 v=0
332752 On ch=5 n=e6 v=127
332949 On ch=5 n=e6 v=0
336153 On ch=5 n=e4 v=127
336553 On ch=5 n=e6 v=127
336750 On ch=5 n=e6 v=0
336750 On ch=5 n=e4 v=0
336953 On ch=5 n=e6 v=127
337150 On ch=5 n=e6 v=0
337953 On ch=5 n=e6 v=127
338154 On ch=5 n=e5 v=127
338351 On ch=5 n=e5 v=0
338550 On ch=5 n=e6 v=0
340157 On ch=5 n=e6 v=127
340354 On ch=5 n=e6 v=0
341757 On ch=5 n=e5 v=127
341954 On ch=5 n=e5 v=0
342157 On ch=5 n=e5 v=127
343357 On ch=5 n=e5 v=0
343959 On ch=5 n=e4 v=127
344556 On ch=5 n=e4 v=0
344559 On ch=5 n=e5 v=127
344756 On ch=5 n=e5 v=0
345361 On ch=5 n=e5 v=127
345558 On ch=5 n=e5 v=0
345761 On ch=5 n=e4 v=127
346358 On ch=5 n=e4 v=0
347161 On ch=5 n=e4 v=127
347358 On ch=5 n=e4 v=0
347561 On ch=5 n=e5 v=127
347758 On ch=5 n=e5 v=0
348161 On ch=5 n=e4 v=127
349358 On ch=5 n=e4 v=0
349562 On ch=5 n=e4 v=127
349759 On ch=5 n=e4 v=0
353763 On ch=5 n=e4 v=127
353960 On ch=5 n=e4 v=0
354763 On ch=5 n=e4 v=127
354960 On ch=5 n=e4 v=0
355163 On ch=5 n=e4 v=127
355360 On ch=5 n=e4 v=0
355363 On ch=5 n=e5 v=127
355560 On ch=5 n=e5 v=0
355763 On ch=5 n=e4 v=127
355960 On ch=5 n=e4 v=0
356163 On ch=5 n=e5 v=127
356360 On ch=5 n=e5 v=0
357164 On ch=5 n=e5 v=127
357361 On ch=5 n=e5 v=0
357564 On ch=5 n=e5 v=127
357761 On ch=5 n=e5 v=0
358164 On ch=5 n=e5 v=127
358361 On ch=5 n=e5 v=0
358964 On ch=5 n=e4 v=127
359164 On ch=5 n=e5 v=127
359361 On ch=5 n=e5 v=0
359561 On ch=5 n=e4 v=0
359564 On ch=5 n=e5 v=127
359761 On ch=5 n=e5 v=0
360966 On ch=5 n=e5 v=127
361163 On ch=5 n=e5 v=0
361366 On ch=5 n=e5 v=127
361563 On ch=5 n=e5 v=0
363166 On ch=5 n=e5 v=127
363363 On ch=5 n=e5 v=0
363566 On ch=5 n=e6 v=127
363763 On ch=5 n=e6 v=0
363966 On ch=5 n=e6 v=127
364163 On ch=5 n=e6 v=0
364967 On ch=5 n=e4 v=127
365361 On ch=5 n=e4 v=0
365564 On ch=5 n=e6 v=127
365761 On ch=5 n=e6 v=0
365964 On ch=5 n=e6 v=127
366161 On ch=5 n=e6 v=0
369371 On ch=5 n=e5 v=127
369568 On ch=5 n=e5 v=0
370971 On ch=5 n=e5 v=127
371768 On ch=5 n=e5 v=0
371971 On ch=5 n=e5 v=127
372168 On ch=5 n=e5 v=0
372371 On ch=5 n=e4 v=127
372568 On ch=5 n=e4 v=0
372571 On ch=5 n=e5 v=127
372768 On ch=5 n=e5 v=0
373373 On ch=5 n=e5 v=127
373773 On ch=5 n=e4 v=127
373970 On ch=5 n=e4 v=0
374170 On ch=5 n=e5 v=0
379374 On ch=5 n=e6 v=127
379774 On ch=5 n=e5 v=127
379971 On ch=5 n=e5 v=0
379971 On ch=5 n=e6 v=0
380174 On ch=5 n=e5 v=127
380371 On ch=5 n=e5 v=0
381175 On ch=5 n=e5 v=127
381372 On ch=5 n=e5 v=0
381575 On ch=5 n=e5 v=127
381772 On ch=5 n=e5 v=0
382175 On ch=5 n=e5 v=127
382372 On ch=5 n=e5 v=0
382575 On ch=5 n=e4 v=127
382772 On ch=5 n=e4 v=0
384181 On ch=5 n=e5 v=127
384784 On ch=5 n=e5 v=0
386001 On ch=5 n=e6 v=127
386611 On ch=5 n=e6 v=0
387226 On ch=5 n=e4 v=127
387437 On ch=5 n=e4 v=0
387655 On ch=5 n=e4 v=127
387866 On ch=5 n=e4 v=0
387869 On ch=5 n=e5 v=127
388305 On ch=5 n=e5 v=0
388534 On ch=5 n=e5 v=127
388769 On ch=5 n=e5 v=0
389518 On ch=5 n=e5 v=127
389788 On ch=5 n=e5 v=0
389788 Meta TrkEnd
TrkEnd
MTrk
0 SeqSpec 43 00 01 00
0 PrCh ch=6 p=0
0 Pb ch=6 v=8187
8548 On ch=6 n=f6 v=127
8743 On ch=6 n=f6 v=0
18850 On ch=6 n=f4 v=127
19045 On ch=6 n=f4 v=0
19245 On ch=6 n=f4 v=127
19440 On ch=6 n=f4 v=0
26967 On ch=6 n=f5 v=127
27162 On ch=6 n=f5 v=0
27760 On ch=6 n=f4 v=127
28125 On ch=6 n=f4 v=0
36075 On ch=6 n=f3 v=127
36468 On ch=6 n=f3 v=0
48747 On ch=6 n=f6 v=127
49140 On ch=6 n=f6 v=0
50727 On ch=6 n=f6 v=127
51120 On ch=6 n=f6 v=0
69735 On ch=6 n=f6 v=127
69930 On ch=6 n=f6 v=0
70131 On ch=6 n=f4 v=127
70524 On ch=6 n=f4 v=0
71517 On ch=6 n=f6 v=127
71712 On ch=6 n=f6 v=0
98247 On ch=6 n=f6 v=127
98640 On ch=6 n=f6 v=0
99040 On ch=6 n=f6 v=127
99433 On ch=6 n=f6 v=0
101217 On ch=6 n=f5 v=127
101412 On ch=6 n=f5 v=0
102405 On ch=6 n=f5 v=127
102600 On ch=6 n=f5 v=0
110127 On ch=6 n=f6 v=127
110520 On ch=6 n=f6 v=0
110523 On ch=6 n=f6 v=127
110916 On ch=6 n=f6 v=0
112503 On ch=6 n=f6 v=127
113688 On ch=6 n=f6 v=0
123987 On ch=6 n=f6 v=127
124380 On ch=6 n=f6 v=0
124780 On ch=6 n=f3 v=127
125568 On ch=6 n=f3 v=0
125571 On ch=6 n=f6 v=127
125964 On ch=6 n=f6 v=0
141560 On ch=6 n=f4 v=127
141706 On ch=6 n=f4 v=0
141857 On ch=6 n=f4 v=127
142003 On ch=6 n=f4 v=0
142153 On ch=6 n=f4 v=127
142299 On ch=6 n=f4 v=0
142451 On ch=6 n=f4 v=127
142597 On ch=6 n=f4 v=0
154281 On ch=6 n=f4 v=127
154476 On ch=6 n=f4 v=0
154677 On ch=6 n=f4 v=127
154872 On ch=6 n=f4 v=0
164380 On ch=6 n=f6 v=127
164575 On ch=6 n=f6 v=0
170320 On ch=6 n=f5 v=127
170713 On ch=6 n=f5 v=0
171507 On ch=6 n=f5 v=127
172290 On ch=6 n=f5 v=0
172497 On ch=6 n=f4 v=127
172692 On ch=6 n=f4 v=0
173685 On ch=6 n=f4 v=127
173880 On ch=6 n=f4 v=0
188535 On ch=6 n=f6 v=127
188730 On ch=6 n=f6 v=0
189080 On ch=6 n=f6 v=127
189226 On ch=6 n=f6 v=0
189377 On ch=6 n=f6 v=127
189523 On ch=6 n=f6 v=0
189673 On ch=6 n=f6 v=127
189819 On ch=6 n=f6 v=0
189971 On ch=6 n=f6 v=127
190117 On ch=6 n=f6 v=0
192891 On ch=6 n=f4 v=127
193086 On ch=6 n=f4 v=0
193485 On ch=6 n=f4 v=127
193680 On ch=6 n=f4 v=0
207940 On ch=6 n=f6 v=127
209125 On ch=6 n=f6 v=0
210018 On ch=6 n=f4 v=127
210164 On ch=6 n=f4 v=0
211206 On ch=6 n=f4 v=127
211352 On ch=6 n=f4 v=0
226513 On ch=6 n=f5 v=127
226710 On ch=6 n=f5 v=0
244320 On ch=6 n=f5 v=127
244517 On ch=6 n=f5 v=0
254522 On ch=6 n=f5 v=127
255119 On ch=6 n=f5 v=0
262525 On ch=6 n=f5 v=127
262722 On ch=6 n=f5 v=0
263525 On ch=6 n=f6 v=127
264122 On ch=6 n=f6 v=0
282131 On ch=6 n=f6 v=127
282734 On ch=6 n=f6 v=0
283937 On ch=6 n=f6 v=127
284331 On ch=6 n=f6 v=0
285735 On ch=6 n=f6 v=127
286129 On ch=6 n=f6 v=0
286732 On ch=6 n=f6 v=127
286929 On ch=6 n=f6 v=0
290934 On ch=6 n=f4 v=127
291131 On ch=6 n=f4 v=0
302544 On ch=6 n=f4 v=127
303141 On ch=6 n=f4 v=0
304344 On ch=6 n=f6 v=127
304941 On ch=6 n=f6 v=0
306145 On ch=6 n=f4 v=127
306342 On ch=6 n=f4 v=0
306545 On ch=6 n=f4 v=127
306742 On ch=6 n=f4 v=0
311546 On ch=6 n=f4 v=127
312143 On ch=6 n=f4 v=0
319949 On ch=6 n=f4 v=127
320146 On ch=6 n=f4 v=0
326151 On ch=6 n=f6 v=127
326348 On ch=6 n=f6 v=0
326551 On ch=6 n=f5 v=127
327148 On ch=6 n=f5 v=0
333355 On ch=6 n=f5 v=127
333552 On ch=6 n=f5 v=0
333755 On ch=6 n=f4 v=127
333952 On ch=6 n=f4 v=0
334156 On ch=6 n=f4 v=127
334353 On ch=6 n=f4 v=0
335556 On ch=6 n=f4 v=127
336153 On ch=6 n=f4 v=0
339557 On ch=6 n=f5 v=127
339754 On ch=6 n=f5 v=0
341160 On ch=6 n=f5 v=127
341357 On ch=6 n=f5 v=0
350165 On ch=6 n=f5 v=127
350362 On ch=6 n=f5 v=0
350565 On ch=6 n=f5 v=127
350762 On ch=6 n=f5 v=0
352966 On ch=6 n=f5 v=127
353163 On ch=6 n=f5 v=0
353366 On ch=6 n=f4 v=127
353563 On ch=6 n=f4 v=0
366574 On ch=6 n=f5 v=127
366672 On ch=6 n=f5 v=0
366976 On ch=6 n=f4 v=127
367173 On ch=6 n=f4 v=0
370377 On ch=6 n=f5 v=127
370974 On ch=6 n=f5 v=0
374779 On ch=6 n=f5 v=127
374976 On ch=6 n=f5 v=0
375179 On ch=6 n=f3 v=127
375776 On ch=6 n=f3 v=0
375779 On ch=6 n=f4 v=127
376376 On ch=6 n=f4 v=0
376779 On ch=6 n=f5 v=127
376976 On ch=6 n=f5 v=0
378780 On ch=6 n=f6 v=127
379377 On ch=6 n=f6 v=0
383581 On ch=6 n=f5 v=127
384184 On ch=6 n=f5 v=0
385400 On ch=6 n=f6 v=127
386003 On ch=6 n=f6 v=0
390087 On ch=6 n=f5 v=127
393340 On ch=6 n=f5 v=0
393340 Meta TrkEnd
TrkEnd
MTrk
0 SeqSpec 43 00 01 00
0 PrCh ch=7 p=0
0 Pb ch=7 v=8174
3603 On ch=7 n=f#5 v=127
4788 On ch=7 n=f#5 v=0
5781 On ch=7 n=f#6 v=127
5976 On ch=7 n=f#6 v=0
6177 On ch=7 n=f#6 v=127
6372 On ch=7 n=f#6 v=0
6771 On ch=7 n=f#4 v=127
6966 On ch=7 n=f#4 v=0
8355 On ch=7 n=f#6 v=127
8550 On ch=7 n=f#6 v=0
8743 On ch=7 n=f#6 v=127
9147 On ch=7 n=f#4 v=127
9342 On ch=7 n=f#4 v=0
10333 On ch=7 n=f#6 v=0
10335 On ch=7 n=f#6 v=127
10335 On ch=7 n=f#4 v=127
10728 On ch=7 n=f#4 v=0
10728 On ch=7 n=f#6 v=0
10731 On ch=7 n=f#6 v=127
11514 On ch=7 n=f#6 v=0
11920 On ch=7 n=f#6 v=127
12288 On ch=7 n=f#6 v=0
12410 On ch=7 n=f#6 v=127
12543 On ch=7 n=f#6 v=0
12686 On ch=7 n=f#6 v=127
12819 On ch=7 n=f#6 v=0
12962 On ch=7 n=f#6 v=127
13095 On ch=7 n=f#6 v=0
13240 On ch=7 n=f#6 v=127
13368 On ch=7 n=f#6 v=0
16473 On ch=7 n=f#4 v=127
16668 On ch=7 n=f#4 v=0
16870 On ch=7 n=f#4 v=127
17065 On ch=7 n=f#4 v=0
19047 On ch=7 n=f#4 v=127
19242 On ch=7 n=f#4 v=0
19443 On ch=7 n=f#4 v=127
19638 On ch=7 n=f#4 v=0
19840 On ch=7 n=f#4 v=127
20035 On ch=7 n=f#4 v=0
20235 On ch=7 n=f#4 v=127
21023 On ch=7 n=f#4 v=0
21027 On ch=7 n=f#4 v=127
21420 On ch=7 n=f#4 v=0
21423 On ch=7 n=f#4 v=127
21816 On ch=7 n=f#4 v=0
22017 On ch=7 n=f#4 v=127
22212 On ch=7 n=f#4 v=0
24987 On ch=7 n=f#4 v=127
25380 On ch=7 n=f#4 v=0
26967 On ch=7 n=f#4 v=127
27165 On ch=7 n=f#5 v=127
27360 On ch=7 n=f#5 v=0
27360 On ch=7 n=f#4 v=0
27363 On ch=7 n=f#4 v=127
27756 On ch=7 n=f#4 v=0
28155 On ch=7 n=f#4 v=127
28350 On ch=7 n=f#4 v=0
29740 On ch=7 n=f#5 v=127
29740 On ch=7 n=f#4 v=127
30133 On ch=7 n=f#4 v=0
31720 On ch=7 n=f#5 v=0
31720 On ch=7 n=f#5 v=127
32113 On ch=7 n=f#5 v=0
32115 On ch=7 n=f#5 v=127
32898 On ch=7 n=f#5 v=0
39640 On ch=7 n=f#4 v=127
40033 On ch=7 n=f#4 v=0
46767 On ch=7 n=f#4 v=127
47160 On ch=7 n=f#4 v=0
47560 On ch=7 n=f#6 v=127
47953 On ch=7 n=f#6 v=0
61815 On ch=7 n=f#4 v=127
62603 On ch=7 n=f#4 v=0
62607 On ch=7 n=f#3 v=127
63000 On ch=7 n=f#3 v=0
63003 On ch=7 n=f#4 v=127
63198 On ch=7 n=f#4 v=0
63400 On ch=7 n=f#6 v=127
63400 On ch=7 n=f#4 v=127
63595 On ch=7 n=f#6 v=0
63795 On ch=7 n=f#6 v=127
64188 On ch=7 n=f#6 v=0
64188 On ch=7 n=f#4 v=0
64191 On ch=7 n=f#4 v=127
65376 On ch=7 n=f#4 v=0
65380 On ch=7 n=f#4 v=127
65526 On ch=7 n=f#4 v=0
65676 On ch=7 n=f#4 v=127
65822 On ch=7 n=f#4 v=0
65973 On ch=7 n=f#4 v=127
66119 On ch=7 n=f#4 v=0
66716 On ch=7 n=f#4 v=127
66862 On ch=7 n=f#4 v=0
67012 On ch=7 n=f#4 v=127
67158 On ch=7 n=f#4 v=0
67310 On ch=7 n=f#4 v=127
67360 On ch=7 n=f#6 v=127
67456 On ch=7 n=f#4 v=0
67607 On ch=7 n=f#4 v=127
67753 On ch=7 n=f#4 v=0
67753 On ch=7 n=f#6 v=0
69537 On ch=7 n=f#6 v=127
69732 On ch=7 n=f#6 v=0
69735 On ch=7 n=f#4 v=127
70128 On ch=7 n=f#4 v=0
70527 On ch=7 n=f#4 v=127
70920 On ch=7 n=f#4 v=0
71320 On ch=7 n=f#6 v=127
71515 On ch=7 n=f#6 v=0
72507 On ch=7 n=f#6 v=127
75290 On ch=7 n=f#6 v=0
79240 On ch=7 n=f#4 v=127
79633 On ch=7 n=f#4 v=0
79635 On ch=7 n=f#5 v=127
81615 On ch=7 n=f#5 v=0
83200 On ch=7 n=f#5 v=127
83593 On ch=7 n=f#5 v=0
83991 On ch=7 n=f#6 v=127
84384 On ch=7 n=f#6 v=0
84783 On ch=7 n=f#5 v=127
85176 On ch=7 n=f#5 v=0
86565 On ch=7 n=f#4 v=127
86760 On ch=7 n=f#4 v=0
89140 On ch=7 n=f#4 v=127
89533 On ch=7 n=f#4 v=0
90921 On ch=7 n=f#5 v=127
91116 On ch=7 n=f#5 v=0
91317 On ch=7 n=f#5 v=127
91512 On ch=7 n=f#5 v=0
91755 On ch=7 n=f#5 v=127
91883 On ch=7 n=f#5 v=0
92027 On ch=7 n=f#5 v=127
92155 On ch=7 n=f#5 v=0
92298 On ch=7 n=f#5 v=127
92426 On ch=7 n=f#5 v=0
92571 On ch=7 n=f#5 v=127
92699 On ch=7 n=f#5 v=0
94485 On ch=7 n=f#4 v=127
94680 On ch=7 n=f#4 v=0
96663 On ch=7 n=f#6 v=127
96858 On ch=7 n=f#6 v=0
97060 On ch=7 n=f#5 v=127
97453 On ch=7 n=f#5 v=0
98445 On ch=7 n=f#4 v=127
98640 On ch=7 n=f#4 v=0
98643 On ch=7 n=f#6 v=127
99034 On ch=7 n=f#6 v=0
99435 On ch=7 n=f#6 v=127
99828 On ch=7 n=f#6 v=0
99831 On ch=7 n=f#6 v=127
99831 On ch=7 n=f#4 v=127
100224 On ch=7 n=f#4 v=0
101020 On ch=7 n=f#5 v=127
101215 On ch=7 n=f#5 v=0
101412 On ch=7 n=f#6 v=0
101415 On ch=7 n=f#5 v=127
101808 On ch=7 n=f#5 v=0
101811 On ch=7 n=f#6 v=127
101811 On ch=7 n=f#5 v=127
102006 On ch=7 n=f#6 v=0
102204 On ch=7 n=f#5 v=0
102207 On ch=7 n=f#5 v=127
102402 On ch=7 n=f#5 v=0
102603 On ch=7 n=f#6 v=127
102603 On ch=7 n=f#5 v=127
102798 On ch=7 n=f#6 v=0
102996 On ch=7 n=f#5 v=0
103000 On ch=7 n=f#6 v=127
103000 On ch=7 n=f#5 v=127
103393 On ch=7 n=f#5 v=0
103393 On ch=7 n=f#6 v=0
103395 On ch=7 n=f#5 v=127
103788 On ch=7 n=f#5 v=0
103990 On ch=7 n=f#5 v=127
104185 On ch=7 n=f#5 v=0
107355 On ch=7 n=f#5 v=127
107550 On ch=7 n=f#5 v=0
108940 On ch=7 n=f#5 v=127
109137 On ch=7 n=f#6 v=127
109331 On ch=7 n=f#5 v=0
109332 On ch=7 n=f#6 v=0
109335 On ch=7 n=f#6 v=127
109728 On ch=7 n=f#6 v=0
110920 On ch=7 n=f#6 v=127
111313 On ch=7 n=f#6 v=0
111711 On ch=7 n=f#6 v=127
112494 On ch=7 n=f#6 v=0
113691 On ch=7 n=f#6 v=127
114084 On ch=7 n=f#6 v=0
114087 On ch=7 n=f#6 v=127
114087 On ch=7 n=f#3 v=127
114480 On ch=7 n=f#3 v=0
115275 On ch=7 n=f#4 v=127
115865 On ch=7 n=f#6 v=0
115870 On ch=7 n=f#6 v=127
116065 On ch=7 n=f#6 v=0
116463 On ch=7 n=f#5 v=127
117246 On ch=7 n=f#5 v=0
118043 On ch=7 n=f#4 v=0
121611 On ch=7 n=f#6 v=127
122007 On ch=7 n=f#5 v=127
122400 On ch=7 n=f#5 v=0
123001 On ch=7 n=f#6 v=0
123393 On ch=7 n=f#6 v=127
123588 On ch=7 n=f#6 v=0
123591 On ch=7 n=f#6 v=127
123984 On ch=7 n=f#6 v=0
125967 On ch=7 n=f#6 v=127
125967 On ch=7 n=f#3 v=127
126558 On ch=7 n=f#3 v=0
126750 On ch=7 n=f#6 v=0
127155 On ch=7 n=f#4 v=127
127943 On ch=7 n=f#4 v=0
127947 On ch=7 n=f#6 v=127
127947 On ch=7 n=f#4 v=127
128340 On ch=7 n=f#4 v=0
128340 On ch=7 n=f#6 v=0
128343 On ch=7 n=f#4 v=127
128736 On ch=7 n=f#4 v=0
128937 On ch=7 n=f#4 v=127
129132 On ch=7 n=f#4 v=0
129927 On ch=7 n=f#4 v=127
130122 On ch=7 n=f#4 v=0
130720 On ch=7 n=f#4 v=127
131113 On ch=7 n=f#4 v=0
131907 On ch=7 n=f#5 v=127
132700 On ch=7 n=f#4 v=127
133093 On ch=7 n=f#4 v=0
133680 On ch=7 n=f#5 v=0
134085 On ch=7 n=f#5 v=127
134280 On ch=7 n=f#5 v=0
134283 On ch=7 n=f#5 v=127
135066 On ch=7 n=f#5 v=0
135075 On ch=7 n=f#5 v=127
135468 On ch=7 n=f#5 v=0
135471 On ch=7 n=f#5 v=127
136656 On ch=7 n=f#5 v=0
139035 On ch=7 n=f#4 v=127
139626 On ch=7 n=f#4 v=0
140025 On ch=7 n=f#4 v=127
140220 On ch=7 n=f#4 v=0
141015 On ch=7 n=f#4 v=127
141213 On ch=7 n=f#6 v=127
141408 On ch=7 n=f#6 v=0
141408 On ch=7 n=f#4 v=0
141411 On ch=7 n=f#4 v=127
141557 On ch=7 n=f#4 v=0
141708 On ch=7 n=f#4 v=127
141854 On ch=7 n=f#4 v=0
142005 On ch=7 n=f#4 v=127
142151 On ch=7 n=f#4 v=0
142600 On ch=7 n=f#4 v=127
143787 On ch=7 n=f#6 v=127
144577 On ch=7 n=f#4 v=0
145767 On ch=7 n=f#6 v=0
145767 On ch=7 n=f#6 v=127
146160 On ch=7 n=f#6 v=0
146163 On ch=7 n=f#6 v=127
146946 On ch=7 n=f#6 v=0
147351 On ch=7 n=f#6 v=127
147703 On ch=7 n=f#6 v=0
147842 On ch=7 n=f#6 v=127
147982 On ch=7 n=f#6 v=0
148118 On ch=7 n=f#6 v=127
148258 On ch=7 n=f#6 v=0
148395 On ch=7 n=f#6 v=127
148535 On ch=7 n=f#6 v=0
148671 On ch=7 n=f#6 v=127
148799 On ch=7 n=f#6 v=0
151905 On ch=7 n=f#4 v=127
152100 On ch=7 n=f#4 v=0
152301 On ch=7 n=f#4 v=127
152496 On ch=7 n=f#4 v=0
154480 On ch=7 n=f#4 v=127
154675 On ch=7 n=f#4 v=0
154875 On ch=7 n=f#4 v=127
155070 On ch=7 n=f#4 v=0
155271 On ch=7 n=f#4 v=127
155466 On ch=7 n=f#4 v=0
155667 On ch=7 n=f#4 v=127
155862 On ch=7 n=f#4 v=0
156063 On ch=7 n=f#4 v=127
156456 On ch=7 n=f#4 v=0
156460 On ch=7 n=f#4 v=127
156853 On ch=7 n=f#4 v=0
156855 On ch=7 n=f#4 v=127
157446 On ch=7 n=f#4 v=0
158637 On ch=7 n=f#4 v=127
158832 On ch=7 n=f#4 v=0
163587 On ch=7 n=f#6 v=127
163980 On ch=7 n=f#6 v=0
163983 On ch=7 n=f#6 v=127
164374 On ch=7 n=f#6 v=0
165963 On ch=7 n=f#5 v=127
166158 On ch=7 n=f#5 v=0
167547 On ch=7 n=f#5 v=127
169527 On ch=7 n=f#5 v=0
169725 On ch=7 n=f#4 v=127
169920 On ch=7 n=f#4 v=0
169923 On ch=7 n=f#5 v=127
170316 On ch=7 n=f#5 v=0
172300 On ch=7 n=f#5 v=127
172300 On ch=7 n=f#4 v=127
172495 On ch=7 n=f#4 v=0
172695 On ch=7 n=f#4 v=127
173083 On ch=7 n=f#5 v=0
173088 On ch=7 n=f#4 v=0
173091 On ch=7 n=f#4 v=127
173484 On ch=7 n=f#4 v=0
173487 On ch=7 n=f#4 v=127
173682 On ch=7 n=f#4 v=0
173883 On ch=7 n=f#5 v=127
173883 On ch=7 n=f#4 v=127
174276 On ch=7 n=f#4 v=0
174276 On ch=7 n=f#5 v=0
174280 On ch=7 n=f#4 v=127
174673 On ch=7 n=f#4 v=0
174675 On ch=7 n=f#4 v=127
175068 On ch=7 n=f#4 v=0
175270 On ch=7 n=f#4 v=127
175465 On ch=7 n=f#4 v=0
175863 On ch=7 n=f#4 v=127
176028 On ch=7 n=f#4 v=0
176061 On ch=7 n=f#6 v=127
176160 On ch=7 n=f#4 v=127
176256 On ch=7 n=f#6 v=0
176325 On ch=7 n=f#4 v=0
176457 On ch=7 n=f#4 v=127
176622 On ch=7 n=f#4 v=0
176755 On ch=7 n=f#4 v=127
176920 On ch=7 n=f#4 v=0
177051 On ch=7 n=f#4 v=127
177216 On ch=7 n=f#4 v=0
177250 On ch=7 n=f#6 v=127
177348 On ch=7 n=f#4 v=127
177445 On ch=7 n=f#6 v=0
177513 On ch=7 n=f#4 v=0
177645 On ch=7 n=f#4 v=127
177810 On ch=7 n=f#4 v=0
179031 On ch=7 n=f#6 v=127
179031 On ch=7 n=f#5 v=127
179226 On ch=7 n=f#5 v=0
179226 On ch=7 n=f#6 v=0
179427 On ch=7 n=f#6 v=127
180215 On ch=7 n=f#6 v=0
180220 On ch=7 n=f#6 v=127
180613 On ch=7 n=f#6 v=0
180615 On ch=7 n=f#6 v=127
181403 On ch=7 n=f#6 v=0
181407 On ch=7 n=f#6 v=127
181800 On ch=7 n=f#6 v=0
181803 On ch=7 n=f#6 v=127
182196 On ch=7 n=f#6 v=0
183387 On ch=7 n=f#6 v=127
183780 On ch=7 n=f#6 v=0
188733 On ch=7 n=f#6 v=127
188928 On ch=7 n=f#6 v=0
188931 On ch=7 n=f#6 v=127
189077 On ch=7 n=f#6 v=0
189228 On ch=7 n=f#6 v=127
189374 On ch=7 n=f#6 v=0
189525 On ch=7 n=f#6 v=127
189671 On ch=7 n=f#6 v=0
190120 On ch=7 n=f#6 v=127
190317 On ch=7 n=f#4 v=127
190512 On ch=7 n=f#4 v=0
190711 On ch=7 n=f#6 v=0
192297 On ch=7 n=f#5 v=127
192492 On ch=7 n=f#5 v=0
192495 On ch=7 n=f#4 v=127
192888 On ch=7 n=f#4 v=0
193683 On ch=7 n=f#4 v=127
194076 On ch=7 n=f#4 v=0
194475 On ch=7 n=f#4 v=127
194670 On ch=7 n=f#4 v=0
194871 On ch=7 n=f#5 v=127
196452 On ch=7 n=f#5 v=0
198831 On ch=7 n=f#4 v=127
199224 On ch=7 n=f#4 v=0
200811 On ch=7 n=f#4 v=127
201204 On ch=7 n=f#4 v=0
202000 On ch=7 n=f#5 v=127
202395 On ch=7 n=f#4 v=127
202788 On ch=7 n=f#4 v=0
203581 On ch=7 n=f#5 v=0
204771 On ch=7 n=f#6 v=127
206352 On ch=7 n=f#6 v=0
206355 On ch=7 n=f#5 v=127
206748 On ch=7 n=f#5 v=0
209127 On ch=7 n=f#6 v=127
209276 On ch=7 n=f#4 v=127
209422 On ch=7 n=f#4 v=0
209572 On ch=7 n=f#4 v=127
209718 On ch=7 n=f#4 v=0
209870 On ch=7 n=f#4 v=127
210016 On ch=7 n=f#4 v=0
210167 On ch=7 n=f#4 v=127
210312 On ch=7 n=f#6 v=0
210313 On ch=7 n=f#4 v=0
211900 On ch=7 n=f#6 v=127
212293 On ch=7 n=f#6 v=0
212691 On ch=7 n=f#6 v=127
212886 On ch=7 n=f#6 v=0
213880 On ch=7 n=f#6 v=127
214280 On ch=7 n=f#6 v=0
214683 On ch=7 n=f#3 v=127
215083 On ch=7 n=f#3 v=0
223912 On ch=7 n=f#4 v=127
224109 On ch=7 n=f#4 v=0
224313 On ch=7 n=f#4 v=127
224510 On ch=7 n=f#4 v=0
224913 On ch=7 n=f#4 v=127
225110 On ch=7 n=f#4 v=0
230515 On ch=7 n=f#5 v=127
230712 On ch=7 n=f#5 v=0
231715 On ch=7 n=f#5 v=127
232912 On ch=7 n=f#5 v=0
233516 On ch=7 n=f#5 v=127
233713 On ch=7 n=f#5 v=0
233916 On ch=7 n=f#5 v=127
234113 On ch=7 n=f#5 v=0
234516 On ch=7 n=f#5 v=127
234713 On ch=7 n=f#5 v=0
235316 On ch=7 n=f#4 v=127
235516 On ch=7 n=f#5 v=127
235713 On ch=7 n=f#5 v=0
235913 On ch=7 n=f#4 v=0
237717 On ch=7 n=f#5 v=127
238514 On ch=7 n=f#5 v=0
239317 On ch=7 n=f#5 v=127
239514 On ch=7 n=f#5 v=0
239717 On ch=7 n=f#4 v=127
239914 On ch=7 n=f#4 v=0
240718 On ch=7 n=f#4 v=127
240915 On ch=7 n=f#4 v=0
241118 On ch=7 n=f#4 v=127
241315 On ch=7 n=f#4 v=0
241718 On ch=7 n=f#4 v=127
241915 On ch=7 n=f#4 v=0
242118 On ch=7 n=f#5 v=127
242315 On ch=7 n=f#5 v=0
242718 On ch=7 n=f#4 v=127
242915 On ch=7 n=f#4 v=0
243118 On ch=7 n=f#5 v=127
243315 On ch=7 n=f#5 v=0
243518 On ch=7 n=f#5 v=127
243715 On ch=7 n=f#5 v=0
244118 On ch=7 n=f#5 v=127
244315 On ch=7 n=f#5 v=0
244920 On ch=7 n=f#5 v=127
245320 On ch=7 n=f#4 v=127
245517 On ch=7 n=f#4 v=0
246117 On ch=7 n=f#5 v=0
246720 On ch=7 n=f#4 v=127
247120 On ch=7 n=f#3 v=127
247317 On ch=7 n=f#3 v=0
247917 On ch=7 n=f#4 v=0
248721 On ch=7 n=f#4 v=127
248918 On ch=7 n=f#4 v=0
249921 On ch=7 n=f#3 v=127
250118 On ch=7 n=f#3 v=0
250321 On ch=7 n=f#3 v=127
250918 On ch=7 n=f#3 v=0
250921 On ch=7 n=f#4 v=127
251118 On ch=7 n=f#4 v=0
252121 On ch=7 n=f#4 v=127
252718 On ch=7 n=f#4 v=0
253522 On ch=7 n=f#5 v=127
253719 On ch=7 n=f#5 v=0
255122 On ch=7 n=f#3 v=127
255122 On ch=7 n=f#5 v=127
255719 On ch=7 n=f#3 v=0
256319 On ch=7 n=f#5 v=0
256323 On ch=7 n=f#5 v=127
256520 On ch=7 n=f#5 v=0
256723 On ch=7 n=f#5 v=127
256920 On ch=7 n=f#5 v=0
257323 On ch=7 n=f#5 v=127
257520 On ch=7 n=f#5 v=0
258123 On ch=7 n=f#4 v=127
258920 On ch=7 n=f#4 v=0
259523 On ch=7 n=f#4 v=127
259720 On ch=7 n=f#4 v=0
259923 On ch=7 n=f#6 v=127
260120 On ch=7 n=f#6 v=0
260325 On ch=7 n=f#4 v=127
260325 On ch=7 n=f#6 v=127
260522 On ch=7 n=f#6 v=0
260522 On ch=7 n=f#4 v=0
260925 On ch=7 n=f#6 v=127
261122 On ch=7 n=f#6 v=0
265926 On ch=7 n=f#4 v=127
266523 On ch=7 n=f#4 v=0
266526 On ch=7 n=f#5 v=127
266723 On ch=7 n=f#5 v=0
267326 On ch=7 n=f#5 v=127
267523 On ch=7 n=f#5 v=0
267726 On ch=7 n=f#4 v=127
267923 On ch=7 n=f#4 v=0
268126 On ch=7 n=f#4 v=127
268323 On ch=7 n=f#4 v=0
269127 On ch=7 n=f#4 v=127
269324 On ch=7 n=f#4 v=0
270127 On ch=7 n=f#4 v=127
270324 On ch=7 n=f#4 v=0
270527 On ch=7 n=f#6 v=127
270724 On ch=7 n=f#6 v=0
270927 On ch=7 n=f#4 v=127
271124 On ch=7 n=f#4 v=0
271927 On ch=7 n=f#4 v=127
272124 On ch=7 n=f#4 v=0
272328 On ch=7 n=f#4 v=127
272525 On ch=7 n=f#4 v=0
272528 On ch=7 n=f#5 v=127
272928 On ch=7 n=f#4 v=127
273125 On ch=7 n=f#4 v=0
273725 On ch=7 n=f#5 v=0
274528 On ch=7 n=f#4 v=127
274725 On ch=7 n=f#4 v=0
275528 On ch=7 n=f#5 v=127
276125 On ch=7 n=f#5 v=0
276330 On ch=7 n=f#6 v=127
276527 On ch=7 n=f#6 v=0
276730 On ch=7 n=f#6 v=127
276927 On ch=7 n=f#6 v=0
277130 On ch=7 n=f#6 v=127
277327 On ch=7 n=f#6 v=0
277530 On ch=7 n=f#6 v=127
277727 On ch=7 n=f#6 v=0
277930 On ch=7 n=f#5 v=127
278527 On ch=7 n=f#5 v=0
278530 On ch=7 n=f#6 v=127
278727 On ch=7 n=f#6 v=0
279130 On ch=7 n=f#5 v=127
279524 On ch=7 n=f#5 v=0
279527 On ch=7 n=f#4 v=127
279724 On ch=7 n=f#4 v=0
280328 On ch=7 n=f#5 v=127
280722 On ch=7 n=f#5 v=0
280925 On ch=7 n=f#6 v=127
281122 On ch=7 n=f#6 v=0
282731 On ch=7 n=f#6 v=127
282731 On ch=7 n=f#4 v=127
283324 On ch=7 n=f#4 v=0
283728 On ch=7 n=f#6 v=0
283731 On ch=7 n=f#6 v=127
283928 On ch=7 n=f#6 v=0
284732 On ch=7 n=f#5 v=127
284929 On ch=7 n=f#5 v=0
285532 On ch=7 n=f#6 v=127
285729 On ch=7 n=f#6 v=0
286932 On ch=7 n=f#4 v=127
286932 On ch=7 n=f#6 v=127
287129 On ch=7 n=f#4 v=0
287332 On ch=7 n=f#4 v=127
287529 On ch=7 n=f#4 v=0
288129 On ch=7 n=f#6 v=0
288332 On ch=7 n=f#4 v=127
288529 On ch=7 n=f#4 v=0
288734 On ch=7 n=f#5 v=127
289334 On ch=7 n=f#4 v=127
289531 On ch=7 n=f#4 v=0
289531 On ch=7 n=f#5 v=0
289734 On ch=7 n=f#5 v=127
289931 On ch=7 n=f#5 v=0
290134 On ch=7 n=f#4 v=127
290331 On ch=7 n=f#4 v=0
290734 On ch=7 n=f#5 v=127
290931 On ch=7 n=f#5 v=0
291134 On ch=7 n=f#4 v=127
291734 On ch=7 n=f#6 v=127
291931 On ch=7 n=f#6 v=0
292134 On ch=7 n=f#6 v=127
292331 On ch=7 n=f#6 v=0
292931 On ch=7 n=f#4 v=0
293535 On ch=7 n=f#5 v=127
293732 On ch=7 n=f#5 v=0
293935 On ch=7 n=f#5 v=127
294132 On ch=7 n=f#5 v=0
294535 On ch=7 n=f#5 v=127
294732 On ch=7 n=f#5 v=0
295335 On ch=7 n=f#4 v=127
295535 On ch=7 n=f#5 v=127
295732 On ch=7 n=f#5 v=0
295932 On ch=7 n=f#4 v=0
297742 On ch=7 n=f#5 v=127
298339 On ch=7 n=f#5 v=0
299142 On ch=7 n=f#5 v=127
299339 On ch=7 n=f#5 v=0
299742 On ch=7 n=f#5 v=127
299939 On ch=7 n=f#5 v=0
300542 On ch=7 n=f#5 v=127
300739 On ch=7 n=f#5 v=0
301344 On ch=7 n=f#5 v=127
301941 On ch=7 n=f#5 v=0
303144 On ch=7 n=f#4 v=127
303144 On ch=7 n=f#6 v=127
303741 On ch=7 n=f#4 v=0
303944 On ch=7 n=f#4 v=127
304141 On ch=7 n=f#4 v=0
304341 On ch=7 n=f#6 v=0
304945 On ch=7 n=f#4 v=127
305142 On ch=7 n=f#4 v=0
305345 On ch=7 n=f#4 v=127
305542 On ch=7 n=f#4 v=0
305945 On ch=7 n=f#4 v=127
306142 On ch=7 n=f#4 v=0
306745 On ch=7 n=f#4 v=127
306942 On ch=7 n=f#4 v=0
307345 On ch=7 n=f#6 v=127
308542 On ch=7 n=f#6 v=0
310946 On ch=7 n=f#4 v=127
311543 On ch=7 n=f#4 v=0
316949 On ch=7 n=f#5 v=127
318146 On ch=7 n=f#5 v=0
318949 On ch=7 n=f#4 v=127
319146 On ch=7 n=f#4 v=0
319749 On ch=7 n=f#4 v=127
319946 On ch=7 n=f#4 v=0
320549 On ch=7 n=f#4 v=127
320950 On ch=7 n=f#5 v=127
321147 On ch=7 n=f#5 v=0
321746 On ch=7 n=f#4 v=0
322350 On ch=7 n=f#5 v=127
322750 On ch=7 n=f#4 v=127
322947 On ch=7 n=f#4 v=0
323547 On ch=7 n=f#5 v=0
324150 On ch=7 n=f#4 v=127
324350 On ch=7 n=f#5 v=127
324547 On ch=7 n=f#5 v=0
324747 On ch=7 n=f#4 v=0
324951 On ch=7 n=f#5 v=127
325148 On ch=7 n=f#5 v=0
325951 On ch=7 n=f#5 v=127
326148 On ch=7 n=f#5 v=0
326351 On ch=7 n=f#6 v=127
326548 On ch=7 n=f#6 v=0
327151 On ch=7 n=f#4 v=127
327151 On ch=7 n=f#5 v=127
327348 On ch=7 n=f#5 v=0
327551 On ch=7 n=f#5 v=127
327748 On ch=7 n=f#4 v=0
327948 On ch=7 n=f#5 v=0
328154 On ch=7 n=f#6 v=127
328351 On ch=7 n=f#6 v=0
329354 On ch=7 n=f#5 v=127
329551 On ch=7 n=f#5 v=0
330755 On ch=7 n=f#5 v=127
330952 On ch=7 n=f#5 v=0
331355 On ch=7 n=f#6 v=127
331749 On ch=7 n=f#6 v=0
331752 On ch=7 n=f#5 v=127
331949 On ch=7 n=f#5 v=0
332352 On ch=7 n=f#4 v=127
332549 On ch=7 n=f#4 v=0
332752 On ch=7 n=f#4 v=127
332949 On ch=7 n=f#4 v=0
333552 On ch=7 n=f#4 v=127
333552 On ch=7 n=f#5 v=127
333749 On ch=7 n=f#5 v=0
333749 On ch=7 n=f#4 v=0
334353 On ch=7 n=f#4 v=127
335550 On ch=7 n=f#4 v=0
336753 On ch=7 n=f#6 v=127
336950 On ch=7 n=f#6 v=0
337153 On ch=7 n=f#6 v=127
337350 On ch=7 n=f#6 v=0
337753 On ch=7 n=f#6 v=127
337950 On ch=7 n=f#6 v=0
339354 On ch=7 n=f#5 v=127
339551 On ch=7 n=f#5 v=0
339754 On ch=7 n=f#5 v=127
340554 On ch=7 n=f#5 v=0
341357 On ch=7 n=f#5 v=127
341751 On ch=7 n=f#5 v=0
343356 On ch=7 n=f#5 v=127
343553 On ch=7 n=f#5 v=0
344156 On ch=7 n=f#5 v=127
344353 On ch=7 n=f#5 v=0
345158 On ch=7 n=f#5 v=127
345355 On ch=7 n=f#5 v=0
345558 On ch=7 n=f#5 v=127
345755 On ch=7 n=f#5 v=0
345958 On ch=7 n=f#5 v=127
346155 On ch=7 n=f#5 v=0
348758 On ch=7 n=f#4 v=127
348955 On ch=7 n=f#4 v=0
349759 On ch=7 n=f#4 v=127
349956 On ch=7 n=f#4 v=0
350359 On ch=7 n=f#5 v=127
350556 On ch=7 n=f#5 v=0
350759 On ch=7 n=f#4 v=127
350956 On ch=7 n=f#4 v=0
352759 On ch=7 n=f#5 v=127
352956 On ch=7 n=f#5 v=0
353160 On ch=7 n=f#5 v=127
353357 On ch=7 n=f#5 v=0
353560 On ch=7 n=f#4 v=127
353757 On ch=7 n=f#4 v=0
353960 On ch=7 n=f#4 v=127
354157 On ch=7 n=f#4 v=0
354560 On ch=7 n=f#4 v=127
354757 On ch=7 n=f#4 v=0
354960 On ch=7 n=f#5 v=127
355157 On ch=7 n=f#5 v=0
355560 On ch=7 n=f#4 v=127
355757 On ch=7 n=f#4 v=0
355960 On ch=7 n=f#5 v=127
356157 On ch=7 n=f#5 v=0
356360 On ch=7 n=f#5 v=127
356557 On ch=7 n=f#5 v=0
356961 On ch=7 n=f#5 v=127
357158 On ch=7 n=f#5 v=0
357761 On ch=7 n=f#4 v=127
357961 On ch=7 n=f#5 v=127
358158 On ch=7 n=f#5 v=0
358358 On ch=7 n=f#4 v=0
358361 On ch=7 n=f#5 v=127
358558 On ch=7 n=f#5 v=0
359161 On ch=7 n=f#5 v=127
359358 On ch=7 n=f#5 v=0
360161 On ch=7 n=f#5 v=127
360958 On ch=7 n=f#5 v=0
362563 On ch=7 n=f#5 v=127
363160 On ch=7 n=f#5 v=0
363363 On ch=7 n=f#6 v=127
363560 On ch=7 n=f#6 v=0
364763 On ch=7 n=f#4 v=127
364960 On ch=7 n=f#4 v=0
365364 On ch=7 n=f#6 v=127
365561 On ch=7 n=f#6 v=0
368570 On ch=7 n=f#5 v=127
369367 On ch=7 n=f#5 v=0
369571 On ch=7 n=f#5 v=127
369768 On ch=7 n=f#5 v=0
369971 On ch=7 n=f#4 v=127
370168 On ch=7 n=f#4 v=0
370171 On ch=7 n=f#5 v=127
370368 On ch=7 n=f#5 v=0
371571 On ch=7 n=f#3 v=127
372007 On ch=7 n=f#3 v=0
372171 On ch=7 n=f#4 v=127
372368 On ch=7 n=f#4 v=0
372371 On ch=7 n=f#5 v=127
372568 On ch=7 n=f#5 v=0
372571 On ch=7 n=f#4 v=127
372768 On ch=7 n=f#4 v=0
373573 On ch=7 n=f#4 v=127
373770 On ch=7 n=f#4 v=0
373973 On ch=7 n=f#4 v=127
374170 On ch=7 n=f#4 v=0
374973 On ch=7 n=f#5 v=127
375170 On ch=7 n=f#5 v=0
376373 On ch=7 n=f#4 v=127
376573 On ch=7 n=f#5 v=127
376770 On ch=7 n=f#5 v=0
376770 On ch=7 n=f#4 v=0
376973 On ch=7 n=f#5 v=127
377170 On ch=7 n=f#5 v=0
377574 On ch=7 n=f#6 v=127
378174 On ch=7 n=f#4 v=127
378771 On ch=7 n=f#4 v=0
378771 On ch=7 n=f#6 v=0
379974 On ch=7 n=f#5 v=127
380171 On ch=7 n=f#5 v=0
380374 On ch=7 n=f#5 v=127
380571 On ch=7 n=f#5 v=0
380974 On ch=7 n=f#5 v=127
381171 On ch=7 n=f#5 v=0
381375 On ch=7 n=f#4 v=127
381572 On ch=7 n=f#4 v=0
381975 On ch=7 n=f#5 v=127
382172 On ch=7 n=f#5 v=0
382375 On ch=7 n=f#5 v=127
382775 On ch=7 n=f#4 v=127
382972 On ch=7 n=f#4 v=0
383572 On ch=7 n=f#5 v=0
384788 On ch=7 n=f#6 v=127
385391 On ch=7 n=f#6 v=0
386614 On ch=7 n=f#5 v=127
387867 On ch=7 n=f#5 v=0
389245 On ch=7 n=f#5 v=127
389515 On ch=7 n=f#5 v=0
389515 Meta TrkEnd
TrkEnd
MTrk
0 SeqSpec 43 00 01 00
0 PrCh ch=8 p=0
0 Pb ch=8 v=8160
831 On ch=8 n=g#4 v=127
1224 On ch=8 n=g#4 v=0
2020 On ch=8 n=g#5 v=127
2413 On ch=8 n=g#5 v=0
4791 On ch=8 n=g#5 v=127
5976 On ch=8 n=g#5 v=0
5980 On ch=8 n=g#6 v=127
6175 On ch=8 n=g#6 v=0
6375 On ch=8 n=g#6 v=127
6768 On ch=8 n=g#6 v=0
6771 On ch=8 n=g#6 v=127
6970 On ch=8 n=g#4 v=127
7164 On ch=8 n=g#6 v=0
7165 On ch=8 n=g#4 v=0
7167 On ch=8 n=g#6 v=127
7167 On ch=8 n=g#4 v=127
7560 On ch=8 n=g#4 v=0
7955 On ch=8 n=g#6 v=0
8950 On ch=8 n=g#4 v=127
9145 On ch=8 n=g#4 v=0
11127 On ch=8 n=g#5 v=127
11520 On ch=8 n=g#5 v=0
11523 On ch=8 n=g#6 v=127
11523 On ch=8 n=g#3 v=127
11916 On ch=8 n=g#3 v=0
11916 On ch=8 n=g#6 v=0
14295 On ch=8 n=g#3 v=127
14688 On ch=8 n=g#3 v=0
15483 On ch=8 n=g#4 v=127
16074 On ch=8 n=g#4 v=0
16275 On ch=8 n=g#4 v=127
16470 On ch=8 n=g#4 v=0
16671 On ch=8 n=g#4 v=127
16866 On ch=8 n=g#4 v=0
17067 On ch=8 n=g#4 v=127
17460 On ch=8 n=g#4 v=0
17463 On ch=8 n=g#5 v=127
17463 On ch=8 n=g#4 v=127
17856 On ch=8 n=g#4 v=0
17856 On ch=8 n=g#5 v=0
17860 On ch=8 n=g#4 v=127
18451 On ch=8 n=g#4 v=0
19641 On ch=8 n=g#4 v=127
19836 On ch=8 n=g#4 v=0
21423 On ch=8 n=g#5 v=127
21817 On ch=8 n=g#4 v=127
22012 On ch=8 n=g#4 v=0
22203 On ch=8 n=g#5 v=0
22212 On ch=8 n=g#5 v=127
23187 On ch=8 n=g#5 v=0
23400 On ch=8 n=g#4 v=127
23793 On ch=8 n=g#4 v=0
26172 On ch=8 n=g#4 v=127
26960 On ch=8 n=g#4 v=0
27360 On ch=8 n=g#5 v=127
28148 On ch=8 n=g#5 v=0
28152 On ch=8 n=g#5 v=127
28350 On ch=8 n=g#4 v=127
28545 On ch=8 n=g#4 v=0
28545 On ch=8 n=g#5 v=0
28548 On ch=8 n=g#5 v=127
29336 On ch=8 n=g#5 v=0
29340 On ch=8 n=g#4 v=127
29733 On ch=8 n=g#4 v=0
30132 On ch=8 n=g#4 v=127
30525 On ch=8 n=g#4 v=0
30528 On ch=8 n=g#5 v=127
30921 On ch=8 n=g#5 v=0
30924 On ch=8 n=g#5 v=127
31317 On ch=8 n=g#5 v=0
32508 On ch=8 n=g#5 v=127
32904 On ch=8 n=g#3 v=127
33297 On ch=8 n=g#3 v=0
33308 On ch=8 n=g#5 v=0
34092 On ch=8 n=g#5 v=127
34485 On ch=8 n=g#5 v=0
35280 On ch=8 n=g#3 v=127
35673 On ch=8 n=g#3 v=0
36864 On ch=8 n=g#3 v=127
37257 On ch=8 n=g#3 v=0
38052 On ch=8 n=g#5 v=127
40032 On ch=8 n=g#5 v=0
41220 On ch=8 n=g#5 v=127
41613 On ch=8 n=g#5 v=0
45577 On ch=8 n=g#4 v=127
46762 On ch=8 n=g#4 v=0
48348 On ch=8 n=g#4 v=127
48741 On ch=8 n=g#4 v=0
49140 On ch=8 n=g#6 v=127
49533 On ch=8 n=g#6 v=0
49932 On ch=8 n=g#6 v=127
50325 On ch=8 n=g#6 v=0
51912 On ch=8 n=g#6 v=127
52305 On ch=8 n=g#6 v=0
53497 On ch=8 n=g#6 v=127
54280 On ch=8 n=g#6 v=0
54684 On ch=8 n=g#6 v=127
56046 On ch=8 n=g#6 v=0
56173 On ch=8 n=g#6 v=127
56311 On ch=8 n=g#6 v=0
56661 On ch=8 n=g#6 v=127
57054 On ch=8 n=g#6 v=0
57057 On ch=8 n=g#6 v=127
57057 On ch=8 n=g#3 v=127
57450 On ch=8 n=g#3 v=0
58242 On ch=8 n=g#6 v=0
58245 On ch=8 n=g#4 v=127
59826 On ch=8 n=g#4 v=0
64977 On ch=8 n=g#5 v=127
65370 On ch=8 n=g#5 v=0
66165 On ch=8 n=g#6 v=127
66558 On ch=8 n=g#6 v=0
66561 On ch=8 n=g#6 v=127
66561 On ch=8 n=g#4 v=127
66707 On ch=8 n=g#4 v=0
66859 On ch=8 n=g#4 v=127
66954 On ch=8 n=g#6 v=0
67005 On ch=8 n=g#4 v=0
67155 On ch=8 n=g#4 v=127
67301 On ch=8 n=g#4 v=0
67749 On ch=8 n=g#4 v=127
68537 On ch=8 n=g#4 v=0
68937 On ch=8 n=g#4 v=127
69725 On ch=8 n=g#4 v=0
70125 On ch=8 n=g#6 v=127
70518 On ch=8 n=g#6 v=0
70917 On ch=8 n=g#4 v=127
71310 On ch=8 n=g#4 v=0
74085 On ch=8 n=g#5 v=127
74478 On ch=8 n=g#5 v=0
75669 On ch=8 n=g#4 v=127
76612 On ch=8 n=g#4 v=0
77055 On ch=8 n=g#4 v=127
77250 On ch=8 n=g#4 v=0
78045 On ch=8 n=g#5 v=127
78438 On ch=8 n=g#5 v=0
78837 On ch=8 n=g#4 v=127
79230 On ch=8 n=g#4 v=0
81609 On ch=8 n=g#5 v=127
82002 On ch=8 n=g#5 v=0
82995 On ch=8 n=g#4 v=127
83190 On ch=8 n=g#4 v=0
83391 On ch=8 n=g#4 v=127
83586 On ch=8 n=g#4 v=0
83589 On ch=8 n=g#5 v=127
83982 On ch=8 n=g#5 v=0
84381 On ch=8 n=g#5 v=127
84579 On ch=8 n=g#4 v=127
84774 On ch=8 n=g#4 v=0
84774 On ch=8 n=g#5 v=0
86361 On ch=8 n=g#4 v=127
86556 On ch=8 n=g#4 v=0
86757 On ch=8 n=g#4 v=127
87545 On ch=8 n=g#4 v=0
87549 On ch=8 n=g#5 v=127
87942 On ch=8 n=g#5 v=0
88737 On ch=8 n=g#4 v=127
89130 On ch=8 n=g#4 v=0
89529 On ch=8 n=g#4 v=127
89922 On ch=8 n=g#4 v=0
90717 On ch=8 n=g#5 v=127
90912 On ch=8 n=g#5 v=0
91509 On ch=8 n=g#5 v=127
91745 On ch=8 n=g#5 v=0
91885 On ch=8 n=g#5 v=127
92013 On ch=8 n=g#5 v=0
92156 On ch=8 n=g#5 v=127
92284 On ch=8 n=g#5 v=0
93094 On ch=8 n=g#5 v=127
93487 On ch=8 n=g#5 v=0
94281 On ch=8 n=g#4 v=127
94476 On ch=8 n=g#4 v=0
98241 On ch=8 n=g#4 v=127
98436 On ch=8 n=g#4 v=0
98637 On ch=8 n=g#4 v=127
99425 On ch=8 n=g#4 v=0
100815 On ch=8 n=g#5 v=127
101010 On ch=8 n=g#5 v=0
101607 On ch=8 n=g#6 v=127
101802 On ch=8 n=g#6 v=0
103389 On ch=8 n=g#5 v=127
103780 On ch=8 n=g#5 v=0
103785 On ch=8 n=g#5 v=127
104568 On ch=8 n=g#5 v=0
104577 On ch=8 n=g#6 v=127
105369 On ch=8 n=g#5 v=127
105762 On ch=8 n=g#5 v=0
106350 On ch=8 n=g#6 v=0
106359 On ch=8 n=g#6 v=127
106554 On ch=8 n=g#6 v=0
107844 On ch=8 n=g#6 v=127
107997 On ch=8 n=g#6 v=0
108934 On ch=8 n=g#6 v=127
109129 On ch=8 n=g#6 v=0
109725 On ch=8 n=g#6 v=127
110118 On ch=8 n=g#6 v=0
110121 On ch=8 n=g#5 v=127
110514 On ch=8 n=g#5 v=0
111309 On ch=8 n=g#6 v=127
111702 On ch=8 n=g#6 v=0
111705 On ch=8 n=g#5 v=127
112282 On ch=8 n=g#5 v=0
116061 On ch=8 n=g#6 v=127
116256 On ch=8 n=g#6 v=0
117645 On ch=8 n=g#5 v=127
118834 On ch=8 n=g#6 v=127
119418 On ch=8 n=g#5 v=0
119427 On ch=8 n=g#5 v=127
119622 On ch=8 n=g#5 v=0
120814 On ch=8 n=g#6 v=0
121209 On ch=8 n=g#6 v=127
121602 On ch=8 n=g#6 v=0
123189 On ch=8 n=g#6 v=127
123384 On ch=8 n=g#6 v=0
123585 On ch=8 n=g#3 v=127
124373 On ch=8 n=g#3 v=0
124377 On ch=8 n=g#6 v=127
124770 On ch=8 n=g#6 v=0
127545 On ch=8 n=g#5 v=127
127938 On ch=8 n=g#5 v=0
128337 On ch=8 n=g#5 v=127
128731 On ch=8 n=g#4 v=127
128926 On ch=8 n=g#4 v=0
129117 On ch=8 n=g#5 v=0
129126 On ch=8 n=g#5 v=127
129519 On ch=8 n=g#5 v=0
130314 On ch=8 n=g#5 v=127
130707 On ch=8 n=g#5 v=0
130908 On ch=8 n=g#5 v=127
131103 On ch=8 n=g#5 v=0
131304 On ch=8 n=g#4 v=127
131499 On ch=8 n=g#4 v=0
133086 On ch=8 n=g#4 v=127
133874 On ch=8 n=g#4 v=0
133878 On ch=8 n=g#5 v=127
134073 On ch=8 n=g#5 v=0
135066 On ch=8 n=g#3 v=127
135459 On ch=8 n=g#3 v=0
136056 On ch=8 n=g#4 v=127
136251 On ch=8 n=g#4 v=0
137442 On ch=8 n=g#5 v=127
137835 On ch=8 n=g#5 v=0
138631 On ch=8 n=g#4 v=127
139024 On ch=8 n=g#4 v=0
140214 On ch=8 n=g#4 v=127
140607 On ch=8 n=g#4 v=0
141402 On ch=8 n=g#6 v=127
142185 On ch=8 n=g#6 v=0
142194 On ch=8 n=g#6 v=127
142587 On ch=8 n=g#6 v=0
142788 On ch=8 n=g#6 v=127
142884 On ch=8 n=g#6 v=0
142986 On ch=8 n=g#6 v=127
143379 On ch=8 n=g#6 v=0
144768 On ch=8 n=g#5 v=127
144963 On ch=8 n=g#5 v=0
146551 On ch=8 n=g#5 v=127
146944 On ch=8 n=g#5 v=0
146946 On ch=8 n=g#6 v=127
146946 On ch=8 n=g#3 v=127
147339 On ch=8 n=g#3 v=0
147339 On ch=8 n=g#6 v=0
149718 On ch=8 n=g#3 v=127
150111 On ch=8 n=g#3 v=0
150906 On ch=8 n=g#4 v=127
151497 On ch=8 n=g#4 v=0
151698 On ch=8 n=g#4 v=127
151893 On ch=8 n=g#4 v=0
152094 On ch=8 n=g#4 v=127
152289 On ch=8 n=g#4 v=0
152491 On ch=8 n=g#4 v=127
152884 On ch=8 n=g#4 v=0
152886 On ch=8 n=g#5 v=127
152886 On ch=8 n=g#4 v=127
153279 On ch=8 n=g#4 v=0
153279 On ch=8 n=g#5 v=0
153282 On ch=8 n=g#4 v=127
153873 On ch=8 n=g#4 v=0
155064 On ch=8 n=g#4 v=127
155259 On ch=8 n=g#4 v=0
156846 On ch=8 n=g#5 v=127
157629 On ch=8 n=g#5 v=0
157638 On ch=8 n=g#5 v=127
158031 On ch=8 n=g#5 v=0
158034 On ch=8 n=g#6 v=127
158826 On ch=8 n=g#5 v=127
159219 On ch=8 n=g#5 v=0
160014 On ch=8 n=g#6 v=0
160014 On ch=8 n=g#6 v=127
160407 On ch=8 n=g#6 v=0
160411 On ch=8 n=g#6 v=127
161596 On ch=8 n=g#6 v=0
163974 On ch=8 n=g#5 v=127
164568 On ch=8 n=g#3 v=127
164763 On ch=8 n=g#3 v=0
165747 On ch=8 n=g#5 v=0
166152 On ch=8 n=g#5 v=127
166347 On ch=8 n=g#5 v=0
168924 On ch=8 n=g#4 v=127
169119 On ch=8 n=g#4 v=0
169518 On ch=8 n=g#5 v=127
169911 On ch=8 n=g#5 v=0
169914 On ch=8 n=g#4 v=127
170702 On ch=8 n=g#4 v=0
170706 On ch=8 n=g#4 v=127
171099 On ch=8 n=g#4 v=0
171102 On ch=8 n=g#4 v=127
171890 On ch=8 n=g#4 v=0
173082 On ch=8 n=g#5 v=127
173475 On ch=8 n=g#5 v=0
173478 On ch=8 n=g#5 v=127
173871 On ch=8 n=g#5 v=0
175062 On ch=8 n=g#4 v=127
175257 On ch=8 n=g#4 v=0
175261 On ch=8 n=g#5 v=127
175456 On ch=8 n=g#5 v=0
175854 On ch=8 n=g#6 v=127
176049 On ch=8 n=g#6 v=0
176251 On ch=8 n=g#6 v=127
176644 On ch=8 n=g#6 v=0
176646 On ch=8 n=g#6 v=127
177039 On ch=8 n=g#6 v=0
177042 On ch=8 n=g#6 v=127
177237 On ch=8 n=g#6 v=0
177438 On ch=8 n=g#6 v=127
177831 On ch=8 n=g#6 v=0
177834 On ch=8 n=g#6 v=127
178227 On ch=8 n=g#6 v=0
178231 On ch=8 n=g#6 v=127
178624 On ch=8 n=g#6 v=0
178824 On ch=8 n=g#6 v=127
179019 On ch=8 n=g#6 v=0
181398 On ch=8 n=g#3 v=127
181791 On ch=8 n=g#3 v=0
182784 On ch=8 n=g#4 v=127
182979 On ch=8 n=g#4 v=0
183774 On ch=8 n=g#6 v=127
184167 On ch=8 n=g#6 v=0
187734 On ch=8 n=g#5 v=127
189912 On ch=8 n=g#4 v=127
190105 On ch=8 n=g#5 v=0
190107 On ch=8 n=g#4 v=0
190506 On ch=8 n=g#4 v=127
190701 On ch=8 n=g#4 v=0
192091 On ch=8 n=g#5 v=127
192286 On ch=8 n=g#5 v=0
192486 On ch=8 n=g#5 v=127
194268 On ch=8 n=g#4 v=127
194463 On ch=8 n=g#4 v=0
194857 On ch=8 n=g#5 v=0
195753 On ch=8 n=g#5 v=127
195899 On ch=8 n=g#5 v=0
196051 On ch=8 n=g#5 v=127
196842 On ch=8 n=g#3 v=127
197235 On ch=8 n=g#3 v=0
197676 On ch=8 n=g#5 v=0
198031 On ch=8 n=g#5 v=127
198424 On ch=8 n=g#5 v=0
199218 On ch=8 n=g#4 v=127
199611 On ch=8 n=g#4 v=0
200406 On ch=8 n=g#4 v=127
200799 On ch=8 n=g#4 v=0
201198 On ch=8 n=g#4 v=127
201591 On ch=8 n=g#4 v=0
203178 On ch=8 n=g#3 v=127
203971 On ch=8 n=g#5 v=127
204364 On ch=8 n=g#5 v=0
204366 On ch=8 n=g#5 v=127
204759 On ch=8 n=g#5 v=0
204951 On ch=8 n=g#3 v=0
206742 On ch=8 n=g#5 v=127
207525 On ch=8 n=g#5 v=0
207931 On ch=8 n=g#4 v=127
208719 On ch=8 n=g#4 v=0
208722 On ch=8 n=g#5 v=127
209115 On ch=8 n=g#5 v=0
209118 On ch=8 n=g#4 v=127
209264 On ch=8 n=g#4 v=0
209416 On ch=8 n=g#4 v=127
209562 On ch=8 n=g#4 v=0
209712 On ch=8 n=g#4 v=127
209858 On ch=8 n=g#4 v=0
210306 On ch=8 n=g#4 v=127
210452 On ch=8 n=g#4 v=0
210603 On ch=8 n=g#4 v=127
210749 On ch=8 n=g#4 v=0
210901 On ch=8 n=g#4 v=127
211047 On ch=8 n=g#4 v=0
211494 On ch=8 n=g#4 v=127
212881 On ch=8 n=g#6 v=127
213076 On ch=8 n=g#6 v=0
213267 On ch=8 n=g#4 v=0
213474 On ch=8 n=g#6 v=127
213474 On ch=8 n=g#3 v=127
213867 On ch=8 n=g#3 v=0
213867 On ch=8 n=g#6 v=0
214272 On ch=8 n=g#3 v=127
214672 On ch=8 n=g#3 v=0
215077 On ch=8 n=g#3 v=127
215902 On ch=8 n=g#3 v=0
216316 On ch=8 n=g#4 v=127
217164 On ch=8 n=g#4 v=0
217168 On ch=8 n=g#3 v=127
217590 On ch=8 n=g#3 v=0
217614 On ch=8 n=g#5 v=127
221439 On ch=8 n=g#5 v=0
222703 On ch=8 n=g#3 v=127
222900 On ch=8 n=g#3 v=0
224704 On ch=8 n=g#4 v=127
224901 On ch=8 n=g#4 v=0
225104 On ch=8 n=g#5 v=127
225301 On ch=8 n=g#5 v=0
225504 On ch=8 n=g#5 v=127
225701 On ch=8 n=g#5 v=0
225904 On ch=8 n=g#5 v=127
226101 On ch=8 n=g#5 v=0
226904 On ch=8 n=g#5 v=127
227101 On ch=8 n=g#5 v=0
228706 On ch=8 n=g#3 v=127
229303 On ch=8 n=g#3 v=0
229306 On ch=8 n=g#5 v=127
229503 On ch=8 n=g#5 v=0
230106 On ch=8 n=g#5 v=127
230303 On ch=8 n=g#5 v=0
231106 On ch=8 n=g#5 v=127
231703 On ch=8 n=g#5 v=0
232307 On ch=8 n=g#4 v=127
232504 On ch=8 n=g#4 v=0
234307 On ch=8 n=g#5 v=127
234504 On ch=8 n=g#5 v=0
234707 On ch=8 n=g#5 v=127
235304 On ch=8 n=g#5 v=0
236508 On ch=8 n=g#5 v=127
237705 On ch=8 n=g#5 v=0
238308 On ch=8 n=g#4 v=127
238508 On ch=8 n=g#5 v=127
238705 On ch=8 n=g#5 v=0
238908 On ch=8 n=g#5 v=127
239105 On ch=8 n=g#5 v=0
239705 On ch=8 n=g#4 v=0
239908 On ch=8 n=g#4 v=127
240105 On ch=8 n=g#4 v=0
240509 On ch=8 n=g#4 v=127
240706 On ch=8 n=g#4 v=0
241509 On ch=8 n=g#4 v=127
241706 On ch=8 n=g#4 v=0
241909 On ch=8 n=g#5 v=127
242106 On ch=8 n=g#5 v=0
242309 On ch=8 n=g#5 v=127
242506 On ch=8 n=g#5 v=0
242909 On ch=8 n=g#5 v=127
243106 On ch=8 n=g#5 v=0
243709 On ch=8 n=g#4 v=127
243909 On ch=8 n=g#5 v=127
244106 On ch=8 n=g#5 v=0
244306 On ch=8 n=g#4 v=0
245111 On ch=8 n=g#4 v=127
245308 On ch=8 n=g#4 v=0
245511 On ch=8 n=g#4 v=127
246111 On ch=8 n=g#3 v=127
246308 On ch=8 n=g#3 v=0
246708 On ch=8 n=g#4 v=0
246911 On ch=8 n=g#3 v=127
247108 On ch=8 n=g#3 v=0
249712 On ch=8 n=g#3 v=127
249909 On ch=8 n=g#3 v=0
250512 On ch=8 n=g#4 v=127
250709 On ch=8 n=g#4 v=0
251512 On ch=8 n=g#4 v=127
251709 On ch=8 n=g#4 v=0
252713 On ch=8 n=g#4 v=127
253113 On ch=8 n=g#5 v=127
253310 On ch=8 n=g#4 v=0
253510 On ch=8 n=g#5 v=0
256914 On ch=8 n=g#3 v=127
257114 On ch=8 n=g#5 v=127
257311 On ch=8 n=g#5 v=0
257511 On ch=8 n=g#3 v=0
258714 On ch=8 n=g#5 v=127
258911 On ch=8 n=g#5 v=0
259714 On ch=8 n=g#4 v=127
259911 On ch=8 n=g#4 v=0
260114 On ch=8 n=g#4 v=127
260311 On ch=8 n=g#4 v=0
260516 On ch=8 n=g#4 v=127
260713 On ch=8 n=g#4 v=0
260716 On ch=8 n=g#6 v=127
260913 On ch=8 n=g#6 v=0
261116 On ch=8 n=g#5 v=127
261313 On ch=8 n=g#5 v=0
261516 On ch=8 n=g#5 v=127
261713 On ch=8 n=g#5 v=0
261916 On ch=8 n=g#5 v=127
262113 On ch=8 n=g#5 v=0
262916 On ch=8 n=g#5 v=127
263113 On ch=8 n=g#5 v=0
264717 On ch=8 n=g#4 v=127
264717 On ch=8 n=g#6 v=127
265314 On ch=8 n=g#6 v=0
265314 On ch=8 n=g#4 v=0
265317 On ch=8 n=g#5 v=127
265514 On ch=8 n=g#5 v=0
266117 On ch=8 n=g#5 v=127
266314 On ch=8 n=g#5 v=0
267117 On ch=8 n=g#5 v=127
267314 On ch=8 n=g#5 v=0
267517 On ch=8 n=g#5 v=127
267714 On ch=8 n=g#5 v=0
267917 On ch=8 n=g#5 v=127
268114 On ch=8 n=g#5 v=0
269318 On ch=8 n=g#4 v=127
269515 On ch=8 n=g#4 v=0
269718 On ch=8 n=g#4 v=127
269915 On ch=8 n=g#4 v=0
270718 On ch=8 n=g#4 v=127
270915 On ch=8 n=g#4 v=0
271118 On ch=8 n=g#4 v=127
271315 On ch=8 n=g#4 v=0
271318 On ch=8 n=g#5 v=127
271718 On ch=8 n=g#4 v=127
271915 On ch=8 n=g#4 v=0
272515 On ch=8 n=g#5 v=0
272719 On ch=8 n=g#4 v=127
272916 On ch=8 n=g#4 v=0
273119 On ch=8 n=g#5 v=127
273916 On ch=8 n=g#5 v=0
274319 On ch=8 n=g#4 v=127
274516 On ch=8 n=g#4 v=0
274719 On ch=8 n=g#4 v=127
274916 On ch=8 n=g#4 v=0
274919 On ch=8 n=g#5 v=127
275516 On ch=8 n=g#5 v=0
276119 On ch=8 n=g#4 v=127
276555 On ch=8 n=g#4 v=0
276921 On ch=8 n=g#6 v=127
277118 On ch=8 n=g#6 v=0
277721 On ch=8 n=g#5 v=127
277918 On ch=8 n=g#5 v=0
278321 On ch=8 n=g#6 v=127
278518 On ch=8 n=g#6 v=0
279721 On ch=8 n=g#4 v=127
279721 On ch=8 n=g#5 v=127
280115 On ch=8 n=g#5 v=0
280115 On ch=8 n=g#4 v=0
280719 On ch=8 n=g#4 v=127
280916 On ch=8 n=g#4 v=0
282220 On ch=8 n=g#4 v=127
282318 On ch=8 n=g#4 v=0
282423 On ch=8 n=g#4 v=127
282521 On ch=8 n=g#4 v=0
282624 On ch=8 n=g#4 v=127
282722 On ch=8 n=g#4 v=0
283925 On ch=8 n=g#5 v=127
284122 On ch=8 n=g#5 v=0
284325 On ch=8 n=g#5 v=127
284522 On ch=8 n=g#5 v=0
284926 On ch=8 n=g#5 v=127
285123 On ch=8 n=g#5 v=0
285926 On ch=8 n=g#5 v=127
286123 On ch=8 n=g#5 v=0
286326 On ch=8 n=g#4 v=127
286523 On ch=8 n=g#4 v=0
286726 On ch=8 n=g#4 v=127
286923 On ch=8 n=g#4 v=0
287126 On ch=8 n=g#4 v=127
287323 On ch=8 n=g#4 v=0
287526 On ch=8 n=g#5 v=127
287920 On ch=8 n=g#5 v=0
288123 On ch=8 n=g#4 v=127
288320 On ch=8 n=g#4 v=0
289925 On ch=8 n=g#5 v=127
290525 On ch=8 n=g#4 v=127
290722 On ch=8 n=g#4 v=0
290722 On ch=8 n=g#5 v=0
290925 On ch=8 n=g#5 v=127
291122 On ch=8 n=g#5 v=0
292325 On ch=8 n=g#4 v=127
292522 On ch=8 n=g#4 v=0
292926 On ch=8 n=g#5 v=127
293523 On ch=8 n=g#5 v=0
294126 On ch=8 n=g#4 v=127
294326 On ch=8 n=g#5 v=127
294523 On ch=8 n=g#5 v=0
294723 On ch=8 n=g#4 v=0
296527 On ch=8 n=g#5 v=127
297730 On ch=8 n=g#5 v=0
298333 On ch=8 n=g#3 v=127
298333 On ch=8 n=g#5 v=127
298530 On ch=8 n=g#5 v=0
298733 On ch=8 n=g#5 v=127
298930 On ch=8 n=g#3 v=0
299130 On ch=8 n=g#5 v=0
300133 On ch=8 n=g#3 v=127
300333 On ch=8 n=g#5 v=127
300530 On ch=8 n=g#5 v=0
300730 On ch=8 n=g#3 v=0
300935 On ch=8 n=g#4 v=127
301132 On ch=8 n=g#4 v=0
301935 On ch=8 n=g#4 v=127
301935 On ch=8 n=g#5 v=127
302132 On ch=8 n=g#4 v=0
303132 On ch=8 n=g#5 v=0
304736 On ch=8 n=g#4 v=127
304933 On ch=8 n=g#4 v=0
305736 On ch=8 n=g#4 v=127
305933 On ch=8 n=g#4 v=0
306136 On ch=8 n=g#6 v=127
306733 On ch=8 n=g#6 v=0
306936 On ch=8 n=g#4 v=127
307133 On ch=8 n=g#4 v=0
307936 On ch=8 n=g#5 v=127
308533 On ch=8 n=g#5 v=0
309137 On ch=8 n=g#4 v=127
309531 On ch=8 n=g#4 v=0
309734 On ch=8 n=g#4 v=127
310331 On ch=8 n=g#4 v=0
311534 On ch=8 n=g#5 v=127
312731 On ch=8 n=g#5 v=0
313335 On ch=8 n=g#5 v=127
314532 On ch=8 n=g#5 v=0
315135 On ch=8 n=g#5 v=127
315735 On ch=8 n=g#3 v=127
315932 On ch=8 n=g#3 v=0
316932 On ch=8 n=g#5 v=0
317537 On ch=8 n=g#3 v=127
317937 On ch=8 n=g#5 v=127
318134 On ch=8 n=g#5 v=0
318734 On ch=8 n=g#3 v=0
318737 On ch=8 n=g#4 v=127
318934 On ch=8 n=g#4 v=0
319137 On ch=8 n=g#4 v=127
319334 On ch=8 n=g#4 v=0
319537 On ch=8 n=g#4 v=127
319734 On ch=8 n=g#4 v=0
320738 On ch=8 n=g#5 v=127
320935 On ch=8 n=g#5 v=0
321138 On ch=8 n=g#5 v=127
321738 On ch=8 n=g#4 v=127
321935 On ch=8 n=g#4 v=0
322335 On ch=8 n=g#5 v=0
322538 On ch=8 n=g#4 v=127
322735 On ch=8 n=g#4 v=0
325739 On ch=8 n=g#5 v=127
325936 On ch=8 n=g#5 v=0
326539 On ch=8 n=g#4 v=127
326539 On ch=8 n=g#6 v=127
326736 On ch=8 n=g#6 v=0
327136 On ch=8 n=g#4 v=0
327739 On ch=8 n=g#4 v=127
328339 On ch=8 n=g#4 v=0
329142 On ch=8 n=g#5 v=127
329339 On ch=8 n=g#5 v=0
329942 On ch=8 n=g#4 v=127
330139 On ch=8 n=g#4 v=0
330543 On ch=8 n=g#5 v=127
330740 On ch=8 n=g#5 v=0
331943 On ch=8 n=g#5 v=127
332140 On ch=8 n=g#5 v=0
332143 On ch=8 n=g#6 v=127
332340 On ch=8 n=g#6 v=0
332543 On ch=8 n=g#4 v=127
332740 On ch=8 n=g#4 v=0
332943 On ch=8 n=g#4 v=127
333140 On ch=8 n=g#4 v=0
333343 On ch=8 n=g#4 v=127
333540 On ch=8 n=g#4 v=0
333743 On ch=8 n=g#5 v=127
333940 On ch=8 n=g#5 v=0
335544 On ch=8 n=g#5 v=127
335741 On ch=8 n=g#5 v=0
337344 On ch=8 n=g#4 v=127
337544 On ch=8 n=g#6 v=127
337741 On ch=8 n=g#6 v=0
337941 On ch=8 n=g#4 v=0
338945 On ch=8 n=g#5 v=127
339339 On ch=8 n=g#5 v=0
340745 On ch=8 n=g#5 v=127
341139 On ch=8 n=g#5 v=0
341542 On ch=8 n=g#3 v=127
342440 On ch=8 n=g#3 v=0
342544 On ch=8 n=g#4 v=127
342741 On ch=8 n=g#4 v=0
342944 On ch=8 n=g#4 v=127
343141 On ch=8 n=g#4 v=0
343944 On ch=8 n=g#5 v=127
344141 On ch=8 n=g#5 v=0
344344 On ch=8 n=g#5 v=127
344541 On ch=8 n=g#5 v=0
344946 On ch=8 n=g#5 v=127
345143 On ch=8 n=g#5 v=0
345746 On ch=8 n=g#5 v=127
345943 On ch=8 n=g#5 v=0
346146 On ch=8 n=g#5 v=127
346343 On ch=8 n=g#5 v=0
348146 On ch=8 n=g#5 v=127
348546 On ch=8 n=g#4 v=127
348743 On ch=8 n=g#4 v=0
348743 On ch=8 n=g#5 v=0
349147 On ch=8 n=g#4 v=127
349344 On ch=8 n=g#4 v=0
349947 On ch=8 n=g#4 v=127
350144 On ch=8 n=g#4 v=0
350347 On ch=8 n=g#4 v=127
350544 On ch=8 n=g#4 v=0
350947 On ch=8 n=g#4 v=127
351144 On ch=8 n=g#4 v=0
352347 On ch=8 n=g#3 v=127
352544 On ch=8 n=g#3 v=0
352547 On ch=8 n=g#5 v=127
352744 On ch=8 n=g#5 v=0
353348 On ch=8 n=g#5 v=127
353545 On ch=8 n=g#5 v=0
354348 On ch=8 n=g#4 v=127
354545 On ch=8 n=g#4 v=0
354748 On ch=8 n=g#5 v=127
355142 On ch=8 n=g#5 v=0
355145 On ch=8 n=g#5 v=127
355342 On ch=8 n=g#5 v=0
355745 On ch=8 n=g#5 v=127
355942 On ch=8 n=g#5 v=0
356545 On ch=8 n=g#4 v=127
356745 On ch=8 n=g#5 v=127
356942 On ch=8 n=g#5 v=0
357142 On ch=8 n=g#4 v=0
357946 On ch=8 n=g#5 v=127
358143 On ch=8 n=g#5 v=0
358946 On ch=8 n=g#5 v=127
359143 On ch=8 n=g#5 v=0
359346 On ch=8 n=g#5 v=127
359543 On ch=8 n=g#5 v=0
359946 On ch=8 n=g#5 v=127
360143 On ch=8 n=g#5 v=0
360746 On ch=8 n=g#4 v=127
361548 On ch=8 n=g#5 v=127
361745 On ch=8 n=g#5 v=0
362948 On ch=8 n=g#6 v=127
363342 On ch=8 n=g#6 v=0
364345 On ch=8 n=g#5 v=127
364741 On ch=8 n=g#4 v=0
364938 On ch=8 n=g#5 v=0
364946 On ch=8 n=g#5 v=127
365146 On ch=8 n=g#6 v=127
365343 On ch=8 n=g#6 v=0
365343 On ch=8 n=g#5 v=0
365546 On ch=8 n=g#4 v=127
365743 On ch=8 n=g#4 v=0
365946 On ch=8 n=g#4 v=127
366143 On ch=8 n=g#4 v=0
366146 On ch=8 n=g#5 v=127
366244 On ch=8 n=g#5 v=0
366348 On ch=8 n=g#4 v=127
366348 On ch=8 n=g#5 v=127
366446 On ch=8 n=g#5 v=0
366548 On ch=8 n=g#4 v=0
366752 On ch=8 n=g#5 v=127
367352 On ch=8 n=g#4 v=127
367549 On ch=8 n=g#4 v=0
368549 On ch=8 n=g#5 v=0
369153 On ch=8 n=g#3 v=127
369589 On ch=8 n=g#3 v=0
369753 On ch=8 n=g#4 v=127
369950 On ch=8 n=g#4 v=0
369953 On ch=8 n=g#5 v=127
370150 On ch=8 n=g#5 v=0
370153 On ch=8 n=g#4 v=127
370350 On ch=8 n=g#4 v=0
370953 On ch=8 n=g#4 v=127
371150 On ch=8 n=g#4 v=0
373355 On ch=8 n=g#4 v=127
373552 On ch=8 n=g#4 v=0
374155 On ch=8 n=g#4 v=127
374352 On ch=8 n=g#4 v=0
375155 On ch=8 n=g#5 v=127
376552 On ch=8 n=g#5 v=0
376755 On ch=8 n=g#4 v=127
376952 On ch=8 n=g#4 v=0
377956 On ch=8 n=g#4 v=127
378153 On ch=8 n=g#4 v=0
378756 On ch=8 n=g#4 v=127
380556 On ch=8 n=g#6 v=127
380756 On ch=8 n=g#5 v=127
380953 On ch=8 n=g#5 v=0
381153 On ch=8 n=g#6 v=0
381354 On ch=8 n=g#4 v=0
381557 On ch=8 n=g#4 v=127
381754 On ch=8 n=g#4 v=0
381957 On ch=8 n=g#4 v=127
382154 On ch=8 n=g#4 v=0
382957 On ch=8 n=g#4 v=127
383154 On ch=8 n=g#4 v=0
383357 On ch=8 n=g#5 v=127
383554 On ch=8 n=g#5 v=0
383557 On ch=8 n=g#6 v=127
384160 On ch=8 n=g#6 v=0
385376 On ch=8 n=g#4 v=127
385376 On ch=8 n=g#5 v=127
385576 On ch=8 n=g#4 v=0
385979 On ch=8 n=g#5 v=0
386187 On ch=8 n=g#4 v=127
386388 On ch=8 n=g#4 v=0
387637 On ch=8 n=g#5 v=127
387848 On ch=8 n=g#5 v=0
388066 On ch=8 n=g#3 v=127
388288 On ch=8 n=g#3 v=0
388516 On ch=8 n=g#3 v=127
388990 On ch=8 n=g#5 v=127
389225 On ch=8 n=g#5 v=0
390042 On ch=8 n=g#3 v=0
390042 Meta TrkEnd
TrkEnd
MTrk
0 SeqSpec 43 00 01 00
0 PrCh ch=9 p=0
0 Pb ch=9 v=7712
4395 On ch=9 n=a4 v=127
4788 On ch=9 n=a4 v=0
7563 On ch=9 n=a4 v=127
8946 On ch=9 n=a4 v=0
10731 On ch=9 n=a5 v=127
11124 On ch=9 n=a5 v=0
16077 On ch=9 n=a4 v=127
16272 On ch=9 n=a4 v=0
17860 On ch=9 n=a5 v=127
19045 On ch=9 n=a5 v=0
20631 On ch=9 n=a6 v=127
21024 On ch=9 n=a6 v=0
21027 On ch=9 n=a5 v=127
21420 On ch=9 n=a5 v=0
28551 On ch=9 n=a4 v=127
28944 On ch=9 n=a4 v=0
29873 On ch=9 n=a5 v=127
30001 On ch=9 n=a5 v=0
30141 On ch=9 n=a5 v=127
30532 On ch=9 n=a5 v=0
31323 On ch=9 n=a5 v=127
31716 On ch=9 n=a5 v=0
32115 On ch=9 n=a5 v=127
32508 On ch=9 n=a5 v=0
34491 On ch=9 n=a3 v=127
34884 On ch=9 n=a3 v=0
66963 On ch=9 n=a6 v=127
67356 On ch=9 n=a6 v=0
68547 On ch=9 n=a4 v=127
68940 On ch=9 n=a4 v=0
70725 On ch=9 n=a6 v=127
70920 On ch=9 n=a6 v=0
72507 On ch=9 n=a5 v=127
72900 On ch=9 n=a5 v=0
73300 On ch=9 n=a5 v=127
73693 On ch=9 n=a5 v=0
73695 On ch=9 n=a5 v=127
74088 On ch=9 n=a5 v=0
74487 On ch=9 n=a5 v=127
74880 On ch=9 n=a5 v=0
74883 On ch=9 n=a4 v=127
75671 On ch=9 n=a4 v=0
82803 On ch=9 n=a4 v=127
82998 On ch=9 n=a4 v=0
83200 On ch=9 n=a4 v=127
83395 On ch=9 n=a4 v=0
83595 On ch=9 n=a4 v=127
83988 On ch=9 n=a4 v=0
83991 On ch=9 n=a5 v=127
83991 On ch=9 n=a3 v=127
84384 On ch=9 n=a3 v=0
84384 On ch=9 n=a5 v=0
84387 On ch=9 n=a4 v=127
84582 On ch=9 n=a4 v=0
84783 On ch=9 n=a4 v=127
85968 On ch=9 n=a4 v=0
86170 On ch=9 n=a4 v=127
86365 On ch=9 n=a4 v=0
87160 On ch=9 n=a5 v=127
87553 On ch=9 n=a5 v=0
88347 On ch=9 n=a4 v=127
88740 On ch=9 n=a4 v=0
89140 On ch=9 n=a5 v=127
89533 On ch=9 n=a5 v=0
89931 On ch=9 n=a4 v=127
90324 On ch=9 n=a4 v=0
90327 On ch=9 n=a5 v=127
90525 On ch=9 n=a4 v=127
90720 On ch=9 n=a4 v=0
90720 On ch=9 n=a5 v=0
97653 On ch=9 n=a5 v=127
97848 On ch=9 n=a5 v=0
98050 On ch=9 n=a4 v=127
98245 On ch=9 n=a4 v=0
98841 On ch=9 n=a5 v=127
99036 On ch=9 n=a5 v=0
100227 On ch=9 n=a4 v=127
100620 On ch=9 n=a4 v=0
100623 On ch=9 n=a5 v=127
100818 On ch=9 n=a5 v=0
101020 On ch=9 n=a5 v=127
101415 On ch=9 n=a6 v=127
101610 On ch=9 n=a6 v=0
103000 On ch=9 n=a5 v=0
103000 On ch=9 n=a5 v=127
103393 On ch=9 n=a5 v=0
108741 On ch=9 n=a6 v=127
108936 On ch=9 n=a6 v=0
110523 On ch=9 n=a5 v=127
111306 On ch=9 n=a5 v=0
114087 On ch=9 n=a5 v=127
114483 On ch=9 n=a3 v=127
114876 On ch=9 n=a3 v=0
115272 On ch=9 n=a5 v=0
116265 On ch=9 n=a6 v=127
116460 On ch=9 n=a6 v=0
117255 On ch=9 n=a5 v=127
117648 On ch=9 n=a5 v=0
119631 On ch=9 n=a5 v=127
119826 On ch=9 n=a5 v=0
120621 On ch=9 n=a3 v=127
120816 On ch=9 n=a3 v=0
120820 On ch=9 n=a6 v=127
121213 On ch=9 n=a6 v=0
122997 On ch=9 n=a6 v=127
123192 On ch=9 n=a6 v=0
123393 On ch=9 n=a3 v=127
123588 On ch=9 n=a3 v=0
126363 On ch=9 n=a5 v=127
126757 On ch=9 n=a6 v=127
127150 On ch=9 n=a6 v=0
127545 On ch=9 n=a5 v=0
127944 On ch=9 n=a5 v=127
128337 On ch=9 n=a5 v=0
130717 On ch=9 n=a5 v=127
130912 On ch=9 n=a5 v=0
131112 On ch=9 n=a5 v=127
131112 On ch=9 n=a4 v=127
131307 On ch=9 n=a4 v=0
131505 On ch=9 n=a5 v=0
131508 On ch=9 n=a4 v=127
131901 On ch=9 n=a4 v=0
133687 On ch=9 n=a5 v=127
133882 On ch=9 n=a5 v=0
137844 On ch=9 n=a4 v=127
138237 On ch=9 n=a4 v=0
140617 On ch=9 n=a4 v=127
141010 On ch=9 n=a4 v=0
142597 On ch=9 n=a6 v=127
142792 On ch=9 n=a6 v=0
142893 On ch=9 n=a6 v=127
142989 On ch=9 n=a6 v=0
144972 On ch=9 n=a5 v=127
145760 On ch=9 n=a5 v=0
145764 On ch=9 n=a5 v=127
146157 On ch=9 n=a5 v=0
146160 On ch=9 n=a5 v=127
146553 On ch=9 n=a5 v=0
151507 On ch=9 n=a4 v=127
151702 On ch=9 n=a4 v=0
153288 On ch=9 n=a5 v=127
154473 On ch=9 n=a5 v=0
156060 On ch=9 n=a6 v=127
156453 On ch=9 n=a6 v=0
156457 On ch=9 n=a5 v=127
156850 On ch=9 n=a5 v=0
166357 On ch=9 n=a5 v=127
166750 On ch=9 n=a5 v=0
167544 On ch=9 n=a3 v=127
168332 On ch=9 n=a3 v=0
168337 On ch=9 n=a4 v=127
168730 On ch=9 n=a4 v=0
168732 On ch=9 n=a4 v=127
168927 On ch=9 n=a4 v=0
169128 On ch=9 n=a4 v=127
169323 On ch=9 n=a4 v=0
172692 On ch=9 n=a5 v=127
173085 On ch=9 n=a5 v=0
178632 On ch=9 n=a6 v=127
178827 On ch=9 n=a6 v=0
189717 On ch=9 n=a4 v=127
189912 On ch=9 n=a4 v=0
190114 On ch=9 n=a4 v=127
190309 On ch=9 n=a4 v=0
190707 On ch=9 n=a4 v=127
190902 On ch=9 n=a4 v=0
191895 On ch=9 n=a5 v=127
192090 On ch=9 n=a5 v=0
194074 On ch=9 n=a4 v=127
194269 On ch=9 n=a4 v=0
194469 On ch=9 n=a5 v=127
194860 On ch=9 n=a5 v=0
195014 On ch=9 n=a5 v=127
195160 On ch=9 n=a5 v=0
195311 On ch=9 n=a5 v=127
195457 On ch=9 n=a5 v=0
195607 On ch=9 n=a5 v=127
195753 On ch=9 n=a5 v=0
195905 On ch=9 n=a5 v=127
196051 On ch=9 n=a5 v=0
199617 On ch=9 n=a4 v=127
200010 On ch=9 n=a4 v=0
203577 On ch=9 n=a5 v=127
203970 On ch=9 n=a5 v=0
204765 On ch=9 n=a5 v=127
206346 On ch=9 n=a5 v=0
207537 On ch=9 n=a5 v=127
207537 On ch=9 n=a4 v=127
207930 On ch=9 n=a4 v=0
207930 On ch=9 n=a5 v=0
208329 On ch=9 n=a5 v=127
208722 On ch=9 n=a5 v=0
213081 On ch=9 n=a6 v=127
213474 On ch=9 n=a6 v=0
213874 On ch=9 n=a3 v=127
214274 On ch=9 n=a3 v=0
214677 On ch=9 n=a5 v=127
215077 On ch=9 n=a5 v=0
229909 On ch=9 n=a5 v=127
230106 On ch=9 n=a5 v=0
230309 On ch=9 n=a5 v=127
230506 On ch=9 n=a5 v=0
230909 On ch=9 n=a5 v=127
231106 On ch=9 n=a5 v=0
235310 On ch=9 n=a5 v=127
236507 On ch=9 n=a5 v=0
237111 On ch=9 n=a4 v=127
238308 On ch=9 n=a4 v=0
238711 On ch=9 n=a5 v=127
238908 On ch=9 n=a5 v=0
239111 On ch=9 n=a5 v=127
239308 On ch=9 n=a5 v=0
240312 On ch=9 n=a4 v=127
240509 On ch=9 n=a4 v=0
242712 On ch=9 n=a5 v=127
242909 On ch=9 n=a5 v=0
244914 On ch=9 n=a4 v=127
245111 On ch=9 n=a4 v=0
248515 On ch=9 n=a3 v=127
249712 On ch=9 n=a3 v=0
250315 On ch=9 n=a4 v=127
250512 On ch=9 n=a4 v=0
250715 On ch=9 n=a4 v=127
250912 On ch=9 n=a4 v=0
251315 On ch=9 n=a4 v=127
251512 On ch=9 n=a4 v=0
254116 On ch=9 n=a3 v=127
254313 On ch=9 n=a3 v=0
255316 On ch=9 n=a4 v=127
255513 On ch=9 n=a4 v=0
259917 On ch=9 n=a4 v=127
260114 On ch=9 n=a4 v=0
265920 On ch=9 n=a5 v=127
266117 On ch=9 n=a5 v=0
266320 On ch=9 n=a5 v=127
266517 On ch=9 n=a5 v=0
266920 On ch=9 n=a5 v=127
267117 On ch=9 n=a5 v=0
269521 On ch=9 n=a4 v=127
269718 On ch=9 n=a4 v=0
269921 On ch=9 n=a4 v=127
270118 On ch=9 n=a4 v=0
270121 On ch=9 n=a5 v=127
270521 On ch=9 n=a4 v=127
270718 On ch=9 n=a4 v=0
271318 On ch=9 n=a5 v=0
271521 On ch=9 n=a4 v=127
271718 On ch=9 n=a4 v=0
271921 On ch=9 n=a5 v=127
272518 On ch=9 n=a5 v=0
277124 On ch=9 n=a5 v=127
277721 On ch=9 n=a5 v=0
281925 On ch=9 n=a4 v=127
282122 On ch=9 n=a4 v=0
282125 On ch=9 n=a4 v=127
282223 On ch=9 n=a4 v=0
282327 On ch=9 n=a4 v=127
282425 On ch=9 n=a4 v=0
282529 On ch=9 n=a4 v=127
282627 On ch=9 n=a4 v=0
282731 On ch=9 n=a5 v=127
282928 On ch=9 n=a5 v=0
283731 On ch=9 n=a5 v=127
283928 On ch=9 n=a5 v=0
284131 On ch=9 n=a5 v=127
284328 On ch=9 n=a5 v=0
285132 On ch=9 n=a5 v=127
285329 On ch=9 n=a5 v=0
285532 On ch=9 n=a5 v=127
285729 On ch=9 n=a5 v=0
286532 On ch=9 n=a4 v=127
286729 On ch=9 n=a4 v=0
287332 On ch=9 n=a5 v=127
287529 On ch=9 n=a5 v=0
287932 On ch=9 n=a4 v=127
288129 On ch=9 n=a4 v=0
291534 On ch=9 n=a5 v=127
291731 On ch=9 n=a5 v=0
295335 On ch=9 n=a5 v=127
296532 On ch=9 n=a5 v=0
297237 On ch=9 n=a3 v=127
297335 On ch=9 n=a3 v=0
297439 On ch=9 n=a3 v=127
297537 On ch=9 n=a3 v=0
297641 On ch=9 n=a3 v=127
298339 On ch=9 n=a3 v=0
299942 On ch=9 n=a5 v=127
300336 On ch=9 n=a5 v=0
301741 On ch=9 n=a4 v=127
301938 On ch=9 n=a4 v=0
303141 On ch=9 n=a4 v=127
303338 On ch=9 n=a4 v=0
307342 On ch=9 n=a5 v=127
307939 On ch=9 n=a5 v=0
320546 On ch=9 n=a5 v=127
320743 On ch=9 n=a5 v=0
321347 On ch=9 n=a4 v=127
321544 On ch=9 n=a4 v=0
325548 On ch=9 n=a5 v=127
325745 On ch=9 n=a5 v=0
325948 On ch=9 n=a4 v=127
326545 On ch=9 n=a4 v=0
327148 On ch=9 n=a5 v=127
328046 On ch=9 n=a5 v=0
330352 On ch=9 n=a5 v=127
330549 On ch=9 n=a5 v=0
331752 On ch=9 n=a5 v=127
331949 On ch=9 n=a5 v=0
332352 On ch=9 n=a6 v=127
332549 On ch=9 n=a6 v=0
333152 On ch=9 n=a4 v=127
333349 On ch=9 n=a4 v=0
334353 On ch=9 n=a4 v=127
334747 On ch=9 n=a4 v=0
338351 On ch=9 n=a5 v=127
338745 On ch=9 n=a5 v=0
339148 On ch=9 n=a3 v=127
340046 On ch=9 n=a3 v=0
340951 On ch=9 n=a3 v=127
341548 On ch=9 n=a3 v=0
342753 On ch=9 n=a4 v=127
342950 On ch=9 n=a4 v=0
343153 On ch=9 n=a4 v=127
343350 On ch=9 n=a4 v=0
343553 On ch=9 n=a4 v=127
343750 On ch=9 n=a4 v=0
343753 On ch=9 n=a5 v=127
343950 On ch=9 n=a5 v=0
344553 On ch=9 n=a4 v=127
344753 On ch=9 n=a5 v=127
344950 On ch=9 n=a5 v=0
345150 On ch=9 n=a4 v=0
346355 On ch=9 n=a3 v=127
346355 On ch=9 n=a5 v=127
346552 On ch=9 n=a3 v=0
347955 On ch=9 n=a3 v=127
348152 On ch=9 n=a3 v=0
348152 On ch=9 n=a5 v=0
348355 On ch=9 n=a4 v=127
348552 On ch=9 n=a4 v=0
348755 On ch=9 n=a5 v=127
348952 On ch=9 n=a5 v=0
348956 On ch=9 n=a4 v=127
349153 On ch=9 n=a4 v=0
349356 On ch=9 n=a4 v=127
349553 On ch=9 n=a4 v=0
349756 On ch=9 n=a5 v=127
349953 On ch=9 n=a5 v=0
350156 On ch=9 n=a4 v=127
350353 On ch=9 n=a4 v=0
351156 On ch=9 n=a4 v=127
351753 On ch=9 n=a4 v=0
351756 On ch=9 n=a5 v=127
352553 On ch=9 n=a5 v=0
355557 On ch=9 n=a5 v=127
355754 On ch=9 n=a5 v=0
357758 On ch=9 n=a5 v=127
357955 On ch=9 n=a5 v=0
358158 On ch=9 n=a5 v=127
358355 On ch=9 n=a5 v=0
358758 On ch=9 n=a5 v=127
358955 On ch=9 n=a5 v=0
359558 On ch=9 n=a4 v=127
359758 On ch=9 n=a5 v=127
359955 On ch=9 n=a5 v=0
360155 On ch=9 n=a4 v=0
372168 On ch=9 n=a4 v=127
373365 On ch=9 n=a4 v=0
376370 On ch=9 n=a4 v=127
376963 On ch=9 n=a4 v=0
376970 On ch=9 n=a4 v=127
377171 On ch=9 n=a5 v=127
377368 On ch=9 n=a5 v=0
377967 On ch=9 n=a4 v=0
381772 On ch=9 n=a4 v=127
381969 On ch=9 n=a4 v=0
382172 On ch=9 n=a4 v=127
382369 On ch=9 n=a4 v=0
385998 On ch=9 n=a4 v=127
386199 On ch=9 n=a4 v=0
386406 On ch=9 n=a4 v=127
386607 On ch=9 n=a4 v=0
388306 On ch=9 n=a3 v=127
388528 On ch=9 n=a3 v=0
388767 On ch=9 n=a5 v=127
389002 On ch=9 n=a5 v=0
389002 Meta TrkEnd
TrkEnd
MTrk
0 SeqSpec 43 00 01 00
0 PrCh ch=11 p=0
0 Pb ch=11 v=8032
32511 On ch=11 n=a#3 v=127
32904 On ch=11 n=a#3 v=0
37660 On ch=11 n=a#3 v=127
38053 On ch=11 n=a#3 v=0
38451 On ch=11 n=a#5 v=127
38844 On ch=11 n=a#5 v=0
40035 On ch=11 n=a#5 v=127
40818 On ch=11 n=a#5 v=0
41620 On ch=11 n=a#5 v=127
41620 On ch=11 n=a#3 v=127
41815 On ch=11 n=a#3 v=0
42411 On ch=11 n=a#3 v=127
42804 On ch=11 n=a#3 v=0
43600 On ch=11 n=a#5 v=0
45975 On ch=11 n=a#5 v=127
46368 On ch=11 n=a#5 v=0
51123 On ch=11 n=a#5 v=127
51516 On ch=11 n=a#5 v=0
52311 On ch=11 n=a#6 v=127
53094 On ch=11 n=a#6 v=0
54291 On ch=11 n=a#6 v=127
54684 On ch=11 n=a#6 v=0
54687 On ch=11 n=a#5 v=127
56667 On ch=11 n=a#5 v=0
61023 On ch=11 n=a#5 v=127
62406 On ch=11 n=a#5 v=0
62805 On ch=11 n=a#5 v=127
63000 On ch=11 n=a#5 v=0
64777 On ch=11 n=a#5 v=127
64962 On ch=11 n=a#5 v=0
76863 On ch=11 n=a#4 v=127
77058 On ch=11 n=a#4 v=0
77655 On ch=11 n=a#5 v=127
78048 On ch=11 n=a#5 v=0
78645 On ch=11 n=a#4 v=127
78840 On ch=11 n=a#4 v=0
79240 On ch=11 n=a#5 v=127
79633 On ch=11 n=a#5 v=0
79833 On ch=11 n=a#4 v=127
80028 On ch=11 n=a#4 v=0
81021 On ch=11 n=a#4 v=127
81216 On ch=11 n=a#4 v=0
95871 On ch=11 n=a#4 v=127
96264 On ch=11 n=a#4 v=0
106563 On ch=11 n=a#6 v=127
106758 On ch=11 n=a#6 v=0
107107 On ch=11 n=a#6 v=127
107260 On ch=11 n=a#6 v=0
107405 On ch=11 n=a#6 v=127
107558 On ch=11 n=a#6 v=0
107702 On ch=11 n=a#6 v=127
107855 On ch=11 n=a#6 v=0
107998 On ch=11 n=a#6 v=127
108144 On ch=11 n=a#6 v=0
136263 On ch=11 n=a#4 v=127
136458 On ch=11 n=a#4 v=0
142005 On ch=11 n=a#5 v=127
142200 On ch=11 n=a#5 v=0
143787 On ch=11 n=a#5 v=127
144378 On ch=11 n=a#5 v=0
144580 On ch=11 n=a#5 v=127
144775 On ch=11 n=a#5 v=0
160815 On ch=11 n=a#5 v=127
161013 On ch=11 n=a#3 v=127
161208 On ch=11 n=a#3 v=0
162192 On ch=11 n=a#5 v=0
162597 On ch=11 n=a#5 v=127
162792 On ch=11 n=a#5 v=0
164775 On ch=11 n=a#3 v=127
164970 On ch=11 n=a#3 v=0
179230 On ch=11 n=a#5 v=127
179425 On ch=11 n=a#5 v=0
184180 On ch=11 n=a#5 v=127
184573 On ch=11 n=a#5 v=0
185763 On ch=11 n=a#5 v=127
186357 On ch=11 n=a#4 v=127
186546 On ch=11 n=a#5 v=0
186552 On ch=11 n=a#4 v=0
187150 On ch=11 n=a#4 v=127
187345 On ch=11 n=a#4 v=0
187941 On ch=11 n=a#4 v=127
188136 On ch=11 n=a#4 v=0
209127 On ch=11 n=a#5 v=127
209520 On ch=11 n=a#5 v=0
211107 On ch=11 n=a#5 v=127
211500 On ch=11 n=a#5 v=0
222912 On ch=11 n=a#3 v=127
223109 On ch=11 n=a#3 v=0
225713 On ch=11 n=a#5 v=127
225910 On ch=11 n=a#5 v=0
226113 On ch=11 n=a#5 v=127
226310 On ch=11 n=a#5 v=0
227113 On ch=11 n=a#5 v=127
227310 On ch=11 n=a#5 v=0
227513 On ch=11 n=a#3 v=127
228110 On ch=11 n=a#3 v=0
228113 On ch=11 n=a#5 v=127
228310 On ch=11 n=a#5 v=0
228915 On ch=11 n=a#5 v=127
229112 On ch=11 n=a#5 v=0
232516 On ch=11 n=a#4 v=127
232713 On ch=11 n=a#4 v=0
246720 On ch=11 n=a#3 v=127
246917 On ch=11 n=a#3 v=0
253322 On ch=11 n=a#4 v=127
253919 On ch=11 n=a#4 v=0
256323 On ch=11 n=a#5 v=127
256920 On ch=11 n=a#5 v=0
258923 On ch=11 n=a#5 v=127
259120 On ch=11 n=a#5 v=0
260725 On ch=11 n=a#4 v=127
260922 On ch=11 n=a#4 v=0
261725 On ch=11 n=a#5 v=127
261922 On ch=11 n=a#5 v=0
262125 On ch=11 n=a#5 v=127
262322 On ch=11 n=a#5 v=0
262325 On ch=11 n=a#6 v=127
262922 On ch=11 n=a#6 v=0
263125 On ch=11 n=a#5 v=127
263322 On ch=11 n=a#5 v=0
263525 On ch=11 n=a#4 v=127
264122 On ch=11 n=a#4 v=0
264125 On ch=11 n=a#5 v=127
264322 On ch=11 n=a#5 v=0
264926 On ch=11 n=a#5 v=127
265123 On ch=11 n=a#5 v=0
267726 On ch=11 n=a#5 v=127
267923 On ch=11 n=a#5 v=0
268126 On ch=11 n=a#5 v=127
268323 On ch=11 n=a#5 v=0
274128 On ch=11 n=a#5 v=127
274325 On ch=11 n=a#5 v=0
275728 On ch=11 n=a#4 v=127
275925 On ch=11 n=a#4 v=0
278130 On ch=11 n=a#6 v=127
278327 On ch=11 n=a#6 v=0
279530 On ch=11 n=a#5 v=127
279727 On ch=11 n=a#5 v=0
280130 On ch=11 n=a#4 v=127
280327 On ch=11 n=a#4 v=0
280931 On ch=11 n=a#4 v=127
281325 On ch=11 n=a#4 v=0
286135 On ch=11 n=a#5 v=127
286332 On ch=11 n=a#5 v=0
291137 On ch=11 n=a#5 v=127
291531 On ch=11 n=a#5 v=0
292535 On ch=11 n=a#4 v=127
292732 On ch=11 n=a#4 v=0
293535 On ch=11 n=a#5 v=127
294132 On ch=11 n=a#5 v=0
298942 On ch=11 n=a#3 v=127
299539 On ch=11 n=a#3 v=0
304541 On ch=11 n=a#4 v=127
304738 On ch=11 n=a#4 v=0
304942 On ch=11 n=a#4 v=127
305539 On ch=11 n=a#4 v=0
306742 On ch=11 n=a#5 v=127
307339 On ch=11 n=a#5 v=0
309543 On ch=11 n=a#5 v=127
309740 On ch=11 n=a#5 v=0
310343 On ch=11 n=a#5 v=127
310540 On ch=11 n=a#5 v=0
311343 On ch=11 n=a#5 v=127
311540 On ch=11 n=a#5 v=0
312143 On ch=11 n=a#4 v=127
312740 On ch=11 n=a#4 v=0
313944 On ch=11 n=a#5 v=127
314544 On ch=11 n=a#3 v=127
314741 On ch=11 n=a#3 v=0
315141 On ch=11 n=a#5 v=0
315344 On ch=11 n=a#3 v=127
315541 On ch=11 n=a#3 v=0
316344 On ch=11 n=a#3 v=127
316941 On ch=11 n=a#3 v=0
316946 On ch=11 n=a#5 v=127
317143 On ch=11 n=a#5 v=0
317746 On ch=11 n=a#5 v=127
317943 On ch=11 n=a#5 v=0
322347 On ch=11 n=a#4 v=127
322544 On ch=11 n=a#4 v=0
324147 On ch=11 n=a#4 v=127
324744 On ch=11 n=a#4 v=0
328351 On ch=11 n=a#4 v=127
328948 On ch=11 n=a#4 v=0
335753 On ch=11 n=a#5 v=127
335950 On ch=11 n=a#5 v=0
340157 On ch=11 n=a#3 v=127
340354 On ch=11 n=a#3 v=0
352562 On ch=11 n=a#3 v=127
352759 On ch=11 n=a#3 v=0
353563 On ch=11 n=a#5 v=127
354160 On ch=11 n=a#5 v=0
360564 On ch=11 n=a#4 v=127
360761 On ch=11 n=a#4 v=0
362366 On ch=11 n=a#5 v=127
362563 On ch=11 n=a#5 v=0
366167 On ch=11 n=a#4 v=127
366367 On ch=11 n=a#4 v=0
366571 On ch=11 n=a#4 v=127
366771 On ch=11 n=a#4 v=0
367573 On ch=11 n=a#4 v=127
367770 On ch=11 n=a#4 v=0
367973 On ch=11 n=a#3 v=127
368570 On ch=11 n=a#3 v=0
368573 On ch=11 n=a#4 v=127
368770 On ch=11 n=a#4 v=0
370574 On ch=11 n=a#4 v=127
370771 On ch=11 n=a#4 v=0
371574 On ch=11 n=a#4 v=127
372171 On ch=11 n=a#4 v=0
374376 On ch=11 n=a#4 v=127
374573 On ch=11 n=a#4 v=0
378977 On ch=11 n=a#4 v=127
379174 On ch=11 n=a#4 v=0
382778 On ch=11 n=a#5 v=127
382975 On ch=11 n=a#5 v=0
383178 On ch=11 n=a#4 v=127
383178 On ch=11 n=a#5 v=127
383375 On ch=11 n=a#5 v=0
383375 On ch=11 n=a#4 v=0
384184 On ch=11 n=a#4 v=127
384384 On ch=11 n=a#4 v=0
384993 On ch=11 n=a#4 v=127
385193 On ch=11 n=a#4 v=0
385193 Meta TrkEnd
TrkEnd
